$MeshFormat
2.2 0 8
$EndMeshFormat
$Nodes
259
1 -40 -40 0
2 -40 -40 -80
3 -40 40 0
4 -40 40 -80
5 40 -40 0
6 40 -40 -80
7 40 40 0
8 40 40 -80
9 -40 40 -100
10 -40 -40 -100
11 40 40 -100
12 40 -40 -100
13 -60 -40 0
14 -60 -40 -80
15 -60 40 0
16 -60 40 -80
17 60 -40 0
18 60 -40 -80
19 60 40 0
20 60 40 -80
21 40 -60 -80
22 -40 -60 -80
23 40 -60 0
24 -40 -60 0
25 40 60 -80
26 -40 60 -80
27 40 60 0
28 -40 60 0
29 -60 40 -100
30 -60 -40 -100
31 60 40 -100
32 60 -40 -100
33 40 -60 -100
34 -40 -60 -100
35 40 60 -100
36 -40 60 -100
37 -60 -60 0
38 -60 -60 -80
39 -60 60 0
40 -60 60 -80
41 60 -60 0
42 60 -60 -80
43 60 60 0
44 60 60 -80
45 -60 -60 -100
46 -60 60 -100
47 60 -60 -100
48 60 60 -100
49 0 0 0
50 0 0 -10
51 0 0 -20
52 0 0 -30
53 0 0 -40
54 0 0 -50
55 0 0 -60
56 0 0 -70
57 0 0 -80
58 -40 -40 -70
59 -40 -40 -60
60 -40 -40 -50
61 -40 -40 -40
62 -40 -40 -30
63 -40 -40 -20
64 -40 -40 -10
65 -40 0 0
66 -40 40 -70
67 -40 40 -60
68 -40 40 -50
69 -40 40 -40
70 -40 40 -30
71 -40 40 -20
72 -40 40 -10
73 -40 0 -80
74 40 -40 -70
75 40 -40 -60
76 40 -40 -50
77 40 -40 -40
78 40 -40 -30
79 40 -40 -20
80 40 -40 -10
81 40 0 0
82 40 40 -70
83 40 40 -60
84 40 40 -50
85 40 40 -40
86 40 40 -30
87 40 40 -20
88 40 40 -10
89 40 0 -80
90 0 -40 -80
91 0 -40 0
92 0 40 -80
93 0 40 0
94 -40 0 -100
95 0 40 -100
96 40 0 -100
97 0 -40 -100
98 -60 -40 -70
99 -60 -40 -60
100 -60 -40 -50
101 -60 -40 -40
102 -60 -40 -30
103 -60 -40 -20
104 -60 -40 -10
105 -60 0 0
106 -60 40 -70
107 -60 40 -60
108 -60 40 -50
109 -60 40 -40
110 -60 40 -30
111 -60 40 -20
112 -60 40 -10
113 -60 0 -80
114 60 -40 -70
115 60 -40 -60
116 60 -40 -50
117 60 -40 -40
118 60 -40 -30
119 60 -40 -20
120 60 -40 -10
121 60 0 0
122 60 40 -70
123 60 40 -60
124 60 40 -50
125 60 40 -40
126 60 40 -30
127 60 40 -20
128 60 40 -10
129 60 0 -80
130 0 -60 -80
131 40 -60 -70
132 40 -60 -60
133 40 -60 -50
134 40 -60 -40
135 40 -60 -30
136 40 -60 -20
137 40 -60 -10
138 0 -60 0
139 -40 -60 -70
140 -40 -60 -60
141 -40 -60 -50
142 -40 -60 -40
143 -40 -60 -30
144 -40 -60 -20
145 -40 -60 -10
146 0 60 -80
147 40 60 -70
148 40 60 -60
149 40 60 -50
150 40 60 -40
151 40 60 -30
152 40 60 -20
153 40 60 -10
154 0 60 0
155 -40 60 -70
156 -40 60 -60
157 -40 60 -50
158 -40 60 -40
159 -40 60 -30
160 -40 60 -20
161 -40 60 -10
162 -60 0 -100
163 60 0 -100
164 0 -60 -100
165 0 60 -100
166 -60 -60 -70
167 -60 -60 -60
168 -60 -60 -50
169 -60 -60 -40
170 -60 -60 -30
171 -60 -60 -20
172 -60 -60 -10
173 -60 60 -70
174 -60 60 -60
175 -60 60 -50
176 -60 60 -40
177 -60 60 -30
178 -60 60 -20
179 -60 60 -10
180 60 -60 -70
181 60 -60 -60
182 60 -60 -50
183 60 -60 -40
184 60 -60 -30
185 60 -60 -20
186 60 -60 -10
187 60 60 -70
188 60 60 -60
189 60 60 -50
190 60 60 -40
191 60 60 -30
192 60 60 -20
193 60 60 -10
194 -40 0 -70
195 -40 0 -60
196 -40 0 -50
197 -40 0 -40
198 -40 0 -30
199 -40 0 -20
200 -40 0 -10
201 40 0 -70
202 40 0 -60
203 40 0 -50
204 40 0 -40
205 40 0 -30
206 40 0 -20
207 40 0 -10
208 0 -40 -70
209 0 -40 -60
210 0 -40 -50
211 0 -40 -40
212 0 -40 -30
213 0 -40 -20
214 0 -40 -10
215 0 40 -70
216 0 40 -60
217 0 40 -50
218 0 40 -40
219 0 40 -30
220 0 40 -20
221 0 40 -10
222 0 0 -80
223 0 0 0
224 0 0 -100
225 -60 0 -70
226 -60 0 -60
227 -60 0 -50
228 -60 0 -40
229 -60 0 -30
230 -60 0 -20
231 -60 0 -10
232 60 0 -70
233 60 0 -60
234 60 0 -50
235 60 0 -40
236 60 0 -30
237 60 0 -20
238 60 0 -10
239 0 -60 -70
240 0 -60 -60
241 0 -60 -50
242 0 -60 -40
243 0 -60 -30
244 0 -60 -20
245 0 -60 -10
246 0 60 -70
247 0 60 -60
248 0 60 -50
249 0 60 -40
250 0 60 -30
251 0 60 -20
252 0 60 -10
253 0 0 -70
254 0 0 -60
255 0 0 -50
256 0 0 -40
257 0 0 -30
258 0 0 -20
259 0 0 -10
$EndNodes
$Elements
785
1 15 2 0 1 1
2 15 2 0 2 2
3 15 2 0 3 3
4 15 2 0 4 4
5 15 2 0 5 5
6 15 2 0 6 6
7 15 2 0 7 7
8 15 2 0 8 8
9 15 2 0 9 9
10 15 2 0 10 10
11 15 2 0 11 11
12 15 2 0 12 12
13 15 2 0 13 13
14 15 2 0 14 14
15 15 2 0 15 15
16 15 2 0 16 16
17 15 2 0 17 17
18 15 2 0 18 18
19 15 2 0 19 19
20 15 2 0 20 20
21 15 2 0 21 21
22 15 2 0 22 22
23 15 2 0 23 23
24 15 2 0 24 24
25 15 2 0 25 25
26 15 2 0 26 26
27 15 2 0 27 27
28 15 2 0 28 28
29 15 2 0 29 29
30 15 2 0 30 30
31 15 2 0 31 31
32 15 2 0 32 32
33 15 2 0 33 33
34 15 2 0 34 34
35 15 2 0 35 35
36 15 2 0 36 36
37 15 2 0 37 37
38 15 2 0 38 38
39 15 2 0 39 39
40 15 2 0 40 40
41 15 2 0 41 41
42 15 2 0 42 42
43 15 2 0 43 43
44 15 2 0 44 44
45 15 2 0 45 45
46 15 2 0 46 46
47 15 2 0 47 47
48 15 2 0 48 48
49 15 2 0 49 49
50 15 2 0 50 50
51 15 2 0 51 51
52 15 2 0 52 52
53 15 2 0 53 53
54 15 2 0 54 54
55 15 2 0 55 55
56 15 2 0 56 56
57 15 2 0 57 57
58 1 2 0 1 2 58
59 1 2 0 1 58 59
60 1 2 0 1 59 60
61 1 2 0 1 60 61
62 1 2 0 1 61 62
63 1 2 0 1 62 63
64 1 2 0 1 63 64
65 1 2 0 1 64 1
66 1 2 0 2 1 65
67 1 2 0 2 65 3
68 1 2 0 3 4 66
69 1 2 0 3 66 67
70 1 2 0 3 67 68
71 1 2 0 3 68 69
72 1 2 0 3 69 70
73 1 2 0 3 70 71
74 1 2 0 3 71 72
75 1 2 0 3 72 3
76 1 2 0 4 2 73
77 1 2 0 4 73 4
78 1 2 0 5 6 74
79 1 2 0 5 74 75
80 1 2 0 5 75 76
81 1 2 0 5 76 77
82 1 2 0 5 77 78
83 1 2 0 5 78 79
84 1 2 0 5 79 80
85 1 2 0 5 80 5
86 1 2 0 6 5 81
87 1 2 0 6 81 7
88 1 2 0 7 8 82
89 1 2 0 7 82 83
90 1 2 0 7 83 84
91 1 2 0 7 84 85
92 1 2 0 7 85 86
93 1 2 0 7 86 87
94 1 2 0 7 87 88
95 1 2 0 7 88 7
96 1 2 0 8 6 89
97 1 2 0 8 89 8
98 1 2 0 9 2 90
99 1 2 0 9 90 6
100 1 2 0 10 1 91
101 1 2 0 10 91 5
102 1 2 0 11 4 92
103 1 2 0 11 92 8
104 1 2 0 12 3 93
105 1 2 0 12 93 7
106 1 2 0 13 4 9
107 1 2 0 14 2 10
108 1 2 0 15 10 94
109 1 2 0 15 94 9
110 1 2 0 16 8 11
111 1 2 0 17 9 95
112 1 2 0 17 95 11
113 1 2 0 18 6 12
114 1 2 0 19 12 96
115 1 2 0 19 96 11
116 1 2 0 20 10 97
117 1 2 0 20 97 12
118 1 2 0 21 1 13
119 1 2 0 22 2 14
120 1 2 0 23 14 98
121 1 2 0 23 98 99
122 1 2 0 23 99 100
123 1 2 0 23 100 101
124 1 2 0 23 101 102
125 1 2 0 23 102 103
126 1 2 0 23 103 104
127 1 2 0 23 104 13
128 1 2 0 24 3 15
129 1 2 0 25 13 105
130 1 2 0 25 105 15
131 1 2 0 26 4 16
132 1 2 0 27 16 106
133 1 2 0 27 106 107
134 1 2 0 27 107 108
135 1 2 0 27 108 109
136 1 2 0 27 109 110
137 1 2 0 27 110 111
138 1 2 0 27 111 112
139 1 2 0 27 112 15
140 1 2 0 28 14 113
141 1 2 0 28 113 16
142 1 2 0 29 5 17
143 1 2 0 30 6 18
144 1 2 0 31 18 114
145 1 2 0 31 114 115
146 1 2 0 31 115 116
147 1 2 0 31 116 117
148 1 2 0 31 117 118
149 1 2 0 31 118 119
150 1 2 0 31 119 120
151 1 2 0 31 120 17
152 1 2 0 32 7 19
153 1 2 0 33 17 121
154 1 2 0 33 121 19
155 1 2 0 34 8 20
156 1 2 0 35 20 122
157 1 2 0 35 122 123
158 1 2 0 35 123 124
159 1 2 0 35 124 125
160 1 2 0 35 125 126
161 1 2 0 35 126 127
162 1 2 0 35 127 128
163 1 2 0 35 128 19
164 1 2 0 36 18 129
165 1 2 0 36 129 20
166 1 2 0 37 6 21
167 1 2 0 38 2 22
168 1 2 0 39 22 130
169 1 2 0 39 130 21
170 1 2 0 40 5 23
171 1 2 0 41 21 131
172 1 2 0 41 131 132
173 1 2 0 41 132 133
174 1 2 0 41 133 134
175 1 2 0 41 134 135
176 1 2 0 41 135 136
177 1 2 0 41 136 137
178 1 2 0 41 137 23
179 1 2 0 42 1 24
180 1 2 0 43 24 138
181 1 2 0 43 138 23
182 1 2 0 44 22 139
183 1 2 0 44 139 140
184 1 2 0 44 140 141
185 1 2 0 44 141 142
186 1 2 0 44 142 143
187 1 2 0 44 143 144
188 1 2 0 44 144 145
189 1 2 0 44 145 24
190 1 2 0 45 8 25
191 1 2 0 46 4 26
192 1 2 0 47 26 146
193 1 2 0 47 146 25
194 1 2 0 48 7 27
195 1 2 0 49 25 147
196 1 2 0 49 147 148
197 1 2 0 49 148 149
198 1 2 0 49 149 150
199 1 2 0 49 150 151
200 1 2 0 49 151 152
201 1 2 0 49 152 153
202 1 2 0 49 153 27
203 1 2 0 50 3 28
204 1 2 0 51 28 154
205 1 2 0 51 154 27
206 1 2 0 52 26 155
207 1 2 0 52 155 156
208 1 2 0 52 156 157
209 1 2 0 52 157 158
210 1 2 0 52 158 159
211 1 2 0 52 159 160
212 1 2 0 52 160 161
213 1 2 0 52 161 28
214 1 2 0 53 9 29
215 1 2 0 54 16 29
216 1 2 0 55 10 30
217 1 2 0 56 14 30
218 1 2 0 57 30 162
219 1 2 0 57 162 29
220 1 2 0 58 11 31
221 1 2 0 59 20 31
222 1 2 0 60 12 32
223 1 2 0 61 18 32
224 1 2 0 62 32 163
225 1 2 0 62 163 31
226 1 2 0 63 12 33
227 1 2 0 64 21 33
228 1 2 0 65 10 34
229 1 2 0 66 22 34
230 1 2 0 67 34 164
231 1 2 0 67 164 33
232 1 2 0 68 11 35
233 1 2 0 69 25 35
234 1 2 0 70 9 36
235 1 2 0 71 26 36
236 1 2 0 72 36 165
237 1 2 0 72 165 35
238 1 2 0 73 13 37
239 1 2 0 74 24 37
240 1 2 0 75 14 38
241 1 2 0 76 22 38
242 1 2 0 77 38 166
243 1 2 0 77 166 167
244 1 2 0 77 167 168
245 1 2 0 77 168 169
246 1 2 0 77 169 170
247 1 2 0 77 170 171
248 1 2 0 77 171 172
249 1 2 0 77 172 37
250 1 2 0 78 28 39
251 1 2 0 79 15 39
252 1 2 0 80 26 40
253 1 2 0 81 16 40
254 1 2 0 82 40 173
255 1 2 0 82 173 174
256 1 2 0 82 174 175
257 1 2 0 82 175 176
258 1 2 0 82 176 177
259 1 2 0 82 177 178
260 1 2 0 82 178 179
261 1 2 0 82 179 39
262 1 2 0 83 17 41
263 1 2 0 84 23 41
264 1 2 0 85 18 42
265 1 2 0 86 21 42
266 1 2 0 87 42 180
267 1 2 0 87 180 181
268 1 2 0 87 181 182
269 1 2 0 87 182 183
270 1 2 0 87 183 184
271 1 2 0 87 184 185
272 1 2 0 87 185 186
273 1 2 0 87 186 41
274 1 2 0 88 19 43
275 1 2 0 89 27 43
276 1 2 0 90 20 44
277 1 2 0 91 25 44
278 1 2 0 92 44 187
279 1 2 0 92 187 188
280 1 2 0 92 188 189
281 1 2 0 92 189 190
282 1 2 0 92 190 191
283 1 2 0 92 191 192
284 1 2 0 92 192 193
285 1 2 0 92 193 43
286 1 2 0 93 30 45
287 1 2 0 94 34 45
288 1 2 0 95 38 45
289 1 2 0 96 29 46
290 1 2 0 97 36 46
291 1 2 0 98 40 46
292 1 2 0 99 33 47
293 1 2 0 100 32 47
294 1 2 0 101 42 47
295 1 2 0 102 31 48
296 1 2 0 103 35 48
297 1 2 0 104 44 48
298 1 2 0 105 49 50
299 1 2 0 106 50 51
300 1 2 0 107 51 52
301 1 2 0 108 52 53
302 1 2 0 109 53 54
303 1 2 0 110 54 55
304 1 2 0 111 55 56
305 1 2 0 112 56 57
306 3 2 0 1 2 58 194 73
307 3 2 0 1 73 194 66 4
308 3 2 0 1 58 59 195 194
309 3 2 0 1 194 195 67 66
310 3 2 0 1 59 60 196 195
311 3 2 0 1 195 196 68 67
312 3 2 0 1 60 61 197 196
313 3 2 0 1 196 197 69 68
314 3 2 0 1 61 62 198 197
315 3 2 0 1 197 198 70 69
316 3 2 0 1 62 63 199 198
317 3 2 0 1 198 199 71 70
318 3 2 0 1 63 64 200 199
319 3 2 0 1 199 200 72 71
320 3 2 0 1 64 1 65 200
321 3 2 0 1 200 65 3 72
322 3 2 0 2 6 89 201 74
323 3 2 0 2 89 8 82 201
324 3 2 0 2 74 201 202 75
325 3 2 0 2 201 82 83 202
326 3 2 0 2 75 202 203 76
327 3 2 0 2 202 83 84 203
328 3 2 0 2 76 203 204 77
329 3 2 0 2 203 84 85 204
330 3 2 0 2 77 204 205 78
331 3 2 0 2 204 85 86 205
332 3 2 0 2 78 205 206 79
333 3 2 0 2 205 86 87 206
334 3 2 0 2 79 206 207 80
335 3 2 0 2 206 87 88 207
336 3 2 0 2 80 207 81 5
337 3 2 0 2 207 88 7 81
338 3 2 0 3 2 90 208 58
339 3 2 0 3 58 208 209 59
340 3 2 0 3 59 209 210 60
341 3 2 0 3 60 210 211 61
342 3 2 0 3 61 211 212 62
343 3 2 0 3 62 212 213 63
344 3 2 0 3 63 213 214 64
345 3 2 0 3 64 214 91 1
346 3 2 0 3 90 6 74 208
347 3 2 0 3 208 74 75 209
348 3 2 0 3 209 75 76 210
349 3 2 0 3 210 76 77 211
350 3 2 0 3 211 77 78 212
351 3 2 0 3 212 78 79 213
352 3 2 0 3 213 79 80 214
353 3 2 0 3 214 80 5 91
354 3 2 0 4 4 66 215 92
355 3 2 0 4 66 67 216 215
356 3 2 0 4 67 68 217 216
357 3 2 0 4 68 69 218 217
358 3 2 0 4 69 70 219 218
359 3 2 0 4 70 71 220 219
360 3 2 0 4 71 72 221 220
361 3 2 0 4 72 3 93 221
362 3 2 0 4 92 215 82 8
363 3 2 0 4 215 216 83 82
364 3 2 0 4 216 217 84 83
365 3 2 0 4 217 218 85 84
366 3 2 0 4 218 219 86 85
367 3 2 0 4 219 220 87 86
368 3 2 0 4 220 221 88 87
369 3 2 0 4 221 93 7 88
370 3 2 0 5 2 73 222 90
371 3 2 0 5 90 222 89 6
372 3 2 0 5 73 4 92 222
373 3 2 0 5 222 92 8 89
374 3 2 0 6 1 91 223 65
375 3 2 0 6 91 5 81 223
376 3 2 0 6 65 223 93 3
377 3 2 0 6 223 81 7 93
378 3 2 0 7 2 73 94 10
379 3 2 0 7 73 4 9 94
380 3 2 0 8 4 92 95 9
381 3 2 0 8 92 8 11 95
382 3 2 0 9 6 12 96 89
383 3 2 0 9 89 96 11 8
384 3 2 0 10 2 10 97 90
385 3 2 0 10 90 97 12 6
386 3 2 0 11 10 94 224 97
387 3 2 0 11 97 224 96 12
388 3 2 0 11 94 9 95 224
389 3 2 0 11 224 95 11 96
390 3 2 0 12 2 58 98 14
391 3 2 0 12 58 59 99 98
392 3 2 0 12 59 60 100 99
393 3 2 0 12 60 61 101 100
394 3 2 0 12 61 62 102 101
395 3 2 0 12 62 63 103 102
396 3 2 0 12 63 64 104 103
397 3 2 0 12 64 1 13 104
398 3 2 0 13 1 65 105 13
399 3 2 0 13 65 3 15 105
400 3 2 0 14 4 16 106 66
401 3 2 0 14 66 106 107 67
402 3 2 0 14 67 107 108 68
403 3 2 0 14 68 108 109 69
404 3 2 0 14 69 109 110 70
405 3 2 0 14 70 110 111 71
406 3 2 0 14 71 111 112 72
407 3 2 0 14 72 112 15 3
408 3 2 0 15 2 14 113 73
409 3 2 0 15 73 113 16 4
410 3 2 0 16 14 98 225 113
411 3 2 0 16 113 225 106 16
412 3 2 0 16 98 99 226 225
413 3 2 0 16 225 226 107 106
414 3 2 0 16 99 100 227 226
415 3 2 0 16 226 227 108 107
416 3 2 0 16 100 101 228 227
417 3 2 0 16 227 228 109 108
418 3 2 0 16 101 102 229 228
419 3 2 0 16 228 229 110 109
420 3 2 0 16 102 103 230 229
421 3 2 0 16 229 230 111 110
422 3 2 0 16 103 104 231 230
423 3 2 0 16 230 231 112 111
424 3 2 0 16 104 13 105 231
425 3 2 0 16 231 105 15 112
426 3 2 0 17 6 18 114 74
427 3 2 0 17 74 114 115 75
428 3 2 0 17 75 115 116 76
429 3 2 0 17 76 116 117 77
430 3 2 0 17 77 117 118 78
431 3 2 0 17 78 118 119 79
432 3 2 0 17 79 119 120 80
433 3 2 0 17 80 120 17 5
434 3 2 0 18 5 17 121 81
435 3 2 0 18 81 121 19 7
436 3 2 0 19 8 82 122 20
437 3 2 0 19 82 83 123 122
438 3 2 0 19 83 84 124 123
439 3 2 0 19 84 85 125 124
440 3 2 0 19 85 86 126 125
441 3 2 0 19 86 87 127 126
442 3 2 0 19 87 88 128 127
443 3 2 0 19 88 7 19 128
444 3 2 0 20 6 89 129 18
445 3 2 0 20 89 8 20 129
446 3 2 0 21 18 129 232 114
447 3 2 0 21 129 20 122 232
448 3 2 0 21 114 232 233 115
449 3 2 0 21 232 122 123 233
450 3 2 0 21 115 233 234 116
451 3 2 0 21 233 123 124 234
452 3 2 0 21 116 234 235 117
453 3 2 0 21 234 124 125 235
454 3 2 0 21 117 235 236 118
455 3 2 0 21 235 125 126 236
456 3 2 0 21 118 236 237 119
457 3 2 0 21 236 126 127 237
458 3 2 0 21 119 237 238 120
459 3 2 0 21 237 127 128 238
460 3 2 0 21 120 238 121 17
461 3 2 0 21 238 128 19 121
462 3 2 0 22 2 90 130 22
463 3 2 0 22 90 6 21 130
464 3 2 0 23 6 74 131 21
465 3 2 0 23 74 75 132 131
466 3 2 0 23 75 76 133 132
467 3 2 0 23 76 77 134 133
468 3 2 0 23 77 78 135 134
469 3 2 0 23 78 79 136 135
470 3 2 0 23 79 80 137 136
471 3 2 0 23 80 5 23 137
472 3 2 0 24 1 24 138 91
473 3 2 0 24 91 138 23 5
474 3 2 0 25 2 22 139 58
475 3 2 0 25 58 139 140 59
476 3 2 0 25 59 140 141 60
477 3 2 0 25 60 141 142 61
478 3 2 0 25 61 142 143 62
479 3 2 0 25 62 143 144 63
480 3 2 0 25 63 144 145 64
481 3 2 0 25 64 145 24 1
482 3 2 0 26 22 130 239 139
483 3 2 0 26 139 239 240 140
484 3 2 0 26 140 240 241 141
485 3 2 0 26 141 241 242 142
486 3 2 0 26 142 242 243 143
487 3 2 0 26 143 243 244 144
488 3 2 0 26 144 244 245 145
489 3 2 0 26 145 245 138 24
490 3 2 0 26 130 21 131 239
491 3 2 0 26 239 131 132 240
492 3 2 0 26 240 132 133 241
493 3 2 0 26 241 133 134 242
494 3 2 0 26 242 134 135 243
495 3 2 0 26 243 135 136 244
496 3 2 0 26 244 136 137 245
497 3 2 0 26 245 137 23 138
498 3 2 0 27 4 26 146 92
499 3 2 0 27 92 146 25 8
500 3 2 0 28 8 25 147 82
501 3 2 0 28 82 147 148 83
502 3 2 0 28 83 148 149 84
503 3 2 0 28 84 149 150 85
504 3 2 0 28 85 150 151 86
505 3 2 0 28 86 151 152 87
506 3 2 0 28 87 152 153 88
507 3 2 0 28 88 153 27 7
508 3 2 0 29 3 93 154 28
509 3 2 0 29 93 7 27 154
510 3 2 0 30 4 66 155 26
511 3 2 0 30 66 67 156 155
512 3 2 0 30 67 68 157 156
513 3 2 0 30 68 69 158 157
514 3 2 0 30 69 70 159 158
515 3 2 0 30 70 71 160 159
516 3 2 0 30 71 72 161 160
517 3 2 0 30 72 3 28 161
518 3 2 0 31 26 155 246 146
519 3 2 0 31 155 156 247 246
520 3 2 0 31 156 157 248 247
521 3 2 0 31 157 158 249 248
522 3 2 0 31 158 159 250 249
523 3 2 0 31 159 160 251 250
524 3 2 0 31 160 161 252 251
525 3 2 0 31 161 28 154 252
526 3 2 0 31 146 246 147 25
527 3 2 0 31 246 247 148 147
528 3 2 0 31 247 248 149 148
529 3 2 0 31 248 249 150 149
530 3 2 0 31 249 250 151 150
531 3 2 0 31 250 251 152 151
532 3 2 0 31 251 252 153 152
533 3 2 0 31 252 154 27 153
534 3 2 0 32 4 9 29 16
535 3 2 0 33 2 14 30 10
536 3 2 0 34 10 30 162 94
537 3 2 0 34 94 162 29 9
538 3 2 0 35 14 113 162 30
539 3 2 0 35 113 16 29 162
540 3 2 0 36 8 20 31 11
541 3 2 0 37 6 12 32 18
542 3 2 0 38 12 96 163 32
543 3 2 0 38 96 11 31 163
544 3 2 0 39 18 32 163 129
545 3 2 0 39 129 163 31 20
546 3 2 0 40 6 21 33 12
547 3 2 0 41 2 10 34 22
548 3 2 0 42 10 97 164 34
549 3 2 0 42 97 12 33 164
550 3 2 0 43 22 34 164 130
551 3 2 0 43 130 164 33 21
552 3 2 0 44 8 11 35 25
553 3 2 0 45 4 26 36 9
554 3 2 0 46 9 36 165 95
555 3 2 0 46 95 165 35 11
556 3 2 0 47 26 146 165 36
557 3 2 0 47 146 25 35 165
558 3 2 0 48 1 13 37 24
559 3 2 0 49 2 22 38 14
560 3 2 0 50 14 38 166 98
561 3 2 0 50 98 166 167 99
562 3 2 0 50 99 167 168 100
563 3 2 0 50 100 168 169 101
564 3 2 0 50 101 169 170 102
565 3 2 0 50 102 170 171 103
566 3 2 0 50 103 171 172 104
567 3 2 0 50 104 172 37 13
568 3 2 0 51 22 139 166 38
569 3 2 0 51 139 140 167 166
570 3 2 0 51 140 141 168 167
571 3 2 0 51 141 142 169 168
572 3 2 0 51 142 143 170 169
573 3 2 0 51 143 144 171 170
574 3 2 0 51 144 145 172 171
575 3 2 0 51 145 24 37 172
576 3 2 0 52 3 28 39 15
577 3 2 0 53 4 16 40 26
578 3 2 0 54 26 40 173 155
579 3 2 0 54 155 173 174 156
580 3 2 0 54 156 174 175 157
581 3 2 0 54 157 175 176 158
582 3 2 0 54 158 176 177 159
583 3 2 0 54 159 177 178 160
584 3 2 0 54 160 178 179 161
585 3 2 0 54 161 179 39 28
586 3 2 0 55 16 106 173 40
587 3 2 0 55 106 107 174 173
588 3 2 0 55 107 108 175 174
589 3 2 0 55 108 109 176 175
590 3 2 0 55 109 110 177 176
591 3 2 0 55 110 111 178 177
592 3 2 0 55 111 112 179 178
593 3 2 0 55 112 15 39 179
594 3 2 0 56 5 23 41 17
595 3 2 0 57 6 18 42 21
596 3 2 0 58 18 114 180 42
597 3 2 0 58 114 115 181 180
598 3 2 0 58 115 116 182 181
599 3 2 0 58 116 117 183 182
600 3 2 0 58 117 118 184 183
601 3 2 0 58 118 119 185 184
602 3 2 0 58 119 120 186 185
603 3 2 0 58 120 17 41 186
604 3 2 0 59 21 42 180 131
605 3 2 0 59 131 180 181 132
606 3 2 0 59 132 181 182 133
607 3 2 0 59 133 182 183 134
608 3 2 0 59 134 183 184 135
609 3 2 0 59 135 184 185 136
610 3 2 0 59 136 185 186 137
611 3 2 0 59 137 186 41 23
612 3 2 0 60 7 19 43 27
613 3 2 0 61 8 25 44 20
614 3 2 0 62 20 44 187 122
615 3 2 0 62 122 187 188 123
616 3 2 0 62 123 188 189 124
617 3 2 0 62 124 189 190 125
618 3 2 0 62 125 190 191 126
619 3 2 0 62 126 191 192 127
620 3 2 0 62 127 192 193 128
621 3 2 0 62 128 193 43 19
622 3 2 0 63 25 147 187 44
623 3 2 0 63 147 148 188 187
624 3 2 0 63 148 149 189 188
625 3 2 0 63 149 150 190 189
626 3 2 0 63 150 151 191 190
627 3 2 0 63 151 152 192 191
628 3 2 0 63 152 153 193 192
629 3 2 0 63 153 27 43 193
630 3 2 0 64 10 34 45 30
631 3 2 0 65 14 30 45 38
632 3 2 0 66 22 38 45 34
633 3 2 0 67 9 29 46 36
634 3 2 0 68 16 40 46 29
635 3 2 0 69 26 36 46 40
636 3 2 0 70 12 32 47 33
637 3 2 0 71 21 33 47 42
638 3 2 0 72 18 42 47 32
639 3 2 0 73 11 35 48 31
640 3 2 0 74 20 31 48 44
641 3 2 0 75 25 44 48 35
642 5 2 0 1 194 58 2 73 253 208 90 222
643 5 2 0 1 253 208 90 222 201 74 6 89
644 5 2 0 1 66 194 73 4 215 253 222 92
645 5 2 0 1 215 253 222 92 82 201 89 8
646 5 2 0 1 195 59 58 194 254 209 208 253
647 5 2 0 1 254 209 208 253 202 75 74 201
648 5 2 0 1 67 195 194 66 216 254 253 215
649 5 2 0 1 216 254 253 215 83 202 201 82
650 5 2 0 1 196 60 59 195 255 210 209 254
651 5 2 0 1 255 210 209 254 203 76 75 202
652 5 2 0 1 68 196 195 67 217 255 254 216
653 5 2 0 1 217 255 254 216 84 203 202 83
654 5 2 0 1 197 61 60 196 256 211 210 255
655 5 2 0 1 256 211 210 255 204 77 76 203
656 5 2 0 1 69 197 196 68 218 256 255 217
657 5 2 0 1 218 256 255 217 85 204 203 84
658 5 2 0 1 198 62 61 197 257 212 211 256
659 5 2 0 1 257 212 211 256 205 78 77 204
660 5 2 0 1 70 198 197 69 219 257 256 218
661 5 2 0 1 219 257 256 218 86 205 204 85
662 5 2 0 1 199 63 62 198 258 213 212 257
663 5 2 0 1 258 213 212 257 206 79 78 205
664 5 2 0 1 71 199 198 70 220 258 257 219
665 5 2 0 1 220 258 257 219 87 206 205 86
666 5 2 0 1 200 64 63 199 259 214 213 258
667 5 2 0 1 259 214 213 258 207 80 79 206
668 5 2 0 1 72 200 199 71 221 259 258 220
669 5 2 0 1 221 259 258 220 88 207 206 87
670 5 2 0 1 65 1 64 200 223 91 214 259
671 5 2 0 1 223 91 214 259 81 5 80 207
672 5 2 0 1 3 65 200 72 93 223 259 221
673 5 2 0 1 93 223 259 221 7 81 207 88
674 5 2 0 2 2 73 222 90 10 94 224 97
675 5 2 0 2 90 222 89 6 97 224 96 12
676 5 2 0 2 73 4 92 222 94 9 95 224
677 5 2 0 2 222 92 8 89 224 95 11 96
678 5 2 0 3 2 58 194 73 14 98 225 113
679 5 2 0 3 73 194 66 4 113 225 106 16
680 5 2 0 3 58 59 195 194 98 99 226 225
681 5 2 0 3 194 195 67 66 225 226 107 106
682 5 2 0 3 59 60 196 195 99 100 227 226
683 5 2 0 3 195 196 68 67 226 227 108 107
684 5 2 0 3 60 61 197 196 100 101 228 227
685 5 2 0 3 196 197 69 68 227 228 109 108
686 5 2 0 3 61 62 198 197 101 102 229 228
687 5 2 0 3 197 198 70 69 228 229 110 109
688 5 2 0 3 62 63 199 198 102 103 230 229
689 5 2 0 3 198 199 71 70 229 230 111 110
690 5 2 0 3 63 64 200 199 103 104 231 230
691 5 2 0 3 199 200 72 71 230 231 112 111
692 5 2 0 3 64 1 65 200 104 13 105 231
693 5 2 0 3 200 65 3 72 231 105 15 112
694 5 2 0 4 201 74 6 89 232 114 18 129
695 5 2 0 4 82 201 89 8 122 232 129 20
696 5 2 0 4 202 75 74 201 233 115 114 232
697 5 2 0 4 83 202 201 82 123 233 232 122
698 5 2 0 4 203 76 75 202 234 116 115 233
699 5 2 0 4 84 203 202 83 124 234 233 123
700 5 2 0 4 204 77 76 203 235 117 116 234
701 5 2 0 4 85 204 203 84 125 235 234 124
702 5 2 0 4 205 78 77 204 236 118 117 235
703 5 2 0 4 86 205 204 85 126 236 235 125
704 5 2 0 4 206 79 78 205 237 119 118 236
705 5 2 0 4 87 206 205 86 127 237 236 126
706 5 2 0 4 207 80 79 206 238 120 119 237
707 5 2 0 4 88 207 206 87 128 238 237 127
708 5 2 0 4 81 5 80 207 121 17 120 238
709 5 2 0 4 7 81 207 88 19 121 238 128
710 5 2 0 5 2 90 208 58 22 130 239 139
711 5 2 0 5 58 208 209 59 139 239 240 140
712 5 2 0 5 59 209 210 60 140 240 241 141
713 5 2 0 5 60 210 211 61 141 241 242 142
714 5 2 0 5 61 211 212 62 142 242 243 143
715 5 2 0 5 62 212 213 63 143 243 244 144
716 5 2 0 5 63 213 214 64 144 244 245 145
717 5 2 0 5 64 214 91 1 145 245 138 24
718 5 2 0 5 90 6 74 208 130 21 131 239
719 5 2 0 5 208 74 75 209 239 131 132 240
720 5 2 0 5 209 75 76 210 240 132 133 241
721 5 2 0 5 210 76 77 211 241 133 134 242
722 5 2 0 5 211 77 78 212 242 134 135 243
723 5 2 0 5 212 78 79 213 243 135 136 244
724 5 2 0 5 213 79 80 214 244 136 137 245
725 5 2 0 5 214 80 5 91 245 137 23 138
726 5 2 0 6 215 92 4 66 246 146 26 155
727 5 2 0 6 216 215 66 67 247 246 155 156
728 5 2 0 6 217 216 67 68 248 247 156 157
729 5 2 0 6 218 217 68 69 249 248 157 158
730 5 2 0 6 219 218 69 70 250 249 158 159
731 5 2 0 6 220 219 70 71 251 250 159 160
732 5 2 0 6 221 220 71 72 252 251 160 161
733 5 2 0 6 93 221 72 3 154 252 161 28
734 5 2 0 6 82 8 92 215 147 25 146 246
735 5 2 0 6 83 82 215 216 148 147 246 247
736 5 2 0 6 84 83 216 217 149 148 247 248
737 5 2 0 6 85 84 217 218 150 149 248 249
738 5 2 0 6 86 85 218 219 151 150 249 250
739 5 2 0 6 87 86 219 220 152 151 250 251
740 5 2 0 6 88 87 220 221 153 152 251 252
741 5 2 0 6 7 88 221 93 27 153 252 154
742 5 2 0 7 2 73 94 10 14 113 162 30
743 5 2 0 7 73 4 9 94 113 16 29 162
744 5 2 0 8 96 89 6 12 163 129 18 32
745 5 2 0 8 11 8 89 96 31 20 129 163
746 5 2 0 9 97 90 2 10 164 130 22 34
747 5 2 0 9 12 6 90 97 33 21 130 164
748 5 2 0 10 4 92 95 9 26 146 165 36
749 5 2 0 10 92 8 11 95 146 25 35 165
750 5 2 0 11 2 58 98 14 22 139 166 38
751 5 2 0 11 58 59 99 98 139 140 167 166
752 5 2 0 11 59 60 100 99 140 141 168 167
753 5 2 0 11 60 61 101 100 141 142 169 168
754 5 2 0 11 61 62 102 101 142 143 170 169
755 5 2 0 11 62 63 103 102 143 144 171 170
756 5 2 0 11 63 64 104 103 144 145 172 171
757 5 2 0 11 64 1 13 104 145 24 37 172
758 5 2 0 12 4 66 155 26 16 106 173 40
759 5 2 0 12 66 67 156 155 106 107 174 173
760 5 2 0 12 67 68 157 156 107 108 175 174
761 5 2 0 12 68 69 158 157 108 109 176 175
762 5 2 0 12 69 70 159 158 109 110 177 176
763 5 2 0 12 70 71 160 159 110 111 178 177
764 5 2 0 12 71 72 161 160 111 112 179 178
765 5 2 0 12 72 3 28 161 112 15 39 179
766 5 2 0 13 114 74 6 18 180 131 21 42
767 5 2 0 13 115 75 74 114 181 132 131 180
768 5 2 0 13 116 76 75 115 182 133 132 181
769 5 2 0 13 117 77 76 116 183 134 133 182
770 5 2 0 13 118 78 77 117 184 135 134 183
771 5 2 0 13 119 79 78 118 185 136 135 184
772 5 2 0 13 120 80 79 119 186 137 136 185
773 5 2 0 13 17 5 80 120 41 23 137 186
774 5 2 0 14 8 82 122 20 25 147 187 44
775 5 2 0 14 82 83 123 122 147 148 188 187
776 5 2 0 14 83 84 124 123 148 149 189 188
777 5 2 0 14 84 85 125 124 149 150 190 189
778 5 2 0 14 85 86 126 125 150 151 191 190
779 5 2 0 14 86 87 127 126 151 152 192 191
780 5 2 0 14 87 88 128 127 152 153 193 192
781 5 2 0 14 88 7 19 128 153 27 43 193
782 5 2 0 15 30 10 2 14 45 34 22 38
783 5 2 0 16 4 9 29 16 26 36 46 40
784 5 2 0 17 33 12 6 21 47 32 18 42
785 5 2 0 18 31 11 8 20 48 35 25 44
$EndElements
