$MeshFormat
2.2 0 8
$EndMeshFormat
$Nodes
108
1 0 0 1
2 0 0 0
3 0 1 1
4 0 1 0
5 1 0 1
6 1 0 0
7 1 1 1
8 1 1 0
9 0.375 0 0.375
10 0.375 1 0.375
11 0.375 1.25 0.375
12 0 0 0.3333333333333333
13 0 0 0.6666666666666666
14 0 0.25 1
15 0 0.5 1
16 0 0.75 1
17 0 1 0.3333333333333333
18 0 1 0.6666666666666666
19 0 0.25 0
20 0 0.5 0
21 0 0.75 0
22 1 0 0.3333333333333333
23 1 0 0.6666666666666666
24 1 0.25 1
25 1 0.5 1
26 1 0.75 1
27 1 1 0.3333333333333333
28 1 1 0.6666666666666666
29 1 0.25 0
30 1 0.5 0
31 1 0.75 0
32 0.25 0 0
33 0.5 0 0
34 0.75 0 0
35 0.25 0 1
36 0.5 0 1
37 0.75 0 1
38 0.25 1 0
39 0.5 1 0
40 0.75 1 0
41 0.25 1 1
42 0.5 1 1
43 0.75 1 1
44 0.375 0.25 0.375
45 0.375 0.5 0.375
46 0.375 0.75 0.375
47 0.375 1.083333333333333 0.375
48 0.375 1.166666666666667 0.375
49 0 0.25 0.3333333333333333
50 0 0.5 0.3333333333333333
51 0 0.75 0.3333333333333333
52 0 0.25 0.6666666666666666
53 0 0.5 0.6666666666666666
54 0 0.75 0.6666666666666666
55 1 0.25 0.3333333333333333
56 1 0.5 0.3333333333333333
57 1 0.75 0.3333333333333333
58 1 0.25 0.6666666666666666
59 1 0.5 0.6666666666666666
60 1 0.75 0.6666666666666666
61 0.25 0 0.3333333333333333
62 0.25 0 0.6666666666666666
63 0.5 0 0.3333333333333333
64 0.5 0 0.6666666666666666
65 0.75 0 0.3333333333333333
66 0.75 0 0.6666666666666666
67 0.25 1 0.3333333333333333
68 0.25 1 0.6666666666666666
69 0.5 1 0.3333333333333333
70 0.5 1 0.6666666666666666
71 0.75 1 0.3333333333333333
72 0.75 1 0.6666666666666666
73 0.25 0.25 0
74 0.5 0.25 0
75 0.75 0.25 0
76 0.25 0.5 0
77 0.5 0.5 0
78 0.75 0.5 0
79 0.25 0.75 0
80 0.5 0.75 0
81 0.75 0.75 0
82 0.25 0.25 1
83 0.5 0.25 1
84 0.75 0.25 1
85 0.25 0.5 1
86 0.5 0.5 1
87 0.75 0.5 1
88 0.25 0.75 1
89 0.5 0.75 1
90 0.75 0.75 1
91 0.25 0.25 0.3333333333333334
92 0.5 0.25 0.3333333333333332
93 0.75 0.25 0.3333333333333334
94 0.25 0.5 0.3333333333333335
95 0.5 0.5 0.3333333333333332
96 0.75 0.5 0.3333333333333334
97 0.25 0.75 0.3333333333333334
98 0.5 0.75 0.3333333333333332
99 0.75 0.75 0.3333333333333334
100 0.25 0.25 0.6666666666666669
101 0.5 0.25 0.6666666666666664
102 0.75 0.25 0.6666666666666669
103 0.25 0.5 0.666666666666667
104 0.5 0.5 0.6666666666666664
105 0.75 0.5 0.6666666666666669
106 0.25 0.75 0.6666666666666669
107 0.5 0.75 0.6666666666666664
108 0.75 0.75 0.6666666666666669
$EndNodes
$Elements
190
1 15 2 0 1 1
2 15 2 0 2 2
3 15 2 0 3 3
4 15 2 0 4 4
5 15 2 0 5 5
6 15 2 0 6 6
7 15 2 0 7 7
8 15 2 0 8 8
9 15 2 0 9 9
10 15 2 0 10 10
11 15 2 0 11 11
12 1 2 0 1 2 12
13 1 2 0 1 12 13
14 1 2 0 1 13 1
15 1 2 0 2 1 14
16 1 2 0 2 14 15
17 1 2 0 2 15 16
18 1 2 0 2 16 3
19 1 2 0 3 4 17
20 1 2 0 3 17 18
21 1 2 0 3 18 3
22 1 2 0 4 2 19
23 1 2 0 4 19 20
24 1 2 0 4 20 21
25 1 2 0 4 21 4
26 1 2 0 5 6 22
27 1 2 0 5 22 23
28 1 2 0 5 23 5
29 1 2 0 6 5 24
30 1 2 0 6 24 25
31 1 2 0 6 25 26
32 1 2 0 6 26 7
33 1 2 0 7 8 27
34 1 2 0 7 27 28
35 1 2 0 7 28 7
36 1 2 0 8 6 29
37 1 2 0 8 29 30
38 1 2 0 8 30 31
39 1 2 0 8 31 8
40 1 2 0 9 2 32
41 1 2 0 9 32 33
42 1 2 0 9 33 34
43 1 2 0 9 34 6
44 1 2 0 10 1 35
45 1 2 0 10 35 36
46 1 2 0 10 36 37
47 1 2 0 10 37 5
48 1 2 0 11 4 38
49 1 2 0 11 38 39
50 1 2 0 11 39 40
51 1 2 0 11 40 8
52 1 2 0 12 3 41
53 1 2 0 12 41 42
54 1 2 0 12 42 43
55 1 2 0 12 43 7
56 1 2 0 13 9 44
57 1 2 0 13 44 45
58 1 2 0 13 45 46
59 1 2 0 13 46 10
60 1 2 0 14 10 47
61 1 2 0 14 47 48
62 1 2 0 14 48 11
63 3 2 0 1 2 12 49 19
64 3 2 0 1 19 49 50 20
65 3 2 0 1 20 50 51 21
66 3 2 0 1 21 51 17 4
67 3 2 0 1 12 13 52 49
68 3 2 0 1 49 52 53 50
69 3 2 0 1 50 53 54 51
70 3 2 0 1 51 54 18 17
71 3 2 0 1 13 1 14 52
72 3 2 0 1 52 14 15 53
73 3 2 0 1 53 15 16 54
74 3 2 0 1 54 16 3 18
75 3 2 0 2 6 29 55 22
76 3 2 0 2 29 30 56 55
77 3 2 0 2 30 31 57 56
78 3 2 0 2 31 8 27 57
79 3 2 0 2 22 55 58 23
80 3 2 0 2 55 56 59 58
81 3 2 0 2 56 57 60 59
82 3 2 0 2 57 27 28 60
83 3 2 0 2 23 58 24 5
84 3 2 0 2 58 59 25 24
85 3 2 0 2 59 60 26 25
86 3 2 0 2 60 28 7 26
87 3 2 0 3 2 32 61 12
88 3 2 0 3 12 61 62 13
89 3 2 0 3 13 62 35 1
90 3 2 0 3 32 33 63 61
91 3 2 0 3 61 63 64 62
92 3 2 0 3 62 64 36 35
93 3 2 0 3 33 34 65 63
94 3 2 0 3 63 65 66 64
95 3 2 0 3 64 66 37 36
96 3 2 0 3 34 6 22 65
97 3 2 0 3 65 22 23 66
98 3 2 0 3 66 23 5 37
99 3 2 0 4 4 17 67 38
100 3 2 0 4 17 18 68 67
101 3 2 0 4 18 3 41 68
102 3 2 0 4 38 67 69 39
103 3 2 0 4 67 68 70 69
104 3 2 0 4 68 41 42 70
105 3 2 0 4 39 69 71 40
106 3 2 0 4 69 70 72 71
107 3 2 0 4 70 42 43 72
108 3 2 0 4 40 71 27 8
109 3 2 0 4 71 72 28 27
110 3 2 0 4 72 43 7 28
111 3 2 0 5 2 19 73 32
112 3 2 0 5 32 73 74 33
113 3 2 0 5 33 74 75 34
114 3 2 0 5 34 75 29 6
115 3 2 0 5 19 20 76 73
116 3 2 0 5 73 76 77 74
117 3 2 0 5 74 77 78 75
118 3 2 0 5 75 78 30 29
119 3 2 0 5 20 21 79 76
120 3 2 0 5 76 79 80 77
121 3 2 0 5 77 80 81 78
122 3 2 0 5 78 81 31 30
123 3 2 0 5 21 4 38 79
124 3 2 0 5 79 38 39 80
125 3 2 0 5 80 39 40 81
126 3 2 0 5 81 40 8 31
127 3 2 0 6 1 35 82 14
128 3 2 0 6 35 36 83 82
129 3 2 0 6 36 37 84 83
130 3 2 0 6 37 5 24 84
131 3 2 0 6 14 82 85 15
132 3 2 0 6 82 83 86 85
133 3 2 0 6 83 84 87 86
134 3 2 0 6 84 24 25 87
135 3 2 0 6 15 85 88 16
136 3 2 0 6 85 86 89 88
137 3 2 0 6 86 87 90 89
138 3 2 0 6 87 25 26 90
139 3 2 0 6 16 88 41 3
140 3 2 0 6 88 89 42 41
141 3 2 0 6 89 90 43 42
142 3 2 0 6 90 26 7 43
143 5 2 0 1 49 12 2 19 91 61 32 73
144 5 2 0 1 91 61 32 73 92 63 33 74
145 5 2 0 1 92 63 33 74 93 65 34 75
146 5 2 0 1 93 65 34 75 55 22 6 29
147 5 2 0 1 50 49 19 20 94 91 73 76
148 5 2 0 1 94 91 73 76 95 92 74 77
149 5 2 0 1 95 92 74 77 96 93 75 78
150 5 2 0 1 96 93 75 78 56 55 29 30
151 5 2 0 1 51 50 20 21 97 94 76 79
152 5 2 0 1 97 94 76 79 98 95 77 80
153 5 2 0 1 98 95 77 80 99 96 78 81
154 5 2 0 1 99 96 78 81 57 56 30 31
155 5 2 0 1 17 51 21 4 67 97 79 38
156 5 2 0 1 67 97 79 38 69 98 80 39
157 5 2 0 1 69 98 80 39 71 99 81 40
158 5 2 0 1 71 99 81 40 27 57 31 8
159 5 2 0 1 52 13 12 49 100 62 61 91
160 5 2 0 1 100 62 61 91 101 64 63 92
161 5 2 0 1 101 64 63 92 102 66 65 93
162 5 2 0 1 102 66 65 93 58 23 22 55
163 5 2 0 1 53 52 49 50 103 100 91 94
164 5 2 0 1 103 100 91 94 104 101 92 95
165 5 2 0 1 104 101 92 95 105 102 93 96
166 5 2 0 1 105 102 93 96 59 58 55 56
167 5 2 0 1 54 53 50 51 106 103 94 97
168 5 2 0 1 106 103 94 97 107 104 95 98
169 5 2 0 1 107 104 95 98 108 105 96 99
170 5 2 0 1 108 105 96 99 60 59 56 57
171 5 2 0 1 18 54 51 17 68 106 97 67
172 5 2 0 1 68 106 97 67 70 107 98 69
173 5 2 0 1 70 107 98 69 72 108 99 71
174 5 2 0 1 72 108 99 71 28 60 57 27
175 5 2 0 1 14 1 13 52 82 35 62 100
176 5 2 0 1 82 35 62 100 83 36 64 101
177 5 2 0 1 83 36 64 101 84 37 66 102
178 5 2 0 1 84 37 66 102 24 5 23 58
179 5 2 0 1 15 14 52 53 85 82 100 103
180 5 2 0 1 85 82 100 103 86 83 101 104
181 5 2 0 1 86 83 101 104 87 84 102 105
182 5 2 0 1 87 84 102 105 25 24 58 59
183 5 2 0 1 16 15 53 54 88 85 103 106
184 5 2 0 1 88 85 103 106 89 86 104 107
185 5 2 0 1 89 86 104 107 90 87 105 108
186 5 2 0 1 90 87 105 108 26 25 59 60
187 5 2 0 1 3 16 54 18 41 88 106 68
188 5 2 0 1 41 88 106 68 42 89 107 70
189 5 2 0 1 42 89 107 70 43 90 108 72
190 5 2 0 1 43 90 108 72 7 26 60 28
$EndElements
