$MeshFormat
2.2 0 8
$EndMeshFormat
$Nodes
848
1 0 0 0
2 260 0 0
3 260 50 0
4 0 50 0
5 0 90 0
6 260 90 0
7 260 120 0
8 0 120 0
9 0 140 0
10 260 140 0
11 280 140 0
12 280 120 0
13 280 90 0
14 280 50 0
15 280 0 0
16 -20 140 0
17 -20 120 0
18 -20 90 0
19 -20 50 0
20 -20 0 0
21 -20 -20 0
22 0 -20 0
23 260 -20 0
24 280 -20 0
25 52.00000000001268 0 0
26 104.000000000001 0 0
27 155.9999999999894 0 0
28 207.9999999999781 0 0
29 52.00000000001268 50 0
30 104.000000000001 50 0
31 155.9999999999894 50 0
32 207.9999999999781 50 0
33 52.00000000001268 90 0
34 104.000000000001 90 0
35 155.9999999999894 90 0
36 207.9999999999781 90 0
37 52.00000000001268 120 0
38 104.000000000001 120 0
39 155.9999999999894 120 0
40 207.9999999999781 120 0
41 52.00000000001268 140 0
42 104.000000000001 140 0
43 155.9999999999894 140 0
44 207.9999999999781 140 0
45 52.00000000001268 -20 0
46 104.000000000001 -20 0
47 155.9999999999894 -20 0
48 207.9999999999781 -20 0
49 -20 1.315789473679053 0
50 -20 2.631578947357728 0
51 -20 3.947368421037007 0
52 -20 5.263157894716723 0
53 -20 6.578947368395828 0
54 -20 7.894736842073234 0
55 -20 9.210526315750615 0
56 -20 10.52631578942799 0
57 -20 11.84210526310537 0
58 -20 13.15789473678275 0
59 -20 14.47368421046014 0
60 -20 15.78947368413781 0
61 -20 17.10526315781947 0
62 -20 18.42105263150153 0
63 -20 19.73684210518359 0
64 -20 21.05263157886565 0
65 -20 22.3684210525477 0
66 -20 23.68421052622977 0
67 -20 24.99999999991182 0
68 -20 26.31578947359388 0
69 -20 27.63157894727594 0
70 -20 28.947368420958 0
71 -20 30.26315789464006 0
72 -20 31.57894736832211 0
73 -20 32.8947368420117 0
74 -20 34.21052631570311 0
75 -20 35.52631578939452 0
76 -20 36.84210526308592 0
77 -20 38.15789473677732 0
78 -20 39.47368421046873 0
79 -20 40.78947368416014 0
80 -20 42.10526315785155 0
81 -20 43.42105263154296 0
82 -20 44.73684210523437 0
83 -20 46.05263157892578 0
84 -20 47.36842105261718 0
85 -20 48.68421052630859 0
86 -20 51.33333333333334 0
87 -20 52.66666666666667 0
88 -20 54.00000000000001 0
89 -20 55.33333333333334 0
90 -20 56.66666666666668 0
91 -20 58.00000000000001 0
92 -20 59.33333333333335 0
93 -20 60.66666666666669 0
94 -20 62.00000000000002 0
95 -20 63.33333333333336 0
96 -20 64.66666666666669 0
97 -20 66.00000000000001 0
98 -20 67.33333333333334 0
99 -20 68.66666666666669 0
100 -20 70.00000000000001 0
101 -20 71.33333333333334 0
102 -20 72.66666666666669 0
103 -20 74.00000000000001 0
104 -20 75.33333333333334 0
105 -20 76.66666666666669 0
106 -20 78 0
107 -20 79.33333333333334 0
108 -20 80.66666666666667 0
109 -20 82 0
110 -20 83.33333333333334 0
111 -20 84.66666666666667 0
112 -20 86 0
113 -20 87.33333333333334 0
114 -20 88.66666666666666 0
115 -20 91.5 0
116 -20 93 0
117 -20 94.5 0
118 -20 96 0
119 -20 97.5 0
120 -20 99 0
121 -20 100.5 0
122 -20 102 0
123 -20 103.5 0
124 -20 105 0
125 -20 106.5 0
126 -20 108 0
127 -20 109.5 0
128 -20 111 0
129 -20 112.5 0
130 -20 114 0
131 -20 115.5 0
132 -20 117 0
133 -20 118.5 0
134 -20 121.25 0
135 -20 122.5 0
136 -20 123.75 0
137 -20 125 0
138 -20 126.25 0
139 -20 127.5 0
140 -20 128.75 0
141 -20 130 0
142 -20 131.25 0
143 -20 132.5 0
144 -20 133.75 0
145 -20 135 0
146 -20 136.25 0
147 -20 137.5 0
148 -20 138.75 0
149 0 1.315789473679053 0
150 0 2.631578947357728 0
151 0 3.947368421037007 0
152 0 5.263157894716723 0
153 0 6.578947368395828 0
154 0 7.894736842073234 0
155 0 9.210526315750615 0
156 0 10.52631578942799 0
157 0 11.84210526310537 0
158 0 13.15789473678275 0
159 0 14.47368421046014 0
160 0 15.78947368413781 0
161 0 17.10526315781947 0
162 0 18.42105263150153 0
163 0 19.73684210518359 0
164 0 21.05263157886565 0
165 0 22.3684210525477 0
166 0 23.68421052622977 0
167 0 24.99999999991182 0
168 0 26.31578947359388 0
169 0 27.63157894727594 0
170 0 28.947368420958 0
171 0 30.26315789464006 0
172 0 31.57894736832211 0
173 0 32.8947368420117 0
174 0 34.21052631570311 0
175 0 35.52631578939452 0
176 0 36.84210526308592 0
177 0 38.15789473677732 0
178 0 39.47368421046873 0
179 0 40.78947368416014 0
180 0 42.10526315785155 0
181 0 43.42105263154296 0
182 0 44.73684210523437 0
183 0 46.05263157892578 0
184 0 47.36842105261718 0
185 0 48.68421052630859 0
186 0 51.33333333333334 0
187 0 52.66666666666667 0
188 0 54.00000000000001 0
189 0 55.33333333333334 0
190 0 56.66666666666668 0
191 0 58.00000000000001 0
192 0 59.33333333333335 0
193 0 60.66666666666669 0
194 0 62.00000000000002 0
195 0 63.33333333333336 0
196 0 64.66666666666669 0
197 0 66.00000000000001 0
198 0 67.33333333333334 0
199 0 68.66666666666669 0
200 0 70.00000000000001 0
201 0 71.33333333333334 0
202 0 72.66666666666669 0
203 0 74.00000000000001 0
204 0 75.33333333333334 0
205 0 76.66666666666669 0
206 0 78 0
207 0 79.33333333333334 0
208 0 80.66666666666667 0
209 0 82 0
210 0 83.33333333333334 0
211 0 84.66666666666667 0
212 0 86 0
213 0 87.33333333333334 0
214 0 88.66666666666666 0
215 0 91.5 0
216 0 93 0
217 0 94.5 0
218 0 96 0
219 0 97.5 0
220 0 99 0
221 0 100.5 0
222 0 102 0
223 0 103.5 0
224 0 105 0
225 0 106.5 0
226 0 108 0
227 0 109.5 0
228 0 111 0
229 0 112.5 0
230 0 114 0
231 0 115.5 0
232 0 117 0
233 0 118.5 0
234 0 121.25 0
235 0 122.5 0
236 0 123.75 0
237 0 125 0
238 0 126.25 0
239 0 127.5 0
240 0 128.75 0
241 0 130 0
242 0 131.25 0
243 0 132.5 0
244 0 133.75 0
245 0 135 0
246 0 136.25 0
247 0 137.5 0
248 0 138.75 0
249 260 1.315789473679053 0
250 260 2.631578947357728 0
251 260 3.947368421037007 0
252 260 5.263157894716723 0
253 260 6.578947368395828 0
254 260 7.894736842073234 0
255 260 9.210526315750615 0
256 260 10.52631578942799 0
257 260 11.84210526310537 0
258 260 13.15789473678275 0
259 260 14.47368421046014 0
260 260 15.78947368413781 0
261 260 17.10526315781947 0
262 260 18.42105263150153 0
263 260 19.73684210518359 0
264 260 21.05263157886565 0
265 260 22.3684210525477 0
266 260 23.68421052622977 0
267 260 24.99999999991182 0
268 260 26.31578947359388 0
269 260 27.63157894727594 0
270 260 28.947368420958 0
271 260 30.26315789464006 0
272 260 31.57894736832211 0
273 260 32.8947368420117 0
274 260 34.21052631570311 0
275 260 35.52631578939452 0
276 260 36.84210526308592 0
277 260 38.15789473677732 0
278 260 39.47368421046873 0
279 260 40.78947368416014 0
280 260 42.10526315785155 0
281 260 43.42105263154296 0
282 260 44.73684210523437 0
283 260 46.05263157892578 0
284 260 47.36842105261718 0
285 260 48.68421052630859 0
286 260 51.33333333333334 0
287 260 52.66666666666667 0
288 260 54.00000000000001 0
289 260 55.33333333333334 0
290 260 56.66666666666668 0
291 260 58.00000000000001 0
292 260 59.33333333333335 0
293 260 60.66666666666669 0
294 260 62.00000000000002 0
295 260 63.33333333333336 0
296 260 64.66666666666669 0
297 260 66.00000000000001 0
298 260 67.33333333333334 0
299 260 68.66666666666669 0
300 260 70.00000000000001 0
301 260 71.33333333333334 0
302 260 72.66666666666669 0
303 260 74.00000000000001 0
304 260 75.33333333333334 0
305 260 76.66666666666669 0
306 260 78 0
307 260 79.33333333333334 0
308 260 80.66666666666667 0
309 260 82 0
310 260 83.33333333333334 0
311 260 84.66666666666667 0
312 260 86 0
313 260 87.33333333333334 0
314 260 88.66666666666666 0
315 260 91.5 0
316 260 93 0
317 260 94.5 0
318 260 96 0
319 260 97.5 0
320 260 99 0
321 260 100.5 0
322 260 102 0
323 260 103.5 0
324 260 105 0
325 260 106.5 0
326 260 108 0
327 260 109.5 0
328 260 111 0
329 260 112.5 0
330 260 114 0
331 260 115.5 0
332 260 117 0
333 260 118.5 0
334 260 121.25 0
335 260 122.5 0
336 260 123.75 0
337 260 125 0
338 260 126.25 0
339 260 127.5 0
340 260 128.75 0
341 260 130 0
342 260 131.25 0
343 260 132.5 0
344 260 133.75 0
345 260 135 0
346 260 136.25 0
347 260 137.5 0
348 260 138.75 0
349 280 1.315789473679053 0
350 280 2.631578947357728 0
351 280 3.947368421037007 0
352 280 5.263157894716723 0
353 280 6.578947368395828 0
354 280 7.894736842073234 0
355 280 9.210526315750615 0
356 280 10.52631578942799 0
357 280 11.84210526310537 0
358 280 13.15789473678275 0
359 280 14.47368421046014 0
360 280 15.78947368413781 0
361 280 17.10526315781947 0
362 280 18.42105263150153 0
363 280 19.73684210518359 0
364 280 21.05263157886565 0
365 280 22.3684210525477 0
366 280 23.68421052622977 0
367 280 24.99999999991182 0
368 280 26.31578947359388 0
369 280 27.63157894727594 0
370 280 28.947368420958 0
371 280 30.26315789464006 0
372 280 31.57894736832211 0
373 280 32.8947368420117 0
374 280 34.21052631570311 0
375 280 35.52631578939452 0
376 280 36.84210526308592 0
377 280 38.15789473677732 0
378 280 39.47368421046873 0
379 280 40.78947368416014 0
380 280 42.10526315785155 0
381 280 43.42105263154296 0
382 280 44.73684210523437 0
383 280 46.05263157892578 0
384 280 47.36842105261718 0
385 280 48.68421052630859 0
386 280 51.33333333333334 0
387 280 52.66666666666667 0
388 280 54.00000000000001 0
389 280 55.33333333333334 0
390 280 56.66666666666668 0
391 280 58.00000000000001 0
392 280 59.33333333333335 0
393 280 60.66666666666669 0
394 280 62.00000000000002 0
395 280 63.33333333333336 0
396 280 64.66666666666669 0
397 280 66.00000000000001 0
398 280 67.33333333333334 0
399 280 68.66666666666669 0
400 280 70.00000000000001 0
401 280 71.33333333333334 0
402 280 72.66666666666669 0
403 280 74.00000000000001 0
404 280 75.33333333333334 0
405 280 76.66666666666669 0
406 280 78 0
407 280 79.33333333333334 0
408 280 80.66666666666667 0
409 280 82 0
410 280 83.33333333333334 0
411 280 84.66666666666667 0
412 280 86 0
413 280 87.33333333333334 0
414 280 88.66666666666666 0
415 280 91.5 0
416 280 93 0
417 280 94.5 0
418 280 96 0
419 280 97.5 0
420 280 99 0
421 280 100.5 0
422 280 102 0
423 280 103.5 0
424 280 105 0
425 280 106.5 0
426 280 108 0
427 280 109.5 0
428 280 111 0
429 280 112.5 0
430 280 114 0
431 280 115.5 0
432 280 117 0
433 280 118.5 0
434 280 121.25 0
435 280 122.5 0
436 280 123.75 0
437 280 125 0
438 280 126.25 0
439 280 127.5 0
440 280 128.75 0
441 280 130 0
442 280 131.25 0
443 280 132.5 0
444 280 133.75 0
445 280 135 0
446 280 136.25 0
447 280 137.5 0
448 280 138.75 0
449 52.00000000001268 1.315789473679053 0
450 52.00000000001268 2.631578947357728 0
451 52.00000000001269 3.947368421037007 0
452 52.00000000001269 5.263157894716724 0
453 52.00000000001268 6.578947368395828 0
454 52.00000000001268 7.894736842073234 0
455 52.00000000001268 9.210526315750615 0
456 52.00000000001268 10.52631578942799 0
457 52.00000000001268 11.84210526310537 0
458 52.00000000001268 13.15789473678275 0
459 52.00000000001267 14.47368421046014 0
460 52.00000000001267 15.78947368413782 0
461 52.00000000001266 17.10526315781947 0
462 52.00000000001268 18.42105263150153 0
463 52.00000000001268 19.73684210518359 0
464 52.00000000001268 21.05263157886565 0
465 52.00000000001268 22.3684210525477 0
466 52.00000000001268 23.68421052622976 0
467 52.00000000001268 24.99999999991183 0
468 52.00000000001268 26.31578947359388 0
469 52.00000000001268 27.63157894727593 0
470 52.00000000001268 28.94736842095799 0
471 52.00000000001268 30.26315789464006 0
472 52.00000000001268 31.57894736832211 0
473 52.00000000001268 32.8947368420117 0
474 52.00000000001268 34.21052631570311 0
475 52.00000000001268 35.52631578939452 0
476 52.00000000001268 36.84210526308593 0
477 52.00000000001268 38.15789473677733 0
478 52.00000000001268 39.47368421046873 0
479 52.00000000001268 40.78947368416014 0
480 52.00000000001268 42.10526315785155 0
481 52.00000000001268 43.42105263154297 0
482 52.00000000001267 44.73684210523437 0
483 52.00000000001268 46.05263157892577 0
484 52.00000000001268 47.36842105261718 0
485 52.00000000001268 48.68421052630859 0
486 104.000000000001 1.315789473679053 0
487 104.000000000001 2.631578947357728 0
488 104.000000000001 3.947368421037007 0
489 104.0000000000009 5.263157894716723 0
490 104.0000000000009 6.578947368395828 0
491 104.0000000000009 7.894736842073234 0
492 104.0000000000009 9.210526315750613 0
493 104.0000000000009 10.52631578942799 0
494 104.000000000001 11.84210526310537 0
495 104.0000000000009 13.15789473678275 0
496 104.0000000000009 14.47368421046014 0
497 104.000000000001 15.78947368413781 0
498 104.0000000000009 17.10526315781947 0
499 104.0000000000009 18.42105263150153 0
500 104.0000000000009 19.73684210518358 0
501 104.000000000001 21.05263157886565 0
502 104.000000000001 22.36842105254771 0
503 104.0000000000009 23.68421052622976 0
504 104.000000000001 24.99999999991182 0
505 104.0000000000009 26.31578947359388 0
506 104.0000000000009 27.63157894727595 0
507 104.000000000001 28.947368420958 0
508 104.0000000000009 30.26315789464006 0
509 104.0000000000009 31.57894736832211 0
510 104.000000000001 32.8947368420117 0
511 104.000000000001 34.21052631570311 0
512 104.0000000000009 35.52631578939452 0
513 104.0000000000009 36.84210526308593 0
514 104.000000000001 38.15789473677732 0
515 104.000000000001 39.47368421046873 0
516 104.000000000001 40.78947368416014 0
517 104.0000000000009 42.10526315785155 0
518 104.0000000000009 43.42105263154296 0
519 104.000000000001 44.73684210523437 0
520 104.000000000001 46.05263157892578 0
521 104.0000000000009 47.36842105261717 0
522 104.000000000001 48.68421052630859 0
523 155.9999999999894 1.315789473679053 0
524 155.9999999999894 2.631578947357727 0
525 155.9999999999895 3.947368421037007 0
526 155.9999999999894 5.263157894716723 0
527 155.9999999999894 6.578947368395829 0
528 155.9999999999894 7.894736842073234 0
529 155.9999999999894 9.210526315750615 0
530 155.9999999999895 10.52631578942799 0
531 155.9999999999894 11.84210526310537 0
532 155.9999999999894 13.15789473678275 0
533 155.9999999999894 14.47368421046014 0
534 155.9999999999894 15.78947368413781 0
535 155.9999999999894 17.10526315781946 0
536 155.9999999999894 18.42105263150153 0
537 155.9999999999894 19.73684210518358 0
538 155.9999999999894 21.05263157886565 0
539 155.9999999999894 22.3684210525477 0
540 155.9999999999894 23.68421052622977 0
541 155.9999999999894 24.99999999991182 0
542 155.9999999999894 26.31578947359388 0
543 155.9999999999894 27.63157894727594 0
544 155.9999999999894 28.94736842095799 0
545 155.9999999999894 30.26315789464006 0
546 155.9999999999894 31.57894736832211 0
547 155.9999999999894 32.8947368420117 0
548 155.9999999999894 34.21052631570311 0
549 155.9999999999894 35.52631578939452 0
550 155.9999999999894 36.84210526308592 0
551 155.9999999999894 38.15789473677732 0
552 155.9999999999894 39.47368421046873 0
553 155.9999999999894 40.78947368416014 0
554 155.9999999999894 42.10526315785155 0
555 155.9999999999894 43.42105263154296 0
556 155.9999999999894 44.73684210523437 0
557 155.9999999999894 46.05263157892577 0
558 155.9999999999894 47.36842105261718 0
559 155.9999999999894 48.68421052630859 0
560 207.9999999999782 1.315789473679053 0
561 207.9999999999782 2.631578947357728 0
562 207.9999999999781 3.947368421037007 0
563 207.9999999999781 5.263157894716723 0
564 207.9999999999782 6.578947368395829 0
565 207.9999999999781 7.894736842073233 0
566 207.9999999999781 9.210526315750615 0
567 207.9999999999781 10.52631578942799 0
568 207.999999999978 11.84210526310537 0
569 207.9999999999782 13.15789473678275 0
570 207.9999999999781 14.47368421046014 0
571 207.9999999999781 15.78947368413781 0
572 207.9999999999781 17.10526315781946 0
573 207.9999999999781 18.42105263150153 0
574 207.9999999999782 19.73684210518359 0
575 207.9999999999781 21.05263157886564 0
576 207.9999999999781 22.3684210525477 0
577 207.999999999978 23.68421052622976 0
578 207.9999999999781 24.99999999991182 0
579 207.9999999999781 26.31578947359388 0
580 207.9999999999781 27.63157894727594 0
581 207.9999999999781 28.94736842095799 0
582 207.9999999999781 30.26315789464006 0
583 207.9999999999781 31.57894736832212 0
584 207.9999999999781 32.8947368420117 0
585 207.9999999999782 34.21052631570311 0
586 207.9999999999781 35.52631578939452 0
587 207.9999999999781 36.84210526308592 0
588 207.9999999999781 38.15789473677732 0
589 207.9999999999781 39.47368421046873 0
590 207.9999999999781 40.78947368416014 0
591 207.9999999999781 42.10526315785155 0
592 207.9999999999781 43.42105263154296 0
593 207.9999999999781 44.73684210523437 0
594 207.9999999999781 46.05263157892578 0
595 207.9999999999781 47.36842105261718 0
596 207.9999999999781 48.68421052630859 0
597 52.00000000001268 51.33333333333333 0
598 52.00000000001268 52.66666666666669 0
599 52.00000000001269 54.00000000000001 0
600 52.00000000001267 55.33333333333335 0
601 52.00000000001268 56.66666666666668 0
602 52.00000000001266 58.00000000000001 0
603 52.00000000001268 59.33333333333334 0
604 52.00000000001268 60.66666666666669 0
605 52.00000000001268 62.00000000000004 0
606 52.00000000001268 63.33333333333336 0
607 52.00000000001268 64.66666666666669 0
608 52.00000000001268 66.00000000000001 0
609 52.00000000001268 67.33333333333334 0
610 52.00000000001268 68.66666666666669 0
611 52.00000000001268 70.00000000000003 0
612 52.00000000001268 71.33333333333334 0
613 52.00000000001268 72.6666666666667 0
614 52.00000000001268 74.00000000000001 0
615 52.00000000001268 75.33333333333334 0
616 52.00000000001268 76.66666666666669 0
617 52.00000000001268 78.00000000000001 0
618 52.00000000001268 79.33333333333334 0
619 52.00000000001268 80.66666666666664 0
620 52.00000000001268 82 0
621 52.00000000001268 83.33333333333334 0
622 52.00000000001268 84.66666666666664 0
623 52.00000000001268 86 0
624 52.00000000001268 87.33333333333336 0
625 52.00000000001268 88.66666666666666 0
626 104.0000000000009 51.33333333333333 0
627 104.0000000000009 52.66666666666668 0
628 104.0000000000009 54.00000000000001 0
629 104.0000000000009 55.33333333333334 0
630 104.0000000000009 56.66666666666669 0
631 104.0000000000009 58.00000000000001 0
632 104.0000000000009 59.33333333333335 0
633 104.0000000000009 60.66666666666669 0
634 104.000000000001 62.00000000000004 0
635 104.0000000000009 63.33333333333336 0
636 104.0000000000009 64.66666666666669 0
637 104.0000000000009 66.00000000000001 0
638 104.000000000001 67.33333333333334 0
639 104.0000000000009 68.66666666666669 0
640 104.0000000000009 70.00000000000001 0
641 104.000000000001 71.33333333333334 0
642 104.0000000000009 72.66666666666669 0
643 104.0000000000009 74.00000000000001 0
644 104.0000000000009 75.33333333333334 0
645 104.0000000000009 76.66666666666669 0
646 104.000000000001 78 0
647 104.0000000000009 79.33333333333334 0
648 104.0000000000009 80.66666666666667 0
649 104.0000000000009 82 0
650 104.0000000000009 83.33333333333334 0
651 104.000000000001 84.66666666666667 0
652 104.000000000001 86 0
653 104.0000000000009 87.33333333333334 0
654 104.0000000000009 88.66666666666666 0
655 155.9999999999894 51.33333333333332 0
656 155.9999999999894 52.66666666666669 0
657 155.9999999999894 54.00000000000001 0
658 155.9999999999895 55.33333333333334 0
659 155.9999999999894 56.66666666666668 0
660 155.9999999999894 58.00000000000001 0
661 155.9999999999894 59.33333333333336 0
662 155.9999999999894 60.66666666666668 0
663 155.9999999999894 62.00000000000003 0
664 155.9999999999894 63.33333333333335 0
665 155.9999999999894 64.66666666666669 0
666 155.9999999999894 66 0
667 155.9999999999894 67.33333333333334 0
668 155.9999999999894 68.66666666666669 0
669 155.9999999999894 70.00000000000001 0
670 155.9999999999894 71.33333333333334 0
671 155.9999999999894 72.66666666666669 0
672 155.9999999999894 74.00000000000001 0
673 155.9999999999894 75.33333333333334 0
674 155.9999999999894 76.66666666666669 0
675 155.9999999999894 78 0
676 155.9999999999894 79.33333333333334 0
677 155.9999999999894 80.66666666666667 0
678 155.9999999999894 82 0
679 155.9999999999894 83.33333333333334 0
680 155.9999999999894 84.66666666666667 0
681 155.9999999999894 86 0
682 155.9999999999894 87.33333333333334 0
683 155.9999999999894 88.66666666666666 0
684 207.999999999978 51.33333333333334 0
685 207.9999999999781 52.66666666666669 0
686 207.9999999999781 54 0
687 207.9999999999781 55.33333333333334 0
688 207.9999999999782 56.66666666666666 0
689 207.9999999999781 58.00000000000002 0
690 207.9999999999781 59.33333333333334 0
691 207.9999999999781 60.66666666666669 0
692 207.9999999999781 62.00000000000004 0
693 207.9999999999781 63.33333333333336 0
694 207.9999999999781 64.66666666666669 0
695 207.9999999999781 66.00000000000001 0
696 207.9999999999781 67.33333333333334 0
697 207.9999999999781 68.66666666666669 0
698 207.9999999999781 70.00000000000001 0
699 207.9999999999781 71.33333333333334 0
700 207.9999999999781 72.66666666666669 0
701 207.9999999999781 74.00000000000001 0
702 207.9999999999782 75.33333333333334 0
703 207.9999999999782 76.66666666666669 0
704 207.9999999999781 78.00000000000001 0
705 207.9999999999781 79.33333333333334 0
706 207.9999999999781 80.66666666666667 0
707 207.9999999999781 82 0
708 207.9999999999781 83.33333333333336 0
709 207.9999999999781 84.66666666666669 0
710 207.9999999999781 86 0
711 207.9999999999781 87.33333333333334 0
712 207.9999999999781 88.66666666666666 0
713 52.00000000001268 91.5 0
714 52.00000000001268 93 0
715 52.00000000001268 94.5 0
716 52.00000000001268 96 0
717 52.00000000001268 97.5 0
718 52.00000000001268 99.00000000000003 0
719 52.00000000001268 100.5 0
720 52.00000000001268 102 0
721 52.00000000001268 103.5 0
722 52.00000000001268 105 0
723 52.00000000001268 106.5 0
724 52.00000000001268 108 0
725 52.00000000001268 109.5 0
726 52.00000000001268 111 0
727 52.00000000001268 112.5 0
728 52.00000000001268 114 0
729 52.00000000001268 115.5 0
730 52.00000000001268 117 0
731 52.00000000001268 118.5 0
732 104.000000000001 91.5 0
733 104.000000000001 93 0
734 104.0000000000009 94.5 0
735 104.0000000000009 96 0
736 104.0000000000009 97.5 0
737 104.0000000000009 99 0
738 104.0000000000009 100.5 0
739 104.0000000000009 102 0
740 104.0000000000009 103.5 0
741 104.000000000001 105 0
742 104.0000000000009 106.5 0
743 104.0000000000009 108 0
744 104.000000000001 109.5 0
745 104.000000000001 111 0
746 104.0000000000009 112.5 0
747 104.0000000000009 114 0
748 104.0000000000009 115.5 0
749 104.000000000001 117 0
750 104.000000000001 118.5 0
751 155.9999999999894 91.50000000000001 0
752 155.9999999999894 93 0
753 155.9999999999894 94.5 0
754 155.9999999999894 96 0
755 155.9999999999894 97.5 0
756 155.9999999999894 98.99999999999999 0
757 155.9999999999894 100.5 0
758 155.9999999999894 102 0
759 155.9999999999894 103.5 0
760 155.9999999999894 105 0
761 155.9999999999894 106.5 0
762 155.9999999999894 108 0
763 155.9999999999894 109.5 0
764 155.9999999999894 111 0
765 155.9999999999894 112.5 0
766 155.9999999999894 114 0
767 155.9999999999894 115.5 0
768 155.9999999999894 117 0
769 155.9999999999894 118.5 0
770 207.9999999999781 91.5 0
771 207.9999999999781 93 0
772 207.9999999999781 94.5 0
773 207.999999999978 96 0
774 207.9999999999781 97.49999999999999 0
775 207.9999999999781 99.00000000000003 0
776 207.9999999999781 100.5 0
777 207.9999999999781 102 0
778 207.9999999999781 103.5 0
779 207.9999999999781 105 0
780 207.9999999999781 106.5 0
781 207.9999999999782 108 0
782 207.9999999999781 109.5 0
783 207.9999999999781 111 0
784 207.9999999999781 112.5 0
785 207.9999999999781 114 0
786 207.9999999999781 115.5 0
787 207.9999999999781 117 0
788 207.9999999999781 118.5 0
789 52.00000000001268 121.25 0
790 52.00000000001268 122.5 0
791 52.00000000001268 123.75 0
792 52.00000000001268 125 0
793 52.00000000001268 126.25 0
794 52.00000000001268 127.5 0
795 52.00000000001268 128.75 0
796 52.00000000001268 130 0
797 52.00000000001268 131.25 0
798 52.00000000001268 132.5 0
799 52.00000000001268 133.75 0
800 52.00000000001268 135 0
801 52.00000000001268 136.25 0
802 52.00000000001268 137.5 0
803 52.00000000001268 138.75 0
804 104.000000000001 121.25 0
805 104.000000000001 122.5 0
806 104.0000000000009 123.75 0
807 104.0000000000009 125 0
808 104.0000000000009 126.25 0
809 104.0000000000009 127.5 0
810 104.000000000001 128.75 0
811 104.000000000001 130 0
812 104.000000000001 131.25 0
813 104.0000000000009 132.5 0
814 104.0000000000009 133.75 0
815 104.0000000000009 135 0
816 104.0000000000009 136.25 0
817 104.000000000001 137.5 0
818 104.000000000001 138.75 0
819 155.9999999999894 121.25 0
820 155.9999999999894 122.5 0
821 155.9999999999894 123.75 0
822 155.9999999999894 125 0
823 155.9999999999894 126.25 0
824 155.9999999999894 127.5 0
825 155.9999999999894 128.75 0
826 155.9999999999894 130 0
827 155.9999999999894 131.25 0
828 155.9999999999894 132.5 0
829 155.9999999999894 133.75 0
830 155.9999999999894 135 0
831 155.9999999999894 136.25 0
832 155.9999999999894 137.5 0
833 155.9999999999894 138.75 0
834 207.9999999999781 121.25 0
835 207.9999999999781 122.5 0
836 207.9999999999781 123.75 0
837 207.9999999999781 125 0
838 207.9999999999782 126.25 0
839 207.9999999999781 127.5 0
840 207.9999999999781 128.75 0
841 207.9999999999781 130 0
842 207.9999999999781 131.25 0
843 207.9999999999781 132.5 0
844 207.9999999999781 133.75 0
845 207.9999999999781 135 0
846 207.9999999999781 136.25 0
847 207.9999999999781 137.5 0
848 207.9999999999781 138.75 0
$EndNodes
$Elements
1221
1 15 2 0 1 1
2 15 2 0 2 2
3 15 2 0 3 3
4 15 2 0 4 4
5 15 2 0 5 5
6 15 2 0 6 6
7 15 2 0 7 7
8 15 2 0 8 8
9 15 2 0 9 9
10 15 2 0 10 10
11 15 2 0 11 11
12 15 2 0 12 12
13 15 2 0 13 13
14 15 2 0 14 14
15 15 2 0 15 15
16 15 2 0 16 16
17 15 2 0 17 17
18 15 2 0 18 18
19 15 2 0 19 19
20 15 2 0 20 20
21 15 2 0 21 21
22 15 2 0 22 22
23 15 2 0 23 23
24 15 2 0 24 24
25 1 2 0 1 1 25
26 1 2 0 1 25 26
27 1 2 0 1 26 27
28 1 2 0 1 27 28
29 1 2 0 1 28 2
30 1 2 0 2 4 29
31 1 2 0 2 29 30
32 1 2 0 2 30 31
33 1 2 0 2 31 32
34 1 2 0 2 32 3
35 1 2 0 3 5 33
36 1 2 0 3 33 34
37 1 2 0 3 34 35
38 1 2 0 3 35 36
39 1 2 0 3 36 6
40 1 2 0 4 8 37
41 1 2 0 4 37 38
42 1 2 0 4 38 39
43 1 2 0 4 39 40
44 1 2 0 4 40 7
45 1 2 0 5 9 41
46 1 2 0 5 41 42
47 1 2 0 5 42 43
48 1 2 0 5 43 44
49 1 2 0 5 44 10
50 1 2 0 6 22 45
51 1 2 0 6 45 46
52 1 2 0 6 46 47
53 1 2 0 6 47 48
54 1 2 0 6 48 23
55 1 2 0 7 2 15
56 1 2 0 8 3 14
57 1 2 0 9 6 13
58 1 2 0 10 7 12
59 1 2 0 11 10 11
60 1 2 0 12 23 24
61 1 2 0 13 21 22
62 1 2 0 14 20 1
63 1 2 0 15 19 4
64 1 2 0 16 18 5
65 1 2 0 17 17 8
66 1 2 0 18 16 9
67 1 2 0 19 21 20
68 1 2 0 20 20 49
69 1 2 0 20 49 50
70 1 2 0 20 50 51
71 1 2 0 20 51 52
72 1 2 0 20 52 53
73 1 2 0 20 53 54
74 1 2 0 20 54 55
75 1 2 0 20 55 56
76 1 2 0 20 56 57
77 1 2 0 20 57 58
78 1 2 0 20 58 59
79 1 2 0 20 59 60
80 1 2 0 20 60 61
81 1 2 0 20 61 62
82 1 2 0 20 62 63
83 1 2 0 20 63 64
84 1 2 0 20 64 65
85 1 2 0 20 65 66
86 1 2 0 20 66 67
87 1 2 0 20 67 68
88 1 2 0 20 68 69
89 1 2 0 20 69 70
90 1 2 0 20 70 71
91 1 2 0 20 71 72
92 1 2 0 20 72 73
93 1 2 0 20 73 74
94 1 2 0 20 74 75
95 1 2 0 20 75 76
96 1 2 0 20 76 77
97 1 2 0 20 77 78
98 1 2 0 20 78 79
99 1 2 0 20 79 80
100 1 2 0 20 80 81
101 1 2 0 20 81 82
102 1 2 0 20 82 83
103 1 2 0 20 83 84
104 1 2 0 20 84 85
105 1 2 0 20 85 19
106 1 2 0 21 19 86
107 1 2 0 21 86 87
108 1 2 0 21 87 88
109 1 2 0 21 88 89
110 1 2 0 21 89 90
111 1 2 0 21 90 91
112 1 2 0 21 91 92
113 1 2 0 21 92 93
114 1 2 0 21 93 94
115 1 2 0 21 94 95
116 1 2 0 21 95 96
117 1 2 0 21 96 97
118 1 2 0 21 97 98
119 1 2 0 21 98 99
120 1 2 0 21 99 100
121 1 2 0 21 100 101
122 1 2 0 21 101 102
123 1 2 0 21 102 103
124 1 2 0 21 103 104
125 1 2 0 21 104 105
126 1 2 0 21 105 106
127 1 2 0 21 106 107
128 1 2 0 21 107 108
129 1 2 0 21 108 109
130 1 2 0 21 109 110
131 1 2 0 21 110 111
132 1 2 0 21 111 112
133 1 2 0 21 112 113
134 1 2 0 21 113 114
135 1 2 0 21 114 18
136 1 2 0 22 18 115
137 1 2 0 22 115 116
138 1 2 0 22 116 117
139 1 2 0 22 117 118
140 1 2 0 22 118 119
141 1 2 0 22 119 120
142 1 2 0 22 120 121
143 1 2 0 22 121 122
144 1 2 0 22 122 123
145 1 2 0 22 123 124
146 1 2 0 22 124 125
147 1 2 0 22 125 126
148 1 2 0 22 126 127
149 1 2 0 22 127 128
150 1 2 0 22 128 129
151 1 2 0 22 129 130
152 1 2 0 22 130 131
153 1 2 0 22 131 132
154 1 2 0 22 132 133
155 1 2 0 22 133 17
156 1 2 0 23 17 134
157 1 2 0 23 134 135
158 1 2 0 23 135 136
159 1 2 0 23 136 137
160 1 2 0 23 137 138
161 1 2 0 23 138 139
162 1 2 0 23 139 140
163 1 2 0 23 140 141
164 1 2 0 23 141 142
165 1 2 0 23 142 143
166 1 2 0 23 143 144
167 1 2 0 23 144 145
168 1 2 0 23 145 146
169 1 2 0 23 146 147
170 1 2 0 23 147 148
171 1 2 0 23 148 16
172 1 2 0 24 22 1
173 1 2 0 25 1 149
174 1 2 0 25 149 150
175 1 2 0 25 150 151
176 1 2 0 25 151 152
177 1 2 0 25 152 153
178 1 2 0 25 153 154
179 1 2 0 25 154 155
180 1 2 0 25 155 156
181 1 2 0 25 156 157
182 1 2 0 25 157 158
183 1 2 0 25 158 159
184 1 2 0 25 159 160
185 1 2 0 25 160 161
186 1 2 0 25 161 162
187 1 2 0 25 162 163
188 1 2 0 25 163 164
189 1 2 0 25 164 165
190 1 2 0 25 165 166
191 1 2 0 25 166 167
192 1 2 0 25 167 168
193 1 2 0 25 168 169
194 1 2 0 25 169 170
195 1 2 0 25 170 171
196 1 2 0 25 171 172
197 1 2 0 25 172 173
198 1 2 0 25 173 174
199 1 2 0 25 174 175
200 1 2 0 25 175 176
201 1 2 0 25 176 177
202 1 2 0 25 177 178
203 1 2 0 25 178 179
204 1 2 0 25 179 180
205 1 2 0 25 180 181
206 1 2 0 25 181 182
207 1 2 0 25 182 183
208 1 2 0 25 183 184
209 1 2 0 25 184 185
210 1 2 0 25 185 4
211 1 2 0 26 4 186
212 1 2 0 26 186 187
213 1 2 0 26 187 188
214 1 2 0 26 188 189
215 1 2 0 26 189 190
216 1 2 0 26 190 191
217 1 2 0 26 191 192
218 1 2 0 26 192 193
219 1 2 0 26 193 194
220 1 2 0 26 194 195
221 1 2 0 26 195 196
222 1 2 0 26 196 197
223 1 2 0 26 197 198
224 1 2 0 26 198 199
225 1 2 0 26 199 200
226 1 2 0 26 200 201
227 1 2 0 26 201 202
228 1 2 0 26 202 203
229 1 2 0 26 203 204
230 1 2 0 26 204 205
231 1 2 0 26 205 206
232 1 2 0 26 206 207
233 1 2 0 26 207 208
234 1 2 0 26 208 209
235 1 2 0 26 209 210
236 1 2 0 26 210 211
237 1 2 0 26 211 212
238 1 2 0 26 212 213
239 1 2 0 26 213 214
240 1 2 0 26 214 5
241 1 2 0 27 5 215
242 1 2 0 27 215 216
243 1 2 0 27 216 217
244 1 2 0 27 217 218
245 1 2 0 27 218 219
246 1 2 0 27 219 220
247 1 2 0 27 220 221
248 1 2 0 27 221 222
249 1 2 0 27 222 223
250 1 2 0 27 223 224
251 1 2 0 27 224 225
252 1 2 0 27 225 226
253 1 2 0 27 226 227
254 1 2 0 27 227 228
255 1 2 0 27 228 229
256 1 2 0 27 229 230
257 1 2 0 27 230 231
258 1 2 0 27 231 232
259 1 2 0 27 232 233
260 1 2 0 27 233 8
261 1 2 0 28 8 234
262 1 2 0 28 234 235
263 1 2 0 28 235 236
264 1 2 0 28 236 237
265 1 2 0 28 237 238
266 1 2 0 28 238 239
267 1 2 0 28 239 240
268 1 2 0 28 240 241
269 1 2 0 28 241 242
270 1 2 0 28 242 243
271 1 2 0 28 243 244
272 1 2 0 28 244 245
273 1 2 0 28 245 246
274 1 2 0 28 246 247
275 1 2 0 28 247 248
276 1 2 0 28 248 9
277 1 2 0 29 23 2
278 1 2 0 30 2 249
279 1 2 0 30 249 250
280 1 2 0 30 250 251
281 1 2 0 30 251 252
282 1 2 0 30 252 253
283 1 2 0 30 253 254
284 1 2 0 30 254 255
285 1 2 0 30 255 256
286 1 2 0 30 256 257
287 1 2 0 30 257 258
288 1 2 0 30 258 259
289 1 2 0 30 259 260
290 1 2 0 30 260 261
291 1 2 0 30 261 262
292 1 2 0 30 262 263
293 1 2 0 30 263 264
294 1 2 0 30 264 265
295 1 2 0 30 265 266
296 1 2 0 30 266 267
297 1 2 0 30 267 268
298 1 2 0 30 268 269
299 1 2 0 30 269 270
300 1 2 0 30 270 271
301 1 2 0 30 271 272
302 1 2 0 30 272 273
303 1 2 0 30 273 274
304 1 2 0 30 274 275
305 1 2 0 30 275 276
306 1 2 0 30 276 277
307 1 2 0 30 277 278
308 1 2 0 30 278 279
309 1 2 0 30 279 280
310 1 2 0 30 280 281
311 1 2 0 30 281 282
312 1 2 0 30 282 283
313 1 2 0 30 283 284
314 1 2 0 30 284 285
315 1 2 0 30 285 3
316 1 2 0 31 3 286
317 1 2 0 31 286 287
318 1 2 0 31 287 288
319 1 2 0 31 288 289
320 1 2 0 31 289 290
321 1 2 0 31 290 291
322 1 2 0 31 291 292
323 1 2 0 31 292 293
324 1 2 0 31 293 294
325 1 2 0 31 294 295
326 1 2 0 31 295 296
327 1 2 0 31 296 297
328 1 2 0 31 297 298
329 1 2 0 31 298 299
330 1 2 0 31 299 300
331 1 2 0 31 300 301
332 1 2 0 31 301 302
333 1 2 0 31 302 303
334 1 2 0 31 303 304
335 1 2 0 31 304 305
336 1 2 0 31 305 306
337 1 2 0 31 306 307
338 1 2 0 31 307 308
339 1 2 0 31 308 309
340 1 2 0 31 309 310
341 1 2 0 31 310 311
342 1 2 0 31 311 312
343 1 2 0 31 312 313
344 1 2 0 31 313 314
345 1 2 0 31 314 6
346 1 2 0 32 6 315
347 1 2 0 32 315 316
348 1 2 0 32 316 317
349 1 2 0 32 317 318
350 1 2 0 32 318 319
351 1 2 0 32 319 320
352 1 2 0 32 320 321
353 1 2 0 32 321 322
354 1 2 0 32 322 323
355 1 2 0 32 323 324
356 1 2 0 32 324 325
357 1 2 0 32 325 326
358 1 2 0 32 326 327
359 1 2 0 32 327 328
360 1 2 0 32 328 329
361 1 2 0 32 329 330
362 1 2 0 32 330 331
363 1 2 0 32 331 332
364 1 2 0 32 332 333
365 1 2 0 32 333 7
366 1 2 0 33 7 334
367 1 2 0 33 334 335
368 1 2 0 33 335 336
369 1 2 0 33 336 337
370 1 2 0 33 337 338
371 1 2 0 33 338 339
372 1 2 0 33 339 340
373 1 2 0 33 340 341
374 1 2 0 33 341 342
375 1 2 0 33 342 343
376 1 2 0 33 343 344
377 1 2 0 33 344 345
378 1 2 0 33 345 346
379 1 2 0 33 346 347
380 1 2 0 33 347 348
381 1 2 0 33 348 10
382 1 2 0 34 24 15
383 1 2 0 35 15 349
384 1 2 0 35 349 350
385 1 2 0 35 350 351
386 1 2 0 35 351 352
387 1 2 0 35 352 353
388 1 2 0 35 353 354
389 1 2 0 35 354 355
390 1 2 0 35 355 356
391 1 2 0 35 356 357
392 1 2 0 35 357 358
393 1 2 0 35 358 359
394 1 2 0 35 359 360
395 1 2 0 35 360 361
396 1 2 0 35 361 362
397 1 2 0 35 362 363
398 1 2 0 35 363 364
399 1 2 0 35 364 365
400 1 2 0 35 365 366
401 1 2 0 35 366 367
402 1 2 0 35 367 368
403 1 2 0 35 368 369
404 1 2 0 35 369 370
405 1 2 0 35 370 371
406 1 2 0 35 371 372
407 1 2 0 35 372 373
408 1 2 0 35 373 374
409 1 2 0 35 374 375
410 1 2 0 35 375 376
411 1 2 0 35 376 377
412 1 2 0 35 377 378
413 1 2 0 35 378 379
414 1 2 0 35 379 380
415 1 2 0 35 380 381
416 1 2 0 35 381 382
417 1 2 0 35 382 383
418 1 2 0 35 383 384
419 1 2 0 35 384 385
420 1 2 0 35 385 14
421 1 2 0 36 14 386
422 1 2 0 36 386 387
423 1 2 0 36 387 388
424 1 2 0 36 388 389
425 1 2 0 36 389 390
426 1 2 0 36 390 391
427 1 2 0 36 391 392
428 1 2 0 36 392 393
429 1 2 0 36 393 394
430 1 2 0 36 394 395
431 1 2 0 36 395 396
432 1 2 0 36 396 397
433 1 2 0 36 397 398
434 1 2 0 36 398 399
435 1 2 0 36 399 400
436 1 2 0 36 400 401
437 1 2 0 36 401 402
438 1 2 0 36 402 403
439 1 2 0 36 403 404
440 1 2 0 36 404 405
441 1 2 0 36 405 406
442 1 2 0 36 406 407
443 1 2 0 36 407 408
444 1 2 0 36 408 409
445 1 2 0 36 409 410
446 1 2 0 36 410 411
447 1 2 0 36 411 412
448 1 2 0 36 412 413
449 1 2 0 36 413 414
450 1 2 0 36 414 13
451 1 2 0 37 13 415
452 1 2 0 37 415 416
453 1 2 0 37 416 417
454 1 2 0 37 417 418
455 1 2 0 37 418 419
456 1 2 0 37 419 420
457 1 2 0 37 420 421
458 1 2 0 37 421 422
459 1 2 0 37 422 423
460 1 2 0 37 423 424
461 1 2 0 37 424 425
462 1 2 0 37 425 426
463 1 2 0 37 426 427
464 1 2 0 37 427 428
465 1 2 0 37 428 429
466 1 2 0 37 429 430
467 1 2 0 37 430 431
468 1 2 0 37 431 432
469 1 2 0 37 432 433
470 1 2 0 37 433 12
471 1 2 0 38 12 434
472 1 2 0 38 434 435
473 1 2 0 38 435 436
474 1 2 0 38 436 437
475 1 2 0 38 437 438
476 1 2 0 38 438 439
477 1 2 0 38 439 440
478 1 2 0 38 440 441
479 1 2 0 38 441 442
480 1 2 0 38 442 443
481 1 2 0 38 443 444
482 1 2 0 38 444 445
483 1 2 0 38 445 446
484 1 2 0 38 446 447
485 1 2 0 38 447 448
486 1 2 0 38 448 11
487 3 2 0 1 1 25 449 149
488 3 2 0 1 149 449 450 150
489 3 2 0 1 150 450 451 151
490 3 2 0 1 151 451 452 152
491 3 2 0 1 152 452 453 153
492 3 2 0 1 153 453 454 154
493 3 2 0 1 154 454 455 155
494 3 2 0 1 155 455 456 156
495 3 2 0 1 156 456 457 157
496 3 2 0 1 157 457 458 158
497 3 2 0 1 158 458 459 159
498 3 2 0 1 159 459 460 160
499 3 2 0 1 160 460 461 161
500 3 2 0 1 161 461 462 162
501 3 2 0 1 162 462 463 163
502 3 2 0 1 163 463 464 164
503 3 2 0 1 164 464 465 165
504 3 2 0 1 165 465 466 166
505 3 2 0 1 166 466 467 167
506 3 2 0 1 167 467 468 168
507 3 2 0 1 168 468 469 169
508 3 2 0 1 169 469 470 170
509 3 2 0 1 170 470 471 171
510 3 2 0 1 171 471 472 172
511 3 2 0 1 172 472 473 173
512 3 2 0 1 173 473 474 174
513 3 2 0 1 174 474 475 175
514 3 2 0 1 175 475 476 176
515 3 2 0 1 176 476 477 177
516 3 2 0 1 177 477 478 178
517 3 2 0 1 178 478 479 179
518 3 2 0 1 179 479 480 180
519 3 2 0 1 180 480 481 181
520 3 2 0 1 181 481 482 182
521 3 2 0 1 182 482 483 183
522 3 2 0 1 183 483 484 184
523 3 2 0 1 184 484 485 185
524 3 2 0 1 185 485 29 4
525 3 2 0 1 25 26 486 449
526 3 2 0 1 449 486 487 450
527 3 2 0 1 450 487 488 451
528 3 2 0 1 451 488 489 452
529 3 2 0 1 452 489 490 453
530 3 2 0 1 453 490 491 454
531 3 2 0 1 454 491 492 455
532 3 2 0 1 455 492 493 456
533 3 2 0 1 456 493 494 457
534 3 2 0 1 457 494 495 458
535 3 2 0 1 458 495 496 459
536 3 2 0 1 459 496 497 460
537 3 2 0 1 460 497 498 461
538 3 2 0 1 461 498 499 462
539 3 2 0 1 462 499 500 463
540 3 2 0 1 463 500 501 464
541 3 2 0 1 464 501 502 465
542 3 2 0 1 465 502 503 466
543 3 2 0 1 466 503 504 467
544 3 2 0 1 467 504 505 468
545 3 2 0 1 468 505 506 469
546 3 2 0 1 469 506 507 470
547 3 2 0 1 470 507 508 471
548 3 2 0 1 471 508 509 472
549 3 2 0 1 472 509 510 473
550 3 2 0 1 473 510 511 474
551 3 2 0 1 474 511 512 475
552 3 2 0 1 475 512 513 476
553 3 2 0 1 476 513 514 477
554 3 2 0 1 477 514 515 478
555 3 2 0 1 478 515 516 479
556 3 2 0 1 479 516 517 480
557 3 2 0 1 480 517 518 481
558 3 2 0 1 481 518 519 482
559 3 2 0 1 482 519 520 483
560 3 2 0 1 483 520 521 484
561 3 2 0 1 484 521 522 485
562 3 2 0 1 485 522 30 29
563 3 2 0 1 26 27 523 486
564 3 2 0 1 486 523 524 487
565 3 2 0 1 487 524 525 488
566 3 2 0 1 488 525 526 489
567 3 2 0 1 489 526 527 490
568 3 2 0 1 490 527 528 491
569 3 2 0 1 491 528 529 492
570 3 2 0 1 492 529 530 493
571 3 2 0 1 493 530 531 494
572 3 2 0 1 494 531 532 495
573 3 2 0 1 495 532 533 496
574 3 2 0 1 496 533 534 497
575 3 2 0 1 497 534 535 498
576 3 2 0 1 498 535 536 499
577 3 2 0 1 499 536 537 500
578 3 2 0 1 500 537 538 501
579 3 2 0 1 501 538 539 502
580 3 2 0 1 502 539 540 503
581 3 2 0 1 503 540 541 504
582 3 2 0 1 504 541 542 505
583 3 2 0 1 505 542 543 506
584 3 2 0 1 506 543 544 507
585 3 2 0 1 507 544 545 508
586 3 2 0 1 508 545 546 509
587 3 2 0 1 509 546 547 510
588 3 2 0 1 510 547 548 511
589 3 2 0 1 511 548 549 512
590 3 2 0 1 512 549 550 513
591 3 2 0 1 513 550 551 514
592 3 2 0 1 514 551 552 515
593 3 2 0 1 515 552 553 516
594 3 2 0 1 516 553 554 517
595 3 2 0 1 517 554 555 518
596 3 2 0 1 518 555 556 519
597 3 2 0 1 519 556 557 520
598 3 2 0 1 520 557 558 521
599 3 2 0 1 521 558 559 522
600 3 2 0 1 522 559 31 30
601 3 2 0 1 27 28 560 523
602 3 2 0 1 523 560 561 524
603 3 2 0 1 524 561 562 525
604 3 2 0 1 525 562 563 526
605 3 2 0 1 526 563 564 527
606 3 2 0 1 527 564 565 528
607 3 2 0 1 528 565 566 529
608 3 2 0 1 529 566 567 530
609 3 2 0 1 530 567 568 531
610 3 2 0 1 531 568 569 532
611 3 2 0 1 532 569 570 533
612 3 2 0 1 533 570 571 534
613 3 2 0 1 534 571 572 535
614 3 2 0 1 535 572 573 536
615 3 2 0 1 536 573 574 537
616 3 2 0 1 537 574 575 538
617 3 2 0 1 538 575 576 539
618 3 2 0 1 539 576 577 540
619 3 2 0 1 540 577 578 541
620 3 2 0 1 541 578 579 542
621 3 2 0 1 542 579 580 543
622 3 2 0 1 543 580 581 544
623 3 2 0 1 544 581 582 545
624 3 2 0 1 545 582 583 546
625 3 2 0 1 546 583 584 547
626 3 2 0 1 547 584 585 548
627 3 2 0 1 548 585 586 549
628 3 2 0 1 549 586 587 550
629 3 2 0 1 550 587 588 551
630 3 2 0 1 551 588 589 552
631 3 2 0 1 552 589 590 553
632 3 2 0 1 553 590 591 554
633 3 2 0 1 554 591 592 555
634 3 2 0 1 555 592 593 556
635 3 2 0 1 556 593 594 557
636 3 2 0 1 557 594 595 558
637 3 2 0 1 558 595 596 559
638 3 2 0 1 559 596 32 31
639 3 2 0 1 28 2 249 560
640 3 2 0 1 560 249 250 561
641 3 2 0 1 561 250 251 562
642 3 2 0 1 562 251 252 563
643 3 2 0 1 563 252 253 564
644 3 2 0 1 564 253 254 565
645 3 2 0 1 565 254 255 566
646 3 2 0 1 566 255 256 567
647 3 2 0 1 567 256 257 568
648 3 2 0 1 568 257 258 569
649 3 2 0 1 569 258 259 570
650 3 2 0 1 570 259 260 571
651 3 2 0 1 571 260 261 572
652 3 2 0 1 572 261 262 573
653 3 2 0 1 573 262 263 574
654 3 2 0 1 574 263 264 575
655 3 2 0 1 575 264 265 576
656 3 2 0 1 576 265 266 577
657 3 2 0 1 577 266 267 578
658 3 2 0 1 578 267 268 579
659 3 2 0 1 579 268 269 580
660 3 2 0 1 580 269 270 581
661 3 2 0 1 581 270 271 582
662 3 2 0 1 582 271 272 583
663 3 2 0 1 583 272 273 584
664 3 2 0 1 584 273 274 585
665 3 2 0 1 585 274 275 586
666 3 2 0 1 586 275 276 587
667 3 2 0 1 587 276 277 588
668 3 2 0 1 588 277 278 589
669 3 2 0 1 589 278 279 590
670 3 2 0 1 590 279 280 591
671 3 2 0 1 591 280 281 592
672 3 2 0 1 592 281 282 593
673 3 2 0 1 593 282 283 594
674 3 2 0 1 594 283 284 595
675 3 2 0 1 595 284 285 596
676 3 2 0 1 596 285 3 32
677 3 2 0 2 4 29 597 186
678 3 2 0 2 186 597 598 187
679 3 2 0 2 187 598 599 188
680 3 2 0 2 188 599 600 189
681 3 2 0 2 189 600 601 190
682 3 2 0 2 190 601 602 191
683 3 2 0 2 191 602 603 192
684 3 2 0 2 192 603 604 193
685 3 2 0 2 193 604 605 194
686 3 2 0 2 194 605 606 195
687 3 2 0 2 195 606 607 196
688 3 2 0 2 196 607 608 197
689 3 2 0 2 197 608 609 198
690 3 2 0 2 198 609 610 199
691 3 2 0 2 199 610 611 200
692 3 2 0 2 200 611 612 201
693 3 2 0 2 201 612 613 202
694 3 2 0 2 202 613 614 203
695 3 2 0 2 203 614 615 204
696 3 2 0 2 204 615 616 205
697 3 2 0 2 205 616 617 206
698 3 2 0 2 206 617 618 207
699 3 2 0 2 207 618 619 208
700 3 2 0 2 208 619 620 209
701 3 2 0 2 209 620 621 210
702 3 2 0 2 210 621 622 211
703 3 2 0 2 211 622 623 212
704 3 2 0 2 212 623 624 213
705 3 2 0 2 213 624 625 214
706 3 2 0 2 214 625 33 5
707 3 2 0 2 29 30 626 597
708 3 2 0 2 597 626 627 598
709 3 2 0 2 598 627 628 599
710 3 2 0 2 599 628 629 600
711 3 2 0 2 600 629 630 601
712 3 2 0 2 601 630 631 602
713 3 2 0 2 602 631 632 603
714 3 2 0 2 603 632 633 604
715 3 2 0 2 604 633 634 605
716 3 2 0 2 605 634 635 606
717 3 2 0 2 606 635 636 607
718 3 2 0 2 607 636 637 608
719 3 2 0 2 608 637 638 609
720 3 2 0 2 609 638 639 610
721 3 2 0 2 610 639 640 611
722 3 2 0 2 611 640 641 612
723 3 2 0 2 612 641 642 613
724 3 2 0 2 613 642 643 614
725 3 2 0 2 614 643 644 615
726 3 2 0 2 615 644 645 616
727 3 2 0 2 616 645 646 617
728 3 2 0 2 617 646 647 618
729 3 2 0 2 618 647 648 619
730 3 2 0 2 619 648 649 620
731 3 2 0 2 620 649 650 621
732 3 2 0 2 621 650 651 622
733 3 2 0 2 622 651 652 623
734 3 2 0 2 623 652 653 624
735 3 2 0 2 624 653 654 625
736 3 2 0 2 625 654 34 33
737 3 2 0 2 30 31 655 626
738 3 2 0 2 626 655 656 627
739 3 2 0 2 627 656 657 628
740 3 2 0 2 628 657 658 629
741 3 2 0 2 629 658 659 630
742 3 2 0 2 630 659 660 631
743 3 2 0 2 631 660 661 632
744 3 2 0 2 632 661 662 633
745 3 2 0 2 633 662 663 634
746 3 2 0 2 634 663 664 635
747 3 2 0 2 635 664 665 636
748 3 2 0 2 636 665 666 637
749 3 2 0 2 637 666 667 638
750 3 2 0 2 638 667 668 639
751 3 2 0 2 639 668 669 640
752 3 2 0 2 640 669 670 641
753 3 2 0 2 641 670 671 642
754 3 2 0 2 642 671 672 643
755 3 2 0 2 643 672 673 644
756 3 2 0 2 644 673 674 645
757 3 2 0 2 645 674 675 646
758 3 2 0 2 646 675 676 647
759 3 2 0 2 647 676 677 648
760 3 2 0 2 648 677 678 649
761 3 2 0 2 649 678 679 650
762 3 2 0 2 650 679 680 651
763 3 2 0 2 651 680 681 652
764 3 2 0 2 652 681 682 653
765 3 2 0 2 653 682 683 654
766 3 2 0 2 654 683 35 34
767 3 2 0 2 31 32 684 655
768 3 2 0 2 655 684 685 656
769 3 2 0 2 656 685 686 657
770 3 2 0 2 657 686 687 658
771 3 2 0 2 658 687 688 659
772 3 2 0 2 659 688 689 660
773 3 2 0 2 660 689 690 661
774 3 2 0 2 661 690 691 662
775 3 2 0 2 662 691 692 663
776 3 2 0 2 663 692 693 664
777 3 2 0 2 664 693 694 665
778 3 2 0 2 665 694 695 666
779 3 2 0 2 666 695 696 667
780 3 2 0 2 667 696 697 668
781 3 2 0 2 668 697 698 669
782 3 2 0 2 669 698 699 670
783 3 2 0 2 670 699 700 671
784 3 2 0 2 671 700 701 672
785 3 2 0 2 672 701 702 673
786 3 2 0 2 673 702 703 674
787 3 2 0 2 674 703 704 675
788 3 2 0 2 675 704 705 676
789 3 2 0 2 676 705 706 677
790 3 2 0 2 677 706 707 678
791 3 2 0 2 678 707 708 679
792 3 2 0 2 679 708 709 680
793 3 2 0 2 680 709 710 681
794 3 2 0 2 681 710 711 682
795 3 2 0 2 682 711 712 683
796 3 2 0 2 683 712 36 35
797 3 2 0 2 32 3 286 684
798 3 2 0 2 684 286 287 685
799 3 2 0 2 685 287 288 686
800 3 2 0 2 686 288 289 687
801 3 2 0 2 687 289 290 688
802 3 2 0 2 688 290 291 689
803 3 2 0 2 689 291 292 690
804 3 2 0 2 690 292 293 691
805 3 2 0 2 691 293 294 692
806 3 2 0 2 692 294 295 693
807 3 2 0 2 693 295 296 694
808 3 2 0 2 694 296 297 695
809 3 2 0 2 695 297 298 696
810 3 2 0 2 696 298 299 697
811 3 2 0 2 697 299 300 698
812 3 2 0 2 698 300 301 699
813 3 2 0 2 699 301 302 700
814 3 2 0 2 700 302 303 701
815 3 2 0 2 701 303 304 702
816 3 2 0 2 702 304 305 703
817 3 2 0 2 703 305 306 704
818 3 2 0 2 704 306 307 705
819 3 2 0 2 705 307 308 706
820 3 2 0 2 706 308 309 707
821 3 2 0 2 707 309 310 708
822 3 2 0 2 708 310 311 709
823 3 2 0 2 709 311 312 710
824 3 2 0 2 710 312 313 711
825 3 2 0 2 711 313 314 712
826 3 2 0 2 712 314 6 36
827 3 2 0 3 5 33 713 215
828 3 2 0 3 215 713 714 216
829 3 2 0 3 216 714 715 217
830 3 2 0 3 217 715 716 218
831 3 2 0 3 218 716 717 219
832 3 2 0 3 219 717 718 220
833 3 2 0 3 220 718 719 221
834 3 2 0 3 221 719 720 222
835 3 2 0 3 222 720 721 223
836 3 2 0 3 223 721 722 224
837 3 2 0 3 224 722 723 225
838 3 2 0 3 225 723 724 226
839 3 2 0 3 226 724 725 227
840 3 2 0 3 227 725 726 228
841 3 2 0 3 228 726 727 229
842 3 2 0 3 229 727 728 230
843 3 2 0 3 230 728 729 231
844 3 2 0 3 231 729 730 232
845 3 2 0 3 232 730 731 233
846 3 2 0 3 233 731 37 8
847 3 2 0 3 33 34 732 713
848 3 2 0 3 713 732 733 714
849 3 2 0 3 714 733 734 715
850 3 2 0 3 715 734 735 716
851 3 2 0 3 716 735 736 717
852 3 2 0 3 717 736 737 718
853 3 2 0 3 718 737 738 719
854 3 2 0 3 719 738 739 720
855 3 2 0 3 720 739 740 721
856 3 2 0 3 721 740 741 722
857 3 2 0 3 722 741 742 723
858 3 2 0 3 723 742 743 724
859 3 2 0 3 724 743 744 725
860 3 2 0 3 725 744 745 726
861 3 2 0 3 726 745 746 727
862 3 2 0 3 727 746 747 728
863 3 2 0 3 728 747 748 729
864 3 2 0 3 729 748 749 730
865 3 2 0 3 730 749 750 731
866 3 2 0 3 731 750 38 37
867 3 2 0 3 34 35 751 732
868 3 2 0 3 732 751 752 733
869 3 2 0 3 733 752 753 734
870 3 2 0 3 734 753 754 735
871 3 2 0 3 735 754 755 736
872 3 2 0 3 736 755 756 737
873 3 2 0 3 737 756 757 738
874 3 2 0 3 738 757 758 739
875 3 2 0 3 739 758 759 740
876 3 2 0 3 740 759 760 741
877 3 2 0 3 741 760 761 742
878 3 2 0 3 742 761 762 743
879 3 2 0 3 743 762 763 744
880 3 2 0 3 744 763 764 745
881 3 2 0 3 745 764 765 746
882 3 2 0 3 746 765 766 747
883 3 2 0 3 747 766 767 748
884 3 2 0 3 748 767 768 749
885 3 2 0 3 749 768 769 750
886 3 2 0 3 750 769 39 38
887 3 2 0 3 35 36 770 751
888 3 2 0 3 751 770 771 752
889 3 2 0 3 752 771 772 753
890 3 2 0 3 753 772 773 754
891 3 2 0 3 754 773 774 755
892 3 2 0 3 755 774 775 756
893 3 2 0 3 756 775 776 757
894 3 2 0 3 757 776 777 758
895 3 2 0 3 758 777 778 759
896 3 2 0 3 759 778 779 760
897 3 2 0 3 760 779 780 761
898 3 2 0 3 761 780 781 762
899 3 2 0 3 762 781 782 763
900 3 2 0 3 763 782 783 764
901 3 2 0 3 764 783 784 765
902 3 2 0 3 765 784 785 766
903 3 2 0 3 766 785 786 767
904 3 2 0 3 767 786 787 768
905 3 2 0 3 768 787 788 769
906 3 2 0 3 769 788 40 39
907 3 2 0 3 36 6 315 770
908 3 2 0 3 770 315 316 771
909 3 2 0 3 771 316 317 772
910 3 2 0 3 772 317 318 773
911 3 2 0 3 773 318 319 774
912 3 2 0 3 774 319 320 775
913 3 2 0 3 775 320 321 776
914 3 2 0 3 776 321 322 777
915 3 2 0 3 777 322 323 778
916 3 2 0 3 778 323 324 779
917 3 2 0 3 779 324 325 780
918 3 2 0 3 780 325 326 781
919 3 2 0 3 781 326 327 782
920 3 2 0 3 782 327 328 783
921 3 2 0 3 783 328 329 784
922 3 2 0 3 784 329 330 785
923 3 2 0 3 785 330 331 786
924 3 2 0 3 786 331 332 787
925 3 2 0 3 787 332 333 788
926 3 2 0 3 788 333 7 40
927 3 2 0 4 8 37 789 234
928 3 2 0 4 234 789 790 235
929 3 2 0 4 235 790 791 236
930 3 2 0 4 236 791 792 237
931 3 2 0 4 237 792 793 238
932 3 2 0 4 238 793 794 239
933 3 2 0 4 239 794 795 240
934 3 2 0 4 240 795 796 241
935 3 2 0 4 241 796 797 242
936 3 2 0 4 242 797 798 243
937 3 2 0 4 243 798 799 244
938 3 2 0 4 244 799 800 245
939 3 2 0 4 245 800 801 246
940 3 2 0 4 246 801 802 247
941 3 2 0 4 247 802 803 248
942 3 2 0 4 248 803 41 9
943 3 2 0 4 37 38 804 789
944 3 2 0 4 789 804 805 790
945 3 2 0 4 790 805 806 791
946 3 2 0 4 791 806 807 792
947 3 2 0 4 792 807 808 793
948 3 2 0 4 793 808 809 794
949 3 2 0 4 794 809 810 795
950 3 2 0 4 795 810 811 796
951 3 2 0 4 796 811 812 797
952 3 2 0 4 797 812 813 798
953 3 2 0 4 798 813 814 799
954 3 2 0 4 799 814 815 800
955 3 2 0 4 800 815 816 801
956 3 2 0 4 801 816 817 802
957 3 2 0 4 802 817 818 803
958 3 2 0 4 803 818 42 41
959 3 2 0 4 38 39 819 804
960 3 2 0 4 804 819 820 805
961 3 2 0 4 805 820 821 806
962 3 2 0 4 806 821 822 807
963 3 2 0 4 807 822 823 808
964 3 2 0 4 808 823 824 809
965 3 2 0 4 809 824 825 810
966 3 2 0 4 810 825 826 811
967 3 2 0 4 811 826 827 812
968 3 2 0 4 812 827 828 813
969 3 2 0 4 813 828 829 814
970 3 2 0 4 814 829 830 815
971 3 2 0 4 815 830 831 816
972 3 2 0 4 816 831 832 817
973 3 2 0 4 817 832 833 818
974 3 2 0 4 818 833 43 42
975 3 2 0 4 39 40 834 819
976 3 2 0 4 819 834 835 820
977 3 2 0 4 820 835 836 821
978 3 2 0 4 821 836 837 822
979 3 2 0 4 822 837 838 823
980 3 2 0 4 823 838 839 824
981 3 2 0 4 824 839 840 825
982 3 2 0 4 825 840 841 826
983 3 2 0 4 826 841 842 827
984 3 2 0 4 827 842 843 828
985 3 2 0 4 828 843 844 829
986 3 2 0 4 829 844 845 830
987 3 2 0 4 830 845 846 831
988 3 2 0 4 831 846 847 832
989 3 2 0 4 832 847 848 833
990 3 2 0 4 833 848 44 43
991 3 2 0 4 40 7 334 834
992 3 2 0 4 834 334 335 835
993 3 2 0 4 835 335 336 836
994 3 2 0 4 836 336 337 837
995 3 2 0 4 837 337 338 838
996 3 2 0 4 838 338 339 839
997 3 2 0 4 839 339 340 840
998 3 2 0 4 840 340 341 841
999 3 2 0 4 841 341 342 842
1000 3 2 0 4 842 342 343 843
1001 3 2 0 4 843 343 344 844
1002 3 2 0 4 844 344 345 845
1003 3 2 0 4 845 345 346 846
1004 3 2 0 4 846 346 347 847
1005 3 2 0 4 847 347 348 848
1006 3 2 0 4 848 348 10 44
1007 3 2 0 5 22 45 25 1
1008 3 2 0 5 45 46 26 25
1009 3 2 0 5 46 47 27 26
1010 3 2 0 5 47 48 28 27
1011 3 2 0 5 48 23 2 28
1012 3 2 0 6 20 1 149 49
1013 3 2 0 6 49 149 150 50
1014 3 2 0 6 50 150 151 51
1015 3 2 0 6 51 151 152 52
1016 3 2 0 6 52 152 153 53
1017 3 2 0 6 53 153 154 54
1018 3 2 0 6 54 154 155 55
1019 3 2 0 6 55 155 156 56
1020 3 2 0 6 56 156 157 57
1021 3 2 0 6 57 157 158 58
1022 3 2 0 6 58 158 159 59
1023 3 2 0 6 59 159 160 60
1024 3 2 0 6 60 160 161 61
1025 3 2 0 6 61 161 162 62
1026 3 2 0 6 62 162 163 63
1027 3 2 0 6 63 163 164 64
1028 3 2 0 6 64 164 165 65
1029 3 2 0 6 65 165 166 66
1030 3 2 0 6 66 166 167 67
1031 3 2 0 6 67 167 168 68
1032 3 2 0 6 68 168 169 69
1033 3 2 0 6 69 169 170 70
1034 3 2 0 6 70 170 171 71
1035 3 2 0 6 71 171 172 72
1036 3 2 0 6 72 172 173 73
1037 3 2 0 6 73 173 174 74
1038 3 2 0 6 74 174 175 75
1039 3 2 0 6 75 175 176 76
1040 3 2 0 6 76 176 177 77
1041 3 2 0 6 77 177 178 78
1042 3 2 0 6 78 178 179 79
1043 3 2 0 6 79 179 180 80
1044 3 2 0 6 80 180 181 81
1045 3 2 0 6 81 181 182 82
1046 3 2 0 6 82 182 183 83
1047 3 2 0 6 83 183 184 84
1048 3 2 0 6 84 184 185 85
1049 3 2 0 6 85 185 4 19
1050 3 2 0 7 19 4 186 86
1051 3 2 0 7 86 186 187 87
1052 3 2 0 7 87 187 188 88
1053 3 2 0 7 88 188 189 89
1054 3 2 0 7 89 189 190 90
1055 3 2 0 7 90 190 191 91
1056 3 2 0 7 91 191 192 92
1057 3 2 0 7 92 192 193 93
1058 3 2 0 7 93 193 194 94
1059 3 2 0 7 94 194 195 95
1060 3 2 0 7 95 195 196 96
1061 3 2 0 7 96 196 197 97
1062 3 2 0 7 97 197 198 98
1063 3 2 0 7 98 198 199 99
1064 3 2 0 7 99 199 200 100
1065 3 2 0 7 100 200 201 101
1066 3 2 0 7 101 201 202 102
1067 3 2 0 7 102 202 203 103
1068 3 2 0 7 103 203 204 104
1069 3 2 0 7 104 204 205 105
1070 3 2 0 7 105 205 206 106
1071 3 2 0 7 106 206 207 107
1072 3 2 0 7 107 207 208 108
1073 3 2 0 7 108 208 209 109
1074 3 2 0 7 109 209 210 110
1075 3 2 0 7 110 210 211 111
1076 3 2 0 7 111 211 212 112
1077 3 2 0 7 112 212 213 113
1078 3 2 0 7 113 213 214 114
1079 3 2 0 7 114 214 5 18
1080 3 2 0 8 18 5 215 115
1081 3 2 0 8 115 215 216 116
1082 3 2 0 8 116 216 217 117
1083 3 2 0 8 117 217 218 118
1084 3 2 0 8 118 218 219 119
1085 3 2 0 8 119 219 220 120
1086 3 2 0 8 120 220 221 121
1087 3 2 0 8 121 221 222 122
1088 3 2 0 8 122 222 223 123
1089 3 2 0 8 123 223 224 124
1090 3 2 0 8 124 224 225 125
1091 3 2 0 8 125 225 226 126
1092 3 2 0 8 126 226 227 127
1093 3 2 0 8 127 227 228 128
1094 3 2 0 8 128 228 229 129
1095 3 2 0 8 129 229 230 130
1096 3 2 0 8 130 230 231 131
1097 3 2 0 8 131 231 232 132
1098 3 2 0 8 132 232 233 133
1099 3 2 0 8 133 233 8 17
1100 3 2 0 9 17 8 234 134
1101 3 2 0 9 134 234 235 135
1102 3 2 0 9 135 235 236 136
1103 3 2 0 9 136 236 237 137
1104 3 2 0 9 137 237 238 138
1105 3 2 0 9 138 238 239 139
1106 3 2 0 9 139 239 240 140
1107 3 2 0 9 140 240 241 141
1108 3 2 0 9 141 241 242 142
1109 3 2 0 9 142 242 243 143
1110 3 2 0 9 143 243 244 144
1111 3 2 0 9 144 244 245 145
1112 3 2 0 9 145 245 246 146
1113 3 2 0 9 146 246 247 147
1114 3 2 0 9 147 247 248 148
1115 3 2 0 9 148 248 9 16
1116 3 2 0 10 2 15 349 249
1117 3 2 0 10 249 349 350 250
1118 3 2 0 10 250 350 351 251
1119 3 2 0 10 251 351 352 252
1120 3 2 0 10 252 352 353 253
1121 3 2 0 10 253 353 354 254
1122 3 2 0 10 254 354 355 255
1123 3 2 0 10 255 355 356 256
1124 3 2 0 10 256 356 357 257
1125 3 2 0 10 257 357 358 258
1126 3 2 0 10 258 358 359 259
1127 3 2 0 10 259 359 360 260
1128 3 2 0 10 260 360 361 261
1129 3 2 0 10 261 361 362 262
1130 3 2 0 10 262 362 363 263
1131 3 2 0 10 263 363 364 264
1132 3 2 0 10 264 364 365 265
1133 3 2 0 10 265 365 366 266
1134 3 2 0 10 266 366 367 267
1135 3 2 0 10 267 367 368 268
1136 3 2 0 10 268 368 369 269
1137 3 2 0 10 269 369 370 270
1138 3 2 0 10 270 370 371 271
1139 3 2 0 10 271 371 372 272
1140 3 2 0 10 272 372 373 273
1141 3 2 0 10 273 373 374 274
1142 3 2 0 10 274 374 375 275
1143 3 2 0 10 275 375 376 276
1144 3 2 0 10 276 376 377 277
1145 3 2 0 10 277 377 378 278
1146 3 2 0 10 278 378 379 279
1147 3 2 0 10 279 379 380 280
1148 3 2 0 10 280 380 381 281
1149 3 2 0 10 281 381 382 282
1150 3 2 0 10 282 382 383 283
1151 3 2 0 10 283 383 384 284
1152 3 2 0 10 284 384 385 285
1153 3 2 0 10 285 385 14 3
1154 3 2 0 11 3 14 386 286
1155 3 2 0 11 286 386 387 287
1156 3 2 0 11 287 387 388 288
1157 3 2 0 11 288 388 389 289
1158 3 2 0 11 289 389 390 290
1159 3 2 0 11 290 390 391 291
1160 3 2 0 11 291 391 392 292
1161 3 2 0 11 292 392 393 293
1162 3 2 0 11 293 393 394 294
1163 3 2 0 11 294 394 395 295
1164 3 2 0 11 295 395 396 296
1165 3 2 0 11 296 396 397 297
1166 3 2 0 11 297 397 398 298
1167 3 2 0 11 298 398 399 299
1168 3 2 0 11 299 399 400 300
1169 3 2 0 11 300 400 401 301
1170 3 2 0 11 301 401 402 302
1171 3 2 0 11 302 402 403 303
1172 3 2 0 11 303 403 404 304
1173 3 2 0 11 304 404 405 305
1174 3 2 0 11 305 405 406 306
1175 3 2 0 11 306 406 407 307
1176 3 2 0 11 307 407 408 308
1177 3 2 0 11 308 408 409 309
1178 3 2 0 11 309 409 410 310
1179 3 2 0 11 310 410 411 311
1180 3 2 0 11 311 411 412 312
1181 3 2 0 11 312 412 413 313
1182 3 2 0 11 313 413 414 314
1183 3 2 0 11 314 414 13 6
1184 3 2 0 12 6 13 415 315
1185 3 2 0 12 315 415 416 316
1186 3 2 0 12 316 416 417 317
1187 3 2 0 12 317 417 418 318
1188 3 2 0 12 318 418 419 319
1189 3 2 0 12 319 419 420 320
1190 3 2 0 12 320 420 421 321
1191 3 2 0 12 321 421 422 322
1192 3 2 0 12 322 422 423 323
1193 3 2 0 12 323 423 424 324
1194 3 2 0 12 324 424 425 325
1195 3 2 0 12 325 425 426 326
1196 3 2 0 12 326 426 427 327
1197 3 2 0 12 327 427 428 328
1198 3 2 0 12 328 428 429 329
1199 3 2 0 12 329 429 430 330
1200 3 2 0 12 330 430 431 331
1201 3 2 0 12 331 431 432 332
1202 3 2 0 12 332 432 433 333
1203 3 2 0 12 333 433 12 7
1204 3 2 0 13 7 12 434 334
1205 3 2 0 13 334 434 435 335
1206 3 2 0 13 335 435 436 336
1207 3 2 0 13 336 436 437 337
1208 3 2 0 13 337 437 438 338
1209 3 2 0 13 338 438 439 339
1210 3 2 0 13 339 439 440 340
1211 3 2 0 13 340 440 441 341
1212 3 2 0 13 341 441 442 342
1213 3 2 0 13 342 442 443 343
1214 3 2 0 13 343 443 444 344
1215 3 2 0 13 344 444 445 345
1216 3 2 0 13 345 445 446 346
1217 3 2 0 13 346 446 447 347
1218 3 2 0 13 347 447 448 348
1219 3 2 0 13 348 448 11 10
1220 3 2 0 14 21 22 1 20
1221 3 2 0 15 23 24 15 2
$EndElements
