<?xml version="1.0"?>
<VTKFile type="UnstructuredGrid" version="1.0" byte_order="LittleEndian" compressor="vtkZLibDataCompressor">
  <UnstructuredGrid>
    <Piece NumberOfPoints="80" NumberOfCells="39">
      <Points>
        <DataArray type="Float64" Name="Points" NumberOfComponents="3" format="ascii">
          0.0000000000e+00 0.0000000000e+00 0.0000000000e+00 
          2.5000000000e-01 0.0000000000e+00 0.0000000000e+00 
          2.5000000000e-01 3.0000000000e+01 0.0000000000e+00 
          0.0000000000e+00 3.0000000000e+01 0.0000000000e+00 
          2.5000000000e-01 7.6923100000e-01 0.0000000000e+00 
          2.5000000000e-01 1.5384620000e+00 0.0000000000e+00 
          2.5000000000e-01 2.3076920000e+00 0.0000000000e+00 
          2.5000000000e-01 3.0769230000e+00 0.0000000000e+00 
          2.5000000000e-01 3.8461540000e+00 0.0000000000e+00 
          2.5000000000e-01 4.6153850000e+00 0.0000000000e+00 
          2.5000000000e-01 5.3846150000e+00 0.0000000000e+00 
          2.5000000000e-01 6.1538460000e+00 0.0000000000e+00 
          2.5000000000e-01 6.9230770000e+00 0.0000000000e+00 
          2.5000000000e-01 7.6923080000e+00 0.0000000000e+00 
          2.5000000000e-01 8.4615380000e+00 0.0000000000e+00 
          2.5000000000e-01 9.2307690000e+00 0.0000000000e+00 
          2.5000000000e-01 1.0000000000e+01 0.0000000000e+00 
          2.5000000000e-01 1.0769231000e+01 0.0000000000e+00 
          2.5000000000e-01 1.1538462000e+01 0.0000000000e+00 
          2.5000000000e-01 1.2307692000e+01 0.0000000000e+00 
          2.5000000000e-01 1.3076923000e+01 0.0000000000e+00 
          2.5000000000e-01 1.3846154000e+01 0.0000000000e+00 
          2.5000000000e-01 1.4615385000e+01 0.0000000000e+00 
          2.5000000000e-01 1.5384615000e+01 0.0000000000e+00 
          2.5000000000e-01 1.6153846000e+01 0.0000000000e+00 
          2.5000000000e-01 1.6923077000e+01 0.0000000000e+00 
          2.5000000000e-01 1.7692308000e+01 0.0000000000e+00 
          2.5000000000e-01 1.8461538000e+01 0.0000000000e+00 
          2.5000000000e-01 1.9230769000e+01 0.0000000000e+00 
          2.5000000000e-01 2.0000000000e+01 0.0000000000e+00 
          2.5000000000e-01 2.0769231000e+01 0.0000000000e+00 
          2.5000000000e-01 2.1538462000e+01 0.0000000000e+00 
          2.5000000000e-01 2.2307692000e+01 0.0000000000e+00 
          2.5000000000e-01 2.3076923000e+01 0.0000000000e+00 
          2.5000000000e-01 2.3846154000e+01 0.0000000000e+00 
          2.5000000000e-01 2.4615385000e+01 0.0000000000e+00 
          2.5000000000e-01 2.5384615000e+01 0.0000000000e+00 
          2.5000000000e-01 2.6153846000e+01 0.0000000000e+00 
          2.5000000000e-01 2.6923077000e+01 0.0000000000e+00 
          2.5000000000e-01 2.7692308000e+01 0.0000000000e+00 
          2.5000000000e-01 2.8461538000e+01 0.0000000000e+00 
          2.5000000000e-01 2.9230769000e+01 0.0000000000e+00 
          0.0000000000e+00 7.6923100000e-01 0.0000000000e+00 
          0.0000000000e+00 1.5384620000e+00 0.0000000000e+00 
          0.0000000000e+00 2.3076920000e+00 0.0000000000e+00 
          0.0000000000e+00 3.0769230000e+00 0.0000000000e+00 
          0.0000000000e+00 3.8461540000e+00 0.0000000000e+00 
          0.0000000000e+00 4.6153850000e+00 0.0000000000e+00 
          0.0000000000e+00 5.3846150000e+00 0.0000000000e+00 
          0.0000000000e+00 6.1538460000e+00 0.0000000000e+00 
          0.0000000000e+00 6.9230770000e+00 0.0000000000e+00 
          0.0000000000e+00 7.6923080000e+00 0.0000000000e+00 
          0.0000000000e+00 8.4615380000e+00 0.0000000000e+00 
          0.0000000000e+00 9.2307690000e+00 0.0000000000e+00 
          0.0000000000e+00 1.0000000000e+01 0.0000000000e+00 
          0.0000000000e+00 1.0769231000e+01 0.0000000000e+00 
          0.0000000000e+00 1.1538462000e+01 0.0000000000e+00 
          0.0000000000e+00 1.2307692000e+01 0.0000000000e+00 
          0.0000000000e+00 1.3076923000e+01 0.0000000000e+00 
          0.0000000000e+00 1.3846154000e+01 0.0000000000e+00 
          0.0000000000e+00 1.4615385000e+01 0.0000000000e+00 
          0.0000000000e+00 1.5384615000e+01 0.0000000000e+00 
          0.0000000000e+00 1.6153846000e+01 0.0000000000e+00 
          0.0000000000e+00 1.6923077000e+01 0.0000000000e+00 
          0.0000000000e+00 1.7692308000e+01 0.0000000000e+00 
          0.0000000000e+00 1.8461538000e+01 0.0000000000e+00 
          0.0000000000e+00 1.9230769000e+01 0.0000000000e+00 
          0.0000000000e+00 2.0000000000e+01 0.0000000000e+00 
          0.0000000000e+00 2.0769231000e+01 0.0000000000e+00 
          0.0000000000e+00 2.1538462000e+01 0.0000000000e+00 
          0.0000000000e+00 2.2307692000e+01 0.0000000000e+00 
          0.0000000000e+00 2.3076923000e+01 0.0000000000e+00 
          0.0000000000e+00 2.3846154000e+01 0.0000000000e+00 
          0.0000000000e+00 2.4615385000e+01 0.0000000000e+00 
          0.0000000000e+00 2.5384615000e+01 0.0000000000e+00 
          0.0000000000e+00 2.6153846000e+01 0.0000000000e+00 
          0.0000000000e+00 2.6923077000e+01 0.0000000000e+00 
          0.0000000000e+00 2.7692308000e+01 0.0000000000e+00 
          0.0000000000e+00 2.8461538000e+01 0.0000000000e+00 
          0.0000000000e+00 2.9230769000e+01 0.0000000000e+00 
        </DataArray>
      </Points>
      <Cells>
        <DataArray type="Int64" Name="connectivity" format="ascii">
          0 1 4 42 
          42 4 5 43 
          43 5 6 44 
          44 6 7 45 
          45 7 8 46 
          46 8 9 47 
          47 9 10 48 
          48 10 11 49 
          49 11 12 50 
          50 12 13 51 
          51 13 14 52 
          52 14 15 53 
          53 15 16 54 
          54 16 17 55 
          55 17 18 56 
          56 18 19 57 
          57 19 20 58 
          58 20 21 59 
          59 21 22 60 
          60 22 23 61 
          61 23 24 62 
          62 24 25 63 
          63 25 26 64 
          64 26 27 65 
          65 27 28 66 
          66 28 29 67 
          67 29 30 68 
          68 30 31 69 
          69 31 32 70 
          70 32 33 71 
          71 33 34 72 
          72 34 35 73 
          73 35 36 74 
          74 36 37 75 
          75 37 38 76 
          76 38 39 77 
          77 39 40 78 
          78 40 41 79 
          79 41 2 3 
        </DataArray>
        <DataArray type="Int64" Name="offsets" format="ascii">
          4
          8
          12
          16
          20
          24
          28
          32
          36
          40
          44
          48
          52
          56
          60
          64
          68
          72
          76
          80
          84
          88
          92
          96
          100
          104
          108
          112
          116
          120
          124
          128
          132
          136
          140
          144
          148
          152
          156
        </DataArray>
        <DataArray type="Int64" Name="types" format="ascii">
          9
          9
          9
          9
          9
          9
          9
          9
          9
          9
          9
          9
          9
          9
          9
          9
          9
          9
          9
          9
          9
          9
          9
          9
          9
          9
          9
          9
          9
          9
          9
          9
          9
          9
          9
          9
          9
          9
          9
        </DataArray>
      </Cells>
      <PointData>
        <DataArray type="Int64" Name="NodeTag" format="ascii">
          1
          2
          3
          4
          7
          8
          9
          10
          11
          12
          13
          14
          15
          16
          17
          18
          19
          20
          21
          22
          23
          24
          25
          26
          27
          28
          29
          30
          31
          32
          33
          34
          35
          36
          37
          38
          39
          40
          41
          42
          43
          44
          45
          46
          47
          48
          49
          50
          51
          52
          53
          54
          55
          56
          57
          58
          59
          60
          61
          62
          63
          64
          65
          66
          67
          68
          69
          70
          71
          72
          73
          74
          75
          76
          77
          78
          79
          80
          81
          82
        </DataArray>
        <DataArray type="Float64" Name="Velocity" NumberOfComponents="3" format="ascii">
          1.4019118934e-18 -8.8167325332e-05 0.0000000000e+00 
          1.4019118934e-18 -8.8167325332e-05 0.0000000000e+00 
          -3.2641474020e-19 -4.3464107165e-05 0.0000000000e+00 
          -3.2641474020e-19 -4.3464107165e-05 0.0000000000e+00 
          -4.5910910345e-19 -8.6878292053e-05 0.0000000000e+00 
          1.4692793224e-18 -8.5213620624e-05 0.0000000000e+00 
          1.6871517015e-18 -8.2310764859e-05 0.0000000000e+00 
          4.1289317467e-18 -7.9489828984e-05 0.0000000000e+00 
          -1.0193378306e-17 -7.6825557891e-05 0.0000000000e+00 
          7.6874267120e-18 -7.3750664242e-05 0.0000000000e+00 
          -2.1460510864e-18 -7.0380536559e-05 0.0000000000e+00 
          -3.7946125392e-18 -6.6769186860e-05 0.0000000000e+00 
          1.3021117032e-18 -6.3615973606e-05 0.0000000000e+00 
          -7.1344500336e-18 -6.1466675887e-05 0.0000000000e+00 
          1.6964216990e-17 -5.9315275083e-05 0.0000000000e+00 
          -1.1753296432e-17 -5.6660084697e-05 0.0000000000e+00 
          3.0785755829e-18 -5.4181868094e-05 0.0000000000e+00 
          -1.0761991942e-17 -5.1644206100e-05 0.0000000000e+00 
          9.1543487109e-18 -4.9499792546e-05 0.0000000000e+00 
          -1.1121749152e-17 -4.8262834545e-05 0.0000000000e+00 
          6.1326526488e-18 -4.7194549985e-05 0.0000000000e+00 
          1.4935425898e-18 -4.5929591145e-05 0.0000000000e+00 
          4.6424419361e-18 -4.5474720778e-05 0.0000000000e+00 
          3.7196715847e-18 -4.5718953908e-05 0.0000000000e+00 
          3.7791506935e-18 -4.5566926182e-05 0.0000000000e+00 
          -3.4948029460e-18 -4.4822487788e-05 0.0000000000e+00 
          4.7884515892e-18 -4.4607525385e-05 0.0000000000e+00 
          1.9589692455e-18 -4.4524962718e-05 0.0000000000e+00 
          -8.6023309545e-18 -4.3675125631e-05 0.0000000000e+00 
          4.0158868710e-18 -4.3616070858e-05 0.0000000000e+00 
          -1.0073242253e-17 -4.3811061051e-05 0.0000000000e+00 
          1.5147049152e-17 -4.4642569685e-05 0.0000000000e+00 
          -4.2158802358e-18 -4.5031680166e-05 0.0000000000e+00 
          -2.1428267034e-18 -4.4280222188e-05 0.0000000000e+00 
          1.8664290105e-18 -4.3833745055e-05 0.0000000000e+00 
          -7.7188602200e-19 -4.3528470288e-05 0.0000000000e+00 
          -3.3067972159e-18 -4.3654585090e-05 0.0000000000e+00 
          -3.1712188568e-18 -4.4199386815e-05 0.0000000000e+00 
          3.3544280385e-18 -4.4347007466e-05 0.0000000000e+00 
          1.7945555099e-18 -4.4633296242e-05 0.0000000000e+00 
          -1.5863595851e-18 -4.4477417589e-05 0.0000000000e+00 
          -1.1019794834e-18 -4.3681056764e-05 0.0000000000e+00 
          -4.5910910345e-19 -8.6878292053e-05 0.0000000000e+00 
          1.4692793224e-18 -8.5213620624e-05 0.0000000000e+00 
          1.6871517015e-18 -8.2310764859e-05 0.0000000000e+00 
          4.1289317467e-18 -7.9489828984e-05 0.0000000000e+00 
          -1.0193378306e-17 -7.6825557891e-05 0.0000000000e+00 
          7.6874267120e-18 -7.3750664242e-05 0.0000000000e+00 
          -2.1460510864e-18 -7.0380536559e-05 0.0000000000e+00 
          -3.7946125392e-18 -6.6769186860e-05 0.0000000000e+00 
          1.3021117032e-18 -6.3615973606e-05 0.0000000000e+00 
          -7.1344500336e-18 -6.1466675887e-05 0.0000000000e+00 
          1.6964216990e-17 -5.9315275083e-05 0.0000000000e+00 
          -1.1753296432e-17 -5.6660084697e-05 0.0000000000e+00 
          3.0785755829e-18 -5.4181868094e-05 0.0000000000e+00 
          -1.0761991942e-17 -5.1644206100e-05 0.0000000000e+00 
          9.1543487109e-18 -4.9499792546e-05 0.0000000000e+00 
          -1.1121749152e-17 -4.8262834545e-05 0.0000000000e+00 
          6.1326526488e-18 -4.7194549985e-05 0.0000000000e+00 
          1.4935425898e-18 -4.5929591145e-05 0.0000000000e+00 
          4.6424419361e-18 -4.5474720778e-05 0.0000000000e+00 
          3.7196715847e-18 -4.5718953908e-05 0.0000000000e+00 
          3.7791506935e-18 -4.5566926182e-05 0.0000000000e+00 
          -3.4948029460e-18 -4.4822487788e-05 0.0000000000e+00 
          4.7884515892e-18 -4.4607525385e-05 0.0000000000e+00 
          1.9589692455e-18 -4.4524962718e-05 0.0000000000e+00 
          -8.6023309545e-18 -4.3675125631e-05 0.0000000000e+00 
          4.0158868710e-18 -4.3616070858e-05 0.0000000000e+00 
          -1.0073242253e-17 -4.3811061051e-05 0.0000000000e+00 
          1.5147049152e-17 -4.4642569685e-05 0.0000000000e+00 
          -4.2158802358e-18 -4.5031680166e-05 0.0000000000e+00 
          -2.1428267034e-18 -4.4280222188e-05 0.0000000000e+00 
          1.8664290105e-18 -4.3833745055e-05 0.0000000000e+00 
          -7.7188602200e-19 -4.3528470288e-05 0.0000000000e+00 
          -3.3067972159e-18 -4.3654585090e-05 0.0000000000e+00 
          -3.1712188568e-18 -4.4199386815e-05 0.0000000000e+00 
          3.3544280385e-18 -4.4347007466e-05 0.0000000000e+00 
          1.7945555099e-18 -4.4633296242e-05 0.0000000000e+00 
          -1.5863595851e-18 -4.4477417589e-05 0.0000000000e+00 
          -1.1019794834e-18 -4.3681056764e-05 0.0000000000e+00 
        </DataArray>
        <DataArray type="Float64" Name="Displacement" NumberOfComponents="3" format="ascii">
          1.7460816141e-20 -7.4014664524e-05 0.0000000000e+00 
          1.7460816141e-20 -7.4014664524e-05 0.0000000000e+00 
          1.1327560700e-21 -1.0179467981e-04 0.0000000000e+00 
          1.1327560700e-21 -1.0179467981e-04 0.0000000000e+00 
          2.9900065646e-20 -7.5368540089e-05 0.0000000000e+00 
          3.5052594394e-20 -7.6689946077e-05 0.0000000000e+00 
          4.6264795672e-20 -7.7978201707e-05 0.0000000000e+00 
          5.5235989954e-20 -7.9234364301e-05 0.0000000000e+00 
          6.4001029226e-20 -8.0456724355e-05 0.0000000000e+00 
          1.2943831928e-20 -8.1645923938e-05 0.0000000000e+00 
          -1.5311983053e-20 -8.2804290232e-05 0.0000000000e+00 
          -6.6976716905e-22 -8.3931939400e-05 0.0000000000e+00 
          -1.1224386425e-20 -8.5028612832e-05 0.0000000000e+00 
          5.0952548962e-20 -8.6096385529e-05 0.0000000000e+00 
          2.3429534570e-20 -8.7135626313e-05 0.0000000000e+00 
          6.0304242283e-20 -8.8143142620e-05 0.0000000000e+00 
          5.8035543861e-20 -8.9119086056e-05 0.0000000000e+00 
          5.2506883097e-20 -9.0062274630e-05 0.0000000000e+00 
          -2.1453822448e-21 -9.0972063506e-05 0.0000000000e+00 
          4.9898928655e-20 -9.1846997698e-05 0.0000000000e+00 
          2.0729751645e-20 -9.2684987742e-05 0.0000000000e+00 
          3.3592150725e-20 -9.3487994134e-05 0.0000000000e+00 
          6.1293846320e-21 -9.4256088071e-05 0.0000000000e+00 
          5.9891566439e-21 -9.4988936675e-05 0.0000000000e+00 
          2.6030768384e-20 -9.5686540452e-05 0.0000000000e+00 
          1.9147137162e-20 -9.6346440156e-05 0.0000000000e+00 
          2.9617691646e-20 -9.6967411341e-05 0.0000000000e+00 
          8.5446701458e-21 -9.7550748845e-05 0.0000000000e+00 
          2.3400705419e-20 -9.8096885914e-05 0.0000000000e+00 
          2.5476828226e-20 -9.8605371799e-05 0.0000000000e+00 
          -2.8884339020e-20 -9.9076960595e-05 0.0000000000e+00 
          -1.2405076926e-20 -9.9510863406e-05 0.0000000000e+00 
          4.1745598061e-21 -9.9906920471e-05 0.0000000000e+00 
          -7.9489360869e-21 -1.0026605673e-04 0.0000000000e+00 
          -3.7053445442e-21 -1.0058752331e-04 0.0000000000e+00 
          9.6980371883e-21 -1.0086974227e-04 0.0000000000e+00 
          -5.3780099022e-21 -1.0111431549e-04 0.0000000000e+00 
          -2.6619091748e-20 -1.0132226206e-04 0.0000000000e+00 
          -2.0088834115e-20 -1.0149184206e-04 0.0000000000e+00 
          -2.0842836741e-20 -1.0162308022e-04 0.0000000000e+00 
          -6.9998494298e-22 -1.0171789180e-04 0.0000000000e+00 
          1.2035812340e-20 -1.0177567778e-04 0.0000000000e+00 
          2.9900065646e-20 -7.5368540089e-05 0.0000000000e+00 
          3.5052594394e-20 -7.6689946077e-05 0.0000000000e+00 
          4.6264795672e-20 -7.7978201707e-05 0.0000000000e+00 
          5.5235989954e-20 -7.9234364301e-05 0.0000000000e+00 
          6.4001029226e-20 -8.0456724355e-05 0.0000000000e+00 
          1.2943831928e-20 -8.1645923938e-05 0.0000000000e+00 
          -1.5311983053e-20 -8.2804290232e-05 0.0000000000e+00 
          -6.6976716905e-22 -8.3931939400e-05 0.0000000000e+00 
          -1.1224386425e-20 -8.5028612832e-05 0.0000000000e+00 
          5.0952548962e-20 -8.6096385529e-05 0.0000000000e+00 
          2.3429534570e-20 -8.7135626313e-05 0.0000000000e+00 
          6.0304242283e-20 -8.8143142620e-05 0.0000000000e+00 
          5.8035543861e-20 -8.9119086056e-05 0.0000000000e+00 
          5.2506883097e-20 -9.0062274630e-05 0.0000000000e+00 
          -2.1453822448e-21 -9.0972063506e-05 0.0000000000e+00 
          4.9898928655e-20 -9.1846997698e-05 0.0000000000e+00 
          2.0729751645e-20 -9.2684987742e-05 0.0000000000e+00 
          3.3592150725e-20 -9.3487994134e-05 0.0000000000e+00 
          6.1293846320e-21 -9.4256088071e-05 0.0000000000e+00 
          5.9891566439e-21 -9.4988936675e-05 0.0000000000e+00 
          2.6030768384e-20 -9.5686540452e-05 0.0000000000e+00 
          1.9147137162e-20 -9.6346440156e-05 0.0000000000e+00 
          2.9617691646e-20 -9.6967411341e-05 0.0000000000e+00 
          8.5446701458e-21 -9.7550748845e-05 0.0000000000e+00 
          2.3400705419e-20 -9.8096885914e-05 0.0000000000e+00 
          2.5476828226e-20 -9.8605371799e-05 0.0000000000e+00 
          -2.8884339020e-20 -9.9076960595e-05 0.0000000000e+00 
          -1.2405076926e-20 -9.9510863406e-05 0.0000000000e+00 
          4.1745598061e-21 -9.9906920471e-05 0.0000000000e+00 
          -7.9489360869e-21 -1.0026605673e-04 0.0000000000e+00 
          -3.7053445442e-21 -1.0058752331e-04 0.0000000000e+00 
          9.6980371883e-21 -1.0086974227e-04 0.0000000000e+00 
          -5.3780099022e-21 -1.0111431549e-04 0.0000000000e+00 
          -2.6619091748e-20 -1.0132226206e-04 0.0000000000e+00 
          -2.0088834115e-20 -1.0149184206e-04 0.0000000000e+00 
          -2.0842836741e-20 -1.0162308022e-04 0.0000000000e+00 
          -6.9998494298e-22 -1.0171789180e-04 0.0000000000e+00 
          1.2035812340e-20 -1.0177567778e-04 0.0000000000e+00 
        </DataArray>
        <DataArray type="Float64" Name="Acceleration" NumberOfComponents="3" format="ascii">
          2.1826154454e-16 8.1003151476e-05 0.0000000000e+00 
          2.1826154454e-16 8.1003151476e-05 0.0000000000e+00 
          -1.1503814053e-16 1.2610172889e-03 0.0000000000e+00 
          -1.1503814053e-16 1.2610172889e-03 0.0000000000e+00 
          -1.6004884091e-16 2.6368188205e-04 0.0000000000e+00 
          3.9163519332e-16 3.8606284417e-04 0.0000000000e+00 
          -3.2909417257e-16 1.9613330622e-04 0.0000000000e+00 
          -8.3160755865e-16 5.0388666457e-04 0.0000000000e+00 
          -2.2963321512e-15 3.8818345100e-04 0.0000000000e+00 
          1.1609227053e-15 -3.1451556287e-05 0.0000000000e+00 
          1.2136634034e-15 -5.1842227796e-05 0.0000000000e+00 
          -1.6266054670e-16 -5.5142728952e-06 0.0000000000e+00 
          4.2682364406e-15 -3.7943773083e-04 0.0000000000e+00 
          -5.7563299305e-15 -4.4614112475e-04 0.0000000000e+00 
          4.2933996198e-15 1.2965882932e-04 0.0000000000e+00 
          -1.8638509330e-15 1.0209167607e-04 0.0000000000e+00 
          -8.4453533133e-16 3.1509105397e-04 0.0000000000e+00 
          -2.7511595853e-15 4.3129311156e-04 0.0000000000e+00 
          5.9134838991e-15 6.9328659387e-04 0.0000000000e+00 
          -5.2821358278e-15 1.0702262002e-03 0.0000000000e+00 
          5.5817852822e-15 7.1672789106e-04 0.0000000000e+00 
          -7.0859297188e-15 7.0389777433e-04 0.0000000000e+00 
          3.7444696576e-15 7.6371642967e-04 0.0000000000e+00 
          1.0474295965e-15 7.6396840148e-04 0.0000000000e+00 
          -1.7134053717e-15 1.2069585387e-03 0.0000000000e+00 
          1.5018923436e-15 1.4276083402e-03 0.0000000000e+00 
          -2.7262243794e-15 1.1941414253e-03 0.0000000000e+00 
          4.7119387849e-15 1.1163418652e-03 0.0000000000e+00 
          -4.7652418753e-15 1.1974277974e-03 0.0000000000e+00 
          2.1703006262e-16 1.0615368116e-03 0.0000000000e+00 
          2.5510068542e-15 1.2036987880e-03 0.0000000000e+00 
          2.6508807558e-17 1.2324003060e-03 0.0000000000e+00 
          -7.4150033338e-16 1.0659077868e-03 0.0000000000e+00 
          2.8226747374e-16 1.2007600985e-03 0.0000000000e+00 
          -9.7190341509e-17 1.4851121520e-03 0.0000000000e+00 
          -4.9241234002e-16 1.1963941981e-03 0.0000000000e+00 
          -7.7855348637e-16 1.0128642629e-03 0.0000000000e+00 
          2.5681679516e-15 1.3263428422e-03 0.0000000000e+00 
          -7.9011189496e-16 1.3218859408e-03 0.0000000000e+00 
          9.1348881891e-16 9.7673117851e-04 0.0000000000e+00 
          -1.2161191191e-15 1.0847229242e-03 0.0000000000e+00 
          -4.0913122727e-16 1.4015556812e-03 0.0000000000e+00 
          -1.6004884091e-16 2.6368188205e-04 0.0000000000e+00 
          3.9163519332e-16 3.8606284417e-04 0.0000000000e+00 
          -3.2909417257e-16 1.9613330622e-04 0.0000000000e+00 
          -8.3160755865e-16 5.0388666457e-04 0.0000000000e+00 
          -2.2963321512e-15 3.8818345100e-04 0.0000000000e+00 
          1.1609227053e-15 -3.1451556287e-05 0.0000000000e+00 
          1.2136634034e-15 -5.1842227796e-05 0.0000000000e+00 
          -1.6266054670e-16 -5.5142728952e-06 0.0000000000e+00 
          4.2682364406e-15 -3.7943773083e-04 0.0000000000e+00 
          -5.7563299305e-15 -4.4614112475e-04 0.0000000000e+00 
          4.2933996198e-15 1.2965882932e-04 0.0000000000e+00 
          -1.8638509330e-15 1.0209167607e-04 0.0000000000e+00 
          -8.4453533133e-16 3.1509105397e-04 0.0000000000e+00 
          -2.7511595853e-15 4.3129311156e-04 0.0000000000e+00 
          5.9134838991e-15 6.9328659387e-04 0.0000000000e+00 
          -5.2821358278e-15 1.0702262002e-03 0.0000000000e+00 
          5.5817852822e-15 7.1672789106e-04 0.0000000000e+00 
          -7.0859297188e-15 7.0389777433e-04 0.0000000000e+00 
          3.7444696576e-15 7.6371642967e-04 0.0000000000e+00 
          1.0474295965e-15 7.6396840148e-04 0.0000000000e+00 
          -1.7134053717e-15 1.2069585387e-03 0.0000000000e+00 
          1.5018923436e-15 1.4276083402e-03 0.0000000000e+00 
          -2.7262243794e-15 1.1941414253e-03 0.0000000000e+00 
          4.7119387849e-15 1.1163418652e-03 0.0000000000e+00 
          -4.7652418753e-15 1.1974277974e-03 0.0000000000e+00 
          2.1703006262e-16 1.0615368116e-03 0.0000000000e+00 
          2.5510068542e-15 1.2036987880e-03 0.0000000000e+00 
          2.6508807558e-17 1.2324003060e-03 0.0000000000e+00 
          -7.4150033338e-16 1.0659077868e-03 0.0000000000e+00 
          2.8226747374e-16 1.2007600985e-03 0.0000000000e+00 
          -9.7190341509e-17 1.4851121520e-03 0.0000000000e+00 
          -4.9241234002e-16 1.1963941981e-03 0.0000000000e+00 
          -7.7855348637e-16 1.0128642629e-03 0.0000000000e+00 
          2.5681679516e-15 1.3263428422e-03 0.0000000000e+00 
          -7.9011189496e-16 1.3218859408e-03 0.0000000000e+00 
          9.1348881891e-16 9.7673117851e-04 0.0000000000e+00 
          -1.2161191191e-15 1.0847229242e-03 0.0000000000e+00 
          -4.0913122727e-16 1.4015556812e-03 0.0000000000e+00 
        </DataArray>
        <DataArray type="Float64" Name="Reaction" NumberOfComponents="3" format="ascii">
          0.0000000000e+00 0.0000000000e+00 0.0000000000e+00 
          0.0000000000e+00 0.0000000000e+00 0.0000000000e+00 
          0.0000000000e+00 0.0000000000e+00 0.0000000000e+00 
          0.0000000000e+00 0.0000000000e+00 0.0000000000e+00 
          0.0000000000e+00 0.0000000000e+00 0.0000000000e+00 
          0.0000000000e+00 0.0000000000e+00 0.0000000000e+00 
          0.0000000000e+00 0.0000000000e+00 0.0000000000e+00 
          0.0000000000e+00 0.0000000000e+00 0.0000000000e+00 
          0.0000000000e+00 0.0000000000e+00 0.0000000000e+00 
          0.0000000000e+00 0.0000000000e+00 0.0000000000e+00 
          0.0000000000e+00 0.0000000000e+00 0.0000000000e+00 
          0.0000000000e+00 0.0000000000e+00 0.0000000000e+00 
          0.0000000000e+00 0.0000000000e+00 0.0000000000e+00 
          0.0000000000e+00 0.0000000000e+00 0.0000000000e+00 
          0.0000000000e+00 0.0000000000e+00 0.0000000000e+00 
          0.0000000000e+00 0.0000000000e+00 0.0000000000e+00 
          0.0000000000e+00 0.0000000000e+00 0.0000000000e+00 
          0.0000000000e+00 0.0000000000e+00 0.0000000000e+00 
          0.0000000000e+00 0.0000000000e+00 0.0000000000e+00 
          0.0000000000e+00 0.0000000000e+00 0.0000000000e+00 
          0.0000000000e+00 0.0000000000e+00 0.0000000000e+00 
          0.0000000000e+00 0.0000000000e+00 0.0000000000e+00 
          0.0000000000e+00 0.0000000000e+00 0.0000000000e+00 
          0.0000000000e+00 0.0000000000e+00 0.0000000000e+00 
          0.0000000000e+00 0.0000000000e+00 0.0000000000e+00 
          0.0000000000e+00 0.0000000000e+00 0.0000000000e+00 
          0.0000000000e+00 0.0000000000e+00 0.0000000000e+00 
          0.0000000000e+00 0.0000000000e+00 0.0000000000e+00 
          0.0000000000e+00 0.0000000000e+00 0.0000000000e+00 
          0.0000000000e+00 0.0000000000e+00 0.0000000000e+00 
          0.0000000000e+00 0.0000000000e+00 0.0000000000e+00 
          0.0000000000e+00 0.0000000000e+00 0.0000000000e+00 
          0.0000000000e+00 0.0000000000e+00 0.0000000000e+00 
          0.0000000000e+00 0.0000000000e+00 0.0000000000e+00 
          0.0000000000e+00 0.0000000000e+00 0.0000000000e+00 
          0.0000000000e+00 0.0000000000e+00 0.0000000000e+00 
          0.0000000000e+00 0.0000000000e+00 0.0000000000e+00 
          0.0000000000e+00 0.0000000000e+00 0.0000000000e+00 
          0.0000000000e+00 0.0000000000e+00 0.0000000000e+00 
          0.0000000000e+00 0.0000000000e+00 0.0000000000e+00 
          0.0000000000e+00 0.0000000000e+00 0.0000000000e+00 
          0.0000000000e+00 0.0000000000e+00 0.0000000000e+00 
          0.0000000000e+00 0.0000000000e+00 0.0000000000e+00 
          0.0000000000e+00 0.0000000000e+00 0.0000000000e+00 
          0.0000000000e+00 0.0000000000e+00 0.0000000000e+00 
          0.0000000000e+00 0.0000000000e+00 0.0000000000e+00 
          0.0000000000e+00 0.0000000000e+00 0.0000000000e+00 
          0.0000000000e+00 0.0000000000e+00 0.0000000000e+00 
          0.0000000000e+00 0.0000000000e+00 0.0000000000e+00 
          0.0000000000e+00 0.0000000000e+00 0.0000000000e+00 
          0.0000000000e+00 0.0000000000e+00 0.0000000000e+00 
          0.0000000000e+00 0.0000000000e+00 0.0000000000e+00 
          0.0000000000e+00 0.0000000000e+00 0.0000000000e+00 
          0.0000000000e+00 0.0000000000e+00 0.0000000000e+00 
          0.0000000000e+00 0.0000000000e+00 0.0000000000e+00 
          0.0000000000e+00 0.0000000000e+00 0.0000000000e+00 
          0.0000000000e+00 0.0000000000e+00 0.0000000000e+00 
          0.0000000000e+00 0.0000000000e+00 0.0000000000e+00 
          0.0000000000e+00 0.0000000000e+00 0.0000000000e+00 
          0.0000000000e+00 0.0000000000e+00 0.0000000000e+00 
          0.0000000000e+00 0.0000000000e+00 0.0000000000e+00 
          0.0000000000e+00 0.0000000000e+00 0.0000000000e+00 
          0.0000000000e+00 0.0000000000e+00 0.0000000000e+00 
          0.0000000000e+00 0.0000000000e+00 0.0000000000e+00 
          0.0000000000e+00 0.0000000000e+00 0.0000000000e+00 
          0.0000000000e+00 0.0000000000e+00 0.0000000000e+00 
          0.0000000000e+00 0.0000000000e+00 0.0000000000e+00 
          0.0000000000e+00 0.0000000000e+00 0.0000000000e+00 
          0.0000000000e+00 0.0000000000e+00 0.0000000000e+00 
          0.0000000000e+00 0.0000000000e+00 0.0000000000e+00 
          0.0000000000e+00 0.0000000000e+00 0.0000000000e+00 
          0.0000000000e+00 0.0000000000e+00 0.0000000000e+00 
          0.0000000000e+00 0.0000000000e+00 0.0000000000e+00 
          0.0000000000e+00 0.0000000000e+00 0.0000000000e+00 
          0.0000000000e+00 0.0000000000e+00 0.0000000000e+00 
          0.0000000000e+00 0.0000000000e+00 0.0000000000e+00 
          0.0000000000e+00 0.0000000000e+00 0.0000000000e+00 
          0.0000000000e+00 0.0000000000e+00 0.0000000000e+00 
          0.0000000000e+00 0.0000000000e+00 0.0000000000e+00 
          0.0000000000e+00 0.0000000000e+00 0.0000000000e+00 
        </DataArray>
      </PointData>
      <CellData>
        <DataArray type="Int64" Name="ElementTag" format="ascii">
          90
          91
          92
          93
          94
          95
          96
          97
          98
          99
          100
          101
          102
          103
          104
          105
          106
          107
          108
          109
          110
          111
          112
          113
          114
          115
          116
          117
          118
          119
          120
          121
          122
          123
          124
          125
          126
          127
          128
        </DataArray>
      </CellData>
    </Piece>
  </UnstructuredGrid>
</VTKFile>
