<?xml version="1.0"?>
<VTKFile type="UnstructuredGrid" version="1.0" byte_order="LittleEndian" compressor="vtkZLibDataCompressor">
  <UnstructuredGrid>
    <Piece NumberOfPoints="82" NumberOfCells="1">
      <Points>
        <DataArray type="Float64" Name="Points" NumberOfComponents="3" format="ascii">
          0.0000000000e+00 0.0000000000e+00 0.0000000000e+00 
          2.5000000000e-01 0.0000000000e+00 0.0000000000e+00 
          2.5000000000e-01 3.0000000000e+01 0.0000000000e+00 
          0.0000000000e+00 3.0000000000e+01 0.0000000000e+00 
          0.0000000000e+00 -5.0000000000e+00 0.0000000000e+00 
          2.5000000000e-01 -5.0000000000e+00 0.0000000000e+00 
          2.5000000000e-01 7.6923100000e-01 0.0000000000e+00 
          2.5000000000e-01 1.5384620000e+00 0.0000000000e+00 
          2.5000000000e-01 2.3076920000e+00 0.0000000000e+00 
          2.5000000000e-01 3.0769230000e+00 0.0000000000e+00 
          2.5000000000e-01 3.8461540000e+00 0.0000000000e+00 
          2.5000000000e-01 4.6153850000e+00 0.0000000000e+00 
          2.5000000000e-01 5.3846150000e+00 0.0000000000e+00 
          2.5000000000e-01 6.1538460000e+00 0.0000000000e+00 
          2.5000000000e-01 6.9230770000e+00 0.0000000000e+00 
          2.5000000000e-01 7.6923080000e+00 0.0000000000e+00 
          2.5000000000e-01 8.4615380000e+00 0.0000000000e+00 
          2.5000000000e-01 9.2307690000e+00 0.0000000000e+00 
          2.5000000000e-01 1.0000000000e+01 0.0000000000e+00 
          2.5000000000e-01 1.0769231000e+01 0.0000000000e+00 
          2.5000000000e-01 1.1538462000e+01 0.0000000000e+00 
          2.5000000000e-01 1.2307692000e+01 0.0000000000e+00 
          2.5000000000e-01 1.3076923000e+01 0.0000000000e+00 
          2.5000000000e-01 1.3846154000e+01 0.0000000000e+00 
          2.5000000000e-01 1.4615385000e+01 0.0000000000e+00 
          2.5000000000e-01 1.5384615000e+01 0.0000000000e+00 
          2.5000000000e-01 1.6153846000e+01 0.0000000000e+00 
          2.5000000000e-01 1.6923077000e+01 0.0000000000e+00 
          2.5000000000e-01 1.7692308000e+01 0.0000000000e+00 
          2.5000000000e-01 1.8461538000e+01 0.0000000000e+00 
          2.5000000000e-01 1.9230769000e+01 0.0000000000e+00 
          2.5000000000e-01 2.0000000000e+01 0.0000000000e+00 
          2.5000000000e-01 2.0769231000e+01 0.0000000000e+00 
          2.5000000000e-01 2.1538462000e+01 0.0000000000e+00 
          2.5000000000e-01 2.2307692000e+01 0.0000000000e+00 
          2.5000000000e-01 2.3076923000e+01 0.0000000000e+00 
          2.5000000000e-01 2.3846154000e+01 0.0000000000e+00 
          2.5000000000e-01 2.4615385000e+01 0.0000000000e+00 
          2.5000000000e-01 2.5384615000e+01 0.0000000000e+00 
          2.5000000000e-01 2.6153846000e+01 0.0000000000e+00 
          2.5000000000e-01 2.6923077000e+01 0.0000000000e+00 
          2.5000000000e-01 2.7692308000e+01 0.0000000000e+00 
          2.5000000000e-01 2.8461538000e+01 0.0000000000e+00 
          2.5000000000e-01 2.9230769000e+01 0.0000000000e+00 
          0.0000000000e+00 7.6923100000e-01 0.0000000000e+00 
          0.0000000000e+00 1.5384620000e+00 0.0000000000e+00 
          0.0000000000e+00 2.3076920000e+00 0.0000000000e+00 
          0.0000000000e+00 3.0769230000e+00 0.0000000000e+00 
          0.0000000000e+00 3.8461540000e+00 0.0000000000e+00 
          0.0000000000e+00 4.6153850000e+00 0.0000000000e+00 
          0.0000000000e+00 5.3846150000e+00 0.0000000000e+00 
          0.0000000000e+00 6.1538460000e+00 0.0000000000e+00 
          0.0000000000e+00 6.9230770000e+00 0.0000000000e+00 
          0.0000000000e+00 7.6923080000e+00 0.0000000000e+00 
          0.0000000000e+00 8.4615380000e+00 0.0000000000e+00 
          0.0000000000e+00 9.2307690000e+00 0.0000000000e+00 
          0.0000000000e+00 1.0000000000e+01 0.0000000000e+00 
          0.0000000000e+00 1.0769231000e+01 0.0000000000e+00 
          0.0000000000e+00 1.1538462000e+01 0.0000000000e+00 
          0.0000000000e+00 1.2307692000e+01 0.0000000000e+00 
          0.0000000000e+00 1.3076923000e+01 0.0000000000e+00 
          0.0000000000e+00 1.3846154000e+01 0.0000000000e+00 
          0.0000000000e+00 1.4615385000e+01 0.0000000000e+00 
          0.0000000000e+00 1.5384615000e+01 0.0000000000e+00 
          0.0000000000e+00 1.6153846000e+01 0.0000000000e+00 
          0.0000000000e+00 1.6923077000e+01 0.0000000000e+00 
          0.0000000000e+00 1.7692308000e+01 0.0000000000e+00 
          0.0000000000e+00 1.8461538000e+01 0.0000000000e+00 
          0.0000000000e+00 1.9230769000e+01 0.0000000000e+00 
          0.0000000000e+00 2.0000000000e+01 0.0000000000e+00 
          0.0000000000e+00 2.0769231000e+01 0.0000000000e+00 
          0.0000000000e+00 2.1538462000e+01 0.0000000000e+00 
          0.0000000000e+00 2.2307692000e+01 0.0000000000e+00 
          0.0000000000e+00 2.3076923000e+01 0.0000000000e+00 
          0.0000000000e+00 2.3846154000e+01 0.0000000000e+00 
          0.0000000000e+00 2.4615385000e+01 0.0000000000e+00 
          0.0000000000e+00 2.5384615000e+01 0.0000000000e+00 
          0.0000000000e+00 2.6153846000e+01 0.0000000000e+00 
          0.0000000000e+00 2.6923077000e+01 0.0000000000e+00 
          0.0000000000e+00 2.7692308000e+01 0.0000000000e+00 
          0.0000000000e+00 2.8461538000e+01 0.0000000000e+00 
          0.0000000000e+00 2.9230769000e+01 0.0000000000e+00 
        </DataArray>
      </Points>
      <Cells>
        <DataArray type="Int64" Name="connectivity" format="ascii">
          0
          1
          2
          3
          4
          5
          6
          7
          8
          9
          10
          11
          12
          13
          14
          15
          16
          17
          18
          19
          20
          21
          22
          23
          24
          25
          26
          27
          28
          29
          30
          31
          32
          33
          34
          35
          36
          37
          38
          39
          40
          41
          42
          43
          44
          45
          46
          47
          48
          49
          50
          51
          52
          53
          54
          55
          56
          57
          58
          59
          60
          61
          62
          63
          64
          65
          66
          67
          68
          69
          70
          71
          72
          73
          74
          75
          76
          77
          78
          79
          80
          81
        </DataArray>
        <DataArray type="Int64" Name="offsets" format="ascii">
          82
        </DataArray>
        <DataArray type="Int64" Name="types" format="ascii">
          2
        </DataArray>
      </Cells>
      <PointData>
        <DataArray type="Int64" Name="NodeTag" format="ascii">
          1
          2
          3
          4
          5
          6
          7
          8
          9
          10
          11
          12
          13
          14
          15
          16
          17
          18
          19
          20
          21
          22
          23
          24
          25
          26
          27
          28
          29
          30
          31
          32
          33
          34
          35
          36
          37
          38
          39
          40
          41
          42
          43
          44
          45
          46
          47
          48
          49
          50
          51
          52
          53
          54
          55
          56
          57
          58
          59
          60
          61
          62
          63
          64
          65
          66
          67
          68
          69
          70
          71
          72
          73
          74
          75
          76
          77
          78
          79
          80
          81
          82
        </DataArray>
        <DataArray type="Float64" Name="Velocity" NumberOfComponents="3" format="ascii">
          -1.4461832441e-03 -7.7940084003e-05 0.0000000000e+00 
          -1.4461832441e-03 -7.7940084003e-05 0.0000000000e+00 
          -4.5437847426e-02 -7.8191006120e-05 0.0000000000e+00 
          -4.5437847426e-02 -7.8191006120e-05 0.0000000000e+00 
          0.0000000000e+00 0.0000000000e+00 0.0000000000e+00 
          0.0000000000e+00 0.0000000000e+00 0.0000000000e+00 
          -3.2869839192e-03 -7.7950659879e-05 0.0000000000e+00 
          -5.1186859330e-03 -7.8053134645e-05 0.0000000000e+00 
          -6.9384743521e-03 -7.7894377591e-05 0.0000000000e+00 
          -8.7435314713e-03 -7.8081425370e-05 0.0000000000e+00 
          -1.0531136450e-02 -7.8030482755e-05 0.0000000000e+00 
          -1.2298550016e-02 -7.7992847404e-05 0.0000000000e+00 
          -1.4043090091e-02 -7.8185643496e-05 0.0000000000e+00 
          -1.5762166505e-02 -7.8077171549e-05 0.0000000000e+00 
          -1.7453156817e-02 -7.8110764717e-05 0.0000000000e+00 
          -1.9113594931e-02 -7.8126265672e-05 0.0000000000e+00 
          -2.0741014654e-02 -7.8186420751e-05 0.0000000000e+00 
          -2.2333022360e-02 -7.8168801514e-05 0.0000000000e+00 
          -2.3887334079e-02 -7.8115137236e-05 0.0000000000e+00 
          -2.5401669194e-02 -7.8187253949e-05 0.0000000000e+00 
          -2.6873902582e-02 -7.8128659763e-05 0.0000000000e+00 
          -2.8301943047e-02 -7.8211869330e-05 0.0000000000e+00 
          -2.9683776781e-02 -7.8104214723e-05 0.0000000000e+00 
          -3.1017493581e-02 -7.8189164334e-05 0.0000000000e+00 
          -3.2301248213e-02 -7.8231884137e-05 0.0000000000e+00 
          -3.3533317489e-02 -7.8112712028e-05 0.0000000000e+00 
          -3.4712025522e-02 -7.8188571229e-05 0.0000000000e+00 
          -3.5835797449e-02 -7.8194306155e-05 0.0000000000e+00 
          -3.6903157834e-02 -7.8122296790e-05 0.0000000000e+00 
          -3.7912704494e-02 -7.8149097659e-05 0.0000000000e+00 
          -3.8863141609e-02 -7.8125270266e-05 0.0000000000e+00 
          -3.9753237237e-02 -7.8132679795e-05 0.0000000000e+00 
          -4.0581880941e-02 -7.8110915735e-05 0.0000000000e+00 
          -4.1347998526e-02 -7.8099310810e-05 0.0000000000e+00 
          -4.2050672552e-02 -7.8141093534e-05 0.0000000000e+00 
          -4.2689027044e-02 -7.8100447193e-05 0.0000000000e+00 
          -4.3262244750e-02 -7.8120470998e-05 0.0000000000e+00 
          -4.3769670677e-02 -7.8044931309e-05 0.0000000000e+00 
          -4.4210662290e-02 -7.8192585486e-05 0.0000000000e+00 
          -4.4584711458e-02 -7.8132747635e-05 0.0000000000e+00 
          -4.4891361429e-02 -7.8043290746e-05 0.0000000000e+00 
          -4.5130224987e-02 -7.8274921806e-05 0.0000000000e+00 
          -4.5301061054e-02 -7.8145154459e-05 0.0000000000e+00 
          -4.5403649729e-02 -7.8110521393e-05 0.0000000000e+00 
          -3.2869839192e-03 -7.7950659879e-05 0.0000000000e+00 
          -5.1186859330e-03 -7.8053134645e-05 0.0000000000e+00 
          -6.9384743521e-03 -7.7894377591e-05 0.0000000000e+00 
          -8.7435314713e-03 -7.8081425370e-05 0.0000000000e+00 
          -1.0531136450e-02 -7.8030482755e-05 0.0000000000e+00 
          -1.2298550016e-02 -7.7992847404e-05 0.0000000000e+00 
          -1.4043090091e-02 -7.8185643496e-05 0.0000000000e+00 
          -1.5762166505e-02 -7.8077171549e-05 0.0000000000e+00 
          -1.7453156817e-02 -7.8110764717e-05 0.0000000000e+00 
          -1.9113594931e-02 -7.8126265672e-05 0.0000000000e+00 
          -2.0741014654e-02 -7.8186420751e-05 0.0000000000e+00 
          -2.2333022360e-02 -7.8168801514e-05 0.0000000000e+00 
          -2.3887334079e-02 -7.8115137236e-05 0.0000000000e+00 
          -2.5401669194e-02 -7.8187253949e-05 0.0000000000e+00 
          -2.6873902582e-02 -7.8128659763e-05 0.0000000000e+00 
          -2.8301943047e-02 -7.8211869330e-05 0.0000000000e+00 
          -2.9683776781e-02 -7.8104214723e-05 0.0000000000e+00 
          -3.1017493581e-02 -7.8189164334e-05 0.0000000000e+00 
          -3.2301248213e-02 -7.8231884137e-05 0.0000000000e+00 
          -3.3533317489e-02 -7.8112712028e-05 0.0000000000e+00 
          -3.4712025522e-02 -7.8188571229e-05 0.0000000000e+00 
          -3.5835797449e-02 -7.8194306155e-05 0.0000000000e+00 
          -3.6903157834e-02 -7.8122296790e-05 0.0000000000e+00 
          -3.7912704494e-02 -7.8149097659e-05 0.0000000000e+00 
          -3.8863141609e-02 -7.8125270266e-05 0.0000000000e+00 
          -3.9753237237e-02 -7.8132679795e-05 0.0000000000e+00 
          -4.0581880941e-02 -7.8110915735e-05 0.0000000000e+00 
          -4.1347998526e-02 -7.8099310810e-05 0.0000000000e+00 
          -4.2050672552e-02 -7.8141093534e-05 0.0000000000e+00 
          -4.2689027044e-02 -7.8100447193e-05 0.0000000000e+00 
          -4.3262244750e-02 -7.8120470998e-05 0.0000000000e+00 
          -4.3769670677e-02 -7.8044931309e-05 0.0000000000e+00 
          -4.4210662290e-02 -7.8192585486e-05 0.0000000000e+00 
          -4.4584711458e-02 -7.8132747635e-05 0.0000000000e+00 
          -4.4891361429e-02 -7.8043290746e-05 0.0000000000e+00 
          -4.5130224987e-02 -7.8274921806e-05 0.0000000000e+00 
          -4.5301061054e-02 -7.8145154459e-05 0.0000000000e+00 
          -4.5403649729e-02 -7.8110521393e-05 0.0000000000e+00 
        </DataArray>
        <DataArray type="Float64" Name="Displacement" NumberOfComponents="3" format="ascii">
          7.7391713080e-04 -2.9787332746e-04 0.0000000000e+00 
          7.7391713080e-04 -2.9787332746e-04 0.0000000000e+00 
          -9.4945808071e-05 -3.2149023861e-04 0.0000000000e+00 
          -9.4945808071e-05 -3.2149023861e-04 0.0000000000e+00 
          0.0000000000e+00 0.0000000000e+00 0.0000000000e+00 
          0.0000000000e+00 0.0000000000e+00 0.0000000000e+00 
          7.4928464459e-04 -2.9906855867e-04 0.0000000000e+00 
          7.2352471035e-04 -3.0023273691e-04 0.0000000000e+00 
          6.9674386646e-04 -3.0136604731e-04 0.0000000000e+00 
          6.6904993241e-04 -3.0246825794e-04 0.0000000000e+00 
          6.4055186179e-04 -3.0353958387e-04 0.0000000000e+00 
          6.1135928301e-04 -3.0457967719e-04 0.0000000000e+00 
          5.8158243638e-04 -3.0558879928e-04 0.0000000000e+00 
          5.5133154952e-04 -3.0656701392e-04 0.0000000000e+00 
          5.2071692554e-04 -3.0751429960e-04 0.0000000000e+00 
          4.8984843237e-04 -3.0843016784e-04 0.0000000000e+00 
          4.5883530444e-04 -3.0931546105e-04 0.0000000000e+00 
          4.2778577813e-04 -3.1016966494e-04 0.0000000000e+00 
          3.9680690102e-04 -3.1099252301e-04 0.0000000000e+00 
          3.6600430733e-04 -3.1178477057e-04 0.0000000000e+00 
          3.3548187958e-04 -3.1254562031e-04 0.0000000000e+00 
          3.0534146610e-04 -3.1327548757e-04 0.0000000000e+00 
          2.7568266143e-04 -3.1397451639e-04 0.0000000000e+00 
          2.4660270700e-04 -3.1464232891e-04 0.0000000000e+00 
          2.1819607313e-04 -3.1527883327e-04 0.0000000000e+00 
          1.9055437432e-04 -3.1588475784e-04 0.0000000000e+00 
          1.6376591735e-04 -3.1645927577e-04 0.0000000000e+00 
          1.3791588625e-04 -3.1700286005e-04 0.0000000000e+00 
          1.1308587678e-04 -3.1751530718e-04 0.0000000000e+00 
          8.9353780994e-05 -3.1799661278e-04 0.0000000000e+00 
          6.6793534074e-05 -3.1844710534e-04 0.0000000000e+00 
          4.5475152821e-05 -3.1886613456e-04 0.0000000000e+00 
          2.5464481424e-05 -3.1925445709e-04 0.0000000000e+00 
          6.8229631573e-06 -3.1961149073e-04 0.0000000000e+00 
          -1.0392360834e-05 -3.1993743659e-04 0.0000000000e+00 
          -2.6129058565e-05 -3.2023271721e-04 0.0000000000e+00 
          -4.0339317068e-05 -3.2049654647e-04 0.0000000000e+00 
          -5.2980157711e-05 -3.2072949701e-04 0.0000000000e+00 
          -6.4013385863e-05 -3.2093133825e-04 0.0000000000e+00 
          -7.3405805565e-05 -3.2110216572e-04 0.0000000000e+00 
          -8.1129215630e-05 -3.2124195250e-04 0.0000000000e+00 
          -8.7160371767e-05 -3.2135053398e-04 0.0000000000e+00 
          -9.1481302103e-05 -3.2142832017e-04 0.0000000000e+00 
          -9.4079061379e-05 -3.2147473533e-04 0.0000000000e+00 
          7.4928464459e-04 -2.9906855867e-04 0.0000000000e+00 
          7.2352471035e-04 -3.0023273691e-04 0.0000000000e+00 
          6.9674386646e-04 -3.0136604731e-04 0.0000000000e+00 
          6.6904993241e-04 -3.0246825794e-04 0.0000000000e+00 
          6.4055186179e-04 -3.0353958387e-04 0.0000000000e+00 
          6.1135928301e-04 -3.0457967719e-04 0.0000000000e+00 
          5.8158243638e-04 -3.0558879928e-04 0.0000000000e+00 
          5.5133154952e-04 -3.0656701392e-04 0.0000000000e+00 
          5.2071692554e-04 -3.0751429960e-04 0.0000000000e+00 
          4.8984843237e-04 -3.0843016784e-04 0.0000000000e+00 
          4.5883530444e-04 -3.0931546105e-04 0.0000000000e+00 
          4.2778577813e-04 -3.1016966494e-04 0.0000000000e+00 
          3.9680690102e-04 -3.1099252301e-04 0.0000000000e+00 
          3.6600430733e-04 -3.1178477057e-04 0.0000000000e+00 
          3.3548187958e-04 -3.1254562031e-04 0.0000000000e+00 
          3.0534146610e-04 -3.1327548757e-04 0.0000000000e+00 
          2.7568266143e-04 -3.1397451639e-04 0.0000000000e+00 
          2.4660270700e-04 -3.1464232891e-04 0.0000000000e+00 
          2.1819607313e-04 -3.1527883327e-04 0.0000000000e+00 
          1.9055437432e-04 -3.1588475784e-04 0.0000000000e+00 
          1.6376591735e-04 -3.1645927577e-04 0.0000000000e+00 
          1.3791588625e-04 -3.1700286005e-04 0.0000000000e+00 
          1.1308587678e-04 -3.1751530718e-04 0.0000000000e+00 
          8.9353780994e-05 -3.1799661278e-04 0.0000000000e+00 
          6.6793534074e-05 -3.1844710534e-04 0.0000000000e+00 
          4.5475152821e-05 -3.1886613456e-04 0.0000000000e+00 
          2.5464481424e-05 -3.1925445709e-04 0.0000000000e+00 
          6.8229631573e-06 -3.1961149073e-04 0.0000000000e+00 
          -1.0392360834e-05 -3.1993743659e-04 0.0000000000e+00 
          -2.6129058565e-05 -3.2023271721e-04 0.0000000000e+00 
          -4.0339317068e-05 -3.2049654647e-04 0.0000000000e+00 
          -5.2980157711e-05 -3.2072949701e-04 0.0000000000e+00 
          -6.4013385863e-05 -3.2093133825e-04 0.0000000000e+00 
          -7.3405805565e-05 -3.2110216572e-04 0.0000000000e+00 
          -8.1129215630e-05 -3.2124195250e-04 0.0000000000e+00 
          -8.7160371767e-05 -3.2135053398e-04 0.0000000000e+00 
          -9.1481302103e-05 -3.2142832017e-04 0.0000000000e+00 
          -9.4079061379e-05 -3.2147473533e-04 0.0000000000e+00 
        </DataArray>
        <DataArray type="Float64" Name="Acceleration" NumberOfComponents="3" format="ascii">
          -1.1103534053e-01 -8.1906047944e-07 0.0000000000e+00 
          -1.1103534053e-01 -8.1906047944e-07 0.0000000000e+00 
          1.5619117717e-01 3.7595910829e-08 0.0000000000e+00 
          1.5619117717e-01 3.7595910829e-08 0.0000000000e+00 
          0.0000000000e+00 0.0000000000e+00 0.0000000000e+00 
          0.0000000000e+00 0.0000000000e+00 0.0000000000e+00 
          -1.0158529342e-01 8.4023733831e-06 0.0000000000e+00 
          -9.1989173254e-02 -2.5220750932e-05 0.0000000000e+00 
          -8.2268142384e-02 1.7108426413e-05 0.0000000000e+00 
          -7.2454293255e-02 -2.1922166381e-05 0.0000000000e+00 
          -6.2576556420e-02 4.0777274627e-05 0.0000000000e+00 
          -5.2647209533e-02 -6.5594688895e-06 0.0000000000e+00 
          -4.2708500525e-02 -1.7579657210e-05 0.0000000000e+00 
          -3.2773433418e-02 -1.3944824704e-05 0.0000000000e+00 
          -2.2874114639e-02 7.4084940352e-05 0.0000000000e+00 
          -1.3035519465e-02 -7.7929910648e-05 0.0000000000e+00 
          -3.2759350876e-03 1.5167326583e-05 0.0000000000e+00 
          6.3656325994e-03 6.1174532575e-05 0.0000000000e+00 
          1.5883484831e-02 -7.1329344130e-05 0.0000000000e+00 
          2.5243503880e-02 7.0546800273e-05 0.0000000000e+00 
          3.4416731606e-02 -4.4662345854e-06 0.0000000000e+00 
          4.3397464044e-02 -3.0080996881e-05 0.0000000000e+00 
          5.2155549630e-02 3.7836046580e-05 0.0000000000e+00 
          6.0667512163e-02 5.4389417096e-05 0.0000000000e+00 
          6.8918966950e-02 -7.7004365964e-05 0.0000000000e+00 
          7.6882062341e-02 7.2284093961e-05 0.0000000000e+00 
          8.4554024324e-02 -1.3101450609e-05 0.0000000000e+00 
          9.1905962871e-02 2.3574709997e-05 0.0000000000e+00 
          9.8921475387e-02 2.4254478581e-05 0.0000000000e+00 
          1.0558874583e-01 -3.4718601560e-05 0.0000000000e+00 
          1.1189454908e-01 8.2353273513e-05 0.0000000000e+00 
          1.1782724046e-01 -5.3995157459e-05 0.0000000000e+00 
          1.2336340096e-01 5.0915854765e-05 0.0000000000e+00 
          1.2850098776e-01 1.4603738511e-05 0.0000000000e+00 
          1.3322924919e-01 -6.1387152750e-05 0.0000000000e+00 
          1.3753518885e-01 8.0193929863e-05 0.0000000000e+00 
          1.4140764861e-01 -2.2995150090e-05 0.0000000000e+00 
          1.4484786199e-01 1.8509304181e-05 0.0000000000e+00 
          1.4784147014e-01 1.3913100627e-06 0.0000000000e+00 
          1.5038106426e-01 6.1890609583e-06 0.0000000000e+00 
          1.5247542089e-01 3.5855088136e-05 0.0000000000e+00 
          1.5409431616e-01 -3.8045773381e-05 0.0000000000e+00 
          1.5526172244e-01 6.5739431072e-05 0.0000000000e+00 
          1.5596765239e-01 -1.7019146672e-05 0.0000000000e+00 
          -1.0158529342e-01 8.4023733831e-06 0.0000000000e+00 
          -9.1989173254e-02 -2.5220750932e-05 0.0000000000e+00 
          -8.2268142384e-02 1.7108426413e-05 0.0000000000e+00 
          -7.2454293255e-02 -2.1922166381e-05 0.0000000000e+00 
          -6.2576556420e-02 4.0777274627e-05 0.0000000000e+00 
          -5.2647209533e-02 -6.5594688895e-06 0.0000000000e+00 
          -4.2708500525e-02 -1.7579657210e-05 0.0000000000e+00 
          -3.2773433418e-02 -1.3944824704e-05 0.0000000000e+00 
          -2.2874114639e-02 7.4084940352e-05 0.0000000000e+00 
          -1.3035519465e-02 -7.7929910648e-05 0.0000000000e+00 
          -3.2759350876e-03 1.5167326583e-05 0.0000000000e+00 
          6.3656325994e-03 6.1174532575e-05 0.0000000000e+00 
          1.5883484831e-02 -7.1329344130e-05 0.0000000000e+00 
          2.5243503880e-02 7.0546800273e-05 0.0000000000e+00 
          3.4416731606e-02 -4.4662345854e-06 0.0000000000e+00 
          4.3397464044e-02 -3.0080996881e-05 0.0000000000e+00 
          5.2155549630e-02 3.7836046580e-05 0.0000000000e+00 
          6.0667512163e-02 5.4389417096e-05 0.0000000000e+00 
          6.8918966950e-02 -7.7004365964e-05 0.0000000000e+00 
          7.6882062341e-02 7.2284093961e-05 0.0000000000e+00 
          8.4554024324e-02 -1.3101450609e-05 0.0000000000e+00 
          9.1905962871e-02 2.3574709997e-05 0.0000000000e+00 
          9.8921475387e-02 2.4254478581e-05 0.0000000000e+00 
          1.0558874583e-01 -3.4718601560e-05 0.0000000000e+00 
          1.1189454908e-01 8.2353273513e-05 0.0000000000e+00 
          1.1782724046e-01 -5.3995157459e-05 0.0000000000e+00 
          1.2336340096e-01 5.0915854765e-05 0.0000000000e+00 
          1.2850098776e-01 1.4603738511e-05 0.0000000000e+00 
          1.3322924919e-01 -6.1387152750e-05 0.0000000000e+00 
          1.3753518885e-01 8.0193929863e-05 0.0000000000e+00 
          1.4140764861e-01 -2.2995150090e-05 0.0000000000e+00 
          1.4484786199e-01 1.8509304181e-05 0.0000000000e+00 
          1.4784147014e-01 1.3913100627e-06 0.0000000000e+00 
          1.5038106426e-01 6.1890609583e-06 0.0000000000e+00 
          1.5247542089e-01 3.5855088136e-05 0.0000000000e+00 
          1.5409431616e-01 -3.8045773381e-05 0.0000000000e+00 
          1.5526172244e-01 6.5739431072e-05 0.0000000000e+00 
          1.5596765239e-01 -1.7019146672e-05 0.0000000000e+00 
        </DataArray>
        <DataArray type="Float64" Name="Reaction" NumberOfComponents="3" format="ascii">
          0.0000000000e+00 0.0000000000e+00 0.0000000000e+00 
          0.0000000000e+00 0.0000000000e+00 0.0000000000e+00 
          0.0000000000e+00 0.0000000000e+00 0.0000000000e+00 
          0.0000000000e+00 0.0000000000e+00 0.0000000000e+00 
          0.0000000000e+00 0.0000000000e+00 0.0000000000e+00 
          0.0000000000e+00 0.0000000000e+00 0.0000000000e+00 
          0.0000000000e+00 0.0000000000e+00 0.0000000000e+00 
          0.0000000000e+00 0.0000000000e+00 0.0000000000e+00 
          0.0000000000e+00 0.0000000000e+00 0.0000000000e+00 
          0.0000000000e+00 0.0000000000e+00 0.0000000000e+00 
          0.0000000000e+00 0.0000000000e+00 0.0000000000e+00 
          0.0000000000e+00 0.0000000000e+00 0.0000000000e+00 
          0.0000000000e+00 0.0000000000e+00 0.0000000000e+00 
          0.0000000000e+00 0.0000000000e+00 0.0000000000e+00 
          0.0000000000e+00 0.0000000000e+00 0.0000000000e+00 
          0.0000000000e+00 0.0000000000e+00 0.0000000000e+00 
          0.0000000000e+00 0.0000000000e+00 0.0000000000e+00 
          0.0000000000e+00 0.0000000000e+00 0.0000000000e+00 
          0.0000000000e+00 0.0000000000e+00 0.0000000000e+00 
          0.0000000000e+00 0.0000000000e+00 0.0000000000e+00 
          0.0000000000e+00 0.0000000000e+00 0.0000000000e+00 
          0.0000000000e+00 0.0000000000e+00 0.0000000000e+00 
          0.0000000000e+00 0.0000000000e+00 0.0000000000e+00 
          0.0000000000e+00 0.0000000000e+00 0.0000000000e+00 
          0.0000000000e+00 0.0000000000e+00 0.0000000000e+00 
          0.0000000000e+00 0.0000000000e+00 0.0000000000e+00 
          0.0000000000e+00 0.0000000000e+00 0.0000000000e+00 
          0.0000000000e+00 0.0000000000e+00 0.0000000000e+00 
          0.0000000000e+00 0.0000000000e+00 0.0000000000e+00 
          0.0000000000e+00 0.0000000000e+00 0.0000000000e+00 
          0.0000000000e+00 0.0000000000e+00 0.0000000000e+00 
          0.0000000000e+00 0.0000000000e+00 0.0000000000e+00 
          0.0000000000e+00 0.0000000000e+00 0.0000000000e+00 
          0.0000000000e+00 0.0000000000e+00 0.0000000000e+00 
          0.0000000000e+00 0.0000000000e+00 0.0000000000e+00 
          0.0000000000e+00 0.0000000000e+00 0.0000000000e+00 
          0.0000000000e+00 0.0000000000e+00 0.0000000000e+00 
          0.0000000000e+00 0.0000000000e+00 0.0000000000e+00 
          0.0000000000e+00 0.0000000000e+00 0.0000000000e+00 
          0.0000000000e+00 0.0000000000e+00 0.0000000000e+00 
          0.0000000000e+00 0.0000000000e+00 0.0000000000e+00 
          0.0000000000e+00 0.0000000000e+00 0.0000000000e+00 
          0.0000000000e+00 0.0000000000e+00 0.0000000000e+00 
          0.0000000000e+00 0.0000000000e+00 0.0000000000e+00 
          0.0000000000e+00 0.0000000000e+00 0.0000000000e+00 
          0.0000000000e+00 0.0000000000e+00 0.0000000000e+00 
          0.0000000000e+00 0.0000000000e+00 0.0000000000e+00 
          0.0000000000e+00 0.0000000000e+00 0.0000000000e+00 
          0.0000000000e+00 0.0000000000e+00 0.0000000000e+00 
          0.0000000000e+00 0.0000000000e+00 0.0000000000e+00 
          0.0000000000e+00 0.0000000000e+00 0.0000000000e+00 
          0.0000000000e+00 0.0000000000e+00 0.0000000000e+00 
          0.0000000000e+00 0.0000000000e+00 0.0000000000e+00 
          0.0000000000e+00 0.0000000000e+00 0.0000000000e+00 
          0.0000000000e+00 0.0000000000e+00 0.0000000000e+00 
          0.0000000000e+00 0.0000000000e+00 0.0000000000e+00 
          0.0000000000e+00 0.0000000000e+00 0.0000000000e+00 
          0.0000000000e+00 0.0000000000e+00 0.0000000000e+00 
          0.0000000000e+00 0.0000000000e+00 0.0000000000e+00 
          0.0000000000e+00 0.0000000000e+00 0.0000000000e+00 
          0.0000000000e+00 0.0000000000e+00 0.0000000000e+00 
          0.0000000000e+00 0.0000000000e+00 0.0000000000e+00 
          0.0000000000e+00 0.0000000000e+00 0.0000000000e+00 
          0.0000000000e+00 0.0000000000e+00 0.0000000000e+00 
          0.0000000000e+00 0.0000000000e+00 0.0000000000e+00 
          0.0000000000e+00 0.0000000000e+00 0.0000000000e+00 
          0.0000000000e+00 0.0000000000e+00 0.0000000000e+00 
          0.0000000000e+00 0.0000000000e+00 0.0000000000e+00 
          0.0000000000e+00 0.0000000000e+00 0.0000000000e+00 
          0.0000000000e+00 0.0000000000e+00 0.0000000000e+00 
          0.0000000000e+00 0.0000000000e+00 0.0000000000e+00 
          0.0000000000e+00 0.0000000000e+00 0.0000000000e+00 
          0.0000000000e+00 0.0000000000e+00 0.0000000000e+00 
          0.0000000000e+00 0.0000000000e+00 0.0000000000e+00 
          0.0000000000e+00 0.0000000000e+00 0.0000000000e+00 
          0.0000000000e+00 0.0000000000e+00 0.0000000000e+00 
          0.0000000000e+00 0.0000000000e+00 0.0000000000e+00 
          0.0000000000e+00 0.0000000000e+00 0.0000000000e+00 
          0.0000000000e+00 0.0000000000e+00 0.0000000000e+00 
          0.0000000000e+00 0.0000000000e+00 0.0000000000e+00 
          0.0000000000e+00 0.0000000000e+00 0.0000000000e+00 
          0.0000000000e+00 0.0000000000e+00 0.0000000000e+00 
        </DataArray>
      </PointData>
      <CellData>
        <DataArray type="Int64" Name="ElementTag" format="ascii">
          0
        </DataArray>
      </CellData>
    </Piece>
  </UnstructuredGrid>
</VTKFile>
