<?xml version="1.0"?>
<VTKFile type="UnstructuredGrid" version="1.0" byte_order="LittleEndian" compressor="vtkZLibDataCompressor">
  <UnstructuredGrid>
    <Piece NumberOfPoints="80" NumberOfCells="39">
      <Points>
        <DataArray type="Float64" Name="Points" NumberOfComponents="3" format="ascii">
          0.0000000000e+00 0.0000000000e+00 0.0000000000e+00 
          2.5000000000e-01 0.0000000000e+00 0.0000000000e+00 
          2.5000000000e-01 3.0000000000e+01 0.0000000000e+00 
          0.0000000000e+00 3.0000000000e+01 0.0000000000e+00 
          2.5000000000e-01 7.6923100000e-01 0.0000000000e+00 
          2.5000000000e-01 1.5384620000e+00 0.0000000000e+00 
          2.5000000000e-01 2.3076920000e+00 0.0000000000e+00 
          2.5000000000e-01 3.0769230000e+00 0.0000000000e+00 
          2.5000000000e-01 3.8461540000e+00 0.0000000000e+00 
          2.5000000000e-01 4.6153850000e+00 0.0000000000e+00 
          2.5000000000e-01 5.3846150000e+00 0.0000000000e+00 
          2.5000000000e-01 6.1538460000e+00 0.0000000000e+00 
          2.5000000000e-01 6.9230770000e+00 0.0000000000e+00 
          2.5000000000e-01 7.6923080000e+00 0.0000000000e+00 
          2.5000000000e-01 8.4615380000e+00 0.0000000000e+00 
          2.5000000000e-01 9.2307690000e+00 0.0000000000e+00 
          2.5000000000e-01 1.0000000000e+01 0.0000000000e+00 
          2.5000000000e-01 1.0769231000e+01 0.0000000000e+00 
          2.5000000000e-01 1.1538462000e+01 0.0000000000e+00 
          2.5000000000e-01 1.2307692000e+01 0.0000000000e+00 
          2.5000000000e-01 1.3076923000e+01 0.0000000000e+00 
          2.5000000000e-01 1.3846154000e+01 0.0000000000e+00 
          2.5000000000e-01 1.4615385000e+01 0.0000000000e+00 
          2.5000000000e-01 1.5384615000e+01 0.0000000000e+00 
          2.5000000000e-01 1.6153846000e+01 0.0000000000e+00 
          2.5000000000e-01 1.6923077000e+01 0.0000000000e+00 
          2.5000000000e-01 1.7692308000e+01 0.0000000000e+00 
          2.5000000000e-01 1.8461538000e+01 0.0000000000e+00 
          2.5000000000e-01 1.9230769000e+01 0.0000000000e+00 
          2.5000000000e-01 2.0000000000e+01 0.0000000000e+00 
          2.5000000000e-01 2.0769231000e+01 0.0000000000e+00 
          2.5000000000e-01 2.1538462000e+01 0.0000000000e+00 
          2.5000000000e-01 2.2307692000e+01 0.0000000000e+00 
          2.5000000000e-01 2.3076923000e+01 0.0000000000e+00 
          2.5000000000e-01 2.3846154000e+01 0.0000000000e+00 
          2.5000000000e-01 2.4615385000e+01 0.0000000000e+00 
          2.5000000000e-01 2.5384615000e+01 0.0000000000e+00 
          2.5000000000e-01 2.6153846000e+01 0.0000000000e+00 
          2.5000000000e-01 2.6923077000e+01 0.0000000000e+00 
          2.5000000000e-01 2.7692308000e+01 0.0000000000e+00 
          2.5000000000e-01 2.8461538000e+01 0.0000000000e+00 
          2.5000000000e-01 2.9230769000e+01 0.0000000000e+00 
          0.0000000000e+00 7.6923100000e-01 0.0000000000e+00 
          0.0000000000e+00 1.5384620000e+00 0.0000000000e+00 
          0.0000000000e+00 2.3076920000e+00 0.0000000000e+00 
          0.0000000000e+00 3.0769230000e+00 0.0000000000e+00 
          0.0000000000e+00 3.8461540000e+00 0.0000000000e+00 
          0.0000000000e+00 4.6153850000e+00 0.0000000000e+00 
          0.0000000000e+00 5.3846150000e+00 0.0000000000e+00 
          0.0000000000e+00 6.1538460000e+00 0.0000000000e+00 
          0.0000000000e+00 6.9230770000e+00 0.0000000000e+00 
          0.0000000000e+00 7.6923080000e+00 0.0000000000e+00 
          0.0000000000e+00 8.4615380000e+00 0.0000000000e+00 
          0.0000000000e+00 9.2307690000e+00 0.0000000000e+00 
          0.0000000000e+00 1.0000000000e+01 0.0000000000e+00 
          0.0000000000e+00 1.0769231000e+01 0.0000000000e+00 
          0.0000000000e+00 1.1538462000e+01 0.0000000000e+00 
          0.0000000000e+00 1.2307692000e+01 0.0000000000e+00 
          0.0000000000e+00 1.3076923000e+01 0.0000000000e+00 
          0.0000000000e+00 1.3846154000e+01 0.0000000000e+00 
          0.0000000000e+00 1.4615385000e+01 0.0000000000e+00 
          0.0000000000e+00 1.5384615000e+01 0.0000000000e+00 
          0.0000000000e+00 1.6153846000e+01 0.0000000000e+00 
          0.0000000000e+00 1.6923077000e+01 0.0000000000e+00 
          0.0000000000e+00 1.7692308000e+01 0.0000000000e+00 
          0.0000000000e+00 1.8461538000e+01 0.0000000000e+00 
          0.0000000000e+00 1.9230769000e+01 0.0000000000e+00 
          0.0000000000e+00 2.0000000000e+01 0.0000000000e+00 
          0.0000000000e+00 2.0769231000e+01 0.0000000000e+00 
          0.0000000000e+00 2.1538462000e+01 0.0000000000e+00 
          0.0000000000e+00 2.2307692000e+01 0.0000000000e+00 
          0.0000000000e+00 2.3076923000e+01 0.0000000000e+00 
          0.0000000000e+00 2.3846154000e+01 0.0000000000e+00 
          0.0000000000e+00 2.4615385000e+01 0.0000000000e+00 
          0.0000000000e+00 2.5384615000e+01 0.0000000000e+00 
          0.0000000000e+00 2.6153846000e+01 0.0000000000e+00 
          0.0000000000e+00 2.6923077000e+01 0.0000000000e+00 
          0.0000000000e+00 2.7692308000e+01 0.0000000000e+00 
          0.0000000000e+00 2.8461538000e+01 0.0000000000e+00 
          0.0000000000e+00 2.9230769000e+01 0.0000000000e+00 
        </DataArray>
      </Points>
      <Cells>
        <DataArray type="Int64" Name="connectivity" format="ascii">
          0 1 4 42 
          42 4 5 43 
          43 5 6 44 
          44 6 7 45 
          45 7 8 46 
          46 8 9 47 
          47 9 10 48 
          48 10 11 49 
          49 11 12 50 
          50 12 13 51 
          51 13 14 52 
          52 14 15 53 
          53 15 16 54 
          54 16 17 55 
          55 17 18 56 
          56 18 19 57 
          57 19 20 58 
          58 20 21 59 
          59 21 22 60 
          60 22 23 61 
          61 23 24 62 
          62 24 25 63 
          63 25 26 64 
          64 26 27 65 
          65 27 28 66 
          66 28 29 67 
          67 29 30 68 
          68 30 31 69 
          69 31 32 70 
          70 32 33 71 
          71 33 34 72 
          72 34 35 73 
          73 35 36 74 
          74 36 37 75 
          75 37 38 76 
          76 38 39 77 
          77 39 40 78 
          78 40 41 79 
          79 41 2 3 
        </DataArray>
        <DataArray type="Int64" Name="offsets" format="ascii">
          4
          8
          12
          16
          20
          24
          28
          32
          36
          40
          44
          48
          52
          56
          60
          64
          68
          72
          76
          80
          84
          88
          92
          96
          100
          104
          108
          112
          116
          120
          124
          128
          132
          136
          140
          144
          148
          152
          156
        </DataArray>
        <DataArray type="Int64" Name="types" format="ascii">
          9
          9
          9
          9
          9
          9
          9
          9
          9
          9
          9
          9
          9
          9
          9
          9
          9
          9
          9
          9
          9
          9
          9
          9
          9
          9
          9
          9
          9
          9
          9
          9
          9
          9
          9
          9
          9
          9
          9
        </DataArray>
      </Cells>
      <PointData>
        <DataArray type="Int64" Name="NodeTag" format="ascii">
          1
          2
          3
          4
          7
          8
          9
          10
          11
          12
          13
          14
          15
          16
          17
          18
          19
          20
          21
          22
          23
          24
          25
          26
          27
          28
          29
          30
          31
          32
          33
          34
          35
          36
          37
          38
          39
          40
          41
          42
          43
          44
          45
          46
          47
          48
          49
          50
          51
          52
          53
          54
          55
          56
          57
          58
          59
          60
          61
          62
          63
          64
          65
          66
          67
          68
          69
          70
          71
          72
          73
          74
          75
          76
          77
          78
          79
          80
          81
          82
        </DataArray>
        <DataArray type="Float64" Name="Velocity" NumberOfComponents="3" format="ascii">
          -5.5472668897e-06 -7.7845783432e-05 0.0000000000e+00 
          -5.5472668897e-06 -7.7845783432e-05 0.0000000000e+00 
          -1.5224088769e-04 -7.7786793622e-05 0.0000000000e+00 
          -1.5224088769e-04 -7.7786793622e-05 0.0000000000e+00 
          -1.1696639949e-05 -7.7819173835e-05 0.0000000000e+00 
          -1.7816971834e-05 -7.7884106595e-05 0.0000000000e+00 
          -2.3891626605e-05 -7.7803543684e-05 0.0000000000e+00 
          -2.9922057228e-05 -7.7881616938e-05 0.0000000000e+00 
          -3.5886585868e-05 -7.7813388328e-05 0.0000000000e+00 
          -4.1790122665e-05 -7.7863053366e-05 0.0000000000e+00 
          -4.7609662271e-05 -7.7856029958e-05 0.0000000000e+00 
          -5.3346125362e-05 -7.7796986594e-05 0.0000000000e+00 
          -5.8990951650e-05 -7.7912215774e-05 0.0000000000e+00 
          -6.4526074793e-05 -7.7790341293e-05 0.0000000000e+00 
          -6.9957538730e-05 -7.7867114424e-05 0.0000000000e+00 
          -7.5266288453e-05 -7.7855360839e-05 0.0000000000e+00 
          -8.0446671933e-05 -7.7818075607e-05 0.0000000000e+00 
          -8.5499577615e-05 -7.7870125473e-05 0.0000000000e+00 
          -9.0405820092e-05 -7.7840506866e-05 0.0000000000e+00 
          -9.5163513191e-05 -7.7826277792e-05 0.0000000000e+00 
          -9.9774241255e-05 -7.7873001834e-05 0.0000000000e+00 
          -1.0421352565e-04 -7.7834411937e-05 0.0000000000e+00 
          -1.0849384856e-04 -7.7829004766e-05 0.0000000000e+00 
          -1.1259994730e-04 -7.7879488617e-05 0.0000000000e+00 
          -1.1652177092e-04 -7.7813181192e-05 0.0000000000e+00 
          -1.2027172056e-04 -7.7865188387e-05 0.0000000000e+00 
          -1.2382103196e-04 -7.7839963127e-05 0.0000000000e+00 
          -1.2718652326e-04 -7.7842039364e-05 0.0000000000e+00 
          -1.3035091557e-04 -7.7858592633e-05 0.0000000000e+00 
          -1.3331299634e-04 -7.7818524823e-05 0.0000000000e+00 
          -1.3607557910e-04 -7.7886350787e-05 0.0000000000e+00 
          -1.3862185757e-04 -7.7804141451e-05 0.0000000000e+00 
          -1.4096510244e-04 -7.7872701245e-05 0.0000000000e+00 
          -1.4308775230e-04 -7.7844785068e-05 0.0000000000e+00 
          -1.4499539917e-04 -7.7824005775e-05 0.0000000000e+00 
          -1.4668780566e-04 -7.7871755141e-05 0.0000000000e+00 
          -1.4815006322e-04 -7.7836157084e-05 0.0000000000e+00 
          -1.4940086779e-04 -7.7837850071e-05 0.0000000000e+00 
          -1.5041739243e-04 -7.7854459971e-05 0.0000000000e+00 
          -1.5121260645e-04 -7.7856238264e-05 0.0000000000e+00 
          -1.5178499919e-04 -7.7811148015e-05 0.0000000000e+00 
          -1.5212002604e-04 -7.7898591112e-05 0.0000000000e+00 
          -1.1696639949e-05 -7.7819173835e-05 0.0000000000e+00 
          -1.7816971834e-05 -7.7884106595e-05 0.0000000000e+00 
          -2.3891626605e-05 -7.7803543684e-05 0.0000000000e+00 
          -2.9922057228e-05 -7.7881616938e-05 0.0000000000e+00 
          -3.5886585868e-05 -7.7813388328e-05 0.0000000000e+00 
          -4.1790122665e-05 -7.7863053366e-05 0.0000000000e+00 
          -4.7609662271e-05 -7.7856029958e-05 0.0000000000e+00 
          -5.3346125362e-05 -7.7796986594e-05 0.0000000000e+00 
          -5.8990951650e-05 -7.7912215774e-05 0.0000000000e+00 
          -6.4526074793e-05 -7.7790341293e-05 0.0000000000e+00 
          -6.9957538730e-05 -7.7867114424e-05 0.0000000000e+00 
          -7.5266288453e-05 -7.7855360839e-05 0.0000000000e+00 
          -8.0446671933e-05 -7.7818075607e-05 0.0000000000e+00 
          -8.5499577615e-05 -7.7870125473e-05 0.0000000000e+00 
          -9.0405820092e-05 -7.7840506866e-05 0.0000000000e+00 
          -9.5163513191e-05 -7.7826277792e-05 0.0000000000e+00 
          -9.9774241255e-05 -7.7873001834e-05 0.0000000000e+00 
          -1.0421352565e-04 -7.7834411937e-05 0.0000000000e+00 
          -1.0849384856e-04 -7.7829004766e-05 0.0000000000e+00 
          -1.1259994730e-04 -7.7879488617e-05 0.0000000000e+00 
          -1.1652177092e-04 -7.7813181192e-05 0.0000000000e+00 
          -1.2027172056e-04 -7.7865188387e-05 0.0000000000e+00 
          -1.2382103196e-04 -7.7839963127e-05 0.0000000000e+00 
          -1.2718652326e-04 -7.7842039364e-05 0.0000000000e+00 
          -1.3035091557e-04 -7.7858592633e-05 0.0000000000e+00 
          -1.3331299634e-04 -7.7818524823e-05 0.0000000000e+00 
          -1.3607557910e-04 -7.7886350787e-05 0.0000000000e+00 
          -1.3862185757e-04 -7.7804141451e-05 0.0000000000e+00 
          -1.4096510244e-04 -7.7872701245e-05 0.0000000000e+00 
          -1.4308775230e-04 -7.7844785068e-05 0.0000000000e+00 
          -1.4499539917e-04 -7.7824005775e-05 0.0000000000e+00 
          -1.4668780566e-04 -7.7871755141e-05 0.0000000000e+00 
          -1.4815006322e-04 -7.7836157084e-05 0.0000000000e+00 
          -1.4940086779e-04 -7.7837850071e-05 0.0000000000e+00 
          -1.5041739243e-04 -7.7854459971e-05 0.0000000000e+00 
          -1.5121260645e-04 -7.7856238264e-05 0.0000000000e+00 
          -1.5178499919e-04 -7.7811148015e-05 0.0000000000e+00 
          -1.5212002604e-04 -7.7898591112e-05 0.0000000000e+00 
        </DataArray>
        <DataArray type="Float64" Name="Displacement" NumberOfComponents="3" format="ascii">
          2.6005385998e-06 -5.8123099973e-04 0.0000000000e+00 
          2.6005385998e-06 -5.8123099973e-04 0.0000000000e+00 
          -5.9751397269e-07 -6.0481141436e-04 0.0000000000e+00 
          -5.9751397269e-07 -6.0481141436e-04 0.0000000000e+00 
          2.5063583242e-06 -5.8242475938e-04 0.0000000000e+00 
          2.4084261859e-06 -5.8358745768e-04 0.0000000000e+00 
          2.3071289331e-06 -5.8471922473e-04 0.0000000000e+00 
          2.2028314643e-06 -5.8581994185e-04 0.0000000000e+00 
          2.0959283043e-06 -5.8688964842e-04 0.0000000000e+00 
          1.9867999355e-06 -5.8792836624e-04 0.0000000000e+00 
          1.8758323433e-06 -5.8893610930e-04 0.0000000000e+00 
          1.7634178464e-06 -5.8991272574e-04 0.0000000000e+00 
          1.6499344352e-06 -5.9085852438e-04 0.0000000000e+00 
          1.5357787973e-06 -5.9177312317e-04 0.0000000000e+00 
          1.4213241659e-06 -5.9265686594e-04 0.0000000000e+00 
          1.3069496618e-06 -5.9350949648e-04 0.0000000000e+00 
          1.1930417788e-06 -5.9433120494e-04 0.0000000000e+00 
          1.0799566238e-06 -5.9512183736e-04 0.0000000000e+00 
          9.6806121062e-07 -5.9588151275e-04 0.0000000000e+00 
          8.5771984932e-07 -5.9661014812e-04 0.0000000000e+00 
          7.4927362152e-07 -5.9730780593e-04 0.0000000000e+00 
          6.4305649886e-07 -5.9797444738e-04 0.0000000000e+00 
          5.3941872107e-07 -5.9861002873e-04 0.0000000000e+00 
          4.3865798369e-07 -5.9921475942e-04 0.0000000000e+00 
          3.4109231063e-07 -5.9978823320e-04 0.0000000000e+00 
          2.4703711661e-07 -6.0033098403e-04 0.0000000000e+00 
          1.5672967298e-07 -6.0084250233e-04 0.0000000000e+00 
          7.0505059787e-08 -6.0132312185e-04 0.0000000000e+00 
          -1.1429900988e-08 -6.0177275041e-04 0.0000000000e+00 
          -8.8810764162e-08 -6.0219126533e-04 0.0000000000e+00 
          -1.6139145520e-07 -6.0257894106e-04 0.0000000000e+00 
          -2.2900030435e-07 -6.0293541532e-04 0.0000000000e+00 
          -2.9138840332e-07 -6.0326105896e-04 0.0000000000e+00 
          -3.4840419931e-07 -6.0355559075e-04 0.0000000000e+00 
          -3.9988023792e-07 -6.0381913743e-04 0.0000000000e+00 
          -4.4564298366e-07 -6.0405170872e-04 0.0000000000e+00 
          -4.8559020017e-07 -6.0425321447e-04 0.0000000000e+00 
          -5.1957956720e-07 -6.0442381547e-04 0.0000000000e+00 
          -5.4752589273e-07 -6.0456325719e-04 0.0000000000e+00 
          -5.6935321542e-07 -6.0467185262e-04 0.0000000000e+00 
          -5.8497888271e-07 -6.0474935135e-04 0.0000000000e+00 
          -5.9437895023e-07 -6.0479580714e-04 0.0000000000e+00 
          2.5063583242e-06 -5.8242475938e-04 0.0000000000e+00 
          2.4084261859e-06 -5.8358745768e-04 0.0000000000e+00 
          2.3071289331e-06 -5.8471922473e-04 0.0000000000e+00 
          2.2028314643e-06 -5.8581994185e-04 0.0000000000e+00 
          2.0959283043e-06 -5.8688964842e-04 0.0000000000e+00 
          1.9867999355e-06 -5.8792836624e-04 0.0000000000e+00 
          1.8758323433e-06 -5.8893610930e-04 0.0000000000e+00 
          1.7634178464e-06 -5.8991272574e-04 0.0000000000e+00 
          1.6499344352e-06 -5.9085852438e-04 0.0000000000e+00 
          1.5357787973e-06 -5.9177312317e-04 0.0000000000e+00 
          1.4213241659e-06 -5.9265686594e-04 0.0000000000e+00 
          1.3069496618e-06 -5.9350949648e-04 0.0000000000e+00 
          1.1930417788e-06 -5.9433120494e-04 0.0000000000e+00 
          1.0799566238e-06 -5.9512183736e-04 0.0000000000e+00 
          9.6806121062e-07 -5.9588151275e-04 0.0000000000e+00 
          8.5771984932e-07 -5.9661014812e-04 0.0000000000e+00 
          7.4927362152e-07 -5.9730780593e-04 0.0000000000e+00 
          6.4305649886e-07 -5.9797444738e-04 0.0000000000e+00 
          5.3941872107e-07 -5.9861002873e-04 0.0000000000e+00 
          4.3865798369e-07 -5.9921475942e-04 0.0000000000e+00 
          3.4109231063e-07 -5.9978823320e-04 0.0000000000e+00 
          2.4703711661e-07 -6.0033098403e-04 0.0000000000e+00 
          1.5672967298e-07 -6.0084250233e-04 0.0000000000e+00 
          7.0505059787e-08 -6.0132312185e-04 0.0000000000e+00 
          -1.1429900988e-08 -6.0177275041e-04 0.0000000000e+00 
          -8.8810764162e-08 -6.0219126533e-04 0.0000000000e+00 
          -1.6139145520e-07 -6.0257894106e-04 0.0000000000e+00 
          -2.2900030435e-07 -6.0293541532e-04 0.0000000000e+00 
          -2.9138840332e-07 -6.0326105896e-04 0.0000000000e+00 
          -3.4840419931e-07 -6.0355559075e-04 0.0000000000e+00 
          -3.9988023792e-07 -6.0381913743e-04 0.0000000000e+00 
          -4.4564298366e-07 -6.0405170872e-04 0.0000000000e+00 
          -4.8559020017e-07 -6.0425321447e-04 0.0000000000e+00 
          -5.1957956720e-07 -6.0442381547e-04 0.0000000000e+00 
          -5.4752589273e-07 -6.0456325719e-04 0.0000000000e+00 
          -5.6935321542e-07 -6.0467185262e-04 0.0000000000e+00 
          -5.8497888271e-07 -6.0474935135e-04 0.0000000000e+00 
          -5.9437895023e-07 -6.0479580714e-04 0.0000000000e+00 
        </DataArray>
        <DataArray type="Float64" Name="Acceleration" NumberOfComponents="3" format="ascii">
          -3.7095281074e-04 1.5842512223e-06 0.0000000000e+00 
          -3.7095281074e-04 1.5842512223e-06 0.0000000000e+00 
          5.6494342937e-04 3.7501691979e-05 0.0000000000e+00 
          5.6494342937e-04 3.7501691979e-05 0.0000000000e+00 
          -3.3805024356e-04 9.9153803265e-06 0.0000000000e+00 
          -3.0321552881e-04 -1.3792425661e-05 0.0000000000e+00 
          -2.7031369411e-04 8.1239280119e-06 0.0000000000e+00 
          -2.3477791933e-04 7.5896683288e-07 0.0000000000e+00 
          -2.0049571520e-04 -3.1691715603e-06 0.0000000000e+00 
          -1.6573075712e-04 -5.9226701125e-06 0.0000000000e+00 
          -1.3035605829e-04 2.1914433630e-05 0.0000000000e+00 
          -9.6311297837e-05 -3.3973248937e-05 0.0000000000e+00 
          -6.0568943333e-05 3.4870559195e-05 0.0000000000e+00 
          -2.6953333291e-05 -2.7290556963e-05 0.0000000000e+00 
          7.2330410569e-06 1.9292499790e-05 0.0000000000e+00 
          4.2043479743e-05 -1.5184361463e-05 0.0000000000e+00 
          7.4129412232e-05 1.2562679249e-05 0.0000000000e+00 
          1.0719809716e-04 -8.8868690387e-06 0.0000000000e+00 
          1.4001030663e-04 5.9034942121e-06 0.0000000000e+00 
          1.7076830660e-04 -5.0112526741e-06 0.0000000000e+00 
          2.0084677488e-04 1.8053753712e-06 0.0000000000e+00 
          2.3240406677e-04 9.6902847995e-06 0.0000000000e+00 
          2.5921538829e-04 -2.8193902630e-05 0.0000000000e+00 
          2.8789359484e-04 4.5300502394e-05 0.0000000000e+00 
          3.1630109455e-04 -5.1066664873e-05 0.0000000000e+00 
          3.3767971014e-04 4.0759825681e-05 0.0000000000e+00 
          3.6786122587e-04 -1.9491646994e-05 0.0000000000e+00 
          3.8651650480e-04 -2.6538911163e-06 0.0000000000e+00 
          4.1033318739e-04 1.9335757051e-05 0.0000000000e+00 
          4.3250498944e-04 -3.0119867316e-05 0.0000000000e+00 
          4.4797277167e-04 3.5163753495e-05 0.0000000000e+00 
          4.7039290034e-04 -3.1738362269e-05 0.0000000000e+00 
          4.8406272982e-04 1.9095018186e-05 0.0000000000e+00 
          4.9914308082e-04 -3.8250167606e-06 0.0000000000e+00 
          5.1477896953e-04 -5.5781094450e-06 0.0000000000e+00 
          5.2398633029e-04 1.0624709459e-05 0.0000000000e+00 
          5.3681903156e-04 -1.8254210867e-05 0.0000000000e+00 
          5.4448997395e-04 2.7560799217e-05 0.0000000000e+00 
          5.5133423909e-04 -2.8841213296e-05 0.0000000000e+00 
          5.5877993233e-04 1.6268758974e-05 0.0000000000e+00 
          5.6094102807e-04 6.6178186308e-06 0.0000000000e+00 
          5.6449293292e-04 -2.8430286256e-05 0.0000000000e+00 
          -3.3805024356e-04 9.9153803265e-06 0.0000000000e+00 
          -3.0321552881e-04 -1.3792425661e-05 0.0000000000e+00 
          -2.7031369411e-04 8.1239280119e-06 0.0000000000e+00 
          -2.3477791933e-04 7.5896683288e-07 0.0000000000e+00 
          -2.0049571520e-04 -3.1691715603e-06 0.0000000000e+00 
          -1.6573075712e-04 -5.9226701125e-06 0.0000000000e+00 
          -1.3035605829e-04 2.1914433630e-05 0.0000000000e+00 
          -9.6311297837e-05 -3.3973248937e-05 0.0000000000e+00 
          -6.0568943333e-05 3.4870559195e-05 0.0000000000e+00 
          -2.6953333291e-05 -2.7290556963e-05 0.0000000000e+00 
          7.2330410569e-06 1.9292499790e-05 0.0000000000e+00 
          4.2043479743e-05 -1.5184361463e-05 0.0000000000e+00 
          7.4129412232e-05 1.2562679249e-05 0.0000000000e+00 
          1.0719809716e-04 -8.8868690387e-06 0.0000000000e+00 
          1.4001030663e-04 5.9034942121e-06 0.0000000000e+00 
          1.7076830660e-04 -5.0112526741e-06 0.0000000000e+00 
          2.0084677488e-04 1.8053753712e-06 0.0000000000e+00 
          2.3240406677e-04 9.6902847995e-06 0.0000000000e+00 
          2.5921538829e-04 -2.8193902630e-05 0.0000000000e+00 
          2.8789359484e-04 4.5300502394e-05 0.0000000000e+00 
          3.1630109455e-04 -5.1066664873e-05 0.0000000000e+00 
          3.3767971014e-04 4.0759825681e-05 0.0000000000e+00 
          3.6786122587e-04 -1.9491646994e-05 0.0000000000e+00 
          3.8651650480e-04 -2.6538911163e-06 0.0000000000e+00 
          4.1033318739e-04 1.9335757051e-05 0.0000000000e+00 
          4.3250498944e-04 -3.0119867316e-05 0.0000000000e+00 
          4.4797277167e-04 3.5163753495e-05 0.0000000000e+00 
          4.7039290034e-04 -3.1738362269e-05 0.0000000000e+00 
          4.8406272982e-04 1.9095018186e-05 0.0000000000e+00 
          4.9914308082e-04 -3.8250167606e-06 0.0000000000e+00 
          5.1477896953e-04 -5.5781094450e-06 0.0000000000e+00 
          5.2398633029e-04 1.0624709459e-05 0.0000000000e+00 
          5.3681903156e-04 -1.8254210867e-05 0.0000000000e+00 
          5.4448997395e-04 2.7560799217e-05 0.0000000000e+00 
          5.5133423909e-04 -2.8841213296e-05 0.0000000000e+00 
          5.5877993233e-04 1.6268758974e-05 0.0000000000e+00 
          5.6094102807e-04 6.6178186308e-06 0.0000000000e+00 
          5.6449293292e-04 -2.8430286256e-05 0.0000000000e+00 
        </DataArray>
        <DataArray type="Float64" Name="Reaction" NumberOfComponents="3" format="ascii">
          0.0000000000e+00 0.0000000000e+00 0.0000000000e+00 
          0.0000000000e+00 0.0000000000e+00 0.0000000000e+00 
          0.0000000000e+00 0.0000000000e+00 0.0000000000e+00 
          0.0000000000e+00 0.0000000000e+00 0.0000000000e+00 
          0.0000000000e+00 0.0000000000e+00 0.0000000000e+00 
          0.0000000000e+00 0.0000000000e+00 0.0000000000e+00 
          0.0000000000e+00 0.0000000000e+00 0.0000000000e+00 
          0.0000000000e+00 0.0000000000e+00 0.0000000000e+00 
          0.0000000000e+00 0.0000000000e+00 0.0000000000e+00 
          0.0000000000e+00 0.0000000000e+00 0.0000000000e+00 
          0.0000000000e+00 0.0000000000e+00 0.0000000000e+00 
          0.0000000000e+00 0.0000000000e+00 0.0000000000e+00 
          0.0000000000e+00 0.0000000000e+00 0.0000000000e+00 
          0.0000000000e+00 0.0000000000e+00 0.0000000000e+00 
          0.0000000000e+00 0.0000000000e+00 0.0000000000e+00 
          0.0000000000e+00 0.0000000000e+00 0.0000000000e+00 
          0.0000000000e+00 0.0000000000e+00 0.0000000000e+00 
          0.0000000000e+00 0.0000000000e+00 0.0000000000e+00 
          0.0000000000e+00 0.0000000000e+00 0.0000000000e+00 
          0.0000000000e+00 0.0000000000e+00 0.0000000000e+00 
          0.0000000000e+00 0.0000000000e+00 0.0000000000e+00 
          0.0000000000e+00 0.0000000000e+00 0.0000000000e+00 
          0.0000000000e+00 0.0000000000e+00 0.0000000000e+00 
          0.0000000000e+00 0.0000000000e+00 0.0000000000e+00 
          0.0000000000e+00 0.0000000000e+00 0.0000000000e+00 
          0.0000000000e+00 0.0000000000e+00 0.0000000000e+00 
          0.0000000000e+00 0.0000000000e+00 0.0000000000e+00 
          0.0000000000e+00 0.0000000000e+00 0.0000000000e+00 
          0.0000000000e+00 0.0000000000e+00 0.0000000000e+00 
          0.0000000000e+00 0.0000000000e+00 0.0000000000e+00 
          0.0000000000e+00 0.0000000000e+00 0.0000000000e+00 
          0.0000000000e+00 0.0000000000e+00 0.0000000000e+00 
          0.0000000000e+00 0.0000000000e+00 0.0000000000e+00 
          0.0000000000e+00 0.0000000000e+00 0.0000000000e+00 
          0.0000000000e+00 0.0000000000e+00 0.0000000000e+00 
          0.0000000000e+00 0.0000000000e+00 0.0000000000e+00 
          0.0000000000e+00 0.0000000000e+00 0.0000000000e+00 
          0.0000000000e+00 0.0000000000e+00 0.0000000000e+00 
          0.0000000000e+00 0.0000000000e+00 0.0000000000e+00 
          0.0000000000e+00 0.0000000000e+00 0.0000000000e+00 
          0.0000000000e+00 0.0000000000e+00 0.0000000000e+00 
          0.0000000000e+00 0.0000000000e+00 0.0000000000e+00 
          0.0000000000e+00 0.0000000000e+00 0.0000000000e+00 
          0.0000000000e+00 0.0000000000e+00 0.0000000000e+00 
          0.0000000000e+00 0.0000000000e+00 0.0000000000e+00 
          0.0000000000e+00 0.0000000000e+00 0.0000000000e+00 
          0.0000000000e+00 0.0000000000e+00 0.0000000000e+00 
          0.0000000000e+00 0.0000000000e+00 0.0000000000e+00 
          0.0000000000e+00 0.0000000000e+00 0.0000000000e+00 
          0.0000000000e+00 0.0000000000e+00 0.0000000000e+00 
          0.0000000000e+00 0.0000000000e+00 0.0000000000e+00 
          0.0000000000e+00 0.0000000000e+00 0.0000000000e+00 
          0.0000000000e+00 0.0000000000e+00 0.0000000000e+00 
          0.0000000000e+00 0.0000000000e+00 0.0000000000e+00 
          0.0000000000e+00 0.0000000000e+00 0.0000000000e+00 
          0.0000000000e+00 0.0000000000e+00 0.0000000000e+00 
          0.0000000000e+00 0.0000000000e+00 0.0000000000e+00 
          0.0000000000e+00 0.0000000000e+00 0.0000000000e+00 
          0.0000000000e+00 0.0000000000e+00 0.0000000000e+00 
          0.0000000000e+00 0.0000000000e+00 0.0000000000e+00 
          0.0000000000e+00 0.0000000000e+00 0.0000000000e+00 
          0.0000000000e+00 0.0000000000e+00 0.0000000000e+00 
          0.0000000000e+00 0.0000000000e+00 0.0000000000e+00 
          0.0000000000e+00 0.0000000000e+00 0.0000000000e+00 
          0.0000000000e+00 0.0000000000e+00 0.0000000000e+00 
          0.0000000000e+00 0.0000000000e+00 0.0000000000e+00 
          0.0000000000e+00 0.0000000000e+00 0.0000000000e+00 
          0.0000000000e+00 0.0000000000e+00 0.0000000000e+00 
          0.0000000000e+00 0.0000000000e+00 0.0000000000e+00 
          0.0000000000e+00 0.0000000000e+00 0.0000000000e+00 
          0.0000000000e+00 0.0000000000e+00 0.0000000000e+00 
          0.0000000000e+00 0.0000000000e+00 0.0000000000e+00 
          0.0000000000e+00 0.0000000000e+00 0.0000000000e+00 
          0.0000000000e+00 0.0000000000e+00 0.0000000000e+00 
          0.0000000000e+00 0.0000000000e+00 0.0000000000e+00 
          0.0000000000e+00 0.0000000000e+00 0.0000000000e+00 
          0.0000000000e+00 0.0000000000e+00 0.0000000000e+00 
          0.0000000000e+00 0.0000000000e+00 0.0000000000e+00 
          0.0000000000e+00 0.0000000000e+00 0.0000000000e+00 
          0.0000000000e+00 0.0000000000e+00 0.0000000000e+00 
        </DataArray>
      </PointData>
      <CellData>
        <DataArray type="Int64" Name="ElementTag" format="ascii">
          90
          91
          92
          93
          94
          95
          96
          97
          98
          99
          100
          101
          102
          103
          104
          105
          106
          107
          108
          109
          110
          111
          112
          113
          114
          115
          116
          117
          118
          119
          120
          121
          122
          123
          124
          125
          126
          127
          128
        </DataArray>
      </CellData>
    </Piece>
  </UnstructuredGrid>
</VTKFile>
