<?xml version="1.0"?>
<VTKFile type="UnstructuredGrid" version="1.0" byte_order="LittleEndian" compressor="vtkZLibDataCompressor">
  <UnstructuredGrid>
    <Piece NumberOfPoints="82" NumberOfCells="1">
      <Points>
        <DataArray type="Float64" Name="Points" NumberOfComponents="3" format="ascii">
          0.0000000000e+00 0.0000000000e+00 0.0000000000e+00 
          2.5000000000e-01 0.0000000000e+00 0.0000000000e+00 
          2.5000000000e-01 3.0000000000e+01 0.0000000000e+00 
          0.0000000000e+00 3.0000000000e+01 0.0000000000e+00 
          0.0000000000e+00 -5.0000000000e+00 0.0000000000e+00 
          2.5000000000e-01 -5.0000000000e+00 0.0000000000e+00 
          2.5000000000e-01 7.6923100000e-01 0.0000000000e+00 
          2.5000000000e-01 1.5384620000e+00 0.0000000000e+00 
          2.5000000000e-01 2.3076920000e+00 0.0000000000e+00 
          2.5000000000e-01 3.0769230000e+00 0.0000000000e+00 
          2.5000000000e-01 3.8461540000e+00 0.0000000000e+00 
          2.5000000000e-01 4.6153850000e+00 0.0000000000e+00 
          2.5000000000e-01 5.3846150000e+00 0.0000000000e+00 
          2.5000000000e-01 6.1538460000e+00 0.0000000000e+00 
          2.5000000000e-01 6.9230770000e+00 0.0000000000e+00 
          2.5000000000e-01 7.6923080000e+00 0.0000000000e+00 
          2.5000000000e-01 8.4615380000e+00 0.0000000000e+00 
          2.5000000000e-01 9.2307690000e+00 0.0000000000e+00 
          2.5000000000e-01 1.0000000000e+01 0.0000000000e+00 
          2.5000000000e-01 1.0769231000e+01 0.0000000000e+00 
          2.5000000000e-01 1.1538462000e+01 0.0000000000e+00 
          2.5000000000e-01 1.2307692000e+01 0.0000000000e+00 
          2.5000000000e-01 1.3076923000e+01 0.0000000000e+00 
          2.5000000000e-01 1.3846154000e+01 0.0000000000e+00 
          2.5000000000e-01 1.4615385000e+01 0.0000000000e+00 
          2.5000000000e-01 1.5384615000e+01 0.0000000000e+00 
          2.5000000000e-01 1.6153846000e+01 0.0000000000e+00 
          2.5000000000e-01 1.6923077000e+01 0.0000000000e+00 
          2.5000000000e-01 1.7692308000e+01 0.0000000000e+00 
          2.5000000000e-01 1.8461538000e+01 0.0000000000e+00 
          2.5000000000e-01 1.9230769000e+01 0.0000000000e+00 
          2.5000000000e-01 2.0000000000e+01 0.0000000000e+00 
          2.5000000000e-01 2.0769231000e+01 0.0000000000e+00 
          2.5000000000e-01 2.1538462000e+01 0.0000000000e+00 
          2.5000000000e-01 2.2307692000e+01 0.0000000000e+00 
          2.5000000000e-01 2.3076923000e+01 0.0000000000e+00 
          2.5000000000e-01 2.3846154000e+01 0.0000000000e+00 
          2.5000000000e-01 2.4615385000e+01 0.0000000000e+00 
          2.5000000000e-01 2.5384615000e+01 0.0000000000e+00 
          2.5000000000e-01 2.6153846000e+01 0.0000000000e+00 
          2.5000000000e-01 2.6923077000e+01 0.0000000000e+00 
          2.5000000000e-01 2.7692308000e+01 0.0000000000e+00 
          2.5000000000e-01 2.8461538000e+01 0.0000000000e+00 
          2.5000000000e-01 2.9230769000e+01 0.0000000000e+00 
          0.0000000000e+00 7.6923100000e-01 0.0000000000e+00 
          0.0000000000e+00 1.5384620000e+00 0.0000000000e+00 
          0.0000000000e+00 2.3076920000e+00 0.0000000000e+00 
          0.0000000000e+00 3.0769230000e+00 0.0000000000e+00 
          0.0000000000e+00 3.8461540000e+00 0.0000000000e+00 
          0.0000000000e+00 4.6153850000e+00 0.0000000000e+00 
          0.0000000000e+00 5.3846150000e+00 0.0000000000e+00 
          0.0000000000e+00 6.1538460000e+00 0.0000000000e+00 
          0.0000000000e+00 6.9230770000e+00 0.0000000000e+00 
          0.0000000000e+00 7.6923080000e+00 0.0000000000e+00 
          0.0000000000e+00 8.4615380000e+00 0.0000000000e+00 
          0.0000000000e+00 9.2307690000e+00 0.0000000000e+00 
          0.0000000000e+00 1.0000000000e+01 0.0000000000e+00 
          0.0000000000e+00 1.0769231000e+01 0.0000000000e+00 
          0.0000000000e+00 1.1538462000e+01 0.0000000000e+00 
          0.0000000000e+00 1.2307692000e+01 0.0000000000e+00 
          0.0000000000e+00 1.3076923000e+01 0.0000000000e+00 
          0.0000000000e+00 1.3846154000e+01 0.0000000000e+00 
          0.0000000000e+00 1.4615385000e+01 0.0000000000e+00 
          0.0000000000e+00 1.5384615000e+01 0.0000000000e+00 
          0.0000000000e+00 1.6153846000e+01 0.0000000000e+00 
          0.0000000000e+00 1.6923077000e+01 0.0000000000e+00 
          0.0000000000e+00 1.7692308000e+01 0.0000000000e+00 
          0.0000000000e+00 1.8461538000e+01 0.0000000000e+00 
          0.0000000000e+00 1.9230769000e+01 0.0000000000e+00 
          0.0000000000e+00 2.0000000000e+01 0.0000000000e+00 
          0.0000000000e+00 2.0769231000e+01 0.0000000000e+00 
          0.0000000000e+00 2.1538462000e+01 0.0000000000e+00 
          0.0000000000e+00 2.2307692000e+01 0.0000000000e+00 
          0.0000000000e+00 2.3076923000e+01 0.0000000000e+00 
          0.0000000000e+00 2.3846154000e+01 0.0000000000e+00 
          0.0000000000e+00 2.4615385000e+01 0.0000000000e+00 
          0.0000000000e+00 2.5384615000e+01 0.0000000000e+00 
          0.0000000000e+00 2.6153846000e+01 0.0000000000e+00 
          0.0000000000e+00 2.6923077000e+01 0.0000000000e+00 
          0.0000000000e+00 2.7692308000e+01 0.0000000000e+00 
          0.0000000000e+00 2.8461538000e+01 0.0000000000e+00 
          0.0000000000e+00 2.9230769000e+01 0.0000000000e+00 
        </DataArray>
      </Points>
      <Cells>
        <DataArray type="Int64" Name="connectivity" format="ascii">
          0
          1
          2
          3
          4
          5
          6
          7
          8
          9
          10
          11
          12
          13
          14
          15
          16
          17
          18
          19
          20
          21
          22
          23
          24
          25
          26
          27
          28
          29
          30
          31
          32
          33
          34
          35
          36
          37
          38
          39
          40
          41
          42
          43
          44
          45
          46
          47
          48
          49
          50
          51
          52
          53
          54
          55
          56
          57
          58
          59
          60
          61
          62
          63
          64
          65
          66
          67
          68
          69
          70
          71
          72
          73
          74
          75
          76
          77
          78
          79
          80
          81
        </DataArray>
        <DataArray type="Int64" Name="offsets" format="ascii">
          82
        </DataArray>
        <DataArray type="Int64" Name="types" format="ascii">
          2
        </DataArray>
      </Cells>
      <PointData>
        <DataArray type="Int64" Name="NodeTag" format="ascii">
          1
          2
          3
          4
          5
          6
          7
          8
          9
          10
          11
          12
          13
          14
          15
          16
          17
          18
          19
          20
          21
          22
          23
          24
          25
          26
          27
          28
          29
          30
          31
          32
          33
          34
          35
          36
          37
          38
          39
          40
          41
          42
          43
          44
          45
          46
          47
          48
          49
          50
          51
          52
          53
          54
          55
          56
          57
          58
          59
          60
          61
          62
          63
          64
          65
          66
          67
          68
          69
          70
          71
          72
          73
          74
          75
          76
          77
          78
          79
          80
          81
          82
        </DataArray>
        <DataArray type="Float64" Name="Velocity" NumberOfComponents="3" format="ascii">
          7.6558468130e-05 -7.7844126377e-05 0.0000000000e+00 
          7.6558468130e-05 -7.7844126377e-05 0.0000000000e+00 
          2.9894968110e-04 -7.7854693585e-05 0.0000000000e+00 
          2.9894968110e-04 -7.7854693585e-05 0.0000000000e+00 
          0.0000000000e+00 0.0000000000e+00 0.0000000000e+00 
          0.0000000000e+00 0.0000000000e+00 0.0000000000e+00 
          8.6692736228e-05 -7.7843028888e-05 0.0000000000e+00 
          9.6665197731e-05 -7.7840985388e-05 0.0000000000e+00 
          1.0648076800e-04 -7.7865623980e-05 0.0000000000e+00 
          1.1611408601e-04 -7.7815028358e-05 0.0000000000e+00 
          1.2557428155e-04 -7.7878604402e-05 0.0000000000e+00 
          1.3484613935e-04 -7.7815015996e-05 0.0000000000e+00 
          1.4392040990e-04 -7.7876000496e-05 0.0000000000e+00 
          1.5280187013e-04 -7.7821564291e-05 0.0000000000e+00 
          1.6147007871e-04 -7.7858012288e-05 0.0000000000e+00 
          1.6992567783e-04 -7.7853832307e-05 0.0000000000e+00 
          1.7816853442e-04 -7.7824815430e-05 0.0000000000e+00 
          1.8617614120e-04 -7.7876154553e-05 0.0000000000e+00 
          1.9396327619e-04 -7.7816399569e-05 0.0000000000e+00 
          2.0150556456e-04 -7.7875556551e-05 0.0000000000e+00 
          2.0880588350e-04 -7.7821791080e-05 0.0000000000e+00 
          2.1586715736e-04 -7.7870054832e-05 0.0000000000e+00 
          2.2266122761e-04 -7.7831318115e-05 0.0000000000e+00 
          2.2920691095e-04 -7.7854887602e-05 0.0000000000e+00 
          2.3548491349e-04 -7.7850986028e-05 0.0000000000e+00 
          2.4149137744e-04 -7.7842910151e-05 0.0000000000e+00 
          2.4722996865e-04 -7.7844944685e-05 0.0000000000e+00 
          2.5268220678e-04 -7.7861157284e-05 0.0000000000e+00 
          2.5785602792e-04 -7.7836554446e-05 0.0000000000e+00 
          2.6273916429e-04 -7.7846349171e-05 0.0000000000e+00 
          2.6733090368e-04 -7.7874083724e-05 0.0000000000e+00 
          2.7162268700e-04 -7.7795096926e-05 0.0000000000e+00 
          2.7561930932e-04 -7.7923050104e-05 0.0000000000e+00 
          2.7930731577e-04 -7.7782392034e-05 0.0000000000e+00 
          2.8268321825e-04 -7.7865586679e-05 0.0000000000e+00 
          2.8576118549e-04 -7.7891318062e-05 0.0000000000e+00 
          2.8850682047e-04 -7.7771610176e-05 0.0000000000e+00 
          2.9094777112e-04 -7.7918821071e-05 0.0000000000e+00 
          2.9306840103e-04 -7.7809072331e-05 0.0000000000e+00 
          2.9485500769e-04 -7.7854421068e-05 0.0000000000e+00 
          2.9633676463e-04 -7.7855682521e-05 0.0000000000e+00 
          2.9747614640e-04 -7.7842217745e-05 0.0000000000e+00 
          2.9829583336e-04 -7.7851757088e-05 0.0000000000e+00 
          2.9879323751e-04 -7.7841678961e-05 0.0000000000e+00 
          8.6692736228e-05 -7.7843028888e-05 0.0000000000e+00 
          9.6665197731e-05 -7.7840985388e-05 0.0000000000e+00 
          1.0648076800e-04 -7.7865623980e-05 0.0000000000e+00 
          1.1611408601e-04 -7.7815028358e-05 0.0000000000e+00 
          1.2557428155e-04 -7.7878604402e-05 0.0000000000e+00 
          1.3484613935e-04 -7.7815015996e-05 0.0000000000e+00 
          1.4392040990e-04 -7.7876000496e-05 0.0000000000e+00 
          1.5280187013e-04 -7.7821564291e-05 0.0000000000e+00 
          1.6147007871e-04 -7.7858012288e-05 0.0000000000e+00 
          1.6992567783e-04 -7.7853832307e-05 0.0000000000e+00 
          1.7816853442e-04 -7.7824815430e-05 0.0000000000e+00 
          1.8617614120e-04 -7.7876154553e-05 0.0000000000e+00 
          1.9396327619e-04 -7.7816399569e-05 0.0000000000e+00 
          2.0150556456e-04 -7.7875556551e-05 0.0000000000e+00 
          2.0880588350e-04 -7.7821791080e-05 0.0000000000e+00 
          2.1586715736e-04 -7.7870054832e-05 0.0000000000e+00 
          2.2266122761e-04 -7.7831318115e-05 0.0000000000e+00 
          2.2920691095e-04 -7.7854887602e-05 0.0000000000e+00 
          2.3548491349e-04 -7.7850986028e-05 0.0000000000e+00 
          2.4149137744e-04 -7.7842910151e-05 0.0000000000e+00 
          2.4722996865e-04 -7.7844944685e-05 0.0000000000e+00 
          2.5268220678e-04 -7.7861157284e-05 0.0000000000e+00 
          2.5785602792e-04 -7.7836554446e-05 0.0000000000e+00 
          2.6273916429e-04 -7.7846349171e-05 0.0000000000e+00 
          2.6733090368e-04 -7.7874083724e-05 0.0000000000e+00 
          2.7162268700e-04 -7.7795096926e-05 0.0000000000e+00 
          2.7561930932e-04 -7.7923050104e-05 0.0000000000e+00 
          2.7930731577e-04 -7.7782392034e-05 0.0000000000e+00 
          2.8268321825e-04 -7.7865586679e-05 0.0000000000e+00 
          2.8576118549e-04 -7.7891318062e-05 0.0000000000e+00 
          2.8850682047e-04 -7.7771610176e-05 0.0000000000e+00 
          2.9094777112e-04 -7.7918821071e-05 0.0000000000e+00 
          2.9306840103e-04 -7.7809072331e-05 0.0000000000e+00 
          2.9485500769e-04 -7.7854421068e-05 0.0000000000e+00 
          2.9633676463e-04 -7.7855682521e-05 0.0000000000e+00 
          2.9747614640e-04 -7.7842217745e-05 0.0000000000e+00 
          2.9829583336e-04 -7.7851757088e-05 0.0000000000e+00 
          2.9879323751e-04 -7.7841678961e-05 0.0000000000e+00 
        </DataArray>
        <DataArray type="Float64" Name="Displacement" NumberOfComponents="3" format="ascii">
          -5.7720441415e-06 -5.2518295386e-04 0.0000000000e+00 
          -5.7720441415e-06 -5.2518295386e-04 0.0000000000e+00 
          2.7205228548e-05 -5.4876350604e-04 0.0000000000e+00 
          2.7205228548e-05 -5.4876350604e-04 0.0000000000e+00 
          0.0000000000e+00 0.0000000000e+00 0.0000000000e+00 
          0.0000000000e+00 0.0000000000e+00 0.0000000000e+00 
          -4.4972497698e-06 -5.2637669181e-04 0.0000000000e+00 
          -3.2181148157e-06 -5.2753945077e-04 0.0000000000e+00 
          -1.9371392333e-06 -5.2867121002e-04 0.0000000000e+00 
          -6.5677621559e-07 -5.2977189554e-04 0.0000000000e+00 
          6.2046323361e-07 -5.3084163404e-04 0.0000000000e+00 
          1.8921627246e-06 -5.3188042306e-04 0.0000000000e+00 
          3.1558414495e-06 -5.3288798876e-04 0.0000000000e+00 
          4.4091038635e-06 -5.3386486905e-04 0.0000000000e+00 
          5.6495685939e-06 -5.3481043465e-04 0.0000000000e+00 
          6.8748356367e-06 -5.3572517128e-04 0.0000000000e+00 
          8.0826282666e-06 -5.3660893950e-04 0.0000000000e+00 
          9.2706340228e-06 -5.3746144654e-04 0.0000000000e+00 
          1.0436617806e-05 -5.3828330478e-04 0.0000000000e+00 
          1.1578402425e-05 -5.3907387276e-04 0.0000000000e+00 
          1.2693819675e-05 -5.3983354041e-04 0.0000000000e+00 
          1.3780816940e-05 -5.4056222835e-04 0.0000000000e+00 
          1.4837345549e-05 -5.4125986660e-04 0.0000000000e+00 
          1.5861446952e-05 -5.4192650269e-04 0.0000000000e+00 
          1.6851237074e-05 -5.4256213194e-04 0.0000000000e+00 
          1.7804858678e-05 -5.4316679141e-04 0.0000000000e+00 
          1.8720586673e-05 -5.4374039801e-04 0.0000000000e+00 
          1.9596708959e-05 -5.4428299514e-04 0.0000000000e+00 
          2.0431636871e-05 -5.4479466263e-04 0.0000000000e+00 
          2.1223830370e-05 -5.4527519510e-04 0.0000000000e+00 
          2.1971853837e-05 -5.4572486243e-04 0.0000000000e+00 
          2.2674333488e-05 -5.4614338617e-04 0.0000000000e+00 
          2.3330001874e-05 -5.4653103923e-04 0.0000000000e+00 
          2.3937666749e-05 -5.4688755625e-04 0.0000000000e+00 
          2.4496214106e-05 -5.4721316235e-04 0.0000000000e+00 
          2.5004666226e-05 -5.4750773394e-04 0.0000000000e+00 
          2.5462066870e-05 -5.4777123540e-04 0.0000000000e+00 
          2.5867615643e-05 -5.4800386610e-04 0.0000000000e+00 
          2.6220579573e-05 -5.4820534255e-04 0.0000000000e+00 
          2.6520316785e-05 -5.4837593479e-04 0.0000000000e+00 
          2.6766294877e-05 -5.4851540037e-04 0.0000000000e+00 
          2.6958070032e-05 -5.4862399565e-04 0.0000000000e+00 
          2.7095295298e-05 -5.4870147249e-04 0.0000000000e+00 
          2.7177733270e-05 -5.4874798250e-04 0.0000000000e+00 
          -4.4972497698e-06 -5.2637669181e-04 0.0000000000e+00 
          -3.2181148157e-06 -5.2753945077e-04 0.0000000000e+00 
          -1.9371392333e-06 -5.2867121002e-04 0.0000000000e+00 
          -6.5677621559e-07 -5.2977189554e-04 0.0000000000e+00 
          6.2046323361e-07 -5.3084163404e-04 0.0000000000e+00 
          1.8921627246e-06 -5.3188042306e-04 0.0000000000e+00 
          3.1558414495e-06 -5.3288798876e-04 0.0000000000e+00 
          4.4091038635e-06 -5.3386486905e-04 0.0000000000e+00 
          5.6495685939e-06 -5.3481043465e-04 0.0000000000e+00 
          6.8748356367e-06 -5.3572517128e-04 0.0000000000e+00 
          8.0826282666e-06 -5.3660893950e-04 0.0000000000e+00 
          9.2706340228e-06 -5.3746144654e-04 0.0000000000e+00 
          1.0436617806e-05 -5.3828330478e-04 0.0000000000e+00 
          1.1578402425e-05 -5.3907387276e-04 0.0000000000e+00 
          1.2693819675e-05 -5.3983354041e-04 0.0000000000e+00 
          1.3780816940e-05 -5.4056222835e-04 0.0000000000e+00 
          1.4837345549e-05 -5.4125986660e-04 0.0000000000e+00 
          1.5861446952e-05 -5.4192650269e-04 0.0000000000e+00 
          1.6851237074e-05 -5.4256213194e-04 0.0000000000e+00 
          1.7804858678e-05 -5.4316679141e-04 0.0000000000e+00 
          1.8720586673e-05 -5.4374039801e-04 0.0000000000e+00 
          1.9596708959e-05 -5.4428299514e-04 0.0000000000e+00 
          2.0431636871e-05 -5.4479466263e-04 0.0000000000e+00 
          2.1223830370e-05 -5.4527519510e-04 0.0000000000e+00 
          2.1971853837e-05 -5.4572486243e-04 0.0000000000e+00 
          2.2674333488e-05 -5.4614338617e-04 0.0000000000e+00 
          2.3330001874e-05 -5.4653103923e-04 0.0000000000e+00 
          2.3937666749e-05 -5.4688755625e-04 0.0000000000e+00 
          2.4496214106e-05 -5.4721316235e-04 0.0000000000e+00 
          2.5004666226e-05 -5.4750773394e-04 0.0000000000e+00 
          2.5462066870e-05 -5.4777123540e-04 0.0000000000e+00 
          2.5867615643e-05 -5.4800386610e-04 0.0000000000e+00 
          2.6220579573e-05 -5.4820534255e-04 0.0000000000e+00 
          2.6520316785e-05 -5.4837593479e-04 0.0000000000e+00 
          2.6766294877e-05 -5.4851540037e-04 0.0000000000e+00 
          2.6958070032e-05 -5.4862399565e-04 0.0000000000e+00 
          2.7095295298e-05 -5.4870147249e-04 0.0000000000e+00 
          2.7177733270e-05 -5.4874798250e-04 0.0000000000e+00 
        </DataArray>
        <DataArray type="Float64" Name="Acceleration" NumberOfComponents="3" format="ascii">
          6.1474490786e-04 1.2917310233e-07 0.0000000000e+00 
          6.1474490786e-04 1.2917310233e-07 0.0000000000e+00 
          -4.9547576281e-03 7.3404472261e-06 0.0000000000e+00 
          -4.9547576281e-03 7.3404472261e-06 0.0000000000e+00 
          0.0000000000e+00 0.0000000000e+00 0.0000000000e+00 
          0.0000000000e+00 0.0000000000e+00 0.0000000000e+00 
          3.9109504923e-04 -4.9260794766e-06 0.0000000000e+00 
          1.6599440055e-04 -1.4575239932e-06 0.0000000000e+00 
          -5.5343371852e-05 1.2413543096e-05 0.0000000000e+00 
          -2.8143969170e-04 -1.0688797446e-05 0.0000000000e+00 
          -4.9916117290e-04 -1.0246518142e-05 0.0000000000e+00 
          -7.2253932321e-04 3.8870741942e-05 0.0000000000e+00 
          -9.3867880367e-04 -5.7595604031e-05 0.0000000000e+00 
          -1.1530965639e-03 5.5569560358e-05 0.0000000000e+00 
          -1.3693416717e-03 -3.1965138919e-05 0.0000000000e+00 
          -1.5743386574e-03 -7.0364337851e-06 0.0000000000e+00 
          -1.7829790314e-03 4.6134339762e-05 0.0000000000e+00 
          -1.9842232954e-03 -6.4430150090e-05 0.0000000000e+00 
          -2.1803924067e-03 5.1165443929e-05 0.0000000000e+00 
          -2.3757520534e-03 -1.9104276673e-05 0.0000000000e+00 
          -2.5605711442e-03 -4.9641140543e-06 0.0000000000e+00 
          -2.7454151272e-03 7.9858507828e-06 0.0000000000e+00 
          -2.9217552927e-03 -7.5358494522e-07 0.0000000000e+00 
          -3.0915142120e-03 9.1637592070e-08 0.0000000000e+00 
          -3.2587454030e-03 -6.7258975821e-06 0.0000000000e+00 
          -3.4144027618e-03 8.5303876332e-06 0.0000000000e+00 
          -3.5685526984e-03 5.6511004121e-07 0.0000000000e+00 
          -3.7116944355e-03 -1.3820373319e-05 0.0000000000e+00 
          -3.8503646650e-03 2.3078837199e-05 0.0000000000e+00 
          -3.9799026062e-03 -2.5326581902e-05 0.0000000000e+00 
          -4.1035876774e-03 2.4731881113e-05 0.0000000000e+00 
          -4.2177874279e-03 -2.4445351815e-05 0.0000000000e+00 
          -4.3252111251e-03 2.3373243889e-05 0.0000000000e+00 
          -4.4255228480e-03 -1.7266386319e-05 0.0000000000e+00 
          -4.5137481533e-03 5.1563636175e-06 0.0000000000e+00 
          -4.5998387639e-03 1.1495005711e-05 0.0000000000e+00 
          -4.6719560163e-03 -2.4430560280e-05 0.0000000000e+00 
          -4.7379598709e-03 2.6610651534e-05 0.0000000000e+00 
          -4.7958769307e-03 -2.1957195178e-05 0.0000000000e+00 
          -4.8438028693e-03 2.1681380209e-05 0.0000000000e+00 
          -4.8837916977e-03 -2.4512086491e-05 0.0000000000e+00 
          -4.9150397791e-03 2.0185174699e-05 0.0000000000e+00 
          -4.9364626858e-03 -7.0971100327e-06 0.0000000000e+00 
          -4.9504452788e-03 -3.5790014905e-06 0.0000000000e+00 
          3.9109504923e-04 -4.9260794766e-06 0.0000000000e+00 
          1.6599440055e-04 -1.4575239932e-06 0.0000000000e+00 
          -5.5343371852e-05 1.2413543096e-05 0.0000000000e+00 
          -2.8143969170e-04 -1.0688797446e-05 0.0000000000e+00 
          -4.9916117290e-04 -1.0246518142e-05 0.0000000000e+00 
          -7.2253932321e-04 3.8870741942e-05 0.0000000000e+00 
          -9.3867880367e-04 -5.7595604031e-05 0.0000000000e+00 
          -1.1530965639e-03 5.5569560358e-05 0.0000000000e+00 
          -1.3693416717e-03 -3.1965138919e-05 0.0000000000e+00 
          -1.5743386574e-03 -7.0364337851e-06 0.0000000000e+00 
          -1.7829790314e-03 4.6134339762e-05 0.0000000000e+00 
          -1.9842232954e-03 -6.4430150090e-05 0.0000000000e+00 
          -2.1803924067e-03 5.1165443929e-05 0.0000000000e+00 
          -2.3757520534e-03 -1.9104276673e-05 0.0000000000e+00 
          -2.5605711442e-03 -4.9641140543e-06 0.0000000000e+00 
          -2.7454151272e-03 7.9858507828e-06 0.0000000000e+00 
          -2.9217552927e-03 -7.5358494522e-07 0.0000000000e+00 
          -3.0915142120e-03 9.1637592070e-08 0.0000000000e+00 
          -3.2587454030e-03 -6.7258975821e-06 0.0000000000e+00 
          -3.4144027618e-03 8.5303876332e-06 0.0000000000e+00 
          -3.5685526984e-03 5.6511004121e-07 0.0000000000e+00 
          -3.7116944355e-03 -1.3820373319e-05 0.0000000000e+00 
          -3.8503646650e-03 2.3078837199e-05 0.0000000000e+00 
          -3.9799026062e-03 -2.5326581902e-05 0.0000000000e+00 
          -4.1035876774e-03 2.4731881113e-05 0.0000000000e+00 
          -4.2177874279e-03 -2.4445351815e-05 0.0000000000e+00 
          -4.3252111251e-03 2.3373243889e-05 0.0000000000e+00 
          -4.4255228480e-03 -1.7266386319e-05 0.0000000000e+00 
          -4.5137481533e-03 5.1563636175e-06 0.0000000000e+00 
          -4.5998387639e-03 1.1495005711e-05 0.0000000000e+00 
          -4.6719560163e-03 -2.4430560280e-05 0.0000000000e+00 
          -4.7379598709e-03 2.6610651534e-05 0.0000000000e+00 
          -4.7958769307e-03 -2.1957195178e-05 0.0000000000e+00 
          -4.8438028693e-03 2.1681380209e-05 0.0000000000e+00 
          -4.8837916977e-03 -2.4512086491e-05 0.0000000000e+00 
          -4.9150397791e-03 2.0185174699e-05 0.0000000000e+00 
          -4.9364626858e-03 -7.0971100327e-06 0.0000000000e+00 
          -4.9504452788e-03 -3.5790014905e-06 0.0000000000e+00 
        </DataArray>
        <DataArray type="Float64" Name="Reaction" NumberOfComponents="3" format="ascii">
          0.0000000000e+00 0.0000000000e+00 0.0000000000e+00 
          0.0000000000e+00 0.0000000000e+00 0.0000000000e+00 
          0.0000000000e+00 0.0000000000e+00 0.0000000000e+00 
          0.0000000000e+00 0.0000000000e+00 0.0000000000e+00 
          0.0000000000e+00 0.0000000000e+00 0.0000000000e+00 
          0.0000000000e+00 0.0000000000e+00 0.0000000000e+00 
          0.0000000000e+00 0.0000000000e+00 0.0000000000e+00 
          0.0000000000e+00 0.0000000000e+00 0.0000000000e+00 
          0.0000000000e+00 0.0000000000e+00 0.0000000000e+00 
          0.0000000000e+00 0.0000000000e+00 0.0000000000e+00 
          0.0000000000e+00 0.0000000000e+00 0.0000000000e+00 
          0.0000000000e+00 0.0000000000e+00 0.0000000000e+00 
          0.0000000000e+00 0.0000000000e+00 0.0000000000e+00 
          0.0000000000e+00 0.0000000000e+00 0.0000000000e+00 
          0.0000000000e+00 0.0000000000e+00 0.0000000000e+00 
          0.0000000000e+00 0.0000000000e+00 0.0000000000e+00 
          0.0000000000e+00 0.0000000000e+00 0.0000000000e+00 
          0.0000000000e+00 0.0000000000e+00 0.0000000000e+00 
          0.0000000000e+00 0.0000000000e+00 0.0000000000e+00 
          0.0000000000e+00 0.0000000000e+00 0.0000000000e+00 
          0.0000000000e+00 0.0000000000e+00 0.0000000000e+00 
          0.0000000000e+00 0.0000000000e+00 0.0000000000e+00 
          0.0000000000e+00 0.0000000000e+00 0.0000000000e+00 
          0.0000000000e+00 0.0000000000e+00 0.0000000000e+00 
          0.0000000000e+00 0.0000000000e+00 0.0000000000e+00 
          0.0000000000e+00 0.0000000000e+00 0.0000000000e+00 
          0.0000000000e+00 0.0000000000e+00 0.0000000000e+00 
          0.0000000000e+00 0.0000000000e+00 0.0000000000e+00 
          0.0000000000e+00 0.0000000000e+00 0.0000000000e+00 
          0.0000000000e+00 0.0000000000e+00 0.0000000000e+00 
          0.0000000000e+00 0.0000000000e+00 0.0000000000e+00 
          0.0000000000e+00 0.0000000000e+00 0.0000000000e+00 
          0.0000000000e+00 0.0000000000e+00 0.0000000000e+00 
          0.0000000000e+00 0.0000000000e+00 0.0000000000e+00 
          0.0000000000e+00 0.0000000000e+00 0.0000000000e+00 
          0.0000000000e+00 0.0000000000e+00 0.0000000000e+00 
          0.0000000000e+00 0.0000000000e+00 0.0000000000e+00 
          0.0000000000e+00 0.0000000000e+00 0.0000000000e+00 
          0.0000000000e+00 0.0000000000e+00 0.0000000000e+00 
          0.0000000000e+00 0.0000000000e+00 0.0000000000e+00 
          0.0000000000e+00 0.0000000000e+00 0.0000000000e+00 
          0.0000000000e+00 0.0000000000e+00 0.0000000000e+00 
          0.0000000000e+00 0.0000000000e+00 0.0000000000e+00 
          0.0000000000e+00 0.0000000000e+00 0.0000000000e+00 
          0.0000000000e+00 0.0000000000e+00 0.0000000000e+00 
          0.0000000000e+00 0.0000000000e+00 0.0000000000e+00 
          0.0000000000e+00 0.0000000000e+00 0.0000000000e+00 
          0.0000000000e+00 0.0000000000e+00 0.0000000000e+00 
          0.0000000000e+00 0.0000000000e+00 0.0000000000e+00 
          0.0000000000e+00 0.0000000000e+00 0.0000000000e+00 
          0.0000000000e+00 0.0000000000e+00 0.0000000000e+00 
          0.0000000000e+00 0.0000000000e+00 0.0000000000e+00 
          0.0000000000e+00 0.0000000000e+00 0.0000000000e+00 
          0.0000000000e+00 0.0000000000e+00 0.0000000000e+00 
          0.0000000000e+00 0.0000000000e+00 0.0000000000e+00 
          0.0000000000e+00 0.0000000000e+00 0.0000000000e+00 
          0.0000000000e+00 0.0000000000e+00 0.0000000000e+00 
          0.0000000000e+00 0.0000000000e+00 0.0000000000e+00 
          0.0000000000e+00 0.0000000000e+00 0.0000000000e+00 
          0.0000000000e+00 0.0000000000e+00 0.0000000000e+00 
          0.0000000000e+00 0.0000000000e+00 0.0000000000e+00 
          0.0000000000e+00 0.0000000000e+00 0.0000000000e+00 
          0.0000000000e+00 0.0000000000e+00 0.0000000000e+00 
          0.0000000000e+00 0.0000000000e+00 0.0000000000e+00 
          0.0000000000e+00 0.0000000000e+00 0.0000000000e+00 
          0.0000000000e+00 0.0000000000e+00 0.0000000000e+00 
          0.0000000000e+00 0.0000000000e+00 0.0000000000e+00 
          0.0000000000e+00 0.0000000000e+00 0.0000000000e+00 
          0.0000000000e+00 0.0000000000e+00 0.0000000000e+00 
          0.0000000000e+00 0.0000000000e+00 0.0000000000e+00 
          0.0000000000e+00 0.0000000000e+00 0.0000000000e+00 
          0.0000000000e+00 0.0000000000e+00 0.0000000000e+00 
          0.0000000000e+00 0.0000000000e+00 0.0000000000e+00 
          0.0000000000e+00 0.0000000000e+00 0.0000000000e+00 
          0.0000000000e+00 0.0000000000e+00 0.0000000000e+00 
          0.0000000000e+00 0.0000000000e+00 0.0000000000e+00 
          0.0000000000e+00 0.0000000000e+00 0.0000000000e+00 
          0.0000000000e+00 0.0000000000e+00 0.0000000000e+00 
          0.0000000000e+00 0.0000000000e+00 0.0000000000e+00 
          0.0000000000e+00 0.0000000000e+00 0.0000000000e+00 
          0.0000000000e+00 0.0000000000e+00 0.0000000000e+00 
          0.0000000000e+00 0.0000000000e+00 0.0000000000e+00 
        </DataArray>
      </PointData>
      <CellData>
        <DataArray type="Int64" Name="ElementTag" format="ascii">
          0
        </DataArray>
      </CellData>
    </Piece>
  </UnstructuredGrid>
</VTKFile>
