<?xml version="1.0"?>
<VTKFile type="UnstructuredGrid" version="1.0" byte_order="LittleEndian" compressor="vtkZLibDataCompressor">
  <UnstructuredGrid>
    <Piece NumberOfPoints="82" NumberOfCells="1">
      <Points>
        <DataArray type="Float64" Name="Points" NumberOfComponents="3" format="ascii">
          0.0000000000e+00 0.0000000000e+00 0.0000000000e+00 
          2.5000000000e-01 0.0000000000e+00 0.0000000000e+00 
          2.5000000000e-01 3.0000000000e+01 0.0000000000e+00 
          0.0000000000e+00 3.0000000000e+01 0.0000000000e+00 
          0.0000000000e+00 -5.0000000000e+00 0.0000000000e+00 
          2.5000000000e-01 -5.0000000000e+00 0.0000000000e+00 
          2.5000000000e-01 7.6923100000e-01 0.0000000000e+00 
          2.5000000000e-01 1.5384620000e+00 0.0000000000e+00 
          2.5000000000e-01 2.3076920000e+00 0.0000000000e+00 
          2.5000000000e-01 3.0769230000e+00 0.0000000000e+00 
          2.5000000000e-01 3.8461540000e+00 0.0000000000e+00 
          2.5000000000e-01 4.6153850000e+00 0.0000000000e+00 
          2.5000000000e-01 5.3846150000e+00 0.0000000000e+00 
          2.5000000000e-01 6.1538460000e+00 0.0000000000e+00 
          2.5000000000e-01 6.9230770000e+00 0.0000000000e+00 
          2.5000000000e-01 7.6923080000e+00 0.0000000000e+00 
          2.5000000000e-01 8.4615380000e+00 0.0000000000e+00 
          2.5000000000e-01 9.2307690000e+00 0.0000000000e+00 
          2.5000000000e-01 1.0000000000e+01 0.0000000000e+00 
          2.5000000000e-01 1.0769231000e+01 0.0000000000e+00 
          2.5000000000e-01 1.1538462000e+01 0.0000000000e+00 
          2.5000000000e-01 1.2307692000e+01 0.0000000000e+00 
          2.5000000000e-01 1.3076923000e+01 0.0000000000e+00 
          2.5000000000e-01 1.3846154000e+01 0.0000000000e+00 
          2.5000000000e-01 1.4615385000e+01 0.0000000000e+00 
          2.5000000000e-01 1.5384615000e+01 0.0000000000e+00 
          2.5000000000e-01 1.6153846000e+01 0.0000000000e+00 
          2.5000000000e-01 1.6923077000e+01 0.0000000000e+00 
          2.5000000000e-01 1.7692308000e+01 0.0000000000e+00 
          2.5000000000e-01 1.8461538000e+01 0.0000000000e+00 
          2.5000000000e-01 1.9230769000e+01 0.0000000000e+00 
          2.5000000000e-01 2.0000000000e+01 0.0000000000e+00 
          2.5000000000e-01 2.0769231000e+01 0.0000000000e+00 
          2.5000000000e-01 2.1538462000e+01 0.0000000000e+00 
          2.5000000000e-01 2.2307692000e+01 0.0000000000e+00 
          2.5000000000e-01 2.3076923000e+01 0.0000000000e+00 
          2.5000000000e-01 2.3846154000e+01 0.0000000000e+00 
          2.5000000000e-01 2.4615385000e+01 0.0000000000e+00 
          2.5000000000e-01 2.5384615000e+01 0.0000000000e+00 
          2.5000000000e-01 2.6153846000e+01 0.0000000000e+00 
          2.5000000000e-01 2.6923077000e+01 0.0000000000e+00 
          2.5000000000e-01 2.7692308000e+01 0.0000000000e+00 
          2.5000000000e-01 2.8461538000e+01 0.0000000000e+00 
          2.5000000000e-01 2.9230769000e+01 0.0000000000e+00 
          0.0000000000e+00 7.6923100000e-01 0.0000000000e+00 
          0.0000000000e+00 1.5384620000e+00 0.0000000000e+00 
          0.0000000000e+00 2.3076920000e+00 0.0000000000e+00 
          0.0000000000e+00 3.0769230000e+00 0.0000000000e+00 
          0.0000000000e+00 3.8461540000e+00 0.0000000000e+00 
          0.0000000000e+00 4.6153850000e+00 0.0000000000e+00 
          0.0000000000e+00 5.3846150000e+00 0.0000000000e+00 
          0.0000000000e+00 6.1538460000e+00 0.0000000000e+00 
          0.0000000000e+00 6.9230770000e+00 0.0000000000e+00 
          0.0000000000e+00 7.6923080000e+00 0.0000000000e+00 
          0.0000000000e+00 8.4615380000e+00 0.0000000000e+00 
          0.0000000000e+00 9.2307690000e+00 0.0000000000e+00 
          0.0000000000e+00 1.0000000000e+01 0.0000000000e+00 
          0.0000000000e+00 1.0769231000e+01 0.0000000000e+00 
          0.0000000000e+00 1.1538462000e+01 0.0000000000e+00 
          0.0000000000e+00 1.2307692000e+01 0.0000000000e+00 
          0.0000000000e+00 1.3076923000e+01 0.0000000000e+00 
          0.0000000000e+00 1.3846154000e+01 0.0000000000e+00 
          0.0000000000e+00 1.4615385000e+01 0.0000000000e+00 
          0.0000000000e+00 1.5384615000e+01 0.0000000000e+00 
          0.0000000000e+00 1.6153846000e+01 0.0000000000e+00 
          0.0000000000e+00 1.6923077000e+01 0.0000000000e+00 
          0.0000000000e+00 1.7692308000e+01 0.0000000000e+00 
          0.0000000000e+00 1.8461538000e+01 0.0000000000e+00 
          0.0000000000e+00 1.9230769000e+01 0.0000000000e+00 
          0.0000000000e+00 2.0000000000e+01 0.0000000000e+00 
          0.0000000000e+00 2.0769231000e+01 0.0000000000e+00 
          0.0000000000e+00 2.1538462000e+01 0.0000000000e+00 
          0.0000000000e+00 2.2307692000e+01 0.0000000000e+00 
          0.0000000000e+00 2.3076923000e+01 0.0000000000e+00 
          0.0000000000e+00 2.3846154000e+01 0.0000000000e+00 
          0.0000000000e+00 2.4615385000e+01 0.0000000000e+00 
          0.0000000000e+00 2.5384615000e+01 0.0000000000e+00 
          0.0000000000e+00 2.6153846000e+01 0.0000000000e+00 
          0.0000000000e+00 2.6923077000e+01 0.0000000000e+00 
          0.0000000000e+00 2.7692308000e+01 0.0000000000e+00 
          0.0000000000e+00 2.8461538000e+01 0.0000000000e+00 
          0.0000000000e+00 2.9230769000e+01 0.0000000000e+00 
        </DataArray>
      </Points>
      <Cells>
        <DataArray type="Int64" Name="connectivity" format="ascii">
          0
          1
          2
          3
          4
          5
          6
          7
          8
          9
          10
          11
          12
          13
          14
          15
          16
          17
          18
          19
          20
          21
          22
          23
          24
          25
          26
          27
          28
          29
          30
          31
          32
          33
          34
          35
          36
          37
          38
          39
          40
          41
          42
          43
          44
          45
          46
          47
          48
          49
          50
          51
          52
          53
          54
          55
          56
          57
          58
          59
          60
          61
          62
          63
          64
          65
          66
          67
          68
          69
          70
          71
          72
          73
          74
          75
          76
          77
          78
          79
          80
          81
        </DataArray>
        <DataArray type="Int64" Name="offsets" format="ascii">
          82
        </DataArray>
        <DataArray type="Int64" Name="types" format="ascii">
          2
        </DataArray>
      </Cells>
      <PointData>
        <DataArray type="Int64" Name="NodeTag" format="ascii">
          1
          2
          3
          4
          5
          6
          7
          8
          9
          10
          11
          12
          13
          14
          15
          16
          17
          18
          19
          20
          21
          22
          23
          24
          25
          26
          27
          28
          29
          30
          31
          32
          33
          34
          35
          36
          37
          38
          39
          40
          41
          42
          43
          44
          45
          46
          47
          48
          49
          50
          51
          52
          53
          54
          55
          56
          57
          58
          59
          60
          61
          62
          63
          64
          65
          66
          67
          68
          69
          70
          71
          72
          73
          74
          75
          76
          77
          78
          79
          80
          81
          82
        </DataArray>
        <DataArray type="Float64" Name="Velocity" NumberOfComponents="3" format="ascii">
          5.7080975858e-02 -7.7273331850e-05 0.0000000000e+00 
          5.7080975858e-02 -7.7273331850e-05 0.0000000000e+00 
          1.3784154665e-01 -8.0594233102e-05 0.0000000000e+00 
          1.3784154665e-01 -8.0594233102e-05 0.0000000000e+00 
          0.0000000000e+00 0.0000000000e+00 0.0000000000e+00 
          0.0000000000e+00 0.0000000000e+00 0.0000000000e+00 
          6.1120197373e-02 -7.7285623630e-05 0.0000000000e+00 
          6.5056073449e-02 -7.7601691051e-05 0.0000000000e+00 
          6.8888359331e-02 -7.7745081376e-05 0.0000000000e+00 
          7.2616913407e-02 -7.7721868475e-05 0.0000000000e+00 
          7.6241718129e-02 -7.8004317489e-05 0.0000000000e+00 
          7.9762832495e-02 -7.8131930308e-05 0.0000000000e+00 
          8.3180399045e-02 -7.8146935541e-05 0.0000000000e+00 
          8.6494622677e-02 -7.8683304044e-05 0.0000000000e+00 
          8.9705664918e-02 -7.8853776476e-05 0.0000000000e+00 
          9.2813793393e-02 -7.8819328672e-05 0.0000000000e+00 
          9.5819248160e-02 -7.9179335396e-05 0.0000000000e+00 
          9.8722206396e-02 -7.9348271945e-05 0.0000000000e+00 
          1.0152282190e-01 -7.9706310619e-05 0.0000000000e+00 
          1.0422125112e-01 -7.9685520649e-05 0.0000000000e+00 
          1.0681762410e-01 -7.9812961953e-05 0.0000000000e+00 
          1.0931195570e-01 -8.0021480003e-05 0.0000000000e+00 
          1.1170418856e-01 -8.0048033195e-05 0.0000000000e+00 
          1.1399425621e-01 -8.0106953194e-05 0.0000000000e+00 
          1.1618201456e-01 -8.0172777931e-05 0.0000000000e+00 
          1.1826726658e-01 -8.0290860528e-05 0.0000000000e+00 
          1.2024971860e-01 -8.0302878534e-05 0.0000000000e+00 
          1.2212902297e-01 -8.0149319492e-05 0.0000000000e+00 
          1.2390480613e-01 -8.0224550085e-05 0.0000000000e+00 
          1.2557665079e-01 -8.0360001687e-05 0.0000000000e+00 
          1.2714408135e-01 -8.0445367454e-05 0.0000000000e+00 
          1.2860656525e-01 -8.0477560633e-05 0.0000000000e+00 
          1.2996360314e-01 -8.0359212149e-05 0.0000000000e+00 
          1.3121464459e-01 -8.0707814424e-05 0.0000000000e+00 
          1.3235915597e-01 -8.0554059146e-05 0.0000000000e+00 
          1.3339659305e-01 -8.0484658399e-05 0.0000000000e+00 
          1.3432642788e-01 -8.0491673919e-05 0.0000000000e+00 
          1.3514818120e-01 -8.0345581288e-05 0.0000000000e+00 
          1.3586137283e-01 -8.0427443534e-05 0.0000000000e+00 
          1.3646561113e-01 -8.0338019045e-05 0.0000000000e+00 
          1.3696051746e-01 -8.0427364887e-05 0.0000000000e+00 
          1.3734574525e-01 -8.0672369104e-05 0.0000000000e+00 
          1.3762111341e-01 -8.0492567569e-05 0.0000000000e+00 
          1.3778643414e-01 -8.0444243624e-05 0.0000000000e+00 
          6.1120197373e-02 -7.7285623630e-05 0.0000000000e+00 
          6.5056073449e-02 -7.7601691051e-05 0.0000000000e+00 
          6.8888359331e-02 -7.7745081376e-05 0.0000000000e+00 
          7.2616913407e-02 -7.7721868475e-05 0.0000000000e+00 
          7.6241718129e-02 -7.8004317489e-05 0.0000000000e+00 
          7.9762832495e-02 -7.8131930308e-05 0.0000000000e+00 
          8.3180399045e-02 -7.8146935541e-05 0.0000000000e+00 
          8.6494622677e-02 -7.8683304044e-05 0.0000000000e+00 
          8.9705664918e-02 -7.8853776476e-05 0.0000000000e+00 
          9.2813793393e-02 -7.8819328672e-05 0.0000000000e+00 
          9.5819248160e-02 -7.9179335396e-05 0.0000000000e+00 
          9.8722206396e-02 -7.9348271945e-05 0.0000000000e+00 
          1.0152282190e-01 -7.9706310619e-05 0.0000000000e+00 
          1.0422125112e-01 -7.9685520649e-05 0.0000000000e+00 
          1.0681762410e-01 -7.9812961953e-05 0.0000000000e+00 
          1.0931195570e-01 -8.0021480003e-05 0.0000000000e+00 
          1.1170418856e-01 -8.0048033195e-05 0.0000000000e+00 
          1.1399425621e-01 -8.0106953194e-05 0.0000000000e+00 
          1.1618201456e-01 -8.0172777931e-05 0.0000000000e+00 
          1.1826726658e-01 -8.0290860528e-05 0.0000000000e+00 
          1.2024971860e-01 -8.0302878534e-05 0.0000000000e+00 
          1.2212902297e-01 -8.0149319492e-05 0.0000000000e+00 
          1.2390480613e-01 -8.0224550085e-05 0.0000000000e+00 
          1.2557665079e-01 -8.0360001687e-05 0.0000000000e+00 
          1.2714408135e-01 -8.0445367454e-05 0.0000000000e+00 
          1.2860656525e-01 -8.0477560633e-05 0.0000000000e+00 
          1.2996360314e-01 -8.0359212149e-05 0.0000000000e+00 
          1.3121464459e-01 -8.0707814424e-05 0.0000000000e+00 
          1.3235915597e-01 -8.0554059146e-05 0.0000000000e+00 
          1.3339659305e-01 -8.0484658399e-05 0.0000000000e+00 
          1.3432642788e-01 -8.0491673919e-05 0.0000000000e+00 
          1.3514818120e-01 -8.0345581288e-05 0.0000000000e+00 
          1.3586137283e-01 -8.0427443534e-05 0.0000000000e+00 
          1.3646561113e-01 -8.0338019045e-05 0.0000000000e+00 
          1.3696051746e-01 -8.0427364887e-05 0.0000000000e+00 
          1.3734574525e-01 -8.0672369104e-05 0.0000000000e+00 
          1.3762111341e-01 -8.0492567569e-05 0.0000000000e+00 
          1.3778643414e-01 -8.0444243624e-05 0.0000000000e+00 
        </DataArray>
        <DataArray type="Float64" Name="Displacement" NumberOfComponents="3" format="ascii">
          -2.8844227671e-03 -2.0288186774e-04 0.0000000000e+00 
          -2.8844227671e-03 -2.0288186774e-04 0.0000000000e+00 
          2.1228061103e-02 -2.2621271224e-04 0.0000000000e+00 
          2.1228061103e-02 -2.2621271224e-04 0.0000000000e+00 
          0.0000000000e+00 0.0000000000e+00 0.0000000000e+00 
          0.0000000000e+00 0.0000000000e+00 0.0000000000e+00 
          -1.9351219450e-03 -2.0406673867e-04 0.0000000000e+00 
          -9.8479654256e-04 -2.0522114291e-04 0.0000000000e+00 
          -3.5154709429e-05 -2.0634415279e-04 0.0000000000e+00 
          9.1210425343e-04 -2.0743599716e-04 0.0000000000e+00 
          1.8552857232e-03 -2.0849714477e-04 0.0000000000e+00 
          2.7927072779e-03 -2.0952694644e-04 0.0000000000e+00 
          3.7226987979e-03 -2.1052565514e-04 0.0000000000e+00 
          4.6436104759e-03 -2.1149320344e-04 0.0000000000e+00 
          5.5538079828e-03 -2.1242944449e-04 0.0000000000e+00 
          6.4516799344e-03 -2.1333502924e-04 0.0000000000e+00 
          7.3356383394e-03 -2.1420935690e-04 0.0000000000e+00 
          8.2041255367e-03 -2.1505318749e-04 0.0000000000e+00 
          9.0556099944e-03 -2.1586643485e-04 0.0000000000e+00 
          9.8885932573e-03 -2.1664829319e-04 0.0000000000e+00 
          1.0701611266e-02 -2.1739949591e-04 0.0000000000e+00 
          1.1493235789e-02 -2.1811948313e-04 0.0000000000e+00 
          1.2262080651e-02 -2.1880876982e-04 0.0000000000e+00 
          1.3006798023e-02 -2.1946702850e-04 0.0000000000e+00 
          1.3726084518e-02 -2.2009478373e-04 0.0000000000e+00 
          1.4418681331e-02 -2.2069184313e-04 0.0000000000e+00 
          1.5083380105e-02 -2.2125790060e-04 0.0000000000e+00 
          1.5719019384e-02 -2.2179316641e-04 0.0000000000e+00 
          1.6324490031e-02 -2.2229779868e-04 0.0000000000e+00 
          1.6898735500e-02 -2.2277223979e-04 0.0000000000e+00 
          1.7440756425e-02 -2.2321560812e-04 0.0000000000e+00 
          1.7949607784e-02 -2.2362864241e-04 0.0000000000e+00 
          1.8424403598e-02 -2.2401087399e-04 0.0000000000e+00 
          1.8864317441e-02 -2.2436274414e-04 0.0000000000e+00 
          1.9268583272e-02 -2.2468404028e-04 0.0000000000e+00 
          1.9636499043e-02 -2.2497440274e-04 0.0000000000e+00 
          1.9967424366e-02 -2.2523461873e-04 0.0000000000e+00 
          2.0260783980e-02 -2.2546376236e-04 0.0000000000e+00 
          2.0516067735e-02 -2.2566245874e-04 0.0000000000e+00 
          2.0732832488e-02 -2.2583109646e-04 0.0000000000e+00 
          2.0910701360e-02 -2.2596847190e-04 0.0000000000e+00 
          2.1049365254e-02 -2.2607512937e-04 0.0000000000e+00 
          2.1148583165e-02 -2.2615170681e-04 0.0000000000e+00 
          2.1208183019e-02 -2.2619755951e-04 0.0000000000e+00 
          -1.9351219450e-03 -2.0406673867e-04 0.0000000000e+00 
          -9.8479654256e-04 -2.0522114291e-04 0.0000000000e+00 
          -3.5154709429e-05 -2.0634415279e-04 0.0000000000e+00 
          9.1210425343e-04 -2.0743599716e-04 0.0000000000e+00 
          1.8552857232e-03 -2.0849714477e-04 0.0000000000e+00 
          2.7927072779e-03 -2.0952694644e-04 0.0000000000e+00 
          3.7226987979e-03 -2.1052565514e-04 0.0000000000e+00 
          4.6436104759e-03 -2.1149320344e-04 0.0000000000e+00 
          5.5538079828e-03 -2.1242944449e-04 0.0000000000e+00 
          6.4516799344e-03 -2.1333502924e-04 0.0000000000e+00 
          7.3356383394e-03 -2.1420935690e-04 0.0000000000e+00 
          8.2041255367e-03 -2.1505318749e-04 0.0000000000e+00 
          9.0556099944e-03 -2.1586643485e-04 0.0000000000e+00 
          9.8885932573e-03 -2.1664829319e-04 0.0000000000e+00 
          1.0701611266e-02 -2.1739949591e-04 0.0000000000e+00 
          1.1493235789e-02 -2.1811948313e-04 0.0000000000e+00 
          1.2262080651e-02 -2.1880876982e-04 0.0000000000e+00 
          1.3006798023e-02 -2.1946702850e-04 0.0000000000e+00 
          1.3726084518e-02 -2.2009478373e-04 0.0000000000e+00 
          1.4418681331e-02 -2.2069184313e-04 0.0000000000e+00 
          1.5083380105e-02 -2.2125790060e-04 0.0000000000e+00 
          1.5719019384e-02 -2.2179316641e-04 0.0000000000e+00 
          1.6324490031e-02 -2.2229779868e-04 0.0000000000e+00 
          1.6898735500e-02 -2.2277223979e-04 0.0000000000e+00 
          1.7440756425e-02 -2.2321560812e-04 0.0000000000e+00 
          1.7949607784e-02 -2.2362864241e-04 0.0000000000e+00 
          1.8424403598e-02 -2.2401087399e-04 0.0000000000e+00 
          1.8864317441e-02 -2.2436274414e-04 0.0000000000e+00 
          1.9268583272e-02 -2.2468404028e-04 0.0000000000e+00 
          1.9636499043e-02 -2.2497440274e-04 0.0000000000e+00 
          1.9967424366e-02 -2.2523461873e-04 0.0000000000e+00 
          2.0260783980e-02 -2.2546376236e-04 0.0000000000e+00 
          2.0516067735e-02 -2.2566245874e-04 0.0000000000e+00 
          2.0732832488e-02 -2.2583109646e-04 0.0000000000e+00 
          2.0910701360e-02 -2.2596847190e-04 0.0000000000e+00 
          2.1049365254e-02 -2.2607512937e-04 0.0000000000e+00 
          2.1148583165e-02 -2.2615170681e-04 0.0000000000e+00 
          2.1208183019e-02 -2.2619755951e-04 0.0000000000e+00 
        </DataArray>
        <DataArray type="Float64" Name="Acceleration" NumberOfComponents="3" format="ascii">
          2.4634944697e-01 2.1127444749e-07 0.0000000000e+00 
          2.4634944697e-01 2.1127444749e-07 0.0000000000e+00 
          -3.5821092104e+00 -1.2630059527e-04 0.0000000000e+00 
          -3.5821092104e+00 -1.2630059527e-04 0.0000000000e+00 
          0.0000000000e+00 0.0000000000e+00 0.0000000000e+00 
          0.0000000000e+00 0.0000000000e+00 0.0000000000e+00 
          9.2316702741e-02 -9.7247361002e-05 0.0000000000e+00 
          -6.1479747076e-02 6.9662570340e-05 0.0000000000e+00 
          -2.1481269071e-01 2.8952498537e-05 0.0000000000e+00 
          -3.6739018100e-01 -5.5788959941e-05 0.0000000000e+00 
          -5.1897972172e-01 6.1198596069e-05 0.0000000000e+00 
          -6.6935230513e-01 1.5383008423e-05 0.0000000000e+00 
          -8.1822115464e-01 2.7997724796e-05 0.0000000000e+00 
          -9.6536797401e-01 5.4226857504e-05 0.0000000000e+00 
          -1.1105568778e+00 -6.3077383206e-05 0.0000000000e+00 
          -1.2535352981e+00 4.4985232599e-05 0.0000000000e+00 
          -1.3940908176e+00 -9.1565291654e-05 0.0000000000e+00 
          -1.5319804082e+00 -7.6243709351e-05 0.0000000000e+00 
          -1.6669941999e+00 6.8960248650e-05 0.0000000000e+00 
          -1.7989088036e+00 -6.3200597926e-05 0.0000000000e+00 
          -1.9275039116e+00 3.7528514904e-05 0.0000000000e+00 
          -2.0525863853e+00 -5.4937304228e-05 0.0000000000e+00 
          -2.1739345526e+00 3.9062200061e-06 0.0000000000e+00 
          -2.2913722515e+00 -9.0621988114e-05 0.0000000000e+00 
          -2.4047135455e+00 -5.6090655423e-05 0.0000000000e+00 
          -2.5137510948e+00 -6.5230224250e-07 0.0000000000e+00 
          -2.6183178691e+00 -3.8684097208e-05 0.0000000000e+00 
          -2.7182533693e+00 -6.7179804263e-05 0.0000000000e+00 
          -2.8133848127e+00 -1.4700551235e-04 0.0000000000e+00 
          -2.9035641441e+00 1.2087411565e-05 0.0000000000e+00 
          -2.9886433563e+00 -1.2115019913e-04 0.0000000000e+00 
          -3.0684718882e+00 -3.6694208585e-05 0.0000000000e+00 
          -3.1429345441e+00 -1.1621375670e-04 0.0000000000e+00 
          -3.2119109359e+00 -7.7980964689e-05 0.0000000000e+00 
          -3.2752617003e+00 -1.3011551374e-05 0.0000000000e+00 
          -3.3329124240e+00 -1.5495315832e-04 0.0000000000e+00 
          -3.3847445618e+00 1.1897962239e-05 0.0000000000e+00 
          -3.4306824133e+00 -1.0079369342e-04 0.0000000000e+00 
          -3.4706702942e+00 -1.7072392470e-04 0.0000000000e+00 
          -3.5045957271e+00 4.6122450237e-05 0.0000000000e+00 
          -3.5324458769e+00 -5.1966977365e-05 0.0000000000e+00 
          -3.5541517042e+00 -1.6693703790e-04 0.0000000000e+00 
          -3.5696790975e+00 -5.0723431091e-05 0.0000000000e+00 
          -3.5790099516e+00 -5.5208703234e-05 0.0000000000e+00 
          9.2316702741e-02 -9.7247361002e-05 0.0000000000e+00 
          -6.1479747076e-02 6.9662570340e-05 0.0000000000e+00 
          -2.1481269071e-01 2.8952498537e-05 0.0000000000e+00 
          -3.6739018100e-01 -5.5788959941e-05 0.0000000000e+00 
          -5.1897972172e-01 6.1198596069e-05 0.0000000000e+00 
          -6.6935230513e-01 1.5383008423e-05 0.0000000000e+00 
          -8.1822115464e-01 2.7997724796e-05 0.0000000000e+00 
          -9.6536797401e-01 5.4226857504e-05 0.0000000000e+00 
          -1.1105568778e+00 -6.3077383206e-05 0.0000000000e+00 
          -1.2535352981e+00 4.4985232599e-05 0.0000000000e+00 
          -1.3940908176e+00 -9.1565291654e-05 0.0000000000e+00 
          -1.5319804082e+00 -7.6243709351e-05 0.0000000000e+00 
          -1.6669941999e+00 6.8960248650e-05 0.0000000000e+00 
          -1.7989088036e+00 -6.3200597926e-05 0.0000000000e+00 
          -1.9275039116e+00 3.7528514904e-05 0.0000000000e+00 
          -2.0525863853e+00 -5.4937304228e-05 0.0000000000e+00 
          -2.1739345526e+00 3.9062200061e-06 0.0000000000e+00 
          -2.2913722515e+00 -9.0621988114e-05 0.0000000000e+00 
          -2.4047135455e+00 -5.6090655423e-05 0.0000000000e+00 
          -2.5137510948e+00 -6.5230224250e-07 0.0000000000e+00 
          -2.6183178691e+00 -3.8684097208e-05 0.0000000000e+00 
          -2.7182533693e+00 -6.7179804263e-05 0.0000000000e+00 
          -2.8133848127e+00 -1.4700551235e-04 0.0000000000e+00 
          -2.9035641441e+00 1.2087411565e-05 0.0000000000e+00 
          -2.9886433563e+00 -1.2115019913e-04 0.0000000000e+00 
          -3.0684718882e+00 -3.6694208585e-05 0.0000000000e+00 
          -3.1429345441e+00 -1.1621375670e-04 0.0000000000e+00 
          -3.2119109359e+00 -7.7980964689e-05 0.0000000000e+00 
          -3.2752617003e+00 -1.3011551374e-05 0.0000000000e+00 
          -3.3329124240e+00 -1.5495315832e-04 0.0000000000e+00 
          -3.3847445618e+00 1.1897962239e-05 0.0000000000e+00 
          -3.4306824133e+00 -1.0079369342e-04 0.0000000000e+00 
          -3.4706702942e+00 -1.7072392470e-04 0.0000000000e+00 
          -3.5045957271e+00 4.6122450237e-05 0.0000000000e+00 
          -3.5324458769e+00 -5.1966977365e-05 0.0000000000e+00 
          -3.5541517042e+00 -1.6693703790e-04 0.0000000000e+00 
          -3.5696790975e+00 -5.0723431091e-05 0.0000000000e+00 
          -3.5790099516e+00 -5.5208703234e-05 0.0000000000e+00 
        </DataArray>
        <DataArray type="Float64" Name="Reaction" NumberOfComponents="3" format="ascii">
          0.0000000000e+00 0.0000000000e+00 0.0000000000e+00 
          0.0000000000e+00 0.0000000000e+00 0.0000000000e+00 
          0.0000000000e+00 0.0000000000e+00 0.0000000000e+00 
          0.0000000000e+00 0.0000000000e+00 0.0000000000e+00 
          0.0000000000e+00 0.0000000000e+00 0.0000000000e+00 
          0.0000000000e+00 0.0000000000e+00 0.0000000000e+00 
          0.0000000000e+00 0.0000000000e+00 0.0000000000e+00 
          0.0000000000e+00 0.0000000000e+00 0.0000000000e+00 
          0.0000000000e+00 0.0000000000e+00 0.0000000000e+00 
          0.0000000000e+00 0.0000000000e+00 0.0000000000e+00 
          0.0000000000e+00 0.0000000000e+00 0.0000000000e+00 
          0.0000000000e+00 0.0000000000e+00 0.0000000000e+00 
          0.0000000000e+00 0.0000000000e+00 0.0000000000e+00 
          0.0000000000e+00 0.0000000000e+00 0.0000000000e+00 
          0.0000000000e+00 0.0000000000e+00 0.0000000000e+00 
          0.0000000000e+00 0.0000000000e+00 0.0000000000e+00 
          0.0000000000e+00 0.0000000000e+00 0.0000000000e+00 
          0.0000000000e+00 0.0000000000e+00 0.0000000000e+00 
          0.0000000000e+00 0.0000000000e+00 0.0000000000e+00 
          0.0000000000e+00 0.0000000000e+00 0.0000000000e+00 
          0.0000000000e+00 0.0000000000e+00 0.0000000000e+00 
          0.0000000000e+00 0.0000000000e+00 0.0000000000e+00 
          0.0000000000e+00 0.0000000000e+00 0.0000000000e+00 
          0.0000000000e+00 0.0000000000e+00 0.0000000000e+00 
          0.0000000000e+00 0.0000000000e+00 0.0000000000e+00 
          0.0000000000e+00 0.0000000000e+00 0.0000000000e+00 
          0.0000000000e+00 0.0000000000e+00 0.0000000000e+00 
          0.0000000000e+00 0.0000000000e+00 0.0000000000e+00 
          0.0000000000e+00 0.0000000000e+00 0.0000000000e+00 
          0.0000000000e+00 0.0000000000e+00 0.0000000000e+00 
          0.0000000000e+00 0.0000000000e+00 0.0000000000e+00 
          0.0000000000e+00 0.0000000000e+00 0.0000000000e+00 
          0.0000000000e+00 0.0000000000e+00 0.0000000000e+00 
          0.0000000000e+00 0.0000000000e+00 0.0000000000e+00 
          0.0000000000e+00 0.0000000000e+00 0.0000000000e+00 
          0.0000000000e+00 0.0000000000e+00 0.0000000000e+00 
          0.0000000000e+00 0.0000000000e+00 0.0000000000e+00 
          0.0000000000e+00 0.0000000000e+00 0.0000000000e+00 
          0.0000000000e+00 0.0000000000e+00 0.0000000000e+00 
          0.0000000000e+00 0.0000000000e+00 0.0000000000e+00 
          0.0000000000e+00 0.0000000000e+00 0.0000000000e+00 
          0.0000000000e+00 0.0000000000e+00 0.0000000000e+00 
          0.0000000000e+00 0.0000000000e+00 0.0000000000e+00 
          0.0000000000e+00 0.0000000000e+00 0.0000000000e+00 
          0.0000000000e+00 0.0000000000e+00 0.0000000000e+00 
          0.0000000000e+00 0.0000000000e+00 0.0000000000e+00 
          0.0000000000e+00 0.0000000000e+00 0.0000000000e+00 
          0.0000000000e+00 0.0000000000e+00 0.0000000000e+00 
          0.0000000000e+00 0.0000000000e+00 0.0000000000e+00 
          0.0000000000e+00 0.0000000000e+00 0.0000000000e+00 
          0.0000000000e+00 0.0000000000e+00 0.0000000000e+00 
          0.0000000000e+00 0.0000000000e+00 0.0000000000e+00 
          0.0000000000e+00 0.0000000000e+00 0.0000000000e+00 
          0.0000000000e+00 0.0000000000e+00 0.0000000000e+00 
          0.0000000000e+00 0.0000000000e+00 0.0000000000e+00 
          0.0000000000e+00 0.0000000000e+00 0.0000000000e+00 
          0.0000000000e+00 0.0000000000e+00 0.0000000000e+00 
          0.0000000000e+00 0.0000000000e+00 0.0000000000e+00 
          0.0000000000e+00 0.0000000000e+00 0.0000000000e+00 
          0.0000000000e+00 0.0000000000e+00 0.0000000000e+00 
          0.0000000000e+00 0.0000000000e+00 0.0000000000e+00 
          0.0000000000e+00 0.0000000000e+00 0.0000000000e+00 
          0.0000000000e+00 0.0000000000e+00 0.0000000000e+00 
          0.0000000000e+00 0.0000000000e+00 0.0000000000e+00 
          0.0000000000e+00 0.0000000000e+00 0.0000000000e+00 
          0.0000000000e+00 0.0000000000e+00 0.0000000000e+00 
          0.0000000000e+00 0.0000000000e+00 0.0000000000e+00 
          0.0000000000e+00 0.0000000000e+00 0.0000000000e+00 
          0.0000000000e+00 0.0000000000e+00 0.0000000000e+00 
          0.0000000000e+00 0.0000000000e+00 0.0000000000e+00 
          0.0000000000e+00 0.0000000000e+00 0.0000000000e+00 
          0.0000000000e+00 0.0000000000e+00 0.0000000000e+00 
          0.0000000000e+00 0.0000000000e+00 0.0000000000e+00 
          0.0000000000e+00 0.0000000000e+00 0.0000000000e+00 
          0.0000000000e+00 0.0000000000e+00 0.0000000000e+00 
          0.0000000000e+00 0.0000000000e+00 0.0000000000e+00 
          0.0000000000e+00 0.0000000000e+00 0.0000000000e+00 
          0.0000000000e+00 0.0000000000e+00 0.0000000000e+00 
          0.0000000000e+00 0.0000000000e+00 0.0000000000e+00 
          0.0000000000e+00 0.0000000000e+00 0.0000000000e+00 
          0.0000000000e+00 0.0000000000e+00 0.0000000000e+00 
          0.0000000000e+00 0.0000000000e+00 0.0000000000e+00 
        </DataArray>
      </PointData>
      <CellData>
        <DataArray type="Int64" Name="ElementTag" format="ascii">
          0
        </DataArray>
      </CellData>
    </Piece>
  </UnstructuredGrid>
</VTKFile>
