<?xml version="1.0"?>
<VTKFile type="UnstructuredGrid" version="1.0" byte_order="LittleEndian" compressor="vtkZLibDataCompressor">
  <UnstructuredGrid>
    <Piece NumberOfPoints="80" NumberOfCells="39">
      <Points>
        <DataArray type="Float64" Name="Points" NumberOfComponents="3" format="ascii">
          0.0000000000e+00 0.0000000000e+00 0.0000000000e+00 
          2.5000000000e-01 0.0000000000e+00 0.0000000000e+00 
          2.5000000000e-01 3.0000000000e+01 0.0000000000e+00 
          0.0000000000e+00 3.0000000000e+01 0.0000000000e+00 
          2.5000000000e-01 7.6923100000e-01 0.0000000000e+00 
          2.5000000000e-01 1.5384620000e+00 0.0000000000e+00 
          2.5000000000e-01 2.3076920000e+00 0.0000000000e+00 
          2.5000000000e-01 3.0769230000e+00 0.0000000000e+00 
          2.5000000000e-01 3.8461540000e+00 0.0000000000e+00 
          2.5000000000e-01 4.6153850000e+00 0.0000000000e+00 
          2.5000000000e-01 5.3846150000e+00 0.0000000000e+00 
          2.5000000000e-01 6.1538460000e+00 0.0000000000e+00 
          2.5000000000e-01 6.9230770000e+00 0.0000000000e+00 
          2.5000000000e-01 7.6923080000e+00 0.0000000000e+00 
          2.5000000000e-01 8.4615380000e+00 0.0000000000e+00 
          2.5000000000e-01 9.2307690000e+00 0.0000000000e+00 
          2.5000000000e-01 1.0000000000e+01 0.0000000000e+00 
          2.5000000000e-01 1.0769231000e+01 0.0000000000e+00 
          2.5000000000e-01 1.1538462000e+01 0.0000000000e+00 
          2.5000000000e-01 1.2307692000e+01 0.0000000000e+00 
          2.5000000000e-01 1.3076923000e+01 0.0000000000e+00 
          2.5000000000e-01 1.3846154000e+01 0.0000000000e+00 
          2.5000000000e-01 1.4615385000e+01 0.0000000000e+00 
          2.5000000000e-01 1.5384615000e+01 0.0000000000e+00 
          2.5000000000e-01 1.6153846000e+01 0.0000000000e+00 
          2.5000000000e-01 1.6923077000e+01 0.0000000000e+00 
          2.5000000000e-01 1.7692308000e+01 0.0000000000e+00 
          2.5000000000e-01 1.8461538000e+01 0.0000000000e+00 
          2.5000000000e-01 1.9230769000e+01 0.0000000000e+00 
          2.5000000000e-01 2.0000000000e+01 0.0000000000e+00 
          2.5000000000e-01 2.0769231000e+01 0.0000000000e+00 
          2.5000000000e-01 2.1538462000e+01 0.0000000000e+00 
          2.5000000000e-01 2.2307692000e+01 0.0000000000e+00 
          2.5000000000e-01 2.3076923000e+01 0.0000000000e+00 
          2.5000000000e-01 2.3846154000e+01 0.0000000000e+00 
          2.5000000000e-01 2.4615385000e+01 0.0000000000e+00 
          2.5000000000e-01 2.5384615000e+01 0.0000000000e+00 
          2.5000000000e-01 2.6153846000e+01 0.0000000000e+00 
          2.5000000000e-01 2.6923077000e+01 0.0000000000e+00 
          2.5000000000e-01 2.7692308000e+01 0.0000000000e+00 
          2.5000000000e-01 2.8461538000e+01 0.0000000000e+00 
          2.5000000000e-01 2.9230769000e+01 0.0000000000e+00 
          0.0000000000e+00 7.6923100000e-01 0.0000000000e+00 
          0.0000000000e+00 1.5384620000e+00 0.0000000000e+00 
          0.0000000000e+00 2.3076920000e+00 0.0000000000e+00 
          0.0000000000e+00 3.0769230000e+00 0.0000000000e+00 
          0.0000000000e+00 3.8461540000e+00 0.0000000000e+00 
          0.0000000000e+00 4.6153850000e+00 0.0000000000e+00 
          0.0000000000e+00 5.3846150000e+00 0.0000000000e+00 
          0.0000000000e+00 6.1538460000e+00 0.0000000000e+00 
          0.0000000000e+00 6.9230770000e+00 0.0000000000e+00 
          0.0000000000e+00 7.6923080000e+00 0.0000000000e+00 
          0.0000000000e+00 8.4615380000e+00 0.0000000000e+00 
          0.0000000000e+00 9.2307690000e+00 0.0000000000e+00 
          0.0000000000e+00 1.0000000000e+01 0.0000000000e+00 
          0.0000000000e+00 1.0769231000e+01 0.0000000000e+00 
          0.0000000000e+00 1.1538462000e+01 0.0000000000e+00 
          0.0000000000e+00 1.2307692000e+01 0.0000000000e+00 
          0.0000000000e+00 1.3076923000e+01 0.0000000000e+00 
          0.0000000000e+00 1.3846154000e+01 0.0000000000e+00 
          0.0000000000e+00 1.4615385000e+01 0.0000000000e+00 
          0.0000000000e+00 1.5384615000e+01 0.0000000000e+00 
          0.0000000000e+00 1.6153846000e+01 0.0000000000e+00 
          0.0000000000e+00 1.6923077000e+01 0.0000000000e+00 
          0.0000000000e+00 1.7692308000e+01 0.0000000000e+00 
          0.0000000000e+00 1.8461538000e+01 0.0000000000e+00 
          0.0000000000e+00 1.9230769000e+01 0.0000000000e+00 
          0.0000000000e+00 2.0000000000e+01 0.0000000000e+00 
          0.0000000000e+00 2.0769231000e+01 0.0000000000e+00 
          0.0000000000e+00 2.1538462000e+01 0.0000000000e+00 
          0.0000000000e+00 2.2307692000e+01 0.0000000000e+00 
          0.0000000000e+00 2.3076923000e+01 0.0000000000e+00 
          0.0000000000e+00 2.3846154000e+01 0.0000000000e+00 
          0.0000000000e+00 2.4615385000e+01 0.0000000000e+00 
          0.0000000000e+00 2.5384615000e+01 0.0000000000e+00 
          0.0000000000e+00 2.6153846000e+01 0.0000000000e+00 
          0.0000000000e+00 2.6923077000e+01 0.0000000000e+00 
          0.0000000000e+00 2.7692308000e+01 0.0000000000e+00 
          0.0000000000e+00 2.8461538000e+01 0.0000000000e+00 
          0.0000000000e+00 2.9230769000e+01 0.0000000000e+00 
        </DataArray>
      </Points>
      <Cells>
        <DataArray type="Int64" Name="connectivity" format="ascii">
          0 1 4 42 
          42 4 5 43 
          43 5 6 44 
          44 6 7 45 
          45 7 8 46 
          46 8 9 47 
          47 9 10 48 
          48 10 11 49 
          49 11 12 50 
          50 12 13 51 
          51 13 14 52 
          52 14 15 53 
          53 15 16 54 
          54 16 17 55 
          55 17 18 56 
          56 18 19 57 
          57 19 20 58 
          58 20 21 59 
          59 21 22 60 
          60 22 23 61 
          61 23 24 62 
          62 24 25 63 
          63 25 26 64 
          64 26 27 65 
          65 27 28 66 
          66 28 29 67 
          67 29 30 68 
          68 30 31 69 
          69 31 32 70 
          70 32 33 71 
          71 33 34 72 
          72 34 35 73 
          73 35 36 74 
          74 36 37 75 
          75 37 38 76 
          76 38 39 77 
          77 39 40 78 
          78 40 41 79 
          79 41 2 3 
        </DataArray>
        <DataArray type="Int64" Name="offsets" format="ascii">
          4
          8
          12
          16
          20
          24
          28
          32
          36
          40
          44
          48
          52
          56
          60
          64
          68
          72
          76
          80
          84
          88
          92
          96
          100
          104
          108
          112
          116
          120
          124
          128
          132
          136
          140
          144
          148
          152
          156
        </DataArray>
        <DataArray type="Int64" Name="types" format="ascii">
          9
          9
          9
          9
          9
          9
          9
          9
          9
          9
          9
          9
          9
          9
          9
          9
          9
          9
          9
          9
          9
          9
          9
          9
          9
          9
          9
          9
          9
          9
          9
          9
          9
          9
          9
          9
          9
          9
          9
        </DataArray>
      </Cells>
      <PointData>
        <DataArray type="Int64" Name="NodeTag" format="ascii">
          1
          2
          3
          4
          7
          8
          9
          10
          11
          12
          13
          14
          15
          16
          17
          18
          19
          20
          21
          22
          23
          24
          25
          26
          27
          28
          29
          30
          31
          32
          33
          34
          35
          36
          37
          38
          39
          40
          41
          42
          43
          44
          45
          46
          47
          48
          49
          50
          51
          52
          53
          54
          55
          56
          57
          58
          59
          60
          61
          62
          63
          64
          65
          66
          67
          68
          69
          70
          71
          72
          73
          74
          75
          76
          77
          78
          79
          80
          81
          82
        </DataArray>
        <DataArray type="Float64" Name="Velocity" NumberOfComponents="3" format="ascii">
          3.3955758519e-04 -7.7829402562e-05 0.0000000000e+00 
          3.3955758519e-04 -7.7829402562e-05 0.0000000000e+00 
          5.6876956447e-03 -7.7760597712e-05 0.0000000000e+00 
          5.6876956447e-03 -7.7760597712e-05 0.0000000000e+00 
          5.6563595560e-04 -7.7810935594e-05 0.0000000000e+00 
          7.9032293675e-04 -7.7832194842e-05 0.0000000000e+00 
          1.0133187724e-03 -7.7858460998e-05 0.0000000000e+00 
          1.2342570902e-03 -7.7803548266e-05 0.0000000000e+00 
          1.4528547846e-03 -7.7834041954e-05 0.0000000000e+00 
          1.6687659870e-03 -7.7824039878e-05 0.0000000000e+00 
          1.8816881373e-03 -7.7861518613e-05 0.0000000000e+00 
          2.0913316677e-03 -7.7775724780e-05 0.0000000000e+00 
          2.2973652516e-03 -7.7874737195e-05 0.0000000000e+00 
          2.4995309392e-03 -7.7810128870e-05 0.0000000000e+00 
          2.6975275942e-03 -7.7844860535e-05 0.0000000000e+00 
          2.8910743076e-03 -7.7781017468e-05 0.0000000000e+00 
          3.0799251534e-03 -7.7883161614e-05 0.0000000000e+00 
          3.2637942136e-03 -7.7834765890e-05 0.0000000000e+00 
          3.4424540204e-03 -7.7802735161e-05 0.0000000000e+00 
          3.6156516687e-03 -7.7871512543e-05 0.0000000000e+00 
          3.7831590074e-03 -7.7800023841e-05 0.0000000000e+00 
          3.9447576703e-03 -7.7877791804e-05 0.0000000000e+00 
          4.1002307746e-03 -7.7785454328e-05 0.0000000000e+00 
          4.2493849762e-03 -7.7898982163e-05 0.0000000000e+00 
          4.3920165571e-03 -7.7793743752e-05 0.0000000000e+00 
          4.5279571572e-03 -7.7842911524e-05 0.0000000000e+00 
          4.6570286411e-03 -7.7888028648e-05 0.0000000000e+00 
          4.7790710004e-03 -7.7755956267e-05 0.0000000000e+00 
          4.8939330939e-03 -7.7902206293e-05 0.0000000000e+00 
          5.0014728533e-03 -7.7810518538e-05 0.0000000000e+00 
          5.1015746161e-03 -7.7822179627e-05 0.0000000000e+00 
          5.1940925679e-03 -7.7859277356e-05 0.0000000000e+00 
          5.2789352381e-03 -7.7816759168e-05 0.0000000000e+00 
          5.3560015310e-03 -7.7860562694e-05 0.0000000000e+00 
          5.4251810090e-03 -7.7794062607e-05 0.0000000000e+00 
          5.4864343268e-03 -7.7865370868e-05 0.0000000000e+00 
          5.5396433072e-03 -7.7833198874e-05 0.0000000000e+00 
          5.5847729085e-03 -7.7796760097e-05 0.0000000000e+00 
          5.6217785058e-03 -7.7893260069e-05 0.0000000000e+00 
          5.6505873893e-03 -7.7785330570e-05 0.0000000000e+00 
          5.6712028427e-03 -7.7847301878e-05 0.0000000000e+00 
          5.6835784641e-03 -7.7885784981e-05 0.0000000000e+00 
          5.6563595560e-04 -7.7810935594e-05 0.0000000000e+00 
          7.9032293675e-04 -7.7832194842e-05 0.0000000000e+00 
          1.0133187724e-03 -7.7858460998e-05 0.0000000000e+00 
          1.2342570902e-03 -7.7803548266e-05 0.0000000000e+00 
          1.4528547846e-03 -7.7834041954e-05 0.0000000000e+00 
          1.6687659870e-03 -7.7824039878e-05 0.0000000000e+00 
          1.8816881373e-03 -7.7861518613e-05 0.0000000000e+00 
          2.0913316677e-03 -7.7775724780e-05 0.0000000000e+00 
          2.2973652516e-03 -7.7874737195e-05 0.0000000000e+00 
          2.4995309392e-03 -7.7810128870e-05 0.0000000000e+00 
          2.6975275942e-03 -7.7844860535e-05 0.0000000000e+00 
          2.8910743076e-03 -7.7781017468e-05 0.0000000000e+00 
          3.0799251534e-03 -7.7883161614e-05 0.0000000000e+00 
          3.2637942136e-03 -7.7834765890e-05 0.0000000000e+00 
          3.4424540204e-03 -7.7802735161e-05 0.0000000000e+00 
          3.6156516687e-03 -7.7871512543e-05 0.0000000000e+00 
          3.7831590074e-03 -7.7800023841e-05 0.0000000000e+00 
          3.9447576703e-03 -7.7877791804e-05 0.0000000000e+00 
          4.1002307746e-03 -7.7785454328e-05 0.0000000000e+00 
          4.2493849762e-03 -7.7898982163e-05 0.0000000000e+00 
          4.3920165571e-03 -7.7793743752e-05 0.0000000000e+00 
          4.5279571572e-03 -7.7842911524e-05 0.0000000000e+00 
          4.6570286411e-03 -7.7888028648e-05 0.0000000000e+00 
          4.7790710004e-03 -7.7755956267e-05 0.0000000000e+00 
          4.8939330939e-03 -7.7902206293e-05 0.0000000000e+00 
          5.0014728533e-03 -7.7810518538e-05 0.0000000000e+00 
          5.1015746161e-03 -7.7822179627e-05 0.0000000000e+00 
          5.1940925679e-03 -7.7859277356e-05 0.0000000000e+00 
          5.2789352381e-03 -7.7816759168e-05 0.0000000000e+00 
          5.3560015310e-03 -7.7860562694e-05 0.0000000000e+00 
          5.4251810090e-03 -7.7794062607e-05 0.0000000000e+00 
          5.4864343268e-03 -7.7865370868e-05 0.0000000000e+00 
          5.5396433072e-03 -7.7833198874e-05 0.0000000000e+00 
          5.5847729085e-03 -7.7796760097e-05 0.0000000000e+00 
          5.6217785058e-03 -7.7893260069e-05 0.0000000000e+00 
          5.6505873893e-03 -7.7785330570e-05 0.0000000000e+00 
          5.6712028427e-03 -7.7847301878e-05 0.0000000000e+00 
          5.6835784641e-03 -7.7885784981e-05 0.0000000000e+00 
        </DataArray>
        <DataArray type="Float64" Name="Displacement" NumberOfComponents="3" format="ascii">
          -9.8524550107e-05 -3.9985355197e-04 0.0000000000e+00 
          -9.8524550107e-05 -3.9985355197e-04 0.0000000000e+00 
          7.4473794113e-05 -4.2342937624e-04 0.0000000000e+00 
          7.4473794113e-05 -4.2342937624e-04 0.0000000000e+00 
          -9.2809900772e-05 -4.0104705804e-04 0.0000000000e+00 
          -8.6961289922e-05 -4.0220959578e-04 0.0000000000e+00 
          -8.0996414899e-05 -4.0334114657e-04 0.0000000000e+00 
          -7.4933027204e-05 -4.0444161001e-04 0.0000000000e+00 
          -6.8789056214e-05 -4.0551114967e-04 0.0000000000e+00 
          -6.2582420801e-05 -4.0654964398e-04 0.0000000000e+00 
          -5.6331084017e-05 -4.0755715877e-04 0.0000000000e+00 
          -5.0052933934e-05 -4.0853364170e-04 0.0000000000e+00 
          -4.3765764907e-05 -4.0947915995e-04 0.0000000000e+00 
          -3.7487293354e-05 -4.1039365974e-04 0.0000000000e+00 
          -3.1235052844e-05 -4.1127711248e-04 0.0000000000e+00 
          -2.5026313769e-05 -4.1212970354e-04 0.0000000000e+00 
          -1.8878149941e-05 -4.1295110846e-04 0.0000000000e+00 
          -1.2807341044e-05 -4.1374172150e-04 0.0000000000e+00 
          -6.8303171251e-06 -4.1450114064e-04 0.0000000000e+00 
          -9.6319108344e-07 -4.1522975879e-04 0.0000000000e+00 
          4.7784091599e-06 -4.1592713398e-04 0.0000000000e+00 
          1.0379208209e-05 -4.1659374820e-04 0.0000000000e+00 
          1.5824397874e-05 -4.1722926720e-04 0.0000000000e+00 
          2.1099713386e-05 -4.1783364679e-04 0.0000000000e+00 
          2.6191379597e-05 -4.1840729487e-04 0.0000000000e+00 
          3.1086176843e-05 -4.1894971532e-04 0.0000000000e+00 
          3.5771473569e-05 -4.1946129869e-04 0.0000000000e+00 
          4.0235206465e-05 -4.1994170828e-04 0.0000000000e+00 
          4.4465968156e-05 -4.2039131553e-04 0.0000000000e+00 
          4.8452998465e-05 -4.2080984022e-04 0.0000000000e+00 
          5.2186167862e-05 -4.2119721990e-04 0.0000000000e+00 
          5.5656043842e-05 -4.2155390998e-04 0.0000000000e+00 
          5.8853905431e-05 -4.2187924504e-04 0.0000000000e+00 
          6.1771726558e-05 -4.2217381171e-04 0.0000000000e+00 
          6.4402207799e-05 -4.2243742686e-04 0.0000000000e+00 
          6.6738795768e-05 -4.2266970006e-04 0.0000000000e+00 
          6.8775670037e-05 -4.2287134189e-04 0.0000000000e+00 
          7.0507785096e-05 -4.2304184579e-04 0.0000000000e+00 
          7.1930824047e-05 -4.2318123797e-04 0.0000000000e+00 
          7.3041317279e-05 -4.2328987983e-04 0.0000000000e+00 
          7.3836483541e-05 -4.2336727723e-04 0.0000000000e+00 
          7.4314352017e-05 -4.2341374612e-04 0.0000000000e+00 
          -9.2809900772e-05 -4.0104705804e-04 0.0000000000e+00 
          -8.6961289922e-05 -4.0220959578e-04 0.0000000000e+00 
          -8.0996414899e-05 -4.0334114657e-04 0.0000000000e+00 
          -7.4933027204e-05 -4.0444161001e-04 0.0000000000e+00 
          -6.8789056214e-05 -4.0551114967e-04 0.0000000000e+00 
          -6.2582420801e-05 -4.0654964398e-04 0.0000000000e+00 
          -5.6331084017e-05 -4.0755715877e-04 0.0000000000e+00 
          -5.0052933934e-05 -4.0853364170e-04 0.0000000000e+00 
          -4.3765764907e-05 -4.0947915995e-04 0.0000000000e+00 
          -3.7487293354e-05 -4.1039365974e-04 0.0000000000e+00 
          -3.1235052844e-05 -4.1127711248e-04 0.0000000000e+00 
          -2.5026313769e-05 -4.1212970354e-04 0.0000000000e+00 
          -1.8878149941e-05 -4.1295110846e-04 0.0000000000e+00 
          -1.2807341044e-05 -4.1374172150e-04 0.0000000000e+00 
          -6.8303171251e-06 -4.1450114064e-04 0.0000000000e+00 
          -9.6319108344e-07 -4.1522975879e-04 0.0000000000e+00 
          4.7784091599e-06 -4.1592713398e-04 0.0000000000e+00 
          1.0379208209e-05 -4.1659374820e-04 0.0000000000e+00 
          1.5824397874e-05 -4.1722926720e-04 0.0000000000e+00 
          2.1099713386e-05 -4.1783364679e-04 0.0000000000e+00 
          2.6191379597e-05 -4.1840729487e-04 0.0000000000e+00 
          3.1086176843e-05 -4.1894971532e-04 0.0000000000e+00 
          3.5771473569e-05 -4.1946129869e-04 0.0000000000e+00 
          4.0235206465e-05 -4.1994170828e-04 0.0000000000e+00 
          4.4465968156e-05 -4.2039131553e-04 0.0000000000e+00 
          4.8452998465e-05 -4.2080984022e-04 0.0000000000e+00 
          5.2186167862e-05 -4.2119721990e-04 0.0000000000e+00 
          5.5656043842e-05 -4.2155390998e-04 0.0000000000e+00 
          5.8853905431e-05 -4.2187924504e-04 0.0000000000e+00 
          6.1771726558e-05 -4.2217381171e-04 0.0000000000e+00 
          6.4402207799e-05 -4.2243742686e-04 0.0000000000e+00 
          6.6738795768e-05 -4.2266970006e-04 0.0000000000e+00 
          6.8775670037e-05 -4.2287134189e-04 0.0000000000e+00 
          7.0507785096e-05 -4.2304184579e-04 0.0000000000e+00 
          7.1930824047e-05 -4.2318123797e-04 0.0000000000e+00 
          7.3041317279e-05 -4.2328987983e-04 0.0000000000e+00 
          7.3836483541e-05 -4.2336727723e-04 0.0000000000e+00 
          7.4314352017e-05 -4.2341374612e-04 0.0000000000e+00 
        </DataArray>
        <DataArray type="Float64" Name="Acceleration" NumberOfComponents="3" format="ascii">
          1.3645171776e-02 1.2675583456e-06 0.0000000000e+00 
          1.3645171776e-02 1.2675583456e-06 0.0000000000e+00 
          -2.8732095418e-02 4.5751307506e-05 0.0000000000e+00 
          -2.8732095418e-02 4.5751307506e-05 0.0000000000e+00 
          1.2070197120e-02 -6.8480998342e-06 0.0000000000e+00 
          1.0476337085e-02 -3.7554307091e-06 0.0000000000e+00 
          8.8754933064e-03 1.4866355415e-05 0.0000000000e+00 
          7.2607140515e-03 -1.4874475316e-05 0.0000000000e+00 
          5.6461882646e-03 7.0280940494e-06 0.0000000000e+00 
          4.0284167179e-03 -5.0642704992e-06 0.0000000000e+00 
          2.4152004615e-03 4.8391777406e-06 0.0000000000e+00 
          8.1262463891e-04 -7.5068218638e-06 0.0000000000e+00 
          -7.8365951553e-04 2.1861024783e-06 0.0000000000e+00 
          -2.3627380558e-03 7.1306782798e-06 0.0000000000e+00 
          -3.9203000176e-03 -2.5855674912e-05 0.0000000000e+00 
          -5.4579493848e-03 3.2401230483e-05 0.0000000000e+00 
          -6.9698321004e-03 -3.8646345082e-05 0.0000000000e+00 
          -8.4502116720e-03 3.3799560767e-05 0.0000000000e+00 
          -9.9013350048e-03 -3.7171034032e-05 0.0000000000e+00 
          -1.1310816906e-02 4.2814881850e-05 0.0000000000e+00 
          -1.2686465652e-02 -4.4216926376e-05 0.0000000000e+00 
          -1.4020712822e-02 1.6018469065e-05 0.0000000000e+00 
          -1.5305388711e-02 2.3840072578e-05 0.0000000000e+00 
          -1.6547793291e-02 -4.9377145253e-05 0.0000000000e+00 
          -1.7738282589e-02 3.9875472180e-05 0.0000000000e+00 
          -1.8876410620e-02 -3.0498212899e-05 0.0000000000e+00 
          -1.9962828725e-02 3.0063003550e-05 0.0000000000e+00 
          -2.0991702111e-02 -3.6643540263e-05 0.0000000000e+00 
          -2.1960678890e-02 1.3733575747e-05 0.0000000000e+00 
          -2.2873369532e-02 2.4990887718e-05 0.0000000000e+00 
          -2.3723256798e-02 -5.7077537557e-05 0.0000000000e+00 
          -2.4508675094e-02 6.2762078406e-05 0.0000000000e+00 
          -2.5232589723e-02 -4.2799233485e-05 0.0000000000e+00 
          -2.5889891162e-02 -9.8778581438e-06 0.0000000000e+00 
          -2.6480364270e-02 6.0477705538e-05 0.0000000000e+00 
          -2.7004575091e-02 -6.7613199905e-05 0.0000000000e+00 
          -2.7459663248e-02 2.3763670603e-05 0.0000000000e+00 
          -2.7848367570e-02 1.8989345000e-05 0.0000000000e+00 
          -2.8160986548e-02 -4.6132945093e-05 0.0000000000e+00 
          -2.8411508129e-02 4.2894596120e-05 0.0000000000e+00 
          -2.8589268735e-02 -1.4002786115e-05 0.0000000000e+00 
          -2.8690845748e-02 -3.0194270154e-05 0.0000000000e+00 
          1.2070197120e-02 -6.8480998342e-06 0.0000000000e+00 
          1.0476337085e-02 -3.7554307091e-06 0.0000000000e+00 
          8.8754933064e-03 1.4866355415e-05 0.0000000000e+00 
          7.2607140515e-03 -1.4874475316e-05 0.0000000000e+00 
          5.6461882646e-03 7.0280940494e-06 0.0000000000e+00 
          4.0284167179e-03 -5.0642704992e-06 0.0000000000e+00 
          2.4152004615e-03 4.8391777406e-06 0.0000000000e+00 
          8.1262463891e-04 -7.5068218638e-06 0.0000000000e+00 
          -7.8365951553e-04 2.1861024783e-06 0.0000000000e+00 
          -2.3627380558e-03 7.1306782798e-06 0.0000000000e+00 
          -3.9203000176e-03 -2.5855674912e-05 0.0000000000e+00 
          -5.4579493848e-03 3.2401230483e-05 0.0000000000e+00 
          -6.9698321004e-03 -3.8646345082e-05 0.0000000000e+00 
          -8.4502116720e-03 3.3799560767e-05 0.0000000000e+00 
          -9.9013350048e-03 -3.7171034032e-05 0.0000000000e+00 
          -1.1310816906e-02 4.2814881850e-05 0.0000000000e+00 
          -1.2686465652e-02 -4.4216926376e-05 0.0000000000e+00 
          -1.4020712822e-02 1.6018469065e-05 0.0000000000e+00 
          -1.5305388711e-02 2.3840072578e-05 0.0000000000e+00 
          -1.6547793291e-02 -4.9377145253e-05 0.0000000000e+00 
          -1.7738282589e-02 3.9875472180e-05 0.0000000000e+00 
          -1.8876410620e-02 -3.0498212899e-05 0.0000000000e+00 
          -1.9962828725e-02 3.0063003550e-05 0.0000000000e+00 
          -2.0991702111e-02 -3.6643540263e-05 0.0000000000e+00 
          -2.1960678890e-02 1.3733575747e-05 0.0000000000e+00 
          -2.2873369532e-02 2.4990887718e-05 0.0000000000e+00 
          -2.3723256798e-02 -5.7077537557e-05 0.0000000000e+00 
          -2.4508675094e-02 6.2762078406e-05 0.0000000000e+00 
          -2.5232589723e-02 -4.2799233485e-05 0.0000000000e+00 
          -2.5889891162e-02 -9.8778581438e-06 0.0000000000e+00 
          -2.6480364270e-02 6.0477705538e-05 0.0000000000e+00 
          -2.7004575091e-02 -6.7613199905e-05 0.0000000000e+00 
          -2.7459663248e-02 2.3763670603e-05 0.0000000000e+00 
          -2.7848367570e-02 1.8989345000e-05 0.0000000000e+00 
          -2.8160986548e-02 -4.6132945093e-05 0.0000000000e+00 
          -2.8411508129e-02 4.2894596120e-05 0.0000000000e+00 
          -2.8589268735e-02 -1.4002786115e-05 0.0000000000e+00 
          -2.8690845748e-02 -3.0194270154e-05 0.0000000000e+00 
        </DataArray>
        <DataArray type="Float64" Name="Reaction" NumberOfComponents="3" format="ascii">
          0.0000000000e+00 0.0000000000e+00 0.0000000000e+00 
          0.0000000000e+00 0.0000000000e+00 0.0000000000e+00 
          0.0000000000e+00 0.0000000000e+00 0.0000000000e+00 
          0.0000000000e+00 0.0000000000e+00 0.0000000000e+00 
          0.0000000000e+00 0.0000000000e+00 0.0000000000e+00 
          0.0000000000e+00 0.0000000000e+00 0.0000000000e+00 
          0.0000000000e+00 0.0000000000e+00 0.0000000000e+00 
          0.0000000000e+00 0.0000000000e+00 0.0000000000e+00 
          0.0000000000e+00 0.0000000000e+00 0.0000000000e+00 
          0.0000000000e+00 0.0000000000e+00 0.0000000000e+00 
          0.0000000000e+00 0.0000000000e+00 0.0000000000e+00 
          0.0000000000e+00 0.0000000000e+00 0.0000000000e+00 
          0.0000000000e+00 0.0000000000e+00 0.0000000000e+00 
          0.0000000000e+00 0.0000000000e+00 0.0000000000e+00 
          0.0000000000e+00 0.0000000000e+00 0.0000000000e+00 
          0.0000000000e+00 0.0000000000e+00 0.0000000000e+00 
          0.0000000000e+00 0.0000000000e+00 0.0000000000e+00 
          0.0000000000e+00 0.0000000000e+00 0.0000000000e+00 
          0.0000000000e+00 0.0000000000e+00 0.0000000000e+00 
          0.0000000000e+00 0.0000000000e+00 0.0000000000e+00 
          0.0000000000e+00 0.0000000000e+00 0.0000000000e+00 
          0.0000000000e+00 0.0000000000e+00 0.0000000000e+00 
          0.0000000000e+00 0.0000000000e+00 0.0000000000e+00 
          0.0000000000e+00 0.0000000000e+00 0.0000000000e+00 
          0.0000000000e+00 0.0000000000e+00 0.0000000000e+00 
          0.0000000000e+00 0.0000000000e+00 0.0000000000e+00 
          0.0000000000e+00 0.0000000000e+00 0.0000000000e+00 
          0.0000000000e+00 0.0000000000e+00 0.0000000000e+00 
          0.0000000000e+00 0.0000000000e+00 0.0000000000e+00 
          0.0000000000e+00 0.0000000000e+00 0.0000000000e+00 
          0.0000000000e+00 0.0000000000e+00 0.0000000000e+00 
          0.0000000000e+00 0.0000000000e+00 0.0000000000e+00 
          0.0000000000e+00 0.0000000000e+00 0.0000000000e+00 
          0.0000000000e+00 0.0000000000e+00 0.0000000000e+00 
          0.0000000000e+00 0.0000000000e+00 0.0000000000e+00 
          0.0000000000e+00 0.0000000000e+00 0.0000000000e+00 
          0.0000000000e+00 0.0000000000e+00 0.0000000000e+00 
          0.0000000000e+00 0.0000000000e+00 0.0000000000e+00 
          0.0000000000e+00 0.0000000000e+00 0.0000000000e+00 
          0.0000000000e+00 0.0000000000e+00 0.0000000000e+00 
          0.0000000000e+00 0.0000000000e+00 0.0000000000e+00 
          0.0000000000e+00 0.0000000000e+00 0.0000000000e+00 
          0.0000000000e+00 0.0000000000e+00 0.0000000000e+00 
          0.0000000000e+00 0.0000000000e+00 0.0000000000e+00 
          0.0000000000e+00 0.0000000000e+00 0.0000000000e+00 
          0.0000000000e+00 0.0000000000e+00 0.0000000000e+00 
          0.0000000000e+00 0.0000000000e+00 0.0000000000e+00 
          0.0000000000e+00 0.0000000000e+00 0.0000000000e+00 
          0.0000000000e+00 0.0000000000e+00 0.0000000000e+00 
          0.0000000000e+00 0.0000000000e+00 0.0000000000e+00 
          0.0000000000e+00 0.0000000000e+00 0.0000000000e+00 
          0.0000000000e+00 0.0000000000e+00 0.0000000000e+00 
          0.0000000000e+00 0.0000000000e+00 0.0000000000e+00 
          0.0000000000e+00 0.0000000000e+00 0.0000000000e+00 
          0.0000000000e+00 0.0000000000e+00 0.0000000000e+00 
          0.0000000000e+00 0.0000000000e+00 0.0000000000e+00 
          0.0000000000e+00 0.0000000000e+00 0.0000000000e+00 
          0.0000000000e+00 0.0000000000e+00 0.0000000000e+00 
          0.0000000000e+00 0.0000000000e+00 0.0000000000e+00 
          0.0000000000e+00 0.0000000000e+00 0.0000000000e+00 
          0.0000000000e+00 0.0000000000e+00 0.0000000000e+00 
          0.0000000000e+00 0.0000000000e+00 0.0000000000e+00 
          0.0000000000e+00 0.0000000000e+00 0.0000000000e+00 
          0.0000000000e+00 0.0000000000e+00 0.0000000000e+00 
          0.0000000000e+00 0.0000000000e+00 0.0000000000e+00 
          0.0000000000e+00 0.0000000000e+00 0.0000000000e+00 
          0.0000000000e+00 0.0000000000e+00 0.0000000000e+00 
          0.0000000000e+00 0.0000000000e+00 0.0000000000e+00 
          0.0000000000e+00 0.0000000000e+00 0.0000000000e+00 
          0.0000000000e+00 0.0000000000e+00 0.0000000000e+00 
          0.0000000000e+00 0.0000000000e+00 0.0000000000e+00 
          0.0000000000e+00 0.0000000000e+00 0.0000000000e+00 
          0.0000000000e+00 0.0000000000e+00 0.0000000000e+00 
          0.0000000000e+00 0.0000000000e+00 0.0000000000e+00 
          0.0000000000e+00 0.0000000000e+00 0.0000000000e+00 
          0.0000000000e+00 0.0000000000e+00 0.0000000000e+00 
          0.0000000000e+00 0.0000000000e+00 0.0000000000e+00 
          0.0000000000e+00 0.0000000000e+00 0.0000000000e+00 
          0.0000000000e+00 0.0000000000e+00 0.0000000000e+00 
          0.0000000000e+00 0.0000000000e+00 0.0000000000e+00 
        </DataArray>
      </PointData>
      <CellData>
        <DataArray type="Int64" Name="ElementTag" format="ascii">
          90
          91
          92
          93
          94
          95
          96
          97
          98
          99
          100
          101
          102
          103
          104
          105
          106
          107
          108
          109
          110
          111
          112
          113
          114
          115
          116
          117
          118
          119
          120
          121
          122
          123
          124
          125
          126
          127
          128
        </DataArray>
      </CellData>
    </Piece>
  </UnstructuredGrid>
</VTKFile>
