<?xml version="1.0"?>
<VTKFile type="UnstructuredGrid" version="1.0" byte_order="LittleEndian" compressor="vtkZLibDataCompressor">
  <UnstructuredGrid>
    <Piece NumberOfPoints="80" NumberOfCells="39">
      <Points>
        <DataArray type="Float64" Name="Points" NumberOfComponents="3" format="ascii">
          0.0000000000e+00 0.0000000000e+00 0.0000000000e+00 
          2.5000000000e-01 0.0000000000e+00 0.0000000000e+00 
          2.5000000000e-01 3.0000000000e+01 0.0000000000e+00 
          0.0000000000e+00 3.0000000000e+01 0.0000000000e+00 
          2.5000000000e-01 7.6923100000e-01 0.0000000000e+00 
          2.5000000000e-01 1.5384620000e+00 0.0000000000e+00 
          2.5000000000e-01 2.3076920000e+00 0.0000000000e+00 
          2.5000000000e-01 3.0769230000e+00 0.0000000000e+00 
          2.5000000000e-01 3.8461540000e+00 0.0000000000e+00 
          2.5000000000e-01 4.6153850000e+00 0.0000000000e+00 
          2.5000000000e-01 5.3846150000e+00 0.0000000000e+00 
          2.5000000000e-01 6.1538460000e+00 0.0000000000e+00 
          2.5000000000e-01 6.9230770000e+00 0.0000000000e+00 
          2.5000000000e-01 7.6923080000e+00 0.0000000000e+00 
          2.5000000000e-01 8.4615380000e+00 0.0000000000e+00 
          2.5000000000e-01 9.2307690000e+00 0.0000000000e+00 
          2.5000000000e-01 1.0000000000e+01 0.0000000000e+00 
          2.5000000000e-01 1.0769231000e+01 0.0000000000e+00 
          2.5000000000e-01 1.1538462000e+01 0.0000000000e+00 
          2.5000000000e-01 1.2307692000e+01 0.0000000000e+00 
          2.5000000000e-01 1.3076923000e+01 0.0000000000e+00 
          2.5000000000e-01 1.3846154000e+01 0.0000000000e+00 
          2.5000000000e-01 1.4615385000e+01 0.0000000000e+00 
          2.5000000000e-01 1.5384615000e+01 0.0000000000e+00 
          2.5000000000e-01 1.6153846000e+01 0.0000000000e+00 
          2.5000000000e-01 1.6923077000e+01 0.0000000000e+00 
          2.5000000000e-01 1.7692308000e+01 0.0000000000e+00 
          2.5000000000e-01 1.8461538000e+01 0.0000000000e+00 
          2.5000000000e-01 1.9230769000e+01 0.0000000000e+00 
          2.5000000000e-01 2.0000000000e+01 0.0000000000e+00 
          2.5000000000e-01 2.0769231000e+01 0.0000000000e+00 
          2.5000000000e-01 2.1538462000e+01 0.0000000000e+00 
          2.5000000000e-01 2.2307692000e+01 0.0000000000e+00 
          2.5000000000e-01 2.3076923000e+01 0.0000000000e+00 
          2.5000000000e-01 2.3846154000e+01 0.0000000000e+00 
          2.5000000000e-01 2.4615385000e+01 0.0000000000e+00 
          2.5000000000e-01 2.5384615000e+01 0.0000000000e+00 
          2.5000000000e-01 2.6153846000e+01 0.0000000000e+00 
          2.5000000000e-01 2.6923077000e+01 0.0000000000e+00 
          2.5000000000e-01 2.7692308000e+01 0.0000000000e+00 
          2.5000000000e-01 2.8461538000e+01 0.0000000000e+00 
          2.5000000000e-01 2.9230769000e+01 0.0000000000e+00 
          0.0000000000e+00 7.6923100000e-01 0.0000000000e+00 
          0.0000000000e+00 1.5384620000e+00 0.0000000000e+00 
          0.0000000000e+00 2.3076920000e+00 0.0000000000e+00 
          0.0000000000e+00 3.0769230000e+00 0.0000000000e+00 
          0.0000000000e+00 3.8461540000e+00 0.0000000000e+00 
          0.0000000000e+00 4.6153850000e+00 0.0000000000e+00 
          0.0000000000e+00 5.3846150000e+00 0.0000000000e+00 
          0.0000000000e+00 6.1538460000e+00 0.0000000000e+00 
          0.0000000000e+00 6.9230770000e+00 0.0000000000e+00 
          0.0000000000e+00 7.6923080000e+00 0.0000000000e+00 
          0.0000000000e+00 8.4615380000e+00 0.0000000000e+00 
          0.0000000000e+00 9.2307690000e+00 0.0000000000e+00 
          0.0000000000e+00 1.0000000000e+01 0.0000000000e+00 
          0.0000000000e+00 1.0769231000e+01 0.0000000000e+00 
          0.0000000000e+00 1.1538462000e+01 0.0000000000e+00 
          0.0000000000e+00 1.2307692000e+01 0.0000000000e+00 
          0.0000000000e+00 1.3076923000e+01 0.0000000000e+00 
          0.0000000000e+00 1.3846154000e+01 0.0000000000e+00 
          0.0000000000e+00 1.4615385000e+01 0.0000000000e+00 
          0.0000000000e+00 1.5384615000e+01 0.0000000000e+00 
          0.0000000000e+00 1.6153846000e+01 0.0000000000e+00 
          0.0000000000e+00 1.6923077000e+01 0.0000000000e+00 
          0.0000000000e+00 1.7692308000e+01 0.0000000000e+00 
          0.0000000000e+00 1.8461538000e+01 0.0000000000e+00 
          0.0000000000e+00 1.9230769000e+01 0.0000000000e+00 
          0.0000000000e+00 2.0000000000e+01 0.0000000000e+00 
          0.0000000000e+00 2.0769231000e+01 0.0000000000e+00 
          0.0000000000e+00 2.1538462000e+01 0.0000000000e+00 
          0.0000000000e+00 2.2307692000e+01 0.0000000000e+00 
          0.0000000000e+00 2.3076923000e+01 0.0000000000e+00 
          0.0000000000e+00 2.3846154000e+01 0.0000000000e+00 
          0.0000000000e+00 2.4615385000e+01 0.0000000000e+00 
          0.0000000000e+00 2.5384615000e+01 0.0000000000e+00 
          0.0000000000e+00 2.6153846000e+01 0.0000000000e+00 
          0.0000000000e+00 2.6923077000e+01 0.0000000000e+00 
          0.0000000000e+00 2.7692308000e+01 0.0000000000e+00 
          0.0000000000e+00 2.8461538000e+01 0.0000000000e+00 
          0.0000000000e+00 2.9230769000e+01 0.0000000000e+00 
        </DataArray>
      </Points>
      <Cells>
        <DataArray type="Int64" Name="connectivity" format="ascii">
          0 1 4 42 
          42 4 5 43 
          43 5 6 44 
          44 6 7 45 
          45 7 8 46 
          46 8 9 47 
          47 9 10 48 
          48 10 11 49 
          49 11 12 50 
          50 12 13 51 
          51 13 14 52 
          52 14 15 53 
          53 15 16 54 
          54 16 17 55 
          55 17 18 56 
          56 18 19 57 
          57 19 20 58 
          58 20 21 59 
          59 21 22 60 
          60 22 23 61 
          61 23 24 62 
          62 24 25 63 
          63 25 26 64 
          64 26 27 65 
          65 27 28 66 
          66 28 29 67 
          67 29 30 68 
          68 30 31 69 
          69 31 32 70 
          70 32 33 71 
          71 33 34 72 
          72 34 35 73 
          73 35 36 74 
          74 36 37 75 
          75 37 38 76 
          76 38 39 77 
          77 39 40 78 
          78 40 41 79 
          79 41 2 3 
        </DataArray>
        <DataArray type="Int64" Name="offsets" format="ascii">
          4
          8
          12
          16
          20
          24
          28
          32
          36
          40
          44
          48
          52
          56
          60
          64
          68
          72
          76
          80
          84
          88
          92
          96
          100
          104
          108
          112
          116
          120
          124
          128
          132
          136
          140
          144
          148
          152
          156
        </DataArray>
        <DataArray type="Int64" Name="types" format="ascii">
          9
          9
          9
          9
          9
          9
          9
          9
          9
          9
          9
          9
          9
          9
          9
          9
          9
          9
          9
          9
          9
          9
          9
          9
          9
          9
          9
          9
          9
          9
          9
          9
          9
          9
          9
          9
          9
          9
          9
        </DataArray>
      </Cells>
      <PointData>
        <DataArray type="Int64" Name="NodeTag" format="ascii">
          1
          2
          3
          4
          7
          8
          9
          10
          11
          12
          13
          14
          15
          16
          17
          18
          19
          20
          21
          22
          23
          24
          25
          26
          27
          28
          29
          30
          31
          32
          33
          34
          35
          36
          37
          38
          39
          40
          41
          42
          43
          44
          45
          46
          47
          48
          49
          50
          51
          52
          53
          54
          55
          56
          57
          58
          59
          60
          61
          62
          63
          64
          65
          66
          67
          68
          69
          70
          71
          72
          73
          74
          75
          76
          77
          78
          79
          80
          81
          82
        </DataArray>
        <DataArray type="Float64" Name="Velocity" NumberOfComponents="3" format="ascii">
          8.2506949296e-05 -7.7844169045e-05 0.0000000000e+00 
          8.2506949296e-05 -7.7844169045e-05 0.0000000000e+00 
          -1.2200947635e-04 -7.7943679619e-05 0.0000000000e+00 
          -1.2200947635e-04 -7.7943679619e-05 0.0000000000e+00 
          7.5346531103e-05 -7.7903493367e-05 0.0000000000e+00 
          6.8072155391e-05 -7.7761714001e-05 0.0000000000e+00 
          6.0734621671e-05 -7.7914349144e-05 0.0000000000e+00 
          5.3308715769e-05 -7.7802434043e-05 0.0000000000e+00 
          4.5845885851e-05 -7.7864985650e-05 0.0000000000e+00 
          3.8352406948e-05 -7.7834731283e-05 0.0000000000e+00 
          3.0834911673e-05 -7.7845748607e-05 0.0000000000e+00 
          2.3335457891e-05 -7.7843285538e-05 0.0000000000e+00 
          1.5844267370e-05 -7.7842440609e-05 0.0000000000e+00 
          8.4006972049e-06 -7.7845382311e-05 0.0000000000e+00 
          1.0123410273e-06 -7.7838936830e-05 0.0000000000e+00 
          -6.3064891463e-06 -7.7853717247e-05 0.0000000000e+00 
          -1.3528006901e-05 -7.7827604218e-05 0.0000000000e+00 
          -2.0646794667e-05 -7.7850661435e-05 0.0000000000e+00 
          -2.7639068256e-05 -7.7845920133e-05 0.0000000000e+00 
          -3.4489242382e-05 -7.7851428168e-05 0.0000000000e+00 
          -4.1182209834e-05 -7.7797166371e-05 0.0000000000e+00 
          -4.7705389558e-05 -7.7922122194e-05 0.0000000000e+00 
          -5.4036837713e-05 -7.7766286461e-05 0.0000000000e+00 
          -6.0162419067e-05 -7.7881013273e-05 0.0000000000e+00 
          -6.6078701429e-05 -7.7851281779e-05 0.0000000000e+00 
          -7.1750210712e-05 -7.7807104645e-05 0.0000000000e+00 
          -7.7186809992e-05 -7.7879053926e-05 0.0000000000e+00 
          -8.2359202208e-05 -7.7822531991e-05 0.0000000000e+00 
          -8.7257411987e-05 -7.7847116844e-05 0.0000000000e+00 
          -9.1878919108e-05 -7.7841647138e-05 0.0000000000e+00 
          -9.6199025697e-05 -7.7847540152e-05 0.0000000000e+00 
          -1.0021841029e-04 -7.7835306777e-05 0.0000000000e+00 
          -1.0392063062e-04 -7.7848354390e-05 0.0000000000e+00 
          -1.0729639387e-04 -7.7840594521e-05 0.0000000000e+00 
          -1.1034464986e-04 -7.7838593393e-05 0.0000000000e+00 
          -1.1304926571e-04 -7.7855192116e-05 0.0000000000e+00 
          -1.1540472676e-04 -7.7816845859e-05 0.0000000000e+00 
          -1.1741525022e-04 -7.7878297135e-05 0.0000000000e+00 
          -1.1905693503e-04 -7.7807338002e-05 0.0000000000e+00 
          -1.2034810096e-04 -7.7856484794e-05 0.0000000000e+00 
          -1.2126733520e-04 -7.7873547040e-05 0.0000000000e+00 
          -1.2181650934e-04 -7.7763142817e-05 0.0000000000e+00 
          7.5346531103e-05 -7.7903493367e-05 0.0000000000e+00 
          6.8072155391e-05 -7.7761714001e-05 0.0000000000e+00 
          6.0734621671e-05 -7.7914349144e-05 0.0000000000e+00 
          5.3308715769e-05 -7.7802434043e-05 0.0000000000e+00 
          4.5845885851e-05 -7.7864985650e-05 0.0000000000e+00 
          3.8352406948e-05 -7.7834731283e-05 0.0000000000e+00 
          3.0834911673e-05 -7.7845748607e-05 0.0000000000e+00 
          2.3335457891e-05 -7.7843285538e-05 0.0000000000e+00 
          1.5844267370e-05 -7.7842440609e-05 0.0000000000e+00 
          8.4006972049e-06 -7.7845382311e-05 0.0000000000e+00 
          1.0123410273e-06 -7.7838936830e-05 0.0000000000e+00 
          -6.3064891463e-06 -7.7853717247e-05 0.0000000000e+00 
          -1.3528006901e-05 -7.7827604218e-05 0.0000000000e+00 
          -2.0646794667e-05 -7.7850661435e-05 0.0000000000e+00 
          -2.7639068256e-05 -7.7845920133e-05 0.0000000000e+00 
          -3.4489242382e-05 -7.7851428168e-05 0.0000000000e+00 
          -4.1182209834e-05 -7.7797166371e-05 0.0000000000e+00 
          -4.7705389558e-05 -7.7922122194e-05 0.0000000000e+00 
          -5.4036837713e-05 -7.7766286461e-05 0.0000000000e+00 
          -6.0162419067e-05 -7.7881013273e-05 0.0000000000e+00 
          -6.6078701429e-05 -7.7851281779e-05 0.0000000000e+00 
          -7.1750210712e-05 -7.7807104645e-05 0.0000000000e+00 
          -7.7186809992e-05 -7.7879053926e-05 0.0000000000e+00 
          -8.2359202208e-05 -7.7822531991e-05 0.0000000000e+00 
          -8.7257411987e-05 -7.7847116844e-05 0.0000000000e+00 
          -9.1878919108e-05 -7.7841647138e-05 0.0000000000e+00 
          -9.6199025697e-05 -7.7847540152e-05 0.0000000000e+00 
          -1.0021841029e-04 -7.7835306777e-05 0.0000000000e+00 
          -1.0392063062e-04 -7.7848354390e-05 0.0000000000e+00 
          -1.0729639387e-04 -7.7840594521e-05 0.0000000000e+00 
          -1.1034464986e-04 -7.7838593393e-05 0.0000000000e+00 
          -1.1304926571e-04 -7.7855192116e-05 0.0000000000e+00 
          -1.1540472676e-04 -7.7816845859e-05 0.0000000000e+00 
          -1.1741525022e-04 -7.7878297135e-05 0.0000000000e+00 
          -1.1905693503e-04 -7.7807338002e-05 0.0000000000e+00 
          -1.2034810096e-04 -7.7856484794e-05 0.0000000000e+00 
          -1.2126733520e-04 -7.7873547040e-05 0.0000000000e+00 
          -1.2181650934e-04 -7.7763142817e-05 0.0000000000e+00 
        </DataArray>
        <DataArray type="Float64" Name="Displacement" NumberOfComponents="3" format="ascii">
          1.1543223216e-06 -5.3141056500e-04 0.0000000000e+00 
          1.1543223216e-06 -5.3141056500e-04 0.0000000000e+00 
          3.4146251153e-05 -5.5499108918e-04 0.0000000000e+00 
          3.4146251153e-05 -5.5499108918e-04 0.0000000000e+00 
          2.5221171627e-06 -5.3260431433e-04 0.0000000000e+00 
          3.8831836258e-06 -5.3376708518e-04 0.0000000000e+00 
          5.2355700280e-06 -5.3489881251e-04 0.0000000000e+00 
          6.5773231216e-06 -5.3599952566e-04 0.0000000000e+00 
          7.9065178807e-06 -5.3706928183e-04 0.0000000000e+00 
          9.2212542648e-06 -5.3810800164e-04 0.0000000000e+00 
          1.0519633878e-05 -5.3911568436e-04 0.0000000000e+00 
          1.1799802818e-05 -5.4009243337e-04 0.0000000000e+00 
          1.3059942767e-05 -5.4103809586e-04 0.0000000000e+00 
          1.4298218207e-05 -5.4195281425e-04 0.0000000000e+00 
          1.5512890968e-05 -5.4283651199e-04 0.0000000000e+00 
          1.6702196994e-05 -5.4368915210e-04 0.0000000000e+00 
          1.7864440427e-05 -5.4451089060e-04 0.0000000000e+00 
          1.8997967860e-05 -5.4530149395e-04 0.0000000000e+00 
          2.0101126741e-05 -5.4606119918e-04 0.0000000000e+00 
          2.1172357122e-05 -5.4678986938e-04 0.0000000000e+00 
          2.2210107855e-05 -5.4748744172e-04 0.0000000000e+00 
          2.3212891650e-05 -5.4815420593e-04 0.0000000000e+00 
          2.4179250776e-05 -5.4878971644e-04 0.0000000000e+00 
          2.5107812067e-05 -5.4939443645e-04 0.0000000000e+00 
          2.5997212730e-05 -5.4996804087e-04 0.0000000000e+00 
          2.6846175676e-05 -5.5051059762e-04 0.0000000000e+00 
          2.7653483348e-05 -5.5102231915e-04 0.0000000000e+00 
          2.8417925644e-05 -5.5150280640e-04 0.0000000000e+00 
          2.9138437248e-05 -5.5195250129e-04 0.0000000000e+00 
          2.9813944535e-05 -5.5237101997e-04 0.0000000000e+00 
          3.0443452040e-05 -5.5275863638e-04 0.0000000000e+00 
          3.1026076790e-05 -5.5311521907e-04 0.0000000000e+00 
          3.1560925101e-05 -5.5344077387e-04 0.0000000000e+00 
          3.2047245036e-05 -5.5373533492e-04 0.0000000000e+00 
          3.2484312067e-05 -5.5399889741e-04 0.0000000000e+00 
          3.2871476021e-05 -5.5423148162e-04 0.0000000000e+00 
          3.3208191692e-05 -5.5443294672e-04 0.0000000000e+00 
          3.3493934270e-05 -5.5460355996e-04 0.0000000000e+00 
          3.3728311645e-05 -5.5474305334e-04 0.0000000000e+00 
          3.3910956668e-05 -5.5485158177e-04 0.0000000000e+00 
          3.4041612386e-05 -5.5492908965e-04 0.0000000000e+00 
          3.4120085510e-05 -5.5497562846e-04 0.0000000000e+00 
          2.5221171627e-06 -5.3260431433e-04 0.0000000000e+00 
          3.8831836258e-06 -5.3376708518e-04 0.0000000000e+00 
          5.2355700280e-06 -5.3489881251e-04 0.0000000000e+00 
          6.5773231216e-06 -5.3599952566e-04 0.0000000000e+00 
          7.9065178807e-06 -5.3706928183e-04 0.0000000000e+00 
          9.2212542648e-06 -5.3810800164e-04 0.0000000000e+00 
          1.0519633878e-05 -5.3911568436e-04 0.0000000000e+00 
          1.1799802818e-05 -5.4009243337e-04 0.0000000000e+00 
          1.3059942767e-05 -5.4103809586e-04 0.0000000000e+00 
          1.4298218207e-05 -5.4195281425e-04 0.0000000000e+00 
          1.5512890968e-05 -5.4283651199e-04 0.0000000000e+00 
          1.6702196994e-05 -5.4368915210e-04 0.0000000000e+00 
          1.7864440427e-05 -5.4451089060e-04 0.0000000000e+00 
          1.8997967860e-05 -5.4530149395e-04 0.0000000000e+00 
          2.0101126741e-05 -5.4606119918e-04 0.0000000000e+00 
          2.1172357122e-05 -5.4678986938e-04 0.0000000000e+00 
          2.2210107855e-05 -5.4748744172e-04 0.0000000000e+00 
          2.3212891650e-05 -5.4815420593e-04 0.0000000000e+00 
          2.4179250776e-05 -5.4878971644e-04 0.0000000000e+00 
          2.5107812067e-05 -5.4939443645e-04 0.0000000000e+00 
          2.5997212730e-05 -5.4996804087e-04 0.0000000000e+00 
          2.6846175676e-05 -5.5051059762e-04 0.0000000000e+00 
          2.7653483348e-05 -5.5102231915e-04 0.0000000000e+00 
          2.8417925644e-05 -5.5150280640e-04 0.0000000000e+00 
          2.9138437248e-05 -5.5195250129e-04 0.0000000000e+00 
          2.9813944535e-05 -5.5237101997e-04 0.0000000000e+00 
          3.0443452040e-05 -5.5275863638e-04 0.0000000000e+00 
          3.1026076790e-05 -5.5311521907e-04 0.0000000000e+00 
          3.1560925101e-05 -5.5344077387e-04 0.0000000000e+00 
          3.2047245036e-05 -5.5373533492e-04 0.0000000000e+00 
          3.2484312067e-05 -5.5399889741e-04 0.0000000000e+00 
          3.2871476021e-05 -5.5423148162e-04 0.0000000000e+00 
          3.3208191692e-05 -5.5443294672e-04 0.0000000000e+00 
          3.3493934270e-05 -5.5460355996e-04 0.0000000000e+00 
          3.3728311645e-05 -5.5474305334e-04 0.0000000000e+00 
          3.3910956668e-05 -5.5485158177e-04 0.0000000000e+00 
          3.4041612386e-05 -5.5492908965e-04 0.0000000000e+00 
          3.4120085510e-05 -5.5497562846e-04 0.0000000000e+00 
        </DataArray>
        <DataArray type="Float64" Name="Acceleration" NumberOfComponents="3" format="ascii">
          -4.2757852728e-04 -3.7301369549e-06 0.0000000000e+00 
          -4.2757852728e-04 -3.7301369549e-06 0.0000000000e+00 
          -4.7151521845e-03 -1.5297876238e-05 0.0000000000e+00 
          -4.7151521845e-03 -1.5297876238e-05 0.0000000000e+00 
          -6.0624013594e-04 -5.0218155863e-06 0.0000000000e+00 
          -7.8193272741e-04 6.4413856184e-06 0.0000000000e+00 
          -9.5824114672e-04 1.6794052232e-06 0.0000000000e+00 
          -1.1315307242e-03 -8.8928919132e-06 0.0000000000e+00 
          -1.3027281480e-03 5.4103398571e-06 0.0000000000e+00 
          -1.4736262745e-03 5.3095117228e-06 0.0000000000e+00 
          -1.6409706894e-03 -1.2848350896e-05 0.0000000000e+00 
          -1.8046516543e-03 1.4448381773e-05 0.0000000000e+00 
          -1.9700354762e-03 -1.1213976322e-05 0.0000000000e+00 
          -2.1265070778e-03 2.3749057956e-06 0.0000000000e+00 
          -2.2857367630e-03 9.4555866889e-06 0.0000000000e+00 
          -2.4383929920e-03 -1.8874258238e-05 0.0000000000e+00 
          -2.5873682886e-03 2.3214567988e-05 0.0000000000e+00 
          -2.7362665069e-03 -1.9503427395e-05 0.0000000000e+00 
          -2.8766973597e-03 5.0058638953e-06 0.0000000000e+00 
          -3.0167097596e-03 1.6665544954e-05 0.0000000000e+00 
          -3.1505902744e-03 -3.5717735933e-05 0.0000000000e+00 
          -3.2819345603e-03 4.4576318936e-05 0.0000000000e+00 
          -3.4055529420e-03 -3.9031359098e-05 0.0000000000e+00 
          -3.5285610628e-03 1.9830729804e-05 0.0000000000e+00 
          -3.6435181973e-03 7.4494099591e-06 0.0000000000e+00 
          -3.7532223875e-03 -3.0835053072e-05 0.0000000000e+00 
          -3.8621680189e-03 4.0965802115e-05 0.0000000000e+00 
          -3.9583342150e-03 -3.8443346952e-05 0.0000000000e+00 
          -4.0549778235e-03 3.0613328904e-05 0.0000000000e+00 
          -4.1446711807e-03 -1.8753761507e-05 0.0000000000e+00 
          -4.2242288895e-03 4.9334745500e-06 0.0000000000e+00 
          -4.3046915921e-03 3.8126711419e-06 0.0000000000e+00 
          -4.3725680633e-03 -2.1902491987e-06 0.0000000000e+00 
          -4.4377838013e-03 -1.3995500341e-06 0.0000000000e+00 
          -4.4963658936e-03 -5.0562468625e-06 0.0000000000e+00 
          -4.5454533805e-03 2.0277073876e-05 0.0000000000e+00 
          -4.5928188011e-03 -2.7784173125e-05 0.0000000000e+00 
          -4.6281062596e-03 2.0454789463e-05 0.0000000000e+00 
          -4.6611869972e-03 -7.4566806548e-06 0.0000000000e+00 
          -4.6843269033e-03 2.5466590635e-06 0.0000000000e+00 
          -4.7017730123e-03 -6.6938318553e-06 0.0000000000e+00 
          -4.7130074040e-03 1.2929580042e-05 0.0000000000e+00 
          -6.0624013594e-04 -5.0218155863e-06 0.0000000000e+00 
          -7.8193272741e-04 6.4413856184e-06 0.0000000000e+00 
          -9.5824114672e-04 1.6794052232e-06 0.0000000000e+00 
          -1.1315307242e-03 -8.8928919132e-06 0.0000000000e+00 
          -1.3027281480e-03 5.4103398571e-06 0.0000000000e+00 
          -1.4736262745e-03 5.3095117228e-06 0.0000000000e+00 
          -1.6409706894e-03 -1.2848350896e-05 0.0000000000e+00 
          -1.8046516543e-03 1.4448381773e-05 0.0000000000e+00 
          -1.9700354762e-03 -1.1213976322e-05 0.0000000000e+00 
          -2.1265070778e-03 2.3749057956e-06 0.0000000000e+00 
          -2.2857367630e-03 9.4555866889e-06 0.0000000000e+00 
          -2.4383929920e-03 -1.8874258238e-05 0.0000000000e+00 
          -2.5873682886e-03 2.3214567988e-05 0.0000000000e+00 
          -2.7362665069e-03 -1.9503427395e-05 0.0000000000e+00 
          -2.8766973597e-03 5.0058638953e-06 0.0000000000e+00 
          -3.0167097596e-03 1.6665544954e-05 0.0000000000e+00 
          -3.1505902744e-03 -3.5717735933e-05 0.0000000000e+00 
          -3.2819345603e-03 4.4576318936e-05 0.0000000000e+00 
          -3.4055529420e-03 -3.9031359098e-05 0.0000000000e+00 
          -3.5285610628e-03 1.9830729804e-05 0.0000000000e+00 
          -3.6435181973e-03 7.4494099591e-06 0.0000000000e+00 
          -3.7532223875e-03 -3.0835053072e-05 0.0000000000e+00 
          -3.8621680189e-03 4.0965802115e-05 0.0000000000e+00 
          -3.9583342150e-03 -3.8443346952e-05 0.0000000000e+00 
          -4.0549778235e-03 3.0613328904e-05 0.0000000000e+00 
          -4.1446711807e-03 -1.8753761507e-05 0.0000000000e+00 
          -4.2242288895e-03 4.9334745500e-06 0.0000000000e+00 
          -4.3046915921e-03 3.8126711419e-06 0.0000000000e+00 
          -4.3725680633e-03 -2.1902491987e-06 0.0000000000e+00 
          -4.4377838013e-03 -1.3995500341e-06 0.0000000000e+00 
          -4.4963658936e-03 -5.0562468625e-06 0.0000000000e+00 
          -4.5454533805e-03 2.0277073876e-05 0.0000000000e+00 
          -4.5928188011e-03 -2.7784173125e-05 0.0000000000e+00 
          -4.6281062596e-03 2.0454789463e-05 0.0000000000e+00 
          -4.6611869972e-03 -7.4566806548e-06 0.0000000000e+00 
          -4.6843269033e-03 2.5466590635e-06 0.0000000000e+00 
          -4.7017730123e-03 -6.6938318553e-06 0.0000000000e+00 
          -4.7130074040e-03 1.2929580042e-05 0.0000000000e+00 
        </DataArray>
        <DataArray type="Float64" Name="Reaction" NumberOfComponents="3" format="ascii">
          0.0000000000e+00 0.0000000000e+00 0.0000000000e+00 
          0.0000000000e+00 0.0000000000e+00 0.0000000000e+00 
          0.0000000000e+00 0.0000000000e+00 0.0000000000e+00 
          0.0000000000e+00 0.0000000000e+00 0.0000000000e+00 
          0.0000000000e+00 0.0000000000e+00 0.0000000000e+00 
          0.0000000000e+00 0.0000000000e+00 0.0000000000e+00 
          0.0000000000e+00 0.0000000000e+00 0.0000000000e+00 
          0.0000000000e+00 0.0000000000e+00 0.0000000000e+00 
          0.0000000000e+00 0.0000000000e+00 0.0000000000e+00 
          0.0000000000e+00 0.0000000000e+00 0.0000000000e+00 
          0.0000000000e+00 0.0000000000e+00 0.0000000000e+00 
          0.0000000000e+00 0.0000000000e+00 0.0000000000e+00 
          0.0000000000e+00 0.0000000000e+00 0.0000000000e+00 
          0.0000000000e+00 0.0000000000e+00 0.0000000000e+00 
          0.0000000000e+00 0.0000000000e+00 0.0000000000e+00 
          0.0000000000e+00 0.0000000000e+00 0.0000000000e+00 
          0.0000000000e+00 0.0000000000e+00 0.0000000000e+00 
          0.0000000000e+00 0.0000000000e+00 0.0000000000e+00 
          0.0000000000e+00 0.0000000000e+00 0.0000000000e+00 
          0.0000000000e+00 0.0000000000e+00 0.0000000000e+00 
          0.0000000000e+00 0.0000000000e+00 0.0000000000e+00 
          0.0000000000e+00 0.0000000000e+00 0.0000000000e+00 
          0.0000000000e+00 0.0000000000e+00 0.0000000000e+00 
          0.0000000000e+00 0.0000000000e+00 0.0000000000e+00 
          0.0000000000e+00 0.0000000000e+00 0.0000000000e+00 
          0.0000000000e+00 0.0000000000e+00 0.0000000000e+00 
          0.0000000000e+00 0.0000000000e+00 0.0000000000e+00 
          0.0000000000e+00 0.0000000000e+00 0.0000000000e+00 
          0.0000000000e+00 0.0000000000e+00 0.0000000000e+00 
          0.0000000000e+00 0.0000000000e+00 0.0000000000e+00 
          0.0000000000e+00 0.0000000000e+00 0.0000000000e+00 
          0.0000000000e+00 0.0000000000e+00 0.0000000000e+00 
          0.0000000000e+00 0.0000000000e+00 0.0000000000e+00 
          0.0000000000e+00 0.0000000000e+00 0.0000000000e+00 
          0.0000000000e+00 0.0000000000e+00 0.0000000000e+00 
          0.0000000000e+00 0.0000000000e+00 0.0000000000e+00 
          0.0000000000e+00 0.0000000000e+00 0.0000000000e+00 
          0.0000000000e+00 0.0000000000e+00 0.0000000000e+00 
          0.0000000000e+00 0.0000000000e+00 0.0000000000e+00 
          0.0000000000e+00 0.0000000000e+00 0.0000000000e+00 
          0.0000000000e+00 0.0000000000e+00 0.0000000000e+00 
          0.0000000000e+00 0.0000000000e+00 0.0000000000e+00 
          0.0000000000e+00 0.0000000000e+00 0.0000000000e+00 
          0.0000000000e+00 0.0000000000e+00 0.0000000000e+00 
          0.0000000000e+00 0.0000000000e+00 0.0000000000e+00 
          0.0000000000e+00 0.0000000000e+00 0.0000000000e+00 
          0.0000000000e+00 0.0000000000e+00 0.0000000000e+00 
          0.0000000000e+00 0.0000000000e+00 0.0000000000e+00 
          0.0000000000e+00 0.0000000000e+00 0.0000000000e+00 
          0.0000000000e+00 0.0000000000e+00 0.0000000000e+00 
          0.0000000000e+00 0.0000000000e+00 0.0000000000e+00 
          0.0000000000e+00 0.0000000000e+00 0.0000000000e+00 
          0.0000000000e+00 0.0000000000e+00 0.0000000000e+00 
          0.0000000000e+00 0.0000000000e+00 0.0000000000e+00 
          0.0000000000e+00 0.0000000000e+00 0.0000000000e+00 
          0.0000000000e+00 0.0000000000e+00 0.0000000000e+00 
          0.0000000000e+00 0.0000000000e+00 0.0000000000e+00 
          0.0000000000e+00 0.0000000000e+00 0.0000000000e+00 
          0.0000000000e+00 0.0000000000e+00 0.0000000000e+00 
          0.0000000000e+00 0.0000000000e+00 0.0000000000e+00 
          0.0000000000e+00 0.0000000000e+00 0.0000000000e+00 
          0.0000000000e+00 0.0000000000e+00 0.0000000000e+00 
          0.0000000000e+00 0.0000000000e+00 0.0000000000e+00 
          0.0000000000e+00 0.0000000000e+00 0.0000000000e+00 
          0.0000000000e+00 0.0000000000e+00 0.0000000000e+00 
          0.0000000000e+00 0.0000000000e+00 0.0000000000e+00 
          0.0000000000e+00 0.0000000000e+00 0.0000000000e+00 
          0.0000000000e+00 0.0000000000e+00 0.0000000000e+00 
          0.0000000000e+00 0.0000000000e+00 0.0000000000e+00 
          0.0000000000e+00 0.0000000000e+00 0.0000000000e+00 
          0.0000000000e+00 0.0000000000e+00 0.0000000000e+00 
          0.0000000000e+00 0.0000000000e+00 0.0000000000e+00 
          0.0000000000e+00 0.0000000000e+00 0.0000000000e+00 
          0.0000000000e+00 0.0000000000e+00 0.0000000000e+00 
          0.0000000000e+00 0.0000000000e+00 0.0000000000e+00 
          0.0000000000e+00 0.0000000000e+00 0.0000000000e+00 
          0.0000000000e+00 0.0000000000e+00 0.0000000000e+00 
          0.0000000000e+00 0.0000000000e+00 0.0000000000e+00 
          0.0000000000e+00 0.0000000000e+00 0.0000000000e+00 
          0.0000000000e+00 0.0000000000e+00 0.0000000000e+00 
        </DataArray>
      </PointData>
      <CellData>
        <DataArray type="Int64" Name="ElementTag" format="ascii">
          90
          91
          92
          93
          94
          95
          96
          97
          98
          99
          100
          101
          102
          103
          104
          105
          106
          107
          108
          109
          110
          111
          112
          113
          114
          115
          116
          117
          118
          119
          120
          121
          122
          123
          124
          125
          126
          127
          128
        </DataArray>
      </CellData>
    </Piece>
  </UnstructuredGrid>
</VTKFile>
