<?xml version="1.0"?>
<VTKFile type="UnstructuredGrid" version="1.0" byte_order="LittleEndian" compressor="vtkZLibDataCompressor">
  <UnstructuredGrid>
    <Piece NumberOfPoints="82" NumberOfCells="1">
      <Points>
        <DataArray type="Float64" Name="Points" NumberOfComponents="3" format="ascii">
          0.0000000000e+00 0.0000000000e+00 0.0000000000e+00 
          2.5000000000e-01 0.0000000000e+00 0.0000000000e+00 
          2.5000000000e-01 3.0000000000e+01 0.0000000000e+00 
          0.0000000000e+00 3.0000000000e+01 0.0000000000e+00 
          0.0000000000e+00 -5.0000000000e+00 0.0000000000e+00 
          2.5000000000e-01 -5.0000000000e+00 0.0000000000e+00 
          2.5000000000e-01 7.6923100000e-01 0.0000000000e+00 
          2.5000000000e-01 1.5384620000e+00 0.0000000000e+00 
          2.5000000000e-01 2.3076920000e+00 0.0000000000e+00 
          2.5000000000e-01 3.0769230000e+00 0.0000000000e+00 
          2.5000000000e-01 3.8461540000e+00 0.0000000000e+00 
          2.5000000000e-01 4.6153850000e+00 0.0000000000e+00 
          2.5000000000e-01 5.3846150000e+00 0.0000000000e+00 
          2.5000000000e-01 6.1538460000e+00 0.0000000000e+00 
          2.5000000000e-01 6.9230770000e+00 0.0000000000e+00 
          2.5000000000e-01 7.6923080000e+00 0.0000000000e+00 
          2.5000000000e-01 8.4615380000e+00 0.0000000000e+00 
          2.5000000000e-01 9.2307690000e+00 0.0000000000e+00 
          2.5000000000e-01 1.0000000000e+01 0.0000000000e+00 
          2.5000000000e-01 1.0769231000e+01 0.0000000000e+00 
          2.5000000000e-01 1.1538462000e+01 0.0000000000e+00 
          2.5000000000e-01 1.2307692000e+01 0.0000000000e+00 
          2.5000000000e-01 1.3076923000e+01 0.0000000000e+00 
          2.5000000000e-01 1.3846154000e+01 0.0000000000e+00 
          2.5000000000e-01 1.4615385000e+01 0.0000000000e+00 
          2.5000000000e-01 1.5384615000e+01 0.0000000000e+00 
          2.5000000000e-01 1.6153846000e+01 0.0000000000e+00 
          2.5000000000e-01 1.6923077000e+01 0.0000000000e+00 
          2.5000000000e-01 1.7692308000e+01 0.0000000000e+00 
          2.5000000000e-01 1.8461538000e+01 0.0000000000e+00 
          2.5000000000e-01 1.9230769000e+01 0.0000000000e+00 
          2.5000000000e-01 2.0000000000e+01 0.0000000000e+00 
          2.5000000000e-01 2.0769231000e+01 0.0000000000e+00 
          2.5000000000e-01 2.1538462000e+01 0.0000000000e+00 
          2.5000000000e-01 2.2307692000e+01 0.0000000000e+00 
          2.5000000000e-01 2.3076923000e+01 0.0000000000e+00 
          2.5000000000e-01 2.3846154000e+01 0.0000000000e+00 
          2.5000000000e-01 2.4615385000e+01 0.0000000000e+00 
          2.5000000000e-01 2.5384615000e+01 0.0000000000e+00 
          2.5000000000e-01 2.6153846000e+01 0.0000000000e+00 
          2.5000000000e-01 2.6923077000e+01 0.0000000000e+00 
          2.5000000000e-01 2.7692308000e+01 0.0000000000e+00 
          2.5000000000e-01 2.8461538000e+01 0.0000000000e+00 
          2.5000000000e-01 2.9230769000e+01 0.0000000000e+00 
          0.0000000000e+00 7.6923100000e-01 0.0000000000e+00 
          0.0000000000e+00 1.5384620000e+00 0.0000000000e+00 
          0.0000000000e+00 2.3076920000e+00 0.0000000000e+00 
          0.0000000000e+00 3.0769230000e+00 0.0000000000e+00 
          0.0000000000e+00 3.8461540000e+00 0.0000000000e+00 
          0.0000000000e+00 4.6153850000e+00 0.0000000000e+00 
          0.0000000000e+00 5.3846150000e+00 0.0000000000e+00 
          0.0000000000e+00 6.1538460000e+00 0.0000000000e+00 
          0.0000000000e+00 6.9230770000e+00 0.0000000000e+00 
          0.0000000000e+00 7.6923080000e+00 0.0000000000e+00 
          0.0000000000e+00 8.4615380000e+00 0.0000000000e+00 
          0.0000000000e+00 9.2307690000e+00 0.0000000000e+00 
          0.0000000000e+00 1.0000000000e+01 0.0000000000e+00 
          0.0000000000e+00 1.0769231000e+01 0.0000000000e+00 
          0.0000000000e+00 1.1538462000e+01 0.0000000000e+00 
          0.0000000000e+00 1.2307692000e+01 0.0000000000e+00 
          0.0000000000e+00 1.3076923000e+01 0.0000000000e+00 
          0.0000000000e+00 1.3846154000e+01 0.0000000000e+00 
          0.0000000000e+00 1.4615385000e+01 0.0000000000e+00 
          0.0000000000e+00 1.5384615000e+01 0.0000000000e+00 
          0.0000000000e+00 1.6153846000e+01 0.0000000000e+00 
          0.0000000000e+00 1.6923077000e+01 0.0000000000e+00 
          0.0000000000e+00 1.7692308000e+01 0.0000000000e+00 
          0.0000000000e+00 1.8461538000e+01 0.0000000000e+00 
          0.0000000000e+00 1.9230769000e+01 0.0000000000e+00 
          0.0000000000e+00 2.0000000000e+01 0.0000000000e+00 
          0.0000000000e+00 2.0769231000e+01 0.0000000000e+00 
          0.0000000000e+00 2.1538462000e+01 0.0000000000e+00 
          0.0000000000e+00 2.2307692000e+01 0.0000000000e+00 
          0.0000000000e+00 2.3076923000e+01 0.0000000000e+00 
          0.0000000000e+00 2.3846154000e+01 0.0000000000e+00 
          0.0000000000e+00 2.4615385000e+01 0.0000000000e+00 
          0.0000000000e+00 2.5384615000e+01 0.0000000000e+00 
          0.0000000000e+00 2.6153846000e+01 0.0000000000e+00 
          0.0000000000e+00 2.6923077000e+01 0.0000000000e+00 
          0.0000000000e+00 2.7692308000e+01 0.0000000000e+00 
          0.0000000000e+00 2.8461538000e+01 0.0000000000e+00 
          0.0000000000e+00 2.9230769000e+01 0.0000000000e+00 
        </DataArray>
      </Points>
      <Cells>
        <DataArray type="Int64" Name="connectivity" format="ascii">
          0
          1
          2
          3
          4
          5
          6
          7
          8
          9
          10
          11
          12
          13
          14
          15
          16
          17
          18
          19
          20
          21
          22
          23
          24
          25
          26
          27
          28
          29
          30
          31
          32
          33
          34
          35
          36
          37
          38
          39
          40
          41
          42
          43
          44
          45
          46
          47
          48
          49
          50
          51
          52
          53
          54
          55
          56
          57
          58
          59
          60
          61
          62
          63
          64
          65
          66
          67
          68
          69
          70
          71
          72
          73
          74
          75
          76
          77
          78
          79
          80
          81
        </DataArray>
        <DataArray type="Int64" Name="offsets" format="ascii">
          82
        </DataArray>
        <DataArray type="Int64" Name="types" format="ascii">
          2
        </DataArray>
      </Cells>
      <PointData>
        <DataArray type="Int64" Name="NodeTag" format="ascii">
          1
          2
          3
          4
          5
          6
          7
          8
          9
          10
          11
          12
          13
          14
          15
          16
          17
          18
          19
          20
          21
          22
          23
          24
          25
          26
          27
          28
          29
          30
          31
          32
          33
          34
          35
          36
          37
          38
          39
          40
          41
          42
          43
          44
          45
          46
          47
          48
          49
          50
          51
          52
          53
          54
          55
          56
          57
          58
          59
          60
          61
          62
          63
          64
          65
          66
          67
          68
          69
          70
          71
          72
          73
          74
          75
          76
          77
          78
          79
          80
          81
          82
        </DataArray>
        <DataArray type="Float64" Name="Velocity" NumberOfComponents="3" format="ascii">
          -7.8670974616e-06 -7.7844861574e-05 0.0000000000e+00 
          -7.8670974616e-06 -7.7844861574e-05 0.0000000000e+00 
          -7.9845034279e-04 -7.7791090817e-05 0.0000000000e+00 
          -7.9845034279e-04 -7.7791090817e-05 0.0000000000e+00 
          0.0000000000e+00 0.0000000000e+00 0.0000000000e+00 
          0.0000000000e+00 0.0000000000e+00 0.0000000000e+00 
          -4.0677344255e-05 -7.7819996646e-05 0.0000000000e+00 
          -7.3351125193e-05 -7.7887453349e-05 0.0000000000e+00 
          -1.0584449466e-04 -7.7810040718e-05 0.0000000000e+00 
          -1.3809905376e-04 -7.7861894249e-05 0.0000000000e+00 
          -1.7006714730e-04 -7.7854946305e-05 0.0000000000e+00 
          -2.0170275553e-04 -7.7833049369e-05 0.0000000000e+00 
          -2.3294251443e-04 -7.7852062869e-05 0.0000000000e+00 
          -2.6375525750e-04 -7.7849090110e-05 0.0000000000e+00 
          -2.9408631338e-04 -7.7850615162e-05 0.0000000000e+00 
          -3.2387527243e-04 -7.7828025272e-05 0.0000000000e+00 
          -3.5310992604e-04 -7.7877110411e-05 0.0000000000e+00 
          -3.8170558431e-04 -7.7810280104e-05 0.0000000000e+00 
          -4.0964891274e-04 -7.7888315377e-05 0.0000000000e+00 
          -4.3689178988e-04 -7.7804888682e-05 0.0000000000e+00 
          -4.6337817184e-04 -7.7871214922e-05 0.0000000000e+00 
          -4.8909411736e-04 -7.7856832981e-05 0.0000000000e+00 
          -5.1398127248e-04 -7.7810449229e-05 0.0000000000e+00 
          -5.3801444844e-04 -7.7888901116e-05 0.0000000000e+00 
          -5.6115825183e-04 -7.7802186459e-05 0.0000000000e+00 
          -5.8337632181e-04 -7.7897059894e-05 0.0000000000e+00 
          -6.0463981997e-04 -7.7802575550e-05 0.0000000000e+00 
          -6.2492046065e-04 -7.7857186554e-05 0.0000000000e+00 
          -6.4418888693e-04 -7.7878908473e-05 0.0000000000e+00 
          -6.6241691231e-04 -7.7782825787e-05 0.0000000000e+00 
          -6.7958620129e-04 -7.7909023292e-05 0.0000000000e+00 
          -6.9566475765e-04 -7.7816917040e-05 0.0000000000e+00 
          -7.1063920351e-04 -7.7833552662e-05 0.0000000000e+00 
          -7.2449027322e-04 -7.7873444448e-05 0.0000000000e+00 
          -7.3718748349e-04 -7.7832009368e-05 0.0000000000e+00 
          -7.4873405281e-04 -7.7837994406e-05 0.0000000000e+00 
          -7.5909931405e-04 -7.7860065103e-05 0.0000000000e+00 
          -7.6827464082e-04 -7.7842455386e-05 0.0000000000e+00 
          -7.7625765701e-04 -7.7841011317e-05 0.0000000000e+00 
          -7.8301617770e-04 -7.7849820290e-05 0.0000000000e+00 
          -7.8857071377e-04 -7.7851868120e-05 0.0000000000e+00 
          -7.9288994413e-04 -7.7841952858e-05 0.0000000000e+00 
          -7.9597977620e-04 -7.7830950761e-05 0.0000000000e+00 
          -7.9784245900e-04 -7.7889584209e-05 0.0000000000e+00 
          -4.0677344255e-05 -7.7819996646e-05 0.0000000000e+00 
          -7.3351125193e-05 -7.7887453349e-05 0.0000000000e+00 
          -1.0584449466e-04 -7.7810040718e-05 0.0000000000e+00 
          -1.3809905376e-04 -7.7861894249e-05 0.0000000000e+00 
          -1.7006714730e-04 -7.7854946305e-05 0.0000000000e+00 
          -2.0170275553e-04 -7.7833049369e-05 0.0000000000e+00 
          -2.3294251443e-04 -7.7852062869e-05 0.0000000000e+00 
          -2.6375525750e-04 -7.7849090110e-05 0.0000000000e+00 
          -2.9408631338e-04 -7.7850615162e-05 0.0000000000e+00 
          -3.2387527243e-04 -7.7828025272e-05 0.0000000000e+00 
          -3.5310992604e-04 -7.7877110411e-05 0.0000000000e+00 
          -3.8170558431e-04 -7.7810280104e-05 0.0000000000e+00 
          -4.0964891274e-04 -7.7888315377e-05 0.0000000000e+00 
          -4.3689178988e-04 -7.7804888682e-05 0.0000000000e+00 
          -4.6337817184e-04 -7.7871214922e-05 0.0000000000e+00 
          -4.8909411736e-04 -7.7856832981e-05 0.0000000000e+00 
          -5.1398127248e-04 -7.7810449229e-05 0.0000000000e+00 
          -5.3801444844e-04 -7.7888901116e-05 0.0000000000e+00 
          -5.6115825183e-04 -7.7802186459e-05 0.0000000000e+00 
          -5.8337632181e-04 -7.7897059894e-05 0.0000000000e+00 
          -6.0463981997e-04 -7.7802575550e-05 0.0000000000e+00 
          -6.2492046065e-04 -7.7857186554e-05 0.0000000000e+00 
          -6.4418888693e-04 -7.7878908473e-05 0.0000000000e+00 
          -6.6241691231e-04 -7.7782825787e-05 0.0000000000e+00 
          -6.7958620129e-04 -7.7909023292e-05 0.0000000000e+00 
          -6.9566475765e-04 -7.7816917040e-05 0.0000000000e+00 
          -7.1063920351e-04 -7.7833552662e-05 0.0000000000e+00 
          -7.2449027322e-04 -7.7873444448e-05 0.0000000000e+00 
          -7.3718748349e-04 -7.7832009368e-05 0.0000000000e+00 
          -7.4873405281e-04 -7.7837994406e-05 0.0000000000e+00 
          -7.5909931405e-04 -7.7860065103e-05 0.0000000000e+00 
          -7.6827464082e-04 -7.7842455386e-05 0.0000000000e+00 
          -7.7625765701e-04 -7.7841011317e-05 0.0000000000e+00 
          -7.8301617770e-04 -7.7849820290e-05 0.0000000000e+00 
          -7.8857071377e-04 -7.7851868120e-05 0.0000000000e+00 
          -7.9288994413e-04 -7.7841952858e-05 0.0000000000e+00 
          -7.9597977620e-04 -7.7830950761e-05 0.0000000000e+00 
          -7.9784245900e-04 -7.7889584209e-05 0.0000000000e+00 
        </DataArray>
        <DataArray type="Float64" Name="Displacement" NumberOfComponents="3" format="ascii">
          1.3414667645e-05 -4.9949429504e-04 0.0000000000e+00 
          1.3414667645e-05 -4.9949429504e-04 0.0000000000e+00 
          5.2429288503e-06 -5.2307518795e-04 0.0000000000e+00 
          5.2429288503e-06 -5.2307518795e-04 0.0000000000e+00 
          0.0000000000e+00 0.0000000000e+00 0.0000000000e+00 
          0.0000000000e+00 0.0000000000e+00 0.0000000000e+00 
          1.3273043940e-05 -5.0068804013e-04 0.0000000000e+00 
          1.3110817253e-05 -5.0185082132e-04 0.0000000000e+00 
          1.2929371399e-05 -5.0298262516e-04 0.0000000000e+00 
          1.2730143709e-05 -5.0408324295e-04 0.0000000000e+00 
          1.2514531614e-05 -5.0515314268e-04 0.0000000000e+00 
          1.2284017847e-05 -5.0619174868e-04 0.0000000000e+00 
          1.2040069900e-05 -5.0719955840e-04 0.0000000000e+00 
          1.1784147478e-05 -5.0817627401e-04 0.0000000000e+00 
          1.1517777470e-05 -5.0912189954e-04 0.0000000000e+00 
          1.1242409565e-05 -5.1003676439e-04 0.0000000000e+00 
          1.0959559999e-05 -5.1092032135e-04 0.0000000000e+00 
          1.0670709300e-05 -5.1177307080e-04 0.0000000000e+00 
          1.0377320973e-05 -5.1259479022e-04 0.0000000000e+00 
          1.0080873451e-05 -5.1338542583e-04 0.0000000000e+00 
          9.7827981144e-06 -5.1414510117e-04 0.0000000000e+00 
          9.4845204802e-06 -5.1487380621e-04 0.0000000000e+00 
          9.1874446989e-06 -5.1557141778e-04 0.0000000000e+00 
          8.8929310955e-06 -5.1623807886e-04 0.0000000000e+00 
          8.6023208669e-06 -5.1687378275e-04 0.0000000000e+00 
          8.3169166864e-06 -5.1747832045e-04 0.0000000000e+00 
          8.0379643906e-06 -5.1805203246e-04 0.0000000000e+00 
          7.7667064638e-06 -5.1859460873e-04 0.0000000000e+00 
          7.5042861784e-06 -5.1910624309e-04 0.0000000000e+00 
          7.2518457109e-06 -5.1958684728e-04 0.0000000000e+00 
          7.0104454484e-06 -5.2003644433e-04 0.0000000000e+00 
          6.7810951407e-06 -5.2045501717e-04 0.0000000000e+00 
          6.5647629066e-06 -5.2084268060e-04 0.0000000000e+00 
          6.3623322891e-06 -5.2119914045e-04 0.0000000000e+00 
          6.1746456992e-06 -5.2152484153e-04 0.0000000000e+00 
          6.0024583097e-06 -5.2181931183e-04 0.0000000000e+00 
          5.8464914438e-06 -5.2208291362e-04 0.0000000000e+00 
          5.7073546763e-06 -5.2231548065e-04 0.0000000000e+00 
          5.5856176251e-06 -5.2251696395e-04 0.0000000000e+00 
          5.4817863237e-06 -5.2268761104e-04 0.0000000000e+00 
          5.3962453467e-06 -5.2282699953e-04 0.0000000000e+00 
          5.3293714775e-06 -5.2293566600e-04 0.0000000000e+00 
          5.2814053484e-06 -5.2301310074e-04 0.0000000000e+00 
          5.2525411757e-06 -5.2305959761e-04 0.0000000000e+00 
          1.3273043940e-05 -5.0068804013e-04 0.0000000000e+00 
          1.3110817253e-05 -5.0185082132e-04 0.0000000000e+00 
          1.2929371399e-05 -5.0298262516e-04 0.0000000000e+00 
          1.2730143709e-05 -5.0408324295e-04 0.0000000000e+00 
          1.2514531614e-05 -5.0515314268e-04 0.0000000000e+00 
          1.2284017847e-05 -5.0619174868e-04 0.0000000000e+00 
          1.2040069900e-05 -5.0719955840e-04 0.0000000000e+00 
          1.1784147478e-05 -5.0817627401e-04 0.0000000000e+00 
          1.1517777470e-05 -5.0912189954e-04 0.0000000000e+00 
          1.1242409565e-05 -5.1003676439e-04 0.0000000000e+00 
          1.0959559999e-05 -5.1092032135e-04 0.0000000000e+00 
          1.0670709300e-05 -5.1177307080e-04 0.0000000000e+00 
          1.0377320973e-05 -5.1259479022e-04 0.0000000000e+00 
          1.0080873451e-05 -5.1338542583e-04 0.0000000000e+00 
          9.7827981144e-06 -5.1414510117e-04 0.0000000000e+00 
          9.4845204802e-06 -5.1487380621e-04 0.0000000000e+00 
          9.1874446989e-06 -5.1557141778e-04 0.0000000000e+00 
          8.8929310955e-06 -5.1623807886e-04 0.0000000000e+00 
          8.6023208669e-06 -5.1687378275e-04 0.0000000000e+00 
          8.3169166864e-06 -5.1747832045e-04 0.0000000000e+00 
          8.0379643906e-06 -5.1805203246e-04 0.0000000000e+00 
          7.7667064638e-06 -5.1859460873e-04 0.0000000000e+00 
          7.5042861784e-06 -5.1910624309e-04 0.0000000000e+00 
          7.2518457109e-06 -5.1958684728e-04 0.0000000000e+00 
          7.0104454484e-06 -5.2003644433e-04 0.0000000000e+00 
          6.7810951407e-06 -5.2045501717e-04 0.0000000000e+00 
          6.5647629066e-06 -5.2084268060e-04 0.0000000000e+00 
          6.3623322891e-06 -5.2119914045e-04 0.0000000000e+00 
          6.1746456992e-06 -5.2152484153e-04 0.0000000000e+00 
          6.0024583097e-06 -5.2181931183e-04 0.0000000000e+00 
          5.8464914438e-06 -5.2208291362e-04 0.0000000000e+00 
          5.7073546763e-06 -5.2231548065e-04 0.0000000000e+00 
          5.5856176251e-06 -5.2251696395e-04 0.0000000000e+00 
          5.4817863237e-06 -5.2268761104e-04 0.0000000000e+00 
          5.3962453467e-06 -5.2282699953e-04 0.0000000000e+00 
          5.3293714775e-06 -5.2293566600e-04 0.0000000000e+00 
          5.2814053484e-06 -5.2301310074e-04 0.0000000000e+00 
          5.2525411757e-06 -5.2305959761e-04 0.0000000000e+00 
        </DataArray>
        <DataArray type="Float64" Name="Acceleration" NumberOfComponents="3" format="ascii">
          -1.9781404647e-03 1.6740519123e-06 0.0000000000e+00 
          -1.9781404647e-03 1.6740519123e-06 0.0000000000e+00 
          1.7321789901e-03 3.1415701763e-05 0.0000000000e+00 
          1.7321789901e-03 3.1415701763e-05 0.0000000000e+00 
          0.0000000000e+00 0.0000000000e+00 0.0000000000e+00 
          0.0000000000e+00 0.0000000000e+00 0.0000000000e+00 
          -1.8563693950e-03 -7.6471879107e-06 0.0000000000e+00 
          -1.7317072565e-03 -5.4865868497e-06 0.0000000000e+00 
          -1.6021583536e-03 3.2654414811e-05 0.0000000000e+00 
          -1.4762671896e-03 -5.1948062401e-05 0.0000000000e+00 
          -1.3426701219e-03 5.1789062291e-05 0.0000000000e+00 
          -1.2104754595e-03 -3.8084994447e-05 0.0000000000e+00 
          -1.0788960502e-03 1.6056527126e-05 0.0000000000e+00 
          -9.4134811509e-04 1.5090800157e-05 0.0000000000e+00 
          -8.1072824945e-04 -4.4268929329e-05 0.0000000000e+00 
          -6.7414604251e-04 5.4137598655e-05 0.0000000000e+00 
          -5.4068111534e-04 -3.5618368517e-05 0.0000000000e+00 
          -4.0884927126e-04 4.2704811509e-06 0.0000000000e+00 
          -2.7563943092e-04 1.3960391088e-05 0.0000000000e+00 
          -1.4666941492e-04 -8.3029543033e-06 0.0000000000e+00 
          -1.8262322941e-05 -6.6602828201e-06 0.0000000000e+00 
          1.0832432356e-04 1.5877381622e-05 0.0000000000e+00 
          2.3085728841e-04 -1.0065472201e-05 0.0000000000e+00 
          3.5170177980e-04 -8.8545510339e-06 0.0000000000e+00 
          4.6904209815e-04 2.8666844057e-05 0.0000000000e+00 
          5.8136134697e-04 -3.2408751169e-05 0.0000000000e+00 
          6.9327785311e-04 2.3320137172e-05 0.0000000000e+00 
          7.9628893254e-04 -1.1610445538e-05 0.0000000000e+00 
          8.9917232400e-04 4.1847870741e-06 0.0000000000e+00 
          9.9477448862e-04 2.6251952634e-07 0.0000000000e+00 
          1.0857247191e-03 3.2211573495e-06 0.0000000000e+00 
          1.1729541508e-03 -1.7467942308e-05 0.0000000000e+00 
          1.2525630953e-03 3.5545182218e-05 0.0000000000e+00 
          1.3284448962e-03 -4.4687608033e-05 0.0000000000e+00 
          1.3965314469e-03 4.0527861505e-05 0.0000000000e+00 
          1.4615012168e-03 -2.4837085187e-05 0.0000000000e+00 
          1.5164250973e-03 5.1199849180e-06 0.0000000000e+00 
          1.5677355551e-03 1.3904761673e-05 0.0000000000e+00 
          1.6133587358e-03 -3.0607207309e-05 0.0000000000e+00 
          1.6479943406e-03 4.5458769023e-05 0.0000000000e+00 
          1.6819432838e-03 -5.1234920958e-05 0.0000000000e+00 
          1.7036202138e-03 4.0601726534e-05 0.0000000000e+00 
          1.7211307223e-03 -1.2315944973e-05 0.0000000000e+00 
          1.7346294727e-03 -1.7984726386e-05 0.0000000000e+00 
          -1.8563693950e-03 -7.6471879107e-06 0.0000000000e+00 
          -1.7317072565e-03 -5.4865868497e-06 0.0000000000e+00 
          -1.6021583536e-03 3.2654414811e-05 0.0000000000e+00 
          -1.4762671896e-03 -5.1948062401e-05 0.0000000000e+00 
          -1.3426701219e-03 5.1789062291e-05 0.0000000000e+00 
          -1.2104754595e-03 -3.8084994447e-05 0.0000000000e+00 
          -1.0788960502e-03 1.6056527126e-05 0.0000000000e+00 
          -9.4134811509e-04 1.5090800157e-05 0.0000000000e+00 
          -8.1072824945e-04 -4.4268929329e-05 0.0000000000e+00 
          -6.7414604251e-04 5.4137598655e-05 0.0000000000e+00 
          -5.4068111534e-04 -3.5618368517e-05 0.0000000000e+00 
          -4.0884927126e-04 4.2704811509e-06 0.0000000000e+00 
          -2.7563943092e-04 1.3960391088e-05 0.0000000000e+00 
          -1.4666941492e-04 -8.3029543033e-06 0.0000000000e+00 
          -1.8262322941e-05 -6.6602828201e-06 0.0000000000e+00 
          1.0832432356e-04 1.5877381622e-05 0.0000000000e+00 
          2.3085728841e-04 -1.0065472201e-05 0.0000000000e+00 
          3.5170177980e-04 -8.8545510339e-06 0.0000000000e+00 
          4.6904209815e-04 2.8666844057e-05 0.0000000000e+00 
          5.8136134697e-04 -3.2408751169e-05 0.0000000000e+00 
          6.9327785311e-04 2.3320137172e-05 0.0000000000e+00 
          7.9628893254e-04 -1.1610445538e-05 0.0000000000e+00 
          8.9917232400e-04 4.1847870741e-06 0.0000000000e+00 
          9.9477448862e-04 2.6251952634e-07 0.0000000000e+00 
          1.0857247191e-03 3.2211573495e-06 0.0000000000e+00 
          1.1729541508e-03 -1.7467942308e-05 0.0000000000e+00 
          1.2525630953e-03 3.5545182218e-05 0.0000000000e+00 
          1.3284448962e-03 -4.4687608033e-05 0.0000000000e+00 
          1.3965314469e-03 4.0527861505e-05 0.0000000000e+00 
          1.4615012168e-03 -2.4837085187e-05 0.0000000000e+00 
          1.5164250973e-03 5.1199849180e-06 0.0000000000e+00 
          1.5677355551e-03 1.3904761673e-05 0.0000000000e+00 
          1.6133587358e-03 -3.0607207309e-05 0.0000000000e+00 
          1.6479943406e-03 4.5458769023e-05 0.0000000000e+00 
          1.6819432838e-03 -5.1234920958e-05 0.0000000000e+00 
          1.7036202138e-03 4.0601726534e-05 0.0000000000e+00 
          1.7211307223e-03 -1.2315944973e-05 0.0000000000e+00 
          1.7346294727e-03 -1.7984726386e-05 0.0000000000e+00 
        </DataArray>
        <DataArray type="Float64" Name="Reaction" NumberOfComponents="3" format="ascii">
          0.0000000000e+00 0.0000000000e+00 0.0000000000e+00 
          0.0000000000e+00 0.0000000000e+00 0.0000000000e+00 
          0.0000000000e+00 0.0000000000e+00 0.0000000000e+00 
          0.0000000000e+00 0.0000000000e+00 0.0000000000e+00 
          0.0000000000e+00 0.0000000000e+00 0.0000000000e+00 
          0.0000000000e+00 0.0000000000e+00 0.0000000000e+00 
          0.0000000000e+00 0.0000000000e+00 0.0000000000e+00 
          0.0000000000e+00 0.0000000000e+00 0.0000000000e+00 
          0.0000000000e+00 0.0000000000e+00 0.0000000000e+00 
          0.0000000000e+00 0.0000000000e+00 0.0000000000e+00 
          0.0000000000e+00 0.0000000000e+00 0.0000000000e+00 
          0.0000000000e+00 0.0000000000e+00 0.0000000000e+00 
          0.0000000000e+00 0.0000000000e+00 0.0000000000e+00 
          0.0000000000e+00 0.0000000000e+00 0.0000000000e+00 
          0.0000000000e+00 0.0000000000e+00 0.0000000000e+00 
          0.0000000000e+00 0.0000000000e+00 0.0000000000e+00 
          0.0000000000e+00 0.0000000000e+00 0.0000000000e+00 
          0.0000000000e+00 0.0000000000e+00 0.0000000000e+00 
          0.0000000000e+00 0.0000000000e+00 0.0000000000e+00 
          0.0000000000e+00 0.0000000000e+00 0.0000000000e+00 
          0.0000000000e+00 0.0000000000e+00 0.0000000000e+00 
          0.0000000000e+00 0.0000000000e+00 0.0000000000e+00 
          0.0000000000e+00 0.0000000000e+00 0.0000000000e+00 
          0.0000000000e+00 0.0000000000e+00 0.0000000000e+00 
          0.0000000000e+00 0.0000000000e+00 0.0000000000e+00 
          0.0000000000e+00 0.0000000000e+00 0.0000000000e+00 
          0.0000000000e+00 0.0000000000e+00 0.0000000000e+00 
          0.0000000000e+00 0.0000000000e+00 0.0000000000e+00 
          0.0000000000e+00 0.0000000000e+00 0.0000000000e+00 
          0.0000000000e+00 0.0000000000e+00 0.0000000000e+00 
          0.0000000000e+00 0.0000000000e+00 0.0000000000e+00 
          0.0000000000e+00 0.0000000000e+00 0.0000000000e+00 
          0.0000000000e+00 0.0000000000e+00 0.0000000000e+00 
          0.0000000000e+00 0.0000000000e+00 0.0000000000e+00 
          0.0000000000e+00 0.0000000000e+00 0.0000000000e+00 
          0.0000000000e+00 0.0000000000e+00 0.0000000000e+00 
          0.0000000000e+00 0.0000000000e+00 0.0000000000e+00 
          0.0000000000e+00 0.0000000000e+00 0.0000000000e+00 
          0.0000000000e+00 0.0000000000e+00 0.0000000000e+00 
          0.0000000000e+00 0.0000000000e+00 0.0000000000e+00 
          0.0000000000e+00 0.0000000000e+00 0.0000000000e+00 
          0.0000000000e+00 0.0000000000e+00 0.0000000000e+00 
          0.0000000000e+00 0.0000000000e+00 0.0000000000e+00 
          0.0000000000e+00 0.0000000000e+00 0.0000000000e+00 
          0.0000000000e+00 0.0000000000e+00 0.0000000000e+00 
          0.0000000000e+00 0.0000000000e+00 0.0000000000e+00 
          0.0000000000e+00 0.0000000000e+00 0.0000000000e+00 
          0.0000000000e+00 0.0000000000e+00 0.0000000000e+00 
          0.0000000000e+00 0.0000000000e+00 0.0000000000e+00 
          0.0000000000e+00 0.0000000000e+00 0.0000000000e+00 
          0.0000000000e+00 0.0000000000e+00 0.0000000000e+00 
          0.0000000000e+00 0.0000000000e+00 0.0000000000e+00 
          0.0000000000e+00 0.0000000000e+00 0.0000000000e+00 
          0.0000000000e+00 0.0000000000e+00 0.0000000000e+00 
          0.0000000000e+00 0.0000000000e+00 0.0000000000e+00 
          0.0000000000e+00 0.0000000000e+00 0.0000000000e+00 
          0.0000000000e+00 0.0000000000e+00 0.0000000000e+00 
          0.0000000000e+00 0.0000000000e+00 0.0000000000e+00 
          0.0000000000e+00 0.0000000000e+00 0.0000000000e+00 
          0.0000000000e+00 0.0000000000e+00 0.0000000000e+00 
          0.0000000000e+00 0.0000000000e+00 0.0000000000e+00 
          0.0000000000e+00 0.0000000000e+00 0.0000000000e+00 
          0.0000000000e+00 0.0000000000e+00 0.0000000000e+00 
          0.0000000000e+00 0.0000000000e+00 0.0000000000e+00 
          0.0000000000e+00 0.0000000000e+00 0.0000000000e+00 
          0.0000000000e+00 0.0000000000e+00 0.0000000000e+00 
          0.0000000000e+00 0.0000000000e+00 0.0000000000e+00 
          0.0000000000e+00 0.0000000000e+00 0.0000000000e+00 
          0.0000000000e+00 0.0000000000e+00 0.0000000000e+00 
          0.0000000000e+00 0.0000000000e+00 0.0000000000e+00 
          0.0000000000e+00 0.0000000000e+00 0.0000000000e+00 
          0.0000000000e+00 0.0000000000e+00 0.0000000000e+00 
          0.0000000000e+00 0.0000000000e+00 0.0000000000e+00 
          0.0000000000e+00 0.0000000000e+00 0.0000000000e+00 
          0.0000000000e+00 0.0000000000e+00 0.0000000000e+00 
          0.0000000000e+00 0.0000000000e+00 0.0000000000e+00 
          0.0000000000e+00 0.0000000000e+00 0.0000000000e+00 
          0.0000000000e+00 0.0000000000e+00 0.0000000000e+00 
          0.0000000000e+00 0.0000000000e+00 0.0000000000e+00 
          0.0000000000e+00 0.0000000000e+00 0.0000000000e+00 
          0.0000000000e+00 0.0000000000e+00 0.0000000000e+00 
          0.0000000000e+00 0.0000000000e+00 0.0000000000e+00 
        </DataArray>
      </PointData>
      <CellData>
        <DataArray type="Int64" Name="ElementTag" format="ascii">
          0
        </DataArray>
      </CellData>
    </Piece>
  </UnstructuredGrid>
</VTKFile>
