<?xml version="1.0"?>
<VTKFile type="UnstructuredGrid" version="1.0" byte_order="LittleEndian" compressor="vtkZLibDataCompressor">
  <UnstructuredGrid>
    <Piece NumberOfPoints="80" NumberOfCells="39">
      <Points>
        <DataArray type="Float64" Name="Points" NumberOfComponents="3" format="ascii">
          0.0000000000e+00 0.0000000000e+00 0.0000000000e+00 
          2.5000000000e-01 0.0000000000e+00 0.0000000000e+00 
          2.5000000000e-01 3.0000000000e+01 0.0000000000e+00 
          0.0000000000e+00 3.0000000000e+01 0.0000000000e+00 
          2.5000000000e-01 7.6923100000e-01 0.0000000000e+00 
          2.5000000000e-01 1.5384620000e+00 0.0000000000e+00 
          2.5000000000e-01 2.3076920000e+00 0.0000000000e+00 
          2.5000000000e-01 3.0769230000e+00 0.0000000000e+00 
          2.5000000000e-01 3.8461540000e+00 0.0000000000e+00 
          2.5000000000e-01 4.6153850000e+00 0.0000000000e+00 
          2.5000000000e-01 5.3846150000e+00 0.0000000000e+00 
          2.5000000000e-01 6.1538460000e+00 0.0000000000e+00 
          2.5000000000e-01 6.9230770000e+00 0.0000000000e+00 
          2.5000000000e-01 7.6923080000e+00 0.0000000000e+00 
          2.5000000000e-01 8.4615380000e+00 0.0000000000e+00 
          2.5000000000e-01 9.2307690000e+00 0.0000000000e+00 
          2.5000000000e-01 1.0000000000e+01 0.0000000000e+00 
          2.5000000000e-01 1.0769231000e+01 0.0000000000e+00 
          2.5000000000e-01 1.1538462000e+01 0.0000000000e+00 
          2.5000000000e-01 1.2307692000e+01 0.0000000000e+00 
          2.5000000000e-01 1.3076923000e+01 0.0000000000e+00 
          2.5000000000e-01 1.3846154000e+01 0.0000000000e+00 
          2.5000000000e-01 1.4615385000e+01 0.0000000000e+00 
          2.5000000000e-01 1.5384615000e+01 0.0000000000e+00 
          2.5000000000e-01 1.6153846000e+01 0.0000000000e+00 
          2.5000000000e-01 1.6923077000e+01 0.0000000000e+00 
          2.5000000000e-01 1.7692308000e+01 0.0000000000e+00 
          2.5000000000e-01 1.8461538000e+01 0.0000000000e+00 
          2.5000000000e-01 1.9230769000e+01 0.0000000000e+00 
          2.5000000000e-01 2.0000000000e+01 0.0000000000e+00 
          2.5000000000e-01 2.0769231000e+01 0.0000000000e+00 
          2.5000000000e-01 2.1538462000e+01 0.0000000000e+00 
          2.5000000000e-01 2.2307692000e+01 0.0000000000e+00 
          2.5000000000e-01 2.3076923000e+01 0.0000000000e+00 
          2.5000000000e-01 2.3846154000e+01 0.0000000000e+00 
          2.5000000000e-01 2.4615385000e+01 0.0000000000e+00 
          2.5000000000e-01 2.5384615000e+01 0.0000000000e+00 
          2.5000000000e-01 2.6153846000e+01 0.0000000000e+00 
          2.5000000000e-01 2.6923077000e+01 0.0000000000e+00 
          2.5000000000e-01 2.7692308000e+01 0.0000000000e+00 
          2.5000000000e-01 2.8461538000e+01 0.0000000000e+00 
          2.5000000000e-01 2.9230769000e+01 0.0000000000e+00 
          0.0000000000e+00 7.6923100000e-01 0.0000000000e+00 
          0.0000000000e+00 1.5384620000e+00 0.0000000000e+00 
          0.0000000000e+00 2.3076920000e+00 0.0000000000e+00 
          0.0000000000e+00 3.0769230000e+00 0.0000000000e+00 
          0.0000000000e+00 3.8461540000e+00 0.0000000000e+00 
          0.0000000000e+00 4.6153850000e+00 0.0000000000e+00 
          0.0000000000e+00 5.3846150000e+00 0.0000000000e+00 
          0.0000000000e+00 6.1538460000e+00 0.0000000000e+00 
          0.0000000000e+00 6.9230770000e+00 0.0000000000e+00 
          0.0000000000e+00 7.6923080000e+00 0.0000000000e+00 
          0.0000000000e+00 8.4615380000e+00 0.0000000000e+00 
          0.0000000000e+00 9.2307690000e+00 0.0000000000e+00 
          0.0000000000e+00 1.0000000000e+01 0.0000000000e+00 
          0.0000000000e+00 1.0769231000e+01 0.0000000000e+00 
          0.0000000000e+00 1.1538462000e+01 0.0000000000e+00 
          0.0000000000e+00 1.2307692000e+01 0.0000000000e+00 
          0.0000000000e+00 1.3076923000e+01 0.0000000000e+00 
          0.0000000000e+00 1.3846154000e+01 0.0000000000e+00 
          0.0000000000e+00 1.4615385000e+01 0.0000000000e+00 
          0.0000000000e+00 1.5384615000e+01 0.0000000000e+00 
          0.0000000000e+00 1.6153846000e+01 0.0000000000e+00 
          0.0000000000e+00 1.6923077000e+01 0.0000000000e+00 
          0.0000000000e+00 1.7692308000e+01 0.0000000000e+00 
          0.0000000000e+00 1.8461538000e+01 0.0000000000e+00 
          0.0000000000e+00 1.9230769000e+01 0.0000000000e+00 
          0.0000000000e+00 2.0000000000e+01 0.0000000000e+00 
          0.0000000000e+00 2.0769231000e+01 0.0000000000e+00 
          0.0000000000e+00 2.1538462000e+01 0.0000000000e+00 
          0.0000000000e+00 2.2307692000e+01 0.0000000000e+00 
          0.0000000000e+00 2.3076923000e+01 0.0000000000e+00 
          0.0000000000e+00 2.3846154000e+01 0.0000000000e+00 
          0.0000000000e+00 2.4615385000e+01 0.0000000000e+00 
          0.0000000000e+00 2.5384615000e+01 0.0000000000e+00 
          0.0000000000e+00 2.6153846000e+01 0.0000000000e+00 
          0.0000000000e+00 2.6923077000e+01 0.0000000000e+00 
          0.0000000000e+00 2.7692308000e+01 0.0000000000e+00 
          0.0000000000e+00 2.8461538000e+01 0.0000000000e+00 
          0.0000000000e+00 2.9230769000e+01 0.0000000000e+00 
        </DataArray>
      </Points>
      <Cells>
        <DataArray type="Int64" Name="connectivity" format="ascii">
          0 1 4 42 
          42 4 5 43 
          43 5 6 44 
          44 6 7 45 
          45 7 8 46 
          46 8 9 47 
          47 9 10 48 
          48 10 11 49 
          49 11 12 50 
          50 12 13 51 
          51 13 14 52 
          52 14 15 53 
          53 15 16 54 
          54 16 17 55 
          55 17 18 56 
          56 18 19 57 
          57 19 20 58 
          58 20 21 59 
          59 21 22 60 
          60 22 23 61 
          61 23 24 62 
          62 24 25 63 
          63 25 26 64 
          64 26 27 65 
          65 27 28 66 
          66 28 29 67 
          67 29 30 68 
          68 30 31 69 
          69 31 32 70 
          70 32 33 71 
          71 33 34 72 
          72 34 35 73 
          73 35 36 74 
          74 36 37 75 
          75 37 38 76 
          76 38 39 77 
          77 39 40 78 
          78 40 41 79 
          79 41 2 3 
        </DataArray>
        <DataArray type="Int64" Name="offsets" format="ascii">
          4
          8
          12
          16
          20
          24
          28
          32
          36
          40
          44
          48
          52
          56
          60
          64
          68
          72
          76
          80
          84
          88
          92
          96
          100
          104
          108
          112
          116
          120
          124
          128
          132
          136
          140
          144
          148
          152
          156
        </DataArray>
        <DataArray type="Int64" Name="types" format="ascii">
          9
          9
          9
          9
          9
          9
          9
          9
          9
          9
          9
          9
          9
          9
          9
          9
          9
          9
          9
          9
          9
          9
          9
          9
          9
          9
          9
          9
          9
          9
          9
          9
          9
          9
          9
          9
          9
          9
          9
        </DataArray>
      </Cells>
      <PointData>
        <DataArray type="Int64" Name="NodeTag" format="ascii">
          1
          2
          3
          4
          7
          8
          9
          10
          11
          12
          13
          14
          15
          16
          17
          18
          19
          20
          21
          22
          23
          24
          25
          26
          27
          28
          29
          30
          31
          32
          33
          34
          35
          36
          37
          38
          39
          40
          41
          42
          43
          44
          45
          46
          47
          48
          49
          50
          51
          52
          53
          54
          55
          56
          57
          58
          59
          60
          61
          62
          63
          64
          65
          66
          67
          68
          69
          70
          71
          72
          73
          74
          75
          76
          77
          78
          79
          80
          81
          82
        </DataArray>
        <DataArray type="Float64" Name="Velocity" NumberOfComponents="3" format="ascii">
          1.7441310030e-05 -7.7846035315e-05 0.0000000000e+00 
          1.7441310030e-05 -7.7846035315e-05 0.0000000000e+00 
          -4.8401024934e-06 -7.7785467101e-05 0.0000000000e+00 
          -4.8401024934e-06 -7.7785467101e-05 0.0000000000e+00 
          1.6767691613e-05 -7.7814255305e-05 0.0000000000e+00 
          1.6071384948e-05 -7.7885879255e-05 0.0000000000e+00 
          1.5348394627e-05 -7.7809914903e-05 0.0000000000e+00 
          1.4615189750e-05 -7.7868606063e-05 0.0000000000e+00 
          1.3853810652e-05 -7.7827057485e-05 0.0000000000e+00 
          1.3089338692e-05 -7.7858503944e-05 0.0000000000e+00 
          1.2307323098e-05 -7.7836218739e-05 0.0000000000e+00 
          1.1515504576e-05 -7.7847977196e-05 0.0000000000e+00 
          1.0727417966e-05 -7.7840862905e-05 0.0000000000e+00 
          9.9198468596e-06 -7.7858407052e-05 0.0000000000e+00 
          9.1281382673e-06 -7.7818471341e-05 0.0000000000e+00 
          8.3275375070e-06 -7.7876046435e-05 0.0000000000e+00 
          7.5319719682e-06 -7.7825659429e-05 0.0000000000e+00 
          6.7511383037e-06 -7.7838172569e-05 0.0000000000e+00 
          5.9675196042e-06 -7.7877172207e-05 0.0000000000e+00 
          5.2063279804e-06 -7.7805779768e-05 0.0000000000e+00 
          4.4524411965e-06 -7.7866294795e-05 0.0000000000e+00 
          3.7159351317e-06 -7.7852589580e-05 0.0000000000e+00 
          3.0010878421e-06 -7.7817934792e-05 0.0000000000e+00 
          2.3015662972e-06 -7.7872386368e-05 0.0000000000e+00 
          1.6291964988e-06 -7.7833997178e-05 0.0000000000e+00 
          9.7821320812e-07 -7.7834149905e-05 0.0000000000e+00 
          3.5596826899e-07 -7.7869144832e-05 0.0000000000e+00 
          -2.4017620442e-07 -7.7828360496e-05 0.0000000000e+00 
          -8.0329427796e-07 -7.7839450679e-05 0.0000000000e+00 
          -1.3391882157e-06 -7.7870208431e-05 0.0000000000e+00 
          -1.8374160559e-06 -7.7816617197e-05 0.0000000000e+00 
          -2.3032189631e-06 -7.7861074603e-05 0.0000000000e+00 
          -2.7337832121e-06 -7.7851316211e-05 0.0000000000e+00 
          -3.1258770794e-06 -7.7814492104e-05 0.0000000000e+00 
          -3.4790311478e-06 -7.7894470277e-05 0.0000000000e+00 
          -3.7963921134e-06 -7.7788211009e-05 0.0000000000e+00 
          -4.0681591384e-06 -7.7897506072e-05 0.0000000000e+00 
          -4.3039486197e-06 -7.7804722045e-05 0.0000000000e+00 
          -4.4969230635e-06 -7.7868582025e-05 0.0000000000e+00 
          -4.6435868565e-06 -7.7844606737e-05 0.0000000000e+00 
          -4.7551361937e-06 -7.7817876267e-05 0.0000000000e+00 
          -4.8168181748e-06 -7.7895536462e-05 0.0000000000e+00 
          1.6767691613e-05 -7.7814255305e-05 0.0000000000e+00 
          1.6071384948e-05 -7.7885879255e-05 0.0000000000e+00 
          1.5348394627e-05 -7.7809914903e-05 0.0000000000e+00 
          1.4615189750e-05 -7.7868606063e-05 0.0000000000e+00 
          1.3853810652e-05 -7.7827057485e-05 0.0000000000e+00 
          1.3089338692e-05 -7.7858503944e-05 0.0000000000e+00 
          1.2307323098e-05 -7.7836218739e-05 0.0000000000e+00 
          1.1515504576e-05 -7.7847977196e-05 0.0000000000e+00 
          1.0727417966e-05 -7.7840862905e-05 0.0000000000e+00 
          9.9198468596e-06 -7.7858407052e-05 0.0000000000e+00 
          9.1281382673e-06 -7.7818471341e-05 0.0000000000e+00 
          8.3275375070e-06 -7.7876046435e-05 0.0000000000e+00 
          7.5319719682e-06 -7.7825659429e-05 0.0000000000e+00 
          6.7511383037e-06 -7.7838172569e-05 0.0000000000e+00 
          5.9675196042e-06 -7.7877172207e-05 0.0000000000e+00 
          5.2063279804e-06 -7.7805779768e-05 0.0000000000e+00 
          4.4524411965e-06 -7.7866294795e-05 0.0000000000e+00 
          3.7159351317e-06 -7.7852589580e-05 0.0000000000e+00 
          3.0010878421e-06 -7.7817934792e-05 0.0000000000e+00 
          2.3015662972e-06 -7.7872386368e-05 0.0000000000e+00 
          1.6291964988e-06 -7.7833997178e-05 0.0000000000e+00 
          9.7821320812e-07 -7.7834149905e-05 0.0000000000e+00 
          3.5596826899e-07 -7.7869144832e-05 0.0000000000e+00 
          -2.4017620442e-07 -7.7828360496e-05 0.0000000000e+00 
          -8.0329427796e-07 -7.7839450679e-05 0.0000000000e+00 
          -1.3391882157e-06 -7.7870208431e-05 0.0000000000e+00 
          -1.8374160559e-06 -7.7816617197e-05 0.0000000000e+00 
          -2.3032189631e-06 -7.7861074603e-05 0.0000000000e+00 
          -2.7337832121e-06 -7.7851316211e-05 0.0000000000e+00 
          -3.1258770794e-06 -7.7814492104e-05 0.0000000000e+00 
          -3.4790311478e-06 -7.7894470277e-05 0.0000000000e+00 
          -3.7963921134e-06 -7.7788211009e-05 0.0000000000e+00 
          -4.0681591384e-06 -7.7897506072e-05 0.0000000000e+00 
          -4.3039486197e-06 -7.7804722045e-05 0.0000000000e+00 
          -4.4969230635e-06 -7.7868582025e-05 0.0000000000e+00 
          -4.6435868565e-06 -7.7844606737e-05 0.0000000000e+00 
          -4.7551361937e-06 -7.7817876267e-05 0.0000000000e+00 
          -4.8168181748e-06 -7.7895536462e-05 0.0000000000e+00 
        </DataArray>
        <DataArray type="Float64" Name="Displacement" NumberOfComponents="3" format="ascii">
          -1.0233307399e-07 -6.1081190506e-04 0.0000000000e+00 
          -1.0233307399e-07 -6.1081190506e-04 0.0000000000e+00 
          6.9990162311e-06 -6.3439219509e-04 0.0000000000e+00 
          6.9990162311e-06 -6.3439219509e-04 0.0000000000e+00 
          1.8708882235e-07 -6.1200566788e-04 0.0000000000e+00 
          4.7562290055e-07 -6.1316833908e-04 0.0000000000e+00 
          7.6282265008e-07 -6.1430018324e-04 0.0000000000e+00 
          1.0482511321e-06 -6.1540076543e-04 0.0000000000e+00 
          1.3314588127e-06 -6.1647061910e-04 0.0000000000e+00 
          1.6120256937e-06 -6.1750925497e-04 0.0000000000e+00 
          1.8895092476e-06 -6.1851695713e-04 0.0000000000e+00 
          2.1634849911e-06 -6.1949373020e-04 0.0000000000e+00 
          2.4335469938e-06 -6.2043931354e-04 0.0000000000e+00 
          2.6992556068e-06 -6.2135411757e-04 0.0000000000e+00 
          2.9602294427e-06 -6.2223770607e-04 0.0000000000e+00 
          3.2160550140e-06 -6.2309043212e-04 0.0000000000e+00 
          3.4663342350e-06 -6.2391208726e-04 0.0000000000e+00 
          3.7107008757e-06 -6.2470275109e-04 0.0000000000e+00 
          3.9487583579e-06 -6.2546239099e-04 0.0000000000e+00 
          4.1801542160e-06 -6.2619107798e-04 0.0000000000e+00 
          4.4045316690e-06 -6.2688868154e-04 0.0000000000e+00 
          4.6215255489e-06 -6.2755533911e-04 0.0000000000e+00 
          4.8308350592e-06 -6.2819096764e-04 0.0000000000e+00 
          5.0320963039e-06 -6.2879559130e-04 0.0000000000e+00 
          5.2250269955e-06 -6.2936920574e-04 0.0000000000e+00 
          5.4093193472e-06 -6.2991181567e-04 0.0000000000e+00 
          5.5846651586e-06 -6.3042343732e-04 0.0000000000e+00 
          5.7508376872e-06 -6.3090400520e-04 0.0000000000e+00 
          5.9075225630e-06 -6.3135364258e-04 0.0000000000e+00 
          6.0545118229e-06 -6.3177216393e-04 0.0000000000e+00 
          6.1915710441e-06 -6.3215983002e-04 0.0000000000e+00 
          6.3184589808e-06 -6.3251631948e-04 0.0000000000e+00 
          6.4350125516e-06 -6.3284193185e-04 0.0000000000e+00 
          6.5410211333e-06 -6.3313649928e-04 0.0000000000e+00 
          6.6363254424e-06 -6.3340002427e-04 0.0000000000e+00 
          6.7207829760e-06 -6.3363257649e-04 0.0000000000e+00 
          6.7942431562e-06 -6.3383416191e-04 0.0000000000e+00 
          6.8566081842e-06 -6.3400463185e-04 0.0000000000e+00 
          6.9077653728e-06 -6.3414420026e-04 0.0000000000e+00 
          6.9476388823e-06 -6.3425273268e-04 0.0000000000e+00 
          6.9761672861e-06 -6.3433019467e-04 0.0000000000e+00 
          6.9933006714e-06 -6.3437678580e-04 0.0000000000e+00 
          1.8708882235e-07 -6.1200566788e-04 0.0000000000e+00 
          4.7562290055e-07 -6.1316833908e-04 0.0000000000e+00 
          7.6282265008e-07 -6.1430018324e-04 0.0000000000e+00 
          1.0482511321e-06 -6.1540076543e-04 0.0000000000e+00 
          1.3314588127e-06 -6.1647061910e-04 0.0000000000e+00 
          1.6120256937e-06 -6.1750925497e-04 0.0000000000e+00 
          1.8895092476e-06 -6.1851695713e-04 0.0000000000e+00 
          2.1634849911e-06 -6.1949373020e-04 0.0000000000e+00 
          2.4335469938e-06 -6.2043931354e-04 0.0000000000e+00 
          2.6992556068e-06 -6.2135411757e-04 0.0000000000e+00 
          2.9602294427e-06 -6.2223770607e-04 0.0000000000e+00 
          3.2160550140e-06 -6.2309043212e-04 0.0000000000e+00 
          3.4663342350e-06 -6.2391208726e-04 0.0000000000e+00 
          3.7107008757e-06 -6.2470275109e-04 0.0000000000e+00 
          3.9487583579e-06 -6.2546239099e-04 0.0000000000e+00 
          4.1801542160e-06 -6.2619107798e-04 0.0000000000e+00 
          4.4045316690e-06 -6.2688868154e-04 0.0000000000e+00 
          4.6215255489e-06 -6.2755533911e-04 0.0000000000e+00 
          4.8308350592e-06 -6.2819096764e-04 0.0000000000e+00 
          5.0320963039e-06 -6.2879559130e-04 0.0000000000e+00 
          5.2250269955e-06 -6.2936920574e-04 0.0000000000e+00 
          5.4093193472e-06 -6.2991181567e-04 0.0000000000e+00 
          5.5846651586e-06 -6.3042343732e-04 0.0000000000e+00 
          5.7508376872e-06 -6.3090400520e-04 0.0000000000e+00 
          5.9075225630e-06 -6.3135364258e-04 0.0000000000e+00 
          6.0545118229e-06 -6.3177216393e-04 0.0000000000e+00 
          6.1915710441e-06 -6.3215983002e-04 0.0000000000e+00 
          6.3184589808e-06 -6.3251631948e-04 0.0000000000e+00 
          6.4350125516e-06 -6.3284193185e-04 0.0000000000e+00 
          6.5410211333e-06 -6.3313649928e-04 0.0000000000e+00 
          6.6363254424e-06 -6.3340002427e-04 0.0000000000e+00 
          6.7207829760e-06 -6.3363257649e-04 0.0000000000e+00 
          6.7942431562e-06 -6.3383416191e-04 0.0000000000e+00 
          6.8566081842e-06 -6.3400463185e-04 0.0000000000e+00 
          6.9077653728e-06 -6.3414420026e-04 0.0000000000e+00 
          6.9476388823e-06 -6.3425273268e-04 0.0000000000e+00 
          6.9761672861e-06 -6.3433019467e-04 0.0000000000e+00 
          6.9933006714e-06 -6.3437678580e-04 0.0000000000e+00 
        </DataArray>
        <DataArray type="Float64" Name="Acceleration" NumberOfComponents="3" format="ascii">
          -3.9750699232e-05 1.8543247423e-06 0.0000000000e+00 
          -3.9750699232e-05 1.8543247423e-06 0.0000000000e+00 
          -1.0299664287e-03 -3.3834859778e-05 0.0000000000e+00 
          -1.0299664287e-03 -3.3834859778e-05 0.0000000000e+00 
          -7.9994168047e-05 1.5368280666e-05 0.0000000000e+00 
          -1.2019208678e-04 -3.2571936316e-05 0.0000000000e+00 
          -1.5962844300e-04 4.6335762657e-05 0.0000000000e+00 
          -2.0009859394e-04 -5.0065035735e-05 0.0000000000e+00 
          -2.3794125715e-04 3.8108986953e-05 0.0000000000e+00 
          -2.7778154531e-04 -1.3321952149e-05 0.0000000000e+00 
          -3.1609334589e-04 -1.3680989817e-05 0.0000000000e+00 
          -3.5263578529e-04 3.3049012837e-05 0.0000000000e+00 
          -3.9224899359e-04 -4.0911605927e-05 0.0000000000e+00 
          -4.2658248456e-04 3.7495302166e-05 0.0000000000e+00 
          -4.6389967696e-04 -2.5719177497e-05 0.0000000000e+00 
          -4.9973712143e-04 1.1635356282e-05 0.0000000000e+00 
          -5.3273515564e-04 -2.7054752845e-06 0.0000000000e+00 
          -5.6846763954e-04 3.1670903592e-06 0.0000000000e+00 
          -6.0019877210e-04 -9.7921813426e-06 0.0000000000e+00 
          -6.3239967638e-04 1.4066016049e-05 0.0000000000e+00 
          -6.6527451763e-04 -1.0876029796e-05 0.0000000000e+00 
          -6.9237687002e-04 4.0937212922e-06 0.0000000000e+00 
          -7.2514153641e-04 -4.0473403823e-07 0.0000000000e+00 
          -7.5062333299e-04 6.6622142997e-07 0.0000000000e+00 
          -7.7833148889e-04 -3.2939736111e-07 0.0000000000e+00 
          -8.0610095662e-04 -3.2546880603e-06 0.0000000000e+00 
          -8.2651196617e-04 8.4393179303e-06 0.0000000000e+00 
          -8.5487627070e-04 -1.3549537057e-05 0.0000000000e+00 
          -8.7359413871e-04 1.9765949639e-05 0.0000000000e+00 
          -8.9471609424e-04 -2.7224238792e-05 0.0000000000e+00 
          -9.1645282927e-04 3.0687878617e-05 0.0000000000e+00 
          -9.3113372298e-04 -2.3364780633e-05 0.0000000000e+00 
          -9.5013860841e-04 7.0381415154e-06 0.0000000000e+00 
          -9.6447610859e-04 6.5045185247e-06 0.0000000000e+00 
          -9.7731588716e-04 -6.0469603630e-06 0.0000000000e+00 
          -9.9087530655e-04 -7.1700853438e-06 0.0000000000e+00 
          -9.9970437534e-04 1.9719504436e-05 0.0000000000e+00 
          -1.0098484571e-03 -1.8887716620e-05 0.0000000000e+00 
          -1.0166817831e-03 5.3460246048e-06 0.0000000000e+00 
          -1.0222137381e-03 1.1532734251e-05 0.0000000000e+00 
          -1.0267176861e-03 -2.4390021720e-05 0.0000000000e+00 
          -1.0287686358e-03 3.1625866584e-05 0.0000000000e+00 
          -7.9994168047e-05 1.5368280666e-05 0.0000000000e+00 
          -1.2019208678e-04 -3.2571936316e-05 0.0000000000e+00 
          -1.5962844300e-04 4.6335762657e-05 0.0000000000e+00 
          -2.0009859394e-04 -5.0065035735e-05 0.0000000000e+00 
          -2.3794125715e-04 3.8108986953e-05 0.0000000000e+00 
          -2.7778154531e-04 -1.3321952149e-05 0.0000000000e+00 
          -3.1609334589e-04 -1.3680989817e-05 0.0000000000e+00 
          -3.5263578529e-04 3.3049012837e-05 0.0000000000e+00 
          -3.9224899359e-04 -4.0911605927e-05 0.0000000000e+00 
          -4.2658248456e-04 3.7495302166e-05 0.0000000000e+00 
          -4.6389967696e-04 -2.5719177497e-05 0.0000000000e+00 
          -4.9973712143e-04 1.1635356282e-05 0.0000000000e+00 
          -5.3273515564e-04 -2.7054752845e-06 0.0000000000e+00 
          -5.6846763954e-04 3.1670903592e-06 0.0000000000e+00 
          -6.0019877210e-04 -9.7921813426e-06 0.0000000000e+00 
          -6.3239967638e-04 1.4066016049e-05 0.0000000000e+00 
          -6.6527451763e-04 -1.0876029796e-05 0.0000000000e+00 
          -6.9237687002e-04 4.0937212922e-06 0.0000000000e+00 
          -7.2514153641e-04 -4.0473403823e-07 0.0000000000e+00 
          -7.5062333299e-04 6.6622142997e-07 0.0000000000e+00 
          -7.7833148889e-04 -3.2939736111e-07 0.0000000000e+00 
          -8.0610095662e-04 -3.2546880603e-06 0.0000000000e+00 
          -8.2651196617e-04 8.4393179303e-06 0.0000000000e+00 
          -8.5487627070e-04 -1.3549537057e-05 0.0000000000e+00 
          -8.7359413871e-04 1.9765949639e-05 0.0000000000e+00 
          -8.9471609424e-04 -2.7224238792e-05 0.0000000000e+00 
          -9.1645282927e-04 3.0687878617e-05 0.0000000000e+00 
          -9.3113372298e-04 -2.3364780633e-05 0.0000000000e+00 
          -9.5013860841e-04 7.0381415154e-06 0.0000000000e+00 
          -9.6447610859e-04 6.5045185247e-06 0.0000000000e+00 
          -9.7731588716e-04 -6.0469603630e-06 0.0000000000e+00 
          -9.9087530655e-04 -7.1700853438e-06 0.0000000000e+00 
          -9.9970437534e-04 1.9719504436e-05 0.0000000000e+00 
          -1.0098484571e-03 -1.8887716620e-05 0.0000000000e+00 
          -1.0166817831e-03 5.3460246048e-06 0.0000000000e+00 
          -1.0222137381e-03 1.1532734251e-05 0.0000000000e+00 
          -1.0267176861e-03 -2.4390021720e-05 0.0000000000e+00 
          -1.0287686358e-03 3.1625866584e-05 0.0000000000e+00 
        </DataArray>
        <DataArray type="Float64" Name="Reaction" NumberOfComponents="3" format="ascii">
          0.0000000000e+00 0.0000000000e+00 0.0000000000e+00 
          0.0000000000e+00 0.0000000000e+00 0.0000000000e+00 
          0.0000000000e+00 0.0000000000e+00 0.0000000000e+00 
          0.0000000000e+00 0.0000000000e+00 0.0000000000e+00 
          0.0000000000e+00 0.0000000000e+00 0.0000000000e+00 
          0.0000000000e+00 0.0000000000e+00 0.0000000000e+00 
          0.0000000000e+00 0.0000000000e+00 0.0000000000e+00 
          0.0000000000e+00 0.0000000000e+00 0.0000000000e+00 
          0.0000000000e+00 0.0000000000e+00 0.0000000000e+00 
          0.0000000000e+00 0.0000000000e+00 0.0000000000e+00 
          0.0000000000e+00 0.0000000000e+00 0.0000000000e+00 
          0.0000000000e+00 0.0000000000e+00 0.0000000000e+00 
          0.0000000000e+00 0.0000000000e+00 0.0000000000e+00 
          0.0000000000e+00 0.0000000000e+00 0.0000000000e+00 
          0.0000000000e+00 0.0000000000e+00 0.0000000000e+00 
          0.0000000000e+00 0.0000000000e+00 0.0000000000e+00 
          0.0000000000e+00 0.0000000000e+00 0.0000000000e+00 
          0.0000000000e+00 0.0000000000e+00 0.0000000000e+00 
          0.0000000000e+00 0.0000000000e+00 0.0000000000e+00 
          0.0000000000e+00 0.0000000000e+00 0.0000000000e+00 
          0.0000000000e+00 0.0000000000e+00 0.0000000000e+00 
          0.0000000000e+00 0.0000000000e+00 0.0000000000e+00 
          0.0000000000e+00 0.0000000000e+00 0.0000000000e+00 
          0.0000000000e+00 0.0000000000e+00 0.0000000000e+00 
          0.0000000000e+00 0.0000000000e+00 0.0000000000e+00 
          0.0000000000e+00 0.0000000000e+00 0.0000000000e+00 
          0.0000000000e+00 0.0000000000e+00 0.0000000000e+00 
          0.0000000000e+00 0.0000000000e+00 0.0000000000e+00 
          0.0000000000e+00 0.0000000000e+00 0.0000000000e+00 
          0.0000000000e+00 0.0000000000e+00 0.0000000000e+00 
          0.0000000000e+00 0.0000000000e+00 0.0000000000e+00 
          0.0000000000e+00 0.0000000000e+00 0.0000000000e+00 
          0.0000000000e+00 0.0000000000e+00 0.0000000000e+00 
          0.0000000000e+00 0.0000000000e+00 0.0000000000e+00 
          0.0000000000e+00 0.0000000000e+00 0.0000000000e+00 
          0.0000000000e+00 0.0000000000e+00 0.0000000000e+00 
          0.0000000000e+00 0.0000000000e+00 0.0000000000e+00 
          0.0000000000e+00 0.0000000000e+00 0.0000000000e+00 
          0.0000000000e+00 0.0000000000e+00 0.0000000000e+00 
          0.0000000000e+00 0.0000000000e+00 0.0000000000e+00 
          0.0000000000e+00 0.0000000000e+00 0.0000000000e+00 
          0.0000000000e+00 0.0000000000e+00 0.0000000000e+00 
          0.0000000000e+00 0.0000000000e+00 0.0000000000e+00 
          0.0000000000e+00 0.0000000000e+00 0.0000000000e+00 
          0.0000000000e+00 0.0000000000e+00 0.0000000000e+00 
          0.0000000000e+00 0.0000000000e+00 0.0000000000e+00 
          0.0000000000e+00 0.0000000000e+00 0.0000000000e+00 
          0.0000000000e+00 0.0000000000e+00 0.0000000000e+00 
          0.0000000000e+00 0.0000000000e+00 0.0000000000e+00 
          0.0000000000e+00 0.0000000000e+00 0.0000000000e+00 
          0.0000000000e+00 0.0000000000e+00 0.0000000000e+00 
          0.0000000000e+00 0.0000000000e+00 0.0000000000e+00 
          0.0000000000e+00 0.0000000000e+00 0.0000000000e+00 
          0.0000000000e+00 0.0000000000e+00 0.0000000000e+00 
          0.0000000000e+00 0.0000000000e+00 0.0000000000e+00 
          0.0000000000e+00 0.0000000000e+00 0.0000000000e+00 
          0.0000000000e+00 0.0000000000e+00 0.0000000000e+00 
          0.0000000000e+00 0.0000000000e+00 0.0000000000e+00 
          0.0000000000e+00 0.0000000000e+00 0.0000000000e+00 
          0.0000000000e+00 0.0000000000e+00 0.0000000000e+00 
          0.0000000000e+00 0.0000000000e+00 0.0000000000e+00 
          0.0000000000e+00 0.0000000000e+00 0.0000000000e+00 
          0.0000000000e+00 0.0000000000e+00 0.0000000000e+00 
          0.0000000000e+00 0.0000000000e+00 0.0000000000e+00 
          0.0000000000e+00 0.0000000000e+00 0.0000000000e+00 
          0.0000000000e+00 0.0000000000e+00 0.0000000000e+00 
          0.0000000000e+00 0.0000000000e+00 0.0000000000e+00 
          0.0000000000e+00 0.0000000000e+00 0.0000000000e+00 
          0.0000000000e+00 0.0000000000e+00 0.0000000000e+00 
          0.0000000000e+00 0.0000000000e+00 0.0000000000e+00 
          0.0000000000e+00 0.0000000000e+00 0.0000000000e+00 
          0.0000000000e+00 0.0000000000e+00 0.0000000000e+00 
          0.0000000000e+00 0.0000000000e+00 0.0000000000e+00 
          0.0000000000e+00 0.0000000000e+00 0.0000000000e+00 
          0.0000000000e+00 0.0000000000e+00 0.0000000000e+00 
          0.0000000000e+00 0.0000000000e+00 0.0000000000e+00 
          0.0000000000e+00 0.0000000000e+00 0.0000000000e+00 
          0.0000000000e+00 0.0000000000e+00 0.0000000000e+00 
          0.0000000000e+00 0.0000000000e+00 0.0000000000e+00 
          0.0000000000e+00 0.0000000000e+00 0.0000000000e+00 
        </DataArray>
      </PointData>
      <CellData>
        <DataArray type="Int64" Name="ElementTag" format="ascii">
          90
          91
          92
          93
          94
          95
          96
          97
          98
          99
          100
          101
          102
          103
          104
          105
          106
          107
          108
          109
          110
          111
          112
          113
          114
          115
          116
          117
          118
          119
          120
          121
          122
          123
          124
          125
          126
          127
          128
        </DataArray>
      </CellData>
    </Piece>
  </UnstructuredGrid>
</VTKFile>
