<?xml version="1.0"?>
<VTKFile type="UnstructuredGrid" version="1.0" byte_order="LittleEndian" compressor="vtkZLibDataCompressor">
  <UnstructuredGrid>
    <Piece NumberOfPoints="80" NumberOfCells="39">
      <Points>
        <DataArray type="Float64" Name="Points" NumberOfComponents="3" format="ascii">
          0.0000000000e+00 0.0000000000e+00 0.0000000000e+00 
          2.5000000000e-01 0.0000000000e+00 0.0000000000e+00 
          2.5000000000e-01 3.0000000000e+01 0.0000000000e+00 
          0.0000000000e+00 3.0000000000e+01 0.0000000000e+00 
          2.5000000000e-01 7.6923100000e-01 0.0000000000e+00 
          2.5000000000e-01 1.5384620000e+00 0.0000000000e+00 
          2.5000000000e-01 2.3076920000e+00 0.0000000000e+00 
          2.5000000000e-01 3.0769230000e+00 0.0000000000e+00 
          2.5000000000e-01 3.8461540000e+00 0.0000000000e+00 
          2.5000000000e-01 4.6153850000e+00 0.0000000000e+00 
          2.5000000000e-01 5.3846150000e+00 0.0000000000e+00 
          2.5000000000e-01 6.1538460000e+00 0.0000000000e+00 
          2.5000000000e-01 6.9230770000e+00 0.0000000000e+00 
          2.5000000000e-01 7.6923080000e+00 0.0000000000e+00 
          2.5000000000e-01 8.4615380000e+00 0.0000000000e+00 
          2.5000000000e-01 9.2307690000e+00 0.0000000000e+00 
          2.5000000000e-01 1.0000000000e+01 0.0000000000e+00 
          2.5000000000e-01 1.0769231000e+01 0.0000000000e+00 
          2.5000000000e-01 1.1538462000e+01 0.0000000000e+00 
          2.5000000000e-01 1.2307692000e+01 0.0000000000e+00 
          2.5000000000e-01 1.3076923000e+01 0.0000000000e+00 
          2.5000000000e-01 1.3846154000e+01 0.0000000000e+00 
          2.5000000000e-01 1.4615385000e+01 0.0000000000e+00 
          2.5000000000e-01 1.5384615000e+01 0.0000000000e+00 
          2.5000000000e-01 1.6153846000e+01 0.0000000000e+00 
          2.5000000000e-01 1.6923077000e+01 0.0000000000e+00 
          2.5000000000e-01 1.7692308000e+01 0.0000000000e+00 
          2.5000000000e-01 1.8461538000e+01 0.0000000000e+00 
          2.5000000000e-01 1.9230769000e+01 0.0000000000e+00 
          2.5000000000e-01 2.0000000000e+01 0.0000000000e+00 
          2.5000000000e-01 2.0769231000e+01 0.0000000000e+00 
          2.5000000000e-01 2.1538462000e+01 0.0000000000e+00 
          2.5000000000e-01 2.2307692000e+01 0.0000000000e+00 
          2.5000000000e-01 2.3076923000e+01 0.0000000000e+00 
          2.5000000000e-01 2.3846154000e+01 0.0000000000e+00 
          2.5000000000e-01 2.4615385000e+01 0.0000000000e+00 
          2.5000000000e-01 2.5384615000e+01 0.0000000000e+00 
          2.5000000000e-01 2.6153846000e+01 0.0000000000e+00 
          2.5000000000e-01 2.6923077000e+01 0.0000000000e+00 
          2.5000000000e-01 2.7692308000e+01 0.0000000000e+00 
          2.5000000000e-01 2.8461538000e+01 0.0000000000e+00 
          2.5000000000e-01 2.9230769000e+01 0.0000000000e+00 
          0.0000000000e+00 7.6923100000e-01 0.0000000000e+00 
          0.0000000000e+00 1.5384620000e+00 0.0000000000e+00 
          0.0000000000e+00 2.3076920000e+00 0.0000000000e+00 
          0.0000000000e+00 3.0769230000e+00 0.0000000000e+00 
          0.0000000000e+00 3.8461540000e+00 0.0000000000e+00 
          0.0000000000e+00 4.6153850000e+00 0.0000000000e+00 
          0.0000000000e+00 5.3846150000e+00 0.0000000000e+00 
          0.0000000000e+00 6.1538460000e+00 0.0000000000e+00 
          0.0000000000e+00 6.9230770000e+00 0.0000000000e+00 
          0.0000000000e+00 7.6923080000e+00 0.0000000000e+00 
          0.0000000000e+00 8.4615380000e+00 0.0000000000e+00 
          0.0000000000e+00 9.2307690000e+00 0.0000000000e+00 
          0.0000000000e+00 1.0000000000e+01 0.0000000000e+00 
          0.0000000000e+00 1.0769231000e+01 0.0000000000e+00 
          0.0000000000e+00 1.1538462000e+01 0.0000000000e+00 
          0.0000000000e+00 1.2307692000e+01 0.0000000000e+00 
          0.0000000000e+00 1.3076923000e+01 0.0000000000e+00 
          0.0000000000e+00 1.3846154000e+01 0.0000000000e+00 
          0.0000000000e+00 1.4615385000e+01 0.0000000000e+00 
          0.0000000000e+00 1.5384615000e+01 0.0000000000e+00 
          0.0000000000e+00 1.6153846000e+01 0.0000000000e+00 
          0.0000000000e+00 1.6923077000e+01 0.0000000000e+00 
          0.0000000000e+00 1.7692308000e+01 0.0000000000e+00 
          0.0000000000e+00 1.8461538000e+01 0.0000000000e+00 
          0.0000000000e+00 1.9230769000e+01 0.0000000000e+00 
          0.0000000000e+00 2.0000000000e+01 0.0000000000e+00 
          0.0000000000e+00 2.0769231000e+01 0.0000000000e+00 
          0.0000000000e+00 2.1538462000e+01 0.0000000000e+00 
          0.0000000000e+00 2.2307692000e+01 0.0000000000e+00 
          0.0000000000e+00 2.3076923000e+01 0.0000000000e+00 
          0.0000000000e+00 2.3846154000e+01 0.0000000000e+00 
          0.0000000000e+00 2.4615385000e+01 0.0000000000e+00 
          0.0000000000e+00 2.5384615000e+01 0.0000000000e+00 
          0.0000000000e+00 2.6153846000e+01 0.0000000000e+00 
          0.0000000000e+00 2.6923077000e+01 0.0000000000e+00 
          0.0000000000e+00 2.7692308000e+01 0.0000000000e+00 
          0.0000000000e+00 2.8461538000e+01 0.0000000000e+00 
          0.0000000000e+00 2.9230769000e+01 0.0000000000e+00 
        </DataArray>
      </Points>
      <Cells>
        <DataArray type="Int64" Name="connectivity" format="ascii">
          0 1 4 42 
          42 4 5 43 
          43 5 6 44 
          44 6 7 45 
          45 7 8 46 
          46 8 9 47 
          47 9 10 48 
          48 10 11 49 
          49 11 12 50 
          50 12 13 51 
          51 13 14 52 
          52 14 15 53 
          53 15 16 54 
          54 16 17 55 
          55 17 18 56 
          56 18 19 57 
          57 19 20 58 
          58 20 21 59 
          59 21 22 60 
          60 22 23 61 
          61 23 24 62 
          62 24 25 63 
          63 25 26 64 
          64 26 27 65 
          65 27 28 66 
          66 28 29 67 
          67 29 30 68 
          68 30 31 69 
          69 31 32 70 
          70 32 33 71 
          71 33 34 72 
          72 34 35 73 
          73 35 36 74 
          74 36 37 75 
          75 37 38 76 
          76 38 39 77 
          77 39 40 78 
          78 40 41 79 
          79 41 2 3 
        </DataArray>
        <DataArray type="Int64" Name="offsets" format="ascii">
          4
          8
          12
          16
          20
          24
          28
          32
          36
          40
          44
          48
          52
          56
          60
          64
          68
          72
          76
          80
          84
          88
          92
          96
          100
          104
          108
          112
          116
          120
          124
          128
          132
          136
          140
          144
          148
          152
          156
        </DataArray>
        <DataArray type="Int64" Name="types" format="ascii">
          9
          9
          9
          9
          9
          9
          9
          9
          9
          9
          9
          9
          9
          9
          9
          9
          9
          9
          9
          9
          9
          9
          9
          9
          9
          9
          9
          9
          9
          9
          9
          9
          9
          9
          9
          9
          9
          9
          9
        </DataArray>
      </Cells>
      <PointData>
        <DataArray type="Int64" Name="NodeTag" format="ascii">
          1
          2
          3
          4
          7
          8
          9
          10
          11
          12
          13
          14
          15
          16
          17
          18
          19
          20
          21
          22
          23
          24
          25
          26
          27
          28
          29
          30
          31
          32
          33
          34
          35
          36
          37
          38
          39
          40
          41
          42
          43
          44
          45
          46
          47
          48
          49
          50
          51
          52
          53
          54
          55
          56
          57
          58
          59
          60
          61
          62
          63
          64
          65
          66
          67
          68
          69
          70
          71
          72
          73
          74
          75
          76
          77
          78
          79
          80
          81
          82
        </DataArray>
        <DataArray type="Float64" Name="Velocity" NumberOfComponents="3" format="ascii">
          6.0330717344e-02 -7.7568104408e-05 0.0000000000e+00 
          6.0330717344e-02 -7.7568104408e-05 0.0000000000e+00 
          2.8435404512e-02 -8.2828605901e-05 0.0000000000e+00 
          2.8435404512e-02 -8.2828605901e-05 0.0000000000e+00 
          5.9830547853e-02 -7.7915854185e-05 0.0000000000e+00 
          5.9239320979e-02 -7.8002303384e-05 0.0000000000e+00 
          5.8563538623e-02 -7.8096484165e-05 0.0000000000e+00 
          5.7809732007e-02 -7.8292765576e-05 0.0000000000e+00 
          5.6984485828e-02 -7.8421422927e-05 0.0000000000e+00 
          5.6094470088e-02 -7.8608939599e-05 0.0000000000e+00 
          5.5146361938e-02 -7.8774108193e-05 0.0000000000e+00 
          5.4146814325e-02 -7.8754563487e-05 0.0000000000e+00 
          5.3102431169e-02 -7.8931371605e-05 0.0000000000e+00 
          5.2019809402e-02 -7.9122672543e-05 0.0000000000e+00 
          5.0905521456e-02 -7.9053229698e-05 0.0000000000e+00 
          4.9765957577e-02 -7.9402638870e-05 0.0000000000e+00 
          4.8607467807e-02 -7.9624587633e-05 0.0000000000e+00 
          4.7436301093e-02 -7.9613681002e-05 0.0000000000e+00 
          4.6258530105e-02 -8.0002761089e-05 0.0000000000e+00 
          4.5080114095e-02 -7.9982363038e-05 0.0000000000e+00 
          4.3906816488e-02 -8.0284765748e-05 0.0000000000e+00 
          4.2744260294e-02 -8.0329967784e-05 0.0000000000e+00 
          4.1597888015e-02 -8.0552016040e-05 0.0000000000e+00 
          4.0472926464e-02 -8.0800535355e-05 0.0000000000e+00 
          3.9374376063e-02 -8.0993109026e-05 0.0000000000e+00 
          3.8307065406e-02 -8.1237131504e-05 0.0000000000e+00 
          3.7275616064e-02 -8.1256387587e-05 0.0000000000e+00 
          3.6284365423e-02 -8.1671149452e-05 0.0000000000e+00 
          3.5337410476e-02 -8.1612245086e-05 0.0000000000e+00 
          3.4438629561e-02 -8.1931955350e-05 0.0000000000e+00 
          3.3591666880e-02 -8.2081741792e-05 0.0000000000e+00 
          3.2799929650e-02 -8.2096876798e-05 0.0000000000e+00 
          3.2066487681e-02 -8.2400254093e-05 0.0000000000e+00 
          3.1394229416e-02 -8.2351792168e-05 0.0000000000e+00 
          3.0785728333e-02 -8.2404634739e-05 0.0000000000e+00 
          3.0243291518e-02 -8.2622658147e-05 0.0000000000e+00 
          2.9769026813e-02 -8.2466628909e-05 0.0000000000e+00 
          2.9364669420e-02 -8.2404007903e-05 0.0000000000e+00 
          2.9031790076e-02 -8.2694494738e-05 0.0000000000e+00 
          2.8771593078e-02 -8.2770254536e-05 0.0000000000e+00 
          2.8585035281e-02 -8.2626470518e-05 0.0000000000e+00 
          2.8472849228e-02 -8.2703035316e-05 0.0000000000e+00 
          5.9830547853e-02 -7.7915854185e-05 0.0000000000e+00 
          5.9239320979e-02 -7.8002303384e-05 0.0000000000e+00 
          5.8563538623e-02 -7.8096484165e-05 0.0000000000e+00 
          5.7809732007e-02 -7.8292765576e-05 0.0000000000e+00 
          5.6984485828e-02 -7.8421422927e-05 0.0000000000e+00 
          5.6094470088e-02 -7.8608939599e-05 0.0000000000e+00 
          5.5146361938e-02 -7.8774108193e-05 0.0000000000e+00 
          5.4146814325e-02 -7.8754563487e-05 0.0000000000e+00 
          5.3102431169e-02 -7.8931371605e-05 0.0000000000e+00 
          5.2019809402e-02 -7.9122672543e-05 0.0000000000e+00 
          5.0905521456e-02 -7.9053229698e-05 0.0000000000e+00 
          4.9765957577e-02 -7.9402638870e-05 0.0000000000e+00 
          4.8607467807e-02 -7.9624587633e-05 0.0000000000e+00 
          4.7436301093e-02 -7.9613681002e-05 0.0000000000e+00 
          4.6258530105e-02 -8.0002761089e-05 0.0000000000e+00 
          4.5080114095e-02 -7.9982363038e-05 0.0000000000e+00 
          4.3906816488e-02 -8.0284765748e-05 0.0000000000e+00 
          4.2744260294e-02 -8.0329967784e-05 0.0000000000e+00 
          4.1597888015e-02 -8.0552016040e-05 0.0000000000e+00 
          4.0472926464e-02 -8.0800535355e-05 0.0000000000e+00 
          3.9374376063e-02 -8.0993109026e-05 0.0000000000e+00 
          3.8307065406e-02 -8.1237131504e-05 0.0000000000e+00 
          3.7275616064e-02 -8.1256387587e-05 0.0000000000e+00 
          3.6284365423e-02 -8.1671149452e-05 0.0000000000e+00 
          3.5337410476e-02 -8.1612245086e-05 0.0000000000e+00 
          3.4438629561e-02 -8.1931955350e-05 0.0000000000e+00 
          3.3591666880e-02 -8.2081741792e-05 0.0000000000e+00 
          3.2799929650e-02 -8.2096876798e-05 0.0000000000e+00 
          3.2066487681e-02 -8.2400254093e-05 0.0000000000e+00 
          3.1394229416e-02 -8.2351792168e-05 0.0000000000e+00 
          3.0785728333e-02 -8.2404634739e-05 0.0000000000e+00 
          3.0243291518e-02 -8.2622658147e-05 0.0000000000e+00 
          2.9769026813e-02 -8.2466628909e-05 0.0000000000e+00 
          2.9364669420e-02 -8.2404007903e-05 0.0000000000e+00 
          2.9031790076e-02 -8.2694494738e-05 0.0000000000e+00 
          2.8771593078e-02 -8.2770254536e-05 0.0000000000e+00 
          2.8585035281e-02 -8.2626470518e-05 0.0000000000e+00 
          2.8472849228e-02 -8.2703035316e-05 0.0000000000e+00 
        </DataArray>
        <DataArray type="Float64" Name="Displacement" NumberOfComponents="3" format="ascii">
          -1.1027141215e-03 -2.0520395374e-04 0.0000000000e+00 
          -1.1027141215e-03 -2.0520395374e-04 0.0000000000e+00 
          2.3725634326e-02 -2.2866187365e-04 0.0000000000e+00 
          2.3725634326e-02 -2.2866187365e-04 0.0000000000e+00 
          -1.0096949932e-04 -2.0639346460e-04 0.0000000000e+00 
          8.9885813571e-04 -2.0755235889e-04 0.0000000000e+00 
          1.8951583457e-03 -2.0867996094e-04 0.0000000000e+00 
          2.8863333079e-03 -2.0977609498e-04 0.0000000000e+00 
          3.8707917041e-03 -2.1084154109e-04 0.0000000000e+00 
          4.8469561993e-03 -2.1187624720e-04 0.0000000000e+00 
          5.8132632264e-03 -2.1287959386e-04 0.0000000000e+00 
          6.7681697384e-03 -2.1385218373e-04 0.0000000000e+00 
          7.7101479893e-03 -2.1479422033e-04 0.0000000000e+00 
          8.6376925099e-03 -2.1570477617e-04 0.0000000000e+00 
          9.5493197404e-03 -2.1658440510e-04 0.0000000000e+00 
          1.0443574960e-02 -2.1743351433e-04 0.0000000000e+00 
          1.1319027135e-02 -2.1825156016e-04 0.0000000000e+00 
          1.2174275825e-02 -2.1903920355e-04 0.0000000000e+00 
          1.3007951914e-02 -2.1979544144e-04 0.0000000000e+00 
          1.3818718640e-02 -2.2052070810e-04 0.0000000000e+00 
          1.4605278023e-02 -2.2121548634e-04 0.0000000000e+00 
          1.5366366250e-02 -2.2187904092e-04 0.0000000000e+00 
          1.6100759989e-02 -2.2251146656e-04 0.0000000000e+00 
          1.6807276484e-02 -2.2311241488e-04 0.0000000000e+00 
          1.7484779094e-02 -2.2368220845e-04 0.0000000000e+00 
          1.8132173647e-02 -2.2422137392e-04 0.0000000000e+00 
          1.8748414031e-02 -2.2472928501e-04 0.0000000000e+00 
          1.9332502205e-02 -2.2520640126e-04 0.0000000000e+00 
          1.9883493119e-02 -2.2565260447e-04 0.0000000000e+00 
          2.0400491920e-02 -2.2606773018e-04 0.0000000000e+00 
          2.0882658326e-02 -2.2645236698e-04 0.0000000000e+00 
          2.1329207682e-02 -2.2680535728e-04 0.0000000000e+00 
          2.1739411787e-02 -2.2712772955e-04 0.0000000000e+00 
          2.2112602419e-02 -2.2741974275e-04 0.0000000000e+00 
          2.2448169582e-02 -2.2768055229e-04 0.0000000000e+00 
          2.2745564429e-02 -2.2791053478e-04 0.0000000000e+00 
          2.3004299765e-02 -2.2810972348e-04 0.0000000000e+00 
          2.3223952460e-02 -2.2827808387e-04 0.0000000000e+00 
          2.3404161998e-02 -2.2841612973e-04 0.0000000000e+00 
          2.3544632789e-02 -2.2852366271e-04 0.0000000000e+00 
          2.3645134066e-02 -2.2860032650e-04 0.0000000000e+00 
          2.3705500988e-02 -2.2864641509e-04 0.0000000000e+00 
          -1.0096949932e-04 -2.0639346460e-04 0.0000000000e+00 
          8.9885813571e-04 -2.0755235889e-04 0.0000000000e+00 
          1.8951583457e-03 -2.0867996094e-04 0.0000000000e+00 
          2.8863333079e-03 -2.0977609498e-04 0.0000000000e+00 
          3.8707917041e-03 -2.1084154109e-04 0.0000000000e+00 
          4.8469561993e-03 -2.1187624720e-04 0.0000000000e+00 
          5.8132632264e-03 -2.1287959386e-04 0.0000000000e+00 
          6.7681697384e-03 -2.1385218373e-04 0.0000000000e+00 
          7.7101479893e-03 -2.1479422033e-04 0.0000000000e+00 
          8.6376925099e-03 -2.1570477617e-04 0.0000000000e+00 
          9.5493197404e-03 -2.1658440510e-04 0.0000000000e+00 
          1.0443574960e-02 -2.1743351433e-04 0.0000000000e+00 
          1.1319027135e-02 -2.1825156016e-04 0.0000000000e+00 
          1.2174275825e-02 -2.1903920355e-04 0.0000000000e+00 
          1.3007951914e-02 -2.1979544144e-04 0.0000000000e+00 
          1.3818718640e-02 -2.2052070810e-04 0.0000000000e+00 
          1.4605278023e-02 -2.2121548634e-04 0.0000000000e+00 
          1.5366366250e-02 -2.2187904092e-04 0.0000000000e+00 
          1.6100759989e-02 -2.2251146656e-04 0.0000000000e+00 
          1.6807276484e-02 -2.2311241488e-04 0.0000000000e+00 
          1.7484779094e-02 -2.2368220845e-04 0.0000000000e+00 
          1.8132173647e-02 -2.2422137392e-04 0.0000000000e+00 
          1.8748414031e-02 -2.2472928501e-04 0.0000000000e+00 
          1.9332502205e-02 -2.2520640126e-04 0.0000000000e+00 
          1.9883493119e-02 -2.2565260447e-04 0.0000000000e+00 
          2.0400491920e-02 -2.2606773018e-04 0.0000000000e+00 
          2.0882658326e-02 -2.2645236698e-04 0.0000000000e+00 
          2.1329207682e-02 -2.2680535728e-04 0.0000000000e+00 
          2.1739411787e-02 -2.2712772955e-04 0.0000000000e+00 
          2.2112602419e-02 -2.2741974275e-04 0.0000000000e+00 
          2.2448169582e-02 -2.2768055229e-04 0.0000000000e+00 
          2.2745564429e-02 -2.2791053478e-04 0.0000000000e+00 
          2.3004299765e-02 -2.2810972348e-04 0.0000000000e+00 
          2.3223952460e-02 -2.2827808387e-04 0.0000000000e+00 
          2.3404161998e-02 -2.2841612973e-04 0.0000000000e+00 
          2.3544632789e-02 -2.2852366271e-04 0.0000000000e+00 
          2.3645134066e-02 -2.2860032650e-04 0.0000000000e+00 
          2.3705500988e-02 -2.2864641509e-04 0.0000000000e+00 
        </DataArray>
        <DataArray type="Float64" Name="Acceleration" NumberOfComponents="3" format="ascii">
          -2.7180800184e-02 -2.1735585396e-05 0.0000000000e+00 
          -2.7180800184e-02 -2.1735585396e-05 0.0000000000e+00 
          -3.6281070428e+00 -1.6076191349e-05 0.0000000000e+00 
          -3.6281070428e+00 -1.6076191349e-05 0.0000000000e+00 
          -1.7272433292e-01 -7.0238937314e-05 0.0000000000e+00 
          -3.1771147177e-01 5.1261190231e-05 0.0000000000e+00 
          -4.6191194055e-01 8.3463063303e-05 0.0000000000e+00 
          -6.0517586245e-01 -5.7377844611e-05 0.0000000000e+00 
          -7.4729686373e-01 -4.7994244348e-05 0.0000000000e+00 
          -8.8806472923e-01 6.3399640741e-05 0.0000000000e+00 
          -1.0273227860e+00 -4.4731352104e-05 0.0000000000e+00 
          -1.1648618522e+00 -8.1643375556e-05 0.0000000000e+00 
          -1.3005075974e+00 8.5493801073e-05 0.0000000000e+00 
          -1.4340734315e+00 -1.4516023055e-05 0.0000000000e+00 
          -1.5653602537e+00 -8.7486181120e-05 0.0000000000e+00 
          -1.6941915048e+00 1.0284532039e-05 0.0000000000e+00 
          -1.8203739278e+00 -1.0882447693e-04 0.0000000000e+00 
          -1.9437338902e+00 7.1930211080e-05 0.0000000000e+00 
          -2.0640851618e+00 -6.4923585169e-06 0.0000000000e+00 
          -2.1812258908e+00 -9.3156861080e-05 0.0000000000e+00 
          -2.2950014566e+00 3.9162256277e-05 0.0000000000e+00 
          -2.4052260482e+00 2.2092703449e-05 0.0000000000e+00 
          -2.5117136529e+00 8.4737802704e-05 0.0000000000e+00 
          -2.6142927572e+00 2.6887384215e-05 0.0000000000e+00 
          -2.7127954156e+00 -6.8160044130e-05 0.0000000000e+00 
          -2.8070520807e+00 4.4699211043e-05 0.0000000000e+00 
          -2.8969111482e+00 -3.8220987911e-05 0.0000000000e+00 
          -2.9821988353e+00 -1.6696863887e-05 0.0000000000e+00 
          -3.0627565285e+00 1.2823241070e-05 0.0000000000e+00 
          -3.1384675681e+00 -9.3240703113e-05 0.0000000000e+00 
          -3.2091665215e+00 1.1535767363e-04 0.0000000000e+00 
          -3.2747330218e+00 -7.0045888054e-05 0.0000000000e+00 
          -3.3350372059e+00 -1.1656001040e-04 0.0000000000e+00 
          -3.3899488437e+00 3.5557644076e-05 0.0000000000e+00 
          -3.4394010084e+00 -3.2307514012e-05 0.0000000000e+00 
          -3.4832703321e+00 -3.8344778346e-05 0.0000000000e+00 
          -3.5214557034e+00 -3.2032546624e-05 0.0000000000e+00 
          -3.5539063005e+00 -1.2466534022e-04 0.0000000000e+00 
          -3.5805396363e+00 -8.8921532275e-05 0.0000000000e+00 
          -3.6013226641e+00 -2.4730248617e-05 0.0000000000e+00 
          -3.6161987865e+00 -7.7671108727e-05 0.0000000000e+00 
          -3.6251253686e+00 -6.7812245306e-05 0.0000000000e+00 
          -1.7272433292e-01 -7.0238937314e-05 0.0000000000e+00 
          -3.1771147177e-01 5.1261190231e-05 0.0000000000e+00 
          -4.6191194055e-01 8.3463063303e-05 0.0000000000e+00 
          -6.0517586245e-01 -5.7377844611e-05 0.0000000000e+00 
          -7.4729686373e-01 -4.7994244348e-05 0.0000000000e+00 
          -8.8806472923e-01 6.3399640741e-05 0.0000000000e+00 
          -1.0273227860e+00 -4.4731352104e-05 0.0000000000e+00 
          -1.1648618522e+00 -8.1643375556e-05 0.0000000000e+00 
          -1.3005075974e+00 8.5493801073e-05 0.0000000000e+00 
          -1.4340734315e+00 -1.4516023055e-05 0.0000000000e+00 
          -1.5653602537e+00 -8.7486181120e-05 0.0000000000e+00 
          -1.6941915048e+00 1.0284532039e-05 0.0000000000e+00 
          -1.8203739278e+00 -1.0882447693e-04 0.0000000000e+00 
          -1.9437338902e+00 7.1930211080e-05 0.0000000000e+00 
          -2.0640851618e+00 -6.4923585169e-06 0.0000000000e+00 
          -2.1812258908e+00 -9.3156861080e-05 0.0000000000e+00 
          -2.2950014566e+00 3.9162256277e-05 0.0000000000e+00 
          -2.4052260482e+00 2.2092703449e-05 0.0000000000e+00 
          -2.5117136529e+00 8.4737802704e-05 0.0000000000e+00 
          -2.6142927572e+00 2.6887384215e-05 0.0000000000e+00 
          -2.7127954156e+00 -6.8160044130e-05 0.0000000000e+00 
          -2.8070520807e+00 4.4699211043e-05 0.0000000000e+00 
          -2.8969111482e+00 -3.8220987911e-05 0.0000000000e+00 
          -2.9821988353e+00 -1.6696863887e-05 0.0000000000e+00 
          -3.0627565285e+00 1.2823241070e-05 0.0000000000e+00 
          -3.1384675681e+00 -9.3240703113e-05 0.0000000000e+00 
          -3.2091665215e+00 1.1535767363e-04 0.0000000000e+00 
          -3.2747330218e+00 -7.0045888054e-05 0.0000000000e+00 
          -3.3350372059e+00 -1.1656001040e-04 0.0000000000e+00 
          -3.3899488437e+00 3.5557644076e-05 0.0000000000e+00 
          -3.4394010084e+00 -3.2307514012e-05 0.0000000000e+00 
          -3.4832703321e+00 -3.8344778346e-05 0.0000000000e+00 
          -3.5214557034e+00 -3.2032546624e-05 0.0000000000e+00 
          -3.5539063005e+00 -1.2466534022e-04 0.0000000000e+00 
          -3.5805396363e+00 -8.8921532275e-05 0.0000000000e+00 
          -3.6013226641e+00 -2.4730248617e-05 0.0000000000e+00 
          -3.6161987865e+00 -7.7671108727e-05 0.0000000000e+00 
          -3.6251253686e+00 -6.7812245306e-05 0.0000000000e+00 
        </DataArray>
        <DataArray type="Float64" Name="Reaction" NumberOfComponents="3" format="ascii">
          0.0000000000e+00 0.0000000000e+00 0.0000000000e+00 
          0.0000000000e+00 0.0000000000e+00 0.0000000000e+00 
          0.0000000000e+00 0.0000000000e+00 0.0000000000e+00 
          0.0000000000e+00 0.0000000000e+00 0.0000000000e+00 
          0.0000000000e+00 0.0000000000e+00 0.0000000000e+00 
          0.0000000000e+00 0.0000000000e+00 0.0000000000e+00 
          0.0000000000e+00 0.0000000000e+00 0.0000000000e+00 
          0.0000000000e+00 0.0000000000e+00 0.0000000000e+00 
          0.0000000000e+00 0.0000000000e+00 0.0000000000e+00 
          0.0000000000e+00 0.0000000000e+00 0.0000000000e+00 
          0.0000000000e+00 0.0000000000e+00 0.0000000000e+00 
          0.0000000000e+00 0.0000000000e+00 0.0000000000e+00 
          0.0000000000e+00 0.0000000000e+00 0.0000000000e+00 
          0.0000000000e+00 0.0000000000e+00 0.0000000000e+00 
          0.0000000000e+00 0.0000000000e+00 0.0000000000e+00 
          0.0000000000e+00 0.0000000000e+00 0.0000000000e+00 
          0.0000000000e+00 0.0000000000e+00 0.0000000000e+00 
          0.0000000000e+00 0.0000000000e+00 0.0000000000e+00 
          0.0000000000e+00 0.0000000000e+00 0.0000000000e+00 
          0.0000000000e+00 0.0000000000e+00 0.0000000000e+00 
          0.0000000000e+00 0.0000000000e+00 0.0000000000e+00 
          0.0000000000e+00 0.0000000000e+00 0.0000000000e+00 
          0.0000000000e+00 0.0000000000e+00 0.0000000000e+00 
          0.0000000000e+00 0.0000000000e+00 0.0000000000e+00 
          0.0000000000e+00 0.0000000000e+00 0.0000000000e+00 
          0.0000000000e+00 0.0000000000e+00 0.0000000000e+00 
          0.0000000000e+00 0.0000000000e+00 0.0000000000e+00 
          0.0000000000e+00 0.0000000000e+00 0.0000000000e+00 
          0.0000000000e+00 0.0000000000e+00 0.0000000000e+00 
          0.0000000000e+00 0.0000000000e+00 0.0000000000e+00 
          0.0000000000e+00 0.0000000000e+00 0.0000000000e+00 
          0.0000000000e+00 0.0000000000e+00 0.0000000000e+00 
          0.0000000000e+00 0.0000000000e+00 0.0000000000e+00 
          0.0000000000e+00 0.0000000000e+00 0.0000000000e+00 
          0.0000000000e+00 0.0000000000e+00 0.0000000000e+00 
          0.0000000000e+00 0.0000000000e+00 0.0000000000e+00 
          0.0000000000e+00 0.0000000000e+00 0.0000000000e+00 
          0.0000000000e+00 0.0000000000e+00 0.0000000000e+00 
          0.0000000000e+00 0.0000000000e+00 0.0000000000e+00 
          0.0000000000e+00 0.0000000000e+00 0.0000000000e+00 
          0.0000000000e+00 0.0000000000e+00 0.0000000000e+00 
          0.0000000000e+00 0.0000000000e+00 0.0000000000e+00 
          0.0000000000e+00 0.0000000000e+00 0.0000000000e+00 
          0.0000000000e+00 0.0000000000e+00 0.0000000000e+00 
          0.0000000000e+00 0.0000000000e+00 0.0000000000e+00 
          0.0000000000e+00 0.0000000000e+00 0.0000000000e+00 
          0.0000000000e+00 0.0000000000e+00 0.0000000000e+00 
          0.0000000000e+00 0.0000000000e+00 0.0000000000e+00 
          0.0000000000e+00 0.0000000000e+00 0.0000000000e+00 
          0.0000000000e+00 0.0000000000e+00 0.0000000000e+00 
          0.0000000000e+00 0.0000000000e+00 0.0000000000e+00 
          0.0000000000e+00 0.0000000000e+00 0.0000000000e+00 
          0.0000000000e+00 0.0000000000e+00 0.0000000000e+00 
          0.0000000000e+00 0.0000000000e+00 0.0000000000e+00 
          0.0000000000e+00 0.0000000000e+00 0.0000000000e+00 
          0.0000000000e+00 0.0000000000e+00 0.0000000000e+00 
          0.0000000000e+00 0.0000000000e+00 0.0000000000e+00 
          0.0000000000e+00 0.0000000000e+00 0.0000000000e+00 
          0.0000000000e+00 0.0000000000e+00 0.0000000000e+00 
          0.0000000000e+00 0.0000000000e+00 0.0000000000e+00 
          0.0000000000e+00 0.0000000000e+00 0.0000000000e+00 
          0.0000000000e+00 0.0000000000e+00 0.0000000000e+00 
          0.0000000000e+00 0.0000000000e+00 0.0000000000e+00 
          0.0000000000e+00 0.0000000000e+00 0.0000000000e+00 
          0.0000000000e+00 0.0000000000e+00 0.0000000000e+00 
          0.0000000000e+00 0.0000000000e+00 0.0000000000e+00 
          0.0000000000e+00 0.0000000000e+00 0.0000000000e+00 
          0.0000000000e+00 0.0000000000e+00 0.0000000000e+00 
          0.0000000000e+00 0.0000000000e+00 0.0000000000e+00 
          0.0000000000e+00 0.0000000000e+00 0.0000000000e+00 
          0.0000000000e+00 0.0000000000e+00 0.0000000000e+00 
          0.0000000000e+00 0.0000000000e+00 0.0000000000e+00 
          0.0000000000e+00 0.0000000000e+00 0.0000000000e+00 
          0.0000000000e+00 0.0000000000e+00 0.0000000000e+00 
          0.0000000000e+00 0.0000000000e+00 0.0000000000e+00 
          0.0000000000e+00 0.0000000000e+00 0.0000000000e+00 
          0.0000000000e+00 0.0000000000e+00 0.0000000000e+00 
          0.0000000000e+00 0.0000000000e+00 0.0000000000e+00 
          0.0000000000e+00 0.0000000000e+00 0.0000000000e+00 
          0.0000000000e+00 0.0000000000e+00 0.0000000000e+00 
        </DataArray>
      </PointData>
      <CellData>
        <DataArray type="Int64" Name="ElementTag" format="ascii">
          90
          91
          92
          93
          94
          95
          96
          97
          98
          99
          100
          101
          102
          103
          104
          105
          106
          107
          108
          109
          110
          111
          112
          113
          114
          115
          116
          117
          118
          119
          120
          121
          122
          123
          124
          125
          126
          127
          128
        </DataArray>
      </CellData>
    </Piece>
  </UnstructuredGrid>
</VTKFile>
