<?xml version="1.0"?>
<VTKFile type="UnstructuredGrid" version="1.0" byte_order="LittleEndian" compressor="vtkZLibDataCompressor">
  <UnstructuredGrid>
    <Piece NumberOfPoints="82" NumberOfCells="1">
      <Points>
        <DataArray type="Float64" Name="Points" NumberOfComponents="3" format="ascii">
          0.0000000000e+00 0.0000000000e+00 0.0000000000e+00 
          2.5000000000e-01 0.0000000000e+00 0.0000000000e+00 
          2.5000000000e-01 3.0000000000e+01 0.0000000000e+00 
          0.0000000000e+00 3.0000000000e+01 0.0000000000e+00 
          0.0000000000e+00 -5.0000000000e+00 0.0000000000e+00 
          2.5000000000e-01 -5.0000000000e+00 0.0000000000e+00 
          2.5000000000e-01 7.6923100000e-01 0.0000000000e+00 
          2.5000000000e-01 1.5384620000e+00 0.0000000000e+00 
          2.5000000000e-01 2.3076920000e+00 0.0000000000e+00 
          2.5000000000e-01 3.0769230000e+00 0.0000000000e+00 
          2.5000000000e-01 3.8461540000e+00 0.0000000000e+00 
          2.5000000000e-01 4.6153850000e+00 0.0000000000e+00 
          2.5000000000e-01 5.3846150000e+00 0.0000000000e+00 
          2.5000000000e-01 6.1538460000e+00 0.0000000000e+00 
          2.5000000000e-01 6.9230770000e+00 0.0000000000e+00 
          2.5000000000e-01 7.6923080000e+00 0.0000000000e+00 
          2.5000000000e-01 8.4615380000e+00 0.0000000000e+00 
          2.5000000000e-01 9.2307690000e+00 0.0000000000e+00 
          2.5000000000e-01 1.0000000000e+01 0.0000000000e+00 
          2.5000000000e-01 1.0769231000e+01 0.0000000000e+00 
          2.5000000000e-01 1.1538462000e+01 0.0000000000e+00 
          2.5000000000e-01 1.2307692000e+01 0.0000000000e+00 
          2.5000000000e-01 1.3076923000e+01 0.0000000000e+00 
          2.5000000000e-01 1.3846154000e+01 0.0000000000e+00 
          2.5000000000e-01 1.4615385000e+01 0.0000000000e+00 
          2.5000000000e-01 1.5384615000e+01 0.0000000000e+00 
          2.5000000000e-01 1.6153846000e+01 0.0000000000e+00 
          2.5000000000e-01 1.6923077000e+01 0.0000000000e+00 
          2.5000000000e-01 1.7692308000e+01 0.0000000000e+00 
          2.5000000000e-01 1.8461538000e+01 0.0000000000e+00 
          2.5000000000e-01 1.9230769000e+01 0.0000000000e+00 
          2.5000000000e-01 2.0000000000e+01 0.0000000000e+00 
          2.5000000000e-01 2.0769231000e+01 0.0000000000e+00 
          2.5000000000e-01 2.1538462000e+01 0.0000000000e+00 
          2.5000000000e-01 2.2307692000e+01 0.0000000000e+00 
          2.5000000000e-01 2.3076923000e+01 0.0000000000e+00 
          2.5000000000e-01 2.3846154000e+01 0.0000000000e+00 
          2.5000000000e-01 2.4615385000e+01 0.0000000000e+00 
          2.5000000000e-01 2.5384615000e+01 0.0000000000e+00 
          2.5000000000e-01 2.6153846000e+01 0.0000000000e+00 
          2.5000000000e-01 2.6923077000e+01 0.0000000000e+00 
          2.5000000000e-01 2.7692308000e+01 0.0000000000e+00 
          2.5000000000e-01 2.8461538000e+01 0.0000000000e+00 
          2.5000000000e-01 2.9230769000e+01 0.0000000000e+00 
          0.0000000000e+00 7.6923100000e-01 0.0000000000e+00 
          0.0000000000e+00 1.5384620000e+00 0.0000000000e+00 
          0.0000000000e+00 2.3076920000e+00 0.0000000000e+00 
          0.0000000000e+00 3.0769230000e+00 0.0000000000e+00 
          0.0000000000e+00 3.8461540000e+00 0.0000000000e+00 
          0.0000000000e+00 4.6153850000e+00 0.0000000000e+00 
          0.0000000000e+00 5.3846150000e+00 0.0000000000e+00 
          0.0000000000e+00 6.1538460000e+00 0.0000000000e+00 
          0.0000000000e+00 6.9230770000e+00 0.0000000000e+00 
          0.0000000000e+00 7.6923080000e+00 0.0000000000e+00 
          0.0000000000e+00 8.4615380000e+00 0.0000000000e+00 
          0.0000000000e+00 9.2307690000e+00 0.0000000000e+00 
          0.0000000000e+00 1.0000000000e+01 0.0000000000e+00 
          0.0000000000e+00 1.0769231000e+01 0.0000000000e+00 
          0.0000000000e+00 1.1538462000e+01 0.0000000000e+00 
          0.0000000000e+00 1.2307692000e+01 0.0000000000e+00 
          0.0000000000e+00 1.3076923000e+01 0.0000000000e+00 
          0.0000000000e+00 1.3846154000e+01 0.0000000000e+00 
          0.0000000000e+00 1.4615385000e+01 0.0000000000e+00 
          0.0000000000e+00 1.5384615000e+01 0.0000000000e+00 
          0.0000000000e+00 1.6153846000e+01 0.0000000000e+00 
          0.0000000000e+00 1.6923077000e+01 0.0000000000e+00 
          0.0000000000e+00 1.7692308000e+01 0.0000000000e+00 
          0.0000000000e+00 1.8461538000e+01 0.0000000000e+00 
          0.0000000000e+00 1.9230769000e+01 0.0000000000e+00 
          0.0000000000e+00 2.0000000000e+01 0.0000000000e+00 
          0.0000000000e+00 2.0769231000e+01 0.0000000000e+00 
          0.0000000000e+00 2.1538462000e+01 0.0000000000e+00 
          0.0000000000e+00 2.2307692000e+01 0.0000000000e+00 
          0.0000000000e+00 2.3076923000e+01 0.0000000000e+00 
          0.0000000000e+00 2.3846154000e+01 0.0000000000e+00 
          0.0000000000e+00 2.4615385000e+01 0.0000000000e+00 
          0.0000000000e+00 2.5384615000e+01 0.0000000000e+00 
          0.0000000000e+00 2.6153846000e+01 0.0000000000e+00 
          0.0000000000e+00 2.6923077000e+01 0.0000000000e+00 
          0.0000000000e+00 2.7692308000e+01 0.0000000000e+00 
          0.0000000000e+00 2.8461538000e+01 0.0000000000e+00 
          0.0000000000e+00 2.9230769000e+01 0.0000000000e+00 
        </DataArray>
      </Points>
      <Cells>
        <DataArray type="Int64" Name="connectivity" format="ascii">
          0
          1
          2
          3
          4
          5
          6
          7
          8
          9
          10
          11
          12
          13
          14
          15
          16
          17
          18
          19
          20
          21
          22
          23
          24
          25
          26
          27
          28
          29
          30
          31
          32
          33
          34
          35
          36
          37
          38
          39
          40
          41
          42
          43
          44
          45
          46
          47
          48
          49
          50
          51
          52
          53
          54
          55
          56
          57
          58
          59
          60
          61
          62
          63
          64
          65
          66
          67
          68
          69
          70
          71
          72
          73
          74
          75
          76
          77
          78
          79
          80
          81
        </DataArray>
        <DataArray type="Int64" Name="offsets" format="ascii">
          82
        </DataArray>
        <DataArray type="Int64" Name="types" format="ascii">
          2
        </DataArray>
      </Cells>
      <PointData>
        <DataArray type="Int64" Name="NodeTag" format="ascii">
          1
          2
          3
          4
          5
          6
          7
          8
          9
          10
          11
          12
          13
          14
          15
          16
          17
          18
          19
          20
          21
          22
          23
          24
          25
          26
          27
          28
          29
          30
          31
          32
          33
          34
          35
          36
          37
          38
          39
          40
          41
          42
          43
          44
          45
          46
          47
          48
          49
          50
          51
          52
          53
          54
          55
          56
          57
          58
          59
          60
          61
          62
          63
          64
          65
          66
          67
          68
          69
          70
          71
          72
          73
          74
          75
          76
          77
          78
          79
          80
          81
          82
        </DataArray>
        <DataArray type="Float64" Name="Velocity" NumberOfComponents="3" format="ascii">
          -7.5895560592e-03 -7.7838908572e-05 0.0000000000e+00 
          -7.5895560592e-03 -7.7838908572e-05 0.0000000000e+00 
          5.7949079804e-03 -7.7105856110e-05 0.0000000000e+00 
          5.7949079804e-03 -7.7105856110e-05 0.0000000000e+00 
          0.0000000000e+00 0.0000000000e+00 0.0000000000e+00 
          0.0000000000e+00 0.0000000000e+00 0.0000000000e+00 
          -7.1494283648e-03 -7.7819762154e-05 0.0000000000e+00 
          -6.6992036201e-03 -7.7877826353e-05 0.0000000000e+00 
          -6.2401400043e-03 -7.7645843418e-05 0.0000000000e+00 
          -5.7736185369e-03 -7.7830573698e-05 0.0000000000e+00 
          -5.3009219135e-03 -7.7797386727e-05 0.0000000000e+00 
          -4.8234070494e-03 -7.7650285179e-05 0.0000000000e+00 
          -4.3424292707e-03 -7.7768986321e-05 0.0000000000e+00 
          -3.8592688386e-03 -7.7702367096e-05 0.0000000000e+00 
          -3.3752856754e-03 -7.7630441123e-05 0.0000000000e+00 
          -2.8917959578e-03 -7.7666562808e-05 0.0000000000e+00 
          -2.4101218640e-03 -7.7626033311e-05 0.0000000000e+00 
          -1.9315627023e-03 -7.7572293892e-05 0.0000000000e+00 
          -1.4573848407e-03 -7.7595545322e-05 0.0000000000e+00 
          -9.8888629539e-04 -7.7637725677e-05 0.0000000000e+00 
          -5.2731918141e-04 -7.7495079360e-05 0.0000000000e+00 
          -7.3909625874e-05 -7.7539749323e-05 0.0000000000e+00 
          3.7014061478e-04 -7.7593426698e-05 0.0000000000e+00 
          8.0364442955e-04 -7.7364553883e-05 0.0000000000e+00 
          1.2254547154e-03 -7.7600320796e-05 0.0000000000e+00 
          1.6344450767e-03 -7.7445274424e-05 0.0000000000e+00 
          2.0295159384e-03 -7.7386957203e-05 0.0000000000e+00 
          2.4096577812e-03 -7.7485871084e-05 0.0000000000e+00 
          2.7738247791e-03 -7.7364952806e-05 0.0000000000e+00 
          3.1210573179e-03 -7.7480275432e-05 0.0000000000e+00 
          3.4504462761e-03 -7.7326141958e-05 0.0000000000e+00 
          3.7610945770e-03 -7.7399623685e-05 0.0000000000e+00 
          4.0522058046e-03 -7.7418806213e-05 0.0000000000e+00 
          4.3229707083e-03 -7.7340608359e-05 0.0000000000e+00 
          4.5726781844e-03 -7.7268489050e-05 0.0000000000e+00 
          4.8006832415e-03 -7.7341716872e-05 0.0000000000e+00 
          5.0063417519e-03 -7.7324587933e-05 0.0000000000e+00 
          5.1891323377e-03 -7.7242222652e-05 0.0000000000e+00 
          5.3485519857e-03 -7.7294862783e-05 0.0000000000e+00 
          5.4841683881e-03 -7.7159514019e-05 0.0000000000e+00 
          5.5956349845e-03 -7.7299686579e-05 0.0000000000e+00 
          5.6826402465e-03 -7.7164822860e-05 0.0000000000e+00 
          5.7449550503e-03 -7.7230848982e-05 0.0000000000e+00 
          5.7824080930e-03 -7.7292087446e-05 0.0000000000e+00 
          -7.1494283648e-03 -7.7819762154e-05 0.0000000000e+00 
          -6.6992036201e-03 -7.7877826353e-05 0.0000000000e+00 
          -6.2401400043e-03 -7.7645843418e-05 0.0000000000e+00 
          -5.7736185369e-03 -7.7830573698e-05 0.0000000000e+00 
          -5.3009219135e-03 -7.7797386727e-05 0.0000000000e+00 
          -4.8234070494e-03 -7.7650285179e-05 0.0000000000e+00 
          -4.3424292707e-03 -7.7768986321e-05 0.0000000000e+00 
          -3.8592688386e-03 -7.7702367096e-05 0.0000000000e+00 
          -3.3752856754e-03 -7.7630441123e-05 0.0000000000e+00 
          -2.8917959578e-03 -7.7666562808e-05 0.0000000000e+00 
          -2.4101218640e-03 -7.7626033311e-05 0.0000000000e+00 
          -1.9315627023e-03 -7.7572293892e-05 0.0000000000e+00 
          -1.4573848407e-03 -7.7595545322e-05 0.0000000000e+00 
          -9.8888629539e-04 -7.7637725677e-05 0.0000000000e+00 
          -5.2731918141e-04 -7.7495079360e-05 0.0000000000e+00 
          -7.3909625874e-05 -7.7539749323e-05 0.0000000000e+00 
          3.7014061478e-04 -7.7593426698e-05 0.0000000000e+00 
          8.0364442955e-04 -7.7364553883e-05 0.0000000000e+00 
          1.2254547154e-03 -7.7600320796e-05 0.0000000000e+00 
          1.6344450767e-03 -7.7445274424e-05 0.0000000000e+00 
          2.0295159384e-03 -7.7386957203e-05 0.0000000000e+00 
          2.4096577812e-03 -7.7485871084e-05 0.0000000000e+00 
          2.7738247791e-03 -7.7364952806e-05 0.0000000000e+00 
          3.1210573179e-03 -7.7480275432e-05 0.0000000000e+00 
          3.4504462761e-03 -7.7326141958e-05 0.0000000000e+00 
          3.7610945770e-03 -7.7399623685e-05 0.0000000000e+00 
          4.0522058046e-03 -7.7418806213e-05 0.0000000000e+00 
          4.3229707083e-03 -7.7340608359e-05 0.0000000000e+00 
          4.5726781844e-03 -7.7268489050e-05 0.0000000000e+00 
          4.8006832415e-03 -7.7341716872e-05 0.0000000000e+00 
          5.0063417519e-03 -7.7324587933e-05 0.0000000000e+00 
          5.1891323377e-03 -7.7242222652e-05 0.0000000000e+00 
          5.3485519857e-03 -7.7294862783e-05 0.0000000000e+00 
          5.4841683881e-03 -7.7159514019e-05 0.0000000000e+00 
          5.5956349845e-03 -7.7299686579e-05 0.0000000000e+00 
          5.6826402465e-03 -7.7164822860e-05 0.0000000000e+00 
          5.7449550503e-03 -7.7230848982e-05 0.0000000000e+00 
          5.7824080930e-03 -7.7292087446e-05 0.0000000000e+00 
        </DataArray>
        <DataArray type="Float64" Name="Displacement" NumberOfComponents="3" format="ascii">
          -1.6320059298e-05 -3.0800185272e-04 0.0000000000e+00 
          -1.6320059298e-05 -3.0800185272e-04 0.0000000000e+00 
          -3.0844299543e-03 -3.3157451732e-04 0.0000000000e+00 
          -3.0844299543e-03 -3.3157451732e-04 0.0000000000e+00 
          0.0000000000e+00 0.0000000000e+00 0.0000000000e+00 
          0.0000000000e+00 0.0000000000e+00 0.0000000000e+00 
          -1.4221232425e-04 -3.0919550622e-04 0.0000000000e+00 
          -2.6762497729e-04 -3.1035821876e-04 0.0000000000e+00 
          -3.9236963766e-04 -3.1148965637e-04 0.0000000000e+00 
          -5.1625974480e-04 -3.1259037719e-04 0.0000000000e+00 
          -6.3910976351e-04 -3.1365994901e-04 0.0000000000e+00 
          -7.6073610570e-04 -3.1469851548e-04 0.0000000000e+00 
          -8.8095695750e-04 -3.1570596629e-04 0.0000000000e+00 
          -9.9959318803e-04 -3.1668253831e-04 0.0000000000e+00 
          -1.1164676172e-03 -3.1762791256e-04 0.0000000000e+00 
          -1.2314058169e-03 -3.1854244933e-04 0.0000000000e+00 
          -1.3442360963e-03 -3.1942598909e-04 0.0000000000e+00 
          -1.4547902632e-03 -3.2027841895e-04 0.0000000000e+00 
          -1.5629029702e-03 -3.2109999304e-04 0.0000000000e+00 
          -1.6684125513e-03 -3.2189032978e-04 0.0000000000e+00 
          -1.7711610254e-03 -3.2264994937e-04 0.0000000000e+00 
          -1.8709942835e-03 -3.2337835773e-04 0.0000000000e+00 
          -1.9677627749e-03 -3.2407583598e-04 0.0000000000e+00 
          -2.0613209276e-03 -3.2474228629e-04 0.0000000000e+00 
          -2.1515279385e-03 -3.2537764422e-04 0.0000000000e+00 
          -2.2382476478e-03 -3.2598205261e-04 0.0000000000e+00 
          -2.3213494112e-03 -3.2655543719e-04 0.0000000000e+00 
          -2.4007073250e-03 -3.2709772231e-04 0.0000000000e+00 
          -2.4762011404e-03 -3.2760907045e-04 0.0000000000e+00 
          -2.5477162377e-03 -3.2808928777e-04 0.0000000000e+00 
          -2.6151439566e-03 -3.2853876501e-04 0.0000000000e+00 
          -2.6783815493e-03 -3.2895705428e-04 0.0000000000e+00 
          -2.7373324925e-03 -3.2934417228e-04 0.0000000000e+00 
          -2.7919066715e-03 -3.2970064560e-04 0.0000000000e+00 
          -2.8420205449e-03 -3.3002590451e-04 0.0000000000e+00 
          -2.8875973369e-03 -3.3032003957e-04 0.0000000000e+00 
          -2.9285670075e-03 -3.3058346748e-04 0.0000000000e+00 
          -2.9648666394e-03 -3.3081581205e-04 0.0000000000e+00 
          -2.9964402892e-03 -3.3101712204e-04 0.0000000000e+00 
          -3.0232393813e-03 -3.3118753278e-04 0.0000000000e+00 
          -3.0452225794e-03 -3.3132691185e-04 0.0000000000e+00 
          -3.0623559226e-03 -3.3143523420e-04 0.0000000000e+00 
          -3.0746129480e-03 -3.3151269001e-04 0.0000000000e+00 
          -3.0819747625e-03 -3.3155923480e-04 0.0000000000e+00 
          -1.4221232425e-04 -3.0919550622e-04 0.0000000000e+00 
          -2.6762497729e-04 -3.1035821876e-04 0.0000000000e+00 
          -3.9236963766e-04 -3.1148965637e-04 0.0000000000e+00 
          -5.1625974480e-04 -3.1259037719e-04 0.0000000000e+00 
          -6.3910976351e-04 -3.1365994901e-04 0.0000000000e+00 
          -7.6073610570e-04 -3.1469851548e-04 0.0000000000e+00 
          -8.8095695750e-04 -3.1570596629e-04 0.0000000000e+00 
          -9.9959318803e-04 -3.1668253831e-04 0.0000000000e+00 
          -1.1164676172e-03 -3.1762791256e-04 0.0000000000e+00 
          -1.2314058169e-03 -3.1854244933e-04 0.0000000000e+00 
          -1.3442360963e-03 -3.1942598909e-04 0.0000000000e+00 
          -1.4547902632e-03 -3.2027841895e-04 0.0000000000e+00 
          -1.5629029702e-03 -3.2109999304e-04 0.0000000000e+00 
          -1.6684125513e-03 -3.2189032978e-04 0.0000000000e+00 
          -1.7711610254e-03 -3.2264994937e-04 0.0000000000e+00 
          -1.8709942835e-03 -3.2337835773e-04 0.0000000000e+00 
          -1.9677627749e-03 -3.2407583598e-04 0.0000000000e+00 
          -2.0613209276e-03 -3.2474228629e-04 0.0000000000e+00 
          -2.1515279385e-03 -3.2537764422e-04 0.0000000000e+00 
          -2.2382476478e-03 -3.2598205261e-04 0.0000000000e+00 
          -2.3213494112e-03 -3.2655543719e-04 0.0000000000e+00 
          -2.4007073250e-03 -3.2709772231e-04 0.0000000000e+00 
          -2.4762011404e-03 -3.2760907045e-04 0.0000000000e+00 
          -2.5477162377e-03 -3.2808928777e-04 0.0000000000e+00 
          -2.6151439566e-03 -3.2853876501e-04 0.0000000000e+00 
          -2.6783815493e-03 -3.2895705428e-04 0.0000000000e+00 
          -2.7373324925e-03 -3.2934417228e-04 0.0000000000e+00 
          -2.7919066715e-03 -3.2970064560e-04 0.0000000000e+00 
          -2.8420205449e-03 -3.3002590451e-04 0.0000000000e+00 
          -2.8875973369e-03 -3.3032003957e-04 0.0000000000e+00 
          -2.9285670075e-03 -3.3058346748e-04 0.0000000000e+00 
          -2.9648666394e-03 -3.3081581205e-04 0.0000000000e+00 
          -2.9964402892e-03 -3.3101712204e-04 0.0000000000e+00 
          -3.0232393813e-03 -3.3118753278e-04 0.0000000000e+00 
          -3.0452225794e-03 -3.3132691185e-04 0.0000000000e+00 
          -3.0623559226e-03 -3.3143523420e-04 0.0000000000e+00 
          -3.0746129480e-03 -3.3151269001e-04 0.0000000000e+00 
          -3.0819747625e-03 -3.3155923480e-04 0.0000000000e+00 
        </DataArray>
        <DataArray type="Float64" Name="Acceleration" NumberOfComponents="3" format="ascii">
          2.6159052139e-02 1.3521248449e-06 0.0000000000e+00 
          2.6159052139e-02 1.3521248449e-06 0.0000000000e+00 
          4.4243526047e-01 -7.9524086710e-05 0.0000000000e+00 
          4.4243526047e-01 -7.9524086710e-05 0.0000000000e+00 
          0.0000000000e+00 0.0000000000e+00 0.0000000000e+00 
          0.0000000000e+00 0.0000000000e+00 0.0000000000e+00 
          4.3213979857e-02 -1.1778780290e-05 0.0000000000e+00 
          6.0172886644e-02 4.8138464729e-05 0.0000000000e+00 
          7.7011596019e-02 -5.1908026971e-05 0.0000000000e+00 
          9.3714020931e-02 2.5707585447e-05 0.0000000000e+00 
          1.1025567080e-01 -1.7785670586e-07 0.0000000000e+00 
          1.2662346042e-01 1.9469105958e-05 0.0000000000e+00 
          1.4279168076e-01 -2.2745496880e-05 0.0000000000e+00 
          1.5874177882e-01 3.4496359350e-05 0.0000000000e+00 
          1.7445810796e-01 -3.0427471721e-05 0.0000000000e+00 
          1.8991467822e-01 -1.8846229626e-06 0.0000000000e+00 
          2.0509558912e-01 1.8872751319e-05 0.0000000000e+00 
          2.1998034983e-01 -2.7132417541e-05 0.0000000000e+00 
          2.3454679420e-01 4.1629967192e-05 0.0000000000e+00 
          2.4878118413e-01 -5.2113537718e-05 0.0000000000e+00 
          2.6265519684e-01 3.6755289809e-05 0.0000000000e+00 
          2.7615341377e-01 -1.3561990437e-05 0.0000000000e+00 
          2.8925784755e-01 3.8942725435e-06 0.0000000000e+00 
          3.0194450160e-01 1.5504243639e-05 0.0000000000e+00 
          3.1420280695e-01 -1.0372042997e-05 0.0000000000e+00 
          3.2599443743e-01 3.2933982398e-06 0.0000000000e+00 
          3.3732823411e-01 1.6779716948e-05 0.0000000000e+00 
          3.4816290560e-01 -1.2496287383e-05 0.0000000000e+00 
          3.5848221863e-01 2.2321456098e-05 0.0000000000e+00 
          3.6828947656e-01 -4.7863501863e-05 0.0000000000e+00 
          3.7753864791e-01 3.2732483568e-05 0.0000000000e+00 
          3.8623557998e-01 2.9719849927e-05 0.0000000000e+00 
          3.9435509613e-01 -6.5171946381e-05 0.0000000000e+00 
          4.0187674660e-01 3.7423943482e-05 0.0000000000e+00 
          4.0880612055e-01 2.1254190721e-05 0.0000000000e+00 
          4.1511073438e-01 -5.3912260947e-05 0.0000000000e+00 
          4.2077971955e-01 1.3875328963e-05 0.0000000000e+00 
          4.2581688471e-01 5.0455780931e-06 0.0000000000e+00 
          4.3020106719e-01 -1.9246930310e-05 0.0000000000e+00 
          4.3392156135e-01 4.5659845981e-06 0.0000000000e+00 
          4.3698149283e-01 9.0783272031e-06 0.0000000000e+00 
          4.3936472364e-01 -2.5205785259e-05 0.0000000000e+00 
          4.4106988314e-01 -1.7154086824e-05 0.0000000000e+00 
          4.4209639952e-01 4.6119628404e-05 0.0000000000e+00 
          4.3213979857e-02 -1.1778780290e-05 0.0000000000e+00 
          6.0172886644e-02 4.8138464729e-05 0.0000000000e+00 
          7.7011596019e-02 -5.1908026971e-05 0.0000000000e+00 
          9.3714020931e-02 2.5707585447e-05 0.0000000000e+00 
          1.1025567080e-01 -1.7785670586e-07 0.0000000000e+00 
          1.2662346042e-01 1.9469105958e-05 0.0000000000e+00 
          1.4279168076e-01 -2.2745496880e-05 0.0000000000e+00 
          1.5874177882e-01 3.4496359350e-05 0.0000000000e+00 
          1.7445810796e-01 -3.0427471721e-05 0.0000000000e+00 
          1.8991467822e-01 -1.8846229626e-06 0.0000000000e+00 
          2.0509558912e-01 1.8872751319e-05 0.0000000000e+00 
          2.1998034983e-01 -2.7132417541e-05 0.0000000000e+00 
          2.3454679420e-01 4.1629967192e-05 0.0000000000e+00 
          2.4878118413e-01 -5.2113537718e-05 0.0000000000e+00 
          2.6265519684e-01 3.6755289809e-05 0.0000000000e+00 
          2.7615341377e-01 -1.3561990437e-05 0.0000000000e+00 
          2.8925784755e-01 3.8942725435e-06 0.0000000000e+00 
          3.0194450160e-01 1.5504243639e-05 0.0000000000e+00 
          3.1420280695e-01 -1.0372042997e-05 0.0000000000e+00 
          3.2599443743e-01 3.2933982398e-06 0.0000000000e+00 
          3.3732823411e-01 1.6779716948e-05 0.0000000000e+00 
          3.4816290560e-01 -1.2496287383e-05 0.0000000000e+00 
          3.5848221863e-01 2.2321456098e-05 0.0000000000e+00 
          3.6828947656e-01 -4.7863501863e-05 0.0000000000e+00 
          3.7753864791e-01 3.2732483568e-05 0.0000000000e+00 
          3.8623557998e-01 2.9719849927e-05 0.0000000000e+00 
          3.9435509613e-01 -6.5171946381e-05 0.0000000000e+00 
          4.0187674660e-01 3.7423943482e-05 0.0000000000e+00 
          4.0880612055e-01 2.1254190721e-05 0.0000000000e+00 
          4.1511073438e-01 -5.3912260947e-05 0.0000000000e+00 
          4.2077971955e-01 1.3875328963e-05 0.0000000000e+00 
          4.2581688471e-01 5.0455780931e-06 0.0000000000e+00 
          4.3020106719e-01 -1.9246930310e-05 0.0000000000e+00 
          4.3392156135e-01 4.5659845981e-06 0.0000000000e+00 
          4.3698149283e-01 9.0783272031e-06 0.0000000000e+00 
          4.3936472364e-01 -2.5205785259e-05 0.0000000000e+00 
          4.4106988314e-01 -1.7154086824e-05 0.0000000000e+00 
          4.4209639952e-01 4.6119628404e-05 0.0000000000e+00 
        </DataArray>
        <DataArray type="Float64" Name="Reaction" NumberOfComponents="3" format="ascii">
          0.0000000000e+00 0.0000000000e+00 0.0000000000e+00 
          0.0000000000e+00 0.0000000000e+00 0.0000000000e+00 
          0.0000000000e+00 0.0000000000e+00 0.0000000000e+00 
          0.0000000000e+00 0.0000000000e+00 0.0000000000e+00 
          0.0000000000e+00 0.0000000000e+00 0.0000000000e+00 
          0.0000000000e+00 0.0000000000e+00 0.0000000000e+00 
          0.0000000000e+00 0.0000000000e+00 0.0000000000e+00 
          0.0000000000e+00 0.0000000000e+00 0.0000000000e+00 
          0.0000000000e+00 0.0000000000e+00 0.0000000000e+00 
          0.0000000000e+00 0.0000000000e+00 0.0000000000e+00 
          0.0000000000e+00 0.0000000000e+00 0.0000000000e+00 
          0.0000000000e+00 0.0000000000e+00 0.0000000000e+00 
          0.0000000000e+00 0.0000000000e+00 0.0000000000e+00 
          0.0000000000e+00 0.0000000000e+00 0.0000000000e+00 
          0.0000000000e+00 0.0000000000e+00 0.0000000000e+00 
          0.0000000000e+00 0.0000000000e+00 0.0000000000e+00 
          0.0000000000e+00 0.0000000000e+00 0.0000000000e+00 
          0.0000000000e+00 0.0000000000e+00 0.0000000000e+00 
          0.0000000000e+00 0.0000000000e+00 0.0000000000e+00 
          0.0000000000e+00 0.0000000000e+00 0.0000000000e+00 
          0.0000000000e+00 0.0000000000e+00 0.0000000000e+00 
          0.0000000000e+00 0.0000000000e+00 0.0000000000e+00 
          0.0000000000e+00 0.0000000000e+00 0.0000000000e+00 
          0.0000000000e+00 0.0000000000e+00 0.0000000000e+00 
          0.0000000000e+00 0.0000000000e+00 0.0000000000e+00 
          0.0000000000e+00 0.0000000000e+00 0.0000000000e+00 
          0.0000000000e+00 0.0000000000e+00 0.0000000000e+00 
          0.0000000000e+00 0.0000000000e+00 0.0000000000e+00 
          0.0000000000e+00 0.0000000000e+00 0.0000000000e+00 
          0.0000000000e+00 0.0000000000e+00 0.0000000000e+00 
          0.0000000000e+00 0.0000000000e+00 0.0000000000e+00 
          0.0000000000e+00 0.0000000000e+00 0.0000000000e+00 
          0.0000000000e+00 0.0000000000e+00 0.0000000000e+00 
          0.0000000000e+00 0.0000000000e+00 0.0000000000e+00 
          0.0000000000e+00 0.0000000000e+00 0.0000000000e+00 
          0.0000000000e+00 0.0000000000e+00 0.0000000000e+00 
          0.0000000000e+00 0.0000000000e+00 0.0000000000e+00 
          0.0000000000e+00 0.0000000000e+00 0.0000000000e+00 
          0.0000000000e+00 0.0000000000e+00 0.0000000000e+00 
          0.0000000000e+00 0.0000000000e+00 0.0000000000e+00 
          0.0000000000e+00 0.0000000000e+00 0.0000000000e+00 
          0.0000000000e+00 0.0000000000e+00 0.0000000000e+00 
          0.0000000000e+00 0.0000000000e+00 0.0000000000e+00 
          0.0000000000e+00 0.0000000000e+00 0.0000000000e+00 
          0.0000000000e+00 0.0000000000e+00 0.0000000000e+00 
          0.0000000000e+00 0.0000000000e+00 0.0000000000e+00 
          0.0000000000e+00 0.0000000000e+00 0.0000000000e+00 
          0.0000000000e+00 0.0000000000e+00 0.0000000000e+00 
          0.0000000000e+00 0.0000000000e+00 0.0000000000e+00 
          0.0000000000e+00 0.0000000000e+00 0.0000000000e+00 
          0.0000000000e+00 0.0000000000e+00 0.0000000000e+00 
          0.0000000000e+00 0.0000000000e+00 0.0000000000e+00 
          0.0000000000e+00 0.0000000000e+00 0.0000000000e+00 
          0.0000000000e+00 0.0000000000e+00 0.0000000000e+00 
          0.0000000000e+00 0.0000000000e+00 0.0000000000e+00 
          0.0000000000e+00 0.0000000000e+00 0.0000000000e+00 
          0.0000000000e+00 0.0000000000e+00 0.0000000000e+00 
          0.0000000000e+00 0.0000000000e+00 0.0000000000e+00 
          0.0000000000e+00 0.0000000000e+00 0.0000000000e+00 
          0.0000000000e+00 0.0000000000e+00 0.0000000000e+00 
          0.0000000000e+00 0.0000000000e+00 0.0000000000e+00 
          0.0000000000e+00 0.0000000000e+00 0.0000000000e+00 
          0.0000000000e+00 0.0000000000e+00 0.0000000000e+00 
          0.0000000000e+00 0.0000000000e+00 0.0000000000e+00 
          0.0000000000e+00 0.0000000000e+00 0.0000000000e+00 
          0.0000000000e+00 0.0000000000e+00 0.0000000000e+00 
          0.0000000000e+00 0.0000000000e+00 0.0000000000e+00 
          0.0000000000e+00 0.0000000000e+00 0.0000000000e+00 
          0.0000000000e+00 0.0000000000e+00 0.0000000000e+00 
          0.0000000000e+00 0.0000000000e+00 0.0000000000e+00 
          0.0000000000e+00 0.0000000000e+00 0.0000000000e+00 
          0.0000000000e+00 0.0000000000e+00 0.0000000000e+00 
          0.0000000000e+00 0.0000000000e+00 0.0000000000e+00 
          0.0000000000e+00 0.0000000000e+00 0.0000000000e+00 
          0.0000000000e+00 0.0000000000e+00 0.0000000000e+00 
          0.0000000000e+00 0.0000000000e+00 0.0000000000e+00 
          0.0000000000e+00 0.0000000000e+00 0.0000000000e+00 
          0.0000000000e+00 0.0000000000e+00 0.0000000000e+00 
          0.0000000000e+00 0.0000000000e+00 0.0000000000e+00 
          0.0000000000e+00 0.0000000000e+00 0.0000000000e+00 
          0.0000000000e+00 0.0000000000e+00 0.0000000000e+00 
          0.0000000000e+00 0.0000000000e+00 0.0000000000e+00 
        </DataArray>
      </PointData>
      <CellData>
        <DataArray type="Int64" Name="ElementTag" format="ascii">
          0
        </DataArray>
      </CellData>
    </Piece>
  </UnstructuredGrid>
</VTKFile>
