<?xml version="1.0"?>
<VTKFile type="UnstructuredGrid" version="1.0" byte_order="LittleEndian" compressor="vtkZLibDataCompressor">
  <UnstructuredGrid>
    <Piece NumberOfPoints="82" NumberOfCells="1">
      <Points>
        <DataArray type="Float64" Name="Points" NumberOfComponents="3" format="ascii">
          0.0000000000e+00 0.0000000000e+00 0.0000000000e+00 
          2.5000000000e-01 0.0000000000e+00 0.0000000000e+00 
          2.5000000000e-01 3.0000000000e+01 0.0000000000e+00 
          0.0000000000e+00 3.0000000000e+01 0.0000000000e+00 
          0.0000000000e+00 -5.0000000000e+00 0.0000000000e+00 
          2.5000000000e-01 -5.0000000000e+00 0.0000000000e+00 
          2.5000000000e-01 7.6923100000e-01 0.0000000000e+00 
          2.5000000000e-01 1.5384620000e+00 0.0000000000e+00 
          2.5000000000e-01 2.3076920000e+00 0.0000000000e+00 
          2.5000000000e-01 3.0769230000e+00 0.0000000000e+00 
          2.5000000000e-01 3.8461540000e+00 0.0000000000e+00 
          2.5000000000e-01 4.6153850000e+00 0.0000000000e+00 
          2.5000000000e-01 5.3846150000e+00 0.0000000000e+00 
          2.5000000000e-01 6.1538460000e+00 0.0000000000e+00 
          2.5000000000e-01 6.9230770000e+00 0.0000000000e+00 
          2.5000000000e-01 7.6923080000e+00 0.0000000000e+00 
          2.5000000000e-01 8.4615380000e+00 0.0000000000e+00 
          2.5000000000e-01 9.2307690000e+00 0.0000000000e+00 
          2.5000000000e-01 1.0000000000e+01 0.0000000000e+00 
          2.5000000000e-01 1.0769231000e+01 0.0000000000e+00 
          2.5000000000e-01 1.1538462000e+01 0.0000000000e+00 
          2.5000000000e-01 1.2307692000e+01 0.0000000000e+00 
          2.5000000000e-01 1.3076923000e+01 0.0000000000e+00 
          2.5000000000e-01 1.3846154000e+01 0.0000000000e+00 
          2.5000000000e-01 1.4615385000e+01 0.0000000000e+00 
          2.5000000000e-01 1.5384615000e+01 0.0000000000e+00 
          2.5000000000e-01 1.6153846000e+01 0.0000000000e+00 
          2.5000000000e-01 1.6923077000e+01 0.0000000000e+00 
          2.5000000000e-01 1.7692308000e+01 0.0000000000e+00 
          2.5000000000e-01 1.8461538000e+01 0.0000000000e+00 
          2.5000000000e-01 1.9230769000e+01 0.0000000000e+00 
          2.5000000000e-01 2.0000000000e+01 0.0000000000e+00 
          2.5000000000e-01 2.0769231000e+01 0.0000000000e+00 
          2.5000000000e-01 2.1538462000e+01 0.0000000000e+00 
          2.5000000000e-01 2.2307692000e+01 0.0000000000e+00 
          2.5000000000e-01 2.3076923000e+01 0.0000000000e+00 
          2.5000000000e-01 2.3846154000e+01 0.0000000000e+00 
          2.5000000000e-01 2.4615385000e+01 0.0000000000e+00 
          2.5000000000e-01 2.5384615000e+01 0.0000000000e+00 
          2.5000000000e-01 2.6153846000e+01 0.0000000000e+00 
          2.5000000000e-01 2.6923077000e+01 0.0000000000e+00 
          2.5000000000e-01 2.7692308000e+01 0.0000000000e+00 
          2.5000000000e-01 2.8461538000e+01 0.0000000000e+00 
          2.5000000000e-01 2.9230769000e+01 0.0000000000e+00 
          0.0000000000e+00 7.6923100000e-01 0.0000000000e+00 
          0.0000000000e+00 1.5384620000e+00 0.0000000000e+00 
          0.0000000000e+00 2.3076920000e+00 0.0000000000e+00 
          0.0000000000e+00 3.0769230000e+00 0.0000000000e+00 
          0.0000000000e+00 3.8461540000e+00 0.0000000000e+00 
          0.0000000000e+00 4.6153850000e+00 0.0000000000e+00 
          0.0000000000e+00 5.3846150000e+00 0.0000000000e+00 
          0.0000000000e+00 6.1538460000e+00 0.0000000000e+00 
          0.0000000000e+00 6.9230770000e+00 0.0000000000e+00 
          0.0000000000e+00 7.6923080000e+00 0.0000000000e+00 
          0.0000000000e+00 8.4615380000e+00 0.0000000000e+00 
          0.0000000000e+00 9.2307690000e+00 0.0000000000e+00 
          0.0000000000e+00 1.0000000000e+01 0.0000000000e+00 
          0.0000000000e+00 1.0769231000e+01 0.0000000000e+00 
          0.0000000000e+00 1.1538462000e+01 0.0000000000e+00 
          0.0000000000e+00 1.2307692000e+01 0.0000000000e+00 
          0.0000000000e+00 1.3076923000e+01 0.0000000000e+00 
          0.0000000000e+00 1.3846154000e+01 0.0000000000e+00 
          0.0000000000e+00 1.4615385000e+01 0.0000000000e+00 
          0.0000000000e+00 1.5384615000e+01 0.0000000000e+00 
          0.0000000000e+00 1.6153846000e+01 0.0000000000e+00 
          0.0000000000e+00 1.6923077000e+01 0.0000000000e+00 
          0.0000000000e+00 1.7692308000e+01 0.0000000000e+00 
          0.0000000000e+00 1.8461538000e+01 0.0000000000e+00 
          0.0000000000e+00 1.9230769000e+01 0.0000000000e+00 
          0.0000000000e+00 2.0000000000e+01 0.0000000000e+00 
          0.0000000000e+00 2.0769231000e+01 0.0000000000e+00 
          0.0000000000e+00 2.1538462000e+01 0.0000000000e+00 
          0.0000000000e+00 2.2307692000e+01 0.0000000000e+00 
          0.0000000000e+00 2.3076923000e+01 0.0000000000e+00 
          0.0000000000e+00 2.3846154000e+01 0.0000000000e+00 
          0.0000000000e+00 2.4615385000e+01 0.0000000000e+00 
          0.0000000000e+00 2.5384615000e+01 0.0000000000e+00 
          0.0000000000e+00 2.6153846000e+01 0.0000000000e+00 
          0.0000000000e+00 2.6923077000e+01 0.0000000000e+00 
          0.0000000000e+00 2.7692308000e+01 0.0000000000e+00 
          0.0000000000e+00 2.8461538000e+01 0.0000000000e+00 
          0.0000000000e+00 2.9230769000e+01 0.0000000000e+00 
        </DataArray>
      </Points>
      <Cells>
        <DataArray type="Int64" Name="connectivity" format="ascii">
          0
          1
          2
          3
          4
          5
          6
          7
          8
          9
          10
          11
          12
          13
          14
          15
          16
          17
          18
          19
          20
          21
          22
          23
          24
          25
          26
          27
          28
          29
          30
          31
          32
          33
          34
          35
          36
          37
          38
          39
          40
          41
          42
          43
          44
          45
          46
          47
          48
          49
          50
          51
          52
          53
          54
          55
          56
          57
          58
          59
          60
          61
          62
          63
          64
          65
          66
          67
          68
          69
          70
          71
          72
          73
          74
          75
          76
          77
          78
          79
          80
          81
        </DataArray>
        <DataArray type="Int64" Name="offsets" format="ascii">
          82
        </DataArray>
        <DataArray type="Int64" Name="types" format="ascii">
          2
        </DataArray>
      </Cells>
      <PointData>
        <DataArray type="Int64" Name="NodeTag" format="ascii">
          1
          2
          3
          4
          5
          6
          7
          8
          9
          10
          11
          12
          13
          14
          15
          16
          17
          18
          19
          20
          21
          22
          23
          24
          25
          26
          27
          28
          29
          30
          31
          32
          33
          34
          35
          36
          37
          38
          39
          40
          41
          42
          43
          44
          45
          46
          47
          48
          49
          50
          51
          52
          53
          54
          55
          56
          57
          58
          59
          60
          61
          62
          63
          64
          65
          66
          67
          68
          69
          70
          71
          72
          73
          74
          75
          76
          77
          78
          79
          80
          81
          82
        </DataArray>
        <DataArray type="Float64" Name="Velocity" NumberOfComponents="3" format="ascii">
          3.8380345830e-02 -7.9151108138e-05 0.0000000000e+00 
          3.8380345830e-02 -7.9151108138e-05 0.0000000000e+00 
          3.7048345267e-03 -5.5744120914e-05 0.0000000000e+00 
          3.7048345267e-03 -5.5744120914e-05 0.0000000000e+00 
          0.0000000000e+00 0.0000000000e+00 0.0000000000e+00 
          0.0000000000e+00 0.0000000000e+00 0.0000000000e+00 
          3.6190579055e-02 -7.8607734520e-05 0.0000000000e+00 
          3.4091555376e-02 -7.8174574052e-05 0.0000000000e+00 
          3.2082383702e-02 -7.7602636206e-05 0.0000000000e+00 
          3.0161936549e-02 -7.6440884580e-05 0.0000000000e+00 
          2.8328884800e-02 -7.5627526095e-05 0.0000000000e+00 
          2.6581704260e-02 -7.4714935090e-05 0.0000000000e+00 
          2.4918712742e-02 -7.3941378958e-05 0.0000000000e+00 
          2.3338076421e-02 -7.3152201972e-05 0.0000000000e+00 
          2.1837833870e-02 -7.2243271025e-05 0.0000000000e+00 
          2.0415921845e-02 -7.1504912983e-05 0.0000000000e+00 
          1.9070193589e-02 -7.0645818290e-05 0.0000000000e+00 
          1.7798425327e-02 -7.0373862182e-05 0.0000000000e+00 
          1.6598347756e-02 -7.0062460107e-05 0.0000000000e+00 
          1.5467653055e-02 -6.9465480787e-05 0.0000000000e+00 
          1.4404012610e-02 -6.9105198302e-05 0.0000000000e+00 
          1.3405095041e-02 -6.8126396843e-05 0.0000000000e+00 
          1.2468573096e-02 -6.6985560171e-05 0.0000000000e+00 
          1.1592143832e-02 -6.6155501869e-05 0.0000000000e+00 
          1.0773535612e-02 -6.5359634057e-05 0.0000000000e+00 
          1.0010520976e-02 -6.4585044221e-05 0.0000000000e+00 
          9.3009237497e-03 -6.3503894605e-05 0.0000000000e+00 
          8.6426348563e-03 -6.2879733020e-05 0.0000000000e+00 
          8.0336159072e-03 -6.1900005198e-05 0.0000000000e+00 
          7.4719088332e-03 -6.0837900807e-05 0.0000000000e+00 
          6.9556411353e-03 -6.0151199237e-05 0.0000000000e+00 
          6.4830366095e-03 -5.9626547417e-05 0.0000000000e+00 
          6.0524178226e-03 -5.8725425454e-05 0.0000000000e+00 
          5.6622125826e-03 -5.7797413691e-05 0.0000000000e+00 
          5.3109594044e-03 -5.7477071390e-05 0.0000000000e+00 
          4.9973095664e-03 -5.7341247589e-05 0.0000000000e+00 
          4.7200333762e-03 -5.6919541943e-05 0.0000000000e+00 
          4.4780219478e-03 -5.6225602583e-05 0.0000000000e+00 
          4.2702910376e-03 -5.6352139242e-05 0.0000000000e+00 
          4.0959822614e-03 -5.6154315255e-05 0.0000000000e+00 
          3.9543665582e-03 -5.5940883421e-05 0.0000000000e+00 
          3.8448448115e-03 -5.5934970671e-05 0.0000000000e+00 
          3.7669497242e-03 -5.5639261698e-05 0.0000000000e+00 
          3.7203465720e-03 -5.5622244001e-05 0.0000000000e+00 
          3.6190579055e-02 -7.8607734520e-05 0.0000000000e+00 
          3.4091555376e-02 -7.8174574052e-05 0.0000000000e+00 
          3.2082383702e-02 -7.7602636206e-05 0.0000000000e+00 
          3.0161936549e-02 -7.6440884580e-05 0.0000000000e+00 
          2.8328884800e-02 -7.5627526095e-05 0.0000000000e+00 
          2.6581704260e-02 -7.4714935090e-05 0.0000000000e+00 
          2.4918712742e-02 -7.3941378958e-05 0.0000000000e+00 
          2.3338076421e-02 -7.3152201972e-05 0.0000000000e+00 
          2.1837833870e-02 -7.2243271025e-05 0.0000000000e+00 
          2.0415921845e-02 -7.1504912983e-05 0.0000000000e+00 
          1.9070193589e-02 -7.0645818290e-05 0.0000000000e+00 
          1.7798425327e-02 -7.0373862182e-05 0.0000000000e+00 
          1.6598347756e-02 -7.0062460107e-05 0.0000000000e+00 
          1.5467653055e-02 -6.9465480787e-05 0.0000000000e+00 
          1.4404012610e-02 -6.9105198302e-05 0.0000000000e+00 
          1.3405095041e-02 -6.8126396843e-05 0.0000000000e+00 
          1.2468573096e-02 -6.6985560171e-05 0.0000000000e+00 
          1.1592143832e-02 -6.6155501869e-05 0.0000000000e+00 
          1.0773535612e-02 -6.5359634057e-05 0.0000000000e+00 
          1.0010520976e-02 -6.4585044221e-05 0.0000000000e+00 
          9.3009237497e-03 -6.3503894605e-05 0.0000000000e+00 
          8.6426348563e-03 -6.2879733020e-05 0.0000000000e+00 
          8.0336159072e-03 -6.1900005198e-05 0.0000000000e+00 
          7.4719088332e-03 -6.0837900807e-05 0.0000000000e+00 
          6.9556411353e-03 -6.0151199237e-05 0.0000000000e+00 
          6.4830366095e-03 -5.9626547417e-05 0.0000000000e+00 
          6.0524178226e-03 -5.8725425454e-05 0.0000000000e+00 
          5.6622125826e-03 -5.7797413691e-05 0.0000000000e+00 
          5.3109594044e-03 -5.7477071390e-05 0.0000000000e+00 
          4.9973095664e-03 -5.7341247589e-05 0.0000000000e+00 
          4.7200333762e-03 -5.6919541943e-05 0.0000000000e+00 
          4.4780219478e-03 -5.6225602583e-05 0.0000000000e+00 
          4.2702910376e-03 -5.6352139242e-05 0.0000000000e+00 
          4.0959822614e-03 -5.6154315255e-05 0.0000000000e+00 
          3.9543665582e-03 -5.5940883421e-05 0.0000000000e+00 
          3.8448448115e-03 -5.5934970671e-05 0.0000000000e+00 
          3.7669497242e-03 -5.5639261698e-05 0.0000000000e+00 
          3.7203465720e-03 -5.5622244001e-05 0.0000000000e+00 
        </DataArray>
        <DataArray type="Float64" Name="Displacement" NumberOfComponents="3" format="ascii">
          1.8068622791e-03 -1.3379914498e-04 0.0000000000e+00 
          1.8068622791e-03 -1.3379914498e-04 0.0000000000e+00 
          1.1768423499e-04 -1.5797423025e-04 0.0000000000e+00 
          1.1768423499e-04 -1.5797423025e-04 0.0000000000e+00 
          0.0000000000e+00 0.0000000000e+00 0.0000000000e+00 
          0.0000000000e+00 0.0000000000e+00 0.0000000000e+00 
          1.6828365424e-03 -1.3501308861e-04 0.0000000000e+00 
          1.5659756440e-03 -1.3619592702e-04 0.0000000000e+00 
          1.4559816143e-03 -1.3734831249e-04 0.0000000000e+00 
          1.3525597680e-03 -1.3847000113e-04 0.0000000000e+00 
          1.2554203344e-03 -1.3956011308e-04 0.0000000000e+00 
          1.1642785866e-03 -1.4061861825e-04 0.0000000000e+00 
          1.0788557385e-03 -1.4164612255e-04 0.0000000000e+00 
          9.9887905110e-04 -1.4264335872e-04 0.0000000000e+00 
          9.2408303397e-04 -1.4360808993e-04 0.0000000000e+00 
          8.5420944369e-04 -1.4454115763e-04 0.0000000000e+00 
          7.8900784634e-04 -1.4544354046e-04 0.0000000000e+00 
          7.2823562601e-04 -1.4631422129e-04 0.0000000000e+00 
          6.7165877489e-04 -1.4715381130e-04 0.0000000000e+00 
          6.1905177954e-04 -1.4796189219e-04 0.0000000000e+00 
          5.7019790102e-04 -1.4873775519e-04 0.0000000000e+00 
          5.2488937311e-04 -1.4948307448e-04 0.0000000000e+00 
          4.8292727473e-04 -1.5019746084e-04 0.0000000000e+00 
          4.4412195574e-04 -1.5087941410e-04 0.0000000000e+00 
          4.0829283736e-04 -1.5153058436e-04 0.0000000000e+00 
          3.7526852712e-04 -1.5215085028e-04 0.0000000000e+00 
          3.4488663893e-04 -1.5274020704e-04 0.0000000000e+00 
          3.1699401278e-04 -1.5329917452e-04 0.0000000000e+00 
          2.9144648605e-04 -1.5382717584e-04 0.0000000000e+00 
          2.6810890056e-04 -1.5432450893e-04 0.0000000000e+00 
          2.4685490296e-04 -1.5479104647e-04 0.0000000000e+00 
          2.2756703379e-04 -1.5522687690e-04 0.0000000000e+00 
          2.1013650608e-04 -1.5563107973e-04 0.0000000000e+00 
          1.9446313530e-04 -1.5600309331e-04 0.0000000000e+00 
          1.8045525092e-04 -1.5634319342e-04 0.0000000000e+00 
          1.6802952096e-04 -1.5665107262e-04 0.0000000000e+00 
          1.5711095939e-04 -1.5692761280e-04 0.0000000000e+00 
          1.4763275360e-04 -1.5717257148e-04 0.0000000000e+00 
          1.3953619990e-04 -1.5738551991e-04 0.0000000000e+00 
          1.3277057715e-04 -1.5756578910e-04 0.0000000000e+00 
          1.2729313328e-04 -1.5771285517e-04 0.0000000000e+00 
          1.2306897499e-04 -1.5782727155e-04 0.0000000000e+00 
          1.2007102611e-04 -1.5790829546e-04 0.0000000000e+00 
          1.1827996889e-04 -1.5795731131e-04 0.0000000000e+00 
          1.6828365424e-03 -1.3501308861e-04 0.0000000000e+00 
          1.5659756440e-03 -1.3619592702e-04 0.0000000000e+00 
          1.4559816143e-03 -1.3734831249e-04 0.0000000000e+00 
          1.3525597680e-03 -1.3847000113e-04 0.0000000000e+00 
          1.2554203344e-03 -1.3956011308e-04 0.0000000000e+00 
          1.1642785866e-03 -1.4061861825e-04 0.0000000000e+00 
          1.0788557385e-03 -1.4164612255e-04 0.0000000000e+00 
          9.9887905110e-04 -1.4264335872e-04 0.0000000000e+00 
          9.2408303397e-04 -1.4360808993e-04 0.0000000000e+00 
          8.5420944369e-04 -1.4454115763e-04 0.0000000000e+00 
          7.8900784634e-04 -1.4544354046e-04 0.0000000000e+00 
          7.2823562601e-04 -1.4631422129e-04 0.0000000000e+00 
          6.7165877489e-04 -1.4715381130e-04 0.0000000000e+00 
          6.1905177954e-04 -1.4796189219e-04 0.0000000000e+00 
          5.7019790102e-04 -1.4873775519e-04 0.0000000000e+00 
          5.2488937311e-04 -1.4948307448e-04 0.0000000000e+00 
          4.8292727473e-04 -1.5019746084e-04 0.0000000000e+00 
          4.4412195574e-04 -1.5087941410e-04 0.0000000000e+00 
          4.0829283736e-04 -1.5153058436e-04 0.0000000000e+00 
          3.7526852712e-04 -1.5215085028e-04 0.0000000000e+00 
          3.4488663893e-04 -1.5274020704e-04 0.0000000000e+00 
          3.1699401278e-04 -1.5329917452e-04 0.0000000000e+00 
          2.9144648605e-04 -1.5382717584e-04 0.0000000000e+00 
          2.6810890056e-04 -1.5432450893e-04 0.0000000000e+00 
          2.4685490296e-04 -1.5479104647e-04 0.0000000000e+00 
          2.2756703379e-04 -1.5522687690e-04 0.0000000000e+00 
          2.1013650608e-04 -1.5563107973e-04 0.0000000000e+00 
          1.9446313530e-04 -1.5600309331e-04 0.0000000000e+00 
          1.8045525092e-04 -1.5634319342e-04 0.0000000000e+00 
          1.6802952096e-04 -1.5665107262e-04 0.0000000000e+00 
          1.5711095939e-04 -1.5692761280e-04 0.0000000000e+00 
          1.4763275360e-04 -1.5717257148e-04 0.0000000000e+00 
          1.3953619990e-04 -1.5738551991e-04 0.0000000000e+00 
          1.3277057715e-04 -1.5756578910e-04 0.0000000000e+00 
          1.2729313328e-04 -1.5771285517e-04 0.0000000000e+00 
          1.2306897499e-04 -1.5782727155e-04 0.0000000000e+00 
          1.2007102611e-04 -1.5790829546e-04 0.0000000000e+00 
          1.1827996889e-04 -1.5795731131e-04 0.0000000000e+00 
        </DataArray>
        <DataArray type="Float64" Name="Acceleration" NumberOfComponents="3" format="ascii">
          6.7269128459e-01 3.5146670236e-05 0.0000000000e+00 
          6.7269128459e-01 3.5146670236e-05 0.0000000000e+00 
          1.0735360275e-01 5.1025678966e-04 0.0000000000e+00 
          1.0735360275e-01 5.1025678966e-04 0.0000000000e+00 
          0.0000000000e+00 0.0000000000e+00 0.0000000000e+00 
          0.0000000000e+00 0.0000000000e+00 0.0000000000e+00 
          6.4556608267e-01 1.7818757842e-05 0.0000000000e+00 
          6.1870594409e-01 -9.9990081486e-05 0.0000000000e+00 
          5.9217997991e-01 -5.5500676515e-05 0.0000000000e+00 
          5.6605778455e-01 1.0277985221e-04 0.0000000000e+00 
          5.4040334446e-01 1.0820067084e-04 0.0000000000e+00 
          5.1527447684e-01 -1.2216739467e-06 0.0000000000e+00 
          4.9072016398e-01 -1.3278316899e-04 0.0000000000e+00 
          4.6678862104e-01 2.7005833549e-04 0.0000000000e+00 
          4.4352037969e-01 1.1842557939e-04 0.0000000000e+00 
          4.2094842645e-01 -5.8138920986e-05 0.0000000000e+00 
          3.9910351319e-01 1.2557691707e-04 0.0000000000e+00 
          3.7801105081e-01 1.5223316471e-05 0.0000000000e+00 
          3.5769184527e-01 9.0604540043e-05 0.0000000000e+00 
          3.3816323753e-01 2.1832750633e-04 0.0000000000e+00 
          3.1943799193e-01 -8.3538983818e-05 0.0000000000e+00 
          3.0152541326e-01 -1.3050983021e-05 0.0000000000e+00 
          2.8443205654e-01 2.5710927294e-04 0.0000000000e+00 
          2.6816155220e-01 -4.0246459727e-05 0.0000000000e+00 
          2.5271504916e-01 -1.8521693603e-05 0.0000000000e+00 
          2.3809146764e-01 -1.7362916742e-05 0.0000000000e+00 
          2.2428742593e-01 -1.1119711937e-04 0.0000000000e+00 
          2.1129808908e-01 -7.2396016473e-06 0.0000000000e+00 
          1.9911746490e-01 -6.1039907242e-05 0.0000000000e+00 
          1.8773824040e-01 -3.7865299650e-05 0.0000000000e+00 
          1.7715205374e-01 -5.3921971783e-05 0.0000000000e+00 
          1.6735013402e-01 1.1195451398e-04 0.0000000000e+00 
          1.5832330856e-01 2.1316557434e-04 0.0000000000e+00 
          1.5006207134e-01 1.6339158994e-04 0.0000000000e+00 
          1.4255697062e-01 2.1895646747e-04 0.0000000000e+00 
          1.3579884827e-01 5.9949816545e-05 0.0000000000e+00 
          1.2977890134e-01 1.0364617020e-04 0.0000000000e+00 
          1.2448871318e-01 1.8086326945e-04 0.0000000000e+00 
          1.1992053394e-01 3.0151804447e-04 0.0000000000e+00 
          1.1606746021e-01 3.9586772851e-04 0.0000000000e+00 
          1.1292350642e-01 2.9613928929e-04 0.0000000000e+00 
          1.1048361049e-01 4.2997527546e-04 0.0000000000e+00 
          1.0874374336e-01 1.8053827923e-04 0.0000000000e+00 
          1.0770099120e-01 1.9652409833e-04 0.0000000000e+00 
          6.4556608267e-01 1.7818757842e-05 0.0000000000e+00 
          6.1870594409e-01 -9.9990081486e-05 0.0000000000e+00 
          5.9217997991e-01 -5.5500676515e-05 0.0000000000e+00 
          5.6605778455e-01 1.0277985221e-04 0.0000000000e+00 
          5.4040334446e-01 1.0820067084e-04 0.0000000000e+00 
          5.1527447684e-01 -1.2216739467e-06 0.0000000000e+00 
          4.9072016398e-01 -1.3278316899e-04 0.0000000000e+00 
          4.6678862104e-01 2.7005833549e-04 0.0000000000e+00 
          4.4352037969e-01 1.1842557939e-04 0.0000000000e+00 
          4.2094842645e-01 -5.8138920986e-05 0.0000000000e+00 
          3.9910351319e-01 1.2557691707e-04 0.0000000000e+00 
          3.7801105081e-01 1.5223316471e-05 0.0000000000e+00 
          3.5769184527e-01 9.0604540043e-05 0.0000000000e+00 
          3.3816323753e-01 2.1832750633e-04 0.0000000000e+00 
          3.1943799193e-01 -8.3538983818e-05 0.0000000000e+00 
          3.0152541326e-01 -1.3050983021e-05 0.0000000000e+00 
          2.8443205654e-01 2.5710927294e-04 0.0000000000e+00 
          2.6816155220e-01 -4.0246459727e-05 0.0000000000e+00 
          2.5271504916e-01 -1.8521693603e-05 0.0000000000e+00 
          2.3809146764e-01 -1.7362916742e-05 0.0000000000e+00 
          2.2428742593e-01 -1.1119711937e-04 0.0000000000e+00 
          2.1129808908e-01 -7.2396016473e-06 0.0000000000e+00 
          1.9911746490e-01 -6.1039907242e-05 0.0000000000e+00 
          1.8773824040e-01 -3.7865299650e-05 0.0000000000e+00 
          1.7715205374e-01 -5.3921971783e-05 0.0000000000e+00 
          1.6735013402e-01 1.1195451398e-04 0.0000000000e+00 
          1.5832330856e-01 2.1316557434e-04 0.0000000000e+00 
          1.5006207134e-01 1.6339158994e-04 0.0000000000e+00 
          1.4255697062e-01 2.1895646747e-04 0.0000000000e+00 
          1.3579884827e-01 5.9949816545e-05 0.0000000000e+00 
          1.2977890134e-01 1.0364617020e-04 0.0000000000e+00 
          1.2448871318e-01 1.8086326945e-04 0.0000000000e+00 
          1.1992053394e-01 3.0151804447e-04 0.0000000000e+00 
          1.1606746021e-01 3.9586772851e-04 0.0000000000e+00 
          1.1292350642e-01 2.9613928929e-04 0.0000000000e+00 
          1.1048361049e-01 4.2997527546e-04 0.0000000000e+00 
          1.0874374336e-01 1.8053827923e-04 0.0000000000e+00 
          1.0770099120e-01 1.9652409833e-04 0.0000000000e+00 
        </DataArray>
        <DataArray type="Float64" Name="Reaction" NumberOfComponents="3" format="ascii">
          0.0000000000e+00 0.0000000000e+00 0.0000000000e+00 
          0.0000000000e+00 0.0000000000e+00 0.0000000000e+00 
          0.0000000000e+00 0.0000000000e+00 0.0000000000e+00 
          0.0000000000e+00 0.0000000000e+00 0.0000000000e+00 
          0.0000000000e+00 0.0000000000e+00 0.0000000000e+00 
          0.0000000000e+00 0.0000000000e+00 0.0000000000e+00 
          0.0000000000e+00 0.0000000000e+00 0.0000000000e+00 
          0.0000000000e+00 0.0000000000e+00 0.0000000000e+00 
          0.0000000000e+00 0.0000000000e+00 0.0000000000e+00 
          0.0000000000e+00 0.0000000000e+00 0.0000000000e+00 
          0.0000000000e+00 0.0000000000e+00 0.0000000000e+00 
          0.0000000000e+00 0.0000000000e+00 0.0000000000e+00 
          0.0000000000e+00 0.0000000000e+00 0.0000000000e+00 
          0.0000000000e+00 0.0000000000e+00 0.0000000000e+00 
          0.0000000000e+00 0.0000000000e+00 0.0000000000e+00 
          0.0000000000e+00 0.0000000000e+00 0.0000000000e+00 
          0.0000000000e+00 0.0000000000e+00 0.0000000000e+00 
          0.0000000000e+00 0.0000000000e+00 0.0000000000e+00 
          0.0000000000e+00 0.0000000000e+00 0.0000000000e+00 
          0.0000000000e+00 0.0000000000e+00 0.0000000000e+00 
          0.0000000000e+00 0.0000000000e+00 0.0000000000e+00 
          0.0000000000e+00 0.0000000000e+00 0.0000000000e+00 
          0.0000000000e+00 0.0000000000e+00 0.0000000000e+00 
          0.0000000000e+00 0.0000000000e+00 0.0000000000e+00 
          0.0000000000e+00 0.0000000000e+00 0.0000000000e+00 
          0.0000000000e+00 0.0000000000e+00 0.0000000000e+00 
          0.0000000000e+00 0.0000000000e+00 0.0000000000e+00 
          0.0000000000e+00 0.0000000000e+00 0.0000000000e+00 
          0.0000000000e+00 0.0000000000e+00 0.0000000000e+00 
          0.0000000000e+00 0.0000000000e+00 0.0000000000e+00 
          0.0000000000e+00 0.0000000000e+00 0.0000000000e+00 
          0.0000000000e+00 0.0000000000e+00 0.0000000000e+00 
          0.0000000000e+00 0.0000000000e+00 0.0000000000e+00 
          0.0000000000e+00 0.0000000000e+00 0.0000000000e+00 
          0.0000000000e+00 0.0000000000e+00 0.0000000000e+00 
          0.0000000000e+00 0.0000000000e+00 0.0000000000e+00 
          0.0000000000e+00 0.0000000000e+00 0.0000000000e+00 
          0.0000000000e+00 0.0000000000e+00 0.0000000000e+00 
          0.0000000000e+00 0.0000000000e+00 0.0000000000e+00 
          0.0000000000e+00 0.0000000000e+00 0.0000000000e+00 
          0.0000000000e+00 0.0000000000e+00 0.0000000000e+00 
          0.0000000000e+00 0.0000000000e+00 0.0000000000e+00 
          0.0000000000e+00 0.0000000000e+00 0.0000000000e+00 
          0.0000000000e+00 0.0000000000e+00 0.0000000000e+00 
          0.0000000000e+00 0.0000000000e+00 0.0000000000e+00 
          0.0000000000e+00 0.0000000000e+00 0.0000000000e+00 
          0.0000000000e+00 0.0000000000e+00 0.0000000000e+00 
          0.0000000000e+00 0.0000000000e+00 0.0000000000e+00 
          0.0000000000e+00 0.0000000000e+00 0.0000000000e+00 
          0.0000000000e+00 0.0000000000e+00 0.0000000000e+00 
          0.0000000000e+00 0.0000000000e+00 0.0000000000e+00 
          0.0000000000e+00 0.0000000000e+00 0.0000000000e+00 
          0.0000000000e+00 0.0000000000e+00 0.0000000000e+00 
          0.0000000000e+00 0.0000000000e+00 0.0000000000e+00 
          0.0000000000e+00 0.0000000000e+00 0.0000000000e+00 
          0.0000000000e+00 0.0000000000e+00 0.0000000000e+00 
          0.0000000000e+00 0.0000000000e+00 0.0000000000e+00 
          0.0000000000e+00 0.0000000000e+00 0.0000000000e+00 
          0.0000000000e+00 0.0000000000e+00 0.0000000000e+00 
          0.0000000000e+00 0.0000000000e+00 0.0000000000e+00 
          0.0000000000e+00 0.0000000000e+00 0.0000000000e+00 
          0.0000000000e+00 0.0000000000e+00 0.0000000000e+00 
          0.0000000000e+00 0.0000000000e+00 0.0000000000e+00 
          0.0000000000e+00 0.0000000000e+00 0.0000000000e+00 
          0.0000000000e+00 0.0000000000e+00 0.0000000000e+00 
          0.0000000000e+00 0.0000000000e+00 0.0000000000e+00 
          0.0000000000e+00 0.0000000000e+00 0.0000000000e+00 
          0.0000000000e+00 0.0000000000e+00 0.0000000000e+00 
          0.0000000000e+00 0.0000000000e+00 0.0000000000e+00 
          0.0000000000e+00 0.0000000000e+00 0.0000000000e+00 
          0.0000000000e+00 0.0000000000e+00 0.0000000000e+00 
          0.0000000000e+00 0.0000000000e+00 0.0000000000e+00 
          0.0000000000e+00 0.0000000000e+00 0.0000000000e+00 
          0.0000000000e+00 0.0000000000e+00 0.0000000000e+00 
          0.0000000000e+00 0.0000000000e+00 0.0000000000e+00 
          0.0000000000e+00 0.0000000000e+00 0.0000000000e+00 
          0.0000000000e+00 0.0000000000e+00 0.0000000000e+00 
          0.0000000000e+00 0.0000000000e+00 0.0000000000e+00 
          0.0000000000e+00 0.0000000000e+00 0.0000000000e+00 
          0.0000000000e+00 0.0000000000e+00 0.0000000000e+00 
          0.0000000000e+00 0.0000000000e+00 0.0000000000e+00 
          0.0000000000e+00 0.0000000000e+00 0.0000000000e+00 
        </DataArray>
      </PointData>
      <CellData>
        <DataArray type="Int64" Name="ElementTag" format="ascii">
          0
        </DataArray>
      </CellData>
    </Piece>
  </UnstructuredGrid>
</VTKFile>
