<?xml version="1.0"?>
<VTKFile type="UnstructuredGrid" version="1.0" byte_order="LittleEndian" compressor="vtkZLibDataCompressor">
  <UnstructuredGrid>
    <Piece NumberOfPoints="82" NumberOfCells="1">
      <Points>
        <DataArray type="Float64" Name="Points" NumberOfComponents="3" format="ascii">
          0.0000000000e+00 0.0000000000e+00 0.0000000000e+00 
          2.5000000000e-01 0.0000000000e+00 0.0000000000e+00 
          2.5000000000e-01 3.0000000000e+01 0.0000000000e+00 
          0.0000000000e+00 3.0000000000e+01 0.0000000000e+00 
          0.0000000000e+00 -5.0000000000e+00 0.0000000000e+00 
          2.5000000000e-01 -5.0000000000e+00 0.0000000000e+00 
          2.5000000000e-01 7.6923100000e-01 0.0000000000e+00 
          2.5000000000e-01 1.5384620000e+00 0.0000000000e+00 
          2.5000000000e-01 2.3076920000e+00 0.0000000000e+00 
          2.5000000000e-01 3.0769230000e+00 0.0000000000e+00 
          2.5000000000e-01 3.8461540000e+00 0.0000000000e+00 
          2.5000000000e-01 4.6153850000e+00 0.0000000000e+00 
          2.5000000000e-01 5.3846150000e+00 0.0000000000e+00 
          2.5000000000e-01 6.1538460000e+00 0.0000000000e+00 
          2.5000000000e-01 6.9230770000e+00 0.0000000000e+00 
          2.5000000000e-01 7.6923080000e+00 0.0000000000e+00 
          2.5000000000e-01 8.4615380000e+00 0.0000000000e+00 
          2.5000000000e-01 9.2307690000e+00 0.0000000000e+00 
          2.5000000000e-01 1.0000000000e+01 0.0000000000e+00 
          2.5000000000e-01 1.0769231000e+01 0.0000000000e+00 
          2.5000000000e-01 1.1538462000e+01 0.0000000000e+00 
          2.5000000000e-01 1.2307692000e+01 0.0000000000e+00 
          2.5000000000e-01 1.3076923000e+01 0.0000000000e+00 
          2.5000000000e-01 1.3846154000e+01 0.0000000000e+00 
          2.5000000000e-01 1.4615385000e+01 0.0000000000e+00 
          2.5000000000e-01 1.5384615000e+01 0.0000000000e+00 
          2.5000000000e-01 1.6153846000e+01 0.0000000000e+00 
          2.5000000000e-01 1.6923077000e+01 0.0000000000e+00 
          2.5000000000e-01 1.7692308000e+01 0.0000000000e+00 
          2.5000000000e-01 1.8461538000e+01 0.0000000000e+00 
          2.5000000000e-01 1.9230769000e+01 0.0000000000e+00 
          2.5000000000e-01 2.0000000000e+01 0.0000000000e+00 
          2.5000000000e-01 2.0769231000e+01 0.0000000000e+00 
          2.5000000000e-01 2.1538462000e+01 0.0000000000e+00 
          2.5000000000e-01 2.2307692000e+01 0.0000000000e+00 
          2.5000000000e-01 2.3076923000e+01 0.0000000000e+00 
          2.5000000000e-01 2.3846154000e+01 0.0000000000e+00 
          2.5000000000e-01 2.4615385000e+01 0.0000000000e+00 
          2.5000000000e-01 2.5384615000e+01 0.0000000000e+00 
          2.5000000000e-01 2.6153846000e+01 0.0000000000e+00 
          2.5000000000e-01 2.6923077000e+01 0.0000000000e+00 
          2.5000000000e-01 2.7692308000e+01 0.0000000000e+00 
          2.5000000000e-01 2.8461538000e+01 0.0000000000e+00 
          2.5000000000e-01 2.9230769000e+01 0.0000000000e+00 
          0.0000000000e+00 7.6923100000e-01 0.0000000000e+00 
          0.0000000000e+00 1.5384620000e+00 0.0000000000e+00 
          0.0000000000e+00 2.3076920000e+00 0.0000000000e+00 
          0.0000000000e+00 3.0769230000e+00 0.0000000000e+00 
          0.0000000000e+00 3.8461540000e+00 0.0000000000e+00 
          0.0000000000e+00 4.6153850000e+00 0.0000000000e+00 
          0.0000000000e+00 5.3846150000e+00 0.0000000000e+00 
          0.0000000000e+00 6.1538460000e+00 0.0000000000e+00 
          0.0000000000e+00 6.9230770000e+00 0.0000000000e+00 
          0.0000000000e+00 7.6923080000e+00 0.0000000000e+00 
          0.0000000000e+00 8.4615380000e+00 0.0000000000e+00 
          0.0000000000e+00 9.2307690000e+00 0.0000000000e+00 
          0.0000000000e+00 1.0000000000e+01 0.0000000000e+00 
          0.0000000000e+00 1.0769231000e+01 0.0000000000e+00 
          0.0000000000e+00 1.1538462000e+01 0.0000000000e+00 
          0.0000000000e+00 1.2307692000e+01 0.0000000000e+00 
          0.0000000000e+00 1.3076923000e+01 0.0000000000e+00 
          0.0000000000e+00 1.3846154000e+01 0.0000000000e+00 
          0.0000000000e+00 1.4615385000e+01 0.0000000000e+00 
          0.0000000000e+00 1.5384615000e+01 0.0000000000e+00 
          0.0000000000e+00 1.6153846000e+01 0.0000000000e+00 
          0.0000000000e+00 1.6923077000e+01 0.0000000000e+00 
          0.0000000000e+00 1.7692308000e+01 0.0000000000e+00 
          0.0000000000e+00 1.8461538000e+01 0.0000000000e+00 
          0.0000000000e+00 1.9230769000e+01 0.0000000000e+00 
          0.0000000000e+00 2.0000000000e+01 0.0000000000e+00 
          0.0000000000e+00 2.0769231000e+01 0.0000000000e+00 
          0.0000000000e+00 2.1538462000e+01 0.0000000000e+00 
          0.0000000000e+00 2.2307692000e+01 0.0000000000e+00 
          0.0000000000e+00 2.3076923000e+01 0.0000000000e+00 
          0.0000000000e+00 2.3846154000e+01 0.0000000000e+00 
          0.0000000000e+00 2.4615385000e+01 0.0000000000e+00 
          0.0000000000e+00 2.5384615000e+01 0.0000000000e+00 
          0.0000000000e+00 2.6153846000e+01 0.0000000000e+00 
          0.0000000000e+00 2.6923077000e+01 0.0000000000e+00 
          0.0000000000e+00 2.7692308000e+01 0.0000000000e+00 
          0.0000000000e+00 2.8461538000e+01 0.0000000000e+00 
          0.0000000000e+00 2.9230769000e+01 0.0000000000e+00 
        </DataArray>
      </Points>
      <Cells>
        <DataArray type="Int64" Name="connectivity" format="ascii">
          0
          1
          2
          3
          4
          5
          6
          7
          8
          9
          10
          11
          12
          13
          14
          15
          16
          17
          18
          19
          20
          21
          22
          23
          24
          25
          26
          27
          28
          29
          30
          31
          32
          33
          34
          35
          36
          37
          38
          39
          40
          41
          42
          43
          44
          45
          46
          47
          48
          49
          50
          51
          52
          53
          54
          55
          56
          57
          58
          59
          60
          61
          62
          63
          64
          65
          66
          67
          68
          69
          70
          71
          72
          73
          74
          75
          76
          77
          78
          79
          80
          81
        </DataArray>
        <DataArray type="Int64" Name="offsets" format="ascii">
          82
        </DataArray>
        <DataArray type="Int64" Name="types" format="ascii">
          2
        </DataArray>
      </Cells>
      <PointData>
        <DataArray type="Int64" Name="NodeTag" format="ascii">
          1
          2
          3
          4
          5
          6
          7
          8
          9
          10
          11
          12
          13
          14
          15
          16
          17
          18
          19
          20
          21
          22
          23
          24
          25
          26
          27
          28
          29
          30
          31
          32
          33
          34
          35
          36
          37
          38
          39
          40
          41
          42
          43
          44
          45
          46
          47
          48
          49
          50
          51
          52
          53
          54
          55
          56
          57
          58
          59
          60
          61
          62
          63
          64
          65
          66
          67
          68
          69
          70
          71
          72
          73
          74
          75
          76
          77
          78
          79
          80
          81
          82
        </DataArray>
        <DataArray type="Float64" Name="Velocity" NumberOfComponents="3" format="ascii">
          6.5294200420e-05 -7.7843223240e-05 0.0000000000e+00 
          6.5294200420e-05 -7.7843223240e-05 0.0000000000e+00 
          -2.4596074823e-04 -7.7818732739e-05 0.0000000000e+00 
          -2.4596074823e-04 -7.7818732739e-05 0.0000000000e+00 
          0.0000000000e+00 0.0000000000e+00 0.0000000000e+00 
          0.0000000000e+00 0.0000000000e+00 0.0000000000e+00 
          5.3569723688e-05 -7.7833584451e-05 0.0000000000e+00 
          4.1790689440e-05 -7.7861569661e-05 0.0000000000e+00 
          2.9963096749e-05 -7.7829592189e-05 0.0000000000e+00 
          1.8129772365e-05 -7.7845343223e-05 0.0000000000e+00 
          6.2976833253e-06 -7.7866238905e-05 0.0000000000e+00 
          -5.5065046140e-06 -7.7812137949e-05 0.0000000000e+00 
          -1.7249848487e-05 -7.7859571529e-05 0.0000000000e+00 
          -2.8931943373e-05 -7.7856694133e-05 0.0000000000e+00 
          -4.0504740168e-05 -7.7819722433e-05 0.0000000000e+00 
          -5.1967425970e-05 -7.7849174221e-05 0.0000000000e+00 
          -6.3285517440e-05 -7.7866332746e-05 0.0000000000e+00 
          -7.4438926603e-05 -7.7809253980e-05 0.0000000000e+00 
          -8.5412140391e-05 -7.7860284737e-05 0.0000000000e+00 
          -9.6175990414e-05 -7.7853475976e-05 0.0000000000e+00 
          -1.0671447382e-04 -7.7807044614e-05 0.0000000000e+00 
          -1.1700230991e-04 -7.7888844083e-05 0.0000000000e+00 
          -1.2702860969e-04 -7.7801358716e-05 0.0000000000e+00 
          -1.3675563407e-04 -7.7869712553e-05 0.0000000000e+00 
          -1.4618656378e-04 -7.7823364405e-05 0.0000000000e+00 
          -1.5528409683e-04 -7.7857215982e-05 0.0000000000e+00 
          -1.6403389625e-04 -7.7828478137e-05 0.0000000000e+00 
          -1.7243053198e-04 -7.7844392865e-05 0.0000000000e+00 
          -1.8043517748e-04 -7.7855336970e-05 0.0000000000e+00 
          -1.8805105923e-04 -7.7806887243e-05 0.0000000000e+00 
          -1.9525182142e-04 -7.7891885842e-05 0.0000000000e+00 
          -2.0202117117e-04 -7.7788622584e-05 0.0000000000e+00 
          -2.0835715294e-04 -7.7876180817e-05 0.0000000000e+00 
          -2.1422739509e-04 -7.7833637778e-05 0.0000000000e+00 
          -2.1963825811e-04 -7.7822817283e-05 0.0000000000e+00 
          -2.2456637114e-04 -7.7875110212e-05 0.0000000000e+00 
          -2.2900170706e-04 -7.7802275061e-05 0.0000000000e+00 
          -2.3294664348e-04 -7.7869632481e-05 0.0000000000e+00 
          -2.3637270391e-04 -7.7835091641e-05 0.0000000000e+00 
          -2.3929111873e-04 -7.7823744883e-05 0.0000000000e+00 
          -2.4168683119e-04 -7.7860796381e-05 0.0000000000e+00 
          -2.4355258850e-04 -7.7835785385e-05 0.0000000000e+00 
          -2.4489072706e-04 -7.7827259036e-05 0.0000000000e+00 
          -2.4569531863e-04 -7.7861846971e-05 0.0000000000e+00 
          5.3569723688e-05 -7.7833584451e-05 0.0000000000e+00 
          4.1790689440e-05 -7.7861569661e-05 0.0000000000e+00 
          2.9963096749e-05 -7.7829592189e-05 0.0000000000e+00 
          1.8129772365e-05 -7.7845343223e-05 0.0000000000e+00 
          6.2976833253e-06 -7.7866238905e-05 0.0000000000e+00 
          -5.5065046140e-06 -7.7812137949e-05 0.0000000000e+00 
          -1.7249848487e-05 -7.7859571529e-05 0.0000000000e+00 
          -2.8931943373e-05 -7.7856694133e-05 0.0000000000e+00 
          -4.0504740168e-05 -7.7819722433e-05 0.0000000000e+00 
          -5.1967425970e-05 -7.7849174221e-05 0.0000000000e+00 
          -6.3285517440e-05 -7.7866332746e-05 0.0000000000e+00 
          -7.4438926603e-05 -7.7809253980e-05 0.0000000000e+00 
          -8.5412140391e-05 -7.7860284737e-05 0.0000000000e+00 
          -9.6175990414e-05 -7.7853475976e-05 0.0000000000e+00 
          -1.0671447382e-04 -7.7807044614e-05 0.0000000000e+00 
          -1.1700230991e-04 -7.7888844083e-05 0.0000000000e+00 
          -1.2702860969e-04 -7.7801358716e-05 0.0000000000e+00 
          -1.3675563407e-04 -7.7869712553e-05 0.0000000000e+00 
          -1.4618656378e-04 -7.7823364405e-05 0.0000000000e+00 
          -1.5528409683e-04 -7.7857215982e-05 0.0000000000e+00 
          -1.6403389625e-04 -7.7828478137e-05 0.0000000000e+00 
          -1.7243053198e-04 -7.7844392865e-05 0.0000000000e+00 
          -1.8043517748e-04 -7.7855336970e-05 0.0000000000e+00 
          -1.8805105923e-04 -7.7806887243e-05 0.0000000000e+00 
          -1.9525182142e-04 -7.7891885842e-05 0.0000000000e+00 
          -2.0202117117e-04 -7.7788622584e-05 0.0000000000e+00 
          -2.0835715294e-04 -7.7876180817e-05 0.0000000000e+00 
          -2.1422739509e-04 -7.7833637778e-05 0.0000000000e+00 
          -2.1963825811e-04 -7.7822817283e-05 0.0000000000e+00 
          -2.2456637114e-04 -7.7875110212e-05 0.0000000000e+00 
          -2.2900170706e-04 -7.7802275061e-05 0.0000000000e+00 
          -2.3294664348e-04 -7.7869632481e-05 0.0000000000e+00 
          -2.3637270391e-04 -7.7835091641e-05 0.0000000000e+00 
          -2.3929111873e-04 -7.7823744883e-05 0.0000000000e+00 
          -2.4168683119e-04 -7.7860796381e-05 0.0000000000e+00 
          -2.4355258850e-04 -7.7835785385e-05 0.0000000000e+00 
          -2.4489072706e-04 -7.7827259036e-05 0.0000000000e+00 
          -2.4569531863e-04 -7.7861846971e-05 0.0000000000e+00 
        </DataArray>
        <DataArray type="Float64" Name="Displacement" NumberOfComponents="3" format="ascii">
          3.3920270430e-06 -5.3374591905e-04 0.0000000000e+00 
          3.3920270430e-06 -5.3374591905e-04 0.0000000000e+00 
          2.8533327517e-05 -5.5732629145e-04 0.0000000000e+00 
          2.8533327517e-05 -5.5732629145e-04 0.0000000000e+00 
          0.0000000000e+00 0.0000000000e+00 0.0000000000e+00 
          0.0000000000e+00 0.0000000000e+00 0.0000000000e+00 
          4.4724436239e-06 -5.3493964107e-04 0.0000000000e+00 
          5.5437035795e-06 -5.3610245390e-04 0.0000000000e+00 
          6.6043914027e-06 -5.3723406827e-04 0.0000000000e+00 
          7.6532351346e-06 -5.3833495774e-04 0.0000000000e+00 
          8.6888687879e-06 -5.3940452584e-04 0.0000000000e+00 
          9.7100053823e-06 -5.4044333532e-04 0.0000000000e+00 
          1.0715389144e-05 -5.4145102428e-04 0.0000000000e+00 
          1.1703726612e-05 -5.4242769451e-04 0.0000000000e+00 
          1.2673835243e-05 -5.4337345481e-04 0.0000000000e+00 
          1.3624487548e-05 -5.4428808087e-04 0.0000000000e+00 
          1.4554505536e-05 -5.4517179826e-04 0.0000000000e+00 
          1.5462762699e-05 -5.4602449495e-04 0.0000000000e+00 
          1.6348136611e-05 -5.4684611002e-04 0.0000000000e+00 
          1.7209539761e-05 -5.4763683523e-04 0.0000000000e+00 
          1.8045921378e-05 -5.4839647682e-04 0.0000000000e+00 
          1.8856273239e-05 -5.4912506970e-04 0.0000000000e+00 
          1.9639594897e-05 -5.4982284672e-04 0.0000000000e+00 
          2.0394956430e-05 -5.5048933377e-04 0.0000000000e+00 
          2.1121442028e-05 -5.5112509755e-04 0.0000000000e+00 
          2.1818152834e-05 -5.5172962969e-04 0.0000000000e+00 
          2.2484296015e-05 -5.5230331173e-04 0.0000000000e+00 
          2.3119034952e-05 -5.5284591769e-04 0.0000000000e+00 
          2.3721629224e-05 -5.5335746031e-04 0.0000000000e+00 
          2.4291361634e-05 -5.5383817544e-04 0.0000000000e+00 
          2.4827538699e-05 -5.5428768472e-04 0.0000000000e+00 
          2.5329546701e-05 -5.5470628268e-04 0.0000000000e+00 
          2.5796775412e-05 -5.5509391301e-04 0.0000000000e+00 
          2.6228669256e-05 -5.5545044902e-04 0.0000000000e+00 
          2.6624735641e-05 -5.5577601430e-04 0.0000000000e+00 
          2.6984490196e-05 -5.5607061205e-04 0.0000000000e+00 
          2.7307519179e-05 -5.5633414692e-04 0.0000000000e+00 
          2.7593445799e-05 -5.5656666809e-04 0.0000000000e+00 
          2.7841918095e-05 -5.5676829498e-04 0.0000000000e+00 
          2.8052673672e-05 -5.5693872831e-04 0.0000000000e+00 
          2.8225429374e-05 -5.5707831528e-04 0.0000000000e+00 
          2.8360017830e-05 -5.5718687010e-04 0.0000000000e+00 
          2.8456263604e-05 -5.5726427663e-04 0.0000000000e+00 
          2.8514045955e-05 -5.5731092796e-04 0.0000000000e+00 
          4.4724436239e-06 -5.3493964107e-04 0.0000000000e+00 
          5.5437035795e-06 -5.3610245390e-04 0.0000000000e+00 
          6.6043914027e-06 -5.3723406827e-04 0.0000000000e+00 
          7.6532351346e-06 -5.3833495774e-04 0.0000000000e+00 
          8.6888687879e-06 -5.3940452584e-04 0.0000000000e+00 
          9.7100053823e-06 -5.4044333532e-04 0.0000000000e+00 
          1.0715389144e-05 -5.4145102428e-04 0.0000000000e+00 
          1.1703726612e-05 -5.4242769451e-04 0.0000000000e+00 
          1.2673835243e-05 -5.4337345481e-04 0.0000000000e+00 
          1.3624487548e-05 -5.4428808087e-04 0.0000000000e+00 
          1.4554505536e-05 -5.4517179826e-04 0.0000000000e+00 
          1.5462762699e-05 -5.4602449495e-04 0.0000000000e+00 
          1.6348136611e-05 -5.4684611002e-04 0.0000000000e+00 
          1.7209539761e-05 -5.4763683523e-04 0.0000000000e+00 
          1.8045921378e-05 -5.4839647682e-04 0.0000000000e+00 
          1.8856273239e-05 -5.4912506970e-04 0.0000000000e+00 
          1.9639594897e-05 -5.4982284672e-04 0.0000000000e+00 
          2.0394956430e-05 -5.5048933377e-04 0.0000000000e+00 
          2.1121442028e-05 -5.5112509755e-04 0.0000000000e+00 
          2.1818152834e-05 -5.5172962969e-04 0.0000000000e+00 
          2.2484296015e-05 -5.5230331173e-04 0.0000000000e+00 
          2.3119034952e-05 -5.5284591769e-04 0.0000000000e+00 
          2.3721629224e-05 -5.5335746031e-04 0.0000000000e+00 
          2.4291361634e-05 -5.5383817544e-04 0.0000000000e+00 
          2.4827538699e-05 -5.5428768472e-04 0.0000000000e+00 
          2.5329546701e-05 -5.5470628268e-04 0.0000000000e+00 
          2.5796775412e-05 -5.5509391301e-04 0.0000000000e+00 
          2.6228669256e-05 -5.5545044902e-04 0.0000000000e+00 
          2.6624735641e-05 -5.5577601430e-04 0.0000000000e+00 
          2.6984490196e-05 -5.5607061205e-04 0.0000000000e+00 
          2.7307519179e-05 -5.5633414692e-04 0.0000000000e+00 
          2.7593445799e-05 -5.5656666809e-04 0.0000000000e+00 
          2.7841918095e-05 -5.5676829498e-04 0.0000000000e+00 
          2.8052673672e-05 -5.5693872831e-04 0.0000000000e+00 
          2.8225429374e-05 -5.5707831528e-04 0.0000000000e+00 
          2.8360017830e-05 -5.5718687010e-04 0.0000000000e+00 
          2.8456263604e-05 -5.5726427663e-04 0.0000000000e+00 
          2.8514045955e-05 -5.5731092796e-04 0.0000000000e+00 
        </DataArray>
        <DataArray type="Float64" Name="Acceleration" NumberOfComponents="3" format="ascii">
          -7.0354673475e-04 8.1495563409e-07 0.0000000000e+00 
          -7.0354673475e-04 8.1495563409e-07 0.0000000000e+00 
          -3.4746136448e-03 -5.0342747839e-05 0.0000000000e+00 
          -3.4746136448e-03 -5.0342747839e-05 0.0000000000e+00 
          0.0000000000e+00 0.0000000000e+00 0.0000000000e+00 
          0.0000000000e+00 0.0000000000e+00 0.0000000000e+00 
          -8.2503001304e-04 -1.7505450080e-05 0.0000000000e+00 
          -9.5244638936e-04 3.4359123360e-05 0.0000000000e+00 
          -1.0673009442e-03 -5.0446972135e-05 0.0000000000e+00 
          -1.1902541765e-03 5.6769530665e-05 0.0000000000e+00 
          -1.3062136334e-03 -4.4638199792e-05 0.0000000000e+00 
          -1.4192445123e-03 2.0342831043e-05 0.0000000000e+00 
          -1.5360234887e-03 2.4721779044e-06 0.0000000000e+00 
          -1.6424541475e-03 -1.7372514887e-05 0.0000000000e+00 
          -1.7530534638e-03 2.3049188005e-05 0.0000000000e+00 
          -1.8590849217e-03 -1.7802470841e-05 0.0000000000e+00 
          -1.9608036289e-03 2.7981877365e-06 0.0000000000e+00 
          -2.0618260112e-03 1.3565740736e-05 0.0000000000e+00 
          -2.1598129846e-03 -2.0989040387e-05 0.0000000000e+00 
          -2.2544896167e-03 1.3926322261e-05 0.0000000000e+00 
          -2.3452389870e-03 7.4681339519e-06 0.0000000000e+00 
          -2.4355711173e-03 -3.4148954627e-05 0.0000000000e+00 
          -2.5192625506e-03 5.1110222907e-05 0.0000000000e+00 
          -2.6017787600e-03 -5.1009213769e-05 0.0000000000e+00 
          -2.6826876393e-03 4.0463474142e-05 0.0000000000e+00 
          -2.7542868519e-03 -2.8010284698e-05 0.0000000000e+00 
          -2.8295843635e-03 1.2569330546e-05 0.0000000000e+00 
          -2.8962977983e-03 1.0269898003e-05 0.0000000000e+00 
          -2.9608538679e-03 -3.2335854405e-05 0.0000000000e+00 
          -3.0234715149e-03 3.6068268918e-05 0.0000000000e+00 
          -3.0787001004e-03 -1.7123038865e-05 0.0000000000e+00 
          -3.1336827763e-03 -6.9737063969e-06 0.0000000000e+00 
          -3.1837413408e-03 1.5854477817e-05 0.0000000000e+00 
          -3.2280804992e-03 -6.4898875559e-06 0.0000000000e+00 
          -3.2718160122e-03 -6.9118330085e-06 0.0000000000e+00 
          -3.3090466906e-03 1.0187012195e-05 0.0000000000e+00 
          -3.3429961367e-03 1.3279096368e-06 0.0000000000e+00 
          -3.3746816106e-03 -2.0236266318e-05 0.0000000000e+00 
          -3.3983821958e-03 3.3790361723e-05 0.0000000000e+00 
          -3.4238638646e-03 -2.8831267696e-05 0.0000000000e+00 
          -3.4389441672e-03 4.6535730509e-06 0.0000000000e+00 
          -3.4547423351e-03 2.5565965678e-05 0.0000000000e+00 
          -3.4656438743e-03 -4.5234871672e-05 0.0000000000e+00 
          -3.4689971455e-03 5.0728974933e-05 0.0000000000e+00 
          -8.2503001304e-04 -1.7505450080e-05 0.0000000000e+00 
          -9.5244638936e-04 3.4359123360e-05 0.0000000000e+00 
          -1.0673009442e-03 -5.0446972135e-05 0.0000000000e+00 
          -1.1902541765e-03 5.6769530665e-05 0.0000000000e+00 
          -1.3062136334e-03 -4.4638199792e-05 0.0000000000e+00 
          -1.4192445123e-03 2.0342831043e-05 0.0000000000e+00 
          -1.5360234887e-03 2.4721779044e-06 0.0000000000e+00 
          -1.6424541475e-03 -1.7372514887e-05 0.0000000000e+00 
          -1.7530534638e-03 2.3049188005e-05 0.0000000000e+00 
          -1.8590849217e-03 -1.7802470841e-05 0.0000000000e+00 
          -1.9608036289e-03 2.7981877365e-06 0.0000000000e+00 
          -2.0618260112e-03 1.3565740736e-05 0.0000000000e+00 
          -2.1598129846e-03 -2.0989040387e-05 0.0000000000e+00 
          -2.2544896167e-03 1.3926322261e-05 0.0000000000e+00 
          -2.3452389870e-03 7.4681339519e-06 0.0000000000e+00 
          -2.4355711173e-03 -3.4148954627e-05 0.0000000000e+00 
          -2.5192625506e-03 5.1110222907e-05 0.0000000000e+00 
          -2.6017787600e-03 -5.1009213769e-05 0.0000000000e+00 
          -2.6826876393e-03 4.0463474142e-05 0.0000000000e+00 
          -2.7542868519e-03 -2.8010284698e-05 0.0000000000e+00 
          -2.8295843635e-03 1.2569330546e-05 0.0000000000e+00 
          -2.8962977983e-03 1.0269898003e-05 0.0000000000e+00 
          -2.9608538679e-03 -3.2335854405e-05 0.0000000000e+00 
          -3.0234715149e-03 3.6068268918e-05 0.0000000000e+00 
          -3.0787001004e-03 -1.7123038865e-05 0.0000000000e+00 
          -3.1336827763e-03 -6.9737063969e-06 0.0000000000e+00 
          -3.1837413408e-03 1.5854477817e-05 0.0000000000e+00 
          -3.2280804992e-03 -6.4898875559e-06 0.0000000000e+00 
          -3.2718160122e-03 -6.9118330085e-06 0.0000000000e+00 
          -3.3090466906e-03 1.0187012195e-05 0.0000000000e+00 
          -3.3429961367e-03 1.3279096368e-06 0.0000000000e+00 
          -3.3746816106e-03 -2.0236266318e-05 0.0000000000e+00 
          -3.3983821958e-03 3.3790361723e-05 0.0000000000e+00 
          -3.4238638646e-03 -2.8831267696e-05 0.0000000000e+00 
          -3.4389441672e-03 4.6535730509e-06 0.0000000000e+00 
          -3.4547423351e-03 2.5565965678e-05 0.0000000000e+00 
          -3.4656438743e-03 -4.5234871672e-05 0.0000000000e+00 
          -3.4689971455e-03 5.0728974933e-05 0.0000000000e+00 
        </DataArray>
        <DataArray type="Float64" Name="Reaction" NumberOfComponents="3" format="ascii">
          0.0000000000e+00 0.0000000000e+00 0.0000000000e+00 
          0.0000000000e+00 0.0000000000e+00 0.0000000000e+00 
          0.0000000000e+00 0.0000000000e+00 0.0000000000e+00 
          0.0000000000e+00 0.0000000000e+00 0.0000000000e+00 
          0.0000000000e+00 0.0000000000e+00 0.0000000000e+00 
          0.0000000000e+00 0.0000000000e+00 0.0000000000e+00 
          0.0000000000e+00 0.0000000000e+00 0.0000000000e+00 
          0.0000000000e+00 0.0000000000e+00 0.0000000000e+00 
          0.0000000000e+00 0.0000000000e+00 0.0000000000e+00 
          0.0000000000e+00 0.0000000000e+00 0.0000000000e+00 
          0.0000000000e+00 0.0000000000e+00 0.0000000000e+00 
          0.0000000000e+00 0.0000000000e+00 0.0000000000e+00 
          0.0000000000e+00 0.0000000000e+00 0.0000000000e+00 
          0.0000000000e+00 0.0000000000e+00 0.0000000000e+00 
          0.0000000000e+00 0.0000000000e+00 0.0000000000e+00 
          0.0000000000e+00 0.0000000000e+00 0.0000000000e+00 
          0.0000000000e+00 0.0000000000e+00 0.0000000000e+00 
          0.0000000000e+00 0.0000000000e+00 0.0000000000e+00 
          0.0000000000e+00 0.0000000000e+00 0.0000000000e+00 
          0.0000000000e+00 0.0000000000e+00 0.0000000000e+00 
          0.0000000000e+00 0.0000000000e+00 0.0000000000e+00 
          0.0000000000e+00 0.0000000000e+00 0.0000000000e+00 
          0.0000000000e+00 0.0000000000e+00 0.0000000000e+00 
          0.0000000000e+00 0.0000000000e+00 0.0000000000e+00 
          0.0000000000e+00 0.0000000000e+00 0.0000000000e+00 
          0.0000000000e+00 0.0000000000e+00 0.0000000000e+00 
          0.0000000000e+00 0.0000000000e+00 0.0000000000e+00 
          0.0000000000e+00 0.0000000000e+00 0.0000000000e+00 
          0.0000000000e+00 0.0000000000e+00 0.0000000000e+00 
          0.0000000000e+00 0.0000000000e+00 0.0000000000e+00 
          0.0000000000e+00 0.0000000000e+00 0.0000000000e+00 
          0.0000000000e+00 0.0000000000e+00 0.0000000000e+00 
          0.0000000000e+00 0.0000000000e+00 0.0000000000e+00 
          0.0000000000e+00 0.0000000000e+00 0.0000000000e+00 
          0.0000000000e+00 0.0000000000e+00 0.0000000000e+00 
          0.0000000000e+00 0.0000000000e+00 0.0000000000e+00 
          0.0000000000e+00 0.0000000000e+00 0.0000000000e+00 
          0.0000000000e+00 0.0000000000e+00 0.0000000000e+00 
          0.0000000000e+00 0.0000000000e+00 0.0000000000e+00 
          0.0000000000e+00 0.0000000000e+00 0.0000000000e+00 
          0.0000000000e+00 0.0000000000e+00 0.0000000000e+00 
          0.0000000000e+00 0.0000000000e+00 0.0000000000e+00 
          0.0000000000e+00 0.0000000000e+00 0.0000000000e+00 
          0.0000000000e+00 0.0000000000e+00 0.0000000000e+00 
          0.0000000000e+00 0.0000000000e+00 0.0000000000e+00 
          0.0000000000e+00 0.0000000000e+00 0.0000000000e+00 
          0.0000000000e+00 0.0000000000e+00 0.0000000000e+00 
          0.0000000000e+00 0.0000000000e+00 0.0000000000e+00 
          0.0000000000e+00 0.0000000000e+00 0.0000000000e+00 
          0.0000000000e+00 0.0000000000e+00 0.0000000000e+00 
          0.0000000000e+00 0.0000000000e+00 0.0000000000e+00 
          0.0000000000e+00 0.0000000000e+00 0.0000000000e+00 
          0.0000000000e+00 0.0000000000e+00 0.0000000000e+00 
          0.0000000000e+00 0.0000000000e+00 0.0000000000e+00 
          0.0000000000e+00 0.0000000000e+00 0.0000000000e+00 
          0.0000000000e+00 0.0000000000e+00 0.0000000000e+00 
          0.0000000000e+00 0.0000000000e+00 0.0000000000e+00 
          0.0000000000e+00 0.0000000000e+00 0.0000000000e+00 
          0.0000000000e+00 0.0000000000e+00 0.0000000000e+00 
          0.0000000000e+00 0.0000000000e+00 0.0000000000e+00 
          0.0000000000e+00 0.0000000000e+00 0.0000000000e+00 
          0.0000000000e+00 0.0000000000e+00 0.0000000000e+00 
          0.0000000000e+00 0.0000000000e+00 0.0000000000e+00 
          0.0000000000e+00 0.0000000000e+00 0.0000000000e+00 
          0.0000000000e+00 0.0000000000e+00 0.0000000000e+00 
          0.0000000000e+00 0.0000000000e+00 0.0000000000e+00 
          0.0000000000e+00 0.0000000000e+00 0.0000000000e+00 
          0.0000000000e+00 0.0000000000e+00 0.0000000000e+00 
          0.0000000000e+00 0.0000000000e+00 0.0000000000e+00 
          0.0000000000e+00 0.0000000000e+00 0.0000000000e+00 
          0.0000000000e+00 0.0000000000e+00 0.0000000000e+00 
          0.0000000000e+00 0.0000000000e+00 0.0000000000e+00 
          0.0000000000e+00 0.0000000000e+00 0.0000000000e+00 
          0.0000000000e+00 0.0000000000e+00 0.0000000000e+00 
          0.0000000000e+00 0.0000000000e+00 0.0000000000e+00 
          0.0000000000e+00 0.0000000000e+00 0.0000000000e+00 
          0.0000000000e+00 0.0000000000e+00 0.0000000000e+00 
          0.0000000000e+00 0.0000000000e+00 0.0000000000e+00 
          0.0000000000e+00 0.0000000000e+00 0.0000000000e+00 
          0.0000000000e+00 0.0000000000e+00 0.0000000000e+00 
          0.0000000000e+00 0.0000000000e+00 0.0000000000e+00 
          0.0000000000e+00 0.0000000000e+00 0.0000000000e+00 
        </DataArray>
      </PointData>
      <CellData>
        <DataArray type="Int64" Name="ElementTag" format="ascii">
          0
        </DataArray>
      </CellData>
    </Piece>
  </UnstructuredGrid>
</VTKFile>
