<?xml version="1.0"?>
<VTKFile type="UnstructuredGrid" version="1.0" byte_order="LittleEndian" compressor="vtkZLibDataCompressor">
  <UnstructuredGrid>
    <Piece NumberOfPoints="82" NumberOfCells="1">
      <Points>
        <DataArray type="Float64" Name="Points" NumberOfComponents="3" format="ascii">
          0.0000000000e+00 0.0000000000e+00 0.0000000000e+00 
          2.5000000000e-01 0.0000000000e+00 0.0000000000e+00 
          2.5000000000e-01 3.0000000000e+01 0.0000000000e+00 
          0.0000000000e+00 3.0000000000e+01 0.0000000000e+00 
          0.0000000000e+00 -5.0000000000e+00 0.0000000000e+00 
          2.5000000000e-01 -5.0000000000e+00 0.0000000000e+00 
          2.5000000000e-01 7.6923100000e-01 0.0000000000e+00 
          2.5000000000e-01 1.5384620000e+00 0.0000000000e+00 
          2.5000000000e-01 2.3076920000e+00 0.0000000000e+00 
          2.5000000000e-01 3.0769230000e+00 0.0000000000e+00 
          2.5000000000e-01 3.8461540000e+00 0.0000000000e+00 
          2.5000000000e-01 4.6153850000e+00 0.0000000000e+00 
          2.5000000000e-01 5.3846150000e+00 0.0000000000e+00 
          2.5000000000e-01 6.1538460000e+00 0.0000000000e+00 
          2.5000000000e-01 6.9230770000e+00 0.0000000000e+00 
          2.5000000000e-01 7.6923080000e+00 0.0000000000e+00 
          2.5000000000e-01 8.4615380000e+00 0.0000000000e+00 
          2.5000000000e-01 9.2307690000e+00 0.0000000000e+00 
          2.5000000000e-01 1.0000000000e+01 0.0000000000e+00 
          2.5000000000e-01 1.0769231000e+01 0.0000000000e+00 
          2.5000000000e-01 1.1538462000e+01 0.0000000000e+00 
          2.5000000000e-01 1.2307692000e+01 0.0000000000e+00 
          2.5000000000e-01 1.3076923000e+01 0.0000000000e+00 
          2.5000000000e-01 1.3846154000e+01 0.0000000000e+00 
          2.5000000000e-01 1.4615385000e+01 0.0000000000e+00 
          2.5000000000e-01 1.5384615000e+01 0.0000000000e+00 
          2.5000000000e-01 1.6153846000e+01 0.0000000000e+00 
          2.5000000000e-01 1.6923077000e+01 0.0000000000e+00 
          2.5000000000e-01 1.7692308000e+01 0.0000000000e+00 
          2.5000000000e-01 1.8461538000e+01 0.0000000000e+00 
          2.5000000000e-01 1.9230769000e+01 0.0000000000e+00 
          2.5000000000e-01 2.0000000000e+01 0.0000000000e+00 
          2.5000000000e-01 2.0769231000e+01 0.0000000000e+00 
          2.5000000000e-01 2.1538462000e+01 0.0000000000e+00 
          2.5000000000e-01 2.2307692000e+01 0.0000000000e+00 
          2.5000000000e-01 2.3076923000e+01 0.0000000000e+00 
          2.5000000000e-01 2.3846154000e+01 0.0000000000e+00 
          2.5000000000e-01 2.4615385000e+01 0.0000000000e+00 
          2.5000000000e-01 2.5384615000e+01 0.0000000000e+00 
          2.5000000000e-01 2.6153846000e+01 0.0000000000e+00 
          2.5000000000e-01 2.6923077000e+01 0.0000000000e+00 
          2.5000000000e-01 2.7692308000e+01 0.0000000000e+00 
          2.5000000000e-01 2.8461538000e+01 0.0000000000e+00 
          2.5000000000e-01 2.9230769000e+01 0.0000000000e+00 
          0.0000000000e+00 7.6923100000e-01 0.0000000000e+00 
          0.0000000000e+00 1.5384620000e+00 0.0000000000e+00 
          0.0000000000e+00 2.3076920000e+00 0.0000000000e+00 
          0.0000000000e+00 3.0769230000e+00 0.0000000000e+00 
          0.0000000000e+00 3.8461540000e+00 0.0000000000e+00 
          0.0000000000e+00 4.6153850000e+00 0.0000000000e+00 
          0.0000000000e+00 5.3846150000e+00 0.0000000000e+00 
          0.0000000000e+00 6.1538460000e+00 0.0000000000e+00 
          0.0000000000e+00 6.9230770000e+00 0.0000000000e+00 
          0.0000000000e+00 7.6923080000e+00 0.0000000000e+00 
          0.0000000000e+00 8.4615380000e+00 0.0000000000e+00 
          0.0000000000e+00 9.2307690000e+00 0.0000000000e+00 
          0.0000000000e+00 1.0000000000e+01 0.0000000000e+00 
          0.0000000000e+00 1.0769231000e+01 0.0000000000e+00 
          0.0000000000e+00 1.1538462000e+01 0.0000000000e+00 
          0.0000000000e+00 1.2307692000e+01 0.0000000000e+00 
          0.0000000000e+00 1.3076923000e+01 0.0000000000e+00 
          0.0000000000e+00 1.3846154000e+01 0.0000000000e+00 
          0.0000000000e+00 1.4615385000e+01 0.0000000000e+00 
          0.0000000000e+00 1.5384615000e+01 0.0000000000e+00 
          0.0000000000e+00 1.6153846000e+01 0.0000000000e+00 
          0.0000000000e+00 1.6923077000e+01 0.0000000000e+00 
          0.0000000000e+00 1.7692308000e+01 0.0000000000e+00 
          0.0000000000e+00 1.8461538000e+01 0.0000000000e+00 
          0.0000000000e+00 1.9230769000e+01 0.0000000000e+00 
          0.0000000000e+00 2.0000000000e+01 0.0000000000e+00 
          0.0000000000e+00 2.0769231000e+01 0.0000000000e+00 
          0.0000000000e+00 2.1538462000e+01 0.0000000000e+00 
          0.0000000000e+00 2.2307692000e+01 0.0000000000e+00 
          0.0000000000e+00 2.3076923000e+01 0.0000000000e+00 
          0.0000000000e+00 2.3846154000e+01 0.0000000000e+00 
          0.0000000000e+00 2.4615385000e+01 0.0000000000e+00 
          0.0000000000e+00 2.5384615000e+01 0.0000000000e+00 
          0.0000000000e+00 2.6153846000e+01 0.0000000000e+00 
          0.0000000000e+00 2.6923077000e+01 0.0000000000e+00 
          0.0000000000e+00 2.7692308000e+01 0.0000000000e+00 
          0.0000000000e+00 2.8461538000e+01 0.0000000000e+00 
          0.0000000000e+00 2.9230769000e+01 0.0000000000e+00 
        </DataArray>
      </Points>
      <Cells>
        <DataArray type="Int64" Name="connectivity" format="ascii">
          0
          1
          2
          3
          4
          5
          6
          7
          8
          9
          10
          11
          12
          13
          14
          15
          16
          17
          18
          19
          20
          21
          22
          23
          24
          25
          26
          27
          28
          29
          30
          31
          32
          33
          34
          35
          36
          37
          38
          39
          40
          41
          42
          43
          44
          45
          46
          47
          48
          49
          50
          51
          52
          53
          54
          55
          56
          57
          58
          59
          60
          61
          62
          63
          64
          65
          66
          67
          68
          69
          70
          71
          72
          73
          74
          75
          76
          77
          78
          79
          80
          81
        </DataArray>
        <DataArray type="Int64" Name="offsets" format="ascii">
          82
        </DataArray>
        <DataArray type="Int64" Name="types" format="ascii">
          2
        </DataArray>
      </Cells>
      <PointData>
        <DataArray type="Int64" Name="NodeTag" format="ascii">
          1
          2
          3
          4
          5
          6
          7
          8
          9
          10
          11
          12
          13
          14
          15
          16
          17
          18
          19
          20
          21
          22
          23
          24
          25
          26
          27
          28
          29
          30
          31
          32
          33
          34
          35
          36
          37
          38
          39
          40
          41
          42
          43
          44
          45
          46
          47
          48
          49
          50
          51
          52
          53
          54
          55
          56
          57
          58
          59
          60
          61
          62
          63
          64
          65
          66
          67
          68
          69
          70
          71
          72
          73
          74
          75
          76
          77
          78
          79
          80
          81
          82
        </DataArray>
        <DataArray type="Float64" Name="Velocity" NumberOfComponents="3" format="ascii">
          -1.9900917718e-06 -7.7844728613e-05 0.0000000000e+00 
          -1.9900917718e-06 -7.7844728613e-05 0.0000000000e+00 
          -7.5495005924e-06 -7.7813337883e-05 0.0000000000e+00 
          -7.5495005924e-06 -7.7813337883e-05 0.0000000000e+00 
          0.0000000000e+00 0.0000000000e+00 0.0000000000e+00 
          0.0000000000e+00 0.0000000000e+00 0.0000000000e+00 
          -2.2434439131e-06 -7.7845907523e-05 0.0000000000e+00 
          -2.4963969136e-06 -7.7843403637e-05 0.0000000000e+00 
          -2.7374629240e-06 -7.7842987087e-05 0.0000000000e+00 
          -2.9860355133e-06 -7.7848941348e-05 0.0000000000e+00 
          -3.2153766313e-06 -7.7837792834e-05 0.0000000000e+00 
          -3.4537767803e-06 -7.7854784255e-05 0.0000000000e+00 
          -3.6779635904e-06 -7.7824418446e-05 0.0000000000e+00 
          -3.8995786514e-06 -7.7880636842e-05 0.0000000000e+00 
          -4.1200007615e-06 -7.7792485507e-05 0.0000000000e+00 
          -4.3268821417e-06 -7.7901012616e-05 0.0000000000e+00 
          -4.5363415774e-06 -7.7802727553e-05 0.0000000000e+00 
          -4.7362678025e-06 -7.7851979296e-05 0.0000000000e+00 
          -4.9275512388e-06 -7.7877923265e-05 0.0000000000e+00 
          -5.1212204442e-06 -7.7782194912e-05 0.0000000000e+00 
          -5.2989761159e-06 -7.7909838598e-05 0.0000000000e+00 
          -5.4773129244e-06 -7.7799090908e-05 0.0000000000e+00 
          -5.6477679509e-06 -7.7861196705e-05 0.0000000000e+00 
          -5.8082632186e-06 -7.7849445285e-05 0.0000000000e+00 
          -5.9684109510e-06 -7.7829312530e-05 0.0000000000e+00 
          -6.1156733638e-06 -7.7861903782e-05 0.0000000000e+00 
          -6.2594733093e-06 -7.7826856374e-05 0.0000000000e+00 
          -6.3966910851e-06 -7.7861443394e-05 0.0000000000e+00 
          -6.5236266082e-06 -7.7829164158e-05 0.0000000000e+00 
          -6.6469162075e-06 -7.7855545144e-05 0.0000000000e+00 
          -6.7612344304e-06 -7.7838807613e-05 0.0000000000e+00 
          -6.8672038922e-06 -7.7844214702e-05 0.0000000000e+00 
          -6.9679605269e-06 -7.7850006547e-05 0.0000000000e+00 
          -7.0594826255e-06 -7.7832893032e-05 0.0000000000e+00 
          -7.1430947735e-06 -7.7861025868e-05 0.0000000000e+00 
          -7.2206827168e-06 -7.7826297517e-05 0.0000000000e+00 
          -7.2885895102e-06 -7.7858743595e-05 0.0000000000e+00 
          -7.3489896389e-06 -7.7835463388e-05 0.0000000000e+00 
          -7.4028945015e-06 -7.7849183601e-05 0.0000000000e+00 
          -7.4466723327e-06 -7.7843615219e-05 0.0000000000e+00 
          -7.4831520487e-06 -7.7837402907e-05 0.0000000000e+00 
          -7.5127992499e-06 -7.7861822723e-05 0.0000000000e+00 
          -7.5322835748e-06 -7.7818217071e-05 0.0000000000e+00 
          -7.5444636236e-06 -7.7874503964e-05 0.0000000000e+00 
          -2.2434439131e-06 -7.7845907523e-05 0.0000000000e+00 
          -2.4963969136e-06 -7.7843403637e-05 0.0000000000e+00 
          -2.7374629240e-06 -7.7842987087e-05 0.0000000000e+00 
          -2.9860355133e-06 -7.7848941348e-05 0.0000000000e+00 
          -3.2153766313e-06 -7.7837792834e-05 0.0000000000e+00 
          -3.4537767803e-06 -7.7854784255e-05 0.0000000000e+00 
          -3.6779635904e-06 -7.7824418446e-05 0.0000000000e+00 
          -3.8995786514e-06 -7.7880636842e-05 0.0000000000e+00 
          -4.1200007615e-06 -7.7792485507e-05 0.0000000000e+00 
          -4.3268821417e-06 -7.7901012616e-05 0.0000000000e+00 
          -4.5363415774e-06 -7.7802727553e-05 0.0000000000e+00 
          -4.7362678025e-06 -7.7851979296e-05 0.0000000000e+00 
          -4.9275512388e-06 -7.7877923265e-05 0.0000000000e+00 
          -5.1212204442e-06 -7.7782194912e-05 0.0000000000e+00 
          -5.2989761159e-06 -7.7909838598e-05 0.0000000000e+00 
          -5.4773129244e-06 -7.7799090908e-05 0.0000000000e+00 
          -5.6477679509e-06 -7.7861196705e-05 0.0000000000e+00 
          -5.8082632186e-06 -7.7849445285e-05 0.0000000000e+00 
          -5.9684109510e-06 -7.7829312530e-05 0.0000000000e+00 
          -6.1156733638e-06 -7.7861903782e-05 0.0000000000e+00 
          -6.2594733093e-06 -7.7826856374e-05 0.0000000000e+00 
          -6.3966910851e-06 -7.7861443394e-05 0.0000000000e+00 
          -6.5236266082e-06 -7.7829164158e-05 0.0000000000e+00 
          -6.6469162075e-06 -7.7855545144e-05 0.0000000000e+00 
          -6.7612344304e-06 -7.7838807613e-05 0.0000000000e+00 
          -6.8672038922e-06 -7.7844214702e-05 0.0000000000e+00 
          -6.9679605269e-06 -7.7850006547e-05 0.0000000000e+00 
          -7.0594826255e-06 -7.7832893032e-05 0.0000000000e+00 
          -7.1430947735e-06 -7.7861025868e-05 0.0000000000e+00 
          -7.2206827168e-06 -7.7826297517e-05 0.0000000000e+00 
          -7.2885895102e-06 -7.7858743595e-05 0.0000000000e+00 
          -7.3489896389e-06 -7.7835463388e-05 0.0000000000e+00 
          -7.4028945015e-06 -7.7849183601e-05 0.0000000000e+00 
          -7.4466723327e-06 -7.7843615219e-05 0.0000000000e+00 
          -7.4831520487e-06 -7.7837402907e-05 0.0000000000e+00 
          -7.5127992499e-06 -7.7861822723e-05 0.0000000000e+00 
          -7.5322835748e-06 -7.7818217071e-05 0.0000000000e+00 
          -7.5444636236e-06 -7.7874503964e-05 0.0000000000e+00 
        </DataArray>
        <DataArray type="Float64" Name="Displacement" NumberOfComponents="3" format="ascii">
          1.4634181125e-07 -7.0733904902e-04 0.0000000000e+00 
          1.4634181125e-07 -7.0733904902e-04 0.0000000000e+00 
          -7.0944861066e-07 -7.3091927830e-04 0.0000000000e+00 
          -7.0944861066e-07 -7.3091927830e-04 0.0000000000e+00 
          0.0000000000e+00 0.0000000000e+00 0.0000000000e+00 
          0.0000000000e+00 0.0000000000e+00 0.0000000000e+00 
          1.1320758699e-07 -7.0853279702e-04 0.0000000000e+00 
          7.9973243409e-08 -7.0969551689e-04 0.0000000000e+00 
          4.6684502856e-08 -7.1082728451e-04 0.0000000000e+00 
          1.3431798479e-08 -7.1192795310e-04 0.0000000000e+00 
          -1.9751580871e-08 -7.1299773348e-04 0.0000000000e+00 
          -5.2771181378e-08 -7.1403638790e-04 0.0000000000e+00 
          -8.5587322312e-08 -7.1504414040e-04 0.0000000000e+00 
          -1.1813036705e-07 -7.1602080820e-04 0.0000000000e+00 
          -1.5032415310e-07 -7.1696650463e-04 0.0000000000e+00 
          -1.8214173328e-07 -7.1788121929e-04 0.0000000000e+00 
          -2.1348007668e-07 -7.1876485494e-04 0.0000000000e+00 
          -2.4431444207e-07 -7.1961756163e-04 0.0000000000e+00 
          -2.7457724469e-07 -7.2043922411e-04 0.0000000000e+00 
          -3.0419315233e-07 -7.2122986863e-04 0.0000000000e+00 
          -3.3314365067e-07 -7.2198953919e-04 0.0000000000e+00 
          -3.6133848065e-07 -7.2271819742e-04 0.0000000000e+00 
          -3.8874498834e-07 -7.2341579397e-04 0.0000000000e+00 
          -4.1531573290e-07 -7.2408250167e-04 0.0000000000e+00 
          -4.4098115364e-07 -7.2471805199e-04 0.0000000000e+00 
          -4.6572018428e-07 -7.2532274791e-04 0.0000000000e+00 
          -4.8946650757e-07 -7.2589630328e-04 0.0000000000e+00 
          -5.1218558388e-07 -7.2643896248e-04 0.0000000000e+00 
          -5.3384042368e-07 -7.2695053411e-04 0.0000000000e+00 
          -5.5437827519e-07 -7.2743114679e-04 0.0000000000e+00 
          -5.7377605416e-07 -7.2788073702e-04 0.0000000000e+00 
          -5.9198950591e-07 -7.2829931988e-04 0.0000000000e+00 
          -6.0898783344e-07 -7.2868689982e-04 0.0000000000e+00 
          -6.2474405019e-07 -7.2904346940e-04 0.0000000000e+00 
          -6.3922260007e-07 -7.2936904950e-04 0.0000000000e+00 
          -6.5240430314e-07 -7.2966358168e-04 0.0000000000e+00 
          -6.6426262987e-07 -7.2992717477e-04 0.0000000000e+00 
          -6.7477430336e-07 -7.3015966976e-04 0.0000000000e+00 
          -6.8392486178e-07 -7.3036128644e-04 0.0000000000e+00 
          -6.9169438119e-07 -7.3053171702e-04 0.0000000000e+00 
          -6.9806999632e-07 -7.3067136129e-04 0.0000000000e+00 
          -7.0304196739e-07 -7.3077979543e-04 0.0000000000e+00 
          -7.0659826386e-07 -7.3085732851e-04 0.0000000000e+00 
          -7.0873496823e-07 -7.3090390963e-04 0.0000000000e+00 
          1.1320758699e-07 -7.0853279702e-04 0.0000000000e+00 
          7.9973243409e-08 -7.0969551689e-04 0.0000000000e+00 
          4.6684502856e-08 -7.1082728451e-04 0.0000000000e+00 
          1.3431798479e-08 -7.1192795310e-04 0.0000000000e+00 
          -1.9751580871e-08 -7.1299773348e-04 0.0000000000e+00 
          -5.2771181378e-08 -7.1403638790e-04 0.0000000000e+00 
          -8.5587322312e-08 -7.1504414040e-04 0.0000000000e+00 
          -1.1813036705e-07 -7.1602080820e-04 0.0000000000e+00 
          -1.5032415310e-07 -7.1696650463e-04 0.0000000000e+00 
          -1.8214173328e-07 -7.1788121929e-04 0.0000000000e+00 
          -2.1348007668e-07 -7.1876485494e-04 0.0000000000e+00 
          -2.4431444207e-07 -7.1961756163e-04 0.0000000000e+00 
          -2.7457724469e-07 -7.2043922411e-04 0.0000000000e+00 
          -3.0419315233e-07 -7.2122986863e-04 0.0000000000e+00 
          -3.3314365067e-07 -7.2198953919e-04 0.0000000000e+00 
          -3.6133848065e-07 -7.2271819742e-04 0.0000000000e+00 
          -3.8874498834e-07 -7.2341579397e-04 0.0000000000e+00 
          -4.1531573290e-07 -7.2408250167e-04 0.0000000000e+00 
          -4.4098115364e-07 -7.2471805199e-04 0.0000000000e+00 
          -4.6572018428e-07 -7.2532274791e-04 0.0000000000e+00 
          -4.8946650757e-07 -7.2589630328e-04 0.0000000000e+00 
          -5.1218558388e-07 -7.2643896248e-04 0.0000000000e+00 
          -5.3384042368e-07 -7.2695053411e-04 0.0000000000e+00 
          -5.5437827519e-07 -7.2743114679e-04 0.0000000000e+00 
          -5.7377605416e-07 -7.2788073702e-04 0.0000000000e+00 
          -5.9198950591e-07 -7.2829931988e-04 0.0000000000e+00 
          -6.0898783344e-07 -7.2868689982e-04 0.0000000000e+00 
          -6.2474405019e-07 -7.2904346940e-04 0.0000000000e+00 
          -6.3922260007e-07 -7.2936904950e-04 0.0000000000e+00 
          -6.5240430314e-07 -7.2966358168e-04 0.0000000000e+00 
          -6.6426262987e-07 -7.2992717477e-04 0.0000000000e+00 
          -6.7477430336e-07 -7.3015966976e-04 0.0000000000e+00 
          -6.8392486178e-07 -7.3036128644e-04 0.0000000000e+00 
          -6.9169438119e-07 -7.3053171702e-04 0.0000000000e+00 
          -6.9806999632e-07 -7.3067136129e-04 0.0000000000e+00 
          -7.0304196739e-07 -7.3077979543e-04 0.0000000000e+00 
          -7.0659826386e-07 -7.3085732851e-04 0.0000000000e+00 
          -7.0873496823e-07 -7.3090390963e-04 0.0000000000e+00 
        </DataArray>
        <DataArray type="Float64" Name="Acceleration" NumberOfComponents="3" format="ascii">
          -1.5385972476e-05 -1.2041417718e-07 0.0000000000e+00 
          -1.5385972476e-05 -1.2041417718e-07 0.0000000000e+00 
          1.2860118410e-04 -4.8476035568e-05 0.0000000000e+00 
          1.2860118410e-04 -4.8476035568e-05 0.0000000000e+00 
          0.0000000000e+00 0.0000000000e+00 0.0000000000e+00 
          0.0000000000e+00 0.0000000000e+00 0.0000000000e+00 
          -9.0209485765e-06 3.9283152761e-06 0.0000000000e+00 
          -4.9051771075e-06 -1.0010406619e-05 0.0000000000e+00 
          3.2508318828e-06 1.6974411839e-05 0.0000000000e+00 
          6.2463218361e-06 -2.1288191987e-05 0.0000000000e+00 
          1.4756797255e-05 2.1557326057e-05 0.0000000000e+00 
          1.8328277307e-05 -1.9047748839e-05 0.0000000000e+00 
          2.4610366121e-05 1.4358674497e-05 0.0000000000e+00 
          3.1468897899e-05 -6.2989510288e-06 0.0000000000e+00 
          3.3896891901e-05 -4.4283398721e-06 0.0000000000e+00 
          4.3176538096e-05 1.2892168550e-05 0.0000000000e+00 
          4.5413113610e-05 -1.3732499613e-05 0.0000000000e+00 
          5.1498934384e-05 6.8253022615e-06 0.0000000000e+00 
          5.8286515042e-05 2.0938820277e-06 0.0000000000e+00 
          5.9954691985e-05 -5.8337235793e-06 0.0000000000e+00 
          6.8083953270e-05 9.1158937521e-07 0.0000000000e+00 
          7.1032743972e-05 1.0149186249e-05 0.0000000000e+00 
          7.5303908657e-05 -2.1172459874e-05 0.0000000000e+00 
          8.1571464193e-05 2.7218015633e-05 0.0000000000e+00 
          8.3466733687e-05 -2.7516996827e-05 0.0000000000e+00 
          8.9447848334e-05 2.4329786519e-05 0.0000000000e+00 
          9.2556982560e-05 -1.9850135197e-05 0.0000000000e+00 
          9.5889809797e-05 1.4635438074e-05 0.0000000000e+00 
          1.0064051164e-04 -8.6460189843e-06 0.0000000000e+00 
          1.0272525911e-04 3.0193969417e-06 0.0000000000e+00 
          1.0671022208e-04 1.8625098352e-07 0.0000000000e+00 
          1.0948509174e-04 -6.1595371975e-07 0.0000000000e+00 
          1.1191663328e-04 7.2505243931e-07 0.0000000000e+00 
          1.1511868831e-04 -3.1111099760e-06 0.0000000000e+00 
          1.1685023007e-04 7.5744440092e-06 0.0000000000e+00 
          1.1923882125e-04 -1.2118559233e-05 0.0000000000e+00 
          1.2133611682e-04 1.6535267700e-05 0.0000000000e+00 
          1.2263816358e-04 -2.3112771679e-05 0.0000000000e+00 
          1.2443549519e-04 3.2443598104e-05 0.0000000000e+00 
          1.2559352727e-04 -3.9650624537e-05 0.0000000000e+00 
          1.2647110256e-04 3.6726977237e-05 0.0000000000e+00 
          1.2755474377e-04 -1.8987942547e-05 0.0000000000e+00 
          1.2790855106e-04 -9.7778450751e-06 0.0000000000e+00 
          1.2822069137e-04 3.7144431031e-05 0.0000000000e+00 
          -9.0209485765e-06 3.9283152761e-06 0.0000000000e+00 
          -4.9051771075e-06 -1.0010406619e-05 0.0000000000e+00 
          3.2508318828e-06 1.6974411839e-05 0.0000000000e+00 
          6.2463218361e-06 -2.1288191987e-05 0.0000000000e+00 
          1.4756797255e-05 2.1557326057e-05 0.0000000000e+00 
          1.8328277307e-05 -1.9047748839e-05 0.0000000000e+00 
          2.4610366121e-05 1.4358674497e-05 0.0000000000e+00 
          3.1468897899e-05 -6.2989510288e-06 0.0000000000e+00 
          3.3896891901e-05 -4.4283398721e-06 0.0000000000e+00 
          4.3176538096e-05 1.2892168550e-05 0.0000000000e+00 
          4.5413113610e-05 -1.3732499613e-05 0.0000000000e+00 
          5.1498934384e-05 6.8253022615e-06 0.0000000000e+00 
          5.8286515042e-05 2.0938820277e-06 0.0000000000e+00 
          5.9954691985e-05 -5.8337235793e-06 0.0000000000e+00 
          6.8083953270e-05 9.1158937521e-07 0.0000000000e+00 
          7.1032743972e-05 1.0149186249e-05 0.0000000000e+00 
          7.5303908657e-05 -2.1172459874e-05 0.0000000000e+00 
          8.1571464193e-05 2.7218015633e-05 0.0000000000e+00 
          8.3466733687e-05 -2.7516996827e-05 0.0000000000e+00 
          8.9447848334e-05 2.4329786519e-05 0.0000000000e+00 
          9.2556982560e-05 -1.9850135197e-05 0.0000000000e+00 
          9.5889809797e-05 1.4635438074e-05 0.0000000000e+00 
          1.0064051164e-04 -8.6460189843e-06 0.0000000000e+00 
          1.0272525911e-04 3.0193969417e-06 0.0000000000e+00 
          1.0671022208e-04 1.8625098352e-07 0.0000000000e+00 
          1.0948509174e-04 -6.1595371975e-07 0.0000000000e+00 
          1.1191663328e-04 7.2505243931e-07 0.0000000000e+00 
          1.1511868831e-04 -3.1111099760e-06 0.0000000000e+00 
          1.1685023007e-04 7.5744440092e-06 0.0000000000e+00 
          1.1923882125e-04 -1.2118559233e-05 0.0000000000e+00 
          1.2133611682e-04 1.6535267700e-05 0.0000000000e+00 
          1.2263816358e-04 -2.3112771679e-05 0.0000000000e+00 
          1.2443549519e-04 3.2443598104e-05 0.0000000000e+00 
          1.2559352727e-04 -3.9650624537e-05 0.0000000000e+00 
          1.2647110256e-04 3.6726977237e-05 0.0000000000e+00 
          1.2755474377e-04 -1.8987942547e-05 0.0000000000e+00 
          1.2790855106e-04 -9.7778450751e-06 0.0000000000e+00 
          1.2822069137e-04 3.7144431031e-05 0.0000000000e+00 
        </DataArray>
        <DataArray type="Float64" Name="Reaction" NumberOfComponents="3" format="ascii">
          0.0000000000e+00 0.0000000000e+00 0.0000000000e+00 
          0.0000000000e+00 0.0000000000e+00 0.0000000000e+00 
          0.0000000000e+00 0.0000000000e+00 0.0000000000e+00 
          0.0000000000e+00 0.0000000000e+00 0.0000000000e+00 
          0.0000000000e+00 0.0000000000e+00 0.0000000000e+00 
          0.0000000000e+00 0.0000000000e+00 0.0000000000e+00 
          0.0000000000e+00 0.0000000000e+00 0.0000000000e+00 
          0.0000000000e+00 0.0000000000e+00 0.0000000000e+00 
          0.0000000000e+00 0.0000000000e+00 0.0000000000e+00 
          0.0000000000e+00 0.0000000000e+00 0.0000000000e+00 
          0.0000000000e+00 0.0000000000e+00 0.0000000000e+00 
          0.0000000000e+00 0.0000000000e+00 0.0000000000e+00 
          0.0000000000e+00 0.0000000000e+00 0.0000000000e+00 
          0.0000000000e+00 0.0000000000e+00 0.0000000000e+00 
          0.0000000000e+00 0.0000000000e+00 0.0000000000e+00 
          0.0000000000e+00 0.0000000000e+00 0.0000000000e+00 
          0.0000000000e+00 0.0000000000e+00 0.0000000000e+00 
          0.0000000000e+00 0.0000000000e+00 0.0000000000e+00 
          0.0000000000e+00 0.0000000000e+00 0.0000000000e+00 
          0.0000000000e+00 0.0000000000e+00 0.0000000000e+00 
          0.0000000000e+00 0.0000000000e+00 0.0000000000e+00 
          0.0000000000e+00 0.0000000000e+00 0.0000000000e+00 
          0.0000000000e+00 0.0000000000e+00 0.0000000000e+00 
          0.0000000000e+00 0.0000000000e+00 0.0000000000e+00 
          0.0000000000e+00 0.0000000000e+00 0.0000000000e+00 
          0.0000000000e+00 0.0000000000e+00 0.0000000000e+00 
          0.0000000000e+00 0.0000000000e+00 0.0000000000e+00 
          0.0000000000e+00 0.0000000000e+00 0.0000000000e+00 
          0.0000000000e+00 0.0000000000e+00 0.0000000000e+00 
          0.0000000000e+00 0.0000000000e+00 0.0000000000e+00 
          0.0000000000e+00 0.0000000000e+00 0.0000000000e+00 
          0.0000000000e+00 0.0000000000e+00 0.0000000000e+00 
          0.0000000000e+00 0.0000000000e+00 0.0000000000e+00 
          0.0000000000e+00 0.0000000000e+00 0.0000000000e+00 
          0.0000000000e+00 0.0000000000e+00 0.0000000000e+00 
          0.0000000000e+00 0.0000000000e+00 0.0000000000e+00 
          0.0000000000e+00 0.0000000000e+00 0.0000000000e+00 
          0.0000000000e+00 0.0000000000e+00 0.0000000000e+00 
          0.0000000000e+00 0.0000000000e+00 0.0000000000e+00 
          0.0000000000e+00 0.0000000000e+00 0.0000000000e+00 
          0.0000000000e+00 0.0000000000e+00 0.0000000000e+00 
          0.0000000000e+00 0.0000000000e+00 0.0000000000e+00 
          0.0000000000e+00 0.0000000000e+00 0.0000000000e+00 
          0.0000000000e+00 0.0000000000e+00 0.0000000000e+00 
          0.0000000000e+00 0.0000000000e+00 0.0000000000e+00 
          0.0000000000e+00 0.0000000000e+00 0.0000000000e+00 
          0.0000000000e+00 0.0000000000e+00 0.0000000000e+00 
          0.0000000000e+00 0.0000000000e+00 0.0000000000e+00 
          0.0000000000e+00 0.0000000000e+00 0.0000000000e+00 
          0.0000000000e+00 0.0000000000e+00 0.0000000000e+00 
          0.0000000000e+00 0.0000000000e+00 0.0000000000e+00 
          0.0000000000e+00 0.0000000000e+00 0.0000000000e+00 
          0.0000000000e+00 0.0000000000e+00 0.0000000000e+00 
          0.0000000000e+00 0.0000000000e+00 0.0000000000e+00 
          0.0000000000e+00 0.0000000000e+00 0.0000000000e+00 
          0.0000000000e+00 0.0000000000e+00 0.0000000000e+00 
          0.0000000000e+00 0.0000000000e+00 0.0000000000e+00 
          0.0000000000e+00 0.0000000000e+00 0.0000000000e+00 
          0.0000000000e+00 0.0000000000e+00 0.0000000000e+00 
          0.0000000000e+00 0.0000000000e+00 0.0000000000e+00 
          0.0000000000e+00 0.0000000000e+00 0.0000000000e+00 
          0.0000000000e+00 0.0000000000e+00 0.0000000000e+00 
          0.0000000000e+00 0.0000000000e+00 0.0000000000e+00 
          0.0000000000e+00 0.0000000000e+00 0.0000000000e+00 
          0.0000000000e+00 0.0000000000e+00 0.0000000000e+00 
          0.0000000000e+00 0.0000000000e+00 0.0000000000e+00 
          0.0000000000e+00 0.0000000000e+00 0.0000000000e+00 
          0.0000000000e+00 0.0000000000e+00 0.0000000000e+00 
          0.0000000000e+00 0.0000000000e+00 0.0000000000e+00 
          0.0000000000e+00 0.0000000000e+00 0.0000000000e+00 
          0.0000000000e+00 0.0000000000e+00 0.0000000000e+00 
          0.0000000000e+00 0.0000000000e+00 0.0000000000e+00 
          0.0000000000e+00 0.0000000000e+00 0.0000000000e+00 
          0.0000000000e+00 0.0000000000e+00 0.0000000000e+00 
          0.0000000000e+00 0.0000000000e+00 0.0000000000e+00 
          0.0000000000e+00 0.0000000000e+00 0.0000000000e+00 
          0.0000000000e+00 0.0000000000e+00 0.0000000000e+00 
          0.0000000000e+00 0.0000000000e+00 0.0000000000e+00 
          0.0000000000e+00 0.0000000000e+00 0.0000000000e+00 
          0.0000000000e+00 0.0000000000e+00 0.0000000000e+00 
          0.0000000000e+00 0.0000000000e+00 0.0000000000e+00 
          0.0000000000e+00 0.0000000000e+00 0.0000000000e+00 
        </DataArray>
      </PointData>
      <CellData>
        <DataArray type="Int64" Name="ElementTag" format="ascii">
          0
        </DataArray>
      </CellData>
    </Piece>
  </UnstructuredGrid>
</VTKFile>
