<?xml version="1.0"?>
<VTKFile type="UnstructuredGrid" version="1.0" byte_order="LittleEndian" compressor="vtkZLibDataCompressor">
  <UnstructuredGrid>
    <Piece NumberOfPoints="80" NumberOfCells="39">
      <Points>
        <DataArray type="Float64" Name="Points" NumberOfComponents="3" format="ascii">
          0.0000000000e+00 0.0000000000e+00 0.0000000000e+00 
          2.5000000000e-01 0.0000000000e+00 0.0000000000e+00 
          2.5000000000e-01 3.0000000000e+01 0.0000000000e+00 
          0.0000000000e+00 3.0000000000e+01 0.0000000000e+00 
          2.5000000000e-01 7.6923100000e-01 0.0000000000e+00 
          2.5000000000e-01 1.5384620000e+00 0.0000000000e+00 
          2.5000000000e-01 2.3076920000e+00 0.0000000000e+00 
          2.5000000000e-01 3.0769230000e+00 0.0000000000e+00 
          2.5000000000e-01 3.8461540000e+00 0.0000000000e+00 
          2.5000000000e-01 4.6153850000e+00 0.0000000000e+00 
          2.5000000000e-01 5.3846150000e+00 0.0000000000e+00 
          2.5000000000e-01 6.1538460000e+00 0.0000000000e+00 
          2.5000000000e-01 6.9230770000e+00 0.0000000000e+00 
          2.5000000000e-01 7.6923080000e+00 0.0000000000e+00 
          2.5000000000e-01 8.4615380000e+00 0.0000000000e+00 
          2.5000000000e-01 9.2307690000e+00 0.0000000000e+00 
          2.5000000000e-01 1.0000000000e+01 0.0000000000e+00 
          2.5000000000e-01 1.0769231000e+01 0.0000000000e+00 
          2.5000000000e-01 1.1538462000e+01 0.0000000000e+00 
          2.5000000000e-01 1.2307692000e+01 0.0000000000e+00 
          2.5000000000e-01 1.3076923000e+01 0.0000000000e+00 
          2.5000000000e-01 1.3846154000e+01 0.0000000000e+00 
          2.5000000000e-01 1.4615385000e+01 0.0000000000e+00 
          2.5000000000e-01 1.5384615000e+01 0.0000000000e+00 
          2.5000000000e-01 1.6153846000e+01 0.0000000000e+00 
          2.5000000000e-01 1.6923077000e+01 0.0000000000e+00 
          2.5000000000e-01 1.7692308000e+01 0.0000000000e+00 
          2.5000000000e-01 1.8461538000e+01 0.0000000000e+00 
          2.5000000000e-01 1.9230769000e+01 0.0000000000e+00 
          2.5000000000e-01 2.0000000000e+01 0.0000000000e+00 
          2.5000000000e-01 2.0769231000e+01 0.0000000000e+00 
          2.5000000000e-01 2.1538462000e+01 0.0000000000e+00 
          2.5000000000e-01 2.2307692000e+01 0.0000000000e+00 
          2.5000000000e-01 2.3076923000e+01 0.0000000000e+00 
          2.5000000000e-01 2.3846154000e+01 0.0000000000e+00 
          2.5000000000e-01 2.4615385000e+01 0.0000000000e+00 
          2.5000000000e-01 2.5384615000e+01 0.0000000000e+00 
          2.5000000000e-01 2.6153846000e+01 0.0000000000e+00 
          2.5000000000e-01 2.6923077000e+01 0.0000000000e+00 
          2.5000000000e-01 2.7692308000e+01 0.0000000000e+00 
          2.5000000000e-01 2.8461538000e+01 0.0000000000e+00 
          2.5000000000e-01 2.9230769000e+01 0.0000000000e+00 
          0.0000000000e+00 7.6923100000e-01 0.0000000000e+00 
          0.0000000000e+00 1.5384620000e+00 0.0000000000e+00 
          0.0000000000e+00 2.3076920000e+00 0.0000000000e+00 
          0.0000000000e+00 3.0769230000e+00 0.0000000000e+00 
          0.0000000000e+00 3.8461540000e+00 0.0000000000e+00 
          0.0000000000e+00 4.6153850000e+00 0.0000000000e+00 
          0.0000000000e+00 5.3846150000e+00 0.0000000000e+00 
          0.0000000000e+00 6.1538460000e+00 0.0000000000e+00 
          0.0000000000e+00 6.9230770000e+00 0.0000000000e+00 
          0.0000000000e+00 7.6923080000e+00 0.0000000000e+00 
          0.0000000000e+00 8.4615380000e+00 0.0000000000e+00 
          0.0000000000e+00 9.2307690000e+00 0.0000000000e+00 
          0.0000000000e+00 1.0000000000e+01 0.0000000000e+00 
          0.0000000000e+00 1.0769231000e+01 0.0000000000e+00 
          0.0000000000e+00 1.1538462000e+01 0.0000000000e+00 
          0.0000000000e+00 1.2307692000e+01 0.0000000000e+00 
          0.0000000000e+00 1.3076923000e+01 0.0000000000e+00 
          0.0000000000e+00 1.3846154000e+01 0.0000000000e+00 
          0.0000000000e+00 1.4615385000e+01 0.0000000000e+00 
          0.0000000000e+00 1.5384615000e+01 0.0000000000e+00 
          0.0000000000e+00 1.6153846000e+01 0.0000000000e+00 
          0.0000000000e+00 1.6923077000e+01 0.0000000000e+00 
          0.0000000000e+00 1.7692308000e+01 0.0000000000e+00 
          0.0000000000e+00 1.8461538000e+01 0.0000000000e+00 
          0.0000000000e+00 1.9230769000e+01 0.0000000000e+00 
          0.0000000000e+00 2.0000000000e+01 0.0000000000e+00 
          0.0000000000e+00 2.0769231000e+01 0.0000000000e+00 
          0.0000000000e+00 2.1538462000e+01 0.0000000000e+00 
          0.0000000000e+00 2.2307692000e+01 0.0000000000e+00 
          0.0000000000e+00 2.3076923000e+01 0.0000000000e+00 
          0.0000000000e+00 2.3846154000e+01 0.0000000000e+00 
          0.0000000000e+00 2.4615385000e+01 0.0000000000e+00 
          0.0000000000e+00 2.5384615000e+01 0.0000000000e+00 
          0.0000000000e+00 2.6153846000e+01 0.0000000000e+00 
          0.0000000000e+00 2.6923077000e+01 0.0000000000e+00 
          0.0000000000e+00 2.7692308000e+01 0.0000000000e+00 
          0.0000000000e+00 2.8461538000e+01 0.0000000000e+00 
          0.0000000000e+00 2.9230769000e+01 0.0000000000e+00 
        </DataArray>
      </Points>
      <Cells>
        <DataArray type="Int64" Name="connectivity" format="ascii">
          0 1 4 42 
          42 4 5 43 
          43 5 6 44 
          44 6 7 45 
          45 7 8 46 
          46 8 9 47 
          47 9 10 48 
          48 10 11 49 
          49 11 12 50 
          50 12 13 51 
          51 13 14 52 
          52 14 15 53 
          53 15 16 54 
          54 16 17 55 
          55 17 18 56 
          56 18 19 57 
          57 19 20 58 
          58 20 21 59 
          59 21 22 60 
          60 22 23 61 
          61 23 24 62 
          62 24 25 63 
          63 25 26 64 
          64 26 27 65 
          65 27 28 66 
          66 28 29 67 
          67 29 30 68 
          68 30 31 69 
          69 31 32 70 
          70 32 33 71 
          71 33 34 72 
          72 34 35 73 
          73 35 36 74 
          74 36 37 75 
          75 37 38 76 
          76 38 39 77 
          77 39 40 78 
          78 40 41 79 
          79 41 2 3 
        </DataArray>
        <DataArray type="Int64" Name="offsets" format="ascii">
          4
          8
          12
          16
          20
          24
          28
          32
          36
          40
          44
          48
          52
          56
          60
          64
          68
          72
          76
          80
          84
          88
          92
          96
          100
          104
          108
          112
          116
          120
          124
          128
          132
          136
          140
          144
          148
          152
          156
        </DataArray>
        <DataArray type="Int64" Name="types" format="ascii">
          9
          9
          9
          9
          9
          9
          9
          9
          9
          9
          9
          9
          9
          9
          9
          9
          9
          9
          9
          9
          9
          9
          9
          9
          9
          9
          9
          9
          9
          9
          9
          9
          9
          9
          9
          9
          9
          9
          9
        </DataArray>
      </Cells>
      <PointData>
        <DataArray type="Int64" Name="NodeTag" format="ascii">
          1
          2
          3
          4
          7
          8
          9
          10
          11
          12
          13
          14
          15
          16
          17
          18
          19
          20
          21
          22
          23
          24
          25
          26
          27
          28
          29
          30
          31
          32
          33
          34
          35
          36
          37
          38
          39
          40
          41
          42
          43
          44
          45
          46
          47
          48
          49
          50
          51
          52
          53
          54
          55
          56
          57
          58
          59
          60
          61
          62
          63
          64
          65
          66
          67
          68
          69
          70
          71
          72
          73
          74
          75
          76
          77
          78
          79
          80
          81
          82
        </DataArray>
        <DataArray type="Float64" Name="Velocity" NumberOfComponents="3" format="ascii">
          -5.2997846836e-19 -7.3776358736e-05 0.0000000000e+00 
          -5.2997846836e-19 -7.3776358736e-05 0.0000000000e+00 
          1.7611114169e-18 4.7986877937e-05 0.0000000000e+00 
          1.7611114169e-18 4.7986877937e-05 0.0000000000e+00 
          -4.3046820377e-18 -6.9071843417e-05 0.0000000000e+00 
          5.8141265687e-18 -6.4925449873e-05 0.0000000000e+00 
          4.7413207499e-18 -6.0507716359e-05 0.0000000000e+00 
          -3.2956098815e-18 -5.5199198872e-05 0.0000000000e+00 
          -2.7429418223e-18 -5.0809332019e-05 0.0000000000e+00 
          2.4528877693e-18 -4.6872937875e-05 0.0000000000e+00 
          -2.9792587363e-18 -4.2027531345e-05 0.0000000000e+00 
          2.5164191118e-18 -3.7380757827e-05 0.0000000000e+00 
          -7.4562957910e-18 -3.2788310957e-05 0.0000000000e+00 
          4.8291562959e-18 -2.7833077297e-05 0.0000000000e+00 
          -5.8660184472e-18 -2.3055600276e-05 0.0000000000e+00 
          4.1771405134e-18 -1.9169966429e-05 0.0000000000e+00 
          2.7396266817e-19 -1.5646434867e-05 0.0000000000e+00 
          3.5097171291e-18 -1.0287127210e-05 0.0000000000e+00 
          2.6404178720e-18 -4.8439020960e-06 0.0000000000e+00 
          -1.8077042267e-18 -1.8435466039e-07 0.0000000000e+00 
          4.3170830902e-18 4.4472592497e-06 0.0000000000e+00 
          -6.0558687245e-18 8.1181558228e-06 0.0000000000e+00 
          5.2624223091e-19 1.2093998576e-05 0.0000000000e+00 
          -4.3168607744e-18 1.6681265149e-05 0.0000000000e+00 
          3.3773883171e-18 2.1472364556e-05 0.0000000000e+00 
          -1.8565205295e-18 2.6421412749e-05 0.0000000000e+00 
          -3.9534836728e-18 3.0967465494e-05 0.0000000000e+00 
          -1.1585738504e-18 3.5083635542e-05 0.0000000000e+00 
          5.9656728268e-18 3.9063419247e-05 0.0000000000e+00 
          -4.1509061352e-18 4.2696726921e-05 0.0000000000e+00 
          3.0809097723e-18 4.5329803129e-05 0.0000000000e+00 
          2.0677434876e-18 4.7308239123e-05 0.0000000000e+00 
          3.9665888286e-18 5.0082002020e-05 0.0000000000e+00 
          -2.4392529427e-18 5.3217794637e-05 0.0000000000e+00 
          1.0212617857e-18 5.5169149160e-05 0.0000000000e+00 
          -1.5003729470e-20 5.5553167095e-05 0.0000000000e+00 
          2.8975268278e-18 5.5960424789e-05 0.0000000000e+00 
          -6.5686192640e-18 5.5481630829e-05 0.0000000000e+00 
          4.8807803195e-18 5.3907045281e-05 0.0000000000e+00 
          -5.8064769885e-18 5.1562877946e-05 0.0000000000e+00 
          -3.2340599923e-18 4.8899051838e-05 0.0000000000e+00 
          3.2871784023e-18 4.7991182581e-05 0.0000000000e+00 
          -4.3046820377e-18 -6.9071843417e-05 0.0000000000e+00 
          5.8141265687e-18 -6.4925449873e-05 0.0000000000e+00 
          4.7413207499e-18 -6.0507716359e-05 0.0000000000e+00 
          -3.2956098815e-18 -5.5199198872e-05 0.0000000000e+00 
          -2.7429418223e-18 -5.0809332019e-05 0.0000000000e+00 
          2.4528877693e-18 -4.6872937875e-05 0.0000000000e+00 
          -2.9792587363e-18 -4.2027531345e-05 0.0000000000e+00 
          2.5164191118e-18 -3.7380757827e-05 0.0000000000e+00 
          -7.4562957910e-18 -3.2788310957e-05 0.0000000000e+00 
          4.8291562959e-18 -2.7833077297e-05 0.0000000000e+00 
          -5.8660184472e-18 -2.3055600276e-05 0.0000000000e+00 
          4.1771405134e-18 -1.9169966429e-05 0.0000000000e+00 
          2.7396266817e-19 -1.5646434867e-05 0.0000000000e+00 
          3.5097171291e-18 -1.0287127210e-05 0.0000000000e+00 
          2.6404178720e-18 -4.8439020960e-06 0.0000000000e+00 
          -1.8077042267e-18 -1.8435466039e-07 0.0000000000e+00 
          4.3170830902e-18 4.4472592497e-06 0.0000000000e+00 
          -6.0558687245e-18 8.1181558228e-06 0.0000000000e+00 
          5.2624223091e-19 1.2093998576e-05 0.0000000000e+00 
          -4.3168607744e-18 1.6681265149e-05 0.0000000000e+00 
          3.3773883171e-18 2.1472364556e-05 0.0000000000e+00 
          -1.8565205295e-18 2.6421412749e-05 0.0000000000e+00 
          -3.9534836728e-18 3.0967465494e-05 0.0000000000e+00 
          -1.1585738504e-18 3.5083635542e-05 0.0000000000e+00 
          5.9656728268e-18 3.9063419247e-05 0.0000000000e+00 
          -4.1509061352e-18 4.2696726921e-05 0.0000000000e+00 
          3.0809097723e-18 4.5329803129e-05 0.0000000000e+00 
          2.0677434876e-18 4.7308239123e-05 0.0000000000e+00 
          3.9665888286e-18 5.0082002020e-05 0.0000000000e+00 
          -2.4392529427e-18 5.3217794637e-05 0.0000000000e+00 
          1.0212617857e-18 5.5169149160e-05 0.0000000000e+00 
          -1.5003729470e-20 5.5553167095e-05 0.0000000000e+00 
          2.8975268278e-18 5.5960424789e-05 0.0000000000e+00 
          -6.5686192640e-18 5.5481630829e-05 0.0000000000e+00 
          4.8807803195e-18 5.3907045281e-05 0.0000000000e+00 
          -5.8064769885e-18 5.1562877946e-05 0.0000000000e+00 
          -3.2340599923e-18 4.8899051838e-05 0.0000000000e+00 
          3.2871784023e-18 4.7991182581e-05 0.0000000000e+00 
        </DataArray>
        <DataArray type="Float64" Name="Displacement" NumberOfComponents="3" format="ascii">
          6.2159307961e-21 -5.2296172362e-05 0.0000000000e+00 
          6.2159307961e-21 -5.2296172362e-05 0.0000000000e+00 
          3.1690342878e-20 -7.2953083290e-05 0.0000000000e+00 
          3.1690342878e-20 -7.2953083290e-05 0.0000000000e+00 
          -1.6827786854e-20 -5.3425870696e-05 0.0000000000e+00 
          -7.3634769789e-21 -5.4524764612e-05 0.0000000000e+00 
          -3.3541350204e-21 -5.5592381546e-05 0.0000000000e+00 
          -1.5669787319e-20 -5.6627863123e-05 0.0000000000e+00 
          1.6249366811e-21 -5.7628379379e-05 0.0000000000e+00 
          -2.2839601254e-20 -5.8594626579e-05 0.0000000000e+00 
          1.2421691882e-21 -5.9529018438e-05 0.0000000000e+00 
          -2.8824215024e-21 -6.0431967052e-05 0.0000000000e+00 
          1.6393697210e-20 -6.1304121421e-05 0.0000000000e+00 
          4.2797736135e-21 -6.2143077102e-05 0.0000000000e+00 
          9.6456784682e-21 -6.2947673762e-05 0.0000000000e+00 
          9.0523525041e-21 -6.3719098015e-05 0.0000000000e+00 
          -6.1187371264e-21 -6.4457855919e-05 0.0000000000e+00 
          -5.8125178084e-21 -6.5164526143e-05 0.0000000000e+00 
          1.5034439256e-20 -6.5839559180e-05 0.0000000000e+00 
          1.5882195029e-20 -6.6482419284e-05 0.0000000000e+00 
          4.7155526116e-21 -6.7092103913e-05 0.0000000000e+00 
          3.0740347653e-20 -6.7668971677e-05 0.0000000000e+00 
          -3.7286312451e-21 -6.8213723554e-05 0.0000000000e+00 
          1.8905298474e-20 -6.8724600728e-05 0.0000000000e+00 
          1.1114435080e-20 -6.9201254558e-05 0.0000000000e+00 
          4.0987078405e-21 -6.9646771843e-05 0.0000000000e+00 
          1.2482283920e-20 -7.0063522490e-05 0.0000000000e+00 
          2.9161239964e-20 -7.0448419449e-05 0.0000000000e+00 
          9.9863818885e-21 -7.0801277001e-05 0.0000000000e+00 
          -2.6303159919e-21 -7.1122343304e-05 0.0000000000e+00 
          1.9722977151e-20 -7.1411107945e-05 0.0000000000e+00 
          8.4648937255e-21 -7.1670390328e-05 0.0000000000e+00 
          1.6835607019e-20 -7.1900821131e-05 0.0000000000e+00 
          1.8324903034e-20 -7.2104211630e-05 0.0000000000e+00 
          6.4941259478e-21 -7.2283904053e-05 0.0000000000e+00 
          1.8804453466e-20 -7.2441434572e-05 0.0000000000e+00 
          3.6840006498e-21 -7.2577044885e-05 0.0000000000e+00 
          1.3346394837e-20 -7.2692482521e-05 0.0000000000e+00 
          1.7520877837e-20 -7.2786704131e-05 0.0000000000e+00 
          -6.2828677377e-21 -7.2859026246e-05 0.0000000000e+00 
          1.9412919544e-20 -7.2911226434e-05 0.0000000000e+00 
          3.4006514490e-21 -7.2942689300e-05 0.0000000000e+00 
          -1.6827786854e-20 -5.3425870696e-05 0.0000000000e+00 
          -7.3634769789e-21 -5.4524764612e-05 0.0000000000e+00 
          -3.3541350204e-21 -5.5592381546e-05 0.0000000000e+00 
          -1.5669787319e-20 -5.6627863123e-05 0.0000000000e+00 
          1.6249366811e-21 -5.7628379379e-05 0.0000000000e+00 
          -2.2839601254e-20 -5.8594626579e-05 0.0000000000e+00 
          1.2421691882e-21 -5.9529018438e-05 0.0000000000e+00 
          -2.8824215024e-21 -6.0431967052e-05 0.0000000000e+00 
          1.6393697210e-20 -6.1304121421e-05 0.0000000000e+00 
          4.2797736135e-21 -6.2143077102e-05 0.0000000000e+00 
          9.6456784682e-21 -6.2947673762e-05 0.0000000000e+00 
          9.0523525041e-21 -6.3719098015e-05 0.0000000000e+00 
          -6.1187371264e-21 -6.4457855919e-05 0.0000000000e+00 
          -5.8125178084e-21 -6.5164526143e-05 0.0000000000e+00 
          1.5034439256e-20 -6.5839559180e-05 0.0000000000e+00 
          1.5882195029e-20 -6.6482419284e-05 0.0000000000e+00 
          4.7155526116e-21 -6.7092103913e-05 0.0000000000e+00 
          3.0740347653e-20 -6.7668971677e-05 0.0000000000e+00 
          -3.7286312451e-21 -6.8213723554e-05 0.0000000000e+00 
          1.8905298474e-20 -6.8724600728e-05 0.0000000000e+00 
          1.1114435080e-20 -6.9201254558e-05 0.0000000000e+00 
          4.0987078405e-21 -6.9646771843e-05 0.0000000000e+00 
          1.2482283920e-20 -7.0063522490e-05 0.0000000000e+00 
          2.9161239964e-20 -7.0448419449e-05 0.0000000000e+00 
          9.9863818885e-21 -7.0801277001e-05 0.0000000000e+00 
          -2.6303159919e-21 -7.1122343304e-05 0.0000000000e+00 
          1.9722977151e-20 -7.1411107945e-05 0.0000000000e+00 
          8.4648937255e-21 -7.1670390328e-05 0.0000000000e+00 
          1.6835607019e-20 -7.1900821131e-05 0.0000000000e+00 
          1.8324903034e-20 -7.2104211630e-05 0.0000000000e+00 
          6.4941259478e-21 -7.2283904053e-05 0.0000000000e+00 
          1.8804453466e-20 -7.2441434572e-05 0.0000000000e+00 
          3.6840006498e-21 -7.2577044885e-05 0.0000000000e+00 
          1.3346394837e-20 -7.2692482521e-05 0.0000000000e+00 
          1.7520877837e-20 -7.2786704131e-05 0.0000000000e+00 
          -6.2828677377e-21 -7.2859026246e-05 0.0000000000e+00 
          1.9412919544e-20 -7.2911226434e-05 0.0000000000e+00 
          3.4006514490e-21 -7.2942689300e-05 0.0000000000e+00 
        </DataArray>
        <DataArray type="Float64" Name="Acceleration" NumberOfComponents="3" format="ascii">
          -1.2381357389e-16 3.0660265567e-04 0.0000000000e+00 
          -1.2381357389e-16 3.0660265567e-04 0.0000000000e+00 
          -5.2646727412e-15 -1.8413881054e-03 0.0000000000e+00 
          -5.2646727412e-15 -1.8413881054e-03 0.0000000000e+00 
          2.0215119474e-15 -3.6386622281e-05 0.0000000000e+00 
          -5.1022947008e-16 4.8524883643e-05 0.0000000000e+00 
          -1.9305533967e-15 2.0370769311e-04 0.0000000000e+00 
          2.4485618033e-15 7.1342457986e-04 0.0000000000e+00 
          -3.1400603522e-15 5.8795490242e-04 0.0000000000e+00 
          3.6327514502e-15 1.5277861800e-04 0.0000000000e+00 
          -1.5726765740e-15 7.8955160097e-05 0.0000000000e+00 
          1.0898607378e-15 -3.8219785372e-05 0.0000000000e+00 
          -2.1934282485e-15 3.9507036104e-04 0.0000000000e+00 
          1.9061137633e-15 6.0398241379e-04 0.0000000000e+00 
          -1.7654531387e-15 3.9052673023e-04 0.0000000000e+00 
          2.9053140282e-16 2.9914067006e-04 0.0000000000e+00 
          6.2669877778e-16 1.9486236470e-04 0.0000000000e+00 
          6.0033677511e-16 1.1368173513e-04 0.0000000000e+00 
          -2.1765958764e-16 2.1007822131e-04 0.0000000000e+00 
          -2.0572609219e-15 3.9104178402e-04 0.0000000000e+00 
          3.4654469406e-15 3.2626430605e-04 0.0000000000e+00 
          -4.5401344881e-15 1.9994537118e-04 0.0000000000e+00 
          4.5475753342e-15 5.1677509959e-04 0.0000000000e+00 
          -3.0214386337e-15 5.7984104714e-04 0.0000000000e+00 
          9.1399230917e-16 2.3464054902e-05 0.0000000000e+00 
          1.8559431176e-15 -4.0360261017e-04 0.0000000000e+00 
          -1.0719334241e-15 1.5260955902e-04 0.0000000000e+00 
          -1.6431581928e-15 1.8625709641e-04 0.0000000000e+00 
          1.1129331339e-16 1.4144438467e-04 0.0000000000e+00 
          3.5752265920e-15 2.3342268960e-04 0.0000000000e+00 
          -4.5338025960e-15 -2.7464510495e-04 0.0000000000e+00 
          2.9298623308e-15 -3.8834625125e-04 0.0000000000e+00 
          -4.8965421660e-16 -7.1463781130e-04 0.0000000000e+00 
          -1.8052769549e-15 -1.3169773997e-03 0.0000000000e+00 
          2.4142056338e-15 -1.5938017416e-03 0.0000000000e+00 
          -1.9686191741e-15 -1.6373859223e-03 0.0000000000e+00 
          1.6270136563e-15 -1.9522340107e-03 0.0000000000e+00 
          -1.1784270167e-15 -1.7642528568e-03 0.0000000000e+00 
          -6.8981718254e-16 -1.6410889474e-03 0.0000000000e+00 
          3.5618673778e-15 -1.9614235349e-03 0.0000000000e+00 
          -4.1013183529e-15 -1.8505021943e-03 0.0000000000e+00 
          4.2971042995e-15 -1.7907699519e-03 0.0000000000e+00 
          2.0215119474e-15 -3.6386622281e-05 0.0000000000e+00 
          -5.1022947008e-16 4.8524883643e-05 0.0000000000e+00 
          -1.9305533967e-15 2.0370769311e-04 0.0000000000e+00 
          2.4485618033e-15 7.1342457986e-04 0.0000000000e+00 
          -3.1400603522e-15 5.8795490242e-04 0.0000000000e+00 
          3.6327514502e-15 1.5277861800e-04 0.0000000000e+00 
          -1.5726765740e-15 7.8955160097e-05 0.0000000000e+00 
          1.0898607378e-15 -3.8219785372e-05 0.0000000000e+00 
          -2.1934282485e-15 3.9507036104e-04 0.0000000000e+00 
          1.9061137633e-15 6.0398241379e-04 0.0000000000e+00 
          -1.7654531387e-15 3.9052673023e-04 0.0000000000e+00 
          2.9053140282e-16 2.9914067006e-04 0.0000000000e+00 
          6.2669877778e-16 1.9486236470e-04 0.0000000000e+00 
          6.0033677511e-16 1.1368173513e-04 0.0000000000e+00 
          -2.1765958764e-16 2.1007822131e-04 0.0000000000e+00 
          -2.0572609219e-15 3.9104178402e-04 0.0000000000e+00 
          3.4654469406e-15 3.2626430605e-04 0.0000000000e+00 
          -4.5401344881e-15 1.9994537118e-04 0.0000000000e+00 
          4.5475753342e-15 5.1677509959e-04 0.0000000000e+00 
          -3.0214386337e-15 5.7984104714e-04 0.0000000000e+00 
          9.1399230917e-16 2.3464054902e-05 0.0000000000e+00 
          1.8559431176e-15 -4.0360261017e-04 0.0000000000e+00 
          -1.0719334241e-15 1.5260955902e-04 0.0000000000e+00 
          -1.6431581928e-15 1.8625709641e-04 0.0000000000e+00 
          1.1129331339e-16 1.4144438467e-04 0.0000000000e+00 
          3.5752265920e-15 2.3342268960e-04 0.0000000000e+00 
          -4.5338025960e-15 -2.7464510495e-04 0.0000000000e+00 
          2.9298623308e-15 -3.8834625125e-04 0.0000000000e+00 
          -4.8965421660e-16 -7.1463781130e-04 0.0000000000e+00 
          -1.8052769549e-15 -1.3169773997e-03 0.0000000000e+00 
          2.4142056338e-15 -1.5938017416e-03 0.0000000000e+00 
          -1.9686191741e-15 -1.6373859223e-03 0.0000000000e+00 
          1.6270136563e-15 -1.9522340107e-03 0.0000000000e+00 
          -1.1784270167e-15 -1.7642528568e-03 0.0000000000e+00 
          -6.8981718254e-16 -1.6410889474e-03 0.0000000000e+00 
          3.5618673778e-15 -1.9614235349e-03 0.0000000000e+00 
          -4.1013183529e-15 -1.8505021943e-03 0.0000000000e+00 
          4.2971042995e-15 -1.7907699519e-03 0.0000000000e+00 
        </DataArray>
        <DataArray type="Float64" Name="Reaction" NumberOfComponents="3" format="ascii">
          0.0000000000e+00 0.0000000000e+00 0.0000000000e+00 
          0.0000000000e+00 0.0000000000e+00 0.0000000000e+00 
          0.0000000000e+00 0.0000000000e+00 0.0000000000e+00 
          0.0000000000e+00 0.0000000000e+00 0.0000000000e+00 
          0.0000000000e+00 0.0000000000e+00 0.0000000000e+00 
          0.0000000000e+00 0.0000000000e+00 0.0000000000e+00 
          0.0000000000e+00 0.0000000000e+00 0.0000000000e+00 
          0.0000000000e+00 0.0000000000e+00 0.0000000000e+00 
          0.0000000000e+00 0.0000000000e+00 0.0000000000e+00 
          0.0000000000e+00 0.0000000000e+00 0.0000000000e+00 
          0.0000000000e+00 0.0000000000e+00 0.0000000000e+00 
          0.0000000000e+00 0.0000000000e+00 0.0000000000e+00 
          0.0000000000e+00 0.0000000000e+00 0.0000000000e+00 
          0.0000000000e+00 0.0000000000e+00 0.0000000000e+00 
          0.0000000000e+00 0.0000000000e+00 0.0000000000e+00 
          0.0000000000e+00 0.0000000000e+00 0.0000000000e+00 
          0.0000000000e+00 0.0000000000e+00 0.0000000000e+00 
          0.0000000000e+00 0.0000000000e+00 0.0000000000e+00 
          0.0000000000e+00 0.0000000000e+00 0.0000000000e+00 
          0.0000000000e+00 0.0000000000e+00 0.0000000000e+00 
          0.0000000000e+00 0.0000000000e+00 0.0000000000e+00 
          0.0000000000e+00 0.0000000000e+00 0.0000000000e+00 
          0.0000000000e+00 0.0000000000e+00 0.0000000000e+00 
          0.0000000000e+00 0.0000000000e+00 0.0000000000e+00 
          0.0000000000e+00 0.0000000000e+00 0.0000000000e+00 
          0.0000000000e+00 0.0000000000e+00 0.0000000000e+00 
          0.0000000000e+00 0.0000000000e+00 0.0000000000e+00 
          0.0000000000e+00 0.0000000000e+00 0.0000000000e+00 
          0.0000000000e+00 0.0000000000e+00 0.0000000000e+00 
          0.0000000000e+00 0.0000000000e+00 0.0000000000e+00 
          0.0000000000e+00 0.0000000000e+00 0.0000000000e+00 
          0.0000000000e+00 0.0000000000e+00 0.0000000000e+00 
          0.0000000000e+00 0.0000000000e+00 0.0000000000e+00 
          0.0000000000e+00 0.0000000000e+00 0.0000000000e+00 
          0.0000000000e+00 0.0000000000e+00 0.0000000000e+00 
          0.0000000000e+00 0.0000000000e+00 0.0000000000e+00 
          0.0000000000e+00 0.0000000000e+00 0.0000000000e+00 
          0.0000000000e+00 0.0000000000e+00 0.0000000000e+00 
          0.0000000000e+00 0.0000000000e+00 0.0000000000e+00 
          0.0000000000e+00 0.0000000000e+00 0.0000000000e+00 
          0.0000000000e+00 0.0000000000e+00 0.0000000000e+00 
          0.0000000000e+00 0.0000000000e+00 0.0000000000e+00 
          0.0000000000e+00 0.0000000000e+00 0.0000000000e+00 
          0.0000000000e+00 0.0000000000e+00 0.0000000000e+00 
          0.0000000000e+00 0.0000000000e+00 0.0000000000e+00 
          0.0000000000e+00 0.0000000000e+00 0.0000000000e+00 
          0.0000000000e+00 0.0000000000e+00 0.0000000000e+00 
          0.0000000000e+00 0.0000000000e+00 0.0000000000e+00 
          0.0000000000e+00 0.0000000000e+00 0.0000000000e+00 
          0.0000000000e+00 0.0000000000e+00 0.0000000000e+00 
          0.0000000000e+00 0.0000000000e+00 0.0000000000e+00 
          0.0000000000e+00 0.0000000000e+00 0.0000000000e+00 
          0.0000000000e+00 0.0000000000e+00 0.0000000000e+00 
          0.0000000000e+00 0.0000000000e+00 0.0000000000e+00 
          0.0000000000e+00 0.0000000000e+00 0.0000000000e+00 
          0.0000000000e+00 0.0000000000e+00 0.0000000000e+00 
          0.0000000000e+00 0.0000000000e+00 0.0000000000e+00 
          0.0000000000e+00 0.0000000000e+00 0.0000000000e+00 
          0.0000000000e+00 0.0000000000e+00 0.0000000000e+00 
          0.0000000000e+00 0.0000000000e+00 0.0000000000e+00 
          0.0000000000e+00 0.0000000000e+00 0.0000000000e+00 
          0.0000000000e+00 0.0000000000e+00 0.0000000000e+00 
          0.0000000000e+00 0.0000000000e+00 0.0000000000e+00 
          0.0000000000e+00 0.0000000000e+00 0.0000000000e+00 
          0.0000000000e+00 0.0000000000e+00 0.0000000000e+00 
          0.0000000000e+00 0.0000000000e+00 0.0000000000e+00 
          0.0000000000e+00 0.0000000000e+00 0.0000000000e+00 
          0.0000000000e+00 0.0000000000e+00 0.0000000000e+00 
          0.0000000000e+00 0.0000000000e+00 0.0000000000e+00 
          0.0000000000e+00 0.0000000000e+00 0.0000000000e+00 
          0.0000000000e+00 0.0000000000e+00 0.0000000000e+00 
          0.0000000000e+00 0.0000000000e+00 0.0000000000e+00 
          0.0000000000e+00 0.0000000000e+00 0.0000000000e+00 
          0.0000000000e+00 0.0000000000e+00 0.0000000000e+00 
          0.0000000000e+00 0.0000000000e+00 0.0000000000e+00 
          0.0000000000e+00 0.0000000000e+00 0.0000000000e+00 
          0.0000000000e+00 0.0000000000e+00 0.0000000000e+00 
          0.0000000000e+00 0.0000000000e+00 0.0000000000e+00 
          0.0000000000e+00 0.0000000000e+00 0.0000000000e+00 
          0.0000000000e+00 0.0000000000e+00 0.0000000000e+00 
        </DataArray>
      </PointData>
      <CellData>
        <DataArray type="Int64" Name="ElementTag" format="ascii">
          90
          91
          92
          93
          94
          95
          96
          97
          98
          99
          100
          101
          102
          103
          104
          105
          106
          107
          108
          109
          110
          111
          112
          113
          114
          115
          116
          117
          118
          119
          120
          121
          122
          123
          124
          125
          126
          127
          128
        </DataArray>
      </CellData>
    </Piece>
  </UnstructuredGrid>
</VTKFile>
