<?xml version="1.0"?>
<VTKFile type="UnstructuredGrid" version="1.0" byte_order="LittleEndian" compressor="vtkZLibDataCompressor">
  <UnstructuredGrid>
    <Piece NumberOfPoints="82" NumberOfCells="1">
      <Points>
        <DataArray type="Float64" Name="Points" NumberOfComponents="3" format="ascii">
          0.0000000000e+00 0.0000000000e+00 0.0000000000e+00 
          2.5000000000e-01 0.0000000000e+00 0.0000000000e+00 
          2.5000000000e-01 3.0000000000e+01 0.0000000000e+00 
          0.0000000000e+00 3.0000000000e+01 0.0000000000e+00 
          0.0000000000e+00 -5.0000000000e+00 0.0000000000e+00 
          2.5000000000e-01 -5.0000000000e+00 0.0000000000e+00 
          2.5000000000e-01 7.6923100000e-01 0.0000000000e+00 
          2.5000000000e-01 1.5384620000e+00 0.0000000000e+00 
          2.5000000000e-01 2.3076920000e+00 0.0000000000e+00 
          2.5000000000e-01 3.0769230000e+00 0.0000000000e+00 
          2.5000000000e-01 3.8461540000e+00 0.0000000000e+00 
          2.5000000000e-01 4.6153850000e+00 0.0000000000e+00 
          2.5000000000e-01 5.3846150000e+00 0.0000000000e+00 
          2.5000000000e-01 6.1538460000e+00 0.0000000000e+00 
          2.5000000000e-01 6.9230770000e+00 0.0000000000e+00 
          2.5000000000e-01 7.6923080000e+00 0.0000000000e+00 
          2.5000000000e-01 8.4615380000e+00 0.0000000000e+00 
          2.5000000000e-01 9.2307690000e+00 0.0000000000e+00 
          2.5000000000e-01 1.0000000000e+01 0.0000000000e+00 
          2.5000000000e-01 1.0769231000e+01 0.0000000000e+00 
          2.5000000000e-01 1.1538462000e+01 0.0000000000e+00 
          2.5000000000e-01 1.2307692000e+01 0.0000000000e+00 
          2.5000000000e-01 1.3076923000e+01 0.0000000000e+00 
          2.5000000000e-01 1.3846154000e+01 0.0000000000e+00 
          2.5000000000e-01 1.4615385000e+01 0.0000000000e+00 
          2.5000000000e-01 1.5384615000e+01 0.0000000000e+00 
          2.5000000000e-01 1.6153846000e+01 0.0000000000e+00 
          2.5000000000e-01 1.6923077000e+01 0.0000000000e+00 
          2.5000000000e-01 1.7692308000e+01 0.0000000000e+00 
          2.5000000000e-01 1.8461538000e+01 0.0000000000e+00 
          2.5000000000e-01 1.9230769000e+01 0.0000000000e+00 
          2.5000000000e-01 2.0000000000e+01 0.0000000000e+00 
          2.5000000000e-01 2.0769231000e+01 0.0000000000e+00 
          2.5000000000e-01 2.1538462000e+01 0.0000000000e+00 
          2.5000000000e-01 2.2307692000e+01 0.0000000000e+00 
          2.5000000000e-01 2.3076923000e+01 0.0000000000e+00 
          2.5000000000e-01 2.3846154000e+01 0.0000000000e+00 
          2.5000000000e-01 2.4615385000e+01 0.0000000000e+00 
          2.5000000000e-01 2.5384615000e+01 0.0000000000e+00 
          2.5000000000e-01 2.6153846000e+01 0.0000000000e+00 
          2.5000000000e-01 2.6923077000e+01 0.0000000000e+00 
          2.5000000000e-01 2.7692308000e+01 0.0000000000e+00 
          2.5000000000e-01 2.8461538000e+01 0.0000000000e+00 
          2.5000000000e-01 2.9230769000e+01 0.0000000000e+00 
          0.0000000000e+00 7.6923100000e-01 0.0000000000e+00 
          0.0000000000e+00 1.5384620000e+00 0.0000000000e+00 
          0.0000000000e+00 2.3076920000e+00 0.0000000000e+00 
          0.0000000000e+00 3.0769230000e+00 0.0000000000e+00 
          0.0000000000e+00 3.8461540000e+00 0.0000000000e+00 
          0.0000000000e+00 4.6153850000e+00 0.0000000000e+00 
          0.0000000000e+00 5.3846150000e+00 0.0000000000e+00 
          0.0000000000e+00 6.1538460000e+00 0.0000000000e+00 
          0.0000000000e+00 6.9230770000e+00 0.0000000000e+00 
          0.0000000000e+00 7.6923080000e+00 0.0000000000e+00 
          0.0000000000e+00 8.4615380000e+00 0.0000000000e+00 
          0.0000000000e+00 9.2307690000e+00 0.0000000000e+00 
          0.0000000000e+00 1.0000000000e+01 0.0000000000e+00 
          0.0000000000e+00 1.0769231000e+01 0.0000000000e+00 
          0.0000000000e+00 1.1538462000e+01 0.0000000000e+00 
          0.0000000000e+00 1.2307692000e+01 0.0000000000e+00 
          0.0000000000e+00 1.3076923000e+01 0.0000000000e+00 
          0.0000000000e+00 1.3846154000e+01 0.0000000000e+00 
          0.0000000000e+00 1.4615385000e+01 0.0000000000e+00 
          0.0000000000e+00 1.5384615000e+01 0.0000000000e+00 
          0.0000000000e+00 1.6153846000e+01 0.0000000000e+00 
          0.0000000000e+00 1.6923077000e+01 0.0000000000e+00 
          0.0000000000e+00 1.7692308000e+01 0.0000000000e+00 
          0.0000000000e+00 1.8461538000e+01 0.0000000000e+00 
          0.0000000000e+00 1.9230769000e+01 0.0000000000e+00 
          0.0000000000e+00 2.0000000000e+01 0.0000000000e+00 
          0.0000000000e+00 2.0769231000e+01 0.0000000000e+00 
          0.0000000000e+00 2.1538462000e+01 0.0000000000e+00 
          0.0000000000e+00 2.2307692000e+01 0.0000000000e+00 
          0.0000000000e+00 2.3076923000e+01 0.0000000000e+00 
          0.0000000000e+00 2.3846154000e+01 0.0000000000e+00 
          0.0000000000e+00 2.4615385000e+01 0.0000000000e+00 
          0.0000000000e+00 2.5384615000e+01 0.0000000000e+00 
          0.0000000000e+00 2.6153846000e+01 0.0000000000e+00 
          0.0000000000e+00 2.6923077000e+01 0.0000000000e+00 
          0.0000000000e+00 2.7692308000e+01 0.0000000000e+00 
          0.0000000000e+00 2.8461538000e+01 0.0000000000e+00 
          0.0000000000e+00 2.9230769000e+01 0.0000000000e+00 
        </DataArray>
      </Points>
      <Cells>
        <DataArray type="Int64" Name="connectivity" format="ascii">
          0
          1
          2
          3
          4
          5
          6
          7
          8
          9
          10
          11
          12
          13
          14
          15
          16
          17
          18
          19
          20
          21
          22
          23
          24
          25
          26
          27
          28
          29
          30
          31
          32
          33
          34
          35
          36
          37
          38
          39
          40
          41
          42
          43
          44
          45
          46
          47
          48
          49
          50
          51
          52
          53
          54
          55
          56
          57
          58
          59
          60
          61
          62
          63
          64
          65
          66
          67
          68
          69
          70
          71
          72
          73
          74
          75
          76
          77
          78
          79
          80
          81
        </DataArray>
        <DataArray type="Int64" Name="offsets" format="ascii">
          82
        </DataArray>
        <DataArray type="Int64" Name="types" format="ascii">
          2
        </DataArray>
      </Cells>
      <PointData>
        <DataArray type="Int64" Name="NodeTag" format="ascii">
          1
          2
          3
          4
          5
          6
          7
          8
          9
          10
          11
          12
          13
          14
          15
          16
          17
          18
          19
          20
          21
          22
          23
          24
          25
          26
          27
          28
          29
          30
          31
          32
          33
          34
          35
          36
          37
          38
          39
          40
          41
          42
          43
          44
          45
          46
          47
          48
          49
          50
          51
          52
          53
          54
          55
          56
          57
          58
          59
          60
          61
          62
          63
          64
          65
          66
          67
          68
          69
          70
          71
          72
          73
          74
          75
          76
          77
          78
          79
          80
          81
          82
        </DataArray>
        <DataArray type="Float64" Name="Velocity" NumberOfComponents="3" format="ascii">
          3.1117168346e-04 -7.7849808711e-05 0.0000000000e+00 
          3.1117168346e-04 -7.7849808711e-05 0.0000000000e+00 
          1.9998926233e-03 -7.7912739781e-05 0.0000000000e+00 
          1.9998926233e-03 -7.7912739781e-05 0.0000000000e+00 
          0.0000000000e+00 0.0000000000e+00 0.0000000000e+00 
          0.0000000000e+00 0.0000000000e+00 0.0000000000e+00 
          3.8498566222e-04 -7.7851214579e-05 0.0000000000e+00 
          4.5804254593e-04 -7.7852678019e-05 0.0000000000e+00 
          5.3023268816e-04 -7.7848279496e-05 0.0000000000e+00 
          6.0150150575e-04 -7.7849753422e-05 0.0000000000e+00 
          6.7174679098e-04 -7.7848857514e-05 0.0000000000e+00 
          7.4089529941e-04 -7.7850914716e-05 0.0000000000e+00 
          8.0887714844e-04 -7.7856026508e-05 0.0000000000e+00 
          8.7559928472e-04 -7.7846052685e-05 0.0000000000e+00 
          9.4100396039e-04 -7.7861261905e-05 0.0000000000e+00 
          1.0050060139e-03 -7.7834804276e-05 0.0000000000e+00 
          1.0675430984e-03 -7.7871082057e-05 0.0000000000e+00 
          1.1285382873e-03 -7.7827223160e-05 0.0000000000e+00 
          1.1879343190e-03 -7.7882518920e-05 0.0000000000e+00 
          1.2456552456e-03 -7.7810764566e-05 0.0000000000e+00 
          1.3016473779e-03 -7.7885319896e-05 0.0000000000e+00 
          1.3558457572e-03 -7.7816414315e-05 0.0000000000e+00 
          1.4081863221e-03 -7.7875255142e-05 0.0000000000e+00 
          1.4586249207e-03 -7.7824353795e-05 0.0000000000e+00 
          1.5070876574e-03 -7.7870964040e-05 0.0000000000e+00 
          1.5535449135e-03 -7.7843135310e-05 0.0000000000e+00 
          1.5979300169e-03 -7.7810234666e-05 0.0000000000e+00 
          1.6401882462e-03 -7.7908581136e-05 0.0000000000e+00 
          1.6803058925e-03 -7.7804128993e-05 0.0000000000e+00 
          1.7181980763e-03 -7.7863024134e-05 0.0000000000e+00 
          1.7538497400e-03 -7.7831182999e-05 0.0000000000e+00 
          1.7872227078e-03 -7.7894707003e-05 0.0000000000e+00 
          1.8182571298e-03 -7.7795688566e-05 0.0000000000e+00 
          1.8469541357e-03 -7.7855919583e-05 0.0000000000e+00 
          1.8732480640e-03 -7.7910778275e-05 0.0000000000e+00 
          1.8971309124e-03 -7.7749341409e-05 0.0000000000e+00 
          1.9185741060e-03 -7.7929210152e-05 0.0000000000e+00 
          1.9375453279e-03 -7.7818601741e-05 0.0000000000e+00 
          1.9540336149e-03 -7.7819285972e-05 0.0000000000e+00 
          1.9680133016e-03 -7.7923124667e-05 0.0000000000e+00 
          1.9794731045e-03 -7.7765310886e-05 0.0000000000e+00 
          1.9884003120e-03 -7.7896128833e-05 0.0000000000e+00 
          1.9947839465e-03 -7.7863137531e-05 0.0000000000e+00 
          1.9986161966e-03 -7.7793643575e-05 0.0000000000e+00 
          3.8498566222e-04 -7.7851214579e-05 0.0000000000e+00 
          4.5804254593e-04 -7.7852678019e-05 0.0000000000e+00 
          5.3023268816e-04 -7.7848279496e-05 0.0000000000e+00 
          6.0150150575e-04 -7.7849753422e-05 0.0000000000e+00 
          6.7174679098e-04 -7.7848857514e-05 0.0000000000e+00 
          7.4089529941e-04 -7.7850914716e-05 0.0000000000e+00 
          8.0887714844e-04 -7.7856026508e-05 0.0000000000e+00 
          8.7559928472e-04 -7.7846052685e-05 0.0000000000e+00 
          9.4100396039e-04 -7.7861261905e-05 0.0000000000e+00 
          1.0050060139e-03 -7.7834804276e-05 0.0000000000e+00 
          1.0675430984e-03 -7.7871082057e-05 0.0000000000e+00 
          1.1285382873e-03 -7.7827223160e-05 0.0000000000e+00 
          1.1879343190e-03 -7.7882518920e-05 0.0000000000e+00 
          1.2456552456e-03 -7.7810764566e-05 0.0000000000e+00 
          1.3016473779e-03 -7.7885319896e-05 0.0000000000e+00 
          1.3558457572e-03 -7.7816414315e-05 0.0000000000e+00 
          1.4081863221e-03 -7.7875255142e-05 0.0000000000e+00 
          1.4586249207e-03 -7.7824353795e-05 0.0000000000e+00 
          1.5070876574e-03 -7.7870964040e-05 0.0000000000e+00 
          1.5535449135e-03 -7.7843135310e-05 0.0000000000e+00 
          1.5979300169e-03 -7.7810234666e-05 0.0000000000e+00 
          1.6401882462e-03 -7.7908581136e-05 0.0000000000e+00 
          1.6803058925e-03 -7.7804128993e-05 0.0000000000e+00 
          1.7181980763e-03 -7.7863024134e-05 0.0000000000e+00 
          1.7538497400e-03 -7.7831182999e-05 0.0000000000e+00 
          1.7872227078e-03 -7.7894707003e-05 0.0000000000e+00 
          1.8182571298e-03 -7.7795688566e-05 0.0000000000e+00 
          1.8469541357e-03 -7.7855919583e-05 0.0000000000e+00 
          1.8732480640e-03 -7.7910778275e-05 0.0000000000e+00 
          1.8971309124e-03 -7.7749341409e-05 0.0000000000e+00 
          1.9185741060e-03 -7.7929210152e-05 0.0000000000e+00 
          1.9375453279e-03 -7.7818601741e-05 0.0000000000e+00 
          1.9540336149e-03 -7.7819285972e-05 0.0000000000e+00 
          1.9680133016e-03 -7.7923124667e-05 0.0000000000e+00 
          1.9794731045e-03 -7.7765310886e-05 0.0000000000e+00 
          1.9884003120e-03 -7.7896128833e-05 0.0000000000e+00 
          1.9947839465e-03 -7.7863137531e-05 0.0000000000e+00 
          1.9986161966e-03 -7.7793643575e-05 0.0000000000e+00 
        </DataArray>
        <DataArray type="Float64" Name="Displacement" NumberOfComponents="3" format="ascii">
          -3.6584168444e-05 -4.4266779248e-04 0.0000000000e+00 
          -3.6584168444e-05 -4.4266779248e-04 0.0000000000e+00 
          1.0209506865e-04 -4.6624983737e-04 0.0000000000e+00 
          1.0209506865e-04 -4.6624983737e-04 0.0000000000e+00 
          0.0000000000e+00 0.0000000000e+00 0.0000000000e+00 
          0.0000000000e+00 0.0000000000e+00 0.0000000000e+00 
          -3.1391856467e-05 -4.4386161924e-04 0.0000000000e+00 
          -2.6161317470e-05 -4.4502445154e-04 0.0000000000e+00 
          -2.0903914983e-05 -4.4615624915e-04 0.0000000000e+00 
          -1.5631023802e-05 -4.4725708116e-04 0.0000000000e+00 
          -1.0354016044e-05 -4.4832685573e-04 0.0000000000e+00 
          -5.0841831337e-06 -4.4936568725e-04 0.0000000000e+00 
          1.6719388783e-07 -4.5037342908e-04 0.0000000000e+00 
          5.3889522093e-06 -4.5135024918e-04 0.0000000000e+00 
          1.0570058356e-05 -4.5229596515e-04 0.0000000000e+00 
          1.5699547308e-05 -4.5321077719e-04 0.0000000000e+00 
          2.0766686597e-05 -4.5409447803e-04 0.0000000000e+00 
          2.5760883932e-05 -4.5494726730e-04 0.0000000000e+00 
          3.0671706416e-05 -4.5576897083e-04 0.0000000000e+00 
          3.5489045739e-05 -4.5655971229e-04 0.0000000000e+00 
          4.0202898329e-05 -4.5731942472e-04 0.0000000000e+00 
          4.4803609087e-05 -4.5804811687e-04 0.0000000000e+00 
          4.9281783139e-05 -4.5874586078e-04 0.0000000000e+00 
          5.3628264909e-05 -4.5941245438e-04 0.0000000000e+00 
          5.7834269917e-05 -4.6004824411e-04 0.0000000000e+00 
          6.1891277978e-05 -4.6065282637e-04 0.0000000000e+00 
          6.5791146994e-05 -4.6122654540e-04 0.0000000000e+00 
          6.9526060036e-05 -4.6176911153e-04 0.0000000000e+00 
          7.3088539822e-05 -4.6228086387e-04 0.0000000000e+00 
          7.6471531167e-05 -4.6276141759e-04 0.0000000000e+00 
          7.9668327081e-05 -4.6321099024e-04 0.0000000000e+00 
          8.2672598053e-05 -4.6362979431e-04 0.0000000000e+00 
          8.5478458266e-05 -4.6401721935e-04 0.0000000000e+00 
          8.8080370452e-05 -4.6437388173e-04 0.0000000000e+00 
          9.0473286045e-05 -4.6469948237e-04 0.0000000000e+00 
          9.2652509670e-05 -4.6499406071e-04 0.0000000000e+00 
          9.4613807461e-05 -4.6525761671e-04 0.0000000000e+00 
          9.6353385676e-05 -4.6549019173e-04 0.0000000000e+00 
          9.7867857921e-05 -4.6569177595e-04 0.0000000000e+00 
          9.9154320116e-05 -4.6586224744e-04 0.0000000000e+00 
          1.0021025801e-04 -4.6600192574e-04 0.0000000000e+00 
          1.0103367702e-04 -4.6611033093e-04 0.0000000000e+00 
          1.0162295342e-04 -4.6618788646e-04 0.0000000000e+00 
          1.0197696847e-04 -4.6623449509e-04 0.0000000000e+00 
          -3.1391856467e-05 -4.4386161924e-04 0.0000000000e+00 
          -2.6161317470e-05 -4.4502445154e-04 0.0000000000e+00 
          -2.0903914983e-05 -4.4615624915e-04 0.0000000000e+00 
          -1.5631023802e-05 -4.4725708116e-04 0.0000000000e+00 
          -1.0354016044e-05 -4.4832685573e-04 0.0000000000e+00 
          -5.0841831337e-06 -4.4936568725e-04 0.0000000000e+00 
          1.6719388783e-07 -4.5037342908e-04 0.0000000000e+00 
          5.3889522093e-06 -4.5135024918e-04 0.0000000000e+00 
          1.0570058356e-05 -4.5229596515e-04 0.0000000000e+00 
          1.5699547308e-05 -4.5321077719e-04 0.0000000000e+00 
          2.0766686597e-05 -4.5409447803e-04 0.0000000000e+00 
          2.5760883932e-05 -4.5494726730e-04 0.0000000000e+00 
          3.0671706416e-05 -4.5576897083e-04 0.0000000000e+00 
          3.5489045739e-05 -4.5655971229e-04 0.0000000000e+00 
          4.0202898329e-05 -4.5731942472e-04 0.0000000000e+00 
          4.4803609087e-05 -4.5804811687e-04 0.0000000000e+00 
          4.9281783139e-05 -4.5874586078e-04 0.0000000000e+00 
          5.3628264909e-05 -4.5941245438e-04 0.0000000000e+00 
          5.7834269917e-05 -4.6004824411e-04 0.0000000000e+00 
          6.1891277978e-05 -4.6065282637e-04 0.0000000000e+00 
          6.5791146994e-05 -4.6122654540e-04 0.0000000000e+00 
          6.9526060036e-05 -4.6176911153e-04 0.0000000000e+00 
          7.3088539822e-05 -4.6228086387e-04 0.0000000000e+00 
          7.6471531167e-05 -4.6276141759e-04 0.0000000000e+00 
          7.9668327081e-05 -4.6321099024e-04 0.0000000000e+00 
          8.2672598053e-05 -4.6362979431e-04 0.0000000000e+00 
          8.5478458266e-05 -4.6401721935e-04 0.0000000000e+00 
          8.8080370452e-05 -4.6437388173e-04 0.0000000000e+00 
          9.0473286045e-05 -4.6469948237e-04 0.0000000000e+00 
          9.2652509670e-05 -4.6499406071e-04 0.0000000000e+00 
          9.4613807461e-05 -4.6525761671e-04 0.0000000000e+00 
          9.6353385676e-05 -4.6549019173e-04 0.0000000000e+00 
          9.7867857921e-05 -4.6569177595e-04 0.0000000000e+00 
          9.9154320116e-05 -4.6586224744e-04 0.0000000000e+00 
          1.0021025801e-04 -4.6600192574e-04 0.0000000000e+00 
          1.0103367702e-04 -4.6611033093e-04 0.0000000000e+00 
          1.0162295342e-04 -4.6618788646e-04 0.0000000000e+00 
          1.0197696847e-04 -4.6623449509e-04 0.0000000000e+00 
        </DataArray>
        <DataArray type="Float64" Name="Acceleration" NumberOfComponents="3" format="ascii">
          4.4653306354e-03 -6.7022068173e-08 0.0000000000e+00 
          4.4653306354e-03 -6.7022068173e-08 0.0000000000e+00 
          -2.1282119219e-02 -5.7985476167e-05 0.0000000000e+00 
          -2.1282119219e-02 -5.7985476167e-05 0.0000000000e+00 
          0.0000000000e+00 0.0000000000e+00 0.0000000000e+00 
          0.0000000000e+00 0.0000000000e+00 0.0000000000e+00 
          3.4443299750e-03 -2.1382385132e-06 0.0000000000e+00 
          2.4210709247e-03 4.8471793733e-06 0.0000000000e+00 
          1.3949470272e-03 -7.0717299832e-06 0.0000000000e+00 
          3.7091168952e-04 9.2075257569e-06 0.0000000000e+00 
          -6.4646799916e-04 -1.1402678538e-05 0.0000000000e+00 
          -1.6622979644e-03 1.4787463857e-05 0.0000000000e+00 
          -2.6693202037e-03 -1.5006746264e-05 0.0000000000e+00 
          -3.6628412173e-03 1.7621422878e-05 0.0000000000e+00 
          -4.6508112146e-03 -1.8453181383e-05 0.0000000000e+00 
          -5.6172378792e-03 1.8694541130e-05 0.0000000000e+00 
          -6.5728118846e-03 -1.6868256120e-05 0.0000000000e+00 
          -7.5122387651e-03 1.4309460345e-05 0.0000000000e+00 
          -8.4230173238e-03 -7.9781454872e-06 0.0000000000e+00 
          -9.3243591268e-03 4.0909946382e-06 0.0000000000e+00 
          -1.0193770197e-02 2.3443756255e-06 0.0000000000e+00 
          -1.1041345273e-02 -1.0295595401e-05 0.0000000000e+00 
          -1.1865734612e-02 2.5945192256e-05 0.0000000000e+00 
          -1.2657233785e-02 -3.6484502862e-05 0.0000000000e+00 
          -1.3424452617e-02 3.6106955479e-05 0.0000000000e+00 
          -1.4159022664e-02 -2.5644884852e-05 0.0000000000e+00 
          -1.4862859041e-02 2.6412995834e-05 0.0000000000e+00 
          -1.5536576920e-02 -3.4698299493e-05 0.0000000000e+00 
          -1.6171877231e-02 3.4540667351e-05 0.0000000000e+00 
          -1.6776983217e-02 -4.4371028721e-06 0.0000000000e+00 
          -1.7346877527e-02 -4.2843772302e-05 0.0000000000e+00 
          -1.7877201142e-02 6.7159803463e-05 0.0000000000e+00 
          -1.8376120066e-02 -4.3909628776e-05 0.0000000000e+00 
          -1.8830737619e-02 9.9095896570e-06 0.0000000000e+00 
          -1.9254361211e-02 2.9563872955e-06 0.0000000000e+00 
          -1.9635548000e-02 2.8835639239e-06 0.0000000000e+00 
          -1.9977371571e-02 -4.5690768323e-06 0.0000000000e+00 
          -2.0282328310e-02 -2.8429516162e-06 0.0000000000e+00 
          -2.0544346513e-02 1.9224336432e-05 0.0000000000e+00 
          -2.0770694948e-02 -3.8411586711e-05 0.0000000000e+00 
          -2.0950410012e-02 4.8074331188e-05 0.0000000000e+00 
          -2.1096657242e-02 -2.8249708237e-05 0.0000000000e+00 
          -2.1197594177e-02 -1.0687834809e-05 0.0000000000e+00 
          -2.1256395840e-02 4.6855201753e-05 0.0000000000e+00 
          3.4443299750e-03 -2.1382385132e-06 0.0000000000e+00 
          2.4210709247e-03 4.8471793733e-06 0.0000000000e+00 
          1.3949470272e-03 -7.0717299832e-06 0.0000000000e+00 
          3.7091168952e-04 9.2075257569e-06 0.0000000000e+00 
          -6.4646799916e-04 -1.1402678538e-05 0.0000000000e+00 
          -1.6622979644e-03 1.4787463857e-05 0.0000000000e+00 
          -2.6693202037e-03 -1.5006746264e-05 0.0000000000e+00 
          -3.6628412173e-03 1.7621422878e-05 0.0000000000e+00 
          -4.6508112146e-03 -1.8453181383e-05 0.0000000000e+00 
          -5.6172378792e-03 1.8694541130e-05 0.0000000000e+00 
          -6.5728118846e-03 -1.6868256120e-05 0.0000000000e+00 
          -7.5122387651e-03 1.4309460345e-05 0.0000000000e+00 
          -8.4230173238e-03 -7.9781454872e-06 0.0000000000e+00 
          -9.3243591268e-03 4.0909946382e-06 0.0000000000e+00 
          -1.0193770197e-02 2.3443756255e-06 0.0000000000e+00 
          -1.1041345273e-02 -1.0295595401e-05 0.0000000000e+00 
          -1.1865734612e-02 2.5945192256e-05 0.0000000000e+00 
          -1.2657233785e-02 -3.6484502862e-05 0.0000000000e+00 
          -1.3424452617e-02 3.6106955479e-05 0.0000000000e+00 
          -1.4159022664e-02 -2.5644884852e-05 0.0000000000e+00 
          -1.4862859041e-02 2.6412995834e-05 0.0000000000e+00 
          -1.5536576920e-02 -3.4698299493e-05 0.0000000000e+00 
          -1.6171877231e-02 3.4540667351e-05 0.0000000000e+00 
          -1.6776983217e-02 -4.4371028721e-06 0.0000000000e+00 
          -1.7346877527e-02 -4.2843772302e-05 0.0000000000e+00 
          -1.7877201142e-02 6.7159803463e-05 0.0000000000e+00 
          -1.8376120066e-02 -4.3909628776e-05 0.0000000000e+00 
          -1.8830737619e-02 9.9095896570e-06 0.0000000000e+00 
          -1.9254361211e-02 2.9563872955e-06 0.0000000000e+00 
          -1.9635548000e-02 2.8835639239e-06 0.0000000000e+00 
          -1.9977371571e-02 -4.5690768323e-06 0.0000000000e+00 
          -2.0282328310e-02 -2.8429516162e-06 0.0000000000e+00 
          -2.0544346513e-02 1.9224336432e-05 0.0000000000e+00 
          -2.0770694948e-02 -3.8411586711e-05 0.0000000000e+00 
          -2.0950410012e-02 4.8074331188e-05 0.0000000000e+00 
          -2.1096657242e-02 -2.8249708237e-05 0.0000000000e+00 
          -2.1197594177e-02 -1.0687834809e-05 0.0000000000e+00 
          -2.1256395840e-02 4.6855201753e-05 0.0000000000e+00 
        </DataArray>
        <DataArray type="Float64" Name="Reaction" NumberOfComponents="3" format="ascii">
          0.0000000000e+00 0.0000000000e+00 0.0000000000e+00 
          0.0000000000e+00 0.0000000000e+00 0.0000000000e+00 
          0.0000000000e+00 0.0000000000e+00 0.0000000000e+00 
          0.0000000000e+00 0.0000000000e+00 0.0000000000e+00 
          0.0000000000e+00 0.0000000000e+00 0.0000000000e+00 
          0.0000000000e+00 0.0000000000e+00 0.0000000000e+00 
          0.0000000000e+00 0.0000000000e+00 0.0000000000e+00 
          0.0000000000e+00 0.0000000000e+00 0.0000000000e+00 
          0.0000000000e+00 0.0000000000e+00 0.0000000000e+00 
          0.0000000000e+00 0.0000000000e+00 0.0000000000e+00 
          0.0000000000e+00 0.0000000000e+00 0.0000000000e+00 
          0.0000000000e+00 0.0000000000e+00 0.0000000000e+00 
          0.0000000000e+00 0.0000000000e+00 0.0000000000e+00 
          0.0000000000e+00 0.0000000000e+00 0.0000000000e+00 
          0.0000000000e+00 0.0000000000e+00 0.0000000000e+00 
          0.0000000000e+00 0.0000000000e+00 0.0000000000e+00 
          0.0000000000e+00 0.0000000000e+00 0.0000000000e+00 
          0.0000000000e+00 0.0000000000e+00 0.0000000000e+00 
          0.0000000000e+00 0.0000000000e+00 0.0000000000e+00 
          0.0000000000e+00 0.0000000000e+00 0.0000000000e+00 
          0.0000000000e+00 0.0000000000e+00 0.0000000000e+00 
          0.0000000000e+00 0.0000000000e+00 0.0000000000e+00 
          0.0000000000e+00 0.0000000000e+00 0.0000000000e+00 
          0.0000000000e+00 0.0000000000e+00 0.0000000000e+00 
          0.0000000000e+00 0.0000000000e+00 0.0000000000e+00 
          0.0000000000e+00 0.0000000000e+00 0.0000000000e+00 
          0.0000000000e+00 0.0000000000e+00 0.0000000000e+00 
          0.0000000000e+00 0.0000000000e+00 0.0000000000e+00 
          0.0000000000e+00 0.0000000000e+00 0.0000000000e+00 
          0.0000000000e+00 0.0000000000e+00 0.0000000000e+00 
          0.0000000000e+00 0.0000000000e+00 0.0000000000e+00 
          0.0000000000e+00 0.0000000000e+00 0.0000000000e+00 
          0.0000000000e+00 0.0000000000e+00 0.0000000000e+00 
          0.0000000000e+00 0.0000000000e+00 0.0000000000e+00 
          0.0000000000e+00 0.0000000000e+00 0.0000000000e+00 
          0.0000000000e+00 0.0000000000e+00 0.0000000000e+00 
          0.0000000000e+00 0.0000000000e+00 0.0000000000e+00 
          0.0000000000e+00 0.0000000000e+00 0.0000000000e+00 
          0.0000000000e+00 0.0000000000e+00 0.0000000000e+00 
          0.0000000000e+00 0.0000000000e+00 0.0000000000e+00 
          0.0000000000e+00 0.0000000000e+00 0.0000000000e+00 
          0.0000000000e+00 0.0000000000e+00 0.0000000000e+00 
          0.0000000000e+00 0.0000000000e+00 0.0000000000e+00 
          0.0000000000e+00 0.0000000000e+00 0.0000000000e+00 
          0.0000000000e+00 0.0000000000e+00 0.0000000000e+00 
          0.0000000000e+00 0.0000000000e+00 0.0000000000e+00 
          0.0000000000e+00 0.0000000000e+00 0.0000000000e+00 
          0.0000000000e+00 0.0000000000e+00 0.0000000000e+00 
          0.0000000000e+00 0.0000000000e+00 0.0000000000e+00 
          0.0000000000e+00 0.0000000000e+00 0.0000000000e+00 
          0.0000000000e+00 0.0000000000e+00 0.0000000000e+00 
          0.0000000000e+00 0.0000000000e+00 0.0000000000e+00 
          0.0000000000e+00 0.0000000000e+00 0.0000000000e+00 
          0.0000000000e+00 0.0000000000e+00 0.0000000000e+00 
          0.0000000000e+00 0.0000000000e+00 0.0000000000e+00 
          0.0000000000e+00 0.0000000000e+00 0.0000000000e+00 
          0.0000000000e+00 0.0000000000e+00 0.0000000000e+00 
          0.0000000000e+00 0.0000000000e+00 0.0000000000e+00 
          0.0000000000e+00 0.0000000000e+00 0.0000000000e+00 
          0.0000000000e+00 0.0000000000e+00 0.0000000000e+00 
          0.0000000000e+00 0.0000000000e+00 0.0000000000e+00 
          0.0000000000e+00 0.0000000000e+00 0.0000000000e+00 
          0.0000000000e+00 0.0000000000e+00 0.0000000000e+00 
          0.0000000000e+00 0.0000000000e+00 0.0000000000e+00 
          0.0000000000e+00 0.0000000000e+00 0.0000000000e+00 
          0.0000000000e+00 0.0000000000e+00 0.0000000000e+00 
          0.0000000000e+00 0.0000000000e+00 0.0000000000e+00 
          0.0000000000e+00 0.0000000000e+00 0.0000000000e+00 
          0.0000000000e+00 0.0000000000e+00 0.0000000000e+00 
          0.0000000000e+00 0.0000000000e+00 0.0000000000e+00 
          0.0000000000e+00 0.0000000000e+00 0.0000000000e+00 
          0.0000000000e+00 0.0000000000e+00 0.0000000000e+00 
          0.0000000000e+00 0.0000000000e+00 0.0000000000e+00 
          0.0000000000e+00 0.0000000000e+00 0.0000000000e+00 
          0.0000000000e+00 0.0000000000e+00 0.0000000000e+00 
          0.0000000000e+00 0.0000000000e+00 0.0000000000e+00 
          0.0000000000e+00 0.0000000000e+00 0.0000000000e+00 
          0.0000000000e+00 0.0000000000e+00 0.0000000000e+00 
          0.0000000000e+00 0.0000000000e+00 0.0000000000e+00 
          0.0000000000e+00 0.0000000000e+00 0.0000000000e+00 
          0.0000000000e+00 0.0000000000e+00 0.0000000000e+00 
          0.0000000000e+00 0.0000000000e+00 0.0000000000e+00 
        </DataArray>
      </PointData>
      <CellData>
        <DataArray type="Int64" Name="ElementTag" format="ascii">
          0
        </DataArray>
      </CellData>
    </Piece>
  </UnstructuredGrid>
</VTKFile>
