<?xml version="1.0"?>
<VTKFile type="UnstructuredGrid" version="1.0" byte_order="LittleEndian" compressor="vtkZLibDataCompressor">
  <UnstructuredGrid>
    <Piece NumberOfPoints="82" NumberOfCells="1">
      <Points>
        <DataArray type="Float64" Name="Points" NumberOfComponents="3" format="ascii">
          0.0000000000e+00 0.0000000000e+00 0.0000000000e+00 
          2.5000000000e-01 0.0000000000e+00 0.0000000000e+00 
          2.5000000000e-01 3.0000000000e+01 0.0000000000e+00 
          0.0000000000e+00 3.0000000000e+01 0.0000000000e+00 
          0.0000000000e+00 -5.0000000000e+00 0.0000000000e+00 
          2.5000000000e-01 -5.0000000000e+00 0.0000000000e+00 
          2.5000000000e-01 7.6923100000e-01 0.0000000000e+00 
          2.5000000000e-01 1.5384620000e+00 0.0000000000e+00 
          2.5000000000e-01 2.3076920000e+00 0.0000000000e+00 
          2.5000000000e-01 3.0769230000e+00 0.0000000000e+00 
          2.5000000000e-01 3.8461540000e+00 0.0000000000e+00 
          2.5000000000e-01 4.6153850000e+00 0.0000000000e+00 
          2.5000000000e-01 5.3846150000e+00 0.0000000000e+00 
          2.5000000000e-01 6.1538460000e+00 0.0000000000e+00 
          2.5000000000e-01 6.9230770000e+00 0.0000000000e+00 
          2.5000000000e-01 7.6923080000e+00 0.0000000000e+00 
          2.5000000000e-01 8.4615380000e+00 0.0000000000e+00 
          2.5000000000e-01 9.2307690000e+00 0.0000000000e+00 
          2.5000000000e-01 1.0000000000e+01 0.0000000000e+00 
          2.5000000000e-01 1.0769231000e+01 0.0000000000e+00 
          2.5000000000e-01 1.1538462000e+01 0.0000000000e+00 
          2.5000000000e-01 1.2307692000e+01 0.0000000000e+00 
          2.5000000000e-01 1.3076923000e+01 0.0000000000e+00 
          2.5000000000e-01 1.3846154000e+01 0.0000000000e+00 
          2.5000000000e-01 1.4615385000e+01 0.0000000000e+00 
          2.5000000000e-01 1.5384615000e+01 0.0000000000e+00 
          2.5000000000e-01 1.6153846000e+01 0.0000000000e+00 
          2.5000000000e-01 1.6923077000e+01 0.0000000000e+00 
          2.5000000000e-01 1.7692308000e+01 0.0000000000e+00 
          2.5000000000e-01 1.8461538000e+01 0.0000000000e+00 
          2.5000000000e-01 1.9230769000e+01 0.0000000000e+00 
          2.5000000000e-01 2.0000000000e+01 0.0000000000e+00 
          2.5000000000e-01 2.0769231000e+01 0.0000000000e+00 
          2.5000000000e-01 2.1538462000e+01 0.0000000000e+00 
          2.5000000000e-01 2.2307692000e+01 0.0000000000e+00 
          2.5000000000e-01 2.3076923000e+01 0.0000000000e+00 
          2.5000000000e-01 2.3846154000e+01 0.0000000000e+00 
          2.5000000000e-01 2.4615385000e+01 0.0000000000e+00 
          2.5000000000e-01 2.5384615000e+01 0.0000000000e+00 
          2.5000000000e-01 2.6153846000e+01 0.0000000000e+00 
          2.5000000000e-01 2.6923077000e+01 0.0000000000e+00 
          2.5000000000e-01 2.7692308000e+01 0.0000000000e+00 
          2.5000000000e-01 2.8461538000e+01 0.0000000000e+00 
          2.5000000000e-01 2.9230769000e+01 0.0000000000e+00 
          0.0000000000e+00 7.6923100000e-01 0.0000000000e+00 
          0.0000000000e+00 1.5384620000e+00 0.0000000000e+00 
          0.0000000000e+00 2.3076920000e+00 0.0000000000e+00 
          0.0000000000e+00 3.0769230000e+00 0.0000000000e+00 
          0.0000000000e+00 3.8461540000e+00 0.0000000000e+00 
          0.0000000000e+00 4.6153850000e+00 0.0000000000e+00 
          0.0000000000e+00 5.3846150000e+00 0.0000000000e+00 
          0.0000000000e+00 6.1538460000e+00 0.0000000000e+00 
          0.0000000000e+00 6.9230770000e+00 0.0000000000e+00 
          0.0000000000e+00 7.6923080000e+00 0.0000000000e+00 
          0.0000000000e+00 8.4615380000e+00 0.0000000000e+00 
          0.0000000000e+00 9.2307690000e+00 0.0000000000e+00 
          0.0000000000e+00 1.0000000000e+01 0.0000000000e+00 
          0.0000000000e+00 1.0769231000e+01 0.0000000000e+00 
          0.0000000000e+00 1.1538462000e+01 0.0000000000e+00 
          0.0000000000e+00 1.2307692000e+01 0.0000000000e+00 
          0.0000000000e+00 1.3076923000e+01 0.0000000000e+00 
          0.0000000000e+00 1.3846154000e+01 0.0000000000e+00 
          0.0000000000e+00 1.4615385000e+01 0.0000000000e+00 
          0.0000000000e+00 1.5384615000e+01 0.0000000000e+00 
          0.0000000000e+00 1.6153846000e+01 0.0000000000e+00 
          0.0000000000e+00 1.6923077000e+01 0.0000000000e+00 
          0.0000000000e+00 1.7692308000e+01 0.0000000000e+00 
          0.0000000000e+00 1.8461538000e+01 0.0000000000e+00 
          0.0000000000e+00 1.9230769000e+01 0.0000000000e+00 
          0.0000000000e+00 2.0000000000e+01 0.0000000000e+00 
          0.0000000000e+00 2.0769231000e+01 0.0000000000e+00 
          0.0000000000e+00 2.1538462000e+01 0.0000000000e+00 
          0.0000000000e+00 2.2307692000e+01 0.0000000000e+00 
          0.0000000000e+00 2.3076923000e+01 0.0000000000e+00 
          0.0000000000e+00 2.3846154000e+01 0.0000000000e+00 
          0.0000000000e+00 2.4615385000e+01 0.0000000000e+00 
          0.0000000000e+00 2.5384615000e+01 0.0000000000e+00 
          0.0000000000e+00 2.6153846000e+01 0.0000000000e+00 
          0.0000000000e+00 2.6923077000e+01 0.0000000000e+00 
          0.0000000000e+00 2.7692308000e+01 0.0000000000e+00 
          0.0000000000e+00 2.8461538000e+01 0.0000000000e+00 
          0.0000000000e+00 2.9230769000e+01 0.0000000000e+00 
        </DataArray>
      </Points>
      <Cells>
        <DataArray type="Int64" Name="connectivity" format="ascii">
          0
          1
          2
          3
          4
          5
          6
          7
          8
          9
          10
          11
          12
          13
          14
          15
          16
          17
          18
          19
          20
          21
          22
          23
          24
          25
          26
          27
          28
          29
          30
          31
          32
          33
          34
          35
          36
          37
          38
          39
          40
          41
          42
          43
          44
          45
          46
          47
          48
          49
          50
          51
          52
          53
          54
          55
          56
          57
          58
          59
          60
          61
          62
          63
          64
          65
          66
          67
          68
          69
          70
          71
          72
          73
          74
          75
          76
          77
          78
          79
          80
          81
        </DataArray>
        <DataArray type="Int64" Name="offsets" format="ascii">
          82
        </DataArray>
        <DataArray type="Int64" Name="types" format="ascii">
          2
        </DataArray>
      </Cells>
      <PointData>
        <DataArray type="Int64" Name="NodeTag" format="ascii">
          1
          2
          3
          4
          5
          6
          7
          8
          9
          10
          11
          12
          13
          14
          15
          16
          17
          18
          19
          20
          21
          22
          23
          24
          25
          26
          27
          28
          29
          30
          31
          32
          33
          34
          35
          36
          37
          38
          39
          40
          41
          42
          43
          44
          45
          46
          47
          48
          49
          50
          51
          52
          53
          54
          55
          56
          57
          58
          59
          60
          61
          62
          63
          64
          65
          66
          67
          68
          69
          70
          71
          72
          73
          74
          75
          76
          77
          78
          79
          80
          81
          82
        </DataArray>
        <DataArray type="Float64" Name="Velocity" NumberOfComponents="3" format="ascii">
          -4.1126805949e-05 -7.7841933988e-05 0.0000000000e+00 
          -4.1126805949e-05 -7.7841933988e-05 0.0000000000e+00 
          -2.6006534110e-04 -7.7895540302e-05 0.0000000000e+00 
          -2.6006534110e-04 -7.7895540302e-05 0.0000000000e+00 
          0.0000000000e+00 0.0000000000e+00 0.0000000000e+00 
          0.0000000000e+00 0.0000000000e+00 0.0000000000e+00 
          -5.0708657131e-05 -7.7839607120e-05 0.0000000000e+00 
          -6.0190968569e-05 -7.7850944968e-05 0.0000000000e+00 
          -6.9559226997e-05 -7.7837044754e-05 0.0000000000e+00 
          -7.8807541491e-05 -7.7849539811e-05 0.0000000000e+00 
          -8.7922450779e-05 -7.7846224077e-05 0.0000000000e+00 
          -9.6893004549e-05 -7.7829463037e-05 0.0000000000e+00 
          -1.0571036588e-04 -7.7863020892e-05 0.0000000000e+00 
          -1.1436773074e-04 -7.7840516861e-05 0.0000000000e+00 
          -1.2284622276e-04 -7.7824977706e-05 0.0000000000e+00 
          -1.3115016874e-04 -7.7872244074e-05 0.0000000000e+00 
          -1.3925621179e-04 -7.7831282688e-05 0.0000000000e+00 
          -1.4716557662e-04 -7.7835367494e-05 0.0000000000e+00 
          -1.5486759928e-04 -7.7866861095e-05 0.0000000000e+00 
          -1.6234672526e-04 -7.7820007063e-05 0.0000000000e+00 
          -1.6960863797e-04 -7.7867196313e-05 0.0000000000e+00 
          -1.7663019331e-04 -7.7824438918e-05 0.0000000000e+00 
          -1.8341524661e-04 -7.7860537317e-05 0.0000000000e+00 
          -1.8995157187e-04 -7.7836980240e-05 0.0000000000e+00 
          -1.9623191475e-04 -7.7844669590e-05 0.0000000000e+00 
          -2.0225019271e-04 -7.7851833816e-05 0.0000000000e+00 
          -2.0800321129e-04 -7.7835793499e-05 0.0000000000e+00 
          -2.1347621621e-04 -7.7849118950e-05 0.0000000000e+00 
          -2.1867454472e-04 -7.7852002086e-05 0.0000000000e+00 
          -2.2358392019e-04 -7.7819821612e-05 0.0000000000e+00 
          -2.2819983280e-04 -7.7887314244e-05 0.0000000000e+00 
          -2.3252593229e-04 -7.7798245570e-05 0.0000000000e+00 
          -2.3654310764e-04 -7.7865822281e-05 0.0000000000e+00 
          -2.4026064972e-04 -7.7868028648e-05 0.0000000000e+00 
          -2.4366753380e-04 -7.7787842352e-05 0.0000000000e+00 
          -2.4675847142e-04 -7.7903439698e-05 0.0000000000e+00 
          -2.4953751394e-04 -7.7805568445e-05 0.0000000000e+00 
          -2.5199269507e-04 -7.7861898238e-05 0.0000000000e+00 
          -2.5412948624e-04 -7.7836895169e-05 0.0000000000e+00 
          -2.5593835609e-04 -7.7855438466e-05 0.0000000000e+00 
          -2.5742336123e-04 -7.7833186542e-05 0.0000000000e+00 
          -2.5858002607e-04 -7.7844717447e-05 0.0000000000e+00 
          -2.5940361357e-04 -7.7865411592e-05 0.0000000000e+00 
          -2.5990429078e-04 -7.7803196115e-05 0.0000000000e+00 
          -5.0708657131e-05 -7.7839607120e-05 0.0000000000e+00 
          -6.0190968569e-05 -7.7850944968e-05 0.0000000000e+00 
          -6.9559226997e-05 -7.7837044754e-05 0.0000000000e+00 
          -7.8807541491e-05 -7.7849539811e-05 0.0000000000e+00 
          -8.7922450779e-05 -7.7846224077e-05 0.0000000000e+00 
          -9.6893004549e-05 -7.7829463037e-05 0.0000000000e+00 
          -1.0571036588e-04 -7.7863020892e-05 0.0000000000e+00 
          -1.1436773074e-04 -7.7840516861e-05 0.0000000000e+00 
          -1.2284622276e-04 -7.7824977706e-05 0.0000000000e+00 
          -1.3115016874e-04 -7.7872244074e-05 0.0000000000e+00 
          -1.3925621179e-04 -7.7831282688e-05 0.0000000000e+00 
          -1.4716557662e-04 -7.7835367494e-05 0.0000000000e+00 
          -1.5486759928e-04 -7.7866861095e-05 0.0000000000e+00 
          -1.6234672526e-04 -7.7820007063e-05 0.0000000000e+00 
          -1.6960863797e-04 -7.7867196313e-05 0.0000000000e+00 
          -1.7663019331e-04 -7.7824438918e-05 0.0000000000e+00 
          -1.8341524661e-04 -7.7860537317e-05 0.0000000000e+00 
          -1.8995157187e-04 -7.7836980240e-05 0.0000000000e+00 
          -1.9623191475e-04 -7.7844669590e-05 0.0000000000e+00 
          -2.0225019271e-04 -7.7851833816e-05 0.0000000000e+00 
          -2.0800321129e-04 -7.7835793499e-05 0.0000000000e+00 
          -2.1347621621e-04 -7.7849118950e-05 0.0000000000e+00 
          -2.1867454472e-04 -7.7852002086e-05 0.0000000000e+00 
          -2.2358392019e-04 -7.7819821612e-05 0.0000000000e+00 
          -2.2819983280e-04 -7.7887314244e-05 0.0000000000e+00 
          -2.3252593229e-04 -7.7798245570e-05 0.0000000000e+00 
          -2.3654310764e-04 -7.7865822281e-05 0.0000000000e+00 
          -2.4026064972e-04 -7.7868028648e-05 0.0000000000e+00 
          -2.4366753380e-04 -7.7787842352e-05 0.0000000000e+00 
          -2.4675847142e-04 -7.7903439698e-05 0.0000000000e+00 
          -2.4953751394e-04 -7.7805568445e-05 0.0000000000e+00 
          -2.5199269507e-04 -7.7861898238e-05 0.0000000000e+00 
          -2.5412948624e-04 -7.7836895169e-05 0.0000000000e+00 
          -2.5593835609e-04 -7.7855438466e-05 0.0000000000e+00 
          -2.5742336123e-04 -7.7833186542e-05 0.0000000000e+00 
          -2.5858002607e-04 -7.7844717447e-05 0.0000000000e+00 
          -2.5940361357e-04 -7.7865411592e-05 0.0000000000e+00 
          -2.5990429078e-04 -7.7803196115e-05 0.0000000000e+00 
        </DataArray>
        <DataArray type="Float64" Name="Displacement" NumberOfComponents="3" format="ascii">
          4.7644835166e-06 -5.4386566625e-04 0.0000000000e+00 
          4.7644835166e-06 -5.4386566625e-04 0.0000000000e+00 
          -1.3538552021e-05 -5.6744585180e-04 0.0000000000e+00 
          -1.3538552021e-05 -5.6744585180e-04 0.0000000000e+00 
          0.0000000000e+00 0.0000000000e+00 0.0000000000e+00 
          0.0000000000e+00 0.0000000000e+00 0.0000000000e+00 
          4.0782863778e-06 -5.4505936949e-04 0.0000000000e+00 
          3.3871532763e-06 -5.4622217262e-04 0.0000000000e+00 
          2.6925716145e-06 -5.4735380353e-04 0.0000000000e+00 
          1.9960280830e-06 -5.4845457688e-04 0.0000000000e+00 
          1.2990555828e-06 -5.4952430056e-04 0.0000000000e+00 
          6.0309044932e-07 -5.5056289404e-04 0.0000000000e+00 
          -9.0346921466e-08 -5.5157076522e-04 0.0000000000e+00 
          -7.7978910378e-07 -5.5254728613e-04 0.0000000000e+00 
          -1.4638251296e-06 -5.5349307287e-04 0.0000000000e+00 
          -2.1409457194e-06 -5.5440771861e-04 0.0000000000e+00 
          -2.8098027522e-06 -5.5529140207e-04 0.0000000000e+00 
          -3.4689694142e-06 -5.5614404387e-04 0.0000000000e+00 
          -4.1170695978e-06 -5.5696571780e-04 0.0000000000e+00 
          -4.7528088558e-06 -5.5775641755e-04 0.0000000000e+00 
          -5.3748159645e-06 -5.5851594181e-04 0.0000000000e+00 
          -5.9818843646e-06 -5.5924476039e-04 0.0000000000e+00 
          -6.5727321867e-06 -5.5994221844e-04 0.0000000000e+00 
          -7.1461651956e-06 -5.6060897618e-04 0.0000000000e+00 
          -7.7010543467e-06 -5.6124455844e-04 0.0000000000e+00 
          -8.2362388015e-06 -5.6184913932e-04 0.0000000000e+00 
          -8.7506826786e-06 -5.6242282299e-04 0.0000000000e+00 
          -9.2433426193e-06 -5.6296536472e-04 0.0000000000e+00 
          -9.7132296871e-06 -5.6347700623e-04 0.0000000000e+00 
          -1.0159439249e-05 -5.6395758437e-04 0.0000000000e+00 
          -1.0581060907e-05 -5.6440715182e-04 0.0000000000e+00 
          -1.0977285095e-05 -5.6482578819e-04 0.0000000000e+00 
          -1.1347330973e-05 -5.6521330924e-04 0.0000000000e+00 
          -1.1690464923e-05 -5.6556988253e-04 0.0000000000e+00 
          -1.2006031653e-05 -5.6589550517e-04 0.0000000000e+00 
          -1.2293411023e-05 -5.6618998717e-04 0.0000000000e+00 
          -1.2552049842e-05 -5.6645357483e-04 0.0000000000e+00 
          -1.2781438548e-05 -5.6668614000e-04 0.0000000000e+00 
          -1.2981147430e-05 -5.6688761867e-04 0.0000000000e+00 
          -1.3150783612e-05 -5.6705821515e-04 0.0000000000e+00 
          -1.3290022868e-05 -5.6719770791e-04 0.0000000000e+00 
          -1.3398597898e-05 -5.6730622360e-04 0.0000000000e+00 
          -1.3476298317e-05 -5.6738378749e-04 0.0000000000e+00 
          -1.3522982562e-05 -5.6743018945e-04 0.0000000000e+00 
          4.0782863778e-06 -5.4505936949e-04 0.0000000000e+00 
          3.3871532763e-06 -5.4622217262e-04 0.0000000000e+00 
          2.6925716145e-06 -5.4735380353e-04 0.0000000000e+00 
          1.9960280830e-06 -5.4845457688e-04 0.0000000000e+00 
          1.2990555828e-06 -5.4952430056e-04 0.0000000000e+00 
          6.0309044932e-07 -5.5056289404e-04 0.0000000000e+00 
          -9.0346921466e-08 -5.5157076522e-04 0.0000000000e+00 
          -7.7978910378e-07 -5.5254728613e-04 0.0000000000e+00 
          -1.4638251296e-06 -5.5349307287e-04 0.0000000000e+00 
          -2.1409457194e-06 -5.5440771861e-04 0.0000000000e+00 
          -2.8098027522e-06 -5.5529140207e-04 0.0000000000e+00 
          -3.4689694142e-06 -5.5614404387e-04 0.0000000000e+00 
          -4.1170695978e-06 -5.5696571780e-04 0.0000000000e+00 
          -4.7528088558e-06 -5.5775641755e-04 0.0000000000e+00 
          -5.3748159645e-06 -5.5851594181e-04 0.0000000000e+00 
          -5.9818843646e-06 -5.5924476039e-04 0.0000000000e+00 
          -6.5727321867e-06 -5.5994221844e-04 0.0000000000e+00 
          -7.1461651956e-06 -5.6060897618e-04 0.0000000000e+00 
          -7.7010543467e-06 -5.6124455844e-04 0.0000000000e+00 
          -8.2362388015e-06 -5.6184913932e-04 0.0000000000e+00 
          -8.7506826786e-06 -5.6242282299e-04 0.0000000000e+00 
          -9.2433426193e-06 -5.6296536472e-04 0.0000000000e+00 
          -9.7132296871e-06 -5.6347700623e-04 0.0000000000e+00 
          -1.0159439249e-05 -5.6395758437e-04 0.0000000000e+00 
          -1.0581060907e-05 -5.6440715182e-04 0.0000000000e+00 
          -1.0977285095e-05 -5.6482578819e-04 0.0000000000e+00 
          -1.1347330973e-05 -5.6521330924e-04 0.0000000000e+00 
          -1.1690464923e-05 -5.6556988253e-04 0.0000000000e+00 
          -1.2006031653e-05 -5.6589550517e-04 0.0000000000e+00 
          -1.2293411023e-05 -5.6618998717e-04 0.0000000000e+00 
          -1.2552049842e-05 -5.6645357483e-04 0.0000000000e+00 
          -1.2781438548e-05 -5.6668614000e-04 0.0000000000e+00 
          -1.2981147430e-05 -5.6688761867e-04 0.0000000000e+00 
          -1.3150783612e-05 -5.6705821515e-04 0.0000000000e+00 
          -1.3290022868e-05 -5.6719770791e-04 0.0000000000e+00 
          -1.3398597898e-05 -5.6730622360e-04 0.0000000000e+00 
          -1.3476298317e-05 -5.6738378749e-04 0.0000000000e+00 
          -1.3522982562e-05 -5.6743018945e-04 0.0000000000e+00 
        </DataArray>
        <DataArray type="Float64" Name="Acceleration" NumberOfComponents="3" format="ascii">
          -5.7969675065e-04 3.6709769674e-07 0.0000000000e+00 
          -5.7969675065e-04 3.6709769674e-07 0.0000000000e+00 
          2.8056780467e-03 5.7370196389e-05 0.0000000000e+00 
          2.8056780467e-03 5.7370196389e-05 0.0000000000e+00 
          0.0000000000e+00 0.0000000000e+00 0.0000000000e+00 
          0.0000000000e+00 0.0000000000e+00 0.0000000000e+00 
          -4.4473998345e-04 -1.9142214795e-05 0.0000000000e+00 
          -3.1080365708e-04 2.9629066079e-05 0.0000000000e+00 
          -1.7668709650e-04 -2.6539726398e-05 0.0000000000e+00 
          -3.8650916674e-05 7.8086027296e-06 0.0000000000e+00 
          9.0765724304e-05 2.2320821076e-05 0.0000000000e+00 
          2.2767533571e-04 -5.1417222147e-05 0.0000000000e+00 
          3.6005582978e-04 6.2216537210e-05 0.0000000000e+00 
          4.8710537275e-04 -4.9044555009e-05 0.0000000000e+00 
          6.2309444446e-04 2.4267918969e-05 0.0000000000e+00 
          7.4448495013e-04 -8.1447354892e-06 0.0000000000e+00 
          8.7320045582e-04 6.5774777235e-06 0.0000000000e+00 
          9.9711155460e-04 -6.9323639510e-06 0.0000000000e+00 
          1.1137438024e-03 -5.7955445915e-06 0.0000000000e+00 
          1.2372937845e-03 3.0483304204e-05 0.0000000000e+00 
          1.3459369012e-03 -5.4346787247e-05 0.0000000000e+00 
          1.4615781789e-03 6.4000021849e-05 0.0000000000e+00 
          1.5691090467e-03 -5.5145185266e-05 0.0000000000e+00 
          1.6708382229e-03 3.0478448347e-05 0.0000000000e+00 
          1.7753705121e-03 -1.0301018363e-06 0.0000000000e+00 
          1.8688309082e-03 -1.9520932890e-05 0.0000000000e+00 
          1.9627756979e-03 2.4437011659e-05 0.0000000000e+00 
          2.0518808077e-03 -1.9124074727e-05 0.0000000000e+00 
          2.1333391425e-03 1.0170357151e-05 0.0000000000e+00 
          2.2154724751e-03 9.0002741504e-07 0.0000000000e+00 
          2.2883621252e-03 -1.3562003302e-05 0.0000000000e+00 
          2.3587174499e-03 1.9639675578e-05 0.0000000000e+00 
          2.4248178772e-03 -1.0555399201e-05 0.0000000000e+00 
          2.4838256115e-03 -1.0108592631e-05 0.0000000000e+00 
          2.5397754651e-03 2.4282501813e-05 0.0000000000e+00 
          2.5895803203e-03 -2.0182870867e-05 0.0000000000e+00 
          2.6354929941e-03 2.9114476738e-06 0.0000000000e+00 
          2.6741891143e-03 1.4401870962e-05 0.0000000000e+00 
          2.7096347385e-03 -2.2320560813e-05 0.0000000000e+00 
          2.7388230997e-03 1.7547995547e-05 0.0000000000e+00 
          2.7629073066e-03 -5.2730931510e-06 0.0000000000e+00 
          2.7818561645e-03 -9.8425212456e-06 0.0000000000e+00 
          2.7946294371e-03 2.8058239809e-05 0.0000000000e+00 
          2.8035036395e-03 -4.8063476696e-05 0.0000000000e+00 
          -4.4473998345e-04 -1.9142214795e-05 0.0000000000e+00 
          -3.1080365708e-04 2.9629066079e-05 0.0000000000e+00 
          -1.7668709650e-04 -2.6539726398e-05 0.0000000000e+00 
          -3.8650916674e-05 7.8086027296e-06 0.0000000000e+00 
          9.0765724304e-05 2.2320821076e-05 0.0000000000e+00 
          2.2767533571e-04 -5.1417222147e-05 0.0000000000e+00 
          3.6005582978e-04 6.2216537210e-05 0.0000000000e+00 
          4.8710537275e-04 -4.9044555009e-05 0.0000000000e+00 
          6.2309444446e-04 2.4267918969e-05 0.0000000000e+00 
          7.4448495013e-04 -8.1447354892e-06 0.0000000000e+00 
          8.7320045582e-04 6.5774777235e-06 0.0000000000e+00 
          9.9711155460e-04 -6.9323639510e-06 0.0000000000e+00 
          1.1137438024e-03 -5.7955445915e-06 0.0000000000e+00 
          1.2372937845e-03 3.0483304204e-05 0.0000000000e+00 
          1.3459369012e-03 -5.4346787247e-05 0.0000000000e+00 
          1.4615781789e-03 6.4000021849e-05 0.0000000000e+00 
          1.5691090467e-03 -5.5145185266e-05 0.0000000000e+00 
          1.6708382229e-03 3.0478448347e-05 0.0000000000e+00 
          1.7753705121e-03 -1.0301018363e-06 0.0000000000e+00 
          1.8688309082e-03 -1.9520932890e-05 0.0000000000e+00 
          1.9627756979e-03 2.4437011659e-05 0.0000000000e+00 
          2.0518808077e-03 -1.9124074727e-05 0.0000000000e+00 
          2.1333391425e-03 1.0170357151e-05 0.0000000000e+00 
          2.2154724751e-03 9.0002741504e-07 0.0000000000e+00 
          2.2883621252e-03 -1.3562003302e-05 0.0000000000e+00 
          2.3587174499e-03 1.9639675578e-05 0.0000000000e+00 
          2.4248178772e-03 -1.0555399201e-05 0.0000000000e+00 
          2.4838256115e-03 -1.0108592631e-05 0.0000000000e+00 
          2.5397754651e-03 2.4282501813e-05 0.0000000000e+00 
          2.5895803203e-03 -2.0182870867e-05 0.0000000000e+00 
          2.6354929941e-03 2.9114476738e-06 0.0000000000e+00 
          2.6741891143e-03 1.4401870962e-05 0.0000000000e+00 
          2.7096347385e-03 -2.2320560813e-05 0.0000000000e+00 
          2.7388230997e-03 1.7547995547e-05 0.0000000000e+00 
          2.7629073066e-03 -5.2730931510e-06 0.0000000000e+00 
          2.7818561645e-03 -9.8425212456e-06 0.0000000000e+00 
          2.7946294371e-03 2.8058239809e-05 0.0000000000e+00 
          2.8035036395e-03 -4.8063476696e-05 0.0000000000e+00 
        </DataArray>
        <DataArray type="Float64" Name="Reaction" NumberOfComponents="3" format="ascii">
          0.0000000000e+00 0.0000000000e+00 0.0000000000e+00 
          0.0000000000e+00 0.0000000000e+00 0.0000000000e+00 
          0.0000000000e+00 0.0000000000e+00 0.0000000000e+00 
          0.0000000000e+00 0.0000000000e+00 0.0000000000e+00 
          0.0000000000e+00 0.0000000000e+00 0.0000000000e+00 
          0.0000000000e+00 0.0000000000e+00 0.0000000000e+00 
          0.0000000000e+00 0.0000000000e+00 0.0000000000e+00 
          0.0000000000e+00 0.0000000000e+00 0.0000000000e+00 
          0.0000000000e+00 0.0000000000e+00 0.0000000000e+00 
          0.0000000000e+00 0.0000000000e+00 0.0000000000e+00 
          0.0000000000e+00 0.0000000000e+00 0.0000000000e+00 
          0.0000000000e+00 0.0000000000e+00 0.0000000000e+00 
          0.0000000000e+00 0.0000000000e+00 0.0000000000e+00 
          0.0000000000e+00 0.0000000000e+00 0.0000000000e+00 
          0.0000000000e+00 0.0000000000e+00 0.0000000000e+00 
          0.0000000000e+00 0.0000000000e+00 0.0000000000e+00 
          0.0000000000e+00 0.0000000000e+00 0.0000000000e+00 
          0.0000000000e+00 0.0000000000e+00 0.0000000000e+00 
          0.0000000000e+00 0.0000000000e+00 0.0000000000e+00 
          0.0000000000e+00 0.0000000000e+00 0.0000000000e+00 
          0.0000000000e+00 0.0000000000e+00 0.0000000000e+00 
          0.0000000000e+00 0.0000000000e+00 0.0000000000e+00 
          0.0000000000e+00 0.0000000000e+00 0.0000000000e+00 
          0.0000000000e+00 0.0000000000e+00 0.0000000000e+00 
          0.0000000000e+00 0.0000000000e+00 0.0000000000e+00 
          0.0000000000e+00 0.0000000000e+00 0.0000000000e+00 
          0.0000000000e+00 0.0000000000e+00 0.0000000000e+00 
          0.0000000000e+00 0.0000000000e+00 0.0000000000e+00 
          0.0000000000e+00 0.0000000000e+00 0.0000000000e+00 
          0.0000000000e+00 0.0000000000e+00 0.0000000000e+00 
          0.0000000000e+00 0.0000000000e+00 0.0000000000e+00 
          0.0000000000e+00 0.0000000000e+00 0.0000000000e+00 
          0.0000000000e+00 0.0000000000e+00 0.0000000000e+00 
          0.0000000000e+00 0.0000000000e+00 0.0000000000e+00 
          0.0000000000e+00 0.0000000000e+00 0.0000000000e+00 
          0.0000000000e+00 0.0000000000e+00 0.0000000000e+00 
          0.0000000000e+00 0.0000000000e+00 0.0000000000e+00 
          0.0000000000e+00 0.0000000000e+00 0.0000000000e+00 
          0.0000000000e+00 0.0000000000e+00 0.0000000000e+00 
          0.0000000000e+00 0.0000000000e+00 0.0000000000e+00 
          0.0000000000e+00 0.0000000000e+00 0.0000000000e+00 
          0.0000000000e+00 0.0000000000e+00 0.0000000000e+00 
          0.0000000000e+00 0.0000000000e+00 0.0000000000e+00 
          0.0000000000e+00 0.0000000000e+00 0.0000000000e+00 
          0.0000000000e+00 0.0000000000e+00 0.0000000000e+00 
          0.0000000000e+00 0.0000000000e+00 0.0000000000e+00 
          0.0000000000e+00 0.0000000000e+00 0.0000000000e+00 
          0.0000000000e+00 0.0000000000e+00 0.0000000000e+00 
          0.0000000000e+00 0.0000000000e+00 0.0000000000e+00 
          0.0000000000e+00 0.0000000000e+00 0.0000000000e+00 
          0.0000000000e+00 0.0000000000e+00 0.0000000000e+00 
          0.0000000000e+00 0.0000000000e+00 0.0000000000e+00 
          0.0000000000e+00 0.0000000000e+00 0.0000000000e+00 
          0.0000000000e+00 0.0000000000e+00 0.0000000000e+00 
          0.0000000000e+00 0.0000000000e+00 0.0000000000e+00 
          0.0000000000e+00 0.0000000000e+00 0.0000000000e+00 
          0.0000000000e+00 0.0000000000e+00 0.0000000000e+00 
          0.0000000000e+00 0.0000000000e+00 0.0000000000e+00 
          0.0000000000e+00 0.0000000000e+00 0.0000000000e+00 
          0.0000000000e+00 0.0000000000e+00 0.0000000000e+00 
          0.0000000000e+00 0.0000000000e+00 0.0000000000e+00 
          0.0000000000e+00 0.0000000000e+00 0.0000000000e+00 
          0.0000000000e+00 0.0000000000e+00 0.0000000000e+00 
          0.0000000000e+00 0.0000000000e+00 0.0000000000e+00 
          0.0000000000e+00 0.0000000000e+00 0.0000000000e+00 
          0.0000000000e+00 0.0000000000e+00 0.0000000000e+00 
          0.0000000000e+00 0.0000000000e+00 0.0000000000e+00 
          0.0000000000e+00 0.0000000000e+00 0.0000000000e+00 
          0.0000000000e+00 0.0000000000e+00 0.0000000000e+00 
          0.0000000000e+00 0.0000000000e+00 0.0000000000e+00 
          0.0000000000e+00 0.0000000000e+00 0.0000000000e+00 
          0.0000000000e+00 0.0000000000e+00 0.0000000000e+00 
          0.0000000000e+00 0.0000000000e+00 0.0000000000e+00 
          0.0000000000e+00 0.0000000000e+00 0.0000000000e+00 
          0.0000000000e+00 0.0000000000e+00 0.0000000000e+00 
          0.0000000000e+00 0.0000000000e+00 0.0000000000e+00 
          0.0000000000e+00 0.0000000000e+00 0.0000000000e+00 
          0.0000000000e+00 0.0000000000e+00 0.0000000000e+00 
          0.0000000000e+00 0.0000000000e+00 0.0000000000e+00 
          0.0000000000e+00 0.0000000000e+00 0.0000000000e+00 
          0.0000000000e+00 0.0000000000e+00 0.0000000000e+00 
          0.0000000000e+00 0.0000000000e+00 0.0000000000e+00 
        </DataArray>
      </PointData>
      <CellData>
        <DataArray type="Int64" Name="ElementTag" format="ascii">
          0
        </DataArray>
      </CellData>
    </Piece>
  </UnstructuredGrid>
</VTKFile>
