<?xml version="1.0"?>
<VTKFile type="UnstructuredGrid" version="1.0" byte_order="LittleEndian" compressor="vtkZLibDataCompressor">
  <UnstructuredGrid>
    <Piece NumberOfPoints="80" NumberOfCells="39">
      <Points>
        <DataArray type="Float64" Name="Points" NumberOfComponents="3" format="ascii">
          0.0000000000e+00 0.0000000000e+00 0.0000000000e+00 
          2.5000000000e-01 0.0000000000e+00 0.0000000000e+00 
          2.5000000000e-01 3.0000000000e+01 0.0000000000e+00 
          0.0000000000e+00 3.0000000000e+01 0.0000000000e+00 
          2.5000000000e-01 7.6923100000e-01 0.0000000000e+00 
          2.5000000000e-01 1.5384620000e+00 0.0000000000e+00 
          2.5000000000e-01 2.3076920000e+00 0.0000000000e+00 
          2.5000000000e-01 3.0769230000e+00 0.0000000000e+00 
          2.5000000000e-01 3.8461540000e+00 0.0000000000e+00 
          2.5000000000e-01 4.6153850000e+00 0.0000000000e+00 
          2.5000000000e-01 5.3846150000e+00 0.0000000000e+00 
          2.5000000000e-01 6.1538460000e+00 0.0000000000e+00 
          2.5000000000e-01 6.9230770000e+00 0.0000000000e+00 
          2.5000000000e-01 7.6923080000e+00 0.0000000000e+00 
          2.5000000000e-01 8.4615380000e+00 0.0000000000e+00 
          2.5000000000e-01 9.2307690000e+00 0.0000000000e+00 
          2.5000000000e-01 1.0000000000e+01 0.0000000000e+00 
          2.5000000000e-01 1.0769231000e+01 0.0000000000e+00 
          2.5000000000e-01 1.1538462000e+01 0.0000000000e+00 
          2.5000000000e-01 1.2307692000e+01 0.0000000000e+00 
          2.5000000000e-01 1.3076923000e+01 0.0000000000e+00 
          2.5000000000e-01 1.3846154000e+01 0.0000000000e+00 
          2.5000000000e-01 1.4615385000e+01 0.0000000000e+00 
          2.5000000000e-01 1.5384615000e+01 0.0000000000e+00 
          2.5000000000e-01 1.6153846000e+01 0.0000000000e+00 
          2.5000000000e-01 1.6923077000e+01 0.0000000000e+00 
          2.5000000000e-01 1.7692308000e+01 0.0000000000e+00 
          2.5000000000e-01 1.8461538000e+01 0.0000000000e+00 
          2.5000000000e-01 1.9230769000e+01 0.0000000000e+00 
          2.5000000000e-01 2.0000000000e+01 0.0000000000e+00 
          2.5000000000e-01 2.0769231000e+01 0.0000000000e+00 
          2.5000000000e-01 2.1538462000e+01 0.0000000000e+00 
          2.5000000000e-01 2.2307692000e+01 0.0000000000e+00 
          2.5000000000e-01 2.3076923000e+01 0.0000000000e+00 
          2.5000000000e-01 2.3846154000e+01 0.0000000000e+00 
          2.5000000000e-01 2.4615385000e+01 0.0000000000e+00 
          2.5000000000e-01 2.5384615000e+01 0.0000000000e+00 
          2.5000000000e-01 2.6153846000e+01 0.0000000000e+00 
          2.5000000000e-01 2.6923077000e+01 0.0000000000e+00 
          2.5000000000e-01 2.7692308000e+01 0.0000000000e+00 
          2.5000000000e-01 2.8461538000e+01 0.0000000000e+00 
          2.5000000000e-01 2.9230769000e+01 0.0000000000e+00 
          0.0000000000e+00 7.6923100000e-01 0.0000000000e+00 
          0.0000000000e+00 1.5384620000e+00 0.0000000000e+00 
          0.0000000000e+00 2.3076920000e+00 0.0000000000e+00 
          0.0000000000e+00 3.0769230000e+00 0.0000000000e+00 
          0.0000000000e+00 3.8461540000e+00 0.0000000000e+00 
          0.0000000000e+00 4.6153850000e+00 0.0000000000e+00 
          0.0000000000e+00 5.3846150000e+00 0.0000000000e+00 
          0.0000000000e+00 6.1538460000e+00 0.0000000000e+00 
          0.0000000000e+00 6.9230770000e+00 0.0000000000e+00 
          0.0000000000e+00 7.6923080000e+00 0.0000000000e+00 
          0.0000000000e+00 8.4615380000e+00 0.0000000000e+00 
          0.0000000000e+00 9.2307690000e+00 0.0000000000e+00 
          0.0000000000e+00 1.0000000000e+01 0.0000000000e+00 
          0.0000000000e+00 1.0769231000e+01 0.0000000000e+00 
          0.0000000000e+00 1.1538462000e+01 0.0000000000e+00 
          0.0000000000e+00 1.2307692000e+01 0.0000000000e+00 
          0.0000000000e+00 1.3076923000e+01 0.0000000000e+00 
          0.0000000000e+00 1.3846154000e+01 0.0000000000e+00 
          0.0000000000e+00 1.4615385000e+01 0.0000000000e+00 
          0.0000000000e+00 1.5384615000e+01 0.0000000000e+00 
          0.0000000000e+00 1.6153846000e+01 0.0000000000e+00 
          0.0000000000e+00 1.6923077000e+01 0.0000000000e+00 
          0.0000000000e+00 1.7692308000e+01 0.0000000000e+00 
          0.0000000000e+00 1.8461538000e+01 0.0000000000e+00 
          0.0000000000e+00 1.9230769000e+01 0.0000000000e+00 
          0.0000000000e+00 2.0000000000e+01 0.0000000000e+00 
          0.0000000000e+00 2.0769231000e+01 0.0000000000e+00 
          0.0000000000e+00 2.1538462000e+01 0.0000000000e+00 
          0.0000000000e+00 2.2307692000e+01 0.0000000000e+00 
          0.0000000000e+00 2.3076923000e+01 0.0000000000e+00 
          0.0000000000e+00 2.3846154000e+01 0.0000000000e+00 
          0.0000000000e+00 2.4615385000e+01 0.0000000000e+00 
          0.0000000000e+00 2.5384615000e+01 0.0000000000e+00 
          0.0000000000e+00 2.6153846000e+01 0.0000000000e+00 
          0.0000000000e+00 2.6923077000e+01 0.0000000000e+00 
          0.0000000000e+00 2.7692308000e+01 0.0000000000e+00 
          0.0000000000e+00 2.8461538000e+01 0.0000000000e+00 
          0.0000000000e+00 2.9230769000e+01 0.0000000000e+00 
        </DataArray>
      </Points>
      <Cells>
        <DataArray type="Int64" Name="connectivity" format="ascii">
          0 1 4 42 
          42 4 5 43 
          43 5 6 44 
          44 6 7 45 
          45 7 8 46 
          46 8 9 47 
          47 9 10 48 
          48 10 11 49 
          49 11 12 50 
          50 12 13 51 
          51 13 14 52 
          52 14 15 53 
          53 15 16 54 
          54 16 17 55 
          55 17 18 56 
          56 18 19 57 
          57 19 20 58 
          58 20 21 59 
          59 21 22 60 
          60 22 23 61 
          61 23 24 62 
          62 24 25 63 
          63 25 26 64 
          64 26 27 65 
          65 27 28 66 
          66 28 29 67 
          67 29 30 68 
          68 30 31 69 
          69 31 32 70 
          70 32 33 71 
          71 33 34 72 
          72 34 35 73 
          73 35 36 74 
          74 36 37 75 
          75 37 38 76 
          76 38 39 77 
          77 39 40 78 
          78 40 41 79 
          79 41 2 3 
        </DataArray>
        <DataArray type="Int64" Name="offsets" format="ascii">
          4
          8
          12
          16
          20
          24
          28
          32
          36
          40
          44
          48
          52
          56
          60
          64
          68
          72
          76
          80
          84
          88
          92
          96
          100
          104
          108
          112
          116
          120
          124
          128
          132
          136
          140
          144
          148
          152
          156
        </DataArray>
        <DataArray type="Int64" Name="types" format="ascii">
          9
          9
          9
          9
          9
          9
          9
          9
          9
          9
          9
          9
          9
          9
          9
          9
          9
          9
          9
          9
          9
          9
          9
          9
          9
          9
          9
          9
          9
          9
          9
          9
          9
          9
          9
          9
          9
          9
          9
        </DataArray>
      </Cells>
      <PointData>
        <DataArray type="Int64" Name="NodeTag" format="ascii">
          1
          2
          3
          4
          7
          8
          9
          10
          11
          12
          13
          14
          15
          16
          17
          18
          19
          20
          21
          22
          23
          24
          25
          26
          27
          28
          29
          30
          31
          32
          33
          34
          35
          36
          37
          38
          39
          40
          41
          42
          43
          44
          45
          46
          47
          48
          49
          50
          51
          52
          53
          54
          55
          56
          57
          58
          59
          60
          61
          62
          63
          64
          65
          66
          67
          68
          69
          70
          71
          72
          73
          74
          75
          76
          77
          78
          79
          80
          81
          82
        </DataArray>
        <DataArray type="Float64" Name="Velocity" NumberOfComponents="3" format="ascii">
          -1.8304410011e-05 -7.7843010425e-05 0.0000000000e+00 
          -1.8304410011e-05 -7.7843010425e-05 0.0000000000e+00 
          -1.1499693084e-04 -7.7837100389e-05 0.0000000000e+00 
          -1.1499693084e-04 -7.7837100389e-05 0.0000000000e+00 
          -2.2538343691e-05 -7.7826056324e-05 0.0000000000e+00 
          -2.6727889967e-05 -7.7882825395e-05 0.0000000000e+00 
          -3.0868504229e-05 -7.7792619697e-05 0.0000000000e+00 
          -3.4952601616e-05 -7.7899939281e-05 0.0000000000e+00 
          -3.8982014458e-05 -7.7801648925e-05 0.0000000000e+00 
          -4.2942156977e-05 -7.7861922559e-05 0.0000000000e+00 
          -4.6839438044e-05 -7.7858475416e-05 0.0000000000e+00 
          -5.0663932511e-05 -7.7812162437e-05 0.0000000000e+00 
          -5.4407044158e-05 -7.7878156359e-05 0.0000000000e+00 
          -5.8076664089e-05 -7.7825676599e-05 0.0000000000e+00 
          -6.1657128790e-05 -7.7847169197e-05 0.0000000000e+00 
          -6.5148569925e-05 -7.7855214471e-05 0.0000000000e+00 
          -6.8553042060e-05 -7.7831431717e-05 0.0000000000e+00 
          -7.1854530572e-05 -7.7856757165e-05 0.0000000000e+00 
          -7.5059336835e-05 -7.7839076523e-05 0.0000000000e+00 
          -7.8166453976e-05 -7.7841270012e-05 0.0000000000e+00 
          -8.1155489496e-05 -7.7859489307e-05 0.0000000000e+00 
          -8.4046334129e-05 -7.7826355143e-05 0.0000000000e+00 
          -8.6819244532e-05 -7.7858346274e-05 0.0000000000e+00 
          -8.9473190448e-05 -7.7848728026e-05 0.0000000000e+00 
          -9.2019627685e-05 -7.7818080050e-05 0.0000000000e+00 
          -9.4429285468e-05 -7.7886056942e-05 0.0000000000e+00 
          -9.6730117365e-05 -7.7815922784e-05 0.0000000000e+00 
          -9.8893759142e-05 -7.7837402723e-05 0.0000000000e+00 
          -1.0093430651e-04 -7.7889150205e-05 0.0000000000e+00 
          -1.0284340931e-04 -7.7790762122e-05 0.0000000000e+00 
          -1.0461537913e-04 -7.7880898497e-05 0.0000000000e+00 
          -1.0626086565e-04 -7.7834452656e-05 0.0000000000e+00 
          -1.0775912855e-04 -7.7845329778e-05 0.0000000000e+00 
          -1.0912867480e-04 -7.7839155222e-05 0.0000000000e+00 
          -1.1035371158e-04 -7.7856262320e-05 0.0000000000e+00 
          -1.1143554332e-04 -7.7839925116e-05 0.0000000000e+00 
          -1.1238358317e-04 -7.7833495714e-05 0.0000000000e+00 
          -1.1317633036e-04 -7.7873532273e-05 0.0000000000e+00 
          -1.1383730100e-04 -7.7808795872e-05 0.0000000000e+00 
          -1.1434473698e-04 -7.7876511573e-05 0.0000000000e+00 
          -1.1470752322e-04 -7.7824781932e-05 0.0000000000e+00 
          -1.1493350679e-04 -7.7856010631e-05 0.0000000000e+00 
          -2.2538343691e-05 -7.7826056324e-05 0.0000000000e+00 
          -2.6727889967e-05 -7.7882825395e-05 0.0000000000e+00 
          -3.0868504229e-05 -7.7792619697e-05 0.0000000000e+00 
          -3.4952601616e-05 -7.7899939281e-05 0.0000000000e+00 
          -3.8982014458e-05 -7.7801648925e-05 0.0000000000e+00 
          -4.2942156977e-05 -7.7861922559e-05 0.0000000000e+00 
          -4.6839438044e-05 -7.7858475416e-05 0.0000000000e+00 
          -5.0663932511e-05 -7.7812162437e-05 0.0000000000e+00 
          -5.4407044158e-05 -7.7878156359e-05 0.0000000000e+00 
          -5.8076664089e-05 -7.7825676599e-05 0.0000000000e+00 
          -6.1657128790e-05 -7.7847169197e-05 0.0000000000e+00 
          -6.5148569925e-05 -7.7855214471e-05 0.0000000000e+00 
          -6.8553042060e-05 -7.7831431717e-05 0.0000000000e+00 
          -7.1854530572e-05 -7.7856757165e-05 0.0000000000e+00 
          -7.5059336835e-05 -7.7839076523e-05 0.0000000000e+00 
          -7.8166453976e-05 -7.7841270012e-05 0.0000000000e+00 
          -8.1155489496e-05 -7.7859489307e-05 0.0000000000e+00 
          -8.4046334129e-05 -7.7826355143e-05 0.0000000000e+00 
          -8.6819244532e-05 -7.7858346274e-05 0.0000000000e+00 
          -8.9473190448e-05 -7.7848728026e-05 0.0000000000e+00 
          -9.2019627685e-05 -7.7818080050e-05 0.0000000000e+00 
          -9.4429285468e-05 -7.7886056942e-05 0.0000000000e+00 
          -9.6730117365e-05 -7.7815922784e-05 0.0000000000e+00 
          -9.8893759142e-05 -7.7837402723e-05 0.0000000000e+00 
          -1.0093430651e-04 -7.7889150205e-05 0.0000000000e+00 
          -1.0284340931e-04 -7.7790762122e-05 0.0000000000e+00 
          -1.0461537913e-04 -7.7880898497e-05 0.0000000000e+00 
          -1.0626086565e-04 -7.7834452656e-05 0.0000000000e+00 
          -1.0775912855e-04 -7.7845329778e-05 0.0000000000e+00 
          -1.0912867480e-04 -7.7839155222e-05 0.0000000000e+00 
          -1.1035371158e-04 -7.7856262320e-05 0.0000000000e+00 
          -1.1143554332e-04 -7.7839925116e-05 0.0000000000e+00 
          -1.1238358317e-04 -7.7833495714e-05 0.0000000000e+00 
          -1.1317633036e-04 -7.7873532273e-05 0.0000000000e+00 
          -1.1383730100e-04 -7.7808795872e-05 0.0000000000e+00 
          -1.1434473698e-04 -7.7876511573e-05 0.0000000000e+00 
          -1.1470752322e-04 -7.7824781932e-05 0.0000000000e+00 
          -1.1493350679e-04 -7.7856010631e-05 0.0000000000e+00 
        </DataArray>
        <DataArray type="Float64" Name="Displacement" NumberOfComponents="3" format="ascii">
          2.1081181426e-06 -5.8434478410e-04 0.0000000000e+00 
          2.1081181426e-06 -5.8434478410e-04 0.0000000000e+00 
          -6.0335004128e-06 -6.0792520686e-04 0.0000000000e+00 
          -6.0335004128e-06 -6.0792520686e-04 0.0000000000e+00 
          1.8027208929e-06 -5.8553850164e-04 0.0000000000e+00 
          1.4951506318e-06 -5.8670129063e-04 0.0000000000e+00 
          1.1860523738e-06 -5.8783301752e-04 0.0000000000e+00 
          8.7611919170e-07 -5.8893368902e-04 0.0000000000e+00 
          5.6598333344e-07 -5.9000349548e-04 0.0000000000e+00 
          2.5633216551e-07 -5.9104214325e-04 0.0000000000e+00 
          -5.2184023182e-08 -5.9204988196e-04 0.0000000000e+00 
          -3.5892493292e-07 -5.9302658562e-04 0.0000000000e+00 
          -6.6322526579e-07 -5.9397227290e-04 0.0000000000e+00 
          -9.6445555261e-07 -5.9488694693e-04 0.0000000000e+00 
          -1.2619937619e-06 -5.9577069202e-04 0.0000000000e+00 
          -1.5552084169e-06 -5.9662325963e-04 0.0000000000e+00 
          -1.8434958674e-06 -5.9744506566e-04 0.0000000000e+00 
          -2.1262737021e-06 -5.9823560731e-04 0.0000000000e+00 
          -2.4029392888e-06 -5.9899533608e-04 0.0000000000e+00 
          -2.6729474193e-06 -5.9972399011e-04 0.0000000000e+00 
          -2.9357418148e-06 -6.0042156430e-04 0.0000000000e+00 
          -3.1907780814e-06 -6.0108830916e-04 0.0000000000e+00 
          -3.4375667816e-06 -6.0172383290e-04 0.0000000000e+00 
          -3.6755843255e-06 -6.0232855741e-04 0.0000000000e+00 
          -3.9043708329e-06 -6.0290209133e-04 0.0000000000e+00 
          -4.1234739773e-06 -6.0344476100e-04 0.0000000000e+00 
          -4.3324348491e-06 -6.0395634623e-04 0.0000000000e+00 
          -4.5308712891e-06 -6.0443694664e-04 0.0000000000e+00 
          -4.7183694018e-06 -6.0488654345e-04 0.0000000000e+00 
          -4.8945646138e-06 -6.0530511228e-04 0.0000000000e+00 
          -5.0591270624e-06 -6.0569274789e-04 0.0000000000e+00 
          -5.2117081875e-06 -6.0604922788e-04 0.0000000000e+00 
          -5.3520398640e-06 -6.0637490398e-04 0.0000000000e+00 
          -5.4798309145e-06 -6.0666937495e-04 0.0000000000e+00 
          -5.5948359011e-06 -6.0693297513e-04 0.0000000000e+00 
          -5.6968468879e-06 -6.0716553184e-04 0.0000000000e+00 
          -5.7856451826e-06 -6.0736701094e-04 0.0000000000e+00 
          -5.8610765504e-06 -6.0753765589e-04 0.0000000000e+00 
          -5.9229968810e-06 -6.0767705300e-04 0.0000000000e+00 
          -5.9712706949e-06 -6.0778568095e-04 0.0000000000e+00 
          -6.0058219517e-06 -6.0786315699e-04 0.0000000000e+00 
          -6.0265851286e-06 -6.0790963844e-04 0.0000000000e+00 
          1.8027208929e-06 -5.8553850164e-04 0.0000000000e+00 
          1.4951506318e-06 -5.8670129063e-04 0.0000000000e+00 
          1.1860523738e-06 -5.8783301752e-04 0.0000000000e+00 
          8.7611919170e-07 -5.8893368902e-04 0.0000000000e+00 
          5.6598333344e-07 -5.9000349548e-04 0.0000000000e+00 
          2.5633216551e-07 -5.9104214325e-04 0.0000000000e+00 
          -5.2184023182e-08 -5.9204988196e-04 0.0000000000e+00 
          -3.5892493292e-07 -5.9302658562e-04 0.0000000000e+00 
          -6.6322526579e-07 -5.9397227290e-04 0.0000000000e+00 
          -9.6445555261e-07 -5.9488694693e-04 0.0000000000e+00 
          -1.2619937619e-06 -5.9577069202e-04 0.0000000000e+00 
          -1.5552084169e-06 -5.9662325963e-04 0.0000000000e+00 
          -1.8434958674e-06 -5.9744506566e-04 0.0000000000e+00 
          -2.1262737021e-06 -5.9823560731e-04 0.0000000000e+00 
          -2.4029392888e-06 -5.9899533608e-04 0.0000000000e+00 
          -2.6729474193e-06 -5.9972399011e-04 0.0000000000e+00 
          -2.9357418148e-06 -6.0042156430e-04 0.0000000000e+00 
          -3.1907780814e-06 -6.0108830916e-04 0.0000000000e+00 
          -3.4375667816e-06 -6.0172383290e-04 0.0000000000e+00 
          -3.6755843255e-06 -6.0232855741e-04 0.0000000000e+00 
          -3.9043708329e-06 -6.0290209133e-04 0.0000000000e+00 
          -4.1234739773e-06 -6.0344476100e-04 0.0000000000e+00 
          -4.3324348491e-06 -6.0395634623e-04 0.0000000000e+00 
          -4.5308712891e-06 -6.0443694664e-04 0.0000000000e+00 
          -4.7183694018e-06 -6.0488654345e-04 0.0000000000e+00 
          -4.8945646138e-06 -6.0530511228e-04 0.0000000000e+00 
          -5.0591270624e-06 -6.0569274789e-04 0.0000000000e+00 
          -5.2117081875e-06 -6.0604922788e-04 0.0000000000e+00 
          -5.3520398640e-06 -6.0637490398e-04 0.0000000000e+00 
          -5.4798309145e-06 -6.0666937495e-04 0.0000000000e+00 
          -5.5948359011e-06 -6.0693297513e-04 0.0000000000e+00 
          -5.6968468879e-06 -6.0716553184e-04 0.0000000000e+00 
          -5.7856451826e-06 -6.0736701094e-04 0.0000000000e+00 
          -5.8610765504e-06 -6.0753765589e-04 0.0000000000e+00 
          -5.9229968810e-06 -6.0767705300e-04 0.0000000000e+00 
          -5.9712706949e-06 -6.0778568095e-04 0.0000000000e+00 
          -6.0058219517e-06 -6.0786315699e-04 0.0000000000e+00 
          -6.0265851286e-06 -6.0790963844e-04 0.0000000000e+00 
        </DataArray>
        <DataArray type="Float64" Name="Acceleration" NumberOfComponents="3" format="ascii">
          -2.5616523382e-04 1.2389617448e-06 0.0000000000e+00 
          -2.5616523382e-04 1.2389617448e-06 0.0000000000e+00 
          1.2461615321e-03 2.3514341895e-05 0.0000000000e+00 
          1.2461615321e-03 2.3514341895e-05 0.0000000000e+00 
          -1.9579262277e-04 -1.4017163397e-05 0.0000000000e+00 
          -1.3771183166e-04 9.7869456850e-06 0.0000000000e+00 
          -7.5192150776e-05 9.1072290170e-06 0.0000000000e+00 
          -1.8261524717e-05 -2.5460953573e-05 0.0000000000e+00 
          4.3671555532e-05 2.7453212837e-05 0.0000000000e+00 
          1.0222780003e-04 -1.7761200361e-05 0.0000000000e+00 
          1.5999238119e-04 5.4136951924e-06 0.0000000000e+00 
          2.1990079512e-04 1.8111101436e-06 0.0000000000e+00 
          2.7661721174e-04 1.2444262468e-06 0.0000000000e+00 
          3.3262883887e-04 -1.4150394895e-05 0.0000000000e+00 
          3.8959588867e-04 3.1050450586e-05 0.0000000000e+00 
          4.4395085591e-04 -4.4103993618e-05 0.0000000000e+00 
          4.9642726673e-04 4.6497625079e-05 0.0000000000e+00 
          5.5072560623e-04 -3.4859962624e-05 0.0000000000e+00 
          5.9981871965e-04 1.2158997768e-05 0.0000000000e+00 
          6.5000382091e-04 1.3419773422e-05 0.0000000000e+00 
          6.9902273465e-04 -3.1896975532e-05 0.0000000000e+00 
          7.4312201960e-04 3.8704620620e-05 0.0000000000e+00 
          7.9027113107e-04 -3.7458751983e-05 0.0000000000e+00 
          8.3176304976e-04 3.3346544298e-05 0.0000000000e+00 
          8.7249012179e-04 -2.5603657403e-05 0.0000000000e+00 
          9.1383879430e-04 1.4074944554e-05 0.0000000000e+00 
          9.4824946467e-04 -3.9868959727e-06 0.0000000000e+00 
          9.8558876484e-04 -3.7665188030e-07 0.0000000000e+00 
          1.0184136819e-03 3.8996511327e-06 0.0000000000e+00 
          1.0481349533e-03 -1.3176432751e-05 0.0000000000e+00 
          1.0795409155e-03 2.6902268124e-05 0.0000000000e+00 
          1.1036837801e-03 -3.6553279570e-05 0.0000000000e+00 
          1.1299523427e-03 3.5901006811e-05 0.0000000000e+00 
          1.1520496097e-03 -2.4425231273e-05 0.0000000000e+00 
          1.1707850437e-03 6.6911239273e-06 0.0000000000e+00 
          1.1904800240e-03 1.2802205825e-05 0.0000000000e+00 
          1.2043976887e-03 -3.0979629531e-05 0.0000000000e+00 
          1.2173711421e-03 4.3519472765e-05 0.0000000000e+00 
          1.2295781016e-03 -4.2739805187e-05 0.0000000000e+00 
          1.2364262529e-03 2.6218436240e-05 0.0000000000e+00 
          1.2423380765e-03 -2.0966024908e-06 0.0000000000e+00 
          1.2477224804e-03 -1.6811509609e-05 0.0000000000e+00 
          -1.9579262277e-04 -1.4017163397e-05 0.0000000000e+00 
          -1.3771183166e-04 9.7869456850e-06 0.0000000000e+00 
          -7.5192150776e-05 9.1072290170e-06 0.0000000000e+00 
          -1.8261524717e-05 -2.5460953573e-05 0.0000000000e+00 
          4.3671555532e-05 2.7453212837e-05 0.0000000000e+00 
          1.0222780003e-04 -1.7761200361e-05 0.0000000000e+00 
          1.5999238119e-04 5.4136951924e-06 0.0000000000e+00 
          2.1990079512e-04 1.8111101436e-06 0.0000000000e+00 
          2.7661721174e-04 1.2444262468e-06 0.0000000000e+00 
          3.3262883887e-04 -1.4150394895e-05 0.0000000000e+00 
          3.8959588867e-04 3.1050450586e-05 0.0000000000e+00 
          4.4395085591e-04 -4.4103993618e-05 0.0000000000e+00 
          4.9642726673e-04 4.6497625079e-05 0.0000000000e+00 
          5.5072560623e-04 -3.4859962624e-05 0.0000000000e+00 
          5.9981871965e-04 1.2158997768e-05 0.0000000000e+00 
          6.5000382091e-04 1.3419773422e-05 0.0000000000e+00 
          6.9902273465e-04 -3.1896975532e-05 0.0000000000e+00 
          7.4312201960e-04 3.8704620620e-05 0.0000000000e+00 
          7.9027113107e-04 -3.7458751983e-05 0.0000000000e+00 
          8.3176304976e-04 3.3346544298e-05 0.0000000000e+00 
          8.7249012179e-04 -2.5603657403e-05 0.0000000000e+00 
          9.1383879430e-04 1.4074944554e-05 0.0000000000e+00 
          9.4824946467e-04 -3.9868959727e-06 0.0000000000e+00 
          9.8558876484e-04 -3.7665188030e-07 0.0000000000e+00 
          1.0184136819e-03 3.8996511327e-06 0.0000000000e+00 
          1.0481349533e-03 -1.3176432751e-05 0.0000000000e+00 
          1.0795409155e-03 2.6902268124e-05 0.0000000000e+00 
          1.1036837801e-03 -3.6553279570e-05 0.0000000000e+00 
          1.1299523427e-03 3.5901006811e-05 0.0000000000e+00 
          1.1520496097e-03 -2.4425231273e-05 0.0000000000e+00 
          1.1707850437e-03 6.6911239273e-06 0.0000000000e+00 
          1.1904800240e-03 1.2802205825e-05 0.0000000000e+00 
          1.2043976887e-03 -3.0979629531e-05 0.0000000000e+00 
          1.2173711421e-03 4.3519472765e-05 0.0000000000e+00 
          1.2295781016e-03 -4.2739805187e-05 0.0000000000e+00 
          1.2364262529e-03 2.6218436240e-05 0.0000000000e+00 
          1.2423380765e-03 -2.0966024908e-06 0.0000000000e+00 
          1.2477224804e-03 -1.6811509609e-05 0.0000000000e+00 
        </DataArray>
        <DataArray type="Float64" Name="Reaction" NumberOfComponents="3" format="ascii">
          0.0000000000e+00 0.0000000000e+00 0.0000000000e+00 
          0.0000000000e+00 0.0000000000e+00 0.0000000000e+00 
          0.0000000000e+00 0.0000000000e+00 0.0000000000e+00 
          0.0000000000e+00 0.0000000000e+00 0.0000000000e+00 
          0.0000000000e+00 0.0000000000e+00 0.0000000000e+00 
          0.0000000000e+00 0.0000000000e+00 0.0000000000e+00 
          0.0000000000e+00 0.0000000000e+00 0.0000000000e+00 
          0.0000000000e+00 0.0000000000e+00 0.0000000000e+00 
          0.0000000000e+00 0.0000000000e+00 0.0000000000e+00 
          0.0000000000e+00 0.0000000000e+00 0.0000000000e+00 
          0.0000000000e+00 0.0000000000e+00 0.0000000000e+00 
          0.0000000000e+00 0.0000000000e+00 0.0000000000e+00 
          0.0000000000e+00 0.0000000000e+00 0.0000000000e+00 
          0.0000000000e+00 0.0000000000e+00 0.0000000000e+00 
          0.0000000000e+00 0.0000000000e+00 0.0000000000e+00 
          0.0000000000e+00 0.0000000000e+00 0.0000000000e+00 
          0.0000000000e+00 0.0000000000e+00 0.0000000000e+00 
          0.0000000000e+00 0.0000000000e+00 0.0000000000e+00 
          0.0000000000e+00 0.0000000000e+00 0.0000000000e+00 
          0.0000000000e+00 0.0000000000e+00 0.0000000000e+00 
          0.0000000000e+00 0.0000000000e+00 0.0000000000e+00 
          0.0000000000e+00 0.0000000000e+00 0.0000000000e+00 
          0.0000000000e+00 0.0000000000e+00 0.0000000000e+00 
          0.0000000000e+00 0.0000000000e+00 0.0000000000e+00 
          0.0000000000e+00 0.0000000000e+00 0.0000000000e+00 
          0.0000000000e+00 0.0000000000e+00 0.0000000000e+00 
          0.0000000000e+00 0.0000000000e+00 0.0000000000e+00 
          0.0000000000e+00 0.0000000000e+00 0.0000000000e+00 
          0.0000000000e+00 0.0000000000e+00 0.0000000000e+00 
          0.0000000000e+00 0.0000000000e+00 0.0000000000e+00 
          0.0000000000e+00 0.0000000000e+00 0.0000000000e+00 
          0.0000000000e+00 0.0000000000e+00 0.0000000000e+00 
          0.0000000000e+00 0.0000000000e+00 0.0000000000e+00 
          0.0000000000e+00 0.0000000000e+00 0.0000000000e+00 
          0.0000000000e+00 0.0000000000e+00 0.0000000000e+00 
          0.0000000000e+00 0.0000000000e+00 0.0000000000e+00 
          0.0000000000e+00 0.0000000000e+00 0.0000000000e+00 
          0.0000000000e+00 0.0000000000e+00 0.0000000000e+00 
          0.0000000000e+00 0.0000000000e+00 0.0000000000e+00 
          0.0000000000e+00 0.0000000000e+00 0.0000000000e+00 
          0.0000000000e+00 0.0000000000e+00 0.0000000000e+00 
          0.0000000000e+00 0.0000000000e+00 0.0000000000e+00 
          0.0000000000e+00 0.0000000000e+00 0.0000000000e+00 
          0.0000000000e+00 0.0000000000e+00 0.0000000000e+00 
          0.0000000000e+00 0.0000000000e+00 0.0000000000e+00 
          0.0000000000e+00 0.0000000000e+00 0.0000000000e+00 
          0.0000000000e+00 0.0000000000e+00 0.0000000000e+00 
          0.0000000000e+00 0.0000000000e+00 0.0000000000e+00 
          0.0000000000e+00 0.0000000000e+00 0.0000000000e+00 
          0.0000000000e+00 0.0000000000e+00 0.0000000000e+00 
          0.0000000000e+00 0.0000000000e+00 0.0000000000e+00 
          0.0000000000e+00 0.0000000000e+00 0.0000000000e+00 
          0.0000000000e+00 0.0000000000e+00 0.0000000000e+00 
          0.0000000000e+00 0.0000000000e+00 0.0000000000e+00 
          0.0000000000e+00 0.0000000000e+00 0.0000000000e+00 
          0.0000000000e+00 0.0000000000e+00 0.0000000000e+00 
          0.0000000000e+00 0.0000000000e+00 0.0000000000e+00 
          0.0000000000e+00 0.0000000000e+00 0.0000000000e+00 
          0.0000000000e+00 0.0000000000e+00 0.0000000000e+00 
          0.0000000000e+00 0.0000000000e+00 0.0000000000e+00 
          0.0000000000e+00 0.0000000000e+00 0.0000000000e+00 
          0.0000000000e+00 0.0000000000e+00 0.0000000000e+00 
          0.0000000000e+00 0.0000000000e+00 0.0000000000e+00 
          0.0000000000e+00 0.0000000000e+00 0.0000000000e+00 
          0.0000000000e+00 0.0000000000e+00 0.0000000000e+00 
          0.0000000000e+00 0.0000000000e+00 0.0000000000e+00 
          0.0000000000e+00 0.0000000000e+00 0.0000000000e+00 
          0.0000000000e+00 0.0000000000e+00 0.0000000000e+00 
          0.0000000000e+00 0.0000000000e+00 0.0000000000e+00 
          0.0000000000e+00 0.0000000000e+00 0.0000000000e+00 
          0.0000000000e+00 0.0000000000e+00 0.0000000000e+00 
          0.0000000000e+00 0.0000000000e+00 0.0000000000e+00 
          0.0000000000e+00 0.0000000000e+00 0.0000000000e+00 
          0.0000000000e+00 0.0000000000e+00 0.0000000000e+00 
          0.0000000000e+00 0.0000000000e+00 0.0000000000e+00 
          0.0000000000e+00 0.0000000000e+00 0.0000000000e+00 
          0.0000000000e+00 0.0000000000e+00 0.0000000000e+00 
          0.0000000000e+00 0.0000000000e+00 0.0000000000e+00 
          0.0000000000e+00 0.0000000000e+00 0.0000000000e+00 
          0.0000000000e+00 0.0000000000e+00 0.0000000000e+00 
        </DataArray>
      </PointData>
      <CellData>
        <DataArray type="Int64" Name="ElementTag" format="ascii">
          90
          91
          92
          93
          94
          95
          96
          97
          98
          99
          100
          101
          102
          103
          104
          105
          106
          107
          108
          109
          110
          111
          112
          113
          114
          115
          116
          117
          118
          119
          120
          121
          122
          123
          124
          125
          126
          127
          128
        </DataArray>
      </CellData>
    </Piece>
  </UnstructuredGrid>
</VTKFile>
