<?xml version="1.0"?>
<VTKFile type="UnstructuredGrid" version="1.0" byte_order="LittleEndian" compressor="vtkZLibDataCompressor">
  <UnstructuredGrid>
    <Piece NumberOfPoints="82" NumberOfCells="1">
      <Points>
        <DataArray type="Float64" Name="Points" NumberOfComponents="3" format="ascii">
          0.0000000000e+00 0.0000000000e+00 0.0000000000e+00 
          2.5000000000e-01 0.0000000000e+00 0.0000000000e+00 
          2.5000000000e-01 3.0000000000e+01 0.0000000000e+00 
          0.0000000000e+00 3.0000000000e+01 0.0000000000e+00 
          0.0000000000e+00 -5.0000000000e+00 0.0000000000e+00 
          2.5000000000e-01 -5.0000000000e+00 0.0000000000e+00 
          2.5000000000e-01 7.6923100000e-01 0.0000000000e+00 
          2.5000000000e-01 1.5384620000e+00 0.0000000000e+00 
          2.5000000000e-01 2.3076920000e+00 0.0000000000e+00 
          2.5000000000e-01 3.0769230000e+00 0.0000000000e+00 
          2.5000000000e-01 3.8461540000e+00 0.0000000000e+00 
          2.5000000000e-01 4.6153850000e+00 0.0000000000e+00 
          2.5000000000e-01 5.3846150000e+00 0.0000000000e+00 
          2.5000000000e-01 6.1538460000e+00 0.0000000000e+00 
          2.5000000000e-01 6.9230770000e+00 0.0000000000e+00 
          2.5000000000e-01 7.6923080000e+00 0.0000000000e+00 
          2.5000000000e-01 8.4615380000e+00 0.0000000000e+00 
          2.5000000000e-01 9.2307690000e+00 0.0000000000e+00 
          2.5000000000e-01 1.0000000000e+01 0.0000000000e+00 
          2.5000000000e-01 1.0769231000e+01 0.0000000000e+00 
          2.5000000000e-01 1.1538462000e+01 0.0000000000e+00 
          2.5000000000e-01 1.2307692000e+01 0.0000000000e+00 
          2.5000000000e-01 1.3076923000e+01 0.0000000000e+00 
          2.5000000000e-01 1.3846154000e+01 0.0000000000e+00 
          2.5000000000e-01 1.4615385000e+01 0.0000000000e+00 
          2.5000000000e-01 1.5384615000e+01 0.0000000000e+00 
          2.5000000000e-01 1.6153846000e+01 0.0000000000e+00 
          2.5000000000e-01 1.6923077000e+01 0.0000000000e+00 
          2.5000000000e-01 1.7692308000e+01 0.0000000000e+00 
          2.5000000000e-01 1.8461538000e+01 0.0000000000e+00 
          2.5000000000e-01 1.9230769000e+01 0.0000000000e+00 
          2.5000000000e-01 2.0000000000e+01 0.0000000000e+00 
          2.5000000000e-01 2.0769231000e+01 0.0000000000e+00 
          2.5000000000e-01 2.1538462000e+01 0.0000000000e+00 
          2.5000000000e-01 2.2307692000e+01 0.0000000000e+00 
          2.5000000000e-01 2.3076923000e+01 0.0000000000e+00 
          2.5000000000e-01 2.3846154000e+01 0.0000000000e+00 
          2.5000000000e-01 2.4615385000e+01 0.0000000000e+00 
          2.5000000000e-01 2.5384615000e+01 0.0000000000e+00 
          2.5000000000e-01 2.6153846000e+01 0.0000000000e+00 
          2.5000000000e-01 2.6923077000e+01 0.0000000000e+00 
          2.5000000000e-01 2.7692308000e+01 0.0000000000e+00 
          2.5000000000e-01 2.8461538000e+01 0.0000000000e+00 
          2.5000000000e-01 2.9230769000e+01 0.0000000000e+00 
          0.0000000000e+00 7.6923100000e-01 0.0000000000e+00 
          0.0000000000e+00 1.5384620000e+00 0.0000000000e+00 
          0.0000000000e+00 2.3076920000e+00 0.0000000000e+00 
          0.0000000000e+00 3.0769230000e+00 0.0000000000e+00 
          0.0000000000e+00 3.8461540000e+00 0.0000000000e+00 
          0.0000000000e+00 4.6153850000e+00 0.0000000000e+00 
          0.0000000000e+00 5.3846150000e+00 0.0000000000e+00 
          0.0000000000e+00 6.1538460000e+00 0.0000000000e+00 
          0.0000000000e+00 6.9230770000e+00 0.0000000000e+00 
          0.0000000000e+00 7.6923080000e+00 0.0000000000e+00 
          0.0000000000e+00 8.4615380000e+00 0.0000000000e+00 
          0.0000000000e+00 9.2307690000e+00 0.0000000000e+00 
          0.0000000000e+00 1.0000000000e+01 0.0000000000e+00 
          0.0000000000e+00 1.0769231000e+01 0.0000000000e+00 
          0.0000000000e+00 1.1538462000e+01 0.0000000000e+00 
          0.0000000000e+00 1.2307692000e+01 0.0000000000e+00 
          0.0000000000e+00 1.3076923000e+01 0.0000000000e+00 
          0.0000000000e+00 1.3846154000e+01 0.0000000000e+00 
          0.0000000000e+00 1.4615385000e+01 0.0000000000e+00 
          0.0000000000e+00 1.5384615000e+01 0.0000000000e+00 
          0.0000000000e+00 1.6153846000e+01 0.0000000000e+00 
          0.0000000000e+00 1.6923077000e+01 0.0000000000e+00 
          0.0000000000e+00 1.7692308000e+01 0.0000000000e+00 
          0.0000000000e+00 1.8461538000e+01 0.0000000000e+00 
          0.0000000000e+00 1.9230769000e+01 0.0000000000e+00 
          0.0000000000e+00 2.0000000000e+01 0.0000000000e+00 
          0.0000000000e+00 2.0769231000e+01 0.0000000000e+00 
          0.0000000000e+00 2.1538462000e+01 0.0000000000e+00 
          0.0000000000e+00 2.2307692000e+01 0.0000000000e+00 
          0.0000000000e+00 2.3076923000e+01 0.0000000000e+00 
          0.0000000000e+00 2.3846154000e+01 0.0000000000e+00 
          0.0000000000e+00 2.4615385000e+01 0.0000000000e+00 
          0.0000000000e+00 2.5384615000e+01 0.0000000000e+00 
          0.0000000000e+00 2.6153846000e+01 0.0000000000e+00 
          0.0000000000e+00 2.6923077000e+01 0.0000000000e+00 
          0.0000000000e+00 2.7692308000e+01 0.0000000000e+00 
          0.0000000000e+00 2.8461538000e+01 0.0000000000e+00 
          0.0000000000e+00 2.9230769000e+01 0.0000000000e+00 
        </DataArray>
      </Points>
      <Cells>
        <DataArray type="Int64" Name="connectivity" format="ascii">
          0
          1
          2
          3
          4
          5
          6
          7
          8
          9
          10
          11
          12
          13
          14
          15
          16
          17
          18
          19
          20
          21
          22
          23
          24
          25
          26
          27
          28
          29
          30
          31
          32
          33
          34
          35
          36
          37
          38
          39
          40
          41
          42
          43
          44
          45
          46
          47
          48
          49
          50
          51
          52
          53
          54
          55
          56
          57
          58
          59
          60
          61
          62
          63
          64
          65
          66
          67
          68
          69
          70
          71
          72
          73
          74
          75
          76
          77
          78
          79
          80
          81
        </DataArray>
        <DataArray type="Int64" Name="offsets" format="ascii">
          82
        </DataArray>
        <DataArray type="Int64" Name="types" format="ascii">
          2
        </DataArray>
      </Cells>
      <PointData>
        <DataArray type="Int64" Name="NodeTag" format="ascii">
          1
          2
          3
          4
          5
          6
          7
          8
          9
          10
          11
          12
          13
          14
          15
          16
          17
          18
          19
          20
          21
          22
          23
          24
          25
          26
          27
          28
          29
          30
          31
          32
          33
          34
          35
          36
          37
          38
          39
          40
          41
          42
          43
          44
          45
          46
          47
          48
          49
          50
          51
          52
          53
          54
          55
          56
          57
          58
          59
          60
          61
          62
          63
          64
          65
          66
          67
          68
          69
          70
          71
          72
          73
          74
          75
          76
          77
          78
          79
          80
          81
          82
        </DataArray>
        <DataArray type="Float64" Name="Velocity" NumberOfComponents="3" format="ascii">
          -2.2106531037e-06 -7.7843493230e-05 0.0000000000e+00 
          -2.2106531037e-06 -7.7843493230e-05 0.0000000000e+00 
          2.0359579953e-06 -7.7806162882e-05 0.0000000000e+00 
          2.0359579953e-06 -7.7806162882e-05 0.0000000000e+00 
          0.0000000000e+00 0.0000000000e+00 0.0000000000e+00 
          0.0000000000e+00 0.0000000000e+00 0.0000000000e+00 
          -2.0688478522e-06 -7.7862826761e-05 0.0000000000e+00 
          -1.9226371418e-06 -7.7823784707e-05 0.0000000000e+00 
          -1.7743361532e-06 -7.7850555024e-05 0.0000000000e+00 
          -1.6260150991e-06 -7.7858368584e-05 0.0000000000e+00 
          -1.4722465434e-06 -7.7818802975e-05 0.0000000000e+00 
          -1.3197284244e-06 -7.7867417804e-05 0.0000000000e+00 
          -1.1684739878e-06 -7.7834145588e-05 0.0000000000e+00 
          -1.0083917646e-06 -7.7841243700e-05 0.0000000000e+00 
          -8.6192119865e-07 -7.7855347097e-05 0.0000000000e+00 
          -7.0049772137e-07 -7.7832547078e-05 0.0000000000e+00 
          -5.5187201460e-07 -7.7852020427e-05 0.0000000000e+00 
          -3.9972799203e-07 -7.7845056329e-05 0.0000000000e+00 
          -2.4552438710e-07 -7.7833939480e-05 0.0000000000e+00 
          -1.0294363117e-07 -7.7861996134e-05 0.0000000000e+00 
          4.8788524063e-08 -7.7826166647e-05 0.0000000000e+00 
          1.8904433068e-07 -7.7857499000e-05 0.0000000000e+00 
          3.2883100212e-07 -7.7839202949e-05 0.0000000000e+00 
          4.6960945395e-07 -7.7841569562e-05 0.0000000000e+00 
          5.9733056618e-07 -7.7853240337e-05 0.0000000000e+00 
          7.3051971724e-07 -7.7835865548e-05 0.0000000000e+00 
          8.5387179948e-07 -7.7844116820e-05 0.0000000000e+00 
          9.7133364316e-07 -7.7857592875e-05 0.0000000000e+00 
          1.0899008188e-06 -7.7823072260e-05 0.0000000000e+00 
          1.1957791147e-06 -7.7865252398e-05 0.0000000000e+00 
          1.3006002487e-06 -7.7828992027e-05 0.0000000000e+00 
          1.3988803411e-06 -7.7854892692e-05 0.0000000000e+00 
          1.4887928563e-06 -7.7838620210e-05 0.0000000000e+00 
          1.5751302850e-06 -7.7841478511e-05 0.0000000000e+00 
          1.6528648212e-06 -7.7861560699e-05 0.0000000000e+00 
          1.7245129029e-06 -7.7812334686e-05 0.0000000000e+00 
          1.7890456044e-06 -7.7885157454e-05 0.0000000000e+00 
          1.8463140850e-06 -7.7806143356e-05 0.0000000000e+00 
          1.8965128755e-06 -7.7870020594e-05 0.0000000000e+00 
          1.9387052418e-06 -7.7836072507e-05 0.0000000000e+00 
          1.9738765272e-06 -7.7836888752e-05 0.0000000000e+00 
          2.0009610832e-06 -7.7864282858e-05 0.0000000000e+00 
          2.0206468068e-06 -7.7815235435e-05 0.0000000000e+00 
          2.0324642405e-06 -7.7880214827e-05 0.0000000000e+00 
          -2.0688478522e-06 -7.7862826761e-05 0.0000000000e+00 
          -1.9226371418e-06 -7.7823784707e-05 0.0000000000e+00 
          -1.7743361532e-06 -7.7850555024e-05 0.0000000000e+00 
          -1.6260150991e-06 -7.7858368584e-05 0.0000000000e+00 
          -1.4722465434e-06 -7.7818802975e-05 0.0000000000e+00 
          -1.3197284244e-06 -7.7867417804e-05 0.0000000000e+00 
          -1.1684739878e-06 -7.7834145588e-05 0.0000000000e+00 
          -1.0083917646e-06 -7.7841243700e-05 0.0000000000e+00 
          -8.6192119865e-07 -7.7855347097e-05 0.0000000000e+00 
          -7.0049772137e-07 -7.7832547078e-05 0.0000000000e+00 
          -5.5187201460e-07 -7.7852020427e-05 0.0000000000e+00 
          -3.9972799203e-07 -7.7845056329e-05 0.0000000000e+00 
          -2.4552438710e-07 -7.7833939480e-05 0.0000000000e+00 
          -1.0294363117e-07 -7.7861996134e-05 0.0000000000e+00 
          4.8788524063e-08 -7.7826166647e-05 0.0000000000e+00 
          1.8904433068e-07 -7.7857499000e-05 0.0000000000e+00 
          3.2883100212e-07 -7.7839202949e-05 0.0000000000e+00 
          4.6960945395e-07 -7.7841569562e-05 0.0000000000e+00 
          5.9733056618e-07 -7.7853240337e-05 0.0000000000e+00 
          7.3051971724e-07 -7.7835865548e-05 0.0000000000e+00 
          8.5387179948e-07 -7.7844116820e-05 0.0000000000e+00 
          9.7133364316e-07 -7.7857592875e-05 0.0000000000e+00 
          1.0899008188e-06 -7.7823072260e-05 0.0000000000e+00 
          1.1957791147e-06 -7.7865252398e-05 0.0000000000e+00 
          1.3006002487e-06 -7.7828992027e-05 0.0000000000e+00 
          1.3988803411e-06 -7.7854892692e-05 0.0000000000e+00 
          1.4887928563e-06 -7.7838620210e-05 0.0000000000e+00 
          1.5751302850e-06 -7.7841478511e-05 0.0000000000e+00 
          1.6528648212e-06 -7.7861560699e-05 0.0000000000e+00 
          1.7245129029e-06 -7.7812334686e-05 0.0000000000e+00 
          1.7890456044e-06 -7.7885157454e-05 0.0000000000e+00 
          1.8463140850e-06 -7.7806143356e-05 0.0000000000e+00 
          1.8965128755e-06 -7.7870020594e-05 0.0000000000e+00 
          1.9387052418e-06 -7.7836072507e-05 0.0000000000e+00 
          1.9738765272e-06 -7.7836888752e-05 0.0000000000e+00 
          2.0009610832e-06 -7.7864282858e-05 0.0000000000e+00 
          2.0206468068e-06 -7.7815235435e-05 0.0000000000e+00 
          2.0324642405e-06 -7.7880214827e-05 0.0000000000e+00 
        </DataArray>
        <DataArray type="Float64" Name="Displacement" NumberOfComponents="3" format="ascii">
          -1.0561949092e-08 -7.1278815955e-04 0.0000000000e+00 
          -1.0561949092e-08 -7.1278815955e-04 0.0000000000e+00 
          -9.0227865364e-07 -7.3636851950e-04 0.0000000000e+00 
          -9.0227865364e-07 -7.3636851950e-04 0.0000000000e+00 
          0.0000000000e+00 0.0000000000e+00 0.0000000000e+00 
          0.0000000000e+00 0.0000000000e+00 0.0000000000e+00 
          -4.7226586056e-08 -7.1398189118e-04 0.0000000000e+00 
          -8.3758891341e-08 -7.1514466542e-04 0.0000000000e+00 
          -1.2006053411e-07 -7.1627635045e-04 0.0000000000e+00 
          -1.5613414729e-07 -7.1737710015e-04 0.0000000000e+00 
          -1.9187675261e-07 -7.1844683534e-04 0.0000000000e+00 
          -2.2726412882e-07 -7.1948547852e-04 0.0000000000e+00 
          -2.6223838075e-07 -7.2049329144e-04 0.0000000000e+00 
          -2.9673727118e-07 -7.2146986726e-04 0.0000000000e+00 
          -3.3072734215e-07 -7.2241567191e-04 0.0000000000e+00 
          -3.6414009981e-07 -7.2333027375e-04 0.0000000000e+00 
          -3.9694208513e-07 -7.2421400203e-04 0.0000000000e+00 
          -4.2907302780e-07 -7.2506667025e-04 0.0000000000e+00 
          -4.6049194913e-07 -7.2588829326e-04 0.0000000000e+00 
          -4.9115035107e-07 -7.2667904354e-04 0.0000000000e+00 
          -5.2100134689e-07 -7.2743858193e-04 0.0000000000e+00 
          -5.5000523227e-07 -7.2816735576e-04 0.0000000000e+00 
          -5.7811045079e-07 -7.2886487443e-04 0.0000000000e+00 
          -6.0528646749e-07 -7.2953161716e-04 0.0000000000e+00 
          -6.3148220992e-07 -7.3016717596e-04 0.0000000000e+00 
          -6.5666315692e-07 -7.3077181539e-04 0.0000000000e+00 
          -6.8079684117e-07 -7.3134546986e-04 0.0000000000e+00 
          -7.0383189440e-07 -7.3188801344e-04 0.0000000000e+00 
          -7.2575331949e-07 -7.3239967225e-04 0.0000000000e+00 
          -7.4651337333e-07 -7.3288026070e-04 0.0000000000e+00 
          -7.6608340277e-07 -7.3332981333e-04 0.0000000000e+00 
          -7.8444352517e-07 -7.3374845608e-04 0.0000000000e+00 
          -8.0154985318e-07 -7.3413600127e-04 0.0000000000e+00 
          -8.1739092871e-07 -7.3449255678e-04 0.0000000000e+00 
          -8.3193634952e-07 -7.3481818369e-04 0.0000000000e+00 
          -8.4516001477e-07 -7.3511267726e-04 0.0000000000e+00 
          -8.5705201772e-07 -7.3537626249e-04 0.0000000000e+00 
          -8.6758556708e-07 -7.3560882596e-04 0.0000000000e+00 
          -8.7674625664e-07 -7.3581032247e-04 0.0000000000e+00 
          -8.8452417507e-07 -7.3598089943e-04 0.0000000000e+00 
          -8.9090290921e-07 -7.3612041006e-04 0.0000000000e+00 
          -8.9587355221e-07 -7.3622891503e-04 0.0000000000e+00 
          -8.9943100139e-07 -7.3630648571e-04 0.0000000000e+00 
          -9.0156713846e-07 -7.3635290622e-04 0.0000000000e+00 
          -4.7226586056e-08 -7.1398189118e-04 0.0000000000e+00 
          -8.3758891341e-08 -7.1514466542e-04 0.0000000000e+00 
          -1.2006053411e-07 -7.1627635045e-04 0.0000000000e+00 
          -1.5613414729e-07 -7.1737710015e-04 0.0000000000e+00 
          -1.9187675261e-07 -7.1844683534e-04 0.0000000000e+00 
          -2.2726412882e-07 -7.1948547852e-04 0.0000000000e+00 
          -2.6223838075e-07 -7.2049329144e-04 0.0000000000e+00 
          -2.9673727118e-07 -7.2146986726e-04 0.0000000000e+00 
          -3.3072734215e-07 -7.2241567191e-04 0.0000000000e+00 
          -3.6414009981e-07 -7.2333027375e-04 0.0000000000e+00 
          -3.9694208513e-07 -7.2421400203e-04 0.0000000000e+00 
          -4.2907302780e-07 -7.2506667025e-04 0.0000000000e+00 
          -4.6049194913e-07 -7.2588829326e-04 0.0000000000e+00 
          -4.9115035107e-07 -7.2667904354e-04 0.0000000000e+00 
          -5.2100134689e-07 -7.2743858193e-04 0.0000000000e+00 
          -5.5000523227e-07 -7.2816735576e-04 0.0000000000e+00 
          -5.7811045079e-07 -7.2886487443e-04 0.0000000000e+00 
          -6.0528646749e-07 -7.2953161716e-04 0.0000000000e+00 
          -6.3148220992e-07 -7.3016717596e-04 0.0000000000e+00 
          -6.5666315692e-07 -7.3077181539e-04 0.0000000000e+00 
          -6.8079684117e-07 -7.3134546986e-04 0.0000000000e+00 
          -7.0383189440e-07 -7.3188801344e-04 0.0000000000e+00 
          -7.2575331949e-07 -7.3239967225e-04 0.0000000000e+00 
          -7.4651337333e-07 -7.3288026070e-04 0.0000000000e+00 
          -7.6608340277e-07 -7.3332981333e-04 0.0000000000e+00 
          -7.8444352517e-07 -7.3374845608e-04 0.0000000000e+00 
          -8.0154985318e-07 -7.3413600127e-04 0.0000000000e+00 
          -8.1739092871e-07 -7.3449255678e-04 0.0000000000e+00 
          -8.3193634952e-07 -7.3481818369e-04 0.0000000000e+00 
          -8.4516001477e-07 -7.3511267726e-04 0.0000000000e+00 
          -8.5705201772e-07 -7.3537626249e-04 0.0000000000e+00 
          -8.6758556708e-07 -7.3560882596e-04 0.0000000000e+00 
          -8.7674625664e-07 -7.3581032247e-04 0.0000000000e+00 
          -8.8452417507e-07 -7.3598089943e-04 0.0000000000e+00 
          -8.9090290921e-07 -7.3612041006e-04 0.0000000000e+00 
          -8.9587355221e-07 -7.3622891503e-04 0.0000000000e+00 
          -8.9943100139e-07 -7.3630648571e-04 0.0000000000e+00 
          -9.0156713846e-07 -7.3635290622e-04 0.0000000000e+00 
        </DataArray>
        <DataArray type="Float64" Name="Acceleration" NumberOfComponents="3" format="ascii">
          8.4697240756e-06 -1.1355525801e-06 0.0000000000e+00 
          8.4697240756e-06 -1.1355525801e-06 0.0000000000e+00 
          1.2821784574e-04 3.9683531356e-05 0.0000000000e+00 
          1.2821784574e-04 3.9683531356e-05 0.0000000000e+00 
          0.0000000000e+00 0.0000000000e+00 0.0000000000e+00 
          0.0000000000e+00 0.0000000000e+00 0.0000000000e+00 
          1.1923345553e-05 -8.8213411971e-06 0.0000000000e+00 
          2.0778909574e-05 1.4673867418e-05 0.0000000000e+00 
          2.0550182212e-05 -1.2527765194e-05 0.0000000000e+00 
          2.9824460981e-05 1.4730711803e-06 0.0000000000e+00 
          3.2006844660e-05 1.5438181736e-05 0.0000000000e+00 
          3.7219241462e-05 -3.1962812232e-05 0.0000000000e+00 
          4.2835134196e-05 4.1824252370e-05 0.0000000000e+00 
          4.5845638123e-05 -4.2377668614e-05 0.0000000000e+00 
          5.2017069262e-05 3.5405954143e-05 0.0000000000e+00 
          5.5027987214e-05 -2.4130576426e-05 0.0000000000e+00 
          6.0466149660e-05 9.8917275024e-06 0.0000000000e+00 
          6.4154529743e-05 7.0044432972e-06 0.0000000000e+00 
          6.8524298380e-05 -2.4076247827e-05 0.0000000000e+00 
          7.2748885484e-05 3.7041187255e-05 0.0000000000e+00 
          7.6322976408e-05 -4.3735671020e-05 0.0000000000e+00 
          8.0975108395e-05 4.5013907070e-05 0.0000000000e+00 
          8.3722918711e-05 -4.1519436686e-05 0.0000000000e+00 
          8.8324648529e-05 3.2003172123e-05 0.0000000000e+00 
          9.1432181123e-05 -1.5810997009e-05 0.0000000000e+00 
          9.4363453363e-05 -3.7042715538e-06 0.0000000000e+00 
          9.8988824484e-05 1.8838285578e-05 0.0000000000e+00 
          1.0034009522e-04 -2.1905881086e-05 0.0000000000e+00 
          1.0463947905e-04 1.1428674678e-05 0.0000000000e+00 
          1.0722604971e-04 5.4290030692e-06 0.0000000000e+00 
          1.0901501393e-04 -1.7382160409e-05 0.0000000000e+00 
          1.1296935022e-04 1.6439432580e-05 0.0000000000e+00 
          1.1400174715e-04 -3.0035438160e-06 0.0000000000e+00 
          1.1673942148e-04 -1.4079779793e-05 0.0000000000e+00 
          1.1909456772e-04 2.2966172597e-05 0.0000000000e+00 
          1.1998540177e-04 -1.7659558455e-05 0.0000000000e+00 
          1.2239935199e-04 2.7807826389e-06 0.0000000000e+00 
          1.2369638734e-04 1.0879799313e-05 0.0000000000e+00 
          1.2459156208e-04 -1.5588818623e-05 0.0000000000e+00 
          1.2606926842e-04 1.0809595183e-05 0.0000000000e+00 
          1.2687179296e-04 -1.1902343067e-07 0.0000000000e+00 
          1.2733121903e-04 -1.2999261347e-05 0.0000000000e+00 
          1.2806352875e-04 2.5940300439e-05 0.0000000000e+00 
          1.2836124530e-04 -3.5878182212e-05 0.0000000000e+00 
          1.1923345553e-05 -8.8213411971e-06 0.0000000000e+00 
          2.0778909574e-05 1.4673867418e-05 0.0000000000e+00 
          2.0550182212e-05 -1.2527765194e-05 0.0000000000e+00 
          2.9824460981e-05 1.4730711803e-06 0.0000000000e+00 
          3.2006844660e-05 1.5438181736e-05 0.0000000000e+00 
          3.7219241462e-05 -3.1962812232e-05 0.0000000000e+00 
          4.2835134196e-05 4.1824252370e-05 0.0000000000e+00 
          4.5845638123e-05 -4.2377668614e-05 0.0000000000e+00 
          5.2017069262e-05 3.5405954143e-05 0.0000000000e+00 
          5.5027987214e-05 -2.4130576426e-05 0.0000000000e+00 
          6.0466149660e-05 9.8917275024e-06 0.0000000000e+00 
          6.4154529743e-05 7.0044432972e-06 0.0000000000e+00 
          6.8524298380e-05 -2.4076247827e-05 0.0000000000e+00 
          7.2748885484e-05 3.7041187255e-05 0.0000000000e+00 
          7.6322976408e-05 -4.3735671020e-05 0.0000000000e+00 
          8.0975108395e-05 4.5013907070e-05 0.0000000000e+00 
          8.3722918711e-05 -4.1519436686e-05 0.0000000000e+00 
          8.8324648529e-05 3.2003172123e-05 0.0000000000e+00 
          9.1432181123e-05 -1.5810997009e-05 0.0000000000e+00 
          9.4363453363e-05 -3.7042715538e-06 0.0000000000e+00 
          9.8988824484e-05 1.8838285578e-05 0.0000000000e+00 
          1.0034009522e-04 -2.1905881086e-05 0.0000000000e+00 
          1.0463947905e-04 1.1428674678e-05 0.0000000000e+00 
          1.0722604971e-04 5.4290030692e-06 0.0000000000e+00 
          1.0901501393e-04 -1.7382160409e-05 0.0000000000e+00 
          1.1296935022e-04 1.6439432580e-05 0.0000000000e+00 
          1.1400174715e-04 -3.0035438160e-06 0.0000000000e+00 
          1.1673942148e-04 -1.4079779793e-05 0.0000000000e+00 
          1.1909456772e-04 2.2966172597e-05 0.0000000000e+00 
          1.1998540177e-04 -1.7659558455e-05 0.0000000000e+00 
          1.2239935199e-04 2.7807826389e-06 0.0000000000e+00 
          1.2369638734e-04 1.0879799313e-05 0.0000000000e+00 
          1.2459156208e-04 -1.5588818623e-05 0.0000000000e+00 
          1.2606926842e-04 1.0809595183e-05 0.0000000000e+00 
          1.2687179296e-04 -1.1902343067e-07 0.0000000000e+00 
          1.2733121903e-04 -1.2999261347e-05 0.0000000000e+00 
          1.2806352875e-04 2.5940300439e-05 0.0000000000e+00 
          1.2836124530e-04 -3.5878182212e-05 0.0000000000e+00 
        </DataArray>
        <DataArray type="Float64" Name="Reaction" NumberOfComponents="3" format="ascii">
          0.0000000000e+00 0.0000000000e+00 0.0000000000e+00 
          0.0000000000e+00 0.0000000000e+00 0.0000000000e+00 
          0.0000000000e+00 0.0000000000e+00 0.0000000000e+00 
          0.0000000000e+00 0.0000000000e+00 0.0000000000e+00 
          0.0000000000e+00 0.0000000000e+00 0.0000000000e+00 
          0.0000000000e+00 0.0000000000e+00 0.0000000000e+00 
          0.0000000000e+00 0.0000000000e+00 0.0000000000e+00 
          0.0000000000e+00 0.0000000000e+00 0.0000000000e+00 
          0.0000000000e+00 0.0000000000e+00 0.0000000000e+00 
          0.0000000000e+00 0.0000000000e+00 0.0000000000e+00 
          0.0000000000e+00 0.0000000000e+00 0.0000000000e+00 
          0.0000000000e+00 0.0000000000e+00 0.0000000000e+00 
          0.0000000000e+00 0.0000000000e+00 0.0000000000e+00 
          0.0000000000e+00 0.0000000000e+00 0.0000000000e+00 
          0.0000000000e+00 0.0000000000e+00 0.0000000000e+00 
          0.0000000000e+00 0.0000000000e+00 0.0000000000e+00 
          0.0000000000e+00 0.0000000000e+00 0.0000000000e+00 
          0.0000000000e+00 0.0000000000e+00 0.0000000000e+00 
          0.0000000000e+00 0.0000000000e+00 0.0000000000e+00 
          0.0000000000e+00 0.0000000000e+00 0.0000000000e+00 
          0.0000000000e+00 0.0000000000e+00 0.0000000000e+00 
          0.0000000000e+00 0.0000000000e+00 0.0000000000e+00 
          0.0000000000e+00 0.0000000000e+00 0.0000000000e+00 
          0.0000000000e+00 0.0000000000e+00 0.0000000000e+00 
          0.0000000000e+00 0.0000000000e+00 0.0000000000e+00 
          0.0000000000e+00 0.0000000000e+00 0.0000000000e+00 
          0.0000000000e+00 0.0000000000e+00 0.0000000000e+00 
          0.0000000000e+00 0.0000000000e+00 0.0000000000e+00 
          0.0000000000e+00 0.0000000000e+00 0.0000000000e+00 
          0.0000000000e+00 0.0000000000e+00 0.0000000000e+00 
          0.0000000000e+00 0.0000000000e+00 0.0000000000e+00 
          0.0000000000e+00 0.0000000000e+00 0.0000000000e+00 
          0.0000000000e+00 0.0000000000e+00 0.0000000000e+00 
          0.0000000000e+00 0.0000000000e+00 0.0000000000e+00 
          0.0000000000e+00 0.0000000000e+00 0.0000000000e+00 
          0.0000000000e+00 0.0000000000e+00 0.0000000000e+00 
          0.0000000000e+00 0.0000000000e+00 0.0000000000e+00 
          0.0000000000e+00 0.0000000000e+00 0.0000000000e+00 
          0.0000000000e+00 0.0000000000e+00 0.0000000000e+00 
          0.0000000000e+00 0.0000000000e+00 0.0000000000e+00 
          0.0000000000e+00 0.0000000000e+00 0.0000000000e+00 
          0.0000000000e+00 0.0000000000e+00 0.0000000000e+00 
          0.0000000000e+00 0.0000000000e+00 0.0000000000e+00 
          0.0000000000e+00 0.0000000000e+00 0.0000000000e+00 
          0.0000000000e+00 0.0000000000e+00 0.0000000000e+00 
          0.0000000000e+00 0.0000000000e+00 0.0000000000e+00 
          0.0000000000e+00 0.0000000000e+00 0.0000000000e+00 
          0.0000000000e+00 0.0000000000e+00 0.0000000000e+00 
          0.0000000000e+00 0.0000000000e+00 0.0000000000e+00 
          0.0000000000e+00 0.0000000000e+00 0.0000000000e+00 
          0.0000000000e+00 0.0000000000e+00 0.0000000000e+00 
          0.0000000000e+00 0.0000000000e+00 0.0000000000e+00 
          0.0000000000e+00 0.0000000000e+00 0.0000000000e+00 
          0.0000000000e+00 0.0000000000e+00 0.0000000000e+00 
          0.0000000000e+00 0.0000000000e+00 0.0000000000e+00 
          0.0000000000e+00 0.0000000000e+00 0.0000000000e+00 
          0.0000000000e+00 0.0000000000e+00 0.0000000000e+00 
          0.0000000000e+00 0.0000000000e+00 0.0000000000e+00 
          0.0000000000e+00 0.0000000000e+00 0.0000000000e+00 
          0.0000000000e+00 0.0000000000e+00 0.0000000000e+00 
          0.0000000000e+00 0.0000000000e+00 0.0000000000e+00 
          0.0000000000e+00 0.0000000000e+00 0.0000000000e+00 
          0.0000000000e+00 0.0000000000e+00 0.0000000000e+00 
          0.0000000000e+00 0.0000000000e+00 0.0000000000e+00 
          0.0000000000e+00 0.0000000000e+00 0.0000000000e+00 
          0.0000000000e+00 0.0000000000e+00 0.0000000000e+00 
          0.0000000000e+00 0.0000000000e+00 0.0000000000e+00 
          0.0000000000e+00 0.0000000000e+00 0.0000000000e+00 
          0.0000000000e+00 0.0000000000e+00 0.0000000000e+00 
          0.0000000000e+00 0.0000000000e+00 0.0000000000e+00 
          0.0000000000e+00 0.0000000000e+00 0.0000000000e+00 
          0.0000000000e+00 0.0000000000e+00 0.0000000000e+00 
          0.0000000000e+00 0.0000000000e+00 0.0000000000e+00 
          0.0000000000e+00 0.0000000000e+00 0.0000000000e+00 
          0.0000000000e+00 0.0000000000e+00 0.0000000000e+00 
          0.0000000000e+00 0.0000000000e+00 0.0000000000e+00 
          0.0000000000e+00 0.0000000000e+00 0.0000000000e+00 
          0.0000000000e+00 0.0000000000e+00 0.0000000000e+00 
          0.0000000000e+00 0.0000000000e+00 0.0000000000e+00 
          0.0000000000e+00 0.0000000000e+00 0.0000000000e+00 
          0.0000000000e+00 0.0000000000e+00 0.0000000000e+00 
          0.0000000000e+00 0.0000000000e+00 0.0000000000e+00 
        </DataArray>
      </PointData>
      <CellData>
        <DataArray type="Int64" Name="ElementTag" format="ascii">
          0
        </DataArray>
      </CellData>
    </Piece>
  </UnstructuredGrid>
</VTKFile>
