<?xml version="1.0"?>
<VTKFile type="UnstructuredGrid" version="1.0" byte_order="LittleEndian" compressor="vtkZLibDataCompressor">
  <UnstructuredGrid>
    <Piece NumberOfPoints="82" NumberOfCells="1">
      <Points>
        <DataArray type="Float64" Name="Points" NumberOfComponents="3" format="ascii">
          0.0000000000e+00 0.0000000000e+00 0.0000000000e+00 
          2.5000000000e-01 0.0000000000e+00 0.0000000000e+00 
          2.5000000000e-01 3.0000000000e+01 0.0000000000e+00 
          0.0000000000e+00 3.0000000000e+01 0.0000000000e+00 
          0.0000000000e+00 -5.0000000000e+00 0.0000000000e+00 
          2.5000000000e-01 -5.0000000000e+00 0.0000000000e+00 
          2.5000000000e-01 7.6923100000e-01 0.0000000000e+00 
          2.5000000000e-01 1.5384620000e+00 0.0000000000e+00 
          2.5000000000e-01 2.3076920000e+00 0.0000000000e+00 
          2.5000000000e-01 3.0769230000e+00 0.0000000000e+00 
          2.5000000000e-01 3.8461540000e+00 0.0000000000e+00 
          2.5000000000e-01 4.6153850000e+00 0.0000000000e+00 
          2.5000000000e-01 5.3846150000e+00 0.0000000000e+00 
          2.5000000000e-01 6.1538460000e+00 0.0000000000e+00 
          2.5000000000e-01 6.9230770000e+00 0.0000000000e+00 
          2.5000000000e-01 7.6923080000e+00 0.0000000000e+00 
          2.5000000000e-01 8.4615380000e+00 0.0000000000e+00 
          2.5000000000e-01 9.2307690000e+00 0.0000000000e+00 
          2.5000000000e-01 1.0000000000e+01 0.0000000000e+00 
          2.5000000000e-01 1.0769231000e+01 0.0000000000e+00 
          2.5000000000e-01 1.1538462000e+01 0.0000000000e+00 
          2.5000000000e-01 1.2307692000e+01 0.0000000000e+00 
          2.5000000000e-01 1.3076923000e+01 0.0000000000e+00 
          2.5000000000e-01 1.3846154000e+01 0.0000000000e+00 
          2.5000000000e-01 1.4615385000e+01 0.0000000000e+00 
          2.5000000000e-01 1.5384615000e+01 0.0000000000e+00 
          2.5000000000e-01 1.6153846000e+01 0.0000000000e+00 
          2.5000000000e-01 1.6923077000e+01 0.0000000000e+00 
          2.5000000000e-01 1.7692308000e+01 0.0000000000e+00 
          2.5000000000e-01 1.8461538000e+01 0.0000000000e+00 
          2.5000000000e-01 1.9230769000e+01 0.0000000000e+00 
          2.5000000000e-01 2.0000000000e+01 0.0000000000e+00 
          2.5000000000e-01 2.0769231000e+01 0.0000000000e+00 
          2.5000000000e-01 2.1538462000e+01 0.0000000000e+00 
          2.5000000000e-01 2.2307692000e+01 0.0000000000e+00 
          2.5000000000e-01 2.3076923000e+01 0.0000000000e+00 
          2.5000000000e-01 2.3846154000e+01 0.0000000000e+00 
          2.5000000000e-01 2.4615385000e+01 0.0000000000e+00 
          2.5000000000e-01 2.5384615000e+01 0.0000000000e+00 
          2.5000000000e-01 2.6153846000e+01 0.0000000000e+00 
          2.5000000000e-01 2.6923077000e+01 0.0000000000e+00 
          2.5000000000e-01 2.7692308000e+01 0.0000000000e+00 
          2.5000000000e-01 2.8461538000e+01 0.0000000000e+00 
          2.5000000000e-01 2.9230769000e+01 0.0000000000e+00 
          0.0000000000e+00 7.6923100000e-01 0.0000000000e+00 
          0.0000000000e+00 1.5384620000e+00 0.0000000000e+00 
          0.0000000000e+00 2.3076920000e+00 0.0000000000e+00 
          0.0000000000e+00 3.0769230000e+00 0.0000000000e+00 
          0.0000000000e+00 3.8461540000e+00 0.0000000000e+00 
          0.0000000000e+00 4.6153850000e+00 0.0000000000e+00 
          0.0000000000e+00 5.3846150000e+00 0.0000000000e+00 
          0.0000000000e+00 6.1538460000e+00 0.0000000000e+00 
          0.0000000000e+00 6.9230770000e+00 0.0000000000e+00 
          0.0000000000e+00 7.6923080000e+00 0.0000000000e+00 
          0.0000000000e+00 8.4615380000e+00 0.0000000000e+00 
          0.0000000000e+00 9.2307690000e+00 0.0000000000e+00 
          0.0000000000e+00 1.0000000000e+01 0.0000000000e+00 
          0.0000000000e+00 1.0769231000e+01 0.0000000000e+00 
          0.0000000000e+00 1.1538462000e+01 0.0000000000e+00 
          0.0000000000e+00 1.2307692000e+01 0.0000000000e+00 
          0.0000000000e+00 1.3076923000e+01 0.0000000000e+00 
          0.0000000000e+00 1.3846154000e+01 0.0000000000e+00 
          0.0000000000e+00 1.4615385000e+01 0.0000000000e+00 
          0.0000000000e+00 1.5384615000e+01 0.0000000000e+00 
          0.0000000000e+00 1.6153846000e+01 0.0000000000e+00 
          0.0000000000e+00 1.6923077000e+01 0.0000000000e+00 
          0.0000000000e+00 1.7692308000e+01 0.0000000000e+00 
          0.0000000000e+00 1.8461538000e+01 0.0000000000e+00 
          0.0000000000e+00 1.9230769000e+01 0.0000000000e+00 
          0.0000000000e+00 2.0000000000e+01 0.0000000000e+00 
          0.0000000000e+00 2.0769231000e+01 0.0000000000e+00 
          0.0000000000e+00 2.1538462000e+01 0.0000000000e+00 
          0.0000000000e+00 2.2307692000e+01 0.0000000000e+00 
          0.0000000000e+00 2.3076923000e+01 0.0000000000e+00 
          0.0000000000e+00 2.3846154000e+01 0.0000000000e+00 
          0.0000000000e+00 2.4615385000e+01 0.0000000000e+00 
          0.0000000000e+00 2.5384615000e+01 0.0000000000e+00 
          0.0000000000e+00 2.6153846000e+01 0.0000000000e+00 
          0.0000000000e+00 2.6923077000e+01 0.0000000000e+00 
          0.0000000000e+00 2.7692308000e+01 0.0000000000e+00 
          0.0000000000e+00 2.8461538000e+01 0.0000000000e+00 
          0.0000000000e+00 2.9230769000e+01 0.0000000000e+00 
        </DataArray>
      </Points>
      <Cells>
        <DataArray type="Int64" Name="connectivity" format="ascii">
          0
          1
          2
          3
          4
          5
          6
          7
          8
          9
          10
          11
          12
          13
          14
          15
          16
          17
          18
          19
          20
          21
          22
          23
          24
          25
          26
          27
          28
          29
          30
          31
          32
          33
          34
          35
          36
          37
          38
          39
          40
          41
          42
          43
          44
          45
          46
          47
          48
          49
          50
          51
          52
          53
          54
          55
          56
          57
          58
          59
          60
          61
          62
          63
          64
          65
          66
          67
          68
          69
          70
          71
          72
          73
          74
          75
          76
          77
          78
          79
          80
          81
        </DataArray>
        <DataArray type="Int64" Name="offsets" format="ascii">
          82
        </DataArray>
        <DataArray type="Int64" Name="types" format="ascii">
          2
        </DataArray>
      </Cells>
      <PointData>
        <DataArray type="Int64" Name="NodeTag" format="ascii">
          1
          2
          3
          4
          5
          6
          7
          8
          9
          10
          11
          12
          13
          14
          15
          16
          17
          18
          19
          20
          21
          22
          23
          24
          25
          26
          27
          28
          29
          30
          31
          32
          33
          34
          35
          36
          37
          38
          39
          40
          41
          42
          43
          44
          45
          46
          47
          48
          49
          50
          51
          52
          53
          54
          55
          56
          57
          58
          59
          60
          61
          62
          63
          64
          65
          66
          67
          68
          69
          70
          71
          72
          73
          74
          75
          76
          77
          78
          79
          80
          81
          82
        </DataArray>
        <DataArray type="Float64" Name="Velocity" NumberOfComponents="3" format="ascii">
          -5.9234602057e-21 -4.4513949282e-05 0.0000000000e+00 
          -5.9234602057e-21 -4.4513949282e-05 0.0000000000e+00 
          2.0451589220e-20 -3.3804159500e-04 0.0000000000e+00 
          2.0451589220e-20 -3.3804159500e-04 0.0000000000e+00 
          0.0000000000e+00 0.0000000000e+00 0.0000000000e+00 
          0.0000000000e+00 0.0000000000e+00 0.0000000000e+00 
          1.0602108212e-20 -5.5966717647e-05 0.0000000000e+00 
          -2.6376695749e-20 -6.7325358268e-05 0.0000000000e+00 
          -1.0011425988e-19 -7.8850814628e-05 0.0000000000e+00 
          1.0352958038e-19 -9.0199944735e-05 0.0000000000e+00 
          -7.0069318722e-20 -1.0162580422e-04 0.0000000000e+00 
          7.8409618118e-22 -1.1322010686e-04 0.0000000000e+00 
          1.8816095052e-20 -1.2427862591e-04 0.0000000000e+00 
          -1.4829471379e-21 -1.3621310724e-04 0.0000000000e+00 
          -8.8820518059e-20 -1.4724622704e-04 0.0000000000e+00 
          -1.0294881305e-19 -1.5862434347e-04 0.0000000000e+00 
          -6.9987838516e-20 -1.7067576228e-04 0.0000000000e+00 
          9.3350112564e-20 -1.8135628673e-04 0.0000000000e+00 
          1.2053458658e-19 -1.9280485540e-04 0.0000000000e+00 
          1.4224258784e-19 -2.0518364871e-04 0.0000000000e+00 
          9.2488842189e-20 -2.1591308232e-04 0.0000000000e+00 
          3.3764603621e-20 -2.2648919046e-04 0.0000000000e+00 
          4.7544163157e-20 -2.3903893049e-04 0.0000000000e+00 
          2.6462873808e-20 -2.5147433670e-04 0.0000000000e+00 
          -3.0156321699e-20 -2.6166512634e-04 0.0000000000e+00 
          3.7481923791e-20 -2.7132376825e-04 0.0000000000e+00 
          -5.4136420623e-20 -2.8319819231e-04 0.0000000000e+00 
          -5.0709576473e-21 -2.9731223085e-04 0.0000000000e+00 
          -1.1718347663e-20 -3.1119087859e-04 0.0000000000e+00 
          1.5150569697e-20 -3.2235672388e-04 0.0000000000e+00 
          3.3827707818e-20 -3.2987814670e-04 0.0000000000e+00 
          1.9912617576e-19 -3.3422539332e-04 0.0000000000e+00 
          9.9219193378e-20 -3.3642567374e-04 0.0000000000e+00 
          -6.7222995563e-20 -3.3741684492e-04 0.0000000000e+00 
          8.1106870984e-20 -3.3781944997e-04 0.0000000000e+00 
          6.0485163246e-20 -3.3796847767e-04 0.0000000000e+00 
          1.1402903385e-19 -3.3801918957e-04 0.0000000000e+00 
          1.4580837851e-19 -3.3803517042e-04 0.0000000000e+00 
          -1.0808182477e-19 -3.3803986348e-04 0.0000000000e+00 
          -1.1087784823e-20 -3.3804115476e-04 0.0000000000e+00 
          -1.0351878314e-20 -3.3804148922e-04 0.0000000000e+00 
          1.2304181868e-20 -3.3804157110e-04 0.0000000000e+00 
          9.6232703885e-21 -3.3804159012e-04 0.0000000000e+00 
          2.8432668824e-20 -3.3804159429e-04 0.0000000000e+00 
          1.0602108212e-20 -5.5966717647e-05 0.0000000000e+00 
          -2.6376695749e-20 -6.7325358268e-05 0.0000000000e+00 
          -1.0011425988e-19 -7.8850814628e-05 0.0000000000e+00 
          1.0352958038e-19 -9.0199944735e-05 0.0000000000e+00 
          -7.0069318722e-20 -1.0162580422e-04 0.0000000000e+00 
          7.8409618118e-22 -1.1322010686e-04 0.0000000000e+00 
          1.8816095052e-20 -1.2427862591e-04 0.0000000000e+00 
          -1.4829471379e-21 -1.3621310724e-04 0.0000000000e+00 
          -8.8820518059e-20 -1.4724622704e-04 0.0000000000e+00 
          -1.0294881305e-19 -1.5862434347e-04 0.0000000000e+00 
          -6.9987838516e-20 -1.7067576228e-04 0.0000000000e+00 
          9.3350112564e-20 -1.8135628673e-04 0.0000000000e+00 
          1.2053458658e-19 -1.9280485540e-04 0.0000000000e+00 
          1.4224258784e-19 -2.0518364871e-04 0.0000000000e+00 
          9.2488842189e-20 -2.1591308232e-04 0.0000000000e+00 
          3.3764603621e-20 -2.2648919046e-04 0.0000000000e+00 
          4.7544163157e-20 -2.3903893049e-04 0.0000000000e+00 
          2.6462873808e-20 -2.5147433670e-04 0.0000000000e+00 
          -3.0156321699e-20 -2.6166512634e-04 0.0000000000e+00 
          3.7481923791e-20 -2.7132376825e-04 0.0000000000e+00 
          -5.4136420623e-20 -2.8319819231e-04 0.0000000000e+00 
          -5.0709576473e-21 -2.9731223085e-04 0.0000000000e+00 
          -1.1718347663e-20 -3.1119087859e-04 0.0000000000e+00 
          1.5150569697e-20 -3.2235672388e-04 0.0000000000e+00 
          3.3827707818e-20 -3.2987814670e-04 0.0000000000e+00 
          1.9912617576e-19 -3.3422539332e-04 0.0000000000e+00 
          9.9219193378e-20 -3.3642567374e-04 0.0000000000e+00 
          -6.7222995563e-20 -3.3741684492e-04 0.0000000000e+00 
          8.1106870984e-20 -3.3781944997e-04 0.0000000000e+00 
          6.0485163246e-20 -3.3796847767e-04 0.0000000000e+00 
          1.1402903385e-19 -3.3801918957e-04 0.0000000000e+00 
          1.4580837851e-19 -3.3803517042e-04 0.0000000000e+00 
          -1.0808182477e-19 -3.3803986348e-04 0.0000000000e+00 
          -1.1087784823e-20 -3.3804115476e-04 0.0000000000e+00 
          -1.0351878314e-20 -3.3804148922e-04 0.0000000000e+00 
          1.2304181868e-20 -3.3804157110e-04 0.0000000000e+00 
          9.6232703885e-21 -3.3804159012e-04 0.0000000000e+00 
          2.8432668824e-20 -3.3804159429e-04 0.0000000000e+00 
        </DataArray>
        <DataArray type="Float64" Name="Displacement" NumberOfComponents="3" format="ascii">
          1.7450559839e-22 -1.3470352808e-06 0.0000000000e+00 
          1.7450559839e-22 -1.3470352808e-06 0.0000000000e+00 
          3.0173131436e-22 -1.0226456695e-05 0.0000000000e+00 
          3.0173131436e-22 -1.0226456695e-05 0.0000000000e+00 
          0.0000000000e+00 0.0000000000e+00 0.0000000000e+00 
          0.0000000000e+00 0.0000000000e+00 0.0000000000e+00 
          -1.7717428298e-22 -2.0250642018e-06 0.0000000000e+00 
          5.9880601529e-22 -2.6760611762e-06 0.0000000000e+00 
          6.9474664578e-22 -3.3003711193e-06 0.0000000000e+00 
          5.2255005829e-22 -3.8973455562e-06 0.0000000000e+00 
          1.8698567891e-22 -4.4680122408e-06 0.0000000000e+00 
          3.3183193486e-22 -5.0109913464e-06 0.0000000000e+00 
          2.0664956187e-22 -5.5277508072e-06 0.0000000000e+00 
          1.1772675105e-22 -6.0173173605e-06 0.0000000000e+00 
          -8.4353960222e-24 -6.4794121320e-06 0.0000000000e+00 
          -7.6753805651e-22 -6.9159551161e-06 0.0000000000e+00 
          -1.1020517657e-21 -7.3241503955e-06 0.0000000000e+00 
          -7.0630091021e-22 -7.7055654332e-06 0.0000000000e+00 
          1.6458720346e-22 -8.0617717109e-06 0.0000000000e+00 
          7.5802024865e-22 -8.3891229290e-06 0.0000000000e+00 
          1.1606796519e-21 -8.6889225260e-06 0.0000000000e+00 
          5.9991799025e-22 -8.9646328376e-06 0.0000000000e+00 
          7.8636201647e-22 -9.2131055088e-06 0.0000000000e+00 
          1.1689037753e-21 -9.4311453272e-06 0.0000000000e+00 
          1.1044390204e-21 -9.6224631013e-06 0.0000000000e+00 
          4.8854262595e-22 -9.7913366567e-06 0.0000000000e+00 
          1.0867402933e-22 -9.9353656546e-06 0.0000000000e+00 
          2.5608339450e-22 -1.0048302667e-05 0.0000000000e+00 
          3.0597119398e-22 -1.0127402490e-05 0.0000000000e+00 
          3.3390974432e-22 -1.0176470068e-05 0.0000000000e+00 
          -1.2841617827e-22 -1.0203500574e-05 0.0000000000e+00 
          1.7935309880e-22 -1.0216819478e-05 0.0000000000e+00 
          1.2078272966e-21 -1.0222739064e-05 0.0000000000e+00 
          1.6830151398e-21 -1.0225131908e-05 0.0000000000e+00 
          1.5177530990e-21 -1.0226018351e-05 0.0000000000e+00 
          1.5509890934e-21 -1.0226321375e-05 0.0000000000e+00 
          1.7442384025e-21 -1.0226417547e-05 0.0000000000e+00 
          9.0784322147e-22 -1.0226446038e-05 0.0000000000e+00 
          9.0666505848e-22 -1.0226453955e-05 0.0000000000e+00 
          5.2394911025e-22 -1.0226456027e-05 0.0000000000e+00 
          6.3936914155e-22 -1.0226456540e-05 0.0000000000e+00 
          3.7657981356e-22 -1.0226456661e-05 0.0000000000e+00 
          3.3960085636e-22 -1.0226456688e-05 0.0000000000e+00 
          4.1928656581e-22 -1.0226456694e-05 0.0000000000e+00 
          -1.7717428298e-22 -2.0250642018e-06 0.0000000000e+00 
          5.9880601529e-22 -2.6760611762e-06 0.0000000000e+00 
          6.9474664578e-22 -3.3003711193e-06 0.0000000000e+00 
          5.2255005829e-22 -3.8973455562e-06 0.0000000000e+00 
          1.8698567891e-22 -4.4680122408e-06 0.0000000000e+00 
          3.3183193486e-22 -5.0109913464e-06 0.0000000000e+00 
          2.0664956187e-22 -5.5277508072e-06 0.0000000000e+00 
          1.1772675105e-22 -6.0173173605e-06 0.0000000000e+00 
          -8.4353960222e-24 -6.4794121320e-06 0.0000000000e+00 
          -7.6753805651e-22 -6.9159551161e-06 0.0000000000e+00 
          -1.1020517657e-21 -7.3241503955e-06 0.0000000000e+00 
          -7.0630091021e-22 -7.7055654332e-06 0.0000000000e+00 
          1.6458720346e-22 -8.0617717109e-06 0.0000000000e+00 
          7.5802024865e-22 -8.3891229290e-06 0.0000000000e+00 
          1.1606796519e-21 -8.6889225260e-06 0.0000000000e+00 
          5.9991799025e-22 -8.9646328376e-06 0.0000000000e+00 
          7.8636201647e-22 -9.2131055088e-06 0.0000000000e+00 
          1.1689037753e-21 -9.4311453272e-06 0.0000000000e+00 
          1.1044390204e-21 -9.6224631013e-06 0.0000000000e+00 
          4.8854262595e-22 -9.7913366567e-06 0.0000000000e+00 
          1.0867402933e-22 -9.9353656546e-06 0.0000000000e+00 
          2.5608339450e-22 -1.0048302667e-05 0.0000000000e+00 
          3.0597119398e-22 -1.0127402490e-05 0.0000000000e+00 
          3.3390974432e-22 -1.0176470068e-05 0.0000000000e+00 
          -1.2841617827e-22 -1.0203500574e-05 0.0000000000e+00 
          1.7935309880e-22 -1.0216819478e-05 0.0000000000e+00 
          1.2078272966e-21 -1.0222739064e-05 0.0000000000e+00 
          1.6830151398e-21 -1.0225131908e-05 0.0000000000e+00 
          1.5177530990e-21 -1.0226018351e-05 0.0000000000e+00 
          1.5509890934e-21 -1.0226321375e-05 0.0000000000e+00 
          1.7442384025e-21 -1.0226417547e-05 0.0000000000e+00 
          9.0784322147e-22 -1.0226446038e-05 0.0000000000e+00 
          9.0666505848e-22 -1.0226453955e-05 0.0000000000e+00 
          5.2394911025e-22 -1.0226456027e-05 0.0000000000e+00 
          6.3936914155e-22 -1.0226456540e-05 0.0000000000e+00 
          3.7657981356e-22 -1.0226456661e-05 0.0000000000e+00 
          3.3960085636e-22 -1.0226456688e-05 0.0000000000e+00 
          4.1928656581e-22 -1.0226456694e-05 0.0000000000e+00 
        </DataArray>
        <DataArray type="Float64" Name="Acceleration" NumberOfComponents="3" format="ascii">
          3.1676649877e-18 -7.3747141391e-04 0.0000000000e+00 
          3.1676649877e-18 -7.3747141391e-04 0.0000000000e+00 
          1.4646627494e-18 -5.5874640469e-03 0.0000000000e+00 
          1.4646627494e-18 -5.5874640469e-03 0.0000000000e+00 
          0.0000000000e+00 0.0000000000e+00 0.0000000000e+00 
          0.0000000000e+00 0.0000000000e+00 0.0000000000e+00 
          2.0559792961e-17 -7.1620085810e-04 0.0000000000e+00 
          2.5606767507e-17 -7.7849906102e-04 0.0000000000e+00 
          -6.8243075057e-17 -6.6134875711e-04 0.0000000000e+00 
          3.0919417024e-17 -8.4670350600e-04 0.0000000000e+00 
          6.5585192910e-18 -5.9805330233e-04 0.0000000000e+00 
          -7.1438951850e-18 -8.6269881845e-04 0.0000000000e+00 
          -5.2758044160e-20 -6.8707081233e-04 0.0000000000e+00 
          -3.6054288851e-18 -6.3694079348e-04 0.0000000000e+00 
          -2.3732335610e-17 -9.8293139563e-04 0.0000000000e+00 
          3.3092261167e-18 -4.7918831849e-04 0.0000000000e+00 
          1.3888161781e-17 -7.6146030945e-04 0.0000000000e+00 
          1.6335791896e-17 -1.0447462713e-03 0.0000000000e+00 
          3.1821945403e-17 -3.8766868371e-04 0.0000000000e+00 
          -1.1666921370e-17 -6.2255342307e-04 0.0000000000e+00 
          2.0080433388e-18 -1.2465418097e-03 0.0000000000e+00 
          7.1427371660e-18 -6.7906620961e-04 0.0000000000e+00 
          2.0589612248e-17 -1.0334411175e-04 0.0000000000e+00 
          -1.2302477671e-16 -7.7204647527e-04 0.0000000000e+00 
          -4.9842384316e-17 -1.5429644503e-03 0.0000000000e+00 
          1.1679562344e-16 -1.1103345263e-03 0.0000000000e+00 
          7.1506171515e-18 1.5434284672e-05 0.0000000000e+00 
          1.3279044790e-18 5.1013062457e-04 0.0000000000e+00 
          3.0583555165e-18 -1.7554317152e-04 0.0000000000e+00 
          2.1840628267e-18 -1.6162828325e-03 0.0000000000e+00 
          1.2411577743e-17 -3.1165795393e-03 0.0000000000e+00 
          3.4311333122e-17 -4.2540780436e-03 0.0000000000e+00 
          -4.6595809382e-18 -4.9519316712e-03 0.0000000000e+00 
          1.9087102678e-17 -5.3160048055e-03 0.0000000000e+00 
          -9.0486361994e-18 -5.4823299563e-03 0.0000000000e+00 
          1.6197708895e-17 -5.5501886114e-03 0.0000000000e+00 
          -7.2368452845e-17 -5.5752681322e-03 0.0000000000e+00 
          3.4812216008e-17 -5.5837568545e-03 0.0000000000e+00 
          -2.8611740935e-17 -5.5864111566e-03 0.0000000000e+00 
          2.3349774427e-19 -5.5871833739e-03 0.0000000000e+00 
          5.8536080402e-18 -5.5873936560e-03 0.0000000000e+00 
          5.2785154280e-18 -5.5874475259e-03 0.0000000000e+00 
          1.7769151437e-18 -5.5874605616e-03 0.0000000000e+00 
          1.2569423296e-18 -5.5874635289e-03 0.0000000000e+00 
          2.0559792961e-17 -7.1620085810e-04 0.0000000000e+00 
          2.5606767507e-17 -7.7849906102e-04 0.0000000000e+00 
          -6.8243075057e-17 -6.6134875711e-04 0.0000000000e+00 
          3.0919417024e-17 -8.4670350600e-04 0.0000000000e+00 
          6.5585192910e-18 -5.9805330233e-04 0.0000000000e+00 
          -7.1438951850e-18 -8.6269881845e-04 0.0000000000e+00 
          -5.2758044160e-20 -6.8707081233e-04 0.0000000000e+00 
          -3.6054288851e-18 -6.3694079348e-04 0.0000000000e+00 
          -2.3732335610e-17 -9.8293139563e-04 0.0000000000e+00 
          3.3092261167e-18 -4.7918831849e-04 0.0000000000e+00 
          1.3888161781e-17 -7.6146030945e-04 0.0000000000e+00 
          1.6335791896e-17 -1.0447462713e-03 0.0000000000e+00 
          3.1821945403e-17 -3.8766868371e-04 0.0000000000e+00 
          -1.1666921370e-17 -6.2255342307e-04 0.0000000000e+00 
          2.0080433388e-18 -1.2465418097e-03 0.0000000000e+00 
          7.1427371660e-18 -6.7906620961e-04 0.0000000000e+00 
          2.0589612248e-17 -1.0334411175e-04 0.0000000000e+00 
          -1.2302477671e-16 -7.7204647527e-04 0.0000000000e+00 
          -4.9842384316e-17 -1.5429644503e-03 0.0000000000e+00 
          1.1679562344e-16 -1.1103345263e-03 0.0000000000e+00 
          7.1506171515e-18 1.5434284672e-05 0.0000000000e+00 
          1.3279044790e-18 5.1013062457e-04 0.0000000000e+00 
          3.0583555165e-18 -1.7554317152e-04 0.0000000000e+00 
          2.1840628267e-18 -1.6162828325e-03 0.0000000000e+00 
          1.2411577743e-17 -3.1165795393e-03 0.0000000000e+00 
          3.4311333122e-17 -4.2540780436e-03 0.0000000000e+00 
          -4.6595809382e-18 -4.9519316712e-03 0.0000000000e+00 
          1.9087102678e-17 -5.3160048055e-03 0.0000000000e+00 
          -9.0486361994e-18 -5.4823299563e-03 0.0000000000e+00 
          1.6197708895e-17 -5.5501886114e-03 0.0000000000e+00 
          -7.2368452845e-17 -5.5752681322e-03 0.0000000000e+00 
          3.4812216008e-17 -5.5837568545e-03 0.0000000000e+00 
          -2.8611740935e-17 -5.5864111566e-03 0.0000000000e+00 
          2.3349774427e-19 -5.5871833739e-03 0.0000000000e+00 
          5.8536080402e-18 -5.5873936560e-03 0.0000000000e+00 
          5.2785154280e-18 -5.5874475259e-03 0.0000000000e+00 
          1.7769151437e-18 -5.5874605616e-03 0.0000000000e+00 
          1.2569423296e-18 -5.5874635289e-03 0.0000000000e+00 
        </DataArray>
        <DataArray type="Float64" Name="Reaction" NumberOfComponents="3" format="ascii">
          0.0000000000e+00 0.0000000000e+00 0.0000000000e+00 
          0.0000000000e+00 0.0000000000e+00 0.0000000000e+00 
          0.0000000000e+00 0.0000000000e+00 0.0000000000e+00 
          0.0000000000e+00 0.0000000000e+00 0.0000000000e+00 
          0.0000000000e+00 0.0000000000e+00 0.0000000000e+00 
          0.0000000000e+00 0.0000000000e+00 0.0000000000e+00 
          0.0000000000e+00 0.0000000000e+00 0.0000000000e+00 
          0.0000000000e+00 0.0000000000e+00 0.0000000000e+00 
          0.0000000000e+00 0.0000000000e+00 0.0000000000e+00 
          0.0000000000e+00 0.0000000000e+00 0.0000000000e+00 
          0.0000000000e+00 0.0000000000e+00 0.0000000000e+00 
          0.0000000000e+00 0.0000000000e+00 0.0000000000e+00 
          0.0000000000e+00 0.0000000000e+00 0.0000000000e+00 
          0.0000000000e+00 0.0000000000e+00 0.0000000000e+00 
          0.0000000000e+00 0.0000000000e+00 0.0000000000e+00 
          0.0000000000e+00 0.0000000000e+00 0.0000000000e+00 
          0.0000000000e+00 0.0000000000e+00 0.0000000000e+00 
          0.0000000000e+00 0.0000000000e+00 0.0000000000e+00 
          0.0000000000e+00 0.0000000000e+00 0.0000000000e+00 
          0.0000000000e+00 0.0000000000e+00 0.0000000000e+00 
          0.0000000000e+00 0.0000000000e+00 0.0000000000e+00 
          0.0000000000e+00 0.0000000000e+00 0.0000000000e+00 
          0.0000000000e+00 0.0000000000e+00 0.0000000000e+00 
          0.0000000000e+00 0.0000000000e+00 0.0000000000e+00 
          0.0000000000e+00 0.0000000000e+00 0.0000000000e+00 
          0.0000000000e+00 0.0000000000e+00 0.0000000000e+00 
          0.0000000000e+00 0.0000000000e+00 0.0000000000e+00 
          0.0000000000e+00 0.0000000000e+00 0.0000000000e+00 
          0.0000000000e+00 0.0000000000e+00 0.0000000000e+00 
          0.0000000000e+00 0.0000000000e+00 0.0000000000e+00 
          0.0000000000e+00 0.0000000000e+00 0.0000000000e+00 
          0.0000000000e+00 0.0000000000e+00 0.0000000000e+00 
          0.0000000000e+00 0.0000000000e+00 0.0000000000e+00 
          0.0000000000e+00 0.0000000000e+00 0.0000000000e+00 
          0.0000000000e+00 0.0000000000e+00 0.0000000000e+00 
          0.0000000000e+00 0.0000000000e+00 0.0000000000e+00 
          0.0000000000e+00 0.0000000000e+00 0.0000000000e+00 
          0.0000000000e+00 0.0000000000e+00 0.0000000000e+00 
          0.0000000000e+00 0.0000000000e+00 0.0000000000e+00 
          0.0000000000e+00 0.0000000000e+00 0.0000000000e+00 
          0.0000000000e+00 0.0000000000e+00 0.0000000000e+00 
          0.0000000000e+00 0.0000000000e+00 0.0000000000e+00 
          0.0000000000e+00 0.0000000000e+00 0.0000000000e+00 
          0.0000000000e+00 0.0000000000e+00 0.0000000000e+00 
          0.0000000000e+00 0.0000000000e+00 0.0000000000e+00 
          0.0000000000e+00 0.0000000000e+00 0.0000000000e+00 
          0.0000000000e+00 0.0000000000e+00 0.0000000000e+00 
          0.0000000000e+00 0.0000000000e+00 0.0000000000e+00 
          0.0000000000e+00 0.0000000000e+00 0.0000000000e+00 
          0.0000000000e+00 0.0000000000e+00 0.0000000000e+00 
          0.0000000000e+00 0.0000000000e+00 0.0000000000e+00 
          0.0000000000e+00 0.0000000000e+00 0.0000000000e+00 
          0.0000000000e+00 0.0000000000e+00 0.0000000000e+00 
          0.0000000000e+00 0.0000000000e+00 0.0000000000e+00 
          0.0000000000e+00 0.0000000000e+00 0.0000000000e+00 
          0.0000000000e+00 0.0000000000e+00 0.0000000000e+00 
          0.0000000000e+00 0.0000000000e+00 0.0000000000e+00 
          0.0000000000e+00 0.0000000000e+00 0.0000000000e+00 
          0.0000000000e+00 0.0000000000e+00 0.0000000000e+00 
          0.0000000000e+00 0.0000000000e+00 0.0000000000e+00 
          0.0000000000e+00 0.0000000000e+00 0.0000000000e+00 
          0.0000000000e+00 0.0000000000e+00 0.0000000000e+00 
          0.0000000000e+00 0.0000000000e+00 0.0000000000e+00 
          0.0000000000e+00 0.0000000000e+00 0.0000000000e+00 
          0.0000000000e+00 0.0000000000e+00 0.0000000000e+00 
          0.0000000000e+00 0.0000000000e+00 0.0000000000e+00 
          0.0000000000e+00 0.0000000000e+00 0.0000000000e+00 
          0.0000000000e+00 0.0000000000e+00 0.0000000000e+00 
          0.0000000000e+00 0.0000000000e+00 0.0000000000e+00 
          0.0000000000e+00 0.0000000000e+00 0.0000000000e+00 
          0.0000000000e+00 0.0000000000e+00 0.0000000000e+00 
          0.0000000000e+00 0.0000000000e+00 0.0000000000e+00 
          0.0000000000e+00 0.0000000000e+00 0.0000000000e+00 
          0.0000000000e+00 0.0000000000e+00 0.0000000000e+00 
          0.0000000000e+00 0.0000000000e+00 0.0000000000e+00 
          0.0000000000e+00 0.0000000000e+00 0.0000000000e+00 
          0.0000000000e+00 0.0000000000e+00 0.0000000000e+00 
          0.0000000000e+00 0.0000000000e+00 0.0000000000e+00 
          0.0000000000e+00 0.0000000000e+00 0.0000000000e+00 
          0.0000000000e+00 0.0000000000e+00 0.0000000000e+00 
          0.0000000000e+00 0.0000000000e+00 0.0000000000e+00 
          0.0000000000e+00 0.0000000000e+00 0.0000000000e+00 
        </DataArray>
      </PointData>
      <CellData>
        <DataArray type="Int64" Name="ElementTag" format="ascii">
          0
        </DataArray>
      </CellData>
    </Piece>
  </UnstructuredGrid>
</VTKFile>
