<?xml version="1.0"?>
<VTKFile type="UnstructuredGrid" version="1.0" byte_order="LittleEndian" compressor="vtkZLibDataCompressor">
  <UnstructuredGrid>
    <Piece NumberOfPoints="80" NumberOfCells="39">
      <Points>
        <DataArray type="Float64" Name="Points" NumberOfComponents="3" format="ascii">
          0.0000000000e+00 0.0000000000e+00 0.0000000000e+00 
          2.5000000000e-01 0.0000000000e+00 0.0000000000e+00 
          2.5000000000e-01 3.0000000000e+01 0.0000000000e+00 
          0.0000000000e+00 3.0000000000e+01 0.0000000000e+00 
          2.5000000000e-01 7.6923100000e-01 0.0000000000e+00 
          2.5000000000e-01 1.5384620000e+00 0.0000000000e+00 
          2.5000000000e-01 2.3076920000e+00 0.0000000000e+00 
          2.5000000000e-01 3.0769230000e+00 0.0000000000e+00 
          2.5000000000e-01 3.8461540000e+00 0.0000000000e+00 
          2.5000000000e-01 4.6153850000e+00 0.0000000000e+00 
          2.5000000000e-01 5.3846150000e+00 0.0000000000e+00 
          2.5000000000e-01 6.1538460000e+00 0.0000000000e+00 
          2.5000000000e-01 6.9230770000e+00 0.0000000000e+00 
          2.5000000000e-01 7.6923080000e+00 0.0000000000e+00 
          2.5000000000e-01 8.4615380000e+00 0.0000000000e+00 
          2.5000000000e-01 9.2307690000e+00 0.0000000000e+00 
          2.5000000000e-01 1.0000000000e+01 0.0000000000e+00 
          2.5000000000e-01 1.0769231000e+01 0.0000000000e+00 
          2.5000000000e-01 1.1538462000e+01 0.0000000000e+00 
          2.5000000000e-01 1.2307692000e+01 0.0000000000e+00 
          2.5000000000e-01 1.3076923000e+01 0.0000000000e+00 
          2.5000000000e-01 1.3846154000e+01 0.0000000000e+00 
          2.5000000000e-01 1.4615385000e+01 0.0000000000e+00 
          2.5000000000e-01 1.5384615000e+01 0.0000000000e+00 
          2.5000000000e-01 1.6153846000e+01 0.0000000000e+00 
          2.5000000000e-01 1.6923077000e+01 0.0000000000e+00 
          2.5000000000e-01 1.7692308000e+01 0.0000000000e+00 
          2.5000000000e-01 1.8461538000e+01 0.0000000000e+00 
          2.5000000000e-01 1.9230769000e+01 0.0000000000e+00 
          2.5000000000e-01 2.0000000000e+01 0.0000000000e+00 
          2.5000000000e-01 2.0769231000e+01 0.0000000000e+00 
          2.5000000000e-01 2.1538462000e+01 0.0000000000e+00 
          2.5000000000e-01 2.2307692000e+01 0.0000000000e+00 
          2.5000000000e-01 2.3076923000e+01 0.0000000000e+00 
          2.5000000000e-01 2.3846154000e+01 0.0000000000e+00 
          2.5000000000e-01 2.4615385000e+01 0.0000000000e+00 
          2.5000000000e-01 2.5384615000e+01 0.0000000000e+00 
          2.5000000000e-01 2.6153846000e+01 0.0000000000e+00 
          2.5000000000e-01 2.6923077000e+01 0.0000000000e+00 
          2.5000000000e-01 2.7692308000e+01 0.0000000000e+00 
          2.5000000000e-01 2.8461538000e+01 0.0000000000e+00 
          2.5000000000e-01 2.9230769000e+01 0.0000000000e+00 
          0.0000000000e+00 7.6923100000e-01 0.0000000000e+00 
          0.0000000000e+00 1.5384620000e+00 0.0000000000e+00 
          0.0000000000e+00 2.3076920000e+00 0.0000000000e+00 
          0.0000000000e+00 3.0769230000e+00 0.0000000000e+00 
          0.0000000000e+00 3.8461540000e+00 0.0000000000e+00 
          0.0000000000e+00 4.6153850000e+00 0.0000000000e+00 
          0.0000000000e+00 5.3846150000e+00 0.0000000000e+00 
          0.0000000000e+00 6.1538460000e+00 0.0000000000e+00 
          0.0000000000e+00 6.9230770000e+00 0.0000000000e+00 
          0.0000000000e+00 7.6923080000e+00 0.0000000000e+00 
          0.0000000000e+00 8.4615380000e+00 0.0000000000e+00 
          0.0000000000e+00 9.2307690000e+00 0.0000000000e+00 
          0.0000000000e+00 1.0000000000e+01 0.0000000000e+00 
          0.0000000000e+00 1.0769231000e+01 0.0000000000e+00 
          0.0000000000e+00 1.1538462000e+01 0.0000000000e+00 
          0.0000000000e+00 1.2307692000e+01 0.0000000000e+00 
          0.0000000000e+00 1.3076923000e+01 0.0000000000e+00 
          0.0000000000e+00 1.3846154000e+01 0.0000000000e+00 
          0.0000000000e+00 1.4615385000e+01 0.0000000000e+00 
          0.0000000000e+00 1.5384615000e+01 0.0000000000e+00 
          0.0000000000e+00 1.6153846000e+01 0.0000000000e+00 
          0.0000000000e+00 1.6923077000e+01 0.0000000000e+00 
          0.0000000000e+00 1.7692308000e+01 0.0000000000e+00 
          0.0000000000e+00 1.8461538000e+01 0.0000000000e+00 
          0.0000000000e+00 1.9230769000e+01 0.0000000000e+00 
          0.0000000000e+00 2.0000000000e+01 0.0000000000e+00 
          0.0000000000e+00 2.0769231000e+01 0.0000000000e+00 
          0.0000000000e+00 2.1538462000e+01 0.0000000000e+00 
          0.0000000000e+00 2.2307692000e+01 0.0000000000e+00 
          0.0000000000e+00 2.3076923000e+01 0.0000000000e+00 
          0.0000000000e+00 2.3846154000e+01 0.0000000000e+00 
          0.0000000000e+00 2.4615385000e+01 0.0000000000e+00 
          0.0000000000e+00 2.5384615000e+01 0.0000000000e+00 
          0.0000000000e+00 2.6153846000e+01 0.0000000000e+00 
          0.0000000000e+00 2.6923077000e+01 0.0000000000e+00 
          0.0000000000e+00 2.7692308000e+01 0.0000000000e+00 
          0.0000000000e+00 2.8461538000e+01 0.0000000000e+00 
          0.0000000000e+00 2.9230769000e+01 0.0000000000e+00 
        </DataArray>
      </Points>
      <Cells>
        <DataArray type="Int64" Name="connectivity" format="ascii">
          0 1 4 42 
          42 4 5 43 
          43 5 6 44 
          44 6 7 45 
          45 7 8 46 
          46 8 9 47 
          47 9 10 48 
          48 10 11 49 
          49 11 12 50 
          50 12 13 51 
          51 13 14 52 
          52 14 15 53 
          53 15 16 54 
          54 16 17 55 
          55 17 18 56 
          56 18 19 57 
          57 19 20 58 
          58 20 21 59 
          59 21 22 60 
          60 22 23 61 
          61 23 24 62 
          62 24 25 63 
          63 25 26 64 
          64 26 27 65 
          65 27 28 66 
          66 28 29 67 
          67 29 30 68 
          68 30 31 69 
          69 31 32 70 
          70 32 33 71 
          71 33 34 72 
          72 34 35 73 
          73 35 36 74 
          74 36 37 75 
          75 37 38 76 
          76 38 39 77 
          77 39 40 78 
          78 40 41 79 
          79 41 2 3 
        </DataArray>
        <DataArray type="Int64" Name="offsets" format="ascii">
          4
          8
          12
          16
          20
          24
          28
          32
          36
          40
          44
          48
          52
          56
          60
          64
          68
          72
          76
          80
          84
          88
          92
          96
          100
          104
          108
          112
          116
          120
          124
          128
          132
          136
          140
          144
          148
          152
          156
        </DataArray>
        <DataArray type="Int64" Name="types" format="ascii">
          9
          9
          9
          9
          9
          9
          9
          9
          9
          9
          9
          9
          9
          9
          9
          9
          9
          9
          9
          9
          9
          9
          9
          9
          9
          9
          9
          9
          9
          9
          9
          9
          9
          9
          9
          9
          9
          9
          9
        </DataArray>
      </Cells>
      <PointData>
        <DataArray type="Int64" Name="NodeTag" format="ascii">
          1
          2
          3
          4
          7
          8
          9
          10
          11
          12
          13
          14
          15
          16
          17
          18
          19
          20
          21
          22
          23
          24
          25
          26
          27
          28
          29
          30
          31
          32
          33
          34
          35
          36
          37
          38
          39
          40
          41
          42
          43
          44
          45
          46
          47
          48
          49
          50
          51
          52
          53
          54
          55
          56
          57
          58
          59
          60
          61
          62
          63
          64
          65
          66
          67
          68
          69
          70
          71
          72
          73
          74
          75
          76
          77
          78
          79
          80
          81
          82
        </DataArray>
        <DataArray type="Float64" Name="Velocity" NumberOfComponents="3" format="ascii">
          -2.8215610167e-03 -7.7844763496e-05 0.0000000000e+00 
          -2.8215610167e-03 -7.7844763496e-05 0.0000000000e+00 
          7.9325285477e-03 -7.8146713237e-05 0.0000000000e+00 
          7.9325285477e-03 -7.8146713237e-05 0.0000000000e+00 
          -2.4247802636e-03 -7.7918295962e-05 0.0000000000e+00 
          -2.0250090557e-03 -7.7793505545e-05 0.0000000000e+00 
          -1.6230632807e-03 -7.7865493551e-05 0.0000000000e+00 
          -1.2197423423e-03 -7.7896314920e-05 0.0000000000e+00 
          -8.1587605463e-04 -7.7854472503e-05 0.0000000000e+00 
          -4.1226606978e-04 -7.7903805957e-05 0.0000000000e+00 
          -9.7297169299e-06 -7.7899457302e-05 0.0000000000e+00 
          3.9091512155e-04 -7.7873007713e-05 0.0000000000e+00 
          7.8886153854e-04 -7.7943791452e-05 0.0000000000e+00 
          1.1833020388e-03 -7.7945511534e-05 0.0000000000e+00 
          1.5734387689e-03 -7.7896078938e-05 0.0000000000e+00 
          1.9584643335e-03 -7.7974057842e-05 0.0000000000e+00 
          2.3376068479e-03 -7.7933030235e-05 0.0000000000e+00 
          2.7100672296e-03 -7.7931172933e-05 0.0000000000e+00 
          3.0750942626e-03 -7.7985387858e-05 0.0000000000e+00 
          3.4319181991e-03 -7.7997200150e-05 0.0000000000e+00 
          3.7797866622e-03 -7.7884264028e-05 0.0000000000e+00 
          4.1179912969e-03 -7.8078394617e-05 0.0000000000e+00 
          4.4457787372e-03 -7.7962304508e-05 0.0000000000e+00 
          4.7624985208e-03 -7.7946690288e-05 0.0000000000e+00 
          5.0674407817e-03 -7.8069528115e-05 0.0000000000e+00 
          5.3599519815e-03 -7.7914073298e-05 0.0000000000e+00 
          5.6394210346e-03 -7.8045444735e-05 0.0000000000e+00 
          5.9051972459e-03 -7.8031962530e-05 0.0000000000e+00 
          6.1567488412e-03 -7.8007791919e-05 0.0000000000e+00 
          6.3934897202e-03 -7.8058340623e-05 0.0000000000e+00 
          6.6148880413e-03 -7.8000215810e-05 0.0000000000e+00 
          6.8204904607e-03 -7.8110053114e-05 0.0000000000e+00 
          7.0097860777e-03 -7.8006422004e-05 0.0000000000e+00 
          7.1823935425e-03 -7.8033452584e-05 0.0000000000e+00 
          7.3379027433e-03 -7.8134599355e-05 0.0000000000e+00 
          7.4759436859e-03 -7.8052201526e-05 0.0000000000e+00 
          7.5962537884e-03 -7.8035309032e-05 0.0000000000e+00 
          7.6985054854e-03 -7.8127121630e-05 0.0000000000e+00 
          7.7824931367e-03 -7.8086743286e-05 0.0000000000e+00 
          7.8480217762e-03 -7.8074545055e-05 0.0000000000e+00 
          7.8949248336e-03 -7.8135884676e-05 0.0000000000e+00 
          7.9231188936e-03 -7.8061304231e-05 0.0000000000e+00 
          -2.4247802636e-03 -7.7918295962e-05 0.0000000000e+00 
          -2.0250090557e-03 -7.7793505545e-05 0.0000000000e+00 
          -1.6230632807e-03 -7.7865493551e-05 0.0000000000e+00 
          -1.2197423423e-03 -7.7896314920e-05 0.0000000000e+00 
          -8.1587605463e-04 -7.7854472503e-05 0.0000000000e+00 
          -4.1226606978e-04 -7.7903805957e-05 0.0000000000e+00 
          -9.7297169299e-06 -7.7899457302e-05 0.0000000000e+00 
          3.9091512155e-04 -7.7873007713e-05 0.0000000000e+00 
          7.8886153854e-04 -7.7943791452e-05 0.0000000000e+00 
          1.1833020388e-03 -7.7945511534e-05 0.0000000000e+00 
          1.5734387689e-03 -7.7896078938e-05 0.0000000000e+00 
          1.9584643335e-03 -7.7974057842e-05 0.0000000000e+00 
          2.3376068479e-03 -7.7933030235e-05 0.0000000000e+00 
          2.7100672296e-03 -7.7931172933e-05 0.0000000000e+00 
          3.0750942626e-03 -7.7985387858e-05 0.0000000000e+00 
          3.4319181991e-03 -7.7997200150e-05 0.0000000000e+00 
          3.7797866622e-03 -7.7884264028e-05 0.0000000000e+00 
          4.1179912969e-03 -7.8078394617e-05 0.0000000000e+00 
          4.4457787372e-03 -7.7962304508e-05 0.0000000000e+00 
          4.7624985208e-03 -7.7946690288e-05 0.0000000000e+00 
          5.0674407817e-03 -7.8069528115e-05 0.0000000000e+00 
          5.3599519815e-03 -7.7914073298e-05 0.0000000000e+00 
          5.6394210346e-03 -7.8045444735e-05 0.0000000000e+00 
          5.9051972459e-03 -7.8031962530e-05 0.0000000000e+00 
          6.1567488412e-03 -7.8007791919e-05 0.0000000000e+00 
          6.3934897202e-03 -7.8058340623e-05 0.0000000000e+00 
          6.6148880413e-03 -7.8000215810e-05 0.0000000000e+00 
          6.8204904607e-03 -7.8110053114e-05 0.0000000000e+00 
          7.0097860777e-03 -7.8006422004e-05 0.0000000000e+00 
          7.1823935425e-03 -7.8033452584e-05 0.0000000000e+00 
          7.3379027433e-03 -7.8134599355e-05 0.0000000000e+00 
          7.4759436859e-03 -7.8052201526e-05 0.0000000000e+00 
          7.5962537884e-03 -7.8035309032e-05 0.0000000000e+00 
          7.6985054854e-03 -7.8127121630e-05 0.0000000000e+00 
          7.7824931367e-03 -7.8086743286e-05 0.0000000000e+00 
          7.8480217762e-03 -7.8074545055e-05 0.0000000000e+00 
          7.8949248336e-03 -7.8135884676e-05 0.0000000000e+00 
          7.9231188936e-03 -7.8061304231e-05 0.0000000000e+00 
        </DataArray>
        <DataArray type="Float64" Name="Displacement" NumberOfComponents="3" format="ascii">
          -1.0177644146e-04 -3.5080941225e-04 0.0000000000e+00 
          -1.0177644146e-04 -3.5080941225e-04 0.0000000000e+00 
          -1.2057469409e-03 -3.7439240814e-04 0.0000000000e+00 
          -1.2057469409e-03 -3.7439240814e-04 0.0000000000e+00 
          -1.4850128606e-04 -3.5200317303e-04 0.0000000000e+00 
          -1.9489944844e-04 -3.5316601632e-04 0.0000000000e+00 
          -2.4090869590e-04 -3.5429769051e-04 0.0000000000e+00 
          -2.8646764095e-04 -3.5539860996e-04 0.0000000000e+00 
          -3.3151549680e-04 -3.5646818681e-04 0.0000000000e+00 
          -3.7599232438e-04 -3.5750709747e-04 0.0000000000e+00 
          -4.1983899042e-04 -3.5851483475e-04 0.0000000000e+00 
          -4.6299749242e-04 -3.5949142981e-04 0.0000000000e+00 
          -5.0541071939e-04 -3.6043741849e-04 0.0000000000e+00 
          -5.4702261373e-04 -3.6135203658e-04 0.0000000000e+00 
          -5.8777823652e-04 -3.6223582666e-04 0.0000000000e+00 
          -6.2762402961e-04 -3.6308850769e-04 0.0000000000e+00 
          -6.6650751906e-04 -3.6391028757e-04 0.0000000000e+00 
          -7.0437762340e-04 -3.6470110064e-04 0.0000000000e+00 
          -7.4118463706e-04 -3.6546064302e-04 0.0000000000e+00 
          -7.7688021909e-04 -3.6618950795e-04 0.0000000000e+00 
          -8.1141772923e-04 -3.6688714694e-04 0.0000000000e+00 
          -8.4475191153e-04 -3.6755384500e-04 0.0000000000e+00 
          -8.7683913840e-04 -3.6818955357e-04 0.0000000000e+00 
          -9.0763744628e-04 -3.6879430261e-04 0.0000000000e+00 
          -9.3710665567e-04 -3.6936802921e-04 0.0000000000e+00 
          -9.6520826701e-04 -3.6991066253e-04 0.0000000000e+00 
          -9.9190561261e-04 -3.7042243550e-04 0.0000000000e+00 
          -1.0171638041e-03 -3.7090308044e-04 0.0000000000e+00 
          -1.0409499838e-03 -3.7135287937e-04 0.0000000000e+00 
          -1.0632331178e-03 -3.7177150854e-04 0.0000000000e+00 
          -1.0839841550e-03 -3.7215919603e-04 0.0000000000e+00 
          -1.1031760797e-03 -3.7251589527e-04 0.0000000000e+00 
          -1.1207838560e-03 -3.7284162480e-04 0.0000000000e+00 
          -1.1367846141e-03 -3.7313610545e-04 0.0000000000e+00 
          -1.1511574892e-03 -3.7339992755e-04 0.0000000000e+00 
          -1.1638837651e-03 -3.7363239417e-04 0.0000000000e+00 
          -1.1749469055e-03 -3.7383401525e-04 0.0000000000e+00 
          -1.1843324713e-03 -3.7400477324e-04 0.0000000000e+00 
          -1.1920282868e-03 -3.7414412607e-04 0.0000000000e+00 
          -1.1980243584e-03 -3.7425282362e-04 0.0000000000e+00 
          -1.2023128194e-03 -3.7433033141e-04 0.0000000000e+00 
          -1.2048881326e-03 -3.7437687485e-04 0.0000000000e+00 
          -1.4850128606e-04 -3.5200317303e-04 0.0000000000e+00 
          -1.9489944844e-04 -3.5316601632e-04 0.0000000000e+00 
          -2.4090869590e-04 -3.5429769051e-04 0.0000000000e+00 
          -2.8646764095e-04 -3.5539860996e-04 0.0000000000e+00 
          -3.3151549680e-04 -3.5646818681e-04 0.0000000000e+00 
          -3.7599232438e-04 -3.5750709747e-04 0.0000000000e+00 
          -4.1983899042e-04 -3.5851483475e-04 0.0000000000e+00 
          -4.6299749242e-04 -3.5949142981e-04 0.0000000000e+00 
          -5.0541071939e-04 -3.6043741849e-04 0.0000000000e+00 
          -5.4702261373e-04 -3.6135203658e-04 0.0000000000e+00 
          -5.8777823652e-04 -3.6223582666e-04 0.0000000000e+00 
          -6.2762402961e-04 -3.6308850769e-04 0.0000000000e+00 
          -6.6650751906e-04 -3.6391028757e-04 0.0000000000e+00 
          -7.0437762340e-04 -3.6470110064e-04 0.0000000000e+00 
          -7.4118463706e-04 -3.6546064302e-04 0.0000000000e+00 
          -7.7688021909e-04 -3.6618950795e-04 0.0000000000e+00 
          -8.1141772923e-04 -3.6688714694e-04 0.0000000000e+00 
          -8.4475191153e-04 -3.6755384500e-04 0.0000000000e+00 
          -8.7683913840e-04 -3.6818955357e-04 0.0000000000e+00 
          -9.0763744628e-04 -3.6879430261e-04 0.0000000000e+00 
          -9.3710665567e-04 -3.6936802921e-04 0.0000000000e+00 
          -9.6520826701e-04 -3.6991066253e-04 0.0000000000e+00 
          -9.9190561261e-04 -3.7042243550e-04 0.0000000000e+00 
          -1.0171638041e-03 -3.7090308044e-04 0.0000000000e+00 
          -1.0409499838e-03 -3.7135287937e-04 0.0000000000e+00 
          -1.0632331178e-03 -3.7177150854e-04 0.0000000000e+00 
          -1.0839841550e-03 -3.7215919603e-04 0.0000000000e+00 
          -1.1031760797e-03 -3.7251589527e-04 0.0000000000e+00 
          -1.1207838560e-03 -3.7284162480e-04 0.0000000000e+00 
          -1.1367846141e-03 -3.7313610545e-04 0.0000000000e+00 
          -1.1511574892e-03 -3.7339992755e-04 0.0000000000e+00 
          -1.1638837651e-03 -3.7363239417e-04 0.0000000000e+00 
          -1.1749469055e-03 -3.7383401525e-04 0.0000000000e+00 
          -1.1843324713e-03 -3.7400477324e-04 0.0000000000e+00 
          -1.1920282868e-03 -3.7414412607e-04 0.0000000000e+00 
          -1.1980243584e-03 -3.7425282362e-04 0.0000000000e+00 
          -1.2023128194e-03 -3.7433033141e-04 0.0000000000e+00 
          -1.2048881326e-03 -3.7437687485e-04 0.0000000000e+00 
        </DataArray>
        <DataArray type="Float64" Name="Acceleration" NumberOfComponents="3" format="ascii">
          2.3778520902e-02 -4.5300025970e-06 0.0000000000e+00 
          2.3778520902e-02 -4.5300025970e-06 0.0000000000e+00 
          1.5476066045e-01 1.0858440344e-05 0.0000000000e+00 
          1.5476066045e-01 1.0858440344e-05 0.0000000000e+00 
          2.9434712649e-02 -1.6010948014e-05 0.0000000000e+00 
          3.5036636152e-02 2.9070052204e-05 0.0000000000e+00 
          4.0578551421e-02 -4.5071142869e-05 0.0000000000e+00 
          4.6050146360e-02 6.0595357730e-05 0.0000000000e+00 
          5.1450775571e-02 -6.1295403593e-05 0.0000000000e+00 
          5.6773700188e-02 2.9870629299e-05 0.0000000000e+00 
          6.2010114470e-02 2.4724828758e-05 0.0000000000e+00 
          6.7150752611e-02 -7.2073673490e-05 0.0000000000e+00 
          7.2201651495e-02 6.5641222582e-05 0.0000000000e+00 
          7.7147034520e-02 -3.2339343242e-05 0.0000000000e+00 
          8.1982280379e-02 1.8720097583e-05 0.0000000000e+00 
          8.6705457922e-02 -1.8956899129e-05 0.0000000000e+00 
          9.1307999707e-02 -7.1215226972e-06 0.0000000000e+00 
          9.5786569610e-02 4.7637479990e-05 0.0000000000e+00 
          1.0013806936e-01 -5.9433266830e-05 0.0000000000e+00 
          1.0434881276e-01 3.9747821419e-05 0.0000000000e+00 
          1.0842221472e-01 -1.1787591846e-05 0.0000000000e+00 
          1.1235314614e-01 -3.0353997514e-06 0.0000000000e+00 
          1.1613061540e-01 -8.5729260780e-06 0.0000000000e+00 
          1.1975808400e-01 3.0465952475e-06 0.0000000000e+00 
          1.2322328460e-01 1.5667526984e-05 0.0000000000e+00 
          1.2652711654e-01 -2.6306899391e-05 0.0000000000e+00 
          1.2966775030e-01 2.1820535776e-05 0.0000000000e+00 
          1.3263422088e-01 -2.8775837619e-05 0.0000000000e+00 
          1.3542737826e-01 2.9450147700e-05 0.0000000000e+00 
          1.3804495200e-01 -1.1651865869e-05 0.0000000000e+00 
          1.4047911532e-01 -3.2588259422e-06 0.0000000000e+00 
          1.4273293278e-01 -6.6730992094e-06 0.0000000000e+00 
          1.4479765800e-01 4.3786524148e-05 0.0000000000e+00 
          1.4667548692e-01 -6.2670937414e-05 0.0000000000e+00 
          1.4836182906e-01 6.2914407243e-05 0.0000000000e+00 
          1.4985059838e-01 -2.9018238785e-05 0.0000000000e+00 
          1.5115418548e-01 -2.5763326242e-05 0.0000000000e+00 
          1.5224982939e-01 7.1871026134e-05 0.0000000000e+00 
          1.5315028224e-01 -6.3263261573e-05 0.0000000000e+00 
          1.5385868840e-01 3.3038704730e-05 0.0000000000e+00 
          1.5435860648e-01 -7.5434328786e-06 0.0000000000e+00 
          1.5466047078e-01 6.8533382863e-07 0.0000000000e+00 
          2.9434712649e-02 -1.6010948014e-05 0.0000000000e+00 
          3.5036636152e-02 2.9070052204e-05 0.0000000000e+00 
          4.0578551421e-02 -4.5071142869e-05 0.0000000000e+00 
          4.6050146360e-02 6.0595357730e-05 0.0000000000e+00 
          5.1450775571e-02 -6.1295403593e-05 0.0000000000e+00 
          5.6773700188e-02 2.9870629299e-05 0.0000000000e+00 
          6.2010114470e-02 2.4724828758e-05 0.0000000000e+00 
          6.7150752611e-02 -7.2073673490e-05 0.0000000000e+00 
          7.2201651495e-02 6.5641222582e-05 0.0000000000e+00 
          7.7147034520e-02 -3.2339343242e-05 0.0000000000e+00 
          8.1982280379e-02 1.8720097583e-05 0.0000000000e+00 
          8.6705457922e-02 -1.8956899129e-05 0.0000000000e+00 
          9.1307999707e-02 -7.1215226972e-06 0.0000000000e+00 
          9.5786569610e-02 4.7637479990e-05 0.0000000000e+00 
          1.0013806936e-01 -5.9433266830e-05 0.0000000000e+00 
          1.0434881276e-01 3.9747821419e-05 0.0000000000e+00 
          1.0842221472e-01 -1.1787591846e-05 0.0000000000e+00 
          1.1235314614e-01 -3.0353997514e-06 0.0000000000e+00 
          1.1613061540e-01 -8.5729260780e-06 0.0000000000e+00 
          1.1975808400e-01 3.0465952475e-06 0.0000000000e+00 
          1.2322328460e-01 1.5667526984e-05 0.0000000000e+00 
          1.2652711654e-01 -2.6306899391e-05 0.0000000000e+00 
          1.2966775030e-01 2.1820535776e-05 0.0000000000e+00 
          1.3263422088e-01 -2.8775837619e-05 0.0000000000e+00 
          1.3542737826e-01 2.9450147700e-05 0.0000000000e+00 
          1.3804495200e-01 -1.1651865869e-05 0.0000000000e+00 
          1.4047911532e-01 -3.2588259422e-06 0.0000000000e+00 
          1.4273293278e-01 -6.6730992094e-06 0.0000000000e+00 
          1.4479765800e-01 4.3786524148e-05 0.0000000000e+00 
          1.4667548692e-01 -6.2670937414e-05 0.0000000000e+00 
          1.4836182906e-01 6.2914407243e-05 0.0000000000e+00 
          1.4985059838e-01 -2.9018238785e-05 0.0000000000e+00 
          1.5115418548e-01 -2.5763326242e-05 0.0000000000e+00 
          1.5224982939e-01 7.1871026134e-05 0.0000000000e+00 
          1.5315028224e-01 -6.3263261573e-05 0.0000000000e+00 
          1.5385868840e-01 3.3038704730e-05 0.0000000000e+00 
          1.5435860648e-01 -7.5434328786e-06 0.0000000000e+00 
          1.5466047078e-01 6.8533382863e-07 0.0000000000e+00 
        </DataArray>
        <DataArray type="Float64" Name="Reaction" NumberOfComponents="3" format="ascii">
          0.0000000000e+00 0.0000000000e+00 0.0000000000e+00 
          0.0000000000e+00 0.0000000000e+00 0.0000000000e+00 
          0.0000000000e+00 0.0000000000e+00 0.0000000000e+00 
          0.0000000000e+00 0.0000000000e+00 0.0000000000e+00 
          0.0000000000e+00 0.0000000000e+00 0.0000000000e+00 
          0.0000000000e+00 0.0000000000e+00 0.0000000000e+00 
          0.0000000000e+00 0.0000000000e+00 0.0000000000e+00 
          0.0000000000e+00 0.0000000000e+00 0.0000000000e+00 
          0.0000000000e+00 0.0000000000e+00 0.0000000000e+00 
          0.0000000000e+00 0.0000000000e+00 0.0000000000e+00 
          0.0000000000e+00 0.0000000000e+00 0.0000000000e+00 
          0.0000000000e+00 0.0000000000e+00 0.0000000000e+00 
          0.0000000000e+00 0.0000000000e+00 0.0000000000e+00 
          0.0000000000e+00 0.0000000000e+00 0.0000000000e+00 
          0.0000000000e+00 0.0000000000e+00 0.0000000000e+00 
          0.0000000000e+00 0.0000000000e+00 0.0000000000e+00 
          0.0000000000e+00 0.0000000000e+00 0.0000000000e+00 
          0.0000000000e+00 0.0000000000e+00 0.0000000000e+00 
          0.0000000000e+00 0.0000000000e+00 0.0000000000e+00 
          0.0000000000e+00 0.0000000000e+00 0.0000000000e+00 
          0.0000000000e+00 0.0000000000e+00 0.0000000000e+00 
          0.0000000000e+00 0.0000000000e+00 0.0000000000e+00 
          0.0000000000e+00 0.0000000000e+00 0.0000000000e+00 
          0.0000000000e+00 0.0000000000e+00 0.0000000000e+00 
          0.0000000000e+00 0.0000000000e+00 0.0000000000e+00 
          0.0000000000e+00 0.0000000000e+00 0.0000000000e+00 
          0.0000000000e+00 0.0000000000e+00 0.0000000000e+00 
          0.0000000000e+00 0.0000000000e+00 0.0000000000e+00 
          0.0000000000e+00 0.0000000000e+00 0.0000000000e+00 
          0.0000000000e+00 0.0000000000e+00 0.0000000000e+00 
          0.0000000000e+00 0.0000000000e+00 0.0000000000e+00 
          0.0000000000e+00 0.0000000000e+00 0.0000000000e+00 
          0.0000000000e+00 0.0000000000e+00 0.0000000000e+00 
          0.0000000000e+00 0.0000000000e+00 0.0000000000e+00 
          0.0000000000e+00 0.0000000000e+00 0.0000000000e+00 
          0.0000000000e+00 0.0000000000e+00 0.0000000000e+00 
          0.0000000000e+00 0.0000000000e+00 0.0000000000e+00 
          0.0000000000e+00 0.0000000000e+00 0.0000000000e+00 
          0.0000000000e+00 0.0000000000e+00 0.0000000000e+00 
          0.0000000000e+00 0.0000000000e+00 0.0000000000e+00 
          0.0000000000e+00 0.0000000000e+00 0.0000000000e+00 
          0.0000000000e+00 0.0000000000e+00 0.0000000000e+00 
          0.0000000000e+00 0.0000000000e+00 0.0000000000e+00 
          0.0000000000e+00 0.0000000000e+00 0.0000000000e+00 
          0.0000000000e+00 0.0000000000e+00 0.0000000000e+00 
          0.0000000000e+00 0.0000000000e+00 0.0000000000e+00 
          0.0000000000e+00 0.0000000000e+00 0.0000000000e+00 
          0.0000000000e+00 0.0000000000e+00 0.0000000000e+00 
          0.0000000000e+00 0.0000000000e+00 0.0000000000e+00 
          0.0000000000e+00 0.0000000000e+00 0.0000000000e+00 
          0.0000000000e+00 0.0000000000e+00 0.0000000000e+00 
          0.0000000000e+00 0.0000000000e+00 0.0000000000e+00 
          0.0000000000e+00 0.0000000000e+00 0.0000000000e+00 
          0.0000000000e+00 0.0000000000e+00 0.0000000000e+00 
          0.0000000000e+00 0.0000000000e+00 0.0000000000e+00 
          0.0000000000e+00 0.0000000000e+00 0.0000000000e+00 
          0.0000000000e+00 0.0000000000e+00 0.0000000000e+00 
          0.0000000000e+00 0.0000000000e+00 0.0000000000e+00 
          0.0000000000e+00 0.0000000000e+00 0.0000000000e+00 
          0.0000000000e+00 0.0000000000e+00 0.0000000000e+00 
          0.0000000000e+00 0.0000000000e+00 0.0000000000e+00 
          0.0000000000e+00 0.0000000000e+00 0.0000000000e+00 
          0.0000000000e+00 0.0000000000e+00 0.0000000000e+00 
          0.0000000000e+00 0.0000000000e+00 0.0000000000e+00 
          0.0000000000e+00 0.0000000000e+00 0.0000000000e+00 
          0.0000000000e+00 0.0000000000e+00 0.0000000000e+00 
          0.0000000000e+00 0.0000000000e+00 0.0000000000e+00 
          0.0000000000e+00 0.0000000000e+00 0.0000000000e+00 
          0.0000000000e+00 0.0000000000e+00 0.0000000000e+00 
          0.0000000000e+00 0.0000000000e+00 0.0000000000e+00 
          0.0000000000e+00 0.0000000000e+00 0.0000000000e+00 
          0.0000000000e+00 0.0000000000e+00 0.0000000000e+00 
          0.0000000000e+00 0.0000000000e+00 0.0000000000e+00 
          0.0000000000e+00 0.0000000000e+00 0.0000000000e+00 
          0.0000000000e+00 0.0000000000e+00 0.0000000000e+00 
          0.0000000000e+00 0.0000000000e+00 0.0000000000e+00 
          0.0000000000e+00 0.0000000000e+00 0.0000000000e+00 
          0.0000000000e+00 0.0000000000e+00 0.0000000000e+00 
          0.0000000000e+00 0.0000000000e+00 0.0000000000e+00 
          0.0000000000e+00 0.0000000000e+00 0.0000000000e+00 
        </DataArray>
      </PointData>
      <CellData>
        <DataArray type="Int64" Name="ElementTag" format="ascii">
          90
          91
          92
          93
          94
          95
          96
          97
          98
          99
          100
          101
          102
          103
          104
          105
          106
          107
          108
          109
          110
          111
          112
          113
          114
          115
          116
          117
          118
          119
          120
          121
          122
          123
          124
          125
          126
          127
          128
        </DataArray>
      </CellData>
    </Piece>
  </UnstructuredGrid>
</VTKFile>
