<?xml version="1.0"?>
<VTKFile type="UnstructuredGrid" version="1.0" byte_order="LittleEndian" compressor="vtkZLibDataCompressor">
  <UnstructuredGrid>
    <Piece NumberOfPoints="80" NumberOfCells="39">
      <Points>
        <DataArray type="Float64" Name="Points" NumberOfComponents="3" format="ascii">
          0.0000000000e+00 0.0000000000e+00 0.0000000000e+00 
          2.5000000000e-01 0.0000000000e+00 0.0000000000e+00 
          2.5000000000e-01 3.0000000000e+01 0.0000000000e+00 
          0.0000000000e+00 3.0000000000e+01 0.0000000000e+00 
          2.5000000000e-01 7.6923100000e-01 0.0000000000e+00 
          2.5000000000e-01 1.5384620000e+00 0.0000000000e+00 
          2.5000000000e-01 2.3076920000e+00 0.0000000000e+00 
          2.5000000000e-01 3.0769230000e+00 0.0000000000e+00 
          2.5000000000e-01 3.8461540000e+00 0.0000000000e+00 
          2.5000000000e-01 4.6153850000e+00 0.0000000000e+00 
          2.5000000000e-01 5.3846150000e+00 0.0000000000e+00 
          2.5000000000e-01 6.1538460000e+00 0.0000000000e+00 
          2.5000000000e-01 6.9230770000e+00 0.0000000000e+00 
          2.5000000000e-01 7.6923080000e+00 0.0000000000e+00 
          2.5000000000e-01 8.4615380000e+00 0.0000000000e+00 
          2.5000000000e-01 9.2307690000e+00 0.0000000000e+00 
          2.5000000000e-01 1.0000000000e+01 0.0000000000e+00 
          2.5000000000e-01 1.0769231000e+01 0.0000000000e+00 
          2.5000000000e-01 1.1538462000e+01 0.0000000000e+00 
          2.5000000000e-01 1.2307692000e+01 0.0000000000e+00 
          2.5000000000e-01 1.3076923000e+01 0.0000000000e+00 
          2.5000000000e-01 1.3846154000e+01 0.0000000000e+00 
          2.5000000000e-01 1.4615385000e+01 0.0000000000e+00 
          2.5000000000e-01 1.5384615000e+01 0.0000000000e+00 
          2.5000000000e-01 1.6153846000e+01 0.0000000000e+00 
          2.5000000000e-01 1.6923077000e+01 0.0000000000e+00 
          2.5000000000e-01 1.7692308000e+01 0.0000000000e+00 
          2.5000000000e-01 1.8461538000e+01 0.0000000000e+00 
          2.5000000000e-01 1.9230769000e+01 0.0000000000e+00 
          2.5000000000e-01 2.0000000000e+01 0.0000000000e+00 
          2.5000000000e-01 2.0769231000e+01 0.0000000000e+00 
          2.5000000000e-01 2.1538462000e+01 0.0000000000e+00 
          2.5000000000e-01 2.2307692000e+01 0.0000000000e+00 
          2.5000000000e-01 2.3076923000e+01 0.0000000000e+00 
          2.5000000000e-01 2.3846154000e+01 0.0000000000e+00 
          2.5000000000e-01 2.4615385000e+01 0.0000000000e+00 
          2.5000000000e-01 2.5384615000e+01 0.0000000000e+00 
          2.5000000000e-01 2.6153846000e+01 0.0000000000e+00 
          2.5000000000e-01 2.6923077000e+01 0.0000000000e+00 
          2.5000000000e-01 2.7692308000e+01 0.0000000000e+00 
          2.5000000000e-01 2.8461538000e+01 0.0000000000e+00 
          2.5000000000e-01 2.9230769000e+01 0.0000000000e+00 
          0.0000000000e+00 7.6923100000e-01 0.0000000000e+00 
          0.0000000000e+00 1.5384620000e+00 0.0000000000e+00 
          0.0000000000e+00 2.3076920000e+00 0.0000000000e+00 
          0.0000000000e+00 3.0769230000e+00 0.0000000000e+00 
          0.0000000000e+00 3.8461540000e+00 0.0000000000e+00 
          0.0000000000e+00 4.6153850000e+00 0.0000000000e+00 
          0.0000000000e+00 5.3846150000e+00 0.0000000000e+00 
          0.0000000000e+00 6.1538460000e+00 0.0000000000e+00 
          0.0000000000e+00 6.9230770000e+00 0.0000000000e+00 
          0.0000000000e+00 7.6923080000e+00 0.0000000000e+00 
          0.0000000000e+00 8.4615380000e+00 0.0000000000e+00 
          0.0000000000e+00 9.2307690000e+00 0.0000000000e+00 
          0.0000000000e+00 1.0000000000e+01 0.0000000000e+00 
          0.0000000000e+00 1.0769231000e+01 0.0000000000e+00 
          0.0000000000e+00 1.1538462000e+01 0.0000000000e+00 
          0.0000000000e+00 1.2307692000e+01 0.0000000000e+00 
          0.0000000000e+00 1.3076923000e+01 0.0000000000e+00 
          0.0000000000e+00 1.3846154000e+01 0.0000000000e+00 
          0.0000000000e+00 1.4615385000e+01 0.0000000000e+00 
          0.0000000000e+00 1.5384615000e+01 0.0000000000e+00 
          0.0000000000e+00 1.6153846000e+01 0.0000000000e+00 
          0.0000000000e+00 1.6923077000e+01 0.0000000000e+00 
          0.0000000000e+00 1.7692308000e+01 0.0000000000e+00 
          0.0000000000e+00 1.8461538000e+01 0.0000000000e+00 
          0.0000000000e+00 1.9230769000e+01 0.0000000000e+00 
          0.0000000000e+00 2.0000000000e+01 0.0000000000e+00 
          0.0000000000e+00 2.0769231000e+01 0.0000000000e+00 
          0.0000000000e+00 2.1538462000e+01 0.0000000000e+00 
          0.0000000000e+00 2.2307692000e+01 0.0000000000e+00 
          0.0000000000e+00 2.3076923000e+01 0.0000000000e+00 
          0.0000000000e+00 2.3846154000e+01 0.0000000000e+00 
          0.0000000000e+00 2.4615385000e+01 0.0000000000e+00 
          0.0000000000e+00 2.5384615000e+01 0.0000000000e+00 
          0.0000000000e+00 2.6153846000e+01 0.0000000000e+00 
          0.0000000000e+00 2.6923077000e+01 0.0000000000e+00 
          0.0000000000e+00 2.7692308000e+01 0.0000000000e+00 
          0.0000000000e+00 2.8461538000e+01 0.0000000000e+00 
          0.0000000000e+00 2.9230769000e+01 0.0000000000e+00 
        </DataArray>
      </Points>
      <Cells>
        <DataArray type="Int64" Name="connectivity" format="ascii">
          0 1 4 42 
          42 4 5 43 
          43 5 6 44 
          44 6 7 45 
          45 7 8 46 
          46 8 9 47 
          47 9 10 48 
          48 10 11 49 
          49 11 12 50 
          50 12 13 51 
          51 13 14 52 
          52 14 15 53 
          53 15 16 54 
          54 16 17 55 
          55 17 18 56 
          56 18 19 57 
          57 19 20 58 
          58 20 21 59 
          59 21 22 60 
          60 22 23 61 
          61 23 24 62 
          62 24 25 63 
          63 25 26 64 
          64 26 27 65 
          65 27 28 66 
          66 28 29 67 
          67 29 30 68 
          68 30 31 69 
          69 31 32 70 
          70 32 33 71 
          71 33 34 72 
          72 34 35 73 
          73 35 36 74 
          74 36 37 75 
          75 37 38 76 
          76 38 39 77 
          77 39 40 78 
          78 40 41 79 
          79 41 2 3 
        </DataArray>
        <DataArray type="Int64" Name="offsets" format="ascii">
          4
          8
          12
          16
          20
          24
          28
          32
          36
          40
          44
          48
          52
          56
          60
          64
          68
          72
          76
          80
          84
          88
          92
          96
          100
          104
          108
          112
          116
          120
          124
          128
          132
          136
          140
          144
          148
          152
          156
        </DataArray>
        <DataArray type="Int64" Name="types" format="ascii">
          9
          9
          9
          9
          9
          9
          9
          9
          9
          9
          9
          9
          9
          9
          9
          9
          9
          9
          9
          9
          9
          9
          9
          9
          9
          9
          9
          9
          9
          9
          9
          9
          9
          9
          9
          9
          9
          9
          9
        </DataArray>
      </Cells>
      <PointData>
        <DataArray type="Int64" Name="NodeTag" format="ascii">
          1
          2
          3
          4
          7
          8
          9
          10
          11
          12
          13
          14
          15
          16
          17
          18
          19
          20
          21
          22
          23
          24
          25
          26
          27
          28
          29
          30
          31
          32
          33
          34
          35
          36
          37
          38
          39
          40
          41
          42
          43
          44
          45
          46
          47
          48
          49
          50
          51
          52
          53
          54
          55
          56
          57
          58
          59
          60
          61
          62
          63
          64
          65
          66
          67
          68
          69
          70
          71
          72
          73
          74
          75
          76
          77
          78
          79
          80
          81
          82
        </DataArray>
        <DataArray type="Float64" Name="Velocity" NumberOfComponents="3" format="ascii">
          -6.2394317911e-04 -7.7843019166e-05 0.0000000000e+00 
          -6.2394317911e-04 -7.7843019166e-05 0.0000000000e+00 
          -1.9200336657e-03 -7.7814146526e-05 0.0000000000e+00 
          -1.9200336657e-03 -7.7814146526e-05 0.0000000000e+00 
          -6.8512736331e-04 -7.7798348331e-05 0.0000000000e+00 
          -7.4510197228e-04 -7.7873310159e-05 0.0000000000e+00 
          -8.0386770256e-04 -7.7815326069e-05 0.0000000000e+00 
          -8.6136640497e-04 -7.7871460264e-05 0.0000000000e+00 
          -9.1758633349e-04 -7.7736888178e-05 0.0000000000e+00 
          -9.7251272488e-04 -7.7958542424e-05 0.0000000000e+00 
          -1.0260984028e-03 -7.7732994748e-05 0.0000000000e+00 
          -1.0783446848e-03 -7.7854010482e-05 0.0000000000e+00 
          -1.1292159412e-03 -7.7873397839e-05 0.0000000000e+00 
          -1.1786920618e-03 -7.7741161205e-05 0.0000000000e+00 
          -1.2267664824e-03 -7.7901536546e-05 0.0000000000e+00 
          -1.2733940897e-03 -7.7789208166e-05 0.0000000000e+00 
          -1.3185786551e-03 -7.7806215389e-05 0.0000000000e+00 
          -1.3622881071e-03 -7.7850415938e-05 0.0000000000e+00 
          -1.4045016465e-03 -7.7803152512e-05 0.0000000000e+00 
          -1.4452071358e-03 -7.7816099149e-05 0.0000000000e+00 
          -1.4843753730e-03 -7.7818353494e-05 0.0000000000e+00 
          -1.5219936351e-03 -7.7817193744e-05 0.0000000000e+00 
          -1.5580403027e-03 -7.7818305438e-05 0.0000000000e+00 
          -1.5924875851e-03 -7.7806387332e-05 0.0000000000e+00 
          -1.6253290153e-03 -7.7805877373e-05 0.0000000000e+00 
          -1.6565361378e-03 -7.7815065097e-05 0.0000000000e+00 
          -1.6860821215e-03 -7.7816132278e-05 0.0000000000e+00 
          -1.7139635301e-03 -7.7808798390e-05 0.0000000000e+00 
          -1.7401519716e-03 -7.7804112738e-05 0.0000000000e+00 
          -1.7646221564e-03 -7.7806844809e-05 0.0000000000e+00 
          -1.7873699267e-03 -7.7810435258e-05 0.0000000000e+00 
          -1.8083708705e-03 -7.7809651166e-05 0.0000000000e+00 
          -1.8275983207e-03 -7.7808156301e-05 0.0000000000e+00 
          -1.8450596215e-03 -7.7809852739e-05 0.0000000000e+00 
          -1.8607129049e-03 -7.7812094624e-05 0.0000000000e+00 
          -1.8745647137e-03 -7.7811390379e-05 0.0000000000e+00 
          -1.8866001106e-03 -7.7809465486e-05 0.0000000000e+00 
          -1.8967904963e-03 -7.7809856431e-05 0.0000000000e+00 
          -1.9051535738e-03 -7.7812358388e-05 0.0000000000e+00 
          -1.9116592096e-03 -7.7814237227e-05 0.0000000000e+00 
          -1.9163128738e-03 -7.7814525085e-05 0.0000000000e+00 
          -1.9191094497e-03 -7.7814253679e-05 0.0000000000e+00 
          -6.8512736331e-04 -7.7798348331e-05 0.0000000000e+00 
          -7.4510197228e-04 -7.7873310159e-05 0.0000000000e+00 
          -8.0386770256e-04 -7.7815326069e-05 0.0000000000e+00 
          -8.6136640497e-04 -7.7871460264e-05 0.0000000000e+00 
          -9.1758633349e-04 -7.7736888178e-05 0.0000000000e+00 
          -9.7251272488e-04 -7.7958542424e-05 0.0000000000e+00 
          -1.0260984028e-03 -7.7732994748e-05 0.0000000000e+00 
          -1.0783446848e-03 -7.7854010482e-05 0.0000000000e+00 
          -1.1292159412e-03 -7.7873397839e-05 0.0000000000e+00 
          -1.1786920618e-03 -7.7741161205e-05 0.0000000000e+00 
          -1.2267664824e-03 -7.7901536546e-05 0.0000000000e+00 
          -1.2733940897e-03 -7.7789208166e-05 0.0000000000e+00 
          -1.3185786551e-03 -7.7806215389e-05 0.0000000000e+00 
          -1.3622881071e-03 -7.7850415938e-05 0.0000000000e+00 
          -1.4045016465e-03 -7.7803152512e-05 0.0000000000e+00 
          -1.4452071358e-03 -7.7816099149e-05 0.0000000000e+00 
          -1.4843753730e-03 -7.7818353494e-05 0.0000000000e+00 
          -1.5219936351e-03 -7.7817193744e-05 0.0000000000e+00 
          -1.5580403027e-03 -7.7818305438e-05 0.0000000000e+00 
          -1.5924875851e-03 -7.7806387332e-05 0.0000000000e+00 
          -1.6253290153e-03 -7.7805877373e-05 0.0000000000e+00 
          -1.6565361378e-03 -7.7815065097e-05 0.0000000000e+00 
          -1.6860821215e-03 -7.7816132278e-05 0.0000000000e+00 
          -1.7139635301e-03 -7.7808798390e-05 0.0000000000e+00 
          -1.7401519716e-03 -7.7804112738e-05 0.0000000000e+00 
          -1.7646221564e-03 -7.7806844809e-05 0.0000000000e+00 
          -1.7873699267e-03 -7.7810435258e-05 0.0000000000e+00 
          -1.8083708705e-03 -7.7809651166e-05 0.0000000000e+00 
          -1.8275983207e-03 -7.7808156301e-05 0.0000000000e+00 
          -1.8450596215e-03 -7.7809852739e-05 0.0000000000e+00 
          -1.8607129049e-03 -7.7812094624e-05 0.0000000000e+00 
          -1.8745647137e-03 -7.7811390379e-05 0.0000000000e+00 
          -1.8866001106e-03 -7.7809465486e-05 0.0000000000e+00 
          -1.8967904963e-03 -7.7809856431e-05 0.0000000000e+00 
          -1.9051535738e-03 -7.7812358388e-05 0.0000000000e+00 
          -1.9116592096e-03 -7.7814237227e-05 0.0000000000e+00 
          -1.9163128738e-03 -7.7814525085e-05 0.0000000000e+00 
          -1.9191094497e-03 -7.7814253679e-05 0.0000000000e+00 
        </DataArray>
        <DataArray type="Float64" Name="Displacement" NumberOfComponents="3" format="ascii">
          3.8417205297e-05 -4.2476399941e-04 0.0000000000e+00 
          3.8417205297e-05 -4.2476399941e-04 0.0000000000e+00 
          -2.2741931846e-04 -4.4834240389e-04 0.0000000000e+00 
          -2.2741931846e-04 -4.4834240389e-04 0.0000000000e+00 
          2.8034931980e-05 -4.2595771311e-04 0.0000000000e+00 
          1.7630793178e-05 -4.2712032837e-04 0.0000000000e+00 
          7.2241457851e-06 -4.2825205164e-04 0.0000000000e+00 
          -3.1656755930e-06 -4.2935264762e-04 0.0000000000e+00 
          -1.3519424587e-05 -4.3042238341e-04 0.0000000000e+00 
          -2.3817967226e-05 -4.3146098972e-04 0.0000000000e+00 
          -3.4042284830e-05 -4.3246854847e-04 0.0000000000e+00 
          -4.4173635681e-05 -4.3344545276e-04 0.0000000000e+00 
          -5.4193421731e-05 -4.3439076563e-04 0.0000000000e+00 
          -6.4083278536e-05 -4.3530557746e-04 0.0000000000e+00 
          -7.3825161820e-05 -4.3618920633e-04 0.0000000000e+00 
          -8.3401360761e-05 -4.3704171221e-04 0.0000000000e+00 
          -9.2794426127e-05 -4.3786341415e-04 0.0000000000e+00 
          -1.0198735976e-04 -4.3865395000e-04 0.0000000000e+00 
          -1.1096350439e-04 -4.3941355492e-04 0.0000000000e+00 
          -1.1970662079e-04 -4.4014215972e-04 0.0000000000e+00 
          -1.2820103027e-04 -4.4083970599e-04 0.0000000000e+00 
          -1.3643136262e-04 -4.4150628842e-04 0.0000000000e+00 
          -1.4438290238e-04 -4.4214186511e-04 0.0000000000e+00 
          -1.5204135005e-04 -4.4274641856e-04 0.0000000000e+00 
          -1.5939301989e-04 -4.4331997119e-04 0.0000000000e+00 
          -1.6642481109e-04 -4.4386253113e-04 0.0000000000e+00 
          -1.7312412020e-04 -4.4437409255e-04 0.0000000000e+00 
          -1.7947906298e-04 -4.4485463702e-04 0.0000000000e+00 
          -1.8547830520e-04 -4.4530416862e-04 0.0000000000e+00 
          -1.9111122244e-04 -4.4572270688e-04 0.0000000000e+00 
          -1.9636781643e-04 -4.4611025245e-04 0.0000000000e+00 
          -2.0123874596e-04 -4.4646678651e-04 0.0000000000e+00 
          -2.0571541950e-04 -4.4679230346e-04 0.0000000000e+00 
          -2.0978991201e-04 -4.4708682035e-04 0.0000000000e+00 
          -2.1345503974e-04 -4.4735034580e-04 0.0000000000e+00 
          -2.1670432228e-04 -4.4758286691e-04 0.0000000000e+00 
          -2.1953202297e-04 -4.4778437200e-04 0.0000000000e+00 
          -2.2193318293e-04 -4.4795487301e-04 0.0000000000e+00 
          -2.2390353985e-04 -4.4809438692e-04 0.0000000000e+00 
          -2.2543966505e-04 -4.4820290884e-04 0.0000000000e+00 
          -2.2653882363e-04 -4.4828041824e-04 0.0000000000e+00 
          -2.2719908686e-04 -4.4832691061e-04 0.0000000000e+00 
          2.8034931980e-05 -4.2595771311e-04 0.0000000000e+00 
          1.7630793178e-05 -4.2712032837e-04 0.0000000000e+00 
          7.2241457851e-06 -4.2825205164e-04 0.0000000000e+00 
          -3.1656755930e-06 -4.2935264762e-04 0.0000000000e+00 
          -1.3519424587e-05 -4.3042238341e-04 0.0000000000e+00 
          -2.3817967226e-05 -4.3146098972e-04 0.0000000000e+00 
          -3.4042284830e-05 -4.3246854847e-04 0.0000000000e+00 
          -4.4173635681e-05 -4.3344545276e-04 0.0000000000e+00 
          -5.4193421731e-05 -4.3439076563e-04 0.0000000000e+00 
          -6.4083278536e-05 -4.3530557746e-04 0.0000000000e+00 
          -7.3825161820e-05 -4.3618920633e-04 0.0000000000e+00 
          -8.3401360761e-05 -4.3704171221e-04 0.0000000000e+00 
          -9.2794426127e-05 -4.3786341415e-04 0.0000000000e+00 
          -1.0198735976e-04 -4.3865395000e-04 0.0000000000e+00 
          -1.1096350439e-04 -4.3941355492e-04 0.0000000000e+00 
          -1.1970662079e-04 -4.4014215972e-04 0.0000000000e+00 
          -1.2820103027e-04 -4.4083970599e-04 0.0000000000e+00 
          -1.3643136262e-04 -4.4150628842e-04 0.0000000000e+00 
          -1.4438290238e-04 -4.4214186511e-04 0.0000000000e+00 
          -1.5204135005e-04 -4.4274641856e-04 0.0000000000e+00 
          -1.5939301989e-04 -4.4331997119e-04 0.0000000000e+00 
          -1.6642481109e-04 -4.4386253113e-04 0.0000000000e+00 
          -1.7312412020e-04 -4.4437409255e-04 0.0000000000e+00 
          -1.7947906298e-04 -4.4485463702e-04 0.0000000000e+00 
          -1.8547830520e-04 -4.4530416862e-04 0.0000000000e+00 
          -1.9111122244e-04 -4.4572270688e-04 0.0000000000e+00 
          -1.9636781643e-04 -4.4611025245e-04 0.0000000000e+00 
          -2.0123874596e-04 -4.4646678651e-04 0.0000000000e+00 
          -2.0571541950e-04 -4.4679230346e-04 0.0000000000e+00 
          -2.0978991201e-04 -4.4708682035e-04 0.0000000000e+00 
          -2.1345503974e-04 -4.4735034580e-04 0.0000000000e+00 
          -2.1670432228e-04 -4.4758286691e-04 0.0000000000e+00 
          -2.1953202297e-04 -4.4778437200e-04 0.0000000000e+00 
          -2.2193318293e-04 -4.4795487301e-04 0.0000000000e+00 
          -2.2390353985e-04 -4.4809438692e-04 0.0000000000e+00 
          -2.2543966505e-04 -4.4820290884e-04 0.0000000000e+00 
          -2.2653882363e-04 -4.4828041824e-04 0.0000000000e+00 
          -2.2719908686e-04 -4.4832691061e-04 0.0000000000e+00 
        </DataArray>
        <DataArray type="Float64" Name="Acceleration" NumberOfComponents="3" format="ascii">
          -3.7194825380e-03 2.6726272667e-06 0.0000000000e+00 
          -3.7194825380e-03 2.6726272667e-06 0.0000000000e+00 
          3.9686604363e-02 -3.5639951114e-06 0.0000000000e+00 
          3.9686604363e-02 -3.5639951114e-06 0.0000000000e+00 
          -1.9701234098e-03 1.6596188485e-05 0.0000000000e+00 
          -2.2724802136e-04 -2.0865582529e-05 0.0000000000e+00 
          1.5172770694e-03 2.2063522578e-05 0.0000000000e+00 
          3.2501930564e-03 -2.6336093725e-05 0.0000000000e+00 
          4.9742015600e-03 2.2191071155e-05 0.0000000000e+00 
          6.6866290203e-03 7.1954613243e-06 0.0000000000e+00 
          8.3776910883e-03 -6.3169337077e-05 0.0000000000e+00 
          1.0052208899e-02 1.0543595038e-04 0.0000000000e+00 
          1.1706881614e-02 -9.1058484049e-05 0.0000000000e+00 
          1.3331573920e-02 3.1623848453e-05 0.0000000000e+00 
          1.4929637445e-02 2.1233743070e-05 0.0000000000e+00 
          1.6500696658e-02 -3.6472419610e-05 0.0000000000e+00 
          1.8032264713e-02 2.8786789663e-05 0.0000000000e+00 
          1.9533116524e-02 -1.3588772223e-05 0.0000000000e+00 
          2.0995294120e-02 -1.2852642406e-06 0.0000000000e+00 
          2.2410022278e-02 9.5783251967e-06 0.0000000000e+00 
          2.3793871587e-02 -7.6596379102e-06 0.0000000000e+00 
          2.5119762828e-02 -1.0625787200e-07 0.0000000000e+00 
          2.6407297044e-02 2.9094375311e-06 0.0000000000e+00 
          2.7642202345e-02 -8.5146038376e-07 0.0000000000e+00 
          2.8821697432e-02 -2.4566910850e-06 0.0000000000e+00 
          2.9957292649e-02 -1.4108967205e-06 0.0000000000e+00 
          3.1027362584e-02 1.8041266733e-06 0.0000000000e+00 
          3.2050088448e-02 1.2938178887e-06 0.0000000000e+00 
          3.3006602939e-02 -2.3404680107e-06 0.0000000000e+00 
          3.3907468802e-02 -2.4620743790e-06 0.0000000000e+00 
          3.4749130030e-02 9.3339478013e-07 0.0000000000e+00 
          3.5522740505e-02 1.8690588416e-06 0.0000000000e+00 
          3.6237853855e-02 -1.0510082398e-06 0.0000000000e+00 
          3.6884575321e-02 -2.6852170336e-06 0.0000000000e+00 
          3.7468472468e-02 -3.5928644943e-07 0.0000000000e+00 
          3.7985051451e-02 1.7010054992e-06 0.0000000000e+00 
          3.8432517093e-02 -3.5645841379e-07 0.0000000000e+00 
          3.8816205702e-02 -3.4656296746e-06 0.0000000000e+00 
          3.9125135580e-02 -2.5856295396e-06 0.0000000000e+00 
          3.9371451685e-02 1.0995455775e-06 0.0000000000e+00 
          3.9545492228e-02 1.9477643046e-06 0.0000000000e+00 
          3.9647718862e-02 -1.3049465071e-06 0.0000000000e+00 
          -1.9701234098e-03 1.6596188485e-05 0.0000000000e+00 
          -2.2724802136e-04 -2.0865582529e-05 0.0000000000e+00 
          1.5172770694e-03 2.2063522578e-05 0.0000000000e+00 
          3.2501930564e-03 -2.6336093725e-05 0.0000000000e+00 
          4.9742015600e-03 2.2191071155e-05 0.0000000000e+00 
          6.6866290203e-03 7.1954613243e-06 0.0000000000e+00 
          8.3776910883e-03 -6.3169337077e-05 0.0000000000e+00 
          1.0052208899e-02 1.0543595038e-04 0.0000000000e+00 
          1.1706881614e-02 -9.1058484049e-05 0.0000000000e+00 
          1.3331573920e-02 3.1623848453e-05 0.0000000000e+00 
          1.4929637445e-02 2.1233743070e-05 0.0000000000e+00 
          1.6500696658e-02 -3.6472419610e-05 0.0000000000e+00 
          1.8032264713e-02 2.8786789663e-05 0.0000000000e+00 
          1.9533116524e-02 -1.3588772223e-05 0.0000000000e+00 
          2.0995294120e-02 -1.2852642406e-06 0.0000000000e+00 
          2.2410022278e-02 9.5783251967e-06 0.0000000000e+00 
          2.3793871587e-02 -7.6596379102e-06 0.0000000000e+00 
          2.5119762828e-02 -1.0625787200e-07 0.0000000000e+00 
          2.6407297044e-02 2.9094375311e-06 0.0000000000e+00 
          2.7642202345e-02 -8.5146038376e-07 0.0000000000e+00 
          2.8821697432e-02 -2.4566910850e-06 0.0000000000e+00 
          2.9957292649e-02 -1.4108967205e-06 0.0000000000e+00 
          3.1027362584e-02 1.8041266733e-06 0.0000000000e+00 
          3.2050088448e-02 1.2938178887e-06 0.0000000000e+00 
          3.3006602939e-02 -2.3404680107e-06 0.0000000000e+00 
          3.3907468802e-02 -2.4620743790e-06 0.0000000000e+00 
          3.4749130030e-02 9.3339478013e-07 0.0000000000e+00 
          3.5522740505e-02 1.8690588416e-06 0.0000000000e+00 
          3.6237853855e-02 -1.0510082398e-06 0.0000000000e+00 
          3.6884575321e-02 -2.6852170336e-06 0.0000000000e+00 
          3.7468472468e-02 -3.5928644943e-07 0.0000000000e+00 
          3.7985051451e-02 1.7010054992e-06 0.0000000000e+00 
          3.8432517093e-02 -3.5645841379e-07 0.0000000000e+00 
          3.8816205702e-02 -3.4656296746e-06 0.0000000000e+00 
          3.9125135580e-02 -2.5856295396e-06 0.0000000000e+00 
          3.9371451685e-02 1.0995455775e-06 0.0000000000e+00 
          3.9545492228e-02 1.9477643046e-06 0.0000000000e+00 
          3.9647718862e-02 -1.3049465071e-06 0.0000000000e+00 
        </DataArray>
        <DataArray type="Float64" Name="Reaction" NumberOfComponents="3" format="ascii">
          0.0000000000e+00 0.0000000000e+00 0.0000000000e+00 
          0.0000000000e+00 0.0000000000e+00 0.0000000000e+00 
          0.0000000000e+00 0.0000000000e+00 0.0000000000e+00 
          0.0000000000e+00 0.0000000000e+00 0.0000000000e+00 
          0.0000000000e+00 0.0000000000e+00 0.0000000000e+00 
          0.0000000000e+00 0.0000000000e+00 0.0000000000e+00 
          0.0000000000e+00 0.0000000000e+00 0.0000000000e+00 
          0.0000000000e+00 0.0000000000e+00 0.0000000000e+00 
          0.0000000000e+00 0.0000000000e+00 0.0000000000e+00 
          0.0000000000e+00 0.0000000000e+00 0.0000000000e+00 
          0.0000000000e+00 0.0000000000e+00 0.0000000000e+00 
          0.0000000000e+00 0.0000000000e+00 0.0000000000e+00 
          0.0000000000e+00 0.0000000000e+00 0.0000000000e+00 
          0.0000000000e+00 0.0000000000e+00 0.0000000000e+00 
          0.0000000000e+00 0.0000000000e+00 0.0000000000e+00 
          0.0000000000e+00 0.0000000000e+00 0.0000000000e+00 
          0.0000000000e+00 0.0000000000e+00 0.0000000000e+00 
          0.0000000000e+00 0.0000000000e+00 0.0000000000e+00 
          0.0000000000e+00 0.0000000000e+00 0.0000000000e+00 
          0.0000000000e+00 0.0000000000e+00 0.0000000000e+00 
          0.0000000000e+00 0.0000000000e+00 0.0000000000e+00 
          0.0000000000e+00 0.0000000000e+00 0.0000000000e+00 
          0.0000000000e+00 0.0000000000e+00 0.0000000000e+00 
          0.0000000000e+00 0.0000000000e+00 0.0000000000e+00 
          0.0000000000e+00 0.0000000000e+00 0.0000000000e+00 
          0.0000000000e+00 0.0000000000e+00 0.0000000000e+00 
          0.0000000000e+00 0.0000000000e+00 0.0000000000e+00 
          0.0000000000e+00 0.0000000000e+00 0.0000000000e+00 
          0.0000000000e+00 0.0000000000e+00 0.0000000000e+00 
          0.0000000000e+00 0.0000000000e+00 0.0000000000e+00 
          0.0000000000e+00 0.0000000000e+00 0.0000000000e+00 
          0.0000000000e+00 0.0000000000e+00 0.0000000000e+00 
          0.0000000000e+00 0.0000000000e+00 0.0000000000e+00 
          0.0000000000e+00 0.0000000000e+00 0.0000000000e+00 
          0.0000000000e+00 0.0000000000e+00 0.0000000000e+00 
          0.0000000000e+00 0.0000000000e+00 0.0000000000e+00 
          0.0000000000e+00 0.0000000000e+00 0.0000000000e+00 
          0.0000000000e+00 0.0000000000e+00 0.0000000000e+00 
          0.0000000000e+00 0.0000000000e+00 0.0000000000e+00 
          0.0000000000e+00 0.0000000000e+00 0.0000000000e+00 
          0.0000000000e+00 0.0000000000e+00 0.0000000000e+00 
          0.0000000000e+00 0.0000000000e+00 0.0000000000e+00 
          0.0000000000e+00 0.0000000000e+00 0.0000000000e+00 
          0.0000000000e+00 0.0000000000e+00 0.0000000000e+00 
          0.0000000000e+00 0.0000000000e+00 0.0000000000e+00 
          0.0000000000e+00 0.0000000000e+00 0.0000000000e+00 
          0.0000000000e+00 0.0000000000e+00 0.0000000000e+00 
          0.0000000000e+00 0.0000000000e+00 0.0000000000e+00 
          0.0000000000e+00 0.0000000000e+00 0.0000000000e+00 
          0.0000000000e+00 0.0000000000e+00 0.0000000000e+00 
          0.0000000000e+00 0.0000000000e+00 0.0000000000e+00 
          0.0000000000e+00 0.0000000000e+00 0.0000000000e+00 
          0.0000000000e+00 0.0000000000e+00 0.0000000000e+00 
          0.0000000000e+00 0.0000000000e+00 0.0000000000e+00 
          0.0000000000e+00 0.0000000000e+00 0.0000000000e+00 
          0.0000000000e+00 0.0000000000e+00 0.0000000000e+00 
          0.0000000000e+00 0.0000000000e+00 0.0000000000e+00 
          0.0000000000e+00 0.0000000000e+00 0.0000000000e+00 
          0.0000000000e+00 0.0000000000e+00 0.0000000000e+00 
          0.0000000000e+00 0.0000000000e+00 0.0000000000e+00 
          0.0000000000e+00 0.0000000000e+00 0.0000000000e+00 
          0.0000000000e+00 0.0000000000e+00 0.0000000000e+00 
          0.0000000000e+00 0.0000000000e+00 0.0000000000e+00 
          0.0000000000e+00 0.0000000000e+00 0.0000000000e+00 
          0.0000000000e+00 0.0000000000e+00 0.0000000000e+00 
          0.0000000000e+00 0.0000000000e+00 0.0000000000e+00 
          0.0000000000e+00 0.0000000000e+00 0.0000000000e+00 
          0.0000000000e+00 0.0000000000e+00 0.0000000000e+00 
          0.0000000000e+00 0.0000000000e+00 0.0000000000e+00 
          0.0000000000e+00 0.0000000000e+00 0.0000000000e+00 
          0.0000000000e+00 0.0000000000e+00 0.0000000000e+00 
          0.0000000000e+00 0.0000000000e+00 0.0000000000e+00 
          0.0000000000e+00 0.0000000000e+00 0.0000000000e+00 
          0.0000000000e+00 0.0000000000e+00 0.0000000000e+00 
          0.0000000000e+00 0.0000000000e+00 0.0000000000e+00 
          0.0000000000e+00 0.0000000000e+00 0.0000000000e+00 
          0.0000000000e+00 0.0000000000e+00 0.0000000000e+00 
          0.0000000000e+00 0.0000000000e+00 0.0000000000e+00 
          0.0000000000e+00 0.0000000000e+00 0.0000000000e+00 
          0.0000000000e+00 0.0000000000e+00 0.0000000000e+00 
        </DataArray>
      </PointData>
      <CellData>
        <DataArray type="Int64" Name="ElementTag" format="ascii">
          90
          91
          92
          93
          94
          95
          96
          97
          98
          99
          100
          101
          102
          103
          104
          105
          106
          107
          108
          109
          110
          111
          112
          113
          114
          115
          116
          117
          118
          119
          120
          121
          122
          123
          124
          125
          126
          127
          128
        </DataArray>
      </CellData>
    </Piece>
  </UnstructuredGrid>
</VTKFile>
