<?xml version="1.0"?>
<VTKFile type="UnstructuredGrid" version="1.0" byte_order="LittleEndian" compressor="vtkZLibDataCompressor">
  <UnstructuredGrid>
    <Piece NumberOfPoints="80" NumberOfCells="39">
      <Points>
        <DataArray type="Float64" Name="Points" NumberOfComponents="3" format="ascii">
          0.0000000000e+00 0.0000000000e+00 0.0000000000e+00 
          2.5000000000e-01 0.0000000000e+00 0.0000000000e+00 
          2.5000000000e-01 3.0000000000e+01 0.0000000000e+00 
          0.0000000000e+00 3.0000000000e+01 0.0000000000e+00 
          2.5000000000e-01 7.6923100000e-01 0.0000000000e+00 
          2.5000000000e-01 1.5384620000e+00 0.0000000000e+00 
          2.5000000000e-01 2.3076920000e+00 0.0000000000e+00 
          2.5000000000e-01 3.0769230000e+00 0.0000000000e+00 
          2.5000000000e-01 3.8461540000e+00 0.0000000000e+00 
          2.5000000000e-01 4.6153850000e+00 0.0000000000e+00 
          2.5000000000e-01 5.3846150000e+00 0.0000000000e+00 
          2.5000000000e-01 6.1538460000e+00 0.0000000000e+00 
          2.5000000000e-01 6.9230770000e+00 0.0000000000e+00 
          2.5000000000e-01 7.6923080000e+00 0.0000000000e+00 
          2.5000000000e-01 8.4615380000e+00 0.0000000000e+00 
          2.5000000000e-01 9.2307690000e+00 0.0000000000e+00 
          2.5000000000e-01 1.0000000000e+01 0.0000000000e+00 
          2.5000000000e-01 1.0769231000e+01 0.0000000000e+00 
          2.5000000000e-01 1.1538462000e+01 0.0000000000e+00 
          2.5000000000e-01 1.2307692000e+01 0.0000000000e+00 
          2.5000000000e-01 1.3076923000e+01 0.0000000000e+00 
          2.5000000000e-01 1.3846154000e+01 0.0000000000e+00 
          2.5000000000e-01 1.4615385000e+01 0.0000000000e+00 
          2.5000000000e-01 1.5384615000e+01 0.0000000000e+00 
          2.5000000000e-01 1.6153846000e+01 0.0000000000e+00 
          2.5000000000e-01 1.6923077000e+01 0.0000000000e+00 
          2.5000000000e-01 1.7692308000e+01 0.0000000000e+00 
          2.5000000000e-01 1.8461538000e+01 0.0000000000e+00 
          2.5000000000e-01 1.9230769000e+01 0.0000000000e+00 
          2.5000000000e-01 2.0000000000e+01 0.0000000000e+00 
          2.5000000000e-01 2.0769231000e+01 0.0000000000e+00 
          2.5000000000e-01 2.1538462000e+01 0.0000000000e+00 
          2.5000000000e-01 2.2307692000e+01 0.0000000000e+00 
          2.5000000000e-01 2.3076923000e+01 0.0000000000e+00 
          2.5000000000e-01 2.3846154000e+01 0.0000000000e+00 
          2.5000000000e-01 2.4615385000e+01 0.0000000000e+00 
          2.5000000000e-01 2.5384615000e+01 0.0000000000e+00 
          2.5000000000e-01 2.6153846000e+01 0.0000000000e+00 
          2.5000000000e-01 2.6923077000e+01 0.0000000000e+00 
          2.5000000000e-01 2.7692308000e+01 0.0000000000e+00 
          2.5000000000e-01 2.8461538000e+01 0.0000000000e+00 
          2.5000000000e-01 2.9230769000e+01 0.0000000000e+00 
          0.0000000000e+00 7.6923100000e-01 0.0000000000e+00 
          0.0000000000e+00 1.5384620000e+00 0.0000000000e+00 
          0.0000000000e+00 2.3076920000e+00 0.0000000000e+00 
          0.0000000000e+00 3.0769230000e+00 0.0000000000e+00 
          0.0000000000e+00 3.8461540000e+00 0.0000000000e+00 
          0.0000000000e+00 4.6153850000e+00 0.0000000000e+00 
          0.0000000000e+00 5.3846150000e+00 0.0000000000e+00 
          0.0000000000e+00 6.1538460000e+00 0.0000000000e+00 
          0.0000000000e+00 6.9230770000e+00 0.0000000000e+00 
          0.0000000000e+00 7.6923080000e+00 0.0000000000e+00 
          0.0000000000e+00 8.4615380000e+00 0.0000000000e+00 
          0.0000000000e+00 9.2307690000e+00 0.0000000000e+00 
          0.0000000000e+00 1.0000000000e+01 0.0000000000e+00 
          0.0000000000e+00 1.0769231000e+01 0.0000000000e+00 
          0.0000000000e+00 1.1538462000e+01 0.0000000000e+00 
          0.0000000000e+00 1.2307692000e+01 0.0000000000e+00 
          0.0000000000e+00 1.3076923000e+01 0.0000000000e+00 
          0.0000000000e+00 1.3846154000e+01 0.0000000000e+00 
          0.0000000000e+00 1.4615385000e+01 0.0000000000e+00 
          0.0000000000e+00 1.5384615000e+01 0.0000000000e+00 
          0.0000000000e+00 1.6153846000e+01 0.0000000000e+00 
          0.0000000000e+00 1.6923077000e+01 0.0000000000e+00 
          0.0000000000e+00 1.7692308000e+01 0.0000000000e+00 
          0.0000000000e+00 1.8461538000e+01 0.0000000000e+00 
          0.0000000000e+00 1.9230769000e+01 0.0000000000e+00 
          0.0000000000e+00 2.0000000000e+01 0.0000000000e+00 
          0.0000000000e+00 2.0769231000e+01 0.0000000000e+00 
          0.0000000000e+00 2.1538462000e+01 0.0000000000e+00 
          0.0000000000e+00 2.2307692000e+01 0.0000000000e+00 
          0.0000000000e+00 2.3076923000e+01 0.0000000000e+00 
          0.0000000000e+00 2.3846154000e+01 0.0000000000e+00 
          0.0000000000e+00 2.4615385000e+01 0.0000000000e+00 
          0.0000000000e+00 2.5384615000e+01 0.0000000000e+00 
          0.0000000000e+00 2.6153846000e+01 0.0000000000e+00 
          0.0000000000e+00 2.6923077000e+01 0.0000000000e+00 
          0.0000000000e+00 2.7692308000e+01 0.0000000000e+00 
          0.0000000000e+00 2.8461538000e+01 0.0000000000e+00 
          0.0000000000e+00 2.9230769000e+01 0.0000000000e+00 
        </DataArray>
      </Points>
      <Cells>
        <DataArray type="Int64" Name="connectivity" format="ascii">
          0 1 4 42 
          42 4 5 43 
          43 5 6 44 
          44 6 7 45 
          45 7 8 46 
          46 8 9 47 
          47 9 10 48 
          48 10 11 49 
          49 11 12 50 
          50 12 13 51 
          51 13 14 52 
          52 14 15 53 
          53 15 16 54 
          54 16 17 55 
          55 17 18 56 
          56 18 19 57 
          57 19 20 58 
          58 20 21 59 
          59 21 22 60 
          60 22 23 61 
          61 23 24 62 
          62 24 25 63 
          63 25 26 64 
          64 26 27 65 
          65 27 28 66 
          66 28 29 67 
          67 29 30 68 
          68 30 31 69 
          69 31 32 70 
          70 32 33 71 
          71 33 34 72 
          72 34 35 73 
          73 35 36 74 
          74 36 37 75 
          75 37 38 76 
          76 38 39 77 
          77 39 40 78 
          78 40 41 79 
          79 41 2 3 
        </DataArray>
        <DataArray type="Int64" Name="offsets" format="ascii">
          4
          8
          12
          16
          20
          24
          28
          32
          36
          40
          44
          48
          52
          56
          60
          64
          68
          72
          76
          80
          84
          88
          92
          96
          100
          104
          108
          112
          116
          120
          124
          128
          132
          136
          140
          144
          148
          152
          156
        </DataArray>
        <DataArray type="Int64" Name="types" format="ascii">
          9
          9
          9
          9
          9
          9
          9
          9
          9
          9
          9
          9
          9
          9
          9
          9
          9
          9
          9
          9
          9
          9
          9
          9
          9
          9
          9
          9
          9
          9
          9
          9
          9
          9
          9
          9
          9
          9
          9
        </DataArray>
      </Cells>
      <PointData>
        <DataArray type="Int64" Name="NodeTag" format="ascii">
          1
          2
          3
          4
          7
          8
          9
          10
          11
          12
          13
          14
          15
          16
          17
          18
          19
          20
          21
          22
          23
          24
          25
          26
          27
          28
          29
          30
          31
          32
          33
          34
          35
          36
          37
          38
          39
          40
          41
          42
          43
          44
          45
          46
          47
          48
          49
          50
          51
          52
          53
          54
          55
          56
          57
          58
          59
          60
          61
          62
          63
          64
          65
          66
          67
          68
          69
          70
          71
          72
          73
          74
          75
          76
          77
          78
          79
          80
          81
          82
        </DataArray>
        <DataArray type="Float64" Name="Velocity" NumberOfComponents="3" format="ascii">
          1.1432690031e-05 -7.7845037945e-05 0.0000000000e+00 
          1.1432690031e-05 -7.7845037945e-05 0.0000000000e+00 
          1.1993591188e-03 -7.7835477622e-05 0.0000000000e+00 
          1.1993591188e-03 -7.7835477622e-05 0.0000000000e+00 
          6.0723916058e-05 -7.7886911439e-05 0.0000000000e+00 
          1.0981788459e-04 -7.7776059512e-05 0.0000000000e+00 
          1.5863269681e-04 -7.7900082499e-05 0.0000000000e+00 
          2.0709908178e-04 -7.7807067990e-05 0.0000000000e+00 
          2.5512506925e-04 -7.7857307562e-05 0.0000000000e+00 
          3.0265584379e-04 -7.7847997681e-05 0.0000000000e+00 
          3.4960052812e-04 -7.7807647978e-05 0.0000000000e+00 
          3.9589189250e-04 -7.7895314633e-05 0.0000000000e+00 
          4.4146361632e-04 -7.7779724305e-05 0.0000000000e+00 
          4.8623016995e-04 -7.7886001101e-05 0.0000000000e+00 
          5.3014478335e-04 -7.7826468969e-05 0.0000000000e+00 
          5.7312551714e-04 -7.7810198734e-05 0.0000000000e+00 
          6.1510282274e-04 -7.7900316089e-05 0.0000000000e+00 
          6.5603997531e-04 -7.7762063384e-05 0.0000000000e+00 
          6.9584132373e-04 -7.7896778290e-05 0.0000000000e+00 
          7.3447886560e-04 -7.7817532496e-05 0.0000000000e+00 
          7.7188000370e-04 -7.7826522825e-05 0.0000000000e+00 
          8.0798582643e-04 -7.7843066451e-05 0.0000000000e+00 
          8.4277100565e-04 -7.7842608744e-05 0.0000000000e+00 
          8.7614896621e-04 -7.7830860811e-05 0.0000000000e+00 
          9.0810771142e-04 -7.7826211844e-05 0.0000000000e+00 
          9.3858325664e-04 -7.7844830806e-05 0.0000000000e+00 
          9.6752918033e-04 -7.7834635674e-05 0.0000000000e+00 
          9.9493087212e-04 -7.7827235646e-05 0.0000000000e+00 
          1.0207233914e-03 -7.7837610298e-05 0.0000000000e+00 
          1.0448888934e-03 -7.7830641233e-05 0.0000000000e+00 
          1.0673932328e-03 -7.7825349995e-05 0.0000000000e+00 
          1.0881983007e-03 -7.7841521355e-05 0.0000000000e+00 
          1.1072908470e-03 -7.7835773977e-05 0.0000000000e+00 
          1.1246358209e-03 -7.7797280661e-05 0.0000000000e+00 
          1.1402104766e-03 -7.7885902551e-05 0.0000000000e+00 
          1.1540047303e-03 -7.7775652015e-05 0.0000000000e+00 
          1.1659920338e-03 -7.7849625844e-05 0.0000000000e+00 
          1.1761596621e-03 -7.7850608396e-05 0.0000000000e+00 
          1.1844983204e-03 -7.7773620257e-05 0.0000000000e+00 
          1.1909922992e-03 -7.7887269628e-05 0.0000000000e+00 
          1.1956380266e-03 -7.7792181473e-05 0.0000000000e+00 
          1.1984260917e-03 -7.7833465307e-05 0.0000000000e+00 
          6.0723916058e-05 -7.7886911439e-05 0.0000000000e+00 
          1.0981788459e-04 -7.7776059512e-05 0.0000000000e+00 
          1.5863269681e-04 -7.7900082499e-05 0.0000000000e+00 
          2.0709908178e-04 -7.7807067990e-05 0.0000000000e+00 
          2.5512506925e-04 -7.7857307562e-05 0.0000000000e+00 
          3.0265584379e-04 -7.7847997681e-05 0.0000000000e+00 
          3.4960052812e-04 -7.7807647978e-05 0.0000000000e+00 
          3.9589189250e-04 -7.7895314633e-05 0.0000000000e+00 
          4.4146361632e-04 -7.7779724305e-05 0.0000000000e+00 
          4.8623016995e-04 -7.7886001101e-05 0.0000000000e+00 
          5.3014478335e-04 -7.7826468969e-05 0.0000000000e+00 
          5.7312551714e-04 -7.7810198734e-05 0.0000000000e+00 
          6.1510282274e-04 -7.7900316089e-05 0.0000000000e+00 
          6.5603997531e-04 -7.7762063384e-05 0.0000000000e+00 
          6.9584132373e-04 -7.7896778290e-05 0.0000000000e+00 
          7.3447886560e-04 -7.7817532496e-05 0.0000000000e+00 
          7.7188000370e-04 -7.7826522825e-05 0.0000000000e+00 
          8.0798582643e-04 -7.7843066451e-05 0.0000000000e+00 
          8.4277100565e-04 -7.7842608744e-05 0.0000000000e+00 
          8.7614896621e-04 -7.7830860811e-05 0.0000000000e+00 
          9.0810771142e-04 -7.7826211844e-05 0.0000000000e+00 
          9.3858325664e-04 -7.7844830806e-05 0.0000000000e+00 
          9.6752918033e-04 -7.7834635674e-05 0.0000000000e+00 
          9.9493087212e-04 -7.7827235646e-05 0.0000000000e+00 
          1.0207233914e-03 -7.7837610298e-05 0.0000000000e+00 
          1.0448888934e-03 -7.7830641233e-05 0.0000000000e+00 
          1.0673932328e-03 -7.7825349995e-05 0.0000000000e+00 
          1.0881983007e-03 -7.7841521355e-05 0.0000000000e+00 
          1.1072908470e-03 -7.7835773977e-05 0.0000000000e+00 
          1.1246358209e-03 -7.7797280661e-05 0.0000000000e+00 
          1.1402104766e-03 -7.7885902551e-05 0.0000000000e+00 
          1.1540047303e-03 -7.7775652015e-05 0.0000000000e+00 
          1.1659920338e-03 -7.7849625844e-05 0.0000000000e+00 
          1.1761596621e-03 -7.7850608396e-05 0.0000000000e+00 
          1.1844983204e-03 -7.7773620257e-05 0.0000000000e+00 
          1.1909922992e-03 -7.7887269628e-05 0.0000000000e+00 
          1.1956380266e-03 -7.7792181473e-05 0.0000000000e+00 
          1.1984260917e-03 -7.7833465307e-05 0.0000000000e+00 
        </DataArray>
        <DataArray type="Float64" Name="Displacement" NumberOfComponents="3" format="ascii">
          -2.0145982377e-05 -4.7925488151e-04 0.0000000000e+00 
          -2.0145982377e-05 -4.7925488151e-04 0.0000000000e+00 
          -8.0286889805e-06 -5.0283507042e-04 0.0000000000e+00 
          -8.0286889805e-06 -5.0283507042e-04 0.0000000000e+00 
          -1.9939631938e-05 -4.8044864155e-04 0.0000000000e+00 
          -1.9702330683e-05 -4.8161136813e-04 0.0000000000e+00 
          -1.9436135111e-05 -4.8274304745e-04 0.0000000000e+00 
          -1.9143166160e-05 -4.8384386295e-04 0.0000000000e+00 
          -1.8825574003e-05 -4.8491351177e-04 0.0000000000e+00 
          -1.8485522626e-05 -4.8595222002e-04 0.0000000000e+00 
          -1.8125222785e-05 -4.8695997192e-04 0.0000000000e+00 
          -1.7746889749e-05 -4.8793665324e-04 0.0000000000e+00 
          -1.7352726175e-05 -4.8888229852e-04 0.0000000000e+00 
          -1.6945011504e-05 -4.8979704084e-04 0.0000000000e+00 
          -1.6525920156e-05 -4.9068071321e-04 0.0000000000e+00 
          -1.6097698357e-05 -4.9153334114e-04 0.0000000000e+00 
          -1.5662573536e-05 -4.9235505082e-04 0.0000000000e+00 
          -1.5222680877e-05 -4.9314570393e-04 0.0000000000e+00 
          -1.4780236995e-05 -4.9390534411e-04 0.0000000000e+00 
          -1.4337329901e-05 -4.9463397290e-04 0.0000000000e+00 
          -1.3896065247e-05 -4.9533164135e-04 0.0000000000e+00 
          -1.3458511874e-05 -4.9599829017e-04 0.0000000000e+00 
          -1.3026624257e-05 -4.9663382899e-04 0.0000000000e+00 
          -1.2602391261e-05 -4.9723857699e-04 0.0000000000e+00 
          -1.2187674538e-05 -4.9781204233e-04 0.0000000000e+00 
          -1.1784300853e-05 -4.9835475535e-04 0.0000000000e+00 
          -1.1394026206e-05 -4.9886635771e-04 0.0000000000e+00 
          -1.1018526906e-05 -4.9934682058e-04 0.0000000000e+00 
          -1.0659403404e-05 -4.9979659306e-04 0.0000000000e+00 
          -1.0318166576e-05 -5.0021502517e-04 0.0000000000e+00 
          -9.9962685608e-06 -5.0060267649e-04 0.0000000000e+00 
          -9.6950098376e-06 -5.0095921854e-04 0.0000000000e+00 
          -9.4156820180e-06 -5.0128480164e-04 0.0000000000e+00 
          -9.1594080809e-06 -5.0157931038e-04 0.0000000000e+00 
          -8.9272330524e-06 -5.0184295042e-04 0.0000000000e+00 
          -8.7201248896e-06 -5.0207539735e-04 0.0000000000e+00 
          -8.5389035352e-06 -5.0227699648e-04 0.0000000000e+00 
          -8.3843170735e-06 -5.0244753713e-04 0.0000000000e+00 
          -8.2569717996e-06 -5.0258699503e-04 0.0000000000e+00 
          -8.1574021662e-06 -5.0269561134e-04 0.0000000000e+00 
          -8.0859884728e-06 -5.0277303645e-04 0.0000000000e+00 
          -8.0430234939e-06 -5.0281960421e-04 0.0000000000e+00 
          -1.9939631938e-05 -4.8044864155e-04 0.0000000000e+00 
          -1.9702330683e-05 -4.8161136813e-04 0.0000000000e+00 
          -1.9436135111e-05 -4.8274304745e-04 0.0000000000e+00 
          -1.9143166160e-05 -4.8384386295e-04 0.0000000000e+00 
          -1.8825574003e-05 -4.8491351177e-04 0.0000000000e+00 
          -1.8485522626e-05 -4.8595222002e-04 0.0000000000e+00 
          -1.8125222785e-05 -4.8695997192e-04 0.0000000000e+00 
          -1.7746889749e-05 -4.8793665324e-04 0.0000000000e+00 
          -1.7352726175e-05 -4.8888229852e-04 0.0000000000e+00 
          -1.6945011504e-05 -4.8979704084e-04 0.0000000000e+00 
          -1.6525920156e-05 -4.9068071321e-04 0.0000000000e+00 
          -1.6097698357e-05 -4.9153334114e-04 0.0000000000e+00 
          -1.5662573536e-05 -4.9235505082e-04 0.0000000000e+00 
          -1.5222680877e-05 -4.9314570393e-04 0.0000000000e+00 
          -1.4780236995e-05 -4.9390534411e-04 0.0000000000e+00 
          -1.4337329901e-05 -4.9463397290e-04 0.0000000000e+00 
          -1.3896065247e-05 -4.9533164135e-04 0.0000000000e+00 
          -1.3458511874e-05 -4.9599829017e-04 0.0000000000e+00 
          -1.3026624257e-05 -4.9663382899e-04 0.0000000000e+00 
          -1.2602391261e-05 -4.9723857699e-04 0.0000000000e+00 
          -1.2187674538e-05 -4.9781204233e-04 0.0000000000e+00 
          -1.1784300853e-05 -4.9835475535e-04 0.0000000000e+00 
          -1.1394026206e-05 -4.9886635771e-04 0.0000000000e+00 
          -1.1018526906e-05 -4.9934682058e-04 0.0000000000e+00 
          -1.0659403404e-05 -4.9979659306e-04 0.0000000000e+00 
          -1.0318166576e-05 -5.0021502517e-04 0.0000000000e+00 
          -9.9962685608e-06 -5.0060267649e-04 0.0000000000e+00 
          -9.6950098376e-06 -5.0095921854e-04 0.0000000000e+00 
          -9.4156820180e-06 -5.0128480164e-04 0.0000000000e+00 
          -9.1594080809e-06 -5.0157931038e-04 0.0000000000e+00 
          -8.9272330524e-06 -5.0184295042e-04 0.0000000000e+00 
          -8.7201248896e-06 -5.0207539735e-04 0.0000000000e+00 
          -8.5389035352e-06 -5.0227699648e-04 0.0000000000e+00 
          -8.3843170735e-06 -5.0244753713e-04 0.0000000000e+00 
          -8.2569717996e-06 -5.0258699503e-04 0.0000000000e+00 
          -8.1574021662e-06 -5.0269561134e-04 0.0000000000e+00 
          -8.0859884728e-06 -5.0277303645e-04 0.0000000000e+00 
          -8.0430234939e-06 -5.0281960421e-04 0.0000000000e+00 
        </DataArray>
        <DataArray type="Float64" Name="Acceleration" NumberOfComponents="3" format="ascii">
          2.9717908900e-03 -2.7271069685e-06 0.0000000000e+00 
          2.9717908900e-03 -2.7271069685e-06 0.0000000000e+00 
          -2.5831359196e-03 -1.3319794812e-05 0.0000000000e+00 
          -2.5831359196e-03 -1.3319794812e-05 0.0000000000e+00 
          2.7887296112e-03 4.8875958539e-06 0.0000000000e+00 
          2.6034679935e-03 7.1130840475e-06 0.0000000000e+00 
          2.4123046354e-03 -2.5413806186e-05 0.0000000000e+00 
          2.2185994894e-03 2.8893949511e-05 0.0000000000e+00 
          2.0236200810e-03 -1.1850465771e-05 0.0000000000e+00 
          1.8244699945e-03 -9.2396466664e-06 0.0000000000e+00 
          1.6247853138e-03 1.1814484792e-05 0.0000000000e+00 
          1.4263627378e-03 5.3537275035e-06 0.0000000000e+00 
          1.2209806080e-03 -1.8627928202e-05 0.0000000000e+00 
          1.0251108265e-03 1.1258310458e-05 0.0000000000e+00 
          8.2262309252e-04 7.0781624164e-06 0.0000000000e+00 
          6.2197594787e-04 -1.5873941956e-05 0.0000000000e+00 
          4.2959163336e-04 9.0518942829e-06 0.0000000000e+00 
          2.2987016007e-04 1.1888248606e-06 0.0000000000e+00 
          4.1788243466e-05 7.4289895297e-07 0.0000000000e+00 
          -1.4803901590e-04 -8.1149014258e-06 0.0000000000e+00 
          -3.3439377356e-04 2.3956220767e-06 0.0000000000e+00 
          -5.1049582138e-04 1.8680741078e-05 0.0000000000e+00 
          -6.8964722122e-04 -3.8974542718e-05 0.0000000000e+00 
          -8.5748524511e-04 4.9938094308e-05 0.0000000000e+00 
          -1.0220301167e-03 -4.5772753255e-05 0.0000000000e+00 
          -1.1802491511e-03 1.8798477355e-05 0.0000000000e+00 
          -1.3312448325e-03 2.3885502949e-05 0.0000000000e+00 
          -1.4755367363e-03 -5.6818485589e-05 0.0000000000e+00 
          -1.6116246544e-03 6.0194610151e-05 0.0000000000e+00 
          -1.7424651502e-03 -4.0645508321e-05 0.0000000000e+00 
          -1.8596410142e-03 1.8549144273e-05 0.0000000000e+00 
          -1.9759862844e-03 -8.6107297240e-06 0.0000000000e+00 
          -2.0772344125e-03 1.2336000378e-05 0.0000000000e+00 
          -2.1713592548e-03 -2.4801695275e-05 0.0000000000e+00 
          -2.2585741080e-03 3.3657628523e-05 0.0000000000e+00 
          -2.3324328419e-03 -2.8613523900e-05 0.0000000000e+00 
          -2.3998792216e-03 9.4478365493e-06 0.0000000000e+00 
          -2.4544848189e-03 1.3771431875e-05 0.0000000000e+00 
          -2.5026400571e-03 -2.9691155318e-05 0.0000000000e+00 
          -2.5368990876e-03 3.3300864181e-05 0.0000000000e+00 
          -2.5632953773e-03 -2.6827784487e-05 0.0000000000e+00 
          -2.5796614961e-03 1.7158345566e-05 0.0000000000e+00 
          2.7887296112e-03 4.8875958539e-06 0.0000000000e+00 
          2.6034679935e-03 7.1130840475e-06 0.0000000000e+00 
          2.4123046354e-03 -2.5413806186e-05 0.0000000000e+00 
          2.2185994894e-03 2.8893949511e-05 0.0000000000e+00 
          2.0236200810e-03 -1.1850465771e-05 0.0000000000e+00 
          1.8244699945e-03 -9.2396466664e-06 0.0000000000e+00 
          1.6247853138e-03 1.1814484792e-05 0.0000000000e+00 
          1.4263627378e-03 5.3537275035e-06 0.0000000000e+00 
          1.2209806080e-03 -1.8627928202e-05 0.0000000000e+00 
          1.0251108265e-03 1.1258310458e-05 0.0000000000e+00 
          8.2262309252e-04 7.0781624164e-06 0.0000000000e+00 
          6.2197594787e-04 -1.5873941956e-05 0.0000000000e+00 
          4.2959163336e-04 9.0518942829e-06 0.0000000000e+00 
          2.2987016007e-04 1.1888248606e-06 0.0000000000e+00 
          4.1788243466e-05 7.4289895297e-07 0.0000000000e+00 
          -1.4803901590e-04 -8.1149014258e-06 0.0000000000e+00 
          -3.3439377356e-04 2.3956220767e-06 0.0000000000e+00 
          -5.1049582138e-04 1.8680741078e-05 0.0000000000e+00 
          -6.8964722122e-04 -3.8974542718e-05 0.0000000000e+00 
          -8.5748524511e-04 4.9938094308e-05 0.0000000000e+00 
          -1.0220301167e-03 -4.5772753255e-05 0.0000000000e+00 
          -1.1802491511e-03 1.8798477355e-05 0.0000000000e+00 
          -1.3312448325e-03 2.3885502949e-05 0.0000000000e+00 
          -1.4755367363e-03 -5.6818485589e-05 0.0000000000e+00 
          -1.6116246544e-03 6.0194610151e-05 0.0000000000e+00 
          -1.7424651502e-03 -4.0645508321e-05 0.0000000000e+00 
          -1.8596410142e-03 1.8549144273e-05 0.0000000000e+00 
          -1.9759862844e-03 -8.6107297240e-06 0.0000000000e+00 
          -2.0772344125e-03 1.2336000378e-05 0.0000000000e+00 
          -2.1713592548e-03 -2.4801695275e-05 0.0000000000e+00 
          -2.2585741080e-03 3.3657628523e-05 0.0000000000e+00 
          -2.3324328419e-03 -2.8613523900e-05 0.0000000000e+00 
          -2.3998792216e-03 9.4478365493e-06 0.0000000000e+00 
          -2.4544848189e-03 1.3771431875e-05 0.0000000000e+00 
          -2.5026400571e-03 -2.9691155318e-05 0.0000000000e+00 
          -2.5368990876e-03 3.3300864181e-05 0.0000000000e+00 
          -2.5632953773e-03 -2.6827784487e-05 0.0000000000e+00 
          -2.5796614961e-03 1.7158345566e-05 0.0000000000e+00 
        </DataArray>
        <DataArray type="Float64" Name="Reaction" NumberOfComponents="3" format="ascii">
          0.0000000000e+00 0.0000000000e+00 0.0000000000e+00 
          0.0000000000e+00 0.0000000000e+00 0.0000000000e+00 
          0.0000000000e+00 0.0000000000e+00 0.0000000000e+00 
          0.0000000000e+00 0.0000000000e+00 0.0000000000e+00 
          0.0000000000e+00 0.0000000000e+00 0.0000000000e+00 
          0.0000000000e+00 0.0000000000e+00 0.0000000000e+00 
          0.0000000000e+00 0.0000000000e+00 0.0000000000e+00 
          0.0000000000e+00 0.0000000000e+00 0.0000000000e+00 
          0.0000000000e+00 0.0000000000e+00 0.0000000000e+00 
          0.0000000000e+00 0.0000000000e+00 0.0000000000e+00 
          0.0000000000e+00 0.0000000000e+00 0.0000000000e+00 
          0.0000000000e+00 0.0000000000e+00 0.0000000000e+00 
          0.0000000000e+00 0.0000000000e+00 0.0000000000e+00 
          0.0000000000e+00 0.0000000000e+00 0.0000000000e+00 
          0.0000000000e+00 0.0000000000e+00 0.0000000000e+00 
          0.0000000000e+00 0.0000000000e+00 0.0000000000e+00 
          0.0000000000e+00 0.0000000000e+00 0.0000000000e+00 
          0.0000000000e+00 0.0000000000e+00 0.0000000000e+00 
          0.0000000000e+00 0.0000000000e+00 0.0000000000e+00 
          0.0000000000e+00 0.0000000000e+00 0.0000000000e+00 
          0.0000000000e+00 0.0000000000e+00 0.0000000000e+00 
          0.0000000000e+00 0.0000000000e+00 0.0000000000e+00 
          0.0000000000e+00 0.0000000000e+00 0.0000000000e+00 
          0.0000000000e+00 0.0000000000e+00 0.0000000000e+00 
          0.0000000000e+00 0.0000000000e+00 0.0000000000e+00 
          0.0000000000e+00 0.0000000000e+00 0.0000000000e+00 
          0.0000000000e+00 0.0000000000e+00 0.0000000000e+00 
          0.0000000000e+00 0.0000000000e+00 0.0000000000e+00 
          0.0000000000e+00 0.0000000000e+00 0.0000000000e+00 
          0.0000000000e+00 0.0000000000e+00 0.0000000000e+00 
          0.0000000000e+00 0.0000000000e+00 0.0000000000e+00 
          0.0000000000e+00 0.0000000000e+00 0.0000000000e+00 
          0.0000000000e+00 0.0000000000e+00 0.0000000000e+00 
          0.0000000000e+00 0.0000000000e+00 0.0000000000e+00 
          0.0000000000e+00 0.0000000000e+00 0.0000000000e+00 
          0.0000000000e+00 0.0000000000e+00 0.0000000000e+00 
          0.0000000000e+00 0.0000000000e+00 0.0000000000e+00 
          0.0000000000e+00 0.0000000000e+00 0.0000000000e+00 
          0.0000000000e+00 0.0000000000e+00 0.0000000000e+00 
          0.0000000000e+00 0.0000000000e+00 0.0000000000e+00 
          0.0000000000e+00 0.0000000000e+00 0.0000000000e+00 
          0.0000000000e+00 0.0000000000e+00 0.0000000000e+00 
          0.0000000000e+00 0.0000000000e+00 0.0000000000e+00 
          0.0000000000e+00 0.0000000000e+00 0.0000000000e+00 
          0.0000000000e+00 0.0000000000e+00 0.0000000000e+00 
          0.0000000000e+00 0.0000000000e+00 0.0000000000e+00 
          0.0000000000e+00 0.0000000000e+00 0.0000000000e+00 
          0.0000000000e+00 0.0000000000e+00 0.0000000000e+00 
          0.0000000000e+00 0.0000000000e+00 0.0000000000e+00 
          0.0000000000e+00 0.0000000000e+00 0.0000000000e+00 
          0.0000000000e+00 0.0000000000e+00 0.0000000000e+00 
          0.0000000000e+00 0.0000000000e+00 0.0000000000e+00 
          0.0000000000e+00 0.0000000000e+00 0.0000000000e+00 
          0.0000000000e+00 0.0000000000e+00 0.0000000000e+00 
          0.0000000000e+00 0.0000000000e+00 0.0000000000e+00 
          0.0000000000e+00 0.0000000000e+00 0.0000000000e+00 
          0.0000000000e+00 0.0000000000e+00 0.0000000000e+00 
          0.0000000000e+00 0.0000000000e+00 0.0000000000e+00 
          0.0000000000e+00 0.0000000000e+00 0.0000000000e+00 
          0.0000000000e+00 0.0000000000e+00 0.0000000000e+00 
          0.0000000000e+00 0.0000000000e+00 0.0000000000e+00 
          0.0000000000e+00 0.0000000000e+00 0.0000000000e+00 
          0.0000000000e+00 0.0000000000e+00 0.0000000000e+00 
          0.0000000000e+00 0.0000000000e+00 0.0000000000e+00 
          0.0000000000e+00 0.0000000000e+00 0.0000000000e+00 
          0.0000000000e+00 0.0000000000e+00 0.0000000000e+00 
          0.0000000000e+00 0.0000000000e+00 0.0000000000e+00 
          0.0000000000e+00 0.0000000000e+00 0.0000000000e+00 
          0.0000000000e+00 0.0000000000e+00 0.0000000000e+00 
          0.0000000000e+00 0.0000000000e+00 0.0000000000e+00 
          0.0000000000e+00 0.0000000000e+00 0.0000000000e+00 
          0.0000000000e+00 0.0000000000e+00 0.0000000000e+00 
          0.0000000000e+00 0.0000000000e+00 0.0000000000e+00 
          0.0000000000e+00 0.0000000000e+00 0.0000000000e+00 
          0.0000000000e+00 0.0000000000e+00 0.0000000000e+00 
          0.0000000000e+00 0.0000000000e+00 0.0000000000e+00 
          0.0000000000e+00 0.0000000000e+00 0.0000000000e+00 
          0.0000000000e+00 0.0000000000e+00 0.0000000000e+00 
          0.0000000000e+00 0.0000000000e+00 0.0000000000e+00 
          0.0000000000e+00 0.0000000000e+00 0.0000000000e+00 
        </DataArray>
      </PointData>
      <CellData>
        <DataArray type="Int64" Name="ElementTag" format="ascii">
          90
          91
          92
          93
          94
          95
          96
          97
          98
          99
          100
          101
          102
          103
          104
          105
          106
          107
          108
          109
          110
          111
          112
          113
          114
          115
          116
          117
          118
          119
          120
          121
          122
          123
          124
          125
          126
          127
          128
        </DataArray>
      </CellData>
    </Piece>
  </UnstructuredGrid>
</VTKFile>
