<?xml version="1.0"?>
<VTKFile type="UnstructuredGrid" version="1.0" byte_order="LittleEndian" compressor="vtkZLibDataCompressor">
  <UnstructuredGrid>
    <Piece NumberOfPoints="82" NumberOfCells="1">
      <Points>
        <DataArray type="Float64" Name="Points" NumberOfComponents="3" format="ascii">
          0.0000000000e+00 0.0000000000e+00 0.0000000000e+00 
          2.5000000000e-01 0.0000000000e+00 0.0000000000e+00 
          2.5000000000e-01 3.0000000000e+01 0.0000000000e+00 
          0.0000000000e+00 3.0000000000e+01 0.0000000000e+00 
          0.0000000000e+00 -5.0000000000e+00 0.0000000000e+00 
          2.5000000000e-01 -5.0000000000e+00 0.0000000000e+00 
          2.5000000000e-01 7.6923100000e-01 0.0000000000e+00 
          2.5000000000e-01 1.5384620000e+00 0.0000000000e+00 
          2.5000000000e-01 2.3076920000e+00 0.0000000000e+00 
          2.5000000000e-01 3.0769230000e+00 0.0000000000e+00 
          2.5000000000e-01 3.8461540000e+00 0.0000000000e+00 
          2.5000000000e-01 4.6153850000e+00 0.0000000000e+00 
          2.5000000000e-01 5.3846150000e+00 0.0000000000e+00 
          2.5000000000e-01 6.1538460000e+00 0.0000000000e+00 
          2.5000000000e-01 6.9230770000e+00 0.0000000000e+00 
          2.5000000000e-01 7.6923080000e+00 0.0000000000e+00 
          2.5000000000e-01 8.4615380000e+00 0.0000000000e+00 
          2.5000000000e-01 9.2307690000e+00 0.0000000000e+00 
          2.5000000000e-01 1.0000000000e+01 0.0000000000e+00 
          2.5000000000e-01 1.0769231000e+01 0.0000000000e+00 
          2.5000000000e-01 1.1538462000e+01 0.0000000000e+00 
          2.5000000000e-01 1.2307692000e+01 0.0000000000e+00 
          2.5000000000e-01 1.3076923000e+01 0.0000000000e+00 
          2.5000000000e-01 1.3846154000e+01 0.0000000000e+00 
          2.5000000000e-01 1.4615385000e+01 0.0000000000e+00 
          2.5000000000e-01 1.5384615000e+01 0.0000000000e+00 
          2.5000000000e-01 1.6153846000e+01 0.0000000000e+00 
          2.5000000000e-01 1.6923077000e+01 0.0000000000e+00 
          2.5000000000e-01 1.7692308000e+01 0.0000000000e+00 
          2.5000000000e-01 1.8461538000e+01 0.0000000000e+00 
          2.5000000000e-01 1.9230769000e+01 0.0000000000e+00 
          2.5000000000e-01 2.0000000000e+01 0.0000000000e+00 
          2.5000000000e-01 2.0769231000e+01 0.0000000000e+00 
          2.5000000000e-01 2.1538462000e+01 0.0000000000e+00 
          2.5000000000e-01 2.2307692000e+01 0.0000000000e+00 
          2.5000000000e-01 2.3076923000e+01 0.0000000000e+00 
          2.5000000000e-01 2.3846154000e+01 0.0000000000e+00 
          2.5000000000e-01 2.4615385000e+01 0.0000000000e+00 
          2.5000000000e-01 2.5384615000e+01 0.0000000000e+00 
          2.5000000000e-01 2.6153846000e+01 0.0000000000e+00 
          2.5000000000e-01 2.6923077000e+01 0.0000000000e+00 
          2.5000000000e-01 2.7692308000e+01 0.0000000000e+00 
          2.5000000000e-01 2.8461538000e+01 0.0000000000e+00 
          2.5000000000e-01 2.9230769000e+01 0.0000000000e+00 
          0.0000000000e+00 7.6923100000e-01 0.0000000000e+00 
          0.0000000000e+00 1.5384620000e+00 0.0000000000e+00 
          0.0000000000e+00 2.3076920000e+00 0.0000000000e+00 
          0.0000000000e+00 3.0769230000e+00 0.0000000000e+00 
          0.0000000000e+00 3.8461540000e+00 0.0000000000e+00 
          0.0000000000e+00 4.6153850000e+00 0.0000000000e+00 
          0.0000000000e+00 5.3846150000e+00 0.0000000000e+00 
          0.0000000000e+00 6.1538460000e+00 0.0000000000e+00 
          0.0000000000e+00 6.9230770000e+00 0.0000000000e+00 
          0.0000000000e+00 7.6923080000e+00 0.0000000000e+00 
          0.0000000000e+00 8.4615380000e+00 0.0000000000e+00 
          0.0000000000e+00 9.2307690000e+00 0.0000000000e+00 
          0.0000000000e+00 1.0000000000e+01 0.0000000000e+00 
          0.0000000000e+00 1.0769231000e+01 0.0000000000e+00 
          0.0000000000e+00 1.1538462000e+01 0.0000000000e+00 
          0.0000000000e+00 1.2307692000e+01 0.0000000000e+00 
          0.0000000000e+00 1.3076923000e+01 0.0000000000e+00 
          0.0000000000e+00 1.3846154000e+01 0.0000000000e+00 
          0.0000000000e+00 1.4615385000e+01 0.0000000000e+00 
          0.0000000000e+00 1.5384615000e+01 0.0000000000e+00 
          0.0000000000e+00 1.6153846000e+01 0.0000000000e+00 
          0.0000000000e+00 1.6923077000e+01 0.0000000000e+00 
          0.0000000000e+00 1.7692308000e+01 0.0000000000e+00 
          0.0000000000e+00 1.8461538000e+01 0.0000000000e+00 
          0.0000000000e+00 1.9230769000e+01 0.0000000000e+00 
          0.0000000000e+00 2.0000000000e+01 0.0000000000e+00 
          0.0000000000e+00 2.0769231000e+01 0.0000000000e+00 
          0.0000000000e+00 2.1538462000e+01 0.0000000000e+00 
          0.0000000000e+00 2.2307692000e+01 0.0000000000e+00 
          0.0000000000e+00 2.3076923000e+01 0.0000000000e+00 
          0.0000000000e+00 2.3846154000e+01 0.0000000000e+00 
          0.0000000000e+00 2.4615385000e+01 0.0000000000e+00 
          0.0000000000e+00 2.5384615000e+01 0.0000000000e+00 
          0.0000000000e+00 2.6153846000e+01 0.0000000000e+00 
          0.0000000000e+00 2.6923077000e+01 0.0000000000e+00 
          0.0000000000e+00 2.7692308000e+01 0.0000000000e+00 
          0.0000000000e+00 2.8461538000e+01 0.0000000000e+00 
          0.0000000000e+00 2.9230769000e+01 0.0000000000e+00 
        </DataArray>
      </Points>
      <Cells>
        <DataArray type="Int64" Name="connectivity" format="ascii">
          0
          1
          2
          3
          4
          5
          6
          7
          8
          9
          10
          11
          12
          13
          14
          15
          16
          17
          18
          19
          20
          21
          22
          23
          24
          25
          26
          27
          28
          29
          30
          31
          32
          33
          34
          35
          36
          37
          38
          39
          40
          41
          42
          43
          44
          45
          46
          47
          48
          49
          50
          51
          52
          53
          54
          55
          56
          57
          58
          59
          60
          61
          62
          63
          64
          65
          66
          67
          68
          69
          70
          71
          72
          73
          74
          75
          76
          77
          78
          79
          80
          81
        </DataArray>
        <DataArray type="Int64" Name="offsets" format="ascii">
          82
        </DataArray>
        <DataArray type="Int64" Name="types" format="ascii">
          2
        </DataArray>
      </Cells>
      <PointData>
        <DataArray type="Int64" Name="NodeTag" format="ascii">
          1
          2
          3
          4
          5
          6
          7
          8
          9
          10
          11
          12
          13
          14
          15
          16
          17
          18
          19
          20
          21
          22
          23
          24
          25
          26
          27
          28
          29
          30
          31
          32
          33
          34
          35
          36
          37
          38
          39
          40
          41
          42
          43
          44
          45
          46
          47
          48
          49
          50
          51
          52
          53
          54
          55
          56
          57
          58
          59
          60
          61
          62
          63
          64
          65
          66
          67
          68
          69
          70
          71
          72
          73
          74
          75
          76
          77
          78
          79
          80
          81
          82
        </DataArray>
        <DataArray type="Float64" Name="Velocity" NumberOfComponents="3" format="ascii">
          1.6180771344e-05 -7.7841666469e-05 0.0000000000e+00 
          1.6180771344e-05 -7.7841666469e-05 0.0000000000e+00 
          -2.4469855844e-05 -7.7893811540e-05 0.0000000000e+00 
          -2.4469855844e-05 -7.7893811540e-05 0.0000000000e+00 
          0.0000000000e+00 0.0000000000e+00 0.0000000000e+00 
          0.0000000000e+00 0.0000000000e+00 0.0000000000e+00 
          1.4752910765e-05 -7.7866819841e-05 0.0000000000e+00 
          1.3307939358e-05 -7.7811287896e-05 0.0000000000e+00 
          1.1841420935e-05 -7.7878583657e-05 0.0000000000e+00 
          1.0368645228e-05 -7.7819777099e-05 0.0000000000e+00 
          8.8793458386e-06 -7.7856744640e-05 0.0000000000e+00 
          7.3897766816e-06 -7.7840248396e-05 0.0000000000e+00 
          5.8960469453e-06 -7.7852301937e-05 0.0000000000e+00 
          4.3990999524e-06 -7.7827962843e-05 0.0000000000e+00 
          2.9160105845e-06 -7.7868360602e-05 0.0000000000e+00 
          1.4306432664e-06 -7.7821172386e-05 0.0000000000e+00 
          -3.5763225437e-08 -7.7860834342e-05 0.0000000000e+00 
          -1.4905497249e-06 -7.7842897783e-05 0.0000000000e+00 
          -2.9283638417e-06 -7.7832305119e-05 0.0000000000e+00 
          -4.3389606175e-06 -7.7865521574e-05 0.0000000000e+00 
          -5.7320219548e-06 -7.7823113915e-05 0.0000000000e+00 
          -7.0916557116e-06 -7.7864021933e-05 0.0000000000e+00 
          -8.4202088430e-06 -7.7832120346e-05 0.0000000000e+00 
          -9.7195109660e-06 -7.7846534889e-05 0.0000000000e+00 
          -1.0971371375e-05 -7.7854661014e-05 0.0000000000e+00 
          -1.2194119819e-05 -7.7830561305e-05 0.0000000000e+00 
          -1.3365553627e-05 -7.7855108370e-05 0.0000000000e+00 
          -1.4490797888e-05 -7.7842489609e-05 0.0000000000e+00 
          -1.5575119787e-05 -7.7843276649e-05 0.0000000000e+00 
          -1.6595616606e-05 -7.7843506614e-05 0.0000000000e+00 
          -1.7573272398e-05 -7.7852713982e-05 0.0000000000e+00 
          -1.8489479621e-05 -7.7832219351e-05 0.0000000000e+00 
          -1.9343790317e-05 -7.7859304051e-05 0.0000000000e+00 
          -2.0147697084e-05 -7.7831176593e-05 0.0000000000e+00 
          -2.0876647271e-05 -7.7853447690e-05 0.0000000000e+00 
          -2.1550198397e-05 -7.7849349828e-05 0.0000000000e+00 
          -2.2155161464e-05 -7.7818358096e-05 0.0000000000e+00 
          -2.2689028798e-05 -7.7897269559e-05 0.0000000000e+00 
          -2.3160587207e-05 -7.7775803112e-05 0.0000000000e+00 
          -2.3556160416e-05 -7.7907522476e-05 0.0000000000e+00 
          -2.3884021853e-05 -7.7811982124e-05 0.0000000000e+00 
          -2.4139706651e-05 -7.7838907033e-05 0.0000000000e+00 
          -2.4321722855e-05 -7.7880107984e-05 0.0000000000e+00 
          -2.4430835962e-05 -7.7797434933e-05 0.0000000000e+00 
          1.4752910765e-05 -7.7866819841e-05 0.0000000000e+00 
          1.3307939358e-05 -7.7811287896e-05 0.0000000000e+00 
          1.1841420935e-05 -7.7878583657e-05 0.0000000000e+00 
          1.0368645228e-05 -7.7819777099e-05 0.0000000000e+00 
          8.8793458386e-06 -7.7856744640e-05 0.0000000000e+00 
          7.3897766816e-06 -7.7840248396e-05 0.0000000000e+00 
          5.8960469453e-06 -7.7852301937e-05 0.0000000000e+00 
          4.3990999524e-06 -7.7827962843e-05 0.0000000000e+00 
          2.9160105845e-06 -7.7868360602e-05 0.0000000000e+00 
          1.4306432664e-06 -7.7821172386e-05 0.0000000000e+00 
          -3.5763225437e-08 -7.7860834342e-05 0.0000000000e+00 
          -1.4905497249e-06 -7.7842897783e-05 0.0000000000e+00 
          -2.9283638417e-06 -7.7832305119e-05 0.0000000000e+00 
          -4.3389606175e-06 -7.7865521574e-05 0.0000000000e+00 
          -5.7320219548e-06 -7.7823113915e-05 0.0000000000e+00 
          -7.0916557116e-06 -7.7864021933e-05 0.0000000000e+00 
          -8.4202088430e-06 -7.7832120346e-05 0.0000000000e+00 
          -9.7195109660e-06 -7.7846534889e-05 0.0000000000e+00 
          -1.0971371375e-05 -7.7854661014e-05 0.0000000000e+00 
          -1.2194119819e-05 -7.7830561305e-05 0.0000000000e+00 
          -1.3365553627e-05 -7.7855108370e-05 0.0000000000e+00 
          -1.4490797888e-05 -7.7842489609e-05 0.0000000000e+00 
          -1.5575119787e-05 -7.7843276649e-05 0.0000000000e+00 
          -1.6595616606e-05 -7.7843506614e-05 0.0000000000e+00 
          -1.7573272398e-05 -7.7852713982e-05 0.0000000000e+00 
          -1.8489479621e-05 -7.7832219351e-05 0.0000000000e+00 
          -1.9343790317e-05 -7.7859304051e-05 0.0000000000e+00 
          -2.0147697084e-05 -7.7831176593e-05 0.0000000000e+00 
          -2.0876647271e-05 -7.7853447690e-05 0.0000000000e+00 
          -2.1550198397e-05 -7.7849349828e-05 0.0000000000e+00 
          -2.2155161464e-05 -7.7818358096e-05 0.0000000000e+00 
          -2.2689028798e-05 -7.7897269559e-05 0.0000000000e+00 
          -2.3160587207e-05 -7.7775803112e-05 0.0000000000e+00 
          -2.3556160416e-05 -7.7907522476e-05 0.0000000000e+00 
          -2.3884021853e-05 -7.7811982124e-05 0.0000000000e+00 
          -2.4139706651e-05 -7.7838907033e-05 0.0000000000e+00 
          -2.4321722855e-05 -7.7880107984e-05 0.0000000000e+00 
          -2.4430835962e-05 -7.7797434933e-05 0.0000000000e+00 
        </DataArray>
        <DataArray type="Float64" Name="Displacement" NumberOfComponents="3" format="ascii">
          2.3540165619e-07 -6.1236879109e-04 0.0000000000e+00 
          2.3540165619e-07 -6.1236879109e-04 0.0000000000e+00 
          6.7024191883e-06 -6.3594918554e-04 0.0000000000e+00 
          6.7024191883e-06 -6.3594918554e-04 0.0000000000e+00 
          0.0000000000e+00 0.0000000000e+00 0.0000000000e+00 
          0.0000000000e+00 0.0000000000e+00 0.0000000000e+00 
          5.0363754477e-07 -6.1356249475e-04 0.0000000000e+00 
          7.7053981754e-07 -6.1472534747e-04 0.0000000000e+00 
          1.0357298813e-06 -6.1585693791e-04 0.0000000000e+00 
          1.2988128502e-06 -6.1695779019e-04 0.0000000000e+00 
          1.5594386610e-06 -6.1802742073e-04 0.0000000000e+00 
          1.8171972319e-06 -6.1906617938e-04 0.0000000000e+00 
          2.0717543044e-06 -6.2007389667e-04 0.0000000000e+00 
          2.3227310676e-06 -6.2105051712e-04 0.0000000000e+00 
          2.5697534831e-06 -6.2199634871e-04 0.0000000000e+00 
          2.8125118797e-06 -6.2291089533e-04 0.0000000000e+00 
          3.0506053558e-06 -6.2379466365e-04 0.0000000000e+00 
          3.2837368120e-06 -6.2464732123e-04 0.0000000000e+00 
          3.5115567555e-06 -6.2546897614e-04 0.0000000000e+00 
          3.7337258777e-06 -6.2625963664e-04 0.0000000000e+00 
          3.9499609847e-06 -6.2701933422e-04 0.0000000000e+00 
          4.1599099435e-06 -6.2774791582e-04 0.0000000000e+00 
          4.3633070094e-06 -6.2844562552e-04 0.0000000000e+00 
          4.5598407355e-06 -6.2911223068e-04 0.0000000000e+00 
          4.7492314436e-06 -6.2974784285e-04 0.0000000000e+00 
          4.9312149916e-06 -6.3035252126e-04 0.0000000000e+00 
          5.1055134253e-06 -6.3092609652e-04 0.0000000000e+00 
          5.2718927108e-06 -6.3146870227e-04 0.0000000000e+00 
          5.4300979533e-06 -6.3198035068e-04 0.0000000000e+00 
          5.5799091823e-06 -6.3246092314e-04 0.0000000000e+00 
          5.7210999876e-06 -6.3291048082e-04 0.0000000000e+00 
          5.8534794977e-06 -6.3332916424e-04 0.0000000000e+00 
          5.9768359203e-06 -6.3371662412e-04 0.0000000000e+00 
          6.0910061639e-06 -6.3407329297e-04 0.0000000000e+00 
          6.1958180842e-06 -6.3439881007e-04 0.0000000000e+00 
          6.2911106605e-06 -6.3469338663e-04 0.0000000000e+00 
          6.3767560659e-06 -6.3495693421e-04 0.0000000000e+00 
          6.4526281278e-06 -6.3518949415e-04 0.0000000000e+00 
          6.5186001983e-06 -6.3539101242e-04 0.0000000000e+00 
          6.5745972998e-06 -6.3556158047e-04 0.0000000000e+00 
          6.6205226211e-06 -6.3570108001e-04 0.0000000000e+00 
          6.6563090782e-06 -6.3580960386e-04 0.0000000000e+00 
          6.6819162766e-06 -6.3588715880e-04 0.0000000000e+00 
          6.6972875368e-06 -6.3593359762e-04 0.0000000000e+00 
          5.0363754477e-07 -6.1356249475e-04 0.0000000000e+00 
          7.7053981754e-07 -6.1472534747e-04 0.0000000000e+00 
          1.0357298813e-06 -6.1585693791e-04 0.0000000000e+00 
          1.2988128502e-06 -6.1695779019e-04 0.0000000000e+00 
          1.5594386610e-06 -6.1802742073e-04 0.0000000000e+00 
          1.8171972319e-06 -6.1906617938e-04 0.0000000000e+00 
          2.0717543044e-06 -6.2007389667e-04 0.0000000000e+00 
          2.3227310676e-06 -6.2105051712e-04 0.0000000000e+00 
          2.5697534831e-06 -6.2199634871e-04 0.0000000000e+00 
          2.8125118797e-06 -6.2291089533e-04 0.0000000000e+00 
          3.0506053558e-06 -6.2379466365e-04 0.0000000000e+00 
          3.2837368120e-06 -6.2464732123e-04 0.0000000000e+00 
          3.5115567555e-06 -6.2546897614e-04 0.0000000000e+00 
          3.7337258777e-06 -6.2625963664e-04 0.0000000000e+00 
          3.9499609847e-06 -6.2701933422e-04 0.0000000000e+00 
          4.1599099435e-06 -6.2774791582e-04 0.0000000000e+00 
          4.3633070094e-06 -6.2844562552e-04 0.0000000000e+00 
          4.5598407355e-06 -6.2911223068e-04 0.0000000000e+00 
          4.7492314436e-06 -6.2974784285e-04 0.0000000000e+00 
          4.9312149916e-06 -6.3035252126e-04 0.0000000000e+00 
          5.1055134253e-06 -6.3092609652e-04 0.0000000000e+00 
          5.2718927108e-06 -6.3146870227e-04 0.0000000000e+00 
          5.4300979533e-06 -6.3198035068e-04 0.0000000000e+00 
          5.5799091823e-06 -6.3246092314e-04 0.0000000000e+00 
          5.7210999876e-06 -6.3291048082e-04 0.0000000000e+00 
          5.8534794977e-06 -6.3332916424e-04 0.0000000000e+00 
          5.9768359203e-06 -6.3371662412e-04 0.0000000000e+00 
          6.0910061639e-06 -6.3407329297e-04 0.0000000000e+00 
          6.1958180842e-06 -6.3439881007e-04 0.0000000000e+00 
          6.2911106605e-06 -6.3469338663e-04 0.0000000000e+00 
          6.3767560659e-06 -6.3495693421e-04 0.0000000000e+00 
          6.4526281278e-06 -6.3518949415e-04 0.0000000000e+00 
          6.5186001983e-06 -6.3539101242e-04 0.0000000000e+00 
          6.5745972998e-06 -6.3556158047e-04 0.0000000000e+00 
          6.6205226211e-06 -6.3570108001e-04 0.0000000000e+00 
          6.6563090782e-06 -6.3580960386e-04 0.0000000000e+00 
          6.6819162766e-06 -6.3588715880e-04 0.0000000000e+00 
          6.6972875368e-06 -6.3593359762e-04 0.0000000000e+00 
        </DataArray>
        <DataArray type="Float64" Name="Acceleration" NumberOfComponents="3" format="ascii">
          -8.5275373651e-05 -1.2852411514e-06 0.0000000000e+00 
          -8.5275373651e-05 -1.2852411514e-06 0.0000000000e+00 
          -9.2474386923e-04 3.0543162201e-05 0.0000000000e+00 
          -9.2474386923e-04 3.0543162201e-05 0.0000000000e+00 
          0.0000000000e+00 0.0000000000e+00 0.0000000000e+00 
          0.0000000000e+00 0.0000000000e+00 0.0000000000e+00 
          -1.2016141772e-04 -2.8001680626e-05 0.0000000000e+00 
          -1.5424245234e-04 4.5860085348e-05 0.0000000000e+00 
          -1.8988459386e-04 -4.8057385098e-05 0.0000000000e+00 
          -2.2139479620e-04 3.8814670640e-05 0.0000000000e+00 
          -2.5834397457e-04 -2.4225376421e-05 0.0000000000e+00 
          -2.8843170171e-04 6.0775753772e-06 0.0000000000e+00 
          -3.2262296649e-04 1.6549145405e-05 0.0000000000e+00 
          -3.5629453135e-04 -3.9190749660e-05 0.0000000000e+00 
          -3.8419652546e-04 5.0209941383e-05 0.0000000000e+00 
          -4.2029093804e-04 -4.1294478351e-05 0.0000000000e+00 
          -4.4711597074e-04 1.9022529931e-05 0.0000000000e+00 
          -4.7857778420e-04 -6.6022251016e-07 0.0000000000e+00 
          -5.0915015705e-04 -2.1487068338e-06 0.0000000000e+00 
          -5.3466648964e-04 -7.8244109847e-06 0.0000000000e+00 
          -5.6637013977e-04 1.9591420236e-05 0.0000000000e+00 
          -5.9036346875e-04 -2.4051348129e-05 0.0000000000e+00 
          -6.1840046351e-04 1.7696261013e-05 0.0000000000e+00 
          -6.4360003433e-04 -2.4048819264e-06 0.0000000000e+00 
          -6.6737887425e-04 -1.3217829368e-05 0.0000000000e+00 
          -6.9246573403e-04 1.7591296282e-05 0.0000000000e+00 
          -7.1353089469e-04 -6.6342260792e-06 0.0000000000e+00 
          -7.3649741155e-04 -8.8316823578e-06 0.0000000000e+00 
          -7.5630013972e-04 1.2435952370e-05 0.0000000000e+00 
          -7.7673525726e-04 1.6378854609e-06 0.0000000000e+00 
          -7.9391509858e-04 -2.3800395785e-05 0.0000000000e+00 
          -8.1299799276e-04 3.9141460651e-05 0.0000000000e+00 
          -8.2769287639e-04 -3.8801062154e-05 0.0000000000e+00 
          -8.4319168006e-04 2.6133310138e-05 0.0000000000e+00 
          -8.5772453490e-04 -1.1777898870e-05 0.0000000000e+00 
          -8.6922913698e-04 4.0800548484e-06 0.0000000000e+00 
          -8.8059755909e-04 -3.3681627965e-06 0.0000000000e+00 
          -8.9200162611e-04 6.3225594889e-06 0.0000000000e+00 
          -8.9877271997e-04 -1.0060675424e-05 0.0000000000e+00 
          -9.0748728259e-04 1.1202195747e-05 0.0000000000e+00 
          -9.1353168332e-04 -5.5220292655e-06 0.0000000000e+00 
          -9.1716891939e-04 -6.7570412511e-06 0.0000000000e+00 
          -9.2228183240e-04 1.9802162581e-05 0.0000000000e+00 
          -9.2260897117e-04 -2.8008083352e-05 0.0000000000e+00 
          -1.2016141772e-04 -2.8001680626e-05 0.0000000000e+00 
          -1.5424245234e-04 4.5860085348e-05 0.0000000000e+00 
          -1.8988459386e-04 -4.8057385098e-05 0.0000000000e+00 
          -2.2139479620e-04 3.8814670640e-05 0.0000000000e+00 
          -2.5834397457e-04 -2.4225376421e-05 0.0000000000e+00 
          -2.8843170171e-04 6.0775753772e-06 0.0000000000e+00 
          -3.2262296649e-04 1.6549145405e-05 0.0000000000e+00 
          -3.5629453135e-04 -3.9190749660e-05 0.0000000000e+00 
          -3.8419652546e-04 5.0209941383e-05 0.0000000000e+00 
          -4.2029093804e-04 -4.1294478351e-05 0.0000000000e+00 
          -4.4711597074e-04 1.9022529931e-05 0.0000000000e+00 
          -4.7857778420e-04 -6.6022251016e-07 0.0000000000e+00 
          -5.0915015705e-04 -2.1487068338e-06 0.0000000000e+00 
          -5.3466648964e-04 -7.8244109847e-06 0.0000000000e+00 
          -5.6637013977e-04 1.9591420236e-05 0.0000000000e+00 
          -5.9036346875e-04 -2.4051348129e-05 0.0000000000e+00 
          -6.1840046351e-04 1.7696261013e-05 0.0000000000e+00 
          -6.4360003433e-04 -2.4048819264e-06 0.0000000000e+00 
          -6.6737887425e-04 -1.3217829368e-05 0.0000000000e+00 
          -6.9246573403e-04 1.7591296282e-05 0.0000000000e+00 
          -7.1353089469e-04 -6.6342260792e-06 0.0000000000e+00 
          -7.3649741155e-04 -8.8316823578e-06 0.0000000000e+00 
          -7.5630013972e-04 1.2435952370e-05 0.0000000000e+00 
          -7.7673525726e-04 1.6378854609e-06 0.0000000000e+00 
          -7.9391509858e-04 -2.3800395785e-05 0.0000000000e+00 
          -8.1299799276e-04 3.9141460651e-05 0.0000000000e+00 
          -8.2769287639e-04 -3.8801062154e-05 0.0000000000e+00 
          -8.4319168006e-04 2.6133310138e-05 0.0000000000e+00 
          -8.5772453490e-04 -1.1777898870e-05 0.0000000000e+00 
          -8.6922913698e-04 4.0800548484e-06 0.0000000000e+00 
          -8.8059755909e-04 -3.3681627965e-06 0.0000000000e+00 
          -8.9200162611e-04 6.3225594889e-06 0.0000000000e+00 
          -8.9877271997e-04 -1.0060675424e-05 0.0000000000e+00 
          -9.0748728259e-04 1.1202195747e-05 0.0000000000e+00 
          -9.1353168332e-04 -5.5220292655e-06 0.0000000000e+00 
          -9.1716891939e-04 -6.7570412511e-06 0.0000000000e+00 
          -9.2228183240e-04 1.9802162581e-05 0.0000000000e+00 
          -9.2260897117e-04 -2.8008083352e-05 0.0000000000e+00 
        </DataArray>
        <DataArray type="Float64" Name="Reaction" NumberOfComponents="3" format="ascii">
          0.0000000000e+00 0.0000000000e+00 0.0000000000e+00 
          0.0000000000e+00 0.0000000000e+00 0.0000000000e+00 
          0.0000000000e+00 0.0000000000e+00 0.0000000000e+00 
          0.0000000000e+00 0.0000000000e+00 0.0000000000e+00 
          0.0000000000e+00 0.0000000000e+00 0.0000000000e+00 
          0.0000000000e+00 0.0000000000e+00 0.0000000000e+00 
          0.0000000000e+00 0.0000000000e+00 0.0000000000e+00 
          0.0000000000e+00 0.0000000000e+00 0.0000000000e+00 
          0.0000000000e+00 0.0000000000e+00 0.0000000000e+00 
          0.0000000000e+00 0.0000000000e+00 0.0000000000e+00 
          0.0000000000e+00 0.0000000000e+00 0.0000000000e+00 
          0.0000000000e+00 0.0000000000e+00 0.0000000000e+00 
          0.0000000000e+00 0.0000000000e+00 0.0000000000e+00 
          0.0000000000e+00 0.0000000000e+00 0.0000000000e+00 
          0.0000000000e+00 0.0000000000e+00 0.0000000000e+00 
          0.0000000000e+00 0.0000000000e+00 0.0000000000e+00 
          0.0000000000e+00 0.0000000000e+00 0.0000000000e+00 
          0.0000000000e+00 0.0000000000e+00 0.0000000000e+00 
          0.0000000000e+00 0.0000000000e+00 0.0000000000e+00 
          0.0000000000e+00 0.0000000000e+00 0.0000000000e+00 
          0.0000000000e+00 0.0000000000e+00 0.0000000000e+00 
          0.0000000000e+00 0.0000000000e+00 0.0000000000e+00 
          0.0000000000e+00 0.0000000000e+00 0.0000000000e+00 
          0.0000000000e+00 0.0000000000e+00 0.0000000000e+00 
          0.0000000000e+00 0.0000000000e+00 0.0000000000e+00 
          0.0000000000e+00 0.0000000000e+00 0.0000000000e+00 
          0.0000000000e+00 0.0000000000e+00 0.0000000000e+00 
          0.0000000000e+00 0.0000000000e+00 0.0000000000e+00 
          0.0000000000e+00 0.0000000000e+00 0.0000000000e+00 
          0.0000000000e+00 0.0000000000e+00 0.0000000000e+00 
          0.0000000000e+00 0.0000000000e+00 0.0000000000e+00 
          0.0000000000e+00 0.0000000000e+00 0.0000000000e+00 
          0.0000000000e+00 0.0000000000e+00 0.0000000000e+00 
          0.0000000000e+00 0.0000000000e+00 0.0000000000e+00 
          0.0000000000e+00 0.0000000000e+00 0.0000000000e+00 
          0.0000000000e+00 0.0000000000e+00 0.0000000000e+00 
          0.0000000000e+00 0.0000000000e+00 0.0000000000e+00 
          0.0000000000e+00 0.0000000000e+00 0.0000000000e+00 
          0.0000000000e+00 0.0000000000e+00 0.0000000000e+00 
          0.0000000000e+00 0.0000000000e+00 0.0000000000e+00 
          0.0000000000e+00 0.0000000000e+00 0.0000000000e+00 
          0.0000000000e+00 0.0000000000e+00 0.0000000000e+00 
          0.0000000000e+00 0.0000000000e+00 0.0000000000e+00 
          0.0000000000e+00 0.0000000000e+00 0.0000000000e+00 
          0.0000000000e+00 0.0000000000e+00 0.0000000000e+00 
          0.0000000000e+00 0.0000000000e+00 0.0000000000e+00 
          0.0000000000e+00 0.0000000000e+00 0.0000000000e+00 
          0.0000000000e+00 0.0000000000e+00 0.0000000000e+00 
          0.0000000000e+00 0.0000000000e+00 0.0000000000e+00 
          0.0000000000e+00 0.0000000000e+00 0.0000000000e+00 
          0.0000000000e+00 0.0000000000e+00 0.0000000000e+00 
          0.0000000000e+00 0.0000000000e+00 0.0000000000e+00 
          0.0000000000e+00 0.0000000000e+00 0.0000000000e+00 
          0.0000000000e+00 0.0000000000e+00 0.0000000000e+00 
          0.0000000000e+00 0.0000000000e+00 0.0000000000e+00 
          0.0000000000e+00 0.0000000000e+00 0.0000000000e+00 
          0.0000000000e+00 0.0000000000e+00 0.0000000000e+00 
          0.0000000000e+00 0.0000000000e+00 0.0000000000e+00 
          0.0000000000e+00 0.0000000000e+00 0.0000000000e+00 
          0.0000000000e+00 0.0000000000e+00 0.0000000000e+00 
          0.0000000000e+00 0.0000000000e+00 0.0000000000e+00 
          0.0000000000e+00 0.0000000000e+00 0.0000000000e+00 
          0.0000000000e+00 0.0000000000e+00 0.0000000000e+00 
          0.0000000000e+00 0.0000000000e+00 0.0000000000e+00 
          0.0000000000e+00 0.0000000000e+00 0.0000000000e+00 
          0.0000000000e+00 0.0000000000e+00 0.0000000000e+00 
          0.0000000000e+00 0.0000000000e+00 0.0000000000e+00 
          0.0000000000e+00 0.0000000000e+00 0.0000000000e+00 
          0.0000000000e+00 0.0000000000e+00 0.0000000000e+00 
          0.0000000000e+00 0.0000000000e+00 0.0000000000e+00 
          0.0000000000e+00 0.0000000000e+00 0.0000000000e+00 
          0.0000000000e+00 0.0000000000e+00 0.0000000000e+00 
          0.0000000000e+00 0.0000000000e+00 0.0000000000e+00 
          0.0000000000e+00 0.0000000000e+00 0.0000000000e+00 
          0.0000000000e+00 0.0000000000e+00 0.0000000000e+00 
          0.0000000000e+00 0.0000000000e+00 0.0000000000e+00 
          0.0000000000e+00 0.0000000000e+00 0.0000000000e+00 
          0.0000000000e+00 0.0000000000e+00 0.0000000000e+00 
          0.0000000000e+00 0.0000000000e+00 0.0000000000e+00 
          0.0000000000e+00 0.0000000000e+00 0.0000000000e+00 
          0.0000000000e+00 0.0000000000e+00 0.0000000000e+00 
          0.0000000000e+00 0.0000000000e+00 0.0000000000e+00 
        </DataArray>
      </PointData>
      <CellData>
        <DataArray type="Int64" Name="ElementTag" format="ascii">
          0
        </DataArray>
      </CellData>
    </Piece>
  </UnstructuredGrid>
</VTKFile>
