<?xml version="1.0"?>
<VTKFile type="UnstructuredGrid" version="1.0" byte_order="LittleEndian" compressor="vtkZLibDataCompressor">
  <UnstructuredGrid>
    <Piece NumberOfPoints="80" NumberOfCells="39">
      <Points>
        <DataArray type="Float64" Name="Points" NumberOfComponents="3" format="ascii">
          0.0000000000e+00 0.0000000000e+00 0.0000000000e+00 
          2.5000000000e-01 0.0000000000e+00 0.0000000000e+00 
          2.5000000000e-01 3.0000000000e+01 0.0000000000e+00 
          0.0000000000e+00 3.0000000000e+01 0.0000000000e+00 
          2.5000000000e-01 7.6923100000e-01 0.0000000000e+00 
          2.5000000000e-01 1.5384620000e+00 0.0000000000e+00 
          2.5000000000e-01 2.3076920000e+00 0.0000000000e+00 
          2.5000000000e-01 3.0769230000e+00 0.0000000000e+00 
          2.5000000000e-01 3.8461540000e+00 0.0000000000e+00 
          2.5000000000e-01 4.6153850000e+00 0.0000000000e+00 
          2.5000000000e-01 5.3846150000e+00 0.0000000000e+00 
          2.5000000000e-01 6.1538460000e+00 0.0000000000e+00 
          2.5000000000e-01 6.9230770000e+00 0.0000000000e+00 
          2.5000000000e-01 7.6923080000e+00 0.0000000000e+00 
          2.5000000000e-01 8.4615380000e+00 0.0000000000e+00 
          2.5000000000e-01 9.2307690000e+00 0.0000000000e+00 
          2.5000000000e-01 1.0000000000e+01 0.0000000000e+00 
          2.5000000000e-01 1.0769231000e+01 0.0000000000e+00 
          2.5000000000e-01 1.1538462000e+01 0.0000000000e+00 
          2.5000000000e-01 1.2307692000e+01 0.0000000000e+00 
          2.5000000000e-01 1.3076923000e+01 0.0000000000e+00 
          2.5000000000e-01 1.3846154000e+01 0.0000000000e+00 
          2.5000000000e-01 1.4615385000e+01 0.0000000000e+00 
          2.5000000000e-01 1.5384615000e+01 0.0000000000e+00 
          2.5000000000e-01 1.6153846000e+01 0.0000000000e+00 
          2.5000000000e-01 1.6923077000e+01 0.0000000000e+00 
          2.5000000000e-01 1.7692308000e+01 0.0000000000e+00 
          2.5000000000e-01 1.8461538000e+01 0.0000000000e+00 
          2.5000000000e-01 1.9230769000e+01 0.0000000000e+00 
          2.5000000000e-01 2.0000000000e+01 0.0000000000e+00 
          2.5000000000e-01 2.0769231000e+01 0.0000000000e+00 
          2.5000000000e-01 2.1538462000e+01 0.0000000000e+00 
          2.5000000000e-01 2.2307692000e+01 0.0000000000e+00 
          2.5000000000e-01 2.3076923000e+01 0.0000000000e+00 
          2.5000000000e-01 2.3846154000e+01 0.0000000000e+00 
          2.5000000000e-01 2.4615385000e+01 0.0000000000e+00 
          2.5000000000e-01 2.5384615000e+01 0.0000000000e+00 
          2.5000000000e-01 2.6153846000e+01 0.0000000000e+00 
          2.5000000000e-01 2.6923077000e+01 0.0000000000e+00 
          2.5000000000e-01 2.7692308000e+01 0.0000000000e+00 
          2.5000000000e-01 2.8461538000e+01 0.0000000000e+00 
          2.5000000000e-01 2.9230769000e+01 0.0000000000e+00 
          0.0000000000e+00 7.6923100000e-01 0.0000000000e+00 
          0.0000000000e+00 1.5384620000e+00 0.0000000000e+00 
          0.0000000000e+00 2.3076920000e+00 0.0000000000e+00 
          0.0000000000e+00 3.0769230000e+00 0.0000000000e+00 
          0.0000000000e+00 3.8461540000e+00 0.0000000000e+00 
          0.0000000000e+00 4.6153850000e+00 0.0000000000e+00 
          0.0000000000e+00 5.3846150000e+00 0.0000000000e+00 
          0.0000000000e+00 6.1538460000e+00 0.0000000000e+00 
          0.0000000000e+00 6.9230770000e+00 0.0000000000e+00 
          0.0000000000e+00 7.6923080000e+00 0.0000000000e+00 
          0.0000000000e+00 8.4615380000e+00 0.0000000000e+00 
          0.0000000000e+00 9.2307690000e+00 0.0000000000e+00 
          0.0000000000e+00 1.0000000000e+01 0.0000000000e+00 
          0.0000000000e+00 1.0769231000e+01 0.0000000000e+00 
          0.0000000000e+00 1.1538462000e+01 0.0000000000e+00 
          0.0000000000e+00 1.2307692000e+01 0.0000000000e+00 
          0.0000000000e+00 1.3076923000e+01 0.0000000000e+00 
          0.0000000000e+00 1.3846154000e+01 0.0000000000e+00 
          0.0000000000e+00 1.4615385000e+01 0.0000000000e+00 
          0.0000000000e+00 1.5384615000e+01 0.0000000000e+00 
          0.0000000000e+00 1.6153846000e+01 0.0000000000e+00 
          0.0000000000e+00 1.6923077000e+01 0.0000000000e+00 
          0.0000000000e+00 1.7692308000e+01 0.0000000000e+00 
          0.0000000000e+00 1.8461538000e+01 0.0000000000e+00 
          0.0000000000e+00 1.9230769000e+01 0.0000000000e+00 
          0.0000000000e+00 2.0000000000e+01 0.0000000000e+00 
          0.0000000000e+00 2.0769231000e+01 0.0000000000e+00 
          0.0000000000e+00 2.1538462000e+01 0.0000000000e+00 
          0.0000000000e+00 2.2307692000e+01 0.0000000000e+00 
          0.0000000000e+00 2.3076923000e+01 0.0000000000e+00 
          0.0000000000e+00 2.3846154000e+01 0.0000000000e+00 
          0.0000000000e+00 2.4615385000e+01 0.0000000000e+00 
          0.0000000000e+00 2.5384615000e+01 0.0000000000e+00 
          0.0000000000e+00 2.6153846000e+01 0.0000000000e+00 
          0.0000000000e+00 2.6923077000e+01 0.0000000000e+00 
          0.0000000000e+00 2.7692308000e+01 0.0000000000e+00 
          0.0000000000e+00 2.8461538000e+01 0.0000000000e+00 
          0.0000000000e+00 2.9230769000e+01 0.0000000000e+00 
        </DataArray>
      </Points>
      <Cells>
        <DataArray type="Int64" Name="connectivity" format="ascii">
          0 1 4 42 
          42 4 5 43 
          43 5 6 44 
          44 6 7 45 
          45 7 8 46 
          46 8 9 47 
          47 9 10 48 
          48 10 11 49 
          49 11 12 50 
          50 12 13 51 
          51 13 14 52 
          52 14 15 53 
          53 15 16 54 
          54 16 17 55 
          55 17 18 56 
          56 18 19 57 
          57 19 20 58 
          58 20 21 59 
          59 21 22 60 
          60 22 23 61 
          61 23 24 62 
          62 24 25 63 
          63 25 26 64 
          64 26 27 65 
          65 27 28 66 
          66 28 29 67 
          67 29 30 68 
          68 30 31 69 
          69 31 32 70 
          70 32 33 71 
          71 33 34 72 
          72 34 35 73 
          73 35 36 74 
          74 36 37 75 
          75 37 38 76 
          76 38 39 77 
          77 39 40 78 
          78 40 41 79 
          79 41 2 3 
        </DataArray>
        <DataArray type="Int64" Name="offsets" format="ascii">
          4
          8
          12
          16
          20
          24
          28
          32
          36
          40
          44
          48
          52
          56
          60
          64
          68
          72
          76
          80
          84
          88
          92
          96
          100
          104
          108
          112
          116
          120
          124
          128
          132
          136
          140
          144
          148
          152
          156
        </DataArray>
        <DataArray type="Int64" Name="types" format="ascii">
          9
          9
          9
          9
          9
          9
          9
          9
          9
          9
          9
          9
          9
          9
          9
          9
          9
          9
          9
          9
          9
          9
          9
          9
          9
          9
          9
          9
          9
          9
          9
          9
          9
          9
          9
          9
          9
          9
          9
        </DataArray>
      </Cells>
      <PointData>
        <DataArray type="Int64" Name="NodeTag" format="ascii">
          1
          2
          3
          4
          7
          8
          9
          10
          11
          12
          13
          14
          15
          16
          17
          18
          19
          20
          21
          22
          23
          24
          25
          26
          27
          28
          29
          30
          31
          32
          33
          34
          35
          36
          37
          38
          39
          40
          41
          42
          43
          44
          45
          46
          47
          48
          49
          50
          51
          52
          53
          54
          55
          56
          57
          58
          59
          60
          61
          62
          63
          64
          65
          66
          67
          68
          69
          70
          71
          72
          73
          74
          75
          76
          77
          78
          79
          80
          81
          82
        </DataArray>
        <DataArray type="Float64" Name="Velocity" NumberOfComponents="3" format="ascii">
          3.5197254138e-19 -7.2849943130e-05 0.0000000000e+00 
          3.5197254138e-19 -7.2849943130e-05 0.0000000000e+00 
          2.0260436437e-18 -3.0563479797e-04 0.0000000000e+00 
          2.0260436437e-18 -3.0563479797e-04 0.0000000000e+00 
          -4.0464331772e-18 -7.8636010232e-05 0.0000000000e+00 
          2.1454052028e-18 -8.4581667265e-05 0.0000000000e+00 
          3.1253685204e-18 -9.1519918297e-05 0.0000000000e+00 
          1.5480953625e-19 -9.8247996739e-05 0.0000000000e+00 
          1.4787718214e-18 -1.0391414636e-04 0.0000000000e+00 
          -5.3377345482e-18 -1.0958186412e-04 0.0000000000e+00 
          3.9202615204e-18 -1.1538090161e-04 0.0000000000e+00 
          -2.9645976531e-18 -1.2200192849e-04 0.0000000000e+00 
          -4.9238662610e-18 -1.2959493634e-04 0.0000000000e+00 
          2.2732068043e-19 -1.3573066560e-04 0.0000000000e+00 
          5.8919980900e-18 -1.4066628571e-04 0.0000000000e+00 
          -4.9850942955e-18 -1.4631463981e-04 0.0000000000e+00 
          2.5369623297e-19 -1.5232569830e-04 0.0000000000e+00 
          3.6721994148e-18 -1.5956518472e-04 0.0000000000e+00 
          -9.3851976127e-19 -1.6695839392e-04 0.0000000000e+00 
          6.6133940360e-18 -1.7267930313e-04 0.0000000000e+00 
          -5.6634796945e-18 -1.7823174591e-04 0.0000000000e+00 
          -9.4543717753e-19 -1.8438713375e-04 0.0000000000e+00 
          1.5797405928e-19 -1.8994853241e-04 0.0000000000e+00 
          -2.4693889150e-19 -1.9568824850e-04 0.0000000000e+00 
          2.4365991706e-19 -2.0201339371e-04 0.0000000000e+00 
          -9.5246498011e-19 -2.0944339261e-04 0.0000000000e+00 
          2.9529211309e-18 -2.1672451047e-04 0.0000000000e+00 
          -2.2540906308e-18 -2.2318630413e-04 0.0000000000e+00 
          -1.5419538206e-18 -2.2894388155e-04 0.0000000000e+00 
          1.1411265388e-17 -2.3372621905e-04 0.0000000000e+00 
          -8.2992324974e-18 -2.3921994142e-04 0.0000000000e+00 
          1.6737573853e-18 -2.4481131508e-04 0.0000000000e+00 
          1.2781533627e-18 -2.5010722593e-04 0.0000000000e+00 
          9.3678366565e-19 -2.5661799177e-04 0.0000000000e+00 
          -1.0571866381e-18 -2.6466462791e-04 0.0000000000e+00 
          -1.6291881468e-18 -2.7255571750e-04 0.0000000000e+00 
          -4.5564484113e-18 -2.7955103378e-04 0.0000000000e+00 
          4.3531166949e-18 -2.8671601616e-04 0.0000000000e+00 
          -3.9595476026e-18 -2.9379611804e-04 0.0000000000e+00 
          1.4629011227e-20 -2.9862970622e-04 0.0000000000e+00 
          3.3119215208e-18 -3.0167383027e-04 0.0000000000e+00 
          -1.0371555645e-18 -3.0441969959e-04 0.0000000000e+00 
          -4.0464331772e-18 -7.8636010232e-05 0.0000000000e+00 
          2.1454052028e-18 -8.4581667265e-05 0.0000000000e+00 
          3.1253685204e-18 -9.1519918297e-05 0.0000000000e+00 
          1.5480953625e-19 -9.8247996739e-05 0.0000000000e+00 
          1.4787718214e-18 -1.0391414636e-04 0.0000000000e+00 
          -5.3377345482e-18 -1.0958186412e-04 0.0000000000e+00 
          3.9202615204e-18 -1.1538090161e-04 0.0000000000e+00 
          -2.9645976531e-18 -1.2200192849e-04 0.0000000000e+00 
          -4.9238662610e-18 -1.2959493634e-04 0.0000000000e+00 
          2.2732068043e-19 -1.3573066560e-04 0.0000000000e+00 
          5.8919980900e-18 -1.4066628571e-04 0.0000000000e+00 
          -4.9850942955e-18 -1.4631463981e-04 0.0000000000e+00 
          2.5369623297e-19 -1.5232569830e-04 0.0000000000e+00 
          3.6721994148e-18 -1.5956518472e-04 0.0000000000e+00 
          -9.3851976127e-19 -1.6695839392e-04 0.0000000000e+00 
          6.6133940360e-18 -1.7267930313e-04 0.0000000000e+00 
          -5.6634796945e-18 -1.7823174591e-04 0.0000000000e+00 
          -9.4543717753e-19 -1.8438713375e-04 0.0000000000e+00 
          1.5797405928e-19 -1.8994853241e-04 0.0000000000e+00 
          -2.4693889150e-19 -1.9568824850e-04 0.0000000000e+00 
          2.4365991706e-19 -2.0201339371e-04 0.0000000000e+00 
          -9.5246498011e-19 -2.0944339261e-04 0.0000000000e+00 
          2.9529211309e-18 -2.1672451047e-04 0.0000000000e+00 
          -2.2540906308e-18 -2.2318630413e-04 0.0000000000e+00 
          -1.5419538206e-18 -2.2894388155e-04 0.0000000000e+00 
          1.1411265388e-17 -2.3372621905e-04 0.0000000000e+00 
          -8.2992324974e-18 -2.3921994142e-04 0.0000000000e+00 
          1.6737573853e-18 -2.4481131508e-04 0.0000000000e+00 
          1.2781533627e-18 -2.5010722593e-04 0.0000000000e+00 
          9.3678366565e-19 -2.5661799177e-04 0.0000000000e+00 
          -1.0571866381e-18 -2.6466462791e-04 0.0000000000e+00 
          -1.6291881468e-18 -2.7255571750e-04 0.0000000000e+00 
          -4.5564484113e-18 -2.7955103378e-04 0.0000000000e+00 
          4.3531166949e-18 -2.8671601616e-04 0.0000000000e+00 
          -3.9595476026e-18 -2.9379611804e-04 0.0000000000e+00 
          1.4629011227e-20 -2.9862970622e-04 0.0000000000e+00 
          3.3119215208e-18 -3.0167383027e-04 0.0000000000e+00 
          -1.0371555645e-18 -3.0441969959e-04 0.0000000000e+00 
        </DataArray>
        <DataArray type="Float64" Name="Displacement" NumberOfComponents="3" format="ascii">
          4.2376838424e-21 -3.3149574033e-05 0.0000000000e+00 
          4.2376838424e-21 -3.3149574033e-05 0.0000000000e+00 
          -1.9197364429e-20 -5.5255419188e-05 0.0000000000e+00 
          -1.9197364429e-20 -5.5255419188e-05 0.0000000000e+00 
          3.5107049643e-21 -3.4266774028e-05 0.0000000000e+00 
          8.4592186069e-21 -3.5353611156e-05 0.0000000000e+00 
          5.3928708287e-22 -3.6408933032e-05 0.0000000000e+00 
          8.1882435667e-21 -3.7436556074e-05 0.0000000000e+00 
          1.1338317849e-20 -3.8438315305e-05 0.0000000000e+00 
          2.8032898496e-20 -3.9411461229e-05 0.0000000000e+00 
          5.0454635542e-21 -4.0355176776e-05 0.0000000000e+00 
          1.0405720262e-20 -4.1268523481e-05 0.0000000000e+00 
          -3.0229854432e-20 -4.2151951525e-05 0.0000000000e+00 
          -1.7954464892e-20 -4.3007828555e-05 0.0000000000e+00 
          -1.1666421130e-20 -4.3835916620e-05 0.0000000000e+00 
          -6.4876153889e-22 -4.4635062625e-05 0.0000000000e+00 
          -2.4318905811e-20 -4.5405960877e-05 0.0000000000e+00 
          1.9700556922e-21 -4.6148453710e-05 0.0000000000e+00 
          -2.6441439259e-21 -4.6861392876e-05 0.0000000000e+00 
          1.1331594370e-20 -4.7543092435e-05 0.0000000000e+00 
          -4.5230154076e-21 -4.8195315327e-05 0.0000000000e+00 
          -3.1475283327e-21 -4.8820570457e-05 0.0000000000e+00 
          -7.2411688404e-21 -4.9419297425e-05 0.0000000000e+00 
          -2.4196239551e-20 -4.9991464484e-05 0.0000000000e+00 
          -9.4938351956e-21 -5.0533344512e-05 0.0000000000e+00 
          -1.2512353610e-20 -5.1043360711e-05 0.0000000000e+00 
          -2.4220516670e-20 -5.1524078171e-05 0.0000000000e+00 
          3.4342885426e-21 -5.1975213274e-05 0.0000000000e+00 
          -6.9750561903e-21 -5.2395890716e-05 0.0000000000e+00 
          -6.7659799679e-21 -5.2789312788e-05 0.0000000000e+00 
          -5.7445591983e-21 -5.3157566264e-05 0.0000000000e+00 
          1.3610826893e-20 -5.3500304349e-05 0.0000000000e+00 
          -4.1646493604e-21 -5.3814355997e-05 0.0000000000e+00 
          -1.8081235375e-21 -5.4099293893e-05 0.0000000000e+00 
          -5.0159868596e-22 -5.4354063937e-05 0.0000000000e+00 
          -9.6200473219e-21 -5.4575800052e-05 0.0000000000e+00 
          -4.7786549820e-21 -5.4764704051e-05 0.0000000000e+00 
          -1.9582864086e-20 -5.4920240595e-05 0.0000000000e+00 
          -2.3894052437e-20 -5.5044518445e-05 0.0000000000e+00 
          -1.8660707982e-22 -5.5138665926e-05 0.0000000000e+00 
          -9.0938596194e-22 -5.5204302568e-05 0.0000000000e+00 
          7.6686478999e-21 -5.5243064758e-05 0.0000000000e+00 
          3.5107049643e-21 -3.4266774028e-05 0.0000000000e+00 
          8.4592186069e-21 -3.5353611156e-05 0.0000000000e+00 
          5.3928708287e-22 -3.6408933032e-05 0.0000000000e+00 
          8.1882435667e-21 -3.7436556074e-05 0.0000000000e+00 
          1.1338317849e-20 -3.8438315305e-05 0.0000000000e+00 
          2.8032898496e-20 -3.9411461229e-05 0.0000000000e+00 
          5.0454635542e-21 -4.0355176776e-05 0.0000000000e+00 
          1.0405720262e-20 -4.1268523481e-05 0.0000000000e+00 
          -3.0229854432e-20 -4.2151951525e-05 0.0000000000e+00 
          -1.7954464892e-20 -4.3007828555e-05 0.0000000000e+00 
          -1.1666421130e-20 -4.3835916620e-05 0.0000000000e+00 
          -6.4876153889e-22 -4.4635062625e-05 0.0000000000e+00 
          -2.4318905811e-20 -4.5405960877e-05 0.0000000000e+00 
          1.9700556922e-21 -4.6148453710e-05 0.0000000000e+00 
          -2.6441439259e-21 -4.6861392876e-05 0.0000000000e+00 
          1.1331594370e-20 -4.7543092435e-05 0.0000000000e+00 
          -4.5230154076e-21 -4.8195315327e-05 0.0000000000e+00 
          -3.1475283327e-21 -4.8820570457e-05 0.0000000000e+00 
          -7.2411688404e-21 -4.9419297425e-05 0.0000000000e+00 
          -2.4196239551e-20 -4.9991464484e-05 0.0000000000e+00 
          -9.4938351956e-21 -5.0533344512e-05 0.0000000000e+00 
          -1.2512353610e-20 -5.1043360711e-05 0.0000000000e+00 
          -2.4220516670e-20 -5.1524078171e-05 0.0000000000e+00 
          3.4342885426e-21 -5.1975213274e-05 0.0000000000e+00 
          -6.9750561903e-21 -5.2395890716e-05 0.0000000000e+00 
          -6.7659799679e-21 -5.2789312788e-05 0.0000000000e+00 
          -5.7445591983e-21 -5.3157566264e-05 0.0000000000e+00 
          1.3610826893e-20 -5.3500304349e-05 0.0000000000e+00 
          -4.1646493604e-21 -5.3814355997e-05 0.0000000000e+00 
          -1.8081235375e-21 -5.4099293893e-05 0.0000000000e+00 
          -5.0159868596e-22 -5.4354063937e-05 0.0000000000e+00 
          -9.6200473219e-21 -5.4575800052e-05 0.0000000000e+00 
          -4.7786549820e-21 -5.4764704051e-05 0.0000000000e+00 
          -1.9582864086e-20 -5.4920240595e-05 0.0000000000e+00 
          -2.3894052437e-20 -5.5044518445e-05 0.0000000000e+00 
          -1.8660707982e-22 -5.5138665926e-05 0.0000000000e+00 
          -9.0938596194e-22 -5.5204302568e-05 0.0000000000e+00 
          7.6686478999e-21 -5.5243064758e-05 0.0000000000e+00 
        </DataArray>
        <DataArray type="Float64" Name="Acceleration" NumberOfComponents="3" format="ascii">
          -1.4243676354e-16 -3.7555212410e-04 0.0000000000e+00 
          -1.4243676354e-16 -3.7555212410e-04 0.0000000000e+00 
          3.7514598092e-15 -1.1348299893e-03 0.0000000000e+00 
          3.7514598092e-15 -1.1348299893e-03 0.0000000000e+00 
          -5.1236880646e-16 -1.1595597043e-04 0.0000000000e+00 
          -3.7945242123e-16 9.1465052038e-05 0.0000000000e+00 
          9.4320804312e-16 -5.9577446445e-04 0.0000000000e+00 
          -2.2041052177e-16 -9.2670373685e-04 0.0000000000e+00 
          7.3075796907e-16 -4.3123333398e-04 0.0000000000e+00 
          -3.3067087606e-15 -2.8421181358e-04 0.0000000000e+00 
          2.4270806837e-15 -1.1465440774e-04 0.0000000000e+00 
          -3.6946110181e-15 -1.9600376111e-04 0.0000000000e+00 
          4.2224355392e-15 -6.2266265771e-04 0.0000000000e+00 
          -2.1171455169e-16 -5.7997378333e-04 0.0000000000e+00 
          6.4438027549e-16 -3.7179370398e-04 0.0000000000e+00 
          -2.8558974322e-15 -4.9710765041e-04 0.0000000000e+00 
          4.0630418732e-15 -4.6869561842e-04 0.0000000000e+00 
          -2.9401720781e-15 -2.6177693941e-04 0.0000000000e+00 
          1.7337320530e-15 4.1880214428e-05 0.0000000000e+00 
          -2.3825375610e-15 -2.7548951691e-04 0.0000000000e+00 
          1.8239137251e-15 -7.2776710484e-04 0.0000000000e+00 
          -6.1961188920e-16 -8.0698483267e-04 0.0000000000e+00 
          -2.1002182753e-15 -8.0139481463e-04 0.0000000000e+00 
          3.8957722693e-15 -1.2948412849e-04 0.0000000000e+00 
          -1.8464779429e-15 1.5452329541e-04 0.0000000000e+00 
          -8.8613070845e-16 -3.0771573541e-04 0.0000000000e+00 
          2.9234593891e-15 -2.5670907342e-04 0.0000000000e+00 
          -2.1383435363e-15 -9.8764461083e-05 0.0000000000e+00 
          -5.7979527008e-16 -6.7593896105e-04 0.0000000000e+00 
          9.8350873618e-16 -1.0519838533e-03 0.0000000000e+00 
          1.2845683223e-15 -9.8949035006e-04 0.0000000000e+00 
          -2.2817292521e-15 -4.1812520208e-04 0.0000000000e+00 
          8.2980417838e-16 -3.4097444066e-04 0.0000000000e+00 
          -1.7030091451e-16 -1.5109812109e-04 0.0000000000e+00 
          -1.2749894145e-16 3.6537999361e-04 0.0000000000e+00 
          1.1297392553e-16 3.2897201645e-04 0.0000000000e+00 
          -1.2596696835e-15 4.2553111288e-04 0.0000000000e+00 
          6.7595769763e-16 4.5475715377e-05 0.0000000000e+00 
          3.2066585859e-15 -1.5785280057e-04 0.0000000000e+00 
          -2.4595429259e-15 -4.4971074158e-04 0.0000000000e+00 
          -1.7246020943e-17 -7.4456334483e-04 0.0000000000e+00 
          -1.8153017056e-15 -8.2868193500e-04 0.0000000000e+00 
          -5.1236880646e-16 -1.1595597043e-04 0.0000000000e+00 
          -3.7945242123e-16 9.1465052038e-05 0.0000000000e+00 
          9.4320804312e-16 -5.9577446445e-04 0.0000000000e+00 
          -2.2041052177e-16 -9.2670373685e-04 0.0000000000e+00 
          7.3075796907e-16 -4.3123333398e-04 0.0000000000e+00 
          -3.3067087606e-15 -2.8421181358e-04 0.0000000000e+00 
          2.4270806837e-15 -1.1465440774e-04 0.0000000000e+00 
          -3.6946110181e-15 -1.9600376111e-04 0.0000000000e+00 
          4.2224355392e-15 -6.2266265771e-04 0.0000000000e+00 
          -2.1171455169e-16 -5.7997378333e-04 0.0000000000e+00 
          6.4438027549e-16 -3.7179370398e-04 0.0000000000e+00 
          -2.8558974322e-15 -4.9710765041e-04 0.0000000000e+00 
          4.0630418732e-15 -4.6869561842e-04 0.0000000000e+00 
          -2.9401720781e-15 -2.6177693941e-04 0.0000000000e+00 
          1.7337320530e-15 4.1880214428e-05 0.0000000000e+00 
          -2.3825375610e-15 -2.7548951691e-04 0.0000000000e+00 
          1.8239137251e-15 -7.2776710484e-04 0.0000000000e+00 
          -6.1961188920e-16 -8.0698483267e-04 0.0000000000e+00 
          -2.1002182753e-15 -8.0139481463e-04 0.0000000000e+00 
          3.8957722693e-15 -1.2948412849e-04 0.0000000000e+00 
          -1.8464779429e-15 1.5452329541e-04 0.0000000000e+00 
          -8.8613070845e-16 -3.0771573541e-04 0.0000000000e+00 
          2.9234593891e-15 -2.5670907342e-04 0.0000000000e+00 
          -2.1383435363e-15 -9.8764461083e-05 0.0000000000e+00 
          -5.7979527008e-16 -6.7593896105e-04 0.0000000000e+00 
          9.8350873618e-16 -1.0519838533e-03 0.0000000000e+00 
          1.2845683223e-15 -9.8949035006e-04 0.0000000000e+00 
          -2.2817292521e-15 -4.1812520208e-04 0.0000000000e+00 
          8.2980417838e-16 -3.4097444066e-04 0.0000000000e+00 
          -1.7030091451e-16 -1.5109812109e-04 0.0000000000e+00 
          -1.2749894145e-16 3.6537999361e-04 0.0000000000e+00 
          1.1297392553e-16 3.2897201645e-04 0.0000000000e+00 
          -1.2596696835e-15 4.2553111288e-04 0.0000000000e+00 
          6.7595769763e-16 4.5475715377e-05 0.0000000000e+00 
          3.2066585859e-15 -1.5785280057e-04 0.0000000000e+00 
          -2.4595429259e-15 -4.4971074158e-04 0.0000000000e+00 
          -1.7246020943e-17 -7.4456334483e-04 0.0000000000e+00 
          -1.8153017056e-15 -8.2868193500e-04 0.0000000000e+00 
        </DataArray>
        <DataArray type="Float64" Name="Reaction" NumberOfComponents="3" format="ascii">
          0.0000000000e+00 0.0000000000e+00 0.0000000000e+00 
          0.0000000000e+00 0.0000000000e+00 0.0000000000e+00 
          0.0000000000e+00 0.0000000000e+00 0.0000000000e+00 
          0.0000000000e+00 0.0000000000e+00 0.0000000000e+00 
          0.0000000000e+00 0.0000000000e+00 0.0000000000e+00 
          0.0000000000e+00 0.0000000000e+00 0.0000000000e+00 
          0.0000000000e+00 0.0000000000e+00 0.0000000000e+00 
          0.0000000000e+00 0.0000000000e+00 0.0000000000e+00 
          0.0000000000e+00 0.0000000000e+00 0.0000000000e+00 
          0.0000000000e+00 0.0000000000e+00 0.0000000000e+00 
          0.0000000000e+00 0.0000000000e+00 0.0000000000e+00 
          0.0000000000e+00 0.0000000000e+00 0.0000000000e+00 
          0.0000000000e+00 0.0000000000e+00 0.0000000000e+00 
          0.0000000000e+00 0.0000000000e+00 0.0000000000e+00 
          0.0000000000e+00 0.0000000000e+00 0.0000000000e+00 
          0.0000000000e+00 0.0000000000e+00 0.0000000000e+00 
          0.0000000000e+00 0.0000000000e+00 0.0000000000e+00 
          0.0000000000e+00 0.0000000000e+00 0.0000000000e+00 
          0.0000000000e+00 0.0000000000e+00 0.0000000000e+00 
          0.0000000000e+00 0.0000000000e+00 0.0000000000e+00 
          0.0000000000e+00 0.0000000000e+00 0.0000000000e+00 
          0.0000000000e+00 0.0000000000e+00 0.0000000000e+00 
          0.0000000000e+00 0.0000000000e+00 0.0000000000e+00 
          0.0000000000e+00 0.0000000000e+00 0.0000000000e+00 
          0.0000000000e+00 0.0000000000e+00 0.0000000000e+00 
          0.0000000000e+00 0.0000000000e+00 0.0000000000e+00 
          0.0000000000e+00 0.0000000000e+00 0.0000000000e+00 
          0.0000000000e+00 0.0000000000e+00 0.0000000000e+00 
          0.0000000000e+00 0.0000000000e+00 0.0000000000e+00 
          0.0000000000e+00 0.0000000000e+00 0.0000000000e+00 
          0.0000000000e+00 0.0000000000e+00 0.0000000000e+00 
          0.0000000000e+00 0.0000000000e+00 0.0000000000e+00 
          0.0000000000e+00 0.0000000000e+00 0.0000000000e+00 
          0.0000000000e+00 0.0000000000e+00 0.0000000000e+00 
          0.0000000000e+00 0.0000000000e+00 0.0000000000e+00 
          0.0000000000e+00 0.0000000000e+00 0.0000000000e+00 
          0.0000000000e+00 0.0000000000e+00 0.0000000000e+00 
          0.0000000000e+00 0.0000000000e+00 0.0000000000e+00 
          0.0000000000e+00 0.0000000000e+00 0.0000000000e+00 
          0.0000000000e+00 0.0000000000e+00 0.0000000000e+00 
          0.0000000000e+00 0.0000000000e+00 0.0000000000e+00 
          0.0000000000e+00 0.0000000000e+00 0.0000000000e+00 
          0.0000000000e+00 0.0000000000e+00 0.0000000000e+00 
          0.0000000000e+00 0.0000000000e+00 0.0000000000e+00 
          0.0000000000e+00 0.0000000000e+00 0.0000000000e+00 
          0.0000000000e+00 0.0000000000e+00 0.0000000000e+00 
          0.0000000000e+00 0.0000000000e+00 0.0000000000e+00 
          0.0000000000e+00 0.0000000000e+00 0.0000000000e+00 
          0.0000000000e+00 0.0000000000e+00 0.0000000000e+00 
          0.0000000000e+00 0.0000000000e+00 0.0000000000e+00 
          0.0000000000e+00 0.0000000000e+00 0.0000000000e+00 
          0.0000000000e+00 0.0000000000e+00 0.0000000000e+00 
          0.0000000000e+00 0.0000000000e+00 0.0000000000e+00 
          0.0000000000e+00 0.0000000000e+00 0.0000000000e+00 
          0.0000000000e+00 0.0000000000e+00 0.0000000000e+00 
          0.0000000000e+00 0.0000000000e+00 0.0000000000e+00 
          0.0000000000e+00 0.0000000000e+00 0.0000000000e+00 
          0.0000000000e+00 0.0000000000e+00 0.0000000000e+00 
          0.0000000000e+00 0.0000000000e+00 0.0000000000e+00 
          0.0000000000e+00 0.0000000000e+00 0.0000000000e+00 
          0.0000000000e+00 0.0000000000e+00 0.0000000000e+00 
          0.0000000000e+00 0.0000000000e+00 0.0000000000e+00 
          0.0000000000e+00 0.0000000000e+00 0.0000000000e+00 
          0.0000000000e+00 0.0000000000e+00 0.0000000000e+00 
          0.0000000000e+00 0.0000000000e+00 0.0000000000e+00 
          0.0000000000e+00 0.0000000000e+00 0.0000000000e+00 
          0.0000000000e+00 0.0000000000e+00 0.0000000000e+00 
          0.0000000000e+00 0.0000000000e+00 0.0000000000e+00 
          0.0000000000e+00 0.0000000000e+00 0.0000000000e+00 
          0.0000000000e+00 0.0000000000e+00 0.0000000000e+00 
          0.0000000000e+00 0.0000000000e+00 0.0000000000e+00 
          0.0000000000e+00 0.0000000000e+00 0.0000000000e+00 
          0.0000000000e+00 0.0000000000e+00 0.0000000000e+00 
          0.0000000000e+00 0.0000000000e+00 0.0000000000e+00 
          0.0000000000e+00 0.0000000000e+00 0.0000000000e+00 
          0.0000000000e+00 0.0000000000e+00 0.0000000000e+00 
          0.0000000000e+00 0.0000000000e+00 0.0000000000e+00 
          0.0000000000e+00 0.0000000000e+00 0.0000000000e+00 
          0.0000000000e+00 0.0000000000e+00 0.0000000000e+00 
          0.0000000000e+00 0.0000000000e+00 0.0000000000e+00 
        </DataArray>
      </PointData>
      <CellData>
        <DataArray type="Int64" Name="ElementTag" format="ascii">
          90
          91
          92
          93
          94
          95
          96
          97
          98
          99
          100
          101
          102
          103
          104
          105
          106
          107
          108
          109
          110
          111
          112
          113
          114
          115
          116
          117
          118
          119
          120
          121
          122
          123
          124
          125
          126
          127
          128
        </DataArray>
      </CellData>
    </Piece>
  </UnstructuredGrid>
</VTKFile>
