<?xml version="1.0"?>
<VTKFile type="UnstructuredGrid" version="1.0" byte_order="LittleEndian" compressor="vtkZLibDataCompressor">
  <UnstructuredGrid>
    <Piece NumberOfPoints="82" NumberOfCells="1">
      <Points>
        <DataArray type="Float64" Name="Points" NumberOfComponents="3" format="ascii">
          0.0000000000e+00 0.0000000000e+00 0.0000000000e+00 
          2.5000000000e-01 0.0000000000e+00 0.0000000000e+00 
          2.5000000000e-01 3.0000000000e+01 0.0000000000e+00 
          0.0000000000e+00 3.0000000000e+01 0.0000000000e+00 
          0.0000000000e+00 -5.0000000000e+00 0.0000000000e+00 
          2.5000000000e-01 -5.0000000000e+00 0.0000000000e+00 
          2.5000000000e-01 7.6923100000e-01 0.0000000000e+00 
          2.5000000000e-01 1.5384620000e+00 0.0000000000e+00 
          2.5000000000e-01 2.3076920000e+00 0.0000000000e+00 
          2.5000000000e-01 3.0769230000e+00 0.0000000000e+00 
          2.5000000000e-01 3.8461540000e+00 0.0000000000e+00 
          2.5000000000e-01 4.6153850000e+00 0.0000000000e+00 
          2.5000000000e-01 5.3846150000e+00 0.0000000000e+00 
          2.5000000000e-01 6.1538460000e+00 0.0000000000e+00 
          2.5000000000e-01 6.9230770000e+00 0.0000000000e+00 
          2.5000000000e-01 7.6923080000e+00 0.0000000000e+00 
          2.5000000000e-01 8.4615380000e+00 0.0000000000e+00 
          2.5000000000e-01 9.2307690000e+00 0.0000000000e+00 
          2.5000000000e-01 1.0000000000e+01 0.0000000000e+00 
          2.5000000000e-01 1.0769231000e+01 0.0000000000e+00 
          2.5000000000e-01 1.1538462000e+01 0.0000000000e+00 
          2.5000000000e-01 1.2307692000e+01 0.0000000000e+00 
          2.5000000000e-01 1.3076923000e+01 0.0000000000e+00 
          2.5000000000e-01 1.3846154000e+01 0.0000000000e+00 
          2.5000000000e-01 1.4615385000e+01 0.0000000000e+00 
          2.5000000000e-01 1.5384615000e+01 0.0000000000e+00 
          2.5000000000e-01 1.6153846000e+01 0.0000000000e+00 
          2.5000000000e-01 1.6923077000e+01 0.0000000000e+00 
          2.5000000000e-01 1.7692308000e+01 0.0000000000e+00 
          2.5000000000e-01 1.8461538000e+01 0.0000000000e+00 
          2.5000000000e-01 1.9230769000e+01 0.0000000000e+00 
          2.5000000000e-01 2.0000000000e+01 0.0000000000e+00 
          2.5000000000e-01 2.0769231000e+01 0.0000000000e+00 
          2.5000000000e-01 2.1538462000e+01 0.0000000000e+00 
          2.5000000000e-01 2.2307692000e+01 0.0000000000e+00 
          2.5000000000e-01 2.3076923000e+01 0.0000000000e+00 
          2.5000000000e-01 2.3846154000e+01 0.0000000000e+00 
          2.5000000000e-01 2.4615385000e+01 0.0000000000e+00 
          2.5000000000e-01 2.5384615000e+01 0.0000000000e+00 
          2.5000000000e-01 2.6153846000e+01 0.0000000000e+00 
          2.5000000000e-01 2.6923077000e+01 0.0000000000e+00 
          2.5000000000e-01 2.7692308000e+01 0.0000000000e+00 
          2.5000000000e-01 2.8461538000e+01 0.0000000000e+00 
          2.5000000000e-01 2.9230769000e+01 0.0000000000e+00 
          0.0000000000e+00 7.6923100000e-01 0.0000000000e+00 
          0.0000000000e+00 1.5384620000e+00 0.0000000000e+00 
          0.0000000000e+00 2.3076920000e+00 0.0000000000e+00 
          0.0000000000e+00 3.0769230000e+00 0.0000000000e+00 
          0.0000000000e+00 3.8461540000e+00 0.0000000000e+00 
          0.0000000000e+00 4.6153850000e+00 0.0000000000e+00 
          0.0000000000e+00 5.3846150000e+00 0.0000000000e+00 
          0.0000000000e+00 6.1538460000e+00 0.0000000000e+00 
          0.0000000000e+00 6.9230770000e+00 0.0000000000e+00 
          0.0000000000e+00 7.6923080000e+00 0.0000000000e+00 
          0.0000000000e+00 8.4615380000e+00 0.0000000000e+00 
          0.0000000000e+00 9.2307690000e+00 0.0000000000e+00 
          0.0000000000e+00 1.0000000000e+01 0.0000000000e+00 
          0.0000000000e+00 1.0769231000e+01 0.0000000000e+00 
          0.0000000000e+00 1.1538462000e+01 0.0000000000e+00 
          0.0000000000e+00 1.2307692000e+01 0.0000000000e+00 
          0.0000000000e+00 1.3076923000e+01 0.0000000000e+00 
          0.0000000000e+00 1.3846154000e+01 0.0000000000e+00 
          0.0000000000e+00 1.4615385000e+01 0.0000000000e+00 
          0.0000000000e+00 1.5384615000e+01 0.0000000000e+00 
          0.0000000000e+00 1.6153846000e+01 0.0000000000e+00 
          0.0000000000e+00 1.6923077000e+01 0.0000000000e+00 
          0.0000000000e+00 1.7692308000e+01 0.0000000000e+00 
          0.0000000000e+00 1.8461538000e+01 0.0000000000e+00 
          0.0000000000e+00 1.9230769000e+01 0.0000000000e+00 
          0.0000000000e+00 2.0000000000e+01 0.0000000000e+00 
          0.0000000000e+00 2.0769231000e+01 0.0000000000e+00 
          0.0000000000e+00 2.1538462000e+01 0.0000000000e+00 
          0.0000000000e+00 2.2307692000e+01 0.0000000000e+00 
          0.0000000000e+00 2.3076923000e+01 0.0000000000e+00 
          0.0000000000e+00 2.3846154000e+01 0.0000000000e+00 
          0.0000000000e+00 2.4615385000e+01 0.0000000000e+00 
          0.0000000000e+00 2.5384615000e+01 0.0000000000e+00 
          0.0000000000e+00 2.6153846000e+01 0.0000000000e+00 
          0.0000000000e+00 2.6923077000e+01 0.0000000000e+00 
          0.0000000000e+00 2.7692308000e+01 0.0000000000e+00 
          0.0000000000e+00 2.8461538000e+01 0.0000000000e+00 
          0.0000000000e+00 2.9230769000e+01 0.0000000000e+00 
        </DataArray>
      </Points>
      <Cells>
        <DataArray type="Int64" Name="connectivity" format="ascii">
          0
          1
          2
          3
          4
          5
          6
          7
          8
          9
          10
          11
          12
          13
          14
          15
          16
          17
          18
          19
          20
          21
          22
          23
          24
          25
          26
          27
          28
          29
          30
          31
          32
          33
          34
          35
          36
          37
          38
          39
          40
          41
          42
          43
          44
          45
          46
          47
          48
          49
          50
          51
          52
          53
          54
          55
          56
          57
          58
          59
          60
          61
          62
          63
          64
          65
          66
          67
          68
          69
          70
          71
          72
          73
          74
          75
          76
          77
          78
          79
          80
          81
        </DataArray>
        <DataArray type="Int64" Name="offsets" format="ascii">
          82
        </DataArray>
        <DataArray type="Int64" Name="types" format="ascii">
          2
        </DataArray>
      </Cells>
      <PointData>
        <DataArray type="Int64" Name="NodeTag" format="ascii">
          1
          2
          3
          4
          5
          6
          7
          8
          9
          10
          11
          12
          13
          14
          15
          16
          17
          18
          19
          20
          21
          22
          23
          24
          25
          26
          27
          28
          29
          30
          31
          32
          33
          34
          35
          36
          37
          38
          39
          40
          41
          42
          43
          44
          45
          46
          47
          48
          49
          50
          51
          52
          53
          54
          55
          56
          57
          58
          59
          60
          61
          62
          63
          64
          65
          66
          67
          68
          69
          70
          71
          72
          73
          74
          75
          76
          77
          78
          79
          80
          81
          82
        </DataArray>
        <DataArray type="Float64" Name="Velocity" NumberOfComponents="3" format="ascii">
          -2.1668267751e-03 -7.7753340384e-05 0.0000000000e+00 
          -2.1668267751e-03 -7.7753340384e-05 0.0000000000e+00 
          3.0897410979e-02 -7.7852527073e-05 0.0000000000e+00 
          3.0897410979e-02 -7.7852527073e-05 0.0000000000e+00 
          0.0000000000e+00 0.0000000000e+00 0.0000000000e+00 
          0.0000000000e+00 0.0000000000e+00 0.0000000000e+00 
          -8.3818514169e-04 -7.7778288627e-05 0.0000000000e+00 
          4.8914317970e-04 -7.7811676785e-05 0.0000000000e+00 
          1.8129175139e-03 -7.7801453016e-05 0.0000000000e+00 
          3.1308594455e-03 -7.7793499482e-05 0.0000000000e+00 
          4.4407574945e-03 -7.7802227369e-05 0.0000000000e+00 
          5.7403937239e-03 -7.7792715324e-05 0.0000000000e+00 
          7.0275619396e-03 -7.7942387062e-05 0.0000000000e+00 
          8.3001007045e-03 -7.7700654595e-05 0.0000000000e+00 
          9.5558492483e-03 -7.7936415690e-05 0.0000000000e+00 
          1.0792737554e-02 -7.7880519333e-05 0.0000000000e+00 
          1.2008658945e-02 -7.7735326668e-05 0.0000000000e+00 
          1.3201606301e-02 -7.8019862939e-05 0.0000000000e+00 
          1.4369584178e-02 -7.7818014766e-05 0.0000000000e+00 
          1.5510644459e-02 -7.7884194807e-05 0.0000000000e+00 
          1.6622935185e-02 -7.7897999722e-05 0.0000000000e+00 
          1.7704573369e-02 -7.7892902633e-05 0.0000000000e+00 
          1.8753829026e-02 -7.7867567763e-05 0.0000000000e+00 
          1.9768957898e-02 -7.7877326828e-05 0.0000000000e+00 
          2.0748292124e-02 -7.7898577915e-05 0.0000000000e+00 
          2.1690275353e-02 -7.7852728117e-05 0.0000000000e+00 
          2.2593356929e-02 -7.7834096319e-05 0.0000000000e+00 
          2.3456081807e-02 -7.7890291211e-05 0.0000000000e+00 
          2.4277076907e-02 -7.7908727325e-05 0.0000000000e+00 
          2.5055008464e-02 -7.7782096411e-05 0.0000000000e+00 
          2.5788655047e-02 -7.7872018885e-05 0.0000000000e+00 
          2.6476835107e-02 -7.7892823728e-05 0.0000000000e+00 
          2.7118450300e-02 -7.7873143819e-05 0.0000000000e+00 
          2.7712509176e-02 -7.7864005421e-05 0.0000000000e+00 
          2.8258069338e-02 -7.7859314035e-05 0.0000000000e+00 
          2.8754271762e-02 -7.7889984114e-05 0.0000000000e+00 
          2.9200326308e-02 -7.7898279376e-05 0.0000000000e+00 
          2.9595550208e-02 -7.7848509563e-05 0.0000000000e+00 
          2.9939339047e-02 -7.7862169804e-05 0.0000000000e+00 
          3.0231135246e-02 -7.7939321351e-05 0.0000000000e+00 
          3.0470493097e-02 -7.7846913515e-05 0.0000000000e+00 
          3.0657051319e-02 -7.7882105735e-05 0.0000000000e+00 
          3.0790507987e-02 -7.7873823735e-05 0.0000000000e+00 
          3.0870672853e-02 -7.7855785717e-05 0.0000000000e+00 
          -8.3818514169e-04 -7.7778288627e-05 0.0000000000e+00 
          4.8914317970e-04 -7.7811676785e-05 0.0000000000e+00 
          1.8129175139e-03 -7.7801453016e-05 0.0000000000e+00 
          3.1308594455e-03 -7.7793499482e-05 0.0000000000e+00 
          4.4407574945e-03 -7.7802227369e-05 0.0000000000e+00 
          5.7403937239e-03 -7.7792715324e-05 0.0000000000e+00 
          7.0275619396e-03 -7.7942387062e-05 0.0000000000e+00 
          8.3001007045e-03 -7.7700654595e-05 0.0000000000e+00 
          9.5558492483e-03 -7.7936415690e-05 0.0000000000e+00 
          1.0792737554e-02 -7.7880519333e-05 0.0000000000e+00 
          1.2008658945e-02 -7.7735326668e-05 0.0000000000e+00 
          1.3201606301e-02 -7.8019862939e-05 0.0000000000e+00 
          1.4369584178e-02 -7.7818014766e-05 0.0000000000e+00 
          1.5510644459e-02 -7.7884194807e-05 0.0000000000e+00 
          1.6622935185e-02 -7.7897999722e-05 0.0000000000e+00 
          1.7704573369e-02 -7.7892902633e-05 0.0000000000e+00 
          1.8753829026e-02 -7.7867567763e-05 0.0000000000e+00 
          1.9768957898e-02 -7.7877326828e-05 0.0000000000e+00 
          2.0748292124e-02 -7.7898577915e-05 0.0000000000e+00 
          2.1690275353e-02 -7.7852728117e-05 0.0000000000e+00 
          2.2593356929e-02 -7.7834096319e-05 0.0000000000e+00 
          2.3456081807e-02 -7.7890291211e-05 0.0000000000e+00 
          2.4277076907e-02 -7.7908727325e-05 0.0000000000e+00 
          2.5055008464e-02 -7.7782096411e-05 0.0000000000e+00 
          2.5788655047e-02 -7.7872018885e-05 0.0000000000e+00 
          2.6476835107e-02 -7.7892823728e-05 0.0000000000e+00 
          2.7118450300e-02 -7.7873143819e-05 0.0000000000e+00 
          2.7712509176e-02 -7.7864005421e-05 0.0000000000e+00 
          2.8258069338e-02 -7.7859314035e-05 0.0000000000e+00 
          2.8754271762e-02 -7.7889984114e-05 0.0000000000e+00 
          2.9200326308e-02 -7.7898279376e-05 0.0000000000e+00 
          2.9595550208e-02 -7.7848509563e-05 0.0000000000e+00 
          2.9939339047e-02 -7.7862169804e-05 0.0000000000e+00 
          3.0231135246e-02 -7.7939321351e-05 0.0000000000e+00 
          3.0470493097e-02 -7.7846913515e-05 0.0000000000e+00 
          3.0657051319e-02 -7.7882105735e-05 0.0000000000e+00 
          3.0790507987e-02 -7.7873823735e-05 0.0000000000e+00 
          3.0870672853e-02 -7.7855785717e-05 0.0000000000e+00 
        </DataArray>
        <DataArray type="Float64" Name="Displacement" NumberOfComponents="3" format="ascii">
          -4.9217670100e-04 -3.1500274418e-04 0.0000000000e+00 
          -4.9217670100e-04 -3.1500274418e-04 0.0000000000e+00 
          -1.1799224115e-03 -3.3855556434e-04 0.0000000000e+00 
          -1.1799224115e-03 -3.3855556434e-04 0.0000000000e+00 
          0.0000000000e+00 0.0000000000e+00 0.0000000000e+00 
          0.0000000000e+00 0.0000000000e+00 0.0000000000e+00 
          -5.2771671061e-04 -3.1619507547e-04 0.0000000000e+00 
          -5.6235402074e-04 -3.1735661764e-04 0.0000000000e+00 
          -5.9607501306e-04 -3.1848713716e-04 0.0000000000e+00 
          -6.2886768351e-04 -3.1958646805e-04 0.0000000000e+00 
          -6.6072134792e-04 -3.2065501131e-04 0.0000000000e+00 
          -6.9162680981e-04 -3.2169248671e-04 0.0000000000e+00 
          -7.2157615444e-04 -3.2269904282e-04 0.0000000000e+00 
          -7.5056306506e-04 -3.2367457818e-04 0.0000000000e+00 
          -7.7858235680e-04 -3.2461909485e-04 0.0000000000e+00 
          -8.0563008650e-04 -3.2553276243e-04 0.0000000000e+00 
          -8.3170366330e-04 -3.2641546759e-04 0.0000000000e+00 
          -8.5680164051e-04 -3.2726715322e-04 0.0000000000e+00 
          -8.8092364545e-04 -3.2808792335e-04 0.0000000000e+00 
          -9.0407041411e-04 -3.2887771704e-04 0.0000000000e+00 
          -9.2624352412e-04 -3.2963641235e-04 0.0000000000e+00 
          -9.4744564676e-04 -3.3036429909e-04 0.0000000000e+00 
          -9.6768022128e-04 -3.3106108049e-04 0.0000000000e+00 
          -9.8695134656e-04 -3.3172693305e-04 0.0000000000e+00 
          -1.0052639696e-03 -3.3236182300e-04 0.0000000000e+00 
          -1.0226234248e-03 -3.3296567954e-04 0.0000000000e+00 
          -1.0390357377e-03 -3.3353862896e-04 0.0000000000e+00 
          -1.0545072517e-03 -3.3408064449e-04 0.0000000000e+00 
          -1.0690445821e-03 -3.3459162529e-04 0.0000000000e+00 
          -1.0826546430e-03 -3.3507157781e-04 0.0000000000e+00 
          -1.0953444958e-03 -3.3552063853e-04 0.0000000000e+00 
          -1.1071212033e-03 -3.3593883170e-04 0.0000000000e+00 
          -1.1179917859e-03 -3.3632565168e-04 0.0000000000e+00 
          -1.1279631633e-03 -3.3668205002e-04 0.0000000000e+00 
          -1.1370420313e-03 -3.3700701128e-04 0.0000000000e+00 
          -1.1452348173e-03 -3.3730118608e-04 0.0000000000e+00 
          -1.1525475519e-03 -3.3756471074e-04 0.0000000000e+00 
          -1.1589858314e-03 -3.3779662374e-04 0.0000000000e+00 
          -1.1645547896e-03 -3.3799810960e-04 0.0000000000e+00 
          -1.1692589634e-03 -3.3816847900e-04 0.0000000000e+00 
          -1.1731022974e-03 -3.3830784711e-04 0.0000000000e+00 
          -1.1760880779e-03 -3.3841627402e-04 0.0000000000e+00 
          -1.1782188929e-03 -3.3849374293e-04 0.0000000000e+00 
          -1.1794966361e-03 -3.3854015216e-04 0.0000000000e+00 
          -5.2771671061e-04 -3.1619507547e-04 0.0000000000e+00 
          -5.6235402074e-04 -3.1735661764e-04 0.0000000000e+00 
          -5.9607501306e-04 -3.1848713716e-04 0.0000000000e+00 
          -6.2886768351e-04 -3.1958646805e-04 0.0000000000e+00 
          -6.6072134792e-04 -3.2065501131e-04 0.0000000000e+00 
          -6.9162680981e-04 -3.2169248671e-04 0.0000000000e+00 
          -7.2157615444e-04 -3.2269904282e-04 0.0000000000e+00 
          -7.5056306506e-04 -3.2367457818e-04 0.0000000000e+00 
          -7.7858235680e-04 -3.2461909485e-04 0.0000000000e+00 
          -8.0563008650e-04 -3.2553276243e-04 0.0000000000e+00 
          -8.3170366330e-04 -3.2641546759e-04 0.0000000000e+00 
          -8.5680164051e-04 -3.2726715322e-04 0.0000000000e+00 
          -8.8092364545e-04 -3.2808792335e-04 0.0000000000e+00 
          -9.0407041411e-04 -3.2887771704e-04 0.0000000000e+00 
          -9.2624352412e-04 -3.2963641235e-04 0.0000000000e+00 
          -9.4744564676e-04 -3.3036429909e-04 0.0000000000e+00 
          -9.6768022128e-04 -3.3106108049e-04 0.0000000000e+00 
          -9.8695134656e-04 -3.3172693305e-04 0.0000000000e+00 
          -1.0052639696e-03 -3.3236182300e-04 0.0000000000e+00 
          -1.0226234248e-03 -3.3296567954e-04 0.0000000000e+00 
          -1.0390357377e-03 -3.3353862896e-04 0.0000000000e+00 
          -1.0545072517e-03 -3.3408064449e-04 0.0000000000e+00 
          -1.0690445821e-03 -3.3459162529e-04 0.0000000000e+00 
          -1.0826546430e-03 -3.3507157781e-04 0.0000000000e+00 
          -1.0953444958e-03 -3.3552063853e-04 0.0000000000e+00 
          -1.1071212033e-03 -3.3593883170e-04 0.0000000000e+00 
          -1.1179917859e-03 -3.3632565168e-04 0.0000000000e+00 
          -1.1279631633e-03 -3.3668205002e-04 0.0000000000e+00 
          -1.1370420313e-03 -3.3700701128e-04 0.0000000000e+00 
          -1.1452348173e-03 -3.3730118608e-04 0.0000000000e+00 
          -1.1525475519e-03 -3.3756471074e-04 0.0000000000e+00 
          -1.1589858314e-03 -3.3779662374e-04 0.0000000000e+00 
          -1.1645547896e-03 -3.3799810960e-04 0.0000000000e+00 
          -1.1692589634e-03 -3.3816847900e-04 0.0000000000e+00 
          -1.1731022974e-03 -3.3830784711e-04 0.0000000000e+00 
          -1.1760880779e-03 -3.3841627402e-04 0.0000000000e+00 
          -1.1782188929e-03 -3.3849374293e-04 0.0000000000e+00 
          -1.1794966361e-03 -3.3854015216e-04 0.0000000000e+00 
        </DataArray>
        <DataArray type="Float64" Name="Acceleration" NumberOfComponents="3" format="ascii">
          7.9977709411e-02 -1.1727747492e-06 0.0000000000e+00 
          7.9977709411e-02 -1.1727747492e-06 0.0000000000e+00 
          7.6726402885e-02 -3.2793541913e-05 0.0000000000e+00 
          7.6726402885e-02 -3.2793541913e-05 0.0000000000e+00 
          0.0000000000e+00 0.0000000000e+00 0.0000000000e+00 
          0.0000000000e+00 0.0000000000e+00 0.0000000000e+00 
          8.1335004561e-02 -3.9144025434e-05 0.0000000000e+00 
          8.2558148617e-02 2.6769981641e-06 0.0000000000e+00 
          8.3647638943e-02 3.3119103646e-05 0.0000000000e+00 
          8.4606297622e-02 -3.9410251072e-05 0.0000000000e+00 
          8.5434919171e-02 1.1085521897e-05 0.0000000000e+00 
          8.6144601621e-02 -1.5918369493e-05 0.0000000000e+00 
          8.6720770094e-02 2.8353051927e-06 0.0000000000e+00 
          8.7184370743e-02 2.2278316062e-06 0.0000000000e+00 
          8.7539659181e-02 -2.8336155350e-05 0.0000000000e+00 
          8.7770103169e-02 -8.1184400345e-06 0.0000000000e+00 
          8.7906561486e-02 2.5877568313e-06 0.0000000000e+00 
          8.7937027379e-02 -1.6369422434e-05 0.0000000000e+00 
          8.7870716080e-02 -5.3854233818e-06 0.0000000000e+00 
          8.7728567001e-02 1.6584360043e-05 0.0000000000e+00 
          8.7485452121e-02 -3.5803458723e-05 0.0000000000e+00 
          8.7180537420e-02 1.8013857678e-05 0.0000000000e+00 
          8.6808678586e-02 -1.3966658388e-05 0.0000000000e+00 
          8.6362943814e-02 -7.8773624759e-06 0.0000000000e+00 
          8.5880331976e-02 4.7389386436e-06 0.0000000000e+00 
          8.5341469978e-02 -1.7733338172e-05 0.0000000000e+00 
          8.4767851784e-02 -1.3054331344e-05 0.0000000000e+00 
          8.4171775048e-02 5.1147346825e-06 0.0000000000e+00 
          8.3547285683e-02 3.8472653717e-06 0.0000000000e+00 
          8.2914210241e-02 -2.0525682657e-05 0.0000000000e+00 
          8.2276190611e-02 -2.5008432350e-05 0.0000000000e+00 
          8.1643647577e-02 6.6107912765e-05 0.0000000000e+00 
          8.1020156771e-02 -1.0536556444e-04 0.0000000000e+00 
          8.0415858519e-02 7.7549526129e-05 0.0000000000e+00 
          7.9838846719e-02 -3.9542824305e-05 0.0000000000e+00 
          7.9294368687e-02 -6.4188071172e-05 0.0000000000e+00 
          7.8790136091e-02 1.0908134128e-04 0.0000000000e+00 
          7.8326962428e-02 -1.0441622910e-04 0.0000000000e+00 
          7.7919491609e-02 1.9894891947e-05 0.0000000000e+00 
          7.7563351774e-02 -9.1059946689e-07 0.0000000000e+00 
          7.7267277450e-02 -1.1736836252e-05 0.0000000000e+00 
          7.7033875824e-02 -8.7243511284e-06 0.0000000000e+00 
          7.6863750193e-02 9.6337802397e-06 0.0000000000e+00 
          7.6763986362e-02 -1.6734467740e-06 0.0000000000e+00 
          8.1335004561e-02 -3.9144025434e-05 0.0000000000e+00 
          8.2558148617e-02 2.6769981641e-06 0.0000000000e+00 
          8.3647638943e-02 3.3119103646e-05 0.0000000000e+00 
          8.4606297622e-02 -3.9410251072e-05 0.0000000000e+00 
          8.5434919171e-02 1.1085521897e-05 0.0000000000e+00 
          8.6144601621e-02 -1.5918369493e-05 0.0000000000e+00 
          8.6720770094e-02 2.8353051927e-06 0.0000000000e+00 
          8.7184370743e-02 2.2278316062e-06 0.0000000000e+00 
          8.7539659181e-02 -2.8336155350e-05 0.0000000000e+00 
          8.7770103169e-02 -8.1184400345e-06 0.0000000000e+00 
          8.7906561486e-02 2.5877568313e-06 0.0000000000e+00 
          8.7937027379e-02 -1.6369422434e-05 0.0000000000e+00 
          8.7870716080e-02 -5.3854233818e-06 0.0000000000e+00 
          8.7728567001e-02 1.6584360043e-05 0.0000000000e+00 
          8.7485452121e-02 -3.5803458723e-05 0.0000000000e+00 
          8.7180537420e-02 1.8013857678e-05 0.0000000000e+00 
          8.6808678586e-02 -1.3966658388e-05 0.0000000000e+00 
          8.6362943814e-02 -7.8773624759e-06 0.0000000000e+00 
          8.5880331976e-02 4.7389386436e-06 0.0000000000e+00 
          8.5341469978e-02 -1.7733338172e-05 0.0000000000e+00 
          8.4767851784e-02 -1.3054331344e-05 0.0000000000e+00 
          8.4171775048e-02 5.1147346825e-06 0.0000000000e+00 
          8.3547285683e-02 3.8472653717e-06 0.0000000000e+00 
          8.2914210241e-02 -2.0525682657e-05 0.0000000000e+00 
          8.2276190611e-02 -2.5008432350e-05 0.0000000000e+00 
          8.1643647577e-02 6.6107912765e-05 0.0000000000e+00 
          8.1020156771e-02 -1.0536556444e-04 0.0000000000e+00 
          8.0415858519e-02 7.7549526129e-05 0.0000000000e+00 
          7.9838846719e-02 -3.9542824305e-05 0.0000000000e+00 
          7.9294368687e-02 -6.4188071172e-05 0.0000000000e+00 
          7.8790136091e-02 1.0908134128e-04 0.0000000000e+00 
          7.8326962428e-02 -1.0441622910e-04 0.0000000000e+00 
          7.7919491609e-02 1.9894891947e-05 0.0000000000e+00 
          7.7563351774e-02 -9.1059946689e-07 0.0000000000e+00 
          7.7267277450e-02 -1.1736836252e-05 0.0000000000e+00 
          7.7033875824e-02 -8.7243511284e-06 0.0000000000e+00 
          7.6863750193e-02 9.6337802397e-06 0.0000000000e+00 
          7.6763986362e-02 -1.6734467740e-06 0.0000000000e+00 
        </DataArray>
        <DataArray type="Float64" Name="Reaction" NumberOfComponents="3" format="ascii">
          0.0000000000e+00 0.0000000000e+00 0.0000000000e+00 
          0.0000000000e+00 0.0000000000e+00 0.0000000000e+00 
          0.0000000000e+00 0.0000000000e+00 0.0000000000e+00 
          0.0000000000e+00 0.0000000000e+00 0.0000000000e+00 
          0.0000000000e+00 0.0000000000e+00 0.0000000000e+00 
          0.0000000000e+00 0.0000000000e+00 0.0000000000e+00 
          0.0000000000e+00 0.0000000000e+00 0.0000000000e+00 
          0.0000000000e+00 0.0000000000e+00 0.0000000000e+00 
          0.0000000000e+00 0.0000000000e+00 0.0000000000e+00 
          0.0000000000e+00 0.0000000000e+00 0.0000000000e+00 
          0.0000000000e+00 0.0000000000e+00 0.0000000000e+00 
          0.0000000000e+00 0.0000000000e+00 0.0000000000e+00 
          0.0000000000e+00 0.0000000000e+00 0.0000000000e+00 
          0.0000000000e+00 0.0000000000e+00 0.0000000000e+00 
          0.0000000000e+00 0.0000000000e+00 0.0000000000e+00 
          0.0000000000e+00 0.0000000000e+00 0.0000000000e+00 
          0.0000000000e+00 0.0000000000e+00 0.0000000000e+00 
          0.0000000000e+00 0.0000000000e+00 0.0000000000e+00 
          0.0000000000e+00 0.0000000000e+00 0.0000000000e+00 
          0.0000000000e+00 0.0000000000e+00 0.0000000000e+00 
          0.0000000000e+00 0.0000000000e+00 0.0000000000e+00 
          0.0000000000e+00 0.0000000000e+00 0.0000000000e+00 
          0.0000000000e+00 0.0000000000e+00 0.0000000000e+00 
          0.0000000000e+00 0.0000000000e+00 0.0000000000e+00 
          0.0000000000e+00 0.0000000000e+00 0.0000000000e+00 
          0.0000000000e+00 0.0000000000e+00 0.0000000000e+00 
          0.0000000000e+00 0.0000000000e+00 0.0000000000e+00 
          0.0000000000e+00 0.0000000000e+00 0.0000000000e+00 
          0.0000000000e+00 0.0000000000e+00 0.0000000000e+00 
          0.0000000000e+00 0.0000000000e+00 0.0000000000e+00 
          0.0000000000e+00 0.0000000000e+00 0.0000000000e+00 
          0.0000000000e+00 0.0000000000e+00 0.0000000000e+00 
          0.0000000000e+00 0.0000000000e+00 0.0000000000e+00 
          0.0000000000e+00 0.0000000000e+00 0.0000000000e+00 
          0.0000000000e+00 0.0000000000e+00 0.0000000000e+00 
          0.0000000000e+00 0.0000000000e+00 0.0000000000e+00 
          0.0000000000e+00 0.0000000000e+00 0.0000000000e+00 
          0.0000000000e+00 0.0000000000e+00 0.0000000000e+00 
          0.0000000000e+00 0.0000000000e+00 0.0000000000e+00 
          0.0000000000e+00 0.0000000000e+00 0.0000000000e+00 
          0.0000000000e+00 0.0000000000e+00 0.0000000000e+00 
          0.0000000000e+00 0.0000000000e+00 0.0000000000e+00 
          0.0000000000e+00 0.0000000000e+00 0.0000000000e+00 
          0.0000000000e+00 0.0000000000e+00 0.0000000000e+00 
          0.0000000000e+00 0.0000000000e+00 0.0000000000e+00 
          0.0000000000e+00 0.0000000000e+00 0.0000000000e+00 
          0.0000000000e+00 0.0000000000e+00 0.0000000000e+00 
          0.0000000000e+00 0.0000000000e+00 0.0000000000e+00 
          0.0000000000e+00 0.0000000000e+00 0.0000000000e+00 
          0.0000000000e+00 0.0000000000e+00 0.0000000000e+00 
          0.0000000000e+00 0.0000000000e+00 0.0000000000e+00 
          0.0000000000e+00 0.0000000000e+00 0.0000000000e+00 
          0.0000000000e+00 0.0000000000e+00 0.0000000000e+00 
          0.0000000000e+00 0.0000000000e+00 0.0000000000e+00 
          0.0000000000e+00 0.0000000000e+00 0.0000000000e+00 
          0.0000000000e+00 0.0000000000e+00 0.0000000000e+00 
          0.0000000000e+00 0.0000000000e+00 0.0000000000e+00 
          0.0000000000e+00 0.0000000000e+00 0.0000000000e+00 
          0.0000000000e+00 0.0000000000e+00 0.0000000000e+00 
          0.0000000000e+00 0.0000000000e+00 0.0000000000e+00 
          0.0000000000e+00 0.0000000000e+00 0.0000000000e+00 
          0.0000000000e+00 0.0000000000e+00 0.0000000000e+00 
          0.0000000000e+00 0.0000000000e+00 0.0000000000e+00 
          0.0000000000e+00 0.0000000000e+00 0.0000000000e+00 
          0.0000000000e+00 0.0000000000e+00 0.0000000000e+00 
          0.0000000000e+00 0.0000000000e+00 0.0000000000e+00 
          0.0000000000e+00 0.0000000000e+00 0.0000000000e+00 
          0.0000000000e+00 0.0000000000e+00 0.0000000000e+00 
          0.0000000000e+00 0.0000000000e+00 0.0000000000e+00 
          0.0000000000e+00 0.0000000000e+00 0.0000000000e+00 
          0.0000000000e+00 0.0000000000e+00 0.0000000000e+00 
          0.0000000000e+00 0.0000000000e+00 0.0000000000e+00 
          0.0000000000e+00 0.0000000000e+00 0.0000000000e+00 
          0.0000000000e+00 0.0000000000e+00 0.0000000000e+00 
          0.0000000000e+00 0.0000000000e+00 0.0000000000e+00 
          0.0000000000e+00 0.0000000000e+00 0.0000000000e+00 
          0.0000000000e+00 0.0000000000e+00 0.0000000000e+00 
          0.0000000000e+00 0.0000000000e+00 0.0000000000e+00 
          0.0000000000e+00 0.0000000000e+00 0.0000000000e+00 
          0.0000000000e+00 0.0000000000e+00 0.0000000000e+00 
          0.0000000000e+00 0.0000000000e+00 0.0000000000e+00 
          0.0000000000e+00 0.0000000000e+00 0.0000000000e+00 
        </DataArray>
      </PointData>
      <CellData>
        <DataArray type="Int64" Name="ElementTag" format="ascii">
          0
        </DataArray>
      </CellData>
    </Piece>
  </UnstructuredGrid>
</VTKFile>
