<?xml version="1.0"?>
<VTKFile type="UnstructuredGrid" version="1.0" byte_order="LittleEndian" compressor="vtkZLibDataCompressor">
  <UnstructuredGrid>
    <Piece NumberOfPoints="82" NumberOfCells="1">
      <Points>
        <DataArray type="Float64" Name="Points" NumberOfComponents="3" format="ascii">
          0.0000000000e+00 0.0000000000e+00 0.0000000000e+00 
          2.5000000000e-01 0.0000000000e+00 0.0000000000e+00 
          2.5000000000e-01 3.0000000000e+01 0.0000000000e+00 
          0.0000000000e+00 3.0000000000e+01 0.0000000000e+00 
          0.0000000000e+00 -5.0000000000e+00 0.0000000000e+00 
          2.5000000000e-01 -5.0000000000e+00 0.0000000000e+00 
          2.5000000000e-01 7.6923100000e-01 0.0000000000e+00 
          2.5000000000e-01 1.5384620000e+00 0.0000000000e+00 
          2.5000000000e-01 2.3076920000e+00 0.0000000000e+00 
          2.5000000000e-01 3.0769230000e+00 0.0000000000e+00 
          2.5000000000e-01 3.8461540000e+00 0.0000000000e+00 
          2.5000000000e-01 4.6153850000e+00 0.0000000000e+00 
          2.5000000000e-01 5.3846150000e+00 0.0000000000e+00 
          2.5000000000e-01 6.1538460000e+00 0.0000000000e+00 
          2.5000000000e-01 6.9230770000e+00 0.0000000000e+00 
          2.5000000000e-01 7.6923080000e+00 0.0000000000e+00 
          2.5000000000e-01 8.4615380000e+00 0.0000000000e+00 
          2.5000000000e-01 9.2307690000e+00 0.0000000000e+00 
          2.5000000000e-01 1.0000000000e+01 0.0000000000e+00 
          2.5000000000e-01 1.0769231000e+01 0.0000000000e+00 
          2.5000000000e-01 1.1538462000e+01 0.0000000000e+00 
          2.5000000000e-01 1.2307692000e+01 0.0000000000e+00 
          2.5000000000e-01 1.3076923000e+01 0.0000000000e+00 
          2.5000000000e-01 1.3846154000e+01 0.0000000000e+00 
          2.5000000000e-01 1.4615385000e+01 0.0000000000e+00 
          2.5000000000e-01 1.5384615000e+01 0.0000000000e+00 
          2.5000000000e-01 1.6153846000e+01 0.0000000000e+00 
          2.5000000000e-01 1.6923077000e+01 0.0000000000e+00 
          2.5000000000e-01 1.7692308000e+01 0.0000000000e+00 
          2.5000000000e-01 1.8461538000e+01 0.0000000000e+00 
          2.5000000000e-01 1.9230769000e+01 0.0000000000e+00 
          2.5000000000e-01 2.0000000000e+01 0.0000000000e+00 
          2.5000000000e-01 2.0769231000e+01 0.0000000000e+00 
          2.5000000000e-01 2.1538462000e+01 0.0000000000e+00 
          2.5000000000e-01 2.2307692000e+01 0.0000000000e+00 
          2.5000000000e-01 2.3076923000e+01 0.0000000000e+00 
          2.5000000000e-01 2.3846154000e+01 0.0000000000e+00 
          2.5000000000e-01 2.4615385000e+01 0.0000000000e+00 
          2.5000000000e-01 2.5384615000e+01 0.0000000000e+00 
          2.5000000000e-01 2.6153846000e+01 0.0000000000e+00 
          2.5000000000e-01 2.6923077000e+01 0.0000000000e+00 
          2.5000000000e-01 2.7692308000e+01 0.0000000000e+00 
          2.5000000000e-01 2.8461538000e+01 0.0000000000e+00 
          2.5000000000e-01 2.9230769000e+01 0.0000000000e+00 
          0.0000000000e+00 7.6923100000e-01 0.0000000000e+00 
          0.0000000000e+00 1.5384620000e+00 0.0000000000e+00 
          0.0000000000e+00 2.3076920000e+00 0.0000000000e+00 
          0.0000000000e+00 3.0769230000e+00 0.0000000000e+00 
          0.0000000000e+00 3.8461540000e+00 0.0000000000e+00 
          0.0000000000e+00 4.6153850000e+00 0.0000000000e+00 
          0.0000000000e+00 5.3846150000e+00 0.0000000000e+00 
          0.0000000000e+00 6.1538460000e+00 0.0000000000e+00 
          0.0000000000e+00 6.9230770000e+00 0.0000000000e+00 
          0.0000000000e+00 7.6923080000e+00 0.0000000000e+00 
          0.0000000000e+00 8.4615380000e+00 0.0000000000e+00 
          0.0000000000e+00 9.2307690000e+00 0.0000000000e+00 
          0.0000000000e+00 1.0000000000e+01 0.0000000000e+00 
          0.0000000000e+00 1.0769231000e+01 0.0000000000e+00 
          0.0000000000e+00 1.1538462000e+01 0.0000000000e+00 
          0.0000000000e+00 1.2307692000e+01 0.0000000000e+00 
          0.0000000000e+00 1.3076923000e+01 0.0000000000e+00 
          0.0000000000e+00 1.3846154000e+01 0.0000000000e+00 
          0.0000000000e+00 1.4615385000e+01 0.0000000000e+00 
          0.0000000000e+00 1.5384615000e+01 0.0000000000e+00 
          0.0000000000e+00 1.6153846000e+01 0.0000000000e+00 
          0.0000000000e+00 1.6923077000e+01 0.0000000000e+00 
          0.0000000000e+00 1.7692308000e+01 0.0000000000e+00 
          0.0000000000e+00 1.8461538000e+01 0.0000000000e+00 
          0.0000000000e+00 1.9230769000e+01 0.0000000000e+00 
          0.0000000000e+00 2.0000000000e+01 0.0000000000e+00 
          0.0000000000e+00 2.0769231000e+01 0.0000000000e+00 
          0.0000000000e+00 2.1538462000e+01 0.0000000000e+00 
          0.0000000000e+00 2.2307692000e+01 0.0000000000e+00 
          0.0000000000e+00 2.3076923000e+01 0.0000000000e+00 
          0.0000000000e+00 2.3846154000e+01 0.0000000000e+00 
          0.0000000000e+00 2.4615385000e+01 0.0000000000e+00 
          0.0000000000e+00 2.5384615000e+01 0.0000000000e+00 
          0.0000000000e+00 2.6153846000e+01 0.0000000000e+00 
          0.0000000000e+00 2.6923077000e+01 0.0000000000e+00 
          0.0000000000e+00 2.7692308000e+01 0.0000000000e+00 
          0.0000000000e+00 2.8461538000e+01 0.0000000000e+00 
          0.0000000000e+00 2.9230769000e+01 0.0000000000e+00 
        </DataArray>
      </Points>
      <Cells>
        <DataArray type="Int64" Name="connectivity" format="ascii">
          0
          1
          2
          3
          4
          5
          6
          7
          8
          9
          10
          11
          12
          13
          14
          15
          16
          17
          18
          19
          20
          21
          22
          23
          24
          25
          26
          27
          28
          29
          30
          31
          32
          33
          34
          35
          36
          37
          38
          39
          40
          41
          42
          43
          44
          45
          46
          47
          48
          49
          50
          51
          52
          53
          54
          55
          56
          57
          58
          59
          60
          61
          62
          63
          64
          65
          66
          67
          68
          69
          70
          71
          72
          73
          74
          75
          76
          77
          78
          79
          80
          81
        </DataArray>
        <DataArray type="Int64" Name="offsets" format="ascii">
          82
        </DataArray>
        <DataArray type="Int64" Name="types" format="ascii">
          2
        </DataArray>
      </Cells>
      <PointData>
        <DataArray type="Int64" Name="NodeTag" format="ascii">
          1
          2
          3
          4
          5
          6
          7
          8
          9
          10
          11
          12
          13
          14
          15
          16
          17
          18
          19
          20
          21
          22
          23
          24
          25
          26
          27
          28
          29
          30
          31
          32
          33
          34
          35
          36
          37
          38
          39
          40
          41
          42
          43
          44
          45
          46
          47
          48
          49
          50
          51
          52
          53
          54
          55
          56
          57
          58
          59
          60
          61
          62
          63
          64
          65
          66
          67
          68
          69
          70
          71
          72
          73
          74
          75
          76
          77
          78
          79
          80
          81
          82
        </DataArray>
        <DataArray type="Float64" Name="Velocity" NumberOfComponents="3" format="ascii">
          -8.0602437268e-05 -7.7848216680e-05 0.0000000000e+00 
          -8.0602437268e-05 -7.7848216680e-05 0.0000000000e+00 
          1.1979292856e-03 -7.7806815349e-05 0.0000000000e+00 
          1.1979292856e-03 -7.7806815349e-05 0.0000000000e+00 
          0.0000000000e+00 0.0000000000e+00 0.0000000000e+00 
          0.0000000000e+00 0.0000000000e+00 0.0000000000e+00 
          -2.9184806463e-05 -7.7862333569e-05 0.0000000000e+00 
          2.2179722524e-05 -7.7834935144e-05 0.0000000000e+00 
          7.3398879677e-05 -7.7830887244e-05 0.0000000000e+00 
          1.2438810405e-04 -7.7860953350e-05 0.0000000000e+00 
          1.7506578897e-04 -7.7851013164e-05 0.0000000000e+00 
          2.2533681893e-04 -7.7811784959e-05 0.0000000000e+00 
          2.7512462318e-04 -7.7869211822e-05 0.0000000000e+00 
          3.2434904669e-04 -7.7835473074e-05 0.0000000000e+00 
          3.7290633271e-04 -7.7847275434e-05 0.0000000000e+00 
          4.2074886770e-04 -7.7822055750e-05 0.0000000000e+00 
          4.6776396556e-04 -7.7859080618e-05 0.0000000000e+00 
          5.1389293171e-04 -7.7846915478e-05 0.0000000000e+00 
          5.5906169280e-04 -7.7804633596e-05 0.0000000000e+00 
          6.0316886113e-04 -7.7878270288e-05 0.0000000000e+00 
          6.4618422240e-04 -7.7810199336e-05 0.0000000000e+00 
          6.8799672759e-04 -7.7829984660e-05 0.0000000000e+00 
          7.2855796640e-04 -7.7887232787e-05 0.0000000000e+00 
          7.6780924574e-04 -7.7764144878e-05 0.0000000000e+00 
          8.0565716858e-04 -7.7897776652e-05 0.0000000000e+00 
          8.4207935708e-04 -7.7796086372e-05 0.0000000000e+00 
          8.7698223767e-04 -7.7852583684e-05 0.0000000000e+00 
          9.1032924940e-04 -7.7832310440e-05 0.0000000000e+00 
          9.4206800195e-04 -7.7818022453e-05 0.0000000000e+00 
          9.7212846403e-04 -7.7870600322e-05 0.0000000000e+00 
          1.0004913213e-03 -7.7783359532e-05 0.0000000000e+00 
          1.0270858103e-03 -7.7878017324e-05 0.0000000000e+00 
          1.0518830667e-03 -7.7804994965e-05 0.0000000000e+00 
          1.0748439852e-03 -7.7839925343e-05 0.0000000000e+00 
          1.0959299364e-03 -7.7826641166e-05 0.0000000000e+00 
          1.1151031295e-03 -7.7851726892e-05 0.0000000000e+00 
          1.1323444745e-03 -7.7788144065e-05 0.0000000000e+00 
          1.1476195066e-03 -7.7876487864e-05 0.0000000000e+00 
          1.1609006069e-03 -7.7808239428e-05 0.0000000000e+00 
          1.1721828757e-03 -7.7811901418e-05 0.0000000000e+00 
          1.1814294617e-03 -7.7882375387e-05 0.0000000000e+00 
          1.1886399097e-03 -7.7776689970e-05 0.0000000000e+00 
          1.1937983935e-03 -7.7857890515e-05 0.0000000000e+00 
          1.1968947311e-03 -7.7838040809e-05 0.0000000000e+00 
          -2.9184806463e-05 -7.7862333569e-05 0.0000000000e+00 
          2.2179722524e-05 -7.7834935144e-05 0.0000000000e+00 
          7.3398879677e-05 -7.7830887244e-05 0.0000000000e+00 
          1.2438810405e-04 -7.7860953350e-05 0.0000000000e+00 
          1.7506578897e-04 -7.7851013164e-05 0.0000000000e+00 
          2.2533681893e-04 -7.7811784959e-05 0.0000000000e+00 
          2.7512462318e-04 -7.7869211822e-05 0.0000000000e+00 
          3.2434904669e-04 -7.7835473074e-05 0.0000000000e+00 
          3.7290633271e-04 -7.7847275434e-05 0.0000000000e+00 
          4.2074886770e-04 -7.7822055750e-05 0.0000000000e+00 
          4.6776396556e-04 -7.7859080618e-05 0.0000000000e+00 
          5.1389293171e-04 -7.7846915478e-05 0.0000000000e+00 
          5.5906169280e-04 -7.7804633596e-05 0.0000000000e+00 
          6.0316886113e-04 -7.7878270288e-05 0.0000000000e+00 
          6.4618422240e-04 -7.7810199336e-05 0.0000000000e+00 
          6.8799672759e-04 -7.7829984660e-05 0.0000000000e+00 
          7.2855796640e-04 -7.7887232787e-05 0.0000000000e+00 
          7.6780924574e-04 -7.7764144878e-05 0.0000000000e+00 
          8.0565716858e-04 -7.7897776652e-05 0.0000000000e+00 
          8.4207935708e-04 -7.7796086372e-05 0.0000000000e+00 
          8.7698223767e-04 -7.7852583684e-05 0.0000000000e+00 
          9.1032924940e-04 -7.7832310440e-05 0.0000000000e+00 
          9.4206800195e-04 -7.7818022453e-05 0.0000000000e+00 
          9.7212846403e-04 -7.7870600322e-05 0.0000000000e+00 
          1.0004913213e-03 -7.7783359532e-05 0.0000000000e+00 
          1.0270858103e-03 -7.7878017324e-05 0.0000000000e+00 
          1.0518830667e-03 -7.7804994965e-05 0.0000000000e+00 
          1.0748439852e-03 -7.7839925343e-05 0.0000000000e+00 
          1.0959299364e-03 -7.7826641166e-05 0.0000000000e+00 
          1.1151031295e-03 -7.7851726892e-05 0.0000000000e+00 
          1.1323444745e-03 -7.7788144065e-05 0.0000000000e+00 
          1.1476195066e-03 -7.7876487864e-05 0.0000000000e+00 
          1.1609006069e-03 -7.7808239428e-05 0.0000000000e+00 
          1.1721828757e-03 -7.7811901418e-05 0.0000000000e+00 
          1.1814294617e-03 -7.7882375387e-05 0.0000000000e+00 
          1.1886399097e-03 -7.7776689970e-05 0.0000000000e+00 
          1.1937983935e-03 -7.7857890515e-05 0.0000000000e+00 
          1.1968947311e-03 -7.7838040809e-05 0.0000000000e+00 
        </DataArray>
        <DataArray type="Float64" Name="Displacement" NumberOfComponents="3" format="ascii">
          -1.9117740349e-05 -4.7691953480e-04 0.0000000000e+00 
          -1.9117740349e-05 -4.7691953480e-04 0.0000000000e+00 
          -4.4390012070e-05 -5.0050015484e-04 0.0000000000e+00 
          -4.4390012070e-05 -5.0050015484e-04 0.0000000000e+00 
          0.0000000000e+00 0.0000000000e+00 0.0000000000e+00 
          0.0000000000e+00 0.0000000000e+00 0.0000000000e+00 
          -2.0439104062e-05 -4.7811334006e-04 0.0000000000e+00 
          -2.1725605689e-05 -4.7927598181e-04 0.0000000000e+00 
          -2.2976837598e-05 -4.8040786370e-04 0.0000000000e+00 
          -2.4192388954e-05 -4.8150846397e-04 0.0000000000e+00 
          -2.5371958486e-05 -4.8257828145e-04 0.0000000000e+00 
          -2.6515265902e-05 -4.8361700997e-04 0.0000000000e+00 
          -2.7622084466e-05 -4.8462463621e-04 0.0000000000e+00 
          -2.8692264494e-05 -4.8560149992e-04 0.0000000000e+00 
          -2.9725683929e-05 -4.8654703900e-04 0.0000000000e+00 
          -3.0722271365e-05 -4.8746183618e-04 0.0000000000e+00 
          -3.1682011614e-05 -4.8834553312e-04 0.0000000000e+00 
          -3.2604920295e-05 -4.8919815560e-04 0.0000000000e+00 
          -3.3491070708e-05 -4.9001989975e-04 0.0000000000e+00 
          -3.4340562822e-05 -4.9081049365e-04 0.0000000000e+00 
          -3.5153538665e-05 -4.9157026488e-04 0.0000000000e+00 
          -3.5930152791e-05 -4.9229882439e-04 0.0000000000e+00 
          -3.6670641215e-05 -4.9299651346e-04 0.0000000000e+00 
          -3.7375219627e-05 -4.9366319576e-04 0.0000000000e+00 
          -3.8044125065e-05 -4.9429878922e-04 0.0000000000e+00 
          -3.8677667818e-05 -4.9490343228e-04 0.0000000000e+00 
          -3.9276103956e-05 -4.9547710869e-04 0.0000000000e+00 
          -3.9839773016e-05 -4.9601966626e-04 0.0000000000e+00 
          -4.0368972944e-05 -4.9653131136e-04 0.0000000000e+00 
          -4.0864005492e-05 -4.9701196701e-04 0.0000000000e+00 
          -4.1325243044e-05 -4.9746147390e-04 0.0000000000e+00 
          -4.1752967886e-05 -4.9788013706e-04 0.0000000000e+00 
          -4.2147509128e-05 -4.9826774975e-04 0.0000000000e+00 
          -4.2509194375e-05 -4.9862421619e-04 0.0000000000e+00 
          -4.2838293301e-05 -4.9894995370e-04 0.0000000000e+00 
          -4.3135110972e-05 -4.9924438710e-04 0.0000000000e+00 
          -4.3399915293e-05 -4.9950801830e-04 0.0000000000e+00 
          -4.3632941222e-05 -4.9974056161e-04 0.0000000000e+00 
          -4.3834426584e-05 -4.9994209366e-04 0.0000000000e+00 
          -4.4004559516e-05 -5.0011264450e-04 0.0000000000e+00 
          -4.4143519156e-05 -5.0025217818e-04 0.0000000000e+00 
          -4.4251449849e-05 -5.0036071657e-04 0.0000000000e+00 
          -4.4328456901e-05 -5.0043817903e-04 0.0000000000e+00 
          -4.4374633587e-05 -5.0048479400e-04 0.0000000000e+00 
          -2.0439104062e-05 -4.7811334006e-04 0.0000000000e+00 
          -2.1725605689e-05 -4.7927598181e-04 0.0000000000e+00 
          -2.2976837598e-05 -4.8040786370e-04 0.0000000000e+00 
          -2.4192388954e-05 -4.8150846397e-04 0.0000000000e+00 
          -2.5371958486e-05 -4.8257828145e-04 0.0000000000e+00 
          -2.6515265902e-05 -4.8361700997e-04 0.0000000000e+00 
          -2.7622084466e-05 -4.8462463621e-04 0.0000000000e+00 
          -2.8692264494e-05 -4.8560149992e-04 0.0000000000e+00 
          -2.9725683929e-05 -4.8654703900e-04 0.0000000000e+00 
          -3.0722271365e-05 -4.8746183618e-04 0.0000000000e+00 
          -3.1682011614e-05 -4.8834553312e-04 0.0000000000e+00 
          -3.2604920295e-05 -4.8919815560e-04 0.0000000000e+00 
          -3.3491070708e-05 -4.9001989975e-04 0.0000000000e+00 
          -3.4340562822e-05 -4.9081049365e-04 0.0000000000e+00 
          -3.5153538665e-05 -4.9157026488e-04 0.0000000000e+00 
          -3.5930152791e-05 -4.9229882439e-04 0.0000000000e+00 
          -3.6670641215e-05 -4.9299651346e-04 0.0000000000e+00 
          -3.7375219627e-05 -4.9366319576e-04 0.0000000000e+00 
          -3.8044125065e-05 -4.9429878922e-04 0.0000000000e+00 
          -3.8677667818e-05 -4.9490343228e-04 0.0000000000e+00 
          -3.9276103956e-05 -4.9547710869e-04 0.0000000000e+00 
          -3.9839773016e-05 -4.9601966626e-04 0.0000000000e+00 
          -4.0368972944e-05 -4.9653131136e-04 0.0000000000e+00 
          -4.0864005492e-05 -4.9701196701e-04 0.0000000000e+00 
          -4.1325243044e-05 -4.9746147390e-04 0.0000000000e+00 
          -4.1752967886e-05 -4.9788013706e-04 0.0000000000e+00 
          -4.2147509128e-05 -4.9826774975e-04 0.0000000000e+00 
          -4.2509194375e-05 -4.9862421619e-04 0.0000000000e+00 
          -4.2838293301e-05 -4.9894995370e-04 0.0000000000e+00 
          -4.3135110972e-05 -4.9924438710e-04 0.0000000000e+00 
          -4.3399915293e-05 -4.9950801830e-04 0.0000000000e+00 
          -4.3632941222e-05 -4.9974056161e-04 0.0000000000e+00 
          -4.3834426584e-05 -4.9994209366e-04 0.0000000000e+00 
          -4.4004559516e-05 -5.0011264450e-04 0.0000000000e+00 
          -4.4143519156e-05 -5.0025217818e-04 0.0000000000e+00 
          -4.4251449849e-05 -5.0036071657e-04 0.0000000000e+00 
          -4.4328456901e-05 -5.0043817903e-04 0.0000000000e+00 
          -4.4374633587e-05 -5.0048479400e-04 0.0000000000e+00 
        </DataArray>
        <DataArray type="Float64" Name="Acceleration" NumberOfComponents="3" format="ascii">
          3.0952243020e-03 -1.2301972234e-06 0.0000000000e+00 
          3.0952243020e-03 -1.2301972234e-06 0.0000000000e+00 
          2.7712634598e-03 -5.1298825695e-05 0.0000000000e+00 
          2.7712634598e-03 -5.1298825695e-05 0.0000000000e+00 
          0.0000000000e+00 0.0000000000e+00 0.0000000000e+00 
          0.0000000000e+00 0.0000000000e+00 0.0000000000e+00 
          3.1411427579e-03 2.8324019852e-05 0.0000000000e+00 
          3.1777267830e-03 -4.4676408560e-05 0.0000000000e+00 
          3.2150369730e-03 4.9873604449e-05 0.0000000000e+00 
          3.2420333851e-03 -4.0282526352e-05 0.0000000000e+00 
          3.2672882532e-03 1.4888184015e-05 0.0000000000e+00 
          3.2875900636e-03 1.7058327636e-05 0.0000000000e+00 
          3.3013363171e-03 -4.3696063590e-05 0.0000000000e+00 
          3.3122020106e-03 5.7356112377e-05 0.0000000000e+00 
          3.3186358371e-03 -4.7651106717e-05 0.0000000000e+00 
          3.3198940493e-03 1.6718254545e-05 0.0000000000e+00 
          3.3187115532e-03 1.2485919569e-05 0.0000000000e+00 
          3.3119925931e-03 -2.3066764152e-05 0.0000000000e+00 
          3.3029851153e-03 2.5933802701e-05 0.0000000000e+00 
          3.2901881941e-03 -3.3097356841e-05 0.0000000000e+00 
          3.2761736307e-03 3.6844458736e-05 0.0000000000e+00 
          3.2550901001e-03 -2.4317178167e-05 0.0000000000e+00 
          3.2355630567e-03 7.9548857057e-08 0.0000000000e+00 
          3.2142053861e-03 1.4867312969e-05 0.0000000000e+00 
          3.1861756977e-03 -1.0218551072e-05 0.0000000000e+00 
          3.1632514998e-03 -7.0044304082e-06 0.0000000000e+00 
          3.1325824919e-03 2.0270360989e-05 0.0000000000e+00 
          3.1057367435e-03 -1.6912216909e-05 0.0000000000e+00 
          3.0784925252e-03 -3.1546690529e-06 0.0000000000e+00 
          3.0450558111e-03 2.5782770156e-05 0.0000000000e+00 
          3.0195613458e-03 -2.9302889598e-05 0.0000000000e+00 
          2.9899079114e-03 7.9525978233e-06 0.0000000000e+00 
          2.9603899605e-03 2.5213629413e-05 0.0000000000e+00 
          2.9360553192e-03 -5.0061486976e-05 0.0000000000e+00 
          2.9086452496e-03 5.3738131629e-05 0.0000000000e+00 
          2.8844660110e-03 -3.6785287646e-05 0.0000000000e+00 
          2.8632959222e-03 1.4695616309e-05 0.0000000000e+00 
          2.8418456727e-03 8.4225244124e-07 0.0000000000e+00 
          2.8249412001e-03 -4.4742538435e-06 0.0000000000e+00 
          2.8087752143e-03 1.9480315950e-06 0.0000000000e+00 
          2.7957693461e-03 -1.9891016642e-06 0.0000000000e+00 
          2.7862740032e-03 1.2524698178e-05 0.0000000000e+00 
          2.7778876732e-03 -2.8602514891e-05 0.0000000000e+00 
          2.7749788420e-03 4.4654899039e-05 0.0000000000e+00 
          3.1411427579e-03 2.8324019852e-05 0.0000000000e+00 
          3.1777267830e-03 -4.4676408560e-05 0.0000000000e+00 
          3.2150369730e-03 4.9873604449e-05 0.0000000000e+00 
          3.2420333851e-03 -4.0282526352e-05 0.0000000000e+00 
          3.2672882532e-03 1.4888184015e-05 0.0000000000e+00 
          3.2875900636e-03 1.7058327636e-05 0.0000000000e+00 
          3.3013363171e-03 -4.3696063590e-05 0.0000000000e+00 
          3.3122020106e-03 5.7356112377e-05 0.0000000000e+00 
          3.3186358371e-03 -4.7651106717e-05 0.0000000000e+00 
          3.3198940493e-03 1.6718254545e-05 0.0000000000e+00 
          3.3187115532e-03 1.2485919569e-05 0.0000000000e+00 
          3.3119925931e-03 -2.3066764152e-05 0.0000000000e+00 
          3.3029851153e-03 2.5933802701e-05 0.0000000000e+00 
          3.2901881941e-03 -3.3097356841e-05 0.0000000000e+00 
          3.2761736307e-03 3.6844458736e-05 0.0000000000e+00 
          3.2550901001e-03 -2.4317178167e-05 0.0000000000e+00 
          3.2355630567e-03 7.9548857057e-08 0.0000000000e+00 
          3.2142053861e-03 1.4867312969e-05 0.0000000000e+00 
          3.1861756977e-03 -1.0218551072e-05 0.0000000000e+00 
          3.1632514998e-03 -7.0044304082e-06 0.0000000000e+00 
          3.1325824919e-03 2.0270360989e-05 0.0000000000e+00 
          3.1057367435e-03 -1.6912216909e-05 0.0000000000e+00 
          3.0784925252e-03 -3.1546690529e-06 0.0000000000e+00 
          3.0450558111e-03 2.5782770156e-05 0.0000000000e+00 
          3.0195613458e-03 -2.9302889598e-05 0.0000000000e+00 
          2.9899079114e-03 7.9525978233e-06 0.0000000000e+00 
          2.9603899605e-03 2.5213629413e-05 0.0000000000e+00 
          2.9360553192e-03 -5.0061486976e-05 0.0000000000e+00 
          2.9086452496e-03 5.3738131629e-05 0.0000000000e+00 
          2.8844660110e-03 -3.6785287646e-05 0.0000000000e+00 
          2.8632959222e-03 1.4695616309e-05 0.0000000000e+00 
          2.8418456727e-03 8.4225244124e-07 0.0000000000e+00 
          2.8249412001e-03 -4.4742538435e-06 0.0000000000e+00 
          2.8087752143e-03 1.9480315950e-06 0.0000000000e+00 
          2.7957693461e-03 -1.9891016642e-06 0.0000000000e+00 
          2.7862740032e-03 1.2524698178e-05 0.0000000000e+00 
          2.7778876732e-03 -2.8602514891e-05 0.0000000000e+00 
          2.7749788420e-03 4.4654899039e-05 0.0000000000e+00 
        </DataArray>
        <DataArray type="Float64" Name="Reaction" NumberOfComponents="3" format="ascii">
          0.0000000000e+00 0.0000000000e+00 0.0000000000e+00 
          0.0000000000e+00 0.0000000000e+00 0.0000000000e+00 
          0.0000000000e+00 0.0000000000e+00 0.0000000000e+00 
          0.0000000000e+00 0.0000000000e+00 0.0000000000e+00 
          0.0000000000e+00 0.0000000000e+00 0.0000000000e+00 
          0.0000000000e+00 0.0000000000e+00 0.0000000000e+00 
          0.0000000000e+00 0.0000000000e+00 0.0000000000e+00 
          0.0000000000e+00 0.0000000000e+00 0.0000000000e+00 
          0.0000000000e+00 0.0000000000e+00 0.0000000000e+00 
          0.0000000000e+00 0.0000000000e+00 0.0000000000e+00 
          0.0000000000e+00 0.0000000000e+00 0.0000000000e+00 
          0.0000000000e+00 0.0000000000e+00 0.0000000000e+00 
          0.0000000000e+00 0.0000000000e+00 0.0000000000e+00 
          0.0000000000e+00 0.0000000000e+00 0.0000000000e+00 
          0.0000000000e+00 0.0000000000e+00 0.0000000000e+00 
          0.0000000000e+00 0.0000000000e+00 0.0000000000e+00 
          0.0000000000e+00 0.0000000000e+00 0.0000000000e+00 
          0.0000000000e+00 0.0000000000e+00 0.0000000000e+00 
          0.0000000000e+00 0.0000000000e+00 0.0000000000e+00 
          0.0000000000e+00 0.0000000000e+00 0.0000000000e+00 
          0.0000000000e+00 0.0000000000e+00 0.0000000000e+00 
          0.0000000000e+00 0.0000000000e+00 0.0000000000e+00 
          0.0000000000e+00 0.0000000000e+00 0.0000000000e+00 
          0.0000000000e+00 0.0000000000e+00 0.0000000000e+00 
          0.0000000000e+00 0.0000000000e+00 0.0000000000e+00 
          0.0000000000e+00 0.0000000000e+00 0.0000000000e+00 
          0.0000000000e+00 0.0000000000e+00 0.0000000000e+00 
          0.0000000000e+00 0.0000000000e+00 0.0000000000e+00 
          0.0000000000e+00 0.0000000000e+00 0.0000000000e+00 
          0.0000000000e+00 0.0000000000e+00 0.0000000000e+00 
          0.0000000000e+00 0.0000000000e+00 0.0000000000e+00 
          0.0000000000e+00 0.0000000000e+00 0.0000000000e+00 
          0.0000000000e+00 0.0000000000e+00 0.0000000000e+00 
          0.0000000000e+00 0.0000000000e+00 0.0000000000e+00 
          0.0000000000e+00 0.0000000000e+00 0.0000000000e+00 
          0.0000000000e+00 0.0000000000e+00 0.0000000000e+00 
          0.0000000000e+00 0.0000000000e+00 0.0000000000e+00 
          0.0000000000e+00 0.0000000000e+00 0.0000000000e+00 
          0.0000000000e+00 0.0000000000e+00 0.0000000000e+00 
          0.0000000000e+00 0.0000000000e+00 0.0000000000e+00 
          0.0000000000e+00 0.0000000000e+00 0.0000000000e+00 
          0.0000000000e+00 0.0000000000e+00 0.0000000000e+00 
          0.0000000000e+00 0.0000000000e+00 0.0000000000e+00 
          0.0000000000e+00 0.0000000000e+00 0.0000000000e+00 
          0.0000000000e+00 0.0000000000e+00 0.0000000000e+00 
          0.0000000000e+00 0.0000000000e+00 0.0000000000e+00 
          0.0000000000e+00 0.0000000000e+00 0.0000000000e+00 
          0.0000000000e+00 0.0000000000e+00 0.0000000000e+00 
          0.0000000000e+00 0.0000000000e+00 0.0000000000e+00 
          0.0000000000e+00 0.0000000000e+00 0.0000000000e+00 
          0.0000000000e+00 0.0000000000e+00 0.0000000000e+00 
          0.0000000000e+00 0.0000000000e+00 0.0000000000e+00 
          0.0000000000e+00 0.0000000000e+00 0.0000000000e+00 
          0.0000000000e+00 0.0000000000e+00 0.0000000000e+00 
          0.0000000000e+00 0.0000000000e+00 0.0000000000e+00 
          0.0000000000e+00 0.0000000000e+00 0.0000000000e+00 
          0.0000000000e+00 0.0000000000e+00 0.0000000000e+00 
          0.0000000000e+00 0.0000000000e+00 0.0000000000e+00 
          0.0000000000e+00 0.0000000000e+00 0.0000000000e+00 
          0.0000000000e+00 0.0000000000e+00 0.0000000000e+00 
          0.0000000000e+00 0.0000000000e+00 0.0000000000e+00 
          0.0000000000e+00 0.0000000000e+00 0.0000000000e+00 
          0.0000000000e+00 0.0000000000e+00 0.0000000000e+00 
          0.0000000000e+00 0.0000000000e+00 0.0000000000e+00 
          0.0000000000e+00 0.0000000000e+00 0.0000000000e+00 
          0.0000000000e+00 0.0000000000e+00 0.0000000000e+00 
          0.0000000000e+00 0.0000000000e+00 0.0000000000e+00 
          0.0000000000e+00 0.0000000000e+00 0.0000000000e+00 
          0.0000000000e+00 0.0000000000e+00 0.0000000000e+00 
          0.0000000000e+00 0.0000000000e+00 0.0000000000e+00 
          0.0000000000e+00 0.0000000000e+00 0.0000000000e+00 
          0.0000000000e+00 0.0000000000e+00 0.0000000000e+00 
          0.0000000000e+00 0.0000000000e+00 0.0000000000e+00 
          0.0000000000e+00 0.0000000000e+00 0.0000000000e+00 
          0.0000000000e+00 0.0000000000e+00 0.0000000000e+00 
          0.0000000000e+00 0.0000000000e+00 0.0000000000e+00 
          0.0000000000e+00 0.0000000000e+00 0.0000000000e+00 
          0.0000000000e+00 0.0000000000e+00 0.0000000000e+00 
          0.0000000000e+00 0.0000000000e+00 0.0000000000e+00 
          0.0000000000e+00 0.0000000000e+00 0.0000000000e+00 
          0.0000000000e+00 0.0000000000e+00 0.0000000000e+00 
          0.0000000000e+00 0.0000000000e+00 0.0000000000e+00 
        </DataArray>
      </PointData>
      <CellData>
        <DataArray type="Int64" Name="ElementTag" format="ascii">
          0
        </DataArray>
      </CellData>
    </Piece>
  </UnstructuredGrid>
</VTKFile>
