<?xml version="1.0"?>
<VTKFile type="UnstructuredGrid" version="1.0" byte_order="LittleEndian" compressor="vtkZLibDataCompressor">
  <UnstructuredGrid>
    <Piece NumberOfPoints="82" NumberOfCells="1">
      <Points>
        <DataArray type="Float64" Name="Points" NumberOfComponents="3" format="ascii">
          0.0000000000e+00 0.0000000000e+00 0.0000000000e+00 
          2.5000000000e-01 0.0000000000e+00 0.0000000000e+00 
          2.5000000000e-01 3.0000000000e+01 0.0000000000e+00 
          0.0000000000e+00 3.0000000000e+01 0.0000000000e+00 
          0.0000000000e+00 -5.0000000000e+00 0.0000000000e+00 
          2.5000000000e-01 -5.0000000000e+00 0.0000000000e+00 
          2.5000000000e-01 7.6923100000e-01 0.0000000000e+00 
          2.5000000000e-01 1.5384620000e+00 0.0000000000e+00 
          2.5000000000e-01 2.3076920000e+00 0.0000000000e+00 
          2.5000000000e-01 3.0769230000e+00 0.0000000000e+00 
          2.5000000000e-01 3.8461540000e+00 0.0000000000e+00 
          2.5000000000e-01 4.6153850000e+00 0.0000000000e+00 
          2.5000000000e-01 5.3846150000e+00 0.0000000000e+00 
          2.5000000000e-01 6.1538460000e+00 0.0000000000e+00 
          2.5000000000e-01 6.9230770000e+00 0.0000000000e+00 
          2.5000000000e-01 7.6923080000e+00 0.0000000000e+00 
          2.5000000000e-01 8.4615380000e+00 0.0000000000e+00 
          2.5000000000e-01 9.2307690000e+00 0.0000000000e+00 
          2.5000000000e-01 1.0000000000e+01 0.0000000000e+00 
          2.5000000000e-01 1.0769231000e+01 0.0000000000e+00 
          2.5000000000e-01 1.1538462000e+01 0.0000000000e+00 
          2.5000000000e-01 1.2307692000e+01 0.0000000000e+00 
          2.5000000000e-01 1.3076923000e+01 0.0000000000e+00 
          2.5000000000e-01 1.3846154000e+01 0.0000000000e+00 
          2.5000000000e-01 1.4615385000e+01 0.0000000000e+00 
          2.5000000000e-01 1.5384615000e+01 0.0000000000e+00 
          2.5000000000e-01 1.6153846000e+01 0.0000000000e+00 
          2.5000000000e-01 1.6923077000e+01 0.0000000000e+00 
          2.5000000000e-01 1.7692308000e+01 0.0000000000e+00 
          2.5000000000e-01 1.8461538000e+01 0.0000000000e+00 
          2.5000000000e-01 1.9230769000e+01 0.0000000000e+00 
          2.5000000000e-01 2.0000000000e+01 0.0000000000e+00 
          2.5000000000e-01 2.0769231000e+01 0.0000000000e+00 
          2.5000000000e-01 2.1538462000e+01 0.0000000000e+00 
          2.5000000000e-01 2.2307692000e+01 0.0000000000e+00 
          2.5000000000e-01 2.3076923000e+01 0.0000000000e+00 
          2.5000000000e-01 2.3846154000e+01 0.0000000000e+00 
          2.5000000000e-01 2.4615385000e+01 0.0000000000e+00 
          2.5000000000e-01 2.5384615000e+01 0.0000000000e+00 
          2.5000000000e-01 2.6153846000e+01 0.0000000000e+00 
          2.5000000000e-01 2.6923077000e+01 0.0000000000e+00 
          2.5000000000e-01 2.7692308000e+01 0.0000000000e+00 
          2.5000000000e-01 2.8461538000e+01 0.0000000000e+00 
          2.5000000000e-01 2.9230769000e+01 0.0000000000e+00 
          0.0000000000e+00 7.6923100000e-01 0.0000000000e+00 
          0.0000000000e+00 1.5384620000e+00 0.0000000000e+00 
          0.0000000000e+00 2.3076920000e+00 0.0000000000e+00 
          0.0000000000e+00 3.0769230000e+00 0.0000000000e+00 
          0.0000000000e+00 3.8461540000e+00 0.0000000000e+00 
          0.0000000000e+00 4.6153850000e+00 0.0000000000e+00 
          0.0000000000e+00 5.3846150000e+00 0.0000000000e+00 
          0.0000000000e+00 6.1538460000e+00 0.0000000000e+00 
          0.0000000000e+00 6.9230770000e+00 0.0000000000e+00 
          0.0000000000e+00 7.6923080000e+00 0.0000000000e+00 
          0.0000000000e+00 8.4615380000e+00 0.0000000000e+00 
          0.0000000000e+00 9.2307690000e+00 0.0000000000e+00 
          0.0000000000e+00 1.0000000000e+01 0.0000000000e+00 
          0.0000000000e+00 1.0769231000e+01 0.0000000000e+00 
          0.0000000000e+00 1.1538462000e+01 0.0000000000e+00 
          0.0000000000e+00 1.2307692000e+01 0.0000000000e+00 
          0.0000000000e+00 1.3076923000e+01 0.0000000000e+00 
          0.0000000000e+00 1.3846154000e+01 0.0000000000e+00 
          0.0000000000e+00 1.4615385000e+01 0.0000000000e+00 
          0.0000000000e+00 1.5384615000e+01 0.0000000000e+00 
          0.0000000000e+00 1.6153846000e+01 0.0000000000e+00 
          0.0000000000e+00 1.6923077000e+01 0.0000000000e+00 
          0.0000000000e+00 1.7692308000e+01 0.0000000000e+00 
          0.0000000000e+00 1.8461538000e+01 0.0000000000e+00 
          0.0000000000e+00 1.9230769000e+01 0.0000000000e+00 
          0.0000000000e+00 2.0000000000e+01 0.0000000000e+00 
          0.0000000000e+00 2.0769231000e+01 0.0000000000e+00 
          0.0000000000e+00 2.1538462000e+01 0.0000000000e+00 
          0.0000000000e+00 2.2307692000e+01 0.0000000000e+00 
          0.0000000000e+00 2.3076923000e+01 0.0000000000e+00 
          0.0000000000e+00 2.3846154000e+01 0.0000000000e+00 
          0.0000000000e+00 2.4615385000e+01 0.0000000000e+00 
          0.0000000000e+00 2.5384615000e+01 0.0000000000e+00 
          0.0000000000e+00 2.6153846000e+01 0.0000000000e+00 
          0.0000000000e+00 2.6923077000e+01 0.0000000000e+00 
          0.0000000000e+00 2.7692308000e+01 0.0000000000e+00 
          0.0000000000e+00 2.8461538000e+01 0.0000000000e+00 
          0.0000000000e+00 2.9230769000e+01 0.0000000000e+00 
        </DataArray>
      </Points>
      <Cells>
        <DataArray type="Int64" Name="connectivity" format="ascii">
          0
          1
          2
          3
          4
          5
          6
          7
          8
          9
          10
          11
          12
          13
          14
          15
          16
          17
          18
          19
          20
          21
          22
          23
          24
          25
          26
          27
          28
          29
          30
          31
          32
          33
          34
          35
          36
          37
          38
          39
          40
          41
          42
          43
          44
          45
          46
          47
          48
          49
          50
          51
          52
          53
          54
          55
          56
          57
          58
          59
          60
          61
          62
          63
          64
          65
          66
          67
          68
          69
          70
          71
          72
          73
          74
          75
          76
          77
          78
          79
          80
          81
        </DataArray>
        <DataArray type="Int64" Name="offsets" format="ascii">
          82
        </DataArray>
        <DataArray type="Int64" Name="types" format="ascii">
          2
        </DataArray>
      </Cells>
      <PointData>
        <DataArray type="Int64" Name="NodeTag" format="ascii">
          1
          2
          3
          4
          5
          6
          7
          8
          9
          10
          11
          12
          13
          14
          15
          16
          17
          18
          19
          20
          21
          22
          23
          24
          25
          26
          27
          28
          29
          30
          31
          32
          33
          34
          35
          36
          37
          38
          39
          40
          41
          42
          43
          44
          45
          46
          47
          48
          49
          50
          51
          52
          53
          54
          55
          56
          57
          58
          59
          60
          61
          62
          63
          64
          65
          66
          67
          68
          69
          70
          71
          72
          73
          74
          75
          76
          77
          78
          79
          80
          81
          82
        </DataArray>
        <DataArray type="Float64" Name="Velocity" NumberOfComponents="3" format="ascii">
          8.0502258614e-06 -7.7847786006e-05 0.0000000000e+00 
          8.0502258614e-06 -7.7847786006e-05 0.0000000000e+00 
          -6.4519640866e-05 -7.7789354721e-05 0.0000000000e+00 
          -6.4519640866e-05 -7.7789354721e-05 0.0000000000e+00 
          0.0000000000e+00 0.0000000000e+00 0.0000000000e+00 
          0.0000000000e+00 0.0000000000e+00 0.0000000000e+00 
          5.1996332332e-06 -7.7859291726e-05 0.0000000000e+00 
          2.3408609048e-06 -7.7823708024e-05 0.0000000000e+00 
          -5.0902660363e-07 -7.7857803502e-05 0.0000000000e+00 
          -3.3550678534e-06 -7.7845801764e-05 0.0000000000e+00 
          -6.1906446511e-06 -7.7824232267e-05 0.0000000000e+00 
          -9.0029128846e-06 -7.7884001849e-05 0.0000000000e+00 
          -1.1799806104e-05 -7.7794707916e-05 0.0000000000e+00 
          -1.4565808005e-05 -7.7884248808e-05 0.0000000000e+00 
          -1.7299468331e-05 -7.7832786392e-05 0.0000000000e+00 
          -2.0000824483e-05 -7.7823112200e-05 0.0000000000e+00 
          -2.2654357619e-05 -7.7884463367e-05 0.0000000000e+00 
          -2.5267823298e-05 -7.7805701540e-05 0.0000000000e+00 
          -2.7828621114e-05 -7.7870141104e-05 0.0000000000e+00 
          -3.0330642161e-05 -7.7825773428e-05 0.0000000000e+00 
          -3.2781748623e-05 -7.7866699508e-05 0.0000000000e+00 
          -3.5159180713e-05 -7.7815374552e-05 0.0000000000e+00 
          -3.7476178239e-05 -7.7869291648e-05 0.0000000000e+00 
          -3.9718223751e-05 -7.7833598007e-05 0.0000000000e+00 
          -4.1883029028e-05 -7.7840369255e-05 0.0000000000e+00 
          -4.3971224778e-05 -7.7854046902e-05 0.0000000000e+00 
          -4.5973029623e-05 -7.7836534786e-05 0.0000000000e+00 
          -4.7889334192e-05 -7.7851117177e-05 0.0000000000e+00 
          -4.9714607467e-05 -7.7827892827e-05 0.0000000000e+00 
          -5.1446919166e-05 -7.7876773659e-05 0.0000000000e+00 
          -5.3081217268e-05 -7.7800981544e-05 0.0000000000e+00 
          -5.4616549951e-05 -7.7884177374e-05 0.0000000000e+00 
          -5.6050461192e-05 -7.7819118906e-05 0.0000000000e+00 
          -5.7376533905e-05 -7.7853397954e-05 0.0000000000e+00 
          -5.8599509037e-05 -7.7842287739e-05 0.0000000000e+00 
          -5.9707375813e-05 -7.7845807434e-05 0.0000000000e+00 
          -6.0710321139e-05 -7.7846971616e-05 0.0000000000e+00 
          -6.1594112408e-05 -7.7825482166e-05 0.0000000000e+00 
          -6.2365080496e-05 -7.7884453863e-05 0.0000000000e+00 
          -6.3023435102e-05 -7.7790867627e-05 0.0000000000e+00 
          -6.3555555217e-05 -7.7890629032e-05 0.0000000000e+00 
          -6.3979781547e-05 -7.7825310233e-05 0.0000000000e+00 
          -6.4276834983e-05 -7.7827207097e-05 0.0000000000e+00 
          -6.4456312559e-05 -7.7888923111e-05 0.0000000000e+00 
          5.1996332332e-06 -7.7859291726e-05 0.0000000000e+00 
          2.3408609048e-06 -7.7823708024e-05 0.0000000000e+00 
          -5.0902660363e-07 -7.7857803502e-05 0.0000000000e+00 
          -3.3550678534e-06 -7.7845801764e-05 0.0000000000e+00 
          -6.1906446511e-06 -7.7824232267e-05 0.0000000000e+00 
          -9.0029128846e-06 -7.7884001849e-05 0.0000000000e+00 
          -1.1799806104e-05 -7.7794707916e-05 0.0000000000e+00 
          -1.4565808005e-05 -7.7884248808e-05 0.0000000000e+00 
          -1.7299468331e-05 -7.7832786392e-05 0.0000000000e+00 
          -2.0000824483e-05 -7.7823112200e-05 0.0000000000e+00 
          -2.2654357619e-05 -7.7884463367e-05 0.0000000000e+00 
          -2.5267823298e-05 -7.7805701540e-05 0.0000000000e+00 
          -2.7828621114e-05 -7.7870141104e-05 0.0000000000e+00 
          -3.0330642161e-05 -7.7825773428e-05 0.0000000000e+00 
          -3.2781748623e-05 -7.7866699508e-05 0.0000000000e+00 
          -3.5159180713e-05 -7.7815374552e-05 0.0000000000e+00 
          -3.7476178239e-05 -7.7869291648e-05 0.0000000000e+00 
          -3.9718223751e-05 -7.7833598007e-05 0.0000000000e+00 
          -4.1883029028e-05 -7.7840369255e-05 0.0000000000e+00 
          -4.3971224778e-05 -7.7854046902e-05 0.0000000000e+00 
          -4.5973029623e-05 -7.7836534786e-05 0.0000000000e+00 
          -4.7889334192e-05 -7.7851117177e-05 0.0000000000e+00 
          -4.9714607467e-05 -7.7827892827e-05 0.0000000000e+00 
          -5.1446919166e-05 -7.7876773659e-05 0.0000000000e+00 
          -5.3081217268e-05 -7.7800981544e-05 0.0000000000e+00 
          -5.4616549951e-05 -7.7884177374e-05 0.0000000000e+00 
          -5.6050461192e-05 -7.7819118906e-05 0.0000000000e+00 
          -5.7376533905e-05 -7.7853397954e-05 0.0000000000e+00 
          -5.8599509037e-05 -7.7842287739e-05 0.0000000000e+00 
          -5.9707375813e-05 -7.7845807434e-05 0.0000000000e+00 
          -6.0710321139e-05 -7.7846971616e-05 0.0000000000e+00 
          -6.1594112408e-05 -7.7825482166e-05 0.0000000000e+00 
          -6.2365080496e-05 -7.7884453863e-05 0.0000000000e+00 
          -6.3023435102e-05 -7.7790867627e-05 0.0000000000e+00 
          -6.3555555217e-05 -7.7890629032e-05 0.0000000000e+00 
          -6.3979781547e-05 -7.7825310233e-05 0.0000000000e+00 
          -6.4276834983e-05 -7.7827207097e-05 0.0000000000e+00 
          -6.4456312559e-05 -7.7888923111e-05 0.0000000000e+00 
        </DataArray>
        <DataArray type="Float64" Name="Displacement" NumberOfComponents="3" format="ascii">
          9.8837761942e-07 -6.1703946696e-04 0.0000000000e+00 
          9.8837761942e-07 -6.1703946696e-04 0.0000000000e+00 
          3.8642353276e-06 -6.4061982960e-04 0.0000000000e+00 
          3.8642353276e-06 -6.4061982960e-04 0.0000000000e+00 
          0.0000000000e+00 0.0000000000e+00 0.0000000000e+00 
          0.0000000000e+00 0.0000000000e+00 0.0000000000e+00 
          1.1211138038e-06 -6.1823326516e-04 0.0000000000e+00 
          1.2518374809e-06 -6.1939588161e-04 0.0000000000e+00 
          1.3803843869e-06 -6.2052774342e-04 0.0000000000e+00 
          1.5066881113e-06 -6.2162838096e-04 0.0000000000e+00 
          1.6305877911e-06 -6.2269812668e-04 0.0000000000e+00 
          1.7520034012e-06 -6.2373687203e-04 0.0000000000e+00 
          1.8708196008e-06 -6.2474450878e-04 0.0000000000e+00 
          1.9869188185e-06 -6.2572129072e-04 0.0000000000e+00 
          2.1002322007e-06 -6.2666690973e-04 0.0000000000e+00 
          2.2106272793e-06 -6.2758166547e-04 0.0000000000e+00 
          2.3180504506e-06 -6.2846527820e-04 0.0000000000e+00 
          2.4223860148e-06 -6.2931802550e-04 0.0000000000e+00 
          2.5235613489e-06 -6.3013962810e-04 0.0000000000e+00 
          2.6215125877e-06 -6.3093033457e-04 0.0000000000e+00 
          2.7161275102e-06 -6.3168998199e-04 0.0000000000e+00 
          2.8073840418e-06 -6.3241860926e-04 0.0000000000e+00 
          2.8951736893e-06 -6.3311628424e-04 0.0000000000e+00 
          2.9794546089e-06 -6.3378290184e-04 0.0000000000e+00 
          3.0601723331e-06 -6.3441852869e-04 0.0000000000e+00 
          3.1372497593e-06 -6.3502317633e-04 0.0000000000e+00 
          3.2106654430e-06 -6.3559677196e-04 0.0000000000e+00 
          3.2803448952e-06 -6.3613938442e-04 0.0000000000e+00 
          3.3462584344e-06 -6.3665100619e-04 0.0000000000e+00 
          3.4083688638e-06 -6.3713159586e-04 0.0000000000e+00 
          3.4666224477e-06 -6.3758118045e-04 0.0000000000e+00 
          3.5210019422e-06 -6.3799977030e-04 0.0000000000e+00 
          3.5714719846e-06 -6.3838738009e-04 0.0000000000e+00 
          3.6179878890e-06 -6.3874388225e-04 0.0000000000e+00 
          3.6605593374e-06 -6.3906955195e-04 0.0000000000e+00 
          3.6991245915e-06 -6.3936398996e-04 0.0000000000e+00 
          3.7336883043e-06 -6.3962766408e-04 0.0000000000e+00 
          3.7642299992e-06 -6.3986013325e-04 0.0000000000e+00 
          3.7907201089e-06 -6.4006168126e-04 0.0000000000e+00 
          3.8131653052e-06 -6.4023227496e-04 0.0000000000e+00 
          3.8315413799e-06 -6.4037172016e-04 0.0000000000e+00 
          3.8458387927e-06 -6.4048030731e-04 0.0000000000e+00 
          3.8560615713e-06 -6.4055779845e-04 0.0000000000e+00 
          3.8621981680e-06 -6.4060429674e-04 0.0000000000e+00 
          1.1211138038e-06 -6.1823326516e-04 0.0000000000e+00 
          1.2518374809e-06 -6.1939588161e-04 0.0000000000e+00 
          1.3803843869e-06 -6.2052774342e-04 0.0000000000e+00 
          1.5066881113e-06 -6.2162838096e-04 0.0000000000e+00 
          1.6305877911e-06 -6.2269812668e-04 0.0000000000e+00 
          1.7520034012e-06 -6.2373687203e-04 0.0000000000e+00 
          1.8708196008e-06 -6.2474450878e-04 0.0000000000e+00 
          1.9869188185e-06 -6.2572129072e-04 0.0000000000e+00 
          2.1002322007e-06 -6.2666690973e-04 0.0000000000e+00 
          2.2106272793e-06 -6.2758166547e-04 0.0000000000e+00 
          2.3180504506e-06 -6.2846527820e-04 0.0000000000e+00 
          2.4223860148e-06 -6.2931802550e-04 0.0000000000e+00 
          2.5235613489e-06 -6.3013962810e-04 0.0000000000e+00 
          2.6215125877e-06 -6.3093033457e-04 0.0000000000e+00 
          2.7161275102e-06 -6.3168998199e-04 0.0000000000e+00 
          2.8073840418e-06 -6.3241860926e-04 0.0000000000e+00 
          2.8951736893e-06 -6.3311628424e-04 0.0000000000e+00 
          2.9794546089e-06 -6.3378290184e-04 0.0000000000e+00 
          3.0601723331e-06 -6.3441852869e-04 0.0000000000e+00 
          3.1372497593e-06 -6.3502317633e-04 0.0000000000e+00 
          3.2106654430e-06 -6.3559677196e-04 0.0000000000e+00 
          3.2803448952e-06 -6.3613938442e-04 0.0000000000e+00 
          3.3462584344e-06 -6.3665100619e-04 0.0000000000e+00 
          3.4083688638e-06 -6.3713159586e-04 0.0000000000e+00 
          3.4666224477e-06 -6.3758118045e-04 0.0000000000e+00 
          3.5210019422e-06 -6.3799977030e-04 0.0000000000e+00 
          3.5714719846e-06 -6.3838738009e-04 0.0000000000e+00 
          3.6179878890e-06 -6.3874388225e-04 0.0000000000e+00 
          3.6605593374e-06 -6.3906955195e-04 0.0000000000e+00 
          3.6991245915e-06 -6.3936398996e-04 0.0000000000e+00 
          3.7336883043e-06 -6.3962766408e-04 0.0000000000e+00 
          3.7642299992e-06 -6.3986013325e-04 0.0000000000e+00 
          3.7907201089e-06 -6.4006168126e-04 0.0000000000e+00 
          3.8131653052e-06 -6.4023227496e-04 0.0000000000e+00 
          3.8315413799e-06 -6.4037172016e-04 0.0000000000e+00 
          3.8458387927e-06 -6.4048030731e-04 0.0000000000e+00 
          3.8560615713e-06 -6.4055779845e-04 0.0000000000e+00 
          3.8621981680e-06 -6.4060429674e-04 0.0000000000e+00 
        </DataArray>
        <DataArray type="Float64" Name="Acceleration" NumberOfComponents="3" format="ascii">
          -1.7145436307e-04 -1.0962854642e-06 0.0000000000e+00 
          -1.7145436307e-04 -1.0962854642e-06 0.0000000000e+00 
          -3.6710419586e-04 1.0702990573e-05 0.0000000000e+00 
          -3.6710419586e-04 1.0702990573e-05 0.0000000000e+00 
          0.0000000000e+00 0.0000000000e+00 0.0000000000e+00 
          0.0000000000e+00 0.0000000000e+00 0.0000000000e+00 
          -1.8133087994e-04 3.1610143349e-05 0.0000000000e+00 
          -1.9611644527e-04 -4.5617875427e-05 0.0000000000e+00 
          -2.0213028416e-04 3.9541372666e-05 0.0000000000e+00 
          -2.1660916475e-04 -2.0636905862e-05 0.0000000000e+00 
          -2.2381958297e-04 -1.0750908812e-06 0.0000000000e+00 
          -2.3419825706e-04 1.8196591945e-05 0.0000000000e+00 
          -2.4481951025e-04 -2.7066561541e-05 0.0000000000e+00 
          -2.5100927699e-04 2.8218242860e-05 0.0000000000e+00 
          -2.6294492130e-04 -2.5780390807e-05 0.0000000000e+00 
          -2.6776230835e-04 2.4425668412e-05 0.0000000000e+00 
          -2.7821225321e-04 -2.5182532784e-05 0.0000000000e+00 
          -2.8474297797e-04 2.4933623800e-05 0.0000000000e+00 
          -2.9049736033e-04 -1.9858262070e-05 0.0000000000e+00 
          -3.0060868015e-04 9.4978375358e-06 0.0000000000e+00 
          -3.0258715737e-04 2.3225882238e-06 0.0000000000e+00 
          -3.1238400608e-04 -9.5661770994e-06 0.0000000000e+00 
          -3.1614330679e-04 9.1999994010e-06 0.0000000000e+00 
          -3.2105093935e-04 -2.8094876888e-06 0.0000000000e+00 
          -3.2798923223e-04 -5.0274689522e-06 0.0000000000e+00 
          -3.2993946416e-04 8.3765361495e-06 0.0000000000e+00 
          -3.3664184049e-04 -4.1745896363e-06 0.0000000000e+00 
          -3.3931619823e-04 -2.8197383719e-06 0.0000000000e+00 
          -3.4266064925e-04 4.5341976587e-06 0.0000000000e+00 
          -3.4751690355e-04 -1.1241439662e-07 0.0000000000e+00 
          -3.4906309537e-04 -2.0884683465e-06 0.0000000000e+00 
          -3.5224936516e-04 -4.7350366671e-06 0.0000000000e+00 
          -3.5627564019e-04 1.8253435072e-05 0.0000000000e+00 
          -3.5539851701e-04 -3.1406338148e-05 0.0000000000e+00 
          -3.6097123468e-04 4.0689624481e-05 0.0000000000e+00 
          -3.6054677827e-04 -4.3688974078e-05 0.0000000000e+00 
          -3.6239176269e-04 3.5789436128e-05 0.0000000000e+00 
          -3.6505295383e-04 -1.5392152872e-05 0.0000000000e+00 
          -3.6445802316e-04 -9.3236767326e-06 0.0000000000e+00 
          -3.6663590225e-04 2.5615663209e-05 0.0000000000e+00 
          -3.6749547912e-04 -2.6719912782e-05 0.0000000000e+00 
          -3.6713163586e-04 1.6144730421e-05 0.0000000000e+00 
          -3.6817449310e-04 -2.4081687643e-06 0.0000000000e+00 
          -3.6936738569e-04 -7.3732115073e-06 0.0000000000e+00 
          -1.8133087994e-04 3.1610143349e-05 0.0000000000e+00 
          -1.9611644527e-04 -4.5617875427e-05 0.0000000000e+00 
          -2.0213028416e-04 3.9541372666e-05 0.0000000000e+00 
          -2.1660916475e-04 -2.0636905862e-05 0.0000000000e+00 
          -2.2381958297e-04 -1.0750908812e-06 0.0000000000e+00 
          -2.3419825706e-04 1.8196591945e-05 0.0000000000e+00 
          -2.4481951025e-04 -2.7066561541e-05 0.0000000000e+00 
          -2.5100927699e-04 2.8218242860e-05 0.0000000000e+00 
          -2.6294492130e-04 -2.5780390807e-05 0.0000000000e+00 
          -2.6776230835e-04 2.4425668412e-05 0.0000000000e+00 
          -2.7821225321e-04 -2.5182532784e-05 0.0000000000e+00 
          -2.8474297797e-04 2.4933623800e-05 0.0000000000e+00 
          -2.9049736033e-04 -1.9858262070e-05 0.0000000000e+00 
          -3.0060868015e-04 9.4978375358e-06 0.0000000000e+00 
          -3.0258715737e-04 2.3225882238e-06 0.0000000000e+00 
          -3.1238400608e-04 -9.5661770994e-06 0.0000000000e+00 
          -3.1614330679e-04 9.1999994010e-06 0.0000000000e+00 
          -3.2105093935e-04 -2.8094876888e-06 0.0000000000e+00 
          -3.2798923223e-04 -5.0274689522e-06 0.0000000000e+00 
          -3.2993946416e-04 8.3765361495e-06 0.0000000000e+00 
          -3.3664184049e-04 -4.1745896363e-06 0.0000000000e+00 
          -3.3931619823e-04 -2.8197383719e-06 0.0000000000e+00 
          -3.4266064925e-04 4.5341976587e-06 0.0000000000e+00 
          -3.4751690355e-04 -1.1241439662e-07 0.0000000000e+00 
          -3.4906309537e-04 -2.0884683465e-06 0.0000000000e+00 
          -3.5224936516e-04 -4.7350366671e-06 0.0000000000e+00 
          -3.5627564019e-04 1.8253435072e-05 0.0000000000e+00 
          -3.5539851701e-04 -3.1406338148e-05 0.0000000000e+00 
          -3.6097123468e-04 4.0689624481e-05 0.0000000000e+00 
          -3.6054677827e-04 -4.3688974078e-05 0.0000000000e+00 
          -3.6239176269e-04 3.5789436128e-05 0.0000000000e+00 
          -3.6505295383e-04 -1.5392152872e-05 0.0000000000e+00 
          -3.6445802316e-04 -9.3236767326e-06 0.0000000000e+00 
          -3.6663590225e-04 2.5615663209e-05 0.0000000000e+00 
          -3.6749547912e-04 -2.6719912782e-05 0.0000000000e+00 
          -3.6713163586e-04 1.6144730421e-05 0.0000000000e+00 
          -3.6817449310e-04 -2.4081687643e-06 0.0000000000e+00 
          -3.6936738569e-04 -7.3732115073e-06 0.0000000000e+00 
        </DataArray>
        <DataArray type="Float64" Name="Reaction" NumberOfComponents="3" format="ascii">
          0.0000000000e+00 0.0000000000e+00 0.0000000000e+00 
          0.0000000000e+00 0.0000000000e+00 0.0000000000e+00 
          0.0000000000e+00 0.0000000000e+00 0.0000000000e+00 
          0.0000000000e+00 0.0000000000e+00 0.0000000000e+00 
          0.0000000000e+00 0.0000000000e+00 0.0000000000e+00 
          0.0000000000e+00 0.0000000000e+00 0.0000000000e+00 
          0.0000000000e+00 0.0000000000e+00 0.0000000000e+00 
          0.0000000000e+00 0.0000000000e+00 0.0000000000e+00 
          0.0000000000e+00 0.0000000000e+00 0.0000000000e+00 
          0.0000000000e+00 0.0000000000e+00 0.0000000000e+00 
          0.0000000000e+00 0.0000000000e+00 0.0000000000e+00 
          0.0000000000e+00 0.0000000000e+00 0.0000000000e+00 
          0.0000000000e+00 0.0000000000e+00 0.0000000000e+00 
          0.0000000000e+00 0.0000000000e+00 0.0000000000e+00 
          0.0000000000e+00 0.0000000000e+00 0.0000000000e+00 
          0.0000000000e+00 0.0000000000e+00 0.0000000000e+00 
          0.0000000000e+00 0.0000000000e+00 0.0000000000e+00 
          0.0000000000e+00 0.0000000000e+00 0.0000000000e+00 
          0.0000000000e+00 0.0000000000e+00 0.0000000000e+00 
          0.0000000000e+00 0.0000000000e+00 0.0000000000e+00 
          0.0000000000e+00 0.0000000000e+00 0.0000000000e+00 
          0.0000000000e+00 0.0000000000e+00 0.0000000000e+00 
          0.0000000000e+00 0.0000000000e+00 0.0000000000e+00 
          0.0000000000e+00 0.0000000000e+00 0.0000000000e+00 
          0.0000000000e+00 0.0000000000e+00 0.0000000000e+00 
          0.0000000000e+00 0.0000000000e+00 0.0000000000e+00 
          0.0000000000e+00 0.0000000000e+00 0.0000000000e+00 
          0.0000000000e+00 0.0000000000e+00 0.0000000000e+00 
          0.0000000000e+00 0.0000000000e+00 0.0000000000e+00 
          0.0000000000e+00 0.0000000000e+00 0.0000000000e+00 
          0.0000000000e+00 0.0000000000e+00 0.0000000000e+00 
          0.0000000000e+00 0.0000000000e+00 0.0000000000e+00 
          0.0000000000e+00 0.0000000000e+00 0.0000000000e+00 
          0.0000000000e+00 0.0000000000e+00 0.0000000000e+00 
          0.0000000000e+00 0.0000000000e+00 0.0000000000e+00 
          0.0000000000e+00 0.0000000000e+00 0.0000000000e+00 
          0.0000000000e+00 0.0000000000e+00 0.0000000000e+00 
          0.0000000000e+00 0.0000000000e+00 0.0000000000e+00 
          0.0000000000e+00 0.0000000000e+00 0.0000000000e+00 
          0.0000000000e+00 0.0000000000e+00 0.0000000000e+00 
          0.0000000000e+00 0.0000000000e+00 0.0000000000e+00 
          0.0000000000e+00 0.0000000000e+00 0.0000000000e+00 
          0.0000000000e+00 0.0000000000e+00 0.0000000000e+00 
          0.0000000000e+00 0.0000000000e+00 0.0000000000e+00 
          0.0000000000e+00 0.0000000000e+00 0.0000000000e+00 
          0.0000000000e+00 0.0000000000e+00 0.0000000000e+00 
          0.0000000000e+00 0.0000000000e+00 0.0000000000e+00 
          0.0000000000e+00 0.0000000000e+00 0.0000000000e+00 
          0.0000000000e+00 0.0000000000e+00 0.0000000000e+00 
          0.0000000000e+00 0.0000000000e+00 0.0000000000e+00 
          0.0000000000e+00 0.0000000000e+00 0.0000000000e+00 
          0.0000000000e+00 0.0000000000e+00 0.0000000000e+00 
          0.0000000000e+00 0.0000000000e+00 0.0000000000e+00 
          0.0000000000e+00 0.0000000000e+00 0.0000000000e+00 
          0.0000000000e+00 0.0000000000e+00 0.0000000000e+00 
          0.0000000000e+00 0.0000000000e+00 0.0000000000e+00 
          0.0000000000e+00 0.0000000000e+00 0.0000000000e+00 
          0.0000000000e+00 0.0000000000e+00 0.0000000000e+00 
          0.0000000000e+00 0.0000000000e+00 0.0000000000e+00 
          0.0000000000e+00 0.0000000000e+00 0.0000000000e+00 
          0.0000000000e+00 0.0000000000e+00 0.0000000000e+00 
          0.0000000000e+00 0.0000000000e+00 0.0000000000e+00 
          0.0000000000e+00 0.0000000000e+00 0.0000000000e+00 
          0.0000000000e+00 0.0000000000e+00 0.0000000000e+00 
          0.0000000000e+00 0.0000000000e+00 0.0000000000e+00 
          0.0000000000e+00 0.0000000000e+00 0.0000000000e+00 
          0.0000000000e+00 0.0000000000e+00 0.0000000000e+00 
          0.0000000000e+00 0.0000000000e+00 0.0000000000e+00 
          0.0000000000e+00 0.0000000000e+00 0.0000000000e+00 
          0.0000000000e+00 0.0000000000e+00 0.0000000000e+00 
          0.0000000000e+00 0.0000000000e+00 0.0000000000e+00 
          0.0000000000e+00 0.0000000000e+00 0.0000000000e+00 
          0.0000000000e+00 0.0000000000e+00 0.0000000000e+00 
          0.0000000000e+00 0.0000000000e+00 0.0000000000e+00 
          0.0000000000e+00 0.0000000000e+00 0.0000000000e+00 
          0.0000000000e+00 0.0000000000e+00 0.0000000000e+00 
          0.0000000000e+00 0.0000000000e+00 0.0000000000e+00 
          0.0000000000e+00 0.0000000000e+00 0.0000000000e+00 
          0.0000000000e+00 0.0000000000e+00 0.0000000000e+00 
          0.0000000000e+00 0.0000000000e+00 0.0000000000e+00 
          0.0000000000e+00 0.0000000000e+00 0.0000000000e+00 
          0.0000000000e+00 0.0000000000e+00 0.0000000000e+00 
        </DataArray>
      </PointData>
      <CellData>
        <DataArray type="Int64" Name="ElementTag" format="ascii">
          0
        </DataArray>
      </CellData>
    </Piece>
  </UnstructuredGrid>
</VTKFile>
