<?xml version="1.0"?>
<VTKFile type="UnstructuredGrid" version="1.0" byte_order="LittleEndian" compressor="vtkZLibDataCompressor">
  <UnstructuredGrid>
    <Piece NumberOfPoints="80" NumberOfCells="39">
      <Points>
        <DataArray type="Float64" Name="Points" NumberOfComponents="3" format="ascii">
          0.0000000000e+00 0.0000000000e+00 0.0000000000e+00 
          2.5000000000e-01 0.0000000000e+00 0.0000000000e+00 
          2.5000000000e-01 3.0000000000e+01 0.0000000000e+00 
          0.0000000000e+00 3.0000000000e+01 0.0000000000e+00 
          2.5000000000e-01 7.6923100000e-01 0.0000000000e+00 
          2.5000000000e-01 1.5384620000e+00 0.0000000000e+00 
          2.5000000000e-01 2.3076920000e+00 0.0000000000e+00 
          2.5000000000e-01 3.0769230000e+00 0.0000000000e+00 
          2.5000000000e-01 3.8461540000e+00 0.0000000000e+00 
          2.5000000000e-01 4.6153850000e+00 0.0000000000e+00 
          2.5000000000e-01 5.3846150000e+00 0.0000000000e+00 
          2.5000000000e-01 6.1538460000e+00 0.0000000000e+00 
          2.5000000000e-01 6.9230770000e+00 0.0000000000e+00 
          2.5000000000e-01 7.6923080000e+00 0.0000000000e+00 
          2.5000000000e-01 8.4615380000e+00 0.0000000000e+00 
          2.5000000000e-01 9.2307690000e+00 0.0000000000e+00 
          2.5000000000e-01 1.0000000000e+01 0.0000000000e+00 
          2.5000000000e-01 1.0769231000e+01 0.0000000000e+00 
          2.5000000000e-01 1.1538462000e+01 0.0000000000e+00 
          2.5000000000e-01 1.2307692000e+01 0.0000000000e+00 
          2.5000000000e-01 1.3076923000e+01 0.0000000000e+00 
          2.5000000000e-01 1.3846154000e+01 0.0000000000e+00 
          2.5000000000e-01 1.4615385000e+01 0.0000000000e+00 
          2.5000000000e-01 1.5384615000e+01 0.0000000000e+00 
          2.5000000000e-01 1.6153846000e+01 0.0000000000e+00 
          2.5000000000e-01 1.6923077000e+01 0.0000000000e+00 
          2.5000000000e-01 1.7692308000e+01 0.0000000000e+00 
          2.5000000000e-01 1.8461538000e+01 0.0000000000e+00 
          2.5000000000e-01 1.9230769000e+01 0.0000000000e+00 
          2.5000000000e-01 2.0000000000e+01 0.0000000000e+00 
          2.5000000000e-01 2.0769231000e+01 0.0000000000e+00 
          2.5000000000e-01 2.1538462000e+01 0.0000000000e+00 
          2.5000000000e-01 2.2307692000e+01 0.0000000000e+00 
          2.5000000000e-01 2.3076923000e+01 0.0000000000e+00 
          2.5000000000e-01 2.3846154000e+01 0.0000000000e+00 
          2.5000000000e-01 2.4615385000e+01 0.0000000000e+00 
          2.5000000000e-01 2.5384615000e+01 0.0000000000e+00 
          2.5000000000e-01 2.6153846000e+01 0.0000000000e+00 
          2.5000000000e-01 2.6923077000e+01 0.0000000000e+00 
          2.5000000000e-01 2.7692308000e+01 0.0000000000e+00 
          2.5000000000e-01 2.8461538000e+01 0.0000000000e+00 
          2.5000000000e-01 2.9230769000e+01 0.0000000000e+00 
          0.0000000000e+00 7.6923100000e-01 0.0000000000e+00 
          0.0000000000e+00 1.5384620000e+00 0.0000000000e+00 
          0.0000000000e+00 2.3076920000e+00 0.0000000000e+00 
          0.0000000000e+00 3.0769230000e+00 0.0000000000e+00 
          0.0000000000e+00 3.8461540000e+00 0.0000000000e+00 
          0.0000000000e+00 4.6153850000e+00 0.0000000000e+00 
          0.0000000000e+00 5.3846150000e+00 0.0000000000e+00 
          0.0000000000e+00 6.1538460000e+00 0.0000000000e+00 
          0.0000000000e+00 6.9230770000e+00 0.0000000000e+00 
          0.0000000000e+00 7.6923080000e+00 0.0000000000e+00 
          0.0000000000e+00 8.4615380000e+00 0.0000000000e+00 
          0.0000000000e+00 9.2307690000e+00 0.0000000000e+00 
          0.0000000000e+00 1.0000000000e+01 0.0000000000e+00 
          0.0000000000e+00 1.0769231000e+01 0.0000000000e+00 
          0.0000000000e+00 1.1538462000e+01 0.0000000000e+00 
          0.0000000000e+00 1.2307692000e+01 0.0000000000e+00 
          0.0000000000e+00 1.3076923000e+01 0.0000000000e+00 
          0.0000000000e+00 1.3846154000e+01 0.0000000000e+00 
          0.0000000000e+00 1.4615385000e+01 0.0000000000e+00 
          0.0000000000e+00 1.5384615000e+01 0.0000000000e+00 
          0.0000000000e+00 1.6153846000e+01 0.0000000000e+00 
          0.0000000000e+00 1.6923077000e+01 0.0000000000e+00 
          0.0000000000e+00 1.7692308000e+01 0.0000000000e+00 
          0.0000000000e+00 1.8461538000e+01 0.0000000000e+00 
          0.0000000000e+00 1.9230769000e+01 0.0000000000e+00 
          0.0000000000e+00 2.0000000000e+01 0.0000000000e+00 
          0.0000000000e+00 2.0769231000e+01 0.0000000000e+00 
          0.0000000000e+00 2.1538462000e+01 0.0000000000e+00 
          0.0000000000e+00 2.2307692000e+01 0.0000000000e+00 
          0.0000000000e+00 2.3076923000e+01 0.0000000000e+00 
          0.0000000000e+00 2.3846154000e+01 0.0000000000e+00 
          0.0000000000e+00 2.4615385000e+01 0.0000000000e+00 
          0.0000000000e+00 2.5384615000e+01 0.0000000000e+00 
          0.0000000000e+00 2.6153846000e+01 0.0000000000e+00 
          0.0000000000e+00 2.6923077000e+01 0.0000000000e+00 
          0.0000000000e+00 2.7692308000e+01 0.0000000000e+00 
          0.0000000000e+00 2.8461538000e+01 0.0000000000e+00 
          0.0000000000e+00 2.9230769000e+01 0.0000000000e+00 
        </DataArray>
      </Points>
      <Cells>
        <DataArray type="Int64" Name="connectivity" format="ascii">
          0 1 4 42 
          42 4 5 43 
          43 5 6 44 
          44 6 7 45 
          45 7 8 46 
          46 8 9 47 
          47 9 10 48 
          48 10 11 49 
          49 11 12 50 
          50 12 13 51 
          51 13 14 52 
          52 14 15 53 
          53 15 16 54 
          54 16 17 55 
          55 17 18 56 
          56 18 19 57 
          57 19 20 58 
          58 20 21 59 
          59 21 22 60 
          60 22 23 61 
          61 23 24 62 
          62 24 25 63 
          63 25 26 64 
          64 26 27 65 
          65 27 28 66 
          66 28 29 67 
          67 29 30 68 
          68 30 31 69 
          69 31 32 70 
          70 32 33 71 
          71 33 34 72 
          72 34 35 73 
          73 35 36 74 
          74 36 37 75 
          75 37 38 76 
          76 38 39 77 
          77 39 40 78 
          78 40 41 79 
          79 41 2 3 
        </DataArray>
        <DataArray type="Int64" Name="offsets" format="ascii">
          4
          8
          12
          16
          20
          24
          28
          32
          36
          40
          44
          48
          52
          56
          60
          64
          68
          72
          76
          80
          84
          88
          92
          96
          100
          104
          108
          112
          116
          120
          124
          128
          132
          136
          140
          144
          148
          152
          156
        </DataArray>
        <DataArray type="Int64" Name="types" format="ascii">
          9
          9
          9
          9
          9
          9
          9
          9
          9
          9
          9
          9
          9
          9
          9
          9
          9
          9
          9
          9
          9
          9
          9
          9
          9
          9
          9
          9
          9
          9
          9
          9
          9
          9
          9
          9
          9
          9
          9
        </DataArray>
      </Cells>
      <PointData>
        <DataArray type="Int64" Name="NodeTag" format="ascii">
          1
          2
          3
          4
          7
          8
          9
          10
          11
          12
          13
          14
          15
          16
          17
          18
          19
          20
          21
          22
          23
          24
          25
          26
          27
          28
          29
          30
          31
          32
          33
          34
          35
          36
          37
          38
          39
          40
          41
          42
          43
          44
          45
          46
          47
          48
          49
          50
          51
          52
          53
          54
          55
          56
          57
          58
          59
          60
          61
          62
          63
          64
          65
          66
          67
          68
          69
          70
          71
          72
          73
          74
          75
          76
          77
          78
          79
          80
          81
          82
        </DataArray>
        <DataArray type="Float64" Name="Velocity" NumberOfComponents="3" format="ascii">
          -6.7899810683e-04 -7.7837192689e-05 0.0000000000e+00 
          -6.7899810683e-04 -7.7837192689e-05 0.0000000000e+00 
          1.4160567260e-04 -7.7842420406e-05 0.0000000000e+00 
          1.4160567260e-04 -7.7842420406e-05 0.0000000000e+00 
          -6.5471830198e-04 -7.7830969111e-05 0.0000000000e+00 
          -6.2949377103e-04 -7.7839374456e-05 0.0000000000e+00 
          -6.0339460126e-04 -7.7843129580e-05 0.0000000000e+00 
          -5.7654403327e-04 -7.7829959958e-05 0.0000000000e+00 
          -5.4903350959e-04 -7.7847459237e-05 0.0000000000e+00 
          -5.2095147710e-04 -7.7812194644e-05 0.0000000000e+00 
          -4.9242357866e-04 -7.7883157129e-05 0.0000000000e+00 
          -4.6352381475e-04 -7.7772528161e-05 0.0000000000e+00 
          -4.3436135939e-04 -7.7911304073e-05 0.0000000000e+00 
          -4.0504467721e-04 -7.7770705134e-05 0.0000000000e+00 
          -3.7564935612e-04 -7.7893946050e-05 0.0000000000e+00 
          -3.4629713269e-04 -7.7798273231e-05 0.0000000000e+00 
          -3.1707020021e-04 -7.7837610255e-05 0.0000000000e+00 
          -2.8805315458e-04 -7.7903698915e-05 0.0000000000e+00 
          -2.5936428933e-04 -7.7732660765e-05 0.0000000000e+00 
          -2.3107393930e-04 -7.7925215774e-05 0.0000000000e+00 
          -2.0327196779e-04 -7.7841879639e-05 0.0000000000e+00 
          -1.7605539146e-04 -7.7787163998e-05 0.0000000000e+00 
          -1.4949897438e-04 -7.7899827204e-05 0.0000000000e+00 
          -1.2368554886e-04 -7.7817036380e-05 0.0000000000e+00 
          -9.8697529614e-05 -7.7831986706e-05 0.0000000000e+00 
          -7.4603475787e-05 -7.7867762486e-05 0.0000000000e+00 
          -5.1481465216e-05 -7.7826331944e-05 0.0000000000e+00 
          -2.9403183939e-05 -7.7838390020e-05 0.0000000000e+00 
          -8.4211258943e-06 -7.7848821007e-05 0.0000000000e+00 
          1.1387557401e-05 -7.7839109663e-05 0.0000000000e+00 
          2.9969698911e-05 -7.7842532343e-05 0.0000000000e+00 
          4.7275361287e-05 -7.7841869693e-05 0.0000000000e+00 
          6.3247020159e-05 -7.7838800488e-05 0.0000000000e+00 
          7.7844252853e-05 -7.7840255784e-05 0.0000000000e+00 
          9.1016676087e-05 -7.7839997875e-05 0.0000000000e+00 
          1.0273436439e-04 -7.7838844084e-05 0.0000000000e+00 
          1.1295917103e-04 -7.7839639887e-05 0.0000000000e+00 
          1.2165612586e-04 -7.7841150591e-05 0.0000000000e+00 
          1.2881398399e-04 -7.7841868207e-05 0.0000000000e+00 
          1.3439707136e-04 -7.7841642971e-05 0.0000000000e+00 
          1.3839790880e-04 -7.7841478464e-05 0.0000000000e+00 
          1.4080615519e-04 -7.7842006442e-05 0.0000000000e+00 
          -6.5471830198e-04 -7.7830969111e-05 0.0000000000e+00 
          -6.2949377103e-04 -7.7839374456e-05 0.0000000000e+00 
          -6.0339460126e-04 -7.7843129580e-05 0.0000000000e+00 
          -5.7654403327e-04 -7.7829959958e-05 0.0000000000e+00 
          -5.4903350959e-04 -7.7847459237e-05 0.0000000000e+00 
          -5.2095147710e-04 -7.7812194644e-05 0.0000000000e+00 
          -4.9242357866e-04 -7.7883157129e-05 0.0000000000e+00 
          -4.6352381475e-04 -7.7772528161e-05 0.0000000000e+00 
          -4.3436135939e-04 -7.7911304073e-05 0.0000000000e+00 
          -4.0504467721e-04 -7.7770705134e-05 0.0000000000e+00 
          -3.7564935612e-04 -7.7893946050e-05 0.0000000000e+00 
          -3.4629713269e-04 -7.7798273231e-05 0.0000000000e+00 
          -3.1707020021e-04 -7.7837610255e-05 0.0000000000e+00 
          -2.8805315458e-04 -7.7903698915e-05 0.0000000000e+00 
          -2.5936428933e-04 -7.7732660765e-05 0.0000000000e+00 
          -2.3107393930e-04 -7.7925215774e-05 0.0000000000e+00 
          -2.0327196779e-04 -7.7841879639e-05 0.0000000000e+00 
          -1.7605539146e-04 -7.7787163998e-05 0.0000000000e+00 
          -1.4949897438e-04 -7.7899827204e-05 0.0000000000e+00 
          -1.2368554886e-04 -7.7817036380e-05 0.0000000000e+00 
          -9.8697529614e-05 -7.7831986706e-05 0.0000000000e+00 
          -7.4603475787e-05 -7.7867762486e-05 0.0000000000e+00 
          -5.1481465216e-05 -7.7826331944e-05 0.0000000000e+00 
          -2.9403183939e-05 -7.7838390020e-05 0.0000000000e+00 
          -8.4211258943e-06 -7.7848821007e-05 0.0000000000e+00 
          1.1387557401e-05 -7.7839109663e-05 0.0000000000e+00 
          2.9969698911e-05 -7.7842532343e-05 0.0000000000e+00 
          4.7275361287e-05 -7.7841869693e-05 0.0000000000e+00 
          6.3247020159e-05 -7.7838800488e-05 0.0000000000e+00 
          7.7844252853e-05 -7.7840255784e-05 0.0000000000e+00 
          9.1016676087e-05 -7.7839997875e-05 0.0000000000e+00 
          1.0273436439e-04 -7.7838844084e-05 0.0000000000e+00 
          1.1295917103e-04 -7.7839639887e-05 0.0000000000e+00 
          1.2165612586e-04 -7.7841150591e-05 0.0000000000e+00 
          1.2881398399e-04 -7.7841868207e-05 0.0000000000e+00 
          1.3439707136e-04 -7.7841642971e-05 0.0000000000e+00 
          1.3839790880e-04 -7.7841478464e-05 0.0000000000e+00 
          1.4080615519e-04 -7.7842006442e-05 0.0000000000e+00 
        </DataArray>
        <DataArray type="Float64" Name="Displacement" NumberOfComponents="3" format="ascii">
          4.7653040103e-06 -4.2865591686e-04 0.0000000000e+00 
          4.7653040103e-06 -4.2865591686e-04 0.0000000000e+00 
          -2.7197476203e-04 -4.5223374506e-04 0.0000000000e+00 
          -2.7197476203e-04 -4.5223374506e-04 0.0000000000e+00 
          -6.5026721569e-06 -4.2984954628e-04 0.0000000000e+00 
          -1.7737290516e-05 -4.3101218299e-04 0.0000000000e+00 
          -2.8921167997e-05 -4.3214372534e-04 0.0000000000e+00 
          -4.0037018156e-05 -4.3324443580e-04 0.0000000000e+00 
          -5.1067686875e-05 -4.3431396533e-04 0.0000000000e+00 
          -6.1996184269e-05 -4.3535264786e-04 0.0000000000e+00 
          -7.2805614522e-05 -4.3636011144e-04 0.0000000000e+00 
          -8.3479412190e-05 -4.3733681520e-04 0.0000000000e+00 
          -9.4001115057e-05 -4.3828238297e-04 0.0000000000e+00 
          -1.0435450977e-04 -4.3919693044e-04 0.0000000000e+00 
          -1.1452367960e-04 -4.4008058158e-04 0.0000000000e+00 
          -1.2449294905e-04 -4.4093303871e-04 0.0000000000e+00 
          -1.3424697527e-04 -4.4175482968e-04 0.0000000000e+00 
          -1.4377070373e-04 -4.4254518008e-04 0.0000000000e+00 
          -1.5304940378e-04 -4.4330487525e-04 0.0000000000e+00 
          -1.6206876773e-04 -4.4403351659e-04 0.0000000000e+00 
          -1.7081480631e-04 -4.4473089106e-04 0.0000000000e+00 
          -1.7927400873e-04 -4.4539764063e-04 0.0000000000e+00 
          -1.8743319502e-04 -4.4603314721e-04 0.0000000000e+00 
          -1.9527968578e-04 -4.4663763984e-04 0.0000000000e+00 
          -2.0280129305e-04 -4.4721130354e-04 0.0000000000e+00 
          -2.0998624614e-04 -4.4775381793e-04 0.0000000000e+00 
          -2.1682335167e-04 -4.4826535484e-04 0.0000000000e+00 
          -2.2330185181e-04 -4.4874592739e-04 0.0000000000e+00 
          -2.2941164528e-04 -4.4919545623e-04 0.0000000000e+00 
          -2.3514308464e-04 -4.4961400899e-04 0.0000000000e+00 
          -2.4048718404e-04 -4.5000156188e-04 0.0000000000e+00 
          -2.4543550326e-04 -4.5035808950e-04 0.0000000000e+00 
          -2.4998020710e-04 -4.5068361829e-04 0.0000000000e+00 
          -2.5411416540e-04 -4.5097815158e-04 0.0000000000e+00 
          -2.5783076999e-04 -4.5124168031e-04 0.0000000000e+00 
          -2.6112417045e-04 -4.5147419985e-04 0.0000000000e+00 
          -2.6398913045e-04 -4.5167571010e-04 0.0000000000e+00 
          -2.6642105686e-04 -4.5184622121e-04 0.0000000000e+00 
          -2.6841615125e-04 -4.5198573858e-04 0.0000000000e+00 
          -2.6997118561e-04 -4.5209425405e-04 0.0000000000e+00 
          -2.7108369531e-04 -4.5217175709e-04 0.0000000000e+00 
          -2.7175191912e-04 -4.5221824991e-04 0.0000000000e+00 
          -6.5026721569e-06 -4.2984954628e-04 0.0000000000e+00 
          -1.7737290516e-05 -4.3101218299e-04 0.0000000000e+00 
          -2.8921167997e-05 -4.3214372534e-04 0.0000000000e+00 
          -4.0037018156e-05 -4.3324443580e-04 0.0000000000e+00 
          -5.1067686875e-05 -4.3431396533e-04 0.0000000000e+00 
          -6.1996184269e-05 -4.3535264786e-04 0.0000000000e+00 
          -7.2805614522e-05 -4.3636011144e-04 0.0000000000e+00 
          -8.3479412190e-05 -4.3733681520e-04 0.0000000000e+00 
          -9.4001115057e-05 -4.3828238297e-04 0.0000000000e+00 
          -1.0435450977e-04 -4.3919693044e-04 0.0000000000e+00 
          -1.1452367960e-04 -4.4008058158e-04 0.0000000000e+00 
          -1.2449294905e-04 -4.4093303871e-04 0.0000000000e+00 
          -1.3424697527e-04 -4.4175482968e-04 0.0000000000e+00 
          -1.4377070373e-04 -4.4254518008e-04 0.0000000000e+00 
          -1.5304940378e-04 -4.4330487525e-04 0.0000000000e+00 
          -1.6206876773e-04 -4.4403351659e-04 0.0000000000e+00 
          -1.7081480631e-04 -4.4473089106e-04 0.0000000000e+00 
          -1.7927400873e-04 -4.4539764063e-04 0.0000000000e+00 
          -1.8743319502e-04 -4.4603314721e-04 0.0000000000e+00 
          -1.9527968578e-04 -4.4663763984e-04 0.0000000000e+00 
          -2.0280129305e-04 -4.4721130354e-04 0.0000000000e+00 
          -2.0998624614e-04 -4.4775381793e-04 0.0000000000e+00 
          -2.1682335167e-04 -4.4826535484e-04 0.0000000000e+00 
          -2.2330185181e-04 -4.4874592739e-04 0.0000000000e+00 
          -2.2941164528e-04 -4.4919545623e-04 0.0000000000e+00 
          -2.3514308464e-04 -4.4961400899e-04 0.0000000000e+00 
          -2.4048718404e-04 -4.5000156188e-04 0.0000000000e+00 
          -2.4543550326e-04 -4.5035808950e-04 0.0000000000e+00 
          -2.4998020710e-04 -4.5068361829e-04 0.0000000000e+00 
          -2.5411416540e-04 -4.5097815158e-04 0.0000000000e+00 
          -2.5783076999e-04 -4.5124168031e-04 0.0000000000e+00 
          -2.6112417045e-04 -4.5147419985e-04 0.0000000000e+00 
          -2.6398913045e-04 -4.5167571010e-04 0.0000000000e+00 
          -2.6642105686e-04 -4.5184622121e-04 0.0000000000e+00 
          -2.6841615125e-04 -4.5198573858e-04 0.0000000000e+00 
          -2.6997118561e-04 -4.5209425405e-04 0.0000000000e+00 
          -2.7108369531e-04 -4.5217175709e-04 0.0000000000e+00 
          -2.7175191912e-04 -4.5221824991e-04 0.0000000000e+00 
        </DataArray>
        <DataArray type="Float64" Name="Acceleration" NumberOfComponents="3" format="ascii">
          1.4302851153e-03 4.2732497119e-07 0.0000000000e+00 
          1.4302851153e-03 4.2732497119e-07 0.0000000000e+00 
          4.0157173666e-02 -2.8907888466e-06 0.0000000000e+00 
          4.0157173666e-02 -2.8907888466e-06 0.0000000000e+00 
          3.0056043772e-03 -2.4563086495e-06 0.0000000000e+00 
          4.5705463363e-03 1.5599789900e-05 0.0000000000e+00 
          6.1307099402e-03 -3.1164994195e-05 0.0000000000e+00 
          7.6750160262e-03 3.1460016273e-05 0.0000000000e+00 
          9.2058381497e-03 -2.8711454889e-05 0.0000000000e+00 
          1.0726925432e-02 3.8081232912e-05 0.0000000000e+00 
          1.2222037742e-02 -4.4184999175e-05 0.0000000000e+00 
          1.3704041965e-02 2.3365410094e-05 0.0000000000e+00 
          1.5164897436e-02 2.5147473744e-06 0.0000000000e+00 
          1.6597844625e-02 -2.0025181493e-05 0.0000000000e+00 
          1.8012622324e-02 3.4028557475e-05 0.0000000000e+00 
          1.9393840373e-02 -6.1301606639e-05 0.0000000000e+00 
          2.0750282154e-02 7.8252443708e-05 0.0000000000e+00 
          2.2077543996e-02 -6.3273350871e-05 0.0000000000e+00 
          2.3365653832e-02 8.3940815953e-06 0.0000000000e+00 
          2.4628228352e-02 4.7121105457e-05 0.0000000000e+00 
          2.5844504129e-02 -6.8735509563e-05 0.0000000000e+00 
          2.7032045467e-02 4.2645889812e-05 0.0000000000e+00 
          2.8173583651e-02 1.2337947248e-06 0.0000000000e+00 
          2.9273582631e-02 -3.1823984409e-05 0.0000000000e+00 
          3.0333207092e-02 2.5764040878e-05 0.0000000000e+00 
          3.1341751210e-02 -5.1989661458e-06 0.0000000000e+00 
          3.2310316412e-02 -7.6751142901e-06 0.0000000000e+00 
          3.3221979159e-02 6.8515594266e-06 0.0000000000e+00 
          3.4090452978e-02 -5.4522426119e-06 0.0000000000e+00 
          3.4900095012e-02 -1.1654411762e-06 0.0000000000e+00 
          3.5660576119e-02 3.4126688878e-06 0.0000000000e+00 
          3.6366033811e-02 -1.4271482547e-06 0.0000000000e+00 
          3.7009541407e-02 -1.8716966484e-06 0.0000000000e+00 
          3.7604392941e-02 -3.2106829728e-07 0.0000000000e+00 
          3.8131527508e-02 5.1463788625e-07 0.0000000000e+00 
          3.8603021383e-02 4.8828030103e-07 0.0000000000e+00 
          3.9017542150e-02 -1.2463675462e-06 0.0000000000e+00 
          3.9359428907e-02 -2.2695350168e-06 0.0000000000e+00 
          3.9650276585e-02 -7.9893829685e-07 0.0000000000e+00 
          3.9872241670e-02 1.0839308217e-06 0.0000000000e+00 
          4.0031192891e-02 7.1995932710e-07 0.0000000000e+00 
          4.0129697675e-02 -1.5608919005e-06 0.0000000000e+00 
          3.0056043772e-03 -2.4563086495e-06 0.0000000000e+00 
          4.5705463363e-03 1.5599789900e-05 0.0000000000e+00 
          6.1307099402e-03 -3.1164994195e-05 0.0000000000e+00 
          7.6750160262e-03 3.1460016273e-05 0.0000000000e+00 
          9.2058381497e-03 -2.8711454889e-05 0.0000000000e+00 
          1.0726925432e-02 3.8081232912e-05 0.0000000000e+00 
          1.2222037742e-02 -4.4184999175e-05 0.0000000000e+00 
          1.3704041965e-02 2.3365410094e-05 0.0000000000e+00 
          1.5164897436e-02 2.5147473744e-06 0.0000000000e+00 
          1.6597844625e-02 -2.0025181493e-05 0.0000000000e+00 
          1.8012622324e-02 3.4028557475e-05 0.0000000000e+00 
          1.9393840373e-02 -6.1301606639e-05 0.0000000000e+00 
          2.0750282154e-02 7.8252443708e-05 0.0000000000e+00 
          2.2077543996e-02 -6.3273350871e-05 0.0000000000e+00 
          2.3365653832e-02 8.3940815953e-06 0.0000000000e+00 
          2.4628228352e-02 4.7121105457e-05 0.0000000000e+00 
          2.5844504129e-02 -6.8735509563e-05 0.0000000000e+00 
          2.7032045467e-02 4.2645889812e-05 0.0000000000e+00 
          2.8173583651e-02 1.2337947248e-06 0.0000000000e+00 
          2.9273582631e-02 -3.1823984409e-05 0.0000000000e+00 
          3.0333207092e-02 2.5764040878e-05 0.0000000000e+00 
          3.1341751210e-02 -5.1989661458e-06 0.0000000000e+00 
          3.2310316412e-02 -7.6751142901e-06 0.0000000000e+00 
          3.3221979159e-02 6.8515594266e-06 0.0000000000e+00 
          3.4090452978e-02 -5.4522426119e-06 0.0000000000e+00 
          3.4900095012e-02 -1.1654411762e-06 0.0000000000e+00 
          3.5660576119e-02 3.4126688878e-06 0.0000000000e+00 
          3.6366033811e-02 -1.4271482547e-06 0.0000000000e+00 
          3.7009541407e-02 -1.8716966484e-06 0.0000000000e+00 
          3.7604392941e-02 -3.2106829728e-07 0.0000000000e+00 
          3.8131527508e-02 5.1463788625e-07 0.0000000000e+00 
          3.8603021383e-02 4.8828030103e-07 0.0000000000e+00 
          3.9017542150e-02 -1.2463675462e-06 0.0000000000e+00 
          3.9359428907e-02 -2.2695350168e-06 0.0000000000e+00 
          3.9650276585e-02 -7.9893829685e-07 0.0000000000e+00 
          3.9872241670e-02 1.0839308217e-06 0.0000000000e+00 
          4.0031192891e-02 7.1995932710e-07 0.0000000000e+00 
          4.0129697675e-02 -1.5608919005e-06 0.0000000000e+00 
        </DataArray>
        <DataArray type="Float64" Name="Reaction" NumberOfComponents="3" format="ascii">
          0.0000000000e+00 0.0000000000e+00 0.0000000000e+00 
          0.0000000000e+00 0.0000000000e+00 0.0000000000e+00 
          0.0000000000e+00 0.0000000000e+00 0.0000000000e+00 
          0.0000000000e+00 0.0000000000e+00 0.0000000000e+00 
          0.0000000000e+00 0.0000000000e+00 0.0000000000e+00 
          0.0000000000e+00 0.0000000000e+00 0.0000000000e+00 
          0.0000000000e+00 0.0000000000e+00 0.0000000000e+00 
          0.0000000000e+00 0.0000000000e+00 0.0000000000e+00 
          0.0000000000e+00 0.0000000000e+00 0.0000000000e+00 
          0.0000000000e+00 0.0000000000e+00 0.0000000000e+00 
          0.0000000000e+00 0.0000000000e+00 0.0000000000e+00 
          0.0000000000e+00 0.0000000000e+00 0.0000000000e+00 
          0.0000000000e+00 0.0000000000e+00 0.0000000000e+00 
          0.0000000000e+00 0.0000000000e+00 0.0000000000e+00 
          0.0000000000e+00 0.0000000000e+00 0.0000000000e+00 
          0.0000000000e+00 0.0000000000e+00 0.0000000000e+00 
          0.0000000000e+00 0.0000000000e+00 0.0000000000e+00 
          0.0000000000e+00 0.0000000000e+00 0.0000000000e+00 
          0.0000000000e+00 0.0000000000e+00 0.0000000000e+00 
          0.0000000000e+00 0.0000000000e+00 0.0000000000e+00 
          0.0000000000e+00 0.0000000000e+00 0.0000000000e+00 
          0.0000000000e+00 0.0000000000e+00 0.0000000000e+00 
          0.0000000000e+00 0.0000000000e+00 0.0000000000e+00 
          0.0000000000e+00 0.0000000000e+00 0.0000000000e+00 
          0.0000000000e+00 0.0000000000e+00 0.0000000000e+00 
          0.0000000000e+00 0.0000000000e+00 0.0000000000e+00 
          0.0000000000e+00 0.0000000000e+00 0.0000000000e+00 
          0.0000000000e+00 0.0000000000e+00 0.0000000000e+00 
          0.0000000000e+00 0.0000000000e+00 0.0000000000e+00 
          0.0000000000e+00 0.0000000000e+00 0.0000000000e+00 
          0.0000000000e+00 0.0000000000e+00 0.0000000000e+00 
          0.0000000000e+00 0.0000000000e+00 0.0000000000e+00 
          0.0000000000e+00 0.0000000000e+00 0.0000000000e+00 
          0.0000000000e+00 0.0000000000e+00 0.0000000000e+00 
          0.0000000000e+00 0.0000000000e+00 0.0000000000e+00 
          0.0000000000e+00 0.0000000000e+00 0.0000000000e+00 
          0.0000000000e+00 0.0000000000e+00 0.0000000000e+00 
          0.0000000000e+00 0.0000000000e+00 0.0000000000e+00 
          0.0000000000e+00 0.0000000000e+00 0.0000000000e+00 
          0.0000000000e+00 0.0000000000e+00 0.0000000000e+00 
          0.0000000000e+00 0.0000000000e+00 0.0000000000e+00 
          0.0000000000e+00 0.0000000000e+00 0.0000000000e+00 
          0.0000000000e+00 0.0000000000e+00 0.0000000000e+00 
          0.0000000000e+00 0.0000000000e+00 0.0000000000e+00 
          0.0000000000e+00 0.0000000000e+00 0.0000000000e+00 
          0.0000000000e+00 0.0000000000e+00 0.0000000000e+00 
          0.0000000000e+00 0.0000000000e+00 0.0000000000e+00 
          0.0000000000e+00 0.0000000000e+00 0.0000000000e+00 
          0.0000000000e+00 0.0000000000e+00 0.0000000000e+00 
          0.0000000000e+00 0.0000000000e+00 0.0000000000e+00 
          0.0000000000e+00 0.0000000000e+00 0.0000000000e+00 
          0.0000000000e+00 0.0000000000e+00 0.0000000000e+00 
          0.0000000000e+00 0.0000000000e+00 0.0000000000e+00 
          0.0000000000e+00 0.0000000000e+00 0.0000000000e+00 
          0.0000000000e+00 0.0000000000e+00 0.0000000000e+00 
          0.0000000000e+00 0.0000000000e+00 0.0000000000e+00 
          0.0000000000e+00 0.0000000000e+00 0.0000000000e+00 
          0.0000000000e+00 0.0000000000e+00 0.0000000000e+00 
          0.0000000000e+00 0.0000000000e+00 0.0000000000e+00 
          0.0000000000e+00 0.0000000000e+00 0.0000000000e+00 
          0.0000000000e+00 0.0000000000e+00 0.0000000000e+00 
          0.0000000000e+00 0.0000000000e+00 0.0000000000e+00 
          0.0000000000e+00 0.0000000000e+00 0.0000000000e+00 
          0.0000000000e+00 0.0000000000e+00 0.0000000000e+00 
          0.0000000000e+00 0.0000000000e+00 0.0000000000e+00 
          0.0000000000e+00 0.0000000000e+00 0.0000000000e+00 
          0.0000000000e+00 0.0000000000e+00 0.0000000000e+00 
          0.0000000000e+00 0.0000000000e+00 0.0000000000e+00 
          0.0000000000e+00 0.0000000000e+00 0.0000000000e+00 
          0.0000000000e+00 0.0000000000e+00 0.0000000000e+00 
          0.0000000000e+00 0.0000000000e+00 0.0000000000e+00 
          0.0000000000e+00 0.0000000000e+00 0.0000000000e+00 
          0.0000000000e+00 0.0000000000e+00 0.0000000000e+00 
          0.0000000000e+00 0.0000000000e+00 0.0000000000e+00 
          0.0000000000e+00 0.0000000000e+00 0.0000000000e+00 
          0.0000000000e+00 0.0000000000e+00 0.0000000000e+00 
          0.0000000000e+00 0.0000000000e+00 0.0000000000e+00 
          0.0000000000e+00 0.0000000000e+00 0.0000000000e+00 
          0.0000000000e+00 0.0000000000e+00 0.0000000000e+00 
          0.0000000000e+00 0.0000000000e+00 0.0000000000e+00 
        </DataArray>
      </PointData>
      <CellData>
        <DataArray type="Int64" Name="ElementTag" format="ascii">
          90
          91
          92
          93
          94
          95
          96
          97
          98
          99
          100
          101
          102
          103
          104
          105
          106
          107
          108
          109
          110
          111
          112
          113
          114
          115
          116
          117
          118
          119
          120
          121
          122
          123
          124
          125
          126
          127
          128
        </DataArray>
      </CellData>
    </Piece>
  </UnstructuredGrid>
</VTKFile>
