<?xml version="1.0"?>
<VTKFile type="UnstructuredGrid" version="1.0" byte_order="LittleEndian" compressor="vtkZLibDataCompressor">
  <UnstructuredGrid>
    <Piece NumberOfPoints="82" NumberOfCells="1">
      <Points>
        <DataArray type="Float64" Name="Points" NumberOfComponents="3" format="ascii">
          0.0000000000e+00 0.0000000000e+00 0.0000000000e+00 
          2.5000000000e-01 0.0000000000e+00 0.0000000000e+00 
          2.5000000000e-01 3.0000000000e+01 0.0000000000e+00 
          0.0000000000e+00 3.0000000000e+01 0.0000000000e+00 
          0.0000000000e+00 -5.0000000000e+00 0.0000000000e+00 
          2.5000000000e-01 -5.0000000000e+00 0.0000000000e+00 
          2.5000000000e-01 7.6923100000e-01 0.0000000000e+00 
          2.5000000000e-01 1.5384620000e+00 0.0000000000e+00 
          2.5000000000e-01 2.3076920000e+00 0.0000000000e+00 
          2.5000000000e-01 3.0769230000e+00 0.0000000000e+00 
          2.5000000000e-01 3.8461540000e+00 0.0000000000e+00 
          2.5000000000e-01 4.6153850000e+00 0.0000000000e+00 
          2.5000000000e-01 5.3846150000e+00 0.0000000000e+00 
          2.5000000000e-01 6.1538460000e+00 0.0000000000e+00 
          2.5000000000e-01 6.9230770000e+00 0.0000000000e+00 
          2.5000000000e-01 7.6923080000e+00 0.0000000000e+00 
          2.5000000000e-01 8.4615380000e+00 0.0000000000e+00 
          2.5000000000e-01 9.2307690000e+00 0.0000000000e+00 
          2.5000000000e-01 1.0000000000e+01 0.0000000000e+00 
          2.5000000000e-01 1.0769231000e+01 0.0000000000e+00 
          2.5000000000e-01 1.1538462000e+01 0.0000000000e+00 
          2.5000000000e-01 1.2307692000e+01 0.0000000000e+00 
          2.5000000000e-01 1.3076923000e+01 0.0000000000e+00 
          2.5000000000e-01 1.3846154000e+01 0.0000000000e+00 
          2.5000000000e-01 1.4615385000e+01 0.0000000000e+00 
          2.5000000000e-01 1.5384615000e+01 0.0000000000e+00 
          2.5000000000e-01 1.6153846000e+01 0.0000000000e+00 
          2.5000000000e-01 1.6923077000e+01 0.0000000000e+00 
          2.5000000000e-01 1.7692308000e+01 0.0000000000e+00 
          2.5000000000e-01 1.8461538000e+01 0.0000000000e+00 
          2.5000000000e-01 1.9230769000e+01 0.0000000000e+00 
          2.5000000000e-01 2.0000000000e+01 0.0000000000e+00 
          2.5000000000e-01 2.0769231000e+01 0.0000000000e+00 
          2.5000000000e-01 2.1538462000e+01 0.0000000000e+00 
          2.5000000000e-01 2.2307692000e+01 0.0000000000e+00 
          2.5000000000e-01 2.3076923000e+01 0.0000000000e+00 
          2.5000000000e-01 2.3846154000e+01 0.0000000000e+00 
          2.5000000000e-01 2.4615385000e+01 0.0000000000e+00 
          2.5000000000e-01 2.5384615000e+01 0.0000000000e+00 
          2.5000000000e-01 2.6153846000e+01 0.0000000000e+00 
          2.5000000000e-01 2.6923077000e+01 0.0000000000e+00 
          2.5000000000e-01 2.7692308000e+01 0.0000000000e+00 
          2.5000000000e-01 2.8461538000e+01 0.0000000000e+00 
          2.5000000000e-01 2.9230769000e+01 0.0000000000e+00 
          0.0000000000e+00 7.6923100000e-01 0.0000000000e+00 
          0.0000000000e+00 1.5384620000e+00 0.0000000000e+00 
          0.0000000000e+00 2.3076920000e+00 0.0000000000e+00 
          0.0000000000e+00 3.0769230000e+00 0.0000000000e+00 
          0.0000000000e+00 3.8461540000e+00 0.0000000000e+00 
          0.0000000000e+00 4.6153850000e+00 0.0000000000e+00 
          0.0000000000e+00 5.3846150000e+00 0.0000000000e+00 
          0.0000000000e+00 6.1538460000e+00 0.0000000000e+00 
          0.0000000000e+00 6.9230770000e+00 0.0000000000e+00 
          0.0000000000e+00 7.6923080000e+00 0.0000000000e+00 
          0.0000000000e+00 8.4615380000e+00 0.0000000000e+00 
          0.0000000000e+00 9.2307690000e+00 0.0000000000e+00 
          0.0000000000e+00 1.0000000000e+01 0.0000000000e+00 
          0.0000000000e+00 1.0769231000e+01 0.0000000000e+00 
          0.0000000000e+00 1.1538462000e+01 0.0000000000e+00 
          0.0000000000e+00 1.2307692000e+01 0.0000000000e+00 
          0.0000000000e+00 1.3076923000e+01 0.0000000000e+00 
          0.0000000000e+00 1.3846154000e+01 0.0000000000e+00 
          0.0000000000e+00 1.4615385000e+01 0.0000000000e+00 
          0.0000000000e+00 1.5384615000e+01 0.0000000000e+00 
          0.0000000000e+00 1.6153846000e+01 0.0000000000e+00 
          0.0000000000e+00 1.6923077000e+01 0.0000000000e+00 
          0.0000000000e+00 1.7692308000e+01 0.0000000000e+00 
          0.0000000000e+00 1.8461538000e+01 0.0000000000e+00 
          0.0000000000e+00 1.9230769000e+01 0.0000000000e+00 
          0.0000000000e+00 2.0000000000e+01 0.0000000000e+00 
          0.0000000000e+00 2.0769231000e+01 0.0000000000e+00 
          0.0000000000e+00 2.1538462000e+01 0.0000000000e+00 
          0.0000000000e+00 2.2307692000e+01 0.0000000000e+00 
          0.0000000000e+00 2.3076923000e+01 0.0000000000e+00 
          0.0000000000e+00 2.3846154000e+01 0.0000000000e+00 
          0.0000000000e+00 2.4615385000e+01 0.0000000000e+00 
          0.0000000000e+00 2.5384615000e+01 0.0000000000e+00 
          0.0000000000e+00 2.6153846000e+01 0.0000000000e+00 
          0.0000000000e+00 2.6923077000e+01 0.0000000000e+00 
          0.0000000000e+00 2.7692308000e+01 0.0000000000e+00 
          0.0000000000e+00 2.8461538000e+01 0.0000000000e+00 
          0.0000000000e+00 2.9230769000e+01 0.0000000000e+00 
        </DataArray>
      </Points>
      <Cells>
        <DataArray type="Int64" Name="connectivity" format="ascii">
          0
          1
          2
          3
          4
          5
          6
          7
          8
          9
          10
          11
          12
          13
          14
          15
          16
          17
          18
          19
          20
          21
          22
          23
          24
          25
          26
          27
          28
          29
          30
          31
          32
          33
          34
          35
          36
          37
          38
          39
          40
          41
          42
          43
          44
          45
          46
          47
          48
          49
          50
          51
          52
          53
          54
          55
          56
          57
          58
          59
          60
          61
          62
          63
          64
          65
          66
          67
          68
          69
          70
          71
          72
          73
          74
          75
          76
          77
          78
          79
          80
          81
        </DataArray>
        <DataArray type="Int64" Name="offsets" format="ascii">
          82
        </DataArray>
        <DataArray type="Int64" Name="types" format="ascii">
          2
        </DataArray>
      </Cells>
      <PointData>
        <DataArray type="Int64" Name="NodeTag" format="ascii">
          1
          2
          3
          4
          5
          6
          7
          8
          9
          10
          11
          12
          13
          14
          15
          16
          17
          18
          19
          20
          21
          22
          23
          24
          25
          26
          27
          28
          29
          30
          31
          32
          33
          34
          35
          36
          37
          38
          39
          40
          41
          42
          43
          44
          45
          46
          47
          48
          49
          50
          51
          52
          53
          54
          55
          56
          57
          58
          59
          60
          61
          62
          63
          64
          65
          66
          67
          68
          69
          70
          71
          72
          73
          74
          75
          76
          77
          78
          79
          80
          81
          82
        </DataArray>
        <DataArray type="Float64" Name="Velocity" NumberOfComponents="3" format="ascii">
          1.0547793063e-03 -7.7860066459e-05 0.0000000000e+00 
          1.0547793063e-03 -7.7860066459e-05 0.0000000000e+00 
          1.2117835825e-02 -7.7739362148e-05 0.0000000000e+00 
          1.2117835825e-02 -7.7739362148e-05 0.0000000000e+00 
          0.0000000000e+00 0.0000000000e+00 0.0000000000e+00 
          0.0000000000e+00 0.0000000000e+00 0.0000000000e+00 
          1.5268571123e-03 -7.7791918835e-05 0.0000000000e+00 
          1.9954996175e-03 -7.7929411314e-05 0.0000000000e+00 
          2.4600508048e-03 -7.7805487106e-05 0.0000000000e+00 
          2.9198800617e-03 -7.7827143466e-05 0.0000000000e+00 
          3.3743412944e-03 -7.7829858163e-05 0.0000000000e+00 
          3.8228239336e-03 -7.7825360433e-05 0.0000000000e+00 
          4.2647063790e-03 -7.7844016627e-05 0.0000000000e+00 
          4.6993935902e-03 -7.7756126168e-05 0.0000000000e+00 
          5.1263185194e-03 -7.7873907044e-05 0.0000000000e+00 
          5.5448835085e-03 -7.7727479170e-05 0.0000000000e+00 
          5.9545580341e-03 -7.7838433903e-05 0.0000000000e+00 
          6.3547785479e-03 -7.7853661867e-05 0.0000000000e+00 
          6.7450413622e-03 -7.7671509648e-05 0.0000000000e+00 
          7.1248490218e-03 -7.7864096528e-05 0.0000000000e+00 
          7.4936764241e-03 -7.7783764151e-05 0.0000000000e+00 
          7.8510790631e-03 -7.7736059518e-05 0.0000000000e+00 
          8.1966036723e-03 -7.7794200834e-05 0.0000000000e+00 
          8.5298053733e-03 -7.7750457373e-05 0.0000000000e+00 
          8.8502835094e-03 -7.7815656483e-05 0.0000000000e+00 
          9.1576228341e-03 -7.7717803538e-05 0.0000000000e+00 
          9.4514517464e-03 -7.7804193171e-05 0.0000000000e+00 
          9.7314352119e-03 -7.7755078263e-05 0.0000000000e+00 
          9.9971946820e-03 -7.7721390345e-05 0.0000000000e+00 
          1.0248440119e-02 -7.7785255026e-05 0.0000000000e+00 
          1.0484870888e-02 -7.7724585867e-05 0.0000000000e+00 
          1.0706191822e-02 -7.7794448830e-05 0.0000000000e+00 
          1.0912160865e-02 -7.7733521961e-05 0.0000000000e+00 
          1.1102529318e-02 -7.7770741175e-05 0.0000000000e+00 
          1.1277078296e-02 -7.7732488693e-05 0.0000000000e+00 
          1.1435598629e-02 -7.7811824963e-05 0.0000000000e+00 
          1.1577925889e-02 -7.7689487492e-05 0.0000000000e+00 
          1.1703888639e-02 -7.7836582806e-05 0.0000000000e+00 
          1.1813338667e-02 -7.7724674353e-05 0.0000000000e+00 
          1.1906165398e-02 -7.7721510463e-05 0.0000000000e+00 
          1.1982248620e-02 -7.7840681566e-05 0.0000000000e+00 
          1.2041519948e-02 -7.7678988052e-05 0.0000000000e+00 
          1.2083902875e-02 -7.7798175478e-05 0.0000000000e+00 
          1.2109344636e-02 -7.7743467919e-05 0.0000000000e+00 
          1.5268571123e-03 -7.7791918835e-05 0.0000000000e+00 
          1.9954996175e-03 -7.7929411314e-05 0.0000000000e+00 
          2.4600508048e-03 -7.7805487106e-05 0.0000000000e+00 
          2.9198800617e-03 -7.7827143466e-05 0.0000000000e+00 
          3.3743412944e-03 -7.7829858163e-05 0.0000000000e+00 
          3.8228239336e-03 -7.7825360433e-05 0.0000000000e+00 
          4.2647063790e-03 -7.7844016627e-05 0.0000000000e+00 
          4.6993935902e-03 -7.7756126168e-05 0.0000000000e+00 
          5.1263185194e-03 -7.7873907044e-05 0.0000000000e+00 
          5.5448835085e-03 -7.7727479170e-05 0.0000000000e+00 
          5.9545580341e-03 -7.7838433903e-05 0.0000000000e+00 
          6.3547785479e-03 -7.7853661867e-05 0.0000000000e+00 
          6.7450413622e-03 -7.7671509648e-05 0.0000000000e+00 
          7.1248490218e-03 -7.7864096528e-05 0.0000000000e+00 
          7.4936764241e-03 -7.7783764151e-05 0.0000000000e+00 
          7.8510790631e-03 -7.7736059518e-05 0.0000000000e+00 
          8.1966036723e-03 -7.7794200834e-05 0.0000000000e+00 
          8.5298053733e-03 -7.7750457373e-05 0.0000000000e+00 
          8.8502835094e-03 -7.7815656483e-05 0.0000000000e+00 
          9.1576228341e-03 -7.7717803538e-05 0.0000000000e+00 
          9.4514517464e-03 -7.7804193171e-05 0.0000000000e+00 
          9.7314352119e-03 -7.7755078263e-05 0.0000000000e+00 
          9.9971946820e-03 -7.7721390345e-05 0.0000000000e+00 
          1.0248440119e-02 -7.7785255026e-05 0.0000000000e+00 
          1.0484870888e-02 -7.7724585867e-05 0.0000000000e+00 
          1.0706191822e-02 -7.7794448830e-05 0.0000000000e+00 
          1.0912160865e-02 -7.7733521961e-05 0.0000000000e+00 
          1.1102529318e-02 -7.7770741175e-05 0.0000000000e+00 
          1.1277078296e-02 -7.7732488693e-05 0.0000000000e+00 
          1.1435598629e-02 -7.7811824963e-05 0.0000000000e+00 
          1.1577925889e-02 -7.7689487492e-05 0.0000000000e+00 
          1.1703888639e-02 -7.7836582806e-05 0.0000000000e+00 
          1.1813338667e-02 -7.7724674353e-05 0.0000000000e+00 
          1.1906165398e-02 -7.7721510463e-05 0.0000000000e+00 
          1.1982248620e-02 -7.7840681566e-05 0.0000000000e+00 
          1.2041519948e-02 -7.7678988052e-05 0.0000000000e+00 
          1.2083902875e-02 -7.7798175478e-05 0.0000000000e+00 
          1.2109344636e-02 -7.7743467919e-05 0.0000000000e+00 
        </DataArray>
        <DataArray type="Float64" Name="Displacement" NumberOfComponents="3" format="ascii">
          -2.1328973883e-04 -3.6015359183e-04 0.0000000000e+00 
          -2.1328973883e-04 -3.6015359183e-04 0.0000000000e+00 
          2.8954854971e-04 -3.8374273784e-04 0.0000000000e+00 
          2.8954854971e-04 -3.8374273784e-04 0.0000000000e+00 
          0.0000000000e+00 0.0000000000e+00 0.0000000000e+00 
          0.0000000000e+00 0.0000000000e+00 0.0000000000e+00 
          -1.9561513006e-04 -3.6134756426e-04 0.0000000000e+00 
          -1.7767040446e-04 -3.6251077383e-04 0.0000000000e+00 
          -1.5950227257e-04 -3.6364266994e-04 0.0000000000e+00 
          -1.4115753917e-04 -3.6474375811e-04 0.0000000000e+00 
          -1.2268321410e-04 -3.6581376565e-04 0.0000000000e+00 
          -1.0412628834e-04 -3.6685279671e-04 0.0000000000e+00 
          -8.5533611398e-05 -3.6786085417e-04 0.0000000000e+00 
          -6.6951822064e-05 -3.6883778192e-04 0.0000000000e+00 
          -4.8427246067e-05 -3.6978386283e-04 0.0000000000e+00 
          -3.0005723779e-05 -3.7069882229e-04 0.0000000000e+00 
          -1.1732657569e-05 -3.7158286457e-04 0.0000000000e+00 
          6.3473446366e-06 -3.7243590462e-04 0.0000000000e+00 
          2.4190250619e-05 -3.7325785541e-04 0.0000000000e+00 
          4.1752980284e-05 -3.7404890309e-04 0.0000000000e+00 
          5.8993312050e-05 -3.7480882324e-04 0.0000000000e+00 
          7.5869997557e-05 -3.7553780428e-04 0.0000000000e+00 
          9.2343037584e-05 -3.7623571855e-04 0.0000000000e+00 
          1.0837340430e-04 -3.7690265985e-04 0.0000000000e+00 
          1.2392345308e-04 -3.7753851443e-04 0.0000000000e+00 
          1.3895681050e-04 -3.7814351558e-04 0.0000000000e+00 
          1.5343848441e-04 -3.7871721205e-04 0.0000000000e+00 
          1.6733496667e-04 -3.7926018425e-04 0.0000000000e+00 
          1.8061421419e-04 -3.7977203037e-04 0.0000000000e+00 
          1.9324573854e-04 -3.8025270494e-04 0.0000000000e+00 
          2.0520073942e-04 -3.8070271177e-04 0.0000000000e+00 
          2.1645200165e-04 -3.8112133660e-04 0.0000000000e+00 
          2.2697402912e-04 -3.8150906346e-04 0.0000000000e+00 
          2.3674309257e-04 -3.8186596517e-04 0.0000000000e+00 
          2.4573720260e-04 -3.8219156197e-04 0.0000000000e+00 
          2.5393619702e-04 -3.8248624589e-04 0.0000000000e+00 
          2.6132179198e-04 -3.8274997159e-04 0.0000000000e+00 
          2.6787749728e-04 -3.8298266577e-04 0.0000000000e+00 
          2.7358873707e-04 -3.8318430126e-04 0.0000000000e+00 
          2.7844288320e-04 -3.8335486909e-04 0.0000000000e+00 
          2.8242912081e-04 -3.8349446372e-04 0.0000000000e+00 
          2.8553872440e-04 -3.8360309942e-04 0.0000000000e+00 
          2.8776476331e-04 -3.8368060312e-04 0.0000000000e+00 
          2.8910233012e-04 -3.8372707472e-04 0.0000000000e+00 
          -1.9561513006e-04 -3.6134756426e-04 0.0000000000e+00 
          -1.7767040446e-04 -3.6251077383e-04 0.0000000000e+00 
          -1.5950227257e-04 -3.6364266994e-04 0.0000000000e+00 
          -1.4115753917e-04 -3.6474375811e-04 0.0000000000e+00 
          -1.2268321410e-04 -3.6581376565e-04 0.0000000000e+00 
          -1.0412628834e-04 -3.6685279671e-04 0.0000000000e+00 
          -8.5533611398e-05 -3.6786085417e-04 0.0000000000e+00 
          -6.6951822064e-05 -3.6883778192e-04 0.0000000000e+00 
          -4.8427246067e-05 -3.6978386283e-04 0.0000000000e+00 
          -3.0005723779e-05 -3.7069882229e-04 0.0000000000e+00 
          -1.1732657569e-05 -3.7158286457e-04 0.0000000000e+00 
          6.3473446366e-06 -3.7243590462e-04 0.0000000000e+00 
          2.4190250619e-05 -3.7325785541e-04 0.0000000000e+00 
          4.1752980284e-05 -3.7404890309e-04 0.0000000000e+00 
          5.8993312050e-05 -3.7480882324e-04 0.0000000000e+00 
          7.5869997557e-05 -3.7553780428e-04 0.0000000000e+00 
          9.2343037584e-05 -3.7623571855e-04 0.0000000000e+00 
          1.0837340430e-04 -3.7690265985e-04 0.0000000000e+00 
          1.2392345308e-04 -3.7753851443e-04 0.0000000000e+00 
          1.3895681050e-04 -3.7814351558e-04 0.0000000000e+00 
          1.5343848441e-04 -3.7871721205e-04 0.0000000000e+00 
          1.6733496667e-04 -3.7926018425e-04 0.0000000000e+00 
          1.8061421419e-04 -3.7977203037e-04 0.0000000000e+00 
          1.9324573854e-04 -3.8025270494e-04 0.0000000000e+00 
          2.0520073942e-04 -3.8070271177e-04 0.0000000000e+00 
          2.1645200165e-04 -3.8112133660e-04 0.0000000000e+00 
          2.2697402912e-04 -3.8150906346e-04 0.0000000000e+00 
          2.3674309257e-04 -3.8186596517e-04 0.0000000000e+00 
          2.4573720260e-04 -3.8219156197e-04 0.0000000000e+00 
          2.5393619702e-04 -3.8248624589e-04 0.0000000000e+00 
          2.6132179198e-04 -3.8274997159e-04 0.0000000000e+00 
          2.6787749728e-04 -3.8298266577e-04 0.0000000000e+00 
          2.7358873707e-04 -3.8318430126e-04 0.0000000000e+00 
          2.7844288320e-04 -3.8335486909e-04 0.0000000000e+00 
          2.8242912081e-04 -3.8349446372e-04 0.0000000000e+00 
          2.8553872440e-04 -3.8360309942e-04 0.0000000000e+00 
          2.8776476331e-04 -3.8368060312e-04 0.0000000000e+00 
          2.8910233012e-04 -3.8372707472e-04 0.0000000000e+00 
        </DataArray>
        <DataArray type="Float64" Name="Acceleration" NumberOfComponents="3" format="ascii">
          2.8510516998e-02 4.8676501943e-06 0.0000000000e+00 
          2.8510516998e-02 4.8676501943e-06 0.0000000000e+00 
          -8.0410532957e-02 5.7648200938e-05 0.0000000000e+00 
          -8.0410532957e-02 5.7648200938e-05 0.0000000000e+00 
          0.0000000000e+00 0.0000000000e+00 0.0000000000e+00 
          0.0000000000e+00 0.0000000000e+00 0.0000000000e+00 
          2.4338060271e-02 -4.3877205405e-05 0.0000000000e+00 
          2.0131488890e-02 5.5083181374e-05 0.0000000000e+00 
          1.5910026832e-02 -3.5483032149e-05 0.0000000000e+00 
          1.1676465748e-02 1.3386947152e-05 0.0000000000e+00 
          7.4424851792e-03 -5.3778389588e-06 0.0000000000e+00 
          3.2234316233e-03 -6.1333574105e-06 0.0000000000e+00 
          -9.8317310874e-04 2.2471089511e-05 0.0000000000e+00 
          -5.1550346262e-03 -2.8740355639e-05 0.0000000000e+00 
          -9.2853426950e-03 2.0743070730e-05 0.0000000000e+00 
          -1.3374054123e-02 -1.6269535695e-05 0.0000000000e+00 
          -1.7397599701e-02 -5.2935931433e-07 0.0000000000e+00 
          -2.1362837940e-02 1.4943867276e-05 0.0000000000e+00 
          -2.5244439602e-02 -1.8603463733e-05 0.0000000000e+00 
          -2.9048687246e-02 2.1840651471e-05 0.0000000000e+00 
          -3.2763290642e-02 -1.2282419268e-05 0.0000000000e+00 
          -3.6371255391e-02 1.1063933196e-05 0.0000000000e+00 
          -3.9885739048e-02 -6.0121732667e-06 0.0000000000e+00 
          -4.3277595728e-02 1.4486605143e-05 0.0000000000e+00 
          -4.6553180137e-02 -2.7694560382e-05 0.0000000000e+00 
          -4.9709567777e-02 5.3909279250e-05 0.0000000000e+00 
          -5.2726922165e-02 -5.0829970521e-05 0.0000000000e+00 
          -5.5614069824e-02 2.1579061537e-05 0.0000000000e+00 
          -5.8359695583e-02 2.9660575562e-05 0.0000000000e+00 
          -6.0957619301e-02 -6.0898752397e-05 0.0000000000e+00 
          -6.3408242369e-02 6.7696137777e-05 0.0000000000e+00 
          -6.5705491415e-02 -1.9528335624e-05 0.0000000000e+00 
          -6.7843545812e-02 -3.2649509674e-05 0.0000000000e+00 
          -6.9823825097e-02 5.3730307986e-05 0.0000000000e+00 
          -7.1642586631e-02 -1.6760991969e-05 0.0000000000e+00 
          -7.3288898237e-02 -8.6707525424e-06 0.0000000000e+00 
          -7.4774697094e-02 4.5365061549e-06 0.0000000000e+00 
          -7.6087390257e-02 9.3918555114e-06 0.0000000000e+00 
          -7.7226550826e-02 1.1101085011e-05 0.0000000000e+00 
          -7.8200271302e-02 -5.9699471964e-06 0.0000000000e+00 
          -7.8986456891e-02 -8.5452750609e-06 0.0000000000e+00 
          -7.9610713239e-02 2.2632260608e-05 0.0000000000e+00 
          -8.0053403604e-02 4.6646847978e-06 0.0000000000e+00 
          -8.0312144671e-02 -3.5655672777e-05 0.0000000000e+00 
          2.4338060271e-02 -4.3877205405e-05 0.0000000000e+00 
          2.0131488890e-02 5.5083181374e-05 0.0000000000e+00 
          1.5910026832e-02 -3.5483032149e-05 0.0000000000e+00 
          1.1676465748e-02 1.3386947152e-05 0.0000000000e+00 
          7.4424851792e-03 -5.3778389588e-06 0.0000000000e+00 
          3.2234316233e-03 -6.1333574105e-06 0.0000000000e+00 
          -9.8317310874e-04 2.2471089511e-05 0.0000000000e+00 
          -5.1550346262e-03 -2.8740355639e-05 0.0000000000e+00 
          -9.2853426950e-03 2.0743070730e-05 0.0000000000e+00 
          -1.3374054123e-02 -1.6269535695e-05 0.0000000000e+00 
          -1.7397599701e-02 -5.2935931433e-07 0.0000000000e+00 
          -2.1362837940e-02 1.4943867276e-05 0.0000000000e+00 
          -2.5244439602e-02 -1.8603463733e-05 0.0000000000e+00 
          -2.9048687246e-02 2.1840651471e-05 0.0000000000e+00 
          -3.2763290642e-02 -1.2282419268e-05 0.0000000000e+00 
          -3.6371255391e-02 1.1063933196e-05 0.0000000000e+00 
          -3.9885739048e-02 -6.0121732667e-06 0.0000000000e+00 
          -4.3277595728e-02 1.4486605143e-05 0.0000000000e+00 
          -4.6553180137e-02 -2.7694560382e-05 0.0000000000e+00 
          -4.9709567777e-02 5.3909279250e-05 0.0000000000e+00 
          -5.2726922165e-02 -5.0829970521e-05 0.0000000000e+00 
          -5.5614069824e-02 2.1579061537e-05 0.0000000000e+00 
          -5.8359695583e-02 2.9660575562e-05 0.0000000000e+00 
          -6.0957619301e-02 -6.0898752397e-05 0.0000000000e+00 
          -6.3408242369e-02 6.7696137777e-05 0.0000000000e+00 
          -6.5705491415e-02 -1.9528335624e-05 0.0000000000e+00 
          -6.7843545812e-02 -3.2649509674e-05 0.0000000000e+00 
          -6.9823825097e-02 5.3730307986e-05 0.0000000000e+00 
          -7.1642586631e-02 -1.6760991969e-05 0.0000000000e+00 
          -7.3288898237e-02 -8.6707525424e-06 0.0000000000e+00 
          -7.4774697094e-02 4.5365061549e-06 0.0000000000e+00 
          -7.6087390257e-02 9.3918555114e-06 0.0000000000e+00 
          -7.7226550826e-02 1.1101085011e-05 0.0000000000e+00 
          -7.8200271302e-02 -5.9699471964e-06 0.0000000000e+00 
          -7.8986456891e-02 -8.5452750609e-06 0.0000000000e+00 
          -7.9610713239e-02 2.2632260608e-05 0.0000000000e+00 
          -8.0053403604e-02 4.6646847978e-06 0.0000000000e+00 
          -8.0312144671e-02 -3.5655672777e-05 0.0000000000e+00 
        </DataArray>
        <DataArray type="Float64" Name="Reaction" NumberOfComponents="3" format="ascii">
          0.0000000000e+00 0.0000000000e+00 0.0000000000e+00 
          0.0000000000e+00 0.0000000000e+00 0.0000000000e+00 
          0.0000000000e+00 0.0000000000e+00 0.0000000000e+00 
          0.0000000000e+00 0.0000000000e+00 0.0000000000e+00 
          0.0000000000e+00 0.0000000000e+00 0.0000000000e+00 
          0.0000000000e+00 0.0000000000e+00 0.0000000000e+00 
          0.0000000000e+00 0.0000000000e+00 0.0000000000e+00 
          0.0000000000e+00 0.0000000000e+00 0.0000000000e+00 
          0.0000000000e+00 0.0000000000e+00 0.0000000000e+00 
          0.0000000000e+00 0.0000000000e+00 0.0000000000e+00 
          0.0000000000e+00 0.0000000000e+00 0.0000000000e+00 
          0.0000000000e+00 0.0000000000e+00 0.0000000000e+00 
          0.0000000000e+00 0.0000000000e+00 0.0000000000e+00 
          0.0000000000e+00 0.0000000000e+00 0.0000000000e+00 
          0.0000000000e+00 0.0000000000e+00 0.0000000000e+00 
          0.0000000000e+00 0.0000000000e+00 0.0000000000e+00 
          0.0000000000e+00 0.0000000000e+00 0.0000000000e+00 
          0.0000000000e+00 0.0000000000e+00 0.0000000000e+00 
          0.0000000000e+00 0.0000000000e+00 0.0000000000e+00 
          0.0000000000e+00 0.0000000000e+00 0.0000000000e+00 
          0.0000000000e+00 0.0000000000e+00 0.0000000000e+00 
          0.0000000000e+00 0.0000000000e+00 0.0000000000e+00 
          0.0000000000e+00 0.0000000000e+00 0.0000000000e+00 
          0.0000000000e+00 0.0000000000e+00 0.0000000000e+00 
          0.0000000000e+00 0.0000000000e+00 0.0000000000e+00 
          0.0000000000e+00 0.0000000000e+00 0.0000000000e+00 
          0.0000000000e+00 0.0000000000e+00 0.0000000000e+00 
          0.0000000000e+00 0.0000000000e+00 0.0000000000e+00 
          0.0000000000e+00 0.0000000000e+00 0.0000000000e+00 
          0.0000000000e+00 0.0000000000e+00 0.0000000000e+00 
          0.0000000000e+00 0.0000000000e+00 0.0000000000e+00 
          0.0000000000e+00 0.0000000000e+00 0.0000000000e+00 
          0.0000000000e+00 0.0000000000e+00 0.0000000000e+00 
          0.0000000000e+00 0.0000000000e+00 0.0000000000e+00 
          0.0000000000e+00 0.0000000000e+00 0.0000000000e+00 
          0.0000000000e+00 0.0000000000e+00 0.0000000000e+00 
          0.0000000000e+00 0.0000000000e+00 0.0000000000e+00 
          0.0000000000e+00 0.0000000000e+00 0.0000000000e+00 
          0.0000000000e+00 0.0000000000e+00 0.0000000000e+00 
          0.0000000000e+00 0.0000000000e+00 0.0000000000e+00 
          0.0000000000e+00 0.0000000000e+00 0.0000000000e+00 
          0.0000000000e+00 0.0000000000e+00 0.0000000000e+00 
          0.0000000000e+00 0.0000000000e+00 0.0000000000e+00 
          0.0000000000e+00 0.0000000000e+00 0.0000000000e+00 
          0.0000000000e+00 0.0000000000e+00 0.0000000000e+00 
          0.0000000000e+00 0.0000000000e+00 0.0000000000e+00 
          0.0000000000e+00 0.0000000000e+00 0.0000000000e+00 
          0.0000000000e+00 0.0000000000e+00 0.0000000000e+00 
          0.0000000000e+00 0.0000000000e+00 0.0000000000e+00 
          0.0000000000e+00 0.0000000000e+00 0.0000000000e+00 
          0.0000000000e+00 0.0000000000e+00 0.0000000000e+00 
          0.0000000000e+00 0.0000000000e+00 0.0000000000e+00 
          0.0000000000e+00 0.0000000000e+00 0.0000000000e+00 
          0.0000000000e+00 0.0000000000e+00 0.0000000000e+00 
          0.0000000000e+00 0.0000000000e+00 0.0000000000e+00 
          0.0000000000e+00 0.0000000000e+00 0.0000000000e+00 
          0.0000000000e+00 0.0000000000e+00 0.0000000000e+00 
          0.0000000000e+00 0.0000000000e+00 0.0000000000e+00 
          0.0000000000e+00 0.0000000000e+00 0.0000000000e+00 
          0.0000000000e+00 0.0000000000e+00 0.0000000000e+00 
          0.0000000000e+00 0.0000000000e+00 0.0000000000e+00 
          0.0000000000e+00 0.0000000000e+00 0.0000000000e+00 
          0.0000000000e+00 0.0000000000e+00 0.0000000000e+00 
          0.0000000000e+00 0.0000000000e+00 0.0000000000e+00 
          0.0000000000e+00 0.0000000000e+00 0.0000000000e+00 
          0.0000000000e+00 0.0000000000e+00 0.0000000000e+00 
          0.0000000000e+00 0.0000000000e+00 0.0000000000e+00 
          0.0000000000e+00 0.0000000000e+00 0.0000000000e+00 
          0.0000000000e+00 0.0000000000e+00 0.0000000000e+00 
          0.0000000000e+00 0.0000000000e+00 0.0000000000e+00 
          0.0000000000e+00 0.0000000000e+00 0.0000000000e+00 
          0.0000000000e+00 0.0000000000e+00 0.0000000000e+00 
          0.0000000000e+00 0.0000000000e+00 0.0000000000e+00 
          0.0000000000e+00 0.0000000000e+00 0.0000000000e+00 
          0.0000000000e+00 0.0000000000e+00 0.0000000000e+00 
          0.0000000000e+00 0.0000000000e+00 0.0000000000e+00 
          0.0000000000e+00 0.0000000000e+00 0.0000000000e+00 
          0.0000000000e+00 0.0000000000e+00 0.0000000000e+00 
          0.0000000000e+00 0.0000000000e+00 0.0000000000e+00 
          0.0000000000e+00 0.0000000000e+00 0.0000000000e+00 
          0.0000000000e+00 0.0000000000e+00 0.0000000000e+00 
          0.0000000000e+00 0.0000000000e+00 0.0000000000e+00 
        </DataArray>
      </PointData>
      <CellData>
        <DataArray type="Int64" Name="ElementTag" format="ascii">
          0
        </DataArray>
      </CellData>
    </Piece>
  </UnstructuredGrid>
</VTKFile>
