<?xml version="1.0"?>
<VTKFile type="UnstructuredGrid" version="1.0" byte_order="LittleEndian" compressor="vtkZLibDataCompressor">
  <UnstructuredGrid>
    <Piece NumberOfPoints="82" NumberOfCells="1">
      <Points>
        <DataArray type="Float64" Name="Points" NumberOfComponents="3" format="ascii">
          0.0000000000e+00 0.0000000000e+00 0.0000000000e+00 
          2.5000000000e-01 0.0000000000e+00 0.0000000000e+00 
          2.5000000000e-01 3.0000000000e+01 0.0000000000e+00 
          0.0000000000e+00 3.0000000000e+01 0.0000000000e+00 
          0.0000000000e+00 -5.0000000000e+00 0.0000000000e+00 
          2.5000000000e-01 -5.0000000000e+00 0.0000000000e+00 
          2.5000000000e-01 7.6923100000e-01 0.0000000000e+00 
          2.5000000000e-01 1.5384620000e+00 0.0000000000e+00 
          2.5000000000e-01 2.3076920000e+00 0.0000000000e+00 
          2.5000000000e-01 3.0769230000e+00 0.0000000000e+00 
          2.5000000000e-01 3.8461540000e+00 0.0000000000e+00 
          2.5000000000e-01 4.6153850000e+00 0.0000000000e+00 
          2.5000000000e-01 5.3846150000e+00 0.0000000000e+00 
          2.5000000000e-01 6.1538460000e+00 0.0000000000e+00 
          2.5000000000e-01 6.9230770000e+00 0.0000000000e+00 
          2.5000000000e-01 7.6923080000e+00 0.0000000000e+00 
          2.5000000000e-01 8.4615380000e+00 0.0000000000e+00 
          2.5000000000e-01 9.2307690000e+00 0.0000000000e+00 
          2.5000000000e-01 1.0000000000e+01 0.0000000000e+00 
          2.5000000000e-01 1.0769231000e+01 0.0000000000e+00 
          2.5000000000e-01 1.1538462000e+01 0.0000000000e+00 
          2.5000000000e-01 1.2307692000e+01 0.0000000000e+00 
          2.5000000000e-01 1.3076923000e+01 0.0000000000e+00 
          2.5000000000e-01 1.3846154000e+01 0.0000000000e+00 
          2.5000000000e-01 1.4615385000e+01 0.0000000000e+00 
          2.5000000000e-01 1.5384615000e+01 0.0000000000e+00 
          2.5000000000e-01 1.6153846000e+01 0.0000000000e+00 
          2.5000000000e-01 1.6923077000e+01 0.0000000000e+00 
          2.5000000000e-01 1.7692308000e+01 0.0000000000e+00 
          2.5000000000e-01 1.8461538000e+01 0.0000000000e+00 
          2.5000000000e-01 1.9230769000e+01 0.0000000000e+00 
          2.5000000000e-01 2.0000000000e+01 0.0000000000e+00 
          2.5000000000e-01 2.0769231000e+01 0.0000000000e+00 
          2.5000000000e-01 2.1538462000e+01 0.0000000000e+00 
          2.5000000000e-01 2.2307692000e+01 0.0000000000e+00 
          2.5000000000e-01 2.3076923000e+01 0.0000000000e+00 
          2.5000000000e-01 2.3846154000e+01 0.0000000000e+00 
          2.5000000000e-01 2.4615385000e+01 0.0000000000e+00 
          2.5000000000e-01 2.5384615000e+01 0.0000000000e+00 
          2.5000000000e-01 2.6153846000e+01 0.0000000000e+00 
          2.5000000000e-01 2.6923077000e+01 0.0000000000e+00 
          2.5000000000e-01 2.7692308000e+01 0.0000000000e+00 
          2.5000000000e-01 2.8461538000e+01 0.0000000000e+00 
          2.5000000000e-01 2.9230769000e+01 0.0000000000e+00 
          0.0000000000e+00 7.6923100000e-01 0.0000000000e+00 
          0.0000000000e+00 1.5384620000e+00 0.0000000000e+00 
          0.0000000000e+00 2.3076920000e+00 0.0000000000e+00 
          0.0000000000e+00 3.0769230000e+00 0.0000000000e+00 
          0.0000000000e+00 3.8461540000e+00 0.0000000000e+00 
          0.0000000000e+00 4.6153850000e+00 0.0000000000e+00 
          0.0000000000e+00 5.3846150000e+00 0.0000000000e+00 
          0.0000000000e+00 6.1538460000e+00 0.0000000000e+00 
          0.0000000000e+00 6.9230770000e+00 0.0000000000e+00 
          0.0000000000e+00 7.6923080000e+00 0.0000000000e+00 
          0.0000000000e+00 8.4615380000e+00 0.0000000000e+00 
          0.0000000000e+00 9.2307690000e+00 0.0000000000e+00 
          0.0000000000e+00 1.0000000000e+01 0.0000000000e+00 
          0.0000000000e+00 1.0769231000e+01 0.0000000000e+00 
          0.0000000000e+00 1.1538462000e+01 0.0000000000e+00 
          0.0000000000e+00 1.2307692000e+01 0.0000000000e+00 
          0.0000000000e+00 1.3076923000e+01 0.0000000000e+00 
          0.0000000000e+00 1.3846154000e+01 0.0000000000e+00 
          0.0000000000e+00 1.4615385000e+01 0.0000000000e+00 
          0.0000000000e+00 1.5384615000e+01 0.0000000000e+00 
          0.0000000000e+00 1.6153846000e+01 0.0000000000e+00 
          0.0000000000e+00 1.6923077000e+01 0.0000000000e+00 
          0.0000000000e+00 1.7692308000e+01 0.0000000000e+00 
          0.0000000000e+00 1.8461538000e+01 0.0000000000e+00 
          0.0000000000e+00 1.9230769000e+01 0.0000000000e+00 
          0.0000000000e+00 2.0000000000e+01 0.0000000000e+00 
          0.0000000000e+00 2.0769231000e+01 0.0000000000e+00 
          0.0000000000e+00 2.1538462000e+01 0.0000000000e+00 
          0.0000000000e+00 2.2307692000e+01 0.0000000000e+00 
          0.0000000000e+00 2.3076923000e+01 0.0000000000e+00 
          0.0000000000e+00 2.3846154000e+01 0.0000000000e+00 
          0.0000000000e+00 2.4615385000e+01 0.0000000000e+00 
          0.0000000000e+00 2.5384615000e+01 0.0000000000e+00 
          0.0000000000e+00 2.6153846000e+01 0.0000000000e+00 
          0.0000000000e+00 2.6923077000e+01 0.0000000000e+00 
          0.0000000000e+00 2.7692308000e+01 0.0000000000e+00 
          0.0000000000e+00 2.8461538000e+01 0.0000000000e+00 
          0.0000000000e+00 2.9230769000e+01 0.0000000000e+00 
        </DataArray>
      </Points>
      <Cells>
        <DataArray type="Int64" Name="connectivity" format="ascii">
          0
          1
          2
          3
          4
          5
          6
          7
          8
          9
          10
          11
          12
          13
          14
          15
          16
          17
          18
          19
          20
          21
          22
          23
          24
          25
          26
          27
          28
          29
          30
          31
          32
          33
          34
          35
          36
          37
          38
          39
          40
          41
          42
          43
          44
          45
          46
          47
          48
          49
          50
          51
          52
          53
          54
          55
          56
          57
          58
          59
          60
          61
          62
          63
          64
          65
          66
          67
          68
          69
          70
          71
          72
          73
          74
          75
          76
          77
          78
          79
          80
          81
        </DataArray>
        <DataArray type="Int64" Name="offsets" format="ascii">
          82
        </DataArray>
        <DataArray type="Int64" Name="types" format="ascii">
          2
        </DataArray>
      </Cells>
      <PointData>
        <DataArray type="Int64" Name="NodeTag" format="ascii">
          1
          2
          3
          4
          5
          6
          7
          8
          9
          10
          11
          12
          13
          14
          15
          16
          17
          18
          19
          20
          21
          22
          23
          24
          25
          26
          27
          28
          29
          30
          31
          32
          33
          34
          35
          36
          37
          38
          39
          40
          41
          42
          43
          44
          45
          46
          47
          48
          49
          50
          51
          52
          53
          54
          55
          56
          57
          58
          59
          60
          61
          62
          63
          64
          65
          66
          67
          68
          69
          70
          71
          72
          73
          74
          75
          76
          77
          78
          79
          80
          81
          82
        </DataArray>
        <DataArray type="Float64" Name="Velocity" NumberOfComponents="3" format="ascii">
          3.0847349884e-18 -8.6553469230e-05 0.0000000000e+00 
          3.0847349884e-18 -8.6553469230e-05 0.0000000000e+00 
          -3.5841827592e-19 -3.2739983635e-05 0.0000000000e+00 
          -3.5841827592e-19 -3.2739983635e-05 0.0000000000e+00 
          0.0000000000e+00 0.0000000000e+00 0.0000000000e+00 
          0.0000000000e+00 0.0000000000e+00 0.0000000000e+00 
          3.6562626557e-18 -8.3292846809e-05 0.0000000000e+00 
          -2.6345043280e-18 -8.0157232958e-05 0.0000000000e+00 
          -8.6739035506e-18 -7.7644039423e-05 0.0000000000e+00 
          7.9759179294e-19 -7.5303009246e-05 0.0000000000e+00 
          -6.4720947030e-18 -7.3708969082e-05 0.0000000000e+00 
          2.8565914391e-18 -7.2285100412e-05 0.0000000000e+00 
          -2.9572052449e-18 -7.0600684175e-05 0.0000000000e+00 
          1.7527237894e-17 -6.8331493730e-05 0.0000000000e+00 
          -3.8022244466e-18 -6.5733643320e-05 0.0000000000e+00 
          4.1890898286e-18 -6.2912207987e-05 0.0000000000e+00 
          -5.1499216802e-18 -5.9351546694e-05 0.0000000000e+00 
          -1.3797467378e-17 -5.6041999525e-05 0.0000000000e+00 
          8.3392520616e-18 -5.2470007059e-05 0.0000000000e+00 
          -2.1401249803e-18 -4.9538478210e-05 0.0000000000e+00 
          -5.2911327835e-18 -4.7147366269e-05 0.0000000000e+00 
          4.1847845620e-21 -4.4969692445e-05 0.0000000000e+00 
          1.0747140274e-17 -4.2928272708e-05 0.0000000000e+00 
          -3.3038033245e-18 -3.9866635219e-05 0.0000000000e+00 
          6.7141430676e-19 -3.7612396697e-05 0.0000000000e+00 
          -1.1155490424e-18 -3.6755570069e-05 0.0000000000e+00 
          5.4615423245e-18 -3.5488946500e-05 0.0000000000e+00 
          4.3246387152e-18 -3.4107047138e-05 0.0000000000e+00 
          -7.2519227868e-18 -3.3707190053e-05 0.0000000000e+00 
          -2.4830795633e-18 -3.3519522939e-05 0.0000000000e+00 
          -3.1504001483e-18 -3.3147136557e-05 0.0000000000e+00 
          1.9592498223e-17 -3.3049450678e-05 0.0000000000e+00 
          -1.6667460071e-17 -3.2494922661e-05 0.0000000000e+00 
          5.3074519244e-18 -3.1944361238e-05 0.0000000000e+00 
          6.4298724490e-19 -3.1778926036e-05 0.0000000000e+00 
          8.9352615296e-19 -3.1811638475e-05 0.0000000000e+00 
          -6.4970565700e-18 -3.2090552893e-05 0.0000000000e+00 
          5.2713138363e-18 -3.2481697369e-05 0.0000000000e+00 
          6.9508669057e-19 -3.2495536438e-05 0.0000000000e+00 
          -1.8751889355e-18 -3.2066468979e-05 0.0000000000e+00 
          -2.7710335259e-19 -3.1523756640e-05 0.0000000000e+00 
          1.6444334175e-18 -3.1486749410e-05 0.0000000000e+00 
          -2.0063456365e-19 -3.1756292055e-05 0.0000000000e+00 
          -1.9470720572e-18 -3.2183136211e-05 0.0000000000e+00 
          3.6562626557e-18 -8.3292846809e-05 0.0000000000e+00 
          -2.6345043280e-18 -8.0157232958e-05 0.0000000000e+00 
          -8.6739035506e-18 -7.7644039423e-05 0.0000000000e+00 
          7.9759179294e-19 -7.5303009246e-05 0.0000000000e+00 
          -6.4720947030e-18 -7.3708969082e-05 0.0000000000e+00 
          2.8565914391e-18 -7.2285100412e-05 0.0000000000e+00 
          -2.9572052449e-18 -7.0600684175e-05 0.0000000000e+00 
          1.7527237894e-17 -6.8331493730e-05 0.0000000000e+00 
          -3.8022244466e-18 -6.5733643320e-05 0.0000000000e+00 
          4.1890898286e-18 -6.2912207987e-05 0.0000000000e+00 
          -5.1499216802e-18 -5.9351546694e-05 0.0000000000e+00 
          -1.3797467378e-17 -5.6041999525e-05 0.0000000000e+00 
          8.3392520616e-18 -5.2470007059e-05 0.0000000000e+00 
          -2.1401249803e-18 -4.9538478210e-05 0.0000000000e+00 
          -5.2911327835e-18 -4.7147366269e-05 0.0000000000e+00 
          4.1847845620e-21 -4.4969692445e-05 0.0000000000e+00 
          1.0747140274e-17 -4.2928272708e-05 0.0000000000e+00 
          -3.3038033245e-18 -3.9866635219e-05 0.0000000000e+00 
          6.7141430676e-19 -3.7612396697e-05 0.0000000000e+00 
          -1.1155490424e-18 -3.6755570069e-05 0.0000000000e+00 
          5.4615423245e-18 -3.5488946500e-05 0.0000000000e+00 
          4.3246387152e-18 -3.4107047138e-05 0.0000000000e+00 
          -7.2519227868e-18 -3.3707190053e-05 0.0000000000e+00 
          -2.4830795633e-18 -3.3519522939e-05 0.0000000000e+00 
          -3.1504001483e-18 -3.3147136557e-05 0.0000000000e+00 
          1.9592498223e-17 -3.3049450678e-05 0.0000000000e+00 
          -1.6667460071e-17 -3.2494922661e-05 0.0000000000e+00 
          5.3074519244e-18 -3.1944361238e-05 0.0000000000e+00 
          6.4298724490e-19 -3.1778926036e-05 0.0000000000e+00 
          8.9352615296e-19 -3.1811638475e-05 0.0000000000e+00 
          -6.4970565700e-18 -3.2090552893e-05 0.0000000000e+00 
          5.2713138363e-18 -3.2481697369e-05 0.0000000000e+00 
          6.9508669057e-19 -3.2495536438e-05 0.0000000000e+00 
          -1.8751889355e-18 -3.2066468979e-05 0.0000000000e+00 
          -2.7710335259e-19 -3.1523756640e-05 0.0000000000e+00 
          1.6444334175e-18 -3.1486749410e-05 0.0000000000e+00 
          -2.0063456365e-19 -3.1756292055e-05 0.0000000000e+00 
          -1.9470720572e-18 -3.2183136211e-05 0.0000000000e+00 
        </DataArray>
        <DataArray type="Float64" Name="Displacement" NumberOfComponents="3" format="ascii">
          3.5338619918e-20 -7.4889526047e-05 0.0000000000e+00 
          3.5338619918e-20 -7.4889526047e-05 0.0000000000e+00 
          -9.5140113631e-21 -1.0217482626e-04 0.0000000000e+00 
          -9.5140113631e-21 -1.0217482626e-04 0.0000000000e+00 
          0.0000000000e+00 0.0000000000e+00 0.0000000000e+00 
          0.0000000000e+00 0.0000000000e+00 0.0000000000e+00 
          4.7691912491e-20 -7.6217972297e-05 0.0000000000e+00 
          4.3081384304e-20 -7.7514584125e-05 0.0000000000e+00 
          3.4275322090e-20 -7.8778577054e-05 0.0000000000e+00 
          5.6712710159e-21 -8.0010361825e-05 0.0000000000e+00 
          3.9479732009e-20 -8.1208269791e-05 0.0000000000e+00 
          -1.3872029164e-20 -8.2373238806e-05 0.0000000000e+00 
          3.4827229423e-20 -8.3508579327e-05 0.0000000000e+00 
          3.0698346883e-20 -8.4612659423e-05 0.0000000000e+00 
          2.4002284955e-20 -8.5682957066e-05 0.0000000000e+00 
          5.6039700621e-20 -8.6721178228e-05 0.0000000000e+00 
          -1.2659232713e-20 -8.7728217444e-05 0.0000000000e+00 
          3.8811537883e-20 -8.8703902735e-05 0.0000000000e+00 
          1.1259445956e-21 -8.9649344367e-05 0.0000000000e+00 
          4.5839902952e-20 -9.0564279309e-05 0.0000000000e+00 
          5.4327832042e-21 -9.1448780945e-05 0.0000000000e+00 
          5.1725606949e-20 -9.2303089411e-05 0.0000000000e+00 
          5.5431160685e-21 -9.3126577275e-05 0.0000000000e+00 
          5.0272658672e-20 -9.3918345035e-05 0.0000000000e+00 
          5.1192283309e-20 -9.4676199973e-05 0.0000000000e+00 
          4.8614697778e-20 -9.5398454645e-05 0.0000000000e+00 
          5.9970125414e-20 -9.6085938499e-05 0.0000000000e+00 
          3.0746713028e-21 -9.6738095599e-05 0.0000000000e+00 
          3.9936972383e-20 -9.7354782515e-05 0.0000000000e+00 
          -1.3387768067e-20 -9.7936522255e-05 0.0000000000e+00 
          3.1529449177e-21 -9.8482103165e-05 0.0000000000e+00 
          1.1399469827e-21 -9.8991044410e-05 0.0000000000e+00 
          1.5182265021e-20 -9.9461077365e-05 0.0000000000e+00 
          2.5438715745e-20 -9.9892856240e-05 0.0000000000e+00 
          -1.5409943171e-20 -1.0028730859e-04 0.0000000000e+00 
          -8.3734786696e-21 -1.0064566489e-04 0.0000000000e+00 
          -5.8554266759e-21 -1.0096765504e-04 0.0000000000e+00 
          -3.0565932206e-20 -1.0125023641e-04 0.0000000000e+00 
          7.4433103075e-21 -1.0149494428e-04 0.0000000000e+00 
          -2.6163002390e-20 -1.0170321587e-04 0.0000000000e+00 
          -1.3601332405e-20 -1.0187255669e-04 0.0000000000e+00 
          -9.0817043240e-21 -1.0200369866e-04 0.0000000000e+00 
          -4.8990420645e-21 -1.0209822833e-04 0.0000000000e+00 
          -6.8076614532e-21 -1.0215545086e-04 0.0000000000e+00 
          4.7691912491e-20 -7.6217972297e-05 0.0000000000e+00 
          4.3081384304e-20 -7.7514584125e-05 0.0000000000e+00 
          3.4275322090e-20 -7.8778577054e-05 0.0000000000e+00 
          5.6712710159e-21 -8.0010361825e-05 0.0000000000e+00 
          3.9479732009e-20 -8.1208269791e-05 0.0000000000e+00 
          -1.3872029164e-20 -8.2373238806e-05 0.0000000000e+00 
          3.4827229423e-20 -8.3508579327e-05 0.0000000000e+00 
          3.0698346883e-20 -8.4612659423e-05 0.0000000000e+00 
          2.4002284955e-20 -8.5682957066e-05 0.0000000000e+00 
          5.6039700621e-20 -8.6721178228e-05 0.0000000000e+00 
          -1.2659232713e-20 -8.7728217444e-05 0.0000000000e+00 
          3.8811537883e-20 -8.8703902735e-05 0.0000000000e+00 
          1.1259445956e-21 -8.9649344367e-05 0.0000000000e+00 
          4.5839902952e-20 -9.0564279309e-05 0.0000000000e+00 
          5.4327832042e-21 -9.1448780945e-05 0.0000000000e+00 
          5.1725606949e-20 -9.2303089411e-05 0.0000000000e+00 
          5.5431160685e-21 -9.3126577275e-05 0.0000000000e+00 
          5.0272658672e-20 -9.3918345035e-05 0.0000000000e+00 
          5.1192283309e-20 -9.4676199973e-05 0.0000000000e+00 
          4.8614697778e-20 -9.5398454645e-05 0.0000000000e+00 
          5.9970125414e-20 -9.6085938499e-05 0.0000000000e+00 
          3.0746713028e-21 -9.6738095599e-05 0.0000000000e+00 
          3.9936972383e-20 -9.7354782515e-05 0.0000000000e+00 
          -1.3387768067e-20 -9.7936522255e-05 0.0000000000e+00 
          3.1529449177e-21 -9.8482103165e-05 0.0000000000e+00 
          1.1399469827e-21 -9.8991044410e-05 0.0000000000e+00 
          1.5182265021e-20 -9.9461077365e-05 0.0000000000e+00 
          2.5438715745e-20 -9.9892856240e-05 0.0000000000e+00 
          -1.5409943171e-20 -1.0028730859e-04 0.0000000000e+00 
          -8.3734786696e-21 -1.0064566489e-04 0.0000000000e+00 
          -5.8554266759e-21 -1.0096765504e-04 0.0000000000e+00 
          -3.0565932206e-20 -1.0125023641e-04 0.0000000000e+00 
          7.4433103075e-21 -1.0149494428e-04 0.0000000000e+00 
          -2.6163002390e-20 -1.0170321587e-04 0.0000000000e+00 
          -1.3601332405e-20 -1.0187255669e-04 0.0000000000e+00 
          -9.0817043240e-21 -1.0200369866e-04 0.0000000000e+00 
          -4.8990420645e-21 -1.0209822833e-04 0.0000000000e+00 
          -6.8076614532e-21 -1.0215545086e-04 0.0000000000e+00 
        </DataArray>
        <DataArray type="Float64" Name="Acceleration" NumberOfComponents="3" format="ascii">
          1.2384806095e-15 2.1055206880e-04 0.0000000000e+00 
          1.2384806095e-15 2.1055206880e-04 0.0000000000e+00 
          7.5205573185e-16 1.3955815494e-03 0.0000000000e+00 
          7.5205573185e-16 1.3955815494e-03 0.0000000000e+00 
          0.0000000000e+00 0.0000000000e+00 0.0000000000e+00 
          0.0000000000e+00 0.0000000000e+00 0.0000000000e+00 
          -2.6201219879e-15 1.4922409313e-04 0.0000000000e+00 
          1.7595684142e-16 2.9029786354e-04 0.0000000000e+00 
          -2.4964516179e-15 2.1687266941e-04 0.0000000000e+00 
          6.7993266690e-15 5.1726980187e-04 0.0000000000e+00 
          -8.0901055761e-15 3.4826453764e-04 0.0000000000e+00 
          8.1804849733e-15 -2.4855518187e-04 0.0000000000e+00 
          -5.9298738537e-15 4.6057275284e-05 0.0000000000e+00 
          3.5557437275e-15 5.0026708677e-04 0.0000000000e+00 
          -8.8488860021e-17 1.9284420213e-04 0.0000000000e+00 
          -6.9224086924e-15 3.1413186216e-05 0.0000000000e+00 
          9.7413843294e-15 6.2876405866e-05 0.0000000000e+00 
          -6.7880415608e-15 -1.3743773483e-04 0.0000000000e+00 
          5.9489249624e-15 -9.0038216921e-05 0.0000000000e+00 
          -7.7059992961e-15 -1.0326253555e-04 0.0000000000e+00 
          9.6072300854e-15 -1.4673256120e-04 0.0000000000e+00 
          -8.8992558352e-15 -3.3266418604e-05 0.0000000000e+00 
          7.0108948110e-15 1.2862374461e-04 0.0000000000e+00 
          -2.8155543312e-15 5.2375997283e-04 0.0000000000e+00 
          -4.3371626374e-16 8.2767918058e-04 0.0000000000e+00 
          1.1560560420e-15 6.7854773665e-04 0.0000000000e+00 
          -5.9586713066e-15 7.7855604069e-04 0.0000000000e+00 
          8.1022689033e-15 8.0440288724e-04 0.0000000000e+00 
          -7.9994968318e-15 7.1002260203e-04 0.0000000000e+00 
          4.6910183835e-15 9.2864017034e-04 0.0000000000e+00 
          1.1374250076e-15 1.0151478980e-03 0.0000000000e+00 
          -9.7354386273e-16 1.4239631725e-03 0.0000000000e+00 
          -1.4657250353e-15 1.3060718749e-03 0.0000000000e+00 
          -7.9358393526e-16 1.1388349118e-03 0.0000000000e+00 
          1.4636970682e-15 9.1728306963e-04 0.0000000000e+00 
          -1.5253793583e-16 9.6585959914e-04 0.0000000000e+00 
          -2.1386414320e-15 1.5141522647e-03 0.0000000000e+00 
          6.6568081277e-15 1.2374382148e-03 0.0000000000e+00 
          -5.5393373626e-15 9.7855911671e-04 0.0000000000e+00 
          3.3080736910e-15 1.4280128293e-03 0.0000000000e+00 
          -2.1090349240e-15 1.2961200819e-03 0.0000000000e+00 
          2.2206100414e-16 1.0101982730e-03 0.0000000000e+00 
          6.8180857205e-18 1.1354561056e-03 0.0000000000e+00 
          -2.3039741005e-16 1.2327389552e-03 0.0000000000e+00 
          -2.6201219879e-15 1.4922409313e-04 0.0000000000e+00 
          1.7595684142e-16 2.9029786354e-04 0.0000000000e+00 
          -2.4964516179e-15 2.1687266941e-04 0.0000000000e+00 
          6.7993266690e-15 5.1726980187e-04 0.0000000000e+00 
          -8.0901055761e-15 3.4826453764e-04 0.0000000000e+00 
          8.1804849733e-15 -2.4855518187e-04 0.0000000000e+00 
          -5.9298738537e-15 4.6057275284e-05 0.0000000000e+00 
          3.5557437275e-15 5.0026708677e-04 0.0000000000e+00 
          -8.8488860021e-17 1.9284420213e-04 0.0000000000e+00 
          -6.9224086924e-15 3.1413186216e-05 0.0000000000e+00 
          9.7413843294e-15 6.2876405866e-05 0.0000000000e+00 
          -6.7880415608e-15 -1.3743773483e-04 0.0000000000e+00 
          5.9489249624e-15 -9.0038216921e-05 0.0000000000e+00 
          -7.7059992961e-15 -1.0326253555e-04 0.0000000000e+00 
          9.6072300854e-15 -1.4673256120e-04 0.0000000000e+00 
          -8.8992558352e-15 -3.3266418604e-05 0.0000000000e+00 
          7.0108948110e-15 1.2862374461e-04 0.0000000000e+00 
          -2.8155543312e-15 5.2375997283e-04 0.0000000000e+00 
          -4.3371626374e-16 8.2767918058e-04 0.0000000000e+00 
          1.1560560420e-15 6.7854773665e-04 0.0000000000e+00 
          -5.9586713066e-15 7.7855604069e-04 0.0000000000e+00 
          8.1022689033e-15 8.0440288724e-04 0.0000000000e+00 
          -7.9994968318e-15 7.1002260203e-04 0.0000000000e+00 
          4.6910183835e-15 9.2864017034e-04 0.0000000000e+00 
          1.1374250076e-15 1.0151478980e-03 0.0000000000e+00 
          -9.7354386273e-16 1.4239631725e-03 0.0000000000e+00 
          -1.4657250353e-15 1.3060718749e-03 0.0000000000e+00 
          -7.9358393526e-16 1.1388349118e-03 0.0000000000e+00 
          1.4636970682e-15 9.1728306963e-04 0.0000000000e+00 
          -1.5253793583e-16 9.6585959914e-04 0.0000000000e+00 
          -2.1386414320e-15 1.5141522647e-03 0.0000000000e+00 
          6.6568081277e-15 1.2374382148e-03 0.0000000000e+00 
          -5.5393373626e-15 9.7855911671e-04 0.0000000000e+00 
          3.3080736910e-15 1.4280128293e-03 0.0000000000e+00 
          -2.1090349240e-15 1.2961200819e-03 0.0000000000e+00 
          2.2206100414e-16 1.0101982730e-03 0.0000000000e+00 
          6.8180857205e-18 1.1354561056e-03 0.0000000000e+00 
          -2.3039741005e-16 1.2327389552e-03 0.0000000000e+00 
        </DataArray>
        <DataArray type="Float64" Name="Reaction" NumberOfComponents="3" format="ascii">
          0.0000000000e+00 0.0000000000e+00 0.0000000000e+00 
          0.0000000000e+00 0.0000000000e+00 0.0000000000e+00 
          0.0000000000e+00 0.0000000000e+00 0.0000000000e+00 
          0.0000000000e+00 0.0000000000e+00 0.0000000000e+00 
          0.0000000000e+00 0.0000000000e+00 0.0000000000e+00 
          0.0000000000e+00 0.0000000000e+00 0.0000000000e+00 
          0.0000000000e+00 0.0000000000e+00 0.0000000000e+00 
          0.0000000000e+00 0.0000000000e+00 0.0000000000e+00 
          0.0000000000e+00 0.0000000000e+00 0.0000000000e+00 
          0.0000000000e+00 0.0000000000e+00 0.0000000000e+00 
          0.0000000000e+00 0.0000000000e+00 0.0000000000e+00 
          0.0000000000e+00 0.0000000000e+00 0.0000000000e+00 
          0.0000000000e+00 0.0000000000e+00 0.0000000000e+00 
          0.0000000000e+00 0.0000000000e+00 0.0000000000e+00 
          0.0000000000e+00 0.0000000000e+00 0.0000000000e+00 
          0.0000000000e+00 0.0000000000e+00 0.0000000000e+00 
          0.0000000000e+00 0.0000000000e+00 0.0000000000e+00 
          0.0000000000e+00 0.0000000000e+00 0.0000000000e+00 
          0.0000000000e+00 0.0000000000e+00 0.0000000000e+00 
          0.0000000000e+00 0.0000000000e+00 0.0000000000e+00 
          0.0000000000e+00 0.0000000000e+00 0.0000000000e+00 
          0.0000000000e+00 0.0000000000e+00 0.0000000000e+00 
          0.0000000000e+00 0.0000000000e+00 0.0000000000e+00 
          0.0000000000e+00 0.0000000000e+00 0.0000000000e+00 
          0.0000000000e+00 0.0000000000e+00 0.0000000000e+00 
          0.0000000000e+00 0.0000000000e+00 0.0000000000e+00 
          0.0000000000e+00 0.0000000000e+00 0.0000000000e+00 
          0.0000000000e+00 0.0000000000e+00 0.0000000000e+00 
          0.0000000000e+00 0.0000000000e+00 0.0000000000e+00 
          0.0000000000e+00 0.0000000000e+00 0.0000000000e+00 
          0.0000000000e+00 0.0000000000e+00 0.0000000000e+00 
          0.0000000000e+00 0.0000000000e+00 0.0000000000e+00 
          0.0000000000e+00 0.0000000000e+00 0.0000000000e+00 
          0.0000000000e+00 0.0000000000e+00 0.0000000000e+00 
          0.0000000000e+00 0.0000000000e+00 0.0000000000e+00 
          0.0000000000e+00 0.0000000000e+00 0.0000000000e+00 
          0.0000000000e+00 0.0000000000e+00 0.0000000000e+00 
          0.0000000000e+00 0.0000000000e+00 0.0000000000e+00 
          0.0000000000e+00 0.0000000000e+00 0.0000000000e+00 
          0.0000000000e+00 0.0000000000e+00 0.0000000000e+00 
          0.0000000000e+00 0.0000000000e+00 0.0000000000e+00 
          0.0000000000e+00 0.0000000000e+00 0.0000000000e+00 
          0.0000000000e+00 0.0000000000e+00 0.0000000000e+00 
          0.0000000000e+00 0.0000000000e+00 0.0000000000e+00 
          0.0000000000e+00 0.0000000000e+00 0.0000000000e+00 
          0.0000000000e+00 0.0000000000e+00 0.0000000000e+00 
          0.0000000000e+00 0.0000000000e+00 0.0000000000e+00 
          0.0000000000e+00 0.0000000000e+00 0.0000000000e+00 
          0.0000000000e+00 0.0000000000e+00 0.0000000000e+00 
          0.0000000000e+00 0.0000000000e+00 0.0000000000e+00 
          0.0000000000e+00 0.0000000000e+00 0.0000000000e+00 
          0.0000000000e+00 0.0000000000e+00 0.0000000000e+00 
          0.0000000000e+00 0.0000000000e+00 0.0000000000e+00 
          0.0000000000e+00 0.0000000000e+00 0.0000000000e+00 
          0.0000000000e+00 0.0000000000e+00 0.0000000000e+00 
          0.0000000000e+00 0.0000000000e+00 0.0000000000e+00 
          0.0000000000e+00 0.0000000000e+00 0.0000000000e+00 
          0.0000000000e+00 0.0000000000e+00 0.0000000000e+00 
          0.0000000000e+00 0.0000000000e+00 0.0000000000e+00 
          0.0000000000e+00 0.0000000000e+00 0.0000000000e+00 
          0.0000000000e+00 0.0000000000e+00 0.0000000000e+00 
          0.0000000000e+00 0.0000000000e+00 0.0000000000e+00 
          0.0000000000e+00 0.0000000000e+00 0.0000000000e+00 
          0.0000000000e+00 0.0000000000e+00 0.0000000000e+00 
          0.0000000000e+00 0.0000000000e+00 0.0000000000e+00 
          0.0000000000e+00 0.0000000000e+00 0.0000000000e+00 
          0.0000000000e+00 0.0000000000e+00 0.0000000000e+00 
          0.0000000000e+00 0.0000000000e+00 0.0000000000e+00 
          0.0000000000e+00 0.0000000000e+00 0.0000000000e+00 
          0.0000000000e+00 0.0000000000e+00 0.0000000000e+00 
          0.0000000000e+00 0.0000000000e+00 0.0000000000e+00 
          0.0000000000e+00 0.0000000000e+00 0.0000000000e+00 
          0.0000000000e+00 0.0000000000e+00 0.0000000000e+00 
          0.0000000000e+00 0.0000000000e+00 0.0000000000e+00 
          0.0000000000e+00 0.0000000000e+00 0.0000000000e+00 
          0.0000000000e+00 0.0000000000e+00 0.0000000000e+00 
          0.0000000000e+00 0.0000000000e+00 0.0000000000e+00 
          0.0000000000e+00 0.0000000000e+00 0.0000000000e+00 
          0.0000000000e+00 0.0000000000e+00 0.0000000000e+00 
          0.0000000000e+00 0.0000000000e+00 0.0000000000e+00 
          0.0000000000e+00 0.0000000000e+00 0.0000000000e+00 
          0.0000000000e+00 0.0000000000e+00 0.0000000000e+00 
        </DataArray>
      </PointData>
      <CellData>
        <DataArray type="Int64" Name="ElementTag" format="ascii">
          0
        </DataArray>
      </CellData>
    </Piece>
  </UnstructuredGrid>
</VTKFile>
