<?xml version="1.0"?>
<VTKFile type="UnstructuredGrid" version="1.0" byte_order="LittleEndian" compressor="vtkZLibDataCompressor">
  <UnstructuredGrid>
    <Piece NumberOfPoints="80" NumberOfCells="39">
      <Points>
        <DataArray type="Float64" Name="Points" NumberOfComponents="3" format="ascii">
          0.0000000000e+00 0.0000000000e+00 0.0000000000e+00 
          2.5000000000e-01 0.0000000000e+00 0.0000000000e+00 
          2.5000000000e-01 3.0000000000e+01 0.0000000000e+00 
          0.0000000000e+00 3.0000000000e+01 0.0000000000e+00 
          2.5000000000e-01 7.6923100000e-01 0.0000000000e+00 
          2.5000000000e-01 1.5384620000e+00 0.0000000000e+00 
          2.5000000000e-01 2.3076920000e+00 0.0000000000e+00 
          2.5000000000e-01 3.0769230000e+00 0.0000000000e+00 
          2.5000000000e-01 3.8461540000e+00 0.0000000000e+00 
          2.5000000000e-01 4.6153850000e+00 0.0000000000e+00 
          2.5000000000e-01 5.3846150000e+00 0.0000000000e+00 
          2.5000000000e-01 6.1538460000e+00 0.0000000000e+00 
          2.5000000000e-01 6.9230770000e+00 0.0000000000e+00 
          2.5000000000e-01 7.6923080000e+00 0.0000000000e+00 
          2.5000000000e-01 8.4615380000e+00 0.0000000000e+00 
          2.5000000000e-01 9.2307690000e+00 0.0000000000e+00 
          2.5000000000e-01 1.0000000000e+01 0.0000000000e+00 
          2.5000000000e-01 1.0769231000e+01 0.0000000000e+00 
          2.5000000000e-01 1.1538462000e+01 0.0000000000e+00 
          2.5000000000e-01 1.2307692000e+01 0.0000000000e+00 
          2.5000000000e-01 1.3076923000e+01 0.0000000000e+00 
          2.5000000000e-01 1.3846154000e+01 0.0000000000e+00 
          2.5000000000e-01 1.4615385000e+01 0.0000000000e+00 
          2.5000000000e-01 1.5384615000e+01 0.0000000000e+00 
          2.5000000000e-01 1.6153846000e+01 0.0000000000e+00 
          2.5000000000e-01 1.6923077000e+01 0.0000000000e+00 
          2.5000000000e-01 1.7692308000e+01 0.0000000000e+00 
          2.5000000000e-01 1.8461538000e+01 0.0000000000e+00 
          2.5000000000e-01 1.9230769000e+01 0.0000000000e+00 
          2.5000000000e-01 2.0000000000e+01 0.0000000000e+00 
          2.5000000000e-01 2.0769231000e+01 0.0000000000e+00 
          2.5000000000e-01 2.1538462000e+01 0.0000000000e+00 
          2.5000000000e-01 2.2307692000e+01 0.0000000000e+00 
          2.5000000000e-01 2.3076923000e+01 0.0000000000e+00 
          2.5000000000e-01 2.3846154000e+01 0.0000000000e+00 
          2.5000000000e-01 2.4615385000e+01 0.0000000000e+00 
          2.5000000000e-01 2.5384615000e+01 0.0000000000e+00 
          2.5000000000e-01 2.6153846000e+01 0.0000000000e+00 
          2.5000000000e-01 2.6923077000e+01 0.0000000000e+00 
          2.5000000000e-01 2.7692308000e+01 0.0000000000e+00 
          2.5000000000e-01 2.8461538000e+01 0.0000000000e+00 
          2.5000000000e-01 2.9230769000e+01 0.0000000000e+00 
          0.0000000000e+00 7.6923100000e-01 0.0000000000e+00 
          0.0000000000e+00 1.5384620000e+00 0.0000000000e+00 
          0.0000000000e+00 2.3076920000e+00 0.0000000000e+00 
          0.0000000000e+00 3.0769230000e+00 0.0000000000e+00 
          0.0000000000e+00 3.8461540000e+00 0.0000000000e+00 
          0.0000000000e+00 4.6153850000e+00 0.0000000000e+00 
          0.0000000000e+00 5.3846150000e+00 0.0000000000e+00 
          0.0000000000e+00 6.1538460000e+00 0.0000000000e+00 
          0.0000000000e+00 6.9230770000e+00 0.0000000000e+00 
          0.0000000000e+00 7.6923080000e+00 0.0000000000e+00 
          0.0000000000e+00 8.4615380000e+00 0.0000000000e+00 
          0.0000000000e+00 9.2307690000e+00 0.0000000000e+00 
          0.0000000000e+00 1.0000000000e+01 0.0000000000e+00 
          0.0000000000e+00 1.0769231000e+01 0.0000000000e+00 
          0.0000000000e+00 1.1538462000e+01 0.0000000000e+00 
          0.0000000000e+00 1.2307692000e+01 0.0000000000e+00 
          0.0000000000e+00 1.3076923000e+01 0.0000000000e+00 
          0.0000000000e+00 1.3846154000e+01 0.0000000000e+00 
          0.0000000000e+00 1.4615385000e+01 0.0000000000e+00 
          0.0000000000e+00 1.5384615000e+01 0.0000000000e+00 
          0.0000000000e+00 1.6153846000e+01 0.0000000000e+00 
          0.0000000000e+00 1.6923077000e+01 0.0000000000e+00 
          0.0000000000e+00 1.7692308000e+01 0.0000000000e+00 
          0.0000000000e+00 1.8461538000e+01 0.0000000000e+00 
          0.0000000000e+00 1.9230769000e+01 0.0000000000e+00 
          0.0000000000e+00 2.0000000000e+01 0.0000000000e+00 
          0.0000000000e+00 2.0769231000e+01 0.0000000000e+00 
          0.0000000000e+00 2.1538462000e+01 0.0000000000e+00 
          0.0000000000e+00 2.2307692000e+01 0.0000000000e+00 
          0.0000000000e+00 2.3076923000e+01 0.0000000000e+00 
          0.0000000000e+00 2.3846154000e+01 0.0000000000e+00 
          0.0000000000e+00 2.4615385000e+01 0.0000000000e+00 
          0.0000000000e+00 2.5384615000e+01 0.0000000000e+00 
          0.0000000000e+00 2.6153846000e+01 0.0000000000e+00 
          0.0000000000e+00 2.6923077000e+01 0.0000000000e+00 
          0.0000000000e+00 2.7692308000e+01 0.0000000000e+00 
          0.0000000000e+00 2.8461538000e+01 0.0000000000e+00 
          0.0000000000e+00 2.9230769000e+01 0.0000000000e+00 
        </DataArray>
      </Points>
      <Cells>
        <DataArray type="Int64" Name="connectivity" format="ascii">
          0 1 4 42 
          42 4 5 43 
          43 5 6 44 
          44 6 7 45 
          45 7 8 46 
          46 8 9 47 
          47 9 10 48 
          48 10 11 49 
          49 11 12 50 
          50 12 13 51 
          51 13 14 52 
          52 14 15 53 
          53 15 16 54 
          54 16 17 55 
          55 17 18 56 
          56 18 19 57 
          57 19 20 58 
          58 20 21 59 
          59 21 22 60 
          60 22 23 61 
          61 23 24 62 
          62 24 25 63 
          63 25 26 64 
          64 26 27 65 
          65 27 28 66 
          66 28 29 67 
          67 29 30 68 
          68 30 31 69 
          69 31 32 70 
          70 32 33 71 
          71 33 34 72 
          72 34 35 73 
          73 35 36 74 
          74 36 37 75 
          75 37 38 76 
          76 38 39 77 
          77 39 40 78 
          78 40 41 79 
          79 41 2 3 
        </DataArray>
        <DataArray type="Int64" Name="offsets" format="ascii">
          4
          8
          12
          16
          20
          24
          28
          32
          36
          40
          44
          48
          52
          56
          60
          64
          68
          72
          76
          80
          84
          88
          92
          96
          100
          104
          108
          112
          116
          120
          124
          128
          132
          136
          140
          144
          148
          152
          156
        </DataArray>
        <DataArray type="Int64" Name="types" format="ascii">
          9
          9
          9
          9
          9
          9
          9
          9
          9
          9
          9
          9
          9
          9
          9
          9
          9
          9
          9
          9
          9
          9
          9
          9
          9
          9
          9
          9
          9
          9
          9
          9
          9
          9
          9
          9
          9
          9
          9
        </DataArray>
      </Cells>
      <PointData>
        <DataArray type="Int64" Name="NodeTag" format="ascii">
          1
          2
          3
          4
          7
          8
          9
          10
          11
          12
          13
          14
          15
          16
          17
          18
          19
          20
          21
          22
          23
          24
          25
          26
          27
          28
          29
          30
          31
          32
          33
          34
          35
          36
          37
          38
          39
          40
          41
          42
          43
          44
          45
          46
          47
          48
          49
          50
          51
          52
          53
          54
          55
          56
          57
          58
          59
          60
          61
          62
          63
          64
          65
          66
          67
          68
          69
          70
          71
          72
          73
          74
          75
          76
          77
          78
          79
          80
          81
          82
        </DataArray>
        <DataArray type="Float64" Name="Velocity" NumberOfComponents="3" format="ascii">
          1.0145732716e-18 -7.7622811336e-05 0.0000000000e+00 
          1.0145732716e-18 -7.7622811336e-05 0.0000000000e+00 
          -3.0449311033e-18 -1.9580784445e-04 0.0000000000e+00 
          -3.0449311033e-18 -1.9580784445e-04 0.0000000000e+00 
          -5.0719350005e-18 -8.1131843764e-05 0.0000000000e+00 
          -2.7582105744e-18 -8.4594083384e-05 0.0000000000e+00 
          5.3037655593e-18 -8.8196531429e-05 0.0000000000e+00 
          2.8467418063e-18 -9.1311885944e-05 0.0000000000e+00 
          -1.5810687287e-18 -9.4051126923e-05 0.0000000000e+00 
          -2.1149867119e-18 -9.7728181794e-05 0.0000000000e+00 
          1.4559768736e-18 -1.0164904474e-04 0.0000000000e+00 
          -5.4760689744e-18 -1.0492588342e-04 0.0000000000e+00 
          5.8964718286e-18 -1.0844513954e-04 0.0000000000e+00 
          -3.3401570033e-19 -1.1182126210e-04 0.0000000000e+00 
          -5.6072007202e-20 -1.1437816305e-04 0.0000000000e+00 
          -5.7061216250e-19 -1.1748841211e-04 0.0000000000e+00 
          6.9060973080e-19 -1.2103804053e-04 0.0000000000e+00 
          -3.2378968290e-18 -1.2460161680e-04 0.0000000000e+00 
          -6.4787080233e-18 -1.2894349189e-04 0.0000000000e+00 
          4.7818909625e-18 -1.3268009423e-04 0.0000000000e+00 
          -1.8872460794e-18 -1.3567859766e-04 0.0000000000e+00 
          -3.5932580335e-18 -1.3831104458e-04 0.0000000000e+00 
          1.8195807251e-18 -1.4093643975e-04 0.0000000000e+00 
          5.1416101224e-18 -1.4404488554e-04 0.0000000000e+00 
          -1.2838232178e-17 -1.4804608651e-04 0.0000000000e+00 
          1.0288356015e-17 -1.5191425332e-04 0.0000000000e+00 
          -8.4571238120e-20 -1.5481337353e-04 0.0000000000e+00 
          4.0217339600e-18 -1.5863256608e-04 0.0000000000e+00 
          3.0014180404e-18 -1.6282722887e-04 0.0000000000e+00 
          -5.7842535374e-18 -1.6615918240e-04 0.0000000000e+00 
          1.1654619882e-18 -1.6916702994e-04 0.0000000000e+00 
          1.6143371808e-18 -1.7177874106e-04 0.0000000000e+00 
          -5.3994779313e-18 -1.7448263166e-04 0.0000000000e+00 
          -5.2506905135e-18 -1.7651973510e-04 0.0000000000e+00 
          5.1643969928e-18 -1.7881158410e-04 0.0000000000e+00 
          -3.3763454433e-18 -1.8200076333e-04 0.0000000000e+00 
          3.9696721001e-18 -1.8452570954e-04 0.0000000000e+00 
          5.2272137729e-18 -1.8699104552e-04 0.0000000000e+00 
          9.2637412708e-19 -1.9009089090e-04 0.0000000000e+00 
          1.4026693481e-18 -1.9213890774e-04 0.0000000000e+00 
          -2.6388820153e-18 -1.9368867036e-04 0.0000000000e+00 
          3.8770785581e-19 -1.9536472101e-04 0.0000000000e+00 
          -5.0719350005e-18 -8.1131843764e-05 0.0000000000e+00 
          -2.7582105744e-18 -8.4594083384e-05 0.0000000000e+00 
          5.3037655593e-18 -8.8196531429e-05 0.0000000000e+00 
          2.8467418063e-18 -9.1311885944e-05 0.0000000000e+00 
          -1.5810687287e-18 -9.4051126923e-05 0.0000000000e+00 
          -2.1149867119e-18 -9.7728181794e-05 0.0000000000e+00 
          1.4559768736e-18 -1.0164904474e-04 0.0000000000e+00 
          -5.4760689744e-18 -1.0492588342e-04 0.0000000000e+00 
          5.8964718286e-18 -1.0844513954e-04 0.0000000000e+00 
          -3.3401570033e-19 -1.1182126210e-04 0.0000000000e+00 
          -5.6072007202e-20 -1.1437816305e-04 0.0000000000e+00 
          -5.7061216250e-19 -1.1748841211e-04 0.0000000000e+00 
          6.9060973080e-19 -1.2103804053e-04 0.0000000000e+00 
          -3.2378968290e-18 -1.2460161680e-04 0.0000000000e+00 
          -6.4787080233e-18 -1.2894349189e-04 0.0000000000e+00 
          4.7818909625e-18 -1.3268009423e-04 0.0000000000e+00 
          -1.8872460794e-18 -1.3567859766e-04 0.0000000000e+00 
          -3.5932580335e-18 -1.3831104458e-04 0.0000000000e+00 
          1.8195807251e-18 -1.4093643975e-04 0.0000000000e+00 
          5.1416101224e-18 -1.4404488554e-04 0.0000000000e+00 
          -1.2838232178e-17 -1.4804608651e-04 0.0000000000e+00 
          1.0288356015e-17 -1.5191425332e-04 0.0000000000e+00 
          -8.4571238120e-20 -1.5481337353e-04 0.0000000000e+00 
          4.0217339600e-18 -1.5863256608e-04 0.0000000000e+00 
          3.0014180404e-18 -1.6282722887e-04 0.0000000000e+00 
          -5.7842535374e-18 -1.6615918240e-04 0.0000000000e+00 
          1.1654619882e-18 -1.6916702994e-04 0.0000000000e+00 
          1.6143371808e-18 -1.7177874106e-04 0.0000000000e+00 
          -5.3994779313e-18 -1.7448263166e-04 0.0000000000e+00 
          -5.2506905135e-18 -1.7651973510e-04 0.0000000000e+00 
          5.1643969928e-18 -1.7881158410e-04 0.0000000000e+00 
          -3.3763454433e-18 -1.8200076333e-04 0.0000000000e+00 
          3.9696721001e-18 -1.8452570954e-04 0.0000000000e+00 
          5.2272137729e-18 -1.8699104552e-04 0.0000000000e+00 
          9.2637412708e-19 -1.9009089090e-04 0.0000000000e+00 
          1.4026693481e-18 -1.9213890774e-04 0.0000000000e+00 
          -2.6388820153e-18 -1.9368867036e-04 0.0000000000e+00 
          3.8770785581e-19 -1.9536472101e-04 0.0000000000e+00 
        </DataArray>
        <DataArray type="Float64" Name="Displacement" NumberOfComponents="3" format="ascii">
          9.5655450530e-21 -6.3450424576e-05 0.0000000000e+00 
          9.5655450530e-21 -6.3450424576e-05 0.0000000000e+00 
          -3.1351738366e-21 -8.7760709154e-05 0.0000000000e+00 
          -3.1351738366e-21 -8.7760709154e-05 0.0000000000e+00 
          1.6224593025e-20 -6.4641334846e-05 0.0000000000e+00 
          1.8658240994e-20 -6.5805379773e-05 0.0000000000e+00 
          1.7031086064e-20 -6.6940499101e-05 0.0000000000e+00 
          -2.8517610444e-21 -6.8046195060e-05 0.0000000000e+00 
          -1.2507067713e-20 -6.9121287065e-05 0.0000000000e+00 
          2.2049757819e-20 -7.0165671295e-05 0.0000000000e+00 
          6.6707320257e-21 -7.1179077516e-05 0.0000000000e+00 
          6.5614602203e-21 -7.2161795369e-05 0.0000000000e+00 
          1.2065557724e-20 -7.3115610293e-05 0.0000000000e+00 
          -1.9274679547e-21 -7.4041678346e-05 0.0000000000e+00 
          -1.1572409001e-21 -7.4939534814e-05 0.0000000000e+00 
          -1.8432128700e-21 -7.5805767260e-05 0.0000000000e+00 
          -8.0663853127e-21 -7.6641013499e-05 0.0000000000e+00 
          -1.0673899483e-20 -7.7447071732e-05 0.0000000000e+00 
          -2.1972011976e-20 -7.8222923779e-05 0.0000000000e+00 
          -2.0594163775e-20 -7.8968375959e-05 0.0000000000e+00 
          -3.3740693530e-20 -7.9683375851e-05 0.0000000000e+00 
          -9.3077181816e-21 -8.0369840714e-05 0.0000000000e+00 
          -5.0131250315e-20 -8.1027161063e-05 0.0000000000e+00 
          -2.1840285699e-20 -8.1654482797e-05 0.0000000000e+00 
          -3.0780718082e-20 -8.2253447073e-05 0.0000000000e+00 
          -3.3377103214e-20 -8.2823247648e-05 0.0000000000e+00 
          -1.0771295228e-20 -8.3361955735e-05 0.0000000000e+00 
          1.8756242625e-20 -8.3869360245e-05 0.0000000000e+00 
          2.9735660591e-20 -8.4344858694e-05 0.0000000000e+00 
          -8.5788086193e-21 -8.4789319559e-05 0.0000000000e+00 
          2.5868259869e-20 -8.5205462284e-05 0.0000000000e+00 
          -3.4901785548e-21 -8.5592755360e-05 0.0000000000e+00 
          -3.4372775007e-20 -8.5950996616e-05 0.0000000000e+00 
          -1.7792047311e-20 -8.6279096086e-05 0.0000000000e+00 
          -1.1124172224e-20 -8.6577104220e-05 0.0000000000e+00 
          2.0307264662e-20 -8.6845626455e-05 0.0000000000e+00 
          -7.2970191182e-21 -8.7083597912e-05 0.0000000000e+00 
          9.6195434484e-21 -8.7287740672e-05 0.0000000000e+00 
          2.4772232747e-20 -8.7455413618e-05 0.0000000000e+00 
          1.0432817674e-20 -8.7586985592e-05 0.0000000000e+00 
          1.8086496155e-20 -8.7682681314e-05 0.0000000000e+00 
          5.1536087141e-21 -8.7741165486e-05 0.0000000000e+00 
          1.6224593025e-20 -6.4641334846e-05 0.0000000000e+00 
          1.8658240994e-20 -6.5805379773e-05 0.0000000000e+00 
          1.7031086064e-20 -6.6940499101e-05 0.0000000000e+00 
          -2.8517610444e-21 -6.8046195060e-05 0.0000000000e+00 
          -1.2507067713e-20 -6.9121287065e-05 0.0000000000e+00 
          2.2049757819e-20 -7.0165671295e-05 0.0000000000e+00 
          6.6707320257e-21 -7.1179077516e-05 0.0000000000e+00 
          6.5614602203e-21 -7.2161795369e-05 0.0000000000e+00 
          1.2065557724e-20 -7.3115610293e-05 0.0000000000e+00 
          -1.9274679547e-21 -7.4041678346e-05 0.0000000000e+00 
          -1.1572409001e-21 -7.4939534814e-05 0.0000000000e+00 
          -1.8432128700e-21 -7.5805767260e-05 0.0000000000e+00 
          -8.0663853127e-21 -7.6641013499e-05 0.0000000000e+00 
          -1.0673899483e-20 -7.7447071732e-05 0.0000000000e+00 
          -2.1972011976e-20 -7.8222923779e-05 0.0000000000e+00 
          -2.0594163775e-20 -7.8968375959e-05 0.0000000000e+00 
          -3.3740693530e-20 -7.9683375851e-05 0.0000000000e+00 
          -9.3077181816e-21 -8.0369840714e-05 0.0000000000e+00 
          -5.0131250315e-20 -8.1027161063e-05 0.0000000000e+00 
          -2.1840285699e-20 -8.1654482797e-05 0.0000000000e+00 
          -3.0780718082e-20 -8.2253447073e-05 0.0000000000e+00 
          -3.3377103214e-20 -8.2823247648e-05 0.0000000000e+00 
          -1.0771295228e-20 -8.3361955735e-05 0.0000000000e+00 
          1.8756242625e-20 -8.3869360245e-05 0.0000000000e+00 
          2.9735660591e-20 -8.4344858694e-05 0.0000000000e+00 
          -8.5788086193e-21 -8.4789319559e-05 0.0000000000e+00 
          2.5868259869e-20 -8.5205462284e-05 0.0000000000e+00 
          -3.4901785548e-21 -8.5592755360e-05 0.0000000000e+00 
          -3.4372775007e-20 -8.5950996616e-05 0.0000000000e+00 
          -1.7792047311e-20 -8.6279096086e-05 0.0000000000e+00 
          -1.1124172224e-20 -8.6577104220e-05 0.0000000000e+00 
          2.0307264662e-20 -8.6845626455e-05 0.0000000000e+00 
          -7.2970191182e-21 -8.7083597912e-05 0.0000000000e+00 
          9.6195434484e-21 -8.7287740672e-05 0.0000000000e+00 
          2.4772232747e-20 -8.7455413618e-05 0.0000000000e+00 
          1.0432817674e-20 -8.7586985592e-05 0.0000000000e+00 
          1.8086496155e-20 -8.7682681314e-05 0.0000000000e+00 
          5.1536087141e-21 -8.7741165486e-05 0.0000000000e+00 
        </DataArray>
        <DataArray type="Float64" Name="Acceleration" NumberOfComponents="3" format="ascii">
          -2.6819730765e-16 -2.1981141193e-04 0.0000000000e+00 
          -2.6819730765e-16 -2.1981141193e-04 0.0000000000e+00 
          6.2250476535e-16 1.4562276955e-03 0.0000000000e+00 
          6.2250476535e-16 1.4562276955e-03 0.0000000000e+00 
          -1.1848603494e-15 -7.4622359790e-04 0.0000000000e+00 
          -9.6132368024e-16 -3.7521964652e-04 0.0000000000e+00 
          3.5390213669e-16 -2.8498764960e-04 0.0000000000e+00 
          -3.9453426247e-16 -7.2511148713e-05 0.0000000000e+00 
          2.9837138557e-15 -5.3801967080e-05 0.0000000000e+00 
          -3.8266051235e-15 -5.3386385782e-06 0.0000000000e+00 
          1.6648274201e-15 -5.7058288760e-05 0.0000000000e+00 
          5.0840377423e-16 -3.7904235494e-04 0.0000000000e+00 
          -1.1353554929e-15 -5.8736859812e-04 0.0000000000e+00 
          6.7605632030e-16 -5.0383248198e-04 0.0000000000e+00 
          -1.0013710673e-16 1.1152350067e-04 0.0000000000e+00 
          -3.2625869619e-16 -3.6276681480e-06 0.0000000000e+00 
          -4.6548114563e-16 -3.2767044102e-04 0.0000000000e+00 
          1.0075268400e-16 -1.4419033805e-04 0.0000000000e+00 
          2.2960762058e-16 -1.0945924994e-04 0.0000000000e+00 
          -1.5944323319e-15 -9.9663658079e-05 0.0000000000e+00 
          5.7145779036e-15 -4.4533955954e-04 0.0000000000e+00 
          -7.9778161742e-15 -3.3550768417e-04 0.0000000000e+00 
          5.3526751205e-15 -1.8173911157e-04 0.0000000000e+00 
          4.1928369933e-16 -4.7718798638e-04 0.0000000000e+00 
          -2.5754028232e-15 -3.3205046615e-04 0.0000000000e+00 
          3.8697028784e-15 1.5524780529e-05 0.0000000000e+00 
          -2.0151159592e-15 5.3448677368e-05 0.0000000000e+00 
          8.0151185869e-16 1.6225659403e-04 0.0000000000e+00 
          -4.4946142737e-15 5.6306022460e-06 0.0000000000e+00 
          4.8937488686e-15 -4.8442353697e-04 0.0000000000e+00 
          -3.7985463808e-15 -3.8864388636e-04 0.0000000000e+00 
          -2.3206464385e-15 -3.5229204019e-04 0.0000000000e+00 
          7.8375193581e-15 -1.5570818142e-04 0.0000000000e+00 
          -3.2424181704e-15 -1.6488663870e-04 0.0000000000e+00 
          -1.2400402569e-16 -2.7398900717e-04 0.0000000000e+00 
          -1.7053153947e-16 -8.2145790704e-05 0.0000000000e+00 
          6.8014123301e-17 5.0866032207e-04 0.0000000000e+00 
          4.9435607863e-16 9.8454005763e-04 0.0000000000e+00 
          -2.1244483821e-15 9.1807344447e-04 0.0000000000e+00 
          2.2144047341e-15 8.7755961132e-04 0.0000000000e+00 
          -1.4860883004e-15 1.1182305102e-03 0.0000000000e+00 
          4.5908411889e-16 1.4297685254e-03 0.0000000000e+00 
          -1.1848603494e-15 -7.4622359790e-04 0.0000000000e+00 
          -9.6132368024e-16 -3.7521964652e-04 0.0000000000e+00 
          3.5390213669e-16 -2.8498764960e-04 0.0000000000e+00 
          -3.9453426247e-16 -7.2511148713e-05 0.0000000000e+00 
          2.9837138557e-15 -5.3801967080e-05 0.0000000000e+00 
          -3.8266051235e-15 -5.3386385782e-06 0.0000000000e+00 
          1.6648274201e-15 -5.7058288760e-05 0.0000000000e+00 
          5.0840377423e-16 -3.7904235494e-04 0.0000000000e+00 
          -1.1353554929e-15 -5.8736859812e-04 0.0000000000e+00 
          6.7605632030e-16 -5.0383248198e-04 0.0000000000e+00 
          -1.0013710673e-16 1.1152350067e-04 0.0000000000e+00 
          -3.2625869619e-16 -3.6276681480e-06 0.0000000000e+00 
          -4.6548114563e-16 -3.2767044102e-04 0.0000000000e+00 
          1.0075268400e-16 -1.4419033805e-04 0.0000000000e+00 
          2.2960762058e-16 -1.0945924994e-04 0.0000000000e+00 
          -1.5944323319e-15 -9.9663658079e-05 0.0000000000e+00 
          5.7145779036e-15 -4.4533955954e-04 0.0000000000e+00 
          -7.9778161742e-15 -3.3550768417e-04 0.0000000000e+00 
          5.3526751205e-15 -1.8173911157e-04 0.0000000000e+00 
          4.1928369933e-16 -4.7718798638e-04 0.0000000000e+00 
          -2.5754028232e-15 -3.3205046615e-04 0.0000000000e+00 
          3.8697028784e-15 1.5524780529e-05 0.0000000000e+00 
          -2.0151159592e-15 5.3448677368e-05 0.0000000000e+00 
          8.0151185869e-16 1.6225659403e-04 0.0000000000e+00 
          -4.4946142737e-15 5.6306022460e-06 0.0000000000e+00 
          4.8937488686e-15 -4.8442353697e-04 0.0000000000e+00 
          -3.7985463808e-15 -3.8864388636e-04 0.0000000000e+00 
          -2.3206464385e-15 -3.5229204019e-04 0.0000000000e+00 
          7.8375193581e-15 -1.5570818142e-04 0.0000000000e+00 
          -3.2424181704e-15 -1.6488663870e-04 0.0000000000e+00 
          -1.2400402569e-16 -2.7398900717e-04 0.0000000000e+00 
          -1.7053153947e-16 -8.2145790704e-05 0.0000000000e+00 
          6.8014123301e-17 5.0866032207e-04 0.0000000000e+00 
          4.9435607863e-16 9.8454005763e-04 0.0000000000e+00 
          -2.1244483821e-15 9.1807344447e-04 0.0000000000e+00 
          2.2144047341e-15 8.7755961132e-04 0.0000000000e+00 
          -1.4860883004e-15 1.1182305102e-03 0.0000000000e+00 
          4.5908411889e-16 1.4297685254e-03 0.0000000000e+00 
        </DataArray>
        <DataArray type="Float64" Name="Reaction" NumberOfComponents="3" format="ascii">
          0.0000000000e+00 0.0000000000e+00 0.0000000000e+00 
          0.0000000000e+00 0.0000000000e+00 0.0000000000e+00 
          0.0000000000e+00 0.0000000000e+00 0.0000000000e+00 
          0.0000000000e+00 0.0000000000e+00 0.0000000000e+00 
          0.0000000000e+00 0.0000000000e+00 0.0000000000e+00 
          0.0000000000e+00 0.0000000000e+00 0.0000000000e+00 
          0.0000000000e+00 0.0000000000e+00 0.0000000000e+00 
          0.0000000000e+00 0.0000000000e+00 0.0000000000e+00 
          0.0000000000e+00 0.0000000000e+00 0.0000000000e+00 
          0.0000000000e+00 0.0000000000e+00 0.0000000000e+00 
          0.0000000000e+00 0.0000000000e+00 0.0000000000e+00 
          0.0000000000e+00 0.0000000000e+00 0.0000000000e+00 
          0.0000000000e+00 0.0000000000e+00 0.0000000000e+00 
          0.0000000000e+00 0.0000000000e+00 0.0000000000e+00 
          0.0000000000e+00 0.0000000000e+00 0.0000000000e+00 
          0.0000000000e+00 0.0000000000e+00 0.0000000000e+00 
          0.0000000000e+00 0.0000000000e+00 0.0000000000e+00 
          0.0000000000e+00 0.0000000000e+00 0.0000000000e+00 
          0.0000000000e+00 0.0000000000e+00 0.0000000000e+00 
          0.0000000000e+00 0.0000000000e+00 0.0000000000e+00 
          0.0000000000e+00 0.0000000000e+00 0.0000000000e+00 
          0.0000000000e+00 0.0000000000e+00 0.0000000000e+00 
          0.0000000000e+00 0.0000000000e+00 0.0000000000e+00 
          0.0000000000e+00 0.0000000000e+00 0.0000000000e+00 
          0.0000000000e+00 0.0000000000e+00 0.0000000000e+00 
          0.0000000000e+00 0.0000000000e+00 0.0000000000e+00 
          0.0000000000e+00 0.0000000000e+00 0.0000000000e+00 
          0.0000000000e+00 0.0000000000e+00 0.0000000000e+00 
          0.0000000000e+00 0.0000000000e+00 0.0000000000e+00 
          0.0000000000e+00 0.0000000000e+00 0.0000000000e+00 
          0.0000000000e+00 0.0000000000e+00 0.0000000000e+00 
          0.0000000000e+00 0.0000000000e+00 0.0000000000e+00 
          0.0000000000e+00 0.0000000000e+00 0.0000000000e+00 
          0.0000000000e+00 0.0000000000e+00 0.0000000000e+00 
          0.0000000000e+00 0.0000000000e+00 0.0000000000e+00 
          0.0000000000e+00 0.0000000000e+00 0.0000000000e+00 
          0.0000000000e+00 0.0000000000e+00 0.0000000000e+00 
          0.0000000000e+00 0.0000000000e+00 0.0000000000e+00 
          0.0000000000e+00 0.0000000000e+00 0.0000000000e+00 
          0.0000000000e+00 0.0000000000e+00 0.0000000000e+00 
          0.0000000000e+00 0.0000000000e+00 0.0000000000e+00 
          0.0000000000e+00 0.0000000000e+00 0.0000000000e+00 
          0.0000000000e+00 0.0000000000e+00 0.0000000000e+00 
          0.0000000000e+00 0.0000000000e+00 0.0000000000e+00 
          0.0000000000e+00 0.0000000000e+00 0.0000000000e+00 
          0.0000000000e+00 0.0000000000e+00 0.0000000000e+00 
          0.0000000000e+00 0.0000000000e+00 0.0000000000e+00 
          0.0000000000e+00 0.0000000000e+00 0.0000000000e+00 
          0.0000000000e+00 0.0000000000e+00 0.0000000000e+00 
          0.0000000000e+00 0.0000000000e+00 0.0000000000e+00 
          0.0000000000e+00 0.0000000000e+00 0.0000000000e+00 
          0.0000000000e+00 0.0000000000e+00 0.0000000000e+00 
          0.0000000000e+00 0.0000000000e+00 0.0000000000e+00 
          0.0000000000e+00 0.0000000000e+00 0.0000000000e+00 
          0.0000000000e+00 0.0000000000e+00 0.0000000000e+00 
          0.0000000000e+00 0.0000000000e+00 0.0000000000e+00 
          0.0000000000e+00 0.0000000000e+00 0.0000000000e+00 
          0.0000000000e+00 0.0000000000e+00 0.0000000000e+00 
          0.0000000000e+00 0.0000000000e+00 0.0000000000e+00 
          0.0000000000e+00 0.0000000000e+00 0.0000000000e+00 
          0.0000000000e+00 0.0000000000e+00 0.0000000000e+00 
          0.0000000000e+00 0.0000000000e+00 0.0000000000e+00 
          0.0000000000e+00 0.0000000000e+00 0.0000000000e+00 
          0.0000000000e+00 0.0000000000e+00 0.0000000000e+00 
          0.0000000000e+00 0.0000000000e+00 0.0000000000e+00 
          0.0000000000e+00 0.0000000000e+00 0.0000000000e+00 
          0.0000000000e+00 0.0000000000e+00 0.0000000000e+00 
          0.0000000000e+00 0.0000000000e+00 0.0000000000e+00 
          0.0000000000e+00 0.0000000000e+00 0.0000000000e+00 
          0.0000000000e+00 0.0000000000e+00 0.0000000000e+00 
          0.0000000000e+00 0.0000000000e+00 0.0000000000e+00 
          0.0000000000e+00 0.0000000000e+00 0.0000000000e+00 
          0.0000000000e+00 0.0000000000e+00 0.0000000000e+00 
          0.0000000000e+00 0.0000000000e+00 0.0000000000e+00 
          0.0000000000e+00 0.0000000000e+00 0.0000000000e+00 
          0.0000000000e+00 0.0000000000e+00 0.0000000000e+00 
          0.0000000000e+00 0.0000000000e+00 0.0000000000e+00 
          0.0000000000e+00 0.0000000000e+00 0.0000000000e+00 
          0.0000000000e+00 0.0000000000e+00 0.0000000000e+00 
          0.0000000000e+00 0.0000000000e+00 0.0000000000e+00 
        </DataArray>
      </PointData>
      <CellData>
        <DataArray type="Int64" Name="ElementTag" format="ascii">
          90
          91
          92
          93
          94
          95
          96
          97
          98
          99
          100
          101
          102
          103
          104
          105
          106
          107
          108
          109
          110
          111
          112
          113
          114
          115
          116
          117
          118
          119
          120
          121
          122
          123
          124
          125
          126
          127
          128
        </DataArray>
      </CellData>
    </Piece>
  </UnstructuredGrid>
</VTKFile>
