<?xml version="1.0"?>
<VTKFile type="UnstructuredGrid" version="1.0" byte_order="LittleEndian" compressor="vtkZLibDataCompressor">
  <UnstructuredGrid>
    <Piece NumberOfPoints="80" NumberOfCells="39">
      <Points>
        <DataArray type="Float64" Name="Points" NumberOfComponents="3" format="ascii">
          0.0000000000e+00 0.0000000000e+00 0.0000000000e+00 
          2.5000000000e-01 0.0000000000e+00 0.0000000000e+00 
          2.5000000000e-01 3.0000000000e+01 0.0000000000e+00 
          0.0000000000e+00 3.0000000000e+01 0.0000000000e+00 
          2.5000000000e-01 7.6923100000e-01 0.0000000000e+00 
          2.5000000000e-01 1.5384620000e+00 0.0000000000e+00 
          2.5000000000e-01 2.3076920000e+00 0.0000000000e+00 
          2.5000000000e-01 3.0769230000e+00 0.0000000000e+00 
          2.5000000000e-01 3.8461540000e+00 0.0000000000e+00 
          2.5000000000e-01 4.6153850000e+00 0.0000000000e+00 
          2.5000000000e-01 5.3846150000e+00 0.0000000000e+00 
          2.5000000000e-01 6.1538460000e+00 0.0000000000e+00 
          2.5000000000e-01 6.9230770000e+00 0.0000000000e+00 
          2.5000000000e-01 7.6923080000e+00 0.0000000000e+00 
          2.5000000000e-01 8.4615380000e+00 0.0000000000e+00 
          2.5000000000e-01 9.2307690000e+00 0.0000000000e+00 
          2.5000000000e-01 1.0000000000e+01 0.0000000000e+00 
          2.5000000000e-01 1.0769231000e+01 0.0000000000e+00 
          2.5000000000e-01 1.1538462000e+01 0.0000000000e+00 
          2.5000000000e-01 1.2307692000e+01 0.0000000000e+00 
          2.5000000000e-01 1.3076923000e+01 0.0000000000e+00 
          2.5000000000e-01 1.3846154000e+01 0.0000000000e+00 
          2.5000000000e-01 1.4615385000e+01 0.0000000000e+00 
          2.5000000000e-01 1.5384615000e+01 0.0000000000e+00 
          2.5000000000e-01 1.6153846000e+01 0.0000000000e+00 
          2.5000000000e-01 1.6923077000e+01 0.0000000000e+00 
          2.5000000000e-01 1.7692308000e+01 0.0000000000e+00 
          2.5000000000e-01 1.8461538000e+01 0.0000000000e+00 
          2.5000000000e-01 1.9230769000e+01 0.0000000000e+00 
          2.5000000000e-01 2.0000000000e+01 0.0000000000e+00 
          2.5000000000e-01 2.0769231000e+01 0.0000000000e+00 
          2.5000000000e-01 2.1538462000e+01 0.0000000000e+00 
          2.5000000000e-01 2.2307692000e+01 0.0000000000e+00 
          2.5000000000e-01 2.3076923000e+01 0.0000000000e+00 
          2.5000000000e-01 2.3846154000e+01 0.0000000000e+00 
          2.5000000000e-01 2.4615385000e+01 0.0000000000e+00 
          2.5000000000e-01 2.5384615000e+01 0.0000000000e+00 
          2.5000000000e-01 2.6153846000e+01 0.0000000000e+00 
          2.5000000000e-01 2.6923077000e+01 0.0000000000e+00 
          2.5000000000e-01 2.7692308000e+01 0.0000000000e+00 
          2.5000000000e-01 2.8461538000e+01 0.0000000000e+00 
          2.5000000000e-01 2.9230769000e+01 0.0000000000e+00 
          0.0000000000e+00 7.6923100000e-01 0.0000000000e+00 
          0.0000000000e+00 1.5384620000e+00 0.0000000000e+00 
          0.0000000000e+00 2.3076920000e+00 0.0000000000e+00 
          0.0000000000e+00 3.0769230000e+00 0.0000000000e+00 
          0.0000000000e+00 3.8461540000e+00 0.0000000000e+00 
          0.0000000000e+00 4.6153850000e+00 0.0000000000e+00 
          0.0000000000e+00 5.3846150000e+00 0.0000000000e+00 
          0.0000000000e+00 6.1538460000e+00 0.0000000000e+00 
          0.0000000000e+00 6.9230770000e+00 0.0000000000e+00 
          0.0000000000e+00 7.6923080000e+00 0.0000000000e+00 
          0.0000000000e+00 8.4615380000e+00 0.0000000000e+00 
          0.0000000000e+00 9.2307690000e+00 0.0000000000e+00 
          0.0000000000e+00 1.0000000000e+01 0.0000000000e+00 
          0.0000000000e+00 1.0769231000e+01 0.0000000000e+00 
          0.0000000000e+00 1.1538462000e+01 0.0000000000e+00 
          0.0000000000e+00 1.2307692000e+01 0.0000000000e+00 
          0.0000000000e+00 1.3076923000e+01 0.0000000000e+00 
          0.0000000000e+00 1.3846154000e+01 0.0000000000e+00 
          0.0000000000e+00 1.4615385000e+01 0.0000000000e+00 
          0.0000000000e+00 1.5384615000e+01 0.0000000000e+00 
          0.0000000000e+00 1.6153846000e+01 0.0000000000e+00 
          0.0000000000e+00 1.6923077000e+01 0.0000000000e+00 
          0.0000000000e+00 1.7692308000e+01 0.0000000000e+00 
          0.0000000000e+00 1.8461538000e+01 0.0000000000e+00 
          0.0000000000e+00 1.9230769000e+01 0.0000000000e+00 
          0.0000000000e+00 2.0000000000e+01 0.0000000000e+00 
          0.0000000000e+00 2.0769231000e+01 0.0000000000e+00 
          0.0000000000e+00 2.1538462000e+01 0.0000000000e+00 
          0.0000000000e+00 2.2307692000e+01 0.0000000000e+00 
          0.0000000000e+00 2.3076923000e+01 0.0000000000e+00 
          0.0000000000e+00 2.3846154000e+01 0.0000000000e+00 
          0.0000000000e+00 2.4615385000e+01 0.0000000000e+00 
          0.0000000000e+00 2.5384615000e+01 0.0000000000e+00 
          0.0000000000e+00 2.6153846000e+01 0.0000000000e+00 
          0.0000000000e+00 2.6923077000e+01 0.0000000000e+00 
          0.0000000000e+00 2.7692308000e+01 0.0000000000e+00 
          0.0000000000e+00 2.8461538000e+01 0.0000000000e+00 
          0.0000000000e+00 2.9230769000e+01 0.0000000000e+00 
        </DataArray>
      </Points>
      <Cells>
        <DataArray type="Int64" Name="connectivity" format="ascii">
          0 1 4 42 
          42 4 5 43 
          43 5 6 44 
          44 6 7 45 
          45 7 8 46 
          46 8 9 47 
          47 9 10 48 
          48 10 11 49 
          49 11 12 50 
          50 12 13 51 
          51 13 14 52 
          52 14 15 53 
          53 15 16 54 
          54 16 17 55 
          55 17 18 56 
          56 18 19 57 
          57 19 20 58 
          58 20 21 59 
          59 21 22 60 
          60 22 23 61 
          61 23 24 62 
          62 24 25 63 
          63 25 26 64 
          64 26 27 65 
          65 27 28 66 
          66 28 29 67 
          67 29 30 68 
          68 30 31 69 
          69 31 32 70 
          70 32 33 71 
          71 33 34 72 
          72 34 35 73 
          73 35 36 74 
          74 36 37 75 
          75 37 38 76 
          76 38 39 77 
          77 39 40 78 
          78 40 41 79 
          79 41 2 3 
        </DataArray>
        <DataArray type="Int64" Name="offsets" format="ascii">
          4
          8
          12
          16
          20
          24
          28
          32
          36
          40
          44
          48
          52
          56
          60
          64
          68
          72
          76
          80
          84
          88
          92
          96
          100
          104
          108
          112
          116
          120
          124
          128
          132
          136
          140
          144
          148
          152
          156
        </DataArray>
        <DataArray type="Int64" Name="types" format="ascii">
          9
          9
          9
          9
          9
          9
          9
          9
          9
          9
          9
          9
          9
          9
          9
          9
          9
          9
          9
          9
          9
          9
          9
          9
          9
          9
          9
          9
          9
          9
          9
          9
          9
          9
          9
          9
          9
          9
          9
        </DataArray>
      </Cells>
      <PointData>
        <DataArray type="Int64" Name="NodeTag" format="ascii">
          1
          2
          3
          4
          7
          8
          9
          10
          11
          12
          13
          14
          15
          16
          17
          18
          19
          20
          21
          22
          23
          24
          25
          26
          27
          28
          29
          30
          31
          32
          33
          34
          35
          36
          37
          38
          39
          40
          41
          42
          43
          44
          45
          46
          47
          48
          49
          50
          51
          52
          53
          54
          55
          56
          57
          58
          59
          60
          61
          62
          63
          64
          65
          66
          67
          68
          69
          70
          71
          72
          73
          74
          75
          76
          77
          78
          79
          80
          81
          82
        </DataArray>
        <DataArray type="Float64" Name="Velocity" NumberOfComponents="3" format="ascii">
          -8.8223481750e-19 -8.8587368161e-05 0.0000000000e+00 
          -8.8223481750e-19 -8.8587368161e-05 0.0000000000e+00 
          -2.3034695700e-18 -1.2891228495e-04 0.0000000000e+00 
          -2.3034695700e-18 -1.2891228495e-04 0.0000000000e+00 
          5.7199385455e-18 -9.2080093613e-05 0.0000000000e+00 
          -4.5635623331e-19 -9.5815934010e-05 0.0000000000e+00 
          -2.2231540982e-18 -9.8851147823e-05 0.0000000000e+00 
          -3.7928170889e-18 -1.0125093905e-04 0.0000000000e+00 
          1.4037899897e-18 -1.0481886286e-04 0.0000000000e+00 
          6.8567721840e-18 -1.0846004113e-04 0.0000000000e+00 
          -6.5475462300e-18 -1.1216533729e-04 0.0000000000e+00 
          -2.4096289798e-18 -1.1525142911e-04 0.0000000000e+00 
          1.5816009860e-17 -1.1727655635e-04 0.0000000000e+00 
          -5.4232022247e-18 -1.2018197639e-04 0.0000000000e+00 
          1.8060863313e-18 -1.2290977535e-04 0.0000000000e+00 
          9.6625020505e-18 -1.2533359088e-04 0.0000000000e+00 
          -1.8835772103e-17 -1.2798497244e-04 0.0000000000e+00 
          2.1403919185e-18 -1.3010518574e-04 0.0000000000e+00 
          1.4847327688e-18 -1.3073058827e-04 0.0000000000e+00 
          -1.6019822697e-19 -1.3075133765e-04 0.0000000000e+00 
          -1.2174683062e-17 -1.3165516458e-04 0.0000000000e+00 
          1.7837110235e-17 -1.3219722701e-04 0.0000000000e+00 
          -1.1501690058e-18 -1.3191883001e-04 0.0000000000e+00 
          2.0830934300e-18 -1.3100391713e-04 0.0000000000e+00 
          -3.5585058717e-19 -1.3012425630e-04 0.0000000000e+00 
          2.7924166269e-18 -1.2936481270e-04 0.0000000000e+00 
          8.8378036106e-18 -1.2816307274e-04 0.0000000000e+00 
          -1.5589914614e-17 -1.2739232693e-04 0.0000000000e+00 
          5.0359156054e-18 -1.2692441704e-04 0.0000000000e+00 
          3.5462755520e-18 -1.2722241597e-04 0.0000000000e+00 
          -1.3185344047e-17 -1.2825816982e-04 0.0000000000e+00 
          7.5919555124e-18 -1.2906499563e-04 0.0000000000e+00 
          3.0634413237e-18 -1.2949386488e-04 0.0000000000e+00 
          -9.4480838709e-20 -1.2980332461e-04 0.0000000000e+00 
          3.0723893667e-19 -1.2937905949e-04 0.0000000000e+00 
          3.6954815547e-18 -1.2949386441e-04 0.0000000000e+00 
          -6.1043622689e-18 -1.2919578235e-04 0.0000000000e+00 
          -2.7450234757e-19 -1.2868531073e-04 0.0000000000e+00 
          -3.8994313612e-18 -1.2901079775e-04 0.0000000000e+00 
          5.4456046047e-18 -1.2873075737e-04 0.0000000000e+00 
          -2.2781317117e-18 -1.2865443447e-04 0.0000000000e+00 
          1.6816487808e-18 -1.2883656780e-04 0.0000000000e+00 
          5.7199385455e-18 -9.2080093613e-05 0.0000000000e+00 
          -4.5635623331e-19 -9.5815934010e-05 0.0000000000e+00 
          -2.2231540982e-18 -9.8851147823e-05 0.0000000000e+00 
          -3.7928170889e-18 -1.0125093905e-04 0.0000000000e+00 
          1.4037899897e-18 -1.0481886286e-04 0.0000000000e+00 
          6.8567721840e-18 -1.0846004113e-04 0.0000000000e+00 
          -6.5475462300e-18 -1.1216533729e-04 0.0000000000e+00 
          -2.4096289798e-18 -1.1525142911e-04 0.0000000000e+00 
          1.5816009860e-17 -1.1727655635e-04 0.0000000000e+00 
          -5.4232022247e-18 -1.2018197639e-04 0.0000000000e+00 
          1.8060863313e-18 -1.2290977535e-04 0.0000000000e+00 
          9.6625020505e-18 -1.2533359088e-04 0.0000000000e+00 
          -1.8835772103e-17 -1.2798497244e-04 0.0000000000e+00 
          2.1403919185e-18 -1.3010518574e-04 0.0000000000e+00 
          1.4847327688e-18 -1.3073058827e-04 0.0000000000e+00 
          -1.6019822697e-19 -1.3075133765e-04 0.0000000000e+00 
          -1.2174683062e-17 -1.3165516458e-04 0.0000000000e+00 
          1.7837110235e-17 -1.3219722701e-04 0.0000000000e+00 
          -1.1501690058e-18 -1.3191883001e-04 0.0000000000e+00 
          2.0830934300e-18 -1.3100391713e-04 0.0000000000e+00 
          -3.5585058717e-19 -1.3012425630e-04 0.0000000000e+00 
          2.7924166269e-18 -1.2936481270e-04 0.0000000000e+00 
          8.8378036106e-18 -1.2816307274e-04 0.0000000000e+00 
          -1.5589914614e-17 -1.2739232693e-04 0.0000000000e+00 
          5.0359156054e-18 -1.2692441704e-04 0.0000000000e+00 
          3.5462755520e-18 -1.2722241597e-04 0.0000000000e+00 
          -1.3185344047e-17 -1.2825816982e-04 0.0000000000e+00 
          7.5919555124e-18 -1.2906499563e-04 0.0000000000e+00 
          3.0634413237e-18 -1.2949386488e-04 0.0000000000e+00 
          -9.4480838709e-20 -1.2980332461e-04 0.0000000000e+00 
          3.0723893667e-19 -1.2937905949e-04 0.0000000000e+00 
          3.6954815547e-18 -1.2949386441e-04 0.0000000000e+00 
          -6.1043622689e-18 -1.2919578235e-04 0.0000000000e+00 
          -2.7450234757e-19 -1.2868531073e-04 0.0000000000e+00 
          -3.8994313612e-18 -1.2901079775e-04 0.0000000000e+00 
          5.4456046047e-18 -1.2873075737e-04 0.0000000000e+00 
          -2.2781317117e-18 -1.2865443447e-04 0.0000000000e+00 
          1.6816487808e-18 -1.2883656780e-04 0.0000000000e+00 
        </DataArray>
        <DataArray type="Float64" Name="Displacement" NumberOfComponents="3" format="ascii">
          3.4437407972e-22 -6.7610332548e-05 0.0000000000e+00 
          3.4437407972e-22 -6.7610332548e-05 0.0000000000e+00 
          2.7170757184e-20 -9.5734015942e-05 0.0000000000e+00 
          2.7170757184e-20 -9.5734015942e-05 0.0000000000e+00 
          -1.3174016683e-20 -6.8971581364e-05 0.0000000000e+00 
          -2.2613237046e-20 -7.0303174803e-05 0.0000000000e+00 
          -3.1846817183e-20 -7.1605348335e-05 0.0000000000e+00 
          -4.0379205749e-20 -7.2878340076e-05 0.0000000000e+00 
          -5.1611578099e-20 -7.4120527124e-05 0.0000000000e+00 
          -3.0371231572e-20 -7.5331364021e-05 0.0000000000e+00 
          -2.3362069497e-20 -7.6512600220e-05 0.0000000000e+00 
          -5.8196729189e-20 -7.7664629383e-05 0.0000000000e+00 
          -3.9213991030e-20 -7.8785728566e-05 0.0000000000e+00 
          -7.9096151121e-21 -7.9875566500e-05 0.0000000000e+00 
          -1.7758245083e-20 -8.0934519712e-05 0.0000000000e+00 
          1.9771318568e-20 -8.1961481286e-05 0.0000000000e+00 
          5.2483597426e-21 -8.2955974859e-05 0.0000000000e+00 
          -1.9239549126e-20 -8.3916985545e-05 0.0000000000e+00 
          3.7280350901e-21 -8.4843348507e-05 0.0000000000e+00 
          4.9708710396e-21 -8.5735154729e-05 0.0000000000e+00 
          -3.1654703125e-20 -8.6591627899e-05 0.0000000000e+00 
          -2.0864149970e-20 -8.7410745256e-05 0.0000000000e+00 
          1.6157859912e-20 -8.8192166083e-05 0.0000000000e+00 
          6.8583587657e-21 -8.8933074681e-05 0.0000000000e+00 
          1.6987337309e-20 -8.9633288473e-05 0.0000000000e+00 
          4.5466771639e-21 -9.0294695538e-05 0.0000000000e+00 
          2.4977160190e-20 -9.0916309981e-05 0.0000000000e+00 
          9.2358651892e-21 -9.1499724739e-05 0.0000000000e+00 
          -2.1740261426e-20 -9.2045368226e-05 0.0000000000e+00 
          7.8308432323e-21 -9.2551502100e-05 0.0000000000e+00 
          1.2224791903e-20 -9.3018589983e-05 0.0000000000e+00 
          -1.7514241155e-20 -9.3449677581e-05 0.0000000000e+00 
          -3.1462866944e-21 -9.3845822925e-05 0.0000000000e+00 
          1.5877892497e-21 -9.4204987263e-05 0.0000000000e+00 
          4.5583506934e-21 -9.4527272346e-05 0.0000000000e+00 
          3.1956780074e-20 -9.4813573029e-05 0.0000000000e+00 
          2.1214533487e-20 -9.5062475182e-05 0.0000000000e+00 
          2.8984701368e-20 -9.5272087347e-05 0.0000000000e+00 
          -3.9545035024e-20 -9.5441542999e-05 0.0000000000e+00 
          2.0948144373e-20 -9.5570482988e-05 0.0000000000e+00 
          -1.5920609682e-20 -9.5660692516e-05 0.0000000000e+00 
          1.5014034193e-20 -9.5715359307e-05 0.0000000000e+00 
          -1.3174016683e-20 -6.8971581364e-05 0.0000000000e+00 
          -2.2613237046e-20 -7.0303174803e-05 0.0000000000e+00 
          -3.1846817183e-20 -7.1605348335e-05 0.0000000000e+00 
          -4.0379205749e-20 -7.2878340076e-05 0.0000000000e+00 
          -5.1611578099e-20 -7.4120527124e-05 0.0000000000e+00 
          -3.0371231572e-20 -7.5331364021e-05 0.0000000000e+00 
          -2.3362069497e-20 -7.6512600220e-05 0.0000000000e+00 
          -5.8196729189e-20 -7.7664629383e-05 0.0000000000e+00 
          -3.9213991030e-20 -7.8785728566e-05 0.0000000000e+00 
          -7.9096151121e-21 -7.9875566500e-05 0.0000000000e+00 
          -1.7758245083e-20 -8.0934519712e-05 0.0000000000e+00 
          1.9771318568e-20 -8.1961481286e-05 0.0000000000e+00 
          5.2483597426e-21 -8.2955974859e-05 0.0000000000e+00 
          -1.9239549126e-20 -8.3916985545e-05 0.0000000000e+00 
          3.7280350901e-21 -8.4843348507e-05 0.0000000000e+00 
          4.9708710396e-21 -8.5735154729e-05 0.0000000000e+00 
          -3.1654703125e-20 -8.6591627899e-05 0.0000000000e+00 
          -2.0864149970e-20 -8.7410745256e-05 0.0000000000e+00 
          1.6157859912e-20 -8.8192166083e-05 0.0000000000e+00 
          6.8583587657e-21 -8.8933074681e-05 0.0000000000e+00 
          1.6987337309e-20 -8.9633288473e-05 0.0000000000e+00 
          4.5466771639e-21 -9.0294695538e-05 0.0000000000e+00 
          2.4977160190e-20 -9.0916309981e-05 0.0000000000e+00 
          9.2358651892e-21 -9.1499724739e-05 0.0000000000e+00 
          -2.1740261426e-20 -9.2045368226e-05 0.0000000000e+00 
          7.8308432323e-21 -9.2551502100e-05 0.0000000000e+00 
          1.2224791903e-20 -9.3018589983e-05 0.0000000000e+00 
          -1.7514241155e-20 -9.3449677581e-05 0.0000000000e+00 
          -3.1462866944e-21 -9.3845822925e-05 0.0000000000e+00 
          1.5877892497e-21 -9.4204987263e-05 0.0000000000e+00 
          4.5583506934e-21 -9.4527272346e-05 0.0000000000e+00 
          3.1956780074e-20 -9.4813573029e-05 0.0000000000e+00 
          2.1214533487e-20 -9.5062475182e-05 0.0000000000e+00 
          2.8984701368e-20 -9.5272087347e-05 0.0000000000e+00 
          -3.9545035024e-20 -9.5441542999e-05 0.0000000000e+00 
          2.0948144373e-20 -9.5570482988e-05 0.0000000000e+00 
          -1.5920609682e-20 -9.5660692516e-05 0.0000000000e+00 
          1.5014034193e-20 -9.5715359307e-05 0.0000000000e+00 
        </DataArray>
        <DataArray type="Float64" Name="Acceleration" NumberOfComponents="3" format="ascii">
          1.2970750969e-17 -2.2471182053e-04 0.0000000000e+00 
          1.2970750969e-17 -2.2471182053e-04 0.0000000000e+00 
          -6.3504703373e-15 1.1365342905e-03 0.0000000000e+00 
          -6.3504703373e-15 1.1365342905e-03 0.0000000000e+00 
          8.0181735903e-16 -2.4344823060e-04 0.0000000000e+00 
          -9.9624431229e-17 -2.8618253903e-04 0.0000000000e+00 
          3.7533535192e-17 -3.2848200593e-04 0.0000000000e+00 
          -1.5457435058e-15 -3.6336878011e-05 0.0000000000e+00 
          5.2309755391e-15 6.1956452078e-05 0.0000000000e+00 
          -2.7729691476e-15 -2.5357478303e-04 0.0000000000e+00 
          -3.6527993187e-15 -3.2396112938e-04 0.0000000000e+00 
          4.5924876428e-15 -1.3759711532e-05 0.0000000000e+00 
          8.4927351331e-16 4.5936078661e-05 0.0000000000e+00 
          -2.1722020099e-15 -2.2159923287e-05 0.0000000000e+00 
          1.3472372860e-15 1.7780678770e-04 0.0000000000e+00 
          -2.8739048215e-15 2.6339785657e-04 0.0000000000e+00 
          4.4602370109e-16 4.4628408642e-04 0.0000000000e+00 
          1.1944020318e-15 6.5619221662e-04 0.0000000000e+00 
          -1.4600563436e-16 6.3959174273e-04 0.0000000000e+00 
          -1.5464846061e-15 7.7990441802e-04 0.0000000000e+00 
          3.6146401910e-16 1.1442004624e-03 0.0000000000e+00 
          4.1571254898e-15 1.2055992531e-03 0.0000000000e+00 
          -2.7712408747e-15 1.7128304933e-03 0.0000000000e+00 
          1.6006972573e-16 1.7460787282e-03 0.0000000000e+00 
          -3.9430700709e-17 1.4056609551e-03 0.0000000000e+00 
          8.4964287796e-16 1.5833234194e-03 0.0000000000e+00 
          -2.2658035817e-15 1.2961375499e-03 0.0000000000e+00 
          1.3373898496e-15 1.2192086965e-03 0.0000000000e+00 
          1.8370414616e-15 1.5323240956e-03 0.0000000000e+00 
          -2.4699568862e-15 1.4487775162e-03 0.0000000000e+00 
          1.9111707272e-16 8.9992904572e-04 0.0000000000e+00 
          -4.1609252790e-16 7.0917909216e-04 0.0000000000e+00 
          3.4731846707e-16 1.0767560159e-03 0.0000000000e+00 
          2.9908817575e-16 1.0583231829e-03 0.0000000000e+00 
          3.8939272170e-15 8.9706644224e-04 0.0000000000e+00 
          -5.2649533083e-15 1.1518446274e-03 0.0000000000e+00 
          1.6152938521e-15 1.4928094556e-03 0.0000000000e+00 
          -8.1567442335e-15 1.6488978681e-03 0.0000000000e+00 
          1.3724987471e-14 1.7136182311e-03 0.0000000000e+00 
          -7.3016201462e-15 1.3919009855e-03 0.0000000000e+00 
          2.4489463990e-15 8.1750241737e-04 0.0000000000e+00 
          2.2802307362e-15 9.0170800352e-04 0.0000000000e+00 
          8.0181735903e-16 -2.4344823060e-04 0.0000000000e+00 
          -9.9624431229e-17 -2.8618253903e-04 0.0000000000e+00 
          3.7533535192e-17 -3.2848200593e-04 0.0000000000e+00 
          -1.5457435058e-15 -3.6336878011e-05 0.0000000000e+00 
          5.2309755391e-15 6.1956452078e-05 0.0000000000e+00 
          -2.7729691476e-15 -2.5357478303e-04 0.0000000000e+00 
          -3.6527993187e-15 -3.2396112938e-04 0.0000000000e+00 
          4.5924876428e-15 -1.3759711532e-05 0.0000000000e+00 
          8.4927351331e-16 4.5936078661e-05 0.0000000000e+00 
          -2.1722020099e-15 -2.2159923287e-05 0.0000000000e+00 
          1.3472372860e-15 1.7780678770e-04 0.0000000000e+00 
          -2.8739048215e-15 2.6339785657e-04 0.0000000000e+00 
          4.4602370109e-16 4.4628408642e-04 0.0000000000e+00 
          1.1944020318e-15 6.5619221662e-04 0.0000000000e+00 
          -1.4600563436e-16 6.3959174273e-04 0.0000000000e+00 
          -1.5464846061e-15 7.7990441802e-04 0.0000000000e+00 
          3.6146401910e-16 1.1442004624e-03 0.0000000000e+00 
          4.1571254898e-15 1.2055992531e-03 0.0000000000e+00 
          -2.7712408747e-15 1.7128304933e-03 0.0000000000e+00 
          1.6006972573e-16 1.7460787282e-03 0.0000000000e+00 
          -3.9430700709e-17 1.4056609551e-03 0.0000000000e+00 
          8.4964287796e-16 1.5833234194e-03 0.0000000000e+00 
          -2.2658035817e-15 1.2961375499e-03 0.0000000000e+00 
          1.3373898496e-15 1.2192086965e-03 0.0000000000e+00 
          1.8370414616e-15 1.5323240956e-03 0.0000000000e+00 
          -2.4699568862e-15 1.4487775162e-03 0.0000000000e+00 
          1.9111707272e-16 8.9992904572e-04 0.0000000000e+00 
          -4.1609252790e-16 7.0917909216e-04 0.0000000000e+00 
          3.4731846707e-16 1.0767560159e-03 0.0000000000e+00 
          2.9908817575e-16 1.0583231829e-03 0.0000000000e+00 
          3.8939272170e-15 8.9706644224e-04 0.0000000000e+00 
          -5.2649533083e-15 1.1518446274e-03 0.0000000000e+00 
          1.6152938521e-15 1.4928094556e-03 0.0000000000e+00 
          -8.1567442335e-15 1.6488978681e-03 0.0000000000e+00 
          1.3724987471e-14 1.7136182311e-03 0.0000000000e+00 
          -7.3016201462e-15 1.3919009855e-03 0.0000000000e+00 
          2.4489463990e-15 8.1750241737e-04 0.0000000000e+00 
          2.2802307362e-15 9.0170800352e-04 0.0000000000e+00 
        </DataArray>
        <DataArray type="Float64" Name="Reaction" NumberOfComponents="3" format="ascii">
          0.0000000000e+00 0.0000000000e+00 0.0000000000e+00 
          0.0000000000e+00 0.0000000000e+00 0.0000000000e+00 
          0.0000000000e+00 0.0000000000e+00 0.0000000000e+00 
          0.0000000000e+00 0.0000000000e+00 0.0000000000e+00 
          0.0000000000e+00 0.0000000000e+00 0.0000000000e+00 
          0.0000000000e+00 0.0000000000e+00 0.0000000000e+00 
          0.0000000000e+00 0.0000000000e+00 0.0000000000e+00 
          0.0000000000e+00 0.0000000000e+00 0.0000000000e+00 
          0.0000000000e+00 0.0000000000e+00 0.0000000000e+00 
          0.0000000000e+00 0.0000000000e+00 0.0000000000e+00 
          0.0000000000e+00 0.0000000000e+00 0.0000000000e+00 
          0.0000000000e+00 0.0000000000e+00 0.0000000000e+00 
          0.0000000000e+00 0.0000000000e+00 0.0000000000e+00 
          0.0000000000e+00 0.0000000000e+00 0.0000000000e+00 
          0.0000000000e+00 0.0000000000e+00 0.0000000000e+00 
          0.0000000000e+00 0.0000000000e+00 0.0000000000e+00 
          0.0000000000e+00 0.0000000000e+00 0.0000000000e+00 
          0.0000000000e+00 0.0000000000e+00 0.0000000000e+00 
          0.0000000000e+00 0.0000000000e+00 0.0000000000e+00 
          0.0000000000e+00 0.0000000000e+00 0.0000000000e+00 
          0.0000000000e+00 0.0000000000e+00 0.0000000000e+00 
          0.0000000000e+00 0.0000000000e+00 0.0000000000e+00 
          0.0000000000e+00 0.0000000000e+00 0.0000000000e+00 
          0.0000000000e+00 0.0000000000e+00 0.0000000000e+00 
          0.0000000000e+00 0.0000000000e+00 0.0000000000e+00 
          0.0000000000e+00 0.0000000000e+00 0.0000000000e+00 
          0.0000000000e+00 0.0000000000e+00 0.0000000000e+00 
          0.0000000000e+00 0.0000000000e+00 0.0000000000e+00 
          0.0000000000e+00 0.0000000000e+00 0.0000000000e+00 
          0.0000000000e+00 0.0000000000e+00 0.0000000000e+00 
          0.0000000000e+00 0.0000000000e+00 0.0000000000e+00 
          0.0000000000e+00 0.0000000000e+00 0.0000000000e+00 
          0.0000000000e+00 0.0000000000e+00 0.0000000000e+00 
          0.0000000000e+00 0.0000000000e+00 0.0000000000e+00 
          0.0000000000e+00 0.0000000000e+00 0.0000000000e+00 
          0.0000000000e+00 0.0000000000e+00 0.0000000000e+00 
          0.0000000000e+00 0.0000000000e+00 0.0000000000e+00 
          0.0000000000e+00 0.0000000000e+00 0.0000000000e+00 
          0.0000000000e+00 0.0000000000e+00 0.0000000000e+00 
          0.0000000000e+00 0.0000000000e+00 0.0000000000e+00 
          0.0000000000e+00 0.0000000000e+00 0.0000000000e+00 
          0.0000000000e+00 0.0000000000e+00 0.0000000000e+00 
          0.0000000000e+00 0.0000000000e+00 0.0000000000e+00 
          0.0000000000e+00 0.0000000000e+00 0.0000000000e+00 
          0.0000000000e+00 0.0000000000e+00 0.0000000000e+00 
          0.0000000000e+00 0.0000000000e+00 0.0000000000e+00 
          0.0000000000e+00 0.0000000000e+00 0.0000000000e+00 
          0.0000000000e+00 0.0000000000e+00 0.0000000000e+00 
          0.0000000000e+00 0.0000000000e+00 0.0000000000e+00 
          0.0000000000e+00 0.0000000000e+00 0.0000000000e+00 
          0.0000000000e+00 0.0000000000e+00 0.0000000000e+00 
          0.0000000000e+00 0.0000000000e+00 0.0000000000e+00 
          0.0000000000e+00 0.0000000000e+00 0.0000000000e+00 
          0.0000000000e+00 0.0000000000e+00 0.0000000000e+00 
          0.0000000000e+00 0.0000000000e+00 0.0000000000e+00 
          0.0000000000e+00 0.0000000000e+00 0.0000000000e+00 
          0.0000000000e+00 0.0000000000e+00 0.0000000000e+00 
          0.0000000000e+00 0.0000000000e+00 0.0000000000e+00 
          0.0000000000e+00 0.0000000000e+00 0.0000000000e+00 
          0.0000000000e+00 0.0000000000e+00 0.0000000000e+00 
          0.0000000000e+00 0.0000000000e+00 0.0000000000e+00 
          0.0000000000e+00 0.0000000000e+00 0.0000000000e+00 
          0.0000000000e+00 0.0000000000e+00 0.0000000000e+00 
          0.0000000000e+00 0.0000000000e+00 0.0000000000e+00 
          0.0000000000e+00 0.0000000000e+00 0.0000000000e+00 
          0.0000000000e+00 0.0000000000e+00 0.0000000000e+00 
          0.0000000000e+00 0.0000000000e+00 0.0000000000e+00 
          0.0000000000e+00 0.0000000000e+00 0.0000000000e+00 
          0.0000000000e+00 0.0000000000e+00 0.0000000000e+00 
          0.0000000000e+00 0.0000000000e+00 0.0000000000e+00 
          0.0000000000e+00 0.0000000000e+00 0.0000000000e+00 
          0.0000000000e+00 0.0000000000e+00 0.0000000000e+00 
          0.0000000000e+00 0.0000000000e+00 0.0000000000e+00 
          0.0000000000e+00 0.0000000000e+00 0.0000000000e+00 
          0.0000000000e+00 0.0000000000e+00 0.0000000000e+00 
          0.0000000000e+00 0.0000000000e+00 0.0000000000e+00 
          0.0000000000e+00 0.0000000000e+00 0.0000000000e+00 
          0.0000000000e+00 0.0000000000e+00 0.0000000000e+00 
          0.0000000000e+00 0.0000000000e+00 0.0000000000e+00 
          0.0000000000e+00 0.0000000000e+00 0.0000000000e+00 
        </DataArray>
      </PointData>
      <CellData>
        <DataArray type="Int64" Name="ElementTag" format="ascii">
          90
          91
          92
          93
          94
          95
          96
          97
          98
          99
          100
          101
          102
          103
          104
          105
          106
          107
          108
          109
          110
          111
          112
          113
          114
          115
          116
          117
          118
          119
          120
          121
          122
          123
          124
          125
          126
          127
          128
        </DataArray>
      </CellData>
    </Piece>
  </UnstructuredGrid>
</VTKFile>
