<?xml version="1.0"?>
<VTKFile type="UnstructuredGrid" version="1.0" byte_order="LittleEndian" compressor="vtkZLibDataCompressor">
  <UnstructuredGrid>
    <Piece NumberOfPoints="80" NumberOfCells="39">
      <Points>
        <DataArray type="Float64" Name="Points" NumberOfComponents="3" format="ascii">
          0.0000000000e+00 0.0000000000e+00 0.0000000000e+00 
          2.5000000000e-01 0.0000000000e+00 0.0000000000e+00 
          2.5000000000e-01 3.0000000000e+01 0.0000000000e+00 
          0.0000000000e+00 3.0000000000e+01 0.0000000000e+00 
          2.5000000000e-01 7.6923100000e-01 0.0000000000e+00 
          2.5000000000e-01 1.5384620000e+00 0.0000000000e+00 
          2.5000000000e-01 2.3076920000e+00 0.0000000000e+00 
          2.5000000000e-01 3.0769230000e+00 0.0000000000e+00 
          2.5000000000e-01 3.8461540000e+00 0.0000000000e+00 
          2.5000000000e-01 4.6153850000e+00 0.0000000000e+00 
          2.5000000000e-01 5.3846150000e+00 0.0000000000e+00 
          2.5000000000e-01 6.1538460000e+00 0.0000000000e+00 
          2.5000000000e-01 6.9230770000e+00 0.0000000000e+00 
          2.5000000000e-01 7.6923080000e+00 0.0000000000e+00 
          2.5000000000e-01 8.4615380000e+00 0.0000000000e+00 
          2.5000000000e-01 9.2307690000e+00 0.0000000000e+00 
          2.5000000000e-01 1.0000000000e+01 0.0000000000e+00 
          2.5000000000e-01 1.0769231000e+01 0.0000000000e+00 
          2.5000000000e-01 1.1538462000e+01 0.0000000000e+00 
          2.5000000000e-01 1.2307692000e+01 0.0000000000e+00 
          2.5000000000e-01 1.3076923000e+01 0.0000000000e+00 
          2.5000000000e-01 1.3846154000e+01 0.0000000000e+00 
          2.5000000000e-01 1.4615385000e+01 0.0000000000e+00 
          2.5000000000e-01 1.5384615000e+01 0.0000000000e+00 
          2.5000000000e-01 1.6153846000e+01 0.0000000000e+00 
          2.5000000000e-01 1.6923077000e+01 0.0000000000e+00 
          2.5000000000e-01 1.7692308000e+01 0.0000000000e+00 
          2.5000000000e-01 1.8461538000e+01 0.0000000000e+00 
          2.5000000000e-01 1.9230769000e+01 0.0000000000e+00 
          2.5000000000e-01 2.0000000000e+01 0.0000000000e+00 
          2.5000000000e-01 2.0769231000e+01 0.0000000000e+00 
          2.5000000000e-01 2.1538462000e+01 0.0000000000e+00 
          2.5000000000e-01 2.2307692000e+01 0.0000000000e+00 
          2.5000000000e-01 2.3076923000e+01 0.0000000000e+00 
          2.5000000000e-01 2.3846154000e+01 0.0000000000e+00 
          2.5000000000e-01 2.4615385000e+01 0.0000000000e+00 
          2.5000000000e-01 2.5384615000e+01 0.0000000000e+00 
          2.5000000000e-01 2.6153846000e+01 0.0000000000e+00 
          2.5000000000e-01 2.6923077000e+01 0.0000000000e+00 
          2.5000000000e-01 2.7692308000e+01 0.0000000000e+00 
          2.5000000000e-01 2.8461538000e+01 0.0000000000e+00 
          2.5000000000e-01 2.9230769000e+01 0.0000000000e+00 
          0.0000000000e+00 7.6923100000e-01 0.0000000000e+00 
          0.0000000000e+00 1.5384620000e+00 0.0000000000e+00 
          0.0000000000e+00 2.3076920000e+00 0.0000000000e+00 
          0.0000000000e+00 3.0769230000e+00 0.0000000000e+00 
          0.0000000000e+00 3.8461540000e+00 0.0000000000e+00 
          0.0000000000e+00 4.6153850000e+00 0.0000000000e+00 
          0.0000000000e+00 5.3846150000e+00 0.0000000000e+00 
          0.0000000000e+00 6.1538460000e+00 0.0000000000e+00 
          0.0000000000e+00 6.9230770000e+00 0.0000000000e+00 
          0.0000000000e+00 7.6923080000e+00 0.0000000000e+00 
          0.0000000000e+00 8.4615380000e+00 0.0000000000e+00 
          0.0000000000e+00 9.2307690000e+00 0.0000000000e+00 
          0.0000000000e+00 1.0000000000e+01 0.0000000000e+00 
          0.0000000000e+00 1.0769231000e+01 0.0000000000e+00 
          0.0000000000e+00 1.1538462000e+01 0.0000000000e+00 
          0.0000000000e+00 1.2307692000e+01 0.0000000000e+00 
          0.0000000000e+00 1.3076923000e+01 0.0000000000e+00 
          0.0000000000e+00 1.3846154000e+01 0.0000000000e+00 
          0.0000000000e+00 1.4615385000e+01 0.0000000000e+00 
          0.0000000000e+00 1.5384615000e+01 0.0000000000e+00 
          0.0000000000e+00 1.6153846000e+01 0.0000000000e+00 
          0.0000000000e+00 1.6923077000e+01 0.0000000000e+00 
          0.0000000000e+00 1.7692308000e+01 0.0000000000e+00 
          0.0000000000e+00 1.8461538000e+01 0.0000000000e+00 
          0.0000000000e+00 1.9230769000e+01 0.0000000000e+00 
          0.0000000000e+00 2.0000000000e+01 0.0000000000e+00 
          0.0000000000e+00 2.0769231000e+01 0.0000000000e+00 
          0.0000000000e+00 2.1538462000e+01 0.0000000000e+00 
          0.0000000000e+00 2.2307692000e+01 0.0000000000e+00 
          0.0000000000e+00 2.3076923000e+01 0.0000000000e+00 
          0.0000000000e+00 2.3846154000e+01 0.0000000000e+00 
          0.0000000000e+00 2.4615385000e+01 0.0000000000e+00 
          0.0000000000e+00 2.5384615000e+01 0.0000000000e+00 
          0.0000000000e+00 2.6153846000e+01 0.0000000000e+00 
          0.0000000000e+00 2.6923077000e+01 0.0000000000e+00 
          0.0000000000e+00 2.7692308000e+01 0.0000000000e+00 
          0.0000000000e+00 2.8461538000e+01 0.0000000000e+00 
          0.0000000000e+00 2.9230769000e+01 0.0000000000e+00 
        </DataArray>
      </Points>
      <Cells>
        <DataArray type="Int64" Name="connectivity" format="ascii">
          0 1 4 42 
          42 4 5 43 
          43 5 6 44 
          44 6 7 45 
          45 7 8 46 
          46 8 9 47 
          47 9 10 48 
          48 10 11 49 
          49 11 12 50 
          50 12 13 51 
          51 13 14 52 
          52 14 15 53 
          53 15 16 54 
          54 16 17 55 
          55 17 18 56 
          56 18 19 57 
          57 19 20 58 
          58 20 21 59 
          59 21 22 60 
          60 22 23 61 
          61 23 24 62 
          62 24 25 63 
          63 25 26 64 
          64 26 27 65 
          65 27 28 66 
          66 28 29 67 
          67 29 30 68 
          68 30 31 69 
          69 31 32 70 
          70 32 33 71 
          71 33 34 72 
          72 34 35 73 
          73 35 36 74 
          74 36 37 75 
          75 37 38 76 
          76 38 39 77 
          77 39 40 78 
          78 40 41 79 
          79 41 2 3 
        </DataArray>
        <DataArray type="Int64" Name="offsets" format="ascii">
          4
          8
          12
          16
          20
          24
          28
          32
          36
          40
          44
          48
          52
          56
          60
          64
          68
          72
          76
          80
          84
          88
          92
          96
          100
          104
          108
          112
          116
          120
          124
          128
          132
          136
          140
          144
          148
          152
          156
        </DataArray>
        <DataArray type="Int64" Name="types" format="ascii">
          9
          9
          9
          9
          9
          9
          9
          9
          9
          9
          9
          9
          9
          9
          9
          9
          9
          9
          9
          9
          9
          9
          9
          9
          9
          9
          9
          9
          9
          9
          9
          9
          9
          9
          9
          9
          9
          9
          9
        </DataArray>
      </Cells>
      <PointData>
        <DataArray type="Int64" Name="NodeTag" format="ascii">
          1
          2
          3
          4
          7
          8
          9
          10
          11
          12
          13
          14
          15
          16
          17
          18
          19
          20
          21
          22
          23
          24
          25
          26
          27
          28
          29
          30
          31
          32
          33
          34
          35
          36
          37
          38
          39
          40
          41
          42
          43
          44
          45
          46
          47
          48
          49
          50
          51
          52
          53
          54
          55
          56
          57
          58
          59
          60
          61
          62
          63
          64
          65
          66
          67
          68
          69
          70
          71
          72
          73
          74
          75
          76
          77
          78
          79
          80
          81
          82
        </DataArray>
        <DataArray type="Float64" Name="Velocity" NumberOfComponents="3" format="ascii">
          7.5765410459e-07 -7.7845312924e-05 0.0000000000e+00 
          7.5765410459e-07 -7.7845312924e-05 0.0000000000e+00 
          1.9889937679e-05 -7.7804424326e-05 0.0000000000e+00 
          1.9889937679e-05 -7.7804424326e-05 0.0000000000e+00 
          1.5593337082e-06 -7.7872309158e-05 0.0000000000e+00 
          2.3596901313e-06 -7.7804554997e-05 0.0000000000e+00 
          3.1506866201e-06 -7.7877405850e-05 0.0000000000e+00 
          3.9382676639e-06 -7.7827703553e-05 0.0000000000e+00 
          4.7167506092e-06 -7.7844438494e-05 0.0000000000e+00 
          5.4861868429e-06 -7.7857766988e-05 0.0000000000e+00 
          6.2454666633e-06 -7.7824585290e-05 0.0000000000e+00 
          6.9949962404e-06 -7.7860234416e-05 0.0000000000e+00 
          7.7286092361e-06 -7.7840805198e-05 0.0000000000e+00 
          8.4543561377e-06 -7.7835883815e-05 0.0000000000e+00 
          9.1583766251e-06 -7.7857322079e-05 0.0000000000e+00 
          9.8550296007e-06 -7.7835875240e-05 0.0000000000e+00 
          1.0527223990e-05 -7.7844938117e-05 0.0000000000e+00 
          1.1187491154e-05 -7.7847990174e-05 0.0000000000e+00 
          1.1828741522e-05 -7.7842677144e-05 0.0000000000e+00 
          1.2445089622e-05 -7.7842474988e-05 0.0000000000e+00 
          1.3051565607e-05 -7.7846339555e-05 0.0000000000e+00 
          1.3625319838e-05 -7.7844219756e-05 0.0000000000e+00 
          1.4186825770e-05 -7.7846655457e-05 0.0000000000e+00 
          1.4720971932e-05 -7.7832357658e-05 0.0000000000e+00 
          1.5231307068e-05 -7.7870222425e-05 0.0000000000e+00 
          1.5722459409e-05 -7.7809823001e-05 0.0000000000e+00 
          1.6182191120e-05 -7.7872781116e-05 0.0000000000e+00 
          1.6623793653e-05 -7.7836657854e-05 0.0000000000e+00 
          1.7034004358e-05 -7.7827108822e-05 0.0000000000e+00 
          1.7421330159e-05 -7.7877945094e-05 0.0000000000e+00 
          1.7781438016e-05 -7.7809421457e-05 0.0000000000e+00 
          1.8111577481e-05 -7.7866826014e-05 0.0000000000e+00 
          1.8420536270e-05 -7.7841521340e-05 0.0000000000e+00 
          1.8692820175e-05 -7.7827828424e-05 0.0000000000e+00 
          1.8944641295e-05 -7.7873252319e-05 0.0000000000e+00 
          1.9164730501e-05 -7.7813351856e-05 0.0000000000e+00 
          1.9352814039e-05 -7.7866674173e-05 0.0000000000e+00 
          1.9520235950e-05 -7.7839407444e-05 0.0000000000e+00 
          1.9648092175e-05 -7.7828136764e-05 0.0000000000e+00 
          1.9754681195e-05 -7.7877717766e-05 0.0000000000e+00 
          1.9829087249e-05 -7.7803284268e-05 0.0000000000e+00 
          1.9870352143e-05 -7.7885410292e-05 0.0000000000e+00 
          1.5593337082e-06 -7.7872309158e-05 0.0000000000e+00 
          2.3596901313e-06 -7.7804554997e-05 0.0000000000e+00 
          3.1506866201e-06 -7.7877405850e-05 0.0000000000e+00 
          3.9382676639e-06 -7.7827703553e-05 0.0000000000e+00 
          4.7167506092e-06 -7.7844438494e-05 0.0000000000e+00 
          5.4861868429e-06 -7.7857766988e-05 0.0000000000e+00 
          6.2454666633e-06 -7.7824585290e-05 0.0000000000e+00 
          6.9949962404e-06 -7.7860234416e-05 0.0000000000e+00 
          7.7286092361e-06 -7.7840805198e-05 0.0000000000e+00 
          8.4543561377e-06 -7.7835883815e-05 0.0000000000e+00 
          9.1583766251e-06 -7.7857322079e-05 0.0000000000e+00 
          9.8550296007e-06 -7.7835875240e-05 0.0000000000e+00 
          1.0527223990e-05 -7.7844938117e-05 0.0000000000e+00 
          1.1187491154e-05 -7.7847990174e-05 0.0000000000e+00 
          1.1828741522e-05 -7.7842677144e-05 0.0000000000e+00 
          1.2445089622e-05 -7.7842474988e-05 0.0000000000e+00 
          1.3051565607e-05 -7.7846339555e-05 0.0000000000e+00 
          1.3625319838e-05 -7.7844219756e-05 0.0000000000e+00 
          1.4186825770e-05 -7.7846655457e-05 0.0000000000e+00 
          1.4720971932e-05 -7.7832357658e-05 0.0000000000e+00 
          1.5231307068e-05 -7.7870222425e-05 0.0000000000e+00 
          1.5722459409e-05 -7.7809823001e-05 0.0000000000e+00 
          1.6182191120e-05 -7.7872781116e-05 0.0000000000e+00 
          1.6623793653e-05 -7.7836657854e-05 0.0000000000e+00 
          1.7034004358e-05 -7.7827108822e-05 0.0000000000e+00 
          1.7421330159e-05 -7.7877945094e-05 0.0000000000e+00 
          1.7781438016e-05 -7.7809421457e-05 0.0000000000e+00 
          1.8111577481e-05 -7.7866826014e-05 0.0000000000e+00 
          1.8420536270e-05 -7.7841521340e-05 0.0000000000e+00 
          1.8692820175e-05 -7.7827828424e-05 0.0000000000e+00 
          1.8944641295e-05 -7.7873252319e-05 0.0000000000e+00 
          1.9164730501e-05 -7.7813351856e-05 0.0000000000e+00 
          1.9352814039e-05 -7.7866674173e-05 0.0000000000e+00 
          1.9520235950e-05 -7.7839407444e-05 0.0000000000e+00 
          1.9648092175e-05 -7.7828136764e-05 0.0000000000e+00 
          1.9754681195e-05 -7.7877717766e-05 0.0000000000e+00 
          1.9829087249e-05 -7.7803284268e-05 0.0000000000e+00 
          1.9870352143e-05 -7.7885410292e-05 0.0000000000e+00 
        </DataArray>
        <DataArray type="Float64" Name="Displacement" NumberOfComponents="3" format="ascii">
          -3.4007359938e-07 -6.8242881709e-04 0.0000000000e+00 
          -3.4007359938e-07 -6.8242881709e-04 0.0000000000e+00 
          9.1162936293e-08 -7.0600913359e-04 0.0000000000e+00 
          9.1162936293e-08 -7.0600913359e-04 0.0000000000e+00 
          -3.2722305421e-07 -6.8362257896e-04 0.0000000000e+00 
          -3.1388766017e-07 -6.8478527466e-04 0.0000000000e+00 
          -3.0010878836e-07 -6.8591705955e-04 0.0000000000e+00 
          -2.8594625703e-07 -6.8701773342e-04 0.0000000000e+00 
          -2.7144556173e-07 -6.8808747170e-04 0.0000000000e+00 
          -2.5665739725e-07 -6.8912620720e-04 0.0000000000e+00 
          -2.4163696930e-07 -6.9013385124e-04 0.0000000000e+00 
          -2.2643262479e-07 -6.9111062669e-04 0.0000000000e+00 
          -2.1109793721e-07 -6.9205624049e-04 0.0000000000e+00 
          -1.9567818903e-07 -6.9297101015e-04 0.0000000000e+00 
          -1.8023496607e-07 -6.9385458970e-04 0.0000000000e+00 
          -1.6480997732e-07 -6.9470738304e-04 0.0000000000e+00 
          -1.4944842067e-07 -6.9552892965e-04 0.0000000000e+00 
          -1.3422335896e-07 -6.9631967365e-04 0.0000000000e+00 
          -1.1914173846e-07 -6.9707931878e-04 0.0000000000e+00 
          -1.0429874463e-07 -6.9780789554e-04 0.0000000000e+00 
          -8.9702202334e-08 -6.9850566148e-04 0.0000000000e+00 
          -7.5410998056e-08 -6.9917216471e-04 0.0000000000e+00 
          -6.1484940900e-08 -6.9980789898e-04 0.0000000000e+00 
          -4.7928582556e-08 -7.0041245850e-04 0.0000000000e+00 
          -3.4826218470e-08 -7.0098610348e-04 0.0000000000e+00 
          -2.2185467247e-08 -7.0152870483e-04 0.0000000000e+00 
          -1.0053619858e-08 -7.0204031072e-04 0.0000000000e+00 
          1.5199663834e-09 -7.0252090941e-04 0.0000000000e+00 
          1.2527117626e-08 -7.0297049839e-04 0.0000000000e+00 
          2.2911338177e-08 -7.0338908233e-04 0.0000000000e+00 
          3.2653019831e-08 -7.0377667134e-04 0.0000000000e+00 
          4.1727877334e-08 -7.0413322976e-04 0.0000000000e+00 
          5.0097588516e-08 -7.0445879461e-04 0.0000000000e+00 
          5.7746576324e-08 -7.0475339424e-04 0.0000000000e+00 
          6.4654666675e-08 -7.0501686182e-04 0.0000000000e+00 
          7.0790818971e-08 -7.0524951842e-04 0.0000000000e+00 
          7.6147792846e-08 -7.0545097123e-04 0.0000000000e+00 
          8.0711672070e-08 -7.0562153736e-04 0.0000000000e+00 
          8.4452554810e-08 -7.0576109071e-04 0.0000000000e+00 
          8.7383999622e-08 -7.0586956165e-04 0.0000000000e+00 
          8.9480007256e-08 -7.0594712519e-04 0.0000000000e+00 
          9.0735734649e-08 -7.0599359735e-04 0.0000000000e+00 
          -3.2722305421e-07 -6.8362257896e-04 0.0000000000e+00 
          -3.1388766017e-07 -6.8478527466e-04 0.0000000000e+00 
          -3.0010878836e-07 -6.8591705955e-04 0.0000000000e+00 
          -2.8594625703e-07 -6.8701773342e-04 0.0000000000e+00 
          -2.7144556173e-07 -6.8808747170e-04 0.0000000000e+00 
          -2.5665739725e-07 -6.8912620720e-04 0.0000000000e+00 
          -2.4163696930e-07 -6.9013385124e-04 0.0000000000e+00 
          -2.2643262479e-07 -6.9111062669e-04 0.0000000000e+00 
          -2.1109793721e-07 -6.9205624049e-04 0.0000000000e+00 
          -1.9567818903e-07 -6.9297101015e-04 0.0000000000e+00 
          -1.8023496607e-07 -6.9385458970e-04 0.0000000000e+00 
          -1.6480997732e-07 -6.9470738304e-04 0.0000000000e+00 
          -1.4944842067e-07 -6.9552892965e-04 0.0000000000e+00 
          -1.3422335896e-07 -6.9631967365e-04 0.0000000000e+00 
          -1.1914173846e-07 -6.9707931878e-04 0.0000000000e+00 
          -1.0429874463e-07 -6.9780789554e-04 0.0000000000e+00 
          -8.9702202334e-08 -6.9850566148e-04 0.0000000000e+00 
          -7.5410998056e-08 -6.9917216471e-04 0.0000000000e+00 
          -6.1484940900e-08 -6.9980789898e-04 0.0000000000e+00 
          -4.7928582556e-08 -7.0041245850e-04 0.0000000000e+00 
          -3.4826218470e-08 -7.0098610348e-04 0.0000000000e+00 
          -2.2185467247e-08 -7.0152870483e-04 0.0000000000e+00 
          -1.0053619858e-08 -7.0204031072e-04 0.0000000000e+00 
          1.5199663834e-09 -7.0252090941e-04 0.0000000000e+00 
          1.2527117626e-08 -7.0297049839e-04 0.0000000000e+00 
          2.2911338177e-08 -7.0338908233e-04 0.0000000000e+00 
          3.2653019831e-08 -7.0377667134e-04 0.0000000000e+00 
          4.1727877334e-08 -7.0413322976e-04 0.0000000000e+00 
          5.0097588516e-08 -7.0445879461e-04 0.0000000000e+00 
          5.7746576324e-08 -7.0475339424e-04 0.0000000000e+00 
          6.4654666675e-08 -7.0501686182e-04 0.0000000000e+00 
          7.0790818971e-08 -7.0524951842e-04 0.0000000000e+00 
          7.6147792846e-08 -7.0545097123e-04 0.0000000000e+00 
          8.0711672070e-08 -7.0562153736e-04 0.0000000000e+00 
          8.4452554810e-08 -7.0576109071e-04 0.0000000000e+00 
          8.7383999622e-08 -7.0586956165e-04 0.0000000000e+00 
          8.9480007256e-08 -7.0594712519e-04 0.0000000000e+00 
          9.0735734649e-08 -7.0599359735e-04 0.0000000000e+00 
        </DataArray>
        <DataArray type="Float64" Name="Acceleration" NumberOfComponents="3" format="ascii">
          4.8369613579e-05 -1.8468482256e-06 0.0000000000e+00 
          4.8369613579e-05 -1.8468482256e-06 0.0000000000e+00 
          -7.6983423640e-05 1.1919371868e-05 0.0000000000e+00 
          -7.6983423640e-05 1.1919371868e-05 0.0000000000e+00 
          4.3685840606e-05 1.0780865782e-05 0.0000000000e+00 
          3.9959863387e-05 -1.7474704504e-05 0.0000000000e+00 
          3.4566889261e-05 1.9132450010e-05 0.0000000000e+00 
          3.0469240520e-05 -1.2747315635e-05 0.0000000000e+00 
          2.5901541038e-05 -6.4174068037e-07 0.0000000000e+00 
          2.0929170600e-05 1.5106000763e-05 0.0000000000e+00 
          1.6569496739e-05 -2.4582237217e-05 0.0000000000e+00 
          1.1744168591e-05 2.7987761526e-05 0.0000000000e+00 
          7.6641272875e-06 -2.9227484816e-05 0.0000000000e+00 
          2.1169337548e-06 3.2912622265e-05 0.0000000000e+00 
          -1.6447477775e-06 -3.9456881020e-05 0.0000000000e+00 
          -5.7153566887e-06 4.3319760687e-05 0.0000000000e+00 
          -1.2298464270e-05 -3.6713318284e-05 0.0000000000e+00 
          -1.2924336371e-05 1.6675346813e-05 0.0000000000e+00 
          -2.1499009996e-05 1.1011862013e-05 0.0000000000e+00 
          -2.2207522413e-05 -3.5059494924e-05 0.0000000000e+00 
          -2.7511558521e-05 4.6200500064e-05 0.0000000000e+00 
          -3.2900476900e-05 -4.2776683171e-05 0.0000000000e+00 
          -3.3309026643e-05 3.0210146283e-05 0.0000000000e+00 
          -4.0907393780e-05 -1.6394935287e-05 0.0000000000e+00 
          -4.1592230594e-05 6.7190442071e-06 0.0000000000e+00 
          -4.5853240394e-05 -1.9603157229e-06 0.0000000000e+00 
          -5.0299109015e-05 4.5624558576e-08 0.0000000000e+00 
          -5.1038300751e-05 7.2548048508e-07 0.0000000000e+00 
          -5.6127285459e-05 -2.3358858964e-07 0.0000000000e+00 
          -5.7894023656e-05 -2.0560446192e-06 0.0000000000e+00 
          -6.0082172767e-05 4.3692209584e-06 0.0000000000e+00 
          -6.3534137026e-05 -2.3718075721e-06 0.0000000000e+00 
          -6.4939621931e-05 -7.3288757367e-06 0.0000000000e+00 
          -6.6756323993e-05 2.2653009908e-05 0.0000000000e+00 
          -6.9553143160e-05 -3.5204151291e-05 0.0000000000e+00 
          -7.0204932697e-05 3.5537922531e-05 0.0000000000e+00 
          -7.1460068282e-05 -2.1510804780e-05 0.0000000000e+00 
          -7.4153608374e-05 1.1596429325e-06 0.0000000000e+00 
          -7.2931955832e-05 1.3709157796e-05 0.0000000000e+00 
          -7.5274343093e-05 -1.7842813479e-05 0.0000000000e+00 
          -7.5711203822e-05 1.5346862098e-05 0.0000000000e+00 
          -7.4651806136e-05 -1.2689671884e-05 0.0000000000e+00 
          4.3685840606e-05 1.0780865782e-05 0.0000000000e+00 
          3.9959863387e-05 -1.7474704504e-05 0.0000000000e+00 
          3.4566889261e-05 1.9132450010e-05 0.0000000000e+00 
          3.0469240520e-05 -1.2747315635e-05 0.0000000000e+00 
          2.5901541038e-05 -6.4174068037e-07 0.0000000000e+00 
          2.0929170600e-05 1.5106000763e-05 0.0000000000e+00 
          1.6569496739e-05 -2.4582237217e-05 0.0000000000e+00 
          1.1744168591e-05 2.7987761526e-05 0.0000000000e+00 
          7.6641272875e-06 -2.9227484816e-05 0.0000000000e+00 
          2.1169337548e-06 3.2912622265e-05 0.0000000000e+00 
          -1.6447477775e-06 -3.9456881020e-05 0.0000000000e+00 
          -5.7153566887e-06 4.3319760687e-05 0.0000000000e+00 
          -1.2298464270e-05 -3.6713318284e-05 0.0000000000e+00 
          -1.2924336371e-05 1.6675346813e-05 0.0000000000e+00 
          -2.1499009996e-05 1.1011862013e-05 0.0000000000e+00 
          -2.2207522413e-05 -3.5059494924e-05 0.0000000000e+00 
          -2.7511558521e-05 4.6200500064e-05 0.0000000000e+00 
          -3.2900476900e-05 -4.2776683171e-05 0.0000000000e+00 
          -3.3309026643e-05 3.0210146283e-05 0.0000000000e+00 
          -4.0907393780e-05 -1.6394935287e-05 0.0000000000e+00 
          -4.1592230594e-05 6.7190442071e-06 0.0000000000e+00 
          -4.5853240394e-05 -1.9603157229e-06 0.0000000000e+00 
          -5.0299109015e-05 4.5624558576e-08 0.0000000000e+00 
          -5.1038300751e-05 7.2548048508e-07 0.0000000000e+00 
          -5.6127285459e-05 -2.3358858964e-07 0.0000000000e+00 
          -5.7894023656e-05 -2.0560446192e-06 0.0000000000e+00 
          -6.0082172767e-05 4.3692209584e-06 0.0000000000e+00 
          -6.3534137026e-05 -2.3718075721e-06 0.0000000000e+00 
          -6.4939621931e-05 -7.3288757367e-06 0.0000000000e+00 
          -6.6756323993e-05 2.2653009908e-05 0.0000000000e+00 
          -6.9553143160e-05 -3.5204151291e-05 0.0000000000e+00 
          -7.0204932697e-05 3.5537922531e-05 0.0000000000e+00 
          -7.1460068282e-05 -2.1510804780e-05 0.0000000000e+00 
          -7.4153608374e-05 1.1596429325e-06 0.0000000000e+00 
          -7.2931955832e-05 1.3709157796e-05 0.0000000000e+00 
          -7.5274343093e-05 -1.7842813479e-05 0.0000000000e+00 
          -7.5711203822e-05 1.5346862098e-05 0.0000000000e+00 
          -7.4651806136e-05 -1.2689671884e-05 0.0000000000e+00 
        </DataArray>
        <DataArray type="Float64" Name="Reaction" NumberOfComponents="3" format="ascii">
          0.0000000000e+00 0.0000000000e+00 0.0000000000e+00 
          0.0000000000e+00 0.0000000000e+00 0.0000000000e+00 
          0.0000000000e+00 0.0000000000e+00 0.0000000000e+00 
          0.0000000000e+00 0.0000000000e+00 0.0000000000e+00 
          0.0000000000e+00 0.0000000000e+00 0.0000000000e+00 
          0.0000000000e+00 0.0000000000e+00 0.0000000000e+00 
          0.0000000000e+00 0.0000000000e+00 0.0000000000e+00 
          0.0000000000e+00 0.0000000000e+00 0.0000000000e+00 
          0.0000000000e+00 0.0000000000e+00 0.0000000000e+00 
          0.0000000000e+00 0.0000000000e+00 0.0000000000e+00 
          0.0000000000e+00 0.0000000000e+00 0.0000000000e+00 
          0.0000000000e+00 0.0000000000e+00 0.0000000000e+00 
          0.0000000000e+00 0.0000000000e+00 0.0000000000e+00 
          0.0000000000e+00 0.0000000000e+00 0.0000000000e+00 
          0.0000000000e+00 0.0000000000e+00 0.0000000000e+00 
          0.0000000000e+00 0.0000000000e+00 0.0000000000e+00 
          0.0000000000e+00 0.0000000000e+00 0.0000000000e+00 
          0.0000000000e+00 0.0000000000e+00 0.0000000000e+00 
          0.0000000000e+00 0.0000000000e+00 0.0000000000e+00 
          0.0000000000e+00 0.0000000000e+00 0.0000000000e+00 
          0.0000000000e+00 0.0000000000e+00 0.0000000000e+00 
          0.0000000000e+00 0.0000000000e+00 0.0000000000e+00 
          0.0000000000e+00 0.0000000000e+00 0.0000000000e+00 
          0.0000000000e+00 0.0000000000e+00 0.0000000000e+00 
          0.0000000000e+00 0.0000000000e+00 0.0000000000e+00 
          0.0000000000e+00 0.0000000000e+00 0.0000000000e+00 
          0.0000000000e+00 0.0000000000e+00 0.0000000000e+00 
          0.0000000000e+00 0.0000000000e+00 0.0000000000e+00 
          0.0000000000e+00 0.0000000000e+00 0.0000000000e+00 
          0.0000000000e+00 0.0000000000e+00 0.0000000000e+00 
          0.0000000000e+00 0.0000000000e+00 0.0000000000e+00 
          0.0000000000e+00 0.0000000000e+00 0.0000000000e+00 
          0.0000000000e+00 0.0000000000e+00 0.0000000000e+00 
          0.0000000000e+00 0.0000000000e+00 0.0000000000e+00 
          0.0000000000e+00 0.0000000000e+00 0.0000000000e+00 
          0.0000000000e+00 0.0000000000e+00 0.0000000000e+00 
          0.0000000000e+00 0.0000000000e+00 0.0000000000e+00 
          0.0000000000e+00 0.0000000000e+00 0.0000000000e+00 
          0.0000000000e+00 0.0000000000e+00 0.0000000000e+00 
          0.0000000000e+00 0.0000000000e+00 0.0000000000e+00 
          0.0000000000e+00 0.0000000000e+00 0.0000000000e+00 
          0.0000000000e+00 0.0000000000e+00 0.0000000000e+00 
          0.0000000000e+00 0.0000000000e+00 0.0000000000e+00 
          0.0000000000e+00 0.0000000000e+00 0.0000000000e+00 
          0.0000000000e+00 0.0000000000e+00 0.0000000000e+00 
          0.0000000000e+00 0.0000000000e+00 0.0000000000e+00 
          0.0000000000e+00 0.0000000000e+00 0.0000000000e+00 
          0.0000000000e+00 0.0000000000e+00 0.0000000000e+00 
          0.0000000000e+00 0.0000000000e+00 0.0000000000e+00 
          0.0000000000e+00 0.0000000000e+00 0.0000000000e+00 
          0.0000000000e+00 0.0000000000e+00 0.0000000000e+00 
          0.0000000000e+00 0.0000000000e+00 0.0000000000e+00 
          0.0000000000e+00 0.0000000000e+00 0.0000000000e+00 
          0.0000000000e+00 0.0000000000e+00 0.0000000000e+00 
          0.0000000000e+00 0.0000000000e+00 0.0000000000e+00 
          0.0000000000e+00 0.0000000000e+00 0.0000000000e+00 
          0.0000000000e+00 0.0000000000e+00 0.0000000000e+00 
          0.0000000000e+00 0.0000000000e+00 0.0000000000e+00 
          0.0000000000e+00 0.0000000000e+00 0.0000000000e+00 
          0.0000000000e+00 0.0000000000e+00 0.0000000000e+00 
          0.0000000000e+00 0.0000000000e+00 0.0000000000e+00 
          0.0000000000e+00 0.0000000000e+00 0.0000000000e+00 
          0.0000000000e+00 0.0000000000e+00 0.0000000000e+00 
          0.0000000000e+00 0.0000000000e+00 0.0000000000e+00 
          0.0000000000e+00 0.0000000000e+00 0.0000000000e+00 
          0.0000000000e+00 0.0000000000e+00 0.0000000000e+00 
          0.0000000000e+00 0.0000000000e+00 0.0000000000e+00 
          0.0000000000e+00 0.0000000000e+00 0.0000000000e+00 
          0.0000000000e+00 0.0000000000e+00 0.0000000000e+00 
          0.0000000000e+00 0.0000000000e+00 0.0000000000e+00 
          0.0000000000e+00 0.0000000000e+00 0.0000000000e+00 
          0.0000000000e+00 0.0000000000e+00 0.0000000000e+00 
          0.0000000000e+00 0.0000000000e+00 0.0000000000e+00 
          0.0000000000e+00 0.0000000000e+00 0.0000000000e+00 
          0.0000000000e+00 0.0000000000e+00 0.0000000000e+00 
          0.0000000000e+00 0.0000000000e+00 0.0000000000e+00 
          0.0000000000e+00 0.0000000000e+00 0.0000000000e+00 
          0.0000000000e+00 0.0000000000e+00 0.0000000000e+00 
          0.0000000000e+00 0.0000000000e+00 0.0000000000e+00 
          0.0000000000e+00 0.0000000000e+00 0.0000000000e+00 
        </DataArray>
      </PointData>
      <CellData>
        <DataArray type="Int64" Name="ElementTag" format="ascii">
          90
          91
          92
          93
          94
          95
          96
          97
          98
          99
          100
          101
          102
          103
          104
          105
          106
          107
          108
          109
          110
          111
          112
          113
          114
          115
          116
          117
          118
          119
          120
          121
          122
          123
          124
          125
          126
          127
          128
        </DataArray>
      </CellData>
    </Piece>
  </UnstructuredGrid>
</VTKFile>
