<?xml version="1.0"?>
<VTKFile type="UnstructuredGrid" version="1.0" byte_order="LittleEndian" compressor="vtkZLibDataCompressor">
  <UnstructuredGrid>
    <Piece NumberOfPoints="80" NumberOfCells="39">
      <Points>
        <DataArray type="Float64" Name="Points" NumberOfComponents="3" format="ascii">
          0.0000000000e+00 0.0000000000e+00 0.0000000000e+00 
          2.5000000000e-01 0.0000000000e+00 0.0000000000e+00 
          2.5000000000e-01 3.0000000000e+01 0.0000000000e+00 
          0.0000000000e+00 3.0000000000e+01 0.0000000000e+00 
          2.5000000000e-01 7.6923100000e-01 0.0000000000e+00 
          2.5000000000e-01 1.5384620000e+00 0.0000000000e+00 
          2.5000000000e-01 2.3076920000e+00 0.0000000000e+00 
          2.5000000000e-01 3.0769230000e+00 0.0000000000e+00 
          2.5000000000e-01 3.8461540000e+00 0.0000000000e+00 
          2.5000000000e-01 4.6153850000e+00 0.0000000000e+00 
          2.5000000000e-01 5.3846150000e+00 0.0000000000e+00 
          2.5000000000e-01 6.1538460000e+00 0.0000000000e+00 
          2.5000000000e-01 6.9230770000e+00 0.0000000000e+00 
          2.5000000000e-01 7.6923080000e+00 0.0000000000e+00 
          2.5000000000e-01 8.4615380000e+00 0.0000000000e+00 
          2.5000000000e-01 9.2307690000e+00 0.0000000000e+00 
          2.5000000000e-01 1.0000000000e+01 0.0000000000e+00 
          2.5000000000e-01 1.0769231000e+01 0.0000000000e+00 
          2.5000000000e-01 1.1538462000e+01 0.0000000000e+00 
          2.5000000000e-01 1.2307692000e+01 0.0000000000e+00 
          2.5000000000e-01 1.3076923000e+01 0.0000000000e+00 
          2.5000000000e-01 1.3846154000e+01 0.0000000000e+00 
          2.5000000000e-01 1.4615385000e+01 0.0000000000e+00 
          2.5000000000e-01 1.5384615000e+01 0.0000000000e+00 
          2.5000000000e-01 1.6153846000e+01 0.0000000000e+00 
          2.5000000000e-01 1.6923077000e+01 0.0000000000e+00 
          2.5000000000e-01 1.7692308000e+01 0.0000000000e+00 
          2.5000000000e-01 1.8461538000e+01 0.0000000000e+00 
          2.5000000000e-01 1.9230769000e+01 0.0000000000e+00 
          2.5000000000e-01 2.0000000000e+01 0.0000000000e+00 
          2.5000000000e-01 2.0769231000e+01 0.0000000000e+00 
          2.5000000000e-01 2.1538462000e+01 0.0000000000e+00 
          2.5000000000e-01 2.2307692000e+01 0.0000000000e+00 
          2.5000000000e-01 2.3076923000e+01 0.0000000000e+00 
          2.5000000000e-01 2.3846154000e+01 0.0000000000e+00 
          2.5000000000e-01 2.4615385000e+01 0.0000000000e+00 
          2.5000000000e-01 2.5384615000e+01 0.0000000000e+00 
          2.5000000000e-01 2.6153846000e+01 0.0000000000e+00 
          2.5000000000e-01 2.6923077000e+01 0.0000000000e+00 
          2.5000000000e-01 2.7692308000e+01 0.0000000000e+00 
          2.5000000000e-01 2.8461538000e+01 0.0000000000e+00 
          2.5000000000e-01 2.9230769000e+01 0.0000000000e+00 
          0.0000000000e+00 7.6923100000e-01 0.0000000000e+00 
          0.0000000000e+00 1.5384620000e+00 0.0000000000e+00 
          0.0000000000e+00 2.3076920000e+00 0.0000000000e+00 
          0.0000000000e+00 3.0769230000e+00 0.0000000000e+00 
          0.0000000000e+00 3.8461540000e+00 0.0000000000e+00 
          0.0000000000e+00 4.6153850000e+00 0.0000000000e+00 
          0.0000000000e+00 5.3846150000e+00 0.0000000000e+00 
          0.0000000000e+00 6.1538460000e+00 0.0000000000e+00 
          0.0000000000e+00 6.9230770000e+00 0.0000000000e+00 
          0.0000000000e+00 7.6923080000e+00 0.0000000000e+00 
          0.0000000000e+00 8.4615380000e+00 0.0000000000e+00 
          0.0000000000e+00 9.2307690000e+00 0.0000000000e+00 
          0.0000000000e+00 1.0000000000e+01 0.0000000000e+00 
          0.0000000000e+00 1.0769231000e+01 0.0000000000e+00 
          0.0000000000e+00 1.1538462000e+01 0.0000000000e+00 
          0.0000000000e+00 1.2307692000e+01 0.0000000000e+00 
          0.0000000000e+00 1.3076923000e+01 0.0000000000e+00 
          0.0000000000e+00 1.3846154000e+01 0.0000000000e+00 
          0.0000000000e+00 1.4615385000e+01 0.0000000000e+00 
          0.0000000000e+00 1.5384615000e+01 0.0000000000e+00 
          0.0000000000e+00 1.6153846000e+01 0.0000000000e+00 
          0.0000000000e+00 1.6923077000e+01 0.0000000000e+00 
          0.0000000000e+00 1.7692308000e+01 0.0000000000e+00 
          0.0000000000e+00 1.8461538000e+01 0.0000000000e+00 
          0.0000000000e+00 1.9230769000e+01 0.0000000000e+00 
          0.0000000000e+00 2.0000000000e+01 0.0000000000e+00 
          0.0000000000e+00 2.0769231000e+01 0.0000000000e+00 
          0.0000000000e+00 2.1538462000e+01 0.0000000000e+00 
          0.0000000000e+00 2.2307692000e+01 0.0000000000e+00 
          0.0000000000e+00 2.3076923000e+01 0.0000000000e+00 
          0.0000000000e+00 2.3846154000e+01 0.0000000000e+00 
          0.0000000000e+00 2.4615385000e+01 0.0000000000e+00 
          0.0000000000e+00 2.5384615000e+01 0.0000000000e+00 
          0.0000000000e+00 2.6153846000e+01 0.0000000000e+00 
          0.0000000000e+00 2.6923077000e+01 0.0000000000e+00 
          0.0000000000e+00 2.7692308000e+01 0.0000000000e+00 
          0.0000000000e+00 2.8461538000e+01 0.0000000000e+00 
          0.0000000000e+00 2.9230769000e+01 0.0000000000e+00 
        </DataArray>
      </Points>
      <Cells>
        <DataArray type="Int64" Name="connectivity" format="ascii">
          0 1 4 42 
          42 4 5 43 
          43 5 6 44 
          44 6 7 45 
          45 7 8 46 
          46 8 9 47 
          47 9 10 48 
          48 10 11 49 
          49 11 12 50 
          50 12 13 51 
          51 13 14 52 
          52 14 15 53 
          53 15 16 54 
          54 16 17 55 
          55 17 18 56 
          56 18 19 57 
          57 19 20 58 
          58 20 21 59 
          59 21 22 60 
          60 22 23 61 
          61 23 24 62 
          62 24 25 63 
          63 25 26 64 
          64 26 27 65 
          65 27 28 66 
          66 28 29 67 
          67 29 30 68 
          68 30 31 69 
          69 31 32 70 
          70 32 33 71 
          71 33 34 72 
          72 34 35 73 
          73 35 36 74 
          74 36 37 75 
          75 37 38 76 
          76 38 39 77 
          77 39 40 78 
          78 40 41 79 
          79 41 2 3 
        </DataArray>
        <DataArray type="Int64" Name="offsets" format="ascii">
          4
          8
          12
          16
          20
          24
          28
          32
          36
          40
          44
          48
          52
          56
          60
          64
          68
          72
          76
          80
          84
          88
          92
          96
          100
          104
          108
          112
          116
          120
          124
          128
          132
          136
          140
          144
          148
          152
          156
        </DataArray>
        <DataArray type="Int64" Name="types" format="ascii">
          9
          9
          9
          9
          9
          9
          9
          9
          9
          9
          9
          9
          9
          9
          9
          9
          9
          9
          9
          9
          9
          9
          9
          9
          9
          9
          9
          9
          9
          9
          9
          9
          9
          9
          9
          9
          9
          9
          9
        </DataArray>
      </Cells>
      <PointData>
        <DataArray type="Int64" Name="NodeTag" format="ascii">
          1
          2
          3
          4
          7
          8
          9
          10
          11
          12
          13
          14
          15
          16
          17
          18
          19
          20
          21
          22
          23
          24
          25
          26
          27
          28
          29
          30
          31
          32
          33
          34
          35
          36
          37
          38
          39
          40
          41
          42
          43
          44
          45
          46
          47
          48
          49
          50
          51
          52
          53
          54
          55
          56
          57
          58
          59
          60
          61
          62
          63
          64
          65
          66
          67
          68
          69
          70
          71
          72
          73
          74
          75
          76
          77
          78
          79
          80
          81
          82
        </DataArray>
        <DataArray type="Float64" Name="Velocity" NumberOfComponents="3" format="ascii">
          -4.9327723831e-03 -7.7967526253e-05 0.0000000000e+00 
          -4.9327723831e-03 -7.7967526253e-05 0.0000000000e+00 
          6.9627836274e-02 -7.7321969818e-05 0.0000000000e+00 
          6.9627836274e-02 -7.7321969818e-05 0.0000000000e+00 
          -1.9372802326e-03 -7.7855888676e-05 0.0000000000e+00 
          1.0553534404e-03 -7.7962356846e-05 0.0000000000e+00 
          4.0399945426e-03 -7.7856551816e-05 0.0000000000e+00 
          7.0115938280e-03 -7.7844716373e-05 0.0000000000e+00 
          9.9651045496e-03 -7.7732803760e-05 0.0000000000e+00 
          1.2895517114e-02 -7.7749102659e-05 0.0000000000e+00 
          1.5797883430e-02 -7.7783188657e-05 0.0000000000e+00 
          1.8667300419e-02 -7.7593782042e-05 0.0000000000e+00 
          2.1498927915e-02 -7.7717731794e-05 0.0000000000e+00 
          2.4288043037e-02 -7.7584057031e-05 0.0000000000e+00 
          2.7029945286e-02 -7.7531331607e-05 0.0000000000e+00 
          2.9720048357e-02 -7.7635390306e-05 0.0000000000e+00 
          3.2353893960e-02 -7.7386076724e-05 0.0000000000e+00 
          3.4927085046e-02 -7.7366924760e-05 0.0000000000e+00 
          3.7435383184e-02 -7.7536597594e-05 0.0000000000e+00 
          3.9874643219e-02 -7.7331094467e-05 0.0000000000e+00 
          4.2240837781e-02 -7.7342692764e-05 0.0000000000e+00 
          4.4530123132e-02 -7.7415635292e-05 0.0000000000e+00 
          4.6738728890e-02 -7.7239347430e-05 0.0000000000e+00 
          4.8863073056e-02 -7.7321139852e-05 0.0000000000e+00 
          5.0899732453e-02 -7.7225099742e-05 0.0000000000e+00 
          5.2845382998e-02 -7.7346641239e-05 0.0000000000e+00 
          5.4696929654e-02 -7.7295940107e-05 0.0000000000e+00 
          5.6451374511e-02 -7.7269431778e-05 0.0000000000e+00 
          5.8105947140e-02 -7.7282654761e-05 0.0000000000e+00 
          5.9657990822e-02 -7.7285602186e-05 0.0000000000e+00 
          6.1105037274e-02 -7.7286721858e-05 0.0000000000e+00 
          6.2444837402e-02 -7.7295239882e-05 0.0000000000e+00 
          6.3675236725e-02 -7.7276291442e-05 0.0000000000e+00 
          6.4794319106e-02 -7.7228939754e-05 0.0000000000e+00 
          6.5800332244e-02 -7.7269017093e-05 0.0000000000e+00 
          6.6691714388e-02 -7.7133360448e-05 0.0000000000e+00 
          6.7467066445e-02 -7.7341274836e-05 0.0000000000e+00 
          6.8125164074e-02 -7.7185990588e-05 0.0000000000e+00 
          6.8665014256e-02 -7.7188784968e-05 0.0000000000e+00 
          6.9085756026e-02 -7.7355529704e-05 0.0000000000e+00 
          6.9386766428e-02 -7.7230382478e-05 0.0000000000e+00 
          6.9567560021e-02 -7.7231059329e-05 0.0000000000e+00 
          -1.9372802326e-03 -7.7855888676e-05 0.0000000000e+00 
          1.0553534404e-03 -7.7962356846e-05 0.0000000000e+00 
          4.0399945426e-03 -7.7856551816e-05 0.0000000000e+00 
          7.0115938280e-03 -7.7844716373e-05 0.0000000000e+00 
          9.9651045496e-03 -7.7732803760e-05 0.0000000000e+00 
          1.2895517114e-02 -7.7749102659e-05 0.0000000000e+00 
          1.5797883430e-02 -7.7783188657e-05 0.0000000000e+00 
          1.8667300419e-02 -7.7593782042e-05 0.0000000000e+00 
          2.1498927915e-02 -7.7717731794e-05 0.0000000000e+00 
          2.4288043037e-02 -7.7584057031e-05 0.0000000000e+00 
          2.7029945286e-02 -7.7531331607e-05 0.0000000000e+00 
          2.9720048357e-02 -7.7635390306e-05 0.0000000000e+00 
          3.2353893960e-02 -7.7386076724e-05 0.0000000000e+00 
          3.4927085046e-02 -7.7366924760e-05 0.0000000000e+00 
          3.7435383184e-02 -7.7536597594e-05 0.0000000000e+00 
          3.9874643219e-02 -7.7331094467e-05 0.0000000000e+00 
          4.2240837781e-02 -7.7342692764e-05 0.0000000000e+00 
          4.4530123132e-02 -7.7415635292e-05 0.0000000000e+00 
          4.6738728890e-02 -7.7239347430e-05 0.0000000000e+00 
          4.8863073056e-02 -7.7321139852e-05 0.0000000000e+00 
          5.0899732453e-02 -7.7225099742e-05 0.0000000000e+00 
          5.2845382998e-02 -7.7346641239e-05 0.0000000000e+00 
          5.4696929654e-02 -7.7295940107e-05 0.0000000000e+00 
          5.6451374511e-02 -7.7269431778e-05 0.0000000000e+00 
          5.8105947140e-02 -7.7282654761e-05 0.0000000000e+00 
          5.9657990822e-02 -7.7285602186e-05 0.0000000000e+00 
          6.1105037274e-02 -7.7286721858e-05 0.0000000000e+00 
          6.2444837402e-02 -7.7295239882e-05 0.0000000000e+00 
          6.3675236725e-02 -7.7276291442e-05 0.0000000000e+00 
          6.4794319106e-02 -7.7228939754e-05 0.0000000000e+00 
          6.5800332244e-02 -7.7269017093e-05 0.0000000000e+00 
          6.6691714388e-02 -7.7133360448e-05 0.0000000000e+00 
          6.7467066445e-02 -7.7341274836e-05 0.0000000000e+00 
          6.8125164074e-02 -7.7185990588e-05 0.0000000000e+00 
          6.8665014256e-02 -7.7188784968e-05 0.0000000000e+00 
          6.9085756026e-02 -7.7355529704e-05 0.0000000000e+00 
          6.9386766428e-02 -7.7230382478e-05 0.0000000000e+00 
          6.9567560021e-02 -7.7231059329e-05 0.0000000000e+00 
        </DataArray>
        <DataArray type="Float64" Name="Displacement" NumberOfComponents="3" format="ascii">
          -1.1086105716e-03 -2.7452944451e-04 0.0000000000e+00 
          -1.1086105716e-03 -2.7452944451e-04 0.0000000000e+00 
          -2.6787980049e-03 -2.9816296807e-04 0.0000000000e+00 
          -2.6787980049e-03 -2.9816296807e-04 0.0000000000e+00 
          -1.1895270124e-03 -2.7572508076e-04 0.0000000000e+00 
          -1.2684069175e-03 -2.7688954312e-04 0.0000000000e+00 
          -1.3452184494e-03 -2.7802307502e-04 0.0000000000e+00 
          -1.4199332062e-03 -2.7912556403e-04 0.0000000000e+00 
          -1.4925258523e-03 -2.8019728280e-04 0.0000000000e+00 
          -1.5629743541e-03 -2.8123755563e-04 0.0000000000e+00 
          -1.6312596930e-03 -2.8224736316e-04 0.0000000000e+00 
          -1.6973663060e-03 -2.8322602920e-04 0.0000000000e+00 
          -1.7612813071e-03 -2.8417357628e-04 0.0000000000e+00 
          -1.8229947455e-03 -2.8509040440e-04 0.0000000000e+00 
          -1.8824994215e-03 -2.8597603685e-04 0.0000000000e+00 
          -1.9397909877e-03 -2.8683063590e-04 0.0000000000e+00 
          -1.9948674503e-03 -2.8765427836e-04 0.0000000000e+00 
          -2.0477292996e-03 -2.8844689543e-04 0.0000000000e+00 
          -2.0983791589e-03 -2.8920836428e-04 0.0000000000e+00 
          -2.1468217537e-03 -2.8993875337e-04 0.0000000000e+00 
          -2.1930639010e-03 -2.9063811228e-04 0.0000000000e+00 
          -2.2371139741e-03 -2.9130637432e-04 0.0000000000e+00 
          -2.2789819191e-03 -2.9194393677e-04 0.0000000000e+00 
          -2.3186789622e-03 -2.9255008629e-04 0.0000000000e+00 
          -2.3562177455e-03 -2.9312511677e-04 0.0000000000e+00 
          -2.3916116346e-03 -2.9366947512e-04 0.0000000000e+00 
          -2.4248748107e-03 -2.9418237328e-04 0.0000000000e+00 
          -2.4560219772e-03 -2.9466446523e-04 0.0000000000e+00 
          -2.4850683010e-03 -2.9511535385e-04 0.0000000000e+00 
          -2.5120289765e-03 -2.9553514199e-04 0.0000000000e+00 
          -2.5369192557e-03 -2.9592373870e-04 0.0000000000e+00 
          -2.5597540514e-03 -2.9628135098e-04 0.0000000000e+00 
          -2.5805478297e-03 -2.9660818464e-04 0.0000000000e+00 
          -2.5993146151e-03 -2.9690339644e-04 0.0000000000e+00 
          -2.6160674821e-03 -2.9716777872e-04 0.0000000000e+00 
          -2.6308186418e-03 -2.9740101933e-04 0.0000000000e+00 
          -2.6435791840e-03 -2.9760317195e-04 0.0000000000e+00 
          -2.6543590499e-03 -2.9777415195e-04 0.0000000000e+00 
          -2.6631668953e-03 -2.9791390411e-04 0.0000000000e+00 
          -2.6700098245e-03 -2.9802298857e-04 0.0000000000e+00 
          -2.6748935329e-03 -2.9810068510e-04 0.0000000000e+00 
          -2.6778221227e-03 -2.9814727227e-04 0.0000000000e+00 
          -1.1895270124e-03 -2.7572508076e-04 0.0000000000e+00 
          -1.2684069175e-03 -2.7688954312e-04 0.0000000000e+00 
          -1.3452184494e-03 -2.7802307502e-04 0.0000000000e+00 
          -1.4199332062e-03 -2.7912556403e-04 0.0000000000e+00 
          -1.4925258523e-03 -2.8019728280e-04 0.0000000000e+00 
          -1.5629743541e-03 -2.8123755563e-04 0.0000000000e+00 
          -1.6312596930e-03 -2.8224736316e-04 0.0000000000e+00 
          -1.6973663060e-03 -2.8322602920e-04 0.0000000000e+00 
          -1.7612813071e-03 -2.8417357628e-04 0.0000000000e+00 
          -1.8229947455e-03 -2.8509040440e-04 0.0000000000e+00 
          -1.8824994215e-03 -2.8597603685e-04 0.0000000000e+00 
          -1.9397909877e-03 -2.8683063590e-04 0.0000000000e+00 
          -1.9948674503e-03 -2.8765427836e-04 0.0000000000e+00 
          -2.0477292996e-03 -2.8844689543e-04 0.0000000000e+00 
          -2.0983791589e-03 -2.8920836428e-04 0.0000000000e+00 
          -2.1468217537e-03 -2.8993875337e-04 0.0000000000e+00 
          -2.1930639010e-03 -2.9063811228e-04 0.0000000000e+00 
          -2.2371139741e-03 -2.9130637432e-04 0.0000000000e+00 
          -2.2789819191e-03 -2.9194393677e-04 0.0000000000e+00 
          -2.3186789622e-03 -2.9255008629e-04 0.0000000000e+00 
          -2.3562177455e-03 -2.9312511677e-04 0.0000000000e+00 
          -2.3916116346e-03 -2.9366947512e-04 0.0000000000e+00 
          -2.4248748107e-03 -2.9418237328e-04 0.0000000000e+00 
          -2.4560219772e-03 -2.9466446523e-04 0.0000000000e+00 
          -2.4850683010e-03 -2.9511535385e-04 0.0000000000e+00 
          -2.5120289765e-03 -2.9553514199e-04 0.0000000000e+00 
          -2.5369192557e-03 -2.9592373870e-04 0.0000000000e+00 
          -2.5597540514e-03 -2.9628135098e-04 0.0000000000e+00 
          -2.5805478297e-03 -2.9660818464e-04 0.0000000000e+00 
          -2.5993146151e-03 -2.9690339644e-04 0.0000000000e+00 
          -2.6160674821e-03 -2.9716777872e-04 0.0000000000e+00 
          -2.6308186418e-03 -2.9740101933e-04 0.0000000000e+00 
          -2.6435791840e-03 -2.9760317195e-04 0.0000000000e+00 
          -2.6543590499e-03 -2.9777415195e-04 0.0000000000e+00 
          -2.6631668953e-03 -2.9791390411e-04 0.0000000000e+00 
          -2.6700098245e-03 -2.9802298857e-04 0.0000000000e+00 
          -2.6748935329e-03 -2.9810068510e-04 0.0000000000e+00 
          -2.6778221227e-03 -2.9814727227e-04 0.0000000000e+00 
        </DataArray>
        <DataArray type="Float64" Name="Acceleration" NumberOfComponents="3" format="ascii">
          1.8031144897e-01 6.8382467657e-06 0.0000000000e+00 
          1.8031144897e-01 6.8382467657e-06 0.0000000000e+00 
          1.7585783394e-01 6.9427829109e-05 0.0000000000e+00 
          1.7585783394e-01 6.9427829109e-05 0.0000000000e+00 
          1.8349588183e-01 3.0193707585e-05 0.0000000000e+00 
          1.8635563734e-01 -1.3934677192e-05 0.0000000000e+00 
          1.8893269623e-01 6.8547581879e-06 0.0000000000e+00 
          1.9120636097e-01 -4.2544385215e-05 0.0000000000e+00 
          1.9319163835e-01 7.9218061498e-05 0.0000000000e+00 
          1.9489737797e-01 -9.7730567825e-05 0.0000000000e+00 
          1.9631563985e-01 2.4595465157e-05 0.0000000000e+00 
          1.9746855078e-01 2.0295629569e-05 0.0000000000e+00 
          1.9836514823e-01 -5.1788077461e-05 0.0000000000e+00 
          1.9900701281e-01 3.3916707181e-05 0.0000000000e+00 
          1.9941266689e-01 5.0863929731e-06 0.0000000000e+00 
          1.9958521100e-01 -8.9634437759e-06 0.0000000000e+00 
          1.9954102854e-01 3.4325794050e-06 0.0000000000e+00 
          1.9930466222e-01 2.5568354678e-05 0.0000000000e+00 
          1.9887334731e-01 1.3064751112e-05 0.0000000000e+00 
          1.9827047405e-01 4.4691013206e-06 0.0000000000e+00 
          1.9751020691e-01 1.6316813182e-05 0.0000000000e+00 
          1.9661405607e-01 -5.5279568060e-05 0.0000000000e+00 
          1.9559802891e-01 7.3132408912e-05 0.0000000000e+00 
          1.9446824341e-01 2.0455683643e-05 0.0000000000e+00 
          1.9325919955e-01 -6.0224996387e-05 0.0000000000e+00 
          1.9198145440e-01 8.1785985079e-05 0.0000000000e+00 
          1.9065311909e-01 -3.6174857512e-05 0.0000000000e+00 
          1.8929384464e-01 3.5617492661e-05 0.0000000000e+00 
          1.8792103374e-01 1.6964932376e-05 0.0000000000e+00 
          1.8654679202e-01 3.3353126872e-05 0.0000000000e+00 
          1.8520312283e-01 -3.9471545403e-06 0.0000000000e+00 
          1.8389737796e-01 -4.1107406396e-05 0.0000000000e+00 
          1.8263862279e-01 1.1099742561e-04 0.0000000000e+00 
          1.8145803135e-01 -3.1861642609e-05 0.0000000000e+00 
          1.8035777489e-01 2.4389421470e-05 0.0000000000e+00 
          1.7935718609e-01 1.4668062554e-05 0.0000000000e+00 
          1.7846446440e-01 3.0015926293e-05 0.0000000000e+00 
          1.7768293213e-01 3.9915955140e-05 0.0000000000e+00 
          1.7704283591e-01 -6.1023225512e-05 0.0000000000e+00 
          1.7652920558e-01 6.8749926128e-05 0.0000000000e+00 
          1.7616073369e-01 1.8587976907e-05 0.0000000000e+00 
          1.7594280673e-01 -2.0719431671e-05 0.0000000000e+00 
          1.8349588183e-01 3.0193707585e-05 0.0000000000e+00 
          1.8635563734e-01 -1.3934677192e-05 0.0000000000e+00 
          1.8893269623e-01 6.8547581879e-06 0.0000000000e+00 
          1.9120636097e-01 -4.2544385215e-05 0.0000000000e+00 
          1.9319163835e-01 7.9218061498e-05 0.0000000000e+00 
          1.9489737797e-01 -9.7730567825e-05 0.0000000000e+00 
          1.9631563985e-01 2.4595465157e-05 0.0000000000e+00 
          1.9746855078e-01 2.0295629569e-05 0.0000000000e+00 
          1.9836514823e-01 -5.1788077461e-05 0.0000000000e+00 
          1.9900701281e-01 3.3916707181e-05 0.0000000000e+00 
          1.9941266689e-01 5.0863929731e-06 0.0000000000e+00 
          1.9958521100e-01 -8.9634437759e-06 0.0000000000e+00 
          1.9954102854e-01 3.4325794050e-06 0.0000000000e+00 
          1.9930466222e-01 2.5568354678e-05 0.0000000000e+00 
          1.9887334731e-01 1.3064751112e-05 0.0000000000e+00 
          1.9827047405e-01 4.4691013206e-06 0.0000000000e+00 
          1.9751020691e-01 1.6316813182e-05 0.0000000000e+00 
          1.9661405607e-01 -5.5279568060e-05 0.0000000000e+00 
          1.9559802891e-01 7.3132408912e-05 0.0000000000e+00 
          1.9446824341e-01 2.0455683643e-05 0.0000000000e+00 
          1.9325919955e-01 -6.0224996387e-05 0.0000000000e+00 
          1.9198145440e-01 8.1785985079e-05 0.0000000000e+00 
          1.9065311909e-01 -3.6174857512e-05 0.0000000000e+00 
          1.8929384464e-01 3.5617492661e-05 0.0000000000e+00 
          1.8792103374e-01 1.6964932376e-05 0.0000000000e+00 
          1.8654679202e-01 3.3353126872e-05 0.0000000000e+00 
          1.8520312283e-01 -3.9471545403e-06 0.0000000000e+00 
          1.8389737796e-01 -4.1107406396e-05 0.0000000000e+00 
          1.8263862279e-01 1.1099742561e-04 0.0000000000e+00 
          1.8145803135e-01 -3.1861642609e-05 0.0000000000e+00 
          1.8035777489e-01 2.4389421470e-05 0.0000000000e+00 
          1.7935718609e-01 1.4668062554e-05 0.0000000000e+00 
          1.7846446440e-01 3.0015926293e-05 0.0000000000e+00 
          1.7768293213e-01 3.9915955140e-05 0.0000000000e+00 
          1.7704283591e-01 -6.1023225512e-05 0.0000000000e+00 
          1.7652920558e-01 6.8749926128e-05 0.0000000000e+00 
          1.7616073369e-01 1.8587976907e-05 0.0000000000e+00 
          1.7594280673e-01 -2.0719431671e-05 0.0000000000e+00 
        </DataArray>
        <DataArray type="Float64" Name="Reaction" NumberOfComponents="3" format="ascii">
          0.0000000000e+00 0.0000000000e+00 0.0000000000e+00 
          0.0000000000e+00 0.0000000000e+00 0.0000000000e+00 
          0.0000000000e+00 0.0000000000e+00 0.0000000000e+00 
          0.0000000000e+00 0.0000000000e+00 0.0000000000e+00 
          0.0000000000e+00 0.0000000000e+00 0.0000000000e+00 
          0.0000000000e+00 0.0000000000e+00 0.0000000000e+00 
          0.0000000000e+00 0.0000000000e+00 0.0000000000e+00 
          0.0000000000e+00 0.0000000000e+00 0.0000000000e+00 
          0.0000000000e+00 0.0000000000e+00 0.0000000000e+00 
          0.0000000000e+00 0.0000000000e+00 0.0000000000e+00 
          0.0000000000e+00 0.0000000000e+00 0.0000000000e+00 
          0.0000000000e+00 0.0000000000e+00 0.0000000000e+00 
          0.0000000000e+00 0.0000000000e+00 0.0000000000e+00 
          0.0000000000e+00 0.0000000000e+00 0.0000000000e+00 
          0.0000000000e+00 0.0000000000e+00 0.0000000000e+00 
          0.0000000000e+00 0.0000000000e+00 0.0000000000e+00 
          0.0000000000e+00 0.0000000000e+00 0.0000000000e+00 
          0.0000000000e+00 0.0000000000e+00 0.0000000000e+00 
          0.0000000000e+00 0.0000000000e+00 0.0000000000e+00 
          0.0000000000e+00 0.0000000000e+00 0.0000000000e+00 
          0.0000000000e+00 0.0000000000e+00 0.0000000000e+00 
          0.0000000000e+00 0.0000000000e+00 0.0000000000e+00 
          0.0000000000e+00 0.0000000000e+00 0.0000000000e+00 
          0.0000000000e+00 0.0000000000e+00 0.0000000000e+00 
          0.0000000000e+00 0.0000000000e+00 0.0000000000e+00 
          0.0000000000e+00 0.0000000000e+00 0.0000000000e+00 
          0.0000000000e+00 0.0000000000e+00 0.0000000000e+00 
          0.0000000000e+00 0.0000000000e+00 0.0000000000e+00 
          0.0000000000e+00 0.0000000000e+00 0.0000000000e+00 
          0.0000000000e+00 0.0000000000e+00 0.0000000000e+00 
          0.0000000000e+00 0.0000000000e+00 0.0000000000e+00 
          0.0000000000e+00 0.0000000000e+00 0.0000000000e+00 
          0.0000000000e+00 0.0000000000e+00 0.0000000000e+00 
          0.0000000000e+00 0.0000000000e+00 0.0000000000e+00 
          0.0000000000e+00 0.0000000000e+00 0.0000000000e+00 
          0.0000000000e+00 0.0000000000e+00 0.0000000000e+00 
          0.0000000000e+00 0.0000000000e+00 0.0000000000e+00 
          0.0000000000e+00 0.0000000000e+00 0.0000000000e+00 
          0.0000000000e+00 0.0000000000e+00 0.0000000000e+00 
          0.0000000000e+00 0.0000000000e+00 0.0000000000e+00 
          0.0000000000e+00 0.0000000000e+00 0.0000000000e+00 
          0.0000000000e+00 0.0000000000e+00 0.0000000000e+00 
          0.0000000000e+00 0.0000000000e+00 0.0000000000e+00 
          0.0000000000e+00 0.0000000000e+00 0.0000000000e+00 
          0.0000000000e+00 0.0000000000e+00 0.0000000000e+00 
          0.0000000000e+00 0.0000000000e+00 0.0000000000e+00 
          0.0000000000e+00 0.0000000000e+00 0.0000000000e+00 
          0.0000000000e+00 0.0000000000e+00 0.0000000000e+00 
          0.0000000000e+00 0.0000000000e+00 0.0000000000e+00 
          0.0000000000e+00 0.0000000000e+00 0.0000000000e+00 
          0.0000000000e+00 0.0000000000e+00 0.0000000000e+00 
          0.0000000000e+00 0.0000000000e+00 0.0000000000e+00 
          0.0000000000e+00 0.0000000000e+00 0.0000000000e+00 
          0.0000000000e+00 0.0000000000e+00 0.0000000000e+00 
          0.0000000000e+00 0.0000000000e+00 0.0000000000e+00 
          0.0000000000e+00 0.0000000000e+00 0.0000000000e+00 
          0.0000000000e+00 0.0000000000e+00 0.0000000000e+00 
          0.0000000000e+00 0.0000000000e+00 0.0000000000e+00 
          0.0000000000e+00 0.0000000000e+00 0.0000000000e+00 
          0.0000000000e+00 0.0000000000e+00 0.0000000000e+00 
          0.0000000000e+00 0.0000000000e+00 0.0000000000e+00 
          0.0000000000e+00 0.0000000000e+00 0.0000000000e+00 
          0.0000000000e+00 0.0000000000e+00 0.0000000000e+00 
          0.0000000000e+00 0.0000000000e+00 0.0000000000e+00 
          0.0000000000e+00 0.0000000000e+00 0.0000000000e+00 
          0.0000000000e+00 0.0000000000e+00 0.0000000000e+00 
          0.0000000000e+00 0.0000000000e+00 0.0000000000e+00 
          0.0000000000e+00 0.0000000000e+00 0.0000000000e+00 
          0.0000000000e+00 0.0000000000e+00 0.0000000000e+00 
          0.0000000000e+00 0.0000000000e+00 0.0000000000e+00 
          0.0000000000e+00 0.0000000000e+00 0.0000000000e+00 
          0.0000000000e+00 0.0000000000e+00 0.0000000000e+00 
          0.0000000000e+00 0.0000000000e+00 0.0000000000e+00 
          0.0000000000e+00 0.0000000000e+00 0.0000000000e+00 
          0.0000000000e+00 0.0000000000e+00 0.0000000000e+00 
          0.0000000000e+00 0.0000000000e+00 0.0000000000e+00 
          0.0000000000e+00 0.0000000000e+00 0.0000000000e+00 
          0.0000000000e+00 0.0000000000e+00 0.0000000000e+00 
          0.0000000000e+00 0.0000000000e+00 0.0000000000e+00 
          0.0000000000e+00 0.0000000000e+00 0.0000000000e+00 
        </DataArray>
      </PointData>
      <CellData>
        <DataArray type="Int64" Name="ElementTag" format="ascii">
          90
          91
          92
          93
          94
          95
          96
          97
          98
          99
          100
          101
          102
          103
          104
          105
          106
          107
          108
          109
          110
          111
          112
          113
          114
          115
          116
          117
          118
          119
          120
          121
          122
          123
          124
          125
          126
          127
          128
        </DataArray>
      </CellData>
    </Piece>
  </UnstructuredGrid>
</VTKFile>
