<?xml version="1.0"?>
<VTKFile type="UnstructuredGrid" version="1.0" byte_order="LittleEndian" compressor="vtkZLibDataCompressor">
  <UnstructuredGrid>
    <Piece NumberOfPoints="80" NumberOfCells="39">
      <Points>
        <DataArray type="Float64" Name="Points" NumberOfComponents="3" format="ascii">
          0.0000000000e+00 0.0000000000e+00 0.0000000000e+00 
          2.5000000000e-01 0.0000000000e+00 0.0000000000e+00 
          2.5000000000e-01 3.0000000000e+01 0.0000000000e+00 
          0.0000000000e+00 3.0000000000e+01 0.0000000000e+00 
          2.5000000000e-01 7.6923100000e-01 0.0000000000e+00 
          2.5000000000e-01 1.5384620000e+00 0.0000000000e+00 
          2.5000000000e-01 2.3076920000e+00 0.0000000000e+00 
          2.5000000000e-01 3.0769230000e+00 0.0000000000e+00 
          2.5000000000e-01 3.8461540000e+00 0.0000000000e+00 
          2.5000000000e-01 4.6153850000e+00 0.0000000000e+00 
          2.5000000000e-01 5.3846150000e+00 0.0000000000e+00 
          2.5000000000e-01 6.1538460000e+00 0.0000000000e+00 
          2.5000000000e-01 6.9230770000e+00 0.0000000000e+00 
          2.5000000000e-01 7.6923080000e+00 0.0000000000e+00 
          2.5000000000e-01 8.4615380000e+00 0.0000000000e+00 
          2.5000000000e-01 9.2307690000e+00 0.0000000000e+00 
          2.5000000000e-01 1.0000000000e+01 0.0000000000e+00 
          2.5000000000e-01 1.0769231000e+01 0.0000000000e+00 
          2.5000000000e-01 1.1538462000e+01 0.0000000000e+00 
          2.5000000000e-01 1.2307692000e+01 0.0000000000e+00 
          2.5000000000e-01 1.3076923000e+01 0.0000000000e+00 
          2.5000000000e-01 1.3846154000e+01 0.0000000000e+00 
          2.5000000000e-01 1.4615385000e+01 0.0000000000e+00 
          2.5000000000e-01 1.5384615000e+01 0.0000000000e+00 
          2.5000000000e-01 1.6153846000e+01 0.0000000000e+00 
          2.5000000000e-01 1.6923077000e+01 0.0000000000e+00 
          2.5000000000e-01 1.7692308000e+01 0.0000000000e+00 
          2.5000000000e-01 1.8461538000e+01 0.0000000000e+00 
          2.5000000000e-01 1.9230769000e+01 0.0000000000e+00 
          2.5000000000e-01 2.0000000000e+01 0.0000000000e+00 
          2.5000000000e-01 2.0769231000e+01 0.0000000000e+00 
          2.5000000000e-01 2.1538462000e+01 0.0000000000e+00 
          2.5000000000e-01 2.2307692000e+01 0.0000000000e+00 
          2.5000000000e-01 2.3076923000e+01 0.0000000000e+00 
          2.5000000000e-01 2.3846154000e+01 0.0000000000e+00 
          2.5000000000e-01 2.4615385000e+01 0.0000000000e+00 
          2.5000000000e-01 2.5384615000e+01 0.0000000000e+00 
          2.5000000000e-01 2.6153846000e+01 0.0000000000e+00 
          2.5000000000e-01 2.6923077000e+01 0.0000000000e+00 
          2.5000000000e-01 2.7692308000e+01 0.0000000000e+00 
          2.5000000000e-01 2.8461538000e+01 0.0000000000e+00 
          2.5000000000e-01 2.9230769000e+01 0.0000000000e+00 
          0.0000000000e+00 7.6923100000e-01 0.0000000000e+00 
          0.0000000000e+00 1.5384620000e+00 0.0000000000e+00 
          0.0000000000e+00 2.3076920000e+00 0.0000000000e+00 
          0.0000000000e+00 3.0769230000e+00 0.0000000000e+00 
          0.0000000000e+00 3.8461540000e+00 0.0000000000e+00 
          0.0000000000e+00 4.6153850000e+00 0.0000000000e+00 
          0.0000000000e+00 5.3846150000e+00 0.0000000000e+00 
          0.0000000000e+00 6.1538460000e+00 0.0000000000e+00 
          0.0000000000e+00 6.9230770000e+00 0.0000000000e+00 
          0.0000000000e+00 7.6923080000e+00 0.0000000000e+00 
          0.0000000000e+00 8.4615380000e+00 0.0000000000e+00 
          0.0000000000e+00 9.2307690000e+00 0.0000000000e+00 
          0.0000000000e+00 1.0000000000e+01 0.0000000000e+00 
          0.0000000000e+00 1.0769231000e+01 0.0000000000e+00 
          0.0000000000e+00 1.1538462000e+01 0.0000000000e+00 
          0.0000000000e+00 1.2307692000e+01 0.0000000000e+00 
          0.0000000000e+00 1.3076923000e+01 0.0000000000e+00 
          0.0000000000e+00 1.3846154000e+01 0.0000000000e+00 
          0.0000000000e+00 1.4615385000e+01 0.0000000000e+00 
          0.0000000000e+00 1.5384615000e+01 0.0000000000e+00 
          0.0000000000e+00 1.6153846000e+01 0.0000000000e+00 
          0.0000000000e+00 1.6923077000e+01 0.0000000000e+00 
          0.0000000000e+00 1.7692308000e+01 0.0000000000e+00 
          0.0000000000e+00 1.8461538000e+01 0.0000000000e+00 
          0.0000000000e+00 1.9230769000e+01 0.0000000000e+00 
          0.0000000000e+00 2.0000000000e+01 0.0000000000e+00 
          0.0000000000e+00 2.0769231000e+01 0.0000000000e+00 
          0.0000000000e+00 2.1538462000e+01 0.0000000000e+00 
          0.0000000000e+00 2.2307692000e+01 0.0000000000e+00 
          0.0000000000e+00 2.3076923000e+01 0.0000000000e+00 
          0.0000000000e+00 2.3846154000e+01 0.0000000000e+00 
          0.0000000000e+00 2.4615385000e+01 0.0000000000e+00 
          0.0000000000e+00 2.5384615000e+01 0.0000000000e+00 
          0.0000000000e+00 2.6153846000e+01 0.0000000000e+00 
          0.0000000000e+00 2.6923077000e+01 0.0000000000e+00 
          0.0000000000e+00 2.7692308000e+01 0.0000000000e+00 
          0.0000000000e+00 2.8461538000e+01 0.0000000000e+00 
          0.0000000000e+00 2.9230769000e+01 0.0000000000e+00 
        </DataArray>
      </Points>
      <Cells>
        <DataArray type="Int64" Name="connectivity" format="ascii">
          0 1 4 42 
          42 4 5 43 
          43 5 6 44 
          44 6 7 45 
          45 7 8 46 
          46 8 9 47 
          47 9 10 48 
          48 10 11 49 
          49 11 12 50 
          50 12 13 51 
          51 13 14 52 
          52 14 15 53 
          53 15 16 54 
          54 16 17 55 
          55 17 18 56 
          56 18 19 57 
          57 19 20 58 
          58 20 21 59 
          59 21 22 60 
          60 22 23 61 
          61 23 24 62 
          62 24 25 63 
          63 25 26 64 
          64 26 27 65 
          65 27 28 66 
          66 28 29 67 
          67 29 30 68 
          68 30 31 69 
          69 31 32 70 
          70 32 33 71 
          71 33 34 72 
          72 34 35 73 
          73 35 36 74 
          74 36 37 75 
          75 37 38 76 
          76 38 39 77 
          77 39 40 78 
          78 40 41 79 
          79 41 2 3 
        </DataArray>
        <DataArray type="Int64" Name="offsets" format="ascii">
          4
          8
          12
          16
          20
          24
          28
          32
          36
          40
          44
          48
          52
          56
          60
          64
          68
          72
          76
          80
          84
          88
          92
          96
          100
          104
          108
          112
          116
          120
          124
          128
          132
          136
          140
          144
          148
          152
          156
        </DataArray>
        <DataArray type="Int64" Name="types" format="ascii">
          9
          9
          9
          9
          9
          9
          9
          9
          9
          9
          9
          9
          9
          9
          9
          9
          9
          9
          9
          9
          9
          9
          9
          9
          9
          9
          9
          9
          9
          9
          9
          9
          9
          9
          9
          9
          9
          9
          9
        </DataArray>
      </Cells>
      <PointData>
        <DataArray type="Int64" Name="NodeTag" format="ascii">
          1
          2
          3
          4
          7
          8
          9
          10
          11
          12
          13
          14
          15
          16
          17
          18
          19
          20
          21
          22
          23
          24
          25
          26
          27
          28
          29
          30
          31
          32
          33
          34
          35
          36
          37
          38
          39
          40
          41
          42
          43
          44
          45
          46
          47
          48
          49
          50
          51
          52
          53
          54
          55
          56
          57
          58
          59
          60
          61
          62
          63
          64
          65
          66
          67
          68
          69
          70
          71
          72
          73
          74
          75
          76
          77
          78
          79
          80
          81
          82
        </DataArray>
        <DataArray type="Float64" Name="Velocity" NumberOfComponents="3" format="ascii">
          2.2992482237e-02 -7.8530673006e-05 0.0000000000e+00 
          2.2992482237e-02 -7.8530673006e-05 0.0000000000e+00 
          -2.2759581772e-01 -7.8851566598e-05 0.0000000000e+00 
          -2.2759581772e-01 -7.8851566598e-05 0.0000000000e+00 
          1.3043540955e-02 -7.8672621644e-05 0.0000000000e+00 
          3.0935398399e-03 -7.8741187185e-05 0.0000000000e+00 
          -6.8403177776e-03 -7.8763968242e-05 0.0000000000e+00 
          -1.6740796579e-02 -7.8841622004e-05 0.0000000000e+00 
          -2.6590775879e-02 -7.9002989859e-05 0.0000000000e+00 
          -3.6373233728e-02 -7.9126403133e-05 0.0000000000e+00 
          -4.6071231762e-02 -7.9154087092e-05 0.0000000000e+00 
          -5.5668101606e-02 -7.9195610341e-05 0.0000000000e+00 
          -6.5147278322e-02 -7.9153871231e-05 0.0000000000e+00 
          -7.4492457194e-02 -7.9143484994e-05 0.0000000000e+00 
          -8.3687547306e-02 -7.9291512612e-05 0.0000000000e+00 
          -9.2716729277e-02 -7.9020425071e-05 0.0000000000e+00 
          -1.0156454464e-01 -7.9086769670e-05 0.0000000000e+00 
          -1.1021582857e-01 -7.9295251533e-05 0.0000000000e+00 
          -1.1865571715e-01 -7.8869530223e-05 0.0000000000e+00 
          -1.2686977655e-01 -7.9038047181e-05 0.0000000000e+00 
          -1.3484403305e-01 -7.9016660270e-05 0.0000000000e+00 
          -1.4256483076e-01 -7.9009125955e-05 0.0000000000e+00 
          -1.5001902935e-01 -7.8856848869e-05 0.0000000000e+00 
          -1.5719390288e-01 -7.8814735287e-05 0.0000000000e+00 
          -1.6407726427e-01 -7.8901570007e-05 0.0000000000e+00 
          -1.7065747073e-01 -7.8883564365e-05 0.0000000000e+00 
          -1.7692330490e-01 -7.8928884232e-05 0.0000000000e+00 
          -1.8286416069e-01 -7.8761269329e-05 0.0000000000e+00 
          -1.8847000777e-01 -7.9096694110e-05 0.0000000000e+00 
          -1.9373132708e-01 -7.8811844469e-05 0.0000000000e+00 
          -1.9863929185e-01 -7.8737331459e-05 0.0000000000e+00 
          -2.0318560236e-01 -7.9074636539e-05 0.0000000000e+00 
          -2.0736257068e-01 -7.9042588972e-05 0.0000000000e+00 
          -2.1116318097e-01 -7.9086696785e-05 0.0000000000e+00 
          -2.1458105858e-01 -7.9073573394e-05 0.0000000000e+00 
          -2.1761049281e-01 -7.8999971141e-05 0.0000000000e+00 
          -2.2024631490e-01 -7.9039156490e-05 0.0000000000e+00 
          -2.2248413942e-01 -7.9058151106e-05 0.0000000000e+00 
          -2.2432022227e-01 -7.9003995976e-05 0.0000000000e+00 
          -2.2575149705e-01 -7.8930840175e-05 0.0000000000e+00 
          -2.2677556891e-01 -7.8876317539e-05 0.0000000000e+00 
          -2.2739067400e-01 -7.8854463971e-05 0.0000000000e+00 
          1.3043540955e-02 -7.8672621644e-05 0.0000000000e+00 
          3.0935398399e-03 -7.8741187185e-05 0.0000000000e+00 
          -6.8403177776e-03 -7.8763968242e-05 0.0000000000e+00 
          -1.6740796579e-02 -7.8841622004e-05 0.0000000000e+00 
          -2.6590775879e-02 -7.9002989859e-05 0.0000000000e+00 
          -3.6373233728e-02 -7.9126403133e-05 0.0000000000e+00 
          -4.6071231762e-02 -7.9154087092e-05 0.0000000000e+00 
          -5.5668101606e-02 -7.9195610341e-05 0.0000000000e+00 
          -6.5147278322e-02 -7.9153871231e-05 0.0000000000e+00 
          -7.4492457194e-02 -7.9143484994e-05 0.0000000000e+00 
          -8.3687547306e-02 -7.9291512612e-05 0.0000000000e+00 
          -9.2716729277e-02 -7.9020425071e-05 0.0000000000e+00 
          -1.0156454464e-01 -7.9086769670e-05 0.0000000000e+00 
          -1.1021582857e-01 -7.9295251533e-05 0.0000000000e+00 
          -1.1865571715e-01 -7.8869530223e-05 0.0000000000e+00 
          -1.2686977655e-01 -7.9038047181e-05 0.0000000000e+00 
          -1.3484403305e-01 -7.9016660270e-05 0.0000000000e+00 
          -1.4256483076e-01 -7.9009125955e-05 0.0000000000e+00 
          -1.5001902935e-01 -7.8856848869e-05 0.0000000000e+00 
          -1.5719390288e-01 -7.8814735287e-05 0.0000000000e+00 
          -1.6407726427e-01 -7.8901570007e-05 0.0000000000e+00 
          -1.7065747073e-01 -7.8883564365e-05 0.0000000000e+00 
          -1.7692330490e-01 -7.8928884232e-05 0.0000000000e+00 
          -1.8286416069e-01 -7.8761269329e-05 0.0000000000e+00 
          -1.8847000777e-01 -7.9096694110e-05 0.0000000000e+00 
          -1.9373132708e-01 -7.8811844469e-05 0.0000000000e+00 
          -1.9863929185e-01 -7.8737331459e-05 0.0000000000e+00 
          -2.0318560236e-01 -7.9074636539e-05 0.0000000000e+00 
          -2.0736257068e-01 -7.9042588972e-05 0.0000000000e+00 
          -2.1116318097e-01 -7.9086696785e-05 0.0000000000e+00 
          -2.1458105858e-01 -7.9073573394e-05 0.0000000000e+00 
          -2.1761049281e-01 -7.8999971141e-05 0.0000000000e+00 
          -2.2024631490e-01 -7.9039156490e-05 0.0000000000e+00 
          -2.2248413942e-01 -7.9058151106e-05 0.0000000000e+00 
          -2.2432022227e-01 -7.9003995976e-05 0.0000000000e+00 
          -2.2575149705e-01 -7.8930840175e-05 0.0000000000e+00 
          -2.2677556891e-01 -7.8876317539e-05 0.0000000000e+00 
          -2.2739067400e-01 -7.8854463971e-05 0.0000000000e+00 
        </DataArray>
        <DataArray type="Float64" Name="Displacement" NumberOfComponents="3" format="ascii">
          3.5478634070e-03 -2.1301095701e-04 0.0000000000e+00 
          3.5478634070e-03 -2.1301095701e-04 0.0000000000e+00 
          1.1481550621e-02 -2.3683124361e-04 0.0000000000e+00 
          1.1481550621e-02 -2.3683124361e-04 0.0000000000e+00 
          3.9263710542e-03 -2.1421538470e-04 0.0000000000e+00 
          4.2979368675e-03 -2.1538899567e-04 0.0000000000e+00 
          4.6622731183e-03 -2.1653175565e-04 0.0000000000e+00 
          5.0191054020e-03 -2.1764348364e-04 0.0000000000e+00 
          5.3681699492e-03 -2.1872404151e-04 0.0000000000e+00 
          5.7092156025e-03 -2.1977341881e-04 0.0000000000e+00 
          6.0420030352e-03 -2.2079159586e-04 0.0000000000e+00 
          6.3663065393e-03 -2.2177863851e-04 0.0000000000e+00 
          6.6819113164e-03 -2.2273442589e-04 0.0000000000e+00 
          6.9886151751e-03 -2.2365862917e-04 0.0000000000e+00 
          7.2862278283e-03 -2.2455187127e-04 0.0000000000e+00 
          7.5745721142e-03 -2.2541393121e-04 0.0000000000e+00 
          7.8534816361e-03 -2.2624408052e-04 0.0000000000e+00 
          8.1228021127e-03 -2.2704350945e-04 0.0000000000e+00 
          8.3823904954e-03 -2.2781106849e-04 0.0000000000e+00 
          8.6321147528e-03 -2.2854724025e-04 0.0000000000e+00 
          8.8718545934e-03 -2.2925261330e-04 0.0000000000e+00 
          9.1014990431e-03 -2.2992609631e-04 0.0000000000e+00 
          9.3209475803e-03 -2.3056783726e-04 0.0000000000e+00 
          9.5301088596e-03 -2.3117821818e-04 0.0000000000e+00 
          9.7289015900e-03 -2.3175742251e-04 0.0000000000e+00 
          9.9172522440e-03 -2.3230526322e-04 0.0000000000e+00 
          1.0095095515e-02 -2.3282153124e-04 0.0000000000e+00 
          1.0262373667e-02 -2.3330711694e-04 0.0000000000e+00 
          1.0419036472e-02 -2.3376140802e-04 0.0000000000e+00 
          1.0565039559e-02 -2.3418395721e-04 0.0000000000e+00 
          1.0700344694e-02 -2.3457589119e-04 0.0000000000e+00 
          1.0824918994e-02 -2.3493604548e-04 0.0000000000e+00 
          1.0938734404e-02 -2.3526498294e-04 0.0000000000e+00 
          1.1041767610e-02 -2.3556280088e-04 0.0000000000e+00 
          1.1133998754e-02 -2.3582897360e-04 0.0000000000e+00 
          1.1215411455e-02 -2.3606392284e-04 0.0000000000e+00 
          1.1285992248e-02 -2.3626772935e-04 0.0000000000e+00 
          1.1345730563e-02 -2.3644015894e-04 0.0000000000e+00 
          1.1394617830e-02 -2.3658107925e-04 0.0000000000e+00 
          1.1432647575e-02 -2.3669050807e-04 0.0000000000e+00 
          1.1459814879e-02 -2.3676863352e-04 0.0000000000e+00 
          1.1476116524e-02 -2.3681557204e-04 0.0000000000e+00 
          3.9263710542e-03 -2.1421538470e-04 0.0000000000e+00 
          4.2979368675e-03 -2.1538899567e-04 0.0000000000e+00 
          4.6622731183e-03 -2.1653175565e-04 0.0000000000e+00 
          5.0191054020e-03 -2.1764348364e-04 0.0000000000e+00 
          5.3681699492e-03 -2.1872404151e-04 0.0000000000e+00 
          5.7092156025e-03 -2.1977341881e-04 0.0000000000e+00 
          6.0420030352e-03 -2.2079159586e-04 0.0000000000e+00 
          6.3663065393e-03 -2.2177863851e-04 0.0000000000e+00 
          6.6819113164e-03 -2.2273442589e-04 0.0000000000e+00 
          6.9886151751e-03 -2.2365862917e-04 0.0000000000e+00 
          7.2862278283e-03 -2.2455187127e-04 0.0000000000e+00 
          7.5745721142e-03 -2.2541393121e-04 0.0000000000e+00 
          7.8534816361e-03 -2.2624408052e-04 0.0000000000e+00 
          8.1228021127e-03 -2.2704350945e-04 0.0000000000e+00 
          8.3823904954e-03 -2.2781106849e-04 0.0000000000e+00 
          8.6321147528e-03 -2.2854724025e-04 0.0000000000e+00 
          8.8718545934e-03 -2.2925261330e-04 0.0000000000e+00 
          9.1014990431e-03 -2.2992609631e-04 0.0000000000e+00 
          9.3209475803e-03 -2.3056783726e-04 0.0000000000e+00 
          9.5301088596e-03 -2.3117821818e-04 0.0000000000e+00 
          9.7289015900e-03 -2.3175742251e-04 0.0000000000e+00 
          9.9172522440e-03 -2.3230526322e-04 0.0000000000e+00 
          1.0095095515e-02 -2.3282153124e-04 0.0000000000e+00 
          1.0262373667e-02 -2.3330711694e-04 0.0000000000e+00 
          1.0419036472e-02 -2.3376140802e-04 0.0000000000e+00 
          1.0565039559e-02 -2.3418395721e-04 0.0000000000e+00 
          1.0700344694e-02 -2.3457589119e-04 0.0000000000e+00 
          1.0824918994e-02 -2.3493604548e-04 0.0000000000e+00 
          1.0938734404e-02 -2.3526498294e-04 0.0000000000e+00 
          1.1041767610e-02 -2.3556280088e-04 0.0000000000e+00 
          1.1133998754e-02 -2.3582897360e-04 0.0000000000e+00 
          1.1215411455e-02 -2.3606392284e-04 0.0000000000e+00 
          1.1285992248e-02 -2.3626772935e-04 0.0000000000e+00 
          1.1345730563e-02 -2.3644015894e-04 0.0000000000e+00 
          1.1394617830e-02 -2.3658107925e-04 0.0000000000e+00 
          1.1432647575e-02 -2.3669050807e-04 0.0000000000e+00 
          1.1459814879e-02 -2.3676863352e-04 0.0000000000e+00 
          1.1476116524e-02 -2.3681557204e-04 0.0000000000e+00 
        </DataArray>
        <DataArray type="Float64" Name="Acceleration" NumberOfComponents="3" format="ascii">
          -5.9853981201e-01 -8.8174933924e-06 0.0000000000e+00 
          -5.9853981201e-01 -8.8174933924e-06 0.0000000000e+00 
          -9.7924578923e-01 6.0694676714e-05 0.0000000000e+00 
          -9.7924578923e-01 6.0694676714e-05 0.0000000000e+00 
          -6.2547294105e-01 -3.4168976519e-05 0.0000000000e+00 
          -6.5135560950e-01 -2.8261035816e-05 0.0000000000e+00 
          -6.7616536685e-01 4.8970090847e-06 0.0000000000e+00 
          -6.9988840060e-01 2.9513042286e-05 0.0000000000e+00 
          -7.2251817183e-01 3.1397389422e-05 0.0000000000e+00 
          -7.4404348953e-01 3.4710201070e-05 0.0000000000e+00 
          -7.6445819813e-01 2.3317805791e-05 0.0000000000e+00 
          -7.8377249124e-01 4.4859243849e-05 0.0000000000e+00 
          -8.0199031845e-01 1.0411626667e-04 0.0000000000e+00 
          -8.1910123596e-01 -8.3439949812e-06 0.0000000000e+00 
          -8.3513360524e-01 3.1897687210e-05 0.0000000000e+00 
          -8.5009087002e-01 1.6295550761e-04 0.0000000000e+00 
          -8.6399191743e-01 -5.1530178177e-05 0.0000000000e+00 
          -8.7688087848e-01 1.5561675539e-04 0.0000000000e+00 
          -8.8874849328e-01 6.8478927667e-05 0.0000000000e+00 
          -8.9964551046e-01 -3.7240071833e-05 0.0000000000e+00 
          -9.0961466319e-01 1.5924619609e-04 0.0000000000e+00 
          -9.1867184278e-01 1.3258265283e-04 0.0000000000e+00 
          -9.2687835960e-01 6.3594908570e-05 0.0000000000e+00 
          -9.3425183799e-01 3.0828938849e-05 0.0000000000e+00 
          -9.4085169908e-01 6.4381691956e-05 0.0000000000e+00 
          -9.4673594837e-01 1.0206050179e-04 0.0000000000e+00 
          -9.5191913200e-01 -5.8500127519e-05 0.0000000000e+00 
          -9.5648399637e-01 5.2067323201e-05 0.0000000000e+00 
          -9.6046152473e-01 1.3255050898e-04 0.0000000000e+00 
          -9.6390668633e-01 -7.0482750041e-05 0.0000000000e+00 
          -9.6686941407e-01 1.3936026685e-04 0.0000000000e+00 
          -9.6938454127e-01 3.7858981883e-05 0.0000000000e+00 
          -9.7151180813e-01 2.0476193625e-05 0.0000000000e+00 
          -9.7328712541e-01 1.1512952479e-04 0.0000000000e+00 
          -9.7476304404e-01 3.9129556581e-05 0.0000000000e+00 
          -9.7596874921e-01 2.4535926383e-05 0.0000000000e+00 
          -9.7693746592e-01 6.6831575179e-05 0.0000000000e+00 
          -9.7770093723e-01 9.0631070110e-05 0.0000000000e+00 
          -9.7828418481e-01 8.7426692648e-05 0.0000000000e+00 
          -9.7872482510e-01 5.3512086022e-05 0.0000000000e+00 
          -9.7902118704e-01 3.2566500453e-05 0.0000000000e+00 
          -9.7918747231e-01 4.6962094573e-05 0.0000000000e+00 
          -6.2547294105e-01 -3.4168976519e-05 0.0000000000e+00 
          -6.5135560950e-01 -2.8261035816e-05 0.0000000000e+00 
          -6.7616536685e-01 4.8970090847e-06 0.0000000000e+00 
          -6.9988840060e-01 2.9513042286e-05 0.0000000000e+00 
          -7.2251817183e-01 3.1397389422e-05 0.0000000000e+00 
          -7.4404348953e-01 3.4710201070e-05 0.0000000000e+00 
          -7.6445819813e-01 2.3317805791e-05 0.0000000000e+00 
          -7.8377249124e-01 4.4859243849e-05 0.0000000000e+00 
          -8.0199031845e-01 1.0411626667e-04 0.0000000000e+00 
          -8.1910123596e-01 -8.3439949812e-06 0.0000000000e+00 
          -8.3513360524e-01 3.1897687210e-05 0.0000000000e+00 
          -8.5009087002e-01 1.6295550761e-04 0.0000000000e+00 
          -8.6399191743e-01 -5.1530178177e-05 0.0000000000e+00 
          -8.7688087848e-01 1.5561675539e-04 0.0000000000e+00 
          -8.8874849328e-01 6.8478927667e-05 0.0000000000e+00 
          -8.9964551046e-01 -3.7240071833e-05 0.0000000000e+00 
          -9.0961466319e-01 1.5924619609e-04 0.0000000000e+00 
          -9.1867184278e-01 1.3258265283e-04 0.0000000000e+00 
          -9.2687835960e-01 6.3594908570e-05 0.0000000000e+00 
          -9.3425183799e-01 3.0828938849e-05 0.0000000000e+00 
          -9.4085169908e-01 6.4381691956e-05 0.0000000000e+00 
          -9.4673594837e-01 1.0206050179e-04 0.0000000000e+00 
          -9.5191913200e-01 -5.8500127519e-05 0.0000000000e+00 
          -9.5648399637e-01 5.2067323201e-05 0.0000000000e+00 
          -9.6046152473e-01 1.3255050898e-04 0.0000000000e+00 
          -9.6390668633e-01 -7.0482750041e-05 0.0000000000e+00 
          -9.6686941407e-01 1.3936026685e-04 0.0000000000e+00 
          -9.6938454127e-01 3.7858981883e-05 0.0000000000e+00 
          -9.7151180813e-01 2.0476193625e-05 0.0000000000e+00 
          -9.7328712541e-01 1.1512952479e-04 0.0000000000e+00 
          -9.7476304404e-01 3.9129556581e-05 0.0000000000e+00 
          -9.7596874921e-01 2.4535926383e-05 0.0000000000e+00 
          -9.7693746592e-01 6.6831575179e-05 0.0000000000e+00 
          -9.7770093723e-01 9.0631070110e-05 0.0000000000e+00 
          -9.7828418481e-01 8.7426692648e-05 0.0000000000e+00 
          -9.7872482510e-01 5.3512086022e-05 0.0000000000e+00 
          -9.7902118704e-01 3.2566500453e-05 0.0000000000e+00 
          -9.7918747231e-01 4.6962094573e-05 0.0000000000e+00 
        </DataArray>
        <DataArray type="Float64" Name="Reaction" NumberOfComponents="3" format="ascii">
          0.0000000000e+00 0.0000000000e+00 0.0000000000e+00 
          0.0000000000e+00 0.0000000000e+00 0.0000000000e+00 
          0.0000000000e+00 0.0000000000e+00 0.0000000000e+00 
          0.0000000000e+00 0.0000000000e+00 0.0000000000e+00 
          0.0000000000e+00 0.0000000000e+00 0.0000000000e+00 
          0.0000000000e+00 0.0000000000e+00 0.0000000000e+00 
          0.0000000000e+00 0.0000000000e+00 0.0000000000e+00 
          0.0000000000e+00 0.0000000000e+00 0.0000000000e+00 
          0.0000000000e+00 0.0000000000e+00 0.0000000000e+00 
          0.0000000000e+00 0.0000000000e+00 0.0000000000e+00 
          0.0000000000e+00 0.0000000000e+00 0.0000000000e+00 
          0.0000000000e+00 0.0000000000e+00 0.0000000000e+00 
          0.0000000000e+00 0.0000000000e+00 0.0000000000e+00 
          0.0000000000e+00 0.0000000000e+00 0.0000000000e+00 
          0.0000000000e+00 0.0000000000e+00 0.0000000000e+00 
          0.0000000000e+00 0.0000000000e+00 0.0000000000e+00 
          0.0000000000e+00 0.0000000000e+00 0.0000000000e+00 
          0.0000000000e+00 0.0000000000e+00 0.0000000000e+00 
          0.0000000000e+00 0.0000000000e+00 0.0000000000e+00 
          0.0000000000e+00 0.0000000000e+00 0.0000000000e+00 
          0.0000000000e+00 0.0000000000e+00 0.0000000000e+00 
          0.0000000000e+00 0.0000000000e+00 0.0000000000e+00 
          0.0000000000e+00 0.0000000000e+00 0.0000000000e+00 
          0.0000000000e+00 0.0000000000e+00 0.0000000000e+00 
          0.0000000000e+00 0.0000000000e+00 0.0000000000e+00 
          0.0000000000e+00 0.0000000000e+00 0.0000000000e+00 
          0.0000000000e+00 0.0000000000e+00 0.0000000000e+00 
          0.0000000000e+00 0.0000000000e+00 0.0000000000e+00 
          0.0000000000e+00 0.0000000000e+00 0.0000000000e+00 
          0.0000000000e+00 0.0000000000e+00 0.0000000000e+00 
          0.0000000000e+00 0.0000000000e+00 0.0000000000e+00 
          0.0000000000e+00 0.0000000000e+00 0.0000000000e+00 
          0.0000000000e+00 0.0000000000e+00 0.0000000000e+00 
          0.0000000000e+00 0.0000000000e+00 0.0000000000e+00 
          0.0000000000e+00 0.0000000000e+00 0.0000000000e+00 
          0.0000000000e+00 0.0000000000e+00 0.0000000000e+00 
          0.0000000000e+00 0.0000000000e+00 0.0000000000e+00 
          0.0000000000e+00 0.0000000000e+00 0.0000000000e+00 
          0.0000000000e+00 0.0000000000e+00 0.0000000000e+00 
          0.0000000000e+00 0.0000000000e+00 0.0000000000e+00 
          0.0000000000e+00 0.0000000000e+00 0.0000000000e+00 
          0.0000000000e+00 0.0000000000e+00 0.0000000000e+00 
          0.0000000000e+00 0.0000000000e+00 0.0000000000e+00 
          0.0000000000e+00 0.0000000000e+00 0.0000000000e+00 
          0.0000000000e+00 0.0000000000e+00 0.0000000000e+00 
          0.0000000000e+00 0.0000000000e+00 0.0000000000e+00 
          0.0000000000e+00 0.0000000000e+00 0.0000000000e+00 
          0.0000000000e+00 0.0000000000e+00 0.0000000000e+00 
          0.0000000000e+00 0.0000000000e+00 0.0000000000e+00 
          0.0000000000e+00 0.0000000000e+00 0.0000000000e+00 
          0.0000000000e+00 0.0000000000e+00 0.0000000000e+00 
          0.0000000000e+00 0.0000000000e+00 0.0000000000e+00 
          0.0000000000e+00 0.0000000000e+00 0.0000000000e+00 
          0.0000000000e+00 0.0000000000e+00 0.0000000000e+00 
          0.0000000000e+00 0.0000000000e+00 0.0000000000e+00 
          0.0000000000e+00 0.0000000000e+00 0.0000000000e+00 
          0.0000000000e+00 0.0000000000e+00 0.0000000000e+00 
          0.0000000000e+00 0.0000000000e+00 0.0000000000e+00 
          0.0000000000e+00 0.0000000000e+00 0.0000000000e+00 
          0.0000000000e+00 0.0000000000e+00 0.0000000000e+00 
          0.0000000000e+00 0.0000000000e+00 0.0000000000e+00 
          0.0000000000e+00 0.0000000000e+00 0.0000000000e+00 
          0.0000000000e+00 0.0000000000e+00 0.0000000000e+00 
          0.0000000000e+00 0.0000000000e+00 0.0000000000e+00 
          0.0000000000e+00 0.0000000000e+00 0.0000000000e+00 
          0.0000000000e+00 0.0000000000e+00 0.0000000000e+00 
          0.0000000000e+00 0.0000000000e+00 0.0000000000e+00 
          0.0000000000e+00 0.0000000000e+00 0.0000000000e+00 
          0.0000000000e+00 0.0000000000e+00 0.0000000000e+00 
          0.0000000000e+00 0.0000000000e+00 0.0000000000e+00 
          0.0000000000e+00 0.0000000000e+00 0.0000000000e+00 
          0.0000000000e+00 0.0000000000e+00 0.0000000000e+00 
          0.0000000000e+00 0.0000000000e+00 0.0000000000e+00 
          0.0000000000e+00 0.0000000000e+00 0.0000000000e+00 
          0.0000000000e+00 0.0000000000e+00 0.0000000000e+00 
          0.0000000000e+00 0.0000000000e+00 0.0000000000e+00 
          0.0000000000e+00 0.0000000000e+00 0.0000000000e+00 
          0.0000000000e+00 0.0000000000e+00 0.0000000000e+00 
          0.0000000000e+00 0.0000000000e+00 0.0000000000e+00 
          0.0000000000e+00 0.0000000000e+00 0.0000000000e+00 
        </DataArray>
      </PointData>
      <CellData>
        <DataArray type="Int64" Name="ElementTag" format="ascii">
          90
          91
          92
          93
          94
          95
          96
          97
          98
          99
          100
          101
          102
          103
          104
          105
          106
          107
          108
          109
          110
          111
          112
          113
          114
          115
          116
          117
          118
          119
          120
          121
          122
          123
          124
          125
          126
          127
          128
        </DataArray>
      </CellData>
    </Piece>
  </UnstructuredGrid>
</VTKFile>
