<?xml version="1.0"?>
<VTKFile type="UnstructuredGrid" version="1.0" byte_order="LittleEndian" compressor="vtkZLibDataCompressor">
  <UnstructuredGrid>
    <Piece NumberOfPoints="80" NumberOfCells="39">
      <Points>
        <DataArray type="Float64" Name="Points" NumberOfComponents="3" format="ascii">
          0.0000000000e+00 0.0000000000e+00 0.0000000000e+00 
          2.5000000000e-01 0.0000000000e+00 0.0000000000e+00 
          2.5000000000e-01 3.0000000000e+01 0.0000000000e+00 
          0.0000000000e+00 3.0000000000e+01 0.0000000000e+00 
          2.5000000000e-01 7.6923100000e-01 0.0000000000e+00 
          2.5000000000e-01 1.5384620000e+00 0.0000000000e+00 
          2.5000000000e-01 2.3076920000e+00 0.0000000000e+00 
          2.5000000000e-01 3.0769230000e+00 0.0000000000e+00 
          2.5000000000e-01 3.8461540000e+00 0.0000000000e+00 
          2.5000000000e-01 4.6153850000e+00 0.0000000000e+00 
          2.5000000000e-01 5.3846150000e+00 0.0000000000e+00 
          2.5000000000e-01 6.1538460000e+00 0.0000000000e+00 
          2.5000000000e-01 6.9230770000e+00 0.0000000000e+00 
          2.5000000000e-01 7.6923080000e+00 0.0000000000e+00 
          2.5000000000e-01 8.4615380000e+00 0.0000000000e+00 
          2.5000000000e-01 9.2307690000e+00 0.0000000000e+00 
          2.5000000000e-01 1.0000000000e+01 0.0000000000e+00 
          2.5000000000e-01 1.0769231000e+01 0.0000000000e+00 
          2.5000000000e-01 1.1538462000e+01 0.0000000000e+00 
          2.5000000000e-01 1.2307692000e+01 0.0000000000e+00 
          2.5000000000e-01 1.3076923000e+01 0.0000000000e+00 
          2.5000000000e-01 1.3846154000e+01 0.0000000000e+00 
          2.5000000000e-01 1.4615385000e+01 0.0000000000e+00 
          2.5000000000e-01 1.5384615000e+01 0.0000000000e+00 
          2.5000000000e-01 1.6153846000e+01 0.0000000000e+00 
          2.5000000000e-01 1.6923077000e+01 0.0000000000e+00 
          2.5000000000e-01 1.7692308000e+01 0.0000000000e+00 
          2.5000000000e-01 1.8461538000e+01 0.0000000000e+00 
          2.5000000000e-01 1.9230769000e+01 0.0000000000e+00 
          2.5000000000e-01 2.0000000000e+01 0.0000000000e+00 
          2.5000000000e-01 2.0769231000e+01 0.0000000000e+00 
          2.5000000000e-01 2.1538462000e+01 0.0000000000e+00 
          2.5000000000e-01 2.2307692000e+01 0.0000000000e+00 
          2.5000000000e-01 2.3076923000e+01 0.0000000000e+00 
          2.5000000000e-01 2.3846154000e+01 0.0000000000e+00 
          2.5000000000e-01 2.4615385000e+01 0.0000000000e+00 
          2.5000000000e-01 2.5384615000e+01 0.0000000000e+00 
          2.5000000000e-01 2.6153846000e+01 0.0000000000e+00 
          2.5000000000e-01 2.6923077000e+01 0.0000000000e+00 
          2.5000000000e-01 2.7692308000e+01 0.0000000000e+00 
          2.5000000000e-01 2.8461538000e+01 0.0000000000e+00 
          2.5000000000e-01 2.9230769000e+01 0.0000000000e+00 
          0.0000000000e+00 7.6923100000e-01 0.0000000000e+00 
          0.0000000000e+00 1.5384620000e+00 0.0000000000e+00 
          0.0000000000e+00 2.3076920000e+00 0.0000000000e+00 
          0.0000000000e+00 3.0769230000e+00 0.0000000000e+00 
          0.0000000000e+00 3.8461540000e+00 0.0000000000e+00 
          0.0000000000e+00 4.6153850000e+00 0.0000000000e+00 
          0.0000000000e+00 5.3846150000e+00 0.0000000000e+00 
          0.0000000000e+00 6.1538460000e+00 0.0000000000e+00 
          0.0000000000e+00 6.9230770000e+00 0.0000000000e+00 
          0.0000000000e+00 7.6923080000e+00 0.0000000000e+00 
          0.0000000000e+00 8.4615380000e+00 0.0000000000e+00 
          0.0000000000e+00 9.2307690000e+00 0.0000000000e+00 
          0.0000000000e+00 1.0000000000e+01 0.0000000000e+00 
          0.0000000000e+00 1.0769231000e+01 0.0000000000e+00 
          0.0000000000e+00 1.1538462000e+01 0.0000000000e+00 
          0.0000000000e+00 1.2307692000e+01 0.0000000000e+00 
          0.0000000000e+00 1.3076923000e+01 0.0000000000e+00 
          0.0000000000e+00 1.3846154000e+01 0.0000000000e+00 
          0.0000000000e+00 1.4615385000e+01 0.0000000000e+00 
          0.0000000000e+00 1.5384615000e+01 0.0000000000e+00 
          0.0000000000e+00 1.6153846000e+01 0.0000000000e+00 
          0.0000000000e+00 1.6923077000e+01 0.0000000000e+00 
          0.0000000000e+00 1.7692308000e+01 0.0000000000e+00 
          0.0000000000e+00 1.8461538000e+01 0.0000000000e+00 
          0.0000000000e+00 1.9230769000e+01 0.0000000000e+00 
          0.0000000000e+00 2.0000000000e+01 0.0000000000e+00 
          0.0000000000e+00 2.0769231000e+01 0.0000000000e+00 
          0.0000000000e+00 2.1538462000e+01 0.0000000000e+00 
          0.0000000000e+00 2.2307692000e+01 0.0000000000e+00 
          0.0000000000e+00 2.3076923000e+01 0.0000000000e+00 
          0.0000000000e+00 2.3846154000e+01 0.0000000000e+00 
          0.0000000000e+00 2.4615385000e+01 0.0000000000e+00 
          0.0000000000e+00 2.5384615000e+01 0.0000000000e+00 
          0.0000000000e+00 2.6153846000e+01 0.0000000000e+00 
          0.0000000000e+00 2.6923077000e+01 0.0000000000e+00 
          0.0000000000e+00 2.7692308000e+01 0.0000000000e+00 
          0.0000000000e+00 2.8461538000e+01 0.0000000000e+00 
          0.0000000000e+00 2.9230769000e+01 0.0000000000e+00 
        </DataArray>
      </Points>
      <Cells>
        <DataArray type="Int64" Name="connectivity" format="ascii">
          0 1 4 42 
          42 4 5 43 
          43 5 6 44 
          44 6 7 45 
          45 7 8 46 
          46 8 9 47 
          47 9 10 48 
          48 10 11 49 
          49 11 12 50 
          50 12 13 51 
          51 13 14 52 
          52 14 15 53 
          53 15 16 54 
          54 16 17 55 
          55 17 18 56 
          56 18 19 57 
          57 19 20 58 
          58 20 21 59 
          59 21 22 60 
          60 22 23 61 
          61 23 24 62 
          62 24 25 63 
          63 25 26 64 
          64 26 27 65 
          65 27 28 66 
          66 28 29 67 
          67 29 30 68 
          68 30 31 69 
          69 31 32 70 
          70 32 33 71 
          71 33 34 72 
          72 34 35 73 
          73 35 36 74 
          74 36 37 75 
          75 37 38 76 
          76 38 39 77 
          77 39 40 78 
          78 40 41 79 
          79 41 2 3 
        </DataArray>
        <DataArray type="Int64" Name="offsets" format="ascii">
          4
          8
          12
          16
          20
          24
          28
          32
          36
          40
          44
          48
          52
          56
          60
          64
          68
          72
          76
          80
          84
          88
          92
          96
          100
          104
          108
          112
          116
          120
          124
          128
          132
          136
          140
          144
          148
          152
          156
        </DataArray>
        <DataArray type="Int64" Name="types" format="ascii">
          9
          9
          9
          9
          9
          9
          9
          9
          9
          9
          9
          9
          9
          9
          9
          9
          9
          9
          9
          9
          9
          9
          9
          9
          9
          9
          9
          9
          9
          9
          9
          9
          9
          9
          9
          9
          9
          9
          9
        </DataArray>
      </Cells>
      <PointData>
        <DataArray type="Int64" Name="NodeTag" format="ascii">
          1
          2
          3
          4
          7
          8
          9
          10
          11
          12
          13
          14
          15
          16
          17
          18
          19
          20
          21
          22
          23
          24
          25
          26
          27
          28
          29
          30
          31
          32
          33
          34
          35
          36
          37
          38
          39
          40
          41
          42
          43
          44
          45
          46
          47
          48
          49
          50
          51
          52
          53
          54
          55
          56
          57
          58
          59
          60
          61
          62
          63
          64
          65
          66
          67
          68
          69
          70
          71
          72
          73
          74
          75
          76
          77
          78
          79
          80
          81
          82
        </DataArray>
        <DataArray type="Float64" Name="Velocity" NumberOfComponents="3" format="ascii">
          -2.6868887078e-19 -1.0353761933e-04 0.0000000000e+00 
          -2.6868887078e-19 -1.0353761933e-04 0.0000000000e+00 
          -5.5636952599e-19 -6.4871297942e-05 0.0000000000e+00 
          -5.5636952599e-19 -6.4871297942e-05 0.0000000000e+00 
          -4.1374992776e-18 -9.5704559812e-05 0.0000000000e+00 
          1.0129485670e-18 -8.9315414191e-05 0.0000000000e+00 
          -6.4637287970e-18 -8.3994878124e-05 0.0000000000e+00 
          4.6120280932e-18 -7.9212783080e-05 0.0000000000e+00 
          -2.2376464850e-18 -7.5853877475e-05 0.0000000000e+00 
          1.2964544166e-18 -7.4378272400e-05 0.0000000000e+00 
          8.1415552153e-18 -7.3277348028e-05 0.0000000000e+00 
          -2.6596043345e-18 -7.1786342662e-05 0.0000000000e+00 
          -1.0648003100e-17 -7.0145897023e-05 0.0000000000e+00 
          6.2089219642e-18 -6.8721786385e-05 0.0000000000e+00 
          3.3565860345e-18 -6.7435531279e-05 0.0000000000e+00 
          -3.7275486344e-19 -6.5827679435e-05 0.0000000000e+00 
          1.9143346499e-19 -6.5067812477e-05 0.0000000000e+00 
          4.1021939249e-18 -6.5423189089e-05 0.0000000000e+00 
          -1.1203217744e-17 -6.5726503360e-05 0.0000000000e+00 
          2.6938469407e-18 -6.6853764928e-05 0.0000000000e+00 
          8.2728440955e-19 -6.7246471885e-05 0.0000000000e+00 
          1.4478296104e-18 -6.6417001505e-05 0.0000000000e+00 
          -1.0014972828e-18 -6.5766366331e-05 0.0000000000e+00 
          -4.9751863252e-18 -6.5405116351e-05 0.0000000000e+00 
          1.1676874962e-17 -6.5476409455e-05 0.0000000000e+00 
          -5.4077566582e-19 -6.5514915407e-05 0.0000000000e+00 
          -2.1679546169e-18 -6.5574118318e-05 0.0000000000e+00 
          6.4819933651e-18 -6.6634028596e-05 0.0000000000e+00 
          -6.4183728764e-18 -6.6977921947e-05 0.0000000000e+00 
          -2.1605098247e-18 -6.6037773223e-05 0.0000000000e+00 
          3.4202778817e-18 -6.5182515836e-05 0.0000000000e+00 
          -3.1819614218e-18 -6.5216543741e-05 0.0000000000e+00 
          2.3018977999e-18 -6.5590686097e-05 0.0000000000e+00 
          -3.3376789291e-18 -6.6364681751e-05 0.0000000000e+00 
          5.3057268643e-18 -6.7164967111e-05 0.0000000000e+00 
          -3.4354374704e-18 -6.5868260770e-05 0.0000000000e+00 
          -4.9480645583e-18 -6.5027352662e-05 0.0000000000e+00 
          5.7765627297e-18 -6.5479265665e-05 0.0000000000e+00 
          3.9608251360e-18 -6.6058470108e-05 0.0000000000e+00 
          -3.4027163561e-18 -6.6390642120e-05 0.0000000000e+00 
          -1.1987068093e-18 -6.6510817062e-05 0.0000000000e+00 
          1.9242498099e-18 -6.5835605172e-05 0.0000000000e+00 
          -4.1374992776e-18 -9.5704559812e-05 0.0000000000e+00 
          1.0129485670e-18 -8.9315414191e-05 0.0000000000e+00 
          -6.4637287970e-18 -8.3994878124e-05 0.0000000000e+00 
          4.6120280932e-18 -7.9212783080e-05 0.0000000000e+00 
          -2.2376464850e-18 -7.5853877475e-05 0.0000000000e+00 
          1.2964544166e-18 -7.4378272400e-05 0.0000000000e+00 
          8.1415552153e-18 -7.3277348028e-05 0.0000000000e+00 
          -2.6596043345e-18 -7.1786342662e-05 0.0000000000e+00 
          -1.0648003100e-17 -7.0145897023e-05 0.0000000000e+00 
          6.2089219642e-18 -6.8721786385e-05 0.0000000000e+00 
          3.3565860345e-18 -6.7435531279e-05 0.0000000000e+00 
          -3.7275486344e-19 -6.5827679435e-05 0.0000000000e+00 
          1.9143346499e-19 -6.5067812477e-05 0.0000000000e+00 
          4.1021939249e-18 -6.5423189089e-05 0.0000000000e+00 
          -1.1203217744e-17 -6.5726503360e-05 0.0000000000e+00 
          2.6938469407e-18 -6.6853764928e-05 0.0000000000e+00 
          8.2728440955e-19 -6.7246471885e-05 0.0000000000e+00 
          1.4478296104e-18 -6.6417001505e-05 0.0000000000e+00 
          -1.0014972828e-18 -6.5766366331e-05 0.0000000000e+00 
          -4.9751863252e-18 -6.5405116351e-05 0.0000000000e+00 
          1.1676874962e-17 -6.5476409455e-05 0.0000000000e+00 
          -5.4077566582e-19 -6.5514915407e-05 0.0000000000e+00 
          -2.1679546169e-18 -6.5574118318e-05 0.0000000000e+00 
          6.4819933651e-18 -6.6634028596e-05 0.0000000000e+00 
          -6.4183728764e-18 -6.6977921947e-05 0.0000000000e+00 
          -2.1605098247e-18 -6.6037773223e-05 0.0000000000e+00 
          3.4202778817e-18 -6.5182515836e-05 0.0000000000e+00 
          -3.1819614218e-18 -6.5216543741e-05 0.0000000000e+00 
          2.3018977999e-18 -6.5590686097e-05 0.0000000000e+00 
          -3.3376789291e-18 -6.6364681751e-05 0.0000000000e+00 
          5.3057268643e-18 -6.7164967111e-05 0.0000000000e+00 
          -3.4354374704e-18 -6.5868260770e-05 0.0000000000e+00 
          -4.9480645583e-18 -6.5027352662e-05 0.0000000000e+00 
          5.7765627297e-18 -6.5479265665e-05 0.0000000000e+00 
          3.9608251360e-18 -6.6058470108e-05 0.0000000000e+00 
          -3.4027163561e-18 -6.6390642120e-05 0.0000000000e+00 
          -1.1987068093e-18 -6.6510817062e-05 0.0000000000e+00 
          1.9242498099e-18 -6.5835605172e-05 0.0000000000e+00 
        </DataArray>
        <DataArray type="Float64" Name="Displacement" NumberOfComponents="3" format="ascii">
          5.5954005229e-21 -4.3440506104e-05 0.0000000000e+00 
          5.5954005229e-21 -4.3440506104e-05 0.0000000000e+00 
          1.1322924019e-21 -7.6086164873e-05 0.0000000000e+00 
          1.1322924019e-21 -7.6086164873e-05 0.0000000000e+00 
          -8.8686444540e-21 -4.5031962720e-05 0.0000000000e+00 
          -1.9253990421e-20 -4.6591403104e-05 0.0000000000e+00 
          -1.2238070578e-20 -4.8117220878e-05 0.0000000000e+00 
          -2.4421730567e-20 -4.9610308042e-05 0.0000000000e+00 
          -2.2269611659e-20 -5.1070956943e-05 0.0000000000e+00 
          -8.6777120477e-22 -5.2499241194e-05 0.0000000000e+00 
          1.3688472076e-20 -5.3894256036e-05 0.0000000000e+00 
          -2.7308652309e-21 -5.5251311764e-05 0.0000000000e+00 
          3.5329411143e-21 -5.6569799838e-05 0.0000000000e+00 
          1.7783266746e-20 -5.7848503520e-05 0.0000000000e+00 
          8.6851159813e-21 -5.9082940372e-05 0.0000000000e+00 
          4.5236977227e-21 -6.0272116248e-05 0.0000000000e+00 
          9.1272886412e-21 -6.1417468791e-05 0.0000000000e+00 
          -7.1592678906e-21 -6.2521200296e-05 0.0000000000e+00 
          1.0967738852e-20 -6.3583520791e-05 0.0000000000e+00 
          -1.3460558304e-20 -6.4602780073e-05 0.0000000000e+00 
          9.2888157299e-21 -6.5580442109e-05 0.0000000000e+00 
          1.6588298472e-20 -6.6516466964e-05 0.0000000000e+00 
          -3.1085537593e-21 -6.7407721895e-05 0.0000000000e+00 
          6.5255844162e-21 -6.8252669944e-05 0.0000000000e+00 
          1.8593331511e-20 -6.9053324814e-05 0.0000000000e+00 
          2.9967295538e-20 -6.9811292095e-05 0.0000000000e+00 
          8.4029137273e-21 -7.0526895595e-05 0.0000000000e+00 
          5.9888711572e-21 -7.1201760985e-05 0.0000000000e+00 
          8.4681179054e-21 -7.1832763538e-05 0.0000000000e+00 
          1.6449565727e-20 -7.2418400772e-05 0.0000000000e+00 
          7.4997539083e-21 -7.2960158222e-05 0.0000000000e+00 
          -9.5329524367e-21 -7.3458621616e-05 0.0000000000e+00 
          3.1230312445e-21 -7.3913890566e-05 0.0000000000e+00 
          1.6879566966e-20 -7.4325926571e-05 0.0000000000e+00 
          -6.9106713096e-22 -7.4695265982e-05 0.0000000000e+00 
          6.3185196705e-22 -7.5021792960e-05 0.0000000000e+00 
          7.2665336474e-21 -7.5304510699e-05 0.0000000000e+00 
          1.5145751241e-20 -7.5542687621e-05 0.0000000000e+00 
          1.4023138198e-20 -7.5736859308e-05 0.0000000000e+00 
          6.3969438440e-21 -7.5888069961e-05 0.0000000000e+00 
          -8.4403300712e-21 -7.5996883783e-05 0.0000000000e+00 
          -6.1837382956e-21 -7.6063420056e-05 0.0000000000e+00 
          -8.8686444540e-21 -4.5031962720e-05 0.0000000000e+00 
          -1.9253990421e-20 -4.6591403104e-05 0.0000000000e+00 
          -1.2238070578e-20 -4.8117220878e-05 0.0000000000e+00 
          -2.4421730567e-20 -4.9610308042e-05 0.0000000000e+00 
          -2.2269611659e-20 -5.1070956943e-05 0.0000000000e+00 
          -8.6777120477e-22 -5.2499241194e-05 0.0000000000e+00 
          1.3688472076e-20 -5.3894256036e-05 0.0000000000e+00 
          -2.7308652309e-21 -5.5251311764e-05 0.0000000000e+00 
          3.5329411143e-21 -5.6569799838e-05 0.0000000000e+00 
          1.7783266746e-20 -5.7848503520e-05 0.0000000000e+00 
          8.6851159813e-21 -5.9082940372e-05 0.0000000000e+00 
          4.5236977227e-21 -6.0272116248e-05 0.0000000000e+00 
          9.1272886412e-21 -6.1417468791e-05 0.0000000000e+00 
          -7.1592678906e-21 -6.2521200296e-05 0.0000000000e+00 
          1.0967738852e-20 -6.3583520791e-05 0.0000000000e+00 
          -1.3460558304e-20 -6.4602780073e-05 0.0000000000e+00 
          9.2888157299e-21 -6.5580442109e-05 0.0000000000e+00 
          1.6588298472e-20 -6.6516466964e-05 0.0000000000e+00 
          -3.1085537593e-21 -6.7407721895e-05 0.0000000000e+00 
          6.5255844162e-21 -6.8252669944e-05 0.0000000000e+00 
          1.8593331511e-20 -6.9053324814e-05 0.0000000000e+00 
          2.9967295538e-20 -6.9811292095e-05 0.0000000000e+00 
          8.4029137273e-21 -7.0526895595e-05 0.0000000000e+00 
          5.9888711572e-21 -7.1201760985e-05 0.0000000000e+00 
          8.4681179054e-21 -7.1832763538e-05 0.0000000000e+00 
          1.6449565727e-20 -7.2418400772e-05 0.0000000000e+00 
          7.4997539083e-21 -7.2960158222e-05 0.0000000000e+00 
          -9.5329524367e-21 -7.3458621616e-05 0.0000000000e+00 
          3.1230312445e-21 -7.3913890566e-05 0.0000000000e+00 
          1.6879566966e-20 -7.4325926571e-05 0.0000000000e+00 
          -6.9106713096e-22 -7.4695265982e-05 0.0000000000e+00 
          6.3185196705e-22 -7.5021792960e-05 0.0000000000e+00 
          7.2665336474e-21 -7.5304510699e-05 0.0000000000e+00 
          1.5145751241e-20 -7.5542687621e-05 0.0000000000e+00 
          1.4023138198e-20 -7.5736859308e-05 0.0000000000e+00 
          6.3969438440e-21 -7.5888069961e-05 0.0000000000e+00 
          -8.4403300712e-21 -7.5996883783e-05 0.0000000000e+00 
          -6.1837382956e-21 -7.6063420056e-05 0.0000000000e+00 
        </DataArray>
        <DataArray type="Float64" Name="Acceleration" NumberOfComponents="3" format="ascii">
          -2.5804806884e-16 5.0744973589e-04 0.0000000000e+00 
          -2.5804806884e-16 5.0744973589e-04 0.0000000000e+00 
          -5.8570517117e-16 2.6099473738e-03 0.0000000000e+00 
          -5.8570517117e-16 2.6099473738e-03 0.0000000000e+00 
          -1.0876427289e-15 1.8198714519e-04 0.0000000000e+00 
          2.8784390229e-15 4.7110906018e-04 0.0000000000e+00 
          -2.5820477113e-15 3.1108224168e-04 0.0000000000e+00 
          6.4365733632e-16 2.5803872710e-04 0.0000000000e+00 
          3.0861477557e-15 2.4477318336e-04 0.0000000000e+00 
          -1.5635491694e-15 4.0749174436e-04 0.0000000000e+00 
          -2.0085051809e-15 1.2532491682e-03 0.0000000000e+00 
          2.2745659065e-15 1.3625792451e-03 0.0000000000e+00 
          -1.0396670236e-15 1.5818401083e-03 0.0000000000e+00 
          -1.0806614804e-15 2.3893090538e-03 0.0000000000e+00 
          9.1427407295e-16 2.5690369948e-03 0.0000000000e+00 
          4.4636849627e-16 2.3096732355e-03 0.0000000000e+00 
          -5.9556821457e-16 1.9128108722e-03 0.0000000000e+00 
          1.4954673358e-15 1.8749633865e-03 0.0000000000e+00 
          -3.8850595596e-15 2.1721025030e-03 0.0000000000e+00 
          4.7889642419e-15 1.9087673226e-03 0.0000000000e+00 
          -3.5791923284e-16 1.9157199874e-03 0.0000000000e+00 
          -4.1256571637e-15 2.4802526469e-03 0.0000000000e+00 
          2.5956697941e-15 2.7570263021e-03 0.0000000000e+00 
          9.0776886960e-16 2.3945444621e-03 0.0000000000e+00 
          1.5041337417e-17 2.1050079242e-03 0.0000000000e+00 
          -2.8971139041e-15 2.0466561243e-03 0.0000000000e+00 
          2.4727516237e-15 1.7535504829e-03 0.0000000000e+00 
          -1.7810644577e-16 2.3169555652e-03 0.0000000000e+00 
          -6.7241507929e-16 2.5875450781e-03 0.0000000000e+00 
          -1.3387356321e-15 2.3198461407e-03 0.0000000000e+00 
          7.9148724644e-16 2.2142954826e-03 0.0000000000e+00 
          1.1576490187e-15 2.1962433382e-03 0.0000000000e+00 
          5.1588323814e-16 2.2033948307e-03 0.0000000000e+00 
          -2.2696195876e-15 2.1066304320e-03 0.0000000000e+00 
          4.1416799970e-16 2.1275052962e-03 0.0000000000e+00 
          1.2622596970e-15 2.3070723691e-03 0.0000000000e+00 
          -1.9676210241e-17 2.4390380993e-03 0.0000000000e+00 
          -8.0261119126e-17 2.3424527291e-03 0.0000000000e+00 
          -5.5259659754e-16 2.1542836871e-03 0.0000000000e+00 
          -5.9618885794e-17 2.0525916037e-03 0.0000000000e+00 
          5.4492409132e-16 2.0311473396e-03 0.0000000000e+00 
          2.1243793409e-17 2.3039288573e-03 0.0000000000e+00 
          -1.0876427289e-15 1.8198714519e-04 0.0000000000e+00 
          2.8784390229e-15 4.7110906018e-04 0.0000000000e+00 
          -2.5820477113e-15 3.1108224168e-04 0.0000000000e+00 
          6.4365733632e-16 2.5803872710e-04 0.0000000000e+00 
          3.0861477557e-15 2.4477318336e-04 0.0000000000e+00 
          -1.5635491694e-15 4.0749174436e-04 0.0000000000e+00 
          -2.0085051809e-15 1.2532491682e-03 0.0000000000e+00 
          2.2745659065e-15 1.3625792451e-03 0.0000000000e+00 
          -1.0396670236e-15 1.5818401083e-03 0.0000000000e+00 
          -1.0806614804e-15 2.3893090538e-03 0.0000000000e+00 
          9.1427407295e-16 2.5690369948e-03 0.0000000000e+00 
          4.4636849627e-16 2.3096732355e-03 0.0000000000e+00 
          -5.9556821457e-16 1.9128108722e-03 0.0000000000e+00 
          1.4954673358e-15 1.8749633865e-03 0.0000000000e+00 
          -3.8850595596e-15 2.1721025030e-03 0.0000000000e+00 
          4.7889642419e-15 1.9087673226e-03 0.0000000000e+00 
          -3.5791923284e-16 1.9157199874e-03 0.0000000000e+00 
          -4.1256571637e-15 2.4802526469e-03 0.0000000000e+00 
          2.5956697941e-15 2.7570263021e-03 0.0000000000e+00 
          9.0776886960e-16 2.3945444621e-03 0.0000000000e+00 
          1.5041337417e-17 2.1050079242e-03 0.0000000000e+00 
          -2.8971139041e-15 2.0466561243e-03 0.0000000000e+00 
          2.4727516237e-15 1.7535504829e-03 0.0000000000e+00 
          -1.7810644577e-16 2.3169555652e-03 0.0000000000e+00 
          -6.7241507929e-16 2.5875450781e-03 0.0000000000e+00 
          -1.3387356321e-15 2.3198461407e-03 0.0000000000e+00 
          7.9148724644e-16 2.2142954826e-03 0.0000000000e+00 
          1.1576490187e-15 2.1962433382e-03 0.0000000000e+00 
          5.1588323814e-16 2.2033948307e-03 0.0000000000e+00 
          -2.2696195876e-15 2.1066304320e-03 0.0000000000e+00 
          4.1416799970e-16 2.1275052962e-03 0.0000000000e+00 
          1.2622596970e-15 2.3070723691e-03 0.0000000000e+00 
          -1.9676210241e-17 2.4390380993e-03 0.0000000000e+00 
          -8.0261119126e-17 2.3424527291e-03 0.0000000000e+00 
          -5.5259659754e-16 2.1542836871e-03 0.0000000000e+00 
          -5.9618885794e-17 2.0525916037e-03 0.0000000000e+00 
          5.4492409132e-16 2.0311473396e-03 0.0000000000e+00 
          2.1243793409e-17 2.3039288573e-03 0.0000000000e+00 
        </DataArray>
        <DataArray type="Float64" Name="Reaction" NumberOfComponents="3" format="ascii">
          0.0000000000e+00 0.0000000000e+00 0.0000000000e+00 
          0.0000000000e+00 0.0000000000e+00 0.0000000000e+00 
          0.0000000000e+00 0.0000000000e+00 0.0000000000e+00 
          0.0000000000e+00 0.0000000000e+00 0.0000000000e+00 
          0.0000000000e+00 0.0000000000e+00 0.0000000000e+00 
          0.0000000000e+00 0.0000000000e+00 0.0000000000e+00 
          0.0000000000e+00 0.0000000000e+00 0.0000000000e+00 
          0.0000000000e+00 0.0000000000e+00 0.0000000000e+00 
          0.0000000000e+00 0.0000000000e+00 0.0000000000e+00 
          0.0000000000e+00 0.0000000000e+00 0.0000000000e+00 
          0.0000000000e+00 0.0000000000e+00 0.0000000000e+00 
          0.0000000000e+00 0.0000000000e+00 0.0000000000e+00 
          0.0000000000e+00 0.0000000000e+00 0.0000000000e+00 
          0.0000000000e+00 0.0000000000e+00 0.0000000000e+00 
          0.0000000000e+00 0.0000000000e+00 0.0000000000e+00 
          0.0000000000e+00 0.0000000000e+00 0.0000000000e+00 
          0.0000000000e+00 0.0000000000e+00 0.0000000000e+00 
          0.0000000000e+00 0.0000000000e+00 0.0000000000e+00 
          0.0000000000e+00 0.0000000000e+00 0.0000000000e+00 
          0.0000000000e+00 0.0000000000e+00 0.0000000000e+00 
          0.0000000000e+00 0.0000000000e+00 0.0000000000e+00 
          0.0000000000e+00 0.0000000000e+00 0.0000000000e+00 
          0.0000000000e+00 0.0000000000e+00 0.0000000000e+00 
          0.0000000000e+00 0.0000000000e+00 0.0000000000e+00 
          0.0000000000e+00 0.0000000000e+00 0.0000000000e+00 
          0.0000000000e+00 0.0000000000e+00 0.0000000000e+00 
          0.0000000000e+00 0.0000000000e+00 0.0000000000e+00 
          0.0000000000e+00 0.0000000000e+00 0.0000000000e+00 
          0.0000000000e+00 0.0000000000e+00 0.0000000000e+00 
          0.0000000000e+00 0.0000000000e+00 0.0000000000e+00 
          0.0000000000e+00 0.0000000000e+00 0.0000000000e+00 
          0.0000000000e+00 0.0000000000e+00 0.0000000000e+00 
          0.0000000000e+00 0.0000000000e+00 0.0000000000e+00 
          0.0000000000e+00 0.0000000000e+00 0.0000000000e+00 
          0.0000000000e+00 0.0000000000e+00 0.0000000000e+00 
          0.0000000000e+00 0.0000000000e+00 0.0000000000e+00 
          0.0000000000e+00 0.0000000000e+00 0.0000000000e+00 
          0.0000000000e+00 0.0000000000e+00 0.0000000000e+00 
          0.0000000000e+00 0.0000000000e+00 0.0000000000e+00 
          0.0000000000e+00 0.0000000000e+00 0.0000000000e+00 
          0.0000000000e+00 0.0000000000e+00 0.0000000000e+00 
          0.0000000000e+00 0.0000000000e+00 0.0000000000e+00 
          0.0000000000e+00 0.0000000000e+00 0.0000000000e+00 
          0.0000000000e+00 0.0000000000e+00 0.0000000000e+00 
          0.0000000000e+00 0.0000000000e+00 0.0000000000e+00 
          0.0000000000e+00 0.0000000000e+00 0.0000000000e+00 
          0.0000000000e+00 0.0000000000e+00 0.0000000000e+00 
          0.0000000000e+00 0.0000000000e+00 0.0000000000e+00 
          0.0000000000e+00 0.0000000000e+00 0.0000000000e+00 
          0.0000000000e+00 0.0000000000e+00 0.0000000000e+00 
          0.0000000000e+00 0.0000000000e+00 0.0000000000e+00 
          0.0000000000e+00 0.0000000000e+00 0.0000000000e+00 
          0.0000000000e+00 0.0000000000e+00 0.0000000000e+00 
          0.0000000000e+00 0.0000000000e+00 0.0000000000e+00 
          0.0000000000e+00 0.0000000000e+00 0.0000000000e+00 
          0.0000000000e+00 0.0000000000e+00 0.0000000000e+00 
          0.0000000000e+00 0.0000000000e+00 0.0000000000e+00 
          0.0000000000e+00 0.0000000000e+00 0.0000000000e+00 
          0.0000000000e+00 0.0000000000e+00 0.0000000000e+00 
          0.0000000000e+00 0.0000000000e+00 0.0000000000e+00 
          0.0000000000e+00 0.0000000000e+00 0.0000000000e+00 
          0.0000000000e+00 0.0000000000e+00 0.0000000000e+00 
          0.0000000000e+00 0.0000000000e+00 0.0000000000e+00 
          0.0000000000e+00 0.0000000000e+00 0.0000000000e+00 
          0.0000000000e+00 0.0000000000e+00 0.0000000000e+00 
          0.0000000000e+00 0.0000000000e+00 0.0000000000e+00 
          0.0000000000e+00 0.0000000000e+00 0.0000000000e+00 
          0.0000000000e+00 0.0000000000e+00 0.0000000000e+00 
          0.0000000000e+00 0.0000000000e+00 0.0000000000e+00 
          0.0000000000e+00 0.0000000000e+00 0.0000000000e+00 
          0.0000000000e+00 0.0000000000e+00 0.0000000000e+00 
          0.0000000000e+00 0.0000000000e+00 0.0000000000e+00 
          0.0000000000e+00 0.0000000000e+00 0.0000000000e+00 
          0.0000000000e+00 0.0000000000e+00 0.0000000000e+00 
          0.0000000000e+00 0.0000000000e+00 0.0000000000e+00 
          0.0000000000e+00 0.0000000000e+00 0.0000000000e+00 
          0.0000000000e+00 0.0000000000e+00 0.0000000000e+00 
          0.0000000000e+00 0.0000000000e+00 0.0000000000e+00 
          0.0000000000e+00 0.0000000000e+00 0.0000000000e+00 
          0.0000000000e+00 0.0000000000e+00 0.0000000000e+00 
        </DataArray>
      </PointData>
      <CellData>
        <DataArray type="Int64" Name="ElementTag" format="ascii">
          90
          91
          92
          93
          94
          95
          96
          97
          98
          99
          100
          101
          102
          103
          104
          105
          106
          107
          108
          109
          110
          111
          112
          113
          114
          115
          116
          117
          118
          119
          120
          121
          122
          123
          124
          125
          126
          127
          128
        </DataArray>
      </CellData>
    </Piece>
  </UnstructuredGrid>
</VTKFile>
