<?xml version="1.0"?>
<VTKFile type="UnstructuredGrid" version="1.0" byte_order="LittleEndian" compressor="vtkZLibDataCompressor">
  <UnstructuredGrid>
    <Piece NumberOfPoints="80" NumberOfCells="39">
      <Points>
        <DataArray type="Float64" Name="Points" NumberOfComponents="3" format="ascii">
          0.0000000000e+00 0.0000000000e+00 0.0000000000e+00 
          2.5000000000e-01 0.0000000000e+00 0.0000000000e+00 
          2.5000000000e-01 3.0000000000e+01 0.0000000000e+00 
          0.0000000000e+00 3.0000000000e+01 0.0000000000e+00 
          2.5000000000e-01 7.6923100000e-01 0.0000000000e+00 
          2.5000000000e-01 1.5384620000e+00 0.0000000000e+00 
          2.5000000000e-01 2.3076920000e+00 0.0000000000e+00 
          2.5000000000e-01 3.0769230000e+00 0.0000000000e+00 
          2.5000000000e-01 3.8461540000e+00 0.0000000000e+00 
          2.5000000000e-01 4.6153850000e+00 0.0000000000e+00 
          2.5000000000e-01 5.3846150000e+00 0.0000000000e+00 
          2.5000000000e-01 6.1538460000e+00 0.0000000000e+00 
          2.5000000000e-01 6.9230770000e+00 0.0000000000e+00 
          2.5000000000e-01 7.6923080000e+00 0.0000000000e+00 
          2.5000000000e-01 8.4615380000e+00 0.0000000000e+00 
          2.5000000000e-01 9.2307690000e+00 0.0000000000e+00 
          2.5000000000e-01 1.0000000000e+01 0.0000000000e+00 
          2.5000000000e-01 1.0769231000e+01 0.0000000000e+00 
          2.5000000000e-01 1.1538462000e+01 0.0000000000e+00 
          2.5000000000e-01 1.2307692000e+01 0.0000000000e+00 
          2.5000000000e-01 1.3076923000e+01 0.0000000000e+00 
          2.5000000000e-01 1.3846154000e+01 0.0000000000e+00 
          2.5000000000e-01 1.4615385000e+01 0.0000000000e+00 
          2.5000000000e-01 1.5384615000e+01 0.0000000000e+00 
          2.5000000000e-01 1.6153846000e+01 0.0000000000e+00 
          2.5000000000e-01 1.6923077000e+01 0.0000000000e+00 
          2.5000000000e-01 1.7692308000e+01 0.0000000000e+00 
          2.5000000000e-01 1.8461538000e+01 0.0000000000e+00 
          2.5000000000e-01 1.9230769000e+01 0.0000000000e+00 
          2.5000000000e-01 2.0000000000e+01 0.0000000000e+00 
          2.5000000000e-01 2.0769231000e+01 0.0000000000e+00 
          2.5000000000e-01 2.1538462000e+01 0.0000000000e+00 
          2.5000000000e-01 2.2307692000e+01 0.0000000000e+00 
          2.5000000000e-01 2.3076923000e+01 0.0000000000e+00 
          2.5000000000e-01 2.3846154000e+01 0.0000000000e+00 
          2.5000000000e-01 2.4615385000e+01 0.0000000000e+00 
          2.5000000000e-01 2.5384615000e+01 0.0000000000e+00 
          2.5000000000e-01 2.6153846000e+01 0.0000000000e+00 
          2.5000000000e-01 2.6923077000e+01 0.0000000000e+00 
          2.5000000000e-01 2.7692308000e+01 0.0000000000e+00 
          2.5000000000e-01 2.8461538000e+01 0.0000000000e+00 
          2.5000000000e-01 2.9230769000e+01 0.0000000000e+00 
          0.0000000000e+00 7.6923100000e-01 0.0000000000e+00 
          0.0000000000e+00 1.5384620000e+00 0.0000000000e+00 
          0.0000000000e+00 2.3076920000e+00 0.0000000000e+00 
          0.0000000000e+00 3.0769230000e+00 0.0000000000e+00 
          0.0000000000e+00 3.8461540000e+00 0.0000000000e+00 
          0.0000000000e+00 4.6153850000e+00 0.0000000000e+00 
          0.0000000000e+00 5.3846150000e+00 0.0000000000e+00 
          0.0000000000e+00 6.1538460000e+00 0.0000000000e+00 
          0.0000000000e+00 6.9230770000e+00 0.0000000000e+00 
          0.0000000000e+00 7.6923080000e+00 0.0000000000e+00 
          0.0000000000e+00 8.4615380000e+00 0.0000000000e+00 
          0.0000000000e+00 9.2307690000e+00 0.0000000000e+00 
          0.0000000000e+00 1.0000000000e+01 0.0000000000e+00 
          0.0000000000e+00 1.0769231000e+01 0.0000000000e+00 
          0.0000000000e+00 1.1538462000e+01 0.0000000000e+00 
          0.0000000000e+00 1.2307692000e+01 0.0000000000e+00 
          0.0000000000e+00 1.3076923000e+01 0.0000000000e+00 
          0.0000000000e+00 1.3846154000e+01 0.0000000000e+00 
          0.0000000000e+00 1.4615385000e+01 0.0000000000e+00 
          0.0000000000e+00 1.5384615000e+01 0.0000000000e+00 
          0.0000000000e+00 1.6153846000e+01 0.0000000000e+00 
          0.0000000000e+00 1.6923077000e+01 0.0000000000e+00 
          0.0000000000e+00 1.7692308000e+01 0.0000000000e+00 
          0.0000000000e+00 1.8461538000e+01 0.0000000000e+00 
          0.0000000000e+00 1.9230769000e+01 0.0000000000e+00 
          0.0000000000e+00 2.0000000000e+01 0.0000000000e+00 
          0.0000000000e+00 2.0769231000e+01 0.0000000000e+00 
          0.0000000000e+00 2.1538462000e+01 0.0000000000e+00 
          0.0000000000e+00 2.2307692000e+01 0.0000000000e+00 
          0.0000000000e+00 2.3076923000e+01 0.0000000000e+00 
          0.0000000000e+00 2.3846154000e+01 0.0000000000e+00 
          0.0000000000e+00 2.4615385000e+01 0.0000000000e+00 
          0.0000000000e+00 2.5384615000e+01 0.0000000000e+00 
          0.0000000000e+00 2.6153846000e+01 0.0000000000e+00 
          0.0000000000e+00 2.6923077000e+01 0.0000000000e+00 
          0.0000000000e+00 2.7692308000e+01 0.0000000000e+00 
          0.0000000000e+00 2.8461538000e+01 0.0000000000e+00 
          0.0000000000e+00 2.9230769000e+01 0.0000000000e+00 
        </DataArray>
      </Points>
      <Cells>
        <DataArray type="Int64" Name="connectivity" format="ascii">
          0 1 4 42 
          42 4 5 43 
          43 5 6 44 
          44 6 7 45 
          45 7 8 46 
          46 8 9 47 
          47 9 10 48 
          48 10 11 49 
          49 11 12 50 
          50 12 13 51 
          51 13 14 52 
          52 14 15 53 
          53 15 16 54 
          54 16 17 55 
          55 17 18 56 
          56 18 19 57 
          57 19 20 58 
          58 20 21 59 
          59 21 22 60 
          60 22 23 61 
          61 23 24 62 
          62 24 25 63 
          63 25 26 64 
          64 26 27 65 
          65 27 28 66 
          66 28 29 67 
          67 29 30 68 
          68 30 31 69 
          69 31 32 70 
          70 32 33 71 
          71 33 34 72 
          72 34 35 73 
          73 35 36 74 
          74 36 37 75 
          75 37 38 76 
          76 38 39 77 
          77 39 40 78 
          78 40 41 79 
          79 41 2 3 
        </DataArray>
        <DataArray type="Int64" Name="offsets" format="ascii">
          4
          8
          12
          16
          20
          24
          28
          32
          36
          40
          44
          48
          52
          56
          60
          64
          68
          72
          76
          80
          84
          88
          92
          96
          100
          104
          108
          112
          116
          120
          124
          128
          132
          136
          140
          144
          148
          152
          156
        </DataArray>
        <DataArray type="Int64" Name="types" format="ascii">
          9
          9
          9
          9
          9
          9
          9
          9
          9
          9
          9
          9
          9
          9
          9
          9
          9
          9
          9
          9
          9
          9
          9
          9
          9
          9
          9
          9
          9
          9
          9
          9
          9
          9
          9
          9
          9
          9
          9
        </DataArray>
      </Cells>
      <PointData>
        <DataArray type="Int64" Name="NodeTag" format="ascii">
          1
          2
          3
          4
          7
          8
          9
          10
          11
          12
          13
          14
          15
          16
          17
          18
          19
          20
          21
          22
          23
          24
          25
          26
          27
          28
          29
          30
          31
          32
          33
          34
          35
          36
          37
          38
          39
          40
          41
          42
          43
          44
          45
          46
          47
          48
          49
          50
          51
          52
          53
          54
          55
          56
          57
          58
          59
          60
          61
          62
          63
          64
          65
          66
          67
          68
          69
          70
          71
          72
          73
          74
          75
          76
          77
          78
          79
          80
          81
          82
        </DataArray>
        <DataArray type="Float64" Name="Velocity" NumberOfComponents="3" format="ascii">
          8.3709766175e-07 -7.7844086281e-05 0.0000000000e+00 
          8.3709766175e-07 -7.7844086281e-05 0.0000000000e+00 
          -5.2894928919e-06 -7.7828550844e-05 0.0000000000e+00 
          -5.2894928919e-06 -7.7828550844e-05 0.0000000000e+00 
          5.9897896453e-07 -7.7862997724e-05 0.0000000000e+00 
          3.6077496532e-07 -7.7815564021e-05 0.0000000000e+00 
          1.2230867335e-07 -7.7871017399e-05 0.0000000000e+00 
          -1.1646894551e-07 -7.7831312628e-05 0.0000000000e+00 
          -3.5257702285e-07 -7.7839986973e-05 0.0000000000e+00 
          -5.9032417579e-07 -7.7863977867e-05 0.0000000000e+00 
          -8.2339260874e-07 -7.7816327966e-05 0.0000000000e+00 
          -1.0568715393e-06 -7.7871678963e-05 0.0000000000e+00 
          -1.2859488153e-06 -7.7829265566e-05 0.0000000000e+00 
          -1.5144403431e-06 -7.7840185562e-05 0.0000000000e+00 
          -1.7363937208e-06 -7.7866196817e-05 0.0000000000e+00 
          -1.9583525458e-06 -7.7815894250e-05 0.0000000000e+00 
          -2.1736098662e-06 -7.7867365556e-05 0.0000000000e+00 
          -2.3846469065e-06 -7.7834319214e-05 0.0000000000e+00 
          -2.5925828264e-06 -7.7841014530e-05 0.0000000000e+00 
          -2.7940182884e-06 -7.7858383017e-05 0.0000000000e+00 
          -2.9876627612e-06 -7.7825376476e-05 0.0000000000e+00 
          -3.1818487251e-06 -7.7861233536e-05 0.0000000000e+00 
          -3.3614714128e-06 -7.7836074255e-05 0.0000000000e+00 
          -3.5399702307e-06 -7.7844754260e-05 0.0000000000e+00 
          -3.7125816365e-06 -7.7843081626e-05 0.0000000000e+00 
          -3.8690493755e-06 -7.7858795523e-05 0.0000000000e+00 
          -4.0323705345e-06 -7.7811784465e-05 0.0000000000e+00 
          -4.1725992515e-06 -7.7889117854e-05 0.0000000000e+00 
          -4.3153461220e-06 -7.7800930745e-05 0.0000000000e+00 
          -4.4471638803e-06 -7.7875250830e-05 0.0000000000e+00 
          -4.5640631249e-06 -7.7829753145e-05 0.0000000000e+00 
          -4.6845902072e-06 -7.7847638983e-05 0.0000000000e+00 
          -4.7820295473e-06 -7.7844926103e-05 0.0000000000e+00 
          -4.8803703193e-06 -7.7843162371e-05 0.0000000000e+00 
          -4.9662895145e-06 -7.7851819461e-05 0.0000000000e+00 
          -5.0378748890e-06 -7.7822015184e-05 0.0000000000e+00 
          -5.1092368858e-06 -7.7884156872e-05 0.0000000000e+00 
          -5.1607501118e-06 -7.7796457388e-05 0.0000000000e+00 
          -5.2084919117e-06 -7.7885038453e-05 0.0000000000e+00 
          -5.2450120527e-06 -7.7822548214e-05 0.0000000000e+00 
          -5.2686752618e-06 -7.7846242802e-05 0.0000000000e+00 
          -5.2861175689e-06 -7.7855879751e-05 0.0000000000e+00 
          5.9897896453e-07 -7.7862997724e-05 0.0000000000e+00 
          3.6077496532e-07 -7.7815564021e-05 0.0000000000e+00 
          1.2230867335e-07 -7.7871017399e-05 0.0000000000e+00 
          -1.1646894551e-07 -7.7831312628e-05 0.0000000000e+00 
          -3.5257702285e-07 -7.7839986973e-05 0.0000000000e+00 
          -5.9032417579e-07 -7.7863977867e-05 0.0000000000e+00 
          -8.2339260874e-07 -7.7816327966e-05 0.0000000000e+00 
          -1.0568715393e-06 -7.7871678963e-05 0.0000000000e+00 
          -1.2859488153e-06 -7.7829265566e-05 0.0000000000e+00 
          -1.5144403431e-06 -7.7840185562e-05 0.0000000000e+00 
          -1.7363937208e-06 -7.7866196817e-05 0.0000000000e+00 
          -1.9583525458e-06 -7.7815894250e-05 0.0000000000e+00 
          -2.1736098662e-06 -7.7867365556e-05 0.0000000000e+00 
          -2.3846469065e-06 -7.7834319214e-05 0.0000000000e+00 
          -2.5925828264e-06 -7.7841014530e-05 0.0000000000e+00 
          -2.7940182884e-06 -7.7858383017e-05 0.0000000000e+00 
          -2.9876627612e-06 -7.7825376476e-05 0.0000000000e+00 
          -3.1818487251e-06 -7.7861233536e-05 0.0000000000e+00 
          -3.3614714128e-06 -7.7836074255e-05 0.0000000000e+00 
          -3.5399702307e-06 -7.7844754260e-05 0.0000000000e+00 
          -3.7125816365e-06 -7.7843081626e-05 0.0000000000e+00 
          -3.8690493755e-06 -7.7858795523e-05 0.0000000000e+00 
          -4.0323705345e-06 -7.7811784465e-05 0.0000000000e+00 
          -4.1725992515e-06 -7.7889117854e-05 0.0000000000e+00 
          -4.3153461220e-06 -7.7800930745e-05 0.0000000000e+00 
          -4.4471638803e-06 -7.7875250830e-05 0.0000000000e+00 
          -4.5640631249e-06 -7.7829753145e-05 0.0000000000e+00 
          -4.6845902072e-06 -7.7847638983e-05 0.0000000000e+00 
          -4.7820295473e-06 -7.7844926103e-05 0.0000000000e+00 
          -4.8803703193e-06 -7.7843162371e-05 0.0000000000e+00 
          -4.9662895145e-06 -7.7851819461e-05 0.0000000000e+00 
          -5.0378748890e-06 -7.7822015184e-05 0.0000000000e+00 
          -5.1092368858e-06 -7.7884156872e-05 0.0000000000e+00 
          -5.1607501118e-06 -7.7796457388e-05 0.0000000000e+00 
          -5.2084919117e-06 -7.7885038453e-05 0.0000000000e+00 
          -5.2450120527e-06 -7.7822548214e-05 0.0000000000e+00 
          -5.2686752618e-06 -7.7846242802e-05 0.0000000000e+00 
          -5.2861175689e-06 -7.7855879751e-05 0.0000000000e+00 
        </DataArray>
        <DataArray type="Float64" Name="Displacement" NumberOfComponents="3" format="ascii">
          7.9086828028e-08 -7.3769838933e-04 0.0000000000e+00 
          7.9086828028e-08 -7.3769838933e-04 0.0000000000e+00 
          3.8739208751e-07 -7.6127872531e-04 0.0000000000e+00 
          3.8739208751e-07 -7.6127872531e-04 0.0000000000e+00 
          9.2908826222e-08 -7.3889213023e-04 0.0000000000e+00 
          1.0655798874e-07 -7.4005488878e-04 0.0000000000e+00 
          1.2001762628e-07 -7.4118656644e-04 0.0000000000e+00 
          1.3327668504e-07 -7.4228737776e-04 0.0000000000e+00 
          1.4631717732e-07 -7.4335698688e-04 0.0000000000e+00 
          1.5912952069e-07 -7.4439580331e-04 0.0000000000e+00 
          1.7169727062e-07 -7.4540343451e-04 0.0000000000e+00 
          1.8401017624e-07 -7.4638016652e-04 0.0000000000e+00 
          1.9605349401e-07 -7.4732585429e-04 0.0000000000e+00 
          2.0781532719e-07 -7.4824053856e-04 0.0000000000e+00 
          2.1928836157e-07 -7.4912422107e-04 0.0000000000e+00 
          2.3045245397e-07 -7.4997687731e-04 0.0000000000e+00 
          2.4130553515e-07 -7.5079859713e-04 0.0000000000e+00 
          2.5183363933e-07 -7.5158916698e-04 0.0000000000e+00 
          2.6202362747e-07 -7.5234893347e-04 0.0000000000e+00 
          2.7187136989e-07 -7.5307748075e-04 0.0000000000e+00 
          2.8136640128e-07 -7.5377518935e-04 0.0000000000e+00 
          2.9049185907e-07 -7.5444180038e-04 0.0000000000e+00 
          2.9925838374e-07 -7.5507741628e-04 0.0000000000e+00 
          3.0763120587e-07 -7.5568208584e-04 0.0000000000e+00 
          3.1563065817e-07 -7.5625563218e-04 0.0000000000e+00 
          3.2322944431e-07 -7.5679832032e-04 0.0000000000e+00 
          3.3042781433e-07 -7.5730986256e-04 0.0000000000e+00 
          3.3722630918e-07 -7.5779048800e-04 0.0000000000e+00 
          3.4360352811e-07 -7.5824009349e-04 0.0000000000e+00 
          3.4957283294e-07 -7.5865862914e-04 0.0000000000e+00 
          3.5511127956e-07 -7.5904627616e-04 0.0000000000e+00 
          3.6022937608e-07 -7.5940278735e-04 0.0000000000e+00 
          3.6491218349e-07 -7.5972838536e-04 0.0000000000e+00 
          3.6916228957e-07 -7.6002295520e-04 0.0000000000e+00 
          3.7297326995e-07 -7.6028646105e-04 0.0000000000e+00 
          3.7634161771e-07 -7.6051907594e-04 0.0000000000e+00 
          3.7927117057e-07 -7.6072055608e-04 0.0000000000e+00 
          3.8174494268e-07 -7.6089112220e-04 0.0000000000e+00 
          3.8378214469e-07 -7.6103065683e-04 0.0000000000e+00 
          3.8535983934e-07 -7.6113914356e-04 0.0000000000e+00 
          3.8649029556e-07 -7.6121670970e-04 0.0000000000e+00 
          3.8717355767e-07 -7.6126316258e-04 0.0000000000e+00 
          9.2908826222e-08 -7.3889213023e-04 0.0000000000e+00 
          1.0655798874e-07 -7.4005488878e-04 0.0000000000e+00 
          1.2001762628e-07 -7.4118656644e-04 0.0000000000e+00 
          1.3327668504e-07 -7.4228737776e-04 0.0000000000e+00 
          1.4631717732e-07 -7.4335698688e-04 0.0000000000e+00 
          1.5912952069e-07 -7.4439580331e-04 0.0000000000e+00 
          1.7169727062e-07 -7.4540343451e-04 0.0000000000e+00 
          1.8401017624e-07 -7.4638016652e-04 0.0000000000e+00 
          1.9605349401e-07 -7.4732585429e-04 0.0000000000e+00 
          2.0781532719e-07 -7.4824053856e-04 0.0000000000e+00 
          2.1928836157e-07 -7.4912422107e-04 0.0000000000e+00 
          2.3045245397e-07 -7.4997687731e-04 0.0000000000e+00 
          2.4130553515e-07 -7.5079859713e-04 0.0000000000e+00 
          2.5183363933e-07 -7.5158916698e-04 0.0000000000e+00 
          2.6202362747e-07 -7.5234893347e-04 0.0000000000e+00 
          2.7187136989e-07 -7.5307748075e-04 0.0000000000e+00 
          2.8136640128e-07 -7.5377518935e-04 0.0000000000e+00 
          2.9049185907e-07 -7.5444180038e-04 0.0000000000e+00 
          2.9925838374e-07 -7.5507741628e-04 0.0000000000e+00 
          3.0763120587e-07 -7.5568208584e-04 0.0000000000e+00 
          3.1563065817e-07 -7.5625563218e-04 0.0000000000e+00 
          3.2322944431e-07 -7.5679832032e-04 0.0000000000e+00 
          3.3042781433e-07 -7.5730986256e-04 0.0000000000e+00 
          3.3722630918e-07 -7.5779048800e-04 0.0000000000e+00 
          3.4360352811e-07 -7.5824009349e-04 0.0000000000e+00 
          3.4957283294e-07 -7.5865862914e-04 0.0000000000e+00 
          3.5511127956e-07 -7.5904627616e-04 0.0000000000e+00 
          3.6022937608e-07 -7.5940278735e-04 0.0000000000e+00 
          3.6491218349e-07 -7.5972838536e-04 0.0000000000e+00 
          3.6916228957e-07 -7.6002295520e-04 0.0000000000e+00 
          3.7297326995e-07 -7.6028646105e-04 0.0000000000e+00 
          3.7634161771e-07 -7.6051907594e-04 0.0000000000e+00 
          3.7927117057e-07 -7.6072055608e-04 0.0000000000e+00 
          3.8174494268e-07 -7.6089112220e-04 0.0000000000e+00 
          3.8378214469e-07 -7.6103065683e-04 0.0000000000e+00 
          3.8535983934e-07 -7.6113914356e-04 0.0000000000e+00 
          3.8649029556e-07 -7.6121670970e-04 0.0000000000e+00 
          3.8717355767e-07 -7.6126316258e-04 0.0000000000e+00 
        </DataArray>
        <DataArray type="Float64" Name="Acceleration" NumberOfComponents="3" format="ascii">
          -1.4312843322e-05 -1.1573421068e-06 0.0000000000e+00 
          -1.4312843322e-05 -1.1573421068e-06 0.0000000000e+00 
          -3.9379941445e-05 2.1467368785e-05 0.0000000000e+00 
          -3.9379941445e-05 2.1467368785e-05 0.0000000000e+00 
          -1.5572835743e-05 -4.3232575992e-06 0.0000000000e+00 
          -1.7075009653e-05 1.3174623168e-05 0.0000000000e+00 
          -1.8074131950e-05 -2.4959562203e-05 0.0000000000e+00 
          -1.9693271770e-05 3.5294434147e-05 0.0000000000e+00 
          -2.0556667378e-05 -3.8500264314e-05 0.0000000000e+00 
          -2.2036893831e-05 3.2006612262e-05 0.0000000000e+00 
          -2.2963462574e-05 -1.9070016484e-05 0.0000000000e+00 
          -2.4290398187e-05 6.8305738262e-06 0.0000000000e+00 
          -2.5362317049e-05 -5.1102862403e-07 0.0000000000e+00 
          -2.6020016057e-05 -1.0279058136e-06 0.0000000000e+00 
          -2.7837643236e-05 3.8014707714e-06 0.0000000000e+00 
          -2.8022726111e-05 -1.2597936262e-05 0.0000000000e+00 
          -2.9281069216e-05 2.5883174688e-05 0.0000000000e+00 
          -3.0464922696e-05 -3.6579027573e-05 0.0000000000e+00 
          -3.0835881942e-05 3.8196506407e-05 0.0000000000e+00 
          -3.1781134190e-05 -3.0041228127e-05 0.0000000000e+00 
          -3.3299311792e-05 1.6441734350e-05 0.0000000000e+00 
          -3.2340583122e-05 -2.0181837292e-06 0.0000000000e+00 
          -3.5472417649e-05 -1.0951757791e-05 0.0000000000e+00 
          -3.3642362733e-05 2.1209800631e-05 0.0000000000e+00 
          -3.6100811465e-05 -2.6696569629e-05 0.0000000000e+00 
          -3.6078283614e-05 2.5150796205e-05 0.0000000000e+00 
          -3.6028769039e-05 -1.6243478467e-05 0.0000000000e+00 
          -3.7958614227e-05 2.5695039231e-06 0.0000000000e+00 
          -3.6753865218e-05 1.1442041749e-05 0.0000000000e+00 
          -3.8821176088e-05 -2.1210229024e-05 0.0000000000e+00 
          -3.7874373337e-05 2.3335611204e-05 0.0000000000e+00 
          -3.9219886724e-05 -1.6860715914e-05 0.0000000000e+00 
          -3.8987817280e-05 4.0134086818e-06 0.0000000000e+00 
          -3.9566092666e-05 1.0390555762e-05 0.0000000000e+00 
          -3.9882073801e-05 -2.0791673093e-05 0.0000000000e+00 
          -3.9535969209e-05 2.3097436097e-05 0.0000000000e+00 
          -4.1067115801e-05 -1.6585899771e-05 0.0000000000e+00 
          -3.9335827610e-05 4.5332289166e-06 0.0000000000e+00 
          -4.1402521034e-05 7.4898073018e-06 0.0000000000e+00 
          -4.0296959421e-05 -1.5466757017e-05 0.0000000000e+00 
          -4.0293231371e-05 1.9289411560e-05 0.0000000000e+00 
          -4.1873294415e-05 -2.0937320772e-05 0.0000000000e+00 
          -1.5572835743e-05 -4.3232575992e-06 0.0000000000e+00 
          -1.7075009653e-05 1.3174623168e-05 0.0000000000e+00 
          -1.8074131950e-05 -2.4959562203e-05 0.0000000000e+00 
          -1.9693271770e-05 3.5294434147e-05 0.0000000000e+00 
          -2.0556667378e-05 -3.8500264314e-05 0.0000000000e+00 
          -2.2036893831e-05 3.2006612262e-05 0.0000000000e+00 
          -2.2963462574e-05 -1.9070016484e-05 0.0000000000e+00 
          -2.4290398187e-05 6.8305738262e-06 0.0000000000e+00 
          -2.5362317049e-05 -5.1102862403e-07 0.0000000000e+00 
          -2.6020016057e-05 -1.0279058136e-06 0.0000000000e+00 
          -2.7837643236e-05 3.8014707714e-06 0.0000000000e+00 
          -2.8022726111e-05 -1.2597936262e-05 0.0000000000e+00 
          -2.9281069216e-05 2.5883174688e-05 0.0000000000e+00 
          -3.0464922696e-05 -3.6579027573e-05 0.0000000000e+00 
          -3.0835881942e-05 3.8196506407e-05 0.0000000000e+00 
          -3.1781134190e-05 -3.0041228127e-05 0.0000000000e+00 
          -3.3299311792e-05 1.6441734350e-05 0.0000000000e+00 
          -3.2340583122e-05 -2.0181837292e-06 0.0000000000e+00 
          -3.5472417649e-05 -1.0951757791e-05 0.0000000000e+00 
          -3.3642362733e-05 2.1209800631e-05 0.0000000000e+00 
          -3.6100811465e-05 -2.6696569629e-05 0.0000000000e+00 
          -3.6078283614e-05 2.5150796205e-05 0.0000000000e+00 
          -3.6028769039e-05 -1.6243478467e-05 0.0000000000e+00 
          -3.7958614227e-05 2.5695039231e-06 0.0000000000e+00 
          -3.6753865218e-05 1.1442041749e-05 0.0000000000e+00 
          -3.8821176088e-05 -2.1210229024e-05 0.0000000000e+00 
          -3.7874373337e-05 2.3335611204e-05 0.0000000000e+00 
          -3.9219886724e-05 -1.6860715914e-05 0.0000000000e+00 
          -3.8987817280e-05 4.0134086818e-06 0.0000000000e+00 
          -3.9566092666e-05 1.0390555762e-05 0.0000000000e+00 
          -3.9882073801e-05 -2.0791673093e-05 0.0000000000e+00 
          -3.9535969209e-05 2.3097436097e-05 0.0000000000e+00 
          -4.1067115801e-05 -1.6585899771e-05 0.0000000000e+00 
          -3.9335827610e-05 4.5332289166e-06 0.0000000000e+00 
          -4.1402521034e-05 7.4898073018e-06 0.0000000000e+00 
          -4.0296959421e-05 -1.5466757017e-05 0.0000000000e+00 
          -4.0293231371e-05 1.9289411560e-05 0.0000000000e+00 
          -4.1873294415e-05 -2.0937320772e-05 0.0000000000e+00 
        </DataArray>
        <DataArray type="Float64" Name="Reaction" NumberOfComponents="3" format="ascii">
          0.0000000000e+00 0.0000000000e+00 0.0000000000e+00 
          0.0000000000e+00 0.0000000000e+00 0.0000000000e+00 
          0.0000000000e+00 0.0000000000e+00 0.0000000000e+00 
          0.0000000000e+00 0.0000000000e+00 0.0000000000e+00 
          0.0000000000e+00 0.0000000000e+00 0.0000000000e+00 
          0.0000000000e+00 0.0000000000e+00 0.0000000000e+00 
          0.0000000000e+00 0.0000000000e+00 0.0000000000e+00 
          0.0000000000e+00 0.0000000000e+00 0.0000000000e+00 
          0.0000000000e+00 0.0000000000e+00 0.0000000000e+00 
          0.0000000000e+00 0.0000000000e+00 0.0000000000e+00 
          0.0000000000e+00 0.0000000000e+00 0.0000000000e+00 
          0.0000000000e+00 0.0000000000e+00 0.0000000000e+00 
          0.0000000000e+00 0.0000000000e+00 0.0000000000e+00 
          0.0000000000e+00 0.0000000000e+00 0.0000000000e+00 
          0.0000000000e+00 0.0000000000e+00 0.0000000000e+00 
          0.0000000000e+00 0.0000000000e+00 0.0000000000e+00 
          0.0000000000e+00 0.0000000000e+00 0.0000000000e+00 
          0.0000000000e+00 0.0000000000e+00 0.0000000000e+00 
          0.0000000000e+00 0.0000000000e+00 0.0000000000e+00 
          0.0000000000e+00 0.0000000000e+00 0.0000000000e+00 
          0.0000000000e+00 0.0000000000e+00 0.0000000000e+00 
          0.0000000000e+00 0.0000000000e+00 0.0000000000e+00 
          0.0000000000e+00 0.0000000000e+00 0.0000000000e+00 
          0.0000000000e+00 0.0000000000e+00 0.0000000000e+00 
          0.0000000000e+00 0.0000000000e+00 0.0000000000e+00 
          0.0000000000e+00 0.0000000000e+00 0.0000000000e+00 
          0.0000000000e+00 0.0000000000e+00 0.0000000000e+00 
          0.0000000000e+00 0.0000000000e+00 0.0000000000e+00 
          0.0000000000e+00 0.0000000000e+00 0.0000000000e+00 
          0.0000000000e+00 0.0000000000e+00 0.0000000000e+00 
          0.0000000000e+00 0.0000000000e+00 0.0000000000e+00 
          0.0000000000e+00 0.0000000000e+00 0.0000000000e+00 
          0.0000000000e+00 0.0000000000e+00 0.0000000000e+00 
          0.0000000000e+00 0.0000000000e+00 0.0000000000e+00 
          0.0000000000e+00 0.0000000000e+00 0.0000000000e+00 
          0.0000000000e+00 0.0000000000e+00 0.0000000000e+00 
          0.0000000000e+00 0.0000000000e+00 0.0000000000e+00 
          0.0000000000e+00 0.0000000000e+00 0.0000000000e+00 
          0.0000000000e+00 0.0000000000e+00 0.0000000000e+00 
          0.0000000000e+00 0.0000000000e+00 0.0000000000e+00 
          0.0000000000e+00 0.0000000000e+00 0.0000000000e+00 
          0.0000000000e+00 0.0000000000e+00 0.0000000000e+00 
          0.0000000000e+00 0.0000000000e+00 0.0000000000e+00 
          0.0000000000e+00 0.0000000000e+00 0.0000000000e+00 
          0.0000000000e+00 0.0000000000e+00 0.0000000000e+00 
          0.0000000000e+00 0.0000000000e+00 0.0000000000e+00 
          0.0000000000e+00 0.0000000000e+00 0.0000000000e+00 
          0.0000000000e+00 0.0000000000e+00 0.0000000000e+00 
          0.0000000000e+00 0.0000000000e+00 0.0000000000e+00 
          0.0000000000e+00 0.0000000000e+00 0.0000000000e+00 
          0.0000000000e+00 0.0000000000e+00 0.0000000000e+00 
          0.0000000000e+00 0.0000000000e+00 0.0000000000e+00 
          0.0000000000e+00 0.0000000000e+00 0.0000000000e+00 
          0.0000000000e+00 0.0000000000e+00 0.0000000000e+00 
          0.0000000000e+00 0.0000000000e+00 0.0000000000e+00 
          0.0000000000e+00 0.0000000000e+00 0.0000000000e+00 
          0.0000000000e+00 0.0000000000e+00 0.0000000000e+00 
          0.0000000000e+00 0.0000000000e+00 0.0000000000e+00 
          0.0000000000e+00 0.0000000000e+00 0.0000000000e+00 
          0.0000000000e+00 0.0000000000e+00 0.0000000000e+00 
          0.0000000000e+00 0.0000000000e+00 0.0000000000e+00 
          0.0000000000e+00 0.0000000000e+00 0.0000000000e+00 
          0.0000000000e+00 0.0000000000e+00 0.0000000000e+00 
          0.0000000000e+00 0.0000000000e+00 0.0000000000e+00 
          0.0000000000e+00 0.0000000000e+00 0.0000000000e+00 
          0.0000000000e+00 0.0000000000e+00 0.0000000000e+00 
          0.0000000000e+00 0.0000000000e+00 0.0000000000e+00 
          0.0000000000e+00 0.0000000000e+00 0.0000000000e+00 
          0.0000000000e+00 0.0000000000e+00 0.0000000000e+00 
          0.0000000000e+00 0.0000000000e+00 0.0000000000e+00 
          0.0000000000e+00 0.0000000000e+00 0.0000000000e+00 
          0.0000000000e+00 0.0000000000e+00 0.0000000000e+00 
          0.0000000000e+00 0.0000000000e+00 0.0000000000e+00 
          0.0000000000e+00 0.0000000000e+00 0.0000000000e+00 
          0.0000000000e+00 0.0000000000e+00 0.0000000000e+00 
          0.0000000000e+00 0.0000000000e+00 0.0000000000e+00 
          0.0000000000e+00 0.0000000000e+00 0.0000000000e+00 
          0.0000000000e+00 0.0000000000e+00 0.0000000000e+00 
          0.0000000000e+00 0.0000000000e+00 0.0000000000e+00 
          0.0000000000e+00 0.0000000000e+00 0.0000000000e+00 
        </DataArray>
      </PointData>
      <CellData>
        <DataArray type="Int64" Name="ElementTag" format="ascii">
          90
          91
          92
          93
          94
          95
          96
          97
          98
          99
          100
          101
          102
          103
          104
          105
          106
          107
          108
          109
          110
          111
          112
          113
          114
          115
          116
          117
          118
          119
          120
          121
          122
          123
          124
          125
          126
          127
          128
        </DataArray>
      </CellData>
    </Piece>
  </UnstructuredGrid>
</VTKFile>
