<?xml version="1.0"?>
<VTKFile type="UnstructuredGrid" version="1.0" byte_order="LittleEndian" compressor="vtkZLibDataCompressor">
  <UnstructuredGrid>
    <Piece NumberOfPoints="80" NumberOfCells="39">
      <Points>
        <DataArray type="Float64" Name="Points" NumberOfComponents="3" format="ascii">
          0.0000000000e+00 0.0000000000e+00 0.0000000000e+00 
          2.5000000000e-01 0.0000000000e+00 0.0000000000e+00 
          2.5000000000e-01 3.0000000000e+01 0.0000000000e+00 
          0.0000000000e+00 3.0000000000e+01 0.0000000000e+00 
          2.5000000000e-01 7.6923100000e-01 0.0000000000e+00 
          2.5000000000e-01 1.5384620000e+00 0.0000000000e+00 
          2.5000000000e-01 2.3076920000e+00 0.0000000000e+00 
          2.5000000000e-01 3.0769230000e+00 0.0000000000e+00 
          2.5000000000e-01 3.8461540000e+00 0.0000000000e+00 
          2.5000000000e-01 4.6153850000e+00 0.0000000000e+00 
          2.5000000000e-01 5.3846150000e+00 0.0000000000e+00 
          2.5000000000e-01 6.1538460000e+00 0.0000000000e+00 
          2.5000000000e-01 6.9230770000e+00 0.0000000000e+00 
          2.5000000000e-01 7.6923080000e+00 0.0000000000e+00 
          2.5000000000e-01 8.4615380000e+00 0.0000000000e+00 
          2.5000000000e-01 9.2307690000e+00 0.0000000000e+00 
          2.5000000000e-01 1.0000000000e+01 0.0000000000e+00 
          2.5000000000e-01 1.0769231000e+01 0.0000000000e+00 
          2.5000000000e-01 1.1538462000e+01 0.0000000000e+00 
          2.5000000000e-01 1.2307692000e+01 0.0000000000e+00 
          2.5000000000e-01 1.3076923000e+01 0.0000000000e+00 
          2.5000000000e-01 1.3846154000e+01 0.0000000000e+00 
          2.5000000000e-01 1.4615385000e+01 0.0000000000e+00 
          2.5000000000e-01 1.5384615000e+01 0.0000000000e+00 
          2.5000000000e-01 1.6153846000e+01 0.0000000000e+00 
          2.5000000000e-01 1.6923077000e+01 0.0000000000e+00 
          2.5000000000e-01 1.7692308000e+01 0.0000000000e+00 
          2.5000000000e-01 1.8461538000e+01 0.0000000000e+00 
          2.5000000000e-01 1.9230769000e+01 0.0000000000e+00 
          2.5000000000e-01 2.0000000000e+01 0.0000000000e+00 
          2.5000000000e-01 2.0769231000e+01 0.0000000000e+00 
          2.5000000000e-01 2.1538462000e+01 0.0000000000e+00 
          2.5000000000e-01 2.2307692000e+01 0.0000000000e+00 
          2.5000000000e-01 2.3076923000e+01 0.0000000000e+00 
          2.5000000000e-01 2.3846154000e+01 0.0000000000e+00 
          2.5000000000e-01 2.4615385000e+01 0.0000000000e+00 
          2.5000000000e-01 2.5384615000e+01 0.0000000000e+00 
          2.5000000000e-01 2.6153846000e+01 0.0000000000e+00 
          2.5000000000e-01 2.6923077000e+01 0.0000000000e+00 
          2.5000000000e-01 2.7692308000e+01 0.0000000000e+00 
          2.5000000000e-01 2.8461538000e+01 0.0000000000e+00 
          2.5000000000e-01 2.9230769000e+01 0.0000000000e+00 
          0.0000000000e+00 7.6923100000e-01 0.0000000000e+00 
          0.0000000000e+00 1.5384620000e+00 0.0000000000e+00 
          0.0000000000e+00 2.3076920000e+00 0.0000000000e+00 
          0.0000000000e+00 3.0769230000e+00 0.0000000000e+00 
          0.0000000000e+00 3.8461540000e+00 0.0000000000e+00 
          0.0000000000e+00 4.6153850000e+00 0.0000000000e+00 
          0.0000000000e+00 5.3846150000e+00 0.0000000000e+00 
          0.0000000000e+00 6.1538460000e+00 0.0000000000e+00 
          0.0000000000e+00 6.9230770000e+00 0.0000000000e+00 
          0.0000000000e+00 7.6923080000e+00 0.0000000000e+00 
          0.0000000000e+00 8.4615380000e+00 0.0000000000e+00 
          0.0000000000e+00 9.2307690000e+00 0.0000000000e+00 
          0.0000000000e+00 1.0000000000e+01 0.0000000000e+00 
          0.0000000000e+00 1.0769231000e+01 0.0000000000e+00 
          0.0000000000e+00 1.1538462000e+01 0.0000000000e+00 
          0.0000000000e+00 1.2307692000e+01 0.0000000000e+00 
          0.0000000000e+00 1.3076923000e+01 0.0000000000e+00 
          0.0000000000e+00 1.3846154000e+01 0.0000000000e+00 
          0.0000000000e+00 1.4615385000e+01 0.0000000000e+00 
          0.0000000000e+00 1.5384615000e+01 0.0000000000e+00 
          0.0000000000e+00 1.6153846000e+01 0.0000000000e+00 
          0.0000000000e+00 1.6923077000e+01 0.0000000000e+00 
          0.0000000000e+00 1.7692308000e+01 0.0000000000e+00 
          0.0000000000e+00 1.8461538000e+01 0.0000000000e+00 
          0.0000000000e+00 1.9230769000e+01 0.0000000000e+00 
          0.0000000000e+00 2.0000000000e+01 0.0000000000e+00 
          0.0000000000e+00 2.0769231000e+01 0.0000000000e+00 
          0.0000000000e+00 2.1538462000e+01 0.0000000000e+00 
          0.0000000000e+00 2.2307692000e+01 0.0000000000e+00 
          0.0000000000e+00 2.3076923000e+01 0.0000000000e+00 
          0.0000000000e+00 2.3846154000e+01 0.0000000000e+00 
          0.0000000000e+00 2.4615385000e+01 0.0000000000e+00 
          0.0000000000e+00 2.5384615000e+01 0.0000000000e+00 
          0.0000000000e+00 2.6153846000e+01 0.0000000000e+00 
          0.0000000000e+00 2.6923077000e+01 0.0000000000e+00 
          0.0000000000e+00 2.7692308000e+01 0.0000000000e+00 
          0.0000000000e+00 2.8461538000e+01 0.0000000000e+00 
          0.0000000000e+00 2.9230769000e+01 0.0000000000e+00 
        </DataArray>
      </Points>
      <Cells>
        <DataArray type="Int64" Name="connectivity" format="ascii">
          0 1 4 42 
          42 4 5 43 
          43 5 6 44 
          44 6 7 45 
          45 7 8 46 
          46 8 9 47 
          47 9 10 48 
          48 10 11 49 
          49 11 12 50 
          50 12 13 51 
          51 13 14 52 
          52 14 15 53 
          53 15 16 54 
          54 16 17 55 
          55 17 18 56 
          56 18 19 57 
          57 19 20 58 
          58 20 21 59 
          59 21 22 60 
          60 22 23 61 
          61 23 24 62 
          62 24 25 63 
          63 25 26 64 
          64 26 27 65 
          65 27 28 66 
          66 28 29 67 
          67 29 30 68 
          68 30 31 69 
          69 31 32 70 
          70 32 33 71 
          71 33 34 72 
          72 34 35 73 
          73 35 36 74 
          74 36 37 75 
          75 37 38 76 
          76 38 39 77 
          77 39 40 78 
          78 40 41 79 
          79 41 2 3 
        </DataArray>
        <DataArray type="Int64" Name="offsets" format="ascii">
          4
          8
          12
          16
          20
          24
          28
          32
          36
          40
          44
          48
          52
          56
          60
          64
          68
          72
          76
          80
          84
          88
          92
          96
          100
          104
          108
          112
          116
          120
          124
          128
          132
          136
          140
          144
          148
          152
          156
        </DataArray>
        <DataArray type="Int64" Name="types" format="ascii">
          9
          9
          9
          9
          9
          9
          9
          9
          9
          9
          9
          9
          9
          9
          9
          9
          9
          9
          9
          9
          9
          9
          9
          9
          9
          9
          9
          9
          9
          9
          9
          9
          9
          9
          9
          9
          9
          9
          9
        </DataArray>
      </Cells>
      <PointData>
        <DataArray type="Int64" Name="NodeTag" format="ascii">
          1
          2
          3
          4
          7
          8
          9
          10
          11
          12
          13
          14
          15
          16
          17
          18
          19
          20
          21
          22
          23
          24
          25
          26
          27
          28
          29
          30
          31
          32
          33
          34
          35
          36
          37
          38
          39
          40
          41
          42
          43
          44
          45
          46
          47
          48
          49
          50
          51
          52
          53
          54
          55
          56
          57
          58
          59
          60
          61
          62
          63
          64
          65
          66
          67
          68
          69
          70
          71
          72
          73
          74
          75
          76
          77
          78
          79
          80
          81
          82
        </DataArray>
        <DataArray type="Float64" Name="Velocity" NumberOfComponents="3" format="ascii">
          3.8203135603e-05 -7.7842837834e-05 0.0000000000e+00 
          3.8203135603e-05 -7.7842837834e-05 0.0000000000e+00 
          -3.3074784110e-05 -7.7910171498e-05 0.0000000000e+00 
          -3.3074784110e-05 -7.7910171498e-05 0.0000000000e+00 
          3.5826011095e-05 -7.7844380941e-05 0.0000000000e+00 
          3.3400760368e-05 -7.7853302777e-05 0.0000000000e+00 
          3.0928396506e-05 -7.7816418185e-05 0.0000000000e+00 
          2.8422790843e-05 -7.7885535034e-05 0.0000000000e+00 
          2.5886661544e-05 -7.7808136401e-05 0.0000000000e+00 
          2.3325667992e-05 -7.7854646182e-05 0.0000000000e+00 
          2.0753524782e-05 -7.7859383968e-05 0.0000000000e+00 
          1.8166510076e-05 -7.7822064221e-05 0.0000000000e+00 
          1.5585044986e-05 -7.7852054529e-05 0.0000000000e+00 
          1.3000751640e-05 -7.7851384222e-05 0.0000000000e+00 
          1.0434418511e-05 -7.7831623428e-05 0.0000000000e+00 
          7.8850996190e-06 -7.7854305602e-05 0.0000000000e+00 
          5.3566155290e-06 -7.7836323036e-05 0.0000000000e+00 
          2.8710183519e-06 -7.7848289950e-05 0.0000000000e+00 
          4.0869749232e-07 -7.7846329454e-05 0.0000000000e+00 
          -1.9945807981e-06 -7.7835655929e-05 0.0000000000e+00 
          -4.3537840235e-06 -7.7847409979e-05 0.0000000000e+00 
          -6.6586437560e-06 -7.7859644108e-05 0.0000000000e+00 
          -8.8896661620e-06 -7.7810407991e-05 0.0000000000e+00 
          -1.1064755165e-05 -7.7874757252e-05 0.0000000000e+00 
          -1.3154704888e-05 -7.7836816734e-05 0.0000000000e+00 
          -1.5169014053e-05 -7.7826301513e-05 0.0000000000e+00 
          -1.7100203136e-05 -7.7873459820e-05 0.0000000000e+00 
          -1.8934535025e-05 -7.7820619705e-05 0.0000000000e+00 
          -2.0681065641e-05 -7.7848941027e-05 0.0000000000e+00 
          -2.2323669537e-05 -7.7859679769e-05 0.0000000000e+00 
          -2.3860750097e-05 -7.7822819686e-05 0.0000000000e+00 
          -2.5297611599e-05 -7.7850842411e-05 0.0000000000e+00 
          -2.6612827754e-05 -7.7858918589e-05 0.0000000000e+00 
          -2.7819583677e-05 -7.7823347162e-05 0.0000000000e+00 
          -2.8908863219e-05 -7.7850257289e-05 0.0000000000e+00 
          -2.9869432037e-05 -7.7862412170e-05 0.0000000000e+00 
          -3.0716249278e-05 -7.7807989068e-05 0.0000000000e+00 
          -3.1431588488e-05 -7.7880195137e-05 0.0000000000e+00 
          -3.2017124699e-05 -7.7828744865e-05 0.0000000000e+00 
          -3.2480666165e-05 -7.7825748755e-05 0.0000000000e+00 
          -3.2808795270e-05 -7.7891632540e-05 0.0000000000e+00 
          -3.3003417413e-05 -7.7781534616e-05 0.0000000000e+00 
          3.5826011095e-05 -7.7844380941e-05 0.0000000000e+00 
          3.3400760368e-05 -7.7853302777e-05 0.0000000000e+00 
          3.0928396506e-05 -7.7816418185e-05 0.0000000000e+00 
          2.8422790843e-05 -7.7885535034e-05 0.0000000000e+00 
          2.5886661544e-05 -7.7808136401e-05 0.0000000000e+00 
          2.3325667992e-05 -7.7854646182e-05 0.0000000000e+00 
          2.0753524782e-05 -7.7859383968e-05 0.0000000000e+00 
          1.8166510076e-05 -7.7822064221e-05 0.0000000000e+00 
          1.5585044986e-05 -7.7852054529e-05 0.0000000000e+00 
          1.3000751640e-05 -7.7851384222e-05 0.0000000000e+00 
          1.0434418511e-05 -7.7831623428e-05 0.0000000000e+00 
          7.8850996190e-06 -7.7854305602e-05 0.0000000000e+00 
          5.3566155290e-06 -7.7836323036e-05 0.0000000000e+00 
          2.8710183519e-06 -7.7848289950e-05 0.0000000000e+00 
          4.0869749232e-07 -7.7846329454e-05 0.0000000000e+00 
          -1.9945807981e-06 -7.7835655929e-05 0.0000000000e+00 
          -4.3537840235e-06 -7.7847409979e-05 0.0000000000e+00 
          -6.6586437560e-06 -7.7859644108e-05 0.0000000000e+00 
          -8.8896661620e-06 -7.7810407991e-05 0.0000000000e+00 
          -1.1064755165e-05 -7.7874757252e-05 0.0000000000e+00 
          -1.3154704888e-05 -7.7836816734e-05 0.0000000000e+00 
          -1.5169014053e-05 -7.7826301513e-05 0.0000000000e+00 
          -1.7100203136e-05 -7.7873459820e-05 0.0000000000e+00 
          -1.8934535025e-05 -7.7820619705e-05 0.0000000000e+00 
          -2.0681065641e-05 -7.7848941027e-05 0.0000000000e+00 
          -2.2323669537e-05 -7.7859679769e-05 0.0000000000e+00 
          -2.3860750097e-05 -7.7822819686e-05 0.0000000000e+00 
          -2.5297611599e-05 -7.7850842411e-05 0.0000000000e+00 
          -2.6612827754e-05 -7.7858918589e-05 0.0000000000e+00 
          -2.7819583677e-05 -7.7823347162e-05 0.0000000000e+00 
          -2.8908863219e-05 -7.7850257289e-05 0.0000000000e+00 
          -2.9869432037e-05 -7.7862412170e-05 0.0000000000e+00 
          -3.0716249278e-05 -7.7807989068e-05 0.0000000000e+00 
          -3.1431588488e-05 -7.7880195137e-05 0.0000000000e+00 
          -3.2017124699e-05 -7.7828744865e-05 0.0000000000e+00 
          -3.2480666165e-05 -7.7825748755e-05 0.0000000000e+00 
          -3.2808795270e-05 -7.7891632540e-05 0.0000000000e+00 
          -3.3003417413e-05 -7.7781534616e-05 0.0000000000e+00 
        </DataArray>
        <DataArray type="Float64" Name="Displacement" NumberOfComponents="3" format="ascii">
          1.4725384685e-07 -5.7111123573e-04 0.0000000000e+00 
          1.4725384685e-07 -5.7111123573e-04 0.0000000000e+00 
          1.5567936325e-05 -5.9469145513e-04 0.0000000000e+00 
          1.5567936325e-05 -5.9469145513e-04 0.0000000000e+00 
          7.8089683582e-07 -5.7230495392e-04 0.0000000000e+00 
          1.4120214973e-06 -5.7346773416e-04 0.0000000000e+00 
          2.0396946788e-06 -5.7459941349e-04 0.0000000000e+00 
          2.6629683369e-06 -5.7570013864e-04 0.0000000000e+00 
          3.2809307291e-06 -5.7676990364e-04 0.0000000000e+00 
          3.8926536471e-06 -5.7780852586e-04 0.0000000000e+00 
          4.4972323735e-06 -5.7881627907e-04 0.0000000000e+00 
          5.0937753132e-06 -5.7979299918e-04 0.0000000000e+00 
          5.6813875470e-06 -5.8073858363e-04 0.0000000000e+00 
          6.2592045002e-06 -5.8165341723e-04 0.0000000000e+00 
          6.8263736440e-06 -5.8253692208e-04 0.0000000000e+00 
          7.3820390554e-06 -5.8338974535e-04 0.0000000000e+00 
          7.9253901944e-06 -5.8421129897e-04 0.0000000000e+00 
          8.4556143544e-06 -5.8500200646e-04 0.0000000000e+00 
          8.9719143465e-06 -5.8576167331e-04 0.0000000000e+00 
          9.4735395880e-06 -5.8649023534e-04 0.0000000000e+00 
          9.9597173323e-06 -5.8718801162e-04 0.0000000000e+00 
          1.0429746754e-05 -5.8785448423e-04 0.0000000000e+00 
          1.0882905909e-05 -5.8849024591e-04 0.0000000000e+00 
          1.1318516588e-05 -5.8909479259e-04 0.0000000000e+00 
          1.1735943745e-05 -5.8966841393e-04 0.0000000000e+00 
          1.2134533361e-05 -5.9021105108e-04 0.0000000000e+00 
          1.2513699680e-05 -5.9072262937e-04 0.0000000000e+00 
          1.2872872009e-05 -5.9120322006e-04 0.0000000000e+00 
          1.3211495336e-05 -5.9165283286e-04 0.0000000000e+00 
          1.3529071777e-05 -5.9207139448e-04 0.0000000000e+00 
          1.3825102047e-05 -5.9245898889e-04 0.0000000000e+00 
          1.4099155001e-05 -5.9281553956e-04 0.0000000000e+00 
          1.4350790887e-05 -5.9314111980e-04 0.0000000000e+00 
          1.4579653292e-05 -5.9343569957e-04 0.0000000000e+00 
          1.4785365901e-05 -5.9369916980e-04 0.0000000000e+00 
          1.4967624561e-05 -5.9393184523e-04 0.0000000000e+00 
          1.5126168310e-05 -5.9413326071e-04 0.0000000000e+00 
          1.5260707893e-05 -5.9430386642e-04 0.0000000000e+00 
          1.5371097314e-05 -5.9444338246e-04 0.0000000000e+00 
          1.5457113196e-05 -5.9455188123e-04 0.0000000000e+00 
          1.5518651266e-05 -5.9462943127e-04 0.0000000000e+00 
          1.5555622346e-05 -5.9467589552e-04 0.0000000000e+00 
          7.8089683582e-07 -5.7230495392e-04 0.0000000000e+00 
          1.4120214973e-06 -5.7346773416e-04 0.0000000000e+00 
          2.0396946788e-06 -5.7459941349e-04 0.0000000000e+00 
          2.6629683369e-06 -5.7570013864e-04 0.0000000000e+00 
          3.2809307291e-06 -5.7676990364e-04 0.0000000000e+00 
          3.8926536471e-06 -5.7780852586e-04 0.0000000000e+00 
          4.4972323735e-06 -5.7881627907e-04 0.0000000000e+00 
          5.0937753132e-06 -5.7979299918e-04 0.0000000000e+00 
          5.6813875470e-06 -5.8073858363e-04 0.0000000000e+00 
          6.2592045002e-06 -5.8165341723e-04 0.0000000000e+00 
          6.8263736440e-06 -5.8253692208e-04 0.0000000000e+00 
          7.3820390554e-06 -5.8338974535e-04 0.0000000000e+00 
          7.9253901944e-06 -5.8421129897e-04 0.0000000000e+00 
          8.4556143544e-06 -5.8500200646e-04 0.0000000000e+00 
          8.9719143465e-06 -5.8576167331e-04 0.0000000000e+00 
          9.4735395880e-06 -5.8649023534e-04 0.0000000000e+00 
          9.9597173323e-06 -5.8718801162e-04 0.0000000000e+00 
          1.0429746754e-05 -5.8785448423e-04 0.0000000000e+00 
          1.0882905909e-05 -5.8849024591e-04 0.0000000000e+00 
          1.1318516588e-05 -5.8909479259e-04 0.0000000000e+00 
          1.1735943745e-05 -5.8966841393e-04 0.0000000000e+00 
          1.2134533361e-05 -5.9021105108e-04 0.0000000000e+00 
          1.2513699680e-05 -5.9072262937e-04 0.0000000000e+00 
          1.2872872009e-05 -5.9120322006e-04 0.0000000000e+00 
          1.3211495336e-05 -5.9165283286e-04 0.0000000000e+00 
          1.3529071777e-05 -5.9207139448e-04 0.0000000000e+00 
          1.3825102047e-05 -5.9245898889e-04 0.0000000000e+00 
          1.4099155001e-05 -5.9281553956e-04 0.0000000000e+00 
          1.4350790887e-05 -5.9314111980e-04 0.0000000000e+00 
          1.4579653292e-05 -5.9343569957e-04 0.0000000000e+00 
          1.4785365901e-05 -5.9369916980e-04 0.0000000000e+00 
          1.4967624561e-05 -5.9393184523e-04 0.0000000000e+00 
          1.5126168310e-05 -5.9413326071e-04 0.0000000000e+00 
          1.5260707893e-05 -5.9430386642e-04 0.0000000000e+00 
          1.5371097314e-05 -5.9444338246e-04 0.0000000000e+00 
          1.5457113196e-05 -5.9455188123e-04 0.0000000000e+00 
          1.5518651266e-05 -5.9462943127e-04 0.0000000000e+00 
          1.5555622346e-05 -5.9467589552e-04 0.0000000000e+00 
        </DataArray>
        <DataArray type="Float64" Name="Acceleration" NumberOfComponents="3" format="ascii">
          -1.4141702303e-04 3.9025244702e-08 0.0000000000e+00 
          -1.4141702303e-04 3.9025244702e-08 0.0000000000e+00 
          -2.2190275178e-03 2.0341714744e-05 0.0000000000e+00 
          -2.2190275178e-03 2.0341714744e-05 0.0000000000e+00 
          -2.2690628523e-04 -1.2323453041e-05 0.0000000000e+00 
          -3.1091183798e-04 1.6779507157e-05 0.0000000000e+00 
          -3.9647952519e-04 -9.1286371516e-06 0.0000000000e+00 
          -4.7855554190e-04 -8.3240307385e-06 0.0000000000e+00 
          -5.6218895360e-04 2.4587215904e-05 0.0000000000e+00 
          -6.4363537747e-04 -2.4978309376e-05 0.0000000000e+00 
          -7.2411153117e-04 5.0624478184e-06 0.0000000000e+00 
          -8.0467423954e-04 2.3304919032e-05 0.0000000000e+00 
          -8.8257413125e-04 -4.6041227432e-05 0.0000000000e+00 
          -9.5932283707e-04 5.7897618276e-05 0.0000000000e+00 
          -1.0365761180e-03 -5.8312507361e-05 0.0000000000e+00 
          -1.1095402623e-03 4.7450996774e-05 0.0000000000e+00 
          -1.1827667317e-03 -2.8869906470e-05 0.0000000000e+00 
          -1.2545950249e-03 6.1807658125e-06 0.0000000000e+00 
          -1.3221661185e-03 1.7579468329e-05 0.0000000000e+00 
          -1.3919096543e-03 -3.9574109981e-05 0.0000000000e+00 
          -1.4549957872e-03 5.3578658359e-05 0.0000000000e+00 
          -1.5200442996e-03 -5.3232979891e-05 0.0000000000e+00 
          -1.5811023514e-03 3.7464396192e-05 0.0000000000e+00 
          -1.6384233474e-03 -1.4451120177e-05 0.0000000000e+00 
          -1.6972997043e-03 -3.9914604096e-06 0.0000000000e+00 
          -1.7500772703e-03 9.4648035133e-06 0.0000000000e+00 
          -1.8014571769e-03 -3.4854433340e-06 0.0000000000e+00 
          -1.8515490133e-03 -5.0085031805e-06 0.0000000000e+00 
          -1.8963658792e-03 8.0792761901e-06 0.0000000000e+00 
          -1.9413526093e-03 -7.0506445524e-06 0.0000000000e+00 
          -1.9801995038e-03 6.7415970450e-06 0.0000000000e+00 
          -2.0197939893e-03 -6.5447052690e-06 0.0000000000e+00 
          -2.0519663895e-03 -9.7745209154e-07 0.0000000000e+00 
          -2.0858423758e-03 1.8598065866e-05 0.0000000000e+00 
          -2.1132471384e-03 -3.8118832981e-05 0.0000000000e+00 
          -2.1367431228e-03 4.5657233183e-05 0.0000000000e+00 
          -2.1628426929e-03 -3.5370605990e-05 0.0000000000e+00 
          -2.1759773426e-03 1.5016331941e-05 0.0000000000e+00 
          -2.1961039158e-03 1.9703105604e-06 0.0000000000e+00 
          -2.2054934624e-03 -1.0395608657e-05 0.0000000000e+00 
          -2.2135429753e-03 1.4340395316e-05 0.0000000000e+00 
          -2.2216535640e-03 -1.8326713141e-05 0.0000000000e+00 
          -2.2690628523e-04 -1.2323453041e-05 0.0000000000e+00 
          -3.1091183798e-04 1.6779507157e-05 0.0000000000e+00 
          -3.9647952519e-04 -9.1286371516e-06 0.0000000000e+00 
          -4.7855554190e-04 -8.3240307385e-06 0.0000000000e+00 
          -5.6218895360e-04 2.4587215904e-05 0.0000000000e+00 
          -6.4363537747e-04 -2.4978309376e-05 0.0000000000e+00 
          -7.2411153117e-04 5.0624478184e-06 0.0000000000e+00 
          -8.0467423954e-04 2.3304919032e-05 0.0000000000e+00 
          -8.8257413125e-04 -4.6041227432e-05 0.0000000000e+00 
          -9.5932283707e-04 5.7897618276e-05 0.0000000000e+00 
          -1.0365761180e-03 -5.8312507361e-05 0.0000000000e+00 
          -1.1095402623e-03 4.7450996774e-05 0.0000000000e+00 
          -1.1827667317e-03 -2.8869906470e-05 0.0000000000e+00 
          -1.2545950249e-03 6.1807658125e-06 0.0000000000e+00 
          -1.3221661185e-03 1.7579468329e-05 0.0000000000e+00 
          -1.3919096543e-03 -3.9574109981e-05 0.0000000000e+00 
          -1.4549957872e-03 5.3578658359e-05 0.0000000000e+00 
          -1.5200442996e-03 -5.3232979891e-05 0.0000000000e+00 
          -1.5811023514e-03 3.7464396192e-05 0.0000000000e+00 
          -1.6384233474e-03 -1.4451120177e-05 0.0000000000e+00 
          -1.6972997043e-03 -3.9914604096e-06 0.0000000000e+00 
          -1.7500772703e-03 9.4648035133e-06 0.0000000000e+00 
          -1.8014571769e-03 -3.4854433340e-06 0.0000000000e+00 
          -1.8515490133e-03 -5.0085031805e-06 0.0000000000e+00 
          -1.8963658792e-03 8.0792761901e-06 0.0000000000e+00 
          -1.9413526093e-03 -7.0506445524e-06 0.0000000000e+00 
          -1.9801995038e-03 6.7415970450e-06 0.0000000000e+00 
          -2.0197939893e-03 -6.5447052690e-06 0.0000000000e+00 
          -2.0519663895e-03 -9.7745209154e-07 0.0000000000e+00 
          -2.0858423758e-03 1.8598065866e-05 0.0000000000e+00 
          -2.1132471384e-03 -3.8118832981e-05 0.0000000000e+00 
          -2.1367431228e-03 4.5657233183e-05 0.0000000000e+00 
          -2.1628426929e-03 -3.5370605990e-05 0.0000000000e+00 
          -2.1759773426e-03 1.5016331941e-05 0.0000000000e+00 
          -2.1961039158e-03 1.9703105604e-06 0.0000000000e+00 
          -2.2054934624e-03 -1.0395608657e-05 0.0000000000e+00 
          -2.2135429753e-03 1.4340395316e-05 0.0000000000e+00 
          -2.2216535640e-03 -1.8326713141e-05 0.0000000000e+00 
        </DataArray>
        <DataArray type="Float64" Name="Reaction" NumberOfComponents="3" format="ascii">
          0.0000000000e+00 0.0000000000e+00 0.0000000000e+00 
          0.0000000000e+00 0.0000000000e+00 0.0000000000e+00 
          0.0000000000e+00 0.0000000000e+00 0.0000000000e+00 
          0.0000000000e+00 0.0000000000e+00 0.0000000000e+00 
          0.0000000000e+00 0.0000000000e+00 0.0000000000e+00 
          0.0000000000e+00 0.0000000000e+00 0.0000000000e+00 
          0.0000000000e+00 0.0000000000e+00 0.0000000000e+00 
          0.0000000000e+00 0.0000000000e+00 0.0000000000e+00 
          0.0000000000e+00 0.0000000000e+00 0.0000000000e+00 
          0.0000000000e+00 0.0000000000e+00 0.0000000000e+00 
          0.0000000000e+00 0.0000000000e+00 0.0000000000e+00 
          0.0000000000e+00 0.0000000000e+00 0.0000000000e+00 
          0.0000000000e+00 0.0000000000e+00 0.0000000000e+00 
          0.0000000000e+00 0.0000000000e+00 0.0000000000e+00 
          0.0000000000e+00 0.0000000000e+00 0.0000000000e+00 
          0.0000000000e+00 0.0000000000e+00 0.0000000000e+00 
          0.0000000000e+00 0.0000000000e+00 0.0000000000e+00 
          0.0000000000e+00 0.0000000000e+00 0.0000000000e+00 
          0.0000000000e+00 0.0000000000e+00 0.0000000000e+00 
          0.0000000000e+00 0.0000000000e+00 0.0000000000e+00 
          0.0000000000e+00 0.0000000000e+00 0.0000000000e+00 
          0.0000000000e+00 0.0000000000e+00 0.0000000000e+00 
          0.0000000000e+00 0.0000000000e+00 0.0000000000e+00 
          0.0000000000e+00 0.0000000000e+00 0.0000000000e+00 
          0.0000000000e+00 0.0000000000e+00 0.0000000000e+00 
          0.0000000000e+00 0.0000000000e+00 0.0000000000e+00 
          0.0000000000e+00 0.0000000000e+00 0.0000000000e+00 
          0.0000000000e+00 0.0000000000e+00 0.0000000000e+00 
          0.0000000000e+00 0.0000000000e+00 0.0000000000e+00 
          0.0000000000e+00 0.0000000000e+00 0.0000000000e+00 
          0.0000000000e+00 0.0000000000e+00 0.0000000000e+00 
          0.0000000000e+00 0.0000000000e+00 0.0000000000e+00 
          0.0000000000e+00 0.0000000000e+00 0.0000000000e+00 
          0.0000000000e+00 0.0000000000e+00 0.0000000000e+00 
          0.0000000000e+00 0.0000000000e+00 0.0000000000e+00 
          0.0000000000e+00 0.0000000000e+00 0.0000000000e+00 
          0.0000000000e+00 0.0000000000e+00 0.0000000000e+00 
          0.0000000000e+00 0.0000000000e+00 0.0000000000e+00 
          0.0000000000e+00 0.0000000000e+00 0.0000000000e+00 
          0.0000000000e+00 0.0000000000e+00 0.0000000000e+00 
          0.0000000000e+00 0.0000000000e+00 0.0000000000e+00 
          0.0000000000e+00 0.0000000000e+00 0.0000000000e+00 
          0.0000000000e+00 0.0000000000e+00 0.0000000000e+00 
          0.0000000000e+00 0.0000000000e+00 0.0000000000e+00 
          0.0000000000e+00 0.0000000000e+00 0.0000000000e+00 
          0.0000000000e+00 0.0000000000e+00 0.0000000000e+00 
          0.0000000000e+00 0.0000000000e+00 0.0000000000e+00 
          0.0000000000e+00 0.0000000000e+00 0.0000000000e+00 
          0.0000000000e+00 0.0000000000e+00 0.0000000000e+00 
          0.0000000000e+00 0.0000000000e+00 0.0000000000e+00 
          0.0000000000e+00 0.0000000000e+00 0.0000000000e+00 
          0.0000000000e+00 0.0000000000e+00 0.0000000000e+00 
          0.0000000000e+00 0.0000000000e+00 0.0000000000e+00 
          0.0000000000e+00 0.0000000000e+00 0.0000000000e+00 
          0.0000000000e+00 0.0000000000e+00 0.0000000000e+00 
          0.0000000000e+00 0.0000000000e+00 0.0000000000e+00 
          0.0000000000e+00 0.0000000000e+00 0.0000000000e+00 
          0.0000000000e+00 0.0000000000e+00 0.0000000000e+00 
          0.0000000000e+00 0.0000000000e+00 0.0000000000e+00 
          0.0000000000e+00 0.0000000000e+00 0.0000000000e+00 
          0.0000000000e+00 0.0000000000e+00 0.0000000000e+00 
          0.0000000000e+00 0.0000000000e+00 0.0000000000e+00 
          0.0000000000e+00 0.0000000000e+00 0.0000000000e+00 
          0.0000000000e+00 0.0000000000e+00 0.0000000000e+00 
          0.0000000000e+00 0.0000000000e+00 0.0000000000e+00 
          0.0000000000e+00 0.0000000000e+00 0.0000000000e+00 
          0.0000000000e+00 0.0000000000e+00 0.0000000000e+00 
          0.0000000000e+00 0.0000000000e+00 0.0000000000e+00 
          0.0000000000e+00 0.0000000000e+00 0.0000000000e+00 
          0.0000000000e+00 0.0000000000e+00 0.0000000000e+00 
          0.0000000000e+00 0.0000000000e+00 0.0000000000e+00 
          0.0000000000e+00 0.0000000000e+00 0.0000000000e+00 
          0.0000000000e+00 0.0000000000e+00 0.0000000000e+00 
          0.0000000000e+00 0.0000000000e+00 0.0000000000e+00 
          0.0000000000e+00 0.0000000000e+00 0.0000000000e+00 
          0.0000000000e+00 0.0000000000e+00 0.0000000000e+00 
          0.0000000000e+00 0.0000000000e+00 0.0000000000e+00 
          0.0000000000e+00 0.0000000000e+00 0.0000000000e+00 
          0.0000000000e+00 0.0000000000e+00 0.0000000000e+00 
          0.0000000000e+00 0.0000000000e+00 0.0000000000e+00 
        </DataArray>
      </PointData>
      <CellData>
        <DataArray type="Int64" Name="ElementTag" format="ascii">
          90
          91
          92
          93
          94
          95
          96
          97
          98
          99
          100
          101
          102
          103
          104
          105
          106
          107
          108
          109
          110
          111
          112
          113
          114
          115
          116
          117
          118
          119
          120
          121
          122
          123
          124
          125
          126
          127
          128
        </DataArray>
      </CellData>
    </Piece>
  </UnstructuredGrid>
</VTKFile>
