<?xml version="1.0"?>
<VTKFile type="UnstructuredGrid" version="1.0" byte_order="LittleEndian" compressor="vtkZLibDataCompressor">
  <UnstructuredGrid>
    <Piece NumberOfPoints="80" NumberOfCells="39">
      <Points>
        <DataArray type="Float64" Name="Points" NumberOfComponents="3" format="ascii">
          0.0000000000e+00 0.0000000000e+00 0.0000000000e+00 
          2.5000000000e-01 0.0000000000e+00 0.0000000000e+00 
          2.5000000000e-01 3.0000000000e+01 0.0000000000e+00 
          0.0000000000e+00 3.0000000000e+01 0.0000000000e+00 
          2.5000000000e-01 7.6923100000e-01 0.0000000000e+00 
          2.5000000000e-01 1.5384620000e+00 0.0000000000e+00 
          2.5000000000e-01 2.3076920000e+00 0.0000000000e+00 
          2.5000000000e-01 3.0769230000e+00 0.0000000000e+00 
          2.5000000000e-01 3.8461540000e+00 0.0000000000e+00 
          2.5000000000e-01 4.6153850000e+00 0.0000000000e+00 
          2.5000000000e-01 5.3846150000e+00 0.0000000000e+00 
          2.5000000000e-01 6.1538460000e+00 0.0000000000e+00 
          2.5000000000e-01 6.9230770000e+00 0.0000000000e+00 
          2.5000000000e-01 7.6923080000e+00 0.0000000000e+00 
          2.5000000000e-01 8.4615380000e+00 0.0000000000e+00 
          2.5000000000e-01 9.2307690000e+00 0.0000000000e+00 
          2.5000000000e-01 1.0000000000e+01 0.0000000000e+00 
          2.5000000000e-01 1.0769231000e+01 0.0000000000e+00 
          2.5000000000e-01 1.1538462000e+01 0.0000000000e+00 
          2.5000000000e-01 1.2307692000e+01 0.0000000000e+00 
          2.5000000000e-01 1.3076923000e+01 0.0000000000e+00 
          2.5000000000e-01 1.3846154000e+01 0.0000000000e+00 
          2.5000000000e-01 1.4615385000e+01 0.0000000000e+00 
          2.5000000000e-01 1.5384615000e+01 0.0000000000e+00 
          2.5000000000e-01 1.6153846000e+01 0.0000000000e+00 
          2.5000000000e-01 1.6923077000e+01 0.0000000000e+00 
          2.5000000000e-01 1.7692308000e+01 0.0000000000e+00 
          2.5000000000e-01 1.8461538000e+01 0.0000000000e+00 
          2.5000000000e-01 1.9230769000e+01 0.0000000000e+00 
          2.5000000000e-01 2.0000000000e+01 0.0000000000e+00 
          2.5000000000e-01 2.0769231000e+01 0.0000000000e+00 
          2.5000000000e-01 2.1538462000e+01 0.0000000000e+00 
          2.5000000000e-01 2.2307692000e+01 0.0000000000e+00 
          2.5000000000e-01 2.3076923000e+01 0.0000000000e+00 
          2.5000000000e-01 2.3846154000e+01 0.0000000000e+00 
          2.5000000000e-01 2.4615385000e+01 0.0000000000e+00 
          2.5000000000e-01 2.5384615000e+01 0.0000000000e+00 
          2.5000000000e-01 2.6153846000e+01 0.0000000000e+00 
          2.5000000000e-01 2.6923077000e+01 0.0000000000e+00 
          2.5000000000e-01 2.7692308000e+01 0.0000000000e+00 
          2.5000000000e-01 2.8461538000e+01 0.0000000000e+00 
          2.5000000000e-01 2.9230769000e+01 0.0000000000e+00 
          0.0000000000e+00 7.6923100000e-01 0.0000000000e+00 
          0.0000000000e+00 1.5384620000e+00 0.0000000000e+00 
          0.0000000000e+00 2.3076920000e+00 0.0000000000e+00 
          0.0000000000e+00 3.0769230000e+00 0.0000000000e+00 
          0.0000000000e+00 3.8461540000e+00 0.0000000000e+00 
          0.0000000000e+00 4.6153850000e+00 0.0000000000e+00 
          0.0000000000e+00 5.3846150000e+00 0.0000000000e+00 
          0.0000000000e+00 6.1538460000e+00 0.0000000000e+00 
          0.0000000000e+00 6.9230770000e+00 0.0000000000e+00 
          0.0000000000e+00 7.6923080000e+00 0.0000000000e+00 
          0.0000000000e+00 8.4615380000e+00 0.0000000000e+00 
          0.0000000000e+00 9.2307690000e+00 0.0000000000e+00 
          0.0000000000e+00 1.0000000000e+01 0.0000000000e+00 
          0.0000000000e+00 1.0769231000e+01 0.0000000000e+00 
          0.0000000000e+00 1.1538462000e+01 0.0000000000e+00 
          0.0000000000e+00 1.2307692000e+01 0.0000000000e+00 
          0.0000000000e+00 1.3076923000e+01 0.0000000000e+00 
          0.0000000000e+00 1.3846154000e+01 0.0000000000e+00 
          0.0000000000e+00 1.4615385000e+01 0.0000000000e+00 
          0.0000000000e+00 1.5384615000e+01 0.0000000000e+00 
          0.0000000000e+00 1.6153846000e+01 0.0000000000e+00 
          0.0000000000e+00 1.6923077000e+01 0.0000000000e+00 
          0.0000000000e+00 1.7692308000e+01 0.0000000000e+00 
          0.0000000000e+00 1.8461538000e+01 0.0000000000e+00 
          0.0000000000e+00 1.9230769000e+01 0.0000000000e+00 
          0.0000000000e+00 2.0000000000e+01 0.0000000000e+00 
          0.0000000000e+00 2.0769231000e+01 0.0000000000e+00 
          0.0000000000e+00 2.1538462000e+01 0.0000000000e+00 
          0.0000000000e+00 2.2307692000e+01 0.0000000000e+00 
          0.0000000000e+00 2.3076923000e+01 0.0000000000e+00 
          0.0000000000e+00 2.3846154000e+01 0.0000000000e+00 
          0.0000000000e+00 2.4615385000e+01 0.0000000000e+00 
          0.0000000000e+00 2.5384615000e+01 0.0000000000e+00 
          0.0000000000e+00 2.6153846000e+01 0.0000000000e+00 
          0.0000000000e+00 2.6923077000e+01 0.0000000000e+00 
          0.0000000000e+00 2.7692308000e+01 0.0000000000e+00 
          0.0000000000e+00 2.8461538000e+01 0.0000000000e+00 
          0.0000000000e+00 2.9230769000e+01 0.0000000000e+00 
        </DataArray>
      </Points>
      <Cells>
        <DataArray type="Int64" Name="connectivity" format="ascii">
          0 1 4 42 
          42 4 5 43 
          43 5 6 44 
          44 6 7 45 
          45 7 8 46 
          46 8 9 47 
          47 9 10 48 
          48 10 11 49 
          49 11 12 50 
          50 12 13 51 
          51 13 14 52 
          52 14 15 53 
          53 15 16 54 
          54 16 17 55 
          55 17 18 56 
          56 18 19 57 
          57 19 20 58 
          58 20 21 59 
          59 21 22 60 
          60 22 23 61 
          61 23 24 62 
          62 24 25 63 
          63 25 26 64 
          64 26 27 65 
          65 27 28 66 
          66 28 29 67 
          67 29 30 68 
          68 30 31 69 
          69 31 32 70 
          70 32 33 71 
          71 33 34 72 
          72 34 35 73 
          73 35 36 74 
          74 36 37 75 
          75 37 38 76 
          76 38 39 77 
          77 39 40 78 
          78 40 41 79 
          79 41 2 3 
        </DataArray>
        <DataArray type="Int64" Name="offsets" format="ascii">
          4
          8
          12
          16
          20
          24
          28
          32
          36
          40
          44
          48
          52
          56
          60
          64
          68
          72
          76
          80
          84
          88
          92
          96
          100
          104
          108
          112
          116
          120
          124
          128
          132
          136
          140
          144
          148
          152
          156
        </DataArray>
        <DataArray type="Int64" Name="types" format="ascii">
          9
          9
          9
          9
          9
          9
          9
          9
          9
          9
          9
          9
          9
          9
          9
          9
          9
          9
          9
          9
          9
          9
          9
          9
          9
          9
          9
          9
          9
          9
          9
          9
          9
          9
          9
          9
          9
          9
          9
        </DataArray>
      </Cells>
      <PointData>
        <DataArray type="Int64" Name="NodeTag" format="ascii">
          1
          2
          3
          4
          7
          8
          9
          10
          11
          12
          13
          14
          15
          16
          17
          18
          19
          20
          21
          22
          23
          24
          25
          26
          27
          28
          29
          30
          31
          32
          33
          34
          35
          36
          37
          38
          39
          40
          41
          42
          43
          44
          45
          46
          47
          48
          49
          50
          51
          52
          53
          54
          55
          56
          57
          58
          59
          60
          61
          62
          63
          64
          65
          66
          67
          68
          69
          70
          71
          72
          73
          74
          75
          76
          77
          78
          79
          80
          81
          82
        </DataArray>
        <DataArray type="Float64" Name="Velocity" NumberOfComponents="3" format="ascii">
          -7.8206521474e-07 -7.7844977607e-05 0.0000000000e+00 
          -7.8206521474e-07 -7.7844977607e-05 0.0000000000e+00 
          2.0876545080e-05 -7.7805359569e-05 0.0000000000e+00 
          2.0876545080e-05 -7.7805359569e-05 0.0000000000e+00 
          1.0008541828e-07 -7.7816279196e-05 0.0000000000e+00 
          9.7900582158e-07 -7.7887609803e-05 0.0000000000e+00 
          1.8557582286e-06 -7.7806652786e-05 0.0000000000e+00 
          2.7280006460e-06 -7.7859681408e-05 0.0000000000e+00 
          3.5914447182e-06 -7.7855241568e-05 0.0000000000e+00 
          4.4506997194e-06 -7.7816932639e-05 0.0000000000e+00 
          5.2986261836e-06 -7.7877220396e-05 0.0000000000e+00 
          6.1356781436e-06 -7.7809999138e-05 0.0000000000e+00 
          6.9632184427e-06 -7.7883036072e-05 0.0000000000e+00 
          7.7748026662e-06 -7.7800615319e-05 0.0000000000e+00 
          8.5735469068e-06 -7.7888819837e-05 0.0000000000e+00 
          9.3568596971e-06 -7.7805799105e-05 0.0000000000e+00 
          1.0119873367e-05 -7.7871839962e-05 0.0000000000e+00 
          1.0871309567e-05 -7.7832784727e-05 0.0000000000e+00 
          1.1593170114e-05 -7.7836676202e-05 0.0000000000e+00 
          1.2306054939e-05 -7.7869835254e-05 0.0000000000e+00 
          1.2987524930e-05 -7.7808340227e-05 0.0000000000e+00 
          1.3650321750e-05 -7.7881651065e-05 0.0000000000e+00 
          1.4292341204e-05 -7.7813199249e-05 0.0000000000e+00 
          1.4900538887e-05 -7.7865855271e-05 0.0000000000e+00 
          1.5494142323e-05 -7.7831390817e-05 0.0000000000e+00 
          1.6052287852e-05 -7.7852484574e-05 0.0000000000e+00 
          1.6586440512e-05 -7.7838155997e-05 0.0000000000e+00 
          1.7093831249e-05 -7.7848442909e-05 0.0000000000e+00 
          1.7568334759e-05 -7.7844031868e-05 0.0000000000e+00 
          1.8016160015e-05 -7.7838381817e-05 0.0000000000e+00 
          1.8432143729e-05 -7.7858432785e-05 0.0000000000e+00 
          1.8817958193e-05 -7.7822858345e-05 0.0000000000e+00 
          1.9170022247e-05 -7.7866819128e-05 0.0000000000e+00 
          1.9493976439e-05 -7.7827458791e-05 0.0000000000e+00 
          1.9780838080e-05 -7.7854987320e-05 0.0000000000e+00 
          2.0036870496e-05 -7.7834544327e-05 0.0000000000e+00 
          2.0261917469e-05 -7.7856133472e-05 0.0000000000e+00 
          2.0446331879e-05 -7.7833983728e-05 0.0000000000e+00 
          2.0605885719e-05 -7.7845060786e-05 0.0000000000e+00 
          2.0723336918e-05 -7.7858083448e-05 0.0000000000e+00 
          2.0809977222e-05 -7.7816710597e-05 0.0000000000e+00 
          2.0865081734e-05 -7.7880365962e-05 0.0000000000e+00 
          1.0008541828e-07 -7.7816279196e-05 0.0000000000e+00 
          9.7900582158e-07 -7.7887609803e-05 0.0000000000e+00 
          1.8557582286e-06 -7.7806652786e-05 0.0000000000e+00 
          2.7280006460e-06 -7.7859681408e-05 0.0000000000e+00 
          3.5914447182e-06 -7.7855241568e-05 0.0000000000e+00 
          4.4506997194e-06 -7.7816932639e-05 0.0000000000e+00 
          5.2986261836e-06 -7.7877220396e-05 0.0000000000e+00 
          6.1356781436e-06 -7.7809999138e-05 0.0000000000e+00 
          6.9632184427e-06 -7.7883036072e-05 0.0000000000e+00 
          7.7748026662e-06 -7.7800615319e-05 0.0000000000e+00 
          8.5735469068e-06 -7.7888819837e-05 0.0000000000e+00 
          9.3568596971e-06 -7.7805799105e-05 0.0000000000e+00 
          1.0119873367e-05 -7.7871839962e-05 0.0000000000e+00 
          1.0871309567e-05 -7.7832784727e-05 0.0000000000e+00 
          1.1593170114e-05 -7.7836676202e-05 0.0000000000e+00 
          1.2306054939e-05 -7.7869835254e-05 0.0000000000e+00 
          1.2987524930e-05 -7.7808340227e-05 0.0000000000e+00 
          1.3650321750e-05 -7.7881651065e-05 0.0000000000e+00 
          1.4292341204e-05 -7.7813199249e-05 0.0000000000e+00 
          1.4900538887e-05 -7.7865855271e-05 0.0000000000e+00 
          1.5494142323e-05 -7.7831390817e-05 0.0000000000e+00 
          1.6052287852e-05 -7.7852484574e-05 0.0000000000e+00 
          1.6586440512e-05 -7.7838155997e-05 0.0000000000e+00 
          1.7093831249e-05 -7.7848442909e-05 0.0000000000e+00 
          1.7568334759e-05 -7.7844031868e-05 0.0000000000e+00 
          1.8016160015e-05 -7.7838381817e-05 0.0000000000e+00 
          1.8432143729e-05 -7.7858432785e-05 0.0000000000e+00 
          1.8817958193e-05 -7.7822858345e-05 0.0000000000e+00 
          1.9170022247e-05 -7.7866819128e-05 0.0000000000e+00 
          1.9493976439e-05 -7.7827458791e-05 0.0000000000e+00 
          1.9780838080e-05 -7.7854987320e-05 0.0000000000e+00 
          2.0036870496e-05 -7.7834544327e-05 0.0000000000e+00 
          2.0261917469e-05 -7.7856133472e-05 0.0000000000e+00 
          2.0446331879e-05 -7.7833983728e-05 0.0000000000e+00 
          2.0605885719e-05 -7.7845060786e-05 0.0000000000e+00 
          2.0723336918e-05 -7.7858083448e-05 0.0000000000e+00 
          2.0809977222e-05 -7.7816710597e-05 0.0000000000e+00 
          2.0865081734e-05 -7.7880365962e-05 0.0000000000e+00 
        </DataArray>
        <DataArray type="Float64" Name="Displacement" NumberOfComponents="3" format="ascii">
          -3.4006074792e-07 -6.8009348921e-04 0.0000000000e+00 
          -3.4006074792e-07 -6.8009348921e-04 0.0000000000e+00 
          -5.2692043354e-07 -7.0367375767e-04 0.0000000000e+00 
          -5.2692043354e-07 -7.0367375767e-04 0.0000000000e+00 
          -3.5275346381e-07 -6.8128723580e-04 0.0000000000e+00 
          -3.6485971496e-07 -6.8244995232e-04 0.0000000000e+00 
          -3.7640132859e-07 -6.8358171827e-04 0.0000000000e+00 
          -3.8737515427e-07 -6.8468240044e-04 0.0000000000e+00 
          -3.9780026048e-07 -6.8575214803e-04 0.0000000000e+00 
          -4.0768482031e-07 -6.8679086020e-04 0.0000000000e+00 
          -4.1704369601e-07 -6.8779853260e-04 0.0000000000e+00 
          -4.2588531167e-07 -6.8877528562e-04 0.0000000000e+00 
          -4.3423145508e-07 -6.8972091450e-04 0.0000000000e+00 
          -4.4208464159e-07 -6.9063566210e-04 0.0000000000e+00 
          -4.4947372713e-07 -6.9151930334e-04 0.0000000000e+00 
          -4.5639976229e-07 -6.9237197334e-04 0.0000000000e+00 
          -4.6289267290e-07 -6.9319368392e-04 0.0000000000e+00 
          -4.6895165748e-07 -6.9398429542e-04 0.0000000000e+00 
          -4.7461076220e-07 -6.9474396565e-04 0.0000000000e+00 
          -4.7987492597e-07 -6.9547264797e-04 0.0000000000e+00 
          -4.8475603463e-07 -6.9617023126e-04 0.0000000000e+00 
          -4.8929555469e-07 -6.9683690248e-04 0.0000000000e+00 
          -4.9346787870e-07 -6.9747255582e-04 0.0000000000e+00 
          -4.9733646108e-07 -6.9807709632e-04 0.0000000000e+00 
          -5.0088193664e-07 -6.9865082195e-04 0.0000000000e+00 
          -5.0413002463e-07 -6.9919333313e-04 0.0000000000e+00 
          -5.0711534378e-07 -6.9970500830e-04 0.0000000000e+00 
          -5.0981233645e-07 -7.0018556821e-04 0.0000000000e+00 
          -5.1228202086e-07 -7.0063515949e-04 0.0000000000e+00 
          -5.1450447162e-07 -7.0105379059e-04 0.0000000000e+00 
          -5.1650055937e-07 -7.0144128017e-04 0.0000000000e+00 
          -5.1830360240e-07 -7.0179795913e-04 0.0000000000e+00 
          -5.1988823612e-07 -7.0212344968e-04 0.0000000000e+00 
          -5.2130077074e-07 -7.0241801499e-04 0.0000000000e+00 
          -5.2253341165e-07 -7.0268163328e-04 0.0000000000e+00 
          -5.2359213566e-07 -7.0291408470e-04 0.0000000000e+00 
          -5.2450248794e-07 -7.0311570500e-04 0.0000000000e+00 
          -5.2525158210e-07 -7.0328620941e-04 0.0000000000e+00 
          -5.2586148862e-07 -7.0342570963e-04 0.0000000000e+00 
          -5.2632817210e-07 -7.0353430529e-04 0.0000000000e+00 
          -5.2665774638e-07 -7.0361173027e-04 0.0000000000e+00 
          -5.2685743289e-07 -7.0365832189e-04 0.0000000000e+00 
          -3.5275346381e-07 -6.8128723580e-04 0.0000000000e+00 
          -3.6485971496e-07 -6.8244995232e-04 0.0000000000e+00 
          -3.7640132859e-07 -6.8358171827e-04 0.0000000000e+00 
          -3.8737515427e-07 -6.8468240044e-04 0.0000000000e+00 
          -3.9780026048e-07 -6.8575214803e-04 0.0000000000e+00 
          -4.0768482031e-07 -6.8679086020e-04 0.0000000000e+00 
          -4.1704369601e-07 -6.8779853260e-04 0.0000000000e+00 
          -4.2588531167e-07 -6.8877528562e-04 0.0000000000e+00 
          -4.3423145508e-07 -6.8972091450e-04 0.0000000000e+00 
          -4.4208464159e-07 -6.9063566210e-04 0.0000000000e+00 
          -4.4947372713e-07 -6.9151930334e-04 0.0000000000e+00 
          -4.5639976229e-07 -6.9237197334e-04 0.0000000000e+00 
          -4.6289267290e-07 -6.9319368392e-04 0.0000000000e+00 
          -4.6895165748e-07 -6.9398429542e-04 0.0000000000e+00 
          -4.7461076220e-07 -6.9474396565e-04 0.0000000000e+00 
          -4.7987492597e-07 -6.9547264797e-04 0.0000000000e+00 
          -4.8475603463e-07 -6.9617023126e-04 0.0000000000e+00 
          -4.8929555469e-07 -6.9683690248e-04 0.0000000000e+00 
          -4.9346787870e-07 -6.9747255582e-04 0.0000000000e+00 
          -4.9733646108e-07 -6.9807709632e-04 0.0000000000e+00 
          -5.0088193664e-07 -6.9865082195e-04 0.0000000000e+00 
          -5.0413002463e-07 -6.9919333313e-04 0.0000000000e+00 
          -5.0711534378e-07 -6.9970500830e-04 0.0000000000e+00 
          -5.0981233645e-07 -7.0018556821e-04 0.0000000000e+00 
          -5.1228202086e-07 -7.0063515949e-04 0.0000000000e+00 
          -5.1450447162e-07 -7.0105379059e-04 0.0000000000e+00 
          -5.1650055937e-07 -7.0144128017e-04 0.0000000000e+00 
          -5.1830360240e-07 -7.0179795913e-04 0.0000000000e+00 
          -5.1988823612e-07 -7.0212344968e-04 0.0000000000e+00 
          -5.2130077074e-07 -7.0241801499e-04 0.0000000000e+00 
          -5.2253341165e-07 -7.0268163328e-04 0.0000000000e+00 
          -5.2359213566e-07 -7.0291408470e-04 0.0000000000e+00 
          -5.2450248794e-07 -7.0311570500e-04 0.0000000000e+00 
          -5.2525158210e-07 -7.0328620941e-04 0.0000000000e+00 
          -5.2586148862e-07 -7.0342570963e-04 0.0000000000e+00 
          -5.2632817210e-07 -7.0353430529e-04 0.0000000000e+00 
          -5.2665774638e-07 -7.0361173027e-04 0.0000000000e+00 
          -5.2685743289e-07 -7.0365832189e-04 0.0000000000e+00 
        </DataArray>
        <DataArray type="Float64" Name="Acceleration" NumberOfComponents="3" format="ascii">
          5.3124331970e-05 1.7824347152e-06 0.0000000000e+00 
          5.3124331970e-05 1.7824347152e-06 0.0000000000e+00 
          1.1352966534e-05 -2.4288347547e-05 0.0000000000e+00 
          1.1352966534e-05 -2.4288347547e-05 0.0000000000e+00 
          5.2841629962e-05 4.2775428116e-06 0.0000000000e+00 
          5.0873638415e-05 -1.0312443389e-05 0.0000000000e+00 
          5.1160199871e-05 1.4225345422e-05 0.0000000000e+00 
          4.9440707529e-05 -1.2930524664e-05 0.0000000000e+00 
          4.8704297002e-05 5.2387741648e-06 0.0000000000e+00 
          4.7364112353e-05 5.7941037562e-06 0.0000000000e+00 
          4.6607277370e-05 -1.5430751658e-05 0.0000000000e+00 
          4.4643028363e-05 2.1228689643e-05 0.0000000000e+00 
          4.4416390752e-05 -2.2534783569e-05 0.0000000000e+00 
          4.1815575580e-05 1.7819539171e-05 0.0000000000e+00 
          4.1722645434e-05 -6.1136906248e-06 0.0000000000e+00 
          3.9025378247e-05 -8.4544014463e-06 0.0000000000e+00 
          3.9097591885e-05 1.6712569164e-05 0.0000000000e+00 
          3.6029965477e-05 -1.1724442186e-05 0.0000000000e+00 
          3.5584365441e-05 -3.4894593650e-06 0.0000000000e+00 
          3.4514661136e-05 1.6878999284e-05 0.0000000000e+00 
          3.0777807811e-05 -1.6986535771e-05 0.0000000000e+00 
          3.3085088912e-05 2.0800377181e-06 0.0000000000e+00 
          2.7367285170e-05 1.9052563785e-05 0.0000000000e+00 
          2.9113034940e-05 -3.4355411130e-05 0.0000000000e+00 
          2.6795206890e-05 3.7499865186e-05 0.0000000000e+00 
          2.3675991492e-05 -3.0690652387e-05 0.0000000000e+00 
          2.5978487067e-05 1.9518216453e-05 0.0000000000e+00 
          2.0481250939e-05 -6.6796196821e-06 0.0000000000e+00 
          2.2276241761e-05 -8.3169154882e-06 0.0000000000e+00 
          2.0395753184e-05 2.4360862092e-05 0.0000000000e+00 
          1.7393710513e-05 -3.5268838788e-05 0.0000000000e+00 
          1.9678937711e-05 3.2736002130e-05 0.0000000000e+00 
          1.5506664378e-05 -1.4531816404e-05 0.0000000000e+00 
          1.6208777806e-05 -1.0690628623e-05 0.0000000000e+00 
          1.5670257429e-05 2.8928671377e-05 0.0000000000e+00 
          1.3368486905e-05 -3.1618353286e-05 0.0000000000e+00 
          1.4529791671e-05 1.9793004028e-05 0.0000000000e+00 
          1.2541081384e-05 -3.8591028700e-07 0.0000000000e+00 
          1.2904677703e-05 -1.8342139051e-05 0.0000000000e+00 
          1.2353780690e-05 2.9601682097e-05 0.0000000000e+00 
          1.1703189839e-05 -3.1149732745e-05 0.0000000000e+00 
          1.2315665782e-05 2.6941581668e-05 0.0000000000e+00 
          5.2841629962e-05 4.2775428116e-06 0.0000000000e+00 
          5.0873638415e-05 -1.0312443389e-05 0.0000000000e+00 
          5.1160199871e-05 1.4225345422e-05 0.0000000000e+00 
          4.9440707529e-05 -1.2930524664e-05 0.0000000000e+00 
          4.8704297002e-05 5.2387741648e-06 0.0000000000e+00 
          4.7364112353e-05 5.7941037562e-06 0.0000000000e+00 
          4.6607277370e-05 -1.5430751658e-05 0.0000000000e+00 
          4.4643028363e-05 2.1228689643e-05 0.0000000000e+00 
          4.4416390752e-05 -2.2534783569e-05 0.0000000000e+00 
          4.1815575580e-05 1.7819539171e-05 0.0000000000e+00 
          4.1722645434e-05 -6.1136906248e-06 0.0000000000e+00 
          3.9025378247e-05 -8.4544014463e-06 0.0000000000e+00 
          3.9097591885e-05 1.6712569164e-05 0.0000000000e+00 
          3.6029965477e-05 -1.1724442186e-05 0.0000000000e+00 
          3.5584365441e-05 -3.4894593650e-06 0.0000000000e+00 
          3.4514661136e-05 1.6878999284e-05 0.0000000000e+00 
          3.0777807811e-05 -1.6986535771e-05 0.0000000000e+00 
          3.3085088912e-05 2.0800377181e-06 0.0000000000e+00 
          2.7367285170e-05 1.9052563785e-05 0.0000000000e+00 
          2.9113034940e-05 -3.4355411130e-05 0.0000000000e+00 
          2.6795206890e-05 3.7499865186e-05 0.0000000000e+00 
          2.3675991492e-05 -3.0690652387e-05 0.0000000000e+00 
          2.5978487067e-05 1.9518216453e-05 0.0000000000e+00 
          2.0481250939e-05 -6.6796196821e-06 0.0000000000e+00 
          2.2276241761e-05 -8.3169154882e-06 0.0000000000e+00 
          2.0395753184e-05 2.4360862092e-05 0.0000000000e+00 
          1.7393710513e-05 -3.5268838788e-05 0.0000000000e+00 
          1.9678937711e-05 3.2736002130e-05 0.0000000000e+00 
          1.5506664378e-05 -1.4531816404e-05 0.0000000000e+00 
          1.6208777806e-05 -1.0690628623e-05 0.0000000000e+00 
          1.5670257429e-05 2.8928671377e-05 0.0000000000e+00 
          1.3368486905e-05 -3.1618353286e-05 0.0000000000e+00 
          1.4529791671e-05 1.9793004028e-05 0.0000000000e+00 
          1.2541081384e-05 -3.8591028700e-07 0.0000000000e+00 
          1.2904677703e-05 -1.8342139051e-05 0.0000000000e+00 
          1.2353780690e-05 2.9601682097e-05 0.0000000000e+00 
          1.1703189839e-05 -3.1149732745e-05 0.0000000000e+00 
          1.2315665782e-05 2.6941581668e-05 0.0000000000e+00 
        </DataArray>
        <DataArray type="Float64" Name="Reaction" NumberOfComponents="3" format="ascii">
          0.0000000000e+00 0.0000000000e+00 0.0000000000e+00 
          0.0000000000e+00 0.0000000000e+00 0.0000000000e+00 
          0.0000000000e+00 0.0000000000e+00 0.0000000000e+00 
          0.0000000000e+00 0.0000000000e+00 0.0000000000e+00 
          0.0000000000e+00 0.0000000000e+00 0.0000000000e+00 
          0.0000000000e+00 0.0000000000e+00 0.0000000000e+00 
          0.0000000000e+00 0.0000000000e+00 0.0000000000e+00 
          0.0000000000e+00 0.0000000000e+00 0.0000000000e+00 
          0.0000000000e+00 0.0000000000e+00 0.0000000000e+00 
          0.0000000000e+00 0.0000000000e+00 0.0000000000e+00 
          0.0000000000e+00 0.0000000000e+00 0.0000000000e+00 
          0.0000000000e+00 0.0000000000e+00 0.0000000000e+00 
          0.0000000000e+00 0.0000000000e+00 0.0000000000e+00 
          0.0000000000e+00 0.0000000000e+00 0.0000000000e+00 
          0.0000000000e+00 0.0000000000e+00 0.0000000000e+00 
          0.0000000000e+00 0.0000000000e+00 0.0000000000e+00 
          0.0000000000e+00 0.0000000000e+00 0.0000000000e+00 
          0.0000000000e+00 0.0000000000e+00 0.0000000000e+00 
          0.0000000000e+00 0.0000000000e+00 0.0000000000e+00 
          0.0000000000e+00 0.0000000000e+00 0.0000000000e+00 
          0.0000000000e+00 0.0000000000e+00 0.0000000000e+00 
          0.0000000000e+00 0.0000000000e+00 0.0000000000e+00 
          0.0000000000e+00 0.0000000000e+00 0.0000000000e+00 
          0.0000000000e+00 0.0000000000e+00 0.0000000000e+00 
          0.0000000000e+00 0.0000000000e+00 0.0000000000e+00 
          0.0000000000e+00 0.0000000000e+00 0.0000000000e+00 
          0.0000000000e+00 0.0000000000e+00 0.0000000000e+00 
          0.0000000000e+00 0.0000000000e+00 0.0000000000e+00 
          0.0000000000e+00 0.0000000000e+00 0.0000000000e+00 
          0.0000000000e+00 0.0000000000e+00 0.0000000000e+00 
          0.0000000000e+00 0.0000000000e+00 0.0000000000e+00 
          0.0000000000e+00 0.0000000000e+00 0.0000000000e+00 
          0.0000000000e+00 0.0000000000e+00 0.0000000000e+00 
          0.0000000000e+00 0.0000000000e+00 0.0000000000e+00 
          0.0000000000e+00 0.0000000000e+00 0.0000000000e+00 
          0.0000000000e+00 0.0000000000e+00 0.0000000000e+00 
          0.0000000000e+00 0.0000000000e+00 0.0000000000e+00 
          0.0000000000e+00 0.0000000000e+00 0.0000000000e+00 
          0.0000000000e+00 0.0000000000e+00 0.0000000000e+00 
          0.0000000000e+00 0.0000000000e+00 0.0000000000e+00 
          0.0000000000e+00 0.0000000000e+00 0.0000000000e+00 
          0.0000000000e+00 0.0000000000e+00 0.0000000000e+00 
          0.0000000000e+00 0.0000000000e+00 0.0000000000e+00 
          0.0000000000e+00 0.0000000000e+00 0.0000000000e+00 
          0.0000000000e+00 0.0000000000e+00 0.0000000000e+00 
          0.0000000000e+00 0.0000000000e+00 0.0000000000e+00 
          0.0000000000e+00 0.0000000000e+00 0.0000000000e+00 
          0.0000000000e+00 0.0000000000e+00 0.0000000000e+00 
          0.0000000000e+00 0.0000000000e+00 0.0000000000e+00 
          0.0000000000e+00 0.0000000000e+00 0.0000000000e+00 
          0.0000000000e+00 0.0000000000e+00 0.0000000000e+00 
          0.0000000000e+00 0.0000000000e+00 0.0000000000e+00 
          0.0000000000e+00 0.0000000000e+00 0.0000000000e+00 
          0.0000000000e+00 0.0000000000e+00 0.0000000000e+00 
          0.0000000000e+00 0.0000000000e+00 0.0000000000e+00 
          0.0000000000e+00 0.0000000000e+00 0.0000000000e+00 
          0.0000000000e+00 0.0000000000e+00 0.0000000000e+00 
          0.0000000000e+00 0.0000000000e+00 0.0000000000e+00 
          0.0000000000e+00 0.0000000000e+00 0.0000000000e+00 
          0.0000000000e+00 0.0000000000e+00 0.0000000000e+00 
          0.0000000000e+00 0.0000000000e+00 0.0000000000e+00 
          0.0000000000e+00 0.0000000000e+00 0.0000000000e+00 
          0.0000000000e+00 0.0000000000e+00 0.0000000000e+00 
          0.0000000000e+00 0.0000000000e+00 0.0000000000e+00 
          0.0000000000e+00 0.0000000000e+00 0.0000000000e+00 
          0.0000000000e+00 0.0000000000e+00 0.0000000000e+00 
          0.0000000000e+00 0.0000000000e+00 0.0000000000e+00 
          0.0000000000e+00 0.0000000000e+00 0.0000000000e+00 
          0.0000000000e+00 0.0000000000e+00 0.0000000000e+00 
          0.0000000000e+00 0.0000000000e+00 0.0000000000e+00 
          0.0000000000e+00 0.0000000000e+00 0.0000000000e+00 
          0.0000000000e+00 0.0000000000e+00 0.0000000000e+00 
          0.0000000000e+00 0.0000000000e+00 0.0000000000e+00 
          0.0000000000e+00 0.0000000000e+00 0.0000000000e+00 
          0.0000000000e+00 0.0000000000e+00 0.0000000000e+00 
          0.0000000000e+00 0.0000000000e+00 0.0000000000e+00 
          0.0000000000e+00 0.0000000000e+00 0.0000000000e+00 
          0.0000000000e+00 0.0000000000e+00 0.0000000000e+00 
          0.0000000000e+00 0.0000000000e+00 0.0000000000e+00 
          0.0000000000e+00 0.0000000000e+00 0.0000000000e+00 
        </DataArray>
      </PointData>
      <CellData>
        <DataArray type="Int64" Name="ElementTag" format="ascii">
          90
          91
          92
          93
          94
          95
          96
          97
          98
          99
          100
          101
          102
          103
          104
          105
          106
          107
          108
          109
          110
          111
          112
          113
          114
          115
          116
          117
          118
          119
          120
          121
          122
          123
          124
          125
          126
          127
          128
        </DataArray>
      </CellData>
    </Piece>
  </UnstructuredGrid>
</VTKFile>
