<?xml version="1.0"?>
<VTKFile type="UnstructuredGrid" version="1.0" byte_order="LittleEndian" compressor="vtkZLibDataCompressor">
  <UnstructuredGrid>
    <Piece NumberOfPoints="80" NumberOfCells="39">
      <Points>
        <DataArray type="Float64" Name="Points" NumberOfComponents="3" format="ascii">
          0.0000000000e+00 0.0000000000e+00 0.0000000000e+00 
          2.5000000000e-01 0.0000000000e+00 0.0000000000e+00 
          2.5000000000e-01 3.0000000000e+01 0.0000000000e+00 
          0.0000000000e+00 3.0000000000e+01 0.0000000000e+00 
          2.5000000000e-01 7.6923100000e-01 0.0000000000e+00 
          2.5000000000e-01 1.5384620000e+00 0.0000000000e+00 
          2.5000000000e-01 2.3076920000e+00 0.0000000000e+00 
          2.5000000000e-01 3.0769230000e+00 0.0000000000e+00 
          2.5000000000e-01 3.8461540000e+00 0.0000000000e+00 
          2.5000000000e-01 4.6153850000e+00 0.0000000000e+00 
          2.5000000000e-01 5.3846150000e+00 0.0000000000e+00 
          2.5000000000e-01 6.1538460000e+00 0.0000000000e+00 
          2.5000000000e-01 6.9230770000e+00 0.0000000000e+00 
          2.5000000000e-01 7.6923080000e+00 0.0000000000e+00 
          2.5000000000e-01 8.4615380000e+00 0.0000000000e+00 
          2.5000000000e-01 9.2307690000e+00 0.0000000000e+00 
          2.5000000000e-01 1.0000000000e+01 0.0000000000e+00 
          2.5000000000e-01 1.0769231000e+01 0.0000000000e+00 
          2.5000000000e-01 1.1538462000e+01 0.0000000000e+00 
          2.5000000000e-01 1.2307692000e+01 0.0000000000e+00 
          2.5000000000e-01 1.3076923000e+01 0.0000000000e+00 
          2.5000000000e-01 1.3846154000e+01 0.0000000000e+00 
          2.5000000000e-01 1.4615385000e+01 0.0000000000e+00 
          2.5000000000e-01 1.5384615000e+01 0.0000000000e+00 
          2.5000000000e-01 1.6153846000e+01 0.0000000000e+00 
          2.5000000000e-01 1.6923077000e+01 0.0000000000e+00 
          2.5000000000e-01 1.7692308000e+01 0.0000000000e+00 
          2.5000000000e-01 1.8461538000e+01 0.0000000000e+00 
          2.5000000000e-01 1.9230769000e+01 0.0000000000e+00 
          2.5000000000e-01 2.0000000000e+01 0.0000000000e+00 
          2.5000000000e-01 2.0769231000e+01 0.0000000000e+00 
          2.5000000000e-01 2.1538462000e+01 0.0000000000e+00 
          2.5000000000e-01 2.2307692000e+01 0.0000000000e+00 
          2.5000000000e-01 2.3076923000e+01 0.0000000000e+00 
          2.5000000000e-01 2.3846154000e+01 0.0000000000e+00 
          2.5000000000e-01 2.4615385000e+01 0.0000000000e+00 
          2.5000000000e-01 2.5384615000e+01 0.0000000000e+00 
          2.5000000000e-01 2.6153846000e+01 0.0000000000e+00 
          2.5000000000e-01 2.6923077000e+01 0.0000000000e+00 
          2.5000000000e-01 2.7692308000e+01 0.0000000000e+00 
          2.5000000000e-01 2.8461538000e+01 0.0000000000e+00 
          2.5000000000e-01 2.9230769000e+01 0.0000000000e+00 
          0.0000000000e+00 7.6923100000e-01 0.0000000000e+00 
          0.0000000000e+00 1.5384620000e+00 0.0000000000e+00 
          0.0000000000e+00 2.3076920000e+00 0.0000000000e+00 
          0.0000000000e+00 3.0769230000e+00 0.0000000000e+00 
          0.0000000000e+00 3.8461540000e+00 0.0000000000e+00 
          0.0000000000e+00 4.6153850000e+00 0.0000000000e+00 
          0.0000000000e+00 5.3846150000e+00 0.0000000000e+00 
          0.0000000000e+00 6.1538460000e+00 0.0000000000e+00 
          0.0000000000e+00 6.9230770000e+00 0.0000000000e+00 
          0.0000000000e+00 7.6923080000e+00 0.0000000000e+00 
          0.0000000000e+00 8.4615380000e+00 0.0000000000e+00 
          0.0000000000e+00 9.2307690000e+00 0.0000000000e+00 
          0.0000000000e+00 1.0000000000e+01 0.0000000000e+00 
          0.0000000000e+00 1.0769231000e+01 0.0000000000e+00 
          0.0000000000e+00 1.1538462000e+01 0.0000000000e+00 
          0.0000000000e+00 1.2307692000e+01 0.0000000000e+00 
          0.0000000000e+00 1.3076923000e+01 0.0000000000e+00 
          0.0000000000e+00 1.3846154000e+01 0.0000000000e+00 
          0.0000000000e+00 1.4615385000e+01 0.0000000000e+00 
          0.0000000000e+00 1.5384615000e+01 0.0000000000e+00 
          0.0000000000e+00 1.6153846000e+01 0.0000000000e+00 
          0.0000000000e+00 1.6923077000e+01 0.0000000000e+00 
          0.0000000000e+00 1.7692308000e+01 0.0000000000e+00 
          0.0000000000e+00 1.8461538000e+01 0.0000000000e+00 
          0.0000000000e+00 1.9230769000e+01 0.0000000000e+00 
          0.0000000000e+00 2.0000000000e+01 0.0000000000e+00 
          0.0000000000e+00 2.0769231000e+01 0.0000000000e+00 
          0.0000000000e+00 2.1538462000e+01 0.0000000000e+00 
          0.0000000000e+00 2.2307692000e+01 0.0000000000e+00 
          0.0000000000e+00 2.3076923000e+01 0.0000000000e+00 
          0.0000000000e+00 2.3846154000e+01 0.0000000000e+00 
          0.0000000000e+00 2.4615385000e+01 0.0000000000e+00 
          0.0000000000e+00 2.5384615000e+01 0.0000000000e+00 
          0.0000000000e+00 2.6153846000e+01 0.0000000000e+00 
          0.0000000000e+00 2.6923077000e+01 0.0000000000e+00 
          0.0000000000e+00 2.7692308000e+01 0.0000000000e+00 
          0.0000000000e+00 2.8461538000e+01 0.0000000000e+00 
          0.0000000000e+00 2.9230769000e+01 0.0000000000e+00 
        </DataArray>
      </Points>
      <Cells>
        <DataArray type="Int64" Name="connectivity" format="ascii">
          0 1 4 42 
          42 4 5 43 
          43 5 6 44 
          44 6 7 45 
          45 7 8 46 
          46 8 9 47 
          47 9 10 48 
          48 10 11 49 
          49 11 12 50 
          50 12 13 51 
          51 13 14 52 
          52 14 15 53 
          53 15 16 54 
          54 16 17 55 
          55 17 18 56 
          56 18 19 57 
          57 19 20 58 
          58 20 21 59 
          59 21 22 60 
          60 22 23 61 
          61 23 24 62 
          62 24 25 63 
          63 25 26 64 
          64 26 27 65 
          65 27 28 66 
          66 28 29 67 
          67 29 30 68 
          68 30 31 69 
          69 31 32 70 
          70 32 33 71 
          71 33 34 72 
          72 34 35 73 
          73 35 36 74 
          74 36 37 75 
          75 37 38 76 
          76 38 39 77 
          77 39 40 78 
          78 40 41 79 
          79 41 2 3 
        </DataArray>
        <DataArray type="Int64" Name="offsets" format="ascii">
          4
          8
          12
          16
          20
          24
          28
          32
          36
          40
          44
          48
          52
          56
          60
          64
          68
          72
          76
          80
          84
          88
          92
          96
          100
          104
          108
          112
          116
          120
          124
          128
          132
          136
          140
          144
          148
          152
          156
        </DataArray>
        <DataArray type="Int64" Name="types" format="ascii">
          9
          9
          9
          9
          9
          9
          9
          9
          9
          9
          9
          9
          9
          9
          9
          9
          9
          9
          9
          9
          9
          9
          9
          9
          9
          9
          9
          9
          9
          9
          9
          9
          9
          9
          9
          9
          9
          9
          9
        </DataArray>
      </Cells>
      <PointData>
        <DataArray type="Int64" Name="NodeTag" format="ascii">
          1
          2
          3
          4
          7
          8
          9
          10
          11
          12
          13
          14
          15
          16
          17
          18
          19
          20
          21
          22
          23
          24
          25
          26
          27
          28
          29
          30
          31
          32
          33
          34
          35
          36
          37
          38
          39
          40
          41
          42
          43
          44
          45
          46
          47
          48
          49
          50
          51
          52
          53
          54
          55
          56
          57
          58
          59
          60
          61
          62
          63
          64
          65
          66
          67
          68
          69
          70
          71
          72
          73
          74
          75
          76
          77
          78
          79
          80
          81
          82
        </DataArray>
        <DataArray type="Float64" Name="Velocity" NumberOfComponents="3" format="ascii">
          -5.9603319257e-04 -7.7838806537e-05 0.0000000000e+00 
          -5.9603319257e-04 -7.7838806537e-05 0.0000000000e+00 
          1.2568331903e-03 -7.7859676101e-05 0.0000000000e+00 
          1.2568331903e-03 -7.7859676101e-05 0.0000000000e+00 
          -5.2917625551e-04 -7.7841844237e-05 0.0000000000e+00 
          -4.6161822748e-04 -7.7857720275e-05 0.0000000000e+00 
          -3.9353877774e-04 -7.7818691616e-05 0.0000000000e+00 
          -3.2505794903e-04 -7.7867984589e-05 0.0000000000e+00 
          -2.5632894239e-04 -7.7830670667e-05 0.0000000000e+00 
          -1.8751838337e-04 -7.7879883699e-05 0.0000000000e+00 
          -1.1874135784e-04 -7.7824158054e-05 0.0000000000e+00 
          -5.0180206491e-05 -7.7855970810e-05 0.0000000000e+00 
          1.8035177853e-05 -7.7863538506e-05 0.0000000000e+00 
          8.5769007888e-05 -7.7834816469e-05 0.0000000000e+00 
          1.5283922672e-04 -7.7891952147e-05 0.0000000000e+00 
          2.1914121712e-04 -7.7785390073e-05 0.0000000000e+00 
          2.8450833191e-04 -7.7934563866e-05 0.0000000000e+00 
          3.4879180251e-04 -7.7796154800e-05 0.0000000000e+00 
          4.1188085538e-04 -7.7892719023e-05 0.0000000000e+00 
          4.7359939169e-04 -7.7845488021e-05 0.0000000000e+00 
          5.3384371195e-04 -7.7829431894e-05 0.0000000000e+00 
          5.9245984066e-04 -7.7927129559e-05 0.0000000000e+00 
          6.4932532220e-04 -7.7766814335e-05 0.0000000000e+00 
          7.0430889468e-04 -7.7910645779e-05 0.0000000000e+00 
          7.5729432371e-04 -7.7875295474e-05 0.0000000000e+00 
          8.0815878771e-04 -7.7783802313e-05 0.0000000000e+00 
          8.5677077393e-04 -7.7921778002e-05 0.0000000000e+00 
          9.0305299320e-04 -7.7850489924e-05 0.0000000000e+00 
          9.4686158378e-04 -7.7822134398e-05 0.0000000000e+00 
          9.8812570762e-04 -7.7888770857e-05 0.0000000000e+00 
          1.0267305212e-03 -7.7848816601e-05 0.0000000000e+00 
          1.0625873887e-03 -7.7850998395e-05 0.0000000000e+00 
          1.0956324695e-03 -7.7876542977e-05 0.0000000000e+00 
          1.1257580453e-03 -7.7856334237e-05 0.0000000000e+00 
          1.1529160268e-03 -7.7853473369e-05 0.0000000000e+00 
          1.1770302069e-03 -7.7860957885e-05 0.0000000000e+00 
          1.1980445318e-03 -7.7858435651e-05 0.0000000000e+00 
          1.2159232846e-03 -7.7859554789e-05 0.0000000000e+00 
          1.2305933920e-03 -7.7859671262e-05 0.0000000000e+00 
          1.2420539199e-03 -7.7856257953e-05 0.0000000000e+00 
          1.2502542605e-03 -7.7856227034e-05 0.0000000000e+00 
          1.2551778294e-03 -7.7858610077e-05 0.0000000000e+00 
          -5.2917625551e-04 -7.7841844237e-05 0.0000000000e+00 
          -4.6161822748e-04 -7.7857720275e-05 0.0000000000e+00 
          -3.9353877774e-04 -7.7818691616e-05 0.0000000000e+00 
          -3.2505794903e-04 -7.7867984589e-05 0.0000000000e+00 
          -2.5632894239e-04 -7.7830670667e-05 0.0000000000e+00 
          -1.8751838337e-04 -7.7879883699e-05 0.0000000000e+00 
          -1.1874135784e-04 -7.7824158054e-05 0.0000000000e+00 
          -5.0180206491e-05 -7.7855970810e-05 0.0000000000e+00 
          1.8035177853e-05 -7.7863538506e-05 0.0000000000e+00 
          8.5769007888e-05 -7.7834816469e-05 0.0000000000e+00 
          1.5283922672e-04 -7.7891952147e-05 0.0000000000e+00 
          2.1914121712e-04 -7.7785390073e-05 0.0000000000e+00 
          2.8450833191e-04 -7.7934563866e-05 0.0000000000e+00 
          3.4879180251e-04 -7.7796154800e-05 0.0000000000e+00 
          4.1188085538e-04 -7.7892719023e-05 0.0000000000e+00 
          4.7359939169e-04 -7.7845488021e-05 0.0000000000e+00 
          5.3384371195e-04 -7.7829431894e-05 0.0000000000e+00 
          5.9245984066e-04 -7.7927129559e-05 0.0000000000e+00 
          6.4932532220e-04 -7.7766814335e-05 0.0000000000e+00 
          7.0430889468e-04 -7.7910645779e-05 0.0000000000e+00 
          7.5729432371e-04 -7.7875295474e-05 0.0000000000e+00 
          8.0815878771e-04 -7.7783802313e-05 0.0000000000e+00 
          8.5677077393e-04 -7.7921778002e-05 0.0000000000e+00 
          9.0305299320e-04 -7.7850489924e-05 0.0000000000e+00 
          9.4686158378e-04 -7.7822134398e-05 0.0000000000e+00 
          9.8812570762e-04 -7.7888770857e-05 0.0000000000e+00 
          1.0267305212e-03 -7.7848816601e-05 0.0000000000e+00 
          1.0625873887e-03 -7.7850998395e-05 0.0000000000e+00 
          1.0956324695e-03 -7.7876542977e-05 0.0000000000e+00 
          1.1257580453e-03 -7.7856334237e-05 0.0000000000e+00 
          1.1529160268e-03 -7.7853473369e-05 0.0000000000e+00 
          1.1770302069e-03 -7.7860957885e-05 0.0000000000e+00 
          1.1980445318e-03 -7.7858435651e-05 0.0000000000e+00 
          1.2159232846e-03 -7.7859554789e-05 0.0000000000e+00 
          1.2305933920e-03 -7.7859671262e-05 0.0000000000e+00 
          1.2420539199e-03 -7.7856257953e-05 0.0000000000e+00 
          1.2502542605e-03 -7.7856227034e-05 0.0000000000e+00 
          1.2551778294e-03 -7.7858610077e-05 0.0000000000e+00 
        </DataArray>
        <DataArray type="Float64" Name="Displacement" NumberOfComponents="3" format="ascii">
          -1.4553072641e-05 -4.3099104277e-04 0.0000000000e+00 
          -1.4553072641e-05 -4.3099104277e-04 0.0000000000e+00 
          -2.5049222073e-04 -4.5456926218e-04 0.0000000000e+00 
          -2.5049222073e-04 -4.5456926218e-04 0.0000000000e+00 
          -2.4429011325e-05 -4.3218469895e-04 0.0000000000e+00 
          -3.4246758166e-05 -4.3334735777e-04 0.0000000000e+00 
          -4.3992620813e-05 -4.3447898408e-04 0.0000000000e+00 
          -5.3653092257e-05 -4.3557966377e-04 0.0000000000e+00 
          -6.3214755616e-05 -4.3664926073e-04 0.0000000000e+00 
          -7.2664362377e-05 -4.3768795192e-04 0.0000000000e+00 
          -8.1988829549e-05 -4.3869548405e-04 0.0000000000e+00 
          -9.1175296556e-05 -4.3967221944e-04 0.0000000000e+00 
          -1.0021108228e-04 -4.4061770685e-04 0.0000000000e+00 
          -1.0908371401e-04 -4.4153244676e-04 0.0000000000e+00 
          -1.1778093934e-04 -4.4241592778e-04 0.0000000000e+00 
          -1.2629081164e-04 -4.4326862698e-04 0.0000000000e+00 
          -1.3460158410e-04 -4.4409017389e-04 0.0000000000e+00 
          -1.4270181215e-04 -4.4488071052e-04 0.0000000000e+00 
          -1.5058032928e-04 -4.4564042437e-04 0.0000000000e+00 
          -1.5822626923e-04 -4.4636885512e-04 0.0000000000e+00 
          -1.6562911326e-04 -4.4706658857e-04 0.0000000000e+00 
          -1.7277863613e-04 -4.4773300229e-04 0.0000000000e+00 
          -1.7966498011e-04 -4.4836861856e-04 0.0000000000e+00 
          -1.8627862240e-04 -4.4897329056e-04 0.0000000000e+00 
          -1.9261043967e-04 -4.4954663261e-04 0.0000000000e+00 
          -1.9865167782e-04 -4.5008934121e-04 0.0000000000e+00 
          -2.0439397111e-04 -4.5060089662e-04 0.0000000000e+00 
          -2.0982935683e-04 -4.5108132697e-04 0.0000000000e+00 
          -2.1495032449e-04 -4.5153099115e-04 0.0000000000e+00 
          -2.1974976269e-04 -4.5194950893e-04 0.0000000000e+00 
          -2.2422100570e-04 -4.5233700151e-04 0.0000000000e+00 
          -2.2835784580e-04 -4.5269359237e-04 0.0000000000e+00 
          -2.3215452457e-04 -4.5301911285e-04 0.0000000000e+00 
          -2.3560576217e-04 -4.5331362730e-04 0.0000000000e+00 
          -2.3870676888e-04 -4.5357716873e-04 0.0000000000e+00 
          -2.4145320470e-04 -4.5380968634e-04 0.0000000000e+00 
          -2.4384124470e-04 -4.5401120389e-04 0.0000000000e+00 
          -2.4586757554e-04 -4.5418172713e-04 0.0000000000e+00 
          -2.4752934120e-04 -4.5432123838e-04 0.0000000000e+00 
          -2.4882424292e-04 -4.5442974507e-04 0.0000000000e+00 
          -2.4975047285e-04 -4.5450725314e-04 0.0000000000e+00 
          -2.5030672059e-04 -4.5455375969e-04 0.0000000000e+00 
          -2.4429011325e-05 -4.3218469895e-04 0.0000000000e+00 
          -3.4246758166e-05 -4.3334735777e-04 0.0000000000e+00 
          -4.3992620813e-05 -4.3447898408e-04 0.0000000000e+00 
          -5.3653092257e-05 -4.3557966377e-04 0.0000000000e+00 
          -6.3214755616e-05 -4.3664926073e-04 0.0000000000e+00 
          -7.2664362377e-05 -4.3768795192e-04 0.0000000000e+00 
          -8.1988829549e-05 -4.3869548405e-04 0.0000000000e+00 
          -9.1175296556e-05 -4.3967221944e-04 0.0000000000e+00 
          -1.0021108228e-04 -4.4061770685e-04 0.0000000000e+00 
          -1.0908371401e-04 -4.4153244676e-04 0.0000000000e+00 
          -1.1778093934e-04 -4.4241592778e-04 0.0000000000e+00 
          -1.2629081164e-04 -4.4326862698e-04 0.0000000000e+00 
          -1.3460158410e-04 -4.4409017389e-04 0.0000000000e+00 
          -1.4270181215e-04 -4.4488071052e-04 0.0000000000e+00 
          -1.5058032928e-04 -4.4564042437e-04 0.0000000000e+00 
          -1.5822626923e-04 -4.4636885512e-04 0.0000000000e+00 
          -1.6562911326e-04 -4.4706658857e-04 0.0000000000e+00 
          -1.7277863613e-04 -4.4773300229e-04 0.0000000000e+00 
          -1.7966498011e-04 -4.4836861856e-04 0.0000000000e+00 
          -1.8627862240e-04 -4.4897329056e-04 0.0000000000e+00 
          -1.9261043967e-04 -4.4954663261e-04 0.0000000000e+00 
          -1.9865167782e-04 -4.5008934121e-04 0.0000000000e+00 
          -2.0439397111e-04 -4.5060089662e-04 0.0000000000e+00 
          -2.0982935683e-04 -4.5108132697e-04 0.0000000000e+00 
          -2.1495032449e-04 -4.5153099115e-04 0.0000000000e+00 
          -2.1974976269e-04 -4.5194950893e-04 0.0000000000e+00 
          -2.2422100570e-04 -4.5233700151e-04 0.0000000000e+00 
          -2.2835784580e-04 -4.5269359237e-04 0.0000000000e+00 
          -2.3215452457e-04 -4.5301911285e-04 0.0000000000e+00 
          -2.3560576217e-04 -4.5331362730e-04 0.0000000000e+00 
          -2.3870676888e-04 -4.5357716873e-04 0.0000000000e+00 
          -2.4145320470e-04 -4.5380968634e-04 0.0000000000e+00 
          -2.4384124470e-04 -4.5401120389e-04 0.0000000000e+00 
          -2.4586757554e-04 -4.5418172713e-04 0.0000000000e+00 
          -2.4752934120e-04 -4.5432123838e-04 0.0000000000e+00 
          -2.4882424292e-04 -4.5442974507e-04 0.0000000000e+00 
          -2.4975047285e-04 -4.5450725314e-04 0.0000000000e+00 
          -2.5030672059e-04 -4.5455375969e-04 0.0000000000e+00 
        </DataArray>
        <DataArray type="Float64" Name="Acceleration" NumberOfComponents="3" format="ascii">
          4.0008243107e-03 -1.8407369484e-07 0.0000000000e+00 
          4.0008243107e-03 -1.8407369484e-07 0.0000000000e+00 
          3.3427857078e-02 -2.4505253005e-07 0.0000000000e+00 
          3.3427857078e-02 -2.4505253005e-07 0.0000000000e+00 
          5.2431999688e-03 -1.6165938464e-06 0.0000000000e+00 
          6.4757704866e-03 4.4548203013e-06 0.0000000000e+00 
          7.6950625752e-03 -1.0492698986e-05 0.0000000000e+00 
          8.9028036324e-03 1.3766528481e-05 0.0000000000e+00 
          1.0096520708e-02 -1.8123179736e-05 0.0000000000e+00 
          1.1274239223e-02 2.7290155193e-05 0.0000000000e+00 
          1.2435187735e-02 -3.7532549045e-05 0.0000000000e+00 
          1.3576681251e-02 4.3547279365e-05 0.0000000000e+00 
          1.4700497274e-02 -4.6644750557e-05 0.0000000000e+00 
          1.5803453406e-02 4.5307864894e-05 0.0000000000e+00 
          1.6881908925e-02 -4.0248958376e-05 0.0000000000e+00 
          1.7939288069e-02 2.6302789877e-05 0.0000000000e+00 
          1.8970468052e-02 7.0983261979e-07 0.0000000000e+00 
          1.9976591229e-02 -3.3078293033e-05 0.0000000000e+00 
          2.0954780728e-02 4.9707272896e-05 0.0000000000e+00 
          2.1904332744e-02 -5.5516001069e-05 0.0000000000e+00 
          2.2824737206e-02 5.6475212683e-05 0.0000000000e+00 
          2.3712936990e-02 -3.7641327271e-05 0.0000000000e+00 
          2.4570202804e-02 -1.1323091181e-05 0.0000000000e+00 
          2.5393781580e-02 5.8460630938e-05 0.0000000000e+00 
          2.6181752516e-02 -6.7195458511e-05 0.0000000000e+00 
          2.6935522335e-02 2.6464340771e-05 0.0000000000e+00 
          2.7652359733e-02 2.1284972718e-05 0.0000000000e+00 
          2.8330342305e-02 -4.3163879917e-05 0.0000000000e+00 
          2.8970440035e-02 2.5241150964e-05 0.0000000000e+00 
          2.9571035315e-02 3.4000473449e-06 0.0000000000e+00 
          3.0130361685e-02 -1.8854424068e-05 0.0000000000e+00 
          3.0648782690e-02 1.1469915266e-05 0.0000000000e+00 
          3.1125397481e-02 2.3819693107e-08 0.0000000000e+00 
          3.1556494262e-02 -6.0049263299e-06 0.0000000000e+00 
          3.1947537764e-02 3.1509990085e-06 0.0000000000e+00 
          3.2291911287e-02 -1.1734935074e-06 0.0000000000e+00 
          3.2591011718e-02 -2.1163834996e-06 0.0000000000e+00 
          3.2848042657e-02 1.0171465366e-06 0.0000000000e+00 
          3.3055164478e-02 -3.2000061995e-07 0.0000000000e+00 
          3.3217970899e-02 -1.4047653688e-06 0.0000000000e+00 
          3.3336254756e-02 -8.4549555168e-07 0.0000000000e+00 
          3.3405091943e-02 -4.1066401907e-07 0.0000000000e+00 
          5.2431999688e-03 -1.6165938464e-06 0.0000000000e+00 
          6.4757704866e-03 4.4548203013e-06 0.0000000000e+00 
          7.6950625752e-03 -1.0492698986e-05 0.0000000000e+00 
          8.9028036324e-03 1.3766528481e-05 0.0000000000e+00 
          1.0096520708e-02 -1.8123179736e-05 0.0000000000e+00 
          1.1274239223e-02 2.7290155193e-05 0.0000000000e+00 
          1.2435187735e-02 -3.7532549045e-05 0.0000000000e+00 
          1.3576681251e-02 4.3547279365e-05 0.0000000000e+00 
          1.4700497274e-02 -4.6644750557e-05 0.0000000000e+00 
          1.5803453406e-02 4.5307864894e-05 0.0000000000e+00 
          1.6881908925e-02 -4.0248958376e-05 0.0000000000e+00 
          1.7939288069e-02 2.6302789877e-05 0.0000000000e+00 
          1.8970468052e-02 7.0983261979e-07 0.0000000000e+00 
          1.9976591229e-02 -3.3078293033e-05 0.0000000000e+00 
          2.0954780728e-02 4.9707272896e-05 0.0000000000e+00 
          2.1904332744e-02 -5.5516001069e-05 0.0000000000e+00 
          2.2824737206e-02 5.6475212683e-05 0.0000000000e+00 
          2.3712936990e-02 -3.7641327271e-05 0.0000000000e+00 
          2.4570202804e-02 -1.1323091181e-05 0.0000000000e+00 
          2.5393781580e-02 5.8460630938e-05 0.0000000000e+00 
          2.6181752516e-02 -6.7195458511e-05 0.0000000000e+00 
          2.6935522335e-02 2.6464340771e-05 0.0000000000e+00 
          2.7652359733e-02 2.1284972718e-05 0.0000000000e+00 
          2.8330342305e-02 -4.3163879917e-05 0.0000000000e+00 
          2.8970440035e-02 2.5241150964e-05 0.0000000000e+00 
          2.9571035315e-02 3.4000473449e-06 0.0000000000e+00 
          3.0130361685e-02 -1.8854424068e-05 0.0000000000e+00 
          3.0648782690e-02 1.1469915266e-05 0.0000000000e+00 
          3.1125397481e-02 2.3819693107e-08 0.0000000000e+00 
          3.1556494262e-02 -6.0049263299e-06 0.0000000000e+00 
          3.1947537764e-02 3.1509990085e-06 0.0000000000e+00 
          3.2291911287e-02 -1.1734935074e-06 0.0000000000e+00 
          3.2591011718e-02 -2.1163834996e-06 0.0000000000e+00 
          3.2848042657e-02 1.0171465366e-06 0.0000000000e+00 
          3.3055164478e-02 -3.2000061995e-07 0.0000000000e+00 
          3.3217970899e-02 -1.4047653688e-06 0.0000000000e+00 
          3.3336254756e-02 -8.4549555168e-07 0.0000000000e+00 
          3.3405091943e-02 -4.1066401907e-07 0.0000000000e+00 
        </DataArray>
        <DataArray type="Float64" Name="Reaction" NumberOfComponents="3" format="ascii">
          0.0000000000e+00 0.0000000000e+00 0.0000000000e+00 
          0.0000000000e+00 0.0000000000e+00 0.0000000000e+00 
          0.0000000000e+00 0.0000000000e+00 0.0000000000e+00 
          0.0000000000e+00 0.0000000000e+00 0.0000000000e+00 
          0.0000000000e+00 0.0000000000e+00 0.0000000000e+00 
          0.0000000000e+00 0.0000000000e+00 0.0000000000e+00 
          0.0000000000e+00 0.0000000000e+00 0.0000000000e+00 
          0.0000000000e+00 0.0000000000e+00 0.0000000000e+00 
          0.0000000000e+00 0.0000000000e+00 0.0000000000e+00 
          0.0000000000e+00 0.0000000000e+00 0.0000000000e+00 
          0.0000000000e+00 0.0000000000e+00 0.0000000000e+00 
          0.0000000000e+00 0.0000000000e+00 0.0000000000e+00 
          0.0000000000e+00 0.0000000000e+00 0.0000000000e+00 
          0.0000000000e+00 0.0000000000e+00 0.0000000000e+00 
          0.0000000000e+00 0.0000000000e+00 0.0000000000e+00 
          0.0000000000e+00 0.0000000000e+00 0.0000000000e+00 
          0.0000000000e+00 0.0000000000e+00 0.0000000000e+00 
          0.0000000000e+00 0.0000000000e+00 0.0000000000e+00 
          0.0000000000e+00 0.0000000000e+00 0.0000000000e+00 
          0.0000000000e+00 0.0000000000e+00 0.0000000000e+00 
          0.0000000000e+00 0.0000000000e+00 0.0000000000e+00 
          0.0000000000e+00 0.0000000000e+00 0.0000000000e+00 
          0.0000000000e+00 0.0000000000e+00 0.0000000000e+00 
          0.0000000000e+00 0.0000000000e+00 0.0000000000e+00 
          0.0000000000e+00 0.0000000000e+00 0.0000000000e+00 
          0.0000000000e+00 0.0000000000e+00 0.0000000000e+00 
          0.0000000000e+00 0.0000000000e+00 0.0000000000e+00 
          0.0000000000e+00 0.0000000000e+00 0.0000000000e+00 
          0.0000000000e+00 0.0000000000e+00 0.0000000000e+00 
          0.0000000000e+00 0.0000000000e+00 0.0000000000e+00 
          0.0000000000e+00 0.0000000000e+00 0.0000000000e+00 
          0.0000000000e+00 0.0000000000e+00 0.0000000000e+00 
          0.0000000000e+00 0.0000000000e+00 0.0000000000e+00 
          0.0000000000e+00 0.0000000000e+00 0.0000000000e+00 
          0.0000000000e+00 0.0000000000e+00 0.0000000000e+00 
          0.0000000000e+00 0.0000000000e+00 0.0000000000e+00 
          0.0000000000e+00 0.0000000000e+00 0.0000000000e+00 
          0.0000000000e+00 0.0000000000e+00 0.0000000000e+00 
          0.0000000000e+00 0.0000000000e+00 0.0000000000e+00 
          0.0000000000e+00 0.0000000000e+00 0.0000000000e+00 
          0.0000000000e+00 0.0000000000e+00 0.0000000000e+00 
          0.0000000000e+00 0.0000000000e+00 0.0000000000e+00 
          0.0000000000e+00 0.0000000000e+00 0.0000000000e+00 
          0.0000000000e+00 0.0000000000e+00 0.0000000000e+00 
          0.0000000000e+00 0.0000000000e+00 0.0000000000e+00 
          0.0000000000e+00 0.0000000000e+00 0.0000000000e+00 
          0.0000000000e+00 0.0000000000e+00 0.0000000000e+00 
          0.0000000000e+00 0.0000000000e+00 0.0000000000e+00 
          0.0000000000e+00 0.0000000000e+00 0.0000000000e+00 
          0.0000000000e+00 0.0000000000e+00 0.0000000000e+00 
          0.0000000000e+00 0.0000000000e+00 0.0000000000e+00 
          0.0000000000e+00 0.0000000000e+00 0.0000000000e+00 
          0.0000000000e+00 0.0000000000e+00 0.0000000000e+00 
          0.0000000000e+00 0.0000000000e+00 0.0000000000e+00 
          0.0000000000e+00 0.0000000000e+00 0.0000000000e+00 
          0.0000000000e+00 0.0000000000e+00 0.0000000000e+00 
          0.0000000000e+00 0.0000000000e+00 0.0000000000e+00 
          0.0000000000e+00 0.0000000000e+00 0.0000000000e+00 
          0.0000000000e+00 0.0000000000e+00 0.0000000000e+00 
          0.0000000000e+00 0.0000000000e+00 0.0000000000e+00 
          0.0000000000e+00 0.0000000000e+00 0.0000000000e+00 
          0.0000000000e+00 0.0000000000e+00 0.0000000000e+00 
          0.0000000000e+00 0.0000000000e+00 0.0000000000e+00 
          0.0000000000e+00 0.0000000000e+00 0.0000000000e+00 
          0.0000000000e+00 0.0000000000e+00 0.0000000000e+00 
          0.0000000000e+00 0.0000000000e+00 0.0000000000e+00 
          0.0000000000e+00 0.0000000000e+00 0.0000000000e+00 
          0.0000000000e+00 0.0000000000e+00 0.0000000000e+00 
          0.0000000000e+00 0.0000000000e+00 0.0000000000e+00 
          0.0000000000e+00 0.0000000000e+00 0.0000000000e+00 
          0.0000000000e+00 0.0000000000e+00 0.0000000000e+00 
          0.0000000000e+00 0.0000000000e+00 0.0000000000e+00 
          0.0000000000e+00 0.0000000000e+00 0.0000000000e+00 
          0.0000000000e+00 0.0000000000e+00 0.0000000000e+00 
          0.0000000000e+00 0.0000000000e+00 0.0000000000e+00 
          0.0000000000e+00 0.0000000000e+00 0.0000000000e+00 
          0.0000000000e+00 0.0000000000e+00 0.0000000000e+00 
          0.0000000000e+00 0.0000000000e+00 0.0000000000e+00 
          0.0000000000e+00 0.0000000000e+00 0.0000000000e+00 
          0.0000000000e+00 0.0000000000e+00 0.0000000000e+00 
        </DataArray>
      </PointData>
      <CellData>
        <DataArray type="Int64" Name="ElementTag" format="ascii">
          90
          91
          92
          93
          94
          95
          96
          97
          98
          99
          100
          101
          102
          103
          104
          105
          106
          107
          108
          109
          110
          111
          112
          113
          114
          115
          116
          117
          118
          119
          120
          121
          122
          123
          124
          125
          126
          127
          128
        </DataArray>
      </CellData>
    </Piece>
  </UnstructuredGrid>
</VTKFile>
