<?xml version="1.0"?>
<VTKFile type="UnstructuredGrid" version="1.0" byte_order="LittleEndian" compressor="vtkZLibDataCompressor">
  <UnstructuredGrid>
    <Piece NumberOfPoints="82" NumberOfCells="1">
      <Points>
        <DataArray type="Float64" Name="Points" NumberOfComponents="3" format="ascii">
          0.0000000000e+00 0.0000000000e+00 0.0000000000e+00 
          2.5000000000e-01 0.0000000000e+00 0.0000000000e+00 
          2.5000000000e-01 3.0000000000e+01 0.0000000000e+00 
          0.0000000000e+00 3.0000000000e+01 0.0000000000e+00 
          0.0000000000e+00 -5.0000000000e+00 0.0000000000e+00 
          2.5000000000e-01 -5.0000000000e+00 0.0000000000e+00 
          2.5000000000e-01 7.6923100000e-01 0.0000000000e+00 
          2.5000000000e-01 1.5384620000e+00 0.0000000000e+00 
          2.5000000000e-01 2.3076920000e+00 0.0000000000e+00 
          2.5000000000e-01 3.0769230000e+00 0.0000000000e+00 
          2.5000000000e-01 3.8461540000e+00 0.0000000000e+00 
          2.5000000000e-01 4.6153850000e+00 0.0000000000e+00 
          2.5000000000e-01 5.3846150000e+00 0.0000000000e+00 
          2.5000000000e-01 6.1538460000e+00 0.0000000000e+00 
          2.5000000000e-01 6.9230770000e+00 0.0000000000e+00 
          2.5000000000e-01 7.6923080000e+00 0.0000000000e+00 
          2.5000000000e-01 8.4615380000e+00 0.0000000000e+00 
          2.5000000000e-01 9.2307690000e+00 0.0000000000e+00 
          2.5000000000e-01 1.0000000000e+01 0.0000000000e+00 
          2.5000000000e-01 1.0769231000e+01 0.0000000000e+00 
          2.5000000000e-01 1.1538462000e+01 0.0000000000e+00 
          2.5000000000e-01 1.2307692000e+01 0.0000000000e+00 
          2.5000000000e-01 1.3076923000e+01 0.0000000000e+00 
          2.5000000000e-01 1.3846154000e+01 0.0000000000e+00 
          2.5000000000e-01 1.4615385000e+01 0.0000000000e+00 
          2.5000000000e-01 1.5384615000e+01 0.0000000000e+00 
          2.5000000000e-01 1.6153846000e+01 0.0000000000e+00 
          2.5000000000e-01 1.6923077000e+01 0.0000000000e+00 
          2.5000000000e-01 1.7692308000e+01 0.0000000000e+00 
          2.5000000000e-01 1.8461538000e+01 0.0000000000e+00 
          2.5000000000e-01 1.9230769000e+01 0.0000000000e+00 
          2.5000000000e-01 2.0000000000e+01 0.0000000000e+00 
          2.5000000000e-01 2.0769231000e+01 0.0000000000e+00 
          2.5000000000e-01 2.1538462000e+01 0.0000000000e+00 
          2.5000000000e-01 2.2307692000e+01 0.0000000000e+00 
          2.5000000000e-01 2.3076923000e+01 0.0000000000e+00 
          2.5000000000e-01 2.3846154000e+01 0.0000000000e+00 
          2.5000000000e-01 2.4615385000e+01 0.0000000000e+00 
          2.5000000000e-01 2.5384615000e+01 0.0000000000e+00 
          2.5000000000e-01 2.6153846000e+01 0.0000000000e+00 
          2.5000000000e-01 2.6923077000e+01 0.0000000000e+00 
          2.5000000000e-01 2.7692308000e+01 0.0000000000e+00 
          2.5000000000e-01 2.8461538000e+01 0.0000000000e+00 
          2.5000000000e-01 2.9230769000e+01 0.0000000000e+00 
          0.0000000000e+00 7.6923100000e-01 0.0000000000e+00 
          0.0000000000e+00 1.5384620000e+00 0.0000000000e+00 
          0.0000000000e+00 2.3076920000e+00 0.0000000000e+00 
          0.0000000000e+00 3.0769230000e+00 0.0000000000e+00 
          0.0000000000e+00 3.8461540000e+00 0.0000000000e+00 
          0.0000000000e+00 4.6153850000e+00 0.0000000000e+00 
          0.0000000000e+00 5.3846150000e+00 0.0000000000e+00 
          0.0000000000e+00 6.1538460000e+00 0.0000000000e+00 
          0.0000000000e+00 6.9230770000e+00 0.0000000000e+00 
          0.0000000000e+00 7.6923080000e+00 0.0000000000e+00 
          0.0000000000e+00 8.4615380000e+00 0.0000000000e+00 
          0.0000000000e+00 9.2307690000e+00 0.0000000000e+00 
          0.0000000000e+00 1.0000000000e+01 0.0000000000e+00 
          0.0000000000e+00 1.0769231000e+01 0.0000000000e+00 
          0.0000000000e+00 1.1538462000e+01 0.0000000000e+00 
          0.0000000000e+00 1.2307692000e+01 0.0000000000e+00 
          0.0000000000e+00 1.3076923000e+01 0.0000000000e+00 
          0.0000000000e+00 1.3846154000e+01 0.0000000000e+00 
          0.0000000000e+00 1.4615385000e+01 0.0000000000e+00 
          0.0000000000e+00 1.5384615000e+01 0.0000000000e+00 
          0.0000000000e+00 1.6153846000e+01 0.0000000000e+00 
          0.0000000000e+00 1.6923077000e+01 0.0000000000e+00 
          0.0000000000e+00 1.7692308000e+01 0.0000000000e+00 
          0.0000000000e+00 1.8461538000e+01 0.0000000000e+00 
          0.0000000000e+00 1.9230769000e+01 0.0000000000e+00 
          0.0000000000e+00 2.0000000000e+01 0.0000000000e+00 
          0.0000000000e+00 2.0769231000e+01 0.0000000000e+00 
          0.0000000000e+00 2.1538462000e+01 0.0000000000e+00 
          0.0000000000e+00 2.2307692000e+01 0.0000000000e+00 
          0.0000000000e+00 2.3076923000e+01 0.0000000000e+00 
          0.0000000000e+00 2.3846154000e+01 0.0000000000e+00 
          0.0000000000e+00 2.4615385000e+01 0.0000000000e+00 
          0.0000000000e+00 2.5384615000e+01 0.0000000000e+00 
          0.0000000000e+00 2.6153846000e+01 0.0000000000e+00 
          0.0000000000e+00 2.6923077000e+01 0.0000000000e+00 
          0.0000000000e+00 2.7692308000e+01 0.0000000000e+00 
          0.0000000000e+00 2.8461538000e+01 0.0000000000e+00 
          0.0000000000e+00 2.9230769000e+01 0.0000000000e+00 
        </DataArray>
      </Points>
      <Cells>
        <DataArray type="Int64" Name="connectivity" format="ascii">
          0
          1
          2
          3
          4
          5
          6
          7
          8
          9
          10
          11
          12
          13
          14
          15
          16
          17
          18
          19
          20
          21
          22
          23
          24
          25
          26
          27
          28
          29
          30
          31
          32
          33
          34
          35
          36
          37
          38
          39
          40
          41
          42
          43
          44
          45
          46
          47
          48
          49
          50
          51
          52
          53
          54
          55
          56
          57
          58
          59
          60
          61
          62
          63
          64
          65
          66
          67
          68
          69
          70
          71
          72
          73
          74
          75
          76
          77
          78
          79
          80
          81
        </DataArray>
        <DataArray type="Int64" Name="offsets" format="ascii">
          82
        </DataArray>
        <DataArray type="Int64" Name="types" format="ascii">
          2
        </DataArray>
      </Cells>
      <PointData>
        <DataArray type="Int64" Name="NodeTag" format="ascii">
          1
          2
          3
          4
          5
          6
          7
          8
          9
          10
          11
          12
          13
          14
          15
          16
          17
          18
          19
          20
          21
          22
          23
          24
          25
          26
          27
          28
          29
          30
          31
          32
          33
          34
          35
          36
          37
          38
          39
          40
          41
          42
          43
          44
          45
          46
          47
          48
          49
          50
          51
          52
          53
          54
          55
          56
          57
          58
          59
          60
          61
          62
          63
          64
          65
          66
          67
          68
          69
          70
          71
          72
          73
          74
          75
          76
          77
          78
          79
          80
          81
          82
        </DataArray>
        <DataArray type="Float64" Name="Velocity" NumberOfComponents="3" format="ascii">
          -3.9696786549e-02 -7.7410115450e-05 0.0000000000e+00 
          -3.9696786549e-02 -7.7410115450e-05 0.0000000000e+00 
          5.2429242315e-03 -7.6300850023e-05 0.0000000000e+00 
          5.2429242315e-03 -7.6300850023e-05 0.0000000000e+00 
          0.0000000000e+00 0.0000000000e+00 0.0000000000e+00 
          0.0000000000e+00 0.0000000000e+00 0.0000000000e+00 
          -3.8403171250e-02 -7.7240754955e-05 0.0000000000e+00 
          -3.7053140088e-02 -7.7268849840e-05 0.0000000000e+00 
          -3.5652172365e-02 -7.6968916503e-05 0.0000000000e+00 
          -3.4205886112e-02 -7.7066050311e-05 0.0000000000e+00 
          -3.2719899147e-02 -7.6816625948e-05 0.0000000000e+00 
          -3.1199821870e-02 -7.6815214085e-05 0.0000000000e+00 
          -2.9651353899e-02 -7.6760140411e-05 0.0000000000e+00 
          -2.8080094720e-02 -7.6604766888e-05 0.0000000000e+00 
          -2.6491672595e-02 -7.6695449962e-05 0.0000000000e+00 
          -2.4891710111e-02 -7.6570607093e-05 0.0000000000e+00 
          -2.3285729143e-02 -7.6397556558e-05 0.0000000000e+00 
          -2.1679234016e-02 -7.6324859987e-05 0.0000000000e+00 
          -2.0077623213e-02 -7.6247845043e-05 0.0000000000e+00 
          -1.8486256429e-02 -7.6260121285e-05 0.0000000000e+00 
          -1.6910409980e-02 -7.6259116328e-05 0.0000000000e+00 
          -1.5355205451e-02 -7.6251052915e-05 0.0000000000e+00 
          -1.3825659209e-02 -7.6491462671e-05 0.0000000000e+00 
          -1.2326669650e-02 -7.6281091213e-05 0.0000000000e+00 
          -1.0863035966e-02 -7.6174210158e-05 0.0000000000e+00 
          -9.4393735584e-03 -7.6509314041e-05 0.0000000000e+00 
          -8.0601288043e-03 -7.6412866060e-05 0.0000000000e+00 
          -6.7296050871e-03 -7.6268296631e-05 0.0000000000e+00 
          -5.4519435204e-03 -7.6470216062e-05 0.0000000000e+00 
          -4.2310676123e-03 -7.6473803905e-05 0.0000000000e+00 
          -3.0707052483e-03 -7.6412877738e-05 0.0000000000e+00 
          -1.9744266685e-03 -7.6517689144e-05 0.0000000000e+00 
          -9.4555136079e-04 -7.6438736445e-05 0.0000000000e+00 
          1.2799824218e-05 -7.6569476524e-05 0.0000000000e+00 
          8.9772561194e-04 -7.6493251670e-05 0.0000000000e+00 
          1.7065735811e-03 -7.6491981875e-05 0.0000000000e+00 
          2.4368903975e-03 -7.6625645961e-05 0.0000000000e+00 
          3.0865273399e-03 -7.6422502533e-05 0.0000000000e+00 
          3.6535065848e-03 -7.6484255589e-05 0.0000000000e+00 
          4.1361389088e-03 -7.6425243149e-05 0.0000000000e+00 
          4.5330171228e-03 -7.6455768111e-05 0.0000000000e+00 
          4.8429170002e-03 -7.6471569973e-05 0.0000000000e+00 
          5.0649250967e-03 -7.6394605989e-05 0.0000000000e+00 
          5.1983910293e-03 -7.6347045739e-05 0.0000000000e+00 
          -3.8403171250e-02 -7.7240754955e-05 0.0000000000e+00 
          -3.7053140088e-02 -7.7268849840e-05 0.0000000000e+00 
          -3.5652172365e-02 -7.6968916503e-05 0.0000000000e+00 
          -3.4205886112e-02 -7.7066050311e-05 0.0000000000e+00 
          -3.2719899147e-02 -7.6816625948e-05 0.0000000000e+00 
          -3.1199821870e-02 -7.6815214085e-05 0.0000000000e+00 
          -2.9651353899e-02 -7.6760140411e-05 0.0000000000e+00 
          -2.8080094720e-02 -7.6604766888e-05 0.0000000000e+00 
          -2.6491672595e-02 -7.6695449962e-05 0.0000000000e+00 
          -2.4891710111e-02 -7.6570607093e-05 0.0000000000e+00 
          -2.3285729143e-02 -7.6397556558e-05 0.0000000000e+00 
          -2.1679234016e-02 -7.6324859987e-05 0.0000000000e+00 
          -2.0077623213e-02 -7.6247845043e-05 0.0000000000e+00 
          -1.8486256429e-02 -7.6260121285e-05 0.0000000000e+00 
          -1.6910409980e-02 -7.6259116328e-05 0.0000000000e+00 
          -1.5355205451e-02 -7.6251052915e-05 0.0000000000e+00 
          -1.3825659209e-02 -7.6491462671e-05 0.0000000000e+00 
          -1.2326669650e-02 -7.6281091213e-05 0.0000000000e+00 
          -1.0863035966e-02 -7.6174210158e-05 0.0000000000e+00 
          -9.4393735584e-03 -7.6509314041e-05 0.0000000000e+00 
          -8.0601288043e-03 -7.6412866060e-05 0.0000000000e+00 
          -6.7296050871e-03 -7.6268296631e-05 0.0000000000e+00 
          -5.4519435204e-03 -7.6470216062e-05 0.0000000000e+00 
          -4.2310676123e-03 -7.6473803905e-05 0.0000000000e+00 
          -3.0707052483e-03 -7.6412877738e-05 0.0000000000e+00 
          -1.9744266685e-03 -7.6517689144e-05 0.0000000000e+00 
          -9.4555136079e-04 -7.6438736445e-05 0.0000000000e+00 
          1.2799824218e-05 -7.6569476524e-05 0.0000000000e+00 
          8.9772561194e-04 -7.6493251670e-05 0.0000000000e+00 
          1.7065735811e-03 -7.6491981875e-05 0.0000000000e+00 
          2.4368903975e-03 -7.6625645961e-05 0.0000000000e+00 
          3.0865273399e-03 -7.6422502533e-05 0.0000000000e+00 
          3.6535065848e-03 -7.6484255589e-05 0.0000000000e+00 
          4.1361389088e-03 -7.6425243149e-05 0.0000000000e+00 
          4.5330171228e-03 -7.6455768111e-05 0.0000000000e+00 
          4.8429170002e-03 -7.6471569973e-05 0.0000000000e+00 
          5.0649250967e-03 -7.6394605989e-05 0.0000000000e+00 
          5.1983910293e-03 -7.6347045739e-05 0.0000000000e+00 
        </DataArray>
        <DataArray type="Float64" Name="Displacement" NumberOfComponents="3" format="ascii">
          3.2929244535e-04 -2.2627842197e-04 0.0000000000e+00 
          3.2929244535e-04 -2.2627842197e-04 0.0000000000e+00 
          -1.5868241982e-02 -2.4969050783e-04 0.0000000000e+00 
          -1.5868241982e-02 -2.4969050783e-04 0.0000000000e+00 
          0.0000000000e+00 0.0000000000e+00 0.0000000000e+00 
          0.0000000000e+00 0.0000000000e+00 0.0000000000e+00 
          -3.2951798098e-04 -2.2746538764e-04 0.0000000000e+00 
          -9.8645804184e-04 -2.2862139050e-04 0.0000000000e+00 
          -1.6405054772e-03 -2.2974636479e-04 0.0000000000e+00 
          -2.2906465971e-03 -2.3084033960e-04 0.0000000000e+00 
          -2.9358726329e-03 -2.3190305571e-04 0.0000000000e+00 
          -3.5751842601e-03 -2.3293489396e-04 0.0000000000e+00 
          -4.2075914001e-03 -2.3393567286e-04 0.0000000000e+00 
          -4.8321177653e-03 -2.3490556400e-04 0.0000000000e+00 
          -5.4477968947e-03 -2.3584471597e-04 0.0000000000e+00 
          -6.0536769031e-03 -2.3675261205e-04 0.0000000000e+00 
          -6.6488200675e-03 -2.3762989621e-04 0.0000000000e+00 
          -7.2323073412e-03 -2.3847579516e-04 0.0000000000e+00 
          -7.8032347238e-03 -2.3929113438e-04 0.0000000000e+00 
          -8.3607177136e-03 -2.4007594785e-04 0.0000000000e+00 
          -8.9038918839e-03 -2.4082934339e-04 0.0000000000e+00 
          -9.4319132359e-03 -2.4155193993e-04 0.0000000000e+00 
          -9.9439624997e-03 -2.4224423355e-04 0.0000000000e+00 
          -1.0439241929e-02 -2.4290545024e-04 0.0000000000e+00 
          -1.0916979383e-02 -2.4353577562e-04 0.0000000000e+00 
          -1.1376428488e-02 -2.4413558711e-04 0.0000000000e+00 
          -1.1816871820e-02 -2.4470458074e-04 0.0000000000e+00 
          -1.2237618919e-02 -2.4524297835e-04 0.0000000000e+00 
          -1.2638009570e-02 -2.4575091716e-04 0.0000000000e+00 
          -1.3017413827e-02 -2.4622767044e-04 0.0000000000e+00 
          -1.3375235332e-02 -2.4667364859e-04 0.0000000000e+00 
          -1.3710909204e-02 -2.4708965776e-04 0.0000000000e+00 
          -1.4023905144e-02 -2.4747458786e-04 0.0000000000e+00 
          -1.4313727794e-02 -2.4782864379e-04 0.0000000000e+00 
          -1.4579917454e-02 -2.4815213185e-04 0.0000000000e+00 
          -1.4822052379e-02 -2.4844464195e-04 0.0000000000e+00 
          -1.5039747358e-02 -2.4870628537e-04 0.0000000000e+00 
          -1.5232655891e-02 -2.4893719875e-04 0.0000000000e+00 
          -1.5400470454e-02 -2.4913689180e-04 0.0000000000e+00 
          -1.5542923789e-02 -2.4930613710e-04 0.0000000000e+00 
          -1.5659788285e-02 -2.4944425429e-04 0.0000000000e+00 
          -1.5750877283e-02 -2.4955187044e-04 0.0000000000e+00 
          -1.5816045019e-02 -2.4962886847e-04 0.0000000000e+00 
          -1.5855187498e-02 -2.4967485807e-04 0.0000000000e+00 
          -3.2951798098e-04 -2.2746538764e-04 0.0000000000e+00 
          -9.8645804184e-04 -2.2862139050e-04 0.0000000000e+00 
          -1.6405054772e-03 -2.2974636479e-04 0.0000000000e+00 
          -2.2906465971e-03 -2.3084033960e-04 0.0000000000e+00 
          -2.9358726329e-03 -2.3190305571e-04 0.0000000000e+00 
          -3.5751842601e-03 -2.3293489396e-04 0.0000000000e+00 
          -4.2075914001e-03 -2.3393567286e-04 0.0000000000e+00 
          -4.8321177653e-03 -2.3490556400e-04 0.0000000000e+00 
          -5.4477968947e-03 -2.3584471597e-04 0.0000000000e+00 
          -6.0536769031e-03 -2.3675261205e-04 0.0000000000e+00 
          -6.6488200675e-03 -2.3762989621e-04 0.0000000000e+00 
          -7.2323073412e-03 -2.3847579516e-04 0.0000000000e+00 
          -7.8032347238e-03 -2.3929113438e-04 0.0000000000e+00 
          -8.3607177136e-03 -2.4007594785e-04 0.0000000000e+00 
          -8.9038918839e-03 -2.4082934339e-04 0.0000000000e+00 
          -9.4319132359e-03 -2.4155193993e-04 0.0000000000e+00 
          -9.9439624997e-03 -2.4224423355e-04 0.0000000000e+00 
          -1.0439241929e-02 -2.4290545024e-04 0.0000000000e+00 
          -1.0916979383e-02 -2.4353577562e-04 0.0000000000e+00 
          -1.1376428488e-02 -2.4413558711e-04 0.0000000000e+00 
          -1.1816871820e-02 -2.4470458074e-04 0.0000000000e+00 
          -1.2237618919e-02 -2.4524297835e-04 0.0000000000e+00 
          -1.2638009570e-02 -2.4575091716e-04 0.0000000000e+00 
          -1.3017413827e-02 -2.4622767044e-04 0.0000000000e+00 
          -1.3375235332e-02 -2.4667364859e-04 0.0000000000e+00 
          -1.3710909204e-02 -2.4708965776e-04 0.0000000000e+00 
          -1.4023905144e-02 -2.4747458786e-04 0.0000000000e+00 
          -1.4313727794e-02 -2.4782864379e-04 0.0000000000e+00 
          -1.4579917454e-02 -2.4815213185e-04 0.0000000000e+00 
          -1.4822052379e-02 -2.4844464195e-04 0.0000000000e+00 
          -1.5039747358e-02 -2.4870628537e-04 0.0000000000e+00 
          -1.5232655891e-02 -2.4893719875e-04 0.0000000000e+00 
          -1.5400470454e-02 -2.4913689180e-04 0.0000000000e+00 
          -1.5542923789e-02 -2.4930613710e-04 0.0000000000e+00 
          -1.5659788285e-02 -2.4944425429e-04 0.0000000000e+00 
          -1.5750877283e-02 -2.4955187044e-04 0.0000000000e+00 
          -1.5816045019e-02 -2.4962886847e-04 0.0000000000e+00 
          -1.5855187498e-02 -2.4967485807e-04 0.0000000000e+00 
        </DataArray>
        <DataArray type="Float64" Name="Acceleration" NumberOfComponents="3" format="ascii">
          7.6032822473e-02 1.1046927701e-05 0.0000000000e+00 
          7.6032822473e-02 1.1046927701e-05 0.0000000000e+00 
          2.3524696851e+00 5.2832713755e-05 0.0000000000e+00 
          2.3524696851e+00 5.2832713755e-05 0.0000000000e+00 
          0.0000000000e+00 0.0000000000e+00 0.0000000000e+00 
          0.0000000000e+00 0.0000000000e+00 0.0000000000e+00 
          1.6852362289e-01 -7.8422410761e-06 0.0000000000e+00 
          2.6055483005e-01 3.7462765858e-06 0.0000000000e+00 
          3.5204357446e-01 -9.6961396395e-07 0.0000000000e+00 
          4.4285878151e-01 4.5478270317e-05 0.0000000000e+00 
          5.3289990469e-01 -2.3153181282e-05 0.0000000000e+00 
          6.2203425126e-01 9.3225414865e-06 0.0000000000e+00 
          7.1014791576e-01 -2.1130030794e-05 0.0000000000e+00 
          7.9715340834e-01 -4.8143790947e-05 0.0000000000e+00 
          8.8292016573e-01 4.4970229109e-05 0.0000000000e+00 
          9.6734175540e-01 -7.1278249226e-05 0.0000000000e+00 
          1.0502891721e+00 6.8485640080e-05 0.0000000000e+00 
          1.1316709890e+00 -8.0483079362e-05 0.0000000000e+00 
          1.2113663414e+00 -8.6601550754e-05 0.0000000000e+00 
          1.2892528952e+00 7.4170539016e-05 0.0000000000e+00 
          1.3652378855e+00 -3.7529483744e-05 0.0000000000e+00 
          1.4391794811e+00 -1.2658620878e-04 0.0000000000e+00 
          1.5109951934e+00 1.2722925925e-05 0.0000000000e+00 
          1.5805666038e+00 -2.0730244852e-05 0.0000000000e+00 
          1.6477636657e+00 -8.8877520753e-05 0.0000000000e+00 
          1.7125125753e+00 -3.3818427730e-05 0.0000000000e+00 
          1.7746695157e+00 -7.3942224721e-05 0.0000000000e+00 
          1.8341561648e+00 -9.8667601751e-05 0.0000000000e+00 
          1.8908723299e+00 3.2181629505e-05 0.0000000000e+00 
          1.9446942882e+00 -4.1546911016e-05 0.0000000000e+00 
          1.9955453845e+00 -1.8693673986e-04 0.0000000000e+00 
          2.0433265187e+00 1.3106063566e-05 0.0000000000e+00 
          2.0879592235e+00 -2.3815655370e-05 0.0000000000e+00 
          2.1293493028e+00 -7.9086105305e-05 0.0000000000e+00 
          2.1674116626e+00 -5.0343893279e-06 0.0000000000e+00 
          2.2020873891e+00 -2.5168206818e-05 0.0000000000e+00 
          2.2333076813e+00 -4.9787358641e-05 0.0000000000e+00 
          2.2609981830e+00 3.8516902740e-05 0.0000000000e+00 
          2.2851178437e+00 -1.0060700866e-04 0.0000000000e+00 
          2.3056048943e+00 2.1942865776e-05 0.0000000000e+00 
          2.3224232855e+00 -9.1055713221e-05 0.0000000000e+00 
          2.3355507402e+00 -6.9974799055e-05 0.0000000000e+00 
          2.3449362815e+00 4.0175398741e-07 0.0000000000e+00 
          2.3505797788e+00 -1.2010681156e-04 0.0000000000e+00 
          1.6852362289e-01 -7.8422410761e-06 0.0000000000e+00 
          2.6055483005e-01 3.7462765858e-06 0.0000000000e+00 
          3.5204357446e-01 -9.6961396395e-07 0.0000000000e+00 
          4.4285878151e-01 4.5478270317e-05 0.0000000000e+00 
          5.3289990469e-01 -2.3153181282e-05 0.0000000000e+00 
          6.2203425126e-01 9.3225414865e-06 0.0000000000e+00 
          7.1014791576e-01 -2.1130030794e-05 0.0000000000e+00 
          7.9715340834e-01 -4.8143790947e-05 0.0000000000e+00 
          8.8292016573e-01 4.4970229109e-05 0.0000000000e+00 
          9.6734175540e-01 -7.1278249226e-05 0.0000000000e+00 
          1.0502891721e+00 6.8485640080e-05 0.0000000000e+00 
          1.1316709890e+00 -8.0483079362e-05 0.0000000000e+00 
          1.2113663414e+00 -8.6601550754e-05 0.0000000000e+00 
          1.2892528952e+00 7.4170539016e-05 0.0000000000e+00 
          1.3652378855e+00 -3.7529483744e-05 0.0000000000e+00 
          1.4391794811e+00 -1.2658620878e-04 0.0000000000e+00 
          1.5109951934e+00 1.2722925925e-05 0.0000000000e+00 
          1.5805666038e+00 -2.0730244852e-05 0.0000000000e+00 
          1.6477636657e+00 -8.8877520753e-05 0.0000000000e+00 
          1.7125125753e+00 -3.3818427730e-05 0.0000000000e+00 
          1.7746695157e+00 -7.3942224721e-05 0.0000000000e+00 
          1.8341561648e+00 -9.8667601751e-05 0.0000000000e+00 
          1.8908723299e+00 3.2181629505e-05 0.0000000000e+00 
          1.9446942882e+00 -4.1546911016e-05 0.0000000000e+00 
          1.9955453845e+00 -1.8693673986e-04 0.0000000000e+00 
          2.0433265187e+00 1.3106063566e-05 0.0000000000e+00 
          2.0879592235e+00 -2.3815655370e-05 0.0000000000e+00 
          2.1293493028e+00 -7.9086105305e-05 0.0000000000e+00 
          2.1674116626e+00 -5.0343893279e-06 0.0000000000e+00 
          2.2020873891e+00 -2.5168206818e-05 0.0000000000e+00 
          2.2333076813e+00 -4.9787358641e-05 0.0000000000e+00 
          2.2609981830e+00 3.8516902740e-05 0.0000000000e+00 
          2.2851178437e+00 -1.0060700866e-04 0.0000000000e+00 
          2.3056048943e+00 2.1942865776e-05 0.0000000000e+00 
          2.3224232855e+00 -9.1055713221e-05 0.0000000000e+00 
          2.3355507402e+00 -6.9974799055e-05 0.0000000000e+00 
          2.3449362815e+00 4.0175398741e-07 0.0000000000e+00 
          2.3505797788e+00 -1.2010681156e-04 0.0000000000e+00 
        </DataArray>
        <DataArray type="Float64" Name="Reaction" NumberOfComponents="3" format="ascii">
          0.0000000000e+00 0.0000000000e+00 0.0000000000e+00 
          0.0000000000e+00 0.0000000000e+00 0.0000000000e+00 
          0.0000000000e+00 0.0000000000e+00 0.0000000000e+00 
          0.0000000000e+00 0.0000000000e+00 0.0000000000e+00 
          0.0000000000e+00 0.0000000000e+00 0.0000000000e+00 
          0.0000000000e+00 0.0000000000e+00 0.0000000000e+00 
          0.0000000000e+00 0.0000000000e+00 0.0000000000e+00 
          0.0000000000e+00 0.0000000000e+00 0.0000000000e+00 
          0.0000000000e+00 0.0000000000e+00 0.0000000000e+00 
          0.0000000000e+00 0.0000000000e+00 0.0000000000e+00 
          0.0000000000e+00 0.0000000000e+00 0.0000000000e+00 
          0.0000000000e+00 0.0000000000e+00 0.0000000000e+00 
          0.0000000000e+00 0.0000000000e+00 0.0000000000e+00 
          0.0000000000e+00 0.0000000000e+00 0.0000000000e+00 
          0.0000000000e+00 0.0000000000e+00 0.0000000000e+00 
          0.0000000000e+00 0.0000000000e+00 0.0000000000e+00 
          0.0000000000e+00 0.0000000000e+00 0.0000000000e+00 
          0.0000000000e+00 0.0000000000e+00 0.0000000000e+00 
          0.0000000000e+00 0.0000000000e+00 0.0000000000e+00 
          0.0000000000e+00 0.0000000000e+00 0.0000000000e+00 
          0.0000000000e+00 0.0000000000e+00 0.0000000000e+00 
          0.0000000000e+00 0.0000000000e+00 0.0000000000e+00 
          0.0000000000e+00 0.0000000000e+00 0.0000000000e+00 
          0.0000000000e+00 0.0000000000e+00 0.0000000000e+00 
          0.0000000000e+00 0.0000000000e+00 0.0000000000e+00 
          0.0000000000e+00 0.0000000000e+00 0.0000000000e+00 
          0.0000000000e+00 0.0000000000e+00 0.0000000000e+00 
          0.0000000000e+00 0.0000000000e+00 0.0000000000e+00 
          0.0000000000e+00 0.0000000000e+00 0.0000000000e+00 
          0.0000000000e+00 0.0000000000e+00 0.0000000000e+00 
          0.0000000000e+00 0.0000000000e+00 0.0000000000e+00 
          0.0000000000e+00 0.0000000000e+00 0.0000000000e+00 
          0.0000000000e+00 0.0000000000e+00 0.0000000000e+00 
          0.0000000000e+00 0.0000000000e+00 0.0000000000e+00 
          0.0000000000e+00 0.0000000000e+00 0.0000000000e+00 
          0.0000000000e+00 0.0000000000e+00 0.0000000000e+00 
          0.0000000000e+00 0.0000000000e+00 0.0000000000e+00 
          0.0000000000e+00 0.0000000000e+00 0.0000000000e+00 
          0.0000000000e+00 0.0000000000e+00 0.0000000000e+00 
          0.0000000000e+00 0.0000000000e+00 0.0000000000e+00 
          0.0000000000e+00 0.0000000000e+00 0.0000000000e+00 
          0.0000000000e+00 0.0000000000e+00 0.0000000000e+00 
          0.0000000000e+00 0.0000000000e+00 0.0000000000e+00 
          0.0000000000e+00 0.0000000000e+00 0.0000000000e+00 
          0.0000000000e+00 0.0000000000e+00 0.0000000000e+00 
          0.0000000000e+00 0.0000000000e+00 0.0000000000e+00 
          0.0000000000e+00 0.0000000000e+00 0.0000000000e+00 
          0.0000000000e+00 0.0000000000e+00 0.0000000000e+00 
          0.0000000000e+00 0.0000000000e+00 0.0000000000e+00 
          0.0000000000e+00 0.0000000000e+00 0.0000000000e+00 
          0.0000000000e+00 0.0000000000e+00 0.0000000000e+00 
          0.0000000000e+00 0.0000000000e+00 0.0000000000e+00 
          0.0000000000e+00 0.0000000000e+00 0.0000000000e+00 
          0.0000000000e+00 0.0000000000e+00 0.0000000000e+00 
          0.0000000000e+00 0.0000000000e+00 0.0000000000e+00 
          0.0000000000e+00 0.0000000000e+00 0.0000000000e+00 
          0.0000000000e+00 0.0000000000e+00 0.0000000000e+00 
          0.0000000000e+00 0.0000000000e+00 0.0000000000e+00 
          0.0000000000e+00 0.0000000000e+00 0.0000000000e+00 
          0.0000000000e+00 0.0000000000e+00 0.0000000000e+00 
          0.0000000000e+00 0.0000000000e+00 0.0000000000e+00 
          0.0000000000e+00 0.0000000000e+00 0.0000000000e+00 
          0.0000000000e+00 0.0000000000e+00 0.0000000000e+00 
          0.0000000000e+00 0.0000000000e+00 0.0000000000e+00 
          0.0000000000e+00 0.0000000000e+00 0.0000000000e+00 
          0.0000000000e+00 0.0000000000e+00 0.0000000000e+00 
          0.0000000000e+00 0.0000000000e+00 0.0000000000e+00 
          0.0000000000e+00 0.0000000000e+00 0.0000000000e+00 
          0.0000000000e+00 0.0000000000e+00 0.0000000000e+00 
          0.0000000000e+00 0.0000000000e+00 0.0000000000e+00 
          0.0000000000e+00 0.0000000000e+00 0.0000000000e+00 
          0.0000000000e+00 0.0000000000e+00 0.0000000000e+00 
          0.0000000000e+00 0.0000000000e+00 0.0000000000e+00 
          0.0000000000e+00 0.0000000000e+00 0.0000000000e+00 
          0.0000000000e+00 0.0000000000e+00 0.0000000000e+00 
          0.0000000000e+00 0.0000000000e+00 0.0000000000e+00 
          0.0000000000e+00 0.0000000000e+00 0.0000000000e+00 
          0.0000000000e+00 0.0000000000e+00 0.0000000000e+00 
          0.0000000000e+00 0.0000000000e+00 0.0000000000e+00 
          0.0000000000e+00 0.0000000000e+00 0.0000000000e+00 
          0.0000000000e+00 0.0000000000e+00 0.0000000000e+00 
          0.0000000000e+00 0.0000000000e+00 0.0000000000e+00 
        </DataArray>
      </PointData>
      <CellData>
        <DataArray type="Int64" Name="ElementTag" format="ascii">
          0
        </DataArray>
      </CellData>
    </Piece>
  </UnstructuredGrid>
</VTKFile>
