<?xml version="1.0"?>
<VTKFile type="UnstructuredGrid" version="1.0" byte_order="LittleEndian" compressor="vtkZLibDataCompressor">
  <UnstructuredGrid>
    <Piece NumberOfPoints="80" NumberOfCells="39">
      <Points>
        <DataArray type="Float64" Name="Points" NumberOfComponents="3" format="ascii">
          0.0000000000e+00 0.0000000000e+00 0.0000000000e+00 
          2.5000000000e-01 0.0000000000e+00 0.0000000000e+00 
          2.5000000000e-01 3.0000000000e+01 0.0000000000e+00 
          0.0000000000e+00 3.0000000000e+01 0.0000000000e+00 
          2.5000000000e-01 7.6923100000e-01 0.0000000000e+00 
          2.5000000000e-01 1.5384620000e+00 0.0000000000e+00 
          2.5000000000e-01 2.3076920000e+00 0.0000000000e+00 
          2.5000000000e-01 3.0769230000e+00 0.0000000000e+00 
          2.5000000000e-01 3.8461540000e+00 0.0000000000e+00 
          2.5000000000e-01 4.6153850000e+00 0.0000000000e+00 
          2.5000000000e-01 5.3846150000e+00 0.0000000000e+00 
          2.5000000000e-01 6.1538460000e+00 0.0000000000e+00 
          2.5000000000e-01 6.9230770000e+00 0.0000000000e+00 
          2.5000000000e-01 7.6923080000e+00 0.0000000000e+00 
          2.5000000000e-01 8.4615380000e+00 0.0000000000e+00 
          2.5000000000e-01 9.2307690000e+00 0.0000000000e+00 
          2.5000000000e-01 1.0000000000e+01 0.0000000000e+00 
          2.5000000000e-01 1.0769231000e+01 0.0000000000e+00 
          2.5000000000e-01 1.1538462000e+01 0.0000000000e+00 
          2.5000000000e-01 1.2307692000e+01 0.0000000000e+00 
          2.5000000000e-01 1.3076923000e+01 0.0000000000e+00 
          2.5000000000e-01 1.3846154000e+01 0.0000000000e+00 
          2.5000000000e-01 1.4615385000e+01 0.0000000000e+00 
          2.5000000000e-01 1.5384615000e+01 0.0000000000e+00 
          2.5000000000e-01 1.6153846000e+01 0.0000000000e+00 
          2.5000000000e-01 1.6923077000e+01 0.0000000000e+00 
          2.5000000000e-01 1.7692308000e+01 0.0000000000e+00 
          2.5000000000e-01 1.8461538000e+01 0.0000000000e+00 
          2.5000000000e-01 1.9230769000e+01 0.0000000000e+00 
          2.5000000000e-01 2.0000000000e+01 0.0000000000e+00 
          2.5000000000e-01 2.0769231000e+01 0.0000000000e+00 
          2.5000000000e-01 2.1538462000e+01 0.0000000000e+00 
          2.5000000000e-01 2.2307692000e+01 0.0000000000e+00 
          2.5000000000e-01 2.3076923000e+01 0.0000000000e+00 
          2.5000000000e-01 2.3846154000e+01 0.0000000000e+00 
          2.5000000000e-01 2.4615385000e+01 0.0000000000e+00 
          2.5000000000e-01 2.5384615000e+01 0.0000000000e+00 
          2.5000000000e-01 2.6153846000e+01 0.0000000000e+00 
          2.5000000000e-01 2.6923077000e+01 0.0000000000e+00 
          2.5000000000e-01 2.7692308000e+01 0.0000000000e+00 
          2.5000000000e-01 2.8461538000e+01 0.0000000000e+00 
          2.5000000000e-01 2.9230769000e+01 0.0000000000e+00 
          0.0000000000e+00 7.6923100000e-01 0.0000000000e+00 
          0.0000000000e+00 1.5384620000e+00 0.0000000000e+00 
          0.0000000000e+00 2.3076920000e+00 0.0000000000e+00 
          0.0000000000e+00 3.0769230000e+00 0.0000000000e+00 
          0.0000000000e+00 3.8461540000e+00 0.0000000000e+00 
          0.0000000000e+00 4.6153850000e+00 0.0000000000e+00 
          0.0000000000e+00 5.3846150000e+00 0.0000000000e+00 
          0.0000000000e+00 6.1538460000e+00 0.0000000000e+00 
          0.0000000000e+00 6.9230770000e+00 0.0000000000e+00 
          0.0000000000e+00 7.6923080000e+00 0.0000000000e+00 
          0.0000000000e+00 8.4615380000e+00 0.0000000000e+00 
          0.0000000000e+00 9.2307690000e+00 0.0000000000e+00 
          0.0000000000e+00 1.0000000000e+01 0.0000000000e+00 
          0.0000000000e+00 1.0769231000e+01 0.0000000000e+00 
          0.0000000000e+00 1.1538462000e+01 0.0000000000e+00 
          0.0000000000e+00 1.2307692000e+01 0.0000000000e+00 
          0.0000000000e+00 1.3076923000e+01 0.0000000000e+00 
          0.0000000000e+00 1.3846154000e+01 0.0000000000e+00 
          0.0000000000e+00 1.4615385000e+01 0.0000000000e+00 
          0.0000000000e+00 1.5384615000e+01 0.0000000000e+00 
          0.0000000000e+00 1.6153846000e+01 0.0000000000e+00 
          0.0000000000e+00 1.6923077000e+01 0.0000000000e+00 
          0.0000000000e+00 1.7692308000e+01 0.0000000000e+00 
          0.0000000000e+00 1.8461538000e+01 0.0000000000e+00 
          0.0000000000e+00 1.9230769000e+01 0.0000000000e+00 
          0.0000000000e+00 2.0000000000e+01 0.0000000000e+00 
          0.0000000000e+00 2.0769231000e+01 0.0000000000e+00 
          0.0000000000e+00 2.1538462000e+01 0.0000000000e+00 
          0.0000000000e+00 2.2307692000e+01 0.0000000000e+00 
          0.0000000000e+00 2.3076923000e+01 0.0000000000e+00 
          0.0000000000e+00 2.3846154000e+01 0.0000000000e+00 
          0.0000000000e+00 2.4615385000e+01 0.0000000000e+00 
          0.0000000000e+00 2.5384615000e+01 0.0000000000e+00 
          0.0000000000e+00 2.6153846000e+01 0.0000000000e+00 
          0.0000000000e+00 2.6923077000e+01 0.0000000000e+00 
          0.0000000000e+00 2.7692308000e+01 0.0000000000e+00 
          0.0000000000e+00 2.8461538000e+01 0.0000000000e+00 
          0.0000000000e+00 2.9230769000e+01 0.0000000000e+00 
        </DataArray>
      </Points>
      <Cells>
        <DataArray type="Int64" Name="connectivity" format="ascii">
          0 1 4 42 
          42 4 5 43 
          43 5 6 44 
          44 6 7 45 
          45 7 8 46 
          46 8 9 47 
          47 9 10 48 
          48 10 11 49 
          49 11 12 50 
          50 12 13 51 
          51 13 14 52 
          52 14 15 53 
          53 15 16 54 
          54 16 17 55 
          55 17 18 56 
          56 18 19 57 
          57 19 20 58 
          58 20 21 59 
          59 21 22 60 
          60 22 23 61 
          61 23 24 62 
          62 24 25 63 
          63 25 26 64 
          64 26 27 65 
          65 27 28 66 
          66 28 29 67 
          67 29 30 68 
          68 30 31 69 
          69 31 32 70 
          70 32 33 71 
          71 33 34 72 
          72 34 35 73 
          73 35 36 74 
          74 36 37 75 
          75 37 38 76 
          76 38 39 77 
          77 39 40 78 
          78 40 41 79 
          79 41 2 3 
        </DataArray>
        <DataArray type="Int64" Name="offsets" format="ascii">
          4
          8
          12
          16
          20
          24
          28
          32
          36
          40
          44
          48
          52
          56
          60
          64
          68
          72
          76
          80
          84
          88
          92
          96
          100
          104
          108
          112
          116
          120
          124
          128
          132
          136
          140
          144
          148
          152
          156
        </DataArray>
        <DataArray type="Int64" Name="types" format="ascii">
          9
          9
          9
          9
          9
          9
          9
          9
          9
          9
          9
          9
          9
          9
          9
          9
          9
          9
          9
          9
          9
          9
          9
          9
          9
          9
          9
          9
          9
          9
          9
          9
          9
          9
          9
          9
          9
          9
          9
        </DataArray>
      </Cells>
      <PointData>
        <DataArray type="Int64" Name="NodeTag" format="ascii">
          1
          2
          3
          4
          7
          8
          9
          10
          11
          12
          13
          14
          15
          16
          17
          18
          19
          20
          21
          22
          23
          24
          25
          26
          27
          28
          29
          30
          31
          32
          33
          34
          35
          36
          37
          38
          39
          40
          41
          42
          43
          44
          45
          46
          47
          48
          49
          50
          51
          52
          53
          54
          55
          56
          57
          58
          59
          60
          61
          62
          63
          64
          65
          66
          67
          68
          69
          70
          71
          72
          73
          74
          75
          76
          77
          78
          79
          80
          81
          82
        </DataArray>
        <DataArray type="Float64" Name="Velocity" NumberOfComponents="3" format="ascii">
          1.3851239117e-10 -8.0530163301e-05 0.0000000000e+00 
          1.3851239117e-10 -8.0530163301e-05 0.0000000000e+00 
          6.3777168452e-14 -1.2192696864e-04 0.0000000000e+00 
          6.3777168452e-14 -1.2192696864e-04 0.0000000000e+00 
          1.1362665188e-10 -8.2802329267e-05 0.0000000000e+00 
          9.3129487197e-11 -8.4356849612e-05 0.0000000000e+00 
          7.6262443903e-11 -8.5641129076e-05 0.0000000000e+00 
          6.2395006279e-11 -8.7760179398e-05 0.0000000000e+00 
          5.1004098196e-11 -8.9504371317e-05 0.0000000000e+00 
          4.1655927870e-11 -9.1442556505e-05 0.0000000000e+00 
          3.3991067333e-11 -9.3333486443e-05 0.0000000000e+00 
          2.7712076587e-11 -9.4858636496e-05 0.0000000000e+00 
          2.2573057288e-11 -9.6704721621e-05 0.0000000000e+00 
          1.8370788006e-11 -9.8792950262e-05 0.0000000000e+00 
          1.4937705486e-11 -1.0068896924e-04 0.0000000000e+00 
          1.2135461866e-11 -1.0250929913e-04 0.0000000000e+00 
          9.8502058776e-12 -1.0418833133e-04 0.0000000000e+00 
          7.9883064912e-12 -1.0587567653e-04 0.0000000000e+00 
          6.4725816427e-12 -1.0803054608e-04 0.0000000000e+00 
          5.2399211976e-12 -1.0959886962e-04 0.0000000000e+00 
          4.2382416349e-12 -1.1084598557e-04 0.0000000000e+00 
          3.4250967642e-12 -1.1238884241e-04 0.0000000000e+00 
          2.7655892046e-12 -1.1437638988e-04 0.0000000000e+00 
          2.2310932090e-12 -1.1668683305e-04 0.0000000000e+00 
          1.7983848044e-12 -1.1864928277e-04 0.0000000000e+00 
          1.4484452085e-12 -1.1987449262e-04 0.0000000000e+00 
          1.1656130756e-12 -1.2085688986e-04 0.0000000000e+00 
          9.3735285971e-13 -1.2191237932e-04 0.0000000000e+00 
          7.5325960338e-13 -1.2270657974e-04 0.0000000000e+00 
          6.0499337466e-13 -1.2353279886e-04 0.0000000000e+00 
          4.8574845265e-13 -1.2425934928e-04 0.0000000000e+00 
          3.8999320950e-13 -1.2492156266e-04 0.0000000000e+00 
          3.1324396651e-13 -1.2569099233e-04 0.0000000000e+00 
          2.5187404031e-13 -1.2536987672e-04 0.0000000000e+00 
          2.0306478849e-13 -1.2531003434e-04 0.0000000000e+00 
          1.6438565286e-13 -1.2603364153e-04 0.0000000000e+00 
          1.3396113262e-13 -1.2554106920e-04 0.0000000000e+00 
          1.1045474960e-13 -1.2460039958e-04 0.0000000000e+00 
          9.2578765043e-14 -1.2376751308e-04 0.0000000000e+00 
          7.9532004343e-14 -1.2311572556e-04 0.0000000000e+00 
          7.0573404418e-14 -1.2247707982e-04 0.0000000000e+00 
          6.5482276591e-14 -1.2189987298e-04 0.0000000000e+00 
          1.1362665188e-10 -8.2802329267e-05 0.0000000000e+00 
          9.3129487197e-11 -8.4356849612e-05 0.0000000000e+00 
          7.6262443903e-11 -8.5641129076e-05 0.0000000000e+00 
          6.2395006279e-11 -8.7760179398e-05 0.0000000000e+00 
          5.1004098196e-11 -8.9504371317e-05 0.0000000000e+00 
          4.1655927870e-11 -9.1442556505e-05 0.0000000000e+00 
          3.3991067333e-11 -9.3333486443e-05 0.0000000000e+00 
          2.7712076587e-11 -9.4858636496e-05 0.0000000000e+00 
          2.2573057288e-11 -9.6704721621e-05 0.0000000000e+00 
          1.8370788006e-11 -9.8792950262e-05 0.0000000000e+00 
          1.4937705486e-11 -1.0068896924e-04 0.0000000000e+00 
          1.2135461866e-11 -1.0250929913e-04 0.0000000000e+00 
          9.8502058776e-12 -1.0418833133e-04 0.0000000000e+00 
          7.9883064912e-12 -1.0587567653e-04 0.0000000000e+00 
          6.4725816427e-12 -1.0803054608e-04 0.0000000000e+00 
          5.2399211976e-12 -1.0959886962e-04 0.0000000000e+00 
          4.2382416349e-12 -1.1084598557e-04 0.0000000000e+00 
          3.4250967642e-12 -1.1238884241e-04 0.0000000000e+00 
          2.7655892046e-12 -1.1437638988e-04 0.0000000000e+00 
          2.2310932090e-12 -1.1668683305e-04 0.0000000000e+00 
          1.7983848044e-12 -1.1864928277e-04 0.0000000000e+00 
          1.4484452085e-12 -1.1987449262e-04 0.0000000000e+00 
          1.1656130756e-12 -1.2085688986e-04 0.0000000000e+00 
          9.3735285971e-13 -1.2191237932e-04 0.0000000000e+00 
          7.5325960338e-13 -1.2270657974e-04 0.0000000000e+00 
          6.0499337466e-13 -1.2353279886e-04 0.0000000000e+00 
          4.8574845265e-13 -1.2425934928e-04 0.0000000000e+00 
          3.8999320950e-13 -1.2492156266e-04 0.0000000000e+00 
          3.1324396651e-13 -1.2569099233e-04 0.0000000000e+00 
          2.5187404031e-13 -1.2536987672e-04 0.0000000000e+00 
          2.0306478849e-13 -1.2531003434e-04 0.0000000000e+00 
          1.6438565286e-13 -1.2603364153e-04 0.0000000000e+00 
          1.3396113262e-13 -1.2554106920e-04 0.0000000000e+00 
          1.1045474960e-13 -1.2460039958e-04 0.0000000000e+00 
          9.2578765043e-14 -1.2376751308e-04 0.0000000000e+00 
          7.9532004343e-14 -1.2311572556e-04 0.0000000000e+00 
          7.0573404418e-14 -1.2247707982e-04 0.0000000000e+00 
          6.5482276591e-14 -1.2189987298e-04 0.0000000000e+00 
        </DataArray>
        <DataArray type="Float64" Name="Displacement" NumberOfComponents="3" format="ascii">
          2.2818509241e-12 -9.4247191609e-05 0.0000000000e+00 
          2.2818509241e-12 -9.4247191609e-05 0.0000000000e+00 
          8.9967054431e-16 -1.1940218963e-04 0.0000000000e+00 
          8.9967054431e-16 -1.1940218963e-04 0.0000000000e+00 
          1.8638616100e-12 -9.5483066469e-05 0.0000000000e+00 
          1.5211217145e-12 -9.6687688066e-05 0.0000000000e+00 
          1.2403332514e-12 -9.7861154199e-05 0.0000000000e+00 
          1.0105010098e-12 -9.9004256577e-05 0.0000000000e+00 
          8.2254414061e-13 -1.0011603037e-04 0.0000000000e+00 
          6.6896881478e-13 -1.0119815478e-04 0.0000000000e+00 
          5.4359685252e-13 -1.0225174074e-04 0.0000000000e+00 
          4.4133876360e-13 -1.0327523020e-04 0.0000000000e+00 
          3.5800714204e-13 -1.0426808110e-04 0.0000000000e+00 
          2.9015877222e-13 -1.0522963865e-04 0.0000000000e+00 
          2.3496562716e-13 -1.0615981648e-04 0.0000000000e+00 
          1.9010690178e-13 -1.0705994345e-04 0.0000000000e+00 
          1.5367956034e-13 -1.0792911467e-04 0.0000000000e+00 
          1.2412507209e-13 -1.0876816852e-04 0.0000000000e+00 
          1.0016781435e-13 -1.0957905853e-04 0.0000000000e+00 
          8.0764927703e-14 -1.1035923663e-04 0.0000000000e+00 
          6.5064620171e-14 -1.1110804889e-04 0.0000000000e+00 
          5.2371391135e-14 -1.1182626542e-04 0.0000000000e+00 
          4.2118644305e-14 -1.1251411528e-04 0.0000000000e+00 
          3.3844363534e-14 -1.1317044711e-04 0.0000000000e+00 
          2.7172919358e-14 -1.1379499484e-04 0.0000000000e+00 
          2.1798810635e-14 -1.1438951661e-04 0.0000000000e+00 
          1.7473718109e-14 -1.1495214014e-04 0.0000000000e+00 
          1.3996425985e-14 -1.1548364721e-04 0.0000000000e+00 
          1.1203615638e-14 -1.1598406772e-04 0.0000000000e+00 
          8.9630803880e-15 -1.1645200128e-04 0.0000000000e+00 
          7.1679451253e-15 -1.1688752236e-04 0.0000000000e+00 
          5.7319723627e-15 -1.1729047995e-04 0.0000000000e+00 
          4.5854734701e-15 -1.1765973319e-04 0.0000000000e+00 
          3.6723711931e-15 -1.1799405991e-04 0.0000000000e+00 
          2.9479406661e-15 -1.1829212601e-04 0.0000000000e+00 
          2.3761223691e-15 -1.1855374537e-04 0.0000000000e+00 
          1.9284294819e-15 -1.1878013725e-04 0.0000000000e+00 
          1.5824276209e-15 -1.1897153121e-04 0.0000000000e+00 
          1.3206070567e-15 -1.1912790225e-04 0.0000000000e+00 
          1.1296088819e-15 -1.1924890888e-04 0.0000000000e+00 
          9.9985056115e-16 -1.1933405122e-04 0.0000000000e+00 
          9.2450877013e-16 -1.1938481223e-04 0.0000000000e+00 
          1.8638616100e-12 -9.5483066469e-05 0.0000000000e+00 
          1.5211217145e-12 -9.6687688066e-05 0.0000000000e+00 
          1.2403332514e-12 -9.7861154199e-05 0.0000000000e+00 
          1.0105010098e-12 -9.9004256577e-05 0.0000000000e+00 
          8.2254414061e-13 -1.0011603037e-04 0.0000000000e+00 
          6.6896881478e-13 -1.0119815478e-04 0.0000000000e+00 
          5.4359685252e-13 -1.0225174074e-04 0.0000000000e+00 
          4.4133876360e-13 -1.0327523020e-04 0.0000000000e+00 
          3.5800714204e-13 -1.0426808110e-04 0.0000000000e+00 
          2.9015877222e-13 -1.0522963865e-04 0.0000000000e+00 
          2.3496562716e-13 -1.0615981648e-04 0.0000000000e+00 
          1.9010690178e-13 -1.0705994345e-04 0.0000000000e+00 
          1.5367956034e-13 -1.0792911467e-04 0.0000000000e+00 
          1.2412507209e-13 -1.0876816852e-04 0.0000000000e+00 
          1.0016781435e-13 -1.0957905853e-04 0.0000000000e+00 
          8.0764927703e-14 -1.1035923663e-04 0.0000000000e+00 
          6.5064620171e-14 -1.1110804889e-04 0.0000000000e+00 
          5.2371391135e-14 -1.1182626542e-04 0.0000000000e+00 
          4.2118644305e-14 -1.1251411528e-04 0.0000000000e+00 
          3.3844363534e-14 -1.1317044711e-04 0.0000000000e+00 
          2.7172919358e-14 -1.1379499484e-04 0.0000000000e+00 
          2.1798810635e-14 -1.1438951661e-04 0.0000000000e+00 
          1.7473718109e-14 -1.1495214014e-04 0.0000000000e+00 
          1.3996425985e-14 -1.1548364721e-04 0.0000000000e+00 
          1.1203615638e-14 -1.1598406772e-04 0.0000000000e+00 
          8.9630803880e-15 -1.1645200128e-04 0.0000000000e+00 
          7.1679451253e-15 -1.1688752236e-04 0.0000000000e+00 
          5.7319723627e-15 -1.1729047995e-04 0.0000000000e+00 
          4.5854734701e-15 -1.1765973319e-04 0.0000000000e+00 
          3.6723711931e-15 -1.1799405991e-04 0.0000000000e+00 
          2.9479406661e-15 -1.1829212601e-04 0.0000000000e+00 
          2.3761223691e-15 -1.1855374537e-04 0.0000000000e+00 
          1.9284294819e-15 -1.1878013725e-04 0.0000000000e+00 
          1.5824276209e-15 -1.1897153121e-04 0.0000000000e+00 
          1.3206070567e-15 -1.1912790225e-04 0.0000000000e+00 
          1.1296088819e-15 -1.1924890888e-04 0.0000000000e+00 
          9.9985056115e-16 -1.1933405122e-04 0.0000000000e+00 
          9.2450877013e-16 -1.1938481223e-04 0.0000000000e+00 
        </DataArray>
        <DataArray type="Float64" Name="Acceleration" NumberOfComponents="3" format="ascii">
          8.2280680189e-09 -1.4822754158e-04 0.0000000000e+00 
          8.2280680189e-09 -1.4822754158e-04 0.0000000000e+00 
          4.4732146013e-12 6.7548672325e-04 0.0000000000e+00 
          4.4732146013e-12 6.7548672325e-04 0.0000000000e+00 
          6.7801197942e-09 4.4497079472e-05 0.0000000000e+00 
          5.5819159974e-09 2.6602103467e-05 0.0000000000e+00 
          4.5912941501e-09 -1.1551737566e-04 0.0000000000e+00 
          3.7730509917e-09 5.8070291670e-05 0.0000000000e+00 
          3.0978482079e-09 -2.4452895767e-04 0.0000000000e+00 
          2.5411662686e-09 -4.4496482406e-04 0.0000000000e+00 
          2.0826196763e-09 -1.6370830397e-04 0.0000000000e+00 
          1.7053138084e-09 -6.6273609443e-05 0.0000000000e+00 
          1.3950690434e-09 5.1722028494e-05 0.0000000000e+00 
          1.1402549102e-09 6.7070332293e-05 0.0000000000e+00 
          9.3115896380e-10 -1.7196149243e-04 0.0000000000e+00 
          7.5968746043e-10 -9.1132909412e-06 0.0000000000e+00 
          6.1925331541e-10 -1.6019709659e-04 0.0000000000e+00 
          5.0432487988e-10 -5.1222866966e-04 0.0000000000e+00 
          4.1035667698e-10 -5.3235282880e-05 0.0000000000e+00 
          3.3360915468e-10 6.4969443073e-05 0.0000000000e+00 
          2.7094624217e-10 -7.3993140133e-05 0.0000000000e+00 
          2.1989177475e-10 -1.1526955245e-04 0.0000000000e+00 
          1.7826045331e-10 9.2059407306e-05 0.0000000000e+00 
          1.4442146285e-10 1.4031216938e-04 0.0000000000e+00 
          1.1689090698e-10 -1.7666829039e-04 0.0000000000e+00 
          9.4519926323e-11 1.6072521234e-04 0.0000000000e+00 
          7.6385681526e-11 1.9725075424e-05 0.0000000000e+00 
          6.1676769809e-11 1.4583234434e-05 0.0000000000e+00 
          4.9757910796e-11 2.6681257538e-04 0.0000000000e+00 
          4.0135174823e-11 2.5339261439e-04 0.0000000000e+00 
          3.2360196477e-11 2.8060450991e-04 0.0000000000e+00 
          2.6079410977e-11 4.8611006353e-04 0.0000000000e+00 
          2.1034391035e-11 7.0652414211e-04 0.0000000000e+00 
          1.6996977127e-11 9.4684187691e-04 0.0000000000e+00 
          1.3750137502e-11 9.8038112111e-04 0.0000000000e+00 
          1.1184319531e-11 7.6061934938e-04 0.0000000000e+00 
          9.1626373751e-12 7.1935479812e-04 0.0000000000e+00 
          7.5848874683e-12 7.2380582914e-04 0.0000000000e+00 
          6.3821045297e-12 7.8534069695e-04 0.0000000000e+00 
          5.5155962574e-12 8.7540731568e-04 0.0000000000e+00 
          4.9040134326e-12 6.0820991560e-04 0.0000000000e+00 
          4.5524098909e-12 4.2839527376e-04 0.0000000000e+00 
          6.7801197942e-09 4.4497079472e-05 0.0000000000e+00 
          5.5819159974e-09 2.6602103467e-05 0.0000000000e+00 
          4.5912941501e-09 -1.1551737566e-04 0.0000000000e+00 
          3.7730509917e-09 5.8070291670e-05 0.0000000000e+00 
          3.0978482079e-09 -2.4452895767e-04 0.0000000000e+00 
          2.5411662686e-09 -4.4496482406e-04 0.0000000000e+00 
          2.0826196763e-09 -1.6370830397e-04 0.0000000000e+00 
          1.7053138084e-09 -6.6273609443e-05 0.0000000000e+00 
          1.3950690434e-09 5.1722028494e-05 0.0000000000e+00 
          1.1402549102e-09 6.7070332293e-05 0.0000000000e+00 
          9.3115896380e-10 -1.7196149243e-04 0.0000000000e+00 
          7.5968746043e-10 -9.1132909412e-06 0.0000000000e+00 
          6.1925331541e-10 -1.6019709659e-04 0.0000000000e+00 
          5.0432487988e-10 -5.1222866966e-04 0.0000000000e+00 
          4.1035667698e-10 -5.3235282880e-05 0.0000000000e+00 
          3.3360915468e-10 6.4969443073e-05 0.0000000000e+00 
          2.7094624217e-10 -7.3993140133e-05 0.0000000000e+00 
          2.1989177475e-10 -1.1526955245e-04 0.0000000000e+00 
          1.7826045331e-10 9.2059407306e-05 0.0000000000e+00 
          1.4442146285e-10 1.4031216938e-04 0.0000000000e+00 
          1.1689090698e-10 -1.7666829039e-04 0.0000000000e+00 
          9.4519926323e-11 1.6072521234e-04 0.0000000000e+00 
          7.6385681526e-11 1.9725075424e-05 0.0000000000e+00 
          6.1676769809e-11 1.4583234434e-05 0.0000000000e+00 
          4.9757910796e-11 2.6681257538e-04 0.0000000000e+00 
          4.0135174823e-11 2.5339261439e-04 0.0000000000e+00 
          3.2360196477e-11 2.8060450991e-04 0.0000000000e+00 
          2.6079410977e-11 4.8611006353e-04 0.0000000000e+00 
          2.1034391035e-11 7.0652414211e-04 0.0000000000e+00 
          1.6996977127e-11 9.4684187691e-04 0.0000000000e+00 
          1.3750137502e-11 9.8038112111e-04 0.0000000000e+00 
          1.1184319531e-11 7.6061934938e-04 0.0000000000e+00 
          9.1626373751e-12 7.1935479812e-04 0.0000000000e+00 
          7.5848874683e-12 7.2380582914e-04 0.0000000000e+00 
          6.3821045297e-12 7.8534069695e-04 0.0000000000e+00 
          5.5155962574e-12 8.7540731568e-04 0.0000000000e+00 
          4.9040134326e-12 6.0820991560e-04 0.0000000000e+00 
          4.5524098909e-12 4.2839527376e-04 0.0000000000e+00 
        </DataArray>
        <DataArray type="Float64" Name="Reaction" NumberOfComponents="3" format="ascii">
          0.0000000000e+00 0.0000000000e+00 0.0000000000e+00 
          0.0000000000e+00 0.0000000000e+00 0.0000000000e+00 
          0.0000000000e+00 0.0000000000e+00 0.0000000000e+00 
          0.0000000000e+00 0.0000000000e+00 0.0000000000e+00 
          0.0000000000e+00 0.0000000000e+00 0.0000000000e+00 
          0.0000000000e+00 0.0000000000e+00 0.0000000000e+00 
          0.0000000000e+00 0.0000000000e+00 0.0000000000e+00 
          0.0000000000e+00 0.0000000000e+00 0.0000000000e+00 
          0.0000000000e+00 0.0000000000e+00 0.0000000000e+00 
          0.0000000000e+00 0.0000000000e+00 0.0000000000e+00 
          0.0000000000e+00 0.0000000000e+00 0.0000000000e+00 
          0.0000000000e+00 0.0000000000e+00 0.0000000000e+00 
          0.0000000000e+00 0.0000000000e+00 0.0000000000e+00 
          0.0000000000e+00 0.0000000000e+00 0.0000000000e+00 
          0.0000000000e+00 0.0000000000e+00 0.0000000000e+00 
          0.0000000000e+00 0.0000000000e+00 0.0000000000e+00 
          0.0000000000e+00 0.0000000000e+00 0.0000000000e+00 
          0.0000000000e+00 0.0000000000e+00 0.0000000000e+00 
          0.0000000000e+00 0.0000000000e+00 0.0000000000e+00 
          0.0000000000e+00 0.0000000000e+00 0.0000000000e+00 
          0.0000000000e+00 0.0000000000e+00 0.0000000000e+00 
          0.0000000000e+00 0.0000000000e+00 0.0000000000e+00 
          0.0000000000e+00 0.0000000000e+00 0.0000000000e+00 
          0.0000000000e+00 0.0000000000e+00 0.0000000000e+00 
          0.0000000000e+00 0.0000000000e+00 0.0000000000e+00 
          0.0000000000e+00 0.0000000000e+00 0.0000000000e+00 
          0.0000000000e+00 0.0000000000e+00 0.0000000000e+00 
          0.0000000000e+00 0.0000000000e+00 0.0000000000e+00 
          0.0000000000e+00 0.0000000000e+00 0.0000000000e+00 
          0.0000000000e+00 0.0000000000e+00 0.0000000000e+00 
          0.0000000000e+00 0.0000000000e+00 0.0000000000e+00 
          0.0000000000e+00 0.0000000000e+00 0.0000000000e+00 
          0.0000000000e+00 0.0000000000e+00 0.0000000000e+00 
          0.0000000000e+00 0.0000000000e+00 0.0000000000e+00 
          0.0000000000e+00 0.0000000000e+00 0.0000000000e+00 
          0.0000000000e+00 0.0000000000e+00 0.0000000000e+00 
          0.0000000000e+00 0.0000000000e+00 0.0000000000e+00 
          0.0000000000e+00 0.0000000000e+00 0.0000000000e+00 
          0.0000000000e+00 0.0000000000e+00 0.0000000000e+00 
          0.0000000000e+00 0.0000000000e+00 0.0000000000e+00 
          0.0000000000e+00 0.0000000000e+00 0.0000000000e+00 
          0.0000000000e+00 0.0000000000e+00 0.0000000000e+00 
          0.0000000000e+00 0.0000000000e+00 0.0000000000e+00 
          0.0000000000e+00 0.0000000000e+00 0.0000000000e+00 
          0.0000000000e+00 0.0000000000e+00 0.0000000000e+00 
          0.0000000000e+00 0.0000000000e+00 0.0000000000e+00 
          0.0000000000e+00 0.0000000000e+00 0.0000000000e+00 
          0.0000000000e+00 0.0000000000e+00 0.0000000000e+00 
          0.0000000000e+00 0.0000000000e+00 0.0000000000e+00 
          0.0000000000e+00 0.0000000000e+00 0.0000000000e+00 
          0.0000000000e+00 0.0000000000e+00 0.0000000000e+00 
          0.0000000000e+00 0.0000000000e+00 0.0000000000e+00 
          0.0000000000e+00 0.0000000000e+00 0.0000000000e+00 
          0.0000000000e+00 0.0000000000e+00 0.0000000000e+00 
          0.0000000000e+00 0.0000000000e+00 0.0000000000e+00 
          0.0000000000e+00 0.0000000000e+00 0.0000000000e+00 
          0.0000000000e+00 0.0000000000e+00 0.0000000000e+00 
          0.0000000000e+00 0.0000000000e+00 0.0000000000e+00 
          0.0000000000e+00 0.0000000000e+00 0.0000000000e+00 
          0.0000000000e+00 0.0000000000e+00 0.0000000000e+00 
          0.0000000000e+00 0.0000000000e+00 0.0000000000e+00 
          0.0000000000e+00 0.0000000000e+00 0.0000000000e+00 
          0.0000000000e+00 0.0000000000e+00 0.0000000000e+00 
          0.0000000000e+00 0.0000000000e+00 0.0000000000e+00 
          0.0000000000e+00 0.0000000000e+00 0.0000000000e+00 
          0.0000000000e+00 0.0000000000e+00 0.0000000000e+00 
          0.0000000000e+00 0.0000000000e+00 0.0000000000e+00 
          0.0000000000e+00 0.0000000000e+00 0.0000000000e+00 
          0.0000000000e+00 0.0000000000e+00 0.0000000000e+00 
          0.0000000000e+00 0.0000000000e+00 0.0000000000e+00 
          0.0000000000e+00 0.0000000000e+00 0.0000000000e+00 
          0.0000000000e+00 0.0000000000e+00 0.0000000000e+00 
          0.0000000000e+00 0.0000000000e+00 0.0000000000e+00 
          0.0000000000e+00 0.0000000000e+00 0.0000000000e+00 
          0.0000000000e+00 0.0000000000e+00 0.0000000000e+00 
          0.0000000000e+00 0.0000000000e+00 0.0000000000e+00 
          0.0000000000e+00 0.0000000000e+00 0.0000000000e+00 
          0.0000000000e+00 0.0000000000e+00 0.0000000000e+00 
          0.0000000000e+00 0.0000000000e+00 0.0000000000e+00 
          0.0000000000e+00 0.0000000000e+00 0.0000000000e+00 
        </DataArray>
      </PointData>
      <CellData>
        <DataArray type="Int64" Name="ElementTag" format="ascii">
          90
          91
          92
          93
          94
          95
          96
          97
          98
          99
          100
          101
          102
          103
          104
          105
          106
          107
          108
          109
          110
          111
          112
          113
          114
          115
          116
          117
          118
          119
          120
          121
          122
          123
          124
          125
          126
          127
          128
        </DataArray>
      </CellData>
    </Piece>
  </UnstructuredGrid>
</VTKFile>
