<?xml version="1.0"?>
<VTKFile type="UnstructuredGrid" version="1.0" byte_order="LittleEndian" compressor="vtkZLibDataCompressor">
  <UnstructuredGrid>
    <Piece NumberOfPoints="80" NumberOfCells="39">
      <Points>
        <DataArray type="Float64" Name="Points" NumberOfComponents="3" format="ascii">
          0.0000000000e+00 0.0000000000e+00 0.0000000000e+00 
          2.5000000000e-01 0.0000000000e+00 0.0000000000e+00 
          2.5000000000e-01 3.0000000000e+01 0.0000000000e+00 
          0.0000000000e+00 3.0000000000e+01 0.0000000000e+00 
          2.5000000000e-01 7.6923100000e-01 0.0000000000e+00 
          2.5000000000e-01 1.5384620000e+00 0.0000000000e+00 
          2.5000000000e-01 2.3076920000e+00 0.0000000000e+00 
          2.5000000000e-01 3.0769230000e+00 0.0000000000e+00 
          2.5000000000e-01 3.8461540000e+00 0.0000000000e+00 
          2.5000000000e-01 4.6153850000e+00 0.0000000000e+00 
          2.5000000000e-01 5.3846150000e+00 0.0000000000e+00 
          2.5000000000e-01 6.1538460000e+00 0.0000000000e+00 
          2.5000000000e-01 6.9230770000e+00 0.0000000000e+00 
          2.5000000000e-01 7.6923080000e+00 0.0000000000e+00 
          2.5000000000e-01 8.4615380000e+00 0.0000000000e+00 
          2.5000000000e-01 9.2307690000e+00 0.0000000000e+00 
          2.5000000000e-01 1.0000000000e+01 0.0000000000e+00 
          2.5000000000e-01 1.0769231000e+01 0.0000000000e+00 
          2.5000000000e-01 1.1538462000e+01 0.0000000000e+00 
          2.5000000000e-01 1.2307692000e+01 0.0000000000e+00 
          2.5000000000e-01 1.3076923000e+01 0.0000000000e+00 
          2.5000000000e-01 1.3846154000e+01 0.0000000000e+00 
          2.5000000000e-01 1.4615385000e+01 0.0000000000e+00 
          2.5000000000e-01 1.5384615000e+01 0.0000000000e+00 
          2.5000000000e-01 1.6153846000e+01 0.0000000000e+00 
          2.5000000000e-01 1.6923077000e+01 0.0000000000e+00 
          2.5000000000e-01 1.7692308000e+01 0.0000000000e+00 
          2.5000000000e-01 1.8461538000e+01 0.0000000000e+00 
          2.5000000000e-01 1.9230769000e+01 0.0000000000e+00 
          2.5000000000e-01 2.0000000000e+01 0.0000000000e+00 
          2.5000000000e-01 2.0769231000e+01 0.0000000000e+00 
          2.5000000000e-01 2.1538462000e+01 0.0000000000e+00 
          2.5000000000e-01 2.2307692000e+01 0.0000000000e+00 
          2.5000000000e-01 2.3076923000e+01 0.0000000000e+00 
          2.5000000000e-01 2.3846154000e+01 0.0000000000e+00 
          2.5000000000e-01 2.4615385000e+01 0.0000000000e+00 
          2.5000000000e-01 2.5384615000e+01 0.0000000000e+00 
          2.5000000000e-01 2.6153846000e+01 0.0000000000e+00 
          2.5000000000e-01 2.6923077000e+01 0.0000000000e+00 
          2.5000000000e-01 2.7692308000e+01 0.0000000000e+00 
          2.5000000000e-01 2.8461538000e+01 0.0000000000e+00 
          2.5000000000e-01 2.9230769000e+01 0.0000000000e+00 
          0.0000000000e+00 7.6923100000e-01 0.0000000000e+00 
          0.0000000000e+00 1.5384620000e+00 0.0000000000e+00 
          0.0000000000e+00 2.3076920000e+00 0.0000000000e+00 
          0.0000000000e+00 3.0769230000e+00 0.0000000000e+00 
          0.0000000000e+00 3.8461540000e+00 0.0000000000e+00 
          0.0000000000e+00 4.6153850000e+00 0.0000000000e+00 
          0.0000000000e+00 5.3846150000e+00 0.0000000000e+00 
          0.0000000000e+00 6.1538460000e+00 0.0000000000e+00 
          0.0000000000e+00 6.9230770000e+00 0.0000000000e+00 
          0.0000000000e+00 7.6923080000e+00 0.0000000000e+00 
          0.0000000000e+00 8.4615380000e+00 0.0000000000e+00 
          0.0000000000e+00 9.2307690000e+00 0.0000000000e+00 
          0.0000000000e+00 1.0000000000e+01 0.0000000000e+00 
          0.0000000000e+00 1.0769231000e+01 0.0000000000e+00 
          0.0000000000e+00 1.1538462000e+01 0.0000000000e+00 
          0.0000000000e+00 1.2307692000e+01 0.0000000000e+00 
          0.0000000000e+00 1.3076923000e+01 0.0000000000e+00 
          0.0000000000e+00 1.3846154000e+01 0.0000000000e+00 
          0.0000000000e+00 1.4615385000e+01 0.0000000000e+00 
          0.0000000000e+00 1.5384615000e+01 0.0000000000e+00 
          0.0000000000e+00 1.6153846000e+01 0.0000000000e+00 
          0.0000000000e+00 1.6923077000e+01 0.0000000000e+00 
          0.0000000000e+00 1.7692308000e+01 0.0000000000e+00 
          0.0000000000e+00 1.8461538000e+01 0.0000000000e+00 
          0.0000000000e+00 1.9230769000e+01 0.0000000000e+00 
          0.0000000000e+00 2.0000000000e+01 0.0000000000e+00 
          0.0000000000e+00 2.0769231000e+01 0.0000000000e+00 
          0.0000000000e+00 2.1538462000e+01 0.0000000000e+00 
          0.0000000000e+00 2.2307692000e+01 0.0000000000e+00 
          0.0000000000e+00 2.3076923000e+01 0.0000000000e+00 
          0.0000000000e+00 2.3846154000e+01 0.0000000000e+00 
          0.0000000000e+00 2.4615385000e+01 0.0000000000e+00 
          0.0000000000e+00 2.5384615000e+01 0.0000000000e+00 
          0.0000000000e+00 2.6153846000e+01 0.0000000000e+00 
          0.0000000000e+00 2.6923077000e+01 0.0000000000e+00 
          0.0000000000e+00 2.7692308000e+01 0.0000000000e+00 
          0.0000000000e+00 2.8461538000e+01 0.0000000000e+00 
          0.0000000000e+00 2.9230769000e+01 0.0000000000e+00 
        </DataArray>
      </Points>
      <Cells>
        <DataArray type="Int64" Name="connectivity" format="ascii">
          0 1 4 42 
          42 4 5 43 
          43 5 6 44 
          44 6 7 45 
          45 7 8 46 
          46 8 9 47 
          47 9 10 48 
          48 10 11 49 
          49 11 12 50 
          50 12 13 51 
          51 13 14 52 
          52 14 15 53 
          53 15 16 54 
          54 16 17 55 
          55 17 18 56 
          56 18 19 57 
          57 19 20 58 
          58 20 21 59 
          59 21 22 60 
          60 22 23 61 
          61 23 24 62 
          62 24 25 63 
          63 25 26 64 
          64 26 27 65 
          65 27 28 66 
          66 28 29 67 
          67 29 30 68 
          68 30 31 69 
          69 31 32 70 
          70 32 33 71 
          71 33 34 72 
          72 34 35 73 
          73 35 36 74 
          74 36 37 75 
          75 37 38 76 
          76 38 39 77 
          77 39 40 78 
          78 40 41 79 
          79 41 2 3 
        </DataArray>
        <DataArray type="Int64" Name="offsets" format="ascii">
          4
          8
          12
          16
          20
          24
          28
          32
          36
          40
          44
          48
          52
          56
          60
          64
          68
          72
          76
          80
          84
          88
          92
          96
          100
          104
          108
          112
          116
          120
          124
          128
          132
          136
          140
          144
          148
          152
          156
        </DataArray>
        <DataArray type="Int64" Name="types" format="ascii">
          9
          9
          9
          9
          9
          9
          9
          9
          9
          9
          9
          9
          9
          9
          9
          9
          9
          9
          9
          9
          9
          9
          9
          9
          9
          9
          9
          9
          9
          9
          9
          9
          9
          9
          9
          9
          9
          9
          9
        </DataArray>
      </Cells>
      <PointData>
        <DataArray type="Int64" Name="NodeTag" format="ascii">
          1
          2
          3
          4
          7
          8
          9
          10
          11
          12
          13
          14
          15
          16
          17
          18
          19
          20
          21
          22
          23
          24
          25
          26
          27
          28
          29
          30
          31
          32
          33
          34
          35
          36
          37
          38
          39
          40
          41
          42
          43
          44
          45
          46
          47
          48
          49
          50
          51
          52
          53
          54
          55
          56
          57
          58
          59
          60
          61
          62
          63
          64
          65
          66
          67
          68
          69
          70
          71
          72
          73
          74
          75
          76
          77
          78
          79
          80
          81
          82
        </DataArray>
        <DataArray type="Float64" Name="Velocity" NumberOfComponents="3" format="ascii">
          1.0586463047e-19 -7.3269525014e-05 0.0000000000e+00 
          1.0586463047e-19 -7.3269525014e-05 0.0000000000e+00 
          -1.3817984373e-19 -1.9315937124e-04 0.0000000000e+00 
          -1.3817984373e-19 -1.9315937124e-04 0.0000000000e+00 
          -5.7627628202e-18 -7.6436927441e-05 0.0000000000e+00 
          -4.1211032504e-18 -7.9889408509e-05 0.0000000000e+00 
          2.6735791208e-18 -8.3117413832e-05 0.0000000000e+00 
          4.0015123897e-19 -8.6788808005e-05 0.0000000000e+00 
          8.6801109248e-18 -9.0798479779e-05 0.0000000000e+00 
          -2.8958828955e-18 -9.4026771853e-05 0.0000000000e+00 
          1.6386382659e-18 -9.6928490840e-05 0.0000000000e+00 
          -1.8491908171e-18 -1.0043889317e-04 0.0000000000e+00 
          3.9866398592e-19 -1.0410655324e-04 0.0000000000e+00 
          4.9788698212e-19 -1.0724736869e-04 0.0000000000e+00 
          -1.5533490596e-18 -1.1025000327e-04 0.0000000000e+00 
          -7.5568393900e-19 -1.1326279586e-04 0.0000000000e+00 
          1.3903316116e-18 -1.1669287863e-04 0.0000000000e+00 
          -1.0553675396e-19 -1.2018737696e-04 0.0000000000e+00 
          2.0635400233e-20 -1.2341874550e-04 0.0000000000e+00 
          -4.5309060794e-18 -1.2766752327e-04 0.0000000000e+00 
          8.3730130449e-19 -1.3195984504e-04 0.0000000000e+00 
          3.0494064926e-19 -1.3570282559e-04 0.0000000000e+00 
          -1.1934387356e-18 -1.3822135354e-04 0.0000000000e+00 
          -1.6216146133e-19 -1.4012233196e-04 0.0000000000e+00 
          -8.3465215948e-19 -1.4323576152e-04 0.0000000000e+00 
          6.0691527682e-19 -1.4648984363e-04 0.0000000000e+00 
          8.3424604366e-19 -1.4944667274e-04 0.0000000000e+00 
          -3.5195023687e-18 -1.5292360101e-04 0.0000000000e+00 
          -2.3959247042e-18 -1.5679255564e-04 0.0000000000e+00 
          -1.7663527906e-18 -1.6046699871e-04 0.0000000000e+00 
          3.2971438018e-18 -1.6445713233e-04 0.0000000000e+00 
          1.3953523432e-18 -1.6940300384e-04 0.0000000000e+00 
          3.4870417719e-18 -1.7349667515e-04 0.0000000000e+00 
          1.7822903694e-18 -1.7715949226e-04 0.0000000000e+00 
          -1.4782660981e-18 -1.8089659073e-04 0.0000000000e+00 
          -1.0979432728e-18 -1.8402993031e-04 0.0000000000e+00 
          -2.1614672667e-18 -1.8633481955e-04 0.0000000000e+00 
          -3.1634260504e-18 -1.8835195662e-04 0.0000000000e+00 
          1.5604143740e-18 -1.9033255012e-04 0.0000000000e+00 
          1.8805168841e-18 -1.9191454809e-04 0.0000000000e+00 
          2.5917129560e-18 -1.9244945664e-04 0.0000000000e+00 
          -1.8053431016e-19 -1.9264124022e-04 0.0000000000e+00 
          -5.7627628202e-18 -7.6436927441e-05 0.0000000000e+00 
          -4.1211032504e-18 -7.9889408509e-05 0.0000000000e+00 
          2.6735791208e-18 -8.3117413832e-05 0.0000000000e+00 
          4.0015123897e-19 -8.6788808005e-05 0.0000000000e+00 
          8.6801109248e-18 -9.0798479779e-05 0.0000000000e+00 
          -2.8958828955e-18 -9.4026771853e-05 0.0000000000e+00 
          1.6386382659e-18 -9.6928490840e-05 0.0000000000e+00 
          -1.8491908171e-18 -1.0043889317e-04 0.0000000000e+00 
          3.9866398592e-19 -1.0410655324e-04 0.0000000000e+00 
          4.9788698212e-19 -1.0724736869e-04 0.0000000000e+00 
          -1.5533490596e-18 -1.1025000327e-04 0.0000000000e+00 
          -7.5568393900e-19 -1.1326279586e-04 0.0000000000e+00 
          1.3903316116e-18 -1.1669287863e-04 0.0000000000e+00 
          -1.0553675396e-19 -1.2018737696e-04 0.0000000000e+00 
          2.0635400233e-20 -1.2341874550e-04 0.0000000000e+00 
          -4.5309060794e-18 -1.2766752327e-04 0.0000000000e+00 
          8.3730130449e-19 -1.3195984504e-04 0.0000000000e+00 
          3.0494064926e-19 -1.3570282559e-04 0.0000000000e+00 
          -1.1934387356e-18 -1.3822135354e-04 0.0000000000e+00 
          -1.6216146133e-19 -1.4012233196e-04 0.0000000000e+00 
          -8.3465215948e-19 -1.4323576152e-04 0.0000000000e+00 
          6.0691527682e-19 -1.4648984363e-04 0.0000000000e+00 
          8.3424604366e-19 -1.4944667274e-04 0.0000000000e+00 
          -3.5195023687e-18 -1.5292360101e-04 0.0000000000e+00 
          -2.3959247042e-18 -1.5679255564e-04 0.0000000000e+00 
          -1.7663527906e-18 -1.6046699871e-04 0.0000000000e+00 
          3.2971438018e-18 -1.6445713233e-04 0.0000000000e+00 
          1.3953523432e-18 -1.6940300384e-04 0.0000000000e+00 
          3.4870417719e-18 -1.7349667515e-04 0.0000000000e+00 
          1.7822903694e-18 -1.7715949226e-04 0.0000000000e+00 
          -1.4782660981e-18 -1.8089659073e-04 0.0000000000e+00 
          -1.0979432728e-18 -1.8402993031e-04 0.0000000000e+00 
          -2.1614672667e-18 -1.8633481955e-04 0.0000000000e+00 
          -3.1634260504e-18 -1.8835195662e-04 0.0000000000e+00 
          1.5604143740e-18 -1.9033255012e-04 0.0000000000e+00 
          1.8805168841e-18 -1.9191454809e-04 0.0000000000e+00 
          2.5917129560e-18 -1.9244945664e-04 0.0000000000e+00 
          -1.8053431016e-19 -1.9264124022e-04 0.0000000000e+00 
        </DataArray>
        <DataArray type="Float64" Name="Displacement" NumberOfComponents="3" format="ascii">
          9.8652463959e-21 -6.1938304104e-05 0.0000000000e+00 
          9.8652463959e-21 -6.1938304104e-05 0.0000000000e+00 
          2.2195461588e-21 -8.3783118463e-05 0.0000000000e+00 
          2.2195461588e-21 -8.3783118463e-05 0.0000000000e+00 
          1.5248556194e-21 -6.3061530076e-05 0.0000000000e+00 
          1.4484040873e-20 -6.4157602282e-05 0.0000000000e+00 
          -2.3533998637e-20 -6.5225709997e-05 0.0000000000e+00 
          -2.0953840840e-21 -6.6263783682e-05 0.0000000000e+00 
          -2.3592023241e-21 -6.7272786154e-05 0.0000000000e+00 
          1.3450260387e-21 -6.8250637631e-05 0.0000000000e+00 
          -6.7240313290e-21 -6.9196898442e-05 0.0000000000e+00 
          9.9569974569e-21 -7.0112169206e-05 0.0000000000e+00 
          -1.6315654075e-20 -7.0996591790e-05 0.0000000000e+00 
          4.9377824671e-21 -7.1853876811e-05 0.0000000000e+00 
          -3.2653805924e-22 -7.2684212911e-05 0.0000000000e+00 
          1.4362547598e-20 -7.3484919679e-05 0.0000000000e+00 
          4.3152467742e-21 -7.4255074864e-05 0.0000000000e+00 
          1.8606526436e-21 -7.4994869398e-05 0.0000000000e+00 
          -8.9367944602e-21 -7.5703291280e-05 0.0000000000e+00 
          4.9671765389e-21 -7.6380175185e-05 0.0000000000e+00 
          1.6807791479e-20 -7.7028050692e-05 0.0000000000e+00 
          -2.9728659021e-21 -7.7645820116e-05 0.0000000000e+00 
          -1.3234397392e-20 -7.8233632571e-05 0.0000000000e+00 
          -1.5972320104e-20 -7.8792962071e-05 0.0000000000e+00 
          -7.7912550090e-21 -7.9323283661e-05 0.0000000000e+00 
          -1.6900017315e-20 -7.9824848146e-05 0.0000000000e+00 
          -2.3707480764e-20 -8.0298171696e-05 0.0000000000e+00 
          -2.3943960518e-20 -8.0742572644e-05 0.0000000000e+00 
          -1.6165726935e-20 -8.1157599582e-05 0.0000000000e+00 
          -1.5084555402e-20 -8.1540962836e-05 0.0000000000e+00 
          -1.8675757468e-20 -8.1890550569e-05 0.0000000000e+00 
          -2.0896681165e-21 -8.2208444546e-05 0.0000000000e+00 
          1.1557299223e-20 -8.2495367882e-05 0.0000000000e+00 
          2.4944894650e-20 -8.2752369541e-05 0.0000000000e+00 
          1.6147185761e-20 -8.2978060839e-05 0.0000000000e+00 
          9.1723655197e-21 -8.3171956908e-05 0.0000000000e+00 
          -1.2449886263e-20 -8.3337542979e-05 0.0000000000e+00 
          -2.0583727445e-20 -8.3476101159e-05 0.0000000000e+00 
          -2.1296768039e-20 -8.3588263983e-05 0.0000000000e+00 
          -1.0266539545e-20 -8.3675572621e-05 0.0000000000e+00 
          1.6688611711e-20 -8.3736823852e-05 0.0000000000e+00 
          1.9745897126e-20 -8.3771783545e-05 0.0000000000e+00 
          1.5248556194e-21 -6.3061530076e-05 0.0000000000e+00 
          1.4484040873e-20 -6.4157602282e-05 0.0000000000e+00 
          -2.3533998637e-20 -6.5225709997e-05 0.0000000000e+00 
          -2.0953840840e-21 -6.6263783682e-05 0.0000000000e+00 
          -2.3592023241e-21 -6.7272786154e-05 0.0000000000e+00 
          1.3450260387e-21 -6.8250637631e-05 0.0000000000e+00 
          -6.7240313290e-21 -6.9196898442e-05 0.0000000000e+00 
          9.9569974569e-21 -7.0112169206e-05 0.0000000000e+00 
          -1.6315654075e-20 -7.0996591790e-05 0.0000000000e+00 
          4.9377824671e-21 -7.1853876811e-05 0.0000000000e+00 
          -3.2653805924e-22 -7.2684212911e-05 0.0000000000e+00 
          1.4362547598e-20 -7.3484919679e-05 0.0000000000e+00 
          4.3152467742e-21 -7.4255074864e-05 0.0000000000e+00 
          1.8606526436e-21 -7.4994869398e-05 0.0000000000e+00 
          -8.9367944602e-21 -7.5703291280e-05 0.0000000000e+00 
          4.9671765389e-21 -7.6380175185e-05 0.0000000000e+00 
          1.6807791479e-20 -7.7028050692e-05 0.0000000000e+00 
          -2.9728659021e-21 -7.7645820116e-05 0.0000000000e+00 
          -1.3234397392e-20 -7.8233632571e-05 0.0000000000e+00 
          -1.5972320104e-20 -7.8792962071e-05 0.0000000000e+00 
          -7.7912550090e-21 -7.9323283661e-05 0.0000000000e+00 
          -1.6900017315e-20 -7.9824848146e-05 0.0000000000e+00 
          -2.3707480764e-20 -8.0298171696e-05 0.0000000000e+00 
          -2.3943960518e-20 -8.0742572644e-05 0.0000000000e+00 
          -1.6165726935e-20 -8.1157599582e-05 0.0000000000e+00 
          -1.5084555402e-20 -8.1540962836e-05 0.0000000000e+00 
          -1.8675757468e-20 -8.1890550569e-05 0.0000000000e+00 
          -2.0896681165e-21 -8.2208444546e-05 0.0000000000e+00 
          1.1557299223e-20 -8.2495367882e-05 0.0000000000e+00 
          2.4944894650e-20 -8.2752369541e-05 0.0000000000e+00 
          1.6147185761e-20 -8.2978060839e-05 0.0000000000e+00 
          9.1723655197e-21 -8.3171956908e-05 0.0000000000e+00 
          -1.2449886263e-20 -8.3337542979e-05 0.0000000000e+00 
          -2.0583727445e-20 -8.3476101159e-05 0.0000000000e+00 
          -2.1296768039e-20 -8.3588263983e-05 0.0000000000e+00 
          -1.0266539545e-20 -8.3675572621e-05 0.0000000000e+00 
          1.6688611711e-20 -8.3736823852e-05 0.0000000000e+00 
          1.9745897126e-20 -8.3771783545e-05 0.0000000000e+00 
        </DataArray>
        <DataArray type="Float64" Name="Acceleration" NumberOfComponents="3" format="ascii">
          -1.0542935564e-15 -1.9827972619e-04 0.0000000000e+00 
          -1.0542935564e-15 -1.9827972619e-04 0.0000000000e+00 
          1.7287806828e-17 -1.5022701928e-03 0.0000000000e+00 
          1.7287806828e-17 -1.5022701928e-03 0.0000000000e+00 
          2.4482086574e-15 -6.9424850147e-04 0.0000000000e+00 
          -5.7507610114e-15 -5.4839948734e-04 0.0000000000e+00 
          5.5286264398e-15 -1.7495983818e-04 0.0000000000e+00 
          -1.7657251569e-15 -3.4871709477e-04 0.0000000000e+00 
          -8.3824971002e-16 2.6067917949e-05 0.0000000000e+00 
          8.9873322035e-16 1.0508058503e-04 0.0000000000e+00 
          1.0094441299e-16 -2.7102614154e-06 0.0000000000e+00 
          -1.9225456135e-15 -2.8500528292e-05 0.0000000000e+00 
          4.0458706874e-15 -6.9716852174e-04 0.0000000000e+00 
          -2.7410730934e-15 -7.3135350092e-04 0.0000000000e+00 
          2.0075955200e-15 -2.4794379210e-04 0.0000000000e+00 
          -2.4765690408e-15 -8.1948511740e-05 0.0000000000e+00 
          7.3038542952e-16 -1.1635511363e-04 0.0000000000e+00 
          -4.0978799841e-16 6.6011256154e-05 0.0000000000e+00 
          6.1412747631e-16 9.5649003552e-05 0.0000000000e+00 
          1.4266887340e-15 -3.5987480835e-04 0.0000000000e+00 
          -2.6342460709e-15 -1.6222902819e-04 0.0000000000e+00 
          5.2013113010e-16 -1.8910054431e-04 0.0000000000e+00 
          2.1507347434e-16 -4.5485080860e-04 0.0000000000e+00 
          -1.4825889985e-16 -3.5999012493e-04 0.0000000000e+00 
          2.2211491689e-16 -4.0532056928e-04 0.0000000000e+00 
          -7.5369500424e-16 -4.9833628052e-04 0.0000000000e+00 
          1.7213752077e-15 -3.7559807226e-04 0.0000000000e+00 
          8.7745346474e-16 -2.9404409458e-04 0.0000000000e+00 
          -1.9921719308e-15 1.1845649248e-04 0.0000000000e+00 
          -1.1509546285e-16 4.9901792469e-04 0.0000000000e+00 
          1.4377624860e-15 1.2387564744e-04 0.0000000000e+00 
          -2.6054891211e-16 -6.4963259240e-06 0.0000000000e+00 
          2.5253725526e-16 -1.9538908901e-04 0.0000000000e+00 
          -2.6885354028e-15 5.4786192533e-05 0.0000000000e+00 
          2.4521154844e-15 1.4216155202e-04 0.0000000000e+00 
          -1.2611672019e-15 -4.8592641714e-04 0.0000000000e+00 
          8.3257925671e-17 -7.1688979220e-04 0.0000000000e+00 
          -2.1171431163e-17 -8.3091694934e-04 0.0000000000e+00 
          1.9659405478e-16 -1.1086418304e-03 0.0000000000e+00 
          9.3182583410e-16 -8.9182815467e-04 0.0000000000e+00 
          -3.3236694593e-16 -8.4960778677e-04 0.0000000000e+00 
          -2.2095218224e-16 -1.3301868385e-03 0.0000000000e+00 
          2.4482086574e-15 -6.9424850147e-04 0.0000000000e+00 
          -5.7507610114e-15 -5.4839948734e-04 0.0000000000e+00 
          5.5286264398e-15 -1.7495983818e-04 0.0000000000e+00 
          -1.7657251569e-15 -3.4871709477e-04 0.0000000000e+00 
          -8.3824971002e-16 2.6067917949e-05 0.0000000000e+00 
          8.9873322035e-16 1.0508058503e-04 0.0000000000e+00 
          1.0094441299e-16 -2.7102614154e-06 0.0000000000e+00 
          -1.9225456135e-15 -2.8500528292e-05 0.0000000000e+00 
          4.0458706874e-15 -6.9716852174e-04 0.0000000000e+00 
          -2.7410730934e-15 -7.3135350092e-04 0.0000000000e+00 
          2.0075955200e-15 -2.4794379210e-04 0.0000000000e+00 
          -2.4765690408e-15 -8.1948511740e-05 0.0000000000e+00 
          7.3038542952e-16 -1.1635511363e-04 0.0000000000e+00 
          -4.0978799841e-16 6.6011256154e-05 0.0000000000e+00 
          6.1412747631e-16 9.5649003552e-05 0.0000000000e+00 
          1.4266887340e-15 -3.5987480835e-04 0.0000000000e+00 
          -2.6342460709e-15 -1.6222902819e-04 0.0000000000e+00 
          5.2013113010e-16 -1.8910054431e-04 0.0000000000e+00 
          2.1507347434e-16 -4.5485080860e-04 0.0000000000e+00 
          -1.4825889985e-16 -3.5999012493e-04 0.0000000000e+00 
          2.2211491689e-16 -4.0532056928e-04 0.0000000000e+00 
          -7.5369500424e-16 -4.9833628052e-04 0.0000000000e+00 
          1.7213752077e-15 -3.7559807226e-04 0.0000000000e+00 
          8.7745346474e-16 -2.9404409458e-04 0.0000000000e+00 
          -1.9921719308e-15 1.1845649248e-04 0.0000000000e+00 
          -1.1509546285e-16 4.9901792469e-04 0.0000000000e+00 
          1.4377624860e-15 1.2387564744e-04 0.0000000000e+00 
          -2.6054891211e-16 -6.4963259240e-06 0.0000000000e+00 
          2.5253725526e-16 -1.9538908901e-04 0.0000000000e+00 
          -2.6885354028e-15 5.4786192533e-05 0.0000000000e+00 
          2.4521154844e-15 1.4216155202e-04 0.0000000000e+00 
          -1.2611672019e-15 -4.8592641714e-04 0.0000000000e+00 
          8.3257925671e-17 -7.1688979220e-04 0.0000000000e+00 
          -2.1171431163e-17 -8.3091694934e-04 0.0000000000e+00 
          1.9659405478e-16 -1.1086418304e-03 0.0000000000e+00 
          9.3182583410e-16 -8.9182815467e-04 0.0000000000e+00 
          -3.3236694593e-16 -8.4960778677e-04 0.0000000000e+00 
          -2.2095218224e-16 -1.3301868385e-03 0.0000000000e+00 
        </DataArray>
        <DataArray type="Float64" Name="Reaction" NumberOfComponents="3" format="ascii">
          0.0000000000e+00 0.0000000000e+00 0.0000000000e+00 
          0.0000000000e+00 0.0000000000e+00 0.0000000000e+00 
          0.0000000000e+00 0.0000000000e+00 0.0000000000e+00 
          0.0000000000e+00 0.0000000000e+00 0.0000000000e+00 
          0.0000000000e+00 0.0000000000e+00 0.0000000000e+00 
          0.0000000000e+00 0.0000000000e+00 0.0000000000e+00 
          0.0000000000e+00 0.0000000000e+00 0.0000000000e+00 
          0.0000000000e+00 0.0000000000e+00 0.0000000000e+00 
          0.0000000000e+00 0.0000000000e+00 0.0000000000e+00 
          0.0000000000e+00 0.0000000000e+00 0.0000000000e+00 
          0.0000000000e+00 0.0000000000e+00 0.0000000000e+00 
          0.0000000000e+00 0.0000000000e+00 0.0000000000e+00 
          0.0000000000e+00 0.0000000000e+00 0.0000000000e+00 
          0.0000000000e+00 0.0000000000e+00 0.0000000000e+00 
          0.0000000000e+00 0.0000000000e+00 0.0000000000e+00 
          0.0000000000e+00 0.0000000000e+00 0.0000000000e+00 
          0.0000000000e+00 0.0000000000e+00 0.0000000000e+00 
          0.0000000000e+00 0.0000000000e+00 0.0000000000e+00 
          0.0000000000e+00 0.0000000000e+00 0.0000000000e+00 
          0.0000000000e+00 0.0000000000e+00 0.0000000000e+00 
          0.0000000000e+00 0.0000000000e+00 0.0000000000e+00 
          0.0000000000e+00 0.0000000000e+00 0.0000000000e+00 
          0.0000000000e+00 0.0000000000e+00 0.0000000000e+00 
          0.0000000000e+00 0.0000000000e+00 0.0000000000e+00 
          0.0000000000e+00 0.0000000000e+00 0.0000000000e+00 
          0.0000000000e+00 0.0000000000e+00 0.0000000000e+00 
          0.0000000000e+00 0.0000000000e+00 0.0000000000e+00 
          0.0000000000e+00 0.0000000000e+00 0.0000000000e+00 
          0.0000000000e+00 0.0000000000e+00 0.0000000000e+00 
          0.0000000000e+00 0.0000000000e+00 0.0000000000e+00 
          0.0000000000e+00 0.0000000000e+00 0.0000000000e+00 
          0.0000000000e+00 0.0000000000e+00 0.0000000000e+00 
          0.0000000000e+00 0.0000000000e+00 0.0000000000e+00 
          0.0000000000e+00 0.0000000000e+00 0.0000000000e+00 
          0.0000000000e+00 0.0000000000e+00 0.0000000000e+00 
          0.0000000000e+00 0.0000000000e+00 0.0000000000e+00 
          0.0000000000e+00 0.0000000000e+00 0.0000000000e+00 
          0.0000000000e+00 0.0000000000e+00 0.0000000000e+00 
          0.0000000000e+00 0.0000000000e+00 0.0000000000e+00 
          0.0000000000e+00 0.0000000000e+00 0.0000000000e+00 
          0.0000000000e+00 0.0000000000e+00 0.0000000000e+00 
          0.0000000000e+00 0.0000000000e+00 0.0000000000e+00 
          0.0000000000e+00 0.0000000000e+00 0.0000000000e+00 
          0.0000000000e+00 0.0000000000e+00 0.0000000000e+00 
          0.0000000000e+00 0.0000000000e+00 0.0000000000e+00 
          0.0000000000e+00 0.0000000000e+00 0.0000000000e+00 
          0.0000000000e+00 0.0000000000e+00 0.0000000000e+00 
          0.0000000000e+00 0.0000000000e+00 0.0000000000e+00 
          0.0000000000e+00 0.0000000000e+00 0.0000000000e+00 
          0.0000000000e+00 0.0000000000e+00 0.0000000000e+00 
          0.0000000000e+00 0.0000000000e+00 0.0000000000e+00 
          0.0000000000e+00 0.0000000000e+00 0.0000000000e+00 
          0.0000000000e+00 0.0000000000e+00 0.0000000000e+00 
          0.0000000000e+00 0.0000000000e+00 0.0000000000e+00 
          0.0000000000e+00 0.0000000000e+00 0.0000000000e+00 
          0.0000000000e+00 0.0000000000e+00 0.0000000000e+00 
          0.0000000000e+00 0.0000000000e+00 0.0000000000e+00 
          0.0000000000e+00 0.0000000000e+00 0.0000000000e+00 
          0.0000000000e+00 0.0000000000e+00 0.0000000000e+00 
          0.0000000000e+00 0.0000000000e+00 0.0000000000e+00 
          0.0000000000e+00 0.0000000000e+00 0.0000000000e+00 
          0.0000000000e+00 0.0000000000e+00 0.0000000000e+00 
          0.0000000000e+00 0.0000000000e+00 0.0000000000e+00 
          0.0000000000e+00 0.0000000000e+00 0.0000000000e+00 
          0.0000000000e+00 0.0000000000e+00 0.0000000000e+00 
          0.0000000000e+00 0.0000000000e+00 0.0000000000e+00 
          0.0000000000e+00 0.0000000000e+00 0.0000000000e+00 
          0.0000000000e+00 0.0000000000e+00 0.0000000000e+00 
          0.0000000000e+00 0.0000000000e+00 0.0000000000e+00 
          0.0000000000e+00 0.0000000000e+00 0.0000000000e+00 
          0.0000000000e+00 0.0000000000e+00 0.0000000000e+00 
          0.0000000000e+00 0.0000000000e+00 0.0000000000e+00 
          0.0000000000e+00 0.0000000000e+00 0.0000000000e+00 
          0.0000000000e+00 0.0000000000e+00 0.0000000000e+00 
          0.0000000000e+00 0.0000000000e+00 0.0000000000e+00 
          0.0000000000e+00 0.0000000000e+00 0.0000000000e+00 
          0.0000000000e+00 0.0000000000e+00 0.0000000000e+00 
          0.0000000000e+00 0.0000000000e+00 0.0000000000e+00 
          0.0000000000e+00 0.0000000000e+00 0.0000000000e+00 
          0.0000000000e+00 0.0000000000e+00 0.0000000000e+00 
        </DataArray>
      </PointData>
      <CellData>
        <DataArray type="Int64" Name="ElementTag" format="ascii">
          90
          91
          92
          93
          94
          95
          96
          97
          98
          99
          100
          101
          102
          103
          104
          105
          106
          107
          108
          109
          110
          111
          112
          113
          114
          115
          116
          117
          118
          119
          120
          121
          122
          123
          124
          125
          126
          127
          128
        </DataArray>
      </CellData>
    </Piece>
  </UnstructuredGrid>
</VTKFile>
