<?xml version="1.0"?>
<VTKFile type="UnstructuredGrid" version="1.0" byte_order="LittleEndian" compressor="vtkZLibDataCompressor">
  <UnstructuredGrid>
    <Piece NumberOfPoints="80" NumberOfCells="39">
      <Points>
        <DataArray type="Float64" Name="Points" NumberOfComponents="3" format="ascii">
          0.0000000000e+00 0.0000000000e+00 0.0000000000e+00 
          2.5000000000e-01 0.0000000000e+00 0.0000000000e+00 
          2.5000000000e-01 3.0000000000e+01 0.0000000000e+00 
          0.0000000000e+00 3.0000000000e+01 0.0000000000e+00 
          2.5000000000e-01 7.6923100000e-01 0.0000000000e+00 
          2.5000000000e-01 1.5384620000e+00 0.0000000000e+00 
          2.5000000000e-01 2.3076920000e+00 0.0000000000e+00 
          2.5000000000e-01 3.0769230000e+00 0.0000000000e+00 
          2.5000000000e-01 3.8461540000e+00 0.0000000000e+00 
          2.5000000000e-01 4.6153850000e+00 0.0000000000e+00 
          2.5000000000e-01 5.3846150000e+00 0.0000000000e+00 
          2.5000000000e-01 6.1538460000e+00 0.0000000000e+00 
          2.5000000000e-01 6.9230770000e+00 0.0000000000e+00 
          2.5000000000e-01 7.6923080000e+00 0.0000000000e+00 
          2.5000000000e-01 8.4615380000e+00 0.0000000000e+00 
          2.5000000000e-01 9.2307690000e+00 0.0000000000e+00 
          2.5000000000e-01 1.0000000000e+01 0.0000000000e+00 
          2.5000000000e-01 1.0769231000e+01 0.0000000000e+00 
          2.5000000000e-01 1.1538462000e+01 0.0000000000e+00 
          2.5000000000e-01 1.2307692000e+01 0.0000000000e+00 
          2.5000000000e-01 1.3076923000e+01 0.0000000000e+00 
          2.5000000000e-01 1.3846154000e+01 0.0000000000e+00 
          2.5000000000e-01 1.4615385000e+01 0.0000000000e+00 
          2.5000000000e-01 1.5384615000e+01 0.0000000000e+00 
          2.5000000000e-01 1.6153846000e+01 0.0000000000e+00 
          2.5000000000e-01 1.6923077000e+01 0.0000000000e+00 
          2.5000000000e-01 1.7692308000e+01 0.0000000000e+00 
          2.5000000000e-01 1.8461538000e+01 0.0000000000e+00 
          2.5000000000e-01 1.9230769000e+01 0.0000000000e+00 
          2.5000000000e-01 2.0000000000e+01 0.0000000000e+00 
          2.5000000000e-01 2.0769231000e+01 0.0000000000e+00 
          2.5000000000e-01 2.1538462000e+01 0.0000000000e+00 
          2.5000000000e-01 2.2307692000e+01 0.0000000000e+00 
          2.5000000000e-01 2.3076923000e+01 0.0000000000e+00 
          2.5000000000e-01 2.3846154000e+01 0.0000000000e+00 
          2.5000000000e-01 2.4615385000e+01 0.0000000000e+00 
          2.5000000000e-01 2.5384615000e+01 0.0000000000e+00 
          2.5000000000e-01 2.6153846000e+01 0.0000000000e+00 
          2.5000000000e-01 2.6923077000e+01 0.0000000000e+00 
          2.5000000000e-01 2.7692308000e+01 0.0000000000e+00 
          2.5000000000e-01 2.8461538000e+01 0.0000000000e+00 
          2.5000000000e-01 2.9230769000e+01 0.0000000000e+00 
          0.0000000000e+00 7.6923100000e-01 0.0000000000e+00 
          0.0000000000e+00 1.5384620000e+00 0.0000000000e+00 
          0.0000000000e+00 2.3076920000e+00 0.0000000000e+00 
          0.0000000000e+00 3.0769230000e+00 0.0000000000e+00 
          0.0000000000e+00 3.8461540000e+00 0.0000000000e+00 
          0.0000000000e+00 4.6153850000e+00 0.0000000000e+00 
          0.0000000000e+00 5.3846150000e+00 0.0000000000e+00 
          0.0000000000e+00 6.1538460000e+00 0.0000000000e+00 
          0.0000000000e+00 6.9230770000e+00 0.0000000000e+00 
          0.0000000000e+00 7.6923080000e+00 0.0000000000e+00 
          0.0000000000e+00 8.4615380000e+00 0.0000000000e+00 
          0.0000000000e+00 9.2307690000e+00 0.0000000000e+00 
          0.0000000000e+00 1.0000000000e+01 0.0000000000e+00 
          0.0000000000e+00 1.0769231000e+01 0.0000000000e+00 
          0.0000000000e+00 1.1538462000e+01 0.0000000000e+00 
          0.0000000000e+00 1.2307692000e+01 0.0000000000e+00 
          0.0000000000e+00 1.3076923000e+01 0.0000000000e+00 
          0.0000000000e+00 1.3846154000e+01 0.0000000000e+00 
          0.0000000000e+00 1.4615385000e+01 0.0000000000e+00 
          0.0000000000e+00 1.5384615000e+01 0.0000000000e+00 
          0.0000000000e+00 1.6153846000e+01 0.0000000000e+00 
          0.0000000000e+00 1.6923077000e+01 0.0000000000e+00 
          0.0000000000e+00 1.7692308000e+01 0.0000000000e+00 
          0.0000000000e+00 1.8461538000e+01 0.0000000000e+00 
          0.0000000000e+00 1.9230769000e+01 0.0000000000e+00 
          0.0000000000e+00 2.0000000000e+01 0.0000000000e+00 
          0.0000000000e+00 2.0769231000e+01 0.0000000000e+00 
          0.0000000000e+00 2.1538462000e+01 0.0000000000e+00 
          0.0000000000e+00 2.2307692000e+01 0.0000000000e+00 
          0.0000000000e+00 2.3076923000e+01 0.0000000000e+00 
          0.0000000000e+00 2.3846154000e+01 0.0000000000e+00 
          0.0000000000e+00 2.4615385000e+01 0.0000000000e+00 
          0.0000000000e+00 2.5384615000e+01 0.0000000000e+00 
          0.0000000000e+00 2.6153846000e+01 0.0000000000e+00 
          0.0000000000e+00 2.6923077000e+01 0.0000000000e+00 
          0.0000000000e+00 2.7692308000e+01 0.0000000000e+00 
          0.0000000000e+00 2.8461538000e+01 0.0000000000e+00 
          0.0000000000e+00 2.9230769000e+01 0.0000000000e+00 
        </DataArray>
      </Points>
      <Cells>
        <DataArray type="Int64" Name="connectivity" format="ascii">
          0 1 4 42 
          42 4 5 43 
          43 5 6 44 
          44 6 7 45 
          45 7 8 46 
          46 8 9 47 
          47 9 10 48 
          48 10 11 49 
          49 11 12 50 
          50 12 13 51 
          51 13 14 52 
          52 14 15 53 
          53 15 16 54 
          54 16 17 55 
          55 17 18 56 
          56 18 19 57 
          57 19 20 58 
          58 20 21 59 
          59 21 22 60 
          60 22 23 61 
          61 23 24 62 
          62 24 25 63 
          63 25 26 64 
          64 26 27 65 
          65 27 28 66 
          66 28 29 67 
          67 29 30 68 
          68 30 31 69 
          69 31 32 70 
          70 32 33 71 
          71 33 34 72 
          72 34 35 73 
          73 35 36 74 
          74 36 37 75 
          75 37 38 76 
          76 38 39 77 
          77 39 40 78 
          78 40 41 79 
          79 41 2 3 
        </DataArray>
        <DataArray type="Int64" Name="offsets" format="ascii">
          4
          8
          12
          16
          20
          24
          28
          32
          36
          40
          44
          48
          52
          56
          60
          64
          68
          72
          76
          80
          84
          88
          92
          96
          100
          104
          108
          112
          116
          120
          124
          128
          132
          136
          140
          144
          148
          152
          156
        </DataArray>
        <DataArray type="Int64" Name="types" format="ascii">
          9
          9
          9
          9
          9
          9
          9
          9
          9
          9
          9
          9
          9
          9
          9
          9
          9
          9
          9
          9
          9
          9
          9
          9
          9
          9
          9
          9
          9
          9
          9
          9
          9
          9
          9
          9
          9
          9
          9
        </DataArray>
      </Cells>
      <PointData>
        <DataArray type="Int64" Name="NodeTag" format="ascii">
          1
          2
          3
          4
          7
          8
          9
          10
          11
          12
          13
          14
          15
          16
          17
          18
          19
          20
          21
          22
          23
          24
          25
          26
          27
          28
          29
          30
          31
          32
          33
          34
          35
          36
          37
          38
          39
          40
          41
          42
          43
          44
          45
          46
          47
          48
          49
          50
          51
          52
          53
          54
          55
          56
          57
          58
          59
          60
          61
          62
          63
          64
          65
          66
          67
          68
          69
          70
          71
          72
          73
          74
          75
          76
          77
          78
          79
          80
          81
          82
        </DataArray>
        <DataArray type="Float64" Name="Velocity" NumberOfComponents="3" format="ascii">
          8.7298391833e-03 -7.7781358046e-05 0.0000000000e+00 
          8.7298391833e-03 -7.7781358046e-05 0.0000000000e+00 
          -3.1625221432e-02 -7.8659204036e-05 0.0000000000e+00 
          -3.1625221432e-02 -7.8659204036e-05 0.0000000000e+00 
          7.2136960312e-03 -7.7847052596e-05 0.0000000000e+00 
          5.6892522646e-03 -7.7849636188e-05 0.0000000000e+00 
          4.1594317067e-03 -7.7790922359e-05 0.0000000000e+00 
          2.6271914220e-03 -7.7959660778e-05 0.0000000000e+00 
          1.0954643058e-03 -7.7941977782e-05 0.0000000000e+00 
          -4.3281331186e-04 -7.7905590741e-05 0.0000000000e+00 
          -1.9546849337e-03 -7.8051407907e-05 0.0000000000e+00 
          -3.4672401532e-03 -7.7952423614e-05 0.0000000000e+00 
          -4.9675433739e-03 -7.8058512389e-05 0.0000000000e+00 
          -6.4527154632e-03 -7.7995198675e-05 0.0000000000e+00 
          -7.9198428194e-03 -7.8040199232e-05 0.0000000000e+00 
          -9.3660758734e-03 -7.8107404086e-05 0.0000000000e+00 
          -1.0788605353e-02 -7.8113427544e-05 0.0000000000e+00 
          -1.2184612593e-02 -7.8140093963e-05 0.0000000000e+00 
          -1.3551359373e-02 -7.8118145945e-05 0.0000000000e+00 
          -1.4886092098e-02 -7.8230991671e-05 0.0000000000e+00 
          -1.6186191114e-02 -7.8187536724e-05 0.0000000000e+00 
          -1.7449037991e-02 -7.8285537965e-05 0.0000000000e+00 
          -1.8672056785e-02 -7.8290963885e-05 0.0000000000e+00 
          -1.9852797017e-02 -7.8328624606e-05 0.0000000000e+00 
          -2.0988818056e-02 -7.8434218384e-05 0.0000000000e+00 
          -2.2077810244e-02 -7.8305444913e-05 0.0000000000e+00 
          -2.3117520244e-02 -7.8491141941e-05 0.0000000000e+00 
          -2.4105755522e-02 -7.8444522623e-05 0.0000000000e+00 
          -2.5040501775e-02 -7.8387699865e-05 0.0000000000e+00 
          -2.5919761142e-02 -7.8565555077e-05 0.0000000000e+00 
          -2.6741683054e-02 -7.8490731699e-05 0.0000000000e+00 
          -2.7504551541e-02 -7.8454791904e-05 0.0000000000e+00 
          -2.8206686086e-02 -7.8585922269e-05 0.0000000000e+00 
          -2.8846624516e-02 -7.8509634643e-05 0.0000000000e+00 
          -2.9422994952e-02 -7.8508195859e-05 0.0000000000e+00 
          -2.9934530270e-02 -7.8669812602e-05 0.0000000000e+00 
          -3.0380144224e-02 -7.8521209669e-05 0.0000000000e+00 
          -3.0758845550e-02 -7.8615263320e-05 0.0000000000e+00 
          -3.1069827518e-02 -7.8525254821e-05 0.0000000000e+00 
          -3.1312426811e-02 -7.8573943085e-05 0.0000000000e+00 
          -3.1486083654e-02 -7.8675857147e-05 0.0000000000e+00 
          -3.1590418321e-02 -7.8503732094e-05 0.0000000000e+00 
          7.2136960312e-03 -7.7847052596e-05 0.0000000000e+00 
          5.6892522646e-03 -7.7849636188e-05 0.0000000000e+00 
          4.1594317067e-03 -7.7790922359e-05 0.0000000000e+00 
          2.6271914220e-03 -7.7959660778e-05 0.0000000000e+00 
          1.0954643058e-03 -7.7941977782e-05 0.0000000000e+00 
          -4.3281331186e-04 -7.7905590741e-05 0.0000000000e+00 
          -1.9546849337e-03 -7.8051407907e-05 0.0000000000e+00 
          -3.4672401532e-03 -7.7952423614e-05 0.0000000000e+00 
          -4.9675433739e-03 -7.8058512389e-05 0.0000000000e+00 
          -6.4527154632e-03 -7.7995198675e-05 0.0000000000e+00 
          -7.9198428194e-03 -7.8040199232e-05 0.0000000000e+00 
          -9.3660758734e-03 -7.8107404086e-05 0.0000000000e+00 
          -1.0788605353e-02 -7.8113427544e-05 0.0000000000e+00 
          -1.2184612593e-02 -7.8140093963e-05 0.0000000000e+00 
          -1.3551359373e-02 -7.8118145945e-05 0.0000000000e+00 
          -1.4886092098e-02 -7.8230991671e-05 0.0000000000e+00 
          -1.6186191114e-02 -7.8187536724e-05 0.0000000000e+00 
          -1.7449037991e-02 -7.8285537965e-05 0.0000000000e+00 
          -1.8672056785e-02 -7.8290963885e-05 0.0000000000e+00 
          -1.9852797017e-02 -7.8328624606e-05 0.0000000000e+00 
          -2.0988818056e-02 -7.8434218384e-05 0.0000000000e+00 
          -2.2077810244e-02 -7.8305444913e-05 0.0000000000e+00 
          -2.3117520244e-02 -7.8491141941e-05 0.0000000000e+00 
          -2.4105755522e-02 -7.8444522623e-05 0.0000000000e+00 
          -2.5040501775e-02 -7.8387699865e-05 0.0000000000e+00 
          -2.5919761142e-02 -7.8565555077e-05 0.0000000000e+00 
          -2.6741683054e-02 -7.8490731699e-05 0.0000000000e+00 
          -2.7504551541e-02 -7.8454791904e-05 0.0000000000e+00 
          -2.8206686086e-02 -7.8585922269e-05 0.0000000000e+00 
          -2.8846624516e-02 -7.8509634643e-05 0.0000000000e+00 
          -2.9422994952e-02 -7.8508195859e-05 0.0000000000e+00 
          -2.9934530270e-02 -7.8669812602e-05 0.0000000000e+00 
          -3.0380144224e-02 -7.8521209669e-05 0.0000000000e+00 
          -3.0758845550e-02 -7.8615263320e-05 0.0000000000e+00 
          -3.1069827518e-02 -7.8525254821e-05 0.0000000000e+00 
          -3.1312426811e-02 -7.8573943085e-05 0.0000000000e+00 
          -3.1486083654e-02 -7.8675857147e-05 0.0000000000e+00 
          -3.1590418321e-02 -7.8503732094e-05 0.0000000000e+00 
        </DataArray>
        <DataArray type="Float64" Name="Displacement" NumberOfComponents="3" format="ascii">
          4.3260102158e-04 -2.9086516576e-04 0.0000000000e+00 
          4.3260102158e-04 -2.9086516576e-04 0.0000000000e+00 
          3.8014660259e-03 -3.1442378152e-04 0.0000000000e+00 
          3.8014660259e-03 -3.1442378152e-04 0.0000000000e+00 
          5.7707002551e-04 -2.9205793843e-04 0.0000000000e+00 
          7.2034406911e-04 -2.9322011959e-04 0.0000000000e+00 
          8.6223960829e-04 -2.9435087962e-04 0.0000000000e+00 
          1.0025760781e-03 -2.9545077563e-04 0.0000000000e+00 
          1.1411749063e-03 -2.9652002853e-04 0.0000000000e+00 
          1.2778604476e-03 -2.9755802619e-04 0.0000000000e+00 
          1.4124598939e-03 -2.9856496242e-04 0.0000000000e+00 
          1.5448040772e-03 -2.9954109436e-04 0.0000000000e+00 
          1.6747266315e-03 -3.0048601458e-04 0.0000000000e+00 
          1.8020649290e-03 -3.0140032098e-04 0.0000000000e+00 
          1.9266598699e-03 -3.0228323962e-04 0.0000000000e+00 
          2.0483567078e-03 -3.0313529504e-04 0.0000000000e+00 
          2.1670041962e-03 -3.0395639829e-04 0.0000000000e+00 
          2.2824555355e-03 -3.0474631373e-04 0.0000000000e+00 
          2.3945682367e-03 -3.0550556914e-04 0.0000000000e+00 
          2.5032041018e-03 -3.0623336075e-04 0.0000000000e+00 
          2.6082301358e-03 -3.0693052041e-04 0.0000000000e+00 
          2.7095175604e-03 -3.0759644021e-04 0.0000000000e+00 
          2.8069427093e-03 -3.0823137019e-04 0.0000000000e+00 
          2.9003868532e-03 -3.0883539507e-04 0.0000000000e+00 
          2.9897366173e-03 -3.0940822800e-04 0.0000000000e+00 
          3.0748836171e-03 -3.0995025602e-04 0.0000000000e+00 
          3.1557249010e-03 -3.1046139832e-04 0.0000000000e+00 
          3.2321628360e-03 -3.1094116736e-04 0.0000000000e+00 
          3.3041056563e-03 -3.1139012593e-04 0.0000000000e+00 
          3.3714667904e-03 -3.1180834856e-04 0.0000000000e+00 
          3.4341655031e-03 -3.1219532281e-04 0.0000000000e+00 
          3.4921267859e-03 -3.1255114818e-04 0.0000000000e+00 
          3.5452813423e-03 -3.1287627910e-04 0.0000000000e+00 
          3.5935658952e-03 -3.1317031665e-04 0.0000000000e+00 
          3.6369229545e-03 -3.1343317538e-04 0.0000000000e+00 
          3.6753009449e-03 -3.1366549007e-04 0.0000000000e+00 
          3.7086542366e-03 -3.1386663958e-04 0.0000000000e+00 
          3.7369434385e-03 -3.1403689300e-04 0.0000000000e+00 
          3.7601349020e-03 -3.1417621237e-04 0.0000000000e+00 
          3.7782012361e-03 -3.1428450778e-04 0.0000000000e+00 
          3.7911210077e-03 -3.1436191414e-04 0.0000000000e+00 
          3.7988789867e-03 -3.1440837948e-04 0.0000000000e+00 
          5.7707002551e-04 -2.9205793843e-04 0.0000000000e+00 
          7.2034406911e-04 -2.9322011959e-04 0.0000000000e+00 
          8.6223960829e-04 -2.9435087962e-04 0.0000000000e+00 
          1.0025760781e-03 -2.9545077563e-04 0.0000000000e+00 
          1.1411749063e-03 -2.9652002853e-04 0.0000000000e+00 
          1.2778604476e-03 -2.9755802619e-04 0.0000000000e+00 
          1.4124598939e-03 -2.9856496242e-04 0.0000000000e+00 
          1.5448040772e-03 -2.9954109436e-04 0.0000000000e+00 
          1.6747266315e-03 -3.0048601458e-04 0.0000000000e+00 
          1.8020649290e-03 -3.0140032098e-04 0.0000000000e+00 
          1.9266598699e-03 -3.0228323962e-04 0.0000000000e+00 
          2.0483567078e-03 -3.0313529504e-04 0.0000000000e+00 
          2.1670041962e-03 -3.0395639829e-04 0.0000000000e+00 
          2.2824555355e-03 -3.0474631373e-04 0.0000000000e+00 
          2.3945682367e-03 -3.0550556914e-04 0.0000000000e+00 
          2.5032041018e-03 -3.0623336075e-04 0.0000000000e+00 
          2.6082301358e-03 -3.0693052041e-04 0.0000000000e+00 
          2.7095175604e-03 -3.0759644021e-04 0.0000000000e+00 
          2.8069427093e-03 -3.0823137019e-04 0.0000000000e+00 
          2.9003868532e-03 -3.0883539507e-04 0.0000000000e+00 
          2.9897366173e-03 -3.0940822800e-04 0.0000000000e+00 
          3.0748836171e-03 -3.0995025602e-04 0.0000000000e+00 
          3.1557249010e-03 -3.1046139832e-04 0.0000000000e+00 
          3.2321628360e-03 -3.1094116736e-04 0.0000000000e+00 
          3.3041056563e-03 -3.1139012593e-04 0.0000000000e+00 
          3.3714667904e-03 -3.1180834856e-04 0.0000000000e+00 
          3.4341655031e-03 -3.1219532281e-04 0.0000000000e+00 
          3.4921267859e-03 -3.1255114818e-04 0.0000000000e+00 
          3.5452813423e-03 -3.1287627910e-04 0.0000000000e+00 
          3.5935658952e-03 -3.1317031665e-04 0.0000000000e+00 
          3.6369229545e-03 -3.1343317538e-04 0.0000000000e+00 
          3.6753009449e-03 -3.1366549007e-04 0.0000000000e+00 
          3.7086542366e-03 -3.1386663958e-04 0.0000000000e+00 
          3.7369434385e-03 -3.1403689300e-04 0.0000000000e+00 
          3.7601349020e-03 -3.1417621237e-04 0.0000000000e+00 
          3.7782012361e-03 -3.1428450778e-04 0.0000000000e+00 
          3.7911210077e-03 -3.1436191414e-04 0.0000000000e+00 
          3.7988789867e-03 -3.1440837948e-04 0.0000000000e+00 
        </DataArray>
        <DataArray type="Float64" Name="Acceleration" NumberOfComponents="3" format="ascii">
          -9.0959123735e-02 -3.3899463954e-06 0.0000000000e+00 
          -9.0959123735e-02 -3.3899463954e-06 0.0000000000e+00 
          -4.6619469228e-01 -3.6449735425e-05 0.0000000000e+00 
          -4.6619469228e-01 -3.6449735425e-05 0.0000000000e+00 
          -1.0766828465e-01 -7.4754249176e-05 0.0000000000e+00 
          -1.2418943153e-01 7.4485545105e-05 0.0000000000e+00 
          -1.4049194019e-01 -2.5376048743e-05 0.0000000000e+00 
          -1.5656494357e-01 -6.5456532486e-05 0.0000000000e+00 
          -1.7239091936e-01 4.4853848577e-05 0.0000000000e+00 
          -1.8794564710e-01 9.6973263694e-06 0.0000000000e+00 
          -2.0321954346e-01 -3.6172283466e-05 0.0000000000e+00 
          -2.1819355206e-01 3.7011827103e-05 0.0000000000e+00 
          -2.3284664560e-01 -7.0734637935e-05 0.0000000000e+00 
          -2.4716741232e-01 6.8532519009e-05 0.0000000000e+00 
          -2.6113956204e-01 -2.5579750337e-05 0.0000000000e+00 
          -2.7475241675e-01 -9.7623987150e-06 0.0000000000e+00 
          -2.8797934978e-01 3.2703345827e-05 0.0000000000e+00 
          -3.0081788576e-01 -6.2406018694e-05 0.0000000000e+00 
          -3.1325727004e-01 8.2270021891e-05 0.0000000000e+00 
          -3.2526584763e-01 -6.7292304502e-05 0.0000000000e+00 
          -3.3685609986e-01 4.2080477595e-05 0.0000000000e+00 
          -3.4799865638e-01 -2.9750052168e-06 0.0000000000e+00 
          -3.5868570744e-01 -1.8381473105e-05 0.0000000000e+00 
          -3.6892288968e-01 3.3593997318e-05 0.0000000000e+00 
          -3.7867736326e-01 -3.6298313729e-05 0.0000000000e+00 
          -3.8795350140e-01 -2.1737027353e-05 0.0000000000e+00 
          -3.9674174554e-01 6.6014476121e-05 0.0000000000e+00 
          -4.0502791611e-01 -3.5182355359e-05 0.0000000000e+00 
          -4.1281898246e-01 -4.8724014617e-05 0.0000000000e+00 
          -4.2009337604e-01 4.3615630696e-05 0.0000000000e+00 
          -4.2685179040e-01 2.5686165257e-05 0.0000000000e+00 
          -4.3308959339e-01 -5.6274659590e-05 0.0000000000e+00 
          -4.3880344600e-01 1.5764201415e-05 0.0000000000e+00 
          -4.4397689710e-01 3.1080222074e-05 0.0000000000e+00 
          -4.4862394744e-01 -8.3307381296e-05 0.0000000000e+00 
          -4.5273166661e-01 2.8582241306e-05 0.0000000000e+00 
          -4.5628869379e-01 -1.9818717182e-05 0.0000000000e+00 
          -4.5931628897e-01 -1.3024283382e-05 0.0000000000e+00 
          -4.6178428555e-01 3.1749788909e-06 0.0000000000e+00 
          -4.6371423885e-01 -2.1150213571e-05 0.0000000000e+00 
          -4.6508951740e-01 -1.1748333451e-05 0.0000000000e+00 
          -4.6591188209e-01 1.0266012816e-05 0.0000000000e+00 
          -1.0766828465e-01 -7.4754249176e-05 0.0000000000e+00 
          -1.2418943153e-01 7.4485545105e-05 0.0000000000e+00 
          -1.4049194019e-01 -2.5376048743e-05 0.0000000000e+00 
          -1.5656494357e-01 -6.5456532486e-05 0.0000000000e+00 
          -1.7239091936e-01 4.4853848577e-05 0.0000000000e+00 
          -1.8794564710e-01 9.6973263694e-06 0.0000000000e+00 
          -2.0321954346e-01 -3.6172283466e-05 0.0000000000e+00 
          -2.1819355206e-01 3.7011827103e-05 0.0000000000e+00 
          -2.3284664560e-01 -7.0734637935e-05 0.0000000000e+00 
          -2.4716741232e-01 6.8532519009e-05 0.0000000000e+00 
          -2.6113956204e-01 -2.5579750337e-05 0.0000000000e+00 
          -2.7475241675e-01 -9.7623987150e-06 0.0000000000e+00 
          -2.8797934978e-01 3.2703345827e-05 0.0000000000e+00 
          -3.0081788576e-01 -6.2406018694e-05 0.0000000000e+00 
          -3.1325727004e-01 8.2270021891e-05 0.0000000000e+00 
          -3.2526584763e-01 -6.7292304502e-05 0.0000000000e+00 
          -3.3685609986e-01 4.2080477595e-05 0.0000000000e+00 
          -3.4799865638e-01 -2.9750052168e-06 0.0000000000e+00 
          -3.5868570744e-01 -1.8381473105e-05 0.0000000000e+00 
          -3.6892288968e-01 3.3593997318e-05 0.0000000000e+00 
          -3.7867736326e-01 -3.6298313729e-05 0.0000000000e+00 
          -3.8795350140e-01 -2.1737027353e-05 0.0000000000e+00 
          -3.9674174554e-01 6.6014476121e-05 0.0000000000e+00 
          -4.0502791611e-01 -3.5182355359e-05 0.0000000000e+00 
          -4.1281898246e-01 -4.8724014617e-05 0.0000000000e+00 
          -4.2009337604e-01 4.3615630696e-05 0.0000000000e+00 
          -4.2685179040e-01 2.5686165257e-05 0.0000000000e+00 
          -4.3308959339e-01 -5.6274659590e-05 0.0000000000e+00 
          -4.3880344600e-01 1.5764201415e-05 0.0000000000e+00 
          -4.4397689710e-01 3.1080222074e-05 0.0000000000e+00 
          -4.4862394744e-01 -8.3307381296e-05 0.0000000000e+00 
          -4.5273166661e-01 2.8582241306e-05 0.0000000000e+00 
          -4.5628869379e-01 -1.9818717182e-05 0.0000000000e+00 
          -4.5931628897e-01 -1.3024283382e-05 0.0000000000e+00 
          -4.6178428555e-01 3.1749788909e-06 0.0000000000e+00 
          -4.6371423885e-01 -2.1150213571e-05 0.0000000000e+00 
          -4.6508951740e-01 -1.1748333451e-05 0.0000000000e+00 
          -4.6591188209e-01 1.0266012816e-05 0.0000000000e+00 
        </DataArray>
        <DataArray type="Float64" Name="Reaction" NumberOfComponents="3" format="ascii">
          0.0000000000e+00 0.0000000000e+00 0.0000000000e+00 
          0.0000000000e+00 0.0000000000e+00 0.0000000000e+00 
          0.0000000000e+00 0.0000000000e+00 0.0000000000e+00 
          0.0000000000e+00 0.0000000000e+00 0.0000000000e+00 
          0.0000000000e+00 0.0000000000e+00 0.0000000000e+00 
          0.0000000000e+00 0.0000000000e+00 0.0000000000e+00 
          0.0000000000e+00 0.0000000000e+00 0.0000000000e+00 
          0.0000000000e+00 0.0000000000e+00 0.0000000000e+00 
          0.0000000000e+00 0.0000000000e+00 0.0000000000e+00 
          0.0000000000e+00 0.0000000000e+00 0.0000000000e+00 
          0.0000000000e+00 0.0000000000e+00 0.0000000000e+00 
          0.0000000000e+00 0.0000000000e+00 0.0000000000e+00 
          0.0000000000e+00 0.0000000000e+00 0.0000000000e+00 
          0.0000000000e+00 0.0000000000e+00 0.0000000000e+00 
          0.0000000000e+00 0.0000000000e+00 0.0000000000e+00 
          0.0000000000e+00 0.0000000000e+00 0.0000000000e+00 
          0.0000000000e+00 0.0000000000e+00 0.0000000000e+00 
          0.0000000000e+00 0.0000000000e+00 0.0000000000e+00 
          0.0000000000e+00 0.0000000000e+00 0.0000000000e+00 
          0.0000000000e+00 0.0000000000e+00 0.0000000000e+00 
          0.0000000000e+00 0.0000000000e+00 0.0000000000e+00 
          0.0000000000e+00 0.0000000000e+00 0.0000000000e+00 
          0.0000000000e+00 0.0000000000e+00 0.0000000000e+00 
          0.0000000000e+00 0.0000000000e+00 0.0000000000e+00 
          0.0000000000e+00 0.0000000000e+00 0.0000000000e+00 
          0.0000000000e+00 0.0000000000e+00 0.0000000000e+00 
          0.0000000000e+00 0.0000000000e+00 0.0000000000e+00 
          0.0000000000e+00 0.0000000000e+00 0.0000000000e+00 
          0.0000000000e+00 0.0000000000e+00 0.0000000000e+00 
          0.0000000000e+00 0.0000000000e+00 0.0000000000e+00 
          0.0000000000e+00 0.0000000000e+00 0.0000000000e+00 
          0.0000000000e+00 0.0000000000e+00 0.0000000000e+00 
          0.0000000000e+00 0.0000000000e+00 0.0000000000e+00 
          0.0000000000e+00 0.0000000000e+00 0.0000000000e+00 
          0.0000000000e+00 0.0000000000e+00 0.0000000000e+00 
          0.0000000000e+00 0.0000000000e+00 0.0000000000e+00 
          0.0000000000e+00 0.0000000000e+00 0.0000000000e+00 
          0.0000000000e+00 0.0000000000e+00 0.0000000000e+00 
          0.0000000000e+00 0.0000000000e+00 0.0000000000e+00 
          0.0000000000e+00 0.0000000000e+00 0.0000000000e+00 
          0.0000000000e+00 0.0000000000e+00 0.0000000000e+00 
          0.0000000000e+00 0.0000000000e+00 0.0000000000e+00 
          0.0000000000e+00 0.0000000000e+00 0.0000000000e+00 
          0.0000000000e+00 0.0000000000e+00 0.0000000000e+00 
          0.0000000000e+00 0.0000000000e+00 0.0000000000e+00 
          0.0000000000e+00 0.0000000000e+00 0.0000000000e+00 
          0.0000000000e+00 0.0000000000e+00 0.0000000000e+00 
          0.0000000000e+00 0.0000000000e+00 0.0000000000e+00 
          0.0000000000e+00 0.0000000000e+00 0.0000000000e+00 
          0.0000000000e+00 0.0000000000e+00 0.0000000000e+00 
          0.0000000000e+00 0.0000000000e+00 0.0000000000e+00 
          0.0000000000e+00 0.0000000000e+00 0.0000000000e+00 
          0.0000000000e+00 0.0000000000e+00 0.0000000000e+00 
          0.0000000000e+00 0.0000000000e+00 0.0000000000e+00 
          0.0000000000e+00 0.0000000000e+00 0.0000000000e+00 
          0.0000000000e+00 0.0000000000e+00 0.0000000000e+00 
          0.0000000000e+00 0.0000000000e+00 0.0000000000e+00 
          0.0000000000e+00 0.0000000000e+00 0.0000000000e+00 
          0.0000000000e+00 0.0000000000e+00 0.0000000000e+00 
          0.0000000000e+00 0.0000000000e+00 0.0000000000e+00 
          0.0000000000e+00 0.0000000000e+00 0.0000000000e+00 
          0.0000000000e+00 0.0000000000e+00 0.0000000000e+00 
          0.0000000000e+00 0.0000000000e+00 0.0000000000e+00 
          0.0000000000e+00 0.0000000000e+00 0.0000000000e+00 
          0.0000000000e+00 0.0000000000e+00 0.0000000000e+00 
          0.0000000000e+00 0.0000000000e+00 0.0000000000e+00 
          0.0000000000e+00 0.0000000000e+00 0.0000000000e+00 
          0.0000000000e+00 0.0000000000e+00 0.0000000000e+00 
          0.0000000000e+00 0.0000000000e+00 0.0000000000e+00 
          0.0000000000e+00 0.0000000000e+00 0.0000000000e+00 
          0.0000000000e+00 0.0000000000e+00 0.0000000000e+00 
          0.0000000000e+00 0.0000000000e+00 0.0000000000e+00 
          0.0000000000e+00 0.0000000000e+00 0.0000000000e+00 
          0.0000000000e+00 0.0000000000e+00 0.0000000000e+00 
          0.0000000000e+00 0.0000000000e+00 0.0000000000e+00 
          0.0000000000e+00 0.0000000000e+00 0.0000000000e+00 
          0.0000000000e+00 0.0000000000e+00 0.0000000000e+00 
          0.0000000000e+00 0.0000000000e+00 0.0000000000e+00 
          0.0000000000e+00 0.0000000000e+00 0.0000000000e+00 
          0.0000000000e+00 0.0000000000e+00 0.0000000000e+00 
        </DataArray>
      </PointData>
      <CellData>
        <DataArray type="Int64" Name="ElementTag" format="ascii">
          90
          91
          92
          93
          94
          95
          96
          97
          98
          99
          100
          101
          102
          103
          104
          105
          106
          107
          108
          109
          110
          111
          112
          113
          114
          115
          116
          117
          118
          119
          120
          121
          122
          123
          124
          125
          126
          127
          128
        </DataArray>
      </CellData>
    </Piece>
  </UnstructuredGrid>
</VTKFile>
