<?xml version="1.0"?>
<VTKFile type="UnstructuredGrid" version="1.0" byte_order="LittleEndian" compressor="vtkZLibDataCompressor">
  <UnstructuredGrid>
    <Piece NumberOfPoints="82" NumberOfCells="1">
      <Points>
        <DataArray type="Float64" Name="Points" NumberOfComponents="3" format="ascii">
          0.0000000000e+00 0.0000000000e+00 0.0000000000e+00 
          2.5000000000e-01 0.0000000000e+00 0.0000000000e+00 
          2.5000000000e-01 3.0000000000e+01 0.0000000000e+00 
          0.0000000000e+00 3.0000000000e+01 0.0000000000e+00 
          0.0000000000e+00 -5.0000000000e+00 0.0000000000e+00 
          2.5000000000e-01 -5.0000000000e+00 0.0000000000e+00 
          2.5000000000e-01 7.6923100000e-01 0.0000000000e+00 
          2.5000000000e-01 1.5384620000e+00 0.0000000000e+00 
          2.5000000000e-01 2.3076920000e+00 0.0000000000e+00 
          2.5000000000e-01 3.0769230000e+00 0.0000000000e+00 
          2.5000000000e-01 3.8461540000e+00 0.0000000000e+00 
          2.5000000000e-01 4.6153850000e+00 0.0000000000e+00 
          2.5000000000e-01 5.3846150000e+00 0.0000000000e+00 
          2.5000000000e-01 6.1538460000e+00 0.0000000000e+00 
          2.5000000000e-01 6.9230770000e+00 0.0000000000e+00 
          2.5000000000e-01 7.6923080000e+00 0.0000000000e+00 
          2.5000000000e-01 8.4615380000e+00 0.0000000000e+00 
          2.5000000000e-01 9.2307690000e+00 0.0000000000e+00 
          2.5000000000e-01 1.0000000000e+01 0.0000000000e+00 
          2.5000000000e-01 1.0769231000e+01 0.0000000000e+00 
          2.5000000000e-01 1.1538462000e+01 0.0000000000e+00 
          2.5000000000e-01 1.2307692000e+01 0.0000000000e+00 
          2.5000000000e-01 1.3076923000e+01 0.0000000000e+00 
          2.5000000000e-01 1.3846154000e+01 0.0000000000e+00 
          2.5000000000e-01 1.4615385000e+01 0.0000000000e+00 
          2.5000000000e-01 1.5384615000e+01 0.0000000000e+00 
          2.5000000000e-01 1.6153846000e+01 0.0000000000e+00 
          2.5000000000e-01 1.6923077000e+01 0.0000000000e+00 
          2.5000000000e-01 1.7692308000e+01 0.0000000000e+00 
          2.5000000000e-01 1.8461538000e+01 0.0000000000e+00 
          2.5000000000e-01 1.9230769000e+01 0.0000000000e+00 
          2.5000000000e-01 2.0000000000e+01 0.0000000000e+00 
          2.5000000000e-01 2.0769231000e+01 0.0000000000e+00 
          2.5000000000e-01 2.1538462000e+01 0.0000000000e+00 
          2.5000000000e-01 2.2307692000e+01 0.0000000000e+00 
          2.5000000000e-01 2.3076923000e+01 0.0000000000e+00 
          2.5000000000e-01 2.3846154000e+01 0.0000000000e+00 
          2.5000000000e-01 2.4615385000e+01 0.0000000000e+00 
          2.5000000000e-01 2.5384615000e+01 0.0000000000e+00 
          2.5000000000e-01 2.6153846000e+01 0.0000000000e+00 
          2.5000000000e-01 2.6923077000e+01 0.0000000000e+00 
          2.5000000000e-01 2.7692308000e+01 0.0000000000e+00 
          2.5000000000e-01 2.8461538000e+01 0.0000000000e+00 
          2.5000000000e-01 2.9230769000e+01 0.0000000000e+00 
          0.0000000000e+00 7.6923100000e-01 0.0000000000e+00 
          0.0000000000e+00 1.5384620000e+00 0.0000000000e+00 
          0.0000000000e+00 2.3076920000e+00 0.0000000000e+00 
          0.0000000000e+00 3.0769230000e+00 0.0000000000e+00 
          0.0000000000e+00 3.8461540000e+00 0.0000000000e+00 
          0.0000000000e+00 4.6153850000e+00 0.0000000000e+00 
          0.0000000000e+00 5.3846150000e+00 0.0000000000e+00 
          0.0000000000e+00 6.1538460000e+00 0.0000000000e+00 
          0.0000000000e+00 6.9230770000e+00 0.0000000000e+00 
          0.0000000000e+00 7.6923080000e+00 0.0000000000e+00 
          0.0000000000e+00 8.4615380000e+00 0.0000000000e+00 
          0.0000000000e+00 9.2307690000e+00 0.0000000000e+00 
          0.0000000000e+00 1.0000000000e+01 0.0000000000e+00 
          0.0000000000e+00 1.0769231000e+01 0.0000000000e+00 
          0.0000000000e+00 1.1538462000e+01 0.0000000000e+00 
          0.0000000000e+00 1.2307692000e+01 0.0000000000e+00 
          0.0000000000e+00 1.3076923000e+01 0.0000000000e+00 
          0.0000000000e+00 1.3846154000e+01 0.0000000000e+00 
          0.0000000000e+00 1.4615385000e+01 0.0000000000e+00 
          0.0000000000e+00 1.5384615000e+01 0.0000000000e+00 
          0.0000000000e+00 1.6153846000e+01 0.0000000000e+00 
          0.0000000000e+00 1.6923077000e+01 0.0000000000e+00 
          0.0000000000e+00 1.7692308000e+01 0.0000000000e+00 
          0.0000000000e+00 1.8461538000e+01 0.0000000000e+00 
          0.0000000000e+00 1.9230769000e+01 0.0000000000e+00 
          0.0000000000e+00 2.0000000000e+01 0.0000000000e+00 
          0.0000000000e+00 2.0769231000e+01 0.0000000000e+00 
          0.0000000000e+00 2.1538462000e+01 0.0000000000e+00 
          0.0000000000e+00 2.2307692000e+01 0.0000000000e+00 
          0.0000000000e+00 2.3076923000e+01 0.0000000000e+00 
          0.0000000000e+00 2.3846154000e+01 0.0000000000e+00 
          0.0000000000e+00 2.4615385000e+01 0.0000000000e+00 
          0.0000000000e+00 2.5384615000e+01 0.0000000000e+00 
          0.0000000000e+00 2.6153846000e+01 0.0000000000e+00 
          0.0000000000e+00 2.6923077000e+01 0.0000000000e+00 
          0.0000000000e+00 2.7692308000e+01 0.0000000000e+00 
          0.0000000000e+00 2.8461538000e+01 0.0000000000e+00 
          0.0000000000e+00 2.9230769000e+01 0.0000000000e+00 
        </DataArray>
      </Points>
      <Cells>
        <DataArray type="Int64" Name="connectivity" format="ascii">
          0
          1
          2
          3
          4
          5
          6
          7
          8
          9
          10
          11
          12
          13
          14
          15
          16
          17
          18
          19
          20
          21
          22
          23
          24
          25
          26
          27
          28
          29
          30
          31
          32
          33
          34
          35
          36
          37
          38
          39
          40
          41
          42
          43
          44
          45
          46
          47
          48
          49
          50
          51
          52
          53
          54
          55
          56
          57
          58
          59
          60
          61
          62
          63
          64
          65
          66
          67
          68
          69
          70
          71
          72
          73
          74
          75
          76
          77
          78
          79
          80
          81
        </DataArray>
        <DataArray type="Int64" Name="offsets" format="ascii">
          82
        </DataArray>
        <DataArray type="Int64" Name="types" format="ascii">
          2
        </DataArray>
      </Cells>
      <PointData>
        <DataArray type="Int64" Name="NodeTag" format="ascii">
          1
          2
          3
          4
          5
          6
          7
          8
          9
          10
          11
          12
          13
          14
          15
          16
          17
          18
          19
          20
          21
          22
          23
          24
          25
          26
          27
          28
          29
          30
          31
          32
          33
          34
          35
          36
          37
          38
          39
          40
          41
          42
          43
          44
          45
          46
          47
          48
          49
          50
          51
          52
          53
          54
          55
          56
          57
          58
          59
          60
          61
          62
          63
          64
          65
          66
          67
          68
          69
          70
          71
          72
          73
          74
          75
          76
          77
          78
          79
          80
          81
          82
        </DataArray>
        <DataArray type="Float64" Name="Velocity" NumberOfComponents="3" format="ascii">
          9.7269605989e-06 -7.7844533557e-05 0.0000000000e+00 
          9.7269605989e-06 -7.7844533557e-05 0.0000000000e+00 
          -6.0293622438e-05 -7.7849304907e-05 0.0000000000e+00 
          -6.0293622438e-05 -7.7849304907e-05 0.0000000000e+00 
          0.0000000000e+00 0.0000000000e+00 0.0000000000e+00 
          0.0000000000e+00 0.0000000000e+00 0.0000000000e+00 
          7.0124194812e-06 -7.7887106248e-05 0.0000000000e+00 
          4.2826499277e-06 -7.7781898399e-05 0.0000000000e+00 
          1.5654140405e-06 -7.7899735939e-05 0.0000000000e+00 
          -1.1591038840e-06 -7.7813530769e-05 0.0000000000e+00 
          -3.8691785816e-06 -7.7846471586e-05 0.0000000000e+00 
          -6.5649446624e-06 -7.7868617542e-05 0.0000000000e+00 
          -9.2478618567e-06 -7.7803133844e-05 0.0000000000e+00 
          -1.1900056943e-05 -7.7887945820e-05 0.0000000000e+00 
          -1.4530255405e-05 -7.7811220300e-05 0.0000000000e+00 
          -1.7124488496e-05 -7.7865353010e-05 0.0000000000e+00 
          -1.9682690244e-05 -7.7826033437e-05 0.0000000000e+00 
          -2.2198635726e-05 -7.7870059699e-05 0.0000000000e+00 
          -2.4667275118e-05 -7.7812877420e-05 0.0000000000e+00 
          -2.7086866393e-05 -7.7867927782e-05 0.0000000000e+00 
          -2.9448613040e-05 -7.7840948213e-05 0.0000000000e+00 
          -3.1752527667e-05 -7.7829625154e-05 0.0000000000e+00 
          -3.3992509011e-05 -7.7860568349e-05 0.0000000000e+00 
          -3.6162430294e-05 -7.7842584291e-05 0.0000000000e+00 
          -3.8263752055e-05 -7.7830977706e-05 0.0000000000e+00 
          -4.0285514092e-05 -7.7857635347e-05 0.0000000000e+00 
          -4.2231235835e-05 -7.7843643527e-05 0.0000000000e+00 
          -4.4091325979e-05 -7.7833498954e-05 0.0000000000e+00 
          -4.5864242630e-05 -7.7855088915e-05 0.0000000000e+00 
          -4.7551040266e-05 -7.7842864432e-05 0.0000000000e+00 
          -4.9139316835e-05 -7.7839171533e-05 0.0000000000e+00 
          -5.0635071815e-05 -7.7842531212e-05 0.0000000000e+00 
          -5.2032986576e-05 -7.7866979241e-05 0.0000000000e+00 
          -5.3321868605e-05 -7.7798084602e-05 0.0000000000e+00 
          -5.4518626316e-05 -7.7901852088e-05 0.0000000000e+00 
          -5.5597074664e-05 -7.7794541311e-05 0.0000000000e+00 
          -5.6574669166e-05 -7.7873991834e-05 0.0000000000e+00 
          -5.7440487484e-05 -7.7836576314e-05 0.0000000000e+00 
          -5.8190500504e-05 -7.7834510242e-05 0.0000000000e+00 
          -5.8834338787e-05 -7.7864292010e-05 0.0000000000e+00 
          -5.9355967845e-05 -7.7822437914e-05 0.0000000000e+00 
          -5.9767045006e-05 -7.7860877293e-05 0.0000000000e+00 
          -6.0059747402e-05 -7.7836662617e-05 0.0000000000e+00 
          -6.0236370287e-05 -7.7843098347e-05 0.0000000000e+00 
          7.0124194812e-06 -7.7887106248e-05 0.0000000000e+00 
          4.2826499277e-06 -7.7781898399e-05 0.0000000000e+00 
          1.5654140405e-06 -7.7899735939e-05 0.0000000000e+00 
          -1.1591038840e-06 -7.7813530769e-05 0.0000000000e+00 
          -3.8691785816e-06 -7.7846471586e-05 0.0000000000e+00 
          -6.5649446624e-06 -7.7868617542e-05 0.0000000000e+00 
          -9.2478618567e-06 -7.7803133844e-05 0.0000000000e+00 
          -1.1900056943e-05 -7.7887945820e-05 0.0000000000e+00 
          -1.4530255405e-05 -7.7811220300e-05 0.0000000000e+00 
          -1.7124488496e-05 -7.7865353010e-05 0.0000000000e+00 
          -1.9682690244e-05 -7.7826033437e-05 0.0000000000e+00 
          -2.2198635726e-05 -7.7870059699e-05 0.0000000000e+00 
          -2.4667275118e-05 -7.7812877420e-05 0.0000000000e+00 
          -2.7086866393e-05 -7.7867927782e-05 0.0000000000e+00 
          -2.9448613040e-05 -7.7840948213e-05 0.0000000000e+00 
          -3.1752527667e-05 -7.7829625154e-05 0.0000000000e+00 
          -3.3992509011e-05 -7.7860568349e-05 0.0000000000e+00 
          -3.6162430294e-05 -7.7842584291e-05 0.0000000000e+00 
          -3.8263752055e-05 -7.7830977706e-05 0.0000000000e+00 
          -4.0285514092e-05 -7.7857635347e-05 0.0000000000e+00 
          -4.2231235835e-05 -7.7843643527e-05 0.0000000000e+00 
          -4.4091325979e-05 -7.7833498954e-05 0.0000000000e+00 
          -4.5864242630e-05 -7.7855088915e-05 0.0000000000e+00 
          -4.7551040266e-05 -7.7842864432e-05 0.0000000000e+00 
          -4.9139316835e-05 -7.7839171533e-05 0.0000000000e+00 
          -5.0635071815e-05 -7.7842531212e-05 0.0000000000e+00 
          -5.2032986576e-05 -7.7866979241e-05 0.0000000000e+00 
          -5.3321868605e-05 -7.7798084602e-05 0.0000000000e+00 
          -5.4518626316e-05 -7.7901852088e-05 0.0000000000e+00 
          -5.5597074664e-05 -7.7794541311e-05 0.0000000000e+00 
          -5.6574669166e-05 -7.7873991834e-05 0.0000000000e+00 
          -5.7440487484e-05 -7.7836576314e-05 0.0000000000e+00 
          -5.8190500504e-05 -7.7834510242e-05 0.0000000000e+00 
          -5.8834338787e-05 -7.7864292010e-05 0.0000000000e+00 
          -5.9355967845e-05 -7.7822437914e-05 0.0000000000e+00 
          -5.9767045006e-05 -7.7860877293e-05 0.0000000000e+00 
          -6.0059747402e-05 -7.7836662617e-05 0.0000000000e+00 
          -6.0236370287e-05 -7.7843098347e-05 0.0000000000e+00 
        </DataArray>
        <DataArray type="Float64" Name="Displacement" NumberOfComponents="3" format="ascii">
          8.9942177158e-07 -6.1626101863e-04 0.0000000000e+00 
          8.9942177158e-07 -6.1626101863e-04 0.0000000000e+00 
          4.4891798049e-06 -6.3984144531e-04 0.0000000000e+00 
          4.4891798049e-06 -6.3984144531e-04 0.0000000000e+00 
          0.0000000000e+00 0.0000000000e+00 0.0000000000e+00 
          0.0000000000e+00 0.0000000000e+00 0.0000000000e+00 
          1.0600490664e-06 -6.1745477082e-04 0.0000000000e+00 
          1.2186920587e-06 -6.1861751501e-04 0.0000000000e+00 
          1.3751666519e-06 -6.1974922621e-04 0.0000000000e+00 
          1.5293327908e-06 -6.2084996858e-04 0.0000000000e+00 
          1.6809902385e-06 -6.2191970596e-04 0.0000000000e+00 
          1.8300148684e-06 -6.2295835699e-04 0.0000000000e+00 
          1.9762265787e-06 -6.2396616004e-04 0.0000000000e+00 
          2.1194780205e-06 -6.2494275898e-04 0.0000000000e+00 
          2.2596421708e-06 -6.2588852307e-04 0.0000000000e+00 
          2.3965382427e-06 -6.2680320298e-04 0.0000000000e+00 
          2.5300724757e-06 -6.2768683135e-04 0.0000000000e+00 
          2.6600743337e-06 -6.2853959174e-04 0.0000000000e+00 
          2.7864328373e-06 -6.2936117751e-04 0.0000000000e+00 
          2.9090374307e-06 -6.3015190394e-04 0.0000000000e+00 
          3.0277264202e-06 -6.3091151279e-04 0.0000000000e+00 
          3.1424440324e-06 -6.3164020460e-04 0.0000000000e+00 
          3.2530310082e-06 -6.3233780739e-04 0.0000000000e+00 
          3.3594108822e-06 -6.3300447617e-04 0.0000000000e+00 
          3.4614867951e-06 -6.3364009054e-04 0.0000000000e+00 
          3.5591411206e-06 -6.3424471897e-04 0.0000000000e+00 
          3.6523173207e-06 -6.3481834290e-04 0.0000000000e+00 
          3.7409076927e-06 -6.3536092923e-04 0.0000000000e+00 
          3.8248438757e-06 -6.3587258461e-04 0.0000000000e+00 
          3.9040540398e-06 -6.3635311786e-04 0.0000000000e+00 
          3.9784624472e-06 -6.3680278101e-04 0.0000000000e+00 
          4.0480115117e-06 -6.3722129637e-04 0.0000000000e+00 
          4.1126433915e-06 -6.3760893678e-04 0.0000000000e+00 
          4.1722921061e-06 -6.3796547336e-04 0.0000000000e+00 
          4.2269274870e-06 -6.3829105493e-04 0.0000000000e+00 
          4.2764858424e-06 -6.3858560693e-04 0.0000000000e+00 
          4.3209344300e-06 -6.3884916876e-04 0.0000000000e+00 
          4.3602460079e-06 -6.3908173545e-04 0.0000000000e+00 
          4.3943698922e-06 -6.3928319773e-04 0.0000000000e+00 
          4.4232919816e-06 -6.3945386916e-04 0.0000000000e+00 
          4.4469943966e-06 -6.3959325532e-04 0.0000000000e+00 
          4.4654364560e-06 -6.3970186383e-04 0.0000000000e+00 
          4.4786283794e-06 -6.3977938295e-04 0.0000000000e+00 
          4.4865495517e-06 -6.3982580598e-04 0.0000000000e+00 
          1.0600490664e-06 -6.1745477082e-04 0.0000000000e+00 
          1.2186920587e-06 -6.1861751501e-04 0.0000000000e+00 
          1.3751666519e-06 -6.1974922621e-04 0.0000000000e+00 
          1.5293327908e-06 -6.2084996858e-04 0.0000000000e+00 
          1.6809902385e-06 -6.2191970596e-04 0.0000000000e+00 
          1.8300148684e-06 -6.2295835699e-04 0.0000000000e+00 
          1.9762265787e-06 -6.2396616004e-04 0.0000000000e+00 
          2.1194780205e-06 -6.2494275898e-04 0.0000000000e+00 
          2.2596421708e-06 -6.2588852307e-04 0.0000000000e+00 
          2.3965382427e-06 -6.2680320298e-04 0.0000000000e+00 
          2.5300724757e-06 -6.2768683135e-04 0.0000000000e+00 
          2.6600743337e-06 -6.2853959174e-04 0.0000000000e+00 
          2.7864328373e-06 -6.2936117751e-04 0.0000000000e+00 
          2.9090374307e-06 -6.3015190394e-04 0.0000000000e+00 
          3.0277264202e-06 -6.3091151279e-04 0.0000000000e+00 
          3.1424440324e-06 -6.3164020460e-04 0.0000000000e+00 
          3.2530310082e-06 -6.3233780739e-04 0.0000000000e+00 
          3.3594108822e-06 -6.3300447617e-04 0.0000000000e+00 
          3.4614867951e-06 -6.3364009054e-04 0.0000000000e+00 
          3.5591411206e-06 -6.3424471897e-04 0.0000000000e+00 
          3.6523173207e-06 -6.3481834290e-04 0.0000000000e+00 
          3.7409076927e-06 -6.3536092923e-04 0.0000000000e+00 
          3.8248438757e-06 -6.3587258461e-04 0.0000000000e+00 
          3.9040540398e-06 -6.3635311786e-04 0.0000000000e+00 
          3.9784624472e-06 -6.3680278101e-04 0.0000000000e+00 
          4.0480115117e-06 -6.3722129637e-04 0.0000000000e+00 
          4.1126433915e-06 -6.3760893678e-04 0.0000000000e+00 
          4.1722921061e-06 -6.3796547336e-04 0.0000000000e+00 
          4.2269274870e-06 -6.3829105493e-04 0.0000000000e+00 
          4.2764858424e-06 -6.3858560693e-04 0.0000000000e+00 
          4.3209344300e-06 -6.3884916876e-04 0.0000000000e+00 
          4.3602460079e-06 -6.3908173545e-04 0.0000000000e+00 
          4.3943698922e-06 -6.3928319773e-04 0.0000000000e+00 
          4.4232919816e-06 -6.3945386916e-04 0.0000000000e+00 
          4.4469943966e-06 -6.3959325532e-04 0.0000000000e+00 
          4.4654364560e-06 -6.3970186383e-04 0.0000000000e+00 
          4.4786283794e-06 -6.3977938295e-04 0.0000000000e+00 
          4.4865495517e-06 -6.3982580598e-04 0.0000000000e+00 
        </DataArray>
        <DataArray type="Float64" Name="Acceleration" NumberOfComponents="3" format="ascii">
          -1.6314855794e-04 -2.7209500636e-06 0.0000000000e+00 
          -1.6314855794e-04 -2.7209500636e-06 0.0000000000e+00 
          -4.7398201815e-04 4.9076533710e-05 0.0000000000e+00 
          -4.7398201815e-04 4.9076533710e-05 0.0000000000e+00 
          0.0000000000e+00 0.0000000000e+00 0.0000000000e+00 
          0.0000000000e+00 0.0000000000e+00 0.0000000000e+00 
          -1.7878956565e-04 2.9914577454e-07 0.0000000000e+00 
          -1.9535884627e-04 4.5420707299e-06 0.0000000000e+00 
          -2.0801475812e-04 -6.4913385592e-06 0.0000000000e+00 
          -2.2603803250e-04 -2.4223674366e-07 0.0000000000e+00 
          -2.3722207564e-04 1.4417845327e-05 0.0000000000e+00 
          -2.5343265227e-04 -2.8767428590e-05 0.0000000000e+00 
          -2.6674334020e-04 3.5879349592e-05 0.0000000000e+00 
          -2.7817105995e-04 -3.0904368036e-05 0.0000000000e+00 
          -2.9446031660e-04 1.4028956856e-05 0.0000000000e+00 
          -3.0289287715e-04 7.9409892313e-06 0.0000000000e+00 
          -3.1828981719e-04 -2.4720001513e-05 0.0000000000e+00 
          -3.2827342222e-04 3.0325161752e-05 0.0000000000e+00 
          -3.3823472218e-04 -2.6490768242e-05 0.0000000000e+00 
          -3.5280364226e-04 2.0046143135e-05 0.0000000000e+00 
          -3.5781574215e-04 -1.6256811068e-05 0.0000000000e+00 
          -3.7219216792e-04 1.5073508571e-05 0.0000000000e+00 
          -3.7906818116e-04 -1.3034685351e-05 0.0000000000e+00 
          -3.8779540239e-04 8.6629890898e-06 0.0000000000e+00 
          -3.9838256874e-04 -3.8132752416e-06 0.0000000000e+00 
          -4.0349964654e-04 -1.8453958611e-07 0.0000000000e+00 
          -4.1319216709e-04 5.6319788211e-06 0.0000000000e+00 
          -4.1935161690e-04 -1.3583377797e-05 0.0000000000e+00 
          -4.2581463714e-04 2.0757126628e-05 0.0000000000e+00 
          -4.3265732353e-04 -2.4436293479e-05 0.0000000000e+00 
          -4.3783638665e-04 2.5491781802e-05 0.0000000000e+00 
          -4.4304805176e-04 -2.3674885808e-05 0.0000000000e+00 
          -4.4899303467e-04 1.7566002828e-05 0.0000000000e+00 
          -4.5170514860e-04 -9.3208078851e-06 0.0000000000e+00 
          -4.5745672971e-04 4.2676667941e-06 0.0000000000e+00 
          -4.6040016456e-04 -2.9154375327e-06 0.0000000000e+00 
          -4.6285472539e-04 -2.0164676161e-06 0.0000000000e+00 
          -4.6741774426e-04 1.7628784653e-05 0.0000000000e+00 
          -4.6869628639e-04 -3.8779782326e-05 0.0000000000e+00 
          -4.7030297788e-04 5.0263908398e-05 0.0000000000e+00 
          -4.7396842224e-04 -4.1209634963e-05 0.0000000000e+00 
          -4.7304638934e-04 1.4951342843e-05 0.0000000000e+00 
          -4.7490694011e-04 1.6197562869e-05 0.0000000000e+00 
          -4.7672225402e-04 -4.0122982804e-05 0.0000000000e+00 
          -1.7878956565e-04 2.9914577454e-07 0.0000000000e+00 
          -1.9535884627e-04 4.5420707299e-06 0.0000000000e+00 
          -2.0801475812e-04 -6.4913385592e-06 0.0000000000e+00 
          -2.2603803250e-04 -2.4223674366e-07 0.0000000000e+00 
          -2.3722207564e-04 1.4417845327e-05 0.0000000000e+00 
          -2.5343265227e-04 -2.8767428590e-05 0.0000000000e+00 
          -2.6674334020e-04 3.5879349592e-05 0.0000000000e+00 
          -2.7817105995e-04 -3.0904368036e-05 0.0000000000e+00 
          -2.9446031660e-04 1.4028956856e-05 0.0000000000e+00 
          -3.0289287715e-04 7.9409892313e-06 0.0000000000e+00 
          -3.1828981719e-04 -2.4720001513e-05 0.0000000000e+00 
          -3.2827342222e-04 3.0325161752e-05 0.0000000000e+00 
          -3.3823472218e-04 -2.6490768242e-05 0.0000000000e+00 
          -3.5280364226e-04 2.0046143135e-05 0.0000000000e+00 
          -3.5781574215e-04 -1.6256811068e-05 0.0000000000e+00 
          -3.7219216792e-04 1.5073508571e-05 0.0000000000e+00 
          -3.7906818116e-04 -1.3034685351e-05 0.0000000000e+00 
          -3.8779540239e-04 8.6629890898e-06 0.0000000000e+00 
          -3.9838256874e-04 -3.8132752416e-06 0.0000000000e+00 
          -4.0349964654e-04 -1.8453958611e-07 0.0000000000e+00 
          -4.1319216709e-04 5.6319788211e-06 0.0000000000e+00 
          -4.1935161690e-04 -1.3583377797e-05 0.0000000000e+00 
          -4.2581463714e-04 2.0757126628e-05 0.0000000000e+00 
          -4.3265732353e-04 -2.4436293479e-05 0.0000000000e+00 
          -4.3783638665e-04 2.5491781802e-05 0.0000000000e+00 
          -4.4304805176e-04 -2.3674885808e-05 0.0000000000e+00 
          -4.4899303467e-04 1.7566002828e-05 0.0000000000e+00 
          -4.5170514860e-04 -9.3208078851e-06 0.0000000000e+00 
          -4.5745672971e-04 4.2676667941e-06 0.0000000000e+00 
          -4.6040016456e-04 -2.9154375327e-06 0.0000000000e+00 
          -4.6285472539e-04 -2.0164676161e-06 0.0000000000e+00 
          -4.6741774426e-04 1.7628784653e-05 0.0000000000e+00 
          -4.6869628639e-04 -3.8779782326e-05 0.0000000000e+00 
          -4.7030297788e-04 5.0263908398e-05 0.0000000000e+00 
          -4.7396842224e-04 -4.1209634963e-05 0.0000000000e+00 
          -4.7304638934e-04 1.4951342843e-05 0.0000000000e+00 
          -4.7490694011e-04 1.6197562869e-05 0.0000000000e+00 
          -4.7672225402e-04 -4.0122982804e-05 0.0000000000e+00 
        </DataArray>
        <DataArray type="Float64" Name="Reaction" NumberOfComponents="3" format="ascii">
          0.0000000000e+00 0.0000000000e+00 0.0000000000e+00 
          0.0000000000e+00 0.0000000000e+00 0.0000000000e+00 
          0.0000000000e+00 0.0000000000e+00 0.0000000000e+00 
          0.0000000000e+00 0.0000000000e+00 0.0000000000e+00 
          0.0000000000e+00 0.0000000000e+00 0.0000000000e+00 
          0.0000000000e+00 0.0000000000e+00 0.0000000000e+00 
          0.0000000000e+00 0.0000000000e+00 0.0000000000e+00 
          0.0000000000e+00 0.0000000000e+00 0.0000000000e+00 
          0.0000000000e+00 0.0000000000e+00 0.0000000000e+00 
          0.0000000000e+00 0.0000000000e+00 0.0000000000e+00 
          0.0000000000e+00 0.0000000000e+00 0.0000000000e+00 
          0.0000000000e+00 0.0000000000e+00 0.0000000000e+00 
          0.0000000000e+00 0.0000000000e+00 0.0000000000e+00 
          0.0000000000e+00 0.0000000000e+00 0.0000000000e+00 
          0.0000000000e+00 0.0000000000e+00 0.0000000000e+00 
          0.0000000000e+00 0.0000000000e+00 0.0000000000e+00 
          0.0000000000e+00 0.0000000000e+00 0.0000000000e+00 
          0.0000000000e+00 0.0000000000e+00 0.0000000000e+00 
          0.0000000000e+00 0.0000000000e+00 0.0000000000e+00 
          0.0000000000e+00 0.0000000000e+00 0.0000000000e+00 
          0.0000000000e+00 0.0000000000e+00 0.0000000000e+00 
          0.0000000000e+00 0.0000000000e+00 0.0000000000e+00 
          0.0000000000e+00 0.0000000000e+00 0.0000000000e+00 
          0.0000000000e+00 0.0000000000e+00 0.0000000000e+00 
          0.0000000000e+00 0.0000000000e+00 0.0000000000e+00 
          0.0000000000e+00 0.0000000000e+00 0.0000000000e+00 
          0.0000000000e+00 0.0000000000e+00 0.0000000000e+00 
          0.0000000000e+00 0.0000000000e+00 0.0000000000e+00 
          0.0000000000e+00 0.0000000000e+00 0.0000000000e+00 
          0.0000000000e+00 0.0000000000e+00 0.0000000000e+00 
          0.0000000000e+00 0.0000000000e+00 0.0000000000e+00 
          0.0000000000e+00 0.0000000000e+00 0.0000000000e+00 
          0.0000000000e+00 0.0000000000e+00 0.0000000000e+00 
          0.0000000000e+00 0.0000000000e+00 0.0000000000e+00 
          0.0000000000e+00 0.0000000000e+00 0.0000000000e+00 
          0.0000000000e+00 0.0000000000e+00 0.0000000000e+00 
          0.0000000000e+00 0.0000000000e+00 0.0000000000e+00 
          0.0000000000e+00 0.0000000000e+00 0.0000000000e+00 
          0.0000000000e+00 0.0000000000e+00 0.0000000000e+00 
          0.0000000000e+00 0.0000000000e+00 0.0000000000e+00 
          0.0000000000e+00 0.0000000000e+00 0.0000000000e+00 
          0.0000000000e+00 0.0000000000e+00 0.0000000000e+00 
          0.0000000000e+00 0.0000000000e+00 0.0000000000e+00 
          0.0000000000e+00 0.0000000000e+00 0.0000000000e+00 
          0.0000000000e+00 0.0000000000e+00 0.0000000000e+00 
          0.0000000000e+00 0.0000000000e+00 0.0000000000e+00 
          0.0000000000e+00 0.0000000000e+00 0.0000000000e+00 
          0.0000000000e+00 0.0000000000e+00 0.0000000000e+00 
          0.0000000000e+00 0.0000000000e+00 0.0000000000e+00 
          0.0000000000e+00 0.0000000000e+00 0.0000000000e+00 
          0.0000000000e+00 0.0000000000e+00 0.0000000000e+00 
          0.0000000000e+00 0.0000000000e+00 0.0000000000e+00 
          0.0000000000e+00 0.0000000000e+00 0.0000000000e+00 
          0.0000000000e+00 0.0000000000e+00 0.0000000000e+00 
          0.0000000000e+00 0.0000000000e+00 0.0000000000e+00 
          0.0000000000e+00 0.0000000000e+00 0.0000000000e+00 
          0.0000000000e+00 0.0000000000e+00 0.0000000000e+00 
          0.0000000000e+00 0.0000000000e+00 0.0000000000e+00 
          0.0000000000e+00 0.0000000000e+00 0.0000000000e+00 
          0.0000000000e+00 0.0000000000e+00 0.0000000000e+00 
          0.0000000000e+00 0.0000000000e+00 0.0000000000e+00 
          0.0000000000e+00 0.0000000000e+00 0.0000000000e+00 
          0.0000000000e+00 0.0000000000e+00 0.0000000000e+00 
          0.0000000000e+00 0.0000000000e+00 0.0000000000e+00 
          0.0000000000e+00 0.0000000000e+00 0.0000000000e+00 
          0.0000000000e+00 0.0000000000e+00 0.0000000000e+00 
          0.0000000000e+00 0.0000000000e+00 0.0000000000e+00 
          0.0000000000e+00 0.0000000000e+00 0.0000000000e+00 
          0.0000000000e+00 0.0000000000e+00 0.0000000000e+00 
          0.0000000000e+00 0.0000000000e+00 0.0000000000e+00 
          0.0000000000e+00 0.0000000000e+00 0.0000000000e+00 
          0.0000000000e+00 0.0000000000e+00 0.0000000000e+00 
          0.0000000000e+00 0.0000000000e+00 0.0000000000e+00 
          0.0000000000e+00 0.0000000000e+00 0.0000000000e+00 
          0.0000000000e+00 0.0000000000e+00 0.0000000000e+00 
          0.0000000000e+00 0.0000000000e+00 0.0000000000e+00 
          0.0000000000e+00 0.0000000000e+00 0.0000000000e+00 
          0.0000000000e+00 0.0000000000e+00 0.0000000000e+00 
          0.0000000000e+00 0.0000000000e+00 0.0000000000e+00 
          0.0000000000e+00 0.0000000000e+00 0.0000000000e+00 
          0.0000000000e+00 0.0000000000e+00 0.0000000000e+00 
          0.0000000000e+00 0.0000000000e+00 0.0000000000e+00 
        </DataArray>
      </PointData>
      <CellData>
        <DataArray type="Int64" Name="ElementTag" format="ascii">
          0
        </DataArray>
      </CellData>
    </Piece>
  </UnstructuredGrid>
</VTKFile>
