<?xml version="1.0"?>
<VTKFile type="UnstructuredGrid" version="1.0" byte_order="LittleEndian" compressor="vtkZLibDataCompressor">
  <UnstructuredGrid>
    <Piece NumberOfPoints="82" NumberOfCells="1">
      <Points>
        <DataArray type="Float64" Name="Points" NumberOfComponents="3" format="ascii">
          0.0000000000e+00 0.0000000000e+00 0.0000000000e+00 
          2.5000000000e-01 0.0000000000e+00 0.0000000000e+00 
          2.5000000000e-01 3.0000000000e+01 0.0000000000e+00 
          0.0000000000e+00 3.0000000000e+01 0.0000000000e+00 
          0.0000000000e+00 -5.0000000000e+00 0.0000000000e+00 
          2.5000000000e-01 -5.0000000000e+00 0.0000000000e+00 
          2.5000000000e-01 7.6923100000e-01 0.0000000000e+00 
          2.5000000000e-01 1.5384620000e+00 0.0000000000e+00 
          2.5000000000e-01 2.3076920000e+00 0.0000000000e+00 
          2.5000000000e-01 3.0769230000e+00 0.0000000000e+00 
          2.5000000000e-01 3.8461540000e+00 0.0000000000e+00 
          2.5000000000e-01 4.6153850000e+00 0.0000000000e+00 
          2.5000000000e-01 5.3846150000e+00 0.0000000000e+00 
          2.5000000000e-01 6.1538460000e+00 0.0000000000e+00 
          2.5000000000e-01 6.9230770000e+00 0.0000000000e+00 
          2.5000000000e-01 7.6923080000e+00 0.0000000000e+00 
          2.5000000000e-01 8.4615380000e+00 0.0000000000e+00 
          2.5000000000e-01 9.2307690000e+00 0.0000000000e+00 
          2.5000000000e-01 1.0000000000e+01 0.0000000000e+00 
          2.5000000000e-01 1.0769231000e+01 0.0000000000e+00 
          2.5000000000e-01 1.1538462000e+01 0.0000000000e+00 
          2.5000000000e-01 1.2307692000e+01 0.0000000000e+00 
          2.5000000000e-01 1.3076923000e+01 0.0000000000e+00 
          2.5000000000e-01 1.3846154000e+01 0.0000000000e+00 
          2.5000000000e-01 1.4615385000e+01 0.0000000000e+00 
          2.5000000000e-01 1.5384615000e+01 0.0000000000e+00 
          2.5000000000e-01 1.6153846000e+01 0.0000000000e+00 
          2.5000000000e-01 1.6923077000e+01 0.0000000000e+00 
          2.5000000000e-01 1.7692308000e+01 0.0000000000e+00 
          2.5000000000e-01 1.8461538000e+01 0.0000000000e+00 
          2.5000000000e-01 1.9230769000e+01 0.0000000000e+00 
          2.5000000000e-01 2.0000000000e+01 0.0000000000e+00 
          2.5000000000e-01 2.0769231000e+01 0.0000000000e+00 
          2.5000000000e-01 2.1538462000e+01 0.0000000000e+00 
          2.5000000000e-01 2.2307692000e+01 0.0000000000e+00 
          2.5000000000e-01 2.3076923000e+01 0.0000000000e+00 
          2.5000000000e-01 2.3846154000e+01 0.0000000000e+00 
          2.5000000000e-01 2.4615385000e+01 0.0000000000e+00 
          2.5000000000e-01 2.5384615000e+01 0.0000000000e+00 
          2.5000000000e-01 2.6153846000e+01 0.0000000000e+00 
          2.5000000000e-01 2.6923077000e+01 0.0000000000e+00 
          2.5000000000e-01 2.7692308000e+01 0.0000000000e+00 
          2.5000000000e-01 2.8461538000e+01 0.0000000000e+00 
          2.5000000000e-01 2.9230769000e+01 0.0000000000e+00 
          0.0000000000e+00 7.6923100000e-01 0.0000000000e+00 
          0.0000000000e+00 1.5384620000e+00 0.0000000000e+00 
          0.0000000000e+00 2.3076920000e+00 0.0000000000e+00 
          0.0000000000e+00 3.0769230000e+00 0.0000000000e+00 
          0.0000000000e+00 3.8461540000e+00 0.0000000000e+00 
          0.0000000000e+00 4.6153850000e+00 0.0000000000e+00 
          0.0000000000e+00 5.3846150000e+00 0.0000000000e+00 
          0.0000000000e+00 6.1538460000e+00 0.0000000000e+00 
          0.0000000000e+00 6.9230770000e+00 0.0000000000e+00 
          0.0000000000e+00 7.6923080000e+00 0.0000000000e+00 
          0.0000000000e+00 8.4615380000e+00 0.0000000000e+00 
          0.0000000000e+00 9.2307690000e+00 0.0000000000e+00 
          0.0000000000e+00 1.0000000000e+01 0.0000000000e+00 
          0.0000000000e+00 1.0769231000e+01 0.0000000000e+00 
          0.0000000000e+00 1.1538462000e+01 0.0000000000e+00 
          0.0000000000e+00 1.2307692000e+01 0.0000000000e+00 
          0.0000000000e+00 1.3076923000e+01 0.0000000000e+00 
          0.0000000000e+00 1.3846154000e+01 0.0000000000e+00 
          0.0000000000e+00 1.4615385000e+01 0.0000000000e+00 
          0.0000000000e+00 1.5384615000e+01 0.0000000000e+00 
          0.0000000000e+00 1.6153846000e+01 0.0000000000e+00 
          0.0000000000e+00 1.6923077000e+01 0.0000000000e+00 
          0.0000000000e+00 1.7692308000e+01 0.0000000000e+00 
          0.0000000000e+00 1.8461538000e+01 0.0000000000e+00 
          0.0000000000e+00 1.9230769000e+01 0.0000000000e+00 
          0.0000000000e+00 2.0000000000e+01 0.0000000000e+00 
          0.0000000000e+00 2.0769231000e+01 0.0000000000e+00 
          0.0000000000e+00 2.1538462000e+01 0.0000000000e+00 
          0.0000000000e+00 2.2307692000e+01 0.0000000000e+00 
          0.0000000000e+00 2.3076923000e+01 0.0000000000e+00 
          0.0000000000e+00 2.3846154000e+01 0.0000000000e+00 
          0.0000000000e+00 2.4615385000e+01 0.0000000000e+00 
          0.0000000000e+00 2.5384615000e+01 0.0000000000e+00 
          0.0000000000e+00 2.6153846000e+01 0.0000000000e+00 
          0.0000000000e+00 2.6923077000e+01 0.0000000000e+00 
          0.0000000000e+00 2.7692308000e+01 0.0000000000e+00 
          0.0000000000e+00 2.8461538000e+01 0.0000000000e+00 
          0.0000000000e+00 2.9230769000e+01 0.0000000000e+00 
        </DataArray>
      </Points>
      <Cells>
        <DataArray type="Int64" Name="connectivity" format="ascii">
          0
          1
          2
          3
          4
          5
          6
          7
          8
          9
          10
          11
          12
          13
          14
          15
          16
          17
          18
          19
          20
          21
          22
          23
          24
          25
          26
          27
          28
          29
          30
          31
          32
          33
          34
          35
          36
          37
          38
          39
          40
          41
          42
          43
          44
          45
          46
          47
          48
          49
          50
          51
          52
          53
          54
          55
          56
          57
          58
          59
          60
          61
          62
          63
          64
          65
          66
          67
          68
          69
          70
          71
          72
          73
          74
          75
          76
          77
          78
          79
          80
          81
        </DataArray>
        <DataArray type="Int64" Name="offsets" format="ascii">
          82
        </DataArray>
        <DataArray type="Int64" Name="types" format="ascii">
          2
        </DataArray>
      </Cells>
      <PointData>
        <DataArray type="Int64" Name="NodeTag" format="ascii">
          1
          2
          3
          4
          5
          6
          7
          8
          9
          10
          11
          12
          13
          14
          15
          16
          17
          18
          19
          20
          21
          22
          23
          24
          25
          26
          27
          28
          29
          30
          31
          32
          33
          34
          35
          36
          37
          38
          39
          40
          41
          42
          43
          44
          45
          46
          47
          48
          49
          50
          51
          52
          53
          54
          55
          56
          57
          58
          59
          60
          61
          62
          63
          64
          65
          66
          67
          68
          69
          70
          71
          72
          73
          74
          75
          76
          77
          78
          79
          80
          81
          82
        </DataArray>
        <DataArray type="Float64" Name="Velocity" NumberOfComponents="3" format="ascii">
          -1.3231773131e-03 -7.7935835426e-05 0.0000000000e+00 
          -1.3231773131e-03 -7.7935835426e-05 0.0000000000e+00 
          7.0999819625e-02 -7.6824486983e-05 0.0000000000e+00 
          7.0999819625e-02 -7.6824486983e-05 0.0000000000e+00 
          0.0000000000e+00 0.0000000000e+00 0.0000000000e+00 
          0.0000000000e+00 0.0000000000e+00 0.0000000000e+00 
          1.6447580093e-03 -7.7928673197e-05 0.0000000000e+00 
          4.6040152704e-03 -7.7823425221e-05 0.0000000000e+00 
          7.5497144353e-03 -7.7960152823e-05 0.0000000000e+00 
          1.0477113104e-02 -7.7745805888e-05 0.0000000000e+00 
          1.3381411435e-02 -7.7754072469e-05 0.0000000000e+00 
          1.6257884507e-02 -7.7810341569e-05 0.0000000000e+00 
          1.9101896683e-02 -7.7601874889e-05 0.0000000000e+00 
          2.1908871344e-02 -7.7671754694e-05 0.0000000000e+00 
          2.4674319448e-02 -7.7647461649e-05 0.0000000000e+00 
          2.7393830727e-02 -7.7568961737e-05 0.0000000000e+00 
          3.0063070519e-02 -7.7588960327e-05 0.0000000000e+00 
          3.2677851647e-02 -7.7522616245e-05 0.0000000000e+00 
          3.5234077881e-02 -7.7432488907e-05 0.0000000000e+00 
          3.7727764064e-02 -7.7433028396e-05 0.0000000000e+00 
          4.0155067899e-02 -7.7459556449e-05 0.0000000000e+00 
          4.2512240224e-02 -7.7365783141e-05 0.0000000000e+00 
          4.4795713996e-02 -7.7226479961e-05 0.0000000000e+00 
          4.7002035484e-02 -7.7308050817e-05 0.0000000000e+00 
          4.9127883686e-02 -7.7290739795e-05 0.0000000000e+00 
          5.1170105393e-02 -7.7111634386e-05 0.0000000000e+00 
          5.3125672583e-02 -7.7238981696e-05 0.0000000000e+00 
          5.4991736578e-02 -7.7055697626e-05 0.0000000000e+00 
          5.6765601044e-02 -7.7081195929e-05 0.0000000000e+00 
          5.8444678196e-02 -7.7088435803e-05 0.0000000000e+00 
          6.0026578811e-02 -7.7034007217e-05 0.0000000000e+00 
          6.1509086546e-02 -7.6997621922e-05 0.0000000000e+00 
          6.2890097752e-02 -7.6990855699e-05 0.0000000000e+00 
          6.4167677646e-02 -7.6969784949e-05 0.0000000000e+00 
          6.5340052023e-02 -7.6994316632e-05 0.0000000000e+00 
          6.6405614276e-02 -7.7030646692e-05 0.0000000000e+00 
          6.7362923296e-02 -7.6845764362e-05 0.0000000000e+00 
          6.8210655149e-02 -7.7013314132e-05 0.0000000000e+00 
          6.8947666758e-02 -7.6933567344e-05 0.0000000000e+00 
          6.9572972521e-02 -7.6952509518e-05 0.0000000000e+00 
          7.0085714548e-02 -7.6958161609e-05 0.0000000000e+00 
          7.0485240406e-02 -7.6876951775e-05 0.0000000000e+00 
          7.0770983222e-02 -7.6970607526e-05 0.0000000000e+00 
          7.0942575687e-02 -7.6939220798e-05 0.0000000000e+00 
          1.6447580093e-03 -7.7928673197e-05 0.0000000000e+00 
          4.6040152704e-03 -7.7823425221e-05 0.0000000000e+00 
          7.5497144353e-03 -7.7960152823e-05 0.0000000000e+00 
          1.0477113104e-02 -7.7745805888e-05 0.0000000000e+00 
          1.3381411435e-02 -7.7754072469e-05 0.0000000000e+00 
          1.6257884507e-02 -7.7810341569e-05 0.0000000000e+00 
          1.9101896683e-02 -7.7601874889e-05 0.0000000000e+00 
          2.1908871344e-02 -7.7671754694e-05 0.0000000000e+00 
          2.4674319448e-02 -7.7647461649e-05 0.0000000000e+00 
          2.7393830727e-02 -7.7568961737e-05 0.0000000000e+00 
          3.0063070519e-02 -7.7588960327e-05 0.0000000000e+00 
          3.2677851647e-02 -7.7522616245e-05 0.0000000000e+00 
          3.5234077881e-02 -7.7432488907e-05 0.0000000000e+00 
          3.7727764064e-02 -7.7433028396e-05 0.0000000000e+00 
          4.0155067899e-02 -7.7459556449e-05 0.0000000000e+00 
          4.2512240224e-02 -7.7365783141e-05 0.0000000000e+00 
          4.4795713996e-02 -7.7226479961e-05 0.0000000000e+00 
          4.7002035484e-02 -7.7308050817e-05 0.0000000000e+00 
          4.9127883686e-02 -7.7290739795e-05 0.0000000000e+00 
          5.1170105393e-02 -7.7111634386e-05 0.0000000000e+00 
          5.3125672583e-02 -7.7238981696e-05 0.0000000000e+00 
          5.4991736578e-02 -7.7055697626e-05 0.0000000000e+00 
          5.6765601044e-02 -7.7081195929e-05 0.0000000000e+00 
          5.8444678196e-02 -7.7088435803e-05 0.0000000000e+00 
          6.0026578811e-02 -7.7034007217e-05 0.0000000000e+00 
          6.1509086546e-02 -7.6997621922e-05 0.0000000000e+00 
          6.2890097752e-02 -7.6990855699e-05 0.0000000000e+00 
          6.4167677646e-02 -7.6969784949e-05 0.0000000000e+00 
          6.5340052023e-02 -7.6994316632e-05 0.0000000000e+00 
          6.6405614276e-02 -7.7030646692e-05 0.0000000000e+00 
          6.7362923296e-02 -7.6845764362e-05 0.0000000000e+00 
          6.8210655149e-02 -7.7013314132e-05 0.0000000000e+00 
          6.8947666758e-02 -7.6933567344e-05 0.0000000000e+00 
          6.9572972521e-02 -7.6952509518e-05 0.0000000000e+00 
          7.0085714548e-02 -7.6958161609e-05 0.0000000000e+00 
          7.0485240406e-02 -7.6876951775e-05 0.0000000000e+00 
          7.0770983222e-02 -7.6970607526e-05 0.0000000000e+00 
          7.0942575687e-02 -7.6939220798e-05 0.0000000000e+00 
        </DataArray>
        <DataArray type="Float64" Name="Displacement" NumberOfComponents="3" format="ascii">
          -1.1711206375e-03 -2.7608831844e-04 0.0000000000e+00 
          -1.1711206375e-03 -2.7608831844e-04 0.0000000000e+00 
          -1.2654436080e-03 -2.9970463596e-04 0.0000000000e+00 
          -1.2654436080e-03 -2.9970463596e-04 0.0000000000e+00 
          0.0000000000e+00 0.0000000000e+00 0.0000000000e+00 
          0.0000000000e+00 0.0000000000e+00 0.0000000000e+00 
          -1.1921018380e-03 -2.7728348076e-04 0.0000000000e+00 
          -1.2111633079e-03 -2.7844750328e-04 0.0000000000e+00 
          -1.2283730468e-03 -2.7958036737e-04 0.0000000000e+00 
          -1.2438020283e-03 -2.8068255561e-04 0.0000000000e+00 
          -1.2575236258e-03 -2.8175326567e-04 0.0000000000e+00 
          -1.2696134364e-03 -2.8279324047e-04 0.0000000000e+00 
          -1.2801492247e-03 -2.8380191105e-04 0.0000000000e+00 
          -1.2892105317e-03 -2.8477972813e-04 0.0000000000e+00 
          -1.2968783133e-03 -2.8572666151e-04 0.0000000000e+00 
          -1.3032348187e-03 -2.8664219829e-04 0.0000000000e+00 
          -1.3083631792e-03 -2.8752694740e-04 0.0000000000e+00 
          -1.3123472935e-03 -2.8838082561e-04 0.0000000000e+00 
          -1.3152714532e-03 -2.8920334420e-04 0.0000000000e+00 
          -1.3172199582e-03 -2.8999503891e-04 0.0000000000e+00 
          -1.3182770573e-03 -2.9075599861e-04 0.0000000000e+00 
          -1.3185265247e-03 -2.9148568958e-04 0.0000000000e+00 
          -1.3180513096e-03 -2.9218447261e-04 0.0000000000e+00 
          -1.3169334483e-03 -2.9285240045e-04 0.0000000000e+00 
          -1.3152535795e-03 -2.9348896182e-04 0.0000000000e+00 
          -1.3130908190e-03 -2.9409478916e-04 0.0000000000e+00 
          -1.3105224218e-03 -2.9466972481e-04 0.0000000000e+00 
          -1.3076234901e-03 -2.9521340371e-04 0.0000000000e+00 
          -1.3044668403e-03 -2.9572618883e-04 0.0000000000e+00 
          -1.3011224681e-03 -2.9620747704e-04 0.0000000000e+00 
          -1.2976576514e-03 -2.9665821382e-04 0.0000000000e+00 
          -1.2941364813e-03 -2.9707772151e-04 0.0000000000e+00 
          -1.2906196306e-03 -2.9746610804e-04 0.0000000000e+00 
          -1.2871643052e-03 -2.9782373099e-04 0.0000000000e+00 
          -1.2838238675e-03 -2.9815005840e-04 0.0000000000e+00 
          -1.2806477762e-03 -2.9844562860e-04 0.0000000000e+00 
          -1.2776812729e-03 -2.9870965156e-04 0.0000000000e+00 
          -1.2749653121e-03 -2.9894291840e-04 0.0000000000e+00 
          -1.2725364215e-03 -2.9914516543e-04 0.0000000000e+00 
          -1.2704264884e-03 -2.9931589215e-04 0.0000000000e+00 
          -1.2686627637e-03 -2.9945585863e-04 0.0000000000e+00 
          -1.2672675651e-03 -2.9956475258e-04 0.0000000000e+00 
          -1.2662584473e-03 -2.9964232429e-04 0.0000000000e+00 
          -1.2656479682e-03 -2.9968898854e-04 0.0000000000e+00 
          -1.1921018380e-03 -2.7728348076e-04 0.0000000000e+00 
          -1.2111633079e-03 -2.7844750328e-04 0.0000000000e+00 
          -1.2283730468e-03 -2.7958036737e-04 0.0000000000e+00 
          -1.2438020283e-03 -2.8068255561e-04 0.0000000000e+00 
          -1.2575236258e-03 -2.8175326567e-04 0.0000000000e+00 
          -1.2696134364e-03 -2.8279324047e-04 0.0000000000e+00 
          -1.2801492247e-03 -2.8380191105e-04 0.0000000000e+00 
          -1.2892105317e-03 -2.8477972813e-04 0.0000000000e+00 
          -1.2968783133e-03 -2.8572666151e-04 0.0000000000e+00 
          -1.3032348187e-03 -2.8664219829e-04 0.0000000000e+00 
          -1.3083631792e-03 -2.8752694740e-04 0.0000000000e+00 
          -1.3123472935e-03 -2.8838082561e-04 0.0000000000e+00 
          -1.3152714532e-03 -2.8920334420e-04 0.0000000000e+00 
          -1.3172199582e-03 -2.8999503891e-04 0.0000000000e+00 
          -1.3182770573e-03 -2.9075599861e-04 0.0000000000e+00 
          -1.3185265247e-03 -2.9148568958e-04 0.0000000000e+00 
          -1.3180513096e-03 -2.9218447261e-04 0.0000000000e+00 
          -1.3169334483e-03 -2.9285240045e-04 0.0000000000e+00 
          -1.3152535795e-03 -2.9348896182e-04 0.0000000000e+00 
          -1.3130908190e-03 -2.9409478916e-04 0.0000000000e+00 
          -1.3105224218e-03 -2.9466972481e-04 0.0000000000e+00 
          -1.3076234901e-03 -2.9521340371e-04 0.0000000000e+00 
          -1.3044668403e-03 -2.9572618883e-04 0.0000000000e+00 
          -1.3011224681e-03 -2.9620747704e-04 0.0000000000e+00 
          -1.2976576514e-03 -2.9665821382e-04 0.0000000000e+00 
          -1.2941364813e-03 -2.9707772151e-04 0.0000000000e+00 
          -1.2906196306e-03 -2.9746610804e-04 0.0000000000e+00 
          -1.2871643052e-03 -2.9782373099e-04 0.0000000000e+00 
          -1.2838238675e-03 -2.9815005840e-04 0.0000000000e+00 
          -1.2806477762e-03 -2.9844562860e-04 0.0000000000e+00 
          -1.2776812729e-03 -2.9870965156e-04 0.0000000000e+00 
          -1.2749653121e-03 -2.9894291840e-04 0.0000000000e+00 
          -1.2725364215e-03 -2.9914516543e-04 0.0000000000e+00 
          -1.2704264884e-03 -2.9931589215e-04 0.0000000000e+00 
          -1.2686627637e-03 -2.9945585863e-04 0.0000000000e+00 
          -1.2672675651e-03 -2.9956475258e-04 0.0000000000e+00 
          -1.2662584473e-03 -2.9964232429e-04 0.0000000000e+00 
          -1.2656479682e-03 -2.9968898854e-04 0.0000000000e+00 
        </DataArray>
        <DataArray type="Float64" Name="Acceleration" NumberOfComponents="3" format="ascii">
          1.7883424536e-01 2.2151272761e-07 0.0000000000e+00 
          1.7883424536e-01 2.2151272761e-07 0.0000000000e+00 
          -3.6826511833e-02 5.1988397047e-05 0.0000000000e+00 
          -3.6826511833e-02 5.1988397047e-05 0.0000000000e+00 
          0.0000000000e+00 0.0000000000e+00 0.0000000000e+00 
          0.0000000000e+00 0.0000000000e+00 0.0000000000e+00 
          1.7297151522e-01 2.4049934589e-05 0.0000000000e+00 
          1.6684271376e-01 2.7145613109e-05 0.0000000000e+00 
          1.6045187633e-01 -5.9285341083e-05 0.0000000000e+00 
          1.5383866980e-01 8.5029160342e-05 0.0000000000e+00 
          1.4702722731e-01 -4.8851404189e-05 0.0000000000e+00 
          1.4001932386e-01 5.3449149017e-05 0.0000000000e+00 
          1.3285500649e-01 -2.7302506776e-05 0.0000000000e+00 
          1.2555939044e-01 -2.2101062553e-05 0.0000000000e+00 
          1.1814857811e-01 7.0328668816e-05 0.0000000000e+00 
          1.1065774110e-01 -3.9609582185e-05 0.0000000000e+00 
          1.0309952306e-01 -2.4194207036e-05 0.0000000000e+00 
          9.5503989054e-02 6.3662131726e-05 0.0000000000e+00 
          8.7908426116e-02 -3.2878570066e-05 0.0000000000e+00 
          8.0317430088e-02 -4.8895092941e-05 0.0000000000e+00 
          7.2769223189e-02 4.7116544782e-05 0.0000000000e+00 
          6.5295400241e-02 -1.7556586542e-05 0.0000000000e+00 
          5.7903690542e-02 -2.7235691342e-05 0.0000000000e+00 
          5.0637986634e-02 6.4894916355e-05 0.0000000000e+00 
          4.3509778201e-02 -4.9206812761e-05 0.0000000000e+00 
          3.6548439962e-02 -2.0515380399e-05 0.0000000000e+00 
          2.9781812150e-02 4.5124856793e-05 0.0000000000e+00 
          2.3220904374e-02 -2.0282809768e-05 0.0000000000e+00 
          1.6914562145e-02 8.8294310730e-05 0.0000000000e+00 
          1.0851902419e-02 -8.1859756809e-05 0.0000000000e+00 
          5.0775591200e-03 4.0140852825e-05 0.0000000000e+00 
          -3.8919736303e-04 2.0692155670e-05 0.0000000000e+00 
          -5.5435441808e-03 -4.3746720950e-05 0.0000000000e+00 
          -1.0351218110e-02 5.2043391986e-05 0.0000000000e+00 
          -1.4808347906e-02 -4.4812889135e-05 0.0000000000e+00 
          -1.8884283913e-02 9.7471391541e-05 0.0000000000e+00 
          -2.2574382688e-02 -4.5089432267e-05 0.0000000000e+00 
          -2.5865317287e-02 2.3844185353e-06 0.0000000000e+00 
          -2.8739005941e-02 9.2669587428e-05 0.0000000000e+00 
          -3.1194056206e-02 -4.4345033130e-05 0.0000000000e+00 
          -3.3204938763e-02 1.1926904379e-05 0.0000000000e+00 
          -3.4786538993e-02 5.6910887224e-05 0.0000000000e+00 
          -3.5918277394e-02 -1.7794204524e-05 0.0000000000e+00 
          -3.6592117658e-02 1.8907999709e-06 0.0000000000e+00 
          1.7297151522e-01 2.4049934589e-05 0.0000000000e+00 
          1.6684271376e-01 2.7145613109e-05 0.0000000000e+00 
          1.6045187633e-01 -5.9285341083e-05 0.0000000000e+00 
          1.5383866980e-01 8.5029160342e-05 0.0000000000e+00 
          1.4702722731e-01 -4.8851404189e-05 0.0000000000e+00 
          1.4001932386e-01 5.3449149017e-05 0.0000000000e+00 
          1.3285500649e-01 -2.7302506776e-05 0.0000000000e+00 
          1.2555939044e-01 -2.2101062553e-05 0.0000000000e+00 
          1.1814857811e-01 7.0328668816e-05 0.0000000000e+00 
          1.1065774110e-01 -3.9609582185e-05 0.0000000000e+00 
          1.0309952306e-01 -2.4194207036e-05 0.0000000000e+00 
          9.5503989054e-02 6.3662131726e-05 0.0000000000e+00 
          8.7908426116e-02 -3.2878570066e-05 0.0000000000e+00 
          8.0317430088e-02 -4.8895092941e-05 0.0000000000e+00 
          7.2769223189e-02 4.7116544782e-05 0.0000000000e+00 
          6.5295400241e-02 -1.7556586542e-05 0.0000000000e+00 
          5.7903690542e-02 -2.7235691342e-05 0.0000000000e+00 
          5.0637986634e-02 6.4894916355e-05 0.0000000000e+00 
          4.3509778201e-02 -4.9206812761e-05 0.0000000000e+00 
          3.6548439962e-02 -2.0515380399e-05 0.0000000000e+00 
          2.9781812150e-02 4.5124856793e-05 0.0000000000e+00 
          2.3220904374e-02 -2.0282809768e-05 0.0000000000e+00 
          1.6914562145e-02 8.8294310730e-05 0.0000000000e+00 
          1.0851902419e-02 -8.1859756809e-05 0.0000000000e+00 
          5.0775591200e-03 4.0140852825e-05 0.0000000000e+00 
          -3.8919736303e-04 2.0692155670e-05 0.0000000000e+00 
          -5.5435441808e-03 -4.3746720950e-05 0.0000000000e+00 
          -1.0351218110e-02 5.2043391986e-05 0.0000000000e+00 
          -1.4808347906e-02 -4.4812889135e-05 0.0000000000e+00 
          -1.8884283913e-02 9.7471391541e-05 0.0000000000e+00 
          -2.2574382688e-02 -4.5089432267e-05 0.0000000000e+00 
          -2.5865317287e-02 2.3844185353e-06 0.0000000000e+00 
          -2.8739005941e-02 9.2669587428e-05 0.0000000000e+00 
          -3.1194056206e-02 -4.4345033130e-05 0.0000000000e+00 
          -3.3204938763e-02 1.1926904379e-05 0.0000000000e+00 
          -3.4786538993e-02 5.6910887224e-05 0.0000000000e+00 
          -3.5918277394e-02 -1.7794204524e-05 0.0000000000e+00 
          -3.6592117658e-02 1.8907999709e-06 0.0000000000e+00 
        </DataArray>
        <DataArray type="Float64" Name="Reaction" NumberOfComponents="3" format="ascii">
          0.0000000000e+00 0.0000000000e+00 0.0000000000e+00 
          0.0000000000e+00 0.0000000000e+00 0.0000000000e+00 
          0.0000000000e+00 0.0000000000e+00 0.0000000000e+00 
          0.0000000000e+00 0.0000000000e+00 0.0000000000e+00 
          0.0000000000e+00 0.0000000000e+00 0.0000000000e+00 
          0.0000000000e+00 0.0000000000e+00 0.0000000000e+00 
          0.0000000000e+00 0.0000000000e+00 0.0000000000e+00 
          0.0000000000e+00 0.0000000000e+00 0.0000000000e+00 
          0.0000000000e+00 0.0000000000e+00 0.0000000000e+00 
          0.0000000000e+00 0.0000000000e+00 0.0000000000e+00 
          0.0000000000e+00 0.0000000000e+00 0.0000000000e+00 
          0.0000000000e+00 0.0000000000e+00 0.0000000000e+00 
          0.0000000000e+00 0.0000000000e+00 0.0000000000e+00 
          0.0000000000e+00 0.0000000000e+00 0.0000000000e+00 
          0.0000000000e+00 0.0000000000e+00 0.0000000000e+00 
          0.0000000000e+00 0.0000000000e+00 0.0000000000e+00 
          0.0000000000e+00 0.0000000000e+00 0.0000000000e+00 
          0.0000000000e+00 0.0000000000e+00 0.0000000000e+00 
          0.0000000000e+00 0.0000000000e+00 0.0000000000e+00 
          0.0000000000e+00 0.0000000000e+00 0.0000000000e+00 
          0.0000000000e+00 0.0000000000e+00 0.0000000000e+00 
          0.0000000000e+00 0.0000000000e+00 0.0000000000e+00 
          0.0000000000e+00 0.0000000000e+00 0.0000000000e+00 
          0.0000000000e+00 0.0000000000e+00 0.0000000000e+00 
          0.0000000000e+00 0.0000000000e+00 0.0000000000e+00 
          0.0000000000e+00 0.0000000000e+00 0.0000000000e+00 
          0.0000000000e+00 0.0000000000e+00 0.0000000000e+00 
          0.0000000000e+00 0.0000000000e+00 0.0000000000e+00 
          0.0000000000e+00 0.0000000000e+00 0.0000000000e+00 
          0.0000000000e+00 0.0000000000e+00 0.0000000000e+00 
          0.0000000000e+00 0.0000000000e+00 0.0000000000e+00 
          0.0000000000e+00 0.0000000000e+00 0.0000000000e+00 
          0.0000000000e+00 0.0000000000e+00 0.0000000000e+00 
          0.0000000000e+00 0.0000000000e+00 0.0000000000e+00 
          0.0000000000e+00 0.0000000000e+00 0.0000000000e+00 
          0.0000000000e+00 0.0000000000e+00 0.0000000000e+00 
          0.0000000000e+00 0.0000000000e+00 0.0000000000e+00 
          0.0000000000e+00 0.0000000000e+00 0.0000000000e+00 
          0.0000000000e+00 0.0000000000e+00 0.0000000000e+00 
          0.0000000000e+00 0.0000000000e+00 0.0000000000e+00 
          0.0000000000e+00 0.0000000000e+00 0.0000000000e+00 
          0.0000000000e+00 0.0000000000e+00 0.0000000000e+00 
          0.0000000000e+00 0.0000000000e+00 0.0000000000e+00 
          0.0000000000e+00 0.0000000000e+00 0.0000000000e+00 
          0.0000000000e+00 0.0000000000e+00 0.0000000000e+00 
          0.0000000000e+00 0.0000000000e+00 0.0000000000e+00 
          0.0000000000e+00 0.0000000000e+00 0.0000000000e+00 
          0.0000000000e+00 0.0000000000e+00 0.0000000000e+00 
          0.0000000000e+00 0.0000000000e+00 0.0000000000e+00 
          0.0000000000e+00 0.0000000000e+00 0.0000000000e+00 
          0.0000000000e+00 0.0000000000e+00 0.0000000000e+00 
          0.0000000000e+00 0.0000000000e+00 0.0000000000e+00 
          0.0000000000e+00 0.0000000000e+00 0.0000000000e+00 
          0.0000000000e+00 0.0000000000e+00 0.0000000000e+00 
          0.0000000000e+00 0.0000000000e+00 0.0000000000e+00 
          0.0000000000e+00 0.0000000000e+00 0.0000000000e+00 
          0.0000000000e+00 0.0000000000e+00 0.0000000000e+00 
          0.0000000000e+00 0.0000000000e+00 0.0000000000e+00 
          0.0000000000e+00 0.0000000000e+00 0.0000000000e+00 
          0.0000000000e+00 0.0000000000e+00 0.0000000000e+00 
          0.0000000000e+00 0.0000000000e+00 0.0000000000e+00 
          0.0000000000e+00 0.0000000000e+00 0.0000000000e+00 
          0.0000000000e+00 0.0000000000e+00 0.0000000000e+00 
          0.0000000000e+00 0.0000000000e+00 0.0000000000e+00 
          0.0000000000e+00 0.0000000000e+00 0.0000000000e+00 
          0.0000000000e+00 0.0000000000e+00 0.0000000000e+00 
          0.0000000000e+00 0.0000000000e+00 0.0000000000e+00 
          0.0000000000e+00 0.0000000000e+00 0.0000000000e+00 
          0.0000000000e+00 0.0000000000e+00 0.0000000000e+00 
          0.0000000000e+00 0.0000000000e+00 0.0000000000e+00 
          0.0000000000e+00 0.0000000000e+00 0.0000000000e+00 
          0.0000000000e+00 0.0000000000e+00 0.0000000000e+00 
          0.0000000000e+00 0.0000000000e+00 0.0000000000e+00 
          0.0000000000e+00 0.0000000000e+00 0.0000000000e+00 
          0.0000000000e+00 0.0000000000e+00 0.0000000000e+00 
          0.0000000000e+00 0.0000000000e+00 0.0000000000e+00 
          0.0000000000e+00 0.0000000000e+00 0.0000000000e+00 
          0.0000000000e+00 0.0000000000e+00 0.0000000000e+00 
          0.0000000000e+00 0.0000000000e+00 0.0000000000e+00 
          0.0000000000e+00 0.0000000000e+00 0.0000000000e+00 
          0.0000000000e+00 0.0000000000e+00 0.0000000000e+00 
          0.0000000000e+00 0.0000000000e+00 0.0000000000e+00 
        </DataArray>
      </PointData>
      <CellData>
        <DataArray type="Int64" Name="ElementTag" format="ascii">
          0
        </DataArray>
      </CellData>
    </Piece>
  </UnstructuredGrid>
</VTKFile>
