<?xml version="1.0"?>
<VTKFile type="UnstructuredGrid" version="1.0" byte_order="LittleEndian" compressor="vtkZLibDataCompressor">
  <UnstructuredGrid>
    <Piece NumberOfPoints="80" NumberOfCells="39">
      <Points>
        <DataArray type="Float64" Name="Points" NumberOfComponents="3" format="ascii">
          0.0000000000e+00 0.0000000000e+00 0.0000000000e+00 
          2.5000000000e-01 0.0000000000e+00 0.0000000000e+00 
          2.5000000000e-01 3.0000000000e+01 0.0000000000e+00 
          0.0000000000e+00 3.0000000000e+01 0.0000000000e+00 
          2.5000000000e-01 7.6923100000e-01 0.0000000000e+00 
          2.5000000000e-01 1.5384620000e+00 0.0000000000e+00 
          2.5000000000e-01 2.3076920000e+00 0.0000000000e+00 
          2.5000000000e-01 3.0769230000e+00 0.0000000000e+00 
          2.5000000000e-01 3.8461540000e+00 0.0000000000e+00 
          2.5000000000e-01 4.6153850000e+00 0.0000000000e+00 
          2.5000000000e-01 5.3846150000e+00 0.0000000000e+00 
          2.5000000000e-01 6.1538460000e+00 0.0000000000e+00 
          2.5000000000e-01 6.9230770000e+00 0.0000000000e+00 
          2.5000000000e-01 7.6923080000e+00 0.0000000000e+00 
          2.5000000000e-01 8.4615380000e+00 0.0000000000e+00 
          2.5000000000e-01 9.2307690000e+00 0.0000000000e+00 
          2.5000000000e-01 1.0000000000e+01 0.0000000000e+00 
          2.5000000000e-01 1.0769231000e+01 0.0000000000e+00 
          2.5000000000e-01 1.1538462000e+01 0.0000000000e+00 
          2.5000000000e-01 1.2307692000e+01 0.0000000000e+00 
          2.5000000000e-01 1.3076923000e+01 0.0000000000e+00 
          2.5000000000e-01 1.3846154000e+01 0.0000000000e+00 
          2.5000000000e-01 1.4615385000e+01 0.0000000000e+00 
          2.5000000000e-01 1.5384615000e+01 0.0000000000e+00 
          2.5000000000e-01 1.6153846000e+01 0.0000000000e+00 
          2.5000000000e-01 1.6923077000e+01 0.0000000000e+00 
          2.5000000000e-01 1.7692308000e+01 0.0000000000e+00 
          2.5000000000e-01 1.8461538000e+01 0.0000000000e+00 
          2.5000000000e-01 1.9230769000e+01 0.0000000000e+00 
          2.5000000000e-01 2.0000000000e+01 0.0000000000e+00 
          2.5000000000e-01 2.0769231000e+01 0.0000000000e+00 
          2.5000000000e-01 2.1538462000e+01 0.0000000000e+00 
          2.5000000000e-01 2.2307692000e+01 0.0000000000e+00 
          2.5000000000e-01 2.3076923000e+01 0.0000000000e+00 
          2.5000000000e-01 2.3846154000e+01 0.0000000000e+00 
          2.5000000000e-01 2.4615385000e+01 0.0000000000e+00 
          2.5000000000e-01 2.5384615000e+01 0.0000000000e+00 
          2.5000000000e-01 2.6153846000e+01 0.0000000000e+00 
          2.5000000000e-01 2.6923077000e+01 0.0000000000e+00 
          2.5000000000e-01 2.7692308000e+01 0.0000000000e+00 
          2.5000000000e-01 2.8461538000e+01 0.0000000000e+00 
          2.5000000000e-01 2.9230769000e+01 0.0000000000e+00 
          0.0000000000e+00 7.6923100000e-01 0.0000000000e+00 
          0.0000000000e+00 1.5384620000e+00 0.0000000000e+00 
          0.0000000000e+00 2.3076920000e+00 0.0000000000e+00 
          0.0000000000e+00 3.0769230000e+00 0.0000000000e+00 
          0.0000000000e+00 3.8461540000e+00 0.0000000000e+00 
          0.0000000000e+00 4.6153850000e+00 0.0000000000e+00 
          0.0000000000e+00 5.3846150000e+00 0.0000000000e+00 
          0.0000000000e+00 6.1538460000e+00 0.0000000000e+00 
          0.0000000000e+00 6.9230770000e+00 0.0000000000e+00 
          0.0000000000e+00 7.6923080000e+00 0.0000000000e+00 
          0.0000000000e+00 8.4615380000e+00 0.0000000000e+00 
          0.0000000000e+00 9.2307690000e+00 0.0000000000e+00 
          0.0000000000e+00 1.0000000000e+01 0.0000000000e+00 
          0.0000000000e+00 1.0769231000e+01 0.0000000000e+00 
          0.0000000000e+00 1.1538462000e+01 0.0000000000e+00 
          0.0000000000e+00 1.2307692000e+01 0.0000000000e+00 
          0.0000000000e+00 1.3076923000e+01 0.0000000000e+00 
          0.0000000000e+00 1.3846154000e+01 0.0000000000e+00 
          0.0000000000e+00 1.4615385000e+01 0.0000000000e+00 
          0.0000000000e+00 1.5384615000e+01 0.0000000000e+00 
          0.0000000000e+00 1.6153846000e+01 0.0000000000e+00 
          0.0000000000e+00 1.6923077000e+01 0.0000000000e+00 
          0.0000000000e+00 1.7692308000e+01 0.0000000000e+00 
          0.0000000000e+00 1.8461538000e+01 0.0000000000e+00 
          0.0000000000e+00 1.9230769000e+01 0.0000000000e+00 
          0.0000000000e+00 2.0000000000e+01 0.0000000000e+00 
          0.0000000000e+00 2.0769231000e+01 0.0000000000e+00 
          0.0000000000e+00 2.1538462000e+01 0.0000000000e+00 
          0.0000000000e+00 2.2307692000e+01 0.0000000000e+00 
          0.0000000000e+00 2.3076923000e+01 0.0000000000e+00 
          0.0000000000e+00 2.3846154000e+01 0.0000000000e+00 
          0.0000000000e+00 2.4615385000e+01 0.0000000000e+00 
          0.0000000000e+00 2.5384615000e+01 0.0000000000e+00 
          0.0000000000e+00 2.6153846000e+01 0.0000000000e+00 
          0.0000000000e+00 2.6923077000e+01 0.0000000000e+00 
          0.0000000000e+00 2.7692308000e+01 0.0000000000e+00 
          0.0000000000e+00 2.8461538000e+01 0.0000000000e+00 
          0.0000000000e+00 2.9230769000e+01 0.0000000000e+00 
        </DataArray>
      </Points>
      <Cells>
        <DataArray type="Int64" Name="connectivity" format="ascii">
          0 1 4 42 
          42 4 5 43 
          43 5 6 44 
          44 6 7 45 
          45 7 8 46 
          46 8 9 47 
          47 9 10 48 
          48 10 11 49 
          49 11 12 50 
          50 12 13 51 
          51 13 14 52 
          52 14 15 53 
          53 15 16 54 
          54 16 17 55 
          55 17 18 56 
          56 18 19 57 
          57 19 20 58 
          58 20 21 59 
          59 21 22 60 
          60 22 23 61 
          61 23 24 62 
          62 24 25 63 
          63 25 26 64 
          64 26 27 65 
          65 27 28 66 
          66 28 29 67 
          67 29 30 68 
          68 30 31 69 
          69 31 32 70 
          70 32 33 71 
          71 33 34 72 
          72 34 35 73 
          73 35 36 74 
          74 36 37 75 
          75 37 38 76 
          76 38 39 77 
          77 39 40 78 
          78 40 41 79 
          79 41 2 3 
        </DataArray>
        <DataArray type="Int64" Name="offsets" format="ascii">
          4
          8
          12
          16
          20
          24
          28
          32
          36
          40
          44
          48
          52
          56
          60
          64
          68
          72
          76
          80
          84
          88
          92
          96
          100
          104
          108
          112
          116
          120
          124
          128
          132
          136
          140
          144
          148
          152
          156
        </DataArray>
        <DataArray type="Int64" Name="types" format="ascii">
          9
          9
          9
          9
          9
          9
          9
          9
          9
          9
          9
          9
          9
          9
          9
          9
          9
          9
          9
          9
          9
          9
          9
          9
          9
          9
          9
          9
          9
          9
          9
          9
          9
          9
          9
          9
          9
          9
          9
        </DataArray>
      </Cells>
      <PointData>
        <DataArray type="Int64" Name="NodeTag" format="ascii">
          1
          2
          3
          4
          7
          8
          9
          10
          11
          12
          13
          14
          15
          16
          17
          18
          19
          20
          21
          22
          23
          24
          25
          26
          27
          28
          29
          30
          31
          32
          33
          34
          35
          36
          37
          38
          39
          40
          41
          42
          43
          44
          45
          46
          47
          48
          49
          50
          51
          52
          53
          54
          55
          56
          57
          58
          59
          60
          61
          62
          63
          64
          65
          66
          67
          68
          69
          70
          71
          72
          73
          74
          75
          76
          77
          78
          79
          80
          81
          82
        </DataArray>
        <DataArray type="Float64" Name="Velocity" NumberOfComponents="3" format="ascii">
          1.9464020118e-04 -7.7843211642e-05 0.0000000000e+00 
          1.9464020118e-04 -7.7843211642e-05 0.0000000000e+00 
          -1.6236727191e-04 -7.7804930118e-05 0.0000000000e+00 
          -1.6236727191e-04 -7.7804930118e-05 0.0000000000e+00 
          1.8278776088e-04 -7.7826846478e-05 0.0000000000e+00 
          1.7066766815e-04 -7.7871824153e-05 0.0000000000e+00 
          1.5834246945e-04 -7.7815730604e-05 0.0000000000e+00 
          1.4581110933e-04 -7.7866517693e-05 0.0000000000e+00 
          1.3313809304e-04 -7.7832101171e-05 0.0000000000e+00 
          1.2034782145e-04 -7.7848768266e-05 0.0000000000e+00 
          1.0746226847e-04 -7.7853150216e-05 0.0000000000e+00 
          9.4545054210e-05 -7.7829586802e-05 0.0000000000e+00 
          8.1603340835e-05 -7.7868770801e-05 0.0000000000e+00 
          6.8687189405e-05 -7.7820781060e-05 0.0000000000e+00 
          5.5827846674e-05 -7.7874810837e-05 0.0000000000e+00 
          4.3057818287e-05 -7.7827399097e-05 0.0000000000e+00 
          3.0410890714e-05 -7.7860821477e-05 0.0000000000e+00 
          1.7923315217e-05 -7.7845680688e-05 0.0000000000e+00 
          5.6261960941e-06 -7.7830730322e-05 0.0000000000e+00 
          -6.4505587464e-06 -7.7903743425e-05 0.0000000000e+00 
          -1.8270889437e-05 -7.7772910458e-05 0.0000000000e+00 
          -2.9808102414e-05 -7.7911543727e-05 0.0000000000e+00 
          -4.1028996313e-05 -7.7831666351e-05 0.0000000000e+00 
          -5.1902479386e-05 -7.7825991957e-05 0.0000000000e+00 
          -6.2407628832e-05 -7.7910631381e-05 0.0000000000e+00 
          -7.2512532048e-05 -7.7783151608e-05 0.0000000000e+00 
          -8.2183151881e-05 -7.7900091005e-05 0.0000000000e+00 
          -9.1410517683e-05 -7.7834433063e-05 0.0000000000e+00 
          -1.0015705674e-04 -7.7862495046e-05 0.0000000000e+00 
          -1.0840510744e-04 -7.7828329887e-05 0.0000000000e+00 
          -1.1613409590e-04 -7.7884438677e-05 0.0000000000e+00 
          -1.2331583446e-04 -7.7826733329e-05 0.0000000000e+00 
          -1.2994894684e-04 -7.7863365145e-05 0.0000000000e+00 
          -1.3599301480e-04 -7.7841415378e-05 0.0000000000e+00 
          -1.4145171970e-04 -7.7874124101e-05 0.0000000000e+00 
          -1.4630061345e-04 -7.7836285278e-05 0.0000000000e+00 
          -1.5052486509e-04 -7.7843971188e-05 0.0000000000e+00 
          -1.5412874500e-04 -7.7879039532e-05 0.0000000000e+00 
          -1.5707763913e-04 -7.7829884879e-05 0.0000000000e+00 
          -1.5938918367e-04 -7.7863946692e-05 0.0000000000e+00 
          -1.6104001967e-04 -7.7838796813e-05 0.0000000000e+00 
          -1.6203166641e-04 -7.7888165307e-05 0.0000000000e+00 
          1.8278776088e-04 -7.7826846478e-05 0.0000000000e+00 
          1.7066766815e-04 -7.7871824153e-05 0.0000000000e+00 
          1.5834246945e-04 -7.7815730604e-05 0.0000000000e+00 
          1.4581110933e-04 -7.7866517693e-05 0.0000000000e+00 
          1.3313809304e-04 -7.7832101171e-05 0.0000000000e+00 
          1.2034782145e-04 -7.7848768266e-05 0.0000000000e+00 
          1.0746226847e-04 -7.7853150216e-05 0.0000000000e+00 
          9.4545054210e-05 -7.7829586802e-05 0.0000000000e+00 
          8.1603340835e-05 -7.7868770801e-05 0.0000000000e+00 
          6.8687189405e-05 -7.7820781060e-05 0.0000000000e+00 
          5.5827846674e-05 -7.7874810837e-05 0.0000000000e+00 
          4.3057818287e-05 -7.7827399097e-05 0.0000000000e+00 
          3.0410890714e-05 -7.7860821477e-05 0.0000000000e+00 
          1.7923315217e-05 -7.7845680688e-05 0.0000000000e+00 
          5.6261960941e-06 -7.7830730322e-05 0.0000000000e+00 
          -6.4505587464e-06 -7.7903743425e-05 0.0000000000e+00 
          -1.8270889437e-05 -7.7772910458e-05 0.0000000000e+00 
          -2.9808102414e-05 -7.7911543727e-05 0.0000000000e+00 
          -4.1028996313e-05 -7.7831666351e-05 0.0000000000e+00 
          -5.1902479386e-05 -7.7825991957e-05 0.0000000000e+00 
          -6.2407628832e-05 -7.7910631381e-05 0.0000000000e+00 
          -7.2512532048e-05 -7.7783151608e-05 0.0000000000e+00 
          -8.2183151881e-05 -7.7900091005e-05 0.0000000000e+00 
          -9.1410517683e-05 -7.7834433063e-05 0.0000000000e+00 
          -1.0015705674e-04 -7.7862495046e-05 0.0000000000e+00 
          -1.0840510744e-04 -7.7828329887e-05 0.0000000000e+00 
          -1.1613409590e-04 -7.7884438677e-05 0.0000000000e+00 
          -1.2331583446e-04 -7.7826733329e-05 0.0000000000e+00 
          -1.2994894684e-04 -7.7863365145e-05 0.0000000000e+00 
          -1.3599301480e-04 -7.7841415378e-05 0.0000000000e+00 
          -1.4145171970e-04 -7.7874124101e-05 0.0000000000e+00 
          -1.4630061345e-04 -7.7836285278e-05 0.0000000000e+00 
          -1.5052486509e-04 -7.7843971188e-05 0.0000000000e+00 
          -1.5412874500e-04 -7.7879039532e-05 0.0000000000e+00 
          -1.5707763913e-04 -7.7829884879e-05 0.0000000000e+00 
          -1.5938918367e-04 -7.7863946692e-05 0.0000000000e+00 
          -1.6104001967e-04 -7.7838796813e-05 0.0000000000e+00 
          -1.6203166641e-04 -7.7888165307e-05 0.0000000000e+00 
        </DataArray>
        <DataArray type="Float64" Name="Displacement" NumberOfComponents="3" format="ascii">
          6.4793186668e-07 -4.9015291314e-04 0.0000000000e+00 
          6.4793186668e-07 -4.9015291314e-04 0.0000000000e+00 
          7.9250552143e-05 -5.1373276545e-04 0.0000000000e+00 
          7.9250552143e-05 -5.1373276545e-04 0.0000000000e+00 
          3.8763503555e-06 -4.9134663431e-04 0.0000000000e+00 
          7.0920840544e-06 -4.9250935651e-04 0.0000000000e+00 
          1.0290384696e-05 -4.9364113676e-04 0.0000000000e+00 
          1.3466429929e-05 -4.9474170440e-04 0.0000000000e+00 
          1.6615516580e-05 -4.9581158168e-04 0.0000000000e+00 
          1.9732963125e-05 -4.9685015976e-04 0.0000000000e+00 
          2.2814099606e-05 -4.9785784980e-04 0.0000000000e+00 
          2.5854387562e-05 -4.9883465642e-04 0.0000000000e+00 
          2.8849293462e-05 -4.9978016687e-04 0.0000000000e+00 
          3.1794355740e-05 -5.0069496483e-04 0.0000000000e+00 
          3.4685220324e-05 -5.0157857602e-04 0.0000000000e+00 
          3.7517570239e-05 -5.0243124805e-04 0.0000000000e+00 
          4.0287200052e-05 -5.0325288040e-04 0.0000000000e+00 
          4.2989988891e-05 -5.0404356663e-04 0.0000000000e+00 
          4.5621899957e-05 -5.0480315908e-04 0.0000000000e+00 
          4.8178997635e-05 -5.0553181792e-04 0.0000000000e+00 
          5.0657483504e-05 -5.0622947663e-04 0.0000000000e+00 
          5.3053627265e-05 -5.0689603034e-04 0.0000000000e+00 
          5.5363847596e-05 -5.0753168236e-04 0.0000000000e+00 
          5.7584670623e-05 -5.0813631531e-04 0.0000000000e+00 
          5.9712747581e-05 -5.0870988167e-04 0.0000000000e+00 
          6.1744902657e-05 -5.0925249891e-04 0.0000000000e+00 
          6.3678018970e-05 -5.0976408611e-04 0.0000000000e+00 
          6.5509220832e-05 -5.1024466582e-04 0.0000000000e+00 
          6.7235709015e-05 -5.1069428193e-04 0.0000000000e+00 
          6.8854849970e-05 -5.1111278383e-04 0.0000000000e+00 
          7.0364229479e-05 -5.1150042199e-04 0.0000000000e+00 
          7.1761491733e-05 -5.1185697412e-04 0.0000000000e+00 
          7.3044542282e-05 -5.1218245157e-04 0.0000000000e+00 
          7.4211413013e-05 -5.1247715316e-04 0.0000000000e+00 
          7.5260305186e-05 -5.1274054241e-04 0.0000000000e+00 
          7.6189636035e-05 -5.1297318307e-04 0.0000000000e+00 
          7.6997953792e-05 -5.1317471915e-04 0.0000000000e+00 
          7.7684038308e-05 -5.1334514437e-04 0.0000000000e+00 
          7.8246820122e-05 -5.1348482531e-04 0.0000000000e+00 
          7.8685444807e-05 -5.1359321340e-04 0.0000000000e+00 
          7.8999231533e-05 -5.1367079071e-04 0.0000000000e+00 
          7.9187690143e-05 -5.1371729893e-04 0.0000000000e+00 
          3.8763503555e-06 -4.9134663431e-04 0.0000000000e+00 
          7.0920840544e-06 -4.9250935651e-04 0.0000000000e+00 
          1.0290384696e-05 -4.9364113676e-04 0.0000000000e+00 
          1.3466429929e-05 -4.9474170440e-04 0.0000000000e+00 
          1.6615516580e-05 -4.9581158168e-04 0.0000000000e+00 
          1.9732963125e-05 -4.9685015976e-04 0.0000000000e+00 
          2.2814099606e-05 -4.9785784980e-04 0.0000000000e+00 
          2.5854387562e-05 -4.9883465642e-04 0.0000000000e+00 
          2.8849293462e-05 -4.9978016687e-04 0.0000000000e+00 
          3.1794355740e-05 -5.0069496483e-04 0.0000000000e+00 
          3.4685220324e-05 -5.0157857602e-04 0.0000000000e+00 
          3.7517570239e-05 -5.0243124805e-04 0.0000000000e+00 
          4.0287200052e-05 -5.0325288040e-04 0.0000000000e+00 
          4.2989988891e-05 -5.0404356663e-04 0.0000000000e+00 
          4.5621899957e-05 -5.0480315908e-04 0.0000000000e+00 
          4.8178997635e-05 -5.0553181792e-04 0.0000000000e+00 
          5.0657483504e-05 -5.0622947663e-04 0.0000000000e+00 
          5.3053627265e-05 -5.0689603034e-04 0.0000000000e+00 
          5.5363847596e-05 -5.0753168236e-04 0.0000000000e+00 
          5.7584670623e-05 -5.0813631531e-04 0.0000000000e+00 
          5.9712747581e-05 -5.0870988167e-04 0.0000000000e+00 
          6.1744902657e-05 -5.0925249891e-04 0.0000000000e+00 
          6.3678018970e-05 -5.0976408611e-04 0.0000000000e+00 
          6.5509220832e-05 -5.1024466582e-04 0.0000000000e+00 
          6.7235709015e-05 -5.1069428193e-04 0.0000000000e+00 
          6.8854849970e-05 -5.1111278383e-04 0.0000000000e+00 
          7.0364229479e-05 -5.1150042199e-04 0.0000000000e+00 
          7.1761491733e-05 -5.1185697412e-04 0.0000000000e+00 
          7.3044542282e-05 -5.1218245157e-04 0.0000000000e+00 
          7.4211413013e-05 -5.1247715316e-04 0.0000000000e+00 
          7.5260305186e-05 -5.1274054241e-04 0.0000000000e+00 
          7.6189636035e-05 -5.1297318307e-04 0.0000000000e+00 
          7.6997953792e-05 -5.1317471915e-04 0.0000000000e+00 
          7.7684038308e-05 -5.1334514437e-04 0.0000000000e+00 
          7.8246820122e-05 -5.1348482531e-04 0.0000000000e+00 
          7.8685444807e-05 -5.1359321340e-04 0.0000000000e+00 
          7.8999231533e-05 -5.1367079071e-04 0.0000000000e+00 
          7.9187690143e-05 -5.1371729893e-04 0.0000000000e+00 
        </DataArray>
        <DataArray type="Float64" Name="Acceleration" NumberOfComponents="3" format="ascii">
          -7.0488662789e-04 1.0590594226e-06 0.0000000000e+00 
          -7.0488662789e-04 1.0590594226e-06 0.0000000000e+00 
          -1.1327980672e-02 -1.3211801448e-05 0.0000000000e+00 
          -1.1327980672e-02 -1.3211801448e-05 0.0000000000e+00 
          -1.1429246269e-03 -1.3293347366e-06 0.0000000000e+00 
          -1.5703792369e-03 -1.1863941108e-05 0.0000000000e+00 
          -2.0056323207e-03 3.7441365868e-05 0.0000000000e+00 
          -2.4290213882e-03 -5.6941313232e-05 0.0000000000e+00 
          -2.8508360257e-03 5.2773951014e-05 0.0000000000e+00 
          -3.2712496987e-03 -2.1548074042e-05 0.0000000000e+00 
          -3.6808960998e-03 -2.1911790066e-05 0.0000000000e+00 
          -4.0890128439e-03 5.2229150677e-05 0.0000000000e+00 
          -4.4910087982e-03 -5.2951754429e-05 0.0000000000e+00 
          -4.8829837754e-03 3.2312225704e-05 0.0000000000e+00 
          -5.2726293136e-03 -1.1897061953e-05 0.0000000000e+00 
          -5.6512050016e-03 6.0100264155e-06 0.0000000000e+00 
          -6.0225038552e-03 -1.0852537880e-05 0.0000000000e+00 
          -6.3862272839e-03 1.5759435057e-05 0.0000000000e+00 
          -6.7405387989e-03 -1.3273794910e-05 0.0000000000e+00 
          -7.0833833781e-03 -9.4414496471e-07 0.0000000000e+00 
          -7.4191866058e-03 1.7779034922e-05 0.0000000000e+00 
          -7.7418706927e-03 -1.8857582463e-05 0.0000000000e+00 
          -8.0546187226e-03 2.1570421552e-06 0.0000000000e+00 
          -8.3568695797e-03 1.1002981267e-05 0.0000000000e+00 
          -8.6427509735e-03 -1.0312123043e-05 0.0000000000e+00 
          -8.9235881614e-03 4.2730393404e-06 0.0000000000e+00 
          -9.1824846841e-03 9.7797415555e-08 0.0000000000e+00 
          -9.4351299858e-03 -7.5841181088e-06 0.0000000000e+00 
          -9.6721972324e-03 1.9438330388e-05 0.0000000000e+00 
          -9.8897229831e-03 -2.5694799167e-05 0.0000000000e+00 
          -1.0101986139e-02 1.4359114924e-05 0.0000000000e+00 
          -1.0290556607e-02 1.2243476203e-05 0.0000000000e+00 
          -1.0468188045e-02 -4.1452698012e-05 0.0000000000e+00 
          -1.0630101154e-02 5.5141733727e-05 0.0000000000e+00 
          -1.0772711327e-02 -4.6445636748e-05 0.0000000000e+00 
          -1.0903431029e-02 1.7660133818e-05 0.0000000000e+00 
          -1.1013558238e-02 1.8886436911e-05 0.0000000000e+00 
          -1.1109816885e-02 -4.7225342065e-05 0.0000000000e+00 
          -1.1186802605e-02 5.1632152029e-05 0.0000000000e+00 
          -1.1248117178e-02 -3.5255328662e-05 0.0000000000e+00 
          -1.1292354821e-02 1.1330358322e-05 0.0000000000e+00 
          -1.1316502609e-02 6.3744856749e-06 0.0000000000e+00 
          -1.1429246269e-03 -1.3293347366e-06 0.0000000000e+00 
          -1.5703792369e-03 -1.1863941108e-05 0.0000000000e+00 
          -2.0056323207e-03 3.7441365868e-05 0.0000000000e+00 
          -2.4290213882e-03 -5.6941313232e-05 0.0000000000e+00 
          -2.8508360257e-03 5.2773951014e-05 0.0000000000e+00 
          -3.2712496987e-03 -2.1548074042e-05 0.0000000000e+00 
          -3.6808960998e-03 -2.1911790066e-05 0.0000000000e+00 
          -4.0890128439e-03 5.2229150677e-05 0.0000000000e+00 
          -4.4910087982e-03 -5.2951754429e-05 0.0000000000e+00 
          -4.8829837754e-03 3.2312225704e-05 0.0000000000e+00 
          -5.2726293136e-03 -1.1897061953e-05 0.0000000000e+00 
          -5.6512050016e-03 6.0100264155e-06 0.0000000000e+00 
          -6.0225038552e-03 -1.0852537880e-05 0.0000000000e+00 
          -6.3862272839e-03 1.5759435057e-05 0.0000000000e+00 
          -6.7405387989e-03 -1.3273794910e-05 0.0000000000e+00 
          -7.0833833781e-03 -9.4414496471e-07 0.0000000000e+00 
          -7.4191866058e-03 1.7779034922e-05 0.0000000000e+00 
          -7.7418706927e-03 -1.8857582463e-05 0.0000000000e+00 
          -8.0546187226e-03 2.1570421552e-06 0.0000000000e+00 
          -8.3568695797e-03 1.1002981267e-05 0.0000000000e+00 
          -8.6427509735e-03 -1.0312123043e-05 0.0000000000e+00 
          -8.9235881614e-03 4.2730393404e-06 0.0000000000e+00 
          -9.1824846841e-03 9.7797415555e-08 0.0000000000e+00 
          -9.4351299858e-03 -7.5841181088e-06 0.0000000000e+00 
          -9.6721972324e-03 1.9438330388e-05 0.0000000000e+00 
          -9.8897229831e-03 -2.5694799167e-05 0.0000000000e+00 
          -1.0101986139e-02 1.4359114924e-05 0.0000000000e+00 
          -1.0290556607e-02 1.2243476203e-05 0.0000000000e+00 
          -1.0468188045e-02 -4.1452698012e-05 0.0000000000e+00 
          -1.0630101154e-02 5.5141733727e-05 0.0000000000e+00 
          -1.0772711327e-02 -4.6445636748e-05 0.0000000000e+00 
          -1.0903431029e-02 1.7660133818e-05 0.0000000000e+00 
          -1.1013558238e-02 1.8886436911e-05 0.0000000000e+00 
          -1.1109816885e-02 -4.7225342065e-05 0.0000000000e+00 
          -1.1186802605e-02 5.1632152029e-05 0.0000000000e+00 
          -1.1248117178e-02 -3.5255328662e-05 0.0000000000e+00 
          -1.1292354821e-02 1.1330358322e-05 0.0000000000e+00 
          -1.1316502609e-02 6.3744856749e-06 0.0000000000e+00 
        </DataArray>
        <DataArray type="Float64" Name="Reaction" NumberOfComponents="3" format="ascii">
          0.0000000000e+00 0.0000000000e+00 0.0000000000e+00 
          0.0000000000e+00 0.0000000000e+00 0.0000000000e+00 
          0.0000000000e+00 0.0000000000e+00 0.0000000000e+00 
          0.0000000000e+00 0.0000000000e+00 0.0000000000e+00 
          0.0000000000e+00 0.0000000000e+00 0.0000000000e+00 
          0.0000000000e+00 0.0000000000e+00 0.0000000000e+00 
          0.0000000000e+00 0.0000000000e+00 0.0000000000e+00 
          0.0000000000e+00 0.0000000000e+00 0.0000000000e+00 
          0.0000000000e+00 0.0000000000e+00 0.0000000000e+00 
          0.0000000000e+00 0.0000000000e+00 0.0000000000e+00 
          0.0000000000e+00 0.0000000000e+00 0.0000000000e+00 
          0.0000000000e+00 0.0000000000e+00 0.0000000000e+00 
          0.0000000000e+00 0.0000000000e+00 0.0000000000e+00 
          0.0000000000e+00 0.0000000000e+00 0.0000000000e+00 
          0.0000000000e+00 0.0000000000e+00 0.0000000000e+00 
          0.0000000000e+00 0.0000000000e+00 0.0000000000e+00 
          0.0000000000e+00 0.0000000000e+00 0.0000000000e+00 
          0.0000000000e+00 0.0000000000e+00 0.0000000000e+00 
          0.0000000000e+00 0.0000000000e+00 0.0000000000e+00 
          0.0000000000e+00 0.0000000000e+00 0.0000000000e+00 
          0.0000000000e+00 0.0000000000e+00 0.0000000000e+00 
          0.0000000000e+00 0.0000000000e+00 0.0000000000e+00 
          0.0000000000e+00 0.0000000000e+00 0.0000000000e+00 
          0.0000000000e+00 0.0000000000e+00 0.0000000000e+00 
          0.0000000000e+00 0.0000000000e+00 0.0000000000e+00 
          0.0000000000e+00 0.0000000000e+00 0.0000000000e+00 
          0.0000000000e+00 0.0000000000e+00 0.0000000000e+00 
          0.0000000000e+00 0.0000000000e+00 0.0000000000e+00 
          0.0000000000e+00 0.0000000000e+00 0.0000000000e+00 
          0.0000000000e+00 0.0000000000e+00 0.0000000000e+00 
          0.0000000000e+00 0.0000000000e+00 0.0000000000e+00 
          0.0000000000e+00 0.0000000000e+00 0.0000000000e+00 
          0.0000000000e+00 0.0000000000e+00 0.0000000000e+00 
          0.0000000000e+00 0.0000000000e+00 0.0000000000e+00 
          0.0000000000e+00 0.0000000000e+00 0.0000000000e+00 
          0.0000000000e+00 0.0000000000e+00 0.0000000000e+00 
          0.0000000000e+00 0.0000000000e+00 0.0000000000e+00 
          0.0000000000e+00 0.0000000000e+00 0.0000000000e+00 
          0.0000000000e+00 0.0000000000e+00 0.0000000000e+00 
          0.0000000000e+00 0.0000000000e+00 0.0000000000e+00 
          0.0000000000e+00 0.0000000000e+00 0.0000000000e+00 
          0.0000000000e+00 0.0000000000e+00 0.0000000000e+00 
          0.0000000000e+00 0.0000000000e+00 0.0000000000e+00 
          0.0000000000e+00 0.0000000000e+00 0.0000000000e+00 
          0.0000000000e+00 0.0000000000e+00 0.0000000000e+00 
          0.0000000000e+00 0.0000000000e+00 0.0000000000e+00 
          0.0000000000e+00 0.0000000000e+00 0.0000000000e+00 
          0.0000000000e+00 0.0000000000e+00 0.0000000000e+00 
          0.0000000000e+00 0.0000000000e+00 0.0000000000e+00 
          0.0000000000e+00 0.0000000000e+00 0.0000000000e+00 
          0.0000000000e+00 0.0000000000e+00 0.0000000000e+00 
          0.0000000000e+00 0.0000000000e+00 0.0000000000e+00 
          0.0000000000e+00 0.0000000000e+00 0.0000000000e+00 
          0.0000000000e+00 0.0000000000e+00 0.0000000000e+00 
          0.0000000000e+00 0.0000000000e+00 0.0000000000e+00 
          0.0000000000e+00 0.0000000000e+00 0.0000000000e+00 
          0.0000000000e+00 0.0000000000e+00 0.0000000000e+00 
          0.0000000000e+00 0.0000000000e+00 0.0000000000e+00 
          0.0000000000e+00 0.0000000000e+00 0.0000000000e+00 
          0.0000000000e+00 0.0000000000e+00 0.0000000000e+00 
          0.0000000000e+00 0.0000000000e+00 0.0000000000e+00 
          0.0000000000e+00 0.0000000000e+00 0.0000000000e+00 
          0.0000000000e+00 0.0000000000e+00 0.0000000000e+00 
          0.0000000000e+00 0.0000000000e+00 0.0000000000e+00 
          0.0000000000e+00 0.0000000000e+00 0.0000000000e+00 
          0.0000000000e+00 0.0000000000e+00 0.0000000000e+00 
          0.0000000000e+00 0.0000000000e+00 0.0000000000e+00 
          0.0000000000e+00 0.0000000000e+00 0.0000000000e+00 
          0.0000000000e+00 0.0000000000e+00 0.0000000000e+00 
          0.0000000000e+00 0.0000000000e+00 0.0000000000e+00 
          0.0000000000e+00 0.0000000000e+00 0.0000000000e+00 
          0.0000000000e+00 0.0000000000e+00 0.0000000000e+00 
          0.0000000000e+00 0.0000000000e+00 0.0000000000e+00 
          0.0000000000e+00 0.0000000000e+00 0.0000000000e+00 
          0.0000000000e+00 0.0000000000e+00 0.0000000000e+00 
          0.0000000000e+00 0.0000000000e+00 0.0000000000e+00 
          0.0000000000e+00 0.0000000000e+00 0.0000000000e+00 
          0.0000000000e+00 0.0000000000e+00 0.0000000000e+00 
          0.0000000000e+00 0.0000000000e+00 0.0000000000e+00 
          0.0000000000e+00 0.0000000000e+00 0.0000000000e+00 
        </DataArray>
      </PointData>
      <CellData>
        <DataArray type="Int64" Name="ElementTag" format="ascii">
          90
          91
          92
          93
          94
          95
          96
          97
          98
          99
          100
          101
          102
          103
          104
          105
          106
          107
          108
          109
          110
          111
          112
          113
          114
          115
          116
          117
          118
          119
          120
          121
          122
          123
          124
          125
          126
          127
          128
        </DataArray>
      </CellData>
    </Piece>
  </UnstructuredGrid>
</VTKFile>
