<?xml version="1.0"?>
<VTKFile type="UnstructuredGrid" version="1.0" byte_order="LittleEndian" compressor="vtkZLibDataCompressor">
  <UnstructuredGrid>
    <Piece NumberOfPoints="80" NumberOfCells="39">
      <Points>
        <DataArray type="Float64" Name="Points" NumberOfComponents="3" format="ascii">
          0.0000000000e+00 0.0000000000e+00 0.0000000000e+00 
          2.5000000000e-01 0.0000000000e+00 0.0000000000e+00 
          2.5000000000e-01 3.0000000000e+01 0.0000000000e+00 
          0.0000000000e+00 3.0000000000e+01 0.0000000000e+00 
          2.5000000000e-01 7.6923100000e-01 0.0000000000e+00 
          2.5000000000e-01 1.5384620000e+00 0.0000000000e+00 
          2.5000000000e-01 2.3076920000e+00 0.0000000000e+00 
          2.5000000000e-01 3.0769230000e+00 0.0000000000e+00 
          2.5000000000e-01 3.8461540000e+00 0.0000000000e+00 
          2.5000000000e-01 4.6153850000e+00 0.0000000000e+00 
          2.5000000000e-01 5.3846150000e+00 0.0000000000e+00 
          2.5000000000e-01 6.1538460000e+00 0.0000000000e+00 
          2.5000000000e-01 6.9230770000e+00 0.0000000000e+00 
          2.5000000000e-01 7.6923080000e+00 0.0000000000e+00 
          2.5000000000e-01 8.4615380000e+00 0.0000000000e+00 
          2.5000000000e-01 9.2307690000e+00 0.0000000000e+00 
          2.5000000000e-01 1.0000000000e+01 0.0000000000e+00 
          2.5000000000e-01 1.0769231000e+01 0.0000000000e+00 
          2.5000000000e-01 1.1538462000e+01 0.0000000000e+00 
          2.5000000000e-01 1.2307692000e+01 0.0000000000e+00 
          2.5000000000e-01 1.3076923000e+01 0.0000000000e+00 
          2.5000000000e-01 1.3846154000e+01 0.0000000000e+00 
          2.5000000000e-01 1.4615385000e+01 0.0000000000e+00 
          2.5000000000e-01 1.5384615000e+01 0.0000000000e+00 
          2.5000000000e-01 1.6153846000e+01 0.0000000000e+00 
          2.5000000000e-01 1.6923077000e+01 0.0000000000e+00 
          2.5000000000e-01 1.7692308000e+01 0.0000000000e+00 
          2.5000000000e-01 1.8461538000e+01 0.0000000000e+00 
          2.5000000000e-01 1.9230769000e+01 0.0000000000e+00 
          2.5000000000e-01 2.0000000000e+01 0.0000000000e+00 
          2.5000000000e-01 2.0769231000e+01 0.0000000000e+00 
          2.5000000000e-01 2.1538462000e+01 0.0000000000e+00 
          2.5000000000e-01 2.2307692000e+01 0.0000000000e+00 
          2.5000000000e-01 2.3076923000e+01 0.0000000000e+00 
          2.5000000000e-01 2.3846154000e+01 0.0000000000e+00 
          2.5000000000e-01 2.4615385000e+01 0.0000000000e+00 
          2.5000000000e-01 2.5384615000e+01 0.0000000000e+00 
          2.5000000000e-01 2.6153846000e+01 0.0000000000e+00 
          2.5000000000e-01 2.6923077000e+01 0.0000000000e+00 
          2.5000000000e-01 2.7692308000e+01 0.0000000000e+00 
          2.5000000000e-01 2.8461538000e+01 0.0000000000e+00 
          2.5000000000e-01 2.9230769000e+01 0.0000000000e+00 
          0.0000000000e+00 7.6923100000e-01 0.0000000000e+00 
          0.0000000000e+00 1.5384620000e+00 0.0000000000e+00 
          0.0000000000e+00 2.3076920000e+00 0.0000000000e+00 
          0.0000000000e+00 3.0769230000e+00 0.0000000000e+00 
          0.0000000000e+00 3.8461540000e+00 0.0000000000e+00 
          0.0000000000e+00 4.6153850000e+00 0.0000000000e+00 
          0.0000000000e+00 5.3846150000e+00 0.0000000000e+00 
          0.0000000000e+00 6.1538460000e+00 0.0000000000e+00 
          0.0000000000e+00 6.9230770000e+00 0.0000000000e+00 
          0.0000000000e+00 7.6923080000e+00 0.0000000000e+00 
          0.0000000000e+00 8.4615380000e+00 0.0000000000e+00 
          0.0000000000e+00 9.2307690000e+00 0.0000000000e+00 
          0.0000000000e+00 1.0000000000e+01 0.0000000000e+00 
          0.0000000000e+00 1.0769231000e+01 0.0000000000e+00 
          0.0000000000e+00 1.1538462000e+01 0.0000000000e+00 
          0.0000000000e+00 1.2307692000e+01 0.0000000000e+00 
          0.0000000000e+00 1.3076923000e+01 0.0000000000e+00 
          0.0000000000e+00 1.3846154000e+01 0.0000000000e+00 
          0.0000000000e+00 1.4615385000e+01 0.0000000000e+00 
          0.0000000000e+00 1.5384615000e+01 0.0000000000e+00 
          0.0000000000e+00 1.6153846000e+01 0.0000000000e+00 
          0.0000000000e+00 1.6923077000e+01 0.0000000000e+00 
          0.0000000000e+00 1.7692308000e+01 0.0000000000e+00 
          0.0000000000e+00 1.8461538000e+01 0.0000000000e+00 
          0.0000000000e+00 1.9230769000e+01 0.0000000000e+00 
          0.0000000000e+00 2.0000000000e+01 0.0000000000e+00 
          0.0000000000e+00 2.0769231000e+01 0.0000000000e+00 
          0.0000000000e+00 2.1538462000e+01 0.0000000000e+00 
          0.0000000000e+00 2.2307692000e+01 0.0000000000e+00 
          0.0000000000e+00 2.3076923000e+01 0.0000000000e+00 
          0.0000000000e+00 2.3846154000e+01 0.0000000000e+00 
          0.0000000000e+00 2.4615385000e+01 0.0000000000e+00 
          0.0000000000e+00 2.5384615000e+01 0.0000000000e+00 
          0.0000000000e+00 2.6153846000e+01 0.0000000000e+00 
          0.0000000000e+00 2.6923077000e+01 0.0000000000e+00 
          0.0000000000e+00 2.7692308000e+01 0.0000000000e+00 
          0.0000000000e+00 2.8461538000e+01 0.0000000000e+00 
          0.0000000000e+00 2.9230769000e+01 0.0000000000e+00 
        </DataArray>
      </Points>
      <Cells>
        <DataArray type="Int64" Name="connectivity" format="ascii">
          0 1 4 42 
          42 4 5 43 
          43 5 6 44 
          44 6 7 45 
          45 7 8 46 
          46 8 9 47 
          47 9 10 48 
          48 10 11 49 
          49 11 12 50 
          50 12 13 51 
          51 13 14 52 
          52 14 15 53 
          53 15 16 54 
          54 16 17 55 
          55 17 18 56 
          56 18 19 57 
          57 19 20 58 
          58 20 21 59 
          59 21 22 60 
          60 22 23 61 
          61 23 24 62 
          62 24 25 63 
          63 25 26 64 
          64 26 27 65 
          65 27 28 66 
          66 28 29 67 
          67 29 30 68 
          68 30 31 69 
          69 31 32 70 
          70 32 33 71 
          71 33 34 72 
          72 34 35 73 
          73 35 36 74 
          74 36 37 75 
          75 37 38 76 
          76 38 39 77 
          77 39 40 78 
          78 40 41 79 
          79 41 2 3 
        </DataArray>
        <DataArray type="Int64" Name="offsets" format="ascii">
          4
          8
          12
          16
          20
          24
          28
          32
          36
          40
          44
          48
          52
          56
          60
          64
          68
          72
          76
          80
          84
          88
          92
          96
          100
          104
          108
          112
          116
          120
          124
          128
          132
          136
          140
          144
          148
          152
          156
        </DataArray>
        <DataArray type="Int64" Name="types" format="ascii">
          9
          9
          9
          9
          9
          9
          9
          9
          9
          9
          9
          9
          9
          9
          9
          9
          9
          9
          9
          9
          9
          9
          9
          9
          9
          9
          9
          9
          9
          9
          9
          9
          9
          9
          9
          9
          9
          9
          9
        </DataArray>
      </Cells>
      <PointData>
        <DataArray type="Int64" Name="NodeTag" format="ascii">
          1
          2
          3
          4
          7
          8
          9
          10
          11
          12
          13
          14
          15
          16
          17
          18
          19
          20
          21
          22
          23
          24
          25
          26
          27
          28
          29
          30
          31
          32
          33
          34
          35
          36
          37
          38
          39
          40
          41
          42
          43
          44
          45
          46
          47
          48
          49
          50
          51
          52
          53
          54
          55
          56
          57
          58
          59
          60
          61
          62
          63
          64
          65
          66
          67
          68
          69
          70
          71
          72
          73
          74
          75
          76
          77
          78
          79
          80
          81
          82
        </DataArray>
        <DataArray type="Float64" Name="Velocity" NumberOfComponents="3" format="ascii">
          -2.5020305074e-06 -7.7846630038e-05 0.0000000000e+00 
          -2.5020305074e-06 -7.7846630038e-05 0.0000000000e+00 
          -6.7445889861e-05 -7.7819058568e-05 0.0000000000e+00 
          -6.7445889861e-05 -7.7819058568e-05 0.0000000000e+00 
          -5.2239099994e-06 -7.7833419205e-05 0.0000000000e+00 
          -7.9382044379e-06 -7.7859087873e-05 0.0000000000e+00 
          -1.0622939219e-05 -7.7832210986e-05 0.0000000000e+00 
          -1.3297568540e-05 -7.7849230095e-05 0.0000000000e+00 
          -1.5936960660e-05 -7.7849537440e-05 0.0000000000e+00 
          -1.8549446134e-05 -7.7828275111e-05 0.0000000000e+00 
          -2.1130271003e-05 -7.7869092540e-05 0.0000000000e+00 
          -2.3665120660e-05 -7.7816355620e-05 0.0000000000e+00 
          -2.6168566018e-05 -7.7864654287e-05 0.0000000000e+00 
          -2.8617050172e-05 -7.7846073041e-05 0.0000000000e+00 
          -3.1022310954e-05 -7.7811771833e-05 0.0000000000e+00 
          -3.3372843645e-05 -7.7899502610e-05 0.0000000000e+00 
          -3.5665298395e-05 -7.7786361473e-05 0.0000000000e+00 
          -3.7904981736e-05 -7.7890017698e-05 0.0000000000e+00 
          -4.0071978917e-05 -7.7809169446e-05 0.0000000000e+00 
          -4.2184998334e-05 -7.7873792884e-05 0.0000000000e+00 
          -4.4219495013e-05 -7.7821781087e-05 0.0000000000e+00 
          -4.6188150022e-05 -7.7854402448e-05 0.0000000000e+00 
          -4.8084537199e-05 -7.7844178259e-05 0.0000000000e+00 
          -4.9896264700e-05 -7.7839579780e-05 0.0000000000e+00 
          -5.1639529637e-05 -7.7850779732e-05 0.0000000000e+00 
          -5.3294018050e-05 -7.7830027827e-05 0.0000000000e+00 
          -5.4866844771e-05 -7.7872243315e-05 0.0000000000e+00 
          -5.6358465031e-05 -7.7799535218e-05 0.0000000000e+00 
          -5.7755215062e-05 -7.7897858652e-05 0.0000000000e+00 
          -5.9070163417e-05 -7.7790857143e-05 0.0000000000e+00 
          -6.0290229642e-05 -7.7888218117e-05 0.0000000000e+00 
          -6.1419252020e-05 -7.7811839154e-05 0.0000000000e+00 
          -6.2454293967e-05 -7.7858764681e-05 0.0000000000e+00 
          -6.3396030169e-05 -7.7852740641e-05 0.0000000000e+00 
          -6.4238965320e-05 -7.7809765385e-05 0.0000000000e+00 
          -6.4987598220e-05 -7.7888012236e-05 0.0000000000e+00 
          -6.5637240015e-05 -7.7814682908e-05 0.0000000000e+00 
          -6.6187321327e-05 -7.7840926611e-05 0.0000000000e+00 
          -6.6640175265e-05 -7.7871355582e-05 0.0000000000e+00 
          -6.6990980811e-05 -7.7815080833e-05 0.0000000000e+00 
          -6.7243860884e-05 -7.7852487088e-05 0.0000000000e+00 
          -6.7393066246e-05 -7.7858310102e-05 0.0000000000e+00 
          -5.2239099994e-06 -7.7833419205e-05 0.0000000000e+00 
          -7.9382044379e-06 -7.7859087873e-05 0.0000000000e+00 
          -1.0622939219e-05 -7.7832210986e-05 0.0000000000e+00 
          -1.3297568540e-05 -7.7849230095e-05 0.0000000000e+00 
          -1.5936960660e-05 -7.7849537440e-05 0.0000000000e+00 
          -1.8549446134e-05 -7.7828275111e-05 0.0000000000e+00 
          -2.1130271003e-05 -7.7869092540e-05 0.0000000000e+00 
          -2.3665120660e-05 -7.7816355620e-05 0.0000000000e+00 
          -2.6168566018e-05 -7.7864654287e-05 0.0000000000e+00 
          -2.8617050172e-05 -7.7846073041e-05 0.0000000000e+00 
          -3.1022310954e-05 -7.7811771833e-05 0.0000000000e+00 
          -3.3372843645e-05 -7.7899502610e-05 0.0000000000e+00 
          -3.5665298395e-05 -7.7786361473e-05 0.0000000000e+00 
          -3.7904981736e-05 -7.7890017698e-05 0.0000000000e+00 
          -4.0071978917e-05 -7.7809169446e-05 0.0000000000e+00 
          -4.2184998334e-05 -7.7873792884e-05 0.0000000000e+00 
          -4.4219495013e-05 -7.7821781087e-05 0.0000000000e+00 
          -4.6188150022e-05 -7.7854402448e-05 0.0000000000e+00 
          -4.8084537199e-05 -7.7844178259e-05 0.0000000000e+00 
          -4.9896264700e-05 -7.7839579780e-05 0.0000000000e+00 
          -5.1639529637e-05 -7.7850779732e-05 0.0000000000e+00 
          -5.3294018050e-05 -7.7830027827e-05 0.0000000000e+00 
          -5.4866844771e-05 -7.7872243315e-05 0.0000000000e+00 
          -5.6358465031e-05 -7.7799535218e-05 0.0000000000e+00 
          -5.7755215062e-05 -7.7897858652e-05 0.0000000000e+00 
          -5.9070163417e-05 -7.7790857143e-05 0.0000000000e+00 
          -6.0290229642e-05 -7.7888218117e-05 0.0000000000e+00 
          -6.1419252020e-05 -7.7811839154e-05 0.0000000000e+00 
          -6.2454293967e-05 -7.7858764681e-05 0.0000000000e+00 
          -6.3396030169e-05 -7.7852740641e-05 0.0000000000e+00 
          -6.4238965320e-05 -7.7809765385e-05 0.0000000000e+00 
          -6.4987598220e-05 -7.7888012236e-05 0.0000000000e+00 
          -6.5637240015e-05 -7.7814682908e-05 0.0000000000e+00 
          -6.6187321327e-05 -7.7840926611e-05 0.0000000000e+00 
          -6.6640175265e-05 -7.7871355582e-05 0.0000000000e+00 
          -6.6990980811e-05 -7.7815080833e-05 0.0000000000e+00 
          -6.7243860884e-05 -7.7852487088e-05 0.0000000000e+00 
          -6.7393066246e-05 -7.7858310102e-05 0.0000000000e+00 
        </DataArray>
        <DataArray type="Float64" Name="Displacement" NumberOfComponents="3" format="ascii">
          1.1525779411e-06 -6.2171014102e-04 0.0000000000e+00 
          1.1525779411e-06 -6.2171014102e-04 0.0000000000e+00 
          -2.8247836051e-07 -6.4529042518e-04 0.0000000000e+00 
          -2.8247836051e-07 -6.4529042518e-04 0.0000000000e+00 
          1.1101164184e-06 -6.2290391645e-04 0.0000000000e+00 
          1.0659839227e-06 -6.2406658623e-04 0.0000000000e+00 
          1.0203820451e-06 -6.2519835874e-04 0.0000000000e+00 
          9.7343386373e-07 -6.2629910218e-04 0.0000000000e+00 
          9.2535358107e-07 -6.2736875045e-04 0.0000000000e+00 
          8.7628889844e-07 -6.2840753932e-04 0.0000000000e+00 
          8.2640817068e-07 -6.2941520927e-04 0.0000000000e+00 
          7.7591249623e-07 -6.3039187670e-04 0.0000000000e+00 
          7.2493676687e-07 -6.3133765764e-04 0.0000000000e+00 
          6.7368180740e-07 -6.3225223530e-04 0.0000000000e+00 
          6.2230880231e-07 -6.3313600772e-04 0.0000000000e+00 
          5.7097726037e-07 -6.3398862313e-04 0.0000000000e+00 
          5.1987258497e-07 -6.3481031338e-04 0.0000000000e+00 
          4.6914328230e-07 -6.3560098641e-04 0.0000000000e+00 
          4.1896224562e-07 -6.3636059538e-04 0.0000000000e+00 
          3.6948017965e-07 -6.3708931655e-04 0.0000000000e+00 
          3.2085976397e-07 -6.3778687712e-04 0.0000000000e+00 
          2.7324677756e-07 -6.3845357697e-04 0.0000000000e+00 
          2.2679355879e-07 -6.3908918066e-04 0.0000000000e+00 
          1.8163486968e-07 -6.3969379171e-04 0.0000000000e+00 
          1.3791851478e-07 -6.4026744359e-04 0.0000000000e+00 
          9.5771219744e-08 -6.4081000520e-04 0.0000000000e+00 
          5.5315773937e-08 -6.4132167449e-04 0.0000000000e+00 
          1.6686737427e-08 -6.4180219539e-04 0.0000000000e+00 
          -2.0015926409e-08 -6.4225185395e-04 0.0000000000e+00 
          -5.4672955519e-08 -6.4267041125e-04 0.0000000000e+00 
          -8.7185077789e-08 -6.4305796120e-04 0.0000000000e+00 
          -1.1745824456e-07 -6.4341461768e-04 0.0000000000e+00 
          -1.4540313954e-07 -6.4374007125e-04 0.0000000000e+00 
          -1.7092924868e-07 -6.4403473537e-04 0.0000000000e+00 
          -1.9398652367e-07 -6.4429822417e-04 0.0000000000e+00 
          -2.1447216781e-07 -6.4453078558e-04 0.0000000000e+00 
          -2.3235798300e-07 -6.4473235412e-04 0.0000000000e+00 
          -2.4758521897e-07 -6.4490284367e-04 0.0000000000e+00 
          -2.6008589551e-07 -6.4504241317e-04 0.0000000000e+00 
          -2.6986728174e-07 -6.4515090809e-04 0.0000000000e+00 
          -2.7686054621e-07 -6.4522843361e-04 0.0000000000e+00 
          -2.8106454810e-07 -6.4527495776e-04 0.0000000000e+00 
          1.1101164184e-06 -6.2290391645e-04 0.0000000000e+00 
          1.0659839227e-06 -6.2406658623e-04 0.0000000000e+00 
          1.0203820451e-06 -6.2519835874e-04 0.0000000000e+00 
          9.7343386373e-07 -6.2629910218e-04 0.0000000000e+00 
          9.2535358107e-07 -6.2736875045e-04 0.0000000000e+00 
          8.7628889844e-07 -6.2840753932e-04 0.0000000000e+00 
          8.2640817068e-07 -6.2941520927e-04 0.0000000000e+00 
          7.7591249623e-07 -6.3039187670e-04 0.0000000000e+00 
          7.2493676687e-07 -6.3133765764e-04 0.0000000000e+00 
          6.7368180740e-07 -6.3225223530e-04 0.0000000000e+00 
          6.2230880231e-07 -6.3313600772e-04 0.0000000000e+00 
          5.7097726037e-07 -6.3398862313e-04 0.0000000000e+00 
          5.1987258497e-07 -6.3481031338e-04 0.0000000000e+00 
          4.6914328230e-07 -6.3560098641e-04 0.0000000000e+00 
          4.1896224562e-07 -6.3636059538e-04 0.0000000000e+00 
          3.6948017965e-07 -6.3708931655e-04 0.0000000000e+00 
          3.2085976397e-07 -6.3778687712e-04 0.0000000000e+00 
          2.7324677756e-07 -6.3845357697e-04 0.0000000000e+00 
          2.2679355879e-07 -6.3908918066e-04 0.0000000000e+00 
          1.8163486968e-07 -6.3969379171e-04 0.0000000000e+00 
          1.3791851478e-07 -6.4026744359e-04 0.0000000000e+00 
          9.5771219744e-08 -6.4081000520e-04 0.0000000000e+00 
          5.5315773937e-08 -6.4132167449e-04 0.0000000000e+00 
          1.6686737427e-08 -6.4180219539e-04 0.0000000000e+00 
          -2.0015926409e-08 -6.4225185395e-04 0.0000000000e+00 
          -5.4672955519e-08 -6.4267041125e-04 0.0000000000e+00 
          -8.7185077789e-08 -6.4305796120e-04 0.0000000000e+00 
          -1.1745824456e-07 -6.4341461768e-04 0.0000000000e+00 
          -1.4540313954e-07 -6.4374007125e-04 0.0000000000e+00 
          -1.7092924868e-07 -6.4403473537e-04 0.0000000000e+00 
          -1.9398652367e-07 -6.4429822417e-04 0.0000000000e+00 
          -2.1447216781e-07 -6.4453078558e-04 0.0000000000e+00 
          -2.3235798300e-07 -6.4473235412e-04 0.0000000000e+00 
          -2.4758521897e-07 -6.4490284367e-04 0.0000000000e+00 
          -2.6008589551e-07 -6.4504241317e-04 0.0000000000e+00 
          -2.6986728174e-07 -6.4515090809e-04 0.0000000000e+00 
          -2.7686054621e-07 -6.4522843361e-04 0.0000000000e+00 
          -2.8106454810e-07 -6.4527495776e-04 0.0000000000e+00 
        </DataArray>
        <DataArray type="Float64" Name="Acceleration" NumberOfComponents="3" format="ascii">
          -1.6417837756e-04 6.3893426011e-07 0.0000000000e+00 
          -1.6417837756e-04 6.3893426011e-07 0.0000000000e+00 
          2.5477458009e-04 -1.2886581278e-05 0.0000000000e+00 
          2.5477458009e-04 -1.2886581278e-05 0.0000000000e+00 
          -1.5055797280e-04 1.7897335284e-05 0.0000000000e+00 
          -1.3239963506e-04 -1.9917115983e-05 0.0000000000e+00 
          -1.2129936768e-04 4.3657360561e-06 0.0000000000e+00 
          -1.0200456084e-04 1.6010134619e-05 0.0000000000e+00 
          -8.8696381332e-05 -2.6480985712e-05 0.0000000000e+00 
          -7.3533167924e-05 2.0056264519e-05 0.0000000000e+00 
          -5.5402104237e-05 -4.4769213553e-07 0.0000000000e+00 
          -4.3253896522e-05 -2.1597409202e-05 0.0000000000e+00 
          -2.5159183146e-05 3.5489867507e-05 0.0000000000e+00 
          -1.0642168922e-05 -3.6442767839e-05 0.0000000000e+00 
          3.7419323008e-06 2.7364660776e-05 0.0000000000e+00 
          2.0441123133e-05 -1.4630452408e-05 0.0000000000e+00 
          3.3821824276e-05 1.9620440558e-06 0.0000000000e+00 
          4.9399848279e-05 1.0401120690e-05 0.0000000000e+00 
          6.2972886244e-05 -2.1527106064e-05 0.0000000000e+00 
          7.7642239601e-05 2.7974235777e-05 0.0000000000e+00 
          9.0771366357e-05 -2.6241959415e-05 0.0000000000e+00 
          1.0449735436e-04 1.6186669341e-05 0.0000000000e+00 
          1.1663446590e-04 -2.6063904471e-06 0.0000000000e+00 
          1.2996253456e-04 -8.3544152376e-06 0.0000000000e+00 
          1.4137539212e-04 1.5124819752e-05 0.0000000000e+00 
          1.5243895669e-04 -2.0546550300e-05 0.0000000000e+00 
          1.6455866691e-04 2.5490840834e-05 0.0000000000e+00 
          1.7357461962e-04 -2.5833401874e-05 0.0000000000e+00 
          1.8431572862e-04 1.7105759650e-05 0.0000000000e+00 
          1.9326034217e-04 1.8206161539e-07 0.0000000000e+00 
          2.0173431243e-04 -2.0337782820e-05 0.0000000000e+00 
          2.0977874877e-04 3.5349689920e-05 0.0000000000e+00 
          2.1794079563e-04 -3.9005030996e-05 0.0000000000e+00 
          2.2244683364e-04 3.0452130207e-05 0.0000000000e+00 
          2.3170901747e-04 -1.4226493611e-05 0.0000000000e+00 
          2.3424777948e-04 -2.4706398118e-06 0.0000000000e+00 
          2.3954548857e-04 1.3144692751e-05 0.0000000000e+00 
          2.4566838981e-04 -1.5549841049e-05 0.0000000000e+00 
          2.4501342710e-04 1.2297291219e-05 0.0000000000e+00 
          2.5121462088e-04 -6.6720820084e-06 0.0000000000e+00 
          2.5131904918e-04 -8.7220875988e-07 0.0000000000e+00 
          2.5140158235e-04 9.0824902207e-06 0.0000000000e+00 
          -1.5055797280e-04 1.7897335284e-05 0.0000000000e+00 
          -1.3239963506e-04 -1.9917115983e-05 0.0000000000e+00 
          -1.2129936768e-04 4.3657360561e-06 0.0000000000e+00 
          -1.0200456084e-04 1.6010134619e-05 0.0000000000e+00 
          -8.8696381332e-05 -2.6480985712e-05 0.0000000000e+00 
          -7.3533167924e-05 2.0056264519e-05 0.0000000000e+00 
          -5.5402104237e-05 -4.4769213553e-07 0.0000000000e+00 
          -4.3253896522e-05 -2.1597409202e-05 0.0000000000e+00 
          -2.5159183146e-05 3.5489867507e-05 0.0000000000e+00 
          -1.0642168922e-05 -3.6442767839e-05 0.0000000000e+00 
          3.7419323008e-06 2.7364660776e-05 0.0000000000e+00 
          2.0441123133e-05 -1.4630452408e-05 0.0000000000e+00 
          3.3821824276e-05 1.9620440558e-06 0.0000000000e+00 
          4.9399848279e-05 1.0401120690e-05 0.0000000000e+00 
          6.2972886244e-05 -2.1527106064e-05 0.0000000000e+00 
          7.7642239601e-05 2.7974235777e-05 0.0000000000e+00 
          9.0771366357e-05 -2.6241959415e-05 0.0000000000e+00 
          1.0449735436e-04 1.6186669341e-05 0.0000000000e+00 
          1.1663446590e-04 -2.6063904471e-06 0.0000000000e+00 
          1.2996253456e-04 -8.3544152376e-06 0.0000000000e+00 
          1.4137539212e-04 1.5124819752e-05 0.0000000000e+00 
          1.5243895669e-04 -2.0546550300e-05 0.0000000000e+00 
          1.6455866691e-04 2.5490840834e-05 0.0000000000e+00 
          1.7357461962e-04 -2.5833401874e-05 0.0000000000e+00 
          1.8431572862e-04 1.7105759650e-05 0.0000000000e+00 
          1.9326034217e-04 1.8206161539e-07 0.0000000000e+00 
          2.0173431243e-04 -2.0337782820e-05 0.0000000000e+00 
          2.0977874877e-04 3.5349689920e-05 0.0000000000e+00 
          2.1794079563e-04 -3.9005030996e-05 0.0000000000e+00 
          2.2244683364e-04 3.0452130207e-05 0.0000000000e+00 
          2.3170901747e-04 -1.4226493611e-05 0.0000000000e+00 
          2.3424777948e-04 -2.4706398118e-06 0.0000000000e+00 
          2.3954548857e-04 1.3144692751e-05 0.0000000000e+00 
          2.4566838981e-04 -1.5549841049e-05 0.0000000000e+00 
          2.4501342710e-04 1.2297291219e-05 0.0000000000e+00 
          2.5121462088e-04 -6.6720820084e-06 0.0000000000e+00 
          2.5131904918e-04 -8.7220875988e-07 0.0000000000e+00 
          2.5140158235e-04 9.0824902207e-06 0.0000000000e+00 
        </DataArray>
        <DataArray type="Float64" Name="Reaction" NumberOfComponents="3" format="ascii">
          0.0000000000e+00 0.0000000000e+00 0.0000000000e+00 
          0.0000000000e+00 0.0000000000e+00 0.0000000000e+00 
          0.0000000000e+00 0.0000000000e+00 0.0000000000e+00 
          0.0000000000e+00 0.0000000000e+00 0.0000000000e+00 
          0.0000000000e+00 0.0000000000e+00 0.0000000000e+00 
          0.0000000000e+00 0.0000000000e+00 0.0000000000e+00 
          0.0000000000e+00 0.0000000000e+00 0.0000000000e+00 
          0.0000000000e+00 0.0000000000e+00 0.0000000000e+00 
          0.0000000000e+00 0.0000000000e+00 0.0000000000e+00 
          0.0000000000e+00 0.0000000000e+00 0.0000000000e+00 
          0.0000000000e+00 0.0000000000e+00 0.0000000000e+00 
          0.0000000000e+00 0.0000000000e+00 0.0000000000e+00 
          0.0000000000e+00 0.0000000000e+00 0.0000000000e+00 
          0.0000000000e+00 0.0000000000e+00 0.0000000000e+00 
          0.0000000000e+00 0.0000000000e+00 0.0000000000e+00 
          0.0000000000e+00 0.0000000000e+00 0.0000000000e+00 
          0.0000000000e+00 0.0000000000e+00 0.0000000000e+00 
          0.0000000000e+00 0.0000000000e+00 0.0000000000e+00 
          0.0000000000e+00 0.0000000000e+00 0.0000000000e+00 
          0.0000000000e+00 0.0000000000e+00 0.0000000000e+00 
          0.0000000000e+00 0.0000000000e+00 0.0000000000e+00 
          0.0000000000e+00 0.0000000000e+00 0.0000000000e+00 
          0.0000000000e+00 0.0000000000e+00 0.0000000000e+00 
          0.0000000000e+00 0.0000000000e+00 0.0000000000e+00 
          0.0000000000e+00 0.0000000000e+00 0.0000000000e+00 
          0.0000000000e+00 0.0000000000e+00 0.0000000000e+00 
          0.0000000000e+00 0.0000000000e+00 0.0000000000e+00 
          0.0000000000e+00 0.0000000000e+00 0.0000000000e+00 
          0.0000000000e+00 0.0000000000e+00 0.0000000000e+00 
          0.0000000000e+00 0.0000000000e+00 0.0000000000e+00 
          0.0000000000e+00 0.0000000000e+00 0.0000000000e+00 
          0.0000000000e+00 0.0000000000e+00 0.0000000000e+00 
          0.0000000000e+00 0.0000000000e+00 0.0000000000e+00 
          0.0000000000e+00 0.0000000000e+00 0.0000000000e+00 
          0.0000000000e+00 0.0000000000e+00 0.0000000000e+00 
          0.0000000000e+00 0.0000000000e+00 0.0000000000e+00 
          0.0000000000e+00 0.0000000000e+00 0.0000000000e+00 
          0.0000000000e+00 0.0000000000e+00 0.0000000000e+00 
          0.0000000000e+00 0.0000000000e+00 0.0000000000e+00 
          0.0000000000e+00 0.0000000000e+00 0.0000000000e+00 
          0.0000000000e+00 0.0000000000e+00 0.0000000000e+00 
          0.0000000000e+00 0.0000000000e+00 0.0000000000e+00 
          0.0000000000e+00 0.0000000000e+00 0.0000000000e+00 
          0.0000000000e+00 0.0000000000e+00 0.0000000000e+00 
          0.0000000000e+00 0.0000000000e+00 0.0000000000e+00 
          0.0000000000e+00 0.0000000000e+00 0.0000000000e+00 
          0.0000000000e+00 0.0000000000e+00 0.0000000000e+00 
          0.0000000000e+00 0.0000000000e+00 0.0000000000e+00 
          0.0000000000e+00 0.0000000000e+00 0.0000000000e+00 
          0.0000000000e+00 0.0000000000e+00 0.0000000000e+00 
          0.0000000000e+00 0.0000000000e+00 0.0000000000e+00 
          0.0000000000e+00 0.0000000000e+00 0.0000000000e+00 
          0.0000000000e+00 0.0000000000e+00 0.0000000000e+00 
          0.0000000000e+00 0.0000000000e+00 0.0000000000e+00 
          0.0000000000e+00 0.0000000000e+00 0.0000000000e+00 
          0.0000000000e+00 0.0000000000e+00 0.0000000000e+00 
          0.0000000000e+00 0.0000000000e+00 0.0000000000e+00 
          0.0000000000e+00 0.0000000000e+00 0.0000000000e+00 
          0.0000000000e+00 0.0000000000e+00 0.0000000000e+00 
          0.0000000000e+00 0.0000000000e+00 0.0000000000e+00 
          0.0000000000e+00 0.0000000000e+00 0.0000000000e+00 
          0.0000000000e+00 0.0000000000e+00 0.0000000000e+00 
          0.0000000000e+00 0.0000000000e+00 0.0000000000e+00 
          0.0000000000e+00 0.0000000000e+00 0.0000000000e+00 
          0.0000000000e+00 0.0000000000e+00 0.0000000000e+00 
          0.0000000000e+00 0.0000000000e+00 0.0000000000e+00 
          0.0000000000e+00 0.0000000000e+00 0.0000000000e+00 
          0.0000000000e+00 0.0000000000e+00 0.0000000000e+00 
          0.0000000000e+00 0.0000000000e+00 0.0000000000e+00 
          0.0000000000e+00 0.0000000000e+00 0.0000000000e+00 
          0.0000000000e+00 0.0000000000e+00 0.0000000000e+00 
          0.0000000000e+00 0.0000000000e+00 0.0000000000e+00 
          0.0000000000e+00 0.0000000000e+00 0.0000000000e+00 
          0.0000000000e+00 0.0000000000e+00 0.0000000000e+00 
          0.0000000000e+00 0.0000000000e+00 0.0000000000e+00 
          0.0000000000e+00 0.0000000000e+00 0.0000000000e+00 
          0.0000000000e+00 0.0000000000e+00 0.0000000000e+00 
          0.0000000000e+00 0.0000000000e+00 0.0000000000e+00 
          0.0000000000e+00 0.0000000000e+00 0.0000000000e+00 
          0.0000000000e+00 0.0000000000e+00 0.0000000000e+00 
        </DataArray>
      </PointData>
      <CellData>
        <DataArray type="Int64" Name="ElementTag" format="ascii">
          90
          91
          92
          93
          94
          95
          96
          97
          98
          99
          100
          101
          102
          103
          104
          105
          106
          107
          108
          109
          110
          111
          112
          113
          114
          115
          116
          117
          118
          119
          120
          121
          122
          123
          124
          125
          126
          127
          128
        </DataArray>
      </CellData>
    </Piece>
  </UnstructuredGrid>
</VTKFile>
