<?xml version="1.0"?>
<VTKFile type="UnstructuredGrid" version="1.0" byte_order="LittleEndian" compressor="vtkZLibDataCompressor">
  <UnstructuredGrid>
    <Piece NumberOfPoints="80" NumberOfCells="39">
      <Points>
        <DataArray type="Float64" Name="Points" NumberOfComponents="3" format="ascii">
          0.0000000000e+00 0.0000000000e+00 0.0000000000e+00 
          2.5000000000e-01 0.0000000000e+00 0.0000000000e+00 
          2.5000000000e-01 3.0000000000e+01 0.0000000000e+00 
          0.0000000000e+00 3.0000000000e+01 0.0000000000e+00 
          2.5000000000e-01 7.6923100000e-01 0.0000000000e+00 
          2.5000000000e-01 1.5384620000e+00 0.0000000000e+00 
          2.5000000000e-01 2.3076920000e+00 0.0000000000e+00 
          2.5000000000e-01 3.0769230000e+00 0.0000000000e+00 
          2.5000000000e-01 3.8461540000e+00 0.0000000000e+00 
          2.5000000000e-01 4.6153850000e+00 0.0000000000e+00 
          2.5000000000e-01 5.3846150000e+00 0.0000000000e+00 
          2.5000000000e-01 6.1538460000e+00 0.0000000000e+00 
          2.5000000000e-01 6.9230770000e+00 0.0000000000e+00 
          2.5000000000e-01 7.6923080000e+00 0.0000000000e+00 
          2.5000000000e-01 8.4615380000e+00 0.0000000000e+00 
          2.5000000000e-01 9.2307690000e+00 0.0000000000e+00 
          2.5000000000e-01 1.0000000000e+01 0.0000000000e+00 
          2.5000000000e-01 1.0769231000e+01 0.0000000000e+00 
          2.5000000000e-01 1.1538462000e+01 0.0000000000e+00 
          2.5000000000e-01 1.2307692000e+01 0.0000000000e+00 
          2.5000000000e-01 1.3076923000e+01 0.0000000000e+00 
          2.5000000000e-01 1.3846154000e+01 0.0000000000e+00 
          2.5000000000e-01 1.4615385000e+01 0.0000000000e+00 
          2.5000000000e-01 1.5384615000e+01 0.0000000000e+00 
          2.5000000000e-01 1.6153846000e+01 0.0000000000e+00 
          2.5000000000e-01 1.6923077000e+01 0.0000000000e+00 
          2.5000000000e-01 1.7692308000e+01 0.0000000000e+00 
          2.5000000000e-01 1.8461538000e+01 0.0000000000e+00 
          2.5000000000e-01 1.9230769000e+01 0.0000000000e+00 
          2.5000000000e-01 2.0000000000e+01 0.0000000000e+00 
          2.5000000000e-01 2.0769231000e+01 0.0000000000e+00 
          2.5000000000e-01 2.1538462000e+01 0.0000000000e+00 
          2.5000000000e-01 2.2307692000e+01 0.0000000000e+00 
          2.5000000000e-01 2.3076923000e+01 0.0000000000e+00 
          2.5000000000e-01 2.3846154000e+01 0.0000000000e+00 
          2.5000000000e-01 2.4615385000e+01 0.0000000000e+00 
          2.5000000000e-01 2.5384615000e+01 0.0000000000e+00 
          2.5000000000e-01 2.6153846000e+01 0.0000000000e+00 
          2.5000000000e-01 2.6923077000e+01 0.0000000000e+00 
          2.5000000000e-01 2.7692308000e+01 0.0000000000e+00 
          2.5000000000e-01 2.8461538000e+01 0.0000000000e+00 
          2.5000000000e-01 2.9230769000e+01 0.0000000000e+00 
          0.0000000000e+00 7.6923100000e-01 0.0000000000e+00 
          0.0000000000e+00 1.5384620000e+00 0.0000000000e+00 
          0.0000000000e+00 2.3076920000e+00 0.0000000000e+00 
          0.0000000000e+00 3.0769230000e+00 0.0000000000e+00 
          0.0000000000e+00 3.8461540000e+00 0.0000000000e+00 
          0.0000000000e+00 4.6153850000e+00 0.0000000000e+00 
          0.0000000000e+00 5.3846150000e+00 0.0000000000e+00 
          0.0000000000e+00 6.1538460000e+00 0.0000000000e+00 
          0.0000000000e+00 6.9230770000e+00 0.0000000000e+00 
          0.0000000000e+00 7.6923080000e+00 0.0000000000e+00 
          0.0000000000e+00 8.4615380000e+00 0.0000000000e+00 
          0.0000000000e+00 9.2307690000e+00 0.0000000000e+00 
          0.0000000000e+00 1.0000000000e+01 0.0000000000e+00 
          0.0000000000e+00 1.0769231000e+01 0.0000000000e+00 
          0.0000000000e+00 1.1538462000e+01 0.0000000000e+00 
          0.0000000000e+00 1.2307692000e+01 0.0000000000e+00 
          0.0000000000e+00 1.3076923000e+01 0.0000000000e+00 
          0.0000000000e+00 1.3846154000e+01 0.0000000000e+00 
          0.0000000000e+00 1.4615385000e+01 0.0000000000e+00 
          0.0000000000e+00 1.5384615000e+01 0.0000000000e+00 
          0.0000000000e+00 1.6153846000e+01 0.0000000000e+00 
          0.0000000000e+00 1.6923077000e+01 0.0000000000e+00 
          0.0000000000e+00 1.7692308000e+01 0.0000000000e+00 
          0.0000000000e+00 1.8461538000e+01 0.0000000000e+00 
          0.0000000000e+00 1.9230769000e+01 0.0000000000e+00 
          0.0000000000e+00 2.0000000000e+01 0.0000000000e+00 
          0.0000000000e+00 2.0769231000e+01 0.0000000000e+00 
          0.0000000000e+00 2.1538462000e+01 0.0000000000e+00 
          0.0000000000e+00 2.2307692000e+01 0.0000000000e+00 
          0.0000000000e+00 2.3076923000e+01 0.0000000000e+00 
          0.0000000000e+00 2.3846154000e+01 0.0000000000e+00 
          0.0000000000e+00 2.4615385000e+01 0.0000000000e+00 
          0.0000000000e+00 2.5384615000e+01 0.0000000000e+00 
          0.0000000000e+00 2.6153846000e+01 0.0000000000e+00 
          0.0000000000e+00 2.6923077000e+01 0.0000000000e+00 
          0.0000000000e+00 2.7692308000e+01 0.0000000000e+00 
          0.0000000000e+00 2.8461538000e+01 0.0000000000e+00 
          0.0000000000e+00 2.9230769000e+01 0.0000000000e+00 
        </DataArray>
      </Points>
      <Cells>
        <DataArray type="Int64" Name="connectivity" format="ascii">
          0 1 4 42 
          42 4 5 43 
          43 5 6 44 
          44 6 7 45 
          45 7 8 46 
          46 8 9 47 
          47 9 10 48 
          48 10 11 49 
          49 11 12 50 
          50 12 13 51 
          51 13 14 52 
          52 14 15 53 
          53 15 16 54 
          54 16 17 55 
          55 17 18 56 
          56 18 19 57 
          57 19 20 58 
          58 20 21 59 
          59 21 22 60 
          60 22 23 61 
          61 23 24 62 
          62 24 25 63 
          63 25 26 64 
          64 26 27 65 
          65 27 28 66 
          66 28 29 67 
          67 29 30 68 
          68 30 31 69 
          69 31 32 70 
          70 32 33 71 
          71 33 34 72 
          72 34 35 73 
          73 35 36 74 
          74 36 37 75 
          75 37 38 76 
          76 38 39 77 
          77 39 40 78 
          78 40 41 79 
          79 41 2 3 
        </DataArray>
        <DataArray type="Int64" Name="offsets" format="ascii">
          4
          8
          12
          16
          20
          24
          28
          32
          36
          40
          44
          48
          52
          56
          60
          64
          68
          72
          76
          80
          84
          88
          92
          96
          100
          104
          108
          112
          116
          120
          124
          128
          132
          136
          140
          144
          148
          152
          156
        </DataArray>
        <DataArray type="Int64" Name="types" format="ascii">
          9
          9
          9
          9
          9
          9
          9
          9
          9
          9
          9
          9
          9
          9
          9
          9
          9
          9
          9
          9
          9
          9
          9
          9
          9
          9
          9
          9
          9
          9
          9
          9
          9
          9
          9
          9
          9
          9
          9
        </DataArray>
      </Cells>
      <PointData>
        <DataArray type="Int64" Name="NodeTag" format="ascii">
          1
          2
          3
          4
          7
          8
          9
          10
          11
          12
          13
          14
          15
          16
          17
          18
          19
          20
          21
          22
          23
          24
          25
          26
          27
          28
          29
          30
          31
          32
          33
          34
          35
          36
          37
          38
          39
          40
          41
          42
          43
          44
          45
          46
          47
          48
          49
          50
          51
          52
          53
          54
          55
          56
          57
          58
          59
          60
          61
          62
          63
          64
          65
          66
          67
          68
          69
          70
          71
          72
          73
          74
          75
          76
          77
          78
          79
          80
          81
          82
        </DataArray>
        <DataArray type="Float64" Name="Velocity" NumberOfComponents="3" format="ascii">
          2.8754249510e-05 -7.7843875480e-05 0.0000000000e+00 
          2.8754249510e-05 -7.7843875480e-05 0.0000000000e+00 
          -1.8271990992e-03 -7.7774766214e-05 0.0000000000e+00 
          -1.8271990992e-03 -7.7774766214e-05 0.0000000000e+00 
          -4.7488216881e-05 -7.7814199903e-05 0.0000000000e+00 
          -1.2348944628e-04 -7.7870642843e-05 0.0000000000e+00 
          -1.9915444915e-04 -7.7831908006e-05 0.0000000000e+00 
          -2.7431945898e-04 -7.7824105628e-05 0.0000000000e+00 
          -3.4890141079e-04 -7.7880237031e-05 0.0000000000e+00 
          -4.2275439340e-04 -7.7814522448e-05 0.0000000000e+00 
          -4.9576663755e-04 -7.7836445437e-05 0.0000000000e+00 
          -5.6783101124e-04 -7.7889929215e-05 0.0000000000e+00 
          -6.3881166334e-04 -7.7789423200e-05 0.0000000000e+00 
          -7.0861677151e-04 -7.7879673707e-05 0.0000000000e+00 
          -7.7712159749e-04 -7.7858648843e-05 0.0000000000e+00 
          -8.4422543009e-04 -7.7797703611e-05 0.0000000000e+00 
          -9.0982738070e-04 -7.7885004774e-05 0.0000000000e+00 
          -9.7380831902e-04 -7.7853230109e-05 0.0000000000e+00 
          -1.0360940693e-03 -7.7797419826e-05 0.0000000000e+00 
          -1.0965700530e-03 -7.7914716785e-05 0.0000000000e+00 
          -1.1551533870e-03 -7.7788886421e-05 0.0000000000e+00 
          -1.2117552956e-03 -7.7878520442e-05 0.0000000000e+00 
          -1.2662848821e-03 -7.7833034175e-05 0.0000000000e+00 
          -1.3186762930e-03 -7.7858758891e-05 0.0000000000e+00 
          -1.3688326060e-03 -7.7848464874e-05 0.0000000000e+00 
          -1.4166966706e-03 -7.7816167326e-05 0.0000000000e+00 
          -1.4621935392e-03 -7.7886137823e-05 0.0000000000e+00 
          -1.5052522938e-03 -7.7834104552e-05 0.0000000000e+00 
          -1.5458262569e-03 -7.7824915167e-05 0.0000000000e+00 
          -1.5838415680e-03 -7.7874977179e-05 0.0000000000e+00 
          -1.6192572967e-03 -7.7834915323e-05 0.0000000000e+00 
          -1.6520185021e-03 -7.7843983884e-05 0.0000000000e+00 
          -1.6820780328e-03 -7.7856687717e-05 0.0000000000e+00 
          -1.7094071484e-03 -7.7816507711e-05 0.0000000000e+00 
          -1.7339484803e-03 -7.7897529472e-05 0.0000000000e+00 
          -1.7556866427e-03 -7.7783215301e-05 0.0000000000e+00 
          -1.7745825925e-03 -7.7900183683e-05 0.0000000000e+00 
          -1.7906155651e-03 -7.7812800239e-05 0.0000000000e+00 
          -1.8037639255e-03 -7.7856201177e-05 0.0000000000e+00 
          -1.8140047311e-03 -7.7866278171e-05 0.0000000000e+00 
          -1.8213311373e-03 -7.7801927310e-05 0.0000000000e+00 
          -1.8257316358e-03 -7.7911897672e-05 0.0000000000e+00 
          -4.7488216881e-05 -7.7814199903e-05 0.0000000000e+00 
          -1.2348944628e-04 -7.7870642843e-05 0.0000000000e+00 
          -1.9915444915e-04 -7.7831908006e-05 0.0000000000e+00 
          -2.7431945898e-04 -7.7824105628e-05 0.0000000000e+00 
          -3.4890141079e-04 -7.7880237031e-05 0.0000000000e+00 
          -4.2275439340e-04 -7.7814522448e-05 0.0000000000e+00 
          -4.9576663755e-04 -7.7836445437e-05 0.0000000000e+00 
          -5.6783101124e-04 -7.7889929215e-05 0.0000000000e+00 
          -6.3881166334e-04 -7.7789423200e-05 0.0000000000e+00 
          -7.0861677151e-04 -7.7879673707e-05 0.0000000000e+00 
          -7.7712159749e-04 -7.7858648843e-05 0.0000000000e+00 
          -8.4422543009e-04 -7.7797703611e-05 0.0000000000e+00 
          -9.0982738070e-04 -7.7885004774e-05 0.0000000000e+00 
          -9.7380831902e-04 -7.7853230109e-05 0.0000000000e+00 
          -1.0360940693e-03 -7.7797419826e-05 0.0000000000e+00 
          -1.0965700530e-03 -7.7914716785e-05 0.0000000000e+00 
          -1.1551533870e-03 -7.7788886421e-05 0.0000000000e+00 
          -1.2117552956e-03 -7.7878520442e-05 0.0000000000e+00 
          -1.2662848821e-03 -7.7833034175e-05 0.0000000000e+00 
          -1.3186762930e-03 -7.7858758891e-05 0.0000000000e+00 
          -1.3688326060e-03 -7.7848464874e-05 0.0000000000e+00 
          -1.4166966706e-03 -7.7816167326e-05 0.0000000000e+00 
          -1.4621935392e-03 -7.7886137823e-05 0.0000000000e+00 
          -1.5052522938e-03 -7.7834104552e-05 0.0000000000e+00 
          -1.5458262569e-03 -7.7824915167e-05 0.0000000000e+00 
          -1.5838415680e-03 -7.7874977179e-05 0.0000000000e+00 
          -1.6192572967e-03 -7.7834915323e-05 0.0000000000e+00 
          -1.6520185021e-03 -7.7843983884e-05 0.0000000000e+00 
          -1.6820780328e-03 -7.7856687717e-05 0.0000000000e+00 
          -1.7094071484e-03 -7.7816507711e-05 0.0000000000e+00 
          -1.7339484803e-03 -7.7897529472e-05 0.0000000000e+00 
          -1.7556866427e-03 -7.7783215301e-05 0.0000000000e+00 
          -1.7745825925e-03 -7.7900183683e-05 0.0000000000e+00 
          -1.7906155651e-03 -7.7812800239e-05 0.0000000000e+00 
          -1.8037639255e-03 -7.7856201177e-05 0.0000000000e+00 
          -1.8140047311e-03 -7.7866278171e-05 0.0000000000e+00 
          -1.8213311373e-03 -7.7801927310e-05 0.0000000000e+00 
          -1.8257316358e-03 -7.7911897672e-05 0.0000000000e+00 
        </DataArray>
        <DataArray type="Float64" Name="Displacement" NumberOfComponents="3" format="ascii">
          3.0195183460e-05 -4.5823673847e-04 0.0000000000e+00 
          3.0195183460e-05 -4.5823673847e-04 0.0000000000e+00 
          3.0455140223e-05 -4.8181572736e-04 0.0000000000e+00 
          3.0455140223e-05 -4.8181572736e-04 0.0000000000e+00 
          3.0647201440e-05 -4.5943046861e-04 0.0000000000e+00 
          3.1050058670e-05 -4.6059301782e-04 0.0000000000e+00 
          3.1405604632e-05 -4.6172480851e-04 0.0000000000e+00 
          3.1715838627e-05 -4.6282545103e-04 0.0000000000e+00 
          3.1982771778e-05 -4.6389504253e-04 0.0000000000e+00 
          3.2208473554e-05 -4.6493379112e-04 0.0000000000e+00 
          3.2395093501e-05 -4.6594138974e-04 0.0000000000e+00 
          3.2544799549e-05 -4.6691800301e-04 0.0000000000e+00 
          3.2659809252e-05 -4.6786373847e-04 0.0000000000e+00 
          3.2742368726e-05 -4.6877827374e-04 0.0000000000e+00 
          3.2794744244e-05 -4.6966196654e-04 0.0000000000e+00 
          3.2819214172e-05 -4.7051456531e-04 0.0000000000e+00 
          3.2818069301e-05 -4.7133620962e-04 0.0000000000e+00 
          3.2793607826e-05 -4.7212683343e-04 0.0000000000e+00 
          3.2748110347e-05 -4.7288640737e-04 0.0000000000e+00 
          3.2683825173e-05 -4.7361508712e-04 0.0000000000e+00 
          3.2603045051e-05 -4.7431263430e-04 0.0000000000e+00 
          3.2507947927e-05 -4.7497923017e-04 0.0000000000e+00 
          3.2400718103e-05 -4.7561491312e-04 0.0000000000e+00 
          3.2283522307e-05 -4.7621939027e-04 0.0000000000e+00 
          3.2158405600e-05 -4.7679301236e-04 0.0000000000e+00 
          3.2027426359e-05 -4.7733567169e-04 0.0000000000e+00 
          3.1892533070e-05 -4.7784710374e-04 0.0000000000e+00 
          3.1755605574e-05 -4.7832780636e-04 0.0000000000e+00 
          3.1618482255e-05 -4.7877724596e-04 0.0000000000e+00 
          3.1482864420e-05 -4.7919595260e-04 0.0000000000e+00 
          3.1350384823e-05 -4.7958339805e-04 0.0000000000e+00 
          3.1222609482e-05 -4.7993996738e-04 0.0000000000e+00 
          3.1100946244e-05 -4.8026557973e-04 0.0000000000e+00 
          3.0986731927e-05 -4.8056001536e-04 0.0000000000e+00 
          3.0881200281e-05 -4.8082366523e-04 0.0000000000e+00 
          3.0785424380e-05 -4.8105609069e-04 0.0000000000e+00 
          3.0700404744e-05 -4.8125772092e-04 0.0000000000e+00 
          3.0627012244e-05 -4.8142818016e-04 0.0000000000e+00 
          3.0565925445e-05 -4.8156772069e-04 0.0000000000e+00 
          3.0517814714e-05 -4.8167625415e-04 0.0000000000e+00 
          3.0483102338e-05 -4.8175372597e-04 0.0000000000e+00 
          3.0462124032e-05 -4.8180029596e-04 0.0000000000e+00 
          3.0647201440e-05 -4.5943046861e-04 0.0000000000e+00 
          3.1050058670e-05 -4.6059301782e-04 0.0000000000e+00 
          3.1405604632e-05 -4.6172480851e-04 0.0000000000e+00 
          3.1715838627e-05 -4.6282545103e-04 0.0000000000e+00 
          3.1982771778e-05 -4.6389504253e-04 0.0000000000e+00 
          3.2208473554e-05 -4.6493379112e-04 0.0000000000e+00 
          3.2395093501e-05 -4.6594138974e-04 0.0000000000e+00 
          3.2544799549e-05 -4.6691800301e-04 0.0000000000e+00 
          3.2659809252e-05 -4.6786373847e-04 0.0000000000e+00 
          3.2742368726e-05 -4.6877827374e-04 0.0000000000e+00 
          3.2794744244e-05 -4.6966196654e-04 0.0000000000e+00 
          3.2819214172e-05 -4.7051456531e-04 0.0000000000e+00 
          3.2818069301e-05 -4.7133620962e-04 0.0000000000e+00 
          3.2793607826e-05 -4.7212683343e-04 0.0000000000e+00 
          3.2748110347e-05 -4.7288640737e-04 0.0000000000e+00 
          3.2683825173e-05 -4.7361508712e-04 0.0000000000e+00 
          3.2603045051e-05 -4.7431263430e-04 0.0000000000e+00 
          3.2507947927e-05 -4.7497923017e-04 0.0000000000e+00 
          3.2400718103e-05 -4.7561491312e-04 0.0000000000e+00 
          3.2283522307e-05 -4.7621939027e-04 0.0000000000e+00 
          3.2158405600e-05 -4.7679301236e-04 0.0000000000e+00 
          3.2027426359e-05 -4.7733567169e-04 0.0000000000e+00 
          3.1892533070e-05 -4.7784710374e-04 0.0000000000e+00 
          3.1755605574e-05 -4.7832780636e-04 0.0000000000e+00 
          3.1618482255e-05 -4.7877724596e-04 0.0000000000e+00 
          3.1482864420e-05 -4.7919595260e-04 0.0000000000e+00 
          3.1350384823e-05 -4.7958339805e-04 0.0000000000e+00 
          3.1222609482e-05 -4.7993996738e-04 0.0000000000e+00 
          3.1100946244e-05 -4.8026557973e-04 0.0000000000e+00 
          3.0986731927e-05 -4.8056001536e-04 0.0000000000e+00 
          3.0881200281e-05 -4.8082366523e-04 0.0000000000e+00 
          3.0785424380e-05 -4.8105609069e-04 0.0000000000e+00 
          3.0700404744e-05 -4.8125772092e-04 0.0000000000e+00 
          3.0627012244e-05 -4.8142818016e-04 0.0000000000e+00 
          3.0565925445e-05 -4.8156772069e-04 0.0000000000e+00 
          3.0517814714e-05 -4.8167625415e-04 0.0000000000e+00 
          3.0483102338e-05 -4.8175372597e-04 0.0000000000e+00 
          3.0462124032e-05 -4.8180029596e-04 0.0000000000e+00 
        </DataArray>
        <DataArray type="Float64" Name="Acceleration" NumberOfComponents="3" format="ascii">
          -4.5943029853e-03 1.5373067738e-06 0.0000000000e+00 
          -4.5943029853e-03 1.5373067738e-06 0.0000000000e+00 
          1.2585100732e-03 -2.5864911803e-05 0.0000000000e+00 
          1.2585100732e-03 -2.5864911803e-05 0.0000000000e+00 
          -4.4294806416e-03 3.1464575319e-05 0.0000000000e+00 
          -4.2627998709e-03 -4.4920139069e-05 0.0000000000e+00 
          -4.0827419449e-03 2.5828247684e-05 0.0000000000e+00 
          -3.9014915440e-03 8.0530785965e-06 0.0000000000e+00 
          -3.7150282823e-03 -2.9451478267e-05 0.0000000000e+00 
          -3.5213304168e-03 2.5650281108e-05 0.0000000000e+00 
          -3.3260392611e-03 -3.5422649647e-06 0.0000000000e+00 
          -3.1262092103e-03 -2.3158718073e-05 0.0000000000e+00 
          -2.9238296762e-03 3.4931337266e-05 0.0000000000e+00 
          -2.7196297662e-03 -2.9732904099e-05 0.0000000000e+00 
          -2.5143564038e-03 1.6012011570e-05 0.0000000000e+00 
          -2.3079440336e-03 -9.3458920231e-06 0.0000000000e+00 
          -2.1008720782e-03 2.5509605396e-06 0.0000000000e+00 
          -1.8953855576e-03 7.8447814236e-06 0.0000000000e+00 
          -1.6928169386e-03 -2.0375977995e-05 0.0000000000e+00 
          -1.4862209227e-03 2.2921900958e-05 0.0000000000e+00 
          -1.2899900776e-03 -9.9176615141e-06 0.0000000000e+00 
          -1.0931803216e-03 -1.6832385054e-05 0.0000000000e+00 
          -8.9796797187e-04 3.5806091158e-05 0.0000000000e+00 
          -7.1367647392e-04 -2.7115895404e-05 0.0000000000e+00 
          -5.2822592863e-04 -7.8525934992e-06 0.0000000000e+00 
          -3.5266345160e-04 3.9815636899e-05 0.0000000000e+00 
          -1.8330221314e-04 -5.0010835495e-05 0.0000000000e+00 
          -1.7628028125e-05 4.6373495153e-05 0.0000000000e+00 
          1.3564711366e-04 -4.9264830885e-05 0.0000000000e+00 
          2.8276140812e-04 4.5925892878e-05 0.0000000000e+00 
          4.2386277636e-04 -2.3464325548e-05 0.0000000000e+00 
          5.5069863099e-04 -8.9682915184e-06 0.0000000000e+00 
          6.7117722757e-04 3.0784119354e-05 0.0000000000e+00 
          7.8232573425e-04 -3.9750454887e-05 0.0000000000e+00 
          8.7901191513e-04 3.9299929368e-05 0.0000000000e+00 
          9.6915143207e-04 -3.8087187043e-05 0.0000000000e+00 
          1.0476385305e-03 2.9721080714e-05 0.0000000000e+00 
          1.1087679432e-03 -1.5788206017e-05 0.0000000000e+00 
          1.1691693279e-03 1.2970016089e-07 0.0000000000e+00 
          1.2072150211e-03 9.9534291585e-06 0.0000000000e+00 
          1.2374717315e-03 -1.8811810788e-05 0.0000000000e+00 
          1.2609317149e-03 2.3831937221e-05 0.0000000000e+00 
          -4.4294806416e-03 3.1464575319e-05 0.0000000000e+00 
          -4.2627998709e-03 -4.4920139069e-05 0.0000000000e+00 
          -4.0827419449e-03 2.5828247684e-05 0.0000000000e+00 
          -3.9014915440e-03 8.0530785965e-06 0.0000000000e+00 
          -3.7150282823e-03 -2.9451478267e-05 0.0000000000e+00 
          -3.5213304168e-03 2.5650281108e-05 0.0000000000e+00 
          -3.3260392611e-03 -3.5422649647e-06 0.0000000000e+00 
          -3.1262092103e-03 -2.3158718073e-05 0.0000000000e+00 
          -2.9238296762e-03 3.4931337266e-05 0.0000000000e+00 
          -2.7196297662e-03 -2.9732904099e-05 0.0000000000e+00 
          -2.5143564038e-03 1.6012011570e-05 0.0000000000e+00 
          -2.3079440336e-03 -9.3458920231e-06 0.0000000000e+00 
          -2.1008720782e-03 2.5509605396e-06 0.0000000000e+00 
          -1.8953855576e-03 7.8447814236e-06 0.0000000000e+00 
          -1.6928169386e-03 -2.0375977995e-05 0.0000000000e+00 
          -1.4862209227e-03 2.2921900958e-05 0.0000000000e+00 
          -1.2899900776e-03 -9.9176615141e-06 0.0000000000e+00 
          -1.0931803216e-03 -1.6832385054e-05 0.0000000000e+00 
          -8.9796797187e-04 3.5806091158e-05 0.0000000000e+00 
          -7.1367647392e-04 -2.7115895404e-05 0.0000000000e+00 
          -5.2822592863e-04 -7.8525934992e-06 0.0000000000e+00 
          -3.5266345160e-04 3.9815636899e-05 0.0000000000e+00 
          -1.8330221314e-04 -5.0010835495e-05 0.0000000000e+00 
          -1.7628028125e-05 4.6373495153e-05 0.0000000000e+00 
          1.3564711366e-04 -4.9264830885e-05 0.0000000000e+00 
          2.8276140812e-04 4.5925892878e-05 0.0000000000e+00 
          4.2386277636e-04 -2.3464325548e-05 0.0000000000e+00 
          5.5069863099e-04 -8.9682915184e-06 0.0000000000e+00 
          6.7117722757e-04 3.0784119354e-05 0.0000000000e+00 
          7.8232573425e-04 -3.9750454887e-05 0.0000000000e+00 
          8.7901191513e-04 3.9299929368e-05 0.0000000000e+00 
          9.6915143207e-04 -3.8087187043e-05 0.0000000000e+00 
          1.0476385305e-03 2.9721080714e-05 0.0000000000e+00 
          1.1087679432e-03 -1.5788206017e-05 0.0000000000e+00 
          1.1691693279e-03 1.2970016089e-07 0.0000000000e+00 
          1.2072150211e-03 9.9534291585e-06 0.0000000000e+00 
          1.2374717315e-03 -1.8811810788e-05 0.0000000000e+00 
          1.2609317149e-03 2.3831937221e-05 0.0000000000e+00 
        </DataArray>
        <DataArray type="Float64" Name="Reaction" NumberOfComponents="3" format="ascii">
          0.0000000000e+00 0.0000000000e+00 0.0000000000e+00 
          0.0000000000e+00 0.0000000000e+00 0.0000000000e+00 
          0.0000000000e+00 0.0000000000e+00 0.0000000000e+00 
          0.0000000000e+00 0.0000000000e+00 0.0000000000e+00 
          0.0000000000e+00 0.0000000000e+00 0.0000000000e+00 
          0.0000000000e+00 0.0000000000e+00 0.0000000000e+00 
          0.0000000000e+00 0.0000000000e+00 0.0000000000e+00 
          0.0000000000e+00 0.0000000000e+00 0.0000000000e+00 
          0.0000000000e+00 0.0000000000e+00 0.0000000000e+00 
          0.0000000000e+00 0.0000000000e+00 0.0000000000e+00 
          0.0000000000e+00 0.0000000000e+00 0.0000000000e+00 
          0.0000000000e+00 0.0000000000e+00 0.0000000000e+00 
          0.0000000000e+00 0.0000000000e+00 0.0000000000e+00 
          0.0000000000e+00 0.0000000000e+00 0.0000000000e+00 
          0.0000000000e+00 0.0000000000e+00 0.0000000000e+00 
          0.0000000000e+00 0.0000000000e+00 0.0000000000e+00 
          0.0000000000e+00 0.0000000000e+00 0.0000000000e+00 
          0.0000000000e+00 0.0000000000e+00 0.0000000000e+00 
          0.0000000000e+00 0.0000000000e+00 0.0000000000e+00 
          0.0000000000e+00 0.0000000000e+00 0.0000000000e+00 
          0.0000000000e+00 0.0000000000e+00 0.0000000000e+00 
          0.0000000000e+00 0.0000000000e+00 0.0000000000e+00 
          0.0000000000e+00 0.0000000000e+00 0.0000000000e+00 
          0.0000000000e+00 0.0000000000e+00 0.0000000000e+00 
          0.0000000000e+00 0.0000000000e+00 0.0000000000e+00 
          0.0000000000e+00 0.0000000000e+00 0.0000000000e+00 
          0.0000000000e+00 0.0000000000e+00 0.0000000000e+00 
          0.0000000000e+00 0.0000000000e+00 0.0000000000e+00 
          0.0000000000e+00 0.0000000000e+00 0.0000000000e+00 
          0.0000000000e+00 0.0000000000e+00 0.0000000000e+00 
          0.0000000000e+00 0.0000000000e+00 0.0000000000e+00 
          0.0000000000e+00 0.0000000000e+00 0.0000000000e+00 
          0.0000000000e+00 0.0000000000e+00 0.0000000000e+00 
          0.0000000000e+00 0.0000000000e+00 0.0000000000e+00 
          0.0000000000e+00 0.0000000000e+00 0.0000000000e+00 
          0.0000000000e+00 0.0000000000e+00 0.0000000000e+00 
          0.0000000000e+00 0.0000000000e+00 0.0000000000e+00 
          0.0000000000e+00 0.0000000000e+00 0.0000000000e+00 
          0.0000000000e+00 0.0000000000e+00 0.0000000000e+00 
          0.0000000000e+00 0.0000000000e+00 0.0000000000e+00 
          0.0000000000e+00 0.0000000000e+00 0.0000000000e+00 
          0.0000000000e+00 0.0000000000e+00 0.0000000000e+00 
          0.0000000000e+00 0.0000000000e+00 0.0000000000e+00 
          0.0000000000e+00 0.0000000000e+00 0.0000000000e+00 
          0.0000000000e+00 0.0000000000e+00 0.0000000000e+00 
          0.0000000000e+00 0.0000000000e+00 0.0000000000e+00 
          0.0000000000e+00 0.0000000000e+00 0.0000000000e+00 
          0.0000000000e+00 0.0000000000e+00 0.0000000000e+00 
          0.0000000000e+00 0.0000000000e+00 0.0000000000e+00 
          0.0000000000e+00 0.0000000000e+00 0.0000000000e+00 
          0.0000000000e+00 0.0000000000e+00 0.0000000000e+00 
          0.0000000000e+00 0.0000000000e+00 0.0000000000e+00 
          0.0000000000e+00 0.0000000000e+00 0.0000000000e+00 
          0.0000000000e+00 0.0000000000e+00 0.0000000000e+00 
          0.0000000000e+00 0.0000000000e+00 0.0000000000e+00 
          0.0000000000e+00 0.0000000000e+00 0.0000000000e+00 
          0.0000000000e+00 0.0000000000e+00 0.0000000000e+00 
          0.0000000000e+00 0.0000000000e+00 0.0000000000e+00 
          0.0000000000e+00 0.0000000000e+00 0.0000000000e+00 
          0.0000000000e+00 0.0000000000e+00 0.0000000000e+00 
          0.0000000000e+00 0.0000000000e+00 0.0000000000e+00 
          0.0000000000e+00 0.0000000000e+00 0.0000000000e+00 
          0.0000000000e+00 0.0000000000e+00 0.0000000000e+00 
          0.0000000000e+00 0.0000000000e+00 0.0000000000e+00 
          0.0000000000e+00 0.0000000000e+00 0.0000000000e+00 
          0.0000000000e+00 0.0000000000e+00 0.0000000000e+00 
          0.0000000000e+00 0.0000000000e+00 0.0000000000e+00 
          0.0000000000e+00 0.0000000000e+00 0.0000000000e+00 
          0.0000000000e+00 0.0000000000e+00 0.0000000000e+00 
          0.0000000000e+00 0.0000000000e+00 0.0000000000e+00 
          0.0000000000e+00 0.0000000000e+00 0.0000000000e+00 
          0.0000000000e+00 0.0000000000e+00 0.0000000000e+00 
          0.0000000000e+00 0.0000000000e+00 0.0000000000e+00 
          0.0000000000e+00 0.0000000000e+00 0.0000000000e+00 
          0.0000000000e+00 0.0000000000e+00 0.0000000000e+00 
          0.0000000000e+00 0.0000000000e+00 0.0000000000e+00 
          0.0000000000e+00 0.0000000000e+00 0.0000000000e+00 
          0.0000000000e+00 0.0000000000e+00 0.0000000000e+00 
          0.0000000000e+00 0.0000000000e+00 0.0000000000e+00 
          0.0000000000e+00 0.0000000000e+00 0.0000000000e+00 
        </DataArray>
      </PointData>
      <CellData>
        <DataArray type="Int64" Name="ElementTag" format="ascii">
          90
          91
          92
          93
          94
          95
          96
          97
          98
          99
          100
          101
          102
          103
          104
          105
          106
          107
          108
          109
          110
          111
          112
          113
          114
          115
          116
          117
          118
          119
          120
          121
          122
          123
          124
          125
          126
          127
          128
        </DataArray>
      </CellData>
    </Piece>
  </UnstructuredGrid>
</VTKFile>
