<?xml version="1.0"?>
<VTKFile type="UnstructuredGrid" version="1.0" byte_order="LittleEndian" compressor="vtkZLibDataCompressor">
  <UnstructuredGrid>
    <Piece NumberOfPoints="82" NumberOfCells="1">
      <Points>
        <DataArray type="Float64" Name="Points" NumberOfComponents="3" format="ascii">
          0.0000000000e+00 0.0000000000e+00 0.0000000000e+00 
          2.5000000000e-01 0.0000000000e+00 0.0000000000e+00 
          2.5000000000e-01 3.0000000000e+01 0.0000000000e+00 
          0.0000000000e+00 3.0000000000e+01 0.0000000000e+00 
          0.0000000000e+00 -5.0000000000e+00 0.0000000000e+00 
          2.5000000000e-01 -5.0000000000e+00 0.0000000000e+00 
          2.5000000000e-01 7.6923100000e-01 0.0000000000e+00 
          2.5000000000e-01 1.5384620000e+00 0.0000000000e+00 
          2.5000000000e-01 2.3076920000e+00 0.0000000000e+00 
          2.5000000000e-01 3.0769230000e+00 0.0000000000e+00 
          2.5000000000e-01 3.8461540000e+00 0.0000000000e+00 
          2.5000000000e-01 4.6153850000e+00 0.0000000000e+00 
          2.5000000000e-01 5.3846150000e+00 0.0000000000e+00 
          2.5000000000e-01 6.1538460000e+00 0.0000000000e+00 
          2.5000000000e-01 6.9230770000e+00 0.0000000000e+00 
          2.5000000000e-01 7.6923080000e+00 0.0000000000e+00 
          2.5000000000e-01 8.4615380000e+00 0.0000000000e+00 
          2.5000000000e-01 9.2307690000e+00 0.0000000000e+00 
          2.5000000000e-01 1.0000000000e+01 0.0000000000e+00 
          2.5000000000e-01 1.0769231000e+01 0.0000000000e+00 
          2.5000000000e-01 1.1538462000e+01 0.0000000000e+00 
          2.5000000000e-01 1.2307692000e+01 0.0000000000e+00 
          2.5000000000e-01 1.3076923000e+01 0.0000000000e+00 
          2.5000000000e-01 1.3846154000e+01 0.0000000000e+00 
          2.5000000000e-01 1.4615385000e+01 0.0000000000e+00 
          2.5000000000e-01 1.5384615000e+01 0.0000000000e+00 
          2.5000000000e-01 1.6153846000e+01 0.0000000000e+00 
          2.5000000000e-01 1.6923077000e+01 0.0000000000e+00 
          2.5000000000e-01 1.7692308000e+01 0.0000000000e+00 
          2.5000000000e-01 1.8461538000e+01 0.0000000000e+00 
          2.5000000000e-01 1.9230769000e+01 0.0000000000e+00 
          2.5000000000e-01 2.0000000000e+01 0.0000000000e+00 
          2.5000000000e-01 2.0769231000e+01 0.0000000000e+00 
          2.5000000000e-01 2.1538462000e+01 0.0000000000e+00 
          2.5000000000e-01 2.2307692000e+01 0.0000000000e+00 
          2.5000000000e-01 2.3076923000e+01 0.0000000000e+00 
          2.5000000000e-01 2.3846154000e+01 0.0000000000e+00 
          2.5000000000e-01 2.4615385000e+01 0.0000000000e+00 
          2.5000000000e-01 2.5384615000e+01 0.0000000000e+00 
          2.5000000000e-01 2.6153846000e+01 0.0000000000e+00 
          2.5000000000e-01 2.6923077000e+01 0.0000000000e+00 
          2.5000000000e-01 2.7692308000e+01 0.0000000000e+00 
          2.5000000000e-01 2.8461538000e+01 0.0000000000e+00 
          2.5000000000e-01 2.9230769000e+01 0.0000000000e+00 
          0.0000000000e+00 7.6923100000e-01 0.0000000000e+00 
          0.0000000000e+00 1.5384620000e+00 0.0000000000e+00 
          0.0000000000e+00 2.3076920000e+00 0.0000000000e+00 
          0.0000000000e+00 3.0769230000e+00 0.0000000000e+00 
          0.0000000000e+00 3.8461540000e+00 0.0000000000e+00 
          0.0000000000e+00 4.6153850000e+00 0.0000000000e+00 
          0.0000000000e+00 5.3846150000e+00 0.0000000000e+00 
          0.0000000000e+00 6.1538460000e+00 0.0000000000e+00 
          0.0000000000e+00 6.9230770000e+00 0.0000000000e+00 
          0.0000000000e+00 7.6923080000e+00 0.0000000000e+00 
          0.0000000000e+00 8.4615380000e+00 0.0000000000e+00 
          0.0000000000e+00 9.2307690000e+00 0.0000000000e+00 
          0.0000000000e+00 1.0000000000e+01 0.0000000000e+00 
          0.0000000000e+00 1.0769231000e+01 0.0000000000e+00 
          0.0000000000e+00 1.1538462000e+01 0.0000000000e+00 
          0.0000000000e+00 1.2307692000e+01 0.0000000000e+00 
          0.0000000000e+00 1.3076923000e+01 0.0000000000e+00 
          0.0000000000e+00 1.3846154000e+01 0.0000000000e+00 
          0.0000000000e+00 1.4615385000e+01 0.0000000000e+00 
          0.0000000000e+00 1.5384615000e+01 0.0000000000e+00 
          0.0000000000e+00 1.6153846000e+01 0.0000000000e+00 
          0.0000000000e+00 1.6923077000e+01 0.0000000000e+00 
          0.0000000000e+00 1.7692308000e+01 0.0000000000e+00 
          0.0000000000e+00 1.8461538000e+01 0.0000000000e+00 
          0.0000000000e+00 1.9230769000e+01 0.0000000000e+00 
          0.0000000000e+00 2.0000000000e+01 0.0000000000e+00 
          0.0000000000e+00 2.0769231000e+01 0.0000000000e+00 
          0.0000000000e+00 2.1538462000e+01 0.0000000000e+00 
          0.0000000000e+00 2.2307692000e+01 0.0000000000e+00 
          0.0000000000e+00 2.3076923000e+01 0.0000000000e+00 
          0.0000000000e+00 2.3846154000e+01 0.0000000000e+00 
          0.0000000000e+00 2.4615385000e+01 0.0000000000e+00 
          0.0000000000e+00 2.5384615000e+01 0.0000000000e+00 
          0.0000000000e+00 2.6153846000e+01 0.0000000000e+00 
          0.0000000000e+00 2.6923077000e+01 0.0000000000e+00 
          0.0000000000e+00 2.7692308000e+01 0.0000000000e+00 
          0.0000000000e+00 2.8461538000e+01 0.0000000000e+00 
          0.0000000000e+00 2.9230769000e+01 0.0000000000e+00 
        </DataArray>
      </Points>
      <Cells>
        <DataArray type="Int64" Name="connectivity" format="ascii">
          0
          1
          2
          3
          4
          5
          6
          7
          8
          9
          10
          11
          12
          13
          14
          15
          16
          17
          18
          19
          20
          21
          22
          23
          24
          25
          26
          27
          28
          29
          30
          31
          32
          33
          34
          35
          36
          37
          38
          39
          40
          41
          42
          43
          44
          45
          46
          47
          48
          49
          50
          51
          52
          53
          54
          55
          56
          57
          58
          59
          60
          61
          62
          63
          64
          65
          66
          67
          68
          69
          70
          71
          72
          73
          74
          75
          76
          77
          78
          79
          80
          81
        </DataArray>
        <DataArray type="Int64" Name="offsets" format="ascii">
          82
        </DataArray>
        <DataArray type="Int64" Name="types" format="ascii">
          2
        </DataArray>
      </Cells>
      <PointData>
        <DataArray type="Int64" Name="NodeTag" format="ascii">
          1
          2
          3
          4
          5
          6
          7
          8
          9
          10
          11
          12
          13
          14
          15
          16
          17
          18
          19
          20
          21
          22
          23
          24
          25
          26
          27
          28
          29
          30
          31
          32
          33
          34
          35
          36
          37
          38
          39
          40
          41
          42
          43
          44
          45
          46
          47
          48
          49
          50
          51
          52
          53
          54
          55
          56
          57
          58
          59
          60
          61
          62
          63
          64
          65
          66
          67
          68
          69
          70
          71
          72
          73
          74
          75
          76
          77
          78
          79
          80
          81
          82
        </DataArray>
        <DataArray type="Float64" Name="Velocity" NumberOfComponents="3" format="ascii">
          -3.4066297151e-07 -7.7844464656e-05 0.0000000000e+00 
          -3.4066297151e-07 -7.7844464656e-05 0.0000000000e+00 
          9.2593889892e-06 -7.7880689639e-05 0.0000000000e+00 
          9.2593889892e-06 -7.7880689639e-05 0.0000000000e+00 
          0.0000000000e+00 0.0000000000e+00 0.0000000000e+00 
          0.0000000000e+00 0.0000000000e+00 0.0000000000e+00 
          5.2121979466e-08 -7.7869286493e-05 0.0000000000e+00 
          4.3711944329e-07 -7.7801339946e-05 0.0000000000e+00 
          8.3136184536e-07 -7.7894551863e-05 0.0000000000e+00 
          1.2140929841e-06 -7.7798994099e-05 0.0000000000e+00 
          1.5970170859e-06 -7.7878438516e-05 0.0000000000e+00 
          1.9822850759e-06 -7.7823625343e-05 0.0000000000e+00 
          2.3505767684e-06 -7.7852514498e-05 0.0000000000e+00 
          2.7294331176e-06 -7.7849037328e-05 0.0000000000e+00 
          3.0911875968e-06 -7.7830154195e-05 0.0000000000e+00 
          3.4517754800e-06 -7.7859963750e-05 0.0000000000e+00 
          3.8086236000e-06 -7.7839127952e-05 0.0000000000e+00 
          4.1513067520e-06 -7.7835458452e-05 0.0000000000e+00 
          4.4940217924e-06 -7.7859315752e-05 0.0000000000e+00 
          4.8227829947e-06 -7.7839182675e-05 0.0000000000e+00 
          5.1474947505e-06 -7.7830490432e-05 0.0000000000e+00 
          5.4583881761e-06 -7.7876321404e-05 0.0000000000e+00 
          5.7642544521e-06 -7.7803671335e-05 0.0000000000e+00 
          6.0571997275e-06 -7.7886080407e-05 0.0000000000e+00 
          6.3388907576e-06 -7.7806994957e-05 0.0000000000e+00 
          6.6141198554e-06 -7.7874410570e-05 0.0000000000e+00 
          6.8708673608e-06 -7.7826996538e-05 0.0000000000e+00 
          7.1225732129e-06 -7.7845835613e-05 0.0000000000e+00 
          7.3587055338e-06 -7.7858793433e-05 0.0000000000e+00 
          7.5807425976e-06 -7.7820318815e-05 0.0000000000e+00 
          7.7953960799e-06 -7.7871275453e-05 0.0000000000e+00 
          7.9899796159e-06 -7.7821676659e-05 0.0000000000e+00 
          8.1766763999e-06 -7.7858556362e-05 0.0000000000e+00 
          8.3469847873e-06 -7.7843245979e-05 0.0000000000e+00 
          8.5023448689e-06 -7.7830666558e-05 0.0000000000e+00 
          8.6476308276e-06 -7.7872705308e-05 0.0000000000e+00 
          8.7723210451e-06 -7.7808790842e-05 0.0000000000e+00 
          8.8881615837e-06 -7.7875650967e-05 0.0000000000e+00 
          8.9865943276e-06 -7.7830541437e-05 0.0000000000e+00 
          9.0682055760e-06 -7.7835733886e-05 0.0000000000e+00 
          9.1398464212e-06 -7.7872535095e-05 0.0000000000e+00 
          9.1909874076e-06 -7.7806695546e-05 0.0000000000e+00 
          9.2299221215e-06 -7.7883882722e-05 0.0000000000e+00 
          9.2540310189e-06 -7.7807238667e-05 0.0000000000e+00 
          5.2121979466e-08 -7.7869286493e-05 0.0000000000e+00 
          4.3711944329e-07 -7.7801339946e-05 0.0000000000e+00 
          8.3136184536e-07 -7.7894551863e-05 0.0000000000e+00 
          1.2140929841e-06 -7.7798994099e-05 0.0000000000e+00 
          1.5970170859e-06 -7.7878438516e-05 0.0000000000e+00 
          1.9822850759e-06 -7.7823625343e-05 0.0000000000e+00 
          2.3505767684e-06 -7.7852514498e-05 0.0000000000e+00 
          2.7294331176e-06 -7.7849037328e-05 0.0000000000e+00 
          3.0911875968e-06 -7.7830154195e-05 0.0000000000e+00 
          3.4517754800e-06 -7.7859963750e-05 0.0000000000e+00 
          3.8086236000e-06 -7.7839127952e-05 0.0000000000e+00 
          4.1513067520e-06 -7.7835458452e-05 0.0000000000e+00 
          4.4940217924e-06 -7.7859315752e-05 0.0000000000e+00 
          4.8227829947e-06 -7.7839182675e-05 0.0000000000e+00 
          5.1474947505e-06 -7.7830490432e-05 0.0000000000e+00 
          5.4583881761e-06 -7.7876321404e-05 0.0000000000e+00 
          5.7642544521e-06 -7.7803671335e-05 0.0000000000e+00 
          6.0571997275e-06 -7.7886080407e-05 0.0000000000e+00 
          6.3388907576e-06 -7.7806994957e-05 0.0000000000e+00 
          6.6141198554e-06 -7.7874410570e-05 0.0000000000e+00 
          6.8708673608e-06 -7.7826996538e-05 0.0000000000e+00 
          7.1225732129e-06 -7.7845835613e-05 0.0000000000e+00 
          7.3587055338e-06 -7.7858793433e-05 0.0000000000e+00 
          7.5807425976e-06 -7.7820318815e-05 0.0000000000e+00 
          7.7953960799e-06 -7.7871275453e-05 0.0000000000e+00 
          7.9899796159e-06 -7.7821676659e-05 0.0000000000e+00 
          8.1766763999e-06 -7.7858556362e-05 0.0000000000e+00 
          8.3469847873e-06 -7.7843245979e-05 0.0000000000e+00 
          8.5023448689e-06 -7.7830666558e-05 0.0000000000e+00 
          8.6476308276e-06 -7.7872705308e-05 0.0000000000e+00 
          8.7723210451e-06 -7.7808790842e-05 0.0000000000e+00 
          8.8881615837e-06 -7.7875650967e-05 0.0000000000e+00 
          8.9865943276e-06 -7.7830541437e-05 0.0000000000e+00 
          9.0682055760e-06 -7.7835733886e-05 0.0000000000e+00 
          9.1398464212e-06 -7.7872535095e-05 0.0000000000e+00 
          9.1909874076e-06 -7.7806695546e-05 0.0000000000e+00 
          9.2299221215e-06 -7.7883882722e-05 0.0000000000e+00 
          9.2540310189e-06 -7.7807238667e-05 0.0000000000e+00 
        </DataArray>
        <DataArray type="Float64" Name="Displacement" NumberOfComponents="3" format="ascii">
          -1.5088949184e-07 -7.2057260476e-04 0.0000000000e+00 
          -1.5088949184e-07 -7.2057260476e-04 0.0000000000e+00 
          -2.3126602610e-07 -7.4415294864e-04 0.0000000000e+00 
          -2.3126602610e-07 -7.4415294864e-04 0.0000000000e+00 
          0.0000000000e+00 0.0000000000e+00 0.0000000000e+00 
          0.0000000000e+00 0.0000000000e+00 0.0000000000e+00 
          -1.5641546021e-07 -7.2176635276e-04 0.0000000000e+00 
          -1.6168780402e-07 -7.2292908588e-04 0.0000000000e+00 
          -1.6670112831e-07 -7.2406082106e-04 0.0000000000e+00 
          -1.7147181288e-07 -7.2516153442e-04 0.0000000000e+00 
          -1.7599432221e-07 -7.2623126899e-04 0.0000000000e+00 
          -1.8027959271e-07 -7.2726997101e-04 0.0000000000e+00 
          -1.8433488806e-07 -7.2827765951e-04 0.0000000000e+00 
          -1.8815610195e-07 -7.2925441259e-04 0.0000000000e+00 
          -1.9176830149e-07 -7.3020002242e-04 0.0000000000e+00 
          -1.9515172789e-07 -7.3111479070e-04 0.0000000000e+00 
          -1.9834291137e-07 -7.3199842677e-04 0.0000000000e+00 
          -2.0132013136e-07 -7.3285108381e-04 0.0000000000e+00 
          -2.0411381030e-07 -7.3367282022e-04 0.0000000000e+00 
          -2.0671606551e-07 -7.3446339468e-04 0.0000000000e+00 
          -2.0913889971e-07 -7.3522311821e-04 0.0000000000e+00 
          -2.1139547004e-07 -7.3595172819e-04 0.0000000000e+00 
          -2.1347938815e-07 -7.3664939365e-04 0.0000000000e+00 
          -2.1541607199e-07 -7.3731599575e-04 0.0000000000e+00 
          -2.1719437899e-07 -7.3795168307e-04 0.0000000000e+00 
          -2.1883727900e-07 -7.3855623110e-04 0.0000000000e+00 
          -2.2034312635e-07 -7.3912991647e-04 0.0000000000e+00 
          -2.2171771904e-07 -7.3967249329e-04 0.0000000000e+00 
          -2.2298053763e-07 -7.4018408007e-04 0.0000000000e+00 
          -2.2411780184e-07 -7.4066474096e-04 0.0000000000e+00 
          -2.2515734387e-07 -7.4111424560e-04 0.0000000000e+00 
          -2.2609241775e-07 -7.4153291724e-04 0.0000000000e+00 
          -2.2692760151e-07 -7.4192042908e-04 0.0000000000e+00 
          -2.2768429462e-07 -7.4227703755e-04 0.0000000000e+00 
          -2.2834424383e-07 -7.4260260443e-04 0.0000000000e+00 
          -2.2893415065e-07 -7.4289713230e-04 0.0000000000e+00 
          -2.2944806445e-07 -7.4316073599e-04 0.0000000000e+00 
          -2.2988503668e-07 -7.4339323174e-04 0.0000000000e+00 
          -2.3026594784e-07 -7.4359480942e-04 0.0000000000e+00 
          -2.3057469741e-07 -7.4376533724e-04 0.0000000000e+00 
          -2.3082603070e-07 -7.4390483913e-04 0.0000000000e+00 
          -2.3102166837e-07 -7.4401340316e-04 0.0000000000e+00 
          -2.3115548117e-07 -7.4409089651e-04 0.0000000000e+00 
          -2.3123795902e-07 -7.4413738194e-04 0.0000000000e+00 
          -1.5641546021e-07 -7.2176635276e-04 0.0000000000e+00 
          -1.6168780402e-07 -7.2292908588e-04 0.0000000000e+00 
          -1.6670112831e-07 -7.2406082106e-04 0.0000000000e+00 
          -1.7147181288e-07 -7.2516153442e-04 0.0000000000e+00 
          -1.7599432221e-07 -7.2623126899e-04 0.0000000000e+00 
          -1.8027959271e-07 -7.2726997101e-04 0.0000000000e+00 
          -1.8433488806e-07 -7.2827765951e-04 0.0000000000e+00 
          -1.8815610195e-07 -7.2925441259e-04 0.0000000000e+00 
          -1.9176830149e-07 -7.3020002242e-04 0.0000000000e+00 
          -1.9515172789e-07 -7.3111479070e-04 0.0000000000e+00 
          -1.9834291137e-07 -7.3199842677e-04 0.0000000000e+00 
          -2.0132013136e-07 -7.3285108381e-04 0.0000000000e+00 
          -2.0411381030e-07 -7.3367282022e-04 0.0000000000e+00 
          -2.0671606551e-07 -7.3446339468e-04 0.0000000000e+00 
          -2.0913889971e-07 -7.3522311821e-04 0.0000000000e+00 
          -2.1139547004e-07 -7.3595172819e-04 0.0000000000e+00 
          -2.1347938815e-07 -7.3664939365e-04 0.0000000000e+00 
          -2.1541607199e-07 -7.3731599575e-04 0.0000000000e+00 
          -2.1719437899e-07 -7.3795168307e-04 0.0000000000e+00 
          -2.1883727900e-07 -7.3855623110e-04 0.0000000000e+00 
          -2.2034312635e-07 -7.3912991647e-04 0.0000000000e+00 
          -2.2171771904e-07 -7.3967249329e-04 0.0000000000e+00 
          -2.2298053763e-07 -7.4018408007e-04 0.0000000000e+00 
          -2.2411780184e-07 -7.4066474096e-04 0.0000000000e+00 
          -2.2515734387e-07 -7.4111424560e-04 0.0000000000e+00 
          -2.2609241775e-07 -7.4153291724e-04 0.0000000000e+00 
          -2.2692760151e-07 -7.4192042908e-04 0.0000000000e+00 
          -2.2768429462e-07 -7.4227703755e-04 0.0000000000e+00 
          -2.2834424383e-07 -7.4260260443e-04 0.0000000000e+00 
          -2.2893415065e-07 -7.4289713230e-04 0.0000000000e+00 
          -2.2944806445e-07 -7.4316073599e-04 0.0000000000e+00 
          -2.2988503668e-07 -7.4339323174e-04 0.0000000000e+00 
          -2.3026594784e-07 -7.4359480942e-04 0.0000000000e+00 
          -2.3057469741e-07 -7.4376533724e-04 0.0000000000e+00 
          -2.3082603070e-07 -7.4390483913e-04 0.0000000000e+00 
          -2.3102166837e-07 -7.4401340316e-04 0.0000000000e+00 
          -2.3115548117e-07 -7.4409089651e-04 0.0000000000e+00 
          -2.3123795902e-07 -7.4413738194e-04 0.0000000000e+00 
        </DataArray>
        <DataArray type="Float64" Name="Acceleration" NumberOfComponents="3" format="ascii">
          2.3663854194e-05 -1.5995951147e-06 0.0000000000e+00 
          2.3663854194e-05 -1.5995951147e-06 0.0000000000e+00 
          5.0577984220e-06 2.2897062201e-05 0.0000000000e+00 
          5.0577984220e-06 2.2897062201e-05 0.0000000000e+00 
          0.0000000000e+00 0.0000000000e+00 0.0000000000e+00 
          0.0000000000e+00 0.0000000000e+00 0.0000000000e+00 
          2.2852072397e-05 1.5401805210e-06 0.0000000000e+00 
          2.3337599433e-05 -1.7737063550e-06 0.0000000000e+00 
          2.1862919157e-05 3.0576301205e-06 0.0000000000e+00 
          2.2361078930e-05 -4.9624278069e-06 0.0000000000e+00 
          2.1375687532e-05 4.7209798386e-06 0.0000000000e+00 
          2.0720753171e-05 1.0636480553e-06 0.0000000000e+00 
          2.1091691064e-05 -1.2539904000e-05 0.0000000000e+00 
          1.8832604621e-05 2.4673222078e-05 0.0000000000e+00 
          2.0612912673e-05 -2.9696776100e-05 0.0000000000e+00 
          1.7321104121e-05 2.2480670832e-05 0.0000000000e+00 
          1.9278918887e-05 -4.7104307938e-06 0.0000000000e+00 
          1.6537411323e-05 -1.5446184125e-05 0.0000000000e+00 
          1.7247656686e-05 2.8044188547e-05 0.0000000000e+00 
          1.6166186247e-05 -2.8006276203e-05 0.0000000000e+00 
          1.4980448768e-05 1.9152505126e-05 0.0000000000e+00 
          1.5556580682e-05 -1.0963697930e-05 0.0000000000e+00 
          1.3266099144e-05 1.0275295982e-05 0.0000000000e+00 
          1.4270064619e-05 -1.6499613593e-05 0.0000000000e+00 
          1.2200253477e-05 2.3820666045e-05 0.0000000000e+00 
          1.2348916078e-05 -2.5745203118e-05 0.0000000000e+00 
          1.1826303677e-05 1.8418632846e-05 0.0000000000e+00 
          1.0071067549e-05 -2.9368449636e-06 0.0000000000e+00 
          1.1312570599e-05 -1.4604160306e-05 0.0000000000e+00 
          8.8051018828e-06 2.7129033583e-05 0.0000000000e+00 
          9.4127856751e-06 -3.1235198808e-05 0.0000000000e+00 
          9.0002966338e-06 2.7654014089e-05 0.0000000000e+00 
          7.0721635358e-06 -1.8553598899e-05 0.0000000000e+00 
          8.7167444564e-06 6.2786746038e-06 0.0000000000e+00 
          6.3110390210e-06 5.9691092302e-06 0.0000000000e+00 
          6.8471217059e-06 -1.4806238013e-05 0.0000000000e+00 
          6.9325862561e-06 1.8309604212e-05 0.0000000000e+00 
          5.0511723035e-06 -1.5948967141e-05 0.0000000000e+00 
          6.5019509875e-06 7.8929190268e-06 0.0000000000e+00 
          5.1733200546e-06 3.5305789454e-06 0.0000000000e+00 
          5.0182855947e-06 -1.2338552473e-05 0.0000000000e+00 
          5.5705302211e-06 1.1578676502e-05 0.0000000000e+00 
          4.6253992144e-06 3.0813443525e-07 0.0000000000e+00 
          4.9025180863e-06 -1.5787169745e-05 0.0000000000e+00 
          2.2852072397e-05 1.5401805210e-06 0.0000000000e+00 
          2.3337599433e-05 -1.7737063550e-06 0.0000000000e+00 
          2.1862919157e-05 3.0576301205e-06 0.0000000000e+00 
          2.2361078930e-05 -4.9624278069e-06 0.0000000000e+00 
          2.1375687532e-05 4.7209798386e-06 0.0000000000e+00 
          2.0720753171e-05 1.0636480553e-06 0.0000000000e+00 
          2.1091691064e-05 -1.2539904000e-05 0.0000000000e+00 
          1.8832604621e-05 2.4673222078e-05 0.0000000000e+00 
          2.0612912673e-05 -2.9696776100e-05 0.0000000000e+00 
          1.7321104121e-05 2.2480670832e-05 0.0000000000e+00 
          1.9278918887e-05 -4.7104307938e-06 0.0000000000e+00 
          1.6537411323e-05 -1.5446184125e-05 0.0000000000e+00 
          1.7247656686e-05 2.8044188547e-05 0.0000000000e+00 
          1.6166186247e-05 -2.8006276203e-05 0.0000000000e+00 
          1.4980448768e-05 1.9152505126e-05 0.0000000000e+00 
          1.5556580682e-05 -1.0963697930e-05 0.0000000000e+00 
          1.3266099144e-05 1.0275295982e-05 0.0000000000e+00 
          1.4270064619e-05 -1.6499613593e-05 0.0000000000e+00 
          1.2200253477e-05 2.3820666045e-05 0.0000000000e+00 
          1.2348916078e-05 -2.5745203118e-05 0.0000000000e+00 
          1.1826303677e-05 1.8418632846e-05 0.0000000000e+00 
          1.0071067549e-05 -2.9368449636e-06 0.0000000000e+00 
          1.1312570599e-05 -1.4604160306e-05 0.0000000000e+00 
          8.8051018828e-06 2.7129033583e-05 0.0000000000e+00 
          9.4127856751e-06 -3.1235198808e-05 0.0000000000e+00 
          9.0002966338e-06 2.7654014089e-05 0.0000000000e+00 
          7.0721635358e-06 -1.8553598899e-05 0.0000000000e+00 
          8.7167444564e-06 6.2786746038e-06 0.0000000000e+00 
          6.3110390210e-06 5.9691092302e-06 0.0000000000e+00 
          6.8471217059e-06 -1.4806238013e-05 0.0000000000e+00 
          6.9325862561e-06 1.8309604212e-05 0.0000000000e+00 
          5.0511723035e-06 -1.5948967141e-05 0.0000000000e+00 
          6.5019509875e-06 7.8929190268e-06 0.0000000000e+00 
          5.1733200546e-06 3.5305789454e-06 0.0000000000e+00 
          5.0182855947e-06 -1.2338552473e-05 0.0000000000e+00 
          5.5705302211e-06 1.1578676502e-05 0.0000000000e+00 
          4.6253992144e-06 3.0813443525e-07 0.0000000000e+00 
          4.9025180863e-06 -1.5787169745e-05 0.0000000000e+00 
        </DataArray>
        <DataArray type="Float64" Name="Reaction" NumberOfComponents="3" format="ascii">
          0.0000000000e+00 0.0000000000e+00 0.0000000000e+00 
          0.0000000000e+00 0.0000000000e+00 0.0000000000e+00 
          0.0000000000e+00 0.0000000000e+00 0.0000000000e+00 
          0.0000000000e+00 0.0000000000e+00 0.0000000000e+00 
          0.0000000000e+00 0.0000000000e+00 0.0000000000e+00 
          0.0000000000e+00 0.0000000000e+00 0.0000000000e+00 
          0.0000000000e+00 0.0000000000e+00 0.0000000000e+00 
          0.0000000000e+00 0.0000000000e+00 0.0000000000e+00 
          0.0000000000e+00 0.0000000000e+00 0.0000000000e+00 
          0.0000000000e+00 0.0000000000e+00 0.0000000000e+00 
          0.0000000000e+00 0.0000000000e+00 0.0000000000e+00 
          0.0000000000e+00 0.0000000000e+00 0.0000000000e+00 
          0.0000000000e+00 0.0000000000e+00 0.0000000000e+00 
          0.0000000000e+00 0.0000000000e+00 0.0000000000e+00 
          0.0000000000e+00 0.0000000000e+00 0.0000000000e+00 
          0.0000000000e+00 0.0000000000e+00 0.0000000000e+00 
          0.0000000000e+00 0.0000000000e+00 0.0000000000e+00 
          0.0000000000e+00 0.0000000000e+00 0.0000000000e+00 
          0.0000000000e+00 0.0000000000e+00 0.0000000000e+00 
          0.0000000000e+00 0.0000000000e+00 0.0000000000e+00 
          0.0000000000e+00 0.0000000000e+00 0.0000000000e+00 
          0.0000000000e+00 0.0000000000e+00 0.0000000000e+00 
          0.0000000000e+00 0.0000000000e+00 0.0000000000e+00 
          0.0000000000e+00 0.0000000000e+00 0.0000000000e+00 
          0.0000000000e+00 0.0000000000e+00 0.0000000000e+00 
          0.0000000000e+00 0.0000000000e+00 0.0000000000e+00 
          0.0000000000e+00 0.0000000000e+00 0.0000000000e+00 
          0.0000000000e+00 0.0000000000e+00 0.0000000000e+00 
          0.0000000000e+00 0.0000000000e+00 0.0000000000e+00 
          0.0000000000e+00 0.0000000000e+00 0.0000000000e+00 
          0.0000000000e+00 0.0000000000e+00 0.0000000000e+00 
          0.0000000000e+00 0.0000000000e+00 0.0000000000e+00 
          0.0000000000e+00 0.0000000000e+00 0.0000000000e+00 
          0.0000000000e+00 0.0000000000e+00 0.0000000000e+00 
          0.0000000000e+00 0.0000000000e+00 0.0000000000e+00 
          0.0000000000e+00 0.0000000000e+00 0.0000000000e+00 
          0.0000000000e+00 0.0000000000e+00 0.0000000000e+00 
          0.0000000000e+00 0.0000000000e+00 0.0000000000e+00 
          0.0000000000e+00 0.0000000000e+00 0.0000000000e+00 
          0.0000000000e+00 0.0000000000e+00 0.0000000000e+00 
          0.0000000000e+00 0.0000000000e+00 0.0000000000e+00 
          0.0000000000e+00 0.0000000000e+00 0.0000000000e+00 
          0.0000000000e+00 0.0000000000e+00 0.0000000000e+00 
          0.0000000000e+00 0.0000000000e+00 0.0000000000e+00 
          0.0000000000e+00 0.0000000000e+00 0.0000000000e+00 
          0.0000000000e+00 0.0000000000e+00 0.0000000000e+00 
          0.0000000000e+00 0.0000000000e+00 0.0000000000e+00 
          0.0000000000e+00 0.0000000000e+00 0.0000000000e+00 
          0.0000000000e+00 0.0000000000e+00 0.0000000000e+00 
          0.0000000000e+00 0.0000000000e+00 0.0000000000e+00 
          0.0000000000e+00 0.0000000000e+00 0.0000000000e+00 
          0.0000000000e+00 0.0000000000e+00 0.0000000000e+00 
          0.0000000000e+00 0.0000000000e+00 0.0000000000e+00 
          0.0000000000e+00 0.0000000000e+00 0.0000000000e+00 
          0.0000000000e+00 0.0000000000e+00 0.0000000000e+00 
          0.0000000000e+00 0.0000000000e+00 0.0000000000e+00 
          0.0000000000e+00 0.0000000000e+00 0.0000000000e+00 
          0.0000000000e+00 0.0000000000e+00 0.0000000000e+00 
          0.0000000000e+00 0.0000000000e+00 0.0000000000e+00 
          0.0000000000e+00 0.0000000000e+00 0.0000000000e+00 
          0.0000000000e+00 0.0000000000e+00 0.0000000000e+00 
          0.0000000000e+00 0.0000000000e+00 0.0000000000e+00 
          0.0000000000e+00 0.0000000000e+00 0.0000000000e+00 
          0.0000000000e+00 0.0000000000e+00 0.0000000000e+00 
          0.0000000000e+00 0.0000000000e+00 0.0000000000e+00 
          0.0000000000e+00 0.0000000000e+00 0.0000000000e+00 
          0.0000000000e+00 0.0000000000e+00 0.0000000000e+00 
          0.0000000000e+00 0.0000000000e+00 0.0000000000e+00 
          0.0000000000e+00 0.0000000000e+00 0.0000000000e+00 
          0.0000000000e+00 0.0000000000e+00 0.0000000000e+00 
          0.0000000000e+00 0.0000000000e+00 0.0000000000e+00 
          0.0000000000e+00 0.0000000000e+00 0.0000000000e+00 
          0.0000000000e+00 0.0000000000e+00 0.0000000000e+00 
          0.0000000000e+00 0.0000000000e+00 0.0000000000e+00 
          0.0000000000e+00 0.0000000000e+00 0.0000000000e+00 
          0.0000000000e+00 0.0000000000e+00 0.0000000000e+00 
          0.0000000000e+00 0.0000000000e+00 0.0000000000e+00 
          0.0000000000e+00 0.0000000000e+00 0.0000000000e+00 
          0.0000000000e+00 0.0000000000e+00 0.0000000000e+00 
          0.0000000000e+00 0.0000000000e+00 0.0000000000e+00 
          0.0000000000e+00 0.0000000000e+00 0.0000000000e+00 
          0.0000000000e+00 0.0000000000e+00 0.0000000000e+00 
        </DataArray>
      </PointData>
      <CellData>
        <DataArray type="Int64" Name="ElementTag" format="ascii">
          0
        </DataArray>
      </CellData>
    </Piece>
  </UnstructuredGrid>
</VTKFile>
