<?xml version="1.0"?>
<VTKFile type="UnstructuredGrid" version="1.0" byte_order="LittleEndian" compressor="vtkZLibDataCompressor">
  <UnstructuredGrid>
    <Piece NumberOfPoints="82" NumberOfCells="1">
      <Points>
        <DataArray type="Float64" Name="Points" NumberOfComponents="3" format="ascii">
          0.0000000000e+00 0.0000000000e+00 0.0000000000e+00 
          2.5000000000e-01 0.0000000000e+00 0.0000000000e+00 
          2.5000000000e-01 3.0000000000e+01 0.0000000000e+00 
          0.0000000000e+00 3.0000000000e+01 0.0000000000e+00 
          0.0000000000e+00 -5.0000000000e+00 0.0000000000e+00 
          2.5000000000e-01 -5.0000000000e+00 0.0000000000e+00 
          2.5000000000e-01 7.6923100000e-01 0.0000000000e+00 
          2.5000000000e-01 1.5384620000e+00 0.0000000000e+00 
          2.5000000000e-01 2.3076920000e+00 0.0000000000e+00 
          2.5000000000e-01 3.0769230000e+00 0.0000000000e+00 
          2.5000000000e-01 3.8461540000e+00 0.0000000000e+00 
          2.5000000000e-01 4.6153850000e+00 0.0000000000e+00 
          2.5000000000e-01 5.3846150000e+00 0.0000000000e+00 
          2.5000000000e-01 6.1538460000e+00 0.0000000000e+00 
          2.5000000000e-01 6.9230770000e+00 0.0000000000e+00 
          2.5000000000e-01 7.6923080000e+00 0.0000000000e+00 
          2.5000000000e-01 8.4615380000e+00 0.0000000000e+00 
          2.5000000000e-01 9.2307690000e+00 0.0000000000e+00 
          2.5000000000e-01 1.0000000000e+01 0.0000000000e+00 
          2.5000000000e-01 1.0769231000e+01 0.0000000000e+00 
          2.5000000000e-01 1.1538462000e+01 0.0000000000e+00 
          2.5000000000e-01 1.2307692000e+01 0.0000000000e+00 
          2.5000000000e-01 1.3076923000e+01 0.0000000000e+00 
          2.5000000000e-01 1.3846154000e+01 0.0000000000e+00 
          2.5000000000e-01 1.4615385000e+01 0.0000000000e+00 
          2.5000000000e-01 1.5384615000e+01 0.0000000000e+00 
          2.5000000000e-01 1.6153846000e+01 0.0000000000e+00 
          2.5000000000e-01 1.6923077000e+01 0.0000000000e+00 
          2.5000000000e-01 1.7692308000e+01 0.0000000000e+00 
          2.5000000000e-01 1.8461538000e+01 0.0000000000e+00 
          2.5000000000e-01 1.9230769000e+01 0.0000000000e+00 
          2.5000000000e-01 2.0000000000e+01 0.0000000000e+00 
          2.5000000000e-01 2.0769231000e+01 0.0000000000e+00 
          2.5000000000e-01 2.1538462000e+01 0.0000000000e+00 
          2.5000000000e-01 2.2307692000e+01 0.0000000000e+00 
          2.5000000000e-01 2.3076923000e+01 0.0000000000e+00 
          2.5000000000e-01 2.3846154000e+01 0.0000000000e+00 
          2.5000000000e-01 2.4615385000e+01 0.0000000000e+00 
          2.5000000000e-01 2.5384615000e+01 0.0000000000e+00 
          2.5000000000e-01 2.6153846000e+01 0.0000000000e+00 
          2.5000000000e-01 2.6923077000e+01 0.0000000000e+00 
          2.5000000000e-01 2.7692308000e+01 0.0000000000e+00 
          2.5000000000e-01 2.8461538000e+01 0.0000000000e+00 
          2.5000000000e-01 2.9230769000e+01 0.0000000000e+00 
          0.0000000000e+00 7.6923100000e-01 0.0000000000e+00 
          0.0000000000e+00 1.5384620000e+00 0.0000000000e+00 
          0.0000000000e+00 2.3076920000e+00 0.0000000000e+00 
          0.0000000000e+00 3.0769230000e+00 0.0000000000e+00 
          0.0000000000e+00 3.8461540000e+00 0.0000000000e+00 
          0.0000000000e+00 4.6153850000e+00 0.0000000000e+00 
          0.0000000000e+00 5.3846150000e+00 0.0000000000e+00 
          0.0000000000e+00 6.1538460000e+00 0.0000000000e+00 
          0.0000000000e+00 6.9230770000e+00 0.0000000000e+00 
          0.0000000000e+00 7.6923080000e+00 0.0000000000e+00 
          0.0000000000e+00 8.4615380000e+00 0.0000000000e+00 
          0.0000000000e+00 9.2307690000e+00 0.0000000000e+00 
          0.0000000000e+00 1.0000000000e+01 0.0000000000e+00 
          0.0000000000e+00 1.0769231000e+01 0.0000000000e+00 
          0.0000000000e+00 1.1538462000e+01 0.0000000000e+00 
          0.0000000000e+00 1.2307692000e+01 0.0000000000e+00 
          0.0000000000e+00 1.3076923000e+01 0.0000000000e+00 
          0.0000000000e+00 1.3846154000e+01 0.0000000000e+00 
          0.0000000000e+00 1.4615385000e+01 0.0000000000e+00 
          0.0000000000e+00 1.5384615000e+01 0.0000000000e+00 
          0.0000000000e+00 1.6153846000e+01 0.0000000000e+00 
          0.0000000000e+00 1.6923077000e+01 0.0000000000e+00 
          0.0000000000e+00 1.7692308000e+01 0.0000000000e+00 
          0.0000000000e+00 1.8461538000e+01 0.0000000000e+00 
          0.0000000000e+00 1.9230769000e+01 0.0000000000e+00 
          0.0000000000e+00 2.0000000000e+01 0.0000000000e+00 
          0.0000000000e+00 2.0769231000e+01 0.0000000000e+00 
          0.0000000000e+00 2.1538462000e+01 0.0000000000e+00 
          0.0000000000e+00 2.2307692000e+01 0.0000000000e+00 
          0.0000000000e+00 2.3076923000e+01 0.0000000000e+00 
          0.0000000000e+00 2.3846154000e+01 0.0000000000e+00 
          0.0000000000e+00 2.4615385000e+01 0.0000000000e+00 
          0.0000000000e+00 2.5384615000e+01 0.0000000000e+00 
          0.0000000000e+00 2.6153846000e+01 0.0000000000e+00 
          0.0000000000e+00 2.6923077000e+01 0.0000000000e+00 
          0.0000000000e+00 2.7692308000e+01 0.0000000000e+00 
          0.0000000000e+00 2.8461538000e+01 0.0000000000e+00 
          0.0000000000e+00 2.9230769000e+01 0.0000000000e+00 
        </DataArray>
      </Points>
      <Cells>
        <DataArray type="Int64" Name="connectivity" format="ascii">
          0
          1
          2
          3
          4
          5
          6
          7
          8
          9
          10
          11
          12
          13
          14
          15
          16
          17
          18
          19
          20
          21
          22
          23
          24
          25
          26
          27
          28
          29
          30
          31
          32
          33
          34
          35
          36
          37
          38
          39
          40
          41
          42
          43
          44
          45
          46
          47
          48
          49
          50
          51
          52
          53
          54
          55
          56
          57
          58
          59
          60
          61
          62
          63
          64
          65
          66
          67
          68
          69
          70
          71
          72
          73
          74
          75
          76
          77
          78
          79
          80
          81
        </DataArray>
        <DataArray type="Int64" Name="offsets" format="ascii">
          82
        </DataArray>
        <DataArray type="Int64" Name="types" format="ascii">
          2
        </DataArray>
      </Cells>
      <PointData>
        <DataArray type="Int64" Name="NodeTag" format="ascii">
          1
          2
          3
          4
          5
          6
          7
          8
          9
          10
          11
          12
          13
          14
          15
          16
          17
          18
          19
          20
          21
          22
          23
          24
          25
          26
          27
          28
          29
          30
          31
          32
          33
          34
          35
          36
          37
          38
          39
          40
          41
          42
          43
          44
          45
          46
          47
          48
          49
          50
          51
          52
          53
          54
          55
          56
          57
          58
          59
          60
          61
          62
          63
          64
          65
          66
          67
          68
          69
          70
          71
          72
          73
          74
          75
          76
          77
          78
          79
          80
          81
          82
        </DataArray>
        <DataArray type="Float64" Name="Velocity" NumberOfComponents="3" format="ascii">
          -9.2821082396e-03 -8.0144814488e-05 0.0000000000e+00 
          -9.2821082396e-03 -8.0144814488e-05 0.0000000000e+00 
          3.3349789429e-01 -8.2451165547e-05 0.0000000000e+00 
          3.3349789429e-01 -8.2451165547e-05 0.0000000000e+00 
          0.0000000000e+00 0.0000000000e+00 0.0000000000e+00 
          0.0000000000e+00 0.0000000000e+00 0.0000000000e+00 
          3.5589867238e-03 -8.0701376031e-05 0.0000000000e+00 
          1.6476711213e-02 -8.0868319383e-05 0.0000000000e+00 
          2.9446581298e-02 -8.1494863877e-05 0.0000000000e+00 
          4.2443829580e-02 -8.1706861290e-05 0.0000000000e+00 
          5.5443388475e-02 -8.1955290421e-05 0.0000000000e+00 
          6.8419958399e-02 -8.2346224252e-05 0.0000000000e+00 
          8.1348150174e-02 -8.2671840357e-05 0.0000000000e+00 
          9.4202475010e-02 -8.3223232579e-05 0.0000000000e+00 
          1.0695742291e-01 -8.3038301797e-05 0.0000000000e+00 
          1.1958760171e-01 -8.2909610092e-05 0.0000000000e+00 
          1.3206762425e-01 -8.3185331570e-05 0.0000000000e+00 
          1.4437240694e-01 -8.3406942818e-05 0.0000000000e+00 
          1.5647706391e-01 -8.3200592881e-05 0.0000000000e+00 
          1.6835703946e-01 -8.3379212550e-05 0.0000000000e+00 
          1.7998817613e-01 -8.3145295408e-05 0.0000000000e+00 
          1.9134666570e-01 -8.2657977846e-05 0.0000000000e+00 
          2.0240931701e-01 -8.2789009605e-05 0.0000000000e+00 
          2.1315343154e-01 -8.2681664779e-05 0.0000000000e+00 
          2.2355692428e-01 -8.2418904918e-05 0.0000000000e+00 
          2.3359840724e-01 -8.2147197424e-05 0.0000000000e+00 
          2.4325719071e-01 -8.2233557220e-05 0.0000000000e+00 
          2.5251336913e-01 -8.2322525822e-05 0.0000000000e+00 
          2.6134784757e-01 -8.2497636347e-05 0.0000000000e+00 
          2.6974233023e-01 -8.2447188671e-05 0.0000000000e+00 
          2.7767951564e-01 -8.2550816980e-05 0.0000000000e+00 
          2.8514297890e-01 -8.2697011981e-05 0.0000000000e+00 
          2.9211728406e-01 -8.2540735103e-05 0.0000000000e+00 
          2.9858803720e-01 -8.2602030230e-05 0.0000000000e+00 
          3.0454182696e-01 -8.2581162967e-05 0.0000000000e+00 
          3.0996635389e-01 -8.2733294561e-05 0.0000000000e+00 
          3.1485043190e-01 -8.2916139097e-05 0.0000000000e+00 
          3.1918395440e-01 -8.2781786018e-05 0.0000000000e+00 
          3.2295793287e-01 -8.2672550103e-05 0.0000000000e+00 
          3.2616458419e-01 -8.2872844114e-05 0.0000000000e+00 
          3.2879728811e-01 -8.2684837471e-05 0.0000000000e+00 
          3.3085061465e-01 -8.2270439941e-05 0.0000000000e+00 
          3.3232031980e-01 -8.2454101338e-05 0.0000000000e+00 
          3.3320335285e-01 -8.2614522137e-05 0.0000000000e+00 
          3.5589867238e-03 -8.0701376031e-05 0.0000000000e+00 
          1.6476711213e-02 -8.0868319383e-05 0.0000000000e+00 
          2.9446581298e-02 -8.1494863877e-05 0.0000000000e+00 
          4.2443829580e-02 -8.1706861290e-05 0.0000000000e+00 
          5.5443388475e-02 -8.1955290421e-05 0.0000000000e+00 
          6.8419958399e-02 -8.2346224252e-05 0.0000000000e+00 
          8.1348150174e-02 -8.2671840357e-05 0.0000000000e+00 
          9.4202475010e-02 -8.3223232579e-05 0.0000000000e+00 
          1.0695742291e-01 -8.3038301797e-05 0.0000000000e+00 
          1.1958760171e-01 -8.2909610092e-05 0.0000000000e+00 
          1.3206762425e-01 -8.3185331570e-05 0.0000000000e+00 
          1.4437240694e-01 -8.3406942818e-05 0.0000000000e+00 
          1.5647706391e-01 -8.3200592881e-05 0.0000000000e+00 
          1.6835703946e-01 -8.3379212550e-05 0.0000000000e+00 
          1.7998817613e-01 -8.3145295408e-05 0.0000000000e+00 
          1.9134666570e-01 -8.2657977846e-05 0.0000000000e+00 
          2.0240931701e-01 -8.2789009605e-05 0.0000000000e+00 
          2.1315343154e-01 -8.2681664779e-05 0.0000000000e+00 
          2.2355692428e-01 -8.2418904918e-05 0.0000000000e+00 
          2.3359840724e-01 -8.2147197424e-05 0.0000000000e+00 
          2.4325719071e-01 -8.2233557220e-05 0.0000000000e+00 
          2.5251336913e-01 -8.2322525822e-05 0.0000000000e+00 
          2.6134784757e-01 -8.2497636347e-05 0.0000000000e+00 
          2.6974233023e-01 -8.2447188671e-05 0.0000000000e+00 
          2.7767951564e-01 -8.2550816980e-05 0.0000000000e+00 
          2.8514297890e-01 -8.2697011981e-05 0.0000000000e+00 
          2.9211728406e-01 -8.2540735103e-05 0.0000000000e+00 
          2.9858803720e-01 -8.2602030230e-05 0.0000000000e+00 
          3.0454182696e-01 -8.2581162967e-05 0.0000000000e+00 
          3.0996635389e-01 -8.2733294561e-05 0.0000000000e+00 
          3.1485043190e-01 -8.2916139097e-05 0.0000000000e+00 
          3.1918395440e-01 -8.2781786018e-05 0.0000000000e+00 
          3.2295793287e-01 -8.2672550103e-05 0.0000000000e+00 
          3.2616458419e-01 -8.2872844114e-05 0.0000000000e+00 
          3.2879728811e-01 -8.2684837471e-05 0.0000000000e+00 
          3.3085061465e-01 -8.2270439941e-05 0.0000000000e+00 
          3.3232031980e-01 -8.2454101338e-05 0.0000000000e+00 
          3.3320335285e-01 -8.2614522137e-05 0.0000000000e+00 
        </DataArray>
        <DataArray type="Float64" Name="Displacement" NumberOfComponents="3" format="ascii">
          3.2207771531e-02 -1.5535684196e-04 0.0000000000e+00 
          3.2207771531e-02 -1.5535684196e-04 0.0000000000e+00 
          3.5833242693e-02 -1.7974133999e-04 0.0000000000e+00 
          3.5833242693e-02 -1.7974133999e-04 0.0000000000e+00 
          0.0000000000e+00 0.0000000000e+00 0.0000000000e+00 
          0.0000000000e+00 0.0000000000e+00 0.0000000000e+00 
          3.2583531359e-02 -1.5658642125e-04 0.0000000000e+00 
          3.2935514008e-02 -1.5778472065e-04 0.0000000000e+00 
          3.3264073165e-02 -1.5895172361e-04 0.0000000000e+00 
          3.3569629605e-02 -1.6008764279e-04 0.0000000000e+00 
          3.3852666425e-02 -1.6119248378e-04 0.0000000000e+00 
          3.4113728479e-02 -1.6226575280e-04 0.0000000000e+00 
          3.4353418803e-02 -1.6330785685e-04 0.0000000000e+00 
          3.4572396752e-02 -1.6431945575e-04 0.0000000000e+00 
          3.4771372996e-02 -1.6529924419e-04 0.0000000000e+00 
          3.4951106803e-02 -1.6624671445e-04 0.0000000000e+00 
          3.5112401807e-02 -1.6716278168e-04 0.0000000000e+00 
          3.5256102704e-02 -1.6804643453e-04 0.0000000000e+00 
          3.5383089374e-02 -1.6889784826e-04 0.0000000000e+00 
          3.5494273254e-02 -1.6971690719e-04 0.0000000000e+00 
          3.5590592119e-02 -1.7050372565e-04 0.0000000000e+00 
          3.5673005143e-02 -1.7125848403e-04 0.0000000000e+00 
          3.5742488177e-02 -1.7198130437e-04 0.0000000000e+00 
          3.5800027653e-02 -1.7267171397e-04 0.0000000000e+00 
          3.5846615876e-02 -1.7332891319e-04 0.0000000000e+00 
          3.5883245267e-02 -1.7395428893e-04 0.0000000000e+00 
          3.5910903155e-02 -1.7454719244e-04 0.0000000000e+00 
          3.5930566087e-02 -1.7510721866e-04 0.0000000000e+00 
          3.5943194440e-02 -1.7563582392e-04 0.0000000000e+00 
          3.5949727295e-02 -1.7613240608e-04 0.0000000000e+00 
          3.5951077148e-02 -1.7659714221e-04 0.0000000000e+00 
          3.5948124605e-02 -1.7702999878e-04 0.0000000000e+00 
          3.5941713543e-02 -1.7743060663e-04 0.0000000000e+00 
          3.5932646219e-02 -1.7779993325e-04 0.0000000000e+00 
          3.5921678832e-02 -1.7813721133e-04 0.0000000000e+00 
          3.5909517299e-02 -1.7844285289e-04 0.0000000000e+00 
          3.5896813168e-02 -1.7871698631e-04 0.0000000000e+00 
          3.5884159801e-02 -1.7895788472e-04 0.0000000000e+00 
          3.5872089054e-02 -1.7916630262e-04 0.0000000000e+00 
          3.5861068153e-02 -1.7934225044e-04 0.0000000000e+00 
          3.5851497192e-02 -1.7948626415e-04 0.0000000000e+00 
          3.5843706729e-02 -1.7959825731e-04 0.0000000000e+00 
          3.5837955766e-02 -1.7967753070e-04 0.0000000000e+00 
          3.5834430346e-02 -1.7972537209e-04 0.0000000000e+00 
          3.2583531359e-02 -1.5658642125e-04 0.0000000000e+00 
          3.2935514008e-02 -1.5778472065e-04 0.0000000000e+00 
          3.3264073165e-02 -1.5895172361e-04 0.0000000000e+00 
          3.3569629605e-02 -1.6008764279e-04 0.0000000000e+00 
          3.3852666425e-02 -1.6119248378e-04 0.0000000000e+00 
          3.4113728479e-02 -1.6226575280e-04 0.0000000000e+00 
          3.4353418803e-02 -1.6330785685e-04 0.0000000000e+00 
          3.4572396752e-02 -1.6431945575e-04 0.0000000000e+00 
          3.4771372996e-02 -1.6529924419e-04 0.0000000000e+00 
          3.4951106803e-02 -1.6624671445e-04 0.0000000000e+00 
          3.5112401807e-02 -1.6716278168e-04 0.0000000000e+00 
          3.5256102704e-02 -1.6804643453e-04 0.0000000000e+00 
          3.5383089374e-02 -1.6889784826e-04 0.0000000000e+00 
          3.5494273254e-02 -1.6971690719e-04 0.0000000000e+00 
          3.5590592119e-02 -1.7050372565e-04 0.0000000000e+00 
          3.5673005143e-02 -1.7125848403e-04 0.0000000000e+00 
          3.5742488177e-02 -1.7198130437e-04 0.0000000000e+00 
          3.5800027653e-02 -1.7267171397e-04 0.0000000000e+00 
          3.5846615876e-02 -1.7332891319e-04 0.0000000000e+00 
          3.5883245267e-02 -1.7395428893e-04 0.0000000000e+00 
          3.5910903155e-02 -1.7454719244e-04 0.0000000000e+00 
          3.5930566087e-02 -1.7510721866e-04 0.0000000000e+00 
          3.5943194440e-02 -1.7563582392e-04 0.0000000000e+00 
          3.5949727295e-02 -1.7613240608e-04 0.0000000000e+00 
          3.5951077148e-02 -1.7659714221e-04 0.0000000000e+00 
          3.5948124605e-02 -1.7702999878e-04 0.0000000000e+00 
          3.5941713543e-02 -1.7743060663e-04 0.0000000000e+00 
          3.5932646219e-02 -1.7779993325e-04 0.0000000000e+00 
          3.5921678832e-02 -1.7813721133e-04 0.0000000000e+00 
          3.5909517299e-02 -1.7844285289e-04 0.0000000000e+00 
          3.5896813168e-02 -1.7871698631e-04 0.0000000000e+00 
          3.5884159801e-02 -1.7895788472e-04 0.0000000000e+00 
          3.5872089054e-02 -1.7916630262e-04 0.0000000000e+00 
          3.5861068153e-02 -1.7934225044e-04 0.0000000000e+00 
          3.5851497192e-02 -1.7948626415e-04 0.0000000000e+00 
          3.5843706729e-02 -1.7959825731e-04 0.0000000000e+00 
          3.5837955766e-02 -1.7967753070e-04 0.0000000000e+00 
          3.5834430346e-02 -1.7972537209e-04 0.0000000000e+00 
        </DataArray>
        <DataArray type="Float64" Name="Acceleration" NumberOfComponents="3" format="ascii">
          -2.1681949652e+00 -3.6677857372e-05 0.0000000000e+00 
          -2.1681949652e+00 -3.6677857372e-05 0.0000000000e+00 
          2.1401973016e-01 1.6749138474e-04 0.0000000000e+00 
          2.1401973016e-01 1.6749138474e-04 0.0000000000e+00 
          0.0000000000e+00 0.0000000000e+00 0.0000000000e+00 
          0.0000000000e+00 0.0000000000e+00 0.0000000000e+00 
          -2.1423706807e+00 4.9295218196e-05 0.0000000000e+00 
          -2.1104658701e+00 5.2007612717e-05 0.0000000000e+00 
          -2.0726299967e+00 1.4232488295e-05 0.0000000000e+00 
          -2.0290622315e+00 1.2948235656e-05 0.0000000000e+00 
          -1.9799698620e+00 1.0193030002e-04 0.0000000000e+00 
          -1.9256082405e+00 2.8344274380e-05 0.0000000000e+00 
          -1.8662551630e+00 -9.0066653661e-05 0.0000000000e+00 
          -1.8021931130e+00 1.4490593291e-04 0.0000000000e+00 
          -1.7337815710e+00 2.3639883806e-04 0.0000000000e+00 
          -1.6613548486e+00 7.1273735974e-05 0.0000000000e+00 
          -1.5852836303e+00 2.5395509425e-04 0.0000000000e+00 
          -1.5059848474e+00 2.2215185719e-04 0.0000000000e+00 
          -1.4238625357e+00 2.4299708789e-04 0.0000000000e+00 
          -1.3393673055e+00 2.2239623003e-04 0.0000000000e+00 
          -1.2529349009e+00 1.8971638817e-04 0.0000000000e+00 
          -1.1650280104e+00 1.6807772865e-04 0.0000000000e+00 
          -1.0761381321e+00 2.5307637456e-04 0.0000000000e+00 
          -9.8672951424e-01 3.9718006566e-04 0.0000000000e+00 
          -8.9730681863e-01 1.4710822367e-04 0.0000000000e+00 
          -8.0835489630e-01 2.6431073580e-04 0.0000000000e+00 
          -7.2036130238e-01 3.3715225206e-04 0.0000000000e+00 
          -6.3382946091e-01 7.4716825311e-05 0.0000000000e+00 
          -5.4921603352e-01 1.8311193992e-04 0.0000000000e+00 
          -4.6699978459e-01 1.5143728849e-04 0.0000000000e+00 
          -3.8765437877e-01 1.5735768183e-04 0.0000000000e+00 
          -3.1161929726e-01 2.2388114783e-04 0.0000000000e+00 
          -2.3933453345e-01 4.9538658436e-05 0.0000000000e+00 
          -1.7120082854e-01 1.8773170572e-04 0.0000000000e+00 
          -1.0759369599e-01 1.1364531906e-04 0.0000000000e+00 
          -4.8889192822e-02 9.0426861330e-05 0.0000000000e+00 
          4.5740294408e-03 4.0161579487e-04 0.0000000000e+00 
          5.2493778942e-02 2.6560731034e-04 0.0000000000e+00 
          9.4594679129e-02 2.6382514404e-04 0.0000000000e+00 
          1.3064244394e-01 1.6718696491e-04 0.0000000000e+00 
          1.6042644821e-01 1.8276663795e-04 0.0000000000e+00 
          1.8376234636e-01 3.0875061607e-04 0.0000000000e+00 
          2.0052666556e-01 7.6729704156e-05 0.0000000000e+00 
          2.1063742874e-01 1.5626511918e-04 0.0000000000e+00 
          -2.1423706807e+00 4.9295218196e-05 0.0000000000e+00 
          -2.1104658701e+00 5.2007612717e-05 0.0000000000e+00 
          -2.0726299967e+00 1.4232488295e-05 0.0000000000e+00 
          -2.0290622315e+00 1.2948235656e-05 0.0000000000e+00 
          -1.9799698620e+00 1.0193030002e-04 0.0000000000e+00 
          -1.9256082405e+00 2.8344274380e-05 0.0000000000e+00 
          -1.8662551630e+00 -9.0066653661e-05 0.0000000000e+00 
          -1.8021931130e+00 1.4490593291e-04 0.0000000000e+00 
          -1.7337815710e+00 2.3639883806e-04 0.0000000000e+00 
          -1.6613548486e+00 7.1273735974e-05 0.0000000000e+00 
          -1.5852836303e+00 2.5395509425e-04 0.0000000000e+00 
          -1.5059848474e+00 2.2215185719e-04 0.0000000000e+00 
          -1.4238625357e+00 2.4299708789e-04 0.0000000000e+00 
          -1.3393673055e+00 2.2239623003e-04 0.0000000000e+00 
          -1.2529349009e+00 1.8971638817e-04 0.0000000000e+00 
          -1.1650280104e+00 1.6807772865e-04 0.0000000000e+00 
          -1.0761381321e+00 2.5307637456e-04 0.0000000000e+00 
          -9.8672951424e-01 3.9718006566e-04 0.0000000000e+00 
          -8.9730681863e-01 1.4710822367e-04 0.0000000000e+00 
          -8.0835489630e-01 2.6431073580e-04 0.0000000000e+00 
          -7.2036130238e-01 3.3715225206e-04 0.0000000000e+00 
          -6.3382946091e-01 7.4716825311e-05 0.0000000000e+00 
          -5.4921603352e-01 1.8311193992e-04 0.0000000000e+00 
          -4.6699978459e-01 1.5143728849e-04 0.0000000000e+00 
          -3.8765437877e-01 1.5735768183e-04 0.0000000000e+00 
          -3.1161929726e-01 2.2388114783e-04 0.0000000000e+00 
          -2.3933453345e-01 4.9538658436e-05 0.0000000000e+00 
          -1.7120082854e-01 1.8773170572e-04 0.0000000000e+00 
          -1.0759369599e-01 1.1364531906e-04 0.0000000000e+00 
          -4.8889192822e-02 9.0426861330e-05 0.0000000000e+00 
          4.5740294408e-03 4.0161579487e-04 0.0000000000e+00 
          5.2493778942e-02 2.6560731034e-04 0.0000000000e+00 
          9.4594679129e-02 2.6382514404e-04 0.0000000000e+00 
          1.3064244394e-01 1.6718696491e-04 0.0000000000e+00 
          1.6042644821e-01 1.8276663795e-04 0.0000000000e+00 
          1.8376234636e-01 3.0875061607e-04 0.0000000000e+00 
          2.0052666556e-01 7.6729704156e-05 0.0000000000e+00 
          2.1063742874e-01 1.5626511918e-04 0.0000000000e+00 
        </DataArray>
        <DataArray type="Float64" Name="Reaction" NumberOfComponents="3" format="ascii">
          0.0000000000e+00 0.0000000000e+00 0.0000000000e+00 
          0.0000000000e+00 0.0000000000e+00 0.0000000000e+00 
          0.0000000000e+00 0.0000000000e+00 0.0000000000e+00 
          0.0000000000e+00 0.0000000000e+00 0.0000000000e+00 
          0.0000000000e+00 0.0000000000e+00 0.0000000000e+00 
          0.0000000000e+00 0.0000000000e+00 0.0000000000e+00 
          0.0000000000e+00 0.0000000000e+00 0.0000000000e+00 
          0.0000000000e+00 0.0000000000e+00 0.0000000000e+00 
          0.0000000000e+00 0.0000000000e+00 0.0000000000e+00 
          0.0000000000e+00 0.0000000000e+00 0.0000000000e+00 
          0.0000000000e+00 0.0000000000e+00 0.0000000000e+00 
          0.0000000000e+00 0.0000000000e+00 0.0000000000e+00 
          0.0000000000e+00 0.0000000000e+00 0.0000000000e+00 
          0.0000000000e+00 0.0000000000e+00 0.0000000000e+00 
          0.0000000000e+00 0.0000000000e+00 0.0000000000e+00 
          0.0000000000e+00 0.0000000000e+00 0.0000000000e+00 
          0.0000000000e+00 0.0000000000e+00 0.0000000000e+00 
          0.0000000000e+00 0.0000000000e+00 0.0000000000e+00 
          0.0000000000e+00 0.0000000000e+00 0.0000000000e+00 
          0.0000000000e+00 0.0000000000e+00 0.0000000000e+00 
          0.0000000000e+00 0.0000000000e+00 0.0000000000e+00 
          0.0000000000e+00 0.0000000000e+00 0.0000000000e+00 
          0.0000000000e+00 0.0000000000e+00 0.0000000000e+00 
          0.0000000000e+00 0.0000000000e+00 0.0000000000e+00 
          0.0000000000e+00 0.0000000000e+00 0.0000000000e+00 
          0.0000000000e+00 0.0000000000e+00 0.0000000000e+00 
          0.0000000000e+00 0.0000000000e+00 0.0000000000e+00 
          0.0000000000e+00 0.0000000000e+00 0.0000000000e+00 
          0.0000000000e+00 0.0000000000e+00 0.0000000000e+00 
          0.0000000000e+00 0.0000000000e+00 0.0000000000e+00 
          0.0000000000e+00 0.0000000000e+00 0.0000000000e+00 
          0.0000000000e+00 0.0000000000e+00 0.0000000000e+00 
          0.0000000000e+00 0.0000000000e+00 0.0000000000e+00 
          0.0000000000e+00 0.0000000000e+00 0.0000000000e+00 
          0.0000000000e+00 0.0000000000e+00 0.0000000000e+00 
          0.0000000000e+00 0.0000000000e+00 0.0000000000e+00 
          0.0000000000e+00 0.0000000000e+00 0.0000000000e+00 
          0.0000000000e+00 0.0000000000e+00 0.0000000000e+00 
          0.0000000000e+00 0.0000000000e+00 0.0000000000e+00 
          0.0000000000e+00 0.0000000000e+00 0.0000000000e+00 
          0.0000000000e+00 0.0000000000e+00 0.0000000000e+00 
          0.0000000000e+00 0.0000000000e+00 0.0000000000e+00 
          0.0000000000e+00 0.0000000000e+00 0.0000000000e+00 
          0.0000000000e+00 0.0000000000e+00 0.0000000000e+00 
          0.0000000000e+00 0.0000000000e+00 0.0000000000e+00 
          0.0000000000e+00 0.0000000000e+00 0.0000000000e+00 
          0.0000000000e+00 0.0000000000e+00 0.0000000000e+00 
          0.0000000000e+00 0.0000000000e+00 0.0000000000e+00 
          0.0000000000e+00 0.0000000000e+00 0.0000000000e+00 
          0.0000000000e+00 0.0000000000e+00 0.0000000000e+00 
          0.0000000000e+00 0.0000000000e+00 0.0000000000e+00 
          0.0000000000e+00 0.0000000000e+00 0.0000000000e+00 
          0.0000000000e+00 0.0000000000e+00 0.0000000000e+00 
          0.0000000000e+00 0.0000000000e+00 0.0000000000e+00 
          0.0000000000e+00 0.0000000000e+00 0.0000000000e+00 
          0.0000000000e+00 0.0000000000e+00 0.0000000000e+00 
          0.0000000000e+00 0.0000000000e+00 0.0000000000e+00 
          0.0000000000e+00 0.0000000000e+00 0.0000000000e+00 
          0.0000000000e+00 0.0000000000e+00 0.0000000000e+00 
          0.0000000000e+00 0.0000000000e+00 0.0000000000e+00 
          0.0000000000e+00 0.0000000000e+00 0.0000000000e+00 
          0.0000000000e+00 0.0000000000e+00 0.0000000000e+00 
          0.0000000000e+00 0.0000000000e+00 0.0000000000e+00 
          0.0000000000e+00 0.0000000000e+00 0.0000000000e+00 
          0.0000000000e+00 0.0000000000e+00 0.0000000000e+00 
          0.0000000000e+00 0.0000000000e+00 0.0000000000e+00 
          0.0000000000e+00 0.0000000000e+00 0.0000000000e+00 
          0.0000000000e+00 0.0000000000e+00 0.0000000000e+00 
          0.0000000000e+00 0.0000000000e+00 0.0000000000e+00 
          0.0000000000e+00 0.0000000000e+00 0.0000000000e+00 
          0.0000000000e+00 0.0000000000e+00 0.0000000000e+00 
          0.0000000000e+00 0.0000000000e+00 0.0000000000e+00 
          0.0000000000e+00 0.0000000000e+00 0.0000000000e+00 
          0.0000000000e+00 0.0000000000e+00 0.0000000000e+00 
          0.0000000000e+00 0.0000000000e+00 0.0000000000e+00 
          0.0000000000e+00 0.0000000000e+00 0.0000000000e+00 
          0.0000000000e+00 0.0000000000e+00 0.0000000000e+00 
          0.0000000000e+00 0.0000000000e+00 0.0000000000e+00 
          0.0000000000e+00 0.0000000000e+00 0.0000000000e+00 
          0.0000000000e+00 0.0000000000e+00 0.0000000000e+00 
          0.0000000000e+00 0.0000000000e+00 0.0000000000e+00 
          0.0000000000e+00 0.0000000000e+00 0.0000000000e+00 
        </DataArray>
      </PointData>
      <CellData>
        <DataArray type="Int64" Name="ElementTag" format="ascii">
          0
        </DataArray>
      </CellData>
    </Piece>
  </UnstructuredGrid>
</VTKFile>
