<?xml version="1.0"?>
<VTKFile type="UnstructuredGrid" version="1.0" byte_order="LittleEndian" compressor="vtkZLibDataCompressor">
  <UnstructuredGrid>
    <Piece NumberOfPoints="80" NumberOfCells="39">
      <Points>
        <DataArray type="Float64" Name="Points" NumberOfComponents="3" format="ascii">
          0.0000000000e+00 0.0000000000e+00 0.0000000000e+00 
          2.5000000000e-01 0.0000000000e+00 0.0000000000e+00 
          2.5000000000e-01 3.0000000000e+01 0.0000000000e+00 
          0.0000000000e+00 3.0000000000e+01 0.0000000000e+00 
          2.5000000000e-01 7.6923100000e-01 0.0000000000e+00 
          2.5000000000e-01 1.5384620000e+00 0.0000000000e+00 
          2.5000000000e-01 2.3076920000e+00 0.0000000000e+00 
          2.5000000000e-01 3.0769230000e+00 0.0000000000e+00 
          2.5000000000e-01 3.8461540000e+00 0.0000000000e+00 
          2.5000000000e-01 4.6153850000e+00 0.0000000000e+00 
          2.5000000000e-01 5.3846150000e+00 0.0000000000e+00 
          2.5000000000e-01 6.1538460000e+00 0.0000000000e+00 
          2.5000000000e-01 6.9230770000e+00 0.0000000000e+00 
          2.5000000000e-01 7.6923080000e+00 0.0000000000e+00 
          2.5000000000e-01 8.4615380000e+00 0.0000000000e+00 
          2.5000000000e-01 9.2307690000e+00 0.0000000000e+00 
          2.5000000000e-01 1.0000000000e+01 0.0000000000e+00 
          2.5000000000e-01 1.0769231000e+01 0.0000000000e+00 
          2.5000000000e-01 1.1538462000e+01 0.0000000000e+00 
          2.5000000000e-01 1.2307692000e+01 0.0000000000e+00 
          2.5000000000e-01 1.3076923000e+01 0.0000000000e+00 
          2.5000000000e-01 1.3846154000e+01 0.0000000000e+00 
          2.5000000000e-01 1.4615385000e+01 0.0000000000e+00 
          2.5000000000e-01 1.5384615000e+01 0.0000000000e+00 
          2.5000000000e-01 1.6153846000e+01 0.0000000000e+00 
          2.5000000000e-01 1.6923077000e+01 0.0000000000e+00 
          2.5000000000e-01 1.7692308000e+01 0.0000000000e+00 
          2.5000000000e-01 1.8461538000e+01 0.0000000000e+00 
          2.5000000000e-01 1.9230769000e+01 0.0000000000e+00 
          2.5000000000e-01 2.0000000000e+01 0.0000000000e+00 
          2.5000000000e-01 2.0769231000e+01 0.0000000000e+00 
          2.5000000000e-01 2.1538462000e+01 0.0000000000e+00 
          2.5000000000e-01 2.2307692000e+01 0.0000000000e+00 
          2.5000000000e-01 2.3076923000e+01 0.0000000000e+00 
          2.5000000000e-01 2.3846154000e+01 0.0000000000e+00 
          2.5000000000e-01 2.4615385000e+01 0.0000000000e+00 
          2.5000000000e-01 2.5384615000e+01 0.0000000000e+00 
          2.5000000000e-01 2.6153846000e+01 0.0000000000e+00 
          2.5000000000e-01 2.6923077000e+01 0.0000000000e+00 
          2.5000000000e-01 2.7692308000e+01 0.0000000000e+00 
          2.5000000000e-01 2.8461538000e+01 0.0000000000e+00 
          2.5000000000e-01 2.9230769000e+01 0.0000000000e+00 
          0.0000000000e+00 7.6923100000e-01 0.0000000000e+00 
          0.0000000000e+00 1.5384620000e+00 0.0000000000e+00 
          0.0000000000e+00 2.3076920000e+00 0.0000000000e+00 
          0.0000000000e+00 3.0769230000e+00 0.0000000000e+00 
          0.0000000000e+00 3.8461540000e+00 0.0000000000e+00 
          0.0000000000e+00 4.6153850000e+00 0.0000000000e+00 
          0.0000000000e+00 5.3846150000e+00 0.0000000000e+00 
          0.0000000000e+00 6.1538460000e+00 0.0000000000e+00 
          0.0000000000e+00 6.9230770000e+00 0.0000000000e+00 
          0.0000000000e+00 7.6923080000e+00 0.0000000000e+00 
          0.0000000000e+00 8.4615380000e+00 0.0000000000e+00 
          0.0000000000e+00 9.2307690000e+00 0.0000000000e+00 
          0.0000000000e+00 1.0000000000e+01 0.0000000000e+00 
          0.0000000000e+00 1.0769231000e+01 0.0000000000e+00 
          0.0000000000e+00 1.1538462000e+01 0.0000000000e+00 
          0.0000000000e+00 1.2307692000e+01 0.0000000000e+00 
          0.0000000000e+00 1.3076923000e+01 0.0000000000e+00 
          0.0000000000e+00 1.3846154000e+01 0.0000000000e+00 
          0.0000000000e+00 1.4615385000e+01 0.0000000000e+00 
          0.0000000000e+00 1.5384615000e+01 0.0000000000e+00 
          0.0000000000e+00 1.6153846000e+01 0.0000000000e+00 
          0.0000000000e+00 1.6923077000e+01 0.0000000000e+00 
          0.0000000000e+00 1.7692308000e+01 0.0000000000e+00 
          0.0000000000e+00 1.8461538000e+01 0.0000000000e+00 
          0.0000000000e+00 1.9230769000e+01 0.0000000000e+00 
          0.0000000000e+00 2.0000000000e+01 0.0000000000e+00 
          0.0000000000e+00 2.0769231000e+01 0.0000000000e+00 
          0.0000000000e+00 2.1538462000e+01 0.0000000000e+00 
          0.0000000000e+00 2.2307692000e+01 0.0000000000e+00 
          0.0000000000e+00 2.3076923000e+01 0.0000000000e+00 
          0.0000000000e+00 2.3846154000e+01 0.0000000000e+00 
          0.0000000000e+00 2.4615385000e+01 0.0000000000e+00 
          0.0000000000e+00 2.5384615000e+01 0.0000000000e+00 
          0.0000000000e+00 2.6153846000e+01 0.0000000000e+00 
          0.0000000000e+00 2.6923077000e+01 0.0000000000e+00 
          0.0000000000e+00 2.7692308000e+01 0.0000000000e+00 
          0.0000000000e+00 2.8461538000e+01 0.0000000000e+00 
          0.0000000000e+00 2.9230769000e+01 0.0000000000e+00 
        </DataArray>
      </Points>
      <Cells>
        <DataArray type="Int64" Name="connectivity" format="ascii">
          0 1 4 42 
          42 4 5 43 
          43 5 6 44 
          44 6 7 45 
          45 7 8 46 
          46 8 9 47 
          47 9 10 48 
          48 10 11 49 
          49 11 12 50 
          50 12 13 51 
          51 13 14 52 
          52 14 15 53 
          53 15 16 54 
          54 16 17 55 
          55 17 18 56 
          56 18 19 57 
          57 19 20 58 
          58 20 21 59 
          59 21 22 60 
          60 22 23 61 
          61 23 24 62 
          62 24 25 63 
          63 25 26 64 
          64 26 27 65 
          65 27 28 66 
          66 28 29 67 
          67 29 30 68 
          68 30 31 69 
          69 31 32 70 
          70 32 33 71 
          71 33 34 72 
          72 34 35 73 
          73 35 36 74 
          74 36 37 75 
          75 37 38 76 
          76 38 39 77 
          77 39 40 78 
          78 40 41 79 
          79 41 2 3 
        </DataArray>
        <DataArray type="Int64" Name="offsets" format="ascii">
          4
          8
          12
          16
          20
          24
          28
          32
          36
          40
          44
          48
          52
          56
          60
          64
          68
          72
          76
          80
          84
          88
          92
          96
          100
          104
          108
          112
          116
          120
          124
          128
          132
          136
          140
          144
          148
          152
          156
        </DataArray>
        <DataArray type="Int64" Name="types" format="ascii">
          9
          9
          9
          9
          9
          9
          9
          9
          9
          9
          9
          9
          9
          9
          9
          9
          9
          9
          9
          9
          9
          9
          9
          9
          9
          9
          9
          9
          9
          9
          9
          9
          9
          9
          9
          9
          9
          9
          9
        </DataArray>
      </Cells>
      <PointData>
        <DataArray type="Int64" Name="NodeTag" format="ascii">
          1
          2
          3
          4
          7
          8
          9
          10
          11
          12
          13
          14
          15
          16
          17
          18
          19
          20
          21
          22
          23
          24
          25
          26
          27
          28
          29
          30
          31
          32
          33
          34
          35
          36
          37
          38
          39
          40
          41
          42
          43
          44
          45
          46
          47
          48
          49
          50
          51
          52
          53
          54
          55
          56
          57
          58
          59
          60
          61
          62
          63
          64
          65
          66
          67
          68
          69
          70
          71
          72
          73
          74
          75
          76
          77
          78
          79
          80
          81
          82
        </DataArray>
        <DataArray type="Float64" Name="Velocity" NumberOfComponents="3" format="ascii">
          5.6202483432e-03 -7.7846368026e-05 0.0000000000e+00 
          5.6202483432e-03 -7.7846368026e-05 0.0000000000e+00 
          -4.2606924878e-02 -7.8710255003e-05 0.0000000000e+00 
          -4.2606924878e-02 -7.8710255003e-05 0.0000000000e+00 
          3.7279821520e-03 -7.7919553755e-05 0.0000000000e+00 
          1.8335168639e-03 -7.7849770690e-05 0.0000000000e+00 
          -5.9793843029e-05 -7.7902078418e-05 0.0000000000e+00 
          -1.9486311879e-03 -7.7948796097e-05 0.0000000000e+00 
          -3.8296744122e-03 -7.7957016676e-05 0.0000000000e+00 
          -5.6996107937e-03 -7.7956741008e-05 0.0000000000e+00 
          -7.5551403927e-03 -7.7989002238e-05 0.0000000000e+00 
          -9.3930111429e-03 -7.8104288444e-05 0.0000000000e+00 
          -1.1209990242e-02 -7.8002234970e-05 0.0000000000e+00 
          -1.3002870442e-02 -7.8183390000e-05 0.0000000000e+00 
          -1.4768511452e-02 -7.8128745705e-05 0.0000000000e+00 
          -1.6503774431e-02 -7.8144710855e-05 0.0000000000e+00 
          -1.8205619109e-02 -7.8231694223e-05 0.0000000000e+00 
          -1.9871052371e-02 -7.8163181226e-05 0.0000000000e+00 
          -2.1497089464e-02 -7.8314881555e-05 0.0000000000e+00 
          -2.3080888254e-02 -7.8161688557e-05 0.0000000000e+00 
          -2.4619629710e-02 -7.8263140444e-05 0.0000000000e+00 
          -2.6110604588e-02 -7.8265144489e-05 0.0000000000e+00 
          -2.7551157253e-02 -7.8382616248e-05 0.0000000000e+00 
          -2.8938694152e-02 -7.8342772584e-05 0.0000000000e+00 
          -3.0270806850e-02 -7.8302850575e-05 0.0000000000e+00 
          -3.1545081198e-02 -7.8475293511e-05 0.0000000000e+00 
          -3.2759247697e-02 -7.8356945939e-05 0.0000000000e+00 
          -3.3911163915e-02 -7.8373160875e-05 0.0000000000e+00 
          -3.4998728190e-02 -7.8578794862e-05 0.0000000000e+00 
          -3.6020035619e-02 -7.8392269474e-05 0.0000000000e+00 
          -3.6973242371e-02 -7.8524510419e-05 0.0000000000e+00 
          -3.7856634330e-02 -7.8581350565e-05 0.0000000000e+00 
          -3.8668630144e-02 -7.8437070193e-05 0.0000000000e+00 
          -3.9407761977e-02 -7.8692315439e-05 0.0000000000e+00 
          -4.0072706223e-02 -7.8622835594e-05 0.0000000000e+00 
          -4.0662291184e-02 -7.8598061348e-05 0.0000000000e+00 
          -4.1175424334e-02 -7.8676486282e-05 0.0000000000e+00 
          -4.1611170702e-02 -7.8726399007e-05 0.0000000000e+00 
          -4.1968796113e-02 -7.8725819508e-05 0.0000000000e+00 
          -4.2247598999e-02 -7.8700416919e-05 0.0000000000e+00 
          -4.2447112533e-02 -7.8730258874e-05 0.0000000000e+00 
          -4.2566966989e-02 -7.8752119018e-05 0.0000000000e+00 
          3.7279821520e-03 -7.7919553755e-05 0.0000000000e+00 
          1.8335168639e-03 -7.7849770690e-05 0.0000000000e+00 
          -5.9793843029e-05 -7.7902078418e-05 0.0000000000e+00 
          -1.9486311879e-03 -7.7948796097e-05 0.0000000000e+00 
          -3.8296744122e-03 -7.7957016676e-05 0.0000000000e+00 
          -5.6996107937e-03 -7.7956741008e-05 0.0000000000e+00 
          -7.5551403927e-03 -7.7989002238e-05 0.0000000000e+00 
          -9.3930111429e-03 -7.8104288444e-05 0.0000000000e+00 
          -1.1209990242e-02 -7.8002234970e-05 0.0000000000e+00 
          -1.3002870442e-02 -7.8183390000e-05 0.0000000000e+00 
          -1.4768511452e-02 -7.8128745705e-05 0.0000000000e+00 
          -1.6503774431e-02 -7.8144710855e-05 0.0000000000e+00 
          -1.8205619109e-02 -7.8231694223e-05 0.0000000000e+00 
          -1.9871052371e-02 -7.8163181226e-05 0.0000000000e+00 
          -2.1497089464e-02 -7.8314881555e-05 0.0000000000e+00 
          -2.3080888254e-02 -7.8161688557e-05 0.0000000000e+00 
          -2.4619629710e-02 -7.8263140444e-05 0.0000000000e+00 
          -2.6110604588e-02 -7.8265144489e-05 0.0000000000e+00 
          -2.7551157253e-02 -7.8382616248e-05 0.0000000000e+00 
          -2.8938694152e-02 -7.8342772584e-05 0.0000000000e+00 
          -3.0270806850e-02 -7.8302850575e-05 0.0000000000e+00 
          -3.1545081198e-02 -7.8475293511e-05 0.0000000000e+00 
          -3.2759247697e-02 -7.8356945939e-05 0.0000000000e+00 
          -3.3911163915e-02 -7.8373160875e-05 0.0000000000e+00 
          -3.4998728190e-02 -7.8578794862e-05 0.0000000000e+00 
          -3.6020035619e-02 -7.8392269474e-05 0.0000000000e+00 
          -3.6973242371e-02 -7.8524510419e-05 0.0000000000e+00 
          -3.7856634330e-02 -7.8581350565e-05 0.0000000000e+00 
          -3.8668630144e-02 -7.8437070193e-05 0.0000000000e+00 
          -3.9407761977e-02 -7.8692315439e-05 0.0000000000e+00 
          -4.0072706223e-02 -7.8622835594e-05 0.0000000000e+00 
          -4.0662291184e-02 -7.8598061348e-05 0.0000000000e+00 
          -4.1175424334e-02 -7.8676486282e-05 0.0000000000e+00 
          -4.1611170702e-02 -7.8726399007e-05 0.0000000000e+00 
          -4.1968796113e-02 -7.8725819508e-05 0.0000000000e+00 
          -4.2247598999e-02 -7.8700416919e-05 0.0000000000e+00 
          -4.2447112533e-02 -7.8730258874e-05 0.0000000000e+00 
          -4.2566966989e-02 -7.8752119018e-05 0.0000000000e+00 
        </DataArray>
        <DataArray type="Float64" Name="Displacement" NumberOfComponents="3" format="ascii">
          6.4956451695e-04 -2.9319976454e-04 0.0000000000e+00 
          6.4956451695e-04 -2.9319976454e-04 0.0000000000e+00 
          2.6725906604e-03 -3.1678480243e-04 0.0000000000e+00 
          2.6725906604e-03 -3.1678480243e-04 0.0000000000e+00 
          7.4226686410e-04 -2.9439355209e-04 0.0000000000e+00 
          8.3361565772e-04 -2.9555610004e-04 0.0000000000e+00 
          9.2352240328e-04 -2.9668811193e-04 0.0000000000e+00 
          1.0119012740e-03 -2.9778876106e-04 0.0000000000e+00 
          1.0986686114e-03 -2.9885830212e-04 0.0000000000e+00 
          1.1837434304e-03 -2.9989734757e-04 0.0000000000e+00 
          1.2670472219e-03 -3.0090499791e-04 0.0000000000e+00 
          1.3485045573e-03 -3.0188182006e-04 0.0000000000e+00 
          1.4280423302e-03 -3.0282757579e-04 0.0000000000e+00 
          1.5055904067e-03 -3.0374240991e-04 0.0000000000e+00 
          1.5810813070e-03 -3.0462614447e-04 0.0000000000e+00 
          1.6544507103e-03 -3.0547889234e-04 0.0000000000e+00 
          1.7256368910e-03 -3.0630067454e-04 0.0000000000e+00 
          1.7945809817e-03 -3.0709135930e-04 0.0000000000e+00 
          1.8612271439e-03 -3.0785116119e-04 0.0000000000e+00 
          1.9255222063e-03 -3.0857993235e-04 0.0000000000e+00 
          1.9874160926e-03 -3.0927775203e-04 0.0000000000e+00 
          2.0468613553e-03 -3.0994432260e-04 0.0000000000e+00 
          2.1038133255e-03 -3.1058024009e-04 0.0000000000e+00 
          2.1582300272e-03 -3.1118499524e-04 0.0000000000e+00 
          2.2100723913e-03 -3.1175873887e-04 0.0000000000e+00 
          2.2593037574e-03 -3.1230182726e-04 0.0000000000e+00 
          2.3058901036e-03 -3.1281358719e-04 0.0000000000e+00 
          2.3497998034e-03 -3.1329433719e-04 0.0000000000e+00 
          2.3910038494e-03 -3.1374419165e-04 0.0000000000e+00 
          2.4294754251e-03 -3.1416309793e-04 0.0000000000e+00 
          2.4651900707e-03 -3.1455092693e-04 0.0000000000e+00 
          2.4981254566e-03 -3.1490767133e-04 0.0000000000e+00 
          2.5282613357e-03 -3.1523346107e-04 0.0000000000e+00 
          2.5555797250e-03 -3.1552832582e-04 0.0000000000e+00 
          2.5800643836e-03 -3.1579197797e-04 0.0000000000e+00 
          2.6017010755e-03 -3.1602450585e-04 0.0000000000e+00 
          2.6204773602e-03 -3.1622639189e-04 0.0000000000e+00 
          2.6363826170e-03 -3.1639687941e-04 0.0000000000e+00 
          2.6494080158e-03 -3.1653653907e-04 0.0000000000e+00 
          2.6595462910e-03 -3.1664524911e-04 0.0000000000e+00 
          2.6667918509e-03 -3.1672271169e-04 0.0000000000e+00 
          2.6711407713e-03 -3.1676943069e-04 0.0000000000e+00 
          7.4226686410e-04 -2.9439355209e-04 0.0000000000e+00 
          8.3361565772e-04 -2.9555610004e-04 0.0000000000e+00 
          9.2352240328e-04 -2.9668811193e-04 0.0000000000e+00 
          1.0119012740e-03 -2.9778876106e-04 0.0000000000e+00 
          1.0986686114e-03 -2.9885830212e-04 0.0000000000e+00 
          1.1837434304e-03 -2.9989734757e-04 0.0000000000e+00 
          1.2670472219e-03 -3.0090499791e-04 0.0000000000e+00 
          1.3485045573e-03 -3.0188182006e-04 0.0000000000e+00 
          1.4280423302e-03 -3.0282757579e-04 0.0000000000e+00 
          1.5055904067e-03 -3.0374240991e-04 0.0000000000e+00 
          1.5810813070e-03 -3.0462614447e-04 0.0000000000e+00 
          1.6544507103e-03 -3.0547889234e-04 0.0000000000e+00 
          1.7256368910e-03 -3.0630067454e-04 0.0000000000e+00 
          1.7945809817e-03 -3.0709135930e-04 0.0000000000e+00 
          1.8612271439e-03 -3.0785116119e-04 0.0000000000e+00 
          1.9255222063e-03 -3.0857993235e-04 0.0000000000e+00 
          1.9874160926e-03 -3.0927775203e-04 0.0000000000e+00 
          2.0468613553e-03 -3.0994432260e-04 0.0000000000e+00 
          2.1038133255e-03 -3.1058024009e-04 0.0000000000e+00 
          2.1582300272e-03 -3.1118499524e-04 0.0000000000e+00 
          2.2100723913e-03 -3.1175873887e-04 0.0000000000e+00 
          2.2593037574e-03 -3.1230182726e-04 0.0000000000e+00 
          2.3058901036e-03 -3.1281358719e-04 0.0000000000e+00 
          2.3497998034e-03 -3.1329433719e-04 0.0000000000e+00 
          2.3910038494e-03 -3.1374419165e-04 0.0000000000e+00 
          2.4294754251e-03 -3.1416309793e-04 0.0000000000e+00 
          2.4651900707e-03 -3.1455092693e-04 0.0000000000e+00 
          2.4981254566e-03 -3.1490767133e-04 0.0000000000e+00 
          2.5282613357e-03 -3.1523346107e-04 0.0000000000e+00 
          2.5555797250e-03 -3.1552832582e-04 0.0000000000e+00 
          2.5800643836e-03 -3.1579197797e-04 0.0000000000e+00 
          2.6017010755e-03 -3.1602450585e-04 0.0000000000e+00 
          2.6204773602e-03 -3.1622639189e-04 0.0000000000e+00 
          2.6363826170e-03 -3.1639687941e-04 0.0000000000e+00 
          2.6494080158e-03 -3.1653653907e-04 0.0000000000e+00 
          2.6595462910e-03 -3.1664524911e-04 0.0000000000e+00 
          2.6667918509e-03 -3.1672271169e-04 0.0000000000e+00 
          2.6711407713e-03 -3.1676943069e-04 0.0000000000e+00 
        </DataArray>
        <DataArray type="Float64" Name="Acceleration" NumberOfComponents="3" format="ascii">
          -1.1377941359e-01 -5.1957542846e-06 0.0000000000e+00 
          -1.1377941359e-01 -5.1957542846e-06 0.0000000000e+00 
          -2.6127573456e-01 -4.7367640572e-05 0.0000000000e+00 
          -2.6127573456e-01 -4.7367640572e-05 0.0000000000e+00 
          -1.2195784610e-01 4.2034361279e-05 0.0000000000e+00 
          -1.2992093147e-01 -8.5006405084e-05 0.0000000000e+00 
          -1.3767516400e-01 6.4498063407e-05 0.0000000000e+00 
          -1.4520233078e-01 1.8331049154e-05 0.0000000000e+00 
          -1.5249924439e-01 -9.2034425024e-05 0.0000000000e+00 
          -1.5956343555e-01 6.9827009060e-05 0.0000000000e+00 
          -1.6637919868e-01 -3.1864054638e-05 0.0000000000e+00 
          -1.7295636615e-01 1.0827257385e-05 0.0000000000e+00 
          -1.7927558424e-01 -1.5267908150e-05 0.0000000000e+00 
          -1.8534691368e-01 1.6596444206e-05 0.0000000000e+00 
          -1.9116004046e-01 -3.3305069987e-06 0.0000000000e+00 
          -1.9671266047e-01 -7.3283778650e-06 0.0000000000e+00 
          -2.0201673861e-01 1.6416716115e-05 0.0000000000e+00 
          -2.0704789820e-01 -2.2248135423e-05 0.0000000000e+00 
          -2.1183133563e-01 4.2286928615e-06 0.0000000000e+00 
          -2.1635838494e-01 -9.7114222258e-06 0.0000000000e+00 
          -2.2062582974e-01 4.3747031681e-05 0.0000000000e+00 
          -2.2465056307e-01 -6.3657095428e-05 0.0000000000e+00 
          -2.2842648454e-01 2.7975256690e-05 0.0000000000e+00 
          -2.3195942369e-01 1.0779227875e-06 0.0000000000e+00 
          -2.3525607001e-01 -6.3267495419e-05 0.0000000000e+00 
          -2.3832151945e-01 5.8046004901e-05 0.0000000000e+00 
          -2.4116614845e-01 5.4007277489e-07 0.0000000000e+00 
          -2.4379004100e-01 -1.9851365417e-05 0.0000000000e+00 
          -2.4620097929e-01 -1.0479776904e-05 0.0000000000e+00 
          -2.4840483582e-01 1.2785600519e-05 0.0000000000e+00 
          -2.5041679684e-01 1.4102779529e-05 0.0000000000e+00 
          -2.5223772040e-01 -9.3853092609e-06 0.0000000000e+00 
          -2.5386509278e-01 -1.4580310394e-05 0.0000000000e+00 
          -2.5532472767e-01 3.7171293592e-05 0.0000000000e+00 
          -2.5660742743e-01 2.1251203224e-05 0.0000000000e+00 
          -2.5772631394e-01 -6.5728840025e-05 0.0000000000e+00 
          -2.5868763487e-01 7.0725970067e-05 0.0000000000e+00 
          -2.5948090904e-01 -3.2163239749e-05 0.0000000000e+00 
          -2.6013553050e-01 -1.0220454452e-05 0.0000000000e+00 
          -2.6063868046e-01 4.3437206324e-05 0.0000000000e+00 
          -2.6099395424e-01 -4.7328633313e-05 0.0000000000e+00 
          -2.6120845362e-01 6.1435775077e-05 0.0000000000e+00 
          -1.2195784610e-01 4.2034361279e-05 0.0000000000e+00 
          -1.2992093147e-01 -8.5006405084e-05 0.0000000000e+00 
          -1.3767516400e-01 6.4498063407e-05 0.0000000000e+00 
          -1.4520233078e-01 1.8331049154e-05 0.0000000000e+00 
          -1.5249924439e-01 -9.2034425024e-05 0.0000000000e+00 
          -1.5956343555e-01 6.9827009060e-05 0.0000000000e+00 
          -1.6637919868e-01 -3.1864054638e-05 0.0000000000e+00 
          -1.7295636615e-01 1.0827257385e-05 0.0000000000e+00 
          -1.7927558424e-01 -1.5267908150e-05 0.0000000000e+00 
          -1.8534691368e-01 1.6596444206e-05 0.0000000000e+00 
          -1.9116004046e-01 -3.3305069987e-06 0.0000000000e+00 
          -1.9671266047e-01 -7.3283778650e-06 0.0000000000e+00 
          -2.0201673861e-01 1.6416716115e-05 0.0000000000e+00 
          -2.0704789820e-01 -2.2248135423e-05 0.0000000000e+00 
          -2.1183133563e-01 4.2286928615e-06 0.0000000000e+00 
          -2.1635838494e-01 -9.7114222258e-06 0.0000000000e+00 
          -2.2062582974e-01 4.3747031681e-05 0.0000000000e+00 
          -2.2465056307e-01 -6.3657095428e-05 0.0000000000e+00 
          -2.2842648454e-01 2.7975256690e-05 0.0000000000e+00 
          -2.3195942369e-01 1.0779227875e-06 0.0000000000e+00 
          -2.3525607001e-01 -6.3267495419e-05 0.0000000000e+00 
          -2.3832151945e-01 5.8046004901e-05 0.0000000000e+00 
          -2.4116614845e-01 5.4007277489e-07 0.0000000000e+00 
          -2.4379004100e-01 -1.9851365417e-05 0.0000000000e+00 
          -2.4620097929e-01 -1.0479776904e-05 0.0000000000e+00 
          -2.4840483582e-01 1.2785600519e-05 0.0000000000e+00 
          -2.5041679684e-01 1.4102779529e-05 0.0000000000e+00 
          -2.5223772040e-01 -9.3853092609e-06 0.0000000000e+00 
          -2.5386509278e-01 -1.4580310394e-05 0.0000000000e+00 
          -2.5532472767e-01 3.7171293592e-05 0.0000000000e+00 
          -2.5660742743e-01 2.1251203224e-05 0.0000000000e+00 
          -2.5772631394e-01 -6.5728840025e-05 0.0000000000e+00 
          -2.5868763487e-01 7.0725970067e-05 0.0000000000e+00 
          -2.5948090904e-01 -3.2163239749e-05 0.0000000000e+00 
          -2.6013553050e-01 -1.0220454452e-05 0.0000000000e+00 
          -2.6063868046e-01 4.3437206324e-05 0.0000000000e+00 
          -2.6099395424e-01 -4.7328633313e-05 0.0000000000e+00 
          -2.6120845362e-01 6.1435775077e-05 0.0000000000e+00 
        </DataArray>
        <DataArray type="Float64" Name="Reaction" NumberOfComponents="3" format="ascii">
          0.0000000000e+00 0.0000000000e+00 0.0000000000e+00 
          0.0000000000e+00 0.0000000000e+00 0.0000000000e+00 
          0.0000000000e+00 0.0000000000e+00 0.0000000000e+00 
          0.0000000000e+00 0.0000000000e+00 0.0000000000e+00 
          0.0000000000e+00 0.0000000000e+00 0.0000000000e+00 
          0.0000000000e+00 0.0000000000e+00 0.0000000000e+00 
          0.0000000000e+00 0.0000000000e+00 0.0000000000e+00 
          0.0000000000e+00 0.0000000000e+00 0.0000000000e+00 
          0.0000000000e+00 0.0000000000e+00 0.0000000000e+00 
          0.0000000000e+00 0.0000000000e+00 0.0000000000e+00 
          0.0000000000e+00 0.0000000000e+00 0.0000000000e+00 
          0.0000000000e+00 0.0000000000e+00 0.0000000000e+00 
          0.0000000000e+00 0.0000000000e+00 0.0000000000e+00 
          0.0000000000e+00 0.0000000000e+00 0.0000000000e+00 
          0.0000000000e+00 0.0000000000e+00 0.0000000000e+00 
          0.0000000000e+00 0.0000000000e+00 0.0000000000e+00 
          0.0000000000e+00 0.0000000000e+00 0.0000000000e+00 
          0.0000000000e+00 0.0000000000e+00 0.0000000000e+00 
          0.0000000000e+00 0.0000000000e+00 0.0000000000e+00 
          0.0000000000e+00 0.0000000000e+00 0.0000000000e+00 
          0.0000000000e+00 0.0000000000e+00 0.0000000000e+00 
          0.0000000000e+00 0.0000000000e+00 0.0000000000e+00 
          0.0000000000e+00 0.0000000000e+00 0.0000000000e+00 
          0.0000000000e+00 0.0000000000e+00 0.0000000000e+00 
          0.0000000000e+00 0.0000000000e+00 0.0000000000e+00 
          0.0000000000e+00 0.0000000000e+00 0.0000000000e+00 
          0.0000000000e+00 0.0000000000e+00 0.0000000000e+00 
          0.0000000000e+00 0.0000000000e+00 0.0000000000e+00 
          0.0000000000e+00 0.0000000000e+00 0.0000000000e+00 
          0.0000000000e+00 0.0000000000e+00 0.0000000000e+00 
          0.0000000000e+00 0.0000000000e+00 0.0000000000e+00 
          0.0000000000e+00 0.0000000000e+00 0.0000000000e+00 
          0.0000000000e+00 0.0000000000e+00 0.0000000000e+00 
          0.0000000000e+00 0.0000000000e+00 0.0000000000e+00 
          0.0000000000e+00 0.0000000000e+00 0.0000000000e+00 
          0.0000000000e+00 0.0000000000e+00 0.0000000000e+00 
          0.0000000000e+00 0.0000000000e+00 0.0000000000e+00 
          0.0000000000e+00 0.0000000000e+00 0.0000000000e+00 
          0.0000000000e+00 0.0000000000e+00 0.0000000000e+00 
          0.0000000000e+00 0.0000000000e+00 0.0000000000e+00 
          0.0000000000e+00 0.0000000000e+00 0.0000000000e+00 
          0.0000000000e+00 0.0000000000e+00 0.0000000000e+00 
          0.0000000000e+00 0.0000000000e+00 0.0000000000e+00 
          0.0000000000e+00 0.0000000000e+00 0.0000000000e+00 
          0.0000000000e+00 0.0000000000e+00 0.0000000000e+00 
          0.0000000000e+00 0.0000000000e+00 0.0000000000e+00 
          0.0000000000e+00 0.0000000000e+00 0.0000000000e+00 
          0.0000000000e+00 0.0000000000e+00 0.0000000000e+00 
          0.0000000000e+00 0.0000000000e+00 0.0000000000e+00 
          0.0000000000e+00 0.0000000000e+00 0.0000000000e+00 
          0.0000000000e+00 0.0000000000e+00 0.0000000000e+00 
          0.0000000000e+00 0.0000000000e+00 0.0000000000e+00 
          0.0000000000e+00 0.0000000000e+00 0.0000000000e+00 
          0.0000000000e+00 0.0000000000e+00 0.0000000000e+00 
          0.0000000000e+00 0.0000000000e+00 0.0000000000e+00 
          0.0000000000e+00 0.0000000000e+00 0.0000000000e+00 
          0.0000000000e+00 0.0000000000e+00 0.0000000000e+00 
          0.0000000000e+00 0.0000000000e+00 0.0000000000e+00 
          0.0000000000e+00 0.0000000000e+00 0.0000000000e+00 
          0.0000000000e+00 0.0000000000e+00 0.0000000000e+00 
          0.0000000000e+00 0.0000000000e+00 0.0000000000e+00 
          0.0000000000e+00 0.0000000000e+00 0.0000000000e+00 
          0.0000000000e+00 0.0000000000e+00 0.0000000000e+00 
          0.0000000000e+00 0.0000000000e+00 0.0000000000e+00 
          0.0000000000e+00 0.0000000000e+00 0.0000000000e+00 
          0.0000000000e+00 0.0000000000e+00 0.0000000000e+00 
          0.0000000000e+00 0.0000000000e+00 0.0000000000e+00 
          0.0000000000e+00 0.0000000000e+00 0.0000000000e+00 
          0.0000000000e+00 0.0000000000e+00 0.0000000000e+00 
          0.0000000000e+00 0.0000000000e+00 0.0000000000e+00 
          0.0000000000e+00 0.0000000000e+00 0.0000000000e+00 
          0.0000000000e+00 0.0000000000e+00 0.0000000000e+00 
          0.0000000000e+00 0.0000000000e+00 0.0000000000e+00 
          0.0000000000e+00 0.0000000000e+00 0.0000000000e+00 
          0.0000000000e+00 0.0000000000e+00 0.0000000000e+00 
          0.0000000000e+00 0.0000000000e+00 0.0000000000e+00 
          0.0000000000e+00 0.0000000000e+00 0.0000000000e+00 
          0.0000000000e+00 0.0000000000e+00 0.0000000000e+00 
          0.0000000000e+00 0.0000000000e+00 0.0000000000e+00 
          0.0000000000e+00 0.0000000000e+00 0.0000000000e+00 
        </DataArray>
      </PointData>
      <CellData>
        <DataArray type="Int64" Name="ElementTag" format="ascii">
          90
          91
          92
          93
          94
          95
          96
          97
          98
          99
          100
          101
          102
          103
          104
          105
          106
          107
          108
          109
          110
          111
          112
          113
          114
          115
          116
          117
          118
          119
          120
          121
          122
          123
          124
          125
          126
          127
          128
        </DataArray>
      </CellData>
    </Piece>
  </UnstructuredGrid>
</VTKFile>
