<?xml version="1.0"?>
<VTKFile type="UnstructuredGrid" version="1.0" byte_order="LittleEndian" compressor="vtkZLibDataCompressor">
  <UnstructuredGrid>
    <Piece NumberOfPoints="82" NumberOfCells="1">
      <Points>
        <DataArray type="Float64" Name="Points" NumberOfComponents="3" format="ascii">
          0.0000000000e+00 0.0000000000e+00 0.0000000000e+00 
          2.5000000000e-01 0.0000000000e+00 0.0000000000e+00 
          2.5000000000e-01 3.0000000000e+01 0.0000000000e+00 
          0.0000000000e+00 3.0000000000e+01 0.0000000000e+00 
          0.0000000000e+00 -5.0000000000e+00 0.0000000000e+00 
          2.5000000000e-01 -5.0000000000e+00 0.0000000000e+00 
          2.5000000000e-01 7.6923100000e-01 0.0000000000e+00 
          2.5000000000e-01 1.5384620000e+00 0.0000000000e+00 
          2.5000000000e-01 2.3076920000e+00 0.0000000000e+00 
          2.5000000000e-01 3.0769230000e+00 0.0000000000e+00 
          2.5000000000e-01 3.8461540000e+00 0.0000000000e+00 
          2.5000000000e-01 4.6153850000e+00 0.0000000000e+00 
          2.5000000000e-01 5.3846150000e+00 0.0000000000e+00 
          2.5000000000e-01 6.1538460000e+00 0.0000000000e+00 
          2.5000000000e-01 6.9230770000e+00 0.0000000000e+00 
          2.5000000000e-01 7.6923080000e+00 0.0000000000e+00 
          2.5000000000e-01 8.4615380000e+00 0.0000000000e+00 
          2.5000000000e-01 9.2307690000e+00 0.0000000000e+00 
          2.5000000000e-01 1.0000000000e+01 0.0000000000e+00 
          2.5000000000e-01 1.0769231000e+01 0.0000000000e+00 
          2.5000000000e-01 1.1538462000e+01 0.0000000000e+00 
          2.5000000000e-01 1.2307692000e+01 0.0000000000e+00 
          2.5000000000e-01 1.3076923000e+01 0.0000000000e+00 
          2.5000000000e-01 1.3846154000e+01 0.0000000000e+00 
          2.5000000000e-01 1.4615385000e+01 0.0000000000e+00 
          2.5000000000e-01 1.5384615000e+01 0.0000000000e+00 
          2.5000000000e-01 1.6153846000e+01 0.0000000000e+00 
          2.5000000000e-01 1.6923077000e+01 0.0000000000e+00 
          2.5000000000e-01 1.7692308000e+01 0.0000000000e+00 
          2.5000000000e-01 1.8461538000e+01 0.0000000000e+00 
          2.5000000000e-01 1.9230769000e+01 0.0000000000e+00 
          2.5000000000e-01 2.0000000000e+01 0.0000000000e+00 
          2.5000000000e-01 2.0769231000e+01 0.0000000000e+00 
          2.5000000000e-01 2.1538462000e+01 0.0000000000e+00 
          2.5000000000e-01 2.2307692000e+01 0.0000000000e+00 
          2.5000000000e-01 2.3076923000e+01 0.0000000000e+00 
          2.5000000000e-01 2.3846154000e+01 0.0000000000e+00 
          2.5000000000e-01 2.4615385000e+01 0.0000000000e+00 
          2.5000000000e-01 2.5384615000e+01 0.0000000000e+00 
          2.5000000000e-01 2.6153846000e+01 0.0000000000e+00 
          2.5000000000e-01 2.6923077000e+01 0.0000000000e+00 
          2.5000000000e-01 2.7692308000e+01 0.0000000000e+00 
          2.5000000000e-01 2.8461538000e+01 0.0000000000e+00 
          2.5000000000e-01 2.9230769000e+01 0.0000000000e+00 
          0.0000000000e+00 7.6923100000e-01 0.0000000000e+00 
          0.0000000000e+00 1.5384620000e+00 0.0000000000e+00 
          0.0000000000e+00 2.3076920000e+00 0.0000000000e+00 
          0.0000000000e+00 3.0769230000e+00 0.0000000000e+00 
          0.0000000000e+00 3.8461540000e+00 0.0000000000e+00 
          0.0000000000e+00 4.6153850000e+00 0.0000000000e+00 
          0.0000000000e+00 5.3846150000e+00 0.0000000000e+00 
          0.0000000000e+00 6.1538460000e+00 0.0000000000e+00 
          0.0000000000e+00 6.9230770000e+00 0.0000000000e+00 
          0.0000000000e+00 7.6923080000e+00 0.0000000000e+00 
          0.0000000000e+00 8.4615380000e+00 0.0000000000e+00 
          0.0000000000e+00 9.2307690000e+00 0.0000000000e+00 
          0.0000000000e+00 1.0000000000e+01 0.0000000000e+00 
          0.0000000000e+00 1.0769231000e+01 0.0000000000e+00 
          0.0000000000e+00 1.1538462000e+01 0.0000000000e+00 
          0.0000000000e+00 1.2307692000e+01 0.0000000000e+00 
          0.0000000000e+00 1.3076923000e+01 0.0000000000e+00 
          0.0000000000e+00 1.3846154000e+01 0.0000000000e+00 
          0.0000000000e+00 1.4615385000e+01 0.0000000000e+00 
          0.0000000000e+00 1.5384615000e+01 0.0000000000e+00 
          0.0000000000e+00 1.6153846000e+01 0.0000000000e+00 
          0.0000000000e+00 1.6923077000e+01 0.0000000000e+00 
          0.0000000000e+00 1.7692308000e+01 0.0000000000e+00 
          0.0000000000e+00 1.8461538000e+01 0.0000000000e+00 
          0.0000000000e+00 1.9230769000e+01 0.0000000000e+00 
          0.0000000000e+00 2.0000000000e+01 0.0000000000e+00 
          0.0000000000e+00 2.0769231000e+01 0.0000000000e+00 
          0.0000000000e+00 2.1538462000e+01 0.0000000000e+00 
          0.0000000000e+00 2.2307692000e+01 0.0000000000e+00 
          0.0000000000e+00 2.3076923000e+01 0.0000000000e+00 
          0.0000000000e+00 2.3846154000e+01 0.0000000000e+00 
          0.0000000000e+00 2.4615385000e+01 0.0000000000e+00 
          0.0000000000e+00 2.5384615000e+01 0.0000000000e+00 
          0.0000000000e+00 2.6153846000e+01 0.0000000000e+00 
          0.0000000000e+00 2.6923077000e+01 0.0000000000e+00 
          0.0000000000e+00 2.7692308000e+01 0.0000000000e+00 
          0.0000000000e+00 2.8461538000e+01 0.0000000000e+00 
          0.0000000000e+00 2.9230769000e+01 0.0000000000e+00 
        </DataArray>
      </Points>
      <Cells>
        <DataArray type="Int64" Name="connectivity" format="ascii">
          0
          1
          2
          3
          4
          5
          6
          7
          8
          9
          10
          11
          12
          13
          14
          15
          16
          17
          18
          19
          20
          21
          22
          23
          24
          25
          26
          27
          28
          29
          30
          31
          32
          33
          34
          35
          36
          37
          38
          39
          40
          41
          42
          43
          44
          45
          46
          47
          48
          49
          50
          51
          52
          53
          54
          55
          56
          57
          58
          59
          60
          61
          62
          63
          64
          65
          66
          67
          68
          69
          70
          71
          72
          73
          74
          75
          76
          77
          78
          79
          80
          81
        </DataArray>
        <DataArray type="Int64" Name="offsets" format="ascii">
          82
        </DataArray>
        <DataArray type="Int64" Name="types" format="ascii">
          2
        </DataArray>
      </Cells>
      <PointData>
        <DataArray type="Int64" Name="NodeTag" format="ascii">
          1
          2
          3
          4
          5
          6
          7
          8
          9
          10
          11
          12
          13
          14
          15
          16
          17
          18
          19
          20
          21
          22
          23
          24
          25
          26
          27
          28
          29
          30
          31
          32
          33
          34
          35
          36
          37
          38
          39
          40
          41
          42
          43
          44
          45
          46
          47
          48
          49
          50
          51
          52
          53
          54
          55
          56
          57
          58
          59
          60
          61
          62
          63
          64
          65
          66
          67
          68
          69
          70
          71
          72
          73
          74
          75
          76
          77
          78
          79
          80
          81
          82
        </DataArray>
        <DataArray type="Float64" Name="Velocity" NumberOfComponents="3" format="ascii">
          2.3321739645e-05 -7.7844284790e-05 0.0000000000e+00 
          2.3321739645e-05 -7.7844284790e-05 0.0000000000e+00 
          1.9061190736e-04 -7.7850175582e-05 0.0000000000e+00 
          1.9061190736e-04 -7.7850175582e-05 0.0000000000e+00 
          0.0000000000e+00 0.0000000000e+00 0.0000000000e+00 
          0.0000000000e+00 0.0000000000e+00 0.0000000000e+00 
          3.0549487717e-05 -7.7833157472e-05 0.0000000000e+00 
          3.7719046864e-05 -7.7855703607e-05 0.0000000000e+00 
          4.4805977666e-05 -7.7846510606e-05 0.0000000000e+00 
          5.1820097814e-05 -7.7820762678e-05 0.0000000000e+00 
          5.8738955496e-05 -7.7889065855e-05 0.0000000000e+00 
          6.5553428305e-05 -7.7787604179e-05 0.0000000000e+00 
          7.2272216677e-05 -7.7895787609e-05 0.0000000000e+00 
          7.8859235554e-05 -7.7813888273e-05 0.0000000000e+00 
          8.5333929648e-05 -7.7848279538e-05 0.0000000000e+00 
          9.1669345375e-05 -7.7856877015e-05 0.0000000000e+00 
          9.7863434208e-05 -7.7826136141e-05 0.0000000000e+00 
          1.0391819100e-04 -7.7857564179e-05 0.0000000000e+00 
          1.0980467661e-04 -7.7836832970e-05 0.0000000000e+00 
          1.1554117865e-04 -7.7840108142e-05 0.0000000000e+00 
          1.2110047084e-04 -7.7858829913e-05 0.0000000000e+00 
          1.2648758022e-04 -7.7817673146e-05 0.0000000000e+00 
          1.3169375722e-04 -7.7871249488e-05 0.0000000000e+00 
          1.3670713204e-04 -7.7827187850e-05 0.0000000000e+00 
          1.4153153873e-04 -7.7832071854e-05 0.0000000000e+00 
          1.4615444150e-04 -7.7885158880e-05 0.0000000000e+00 
          1.5057211486e-04 -7.7779127366e-05 0.0000000000e+00 
          1.5478059184e-04 -7.7907770560e-05 0.0000000000e+00 
          1.5877358565e-04 -7.7799240864e-05 0.0000000000e+00 
          1.6254914954e-04 -7.7855661454e-05 0.0000000000e+00 
          1.6609781923e-04 -7.7846983597e-05 0.0000000000e+00 
          1.6942496976e-04 -7.7840908392e-05 0.0000000000e+00 
          1.7251233243e-04 -7.7839003157e-05 0.0000000000e+00 
          1.7537360731e-04 -7.7831764948e-05 0.0000000000e+00 
          1.7799321466e-04 -7.7884459803e-05 0.0000000000e+00 
          1.8036795272e-04 -7.7775006501e-05 0.0000000000e+00 
          1.8251062978e-04 -7.7905652287e-05 0.0000000000e+00 
          1.8439412452e-04 -7.7804653352e-05 0.0000000000e+00 
          1.8603871320e-04 -7.7851375723e-05 0.0000000000e+00 
          1.8743408422e-04 -7.7854129521e-05 0.0000000000e+00 
          1.8856935770e-04 -7.7817123378e-05 0.0000000000e+00 
          1.8946461988e-04 -7.7867125665e-05 0.0000000000e+00 
          1.9009789802e-04 -7.7828859331e-05 0.0000000000e+00 
          1.9047589049e-04 -7.7840578983e-05 0.0000000000e+00 
          3.0549487717e-05 -7.7833157472e-05 0.0000000000e+00 
          3.7719046864e-05 -7.7855703607e-05 0.0000000000e+00 
          4.4805977666e-05 -7.7846510606e-05 0.0000000000e+00 
          5.1820097814e-05 -7.7820762678e-05 0.0000000000e+00 
          5.8738955496e-05 -7.7889065855e-05 0.0000000000e+00 
          6.5553428305e-05 -7.7787604179e-05 0.0000000000e+00 
          7.2272216677e-05 -7.7895787609e-05 0.0000000000e+00 
          7.8859235554e-05 -7.7813888273e-05 0.0000000000e+00 
          8.5333929648e-05 -7.7848279538e-05 0.0000000000e+00 
          9.1669345375e-05 -7.7856877015e-05 0.0000000000e+00 
          9.7863434208e-05 -7.7826136141e-05 0.0000000000e+00 
          1.0391819100e-04 -7.7857564179e-05 0.0000000000e+00 
          1.0980467661e-04 -7.7836832970e-05 0.0000000000e+00 
          1.1554117865e-04 -7.7840108142e-05 0.0000000000e+00 
          1.2110047084e-04 -7.7858829913e-05 0.0000000000e+00 
          1.2648758022e-04 -7.7817673146e-05 0.0000000000e+00 
          1.3169375722e-04 -7.7871249488e-05 0.0000000000e+00 
          1.3670713204e-04 -7.7827187850e-05 0.0000000000e+00 
          1.4153153873e-04 -7.7832071854e-05 0.0000000000e+00 
          1.4615444150e-04 -7.7885158880e-05 0.0000000000e+00 
          1.5057211486e-04 -7.7779127366e-05 0.0000000000e+00 
          1.5478059184e-04 -7.7907770560e-05 0.0000000000e+00 
          1.5877358565e-04 -7.7799240864e-05 0.0000000000e+00 
          1.6254914954e-04 -7.7855661454e-05 0.0000000000e+00 
          1.6609781923e-04 -7.7846983597e-05 0.0000000000e+00 
          1.6942496976e-04 -7.7840908392e-05 0.0000000000e+00 
          1.7251233243e-04 -7.7839003157e-05 0.0000000000e+00 
          1.7537360731e-04 -7.7831764948e-05 0.0000000000e+00 
          1.7799321466e-04 -7.7884459803e-05 0.0000000000e+00 
          1.8036795272e-04 -7.7775006501e-05 0.0000000000e+00 
          1.8251062978e-04 -7.7905652287e-05 0.0000000000e+00 
          1.8439412452e-04 -7.7804653352e-05 0.0000000000e+00 
          1.8603871320e-04 -7.7851375723e-05 0.0000000000e+00 
          1.8743408422e-04 -7.7854129521e-05 0.0000000000e+00 
          1.8856935770e-04 -7.7817123378e-05 0.0000000000e+00 
          1.8946461988e-04 -7.7867125665e-05 0.0000000000e+00 
          1.9009789802e-04 -7.7828859331e-05 0.0000000000e+00 
          1.9047589049e-04 -7.7840578983e-05 0.0000000000e+00 
        </DataArray>
        <DataArray type="Float64" Name="Displacement" NumberOfComponents="3" format="ascii">
          -3.4234674044e-06 -5.6332680389e-04 0.0000000000e+00 
          -3.4234674044e-06 -5.6332680389e-04 0.0000000000e+00 
          7.2185100678e-06 -5.8690713809e-04 0.0000000000e+00 
          7.2185100678e-06 -5.8690713809e-04 0.0000000000e+00 
          0.0000000000e+00 0.0000000000e+00 0.0000000000e+00 
          0.0000000000e+00 0.0000000000e+00 0.0000000000e+00 
          -3.0337460863e-06 -5.6452054249e-04 0.0000000000e+00 
          -2.6400848296e-06 -5.6568330989e-04 0.0000000000e+00 
          -2.2434000027e-06 -5.6681496453e-04 0.0000000000e+00 
          -1.8446042161e-06 -5.6791581978e-04 0.0000000000e+00 
          -1.4446281382e-06 -5.6898540309e-04 0.0000000000e+00 
          -1.0443625997e-06 -5.7002419244e-04 0.0000000000e+00 
          -6.4474364571e-07 -5.7103191289e-04 0.0000000000e+00 
          -2.4666342866e-07 -5.7200854179e-04 0.0000000000e+00 
          1.4898889669e-07 -5.7295430880e-04 0.0000000000e+00 
          5.4130244488e-07 -5.7386894689e-04 0.0000000000e+00 
          9.2942847027e-07 -5.7475265822e-04 0.0000000000e+00 
          1.3124913966e-06 -5.7560531856e-04 0.0000000000e+00 
          1.6896438179e-06 -5.7642698609e-04 0.0000000000e+00 
          2.0600695236e-06 -5.7721764987e-04 0.0000000000e+00 
          2.4229418162e-06 -5.7797732341e-04 0.0000000000e+00 
          2.7774859876e-06 -5.7870594936e-04 0.0000000000e+00 
          3.1229273904e-06 -5.7940357929e-04 0.0000000000e+00 
          3.4585165258e-06 -5.8007029535e-04 0.0000000000e+00 
          3.7835497613e-06 -5.8070579951e-04 0.0000000000e+00 
          4.0973112393e-06 -5.8131054715e-04 0.0000000000e+00 
          4.3991551961e-06 -5.8188409084e-04 0.0000000000e+00 
          4.6884276981e-06 -5.8242671051e-04 0.0000000000e+00 
          4.9645254072e-06 -5.8293836191e-04 0.0000000000e+00 
          5.2268744628e-06 -5.8341889938e-04 0.0000000000e+00 
          5.4749107000e-06 -5.8386853443e-04 0.0000000000e+00 
          5.7081399738e-06 -5.8428710797e-04 0.0000000000e+00 
          5.9260557861e-06 -5.8467467586e-04 0.0000000000e+00 
          6.1282284248e-06 -5.8503129119e-04 0.0000000000e+00 
          6.3142222373e-06 -5.8535680026e-04 0.0000000000e+00 
          6.4836753665e-06 -5.8565140381e-04 0.0000000000e+00 
          6.6362248749e-06 -5.8591496523e-04 0.0000000000e+00 
          6.7715586732e-06 -5.8614744117e-04 0.0000000000e+00 
          6.8894278961e-06 -5.8634910411e-04 0.0000000000e+00 
          6.9895456323e-06 -5.8651951657e-04 0.0000000000e+00 
          7.0717565721e-06 -5.8665912264e-04 0.0000000000e+00 
          7.1358647904e-06 -5.8676762575e-04 0.0000000000e+00 
          7.1817466487e-06 -5.8684512636e-04 0.0000000000e+00 
          7.2093193816e-06 -5.8689166204e-04 0.0000000000e+00 
          -3.0337460863e-06 -5.6452054249e-04 0.0000000000e+00 
          -2.6400848296e-06 -5.6568330989e-04 0.0000000000e+00 
          -2.2434000027e-06 -5.6681496453e-04 0.0000000000e+00 
          -1.8446042161e-06 -5.6791581978e-04 0.0000000000e+00 
          -1.4446281382e-06 -5.6898540309e-04 0.0000000000e+00 
          -1.0443625997e-06 -5.7002419244e-04 0.0000000000e+00 
          -6.4474364571e-07 -5.7103191289e-04 0.0000000000e+00 
          -2.4666342866e-07 -5.7200854179e-04 0.0000000000e+00 
          1.4898889669e-07 -5.7295430880e-04 0.0000000000e+00 
          5.4130244488e-07 -5.7386894689e-04 0.0000000000e+00 
          9.2942847027e-07 -5.7475265822e-04 0.0000000000e+00 
          1.3124913966e-06 -5.7560531856e-04 0.0000000000e+00 
          1.6896438179e-06 -5.7642698609e-04 0.0000000000e+00 
          2.0600695236e-06 -5.7721764987e-04 0.0000000000e+00 
          2.4229418162e-06 -5.7797732341e-04 0.0000000000e+00 
          2.7774859876e-06 -5.7870594936e-04 0.0000000000e+00 
          3.1229273904e-06 -5.7940357929e-04 0.0000000000e+00 
          3.4585165258e-06 -5.8007029535e-04 0.0000000000e+00 
          3.7835497613e-06 -5.8070579951e-04 0.0000000000e+00 
          4.0973112393e-06 -5.8131054715e-04 0.0000000000e+00 
          4.3991551961e-06 -5.8188409084e-04 0.0000000000e+00 
          4.6884276981e-06 -5.8242671051e-04 0.0000000000e+00 
          4.9645254072e-06 -5.8293836191e-04 0.0000000000e+00 
          5.2268744628e-06 -5.8341889938e-04 0.0000000000e+00 
          5.4749107000e-06 -5.8386853443e-04 0.0000000000e+00 
          5.7081399738e-06 -5.8428710797e-04 0.0000000000e+00 
          5.9260557861e-06 -5.8467467586e-04 0.0000000000e+00 
          6.1282284248e-06 -5.8503129119e-04 0.0000000000e+00 
          6.3142222373e-06 -5.8535680026e-04 0.0000000000e+00 
          6.4836753665e-06 -5.8565140381e-04 0.0000000000e+00 
          6.6362248749e-06 -5.8591496523e-04 0.0000000000e+00 
          6.7715586732e-06 -5.8614744117e-04 0.0000000000e+00 
          6.8894278961e-06 -5.8634910411e-04 0.0000000000e+00 
          6.9895456323e-06 -5.8651951657e-04 0.0000000000e+00 
          7.0717565721e-06 -5.8665912264e-04 0.0000000000e+00 
          7.1358647904e-06 -5.8676762575e-04 0.0000000000e+00 
          7.1817466487e-06 -5.8684512636e-04 0.0000000000e+00 
          7.2093193816e-06 -5.8689166204e-04 0.0000000000e+00 
        </DataArray>
        <DataArray type="Float64" Name="Acceleration" NumberOfComponents="3" format="ascii">
          4.3687642311e-04 7.8441111517e-07 0.0000000000e+00 
          4.3687642311e-04 7.8441111517e-07 0.0000000000e+00 
          -1.6561979514e-03 -9.7734039665e-06 0.0000000000e+00 
          -1.6561979514e-03 -9.7734039665e-06 0.0000000000e+00 
          0.0000000000e+00 0.0000000000e+00 0.0000000000e+00 
          0.0000000000e+00 0.0000000000e+00 0.0000000000e+00 
          3.5499625425e-04 -6.3328978526e-06 0.0000000000e+00 
          2.7247628053e-04 1.8916458299e-05 0.0000000000e+00 
          1.9015529811e-04 -3.7023454219e-05 0.0000000000e+00 
          1.0634657741e-04 4.7862918225e-05 0.0000000000e+00 
          2.6080973215e-05 -3.8272574319e-05 0.0000000000e+00 
          -5.8211771908e-05 1.1043834848e-05 0.0000000000e+00 
          -1.3869013626e-04 1.5593841384e-05 0.0000000000e+00 
          -2.1875783573e-04 -2.6029409228e-05 0.0000000000e+00 
          -3.0083041619e-04 2.2090818393e-05 0.0000000000e+00 
          -3.7725885696e-04 -1.4545586157e-05 0.0000000000e+00 
          -4.5624098214e-04 8.2591723572e-06 0.0000000000e+00 
          -5.3254817743e-04 -2.4387350995e-06 0.0000000000e+00 
          -6.0609035480e-04 -4.6582596958e-07 0.0000000000e+00 
          -6.8057744302e-04 -2.9003508230e-06 0.0000000000e+00 
          -7.5033912412e-04 7.2667415003e-06 0.0000000000e+00 
          -8.2021948916e-04 -1.6841134554e-06 0.0000000000e+00 
          -8.8770874921e-04 -1.6664851218e-05 0.0000000000e+00 
          -9.5110742461e-04 3.7044244101e-05 0.0000000000e+00 
          -1.0155715224e-03 -4.5155659062e-05 0.0000000000e+00 
          -1.0738296440e-03 3.5756580687e-05 0.0000000000e+00 
          -1.1327129020e-03 -1.4835518102e-05 0.0000000000e+00 
          -1.1870748675e-03 -6.8592138303e-06 0.0000000000e+00 
          -1.2387508930e-03 1.9280399800e-05 0.0000000000e+00 
          -1.2896447819e-03 -1.8611377850e-05 0.0000000000e+00 
          -1.3341366409e-03 9.9435970765e-06 0.0000000000e+00 
          -1.3797731233e-03 -1.2437758540e-07 0.0000000000e+00 
          -1.4184910279e-03 -9.6895797789e-06 0.0000000000e+00 
          -1.4577233531e-03 1.7932919014e-05 0.0000000000e+00 
          -1.4903709897e-03 -1.8087443648e-05 0.0000000000e+00 
          -1.5230496117e-03 6.4499263706e-06 0.0000000000e+00 
          -1.5511694856e-03 1.4260598920e-05 0.0000000000e+00 
          -1.5735799448e-03 -3.4883086654e-05 0.0000000000e+00 
          -1.5994588523e-03 4.4047045042e-05 0.0000000000e+00 
          -1.6134377168e-03 -3.6031273431e-05 0.0000000000e+00 
          -1.6310909613e-03 1.7412786089e-05 0.0000000000e+00 
          -1.6422267254e-03 -7.0682551340e-07 0.0000000000e+00 
          -1.6496947965e-03 -7.4406599602e-06 0.0000000000e+00 
          -1.6562587134e-03 9.6040464499e-06 0.0000000000e+00 
          3.5499625425e-04 -6.3328978526e-06 0.0000000000e+00 
          2.7247628053e-04 1.8916458299e-05 0.0000000000e+00 
          1.9015529811e-04 -3.7023454219e-05 0.0000000000e+00 
          1.0634657741e-04 4.7862918225e-05 0.0000000000e+00 
          2.6080973215e-05 -3.8272574319e-05 0.0000000000e+00 
          -5.8211771908e-05 1.1043834848e-05 0.0000000000e+00 
          -1.3869013626e-04 1.5593841384e-05 0.0000000000e+00 
          -2.1875783573e-04 -2.6029409228e-05 0.0000000000e+00 
          -3.0083041619e-04 2.2090818393e-05 0.0000000000e+00 
          -3.7725885696e-04 -1.4545586157e-05 0.0000000000e+00 
          -4.5624098214e-04 8.2591723572e-06 0.0000000000e+00 
          -5.3254817743e-04 -2.4387350995e-06 0.0000000000e+00 
          -6.0609035480e-04 -4.6582596958e-07 0.0000000000e+00 
          -6.8057744302e-04 -2.9003508230e-06 0.0000000000e+00 
          -7.5033912412e-04 7.2667415003e-06 0.0000000000e+00 
          -8.2021948916e-04 -1.6841134554e-06 0.0000000000e+00 
          -8.8770874921e-04 -1.6664851218e-05 0.0000000000e+00 
          -9.5110742461e-04 3.7044244101e-05 0.0000000000e+00 
          -1.0155715224e-03 -4.5155659062e-05 0.0000000000e+00 
          -1.0738296440e-03 3.5756580687e-05 0.0000000000e+00 
          -1.1327129020e-03 -1.4835518102e-05 0.0000000000e+00 
          -1.1870748675e-03 -6.8592138303e-06 0.0000000000e+00 
          -1.2387508930e-03 1.9280399800e-05 0.0000000000e+00 
          -1.2896447819e-03 -1.8611377850e-05 0.0000000000e+00 
          -1.3341366409e-03 9.9435970765e-06 0.0000000000e+00 
          -1.3797731233e-03 -1.2437758540e-07 0.0000000000e+00 
          -1.4184910279e-03 -9.6895797789e-06 0.0000000000e+00 
          -1.4577233531e-03 1.7932919014e-05 0.0000000000e+00 
          -1.4903709897e-03 -1.8087443648e-05 0.0000000000e+00 
          -1.5230496117e-03 6.4499263706e-06 0.0000000000e+00 
          -1.5511694856e-03 1.4260598920e-05 0.0000000000e+00 
          -1.5735799448e-03 -3.4883086654e-05 0.0000000000e+00 
          -1.5994588523e-03 4.4047045042e-05 0.0000000000e+00 
          -1.6134377168e-03 -3.6031273431e-05 0.0000000000e+00 
          -1.6310909613e-03 1.7412786089e-05 0.0000000000e+00 
          -1.6422267254e-03 -7.0682551340e-07 0.0000000000e+00 
          -1.6496947965e-03 -7.4406599602e-06 0.0000000000e+00 
          -1.6562587134e-03 9.6040464499e-06 0.0000000000e+00 
        </DataArray>
        <DataArray type="Float64" Name="Reaction" NumberOfComponents="3" format="ascii">
          0.0000000000e+00 0.0000000000e+00 0.0000000000e+00 
          0.0000000000e+00 0.0000000000e+00 0.0000000000e+00 
          0.0000000000e+00 0.0000000000e+00 0.0000000000e+00 
          0.0000000000e+00 0.0000000000e+00 0.0000000000e+00 
          0.0000000000e+00 0.0000000000e+00 0.0000000000e+00 
          0.0000000000e+00 0.0000000000e+00 0.0000000000e+00 
          0.0000000000e+00 0.0000000000e+00 0.0000000000e+00 
          0.0000000000e+00 0.0000000000e+00 0.0000000000e+00 
          0.0000000000e+00 0.0000000000e+00 0.0000000000e+00 
          0.0000000000e+00 0.0000000000e+00 0.0000000000e+00 
          0.0000000000e+00 0.0000000000e+00 0.0000000000e+00 
          0.0000000000e+00 0.0000000000e+00 0.0000000000e+00 
          0.0000000000e+00 0.0000000000e+00 0.0000000000e+00 
          0.0000000000e+00 0.0000000000e+00 0.0000000000e+00 
          0.0000000000e+00 0.0000000000e+00 0.0000000000e+00 
          0.0000000000e+00 0.0000000000e+00 0.0000000000e+00 
          0.0000000000e+00 0.0000000000e+00 0.0000000000e+00 
          0.0000000000e+00 0.0000000000e+00 0.0000000000e+00 
          0.0000000000e+00 0.0000000000e+00 0.0000000000e+00 
          0.0000000000e+00 0.0000000000e+00 0.0000000000e+00 
          0.0000000000e+00 0.0000000000e+00 0.0000000000e+00 
          0.0000000000e+00 0.0000000000e+00 0.0000000000e+00 
          0.0000000000e+00 0.0000000000e+00 0.0000000000e+00 
          0.0000000000e+00 0.0000000000e+00 0.0000000000e+00 
          0.0000000000e+00 0.0000000000e+00 0.0000000000e+00 
          0.0000000000e+00 0.0000000000e+00 0.0000000000e+00 
          0.0000000000e+00 0.0000000000e+00 0.0000000000e+00 
          0.0000000000e+00 0.0000000000e+00 0.0000000000e+00 
          0.0000000000e+00 0.0000000000e+00 0.0000000000e+00 
          0.0000000000e+00 0.0000000000e+00 0.0000000000e+00 
          0.0000000000e+00 0.0000000000e+00 0.0000000000e+00 
          0.0000000000e+00 0.0000000000e+00 0.0000000000e+00 
          0.0000000000e+00 0.0000000000e+00 0.0000000000e+00 
          0.0000000000e+00 0.0000000000e+00 0.0000000000e+00 
          0.0000000000e+00 0.0000000000e+00 0.0000000000e+00 
          0.0000000000e+00 0.0000000000e+00 0.0000000000e+00 
          0.0000000000e+00 0.0000000000e+00 0.0000000000e+00 
          0.0000000000e+00 0.0000000000e+00 0.0000000000e+00 
          0.0000000000e+00 0.0000000000e+00 0.0000000000e+00 
          0.0000000000e+00 0.0000000000e+00 0.0000000000e+00 
          0.0000000000e+00 0.0000000000e+00 0.0000000000e+00 
          0.0000000000e+00 0.0000000000e+00 0.0000000000e+00 
          0.0000000000e+00 0.0000000000e+00 0.0000000000e+00 
          0.0000000000e+00 0.0000000000e+00 0.0000000000e+00 
          0.0000000000e+00 0.0000000000e+00 0.0000000000e+00 
          0.0000000000e+00 0.0000000000e+00 0.0000000000e+00 
          0.0000000000e+00 0.0000000000e+00 0.0000000000e+00 
          0.0000000000e+00 0.0000000000e+00 0.0000000000e+00 
          0.0000000000e+00 0.0000000000e+00 0.0000000000e+00 
          0.0000000000e+00 0.0000000000e+00 0.0000000000e+00 
          0.0000000000e+00 0.0000000000e+00 0.0000000000e+00 
          0.0000000000e+00 0.0000000000e+00 0.0000000000e+00 
          0.0000000000e+00 0.0000000000e+00 0.0000000000e+00 
          0.0000000000e+00 0.0000000000e+00 0.0000000000e+00 
          0.0000000000e+00 0.0000000000e+00 0.0000000000e+00 
          0.0000000000e+00 0.0000000000e+00 0.0000000000e+00 
          0.0000000000e+00 0.0000000000e+00 0.0000000000e+00 
          0.0000000000e+00 0.0000000000e+00 0.0000000000e+00 
          0.0000000000e+00 0.0000000000e+00 0.0000000000e+00 
          0.0000000000e+00 0.0000000000e+00 0.0000000000e+00 
          0.0000000000e+00 0.0000000000e+00 0.0000000000e+00 
          0.0000000000e+00 0.0000000000e+00 0.0000000000e+00 
          0.0000000000e+00 0.0000000000e+00 0.0000000000e+00 
          0.0000000000e+00 0.0000000000e+00 0.0000000000e+00 
          0.0000000000e+00 0.0000000000e+00 0.0000000000e+00 
          0.0000000000e+00 0.0000000000e+00 0.0000000000e+00 
          0.0000000000e+00 0.0000000000e+00 0.0000000000e+00 
          0.0000000000e+00 0.0000000000e+00 0.0000000000e+00 
          0.0000000000e+00 0.0000000000e+00 0.0000000000e+00 
          0.0000000000e+00 0.0000000000e+00 0.0000000000e+00 
          0.0000000000e+00 0.0000000000e+00 0.0000000000e+00 
          0.0000000000e+00 0.0000000000e+00 0.0000000000e+00 
          0.0000000000e+00 0.0000000000e+00 0.0000000000e+00 
          0.0000000000e+00 0.0000000000e+00 0.0000000000e+00 
          0.0000000000e+00 0.0000000000e+00 0.0000000000e+00 
          0.0000000000e+00 0.0000000000e+00 0.0000000000e+00 
          0.0000000000e+00 0.0000000000e+00 0.0000000000e+00 
          0.0000000000e+00 0.0000000000e+00 0.0000000000e+00 
          0.0000000000e+00 0.0000000000e+00 0.0000000000e+00 
          0.0000000000e+00 0.0000000000e+00 0.0000000000e+00 
          0.0000000000e+00 0.0000000000e+00 0.0000000000e+00 
          0.0000000000e+00 0.0000000000e+00 0.0000000000e+00 
        </DataArray>
      </PointData>
      <CellData>
        <DataArray type="Int64" Name="ElementTag" format="ascii">
          0
        </DataArray>
      </CellData>
    </Piece>
  </UnstructuredGrid>
</VTKFile>
