<?xml version="1.0"?>
<VTKFile type="UnstructuredGrid" version="1.0" byte_order="LittleEndian" compressor="vtkZLibDataCompressor">
  <UnstructuredGrid>
    <Piece NumberOfPoints="80" NumberOfCells="39">
      <Points>
        <DataArray type="Float64" Name="Points" NumberOfComponents="3" format="ascii">
          0.0000000000e+00 0.0000000000e+00 0.0000000000e+00 
          2.5000000000e-01 0.0000000000e+00 0.0000000000e+00 
          2.5000000000e-01 3.0000000000e+01 0.0000000000e+00 
          0.0000000000e+00 3.0000000000e+01 0.0000000000e+00 
          2.5000000000e-01 7.6923100000e-01 0.0000000000e+00 
          2.5000000000e-01 1.5384620000e+00 0.0000000000e+00 
          2.5000000000e-01 2.3076920000e+00 0.0000000000e+00 
          2.5000000000e-01 3.0769230000e+00 0.0000000000e+00 
          2.5000000000e-01 3.8461540000e+00 0.0000000000e+00 
          2.5000000000e-01 4.6153850000e+00 0.0000000000e+00 
          2.5000000000e-01 5.3846150000e+00 0.0000000000e+00 
          2.5000000000e-01 6.1538460000e+00 0.0000000000e+00 
          2.5000000000e-01 6.9230770000e+00 0.0000000000e+00 
          2.5000000000e-01 7.6923080000e+00 0.0000000000e+00 
          2.5000000000e-01 8.4615380000e+00 0.0000000000e+00 
          2.5000000000e-01 9.2307690000e+00 0.0000000000e+00 
          2.5000000000e-01 1.0000000000e+01 0.0000000000e+00 
          2.5000000000e-01 1.0769231000e+01 0.0000000000e+00 
          2.5000000000e-01 1.1538462000e+01 0.0000000000e+00 
          2.5000000000e-01 1.2307692000e+01 0.0000000000e+00 
          2.5000000000e-01 1.3076923000e+01 0.0000000000e+00 
          2.5000000000e-01 1.3846154000e+01 0.0000000000e+00 
          2.5000000000e-01 1.4615385000e+01 0.0000000000e+00 
          2.5000000000e-01 1.5384615000e+01 0.0000000000e+00 
          2.5000000000e-01 1.6153846000e+01 0.0000000000e+00 
          2.5000000000e-01 1.6923077000e+01 0.0000000000e+00 
          2.5000000000e-01 1.7692308000e+01 0.0000000000e+00 
          2.5000000000e-01 1.8461538000e+01 0.0000000000e+00 
          2.5000000000e-01 1.9230769000e+01 0.0000000000e+00 
          2.5000000000e-01 2.0000000000e+01 0.0000000000e+00 
          2.5000000000e-01 2.0769231000e+01 0.0000000000e+00 
          2.5000000000e-01 2.1538462000e+01 0.0000000000e+00 
          2.5000000000e-01 2.2307692000e+01 0.0000000000e+00 
          2.5000000000e-01 2.3076923000e+01 0.0000000000e+00 
          2.5000000000e-01 2.3846154000e+01 0.0000000000e+00 
          2.5000000000e-01 2.4615385000e+01 0.0000000000e+00 
          2.5000000000e-01 2.5384615000e+01 0.0000000000e+00 
          2.5000000000e-01 2.6153846000e+01 0.0000000000e+00 
          2.5000000000e-01 2.6923077000e+01 0.0000000000e+00 
          2.5000000000e-01 2.7692308000e+01 0.0000000000e+00 
          2.5000000000e-01 2.8461538000e+01 0.0000000000e+00 
          2.5000000000e-01 2.9230769000e+01 0.0000000000e+00 
          0.0000000000e+00 7.6923100000e-01 0.0000000000e+00 
          0.0000000000e+00 1.5384620000e+00 0.0000000000e+00 
          0.0000000000e+00 2.3076920000e+00 0.0000000000e+00 
          0.0000000000e+00 3.0769230000e+00 0.0000000000e+00 
          0.0000000000e+00 3.8461540000e+00 0.0000000000e+00 
          0.0000000000e+00 4.6153850000e+00 0.0000000000e+00 
          0.0000000000e+00 5.3846150000e+00 0.0000000000e+00 
          0.0000000000e+00 6.1538460000e+00 0.0000000000e+00 
          0.0000000000e+00 6.9230770000e+00 0.0000000000e+00 
          0.0000000000e+00 7.6923080000e+00 0.0000000000e+00 
          0.0000000000e+00 8.4615380000e+00 0.0000000000e+00 
          0.0000000000e+00 9.2307690000e+00 0.0000000000e+00 
          0.0000000000e+00 1.0000000000e+01 0.0000000000e+00 
          0.0000000000e+00 1.0769231000e+01 0.0000000000e+00 
          0.0000000000e+00 1.1538462000e+01 0.0000000000e+00 
          0.0000000000e+00 1.2307692000e+01 0.0000000000e+00 
          0.0000000000e+00 1.3076923000e+01 0.0000000000e+00 
          0.0000000000e+00 1.3846154000e+01 0.0000000000e+00 
          0.0000000000e+00 1.4615385000e+01 0.0000000000e+00 
          0.0000000000e+00 1.5384615000e+01 0.0000000000e+00 
          0.0000000000e+00 1.6153846000e+01 0.0000000000e+00 
          0.0000000000e+00 1.6923077000e+01 0.0000000000e+00 
          0.0000000000e+00 1.7692308000e+01 0.0000000000e+00 
          0.0000000000e+00 1.8461538000e+01 0.0000000000e+00 
          0.0000000000e+00 1.9230769000e+01 0.0000000000e+00 
          0.0000000000e+00 2.0000000000e+01 0.0000000000e+00 
          0.0000000000e+00 2.0769231000e+01 0.0000000000e+00 
          0.0000000000e+00 2.1538462000e+01 0.0000000000e+00 
          0.0000000000e+00 2.2307692000e+01 0.0000000000e+00 
          0.0000000000e+00 2.3076923000e+01 0.0000000000e+00 
          0.0000000000e+00 2.3846154000e+01 0.0000000000e+00 
          0.0000000000e+00 2.4615385000e+01 0.0000000000e+00 
          0.0000000000e+00 2.5384615000e+01 0.0000000000e+00 
          0.0000000000e+00 2.6153846000e+01 0.0000000000e+00 
          0.0000000000e+00 2.6923077000e+01 0.0000000000e+00 
          0.0000000000e+00 2.7692308000e+01 0.0000000000e+00 
          0.0000000000e+00 2.8461538000e+01 0.0000000000e+00 
          0.0000000000e+00 2.9230769000e+01 0.0000000000e+00 
        </DataArray>
      </Points>
      <Cells>
        <DataArray type="Int64" Name="connectivity" format="ascii">
          0 1 4 42 
          42 4 5 43 
          43 5 6 44 
          44 6 7 45 
          45 7 8 46 
          46 8 9 47 
          47 9 10 48 
          48 10 11 49 
          49 11 12 50 
          50 12 13 51 
          51 13 14 52 
          52 14 15 53 
          53 15 16 54 
          54 16 17 55 
          55 17 18 56 
          56 18 19 57 
          57 19 20 58 
          58 20 21 59 
          59 21 22 60 
          60 22 23 61 
          61 23 24 62 
          62 24 25 63 
          63 25 26 64 
          64 26 27 65 
          65 27 28 66 
          66 28 29 67 
          67 29 30 68 
          68 30 31 69 
          69 31 32 70 
          70 32 33 71 
          71 33 34 72 
          72 34 35 73 
          73 35 36 74 
          74 36 37 75 
          75 37 38 76 
          76 38 39 77 
          77 39 40 78 
          78 40 41 79 
          79 41 2 3 
        </DataArray>
        <DataArray type="Int64" Name="offsets" format="ascii">
          4
          8
          12
          16
          20
          24
          28
          32
          36
          40
          44
          48
          52
          56
          60
          64
          68
          72
          76
          80
          84
          88
          92
          96
          100
          104
          108
          112
          116
          120
          124
          128
          132
          136
          140
          144
          148
          152
          156
        </DataArray>
        <DataArray type="Int64" Name="types" format="ascii">
          9
          9
          9
          9
          9
          9
          9
          9
          9
          9
          9
          9
          9
          9
          9
          9
          9
          9
          9
          9
          9
          9
          9
          9
          9
          9
          9
          9
          9
          9
          9
          9
          9
          9
          9
          9
          9
          9
          9
        </DataArray>
      </Cells>
      <PointData>
        <DataArray type="Int64" Name="NodeTag" format="ascii">
          1
          2
          3
          4
          7
          8
          9
          10
          11
          12
          13
          14
          15
          16
          17
          18
          19
          20
          21
          22
          23
          24
          25
          26
          27
          28
          29
          30
          31
          32
          33
          34
          35
          36
          37
          38
          39
          40
          41
          42
          43
          44
          45
          46
          47
          48
          49
          50
          51
          52
          53
          54
          55
          56
          57
          58
          59
          60
          61
          62
          63
          64
          65
          66
          67
          68
          69
          70
          71
          72
          73
          74
          75
          76
          77
          78
          79
          80
          81
          82
        </DataArray>
        <DataArray type="Float64" Name="Velocity" NumberOfComponents="3" format="ascii">
          5.0517832078e-03 -7.7914236172e-05 0.0000000000e+00 
          5.0517832078e-03 -7.7914236172e-05 0.0000000000e+00 
          -3.8967957030e-03 -7.8026141692e-05 0.0000000000e+00 
          -3.8967957030e-03 -7.8026141692e-05 0.0000000000e+00 
          4.7571964058e-03 -7.7985720281e-05 0.0000000000e+00 
          4.4558771187e-03 -7.7860280762e-05 0.0000000000e+00 
          4.1486998698e-03 -7.7900341683e-05 0.0000000000e+00 
          3.8365629989e-03 -7.8015798014e-05 0.0000000000e+00 
          3.5203391617e-03 -7.7826000898e-05 0.0000000000e+00 
          3.2009182822e-03 -7.7987101556e-05 0.0000000000e+00 
          2.8792030006e-03 -7.7858324359e-05 0.0000000000e+00 
          2.5560570731e-03 -7.7950890153e-05 0.0000000000e+00 
          2.2323985816e-03 -7.7939997734e-05 0.0000000000e+00 
          1.9090950416e-03 -7.7837806875e-05 0.0000000000e+00 
          1.5870183635e-03 -7.7978436493e-05 0.0000000000e+00 
          1.2670434938e-03 -7.7819369904e-05 0.0000000000e+00 
          9.5003007884e-04 -7.7963191616e-05 0.0000000000e+00 
          6.3682240105e-04 -7.7899699019e-05 0.0000000000e+00 
          3.2826793420e-04 -7.7856393725e-05 0.0000000000e+00 
          2.5180815280e-05 -7.7979938709e-05 0.0000000000e+00 
          -2.7164720734e-04 -7.7844131186e-05 0.0000000000e+00 
          -5.6139241721e-04 -7.7838888398e-05 0.0000000000e+00 
          -8.4331830945e-04 -7.7958797360e-05 0.0000000000e+00 
          -1.1166646704e-03 -7.7862500064e-05 0.0000000000e+00 
          -1.3807065855e-03 -7.7781441269e-05 0.0000000000e+00 
          -1.6347564743e-03 -7.7978266924e-05 0.0000000000e+00 
          -1.8781147860e-03 -7.7852508779e-05 0.0000000000e+00 
          -2.1101644540e-03 -7.7876305381e-05 0.0000000000e+00 
          -2.3302748976e-03 -7.7902375658e-05 0.0000000000e+00 
          -2.5378645922e-03 -7.7887950199e-05 0.0000000000e+00 
          -2.7323840839e-03 -7.7889327011e-05 0.0000000000e+00 
          -2.9132988978e-03 -7.7910664155e-05 0.0000000000e+00 
          -3.0801658001e-03 -7.7873424016e-05 0.0000000000e+00 
          -3.2325081309e-03 -7.7904464179e-05 0.0000000000e+00 
          -3.3699225142e-03 -7.7917400221e-05 0.0000000000e+00 
          -3.4920560539e-03 -7.7913873843e-05 0.0000000000e+00 
          -3.5985619303e-03 -7.7899070503e-05 0.0000000000e+00 
          -3.6891837943e-03 -7.7873701598e-05 0.0000000000e+00 
          -3.7636590375e-03 -7.7880649003e-05 0.0000000000e+00 
          -3.8217851175e-03 -7.7934351079e-05 0.0000000000e+00 
          -3.8634192191e-03 -7.7882443466e-05 0.0000000000e+00 
          -3.8884463037e-03 -7.7782962100e-05 0.0000000000e+00 
          4.7571964058e-03 -7.7985720281e-05 0.0000000000e+00 
          4.4558771187e-03 -7.7860280762e-05 0.0000000000e+00 
          4.1486998698e-03 -7.7900341683e-05 0.0000000000e+00 
          3.8365629989e-03 -7.8015798014e-05 0.0000000000e+00 
          3.5203391617e-03 -7.7826000898e-05 0.0000000000e+00 
          3.2009182822e-03 -7.7987101556e-05 0.0000000000e+00 
          2.8792030006e-03 -7.7858324359e-05 0.0000000000e+00 
          2.5560570731e-03 -7.7950890153e-05 0.0000000000e+00 
          2.2323985816e-03 -7.7939997734e-05 0.0000000000e+00 
          1.9090950416e-03 -7.7837806875e-05 0.0000000000e+00 
          1.5870183635e-03 -7.7978436493e-05 0.0000000000e+00 
          1.2670434938e-03 -7.7819369904e-05 0.0000000000e+00 
          9.5003007884e-04 -7.7963191616e-05 0.0000000000e+00 
          6.3682240105e-04 -7.7899699019e-05 0.0000000000e+00 
          3.2826793420e-04 -7.7856393725e-05 0.0000000000e+00 
          2.5180815280e-05 -7.7979938709e-05 0.0000000000e+00 
          -2.7164720734e-04 -7.7844131186e-05 0.0000000000e+00 
          -5.6139241721e-04 -7.7838888398e-05 0.0000000000e+00 
          -8.4331830945e-04 -7.7958797360e-05 0.0000000000e+00 
          -1.1166646704e-03 -7.7862500064e-05 0.0000000000e+00 
          -1.3807065855e-03 -7.7781441269e-05 0.0000000000e+00 
          -1.6347564743e-03 -7.7978266924e-05 0.0000000000e+00 
          -1.8781147860e-03 -7.7852508779e-05 0.0000000000e+00 
          -2.1101644540e-03 -7.7876305381e-05 0.0000000000e+00 
          -2.3302748976e-03 -7.7902375658e-05 0.0000000000e+00 
          -2.5378645922e-03 -7.7887950199e-05 0.0000000000e+00 
          -2.7323840839e-03 -7.7889327011e-05 0.0000000000e+00 
          -2.9132988978e-03 -7.7910664155e-05 0.0000000000e+00 
          -3.0801658001e-03 -7.7873424016e-05 0.0000000000e+00 
          -3.2325081309e-03 -7.7904464179e-05 0.0000000000e+00 
          -3.3699225142e-03 -7.7917400221e-05 0.0000000000e+00 
          -3.4920560539e-03 -7.7913873843e-05 0.0000000000e+00 
          -3.5985619303e-03 -7.7899070503e-05 0.0000000000e+00 
          -3.6891837943e-03 -7.7873701598e-05 0.0000000000e+00 
          -3.7636590375e-03 -7.7880649003e-05 0.0000000000e+00 
          -3.8217851175e-03 -7.7934351079e-05 0.0000000000e+00 
          -3.8634192191e-03 -7.7882443466e-05 0.0000000000e+00 
          -3.8884463037e-03 -7.7782962100e-05 0.0000000000e+00 
        </DataArray>
        <DataArray type="Float64" Name="Displacement" NumberOfComponents="3" format="ascii">
          1.1523179467e-05 -3.2823572698e-04 0.0000000000e+00 
          1.1523179467e-05 -3.2823572698e-04 0.0000000000e+00 
          2.0534934159e-03 -3.5183702699e-04 0.0000000000e+00 
          2.0534934159e-03 -3.5183702699e-04 0.0000000000e+00 
          9.5319424762e-05 -3.2943056841e-04 0.0000000000e+00 
          1.7879534676e-04 -3.3059417811e-04 0.0000000000e+00 
          2.6182575270e-04 -3.3172690733e-04 0.0000000000e+00 
          3.4428638354e-04 -3.3282865228e-04 0.0000000000e+00 
          4.2605388090e-04 -3.3389928592e-04 0.0000000000e+00 
          5.0700610905e-04 -3.3493898687e-04 0.0000000000e+00 
          5.8702207795e-04 -3.3594759667e-04 0.0000000000e+00 
          6.6598267450e-04 -3.3692515037e-04 0.0000000000e+00 
          7.4376997201e-04 -3.3787178195e-04 0.0000000000e+00 
          8.2026796954e-04 -3.3878737428e-04 0.0000000000e+00 
          8.9536246152e-04 -3.3967181082e-04 0.0000000000e+00 
          9.6894154667e-04 -3.4052525612e-04 0.0000000000e+00 
          1.0408952170e-03 -3.4134767194e-04 0.0000000000e+00 
          1.1111159129e-03 -3.4213907306e-04 0.0000000000e+00 
          1.1794985881e-03 -3.4289935813e-04 0.0000000000e+00 
          1.2459407099e-03 -3.4362868041e-04 0.0000000000e+00 
          1.3103427791e-03 -3.4432694837e-04 0.0000000000e+00 
          1.3726079438e-03 -3.4499416967e-04 0.0000000000e+00 
          1.4326425653e-03 -3.4563025082e-04 0.0000000000e+00 
          1.4903561022e-03 -3.4623537068e-04 0.0000000000e+00 
          1.5456615211e-03 -3.4680960534e-04 0.0000000000e+00 
          1.5984751950e-03 -3.4735250787e-04 0.0000000000e+00 
          1.6487170947e-03 -3.4786472931e-04 0.0000000000e+00 
          1.6963109242e-03 -3.4834557638e-04 0.0000000000e+00 
          1.7411844623e-03 -3.4879562274e-04 0.0000000000e+00 
          1.7832692948e-03 -3.4921458914e-04 0.0000000000e+00 
          1.8225012688e-03 -3.4960247366e-04 0.0000000000e+00 
          1.8588204157e-03 -3.4995954667e-04 0.0000000000e+00 
          1.8921711189e-03 -3.5028518602e-04 0.0000000000e+00 
          1.9225023840e-03 -3.5058013094e-04 0.0000000000e+00 
          1.9497675727e-03 -3.5084390934e-04 0.0000000000e+00 
          1.9739248000e-03 -3.5107656751e-04 0.0000000000e+00 
          1.9949369002e-03 -3.5127844764e-04 0.0000000000e+00 
          2.0127715249e-03 -3.5144897420e-04 0.0000000000e+00 
          2.0274011963e-03 -3.5158871934e-04 0.0000000000e+00 
          2.0388033027e-03 -3.5169741902e-04 0.0000000000e+00 
          2.0469602651e-03 -3.5177490286e-04 0.0000000000e+00 
          2.0518595084e-03 -3.5182151382e-04 0.0000000000e+00 
          9.5319424762e-05 -3.2943056841e-04 0.0000000000e+00 
          1.7879534676e-04 -3.3059417811e-04 0.0000000000e+00 
          2.6182575270e-04 -3.3172690733e-04 0.0000000000e+00 
          3.4428638354e-04 -3.3282865228e-04 0.0000000000e+00 
          4.2605388090e-04 -3.3389928592e-04 0.0000000000e+00 
          5.0700610905e-04 -3.3493898687e-04 0.0000000000e+00 
          5.8702207795e-04 -3.3594759667e-04 0.0000000000e+00 
          6.6598267450e-04 -3.3692515037e-04 0.0000000000e+00 
          7.4376997201e-04 -3.3787178195e-04 0.0000000000e+00 
          8.2026796954e-04 -3.3878737428e-04 0.0000000000e+00 
          8.9536246152e-04 -3.3967181082e-04 0.0000000000e+00 
          9.6894154667e-04 -3.4052525612e-04 0.0000000000e+00 
          1.0408952170e-03 -3.4134767194e-04 0.0000000000e+00 
          1.1111159129e-03 -3.4213907306e-04 0.0000000000e+00 
          1.1794985881e-03 -3.4289935813e-04 0.0000000000e+00 
          1.2459407099e-03 -3.4362868041e-04 0.0000000000e+00 
          1.3103427791e-03 -3.4432694837e-04 0.0000000000e+00 
          1.3726079438e-03 -3.4499416967e-04 0.0000000000e+00 
          1.4326425653e-03 -3.4563025082e-04 0.0000000000e+00 
          1.4903561022e-03 -3.4623537068e-04 0.0000000000e+00 
          1.5456615211e-03 -3.4680960534e-04 0.0000000000e+00 
          1.5984751950e-03 -3.4735250787e-04 0.0000000000e+00 
          1.6487170947e-03 -3.4786472931e-04 0.0000000000e+00 
          1.6963109242e-03 -3.4834557638e-04 0.0000000000e+00 
          1.7411844623e-03 -3.4879562274e-04 0.0000000000e+00 
          1.7832692948e-03 -3.4921458914e-04 0.0000000000e+00 
          1.8225012688e-03 -3.4960247366e-04 0.0000000000e+00 
          1.8588204157e-03 -3.4995954667e-04 0.0000000000e+00 
          1.8921711189e-03 -3.5028518602e-04 0.0000000000e+00 
          1.9225023840e-03 -3.5058013094e-04 0.0000000000e+00 
          1.9497675727e-03 -3.5084390934e-04 0.0000000000e+00 
          1.9739248000e-03 -3.5107656751e-04 0.0000000000e+00 
          1.9949369002e-03 -3.5127844764e-04 0.0000000000e+00 
          2.0127715249e-03 -3.5144897420e-04 0.0000000000e+00 
          2.0274011963e-03 -3.5158871934e-04 0.0000000000e+00 
          2.0388033027e-03 -3.5169741902e-04 0.0000000000e+00 
          2.0469602651e-03 -3.5177490286e-04 0.0000000000e+00 
          2.0518595084e-03 -3.5182151382e-04 0.0000000000e+00 
        </DataArray>
        <DataArray type="Float64" Name="Acceleration" NumberOfComponents="3" format="ascii">
          -1.7510101348e-02 -5.0522448183e-06 0.0000000000e+00 
          -1.7510101348e-02 -5.0522448183e-06 0.0000000000e+00 
          -2.9443658303e-01 3.6050245169e-06 0.0000000000e+00 
          -2.9443658303e-01 3.6050245169e-06 0.0000000000e+00 
          -2.8861761680e-02 4.0614324469e-05 0.0000000000e+00 
          -4.0132177709e-02 -2.2938822672e-05 0.0000000000e+00 
          -5.1347619484e-02 -3.7089158743e-06 0.0000000000e+00 
          -6.2452696040e-02 1.8916969869e-05 0.0000000000e+00 
          -7.3457366406e-02 -1.3273183581e-05 0.0000000000e+00 
          -8.4349488562e-02 1.5053116376e-05 0.0000000000e+00 
          -9.5100568241e-02 9.2056405364e-06 0.0000000000e+00 
          -1.0571656029e-01 -1.5174081389e-05 0.0000000000e+00 
          -1.1616847426e-01 5.9291088333e-06 0.0000000000e+00 
          -1.2644990781e-01 2.6730398524e-05 0.0000000000e+00 
          -1.3655003290e-01 -2.5104665881e-06 0.0000000000e+00 
          -1.4645308530e-01 4.1698297160e-06 0.0000000000e+00 
          -1.5614441958e-01 1.5064922938e-06 0.0000000000e+00 
          -1.6560929441e-01 1.9771872022e-05 0.0000000000e+00 
          -1.7484002214e-01 -8.0148609614e-06 0.0000000000e+00 
          -1.8382067526e-01 8.8218542535e-06 0.0000000000e+00 
          -1.9253931206e-01 7.2644487599e-06 0.0000000000e+00 
          -2.0097634448e-01 2.4115801547e-05 0.0000000000e+00 
          -2.0912768307e-01 -8.2564097096e-06 0.0000000000e+00 
          -2.1698309342e-01 -2.1685153078e-05 0.0000000000e+00 
          -2.2451114403e-01 5.8710401234e-05 0.0000000000e+00 
          -2.3172192897e-01 -5.8610586850e-05 0.0000000000e+00 
          -2.3859093990e-01 6.6211159467e-05 0.0000000000e+00 
          -2.4510936362e-01 -3.6937662847e-05 0.0000000000e+00 
          -2.5126787679e-01 1.3266378202e-05 0.0000000000e+00 
          -2.5704818193e-01 1.3613134102e-05 0.0000000000e+00 
          -2.6245147494e-01 -3.5108601024e-05 0.0000000000e+00 
          -2.6745891555e-01 7.6934324702e-05 0.0000000000e+00 
          -2.7206141416e-01 -5.6128865517e-05 0.0000000000e+00 
          -2.7625953281e-01 2.8866575826e-05 0.0000000000e+00 
          -2.8003346981e-01 2.0523295101e-05 0.0000000000e+00 
          -2.8337988307e-01 -4.1183555987e-05 0.0000000000e+00 
          -2.8629946216e-01 6.2624509649e-05 0.0000000000e+00 
          -2.8877261993e-01 -4.0531317741e-05 0.0000000000e+00 
          -2.9080998770e-01 7.0490843121e-06 0.0000000000e+00 
          -2.9239311393e-01 3.7739249192e-05 0.0000000000e+00 
          -2.9352806571e-01 -2.4027460894e-05 0.0000000000e+00 
          -2.9421320897e-01 1.6480083321e-05 0.0000000000e+00 
          -2.8861761680e-02 4.0614324469e-05 0.0000000000e+00 
          -4.0132177709e-02 -2.2938822672e-05 0.0000000000e+00 
          -5.1347619484e-02 -3.7089158743e-06 0.0000000000e+00 
          -6.2452696040e-02 1.8916969869e-05 0.0000000000e+00 
          -7.3457366406e-02 -1.3273183581e-05 0.0000000000e+00 
          -8.4349488562e-02 1.5053116376e-05 0.0000000000e+00 
          -9.5100568241e-02 9.2056405364e-06 0.0000000000e+00 
          -1.0571656029e-01 -1.5174081389e-05 0.0000000000e+00 
          -1.1616847426e-01 5.9291088333e-06 0.0000000000e+00 
          -1.2644990781e-01 2.6730398524e-05 0.0000000000e+00 
          -1.3655003290e-01 -2.5104665881e-06 0.0000000000e+00 
          -1.4645308530e-01 4.1698297160e-06 0.0000000000e+00 
          -1.5614441958e-01 1.5064922938e-06 0.0000000000e+00 
          -1.6560929441e-01 1.9771872022e-05 0.0000000000e+00 
          -1.7484002214e-01 -8.0148609614e-06 0.0000000000e+00 
          -1.8382067526e-01 8.8218542535e-06 0.0000000000e+00 
          -1.9253931206e-01 7.2644487599e-06 0.0000000000e+00 
          -2.0097634448e-01 2.4115801547e-05 0.0000000000e+00 
          -2.0912768307e-01 -8.2564097096e-06 0.0000000000e+00 
          -2.1698309342e-01 -2.1685153078e-05 0.0000000000e+00 
          -2.2451114403e-01 5.8710401234e-05 0.0000000000e+00 
          -2.3172192897e-01 -5.8610586850e-05 0.0000000000e+00 
          -2.3859093990e-01 6.6211159467e-05 0.0000000000e+00 
          -2.4510936362e-01 -3.6937662847e-05 0.0000000000e+00 
          -2.5126787679e-01 1.3266378202e-05 0.0000000000e+00 
          -2.5704818193e-01 1.3613134102e-05 0.0000000000e+00 
          -2.6245147494e-01 -3.5108601024e-05 0.0000000000e+00 
          -2.6745891555e-01 7.6934324702e-05 0.0000000000e+00 
          -2.7206141416e-01 -5.6128865517e-05 0.0000000000e+00 
          -2.7625953281e-01 2.8866575826e-05 0.0000000000e+00 
          -2.8003346981e-01 2.0523295101e-05 0.0000000000e+00 
          -2.8337988307e-01 -4.1183555987e-05 0.0000000000e+00 
          -2.8629946216e-01 6.2624509649e-05 0.0000000000e+00 
          -2.8877261993e-01 -4.0531317741e-05 0.0000000000e+00 
          -2.9080998770e-01 7.0490843121e-06 0.0000000000e+00 
          -2.9239311393e-01 3.7739249192e-05 0.0000000000e+00 
          -2.9352806571e-01 -2.4027460894e-05 0.0000000000e+00 
          -2.9421320897e-01 1.6480083321e-05 0.0000000000e+00 
        </DataArray>
        <DataArray type="Float64" Name="Reaction" NumberOfComponents="3" format="ascii">
          0.0000000000e+00 0.0000000000e+00 0.0000000000e+00 
          0.0000000000e+00 0.0000000000e+00 0.0000000000e+00 
          0.0000000000e+00 0.0000000000e+00 0.0000000000e+00 
          0.0000000000e+00 0.0000000000e+00 0.0000000000e+00 
          0.0000000000e+00 0.0000000000e+00 0.0000000000e+00 
          0.0000000000e+00 0.0000000000e+00 0.0000000000e+00 
          0.0000000000e+00 0.0000000000e+00 0.0000000000e+00 
          0.0000000000e+00 0.0000000000e+00 0.0000000000e+00 
          0.0000000000e+00 0.0000000000e+00 0.0000000000e+00 
          0.0000000000e+00 0.0000000000e+00 0.0000000000e+00 
          0.0000000000e+00 0.0000000000e+00 0.0000000000e+00 
          0.0000000000e+00 0.0000000000e+00 0.0000000000e+00 
          0.0000000000e+00 0.0000000000e+00 0.0000000000e+00 
          0.0000000000e+00 0.0000000000e+00 0.0000000000e+00 
          0.0000000000e+00 0.0000000000e+00 0.0000000000e+00 
          0.0000000000e+00 0.0000000000e+00 0.0000000000e+00 
          0.0000000000e+00 0.0000000000e+00 0.0000000000e+00 
          0.0000000000e+00 0.0000000000e+00 0.0000000000e+00 
          0.0000000000e+00 0.0000000000e+00 0.0000000000e+00 
          0.0000000000e+00 0.0000000000e+00 0.0000000000e+00 
          0.0000000000e+00 0.0000000000e+00 0.0000000000e+00 
          0.0000000000e+00 0.0000000000e+00 0.0000000000e+00 
          0.0000000000e+00 0.0000000000e+00 0.0000000000e+00 
          0.0000000000e+00 0.0000000000e+00 0.0000000000e+00 
          0.0000000000e+00 0.0000000000e+00 0.0000000000e+00 
          0.0000000000e+00 0.0000000000e+00 0.0000000000e+00 
          0.0000000000e+00 0.0000000000e+00 0.0000000000e+00 
          0.0000000000e+00 0.0000000000e+00 0.0000000000e+00 
          0.0000000000e+00 0.0000000000e+00 0.0000000000e+00 
          0.0000000000e+00 0.0000000000e+00 0.0000000000e+00 
          0.0000000000e+00 0.0000000000e+00 0.0000000000e+00 
          0.0000000000e+00 0.0000000000e+00 0.0000000000e+00 
          0.0000000000e+00 0.0000000000e+00 0.0000000000e+00 
          0.0000000000e+00 0.0000000000e+00 0.0000000000e+00 
          0.0000000000e+00 0.0000000000e+00 0.0000000000e+00 
          0.0000000000e+00 0.0000000000e+00 0.0000000000e+00 
          0.0000000000e+00 0.0000000000e+00 0.0000000000e+00 
          0.0000000000e+00 0.0000000000e+00 0.0000000000e+00 
          0.0000000000e+00 0.0000000000e+00 0.0000000000e+00 
          0.0000000000e+00 0.0000000000e+00 0.0000000000e+00 
          0.0000000000e+00 0.0000000000e+00 0.0000000000e+00 
          0.0000000000e+00 0.0000000000e+00 0.0000000000e+00 
          0.0000000000e+00 0.0000000000e+00 0.0000000000e+00 
          0.0000000000e+00 0.0000000000e+00 0.0000000000e+00 
          0.0000000000e+00 0.0000000000e+00 0.0000000000e+00 
          0.0000000000e+00 0.0000000000e+00 0.0000000000e+00 
          0.0000000000e+00 0.0000000000e+00 0.0000000000e+00 
          0.0000000000e+00 0.0000000000e+00 0.0000000000e+00 
          0.0000000000e+00 0.0000000000e+00 0.0000000000e+00 
          0.0000000000e+00 0.0000000000e+00 0.0000000000e+00 
          0.0000000000e+00 0.0000000000e+00 0.0000000000e+00 
          0.0000000000e+00 0.0000000000e+00 0.0000000000e+00 
          0.0000000000e+00 0.0000000000e+00 0.0000000000e+00 
          0.0000000000e+00 0.0000000000e+00 0.0000000000e+00 
          0.0000000000e+00 0.0000000000e+00 0.0000000000e+00 
          0.0000000000e+00 0.0000000000e+00 0.0000000000e+00 
          0.0000000000e+00 0.0000000000e+00 0.0000000000e+00 
          0.0000000000e+00 0.0000000000e+00 0.0000000000e+00 
          0.0000000000e+00 0.0000000000e+00 0.0000000000e+00 
          0.0000000000e+00 0.0000000000e+00 0.0000000000e+00 
          0.0000000000e+00 0.0000000000e+00 0.0000000000e+00 
          0.0000000000e+00 0.0000000000e+00 0.0000000000e+00 
          0.0000000000e+00 0.0000000000e+00 0.0000000000e+00 
          0.0000000000e+00 0.0000000000e+00 0.0000000000e+00 
          0.0000000000e+00 0.0000000000e+00 0.0000000000e+00 
          0.0000000000e+00 0.0000000000e+00 0.0000000000e+00 
          0.0000000000e+00 0.0000000000e+00 0.0000000000e+00 
          0.0000000000e+00 0.0000000000e+00 0.0000000000e+00 
          0.0000000000e+00 0.0000000000e+00 0.0000000000e+00 
          0.0000000000e+00 0.0000000000e+00 0.0000000000e+00 
          0.0000000000e+00 0.0000000000e+00 0.0000000000e+00 
          0.0000000000e+00 0.0000000000e+00 0.0000000000e+00 
          0.0000000000e+00 0.0000000000e+00 0.0000000000e+00 
          0.0000000000e+00 0.0000000000e+00 0.0000000000e+00 
          0.0000000000e+00 0.0000000000e+00 0.0000000000e+00 
          0.0000000000e+00 0.0000000000e+00 0.0000000000e+00 
          0.0000000000e+00 0.0000000000e+00 0.0000000000e+00 
          0.0000000000e+00 0.0000000000e+00 0.0000000000e+00 
          0.0000000000e+00 0.0000000000e+00 0.0000000000e+00 
          0.0000000000e+00 0.0000000000e+00 0.0000000000e+00 
        </DataArray>
      </PointData>
      <CellData>
        <DataArray type="Int64" Name="ElementTag" format="ascii">
          90
          91
          92
          93
          94
          95
          96
          97
          98
          99
          100
          101
          102
          103
          104
          105
          106
          107
          108
          109
          110
          111
          112
          113
          114
          115
          116
          117
          118
          119
          120
          121
          122
          123
          124
          125
          126
          127
          128
        </DataArray>
      </CellData>
    </Piece>
  </UnstructuredGrid>
</VTKFile>
