<?xml version="1.0"?>
<VTKFile type="UnstructuredGrid" version="1.0" byte_order="LittleEndian" compressor="vtkZLibDataCompressor">
  <UnstructuredGrid>
    <Piece NumberOfPoints="82" NumberOfCells="1">
      <Points>
        <DataArray type="Float64" Name="Points" NumberOfComponents="3" format="ascii">
          0.0000000000e+00 0.0000000000e+00 0.0000000000e+00 
          2.5000000000e-01 0.0000000000e+00 0.0000000000e+00 
          2.5000000000e-01 3.0000000000e+01 0.0000000000e+00 
          0.0000000000e+00 3.0000000000e+01 0.0000000000e+00 
          0.0000000000e+00 -5.0000000000e+00 0.0000000000e+00 
          2.5000000000e-01 -5.0000000000e+00 0.0000000000e+00 
          2.5000000000e-01 7.6923100000e-01 0.0000000000e+00 
          2.5000000000e-01 1.5384620000e+00 0.0000000000e+00 
          2.5000000000e-01 2.3076920000e+00 0.0000000000e+00 
          2.5000000000e-01 3.0769230000e+00 0.0000000000e+00 
          2.5000000000e-01 3.8461540000e+00 0.0000000000e+00 
          2.5000000000e-01 4.6153850000e+00 0.0000000000e+00 
          2.5000000000e-01 5.3846150000e+00 0.0000000000e+00 
          2.5000000000e-01 6.1538460000e+00 0.0000000000e+00 
          2.5000000000e-01 6.9230770000e+00 0.0000000000e+00 
          2.5000000000e-01 7.6923080000e+00 0.0000000000e+00 
          2.5000000000e-01 8.4615380000e+00 0.0000000000e+00 
          2.5000000000e-01 9.2307690000e+00 0.0000000000e+00 
          2.5000000000e-01 1.0000000000e+01 0.0000000000e+00 
          2.5000000000e-01 1.0769231000e+01 0.0000000000e+00 
          2.5000000000e-01 1.1538462000e+01 0.0000000000e+00 
          2.5000000000e-01 1.2307692000e+01 0.0000000000e+00 
          2.5000000000e-01 1.3076923000e+01 0.0000000000e+00 
          2.5000000000e-01 1.3846154000e+01 0.0000000000e+00 
          2.5000000000e-01 1.4615385000e+01 0.0000000000e+00 
          2.5000000000e-01 1.5384615000e+01 0.0000000000e+00 
          2.5000000000e-01 1.6153846000e+01 0.0000000000e+00 
          2.5000000000e-01 1.6923077000e+01 0.0000000000e+00 
          2.5000000000e-01 1.7692308000e+01 0.0000000000e+00 
          2.5000000000e-01 1.8461538000e+01 0.0000000000e+00 
          2.5000000000e-01 1.9230769000e+01 0.0000000000e+00 
          2.5000000000e-01 2.0000000000e+01 0.0000000000e+00 
          2.5000000000e-01 2.0769231000e+01 0.0000000000e+00 
          2.5000000000e-01 2.1538462000e+01 0.0000000000e+00 
          2.5000000000e-01 2.2307692000e+01 0.0000000000e+00 
          2.5000000000e-01 2.3076923000e+01 0.0000000000e+00 
          2.5000000000e-01 2.3846154000e+01 0.0000000000e+00 
          2.5000000000e-01 2.4615385000e+01 0.0000000000e+00 
          2.5000000000e-01 2.5384615000e+01 0.0000000000e+00 
          2.5000000000e-01 2.6153846000e+01 0.0000000000e+00 
          2.5000000000e-01 2.6923077000e+01 0.0000000000e+00 
          2.5000000000e-01 2.7692308000e+01 0.0000000000e+00 
          2.5000000000e-01 2.8461538000e+01 0.0000000000e+00 
          2.5000000000e-01 2.9230769000e+01 0.0000000000e+00 
          0.0000000000e+00 7.6923100000e-01 0.0000000000e+00 
          0.0000000000e+00 1.5384620000e+00 0.0000000000e+00 
          0.0000000000e+00 2.3076920000e+00 0.0000000000e+00 
          0.0000000000e+00 3.0769230000e+00 0.0000000000e+00 
          0.0000000000e+00 3.8461540000e+00 0.0000000000e+00 
          0.0000000000e+00 4.6153850000e+00 0.0000000000e+00 
          0.0000000000e+00 5.3846150000e+00 0.0000000000e+00 
          0.0000000000e+00 6.1538460000e+00 0.0000000000e+00 
          0.0000000000e+00 6.9230770000e+00 0.0000000000e+00 
          0.0000000000e+00 7.6923080000e+00 0.0000000000e+00 
          0.0000000000e+00 8.4615380000e+00 0.0000000000e+00 
          0.0000000000e+00 9.2307690000e+00 0.0000000000e+00 
          0.0000000000e+00 1.0000000000e+01 0.0000000000e+00 
          0.0000000000e+00 1.0769231000e+01 0.0000000000e+00 
          0.0000000000e+00 1.1538462000e+01 0.0000000000e+00 
          0.0000000000e+00 1.2307692000e+01 0.0000000000e+00 
          0.0000000000e+00 1.3076923000e+01 0.0000000000e+00 
          0.0000000000e+00 1.3846154000e+01 0.0000000000e+00 
          0.0000000000e+00 1.4615385000e+01 0.0000000000e+00 
          0.0000000000e+00 1.5384615000e+01 0.0000000000e+00 
          0.0000000000e+00 1.6153846000e+01 0.0000000000e+00 
          0.0000000000e+00 1.6923077000e+01 0.0000000000e+00 
          0.0000000000e+00 1.7692308000e+01 0.0000000000e+00 
          0.0000000000e+00 1.8461538000e+01 0.0000000000e+00 
          0.0000000000e+00 1.9230769000e+01 0.0000000000e+00 
          0.0000000000e+00 2.0000000000e+01 0.0000000000e+00 
          0.0000000000e+00 2.0769231000e+01 0.0000000000e+00 
          0.0000000000e+00 2.1538462000e+01 0.0000000000e+00 
          0.0000000000e+00 2.2307692000e+01 0.0000000000e+00 
          0.0000000000e+00 2.3076923000e+01 0.0000000000e+00 
          0.0000000000e+00 2.3846154000e+01 0.0000000000e+00 
          0.0000000000e+00 2.4615385000e+01 0.0000000000e+00 
          0.0000000000e+00 2.5384615000e+01 0.0000000000e+00 
          0.0000000000e+00 2.6153846000e+01 0.0000000000e+00 
          0.0000000000e+00 2.6923077000e+01 0.0000000000e+00 
          0.0000000000e+00 2.7692308000e+01 0.0000000000e+00 
          0.0000000000e+00 2.8461538000e+01 0.0000000000e+00 
          0.0000000000e+00 2.9230769000e+01 0.0000000000e+00 
        </DataArray>
      </Points>
      <Cells>
        <DataArray type="Int64" Name="connectivity" format="ascii">
          0
          1
          2
          3
          4
          5
          6
          7
          8
          9
          10
          11
          12
          13
          14
          15
          16
          17
          18
          19
          20
          21
          22
          23
          24
          25
          26
          27
          28
          29
          30
          31
          32
          33
          34
          35
          36
          37
          38
          39
          40
          41
          42
          43
          44
          45
          46
          47
          48
          49
          50
          51
          52
          53
          54
          55
          56
          57
          58
          59
          60
          61
          62
          63
          64
          65
          66
          67
          68
          69
          70
          71
          72
          73
          74
          75
          76
          77
          78
          79
          80
          81
        </DataArray>
        <DataArray type="Int64" Name="offsets" format="ascii">
          82
        </DataArray>
        <DataArray type="Int64" Name="types" format="ascii">
          2
        </DataArray>
      </Cells>
      <PointData>
        <DataArray type="Int64" Name="NodeTag" format="ascii">
          1
          2
          3
          4
          5
          6
          7
          8
          9
          10
          11
          12
          13
          14
          15
          16
          17
          18
          19
          20
          21
          22
          23
          24
          25
          26
          27
          28
          29
          30
          31
          32
          33
          34
          35
          36
          37
          38
          39
          40
          41
          42
          43
          44
          45
          46
          47
          48
          49
          50
          51
          52
          53
          54
          55
          56
          57
          58
          59
          60
          61
          62
          63
          64
          65
          66
          67
          68
          69
          70
          71
          72
          73
          74
          75
          76
          77
          78
          79
          80
          81
          82
        </DataArray>
        <DataArray type="Float64" Name="Velocity" NumberOfComponents="3" format="ascii">
          -2.5674178971e-03 -7.7853234668e-05 0.0000000000e+00 
          -2.5674178971e-03 -7.7853234668e-05 0.0000000000e+00 
          9.3925171940e-03 -7.8055741776e-05 0.0000000000e+00 
          9.3925171940e-03 -7.8055741776e-05 0.0000000000e+00 
          0.0000000000e+00 0.0000000000e+00 0.0000000000e+00 
          0.0000000000e+00 0.0000000000e+00 0.0000000000e+00 
          -2.1177988478e-03 -7.7914220774e-05 0.0000000000e+00 
          -1.6657512428e-03 -7.7800073626e-05 0.0000000000e+00 
          -1.2121486715e-03 -7.7926726156e-05 0.0000000000e+00 
          -7.5784370615e-04 -7.7829410989e-05 0.0000000000e+00 
          -3.0372740157e-04 -7.7944866743e-05 0.0000000000e+00 
          1.4933464300e-04 -7.7880901752e-05 0.0000000000e+00 
          6.0047908636e-04 -7.7874404476e-05 0.0000000000e+00 
          1.0488423258e-03 -7.7953548563e-05 0.0000000000e+00 
          1.4935461868e-03 -7.7864994819e-05 0.0000000000e+00 
          1.9337405604e-03 -7.7990510261e-05 0.0000000000e+00 
          2.3685791946e-03 -7.7872098468e-05 0.0000000000e+00 
          2.7972008907e-03 -7.7957282469e-05 0.0000000000e+00 
          3.2187886861e-03 -7.7970817195e-05 0.0000000000e+00 
          3.6324932573e-03 -7.7886217619e-05 0.0000000000e+00 
          4.0375099956e-03 -7.8067622815e-05 0.0000000000e+00 
          4.4330425518e-03 -7.7911870217e-05 0.0000000000e+00 
          4.8182861622e-03 -7.7962790471e-05 0.0000000000e+00 
          5.1924909198e-03 -7.8011288100e-05 0.0000000000e+00 
          5.5548775003e-03 -7.7979436752e-05 0.0000000000e+00 
          5.9047322076e-03 -7.7994010775e-05 0.0000000000e+00 
          6.2413298007e-03 -7.8041114111e-05 0.0000000000e+00 
          6.5639800836e-03 -7.8022175166e-05 0.0000000000e+00 
          6.8720317417e-03 -7.7970758980e-05 0.0000000000e+00 
          7.1648212137e-03 -7.8079128379e-05 0.0000000000e+00 
          7.4417636220e-03 -7.7993058167e-05 0.0000000000e+00 
          7.7022580873e-03 -7.8012836745e-05 0.0000000000e+00 
          7.9457598143e-03 -7.8029105928e-05 0.0000000000e+00 
          8.1717723864e-03 -7.8081587176e-05 0.0000000000e+00 
          8.3797796470e-03 -7.7974835075e-05 0.0000000000e+00 
          8.5693659341e-03 -7.8101406522e-05 0.0000000000e+00 
          8.7401203871e-03 -7.8023982641e-05 0.0000000000e+00 
          8.8916586275e-03 -7.8065819828e-05 0.0000000000e+00 
          9.0236674904e-03 -7.8063178563e-05 0.0000000000e+00 
          9.1358560500e-03 -7.8034304017e-05 0.0000000000e+00 
          9.2279887532e-03 -7.8144823978e-05 0.0000000000e+00 
          9.2998494390e-03 -7.7998172369e-05 0.0000000000e+00 
          9.3512942586e-03 -7.8081131643e-05 0.0000000000e+00 
          9.3822072757e-03 -7.8084139041e-05 0.0000000000e+00 
          -2.1177988478e-03 -7.7914220774e-05 0.0000000000e+00 
          -1.6657512428e-03 -7.7800073626e-05 0.0000000000e+00 
          -1.2121486715e-03 -7.7926726156e-05 0.0000000000e+00 
          -7.5784370615e-04 -7.7829410989e-05 0.0000000000e+00 
          -3.0372740157e-04 -7.7944866743e-05 0.0000000000e+00 
          1.4933464300e-04 -7.7880901752e-05 0.0000000000e+00 
          6.0047908636e-04 -7.7874404476e-05 0.0000000000e+00 
          1.0488423258e-03 -7.7953548563e-05 0.0000000000e+00 
          1.4935461868e-03 -7.7864994819e-05 0.0000000000e+00 
          1.9337405604e-03 -7.7990510261e-05 0.0000000000e+00 
          2.3685791946e-03 -7.7872098468e-05 0.0000000000e+00 
          2.7972008907e-03 -7.7957282469e-05 0.0000000000e+00 
          3.2187886861e-03 -7.7970817195e-05 0.0000000000e+00 
          3.6324932573e-03 -7.7886217619e-05 0.0000000000e+00 
          4.0375099956e-03 -7.8067622815e-05 0.0000000000e+00 
          4.4330425518e-03 -7.7911870217e-05 0.0000000000e+00 
          4.8182861622e-03 -7.7962790471e-05 0.0000000000e+00 
          5.1924909198e-03 -7.8011288100e-05 0.0000000000e+00 
          5.5548775003e-03 -7.7979436752e-05 0.0000000000e+00 
          5.9047322076e-03 -7.7994010775e-05 0.0000000000e+00 
          6.2413298007e-03 -7.8041114111e-05 0.0000000000e+00 
          6.5639800836e-03 -7.8022175166e-05 0.0000000000e+00 
          6.8720317417e-03 -7.7970758980e-05 0.0000000000e+00 
          7.1648212137e-03 -7.8079128379e-05 0.0000000000e+00 
          7.4417636220e-03 -7.7993058167e-05 0.0000000000e+00 
          7.7022580873e-03 -7.8012836745e-05 0.0000000000e+00 
          7.9457598143e-03 -7.8029105928e-05 0.0000000000e+00 
          8.1717723864e-03 -7.8081587176e-05 0.0000000000e+00 
          8.3797796470e-03 -7.7974835075e-05 0.0000000000e+00 
          8.5693659341e-03 -7.8101406522e-05 0.0000000000e+00 
          8.7401203871e-03 -7.8023982641e-05 0.0000000000e+00 
          8.8916586275e-03 -7.8065819828e-05 0.0000000000e+00 
          9.0236674904e-03 -7.8063178563e-05 0.0000000000e+00 
          9.1358560500e-03 -7.8034304017e-05 0.0000000000e+00 
          9.2279887532e-03 -7.8144823978e-05 0.0000000000e+00 
          9.2998494390e-03 -7.7998172369e-05 0.0000000000e+00 
          9.3512942586e-03 -7.8081131643e-05 0.0000000000e+00 
          9.3822072757e-03 -7.8084139041e-05 0.0000000000e+00 
        </DataArray>
        <DataArray type="Float64" Name="Displacement" NumberOfComponents="3" format="ascii">
          -1.2874771448e-04 -3.5158789759e-04 0.0000000000e+00 
          -1.2874771448e-04 -3.5158789759e-04 0.0000000000e+00 
          -1.1189749104e-03 -3.7517330346e-04 0.0000000000e+00 
          -1.1189749104e-03 -3.7517330346e-04 0.0000000000e+00 
          0.0000000000e+00 0.0000000000e+00 0.0000000000e+00 
          0.0000000000e+00 0.0000000000e+00 0.0000000000e+00 
          -1.7123434197e-04 -3.5278178915e-04 0.0000000000e+00 
          -2.1336716943e-04 -3.5394451458e-04 0.0000000000e+00 
          -2.5509237666e-04 -3.5507647177e-04 0.0000000000e+00 
          -2.9635699731e-04 -3.5617727993e-04 0.0000000000e+00 
          -3.3710863666e-04 -3.5724701442e-04 0.0000000000e+00 
          -3.7729580680e-04 -3.5828601231e-04 0.0000000000e+00 
          -4.1686783973e-04 -3.5929385988e-04 0.0000000000e+00 
          -4.5577510836e-04 -3.6027057964e-04 0.0000000000e+00 
          -4.9396885521e-04 -3.6121652290e-04 0.0000000000e+00 
          -5.3140138586e-04 -3.6213135715e-04 0.0000000000e+00 
          -5.6802607114e-04 -3.6301506889e-04 0.0000000000e+00 
          -6.0379753680e-04 -3.6386797408e-04 0.0000000000e+00 
          -6.3867145563e-04 -3.6468978808e-04 0.0000000000e+00 
          -6.7260476638e-04 -3.6548054510e-04 0.0000000000e+00 
          -7.0555574384e-04 -3.6624031343e-04 0.0000000000e+00 
          -7.3748387859e-04 -3.6696919807e-04 0.0000000000e+00 
          -7.6835017735e-04 -3.6766688932e-04 0.0000000000e+00 
          -7.9811692576e-04 -3.6833378205e-04 0.0000000000e+00 
          -8.2674783000e-04 -3.6896941105e-04 0.0000000000e+00 
          -8.5420816167e-04 -3.6957422140e-04 0.0000000000e+00 
          -8.8046466351e-04 -3.7014813332e-04 0.0000000000e+00 
          -9.0548557301e-04 -3.7069069787e-04 0.0000000000e+00 
          -9.2924075180e-04 -3.7120258703e-04 0.0000000000e+00 
          -9.5170154280e-04 -3.7168330701e-04 0.0000000000e+00 
          -9.7284111920e-04 -3.7213307293e-04 0.0000000000e+00 
          -9.9263408577e-04 -3.7255188050e-04 0.0000000000e+00 
          -1.0110567635e-03 -3.7293946195e-04 0.0000000000e+00 
          -1.0280872398e-03 -3.7329639971e-04 0.0000000000e+00 
          -1.0437051402e-03 -3.7362200303e-04 0.0000000000e+00 
          -1.0578920052e-03 -3.7391667889e-04 0.0000000000e+00 
          -1.0706309409e-03 -3.7418049033e-04 0.0000000000e+00 
          -1.0819068063e-03 -3.7441305699e-04 0.0000000000e+00 
          -1.0917063489e-03 -3.7461474826e-04 0.0000000000e+00 
          -1.1000179036e-03 -3.7478551639e-04 0.0000000000e+00 
          -1.1068316821e-03 -3.7492498538e-04 0.0000000000e+00 
          -1.1121396476e-03 -3.7503359452e-04 0.0000000000e+00 
          -1.1159354927e-03 -3.7511128042e-04 0.0000000000e+00 
          -1.1182148236e-03 -3.7515767995e-04 0.0000000000e+00 
          -1.7123434197e-04 -3.5278178915e-04 0.0000000000e+00 
          -2.1336716943e-04 -3.5394451458e-04 0.0000000000e+00 
          -2.5509237666e-04 -3.5507647177e-04 0.0000000000e+00 
          -2.9635699731e-04 -3.5617727993e-04 0.0000000000e+00 
          -3.3710863666e-04 -3.5724701442e-04 0.0000000000e+00 
          -3.7729580680e-04 -3.5828601231e-04 0.0000000000e+00 
          -4.1686783973e-04 -3.5929385988e-04 0.0000000000e+00 
          -4.5577510836e-04 -3.6027057964e-04 0.0000000000e+00 
          -4.9396885521e-04 -3.6121652290e-04 0.0000000000e+00 
          -5.3140138586e-04 -3.6213135715e-04 0.0000000000e+00 
          -5.6802607114e-04 -3.6301506889e-04 0.0000000000e+00 
          -6.0379753680e-04 -3.6386797408e-04 0.0000000000e+00 
          -6.3867145563e-04 -3.6468978808e-04 0.0000000000e+00 
          -6.7260476638e-04 -3.6548054510e-04 0.0000000000e+00 
          -7.0555574384e-04 -3.6624031343e-04 0.0000000000e+00 
          -7.3748387859e-04 -3.6696919807e-04 0.0000000000e+00 
          -7.6835017735e-04 -3.6766688932e-04 0.0000000000e+00 
          -7.9811692576e-04 -3.6833378205e-04 0.0000000000e+00 
          -8.2674783000e-04 -3.6896941105e-04 0.0000000000e+00 
          -8.5420816167e-04 -3.6957422140e-04 0.0000000000e+00 
          -8.8046466351e-04 -3.7014813332e-04 0.0000000000e+00 
          -9.0548557301e-04 -3.7069069787e-04 0.0000000000e+00 
          -9.2924075180e-04 -3.7120258703e-04 0.0000000000e+00 
          -9.5170154280e-04 -3.7168330701e-04 0.0000000000e+00 
          -9.7284111920e-04 -3.7213307293e-04 0.0000000000e+00 
          -9.9263408577e-04 -3.7255188050e-04 0.0000000000e+00 
          -1.0110567635e-03 -3.7293946195e-04 0.0000000000e+00 
          -1.0280872398e-03 -3.7329639971e-04 0.0000000000e+00 
          -1.0437051402e-03 -3.7362200303e-04 0.0000000000e+00 
          -1.0578920052e-03 -3.7391667889e-04 0.0000000000e+00 
          -1.0706309409e-03 -3.7418049033e-04 0.0000000000e+00 
          -1.0819068063e-03 -3.7441305699e-04 0.0000000000e+00 
          -1.0917063489e-03 -3.7461474826e-04 0.0000000000e+00 
          -1.1000179036e-03 -3.7478551639e-04 0.0000000000e+00 
          -1.1068316821e-03 -3.7492498538e-04 0.0000000000e+00 
          -1.1121396476e-03 -3.7503359452e-04 0.0000000000e+00 
          -1.1159354927e-03 -3.7511128042e-04 0.0000000000e+00 
          -1.1182148236e-03 -3.7515767995e-04 0.0000000000e+00 
        </DataArray>
        <DataArray type="Float64" Name="Acceleration" NumberOfComponents="3" format="ascii">
          2.6975393891e-02 -4.2381264775e-06 0.0000000000e+00 
          2.6975393891e-02 -4.2381264775e-06 0.0000000000e+00 
          1.3697064896e-01 4.3370855136e-05 0.0000000000e+00 
          1.3697064896e-01 4.3370855136e-05 0.0000000000e+00 
          0.0000000000e+00 0.0000000000e+00 0.0000000000e+00 
          0.0000000000e+00 0.0000000000e+00 0.0000000000e+00 
          3.1878081635e-02 2.8796598904e-05 0.0000000000e+00 
          3.6722523948e-02 -4.3168760592e-05 0.0000000000e+00 
          4.1504674977e-02 2.5982138160e-05 0.0000000000e+00 
          4.6220627465e-02 1.2134498738e-05 0.0000000000e+00 
          5.0859791238e-02 -4.8608517409e-05 0.0000000000e+00 
          5.5420478598e-02 2.5714583519e-05 0.0000000000e+00 
          5.9901249421e-02 2.2130008471e-05 0.0000000000e+00 
          6.4289721825e-02 -4.1418400841e-05 0.0000000000e+00 
          6.8587083024e-02 1.8501905100e-05 0.0000000000e+00 
          7.2784220770e-02 2.0733390180e-05 0.0000000000e+00 
          7.6881112588e-02 -3.5793685168e-05 0.0000000000e+00 
          8.0870741619e-02 1.5290352032e-05 0.0000000000e+00 
          8.4750645429e-02 9.1275464368e-06 0.0000000000e+00 
          8.8510170305e-02 -3.1796312985e-06 0.0000000000e+00 
          9.2156467567e-02 -2.2269773004e-05 0.0000000000e+00 
          9.5677321559e-02 3.3883059253e-05 0.0000000000e+00 
          9.9071657709e-02 -3.7450365241e-05 0.0000000000e+00 
          1.0234180340e-01 4.6383962465e-05 0.0000000000e+00 
          1.0546775192e-01 -3.3961110186e-05 0.0000000000e+00 
          1.0847073214e-01 -1.9300045228e-05 0.0000000000e+00 
          1.1132931017e-01 6.1457535306e-05 0.0000000000e+00 
          1.1404483657e-01 -5.9640528649e-05 0.0000000000e+00 
          1.1662434046e-01 2.9237904309e-05 0.0000000000e+00 
          1.1904675326e-01 -9.3045131595e-06 0.0000000000e+00 
          1.2133220502e-01 -8.6481088338e-06 0.0000000000e+00 
          1.2346573087e-01 3.9606996318e-05 0.0000000000e+00 
          1.2544009485e-01 -6.5352859836e-05 0.0000000000e+00 
          1.2727413490e-01 5.9055963654e-05 0.0000000000e+00 
          1.2894103128e-01 -1.4136244630e-05 0.0000000000e+00 
          1.3046128970e-01 -2.5572778069e-05 0.0000000000e+00 
          1.3182551755e-01 4.2967186823e-05 0.0000000000e+00 
          1.3301853872e-01 -2.3640211254e-05 0.0000000000e+00 
          1.3407189107e-01 -1.4942410340e-05 0.0000000000e+00 
          1.3495258807e-01 5.2765183599e-05 0.0000000000e+00 
          1.3567672475e-01 -2.6396242898e-05 0.0000000000e+00 
          1.3624467915e-01 -1.4991062377e-05 0.0000000000e+00 
          1.3664145403e-01 5.0485474857e-05 0.0000000000e+00 
          1.3688689406e-01 -4.1503248886e-05 0.0000000000e+00 
          3.1878081635e-02 2.8796598904e-05 0.0000000000e+00 
          3.6722523948e-02 -4.3168760592e-05 0.0000000000e+00 
          4.1504674977e-02 2.5982138160e-05 0.0000000000e+00 
          4.6220627465e-02 1.2134498738e-05 0.0000000000e+00 
          5.0859791238e-02 -4.8608517409e-05 0.0000000000e+00 
          5.5420478598e-02 2.5714583519e-05 0.0000000000e+00 
          5.9901249421e-02 2.2130008471e-05 0.0000000000e+00 
          6.4289721825e-02 -4.1418400841e-05 0.0000000000e+00 
          6.8587083024e-02 1.8501905100e-05 0.0000000000e+00 
          7.2784220770e-02 2.0733390180e-05 0.0000000000e+00 
          7.6881112588e-02 -3.5793685168e-05 0.0000000000e+00 
          8.0870741619e-02 1.5290352032e-05 0.0000000000e+00 
          8.4750645429e-02 9.1275464368e-06 0.0000000000e+00 
          8.8510170305e-02 -3.1796312985e-06 0.0000000000e+00 
          9.2156467567e-02 -2.2269773004e-05 0.0000000000e+00 
          9.5677321559e-02 3.3883059253e-05 0.0000000000e+00 
          9.9071657709e-02 -3.7450365241e-05 0.0000000000e+00 
          1.0234180340e-01 4.6383962465e-05 0.0000000000e+00 
          1.0546775192e-01 -3.3961110186e-05 0.0000000000e+00 
          1.0847073214e-01 -1.9300045228e-05 0.0000000000e+00 
          1.1132931017e-01 6.1457535306e-05 0.0000000000e+00 
          1.1404483657e-01 -5.9640528649e-05 0.0000000000e+00 
          1.1662434046e-01 2.9237904309e-05 0.0000000000e+00 
          1.1904675326e-01 -9.3045131595e-06 0.0000000000e+00 
          1.2133220502e-01 -8.6481088338e-06 0.0000000000e+00 
          1.2346573087e-01 3.9606996318e-05 0.0000000000e+00 
          1.2544009485e-01 -6.5352859836e-05 0.0000000000e+00 
          1.2727413490e-01 5.9055963654e-05 0.0000000000e+00 
          1.2894103128e-01 -1.4136244630e-05 0.0000000000e+00 
          1.3046128970e-01 -2.5572778069e-05 0.0000000000e+00 
          1.3182551755e-01 4.2967186823e-05 0.0000000000e+00 
          1.3301853872e-01 -2.3640211254e-05 0.0000000000e+00 
          1.3407189107e-01 -1.4942410340e-05 0.0000000000e+00 
          1.3495258807e-01 5.2765183599e-05 0.0000000000e+00 
          1.3567672475e-01 -2.6396242898e-05 0.0000000000e+00 
          1.3624467915e-01 -1.4991062377e-05 0.0000000000e+00 
          1.3664145403e-01 5.0485474857e-05 0.0000000000e+00 
          1.3688689406e-01 -4.1503248886e-05 0.0000000000e+00 
        </DataArray>
        <DataArray type="Float64" Name="Reaction" NumberOfComponents="3" format="ascii">
          0.0000000000e+00 0.0000000000e+00 0.0000000000e+00 
          0.0000000000e+00 0.0000000000e+00 0.0000000000e+00 
          0.0000000000e+00 0.0000000000e+00 0.0000000000e+00 
          0.0000000000e+00 0.0000000000e+00 0.0000000000e+00 
          0.0000000000e+00 0.0000000000e+00 0.0000000000e+00 
          0.0000000000e+00 0.0000000000e+00 0.0000000000e+00 
          0.0000000000e+00 0.0000000000e+00 0.0000000000e+00 
          0.0000000000e+00 0.0000000000e+00 0.0000000000e+00 
          0.0000000000e+00 0.0000000000e+00 0.0000000000e+00 
          0.0000000000e+00 0.0000000000e+00 0.0000000000e+00 
          0.0000000000e+00 0.0000000000e+00 0.0000000000e+00 
          0.0000000000e+00 0.0000000000e+00 0.0000000000e+00 
          0.0000000000e+00 0.0000000000e+00 0.0000000000e+00 
          0.0000000000e+00 0.0000000000e+00 0.0000000000e+00 
          0.0000000000e+00 0.0000000000e+00 0.0000000000e+00 
          0.0000000000e+00 0.0000000000e+00 0.0000000000e+00 
          0.0000000000e+00 0.0000000000e+00 0.0000000000e+00 
          0.0000000000e+00 0.0000000000e+00 0.0000000000e+00 
          0.0000000000e+00 0.0000000000e+00 0.0000000000e+00 
          0.0000000000e+00 0.0000000000e+00 0.0000000000e+00 
          0.0000000000e+00 0.0000000000e+00 0.0000000000e+00 
          0.0000000000e+00 0.0000000000e+00 0.0000000000e+00 
          0.0000000000e+00 0.0000000000e+00 0.0000000000e+00 
          0.0000000000e+00 0.0000000000e+00 0.0000000000e+00 
          0.0000000000e+00 0.0000000000e+00 0.0000000000e+00 
          0.0000000000e+00 0.0000000000e+00 0.0000000000e+00 
          0.0000000000e+00 0.0000000000e+00 0.0000000000e+00 
          0.0000000000e+00 0.0000000000e+00 0.0000000000e+00 
          0.0000000000e+00 0.0000000000e+00 0.0000000000e+00 
          0.0000000000e+00 0.0000000000e+00 0.0000000000e+00 
          0.0000000000e+00 0.0000000000e+00 0.0000000000e+00 
          0.0000000000e+00 0.0000000000e+00 0.0000000000e+00 
          0.0000000000e+00 0.0000000000e+00 0.0000000000e+00 
          0.0000000000e+00 0.0000000000e+00 0.0000000000e+00 
          0.0000000000e+00 0.0000000000e+00 0.0000000000e+00 
          0.0000000000e+00 0.0000000000e+00 0.0000000000e+00 
          0.0000000000e+00 0.0000000000e+00 0.0000000000e+00 
          0.0000000000e+00 0.0000000000e+00 0.0000000000e+00 
          0.0000000000e+00 0.0000000000e+00 0.0000000000e+00 
          0.0000000000e+00 0.0000000000e+00 0.0000000000e+00 
          0.0000000000e+00 0.0000000000e+00 0.0000000000e+00 
          0.0000000000e+00 0.0000000000e+00 0.0000000000e+00 
          0.0000000000e+00 0.0000000000e+00 0.0000000000e+00 
          0.0000000000e+00 0.0000000000e+00 0.0000000000e+00 
          0.0000000000e+00 0.0000000000e+00 0.0000000000e+00 
          0.0000000000e+00 0.0000000000e+00 0.0000000000e+00 
          0.0000000000e+00 0.0000000000e+00 0.0000000000e+00 
          0.0000000000e+00 0.0000000000e+00 0.0000000000e+00 
          0.0000000000e+00 0.0000000000e+00 0.0000000000e+00 
          0.0000000000e+00 0.0000000000e+00 0.0000000000e+00 
          0.0000000000e+00 0.0000000000e+00 0.0000000000e+00 
          0.0000000000e+00 0.0000000000e+00 0.0000000000e+00 
          0.0000000000e+00 0.0000000000e+00 0.0000000000e+00 
          0.0000000000e+00 0.0000000000e+00 0.0000000000e+00 
          0.0000000000e+00 0.0000000000e+00 0.0000000000e+00 
          0.0000000000e+00 0.0000000000e+00 0.0000000000e+00 
          0.0000000000e+00 0.0000000000e+00 0.0000000000e+00 
          0.0000000000e+00 0.0000000000e+00 0.0000000000e+00 
          0.0000000000e+00 0.0000000000e+00 0.0000000000e+00 
          0.0000000000e+00 0.0000000000e+00 0.0000000000e+00 
          0.0000000000e+00 0.0000000000e+00 0.0000000000e+00 
          0.0000000000e+00 0.0000000000e+00 0.0000000000e+00 
          0.0000000000e+00 0.0000000000e+00 0.0000000000e+00 
          0.0000000000e+00 0.0000000000e+00 0.0000000000e+00 
          0.0000000000e+00 0.0000000000e+00 0.0000000000e+00 
          0.0000000000e+00 0.0000000000e+00 0.0000000000e+00 
          0.0000000000e+00 0.0000000000e+00 0.0000000000e+00 
          0.0000000000e+00 0.0000000000e+00 0.0000000000e+00 
          0.0000000000e+00 0.0000000000e+00 0.0000000000e+00 
          0.0000000000e+00 0.0000000000e+00 0.0000000000e+00 
          0.0000000000e+00 0.0000000000e+00 0.0000000000e+00 
          0.0000000000e+00 0.0000000000e+00 0.0000000000e+00 
          0.0000000000e+00 0.0000000000e+00 0.0000000000e+00 
          0.0000000000e+00 0.0000000000e+00 0.0000000000e+00 
          0.0000000000e+00 0.0000000000e+00 0.0000000000e+00 
          0.0000000000e+00 0.0000000000e+00 0.0000000000e+00 
          0.0000000000e+00 0.0000000000e+00 0.0000000000e+00 
          0.0000000000e+00 0.0000000000e+00 0.0000000000e+00 
          0.0000000000e+00 0.0000000000e+00 0.0000000000e+00 
          0.0000000000e+00 0.0000000000e+00 0.0000000000e+00 
          0.0000000000e+00 0.0000000000e+00 0.0000000000e+00 
          0.0000000000e+00 0.0000000000e+00 0.0000000000e+00 
        </DataArray>
      </PointData>
      <CellData>
        <DataArray type="Int64" Name="ElementTag" format="ascii">
          0
        </DataArray>
      </CellData>
    </Piece>
  </UnstructuredGrid>
</VTKFile>
