<?xml version="1.0"?>
<VTKFile type="UnstructuredGrid" version="1.0" byte_order="LittleEndian" compressor="vtkZLibDataCompressor">
  <UnstructuredGrid>
    <Piece NumberOfPoints="82" NumberOfCells="1">
      <Points>
        <DataArray type="Float64" Name="Points" NumberOfComponents="3" format="ascii">
          0.0000000000e+00 0.0000000000e+00 0.0000000000e+00 
          2.5000000000e-01 0.0000000000e+00 0.0000000000e+00 
          2.5000000000e-01 3.0000000000e+01 0.0000000000e+00 
          0.0000000000e+00 3.0000000000e+01 0.0000000000e+00 
          0.0000000000e+00 -5.0000000000e+00 0.0000000000e+00 
          2.5000000000e-01 -5.0000000000e+00 0.0000000000e+00 
          2.5000000000e-01 7.6923100000e-01 0.0000000000e+00 
          2.5000000000e-01 1.5384620000e+00 0.0000000000e+00 
          2.5000000000e-01 2.3076920000e+00 0.0000000000e+00 
          2.5000000000e-01 3.0769230000e+00 0.0000000000e+00 
          2.5000000000e-01 3.8461540000e+00 0.0000000000e+00 
          2.5000000000e-01 4.6153850000e+00 0.0000000000e+00 
          2.5000000000e-01 5.3846150000e+00 0.0000000000e+00 
          2.5000000000e-01 6.1538460000e+00 0.0000000000e+00 
          2.5000000000e-01 6.9230770000e+00 0.0000000000e+00 
          2.5000000000e-01 7.6923080000e+00 0.0000000000e+00 
          2.5000000000e-01 8.4615380000e+00 0.0000000000e+00 
          2.5000000000e-01 9.2307690000e+00 0.0000000000e+00 
          2.5000000000e-01 1.0000000000e+01 0.0000000000e+00 
          2.5000000000e-01 1.0769231000e+01 0.0000000000e+00 
          2.5000000000e-01 1.1538462000e+01 0.0000000000e+00 
          2.5000000000e-01 1.2307692000e+01 0.0000000000e+00 
          2.5000000000e-01 1.3076923000e+01 0.0000000000e+00 
          2.5000000000e-01 1.3846154000e+01 0.0000000000e+00 
          2.5000000000e-01 1.4615385000e+01 0.0000000000e+00 
          2.5000000000e-01 1.5384615000e+01 0.0000000000e+00 
          2.5000000000e-01 1.6153846000e+01 0.0000000000e+00 
          2.5000000000e-01 1.6923077000e+01 0.0000000000e+00 
          2.5000000000e-01 1.7692308000e+01 0.0000000000e+00 
          2.5000000000e-01 1.8461538000e+01 0.0000000000e+00 
          2.5000000000e-01 1.9230769000e+01 0.0000000000e+00 
          2.5000000000e-01 2.0000000000e+01 0.0000000000e+00 
          2.5000000000e-01 2.0769231000e+01 0.0000000000e+00 
          2.5000000000e-01 2.1538462000e+01 0.0000000000e+00 
          2.5000000000e-01 2.2307692000e+01 0.0000000000e+00 
          2.5000000000e-01 2.3076923000e+01 0.0000000000e+00 
          2.5000000000e-01 2.3846154000e+01 0.0000000000e+00 
          2.5000000000e-01 2.4615385000e+01 0.0000000000e+00 
          2.5000000000e-01 2.5384615000e+01 0.0000000000e+00 
          2.5000000000e-01 2.6153846000e+01 0.0000000000e+00 
          2.5000000000e-01 2.6923077000e+01 0.0000000000e+00 
          2.5000000000e-01 2.7692308000e+01 0.0000000000e+00 
          2.5000000000e-01 2.8461538000e+01 0.0000000000e+00 
          2.5000000000e-01 2.9230769000e+01 0.0000000000e+00 
          0.0000000000e+00 7.6923100000e-01 0.0000000000e+00 
          0.0000000000e+00 1.5384620000e+00 0.0000000000e+00 
          0.0000000000e+00 2.3076920000e+00 0.0000000000e+00 
          0.0000000000e+00 3.0769230000e+00 0.0000000000e+00 
          0.0000000000e+00 3.8461540000e+00 0.0000000000e+00 
          0.0000000000e+00 4.6153850000e+00 0.0000000000e+00 
          0.0000000000e+00 5.3846150000e+00 0.0000000000e+00 
          0.0000000000e+00 6.1538460000e+00 0.0000000000e+00 
          0.0000000000e+00 6.9230770000e+00 0.0000000000e+00 
          0.0000000000e+00 7.6923080000e+00 0.0000000000e+00 
          0.0000000000e+00 8.4615380000e+00 0.0000000000e+00 
          0.0000000000e+00 9.2307690000e+00 0.0000000000e+00 
          0.0000000000e+00 1.0000000000e+01 0.0000000000e+00 
          0.0000000000e+00 1.0769231000e+01 0.0000000000e+00 
          0.0000000000e+00 1.1538462000e+01 0.0000000000e+00 
          0.0000000000e+00 1.2307692000e+01 0.0000000000e+00 
          0.0000000000e+00 1.3076923000e+01 0.0000000000e+00 
          0.0000000000e+00 1.3846154000e+01 0.0000000000e+00 
          0.0000000000e+00 1.4615385000e+01 0.0000000000e+00 
          0.0000000000e+00 1.5384615000e+01 0.0000000000e+00 
          0.0000000000e+00 1.6153846000e+01 0.0000000000e+00 
          0.0000000000e+00 1.6923077000e+01 0.0000000000e+00 
          0.0000000000e+00 1.7692308000e+01 0.0000000000e+00 
          0.0000000000e+00 1.8461538000e+01 0.0000000000e+00 
          0.0000000000e+00 1.9230769000e+01 0.0000000000e+00 
          0.0000000000e+00 2.0000000000e+01 0.0000000000e+00 
          0.0000000000e+00 2.0769231000e+01 0.0000000000e+00 
          0.0000000000e+00 2.1538462000e+01 0.0000000000e+00 
          0.0000000000e+00 2.2307692000e+01 0.0000000000e+00 
          0.0000000000e+00 2.3076923000e+01 0.0000000000e+00 
          0.0000000000e+00 2.3846154000e+01 0.0000000000e+00 
          0.0000000000e+00 2.4615385000e+01 0.0000000000e+00 
          0.0000000000e+00 2.5384615000e+01 0.0000000000e+00 
          0.0000000000e+00 2.6153846000e+01 0.0000000000e+00 
          0.0000000000e+00 2.6923077000e+01 0.0000000000e+00 
          0.0000000000e+00 2.7692308000e+01 0.0000000000e+00 
          0.0000000000e+00 2.8461538000e+01 0.0000000000e+00 
          0.0000000000e+00 2.9230769000e+01 0.0000000000e+00 
        </DataArray>
      </Points>
      <Cells>
        <DataArray type="Int64" Name="connectivity" format="ascii">
          0
          1
          2
          3
          4
          5
          6
          7
          8
          9
          10
          11
          12
          13
          14
          15
          16
          17
          18
          19
          20
          21
          22
          23
          24
          25
          26
          27
          28
          29
          30
          31
          32
          33
          34
          35
          36
          37
          38
          39
          40
          41
          42
          43
          44
          45
          46
          47
          48
          49
          50
          51
          52
          53
          54
          55
          56
          57
          58
          59
          60
          61
          62
          63
          64
          65
          66
          67
          68
          69
          70
          71
          72
          73
          74
          75
          76
          77
          78
          79
          80
          81
        </DataArray>
        <DataArray type="Int64" Name="offsets" format="ascii">
          82
        </DataArray>
        <DataArray type="Int64" Name="types" format="ascii">
          2
        </DataArray>
      </Cells>
      <PointData>
        <DataArray type="Int64" Name="NodeTag" format="ascii">
          1
          2
          3
          4
          5
          6
          7
          8
          9
          10
          11
          12
          13
          14
          15
          16
          17
          18
          19
          20
          21
          22
          23
          24
          25
          26
          27
          28
          29
          30
          31
          32
          33
          34
          35
          36
          37
          38
          39
          40
          41
          42
          43
          44
          45
          46
          47
          48
          49
          50
          51
          52
          53
          54
          55
          56
          57
          58
          59
          60
          61
          62
          63
          64
          65
          66
          67
          68
          69
          70
          71
          72
          73
          74
          75
          76
          77
          78
          79
          80
          81
          82
        </DataArray>
        <DataArray type="Float64" Name="Velocity" NumberOfComponents="3" format="ascii">
          -2.1169996208e-05 -7.7845759142e-05 0.0000000000e+00 
          -2.1169996208e-05 -7.7845759142e-05 0.0000000000e+00 
          6.2132328174e-05 -7.7901303428e-05 0.0000000000e+00 
          6.2132328174e-05 -7.7901303428e-05 0.0000000000e+00 
          0.0000000000e+00 0.0000000000e+00 0.0000000000e+00 
          0.0000000000e+00 0.0000000000e+00 0.0000000000e+00 
          -1.8085395284e-05 -7.7844696452e-05 0.0000000000e+00 
          -1.4982416993e-05 -7.7837505130e-05 0.0000000000e+00 
          -1.1858097746e-05 -7.7853797395e-05 0.0000000000e+00 
          -8.7269829878e-06 -7.7848466456e-05 0.0000000000e+00 
          -5.5959715167e-06 -7.7810663465e-05 0.0000000000e+00 
          -2.4591832847e-06 -7.7907915616e-05 0.0000000000e+00 
          6.5824821112e-07 -7.7768558893e-05 0.0000000000e+00 
          3.7673771252e-06 -7.7902246679e-05 0.0000000000e+00 
          6.8534986348e-06 -7.7823257666e-05 0.0000000000e+00 
          9.9069618990e-06 -7.7830821135e-05 0.0000000000e+00 
          1.2934603410e-05 -7.7870697687e-05 0.0000000000e+00 
          1.5913215054e-05 -7.7823204528e-05 0.0000000000e+00 
          1.8854367764e-05 -7.7850886364e-05 0.0000000000e+00 
          2.1735117286e-05 -7.7848850549e-05 0.0000000000e+00 
          2.4562307548e-05 -7.7836165515e-05 0.0000000000e+00 
          2.7327289689e-05 -7.7844046090e-05 0.0000000000e+00 
          3.0015951058e-05 -7.7854202946e-05 0.0000000000e+00 
          3.2636897023e-05 -7.7829270209e-05 0.0000000000e+00 
          3.5170817740e-05 -7.7852352534e-05 0.0000000000e+00 
          3.7623401220e-05 -7.7849222295e-05 0.0000000000e+00 
          3.9980984162e-05 -7.7823859690e-05 0.0000000000e+00 
          4.2244749662e-05 -7.7864000258e-05 0.0000000000e+00 
          4.4405657733e-05 -7.7842859845e-05 0.0000000000e+00 
          4.6461086792e-05 -7.7817586473e-05 0.0000000000e+00 
          4.8407570499e-05 -7.7878171536e-05 0.0000000000e+00 
          5.0236289228e-05 -7.7823924729e-05 0.0000000000e+00 
          5.1949363398e-05 -7.7841216436e-05 0.0000000000e+00 
          5.3539492657e-05 -7.7852946710e-05 0.0000000000e+00 
          5.5000477035e-05 -7.7841161054e-05 0.0000000000e+00 
          5.6338273292e-05 -7.7839309793e-05 0.0000000000e+00 
          5.7537052353e-05 -7.7841560144e-05 0.0000000000e+00 
          5.8605998277e-05 -7.7856018772e-05 0.0000000000e+00 
          5.9536268609e-05 -7.7822628591e-05 0.0000000000e+00 
          6.0323858579e-05 -7.7863806601e-05 0.0000000000e+00 
          6.0977306552e-05 -7.7831783077e-05 0.0000000000e+00 
          6.1479597480e-05 -7.7835412735e-05 0.0000000000e+00 
          6.1843918935e-05 -7.7873755670e-05 0.0000000000e+00 
          6.2063249865e-05 -7.7792640103e-05 0.0000000000e+00 
          -1.8085395284e-05 -7.7844696452e-05 0.0000000000e+00 
          -1.4982416993e-05 -7.7837505130e-05 0.0000000000e+00 
          -1.1858097746e-05 -7.7853797395e-05 0.0000000000e+00 
          -8.7269829878e-06 -7.7848466456e-05 0.0000000000e+00 
          -5.5959715167e-06 -7.7810663465e-05 0.0000000000e+00 
          -2.4591832847e-06 -7.7907915616e-05 0.0000000000e+00 
          6.5824821112e-07 -7.7768558893e-05 0.0000000000e+00 
          3.7673771252e-06 -7.7902246679e-05 0.0000000000e+00 
          6.8534986348e-06 -7.7823257666e-05 0.0000000000e+00 
          9.9069618990e-06 -7.7830821135e-05 0.0000000000e+00 
          1.2934603410e-05 -7.7870697687e-05 0.0000000000e+00 
          1.5913215054e-05 -7.7823204528e-05 0.0000000000e+00 
          1.8854367764e-05 -7.7850886364e-05 0.0000000000e+00 
          2.1735117286e-05 -7.7848850549e-05 0.0000000000e+00 
          2.4562307548e-05 -7.7836165515e-05 0.0000000000e+00 
          2.7327289689e-05 -7.7844046090e-05 0.0000000000e+00 
          3.0015951058e-05 -7.7854202946e-05 0.0000000000e+00 
          3.2636897023e-05 -7.7829270209e-05 0.0000000000e+00 
          3.5170817740e-05 -7.7852352534e-05 0.0000000000e+00 
          3.7623401220e-05 -7.7849222295e-05 0.0000000000e+00 
          3.9980984162e-05 -7.7823859690e-05 0.0000000000e+00 
          4.2244749662e-05 -7.7864000258e-05 0.0000000000e+00 
          4.4405657733e-05 -7.7842859845e-05 0.0000000000e+00 
          4.6461086792e-05 -7.7817586473e-05 0.0000000000e+00 
          4.8407570499e-05 -7.7878171536e-05 0.0000000000e+00 
          5.0236289228e-05 -7.7823924729e-05 0.0000000000e+00 
          5.1949363398e-05 -7.7841216436e-05 0.0000000000e+00 
          5.3539492657e-05 -7.7852946710e-05 0.0000000000e+00 
          5.5000477035e-05 -7.7841161054e-05 0.0000000000e+00 
          5.6338273292e-05 -7.7839309793e-05 0.0000000000e+00 
          5.7537052353e-05 -7.7841560144e-05 0.0000000000e+00 
          5.8605998277e-05 -7.7856018772e-05 0.0000000000e+00 
          5.9536268609e-05 -7.7822628591e-05 0.0000000000e+00 
          6.0323858579e-05 -7.7863806601e-05 0.0000000000e+00 
          6.0977306552e-05 -7.7831783077e-05 0.0000000000e+00 
          6.1479597480e-05 -7.7835412735e-05 0.0000000000e+00 
          6.1843918935e-05 -7.7873755670e-05 0.0000000000e+00 
          6.2063249865e-05 -7.7792640103e-05 0.0000000000e+00 
        </DataArray>
        <DataArray type="Float64" Name="Displacement" NumberOfComponents="3" format="ascii">
          -8.0710242239e-07 -5.9368613695e-04 0.0000000000e+00 
          -8.0710242239e-07 -5.9368613695e-04 0.0000000000e+00 
          -9.0748728014e-06 -6.1726635561e-04 0.0000000000e+00 
          -9.0748728014e-06 -6.1726635561e-04 0.0000000000e+00 
          0.0000000000e+00 0.0000000000e+00 0.0000000000e+00 
          0.0000000000e+00 0.0000000000e+00 0.0000000000e+00 
          -1.1576399085e-06 -5.9487990077e-04 0.0000000000e+00 
          -1.5056712408e-06 -5.9604259987e-04 0.0000000000e+00 
          -1.8507059270e-06 -5.9717434245e-04 0.0000000000e+00 
          -2.1923095343e-06 -5.9827509818e-04 0.0000000000e+00 
          -2.5300330166e-06 -5.9934475056e-04 0.0000000000e+00 
          -2.8633984543e-06 -6.0038354563e-04 0.0000000000e+00 
          -3.1920142999e-06 -6.0139116294e-04 0.0000000000e+00 
          -3.5154120457e-06 -6.0236793663e-04 0.0000000000e+00 
          -3.8331760225e-06 -6.0331358471e-04 0.0000000000e+00 
          -4.1449107710e-06 -6.0422827827e-04 0.0000000000e+00 
          -4.4501728437e-06 -6.0511198464e-04 0.0000000000e+00 
          -4.7485974976e-06 -6.0596460459e-04 0.0000000000e+00 
          -5.0397769538e-06 -6.0678634457e-04 0.0000000000e+00 
          -5.3233311835e-06 -6.0757692745e-04 0.0000000000e+00 
          -5.5989076804e-06 -6.0833664367e-04 0.0000000000e+00 
          -5.8661252107e-06 -6.0906526598e-04 0.0000000000e+00 
          -6.1246574855e-06 -6.0976289215e-04 0.0000000000e+00 
          -6.3741557999e-06 -6.1042957939e-04 0.0000000000e+00 
          -6.6143016593e-06 -6.1106512446e-04 0.0000000000e+00 
          -6.8447846660e-06 -6.1166986070e-04 0.0000000000e+00 
          -7.0653024376e-06 -6.1224335215e-04 0.0000000000e+00 
          -7.2755751134e-06 -6.1278605895e-04 0.0000000000e+00 
          -7.4753227219e-06 -6.1329763904e-04 0.0000000000e+00 
          -7.6642978773e-06 -6.1377817047e-04 0.0000000000e+00 
          -7.8422435650e-06 -6.1422789403e-04 0.0000000000e+00 
          -8.0089390658e-06 -6.1464632564e-04 0.0000000000e+00 
          -8.1641706073e-06 -6.1503403770e-04 0.0000000000e+00 
          -8.3077173381e-06 -6.1539052147e-04 0.0000000000e+00 
          -8.4394348812e-06 -6.1571612454e-04 0.0000000000e+00 
          -8.5591006158e-06 -6.1601068717e-04 0.0000000000e+00 
          -8.6666051893e-06 -6.1627421436e-04 0.0000000000e+00 
          -8.7617908520e-06 -6.1650680001e-04 0.0000000000e+00 
          -8.8445181693e-06 -6.1670830855e-04 0.0000000000e+00 
          -8.9147263255e-06 -6.1687884663e-04 0.0000000000e+00 
          -8.9722679918e-06 -6.1701840307e-04 0.0000000000e+00 
          -9.0171166686e-06 -6.1712689773e-04 0.0000000000e+00 
          -9.0491861728e-06 -6.1720439354e-04 0.0000000000e+00 
          -9.0684410194e-06 -6.1725099337e-04 0.0000000000e+00 
          -1.1576399085e-06 -5.9487990077e-04 0.0000000000e+00 
          -1.5056712408e-06 -5.9604259987e-04 0.0000000000e+00 
          -1.8507059270e-06 -5.9717434245e-04 0.0000000000e+00 
          -2.1923095343e-06 -5.9827509818e-04 0.0000000000e+00 
          -2.5300330166e-06 -5.9934475056e-04 0.0000000000e+00 
          -2.8633984543e-06 -6.0038354563e-04 0.0000000000e+00 
          -3.1920142999e-06 -6.0139116294e-04 0.0000000000e+00 
          -3.5154120457e-06 -6.0236793663e-04 0.0000000000e+00 
          -3.8331760225e-06 -6.0331358471e-04 0.0000000000e+00 
          -4.1449107710e-06 -6.0422827827e-04 0.0000000000e+00 
          -4.4501728437e-06 -6.0511198464e-04 0.0000000000e+00 
          -4.7485974976e-06 -6.0596460459e-04 0.0000000000e+00 
          -5.0397769538e-06 -6.0678634457e-04 0.0000000000e+00 
          -5.3233311835e-06 -6.0757692745e-04 0.0000000000e+00 
          -5.5989076804e-06 -6.0833664367e-04 0.0000000000e+00 
          -5.8661252107e-06 -6.0906526598e-04 0.0000000000e+00 
          -6.1246574855e-06 -6.0976289215e-04 0.0000000000e+00 
          -6.3741557999e-06 -6.1042957939e-04 0.0000000000e+00 
          -6.6143016593e-06 -6.1106512446e-04 0.0000000000e+00 
          -6.8447846660e-06 -6.1166986070e-04 0.0000000000e+00 
          -7.0653024376e-06 -6.1224335215e-04 0.0000000000e+00 
          -7.2755751134e-06 -6.1278605895e-04 0.0000000000e+00 
          -7.4753227219e-06 -6.1329763904e-04 0.0000000000e+00 
          -7.6642978773e-06 -6.1377817047e-04 0.0000000000e+00 
          -7.8422435650e-06 -6.1422789403e-04 0.0000000000e+00 
          -8.0089390658e-06 -6.1464632564e-04 0.0000000000e+00 
          -8.1641706073e-06 -6.1503403770e-04 0.0000000000e+00 
          -8.3077173381e-06 -6.1539052147e-04 0.0000000000e+00 
          -8.4394348812e-06 -6.1571612454e-04 0.0000000000e+00 
          -8.5591006158e-06 -6.1601068717e-04 0.0000000000e+00 
          -8.6666051893e-06 -6.1627421436e-04 0.0000000000e+00 
          -8.7617908520e-06 -6.1650680001e-04 0.0000000000e+00 
          -8.8445181693e-06 -6.1670830855e-04 0.0000000000e+00 
          -8.9147263255e-06 -6.1687884663e-04 0.0000000000e+00 
          -8.9722679918e-06 -6.1701840307e-04 0.0000000000e+00 
          -9.0171166686e-06 -6.1712689773e-04 0.0000000000e+00 
          -9.0491861728e-06 -6.1720439354e-04 0.0000000000e+00 
          -9.0684410194e-06 -6.1725099337e-04 0.0000000000e+00 
        </DataArray>
        <DataArray type="Float64" Name="Acceleration" NumberOfComponents="3" format="ascii">
          1.8491532070e-04 -5.0261581119e-08 0.0000000000e+00 
          1.8491532070e-04 -5.0261581119e-08 0.0000000000e+00 
          1.1590325146e-03 -5.0792702965e-05 0.0000000000e+00 
          1.1590325146e-03 -5.0792702965e-05 0.0000000000e+00 
          0.0000000000e+00 0.0000000000e+00 0.0000000000e+00 
          0.0000000000e+00 0.0000000000e+00 0.0000000000e+00 
          2.2580940977e-04 1.0519626931e-05 0.0000000000e+00 
          2.6996349391e-04 -9.2383570647e-06 0.0000000000e+00 
          3.0918760185e-04 -3.2431368188e-06 0.0000000000e+00 
          3.4960692446e-04 1.7482514408e-05 0.0000000000e+00 
          3.9266841627e-04 -2.6854727938e-05 0.0000000000e+00 
          4.2790942682e-04 3.0657578082e-05 0.0000000000e+00 
          4.7019988172e-04 -2.9082154509e-05 0.0000000000e+00 
          5.0761371897e-04 2.1493689292e-05 0.0000000000e+00 
          5.4324537896e-04 -9.3388103727e-06 0.0000000000e+00 
          5.8316549758e-04 -3.6523227862e-06 0.0000000000e+00 
          6.1610108410e-04 1.4642379993e-05 0.0000000000e+00 
          6.5280662581e-04 -2.2773989217e-05 0.0000000000e+00 
          6.8704796987e-04 2.7170364536e-05 0.0000000000e+00 
          7.1880946956e-04 -2.5172441319e-05 0.0000000000e+00 
          7.5312859707e-04 1.5616210981e-05 0.0000000000e+00 
          7.8259047487e-04 -1.6653303554e-06 0.0000000000e+00 
          8.1397768221e-04 -1.2144496212e-05 0.0000000000e+00 
          8.4267465197e-04 2.4475067587e-05 0.0000000000e+00 
          8.7061568765e-04 -3.5728937385e-05 0.0000000000e+00 
          8.9791494658e-04 4.3116680689e-05 0.0000000000e+00 
          9.2310335471e-04 -3.9950233025e-05 0.0000000000e+00 
          9.4832935753e-04 2.1692629276e-05 0.0000000000e+00 
          9.7059778666e-04 7.5186752234e-06 0.0000000000e+00 
          9.9379960805e-04 -3.5649647117e-05 0.0000000000e+00 
          1.0136640568e-03 5.1468687968e-05 0.0000000000e+00 
          1.0329253719e-03 -5.1681394229e-05 0.0000000000e+00 
          1.0528245128e-03 3.9998068315e-05 0.0000000000e+00 
          1.0658184402e-03 -2.2712785547e-05 0.0000000000e+00 
          1.0859078883e-03 6.2263466297e-06 0.0000000000e+00 
          1.0957446262e-03 5.2421791090e-06 0.0000000000e+00 
          1.1099581875e-03 -1.1673836980e-05 0.0000000000e+00 
          1.1225125659e-03 1.2708001843e-05 0.0000000000e+00 
          1.1280115619e-03 -6.4139799248e-06 0.0000000000e+00 
          1.1412757552e-03 -4.4499300909e-06 0.0000000000e+00 
          1.1436634157e-03 9.9897755681e-06 0.0000000000e+00 
          1.1514256838e-03 -1.3624874231e-06 0.0000000000e+00 
          1.1546304648e-03 -1.9866253825e-05 0.0000000000e+00 
          1.1553834455e-03 4.1674024345e-05 0.0000000000e+00 
          2.2580940977e-04 1.0519626931e-05 0.0000000000e+00 
          2.6996349391e-04 -9.2383570647e-06 0.0000000000e+00 
          3.0918760185e-04 -3.2431368188e-06 0.0000000000e+00 
          3.4960692446e-04 1.7482514408e-05 0.0000000000e+00 
          3.9266841627e-04 -2.6854727938e-05 0.0000000000e+00 
          4.2790942682e-04 3.0657578082e-05 0.0000000000e+00 
          4.7019988172e-04 -2.9082154509e-05 0.0000000000e+00 
          5.0761371897e-04 2.1493689292e-05 0.0000000000e+00 
          5.4324537896e-04 -9.3388103727e-06 0.0000000000e+00 
          5.8316549758e-04 -3.6523227862e-06 0.0000000000e+00 
          6.1610108410e-04 1.4642379993e-05 0.0000000000e+00 
          6.5280662581e-04 -2.2773989217e-05 0.0000000000e+00 
          6.8704796987e-04 2.7170364536e-05 0.0000000000e+00 
          7.1880946956e-04 -2.5172441319e-05 0.0000000000e+00 
          7.5312859707e-04 1.5616210981e-05 0.0000000000e+00 
          7.8259047487e-04 -1.6653303554e-06 0.0000000000e+00 
          8.1397768221e-04 -1.2144496212e-05 0.0000000000e+00 
          8.4267465197e-04 2.4475067587e-05 0.0000000000e+00 
          8.7061568765e-04 -3.5728937385e-05 0.0000000000e+00 
          8.9791494658e-04 4.3116680689e-05 0.0000000000e+00 
          9.2310335471e-04 -3.9950233025e-05 0.0000000000e+00 
          9.4832935753e-04 2.1692629276e-05 0.0000000000e+00 
          9.7059778666e-04 7.5186752234e-06 0.0000000000e+00 
          9.9379960805e-04 -3.5649647117e-05 0.0000000000e+00 
          1.0136640568e-03 5.1468687968e-05 0.0000000000e+00 
          1.0329253719e-03 -5.1681394229e-05 0.0000000000e+00 
          1.0528245128e-03 3.9998068315e-05 0.0000000000e+00 
          1.0658184402e-03 -2.2712785547e-05 0.0000000000e+00 
          1.0859078883e-03 6.2263466297e-06 0.0000000000e+00 
          1.0957446262e-03 5.2421791090e-06 0.0000000000e+00 
          1.1099581875e-03 -1.1673836980e-05 0.0000000000e+00 
          1.1225125659e-03 1.2708001843e-05 0.0000000000e+00 
          1.1280115619e-03 -6.4139799248e-06 0.0000000000e+00 
          1.1412757552e-03 -4.4499300909e-06 0.0000000000e+00 
          1.1436634157e-03 9.9897755681e-06 0.0000000000e+00 
          1.1514256838e-03 -1.3624874231e-06 0.0000000000e+00 
          1.1546304648e-03 -1.9866253825e-05 0.0000000000e+00 
          1.1553834455e-03 4.1674024345e-05 0.0000000000e+00 
        </DataArray>
        <DataArray type="Float64" Name="Reaction" NumberOfComponents="3" format="ascii">
          0.0000000000e+00 0.0000000000e+00 0.0000000000e+00 
          0.0000000000e+00 0.0000000000e+00 0.0000000000e+00 
          0.0000000000e+00 0.0000000000e+00 0.0000000000e+00 
          0.0000000000e+00 0.0000000000e+00 0.0000000000e+00 
          0.0000000000e+00 0.0000000000e+00 0.0000000000e+00 
          0.0000000000e+00 0.0000000000e+00 0.0000000000e+00 
          0.0000000000e+00 0.0000000000e+00 0.0000000000e+00 
          0.0000000000e+00 0.0000000000e+00 0.0000000000e+00 
          0.0000000000e+00 0.0000000000e+00 0.0000000000e+00 
          0.0000000000e+00 0.0000000000e+00 0.0000000000e+00 
          0.0000000000e+00 0.0000000000e+00 0.0000000000e+00 
          0.0000000000e+00 0.0000000000e+00 0.0000000000e+00 
          0.0000000000e+00 0.0000000000e+00 0.0000000000e+00 
          0.0000000000e+00 0.0000000000e+00 0.0000000000e+00 
          0.0000000000e+00 0.0000000000e+00 0.0000000000e+00 
          0.0000000000e+00 0.0000000000e+00 0.0000000000e+00 
          0.0000000000e+00 0.0000000000e+00 0.0000000000e+00 
          0.0000000000e+00 0.0000000000e+00 0.0000000000e+00 
          0.0000000000e+00 0.0000000000e+00 0.0000000000e+00 
          0.0000000000e+00 0.0000000000e+00 0.0000000000e+00 
          0.0000000000e+00 0.0000000000e+00 0.0000000000e+00 
          0.0000000000e+00 0.0000000000e+00 0.0000000000e+00 
          0.0000000000e+00 0.0000000000e+00 0.0000000000e+00 
          0.0000000000e+00 0.0000000000e+00 0.0000000000e+00 
          0.0000000000e+00 0.0000000000e+00 0.0000000000e+00 
          0.0000000000e+00 0.0000000000e+00 0.0000000000e+00 
          0.0000000000e+00 0.0000000000e+00 0.0000000000e+00 
          0.0000000000e+00 0.0000000000e+00 0.0000000000e+00 
          0.0000000000e+00 0.0000000000e+00 0.0000000000e+00 
          0.0000000000e+00 0.0000000000e+00 0.0000000000e+00 
          0.0000000000e+00 0.0000000000e+00 0.0000000000e+00 
          0.0000000000e+00 0.0000000000e+00 0.0000000000e+00 
          0.0000000000e+00 0.0000000000e+00 0.0000000000e+00 
          0.0000000000e+00 0.0000000000e+00 0.0000000000e+00 
          0.0000000000e+00 0.0000000000e+00 0.0000000000e+00 
          0.0000000000e+00 0.0000000000e+00 0.0000000000e+00 
          0.0000000000e+00 0.0000000000e+00 0.0000000000e+00 
          0.0000000000e+00 0.0000000000e+00 0.0000000000e+00 
          0.0000000000e+00 0.0000000000e+00 0.0000000000e+00 
          0.0000000000e+00 0.0000000000e+00 0.0000000000e+00 
          0.0000000000e+00 0.0000000000e+00 0.0000000000e+00 
          0.0000000000e+00 0.0000000000e+00 0.0000000000e+00 
          0.0000000000e+00 0.0000000000e+00 0.0000000000e+00 
          0.0000000000e+00 0.0000000000e+00 0.0000000000e+00 
          0.0000000000e+00 0.0000000000e+00 0.0000000000e+00 
          0.0000000000e+00 0.0000000000e+00 0.0000000000e+00 
          0.0000000000e+00 0.0000000000e+00 0.0000000000e+00 
          0.0000000000e+00 0.0000000000e+00 0.0000000000e+00 
          0.0000000000e+00 0.0000000000e+00 0.0000000000e+00 
          0.0000000000e+00 0.0000000000e+00 0.0000000000e+00 
          0.0000000000e+00 0.0000000000e+00 0.0000000000e+00 
          0.0000000000e+00 0.0000000000e+00 0.0000000000e+00 
          0.0000000000e+00 0.0000000000e+00 0.0000000000e+00 
          0.0000000000e+00 0.0000000000e+00 0.0000000000e+00 
          0.0000000000e+00 0.0000000000e+00 0.0000000000e+00 
          0.0000000000e+00 0.0000000000e+00 0.0000000000e+00 
          0.0000000000e+00 0.0000000000e+00 0.0000000000e+00 
          0.0000000000e+00 0.0000000000e+00 0.0000000000e+00 
          0.0000000000e+00 0.0000000000e+00 0.0000000000e+00 
          0.0000000000e+00 0.0000000000e+00 0.0000000000e+00 
          0.0000000000e+00 0.0000000000e+00 0.0000000000e+00 
          0.0000000000e+00 0.0000000000e+00 0.0000000000e+00 
          0.0000000000e+00 0.0000000000e+00 0.0000000000e+00 
          0.0000000000e+00 0.0000000000e+00 0.0000000000e+00 
          0.0000000000e+00 0.0000000000e+00 0.0000000000e+00 
          0.0000000000e+00 0.0000000000e+00 0.0000000000e+00 
          0.0000000000e+00 0.0000000000e+00 0.0000000000e+00 
          0.0000000000e+00 0.0000000000e+00 0.0000000000e+00 
          0.0000000000e+00 0.0000000000e+00 0.0000000000e+00 
          0.0000000000e+00 0.0000000000e+00 0.0000000000e+00 
          0.0000000000e+00 0.0000000000e+00 0.0000000000e+00 
          0.0000000000e+00 0.0000000000e+00 0.0000000000e+00 
          0.0000000000e+00 0.0000000000e+00 0.0000000000e+00 
          0.0000000000e+00 0.0000000000e+00 0.0000000000e+00 
          0.0000000000e+00 0.0000000000e+00 0.0000000000e+00 
          0.0000000000e+00 0.0000000000e+00 0.0000000000e+00 
          0.0000000000e+00 0.0000000000e+00 0.0000000000e+00 
          0.0000000000e+00 0.0000000000e+00 0.0000000000e+00 
          0.0000000000e+00 0.0000000000e+00 0.0000000000e+00 
          0.0000000000e+00 0.0000000000e+00 0.0000000000e+00 
          0.0000000000e+00 0.0000000000e+00 0.0000000000e+00 
          0.0000000000e+00 0.0000000000e+00 0.0000000000e+00 
        </DataArray>
      </PointData>
      <CellData>
        <DataArray type="Int64" Name="ElementTag" format="ascii">
          0
        </DataArray>
      </CellData>
    </Piece>
  </UnstructuredGrid>
</VTKFile>
