<?xml version="1.0"?>
<VTKFile type="UnstructuredGrid" version="1.0" byte_order="LittleEndian" compressor="vtkZLibDataCompressor">
  <UnstructuredGrid>
    <Piece NumberOfPoints="82" NumberOfCells="1">
      <Points>
        <DataArray type="Float64" Name="Points" NumberOfComponents="3" format="ascii">
          0.0000000000e+00 0.0000000000e+00 0.0000000000e+00 
          2.5000000000e-01 0.0000000000e+00 0.0000000000e+00 
          2.5000000000e-01 3.0000000000e+01 0.0000000000e+00 
          0.0000000000e+00 3.0000000000e+01 0.0000000000e+00 
          0.0000000000e+00 -5.0000000000e+00 0.0000000000e+00 
          2.5000000000e-01 -5.0000000000e+00 0.0000000000e+00 
          2.5000000000e-01 7.6923100000e-01 0.0000000000e+00 
          2.5000000000e-01 1.5384620000e+00 0.0000000000e+00 
          2.5000000000e-01 2.3076920000e+00 0.0000000000e+00 
          2.5000000000e-01 3.0769230000e+00 0.0000000000e+00 
          2.5000000000e-01 3.8461540000e+00 0.0000000000e+00 
          2.5000000000e-01 4.6153850000e+00 0.0000000000e+00 
          2.5000000000e-01 5.3846150000e+00 0.0000000000e+00 
          2.5000000000e-01 6.1538460000e+00 0.0000000000e+00 
          2.5000000000e-01 6.9230770000e+00 0.0000000000e+00 
          2.5000000000e-01 7.6923080000e+00 0.0000000000e+00 
          2.5000000000e-01 8.4615380000e+00 0.0000000000e+00 
          2.5000000000e-01 9.2307690000e+00 0.0000000000e+00 
          2.5000000000e-01 1.0000000000e+01 0.0000000000e+00 
          2.5000000000e-01 1.0769231000e+01 0.0000000000e+00 
          2.5000000000e-01 1.1538462000e+01 0.0000000000e+00 
          2.5000000000e-01 1.2307692000e+01 0.0000000000e+00 
          2.5000000000e-01 1.3076923000e+01 0.0000000000e+00 
          2.5000000000e-01 1.3846154000e+01 0.0000000000e+00 
          2.5000000000e-01 1.4615385000e+01 0.0000000000e+00 
          2.5000000000e-01 1.5384615000e+01 0.0000000000e+00 
          2.5000000000e-01 1.6153846000e+01 0.0000000000e+00 
          2.5000000000e-01 1.6923077000e+01 0.0000000000e+00 
          2.5000000000e-01 1.7692308000e+01 0.0000000000e+00 
          2.5000000000e-01 1.8461538000e+01 0.0000000000e+00 
          2.5000000000e-01 1.9230769000e+01 0.0000000000e+00 
          2.5000000000e-01 2.0000000000e+01 0.0000000000e+00 
          2.5000000000e-01 2.0769231000e+01 0.0000000000e+00 
          2.5000000000e-01 2.1538462000e+01 0.0000000000e+00 
          2.5000000000e-01 2.2307692000e+01 0.0000000000e+00 
          2.5000000000e-01 2.3076923000e+01 0.0000000000e+00 
          2.5000000000e-01 2.3846154000e+01 0.0000000000e+00 
          2.5000000000e-01 2.4615385000e+01 0.0000000000e+00 
          2.5000000000e-01 2.5384615000e+01 0.0000000000e+00 
          2.5000000000e-01 2.6153846000e+01 0.0000000000e+00 
          2.5000000000e-01 2.6923077000e+01 0.0000000000e+00 
          2.5000000000e-01 2.7692308000e+01 0.0000000000e+00 
          2.5000000000e-01 2.8461538000e+01 0.0000000000e+00 
          2.5000000000e-01 2.9230769000e+01 0.0000000000e+00 
          0.0000000000e+00 7.6923100000e-01 0.0000000000e+00 
          0.0000000000e+00 1.5384620000e+00 0.0000000000e+00 
          0.0000000000e+00 2.3076920000e+00 0.0000000000e+00 
          0.0000000000e+00 3.0769230000e+00 0.0000000000e+00 
          0.0000000000e+00 3.8461540000e+00 0.0000000000e+00 
          0.0000000000e+00 4.6153850000e+00 0.0000000000e+00 
          0.0000000000e+00 5.3846150000e+00 0.0000000000e+00 
          0.0000000000e+00 6.1538460000e+00 0.0000000000e+00 
          0.0000000000e+00 6.9230770000e+00 0.0000000000e+00 
          0.0000000000e+00 7.6923080000e+00 0.0000000000e+00 
          0.0000000000e+00 8.4615380000e+00 0.0000000000e+00 
          0.0000000000e+00 9.2307690000e+00 0.0000000000e+00 
          0.0000000000e+00 1.0000000000e+01 0.0000000000e+00 
          0.0000000000e+00 1.0769231000e+01 0.0000000000e+00 
          0.0000000000e+00 1.1538462000e+01 0.0000000000e+00 
          0.0000000000e+00 1.2307692000e+01 0.0000000000e+00 
          0.0000000000e+00 1.3076923000e+01 0.0000000000e+00 
          0.0000000000e+00 1.3846154000e+01 0.0000000000e+00 
          0.0000000000e+00 1.4615385000e+01 0.0000000000e+00 
          0.0000000000e+00 1.5384615000e+01 0.0000000000e+00 
          0.0000000000e+00 1.6153846000e+01 0.0000000000e+00 
          0.0000000000e+00 1.6923077000e+01 0.0000000000e+00 
          0.0000000000e+00 1.7692308000e+01 0.0000000000e+00 
          0.0000000000e+00 1.8461538000e+01 0.0000000000e+00 
          0.0000000000e+00 1.9230769000e+01 0.0000000000e+00 
          0.0000000000e+00 2.0000000000e+01 0.0000000000e+00 
          0.0000000000e+00 2.0769231000e+01 0.0000000000e+00 
          0.0000000000e+00 2.1538462000e+01 0.0000000000e+00 
          0.0000000000e+00 2.2307692000e+01 0.0000000000e+00 
          0.0000000000e+00 2.3076923000e+01 0.0000000000e+00 
          0.0000000000e+00 2.3846154000e+01 0.0000000000e+00 
          0.0000000000e+00 2.4615385000e+01 0.0000000000e+00 
          0.0000000000e+00 2.5384615000e+01 0.0000000000e+00 
          0.0000000000e+00 2.6153846000e+01 0.0000000000e+00 
          0.0000000000e+00 2.6923077000e+01 0.0000000000e+00 
          0.0000000000e+00 2.7692308000e+01 0.0000000000e+00 
          0.0000000000e+00 2.8461538000e+01 0.0000000000e+00 
          0.0000000000e+00 2.9230769000e+01 0.0000000000e+00 
        </DataArray>
      </Points>
      <Cells>
        <DataArray type="Int64" Name="connectivity" format="ascii">
          0
          1
          2
          3
          4
          5
          6
          7
          8
          9
          10
          11
          12
          13
          14
          15
          16
          17
          18
          19
          20
          21
          22
          23
          24
          25
          26
          27
          28
          29
          30
          31
          32
          33
          34
          35
          36
          37
          38
          39
          40
          41
          42
          43
          44
          45
          46
          47
          48
          49
          50
          51
          52
          53
          54
          55
          56
          57
          58
          59
          60
          61
          62
          63
          64
          65
          66
          67
          68
          69
          70
          71
          72
          73
          74
          75
          76
          77
          78
          79
          80
          81
        </DataArray>
        <DataArray type="Int64" Name="offsets" format="ascii">
          82
        </DataArray>
        <DataArray type="Int64" Name="types" format="ascii">
          2
        </DataArray>
      </Cells>
      <PointData>
        <DataArray type="Int64" Name="NodeTag" format="ascii">
          1
          2
          3
          4
          5
          6
          7
          8
          9
          10
          11
          12
          13
          14
          15
          16
          17
          18
          19
          20
          21
          22
          23
          24
          25
          26
          27
          28
          29
          30
          31
          32
          33
          34
          35
          36
          37
          38
          39
          40
          41
          42
          43
          44
          45
          46
          47
          48
          49
          50
          51
          52
          53
          54
          55
          56
          57
          58
          59
          60
          61
          62
          63
          64
          65
          66
          67
          68
          69
          70
          71
          72
          73
          74
          75
          76
          77
          78
          79
          80
          81
          82
        </DataArray>
        <DataArray type="Float64" Name="Velocity" NumberOfComponents="3" format="ascii">
          -7.2003716222e-19 -1.0064509327e-04 0.0000000000e+00 
          -7.2003716222e-19 -1.0064509327e-04 0.0000000000e+00 
          4.8879622101e-18 -1.5555088020e-04 0.0000000000e+00 
          4.8879622101e-18 -1.5555088020e-04 0.0000000000e+00 
          0.0000000000e+00 0.0000000000e+00 0.0000000000e+00 
          0.0000000000e+00 0.0000000000e+00 0.0000000000e+00 
          1.0421865344e-17 -1.0751832754e-04 0.0000000000e+00 
          -1.1884597728e-18 -1.1280876411e-04 0.0000000000e+00 
          -1.4296512632e-18 -1.1849035559e-04 0.0000000000e+00 
          -1.2333292660e-18 -1.2459863058e-04 0.0000000000e+00 
          4.4485807239e-18 -1.3096676617e-04 0.0000000000e+00 
          -6.8028301802e-18 -1.3681625919e-04 0.0000000000e+00 
          4.3269331116e-18 -1.4099508083e-04 0.0000000000e+00 
          -4.5550945282e-18 -1.4581918659e-04 0.0000000000e+00 
          5.0842658332e-18 -1.5115268967e-04 0.0000000000e+00 
          5.9754287093e-20 -1.5471342129e-04 0.0000000000e+00 
          -9.2882207264e-20 -1.5711005422e-04 0.0000000000e+00 
          -1.8519374820e-18 -1.5865295246e-04 0.0000000000e+00 
          5.3054694262e-18 -1.5979715384e-04 0.0000000000e+00 
          -9.4036487918e-18 -1.6040068795e-04 0.0000000000e+00 
          -3.4784867956e-20 -1.5923737033e-04 0.0000000000e+00 
          6.2332645050e-18 -1.5745410164e-04 0.0000000000e+00 
          3.8623343767e-18 -1.5577438560e-04 0.0000000000e+00 
          -4.8426450451e-18 -1.5426100418e-04 0.0000000000e+00 
          -9.4968478105e-19 -1.5314032840e-04 0.0000000000e+00 
          3.8042081781e-18 -1.5323600042e-04 0.0000000000e+00 
          -3.9359588791e-20 -1.5374914588e-04 0.0000000000e+00 
          -3.7383477250e-18 -1.5379912560e-04 0.0000000000e+00 
          5.2682327987e-19 -1.5484391810e-04 0.0000000000e+00 
          2.7978205127e-19 -1.5672419258e-04 0.0000000000e+00 
          -1.0552693658e-18 -1.5726244099e-04 0.0000000000e+00 
          -1.5778865199e-18 -1.5686098312e-04 0.0000000000e+00 
          2.4936376371e-18 -1.5550608558e-04 0.0000000000e+00 
          3.7061689015e-18 -1.5427724983e-04 0.0000000000e+00 
          -5.1342845169e-18 -1.5393810323e-04 0.0000000000e+00 
          4.0214923041e-18 -1.5422994203e-04 0.0000000000e+00 
          4.0971353711e-18 -1.5534724752e-04 0.0000000000e+00 
          -3.4381604174e-18 -1.5599830700e-04 0.0000000000e+00 
          9.1968046200e-19 -1.5606724960e-04 0.0000000000e+00 
          6.7477828531e-19 -1.5528297906e-04 0.0000000000e+00 
          -8.0316330908e-20 -1.5516317778e-04 0.0000000000e+00 
          7.7188093558e-19 -1.5516328684e-04 0.0000000000e+00 
          -6.9561784159e-19 -1.5484478721e-04 0.0000000000e+00 
          -4.2467820416e-18 -1.5532964405e-04 0.0000000000e+00 
          1.0421865344e-17 -1.0751832754e-04 0.0000000000e+00 
          -1.1884597728e-18 -1.1280876411e-04 0.0000000000e+00 
          -1.4296512632e-18 -1.1849035559e-04 0.0000000000e+00 
          -1.2333292660e-18 -1.2459863058e-04 0.0000000000e+00 
          4.4485807239e-18 -1.3096676617e-04 0.0000000000e+00 
          -6.8028301802e-18 -1.3681625919e-04 0.0000000000e+00 
          4.3269331116e-18 -1.4099508083e-04 0.0000000000e+00 
          -4.5550945282e-18 -1.4581918659e-04 0.0000000000e+00 
          5.0842658332e-18 -1.5115268967e-04 0.0000000000e+00 
          5.9754287093e-20 -1.5471342129e-04 0.0000000000e+00 
          -9.2882207264e-20 -1.5711005422e-04 0.0000000000e+00 
          -1.8519374820e-18 -1.5865295246e-04 0.0000000000e+00 
          5.3054694262e-18 -1.5979715384e-04 0.0000000000e+00 
          -9.4036487918e-18 -1.6040068795e-04 0.0000000000e+00 
          -3.4784867956e-20 -1.5923737033e-04 0.0000000000e+00 
          6.2332645050e-18 -1.5745410164e-04 0.0000000000e+00 
          3.8623343767e-18 -1.5577438560e-04 0.0000000000e+00 
          -4.8426450451e-18 -1.5426100418e-04 0.0000000000e+00 
          -9.4968478105e-19 -1.5314032840e-04 0.0000000000e+00 
          3.8042081781e-18 -1.5323600042e-04 0.0000000000e+00 
          -3.9359588791e-20 -1.5374914588e-04 0.0000000000e+00 
          -3.7383477250e-18 -1.5379912560e-04 0.0000000000e+00 
          5.2682327987e-19 -1.5484391810e-04 0.0000000000e+00 
          2.7978205127e-19 -1.5672419258e-04 0.0000000000e+00 
          -1.0552693658e-18 -1.5726244099e-04 0.0000000000e+00 
          -1.5778865199e-18 -1.5686098312e-04 0.0000000000e+00 
          2.4936376371e-18 -1.5550608558e-04 0.0000000000e+00 
          3.7061689015e-18 -1.5427724983e-04 0.0000000000e+00 
          -5.1342845169e-18 -1.5393810323e-04 0.0000000000e+00 
          4.0214923041e-18 -1.5422994203e-04 0.0000000000e+00 
          4.0971353711e-18 -1.5534724752e-04 0.0000000000e+00 
          -3.4381604174e-18 -1.5599830700e-04 0.0000000000e+00 
          9.1968046200e-19 -1.5606724960e-04 0.0000000000e+00 
          6.7477828531e-19 -1.5528297906e-04 0.0000000000e+00 
          -8.0316330908e-20 -1.5516317778e-04 0.0000000000e+00 
          7.7188093558e-19 -1.5516328684e-04 0.0000000000e+00 
          -6.9561784159e-19 -1.5484478721e-04 0.0000000000e+00 
          -4.2467820416e-18 -1.5532964405e-04 0.0000000000e+00 
        </DataArray>
        <DataArray type="Float64" Name="Displacement" NumberOfComponents="3" format="ascii">
          -2.0492948972e-21 -3.9219041990e-05 0.0000000000e+00 
          -2.0492948972e-21 -3.9219041990e-05 0.0000000000e+00 
          -1.7150185251e-20 -7.1657224150e-05 0.0000000000e+00 
          -1.7150185251e-20 -7.1657224150e-05 0.0000000000e+00 
          0.0000000000e+00 0.0000000000e+00 0.0000000000e+00 
          0.0000000000e+00 0.0000000000e+00 0.0000000000e+00 
          -1.0124631011e-20 -4.0768199229e-05 0.0000000000e+00 
          -1.0499942789e-20 -4.2288888874e-05 0.0000000000e+00 
          -1.3855198717e-20 -4.3780470839e-05 0.0000000000e+00 
          2.1872690310e-21 -4.5242372687e-05 0.0000000000e+00 
          2.2420119702e-21 -4.6674706175e-05 0.0000000000e+00 
          9.1256985636e-21 -4.8077341144e-05 0.0000000000e+00 
          2.6273147321e-20 -4.9449263526e-05 0.0000000000e+00 
          1.8510915220e-20 -5.0789894448e-05 0.0000000000e+00 
          6.8101684002e-21 -5.2098306747e-05 0.0000000000e+00 
          1.0605546233e-20 -5.3372184320e-05 0.0000000000e+00 
          1.5874535647e-20 -5.4610224037e-05 0.0000000000e+00 
          -8.5985077907e-21 -5.5810387100e-05 0.0000000000e+00 
          -1.3762110507e-20 -5.6971437661e-05 0.0000000000e+00 
          -6.9496740301e-21 -5.8090577044e-05 0.0000000000e+00 
          -2.7852026757e-20 -5.9163019156e-05 0.0000000000e+00 
          -1.7983290758e-20 -6.0189087107e-05 0.0000000000e+00 
          -6.2900106382e-21 -6.1170175982e-05 0.0000000000e+00 
          -8.2097912374e-21 -6.2103823581e-05 0.0000000000e+00 
          3.1448643082e-22 -6.2990057526e-05 0.0000000000e+00 
          2.0206904647e-20 -6.3829809066e-05 0.0000000000e+00 
          7.2613617853e-21 -6.4626547175e-05 0.0000000000e+00 
          -1.5359043312e-20 -6.5383450874e-05 0.0000000000e+00 
          1.3953864548e-20 -6.6099266972e-05 0.0000000000e+00 
          9.6029594607e-21 -6.6773815727e-05 0.0000000000e+00 
          5.7863964971e-21 -6.7406360649e-05 0.0000000000e+00 
          -1.4508730851e-20 -6.7995132229e-05 0.0000000000e+00 
          1.5140712025e-21 -6.8538708921e-05 0.0000000000e+00 
          9.8677417921e-21 -6.9038669323e-05 0.0000000000e+00 
          -5.9036756871e-21 -6.9494282240e-05 0.0000000000e+00 
          -1.9770035784e-20 -6.9903302142e-05 0.0000000000e+00 
          4.6427583833e-21 -7.0268769385e-05 0.0000000000e+00 
          3.4074864860e-21 -7.0593649138e-05 0.0000000000e+00 
          1.5283504537e-20 -7.0876999445e-05 0.0000000000e+00 
          9.3627280114e-21 -7.1118547417e-05 0.0000000000e+00 
          1.2680589062e-21 -7.1317219461e-05 0.0000000000e+00 
          4.8067154404e-21 -7.1469589090e-05 0.0000000000e+00 
          6.0189169988e-21 -7.1574787630e-05 0.0000000000e+00 
          -3.9729698132e-21 -7.1636490623e-05 0.0000000000e+00 
          -1.0124631011e-20 -4.0768199229e-05 0.0000000000e+00 
          -1.0499942789e-20 -4.2288888874e-05 0.0000000000e+00 
          -1.3855198717e-20 -4.3780470839e-05 0.0000000000e+00 
          2.1872690310e-21 -4.5242372687e-05 0.0000000000e+00 
          2.2420119702e-21 -4.6674706175e-05 0.0000000000e+00 
          9.1256985636e-21 -4.8077341144e-05 0.0000000000e+00 
          2.6273147321e-20 -4.9449263526e-05 0.0000000000e+00 
          1.8510915220e-20 -5.0789894448e-05 0.0000000000e+00 
          6.8101684002e-21 -5.2098306747e-05 0.0000000000e+00 
          1.0605546233e-20 -5.3372184320e-05 0.0000000000e+00 
          1.5874535647e-20 -5.4610224037e-05 0.0000000000e+00 
          -8.5985077907e-21 -5.5810387100e-05 0.0000000000e+00 
          -1.3762110507e-20 -5.6971437661e-05 0.0000000000e+00 
          -6.9496740301e-21 -5.8090577044e-05 0.0000000000e+00 
          -2.7852026757e-20 -5.9163019156e-05 0.0000000000e+00 
          -1.7983290758e-20 -6.0189087107e-05 0.0000000000e+00 
          -6.2900106382e-21 -6.1170175982e-05 0.0000000000e+00 
          -8.2097912374e-21 -6.2103823581e-05 0.0000000000e+00 
          3.1448643082e-22 -6.2990057526e-05 0.0000000000e+00 
          2.0206904647e-20 -6.3829809066e-05 0.0000000000e+00 
          7.2613617853e-21 -6.4626547175e-05 0.0000000000e+00 
          -1.5359043312e-20 -6.5383450874e-05 0.0000000000e+00 
          1.3953864548e-20 -6.6099266972e-05 0.0000000000e+00 
          9.6029594607e-21 -6.6773815727e-05 0.0000000000e+00 
          5.7863964971e-21 -6.7406360649e-05 0.0000000000e+00 
          -1.4508730851e-20 -6.7995132229e-05 0.0000000000e+00 
          1.5140712025e-21 -6.8538708921e-05 0.0000000000e+00 
          9.8677417921e-21 -6.9038669323e-05 0.0000000000e+00 
          -5.9036756871e-21 -6.9494282240e-05 0.0000000000e+00 
          -1.9770035784e-20 -6.9903302142e-05 0.0000000000e+00 
          4.6427583833e-21 -7.0268769385e-05 0.0000000000e+00 
          3.4074864860e-21 -7.0593649138e-05 0.0000000000e+00 
          1.5283504537e-20 -7.0876999445e-05 0.0000000000e+00 
          9.3627280114e-21 -7.1118547417e-05 0.0000000000e+00 
          1.2680589062e-21 -7.1317219461e-05 0.0000000000e+00 
          4.8067154404e-21 -7.1469589090e-05 0.0000000000e+00 
          6.0189169988e-21 -7.1574787630e-05 0.0000000000e+00 
          -3.9729698132e-21 -7.1636490623e-05 0.0000000000e+00 
        </DataArray>
        <DataArray type="Float64" Name="Acceleration" NumberOfComponents="3" format="ascii">
          2.6908651235e-16 -4.4169324540e-04 0.0000000000e+00 
          2.6908651235e-16 -4.4169324540e-04 0.0000000000e+00 
          2.4868547103e-15 1.8850624147e-03 0.0000000000e+00 
          2.4868547103e-15 1.8850624147e-03 0.0000000000e+00 
          0.0000000000e+00 0.0000000000e+00 0.0000000000e+00 
          0.0000000000e+00 0.0000000000e+00 0.0000000000e+00 
          1.4436084594e-15 -4.5749166506e-04 0.0000000000e+00 
          -1.0881029593e-15 -3.4249131318e-04 0.0000000000e+00 
          8.8040174628e-16 -2.3863739392e-04 0.0000000000e+00 
          1.9769945829e-16 -2.5912894509e-04 0.0000000000e+00 
          1.5617600095e-16 -2.3567404007e-04 0.0000000000e+00 
          4.3898008852e-16 -5.3252772050e-05 0.0000000000e+00 
          -1.9366206808e-15 5.1705450146e-05 0.0000000000e+00 
          -2.3910371100e-16 2.1845876331e-04 0.0000000000e+00 
          1.1569425373e-15 6.3582951379e-04 0.0000000000e+00 
          1.2300613764e-15 8.7037303140e-04 0.0000000000e+00 
          -3.7012659524e-15 1.2383527635e-03 0.0000000000e+00 
          1.0779633124e-15 1.4607629940e-03 0.0000000000e+00 
          2.1438408944e-15 1.9650953231e-03 0.0000000000e+00 
          -2.3166559634e-15 2.8275683932e-03 0.0000000000e+00 
          1.9232645550e-15 2.7691075944e-03 0.0000000000e+00 
          8.0931944195e-16 2.5181883056e-03 0.0000000000e+00 
          -2.0476212601e-15 2.9616409838e-03 0.0000000000e+00 
          1.1125809543e-15 2.9566633256e-03 0.0000000000e+00 
          1.9752671405e-15 2.7886574476e-03 0.0000000000e+00 
          -4.4160338035e-15 2.1639272864e-03 0.0000000000e+00 
          1.2618970473e-15 1.5908539028e-03 0.0000000000e+00 
          2.6283875944e-15 1.8166834145e-03 0.0000000000e+00 
          -2.5713177731e-15 1.8489205973e-03 0.0000000000e+00 
          1.0105986866e-15 1.9819551629e-03 0.0000000000e+00 
          -8.0025645224e-16 2.3006649520e-03 0.0000000000e+00 
          2.0231050331e-15 2.5568326530e-03 0.0000000000e+00 
          -1.0379645805e-15 2.2723635954e-03 0.0000000000e+00 
          -1.1814400032e-15 2.4040258134e-03 0.0000000000e+00 
          -4.3514758522e-16 2.8088932311e-03 0.0000000000e+00 
          3.4419857721e-15 2.2608968292e-03 0.0000000000e+00 
          -2.8469366005e-15 1.7265615721e-03 0.0000000000e+00 
          2.8687090581e-15 1.8962442005e-03 0.0000000000e+00 
          -4.0125315692e-15 1.9455529102e-03 0.0000000000e+00 
          1.7650701315e-15 2.1389471573e-03 0.0000000000e+00 
          3.6796821898e-16 2.7564135605e-03 0.0000000000e+00 
          -2.0913661514e-16 2.9129331574e-03 0.0000000000e+00 
          -3.9432006754e-16 2.2506346132e-03 0.0000000000e+00 
          -9.6175187917e-16 1.7953953193e-03 0.0000000000e+00 
          1.4436084594e-15 -4.5749166506e-04 0.0000000000e+00 
          -1.0881029593e-15 -3.4249131318e-04 0.0000000000e+00 
          8.8040174628e-16 -2.3863739392e-04 0.0000000000e+00 
          1.9769945829e-16 -2.5912894509e-04 0.0000000000e+00 
          1.5617600095e-16 -2.3567404007e-04 0.0000000000e+00 
          4.3898008852e-16 -5.3252772050e-05 0.0000000000e+00 
          -1.9366206808e-15 5.1705450146e-05 0.0000000000e+00 
          -2.3910371100e-16 2.1845876331e-04 0.0000000000e+00 
          1.1569425373e-15 6.3582951379e-04 0.0000000000e+00 
          1.2300613764e-15 8.7037303140e-04 0.0000000000e+00 
          -3.7012659524e-15 1.2383527635e-03 0.0000000000e+00 
          1.0779633124e-15 1.4607629940e-03 0.0000000000e+00 
          2.1438408944e-15 1.9650953231e-03 0.0000000000e+00 
          -2.3166559634e-15 2.8275683932e-03 0.0000000000e+00 
          1.9232645550e-15 2.7691075944e-03 0.0000000000e+00 
          8.0931944195e-16 2.5181883056e-03 0.0000000000e+00 
          -2.0476212601e-15 2.9616409838e-03 0.0000000000e+00 
          1.1125809543e-15 2.9566633256e-03 0.0000000000e+00 
          1.9752671405e-15 2.7886574476e-03 0.0000000000e+00 
          -4.4160338035e-15 2.1639272864e-03 0.0000000000e+00 
          1.2618970473e-15 1.5908539028e-03 0.0000000000e+00 
          2.6283875944e-15 1.8166834145e-03 0.0000000000e+00 
          -2.5713177731e-15 1.8489205973e-03 0.0000000000e+00 
          1.0105986866e-15 1.9819551629e-03 0.0000000000e+00 
          -8.0025645224e-16 2.3006649520e-03 0.0000000000e+00 
          2.0231050331e-15 2.5568326530e-03 0.0000000000e+00 
          -1.0379645805e-15 2.2723635954e-03 0.0000000000e+00 
          -1.1814400032e-15 2.4040258134e-03 0.0000000000e+00 
          -4.3514758522e-16 2.8088932311e-03 0.0000000000e+00 
          3.4419857721e-15 2.2608968292e-03 0.0000000000e+00 
          -2.8469366005e-15 1.7265615721e-03 0.0000000000e+00 
          2.8687090581e-15 1.8962442005e-03 0.0000000000e+00 
          -4.0125315692e-15 1.9455529102e-03 0.0000000000e+00 
          1.7650701315e-15 2.1389471573e-03 0.0000000000e+00 
          3.6796821898e-16 2.7564135605e-03 0.0000000000e+00 
          -2.0913661514e-16 2.9129331574e-03 0.0000000000e+00 
          -3.9432006754e-16 2.2506346132e-03 0.0000000000e+00 
          -9.6175187917e-16 1.7953953193e-03 0.0000000000e+00 
        </DataArray>
        <DataArray type="Float64" Name="Reaction" NumberOfComponents="3" format="ascii">
          0.0000000000e+00 0.0000000000e+00 0.0000000000e+00 
          0.0000000000e+00 0.0000000000e+00 0.0000000000e+00 
          0.0000000000e+00 0.0000000000e+00 0.0000000000e+00 
          0.0000000000e+00 0.0000000000e+00 0.0000000000e+00 
          0.0000000000e+00 0.0000000000e+00 0.0000000000e+00 
          0.0000000000e+00 0.0000000000e+00 0.0000000000e+00 
          0.0000000000e+00 0.0000000000e+00 0.0000000000e+00 
          0.0000000000e+00 0.0000000000e+00 0.0000000000e+00 
          0.0000000000e+00 0.0000000000e+00 0.0000000000e+00 
          0.0000000000e+00 0.0000000000e+00 0.0000000000e+00 
          0.0000000000e+00 0.0000000000e+00 0.0000000000e+00 
          0.0000000000e+00 0.0000000000e+00 0.0000000000e+00 
          0.0000000000e+00 0.0000000000e+00 0.0000000000e+00 
          0.0000000000e+00 0.0000000000e+00 0.0000000000e+00 
          0.0000000000e+00 0.0000000000e+00 0.0000000000e+00 
          0.0000000000e+00 0.0000000000e+00 0.0000000000e+00 
          0.0000000000e+00 0.0000000000e+00 0.0000000000e+00 
          0.0000000000e+00 0.0000000000e+00 0.0000000000e+00 
          0.0000000000e+00 0.0000000000e+00 0.0000000000e+00 
          0.0000000000e+00 0.0000000000e+00 0.0000000000e+00 
          0.0000000000e+00 0.0000000000e+00 0.0000000000e+00 
          0.0000000000e+00 0.0000000000e+00 0.0000000000e+00 
          0.0000000000e+00 0.0000000000e+00 0.0000000000e+00 
          0.0000000000e+00 0.0000000000e+00 0.0000000000e+00 
          0.0000000000e+00 0.0000000000e+00 0.0000000000e+00 
          0.0000000000e+00 0.0000000000e+00 0.0000000000e+00 
          0.0000000000e+00 0.0000000000e+00 0.0000000000e+00 
          0.0000000000e+00 0.0000000000e+00 0.0000000000e+00 
          0.0000000000e+00 0.0000000000e+00 0.0000000000e+00 
          0.0000000000e+00 0.0000000000e+00 0.0000000000e+00 
          0.0000000000e+00 0.0000000000e+00 0.0000000000e+00 
          0.0000000000e+00 0.0000000000e+00 0.0000000000e+00 
          0.0000000000e+00 0.0000000000e+00 0.0000000000e+00 
          0.0000000000e+00 0.0000000000e+00 0.0000000000e+00 
          0.0000000000e+00 0.0000000000e+00 0.0000000000e+00 
          0.0000000000e+00 0.0000000000e+00 0.0000000000e+00 
          0.0000000000e+00 0.0000000000e+00 0.0000000000e+00 
          0.0000000000e+00 0.0000000000e+00 0.0000000000e+00 
          0.0000000000e+00 0.0000000000e+00 0.0000000000e+00 
          0.0000000000e+00 0.0000000000e+00 0.0000000000e+00 
          0.0000000000e+00 0.0000000000e+00 0.0000000000e+00 
          0.0000000000e+00 0.0000000000e+00 0.0000000000e+00 
          0.0000000000e+00 0.0000000000e+00 0.0000000000e+00 
          0.0000000000e+00 0.0000000000e+00 0.0000000000e+00 
          0.0000000000e+00 0.0000000000e+00 0.0000000000e+00 
          0.0000000000e+00 0.0000000000e+00 0.0000000000e+00 
          0.0000000000e+00 0.0000000000e+00 0.0000000000e+00 
          0.0000000000e+00 0.0000000000e+00 0.0000000000e+00 
          0.0000000000e+00 0.0000000000e+00 0.0000000000e+00 
          0.0000000000e+00 0.0000000000e+00 0.0000000000e+00 
          0.0000000000e+00 0.0000000000e+00 0.0000000000e+00 
          0.0000000000e+00 0.0000000000e+00 0.0000000000e+00 
          0.0000000000e+00 0.0000000000e+00 0.0000000000e+00 
          0.0000000000e+00 0.0000000000e+00 0.0000000000e+00 
          0.0000000000e+00 0.0000000000e+00 0.0000000000e+00 
          0.0000000000e+00 0.0000000000e+00 0.0000000000e+00 
          0.0000000000e+00 0.0000000000e+00 0.0000000000e+00 
          0.0000000000e+00 0.0000000000e+00 0.0000000000e+00 
          0.0000000000e+00 0.0000000000e+00 0.0000000000e+00 
          0.0000000000e+00 0.0000000000e+00 0.0000000000e+00 
          0.0000000000e+00 0.0000000000e+00 0.0000000000e+00 
          0.0000000000e+00 0.0000000000e+00 0.0000000000e+00 
          0.0000000000e+00 0.0000000000e+00 0.0000000000e+00 
          0.0000000000e+00 0.0000000000e+00 0.0000000000e+00 
          0.0000000000e+00 0.0000000000e+00 0.0000000000e+00 
          0.0000000000e+00 0.0000000000e+00 0.0000000000e+00 
          0.0000000000e+00 0.0000000000e+00 0.0000000000e+00 
          0.0000000000e+00 0.0000000000e+00 0.0000000000e+00 
          0.0000000000e+00 0.0000000000e+00 0.0000000000e+00 
          0.0000000000e+00 0.0000000000e+00 0.0000000000e+00 
          0.0000000000e+00 0.0000000000e+00 0.0000000000e+00 
          0.0000000000e+00 0.0000000000e+00 0.0000000000e+00 
          0.0000000000e+00 0.0000000000e+00 0.0000000000e+00 
          0.0000000000e+00 0.0000000000e+00 0.0000000000e+00 
          0.0000000000e+00 0.0000000000e+00 0.0000000000e+00 
          0.0000000000e+00 0.0000000000e+00 0.0000000000e+00 
          0.0000000000e+00 0.0000000000e+00 0.0000000000e+00 
          0.0000000000e+00 0.0000000000e+00 0.0000000000e+00 
          0.0000000000e+00 0.0000000000e+00 0.0000000000e+00 
          0.0000000000e+00 0.0000000000e+00 0.0000000000e+00 
          0.0000000000e+00 0.0000000000e+00 0.0000000000e+00 
          0.0000000000e+00 0.0000000000e+00 0.0000000000e+00 
        </DataArray>
      </PointData>
      <CellData>
        <DataArray type="Int64" Name="ElementTag" format="ascii">
          0
        </DataArray>
      </CellData>
    </Piece>
  </UnstructuredGrid>
</VTKFile>
