<?xml version="1.0"?>
<VTKFile type="UnstructuredGrid" version="1.0" byte_order="LittleEndian" compressor="vtkZLibDataCompressor">
  <UnstructuredGrid>
    <Piece NumberOfPoints="80" NumberOfCells="39">
      <Points>
        <DataArray type="Float64" Name="Points" NumberOfComponents="3" format="ascii">
          0.0000000000e+00 0.0000000000e+00 0.0000000000e+00 
          2.5000000000e-01 0.0000000000e+00 0.0000000000e+00 
          2.5000000000e-01 3.0000000000e+01 0.0000000000e+00 
          0.0000000000e+00 3.0000000000e+01 0.0000000000e+00 
          2.5000000000e-01 7.6923100000e-01 0.0000000000e+00 
          2.5000000000e-01 1.5384620000e+00 0.0000000000e+00 
          2.5000000000e-01 2.3076920000e+00 0.0000000000e+00 
          2.5000000000e-01 3.0769230000e+00 0.0000000000e+00 
          2.5000000000e-01 3.8461540000e+00 0.0000000000e+00 
          2.5000000000e-01 4.6153850000e+00 0.0000000000e+00 
          2.5000000000e-01 5.3846150000e+00 0.0000000000e+00 
          2.5000000000e-01 6.1538460000e+00 0.0000000000e+00 
          2.5000000000e-01 6.9230770000e+00 0.0000000000e+00 
          2.5000000000e-01 7.6923080000e+00 0.0000000000e+00 
          2.5000000000e-01 8.4615380000e+00 0.0000000000e+00 
          2.5000000000e-01 9.2307690000e+00 0.0000000000e+00 
          2.5000000000e-01 1.0000000000e+01 0.0000000000e+00 
          2.5000000000e-01 1.0769231000e+01 0.0000000000e+00 
          2.5000000000e-01 1.1538462000e+01 0.0000000000e+00 
          2.5000000000e-01 1.2307692000e+01 0.0000000000e+00 
          2.5000000000e-01 1.3076923000e+01 0.0000000000e+00 
          2.5000000000e-01 1.3846154000e+01 0.0000000000e+00 
          2.5000000000e-01 1.4615385000e+01 0.0000000000e+00 
          2.5000000000e-01 1.5384615000e+01 0.0000000000e+00 
          2.5000000000e-01 1.6153846000e+01 0.0000000000e+00 
          2.5000000000e-01 1.6923077000e+01 0.0000000000e+00 
          2.5000000000e-01 1.7692308000e+01 0.0000000000e+00 
          2.5000000000e-01 1.8461538000e+01 0.0000000000e+00 
          2.5000000000e-01 1.9230769000e+01 0.0000000000e+00 
          2.5000000000e-01 2.0000000000e+01 0.0000000000e+00 
          2.5000000000e-01 2.0769231000e+01 0.0000000000e+00 
          2.5000000000e-01 2.1538462000e+01 0.0000000000e+00 
          2.5000000000e-01 2.2307692000e+01 0.0000000000e+00 
          2.5000000000e-01 2.3076923000e+01 0.0000000000e+00 
          2.5000000000e-01 2.3846154000e+01 0.0000000000e+00 
          2.5000000000e-01 2.4615385000e+01 0.0000000000e+00 
          2.5000000000e-01 2.5384615000e+01 0.0000000000e+00 
          2.5000000000e-01 2.6153846000e+01 0.0000000000e+00 
          2.5000000000e-01 2.6923077000e+01 0.0000000000e+00 
          2.5000000000e-01 2.7692308000e+01 0.0000000000e+00 
          2.5000000000e-01 2.8461538000e+01 0.0000000000e+00 
          2.5000000000e-01 2.9230769000e+01 0.0000000000e+00 
          0.0000000000e+00 7.6923100000e-01 0.0000000000e+00 
          0.0000000000e+00 1.5384620000e+00 0.0000000000e+00 
          0.0000000000e+00 2.3076920000e+00 0.0000000000e+00 
          0.0000000000e+00 3.0769230000e+00 0.0000000000e+00 
          0.0000000000e+00 3.8461540000e+00 0.0000000000e+00 
          0.0000000000e+00 4.6153850000e+00 0.0000000000e+00 
          0.0000000000e+00 5.3846150000e+00 0.0000000000e+00 
          0.0000000000e+00 6.1538460000e+00 0.0000000000e+00 
          0.0000000000e+00 6.9230770000e+00 0.0000000000e+00 
          0.0000000000e+00 7.6923080000e+00 0.0000000000e+00 
          0.0000000000e+00 8.4615380000e+00 0.0000000000e+00 
          0.0000000000e+00 9.2307690000e+00 0.0000000000e+00 
          0.0000000000e+00 1.0000000000e+01 0.0000000000e+00 
          0.0000000000e+00 1.0769231000e+01 0.0000000000e+00 
          0.0000000000e+00 1.1538462000e+01 0.0000000000e+00 
          0.0000000000e+00 1.2307692000e+01 0.0000000000e+00 
          0.0000000000e+00 1.3076923000e+01 0.0000000000e+00 
          0.0000000000e+00 1.3846154000e+01 0.0000000000e+00 
          0.0000000000e+00 1.4615385000e+01 0.0000000000e+00 
          0.0000000000e+00 1.5384615000e+01 0.0000000000e+00 
          0.0000000000e+00 1.6153846000e+01 0.0000000000e+00 
          0.0000000000e+00 1.6923077000e+01 0.0000000000e+00 
          0.0000000000e+00 1.7692308000e+01 0.0000000000e+00 
          0.0000000000e+00 1.8461538000e+01 0.0000000000e+00 
          0.0000000000e+00 1.9230769000e+01 0.0000000000e+00 
          0.0000000000e+00 2.0000000000e+01 0.0000000000e+00 
          0.0000000000e+00 2.0769231000e+01 0.0000000000e+00 
          0.0000000000e+00 2.1538462000e+01 0.0000000000e+00 
          0.0000000000e+00 2.2307692000e+01 0.0000000000e+00 
          0.0000000000e+00 2.3076923000e+01 0.0000000000e+00 
          0.0000000000e+00 2.3846154000e+01 0.0000000000e+00 
          0.0000000000e+00 2.4615385000e+01 0.0000000000e+00 
          0.0000000000e+00 2.5384615000e+01 0.0000000000e+00 
          0.0000000000e+00 2.6153846000e+01 0.0000000000e+00 
          0.0000000000e+00 2.6923077000e+01 0.0000000000e+00 
          0.0000000000e+00 2.7692308000e+01 0.0000000000e+00 
          0.0000000000e+00 2.8461538000e+01 0.0000000000e+00 
          0.0000000000e+00 2.9230769000e+01 0.0000000000e+00 
        </DataArray>
      </Points>
      <Cells>
        <DataArray type="Int64" Name="connectivity" format="ascii">
          0 1 4 42 
          42 4 5 43 
          43 5 6 44 
          44 6 7 45 
          45 7 8 46 
          46 8 9 47 
          47 9 10 48 
          48 10 11 49 
          49 11 12 50 
          50 12 13 51 
          51 13 14 52 
          52 14 15 53 
          53 15 16 54 
          54 16 17 55 
          55 17 18 56 
          56 18 19 57 
          57 19 20 58 
          58 20 21 59 
          59 21 22 60 
          60 22 23 61 
          61 23 24 62 
          62 24 25 63 
          63 25 26 64 
          64 26 27 65 
          65 27 28 66 
          66 28 29 67 
          67 29 30 68 
          68 30 31 69 
          69 31 32 70 
          70 32 33 71 
          71 33 34 72 
          72 34 35 73 
          73 35 36 74 
          74 36 37 75 
          75 37 38 76 
          76 38 39 77 
          77 39 40 78 
          78 40 41 79 
          79 41 2 3 
        </DataArray>
        <DataArray type="Int64" Name="offsets" format="ascii">
          4
          8
          12
          16
          20
          24
          28
          32
          36
          40
          44
          48
          52
          56
          60
          64
          68
          72
          76
          80
          84
          88
          92
          96
          100
          104
          108
          112
          116
          120
          124
          128
          132
          136
          140
          144
          148
          152
          156
        </DataArray>
        <DataArray type="Int64" Name="types" format="ascii">
          9
          9
          9
          9
          9
          9
          9
          9
          9
          9
          9
          9
          9
          9
          9
          9
          9
          9
          9
          9
          9
          9
          9
          9
          9
          9
          9
          9
          9
          9
          9
          9
          9
          9
          9
          9
          9
          9
          9
        </DataArray>
      </Cells>
      <PointData>
        <DataArray type="Int64" Name="NodeTag" format="ascii">
          1
          2
          3
          4
          7
          8
          9
          10
          11
          12
          13
          14
          15
          16
          17
          18
          19
          20
          21
          22
          23
          24
          25
          26
          27
          28
          29
          30
          31
          32
          33
          34
          35
          36
          37
          38
          39
          40
          41
          42
          43
          44
          45
          46
          47
          48
          49
          50
          51
          52
          53
          54
          55
          56
          57
          58
          59
          60
          61
          62
          63
          64
          65
          66
          67
          68
          69
          70
          71
          72
          73
          74
          75
          76
          77
          78
          79
          80
          81
          82
        </DataArray>
        <DataArray type="Float64" Name="Velocity" NumberOfComponents="3" format="ascii">
          -6.0006390807e-05 -7.7844426507e-05 0.0000000000e+00 
          -6.0006390807e-05 -7.7844426507e-05 0.0000000000e+00 
          -2.0444707800e-05 -7.7903168439e-05 0.0000000000e+00 
          -2.0444707800e-05 -7.7903168439e-05 0.0000000000e+00 
          -5.9186316173e-05 -7.7858757056e-05 0.0000000000e+00 
          -5.8269136722e-05 -7.7826712395e-05 0.0000000000e+00 
          -5.7281574636e-05 -7.7849735815e-05 0.0000000000e+00 
          -5.6206244423e-05 -7.7861112995e-05 0.0000000000e+00 
          -5.5073875502e-05 -7.7817429360e-05 0.0000000000e+00 
          -5.3871815349e-05 -7.7854955704e-05 0.0000000000e+00 
          -5.2619452585e-05 -7.7875351982e-05 0.0000000000e+00 
          -5.1322705168e-05 -7.7781921340e-05 0.0000000000e+00 
          -4.9977525407e-05 -7.7913746149e-05 0.0000000000e+00 
          -4.8612330507e-05 -7.7790244235e-05 0.0000000000e+00 
          -4.7208416990e-05 -7.7881224261e-05 0.0000000000e+00 
          -4.5792712732e-05 -7.7835181536e-05 0.0000000000e+00 
          -4.4367676006e-05 -7.7820830929e-05 0.0000000000e+00 
          -4.2923269628e-05 -7.7907006809e-05 0.0000000000e+00 
          -4.1498809628e-05 -7.7765891141e-05 0.0000000000e+00 
          -4.0067133720e-05 -7.7910883485e-05 0.0000000000e+00 
          -3.8649779755e-05 -7.7824721885e-05 0.0000000000e+00 
          -3.7263608131e-05 -7.7824444419e-05 0.0000000000e+00 
          -3.5884457222e-05 -7.7889478760e-05 0.0000000000e+00 
          -3.4552290959e-05 -7.7806136909e-05 0.0000000000e+00 
          -3.3244888946e-05 -7.7870276979e-05 0.0000000000e+00 
          -3.1981530971e-05 -7.7838653729e-05 0.0000000000e+00 
          -3.0768109322e-05 -7.7850868253e-05 0.0000000000e+00 
          -2.9596749275e-05 -7.7833649998e-05 0.0000000000e+00 
          -2.8488877017e-05 -7.7868227518e-05 0.0000000000e+00 
          -2.7431939821e-05 -7.7835449663e-05 0.0000000000e+00 
          -2.6441712024e-05 -7.7836641473e-05 0.0000000000e+00 
          -2.5519071738e-05 -7.7875991919e-05 0.0000000000e+00 
          -2.4660464496e-05 -7.7815169950e-05 0.0000000000e+00 
          -2.3879153320e-05 -7.7871954147e-05 0.0000000000e+00 
          -2.3169838345e-05 -7.7837691601e-05 0.0000000000e+00 
          -2.2540834646e-05 -7.7847401391e-05 0.0000000000e+00 
          -2.1988622427e-05 -7.7845563456e-05 0.0000000000e+00 
          -2.1519531223e-05 -7.7862595616e-05 0.0000000000e+00 
          -2.1133930881e-05 -7.7828670682e-05 0.0000000000e+00 
          -2.0831331381e-05 -7.7849733199e-05 0.0000000000e+00 
          -2.0616986483e-05 -7.7874184028e-05 0.0000000000e+00 
          -2.0483524198e-05 -7.7799999969e-05 0.0000000000e+00 
          -5.9186316173e-05 -7.7858757056e-05 0.0000000000e+00 
          -5.8269136722e-05 -7.7826712395e-05 0.0000000000e+00 
          -5.7281574636e-05 -7.7849735815e-05 0.0000000000e+00 
          -5.6206244423e-05 -7.7861112995e-05 0.0000000000e+00 
          -5.5073875502e-05 -7.7817429360e-05 0.0000000000e+00 
          -5.3871815349e-05 -7.7854955704e-05 0.0000000000e+00 
          -5.2619452585e-05 -7.7875351982e-05 0.0000000000e+00 
          -5.1322705168e-05 -7.7781921340e-05 0.0000000000e+00 
          -4.9977525407e-05 -7.7913746149e-05 0.0000000000e+00 
          -4.8612330507e-05 -7.7790244235e-05 0.0000000000e+00 
          -4.7208416990e-05 -7.7881224261e-05 0.0000000000e+00 
          -4.5792712732e-05 -7.7835181536e-05 0.0000000000e+00 
          -4.4367676006e-05 -7.7820830929e-05 0.0000000000e+00 
          -4.2923269628e-05 -7.7907006809e-05 0.0000000000e+00 
          -4.1498809628e-05 -7.7765891141e-05 0.0000000000e+00 
          -4.0067133720e-05 -7.7910883485e-05 0.0000000000e+00 
          -3.8649779755e-05 -7.7824721885e-05 0.0000000000e+00 
          -3.7263608131e-05 -7.7824444419e-05 0.0000000000e+00 
          -3.5884457222e-05 -7.7889478760e-05 0.0000000000e+00 
          -3.4552290959e-05 -7.7806136909e-05 0.0000000000e+00 
          -3.3244888946e-05 -7.7870276979e-05 0.0000000000e+00 
          -3.1981530971e-05 -7.7838653729e-05 0.0000000000e+00 
          -3.0768109322e-05 -7.7850868253e-05 0.0000000000e+00 
          -2.9596749275e-05 -7.7833649998e-05 0.0000000000e+00 
          -2.8488877017e-05 -7.7868227518e-05 0.0000000000e+00 
          -2.7431939821e-05 -7.7835449663e-05 0.0000000000e+00 
          -2.6441712024e-05 -7.7836641473e-05 0.0000000000e+00 
          -2.5519071738e-05 -7.7875991919e-05 0.0000000000e+00 
          -2.4660464496e-05 -7.7815169950e-05 0.0000000000e+00 
          -2.3879153320e-05 -7.7871954147e-05 0.0000000000e+00 
          -2.3169838345e-05 -7.7837691601e-05 0.0000000000e+00 
          -2.2540834646e-05 -7.7847401391e-05 0.0000000000e+00 
          -2.1988622427e-05 -7.7845563456e-05 0.0000000000e+00 
          -2.1519531223e-05 -7.7862595616e-05 0.0000000000e+00 
          -2.1133930881e-05 -7.7828670682e-05 0.0000000000e+00 
          -2.0831331381e-05 -7.7849733199e-05 0.0000000000e+00 
          -2.0616986483e-05 -7.7874184028e-05 0.0000000000e+00 
          -2.0483524198e-05 -7.7799999969e-05 0.0000000000e+00 
        </DataArray>
        <DataArray type="Float64" Name="Displacement" NumberOfComponents="3" format="ascii">
          9.6581925724e-07 -5.4931475145e-04 0.0000000000e+00 
          9.6581925724e-07 -5.4931475145e-04 0.0000000000e+00 
          -2.3680894219e-05 -5.7289493558e-04 0.0000000000e+00 
          -2.3680894219e-05 -5.7289493558e-04 0.0000000000e+00 
          -3.0430613844e-08 -5.5050849707e-04 0.0000000000e+00 
          -1.0245553419e-06 -5.5167121800e-04 0.0000000000e+00 
          -2.0149961533e-06 -5.5280298949e-04 0.0000000000e+00 
          -3.0001424154e-06 -5.5390363038e-04 0.0000000000e+00 
          -3.9784420167e-06 -5.5497344510e-04 0.0000000000e+00 
          -4.9483475321e-06 -5.5601207346e-04 0.0000000000e+00 
          -5.9082838016e-06 -5.5701982261e-04 0.0000000000e+00 
          -6.8567682709e-06 -5.5799651052e-04 0.0000000000e+00 
          -7.7922685312e-06 -5.5894219426e-04 0.0000000000e+00 
          -8.7133022702e-06 -5.5985688232e-04 0.0000000000e+00 
          -9.6184233061e-06 -5.6074056679e-04 0.0000000000e+00 
          -1.0506178643e-05 -5.6159324010e-04 0.0000000000e+00 
          -1.1375163081e-05 -5.6241489072e-04 0.0000000000e+00 
          -1.2224007372e-05 -5.6320558402e-04 0.0000000000e+00 
          -1.3051346523e-05 -5.6396519569e-04 0.0000000000e+00 
          -1.3855868225e-05 -5.6469387610e-04 0.0000000000e+00 
          -1.4636307832e-05 -5.6539149590e-04 0.0000000000e+00 
          -1.5391387947e-05 -5.6605816101e-04 0.0000000000e+00 
          -1.6119943511e-05 -5.6669373287e-04 0.0000000000e+00 
          -1.6820775373e-05 -5.6729842920e-04 0.0000000000e+00 
          -1.7492778590e-05 -5.6787196796e-04 0.0000000000e+00 
          -1.8134880992e-05 -5.6841465046e-04 0.0000000000e+00 
          -1.8746034302e-05 -5.6892619018e-04 0.0000000000e+00 
          -1.9325274799e-05 -5.6940681411e-04 0.0000000000e+00 
          -1.9871658506e-05 -5.6985643110e-04 0.0000000000e+00 
          -2.0384306648e-05 -5.7027495622e-04 0.0000000000e+00 
          -2.0862395087e-05 -5.7066257271e-04 0.0000000000e+00 
          -2.1305149401e-05 -5.7101916030e-04 0.0000000000e+00 
          -2.1711846776e-05 -5.7134467370e-04 0.0000000000e+00 
          -2.2081839070e-05 -5.7163926253e-04 0.0000000000e+00 
          -2.2414517295e-05 -5.7190285033e-04 0.0000000000e+00 
          -2.2709342352e-05 -5.7213530174e-04 0.0000000000e+00 
          -2.2965840791e-05 -5.7233696322e-04 0.0000000000e+00 
          -2.3183581872e-05 -5.7250737320e-04 0.0000000000e+00 
          -2.3362226403e-05 -5.7264701600e-04 0.0000000000e+00 
          -2.3501474812e-05 -5.7275545305e-04 0.0000000000e+00 
          -2.3601096730e-05 -5.7283298577e-04 0.0000000000e+00 
          -2.3660938775e-05 -5.7287956572e-04 0.0000000000e+00 
          -3.0430613844e-08 -5.5050849707e-04 0.0000000000e+00 
          -1.0245553419e-06 -5.5167121800e-04 0.0000000000e+00 
          -2.0149961533e-06 -5.5280298949e-04 0.0000000000e+00 
          -3.0001424154e-06 -5.5390363038e-04 0.0000000000e+00 
          -3.9784420167e-06 -5.5497344510e-04 0.0000000000e+00 
          -4.9483475321e-06 -5.5601207346e-04 0.0000000000e+00 
          -5.9082838016e-06 -5.5701982261e-04 0.0000000000e+00 
          -6.8567682709e-06 -5.5799651052e-04 0.0000000000e+00 
          -7.7922685312e-06 -5.5894219426e-04 0.0000000000e+00 
          -8.7133022702e-06 -5.5985688232e-04 0.0000000000e+00 
          -9.6184233061e-06 -5.6074056679e-04 0.0000000000e+00 
          -1.0506178643e-05 -5.6159324010e-04 0.0000000000e+00 
          -1.1375163081e-05 -5.6241489072e-04 0.0000000000e+00 
          -1.2224007372e-05 -5.6320558402e-04 0.0000000000e+00 
          -1.3051346523e-05 -5.6396519569e-04 0.0000000000e+00 
          -1.3855868225e-05 -5.6469387610e-04 0.0000000000e+00 
          -1.4636307832e-05 -5.6539149590e-04 0.0000000000e+00 
          -1.5391387947e-05 -5.6605816101e-04 0.0000000000e+00 
          -1.6119943511e-05 -5.6669373287e-04 0.0000000000e+00 
          -1.6820775373e-05 -5.6729842920e-04 0.0000000000e+00 
          -1.7492778590e-05 -5.6787196796e-04 0.0000000000e+00 
          -1.8134880992e-05 -5.6841465046e-04 0.0000000000e+00 
          -1.8746034302e-05 -5.6892619018e-04 0.0000000000e+00 
          -1.9325274799e-05 -5.6940681411e-04 0.0000000000e+00 
          -1.9871658506e-05 -5.6985643110e-04 0.0000000000e+00 
          -2.0384306648e-05 -5.7027495622e-04 0.0000000000e+00 
          -2.0862395087e-05 -5.7066257271e-04 0.0000000000e+00 
          -2.1305149401e-05 -5.7101916030e-04 0.0000000000e+00 
          -2.1711846776e-05 -5.7134467370e-04 0.0000000000e+00 
          -2.2081839070e-05 -5.7163926253e-04 0.0000000000e+00 
          -2.2414517295e-05 -5.7190285033e-04 0.0000000000e+00 
          -2.2709342352e-05 -5.7213530174e-04 0.0000000000e+00 
          -2.2965840791e-05 -5.7233696322e-04 0.0000000000e+00 
          -2.3183581872e-05 -5.7250737320e-04 0.0000000000e+00 
          -2.3362226403e-05 -5.7264701600e-04 0.0000000000e+00 
          -2.3501474812e-05 -5.7275545305e-04 0.0000000000e+00 
          -2.3601096730e-05 -5.7283298577e-04 0.0000000000e+00 
          -2.3660938775e-05 -5.7287956572e-04 0.0000000000e+00 
        </DataArray>
        <DataArray type="Float64" Name="Acceleration" NumberOfComponents="3" format="ascii">
          4.6465131136e-05 -9.5364337399e-07 0.0000000000e+00 
          4.6465131136e-05 -9.5364337399e-07 0.0000000000e+00 
          3.5960498760e-03 -4.8042922621e-05 0.0000000000e+00 
          3.5960498760e-03 -4.8042922621e-05 0.0000000000e+00 
          1.9147958310e-04 3.3078228210e-06 0.0000000000e+00 
          3.3181236741e-04 -1.0514811078e-05 0.0000000000e+00 
          4.7716567081e-04 2.2660605245e-05 0.0000000000e+00 
          6.1689766013e-04 -3.2465714438e-05 0.0000000000e+00 
          7.5632372227e-04 3.2441106957e-05 0.0000000000e+00 
          8.9813688339e-04 -2.3142690574e-05 0.0000000000e+00 
          1.0319429177e-03 1.0134757509e-05 0.0000000000e+00 
          1.1699028763e-03 -3.9216327652e-07 0.0000000000e+00 
          1.3034621402e-03 -1.9189272026e-06 0.0000000000e+00 
          1.4336608882e-03 -6.9809461378e-07 0.0000000000e+00 
          1.5647907805e-03 1.0787939496e-06 0.0000000000e+00 
          1.6912950739e-03 2.9464263205e-06 0.0000000000e+00 
          1.8146670515e-03 -8.8320751261e-06 0.0000000000e+00 
          1.9376555957e-03 1.3568370780e-05 0.0000000000e+00 
          2.0558042534e-03 -1.3696042805e-05 0.0000000000e+00 
          2.1699399868e-03 9.9526223569e-06 0.0000000000e+00 
          2.2849403299e-03 -9.3056039513e-06 0.0000000000e+00 
          2.3899144827e-03 1.5662005617e-05 0.0000000000e+00 
          2.4978796985e-03 -2.3709459212e-05 0.0000000000e+00 
          2.5976017181e-03 2.7397110385e-05 0.0000000000e+00 
          2.6941224761e-03 -2.7044651562e-05 0.0000000000e+00 
          2.7885742455e-03 2.4589327294e-05 0.0000000000e+00 
          2.8753415375e-03 -1.6427023009e-05 0.0000000000e+00 
          2.9605314269e-03 2.2450367221e-07 0.0000000000e+00 
          3.0396410313e-03 1.5413499491e-05 0.0000000000e+00 
          3.1138975042e-03 -1.7606897255e-05 0.0000000000e+00 
          3.1836745019e-03 4.0659900871e-06 0.0000000000e+00 
          3.2487558344e-03 1.2154528693e-05 0.0000000000e+00 
          3.3072500576e-03 -1.4654815861e-05 0.0000000000e+00 
          3.3620712377e-03 -9.5611536682e-07 0.0000000000e+00 
          3.4106452803e-03 2.3436211604e-05 0.0000000000e+00 
          3.4532761582e-03 -3.9041799555e-05 0.0000000000e+00 
          3.4921467729e-03 4.4231455393e-05 0.0000000000e+00 
          3.5226764444e-03 -4.3099097401e-05 0.0000000000e+00 
          3.5496683180e-03 3.5936292180e-05 0.0000000000e+00 
          3.5704157365e-03 -1.8395058012e-05 0.0000000000e+00 
          3.5842591978e-03 -9.6327143341e-06 0.0000000000e+00 
          3.5938614453e-03 3.6715908618e-05 0.0000000000e+00 
          1.9147958310e-04 3.3078228210e-06 0.0000000000e+00 
          3.3181236741e-04 -1.0514811078e-05 0.0000000000e+00 
          4.7716567081e-04 2.2660605245e-05 0.0000000000e+00 
          6.1689766013e-04 -3.2465714438e-05 0.0000000000e+00 
          7.5632372227e-04 3.2441106957e-05 0.0000000000e+00 
          8.9813688339e-04 -2.3142690574e-05 0.0000000000e+00 
          1.0319429177e-03 1.0134757509e-05 0.0000000000e+00 
          1.1699028763e-03 -3.9216327652e-07 0.0000000000e+00 
          1.3034621402e-03 -1.9189272026e-06 0.0000000000e+00 
          1.4336608882e-03 -6.9809461378e-07 0.0000000000e+00 
          1.5647907805e-03 1.0787939496e-06 0.0000000000e+00 
          1.6912950739e-03 2.9464263205e-06 0.0000000000e+00 
          1.8146670515e-03 -8.8320751261e-06 0.0000000000e+00 
          1.9376555957e-03 1.3568370780e-05 0.0000000000e+00 
          2.0558042534e-03 -1.3696042805e-05 0.0000000000e+00 
          2.1699399868e-03 9.9526223569e-06 0.0000000000e+00 
          2.2849403299e-03 -9.3056039513e-06 0.0000000000e+00 
          2.3899144827e-03 1.5662005617e-05 0.0000000000e+00 
          2.4978796985e-03 -2.3709459212e-05 0.0000000000e+00 
          2.5976017181e-03 2.7397110385e-05 0.0000000000e+00 
          2.6941224761e-03 -2.7044651562e-05 0.0000000000e+00 
          2.7885742455e-03 2.4589327294e-05 0.0000000000e+00 
          2.8753415375e-03 -1.6427023009e-05 0.0000000000e+00 
          2.9605314269e-03 2.2450367221e-07 0.0000000000e+00 
          3.0396410313e-03 1.5413499491e-05 0.0000000000e+00 
          3.1138975042e-03 -1.7606897255e-05 0.0000000000e+00 
          3.1836745019e-03 4.0659900871e-06 0.0000000000e+00 
          3.2487558344e-03 1.2154528693e-05 0.0000000000e+00 
          3.3072500576e-03 -1.4654815861e-05 0.0000000000e+00 
          3.3620712377e-03 -9.5611536682e-07 0.0000000000e+00 
          3.4106452803e-03 2.3436211604e-05 0.0000000000e+00 
          3.4532761582e-03 -3.9041799555e-05 0.0000000000e+00 
          3.4921467729e-03 4.4231455393e-05 0.0000000000e+00 
          3.5226764444e-03 -4.3099097401e-05 0.0000000000e+00 
          3.5496683180e-03 3.5936292180e-05 0.0000000000e+00 
          3.5704157365e-03 -1.8395058012e-05 0.0000000000e+00 
          3.5842591978e-03 -9.6327143341e-06 0.0000000000e+00 
          3.5938614453e-03 3.6715908618e-05 0.0000000000e+00 
        </DataArray>
        <DataArray type="Float64" Name="Reaction" NumberOfComponents="3" format="ascii">
          0.0000000000e+00 0.0000000000e+00 0.0000000000e+00 
          0.0000000000e+00 0.0000000000e+00 0.0000000000e+00 
          0.0000000000e+00 0.0000000000e+00 0.0000000000e+00 
          0.0000000000e+00 0.0000000000e+00 0.0000000000e+00 
          0.0000000000e+00 0.0000000000e+00 0.0000000000e+00 
          0.0000000000e+00 0.0000000000e+00 0.0000000000e+00 
          0.0000000000e+00 0.0000000000e+00 0.0000000000e+00 
          0.0000000000e+00 0.0000000000e+00 0.0000000000e+00 
          0.0000000000e+00 0.0000000000e+00 0.0000000000e+00 
          0.0000000000e+00 0.0000000000e+00 0.0000000000e+00 
          0.0000000000e+00 0.0000000000e+00 0.0000000000e+00 
          0.0000000000e+00 0.0000000000e+00 0.0000000000e+00 
          0.0000000000e+00 0.0000000000e+00 0.0000000000e+00 
          0.0000000000e+00 0.0000000000e+00 0.0000000000e+00 
          0.0000000000e+00 0.0000000000e+00 0.0000000000e+00 
          0.0000000000e+00 0.0000000000e+00 0.0000000000e+00 
          0.0000000000e+00 0.0000000000e+00 0.0000000000e+00 
          0.0000000000e+00 0.0000000000e+00 0.0000000000e+00 
          0.0000000000e+00 0.0000000000e+00 0.0000000000e+00 
          0.0000000000e+00 0.0000000000e+00 0.0000000000e+00 
          0.0000000000e+00 0.0000000000e+00 0.0000000000e+00 
          0.0000000000e+00 0.0000000000e+00 0.0000000000e+00 
          0.0000000000e+00 0.0000000000e+00 0.0000000000e+00 
          0.0000000000e+00 0.0000000000e+00 0.0000000000e+00 
          0.0000000000e+00 0.0000000000e+00 0.0000000000e+00 
          0.0000000000e+00 0.0000000000e+00 0.0000000000e+00 
          0.0000000000e+00 0.0000000000e+00 0.0000000000e+00 
          0.0000000000e+00 0.0000000000e+00 0.0000000000e+00 
          0.0000000000e+00 0.0000000000e+00 0.0000000000e+00 
          0.0000000000e+00 0.0000000000e+00 0.0000000000e+00 
          0.0000000000e+00 0.0000000000e+00 0.0000000000e+00 
          0.0000000000e+00 0.0000000000e+00 0.0000000000e+00 
          0.0000000000e+00 0.0000000000e+00 0.0000000000e+00 
          0.0000000000e+00 0.0000000000e+00 0.0000000000e+00 
          0.0000000000e+00 0.0000000000e+00 0.0000000000e+00 
          0.0000000000e+00 0.0000000000e+00 0.0000000000e+00 
          0.0000000000e+00 0.0000000000e+00 0.0000000000e+00 
          0.0000000000e+00 0.0000000000e+00 0.0000000000e+00 
          0.0000000000e+00 0.0000000000e+00 0.0000000000e+00 
          0.0000000000e+00 0.0000000000e+00 0.0000000000e+00 
          0.0000000000e+00 0.0000000000e+00 0.0000000000e+00 
          0.0000000000e+00 0.0000000000e+00 0.0000000000e+00 
          0.0000000000e+00 0.0000000000e+00 0.0000000000e+00 
          0.0000000000e+00 0.0000000000e+00 0.0000000000e+00 
          0.0000000000e+00 0.0000000000e+00 0.0000000000e+00 
          0.0000000000e+00 0.0000000000e+00 0.0000000000e+00 
          0.0000000000e+00 0.0000000000e+00 0.0000000000e+00 
          0.0000000000e+00 0.0000000000e+00 0.0000000000e+00 
          0.0000000000e+00 0.0000000000e+00 0.0000000000e+00 
          0.0000000000e+00 0.0000000000e+00 0.0000000000e+00 
          0.0000000000e+00 0.0000000000e+00 0.0000000000e+00 
          0.0000000000e+00 0.0000000000e+00 0.0000000000e+00 
          0.0000000000e+00 0.0000000000e+00 0.0000000000e+00 
          0.0000000000e+00 0.0000000000e+00 0.0000000000e+00 
          0.0000000000e+00 0.0000000000e+00 0.0000000000e+00 
          0.0000000000e+00 0.0000000000e+00 0.0000000000e+00 
          0.0000000000e+00 0.0000000000e+00 0.0000000000e+00 
          0.0000000000e+00 0.0000000000e+00 0.0000000000e+00 
          0.0000000000e+00 0.0000000000e+00 0.0000000000e+00 
          0.0000000000e+00 0.0000000000e+00 0.0000000000e+00 
          0.0000000000e+00 0.0000000000e+00 0.0000000000e+00 
          0.0000000000e+00 0.0000000000e+00 0.0000000000e+00 
          0.0000000000e+00 0.0000000000e+00 0.0000000000e+00 
          0.0000000000e+00 0.0000000000e+00 0.0000000000e+00 
          0.0000000000e+00 0.0000000000e+00 0.0000000000e+00 
          0.0000000000e+00 0.0000000000e+00 0.0000000000e+00 
          0.0000000000e+00 0.0000000000e+00 0.0000000000e+00 
          0.0000000000e+00 0.0000000000e+00 0.0000000000e+00 
          0.0000000000e+00 0.0000000000e+00 0.0000000000e+00 
          0.0000000000e+00 0.0000000000e+00 0.0000000000e+00 
          0.0000000000e+00 0.0000000000e+00 0.0000000000e+00 
          0.0000000000e+00 0.0000000000e+00 0.0000000000e+00 
          0.0000000000e+00 0.0000000000e+00 0.0000000000e+00 
          0.0000000000e+00 0.0000000000e+00 0.0000000000e+00 
          0.0000000000e+00 0.0000000000e+00 0.0000000000e+00 
          0.0000000000e+00 0.0000000000e+00 0.0000000000e+00 
          0.0000000000e+00 0.0000000000e+00 0.0000000000e+00 
          0.0000000000e+00 0.0000000000e+00 0.0000000000e+00 
          0.0000000000e+00 0.0000000000e+00 0.0000000000e+00 
          0.0000000000e+00 0.0000000000e+00 0.0000000000e+00 
        </DataArray>
      </PointData>
      <CellData>
        <DataArray type="Int64" Name="ElementTag" format="ascii">
          90
          91
          92
          93
          94
          95
          96
          97
          98
          99
          100
          101
          102
          103
          104
          105
          106
          107
          108
          109
          110
          111
          112
          113
          114
          115
          116
          117
          118
          119
          120
          121
          122
          123
          124
          125
          126
          127
          128
        </DataArray>
      </CellData>
    </Piece>
  </UnstructuredGrid>
</VTKFile>
