<?xml version="1.0"?>
<VTKFile type="UnstructuredGrid" version="1.0" byte_order="LittleEndian" compressor="vtkZLibDataCompressor">
  <UnstructuredGrid>
    <Piece NumberOfPoints="82" NumberOfCells="1">
      <Points>
        <DataArray type="Float64" Name="Points" NumberOfComponents="3" format="ascii">
          0.0000000000e+00 0.0000000000e+00 0.0000000000e+00 
          2.5000000000e-01 0.0000000000e+00 0.0000000000e+00 
          2.5000000000e-01 3.0000000000e+01 0.0000000000e+00 
          0.0000000000e+00 3.0000000000e+01 0.0000000000e+00 
          0.0000000000e+00 -5.0000000000e+00 0.0000000000e+00 
          2.5000000000e-01 -5.0000000000e+00 0.0000000000e+00 
          2.5000000000e-01 7.6923100000e-01 0.0000000000e+00 
          2.5000000000e-01 1.5384620000e+00 0.0000000000e+00 
          2.5000000000e-01 2.3076920000e+00 0.0000000000e+00 
          2.5000000000e-01 3.0769230000e+00 0.0000000000e+00 
          2.5000000000e-01 3.8461540000e+00 0.0000000000e+00 
          2.5000000000e-01 4.6153850000e+00 0.0000000000e+00 
          2.5000000000e-01 5.3846150000e+00 0.0000000000e+00 
          2.5000000000e-01 6.1538460000e+00 0.0000000000e+00 
          2.5000000000e-01 6.9230770000e+00 0.0000000000e+00 
          2.5000000000e-01 7.6923080000e+00 0.0000000000e+00 
          2.5000000000e-01 8.4615380000e+00 0.0000000000e+00 
          2.5000000000e-01 9.2307690000e+00 0.0000000000e+00 
          2.5000000000e-01 1.0000000000e+01 0.0000000000e+00 
          2.5000000000e-01 1.0769231000e+01 0.0000000000e+00 
          2.5000000000e-01 1.1538462000e+01 0.0000000000e+00 
          2.5000000000e-01 1.2307692000e+01 0.0000000000e+00 
          2.5000000000e-01 1.3076923000e+01 0.0000000000e+00 
          2.5000000000e-01 1.3846154000e+01 0.0000000000e+00 
          2.5000000000e-01 1.4615385000e+01 0.0000000000e+00 
          2.5000000000e-01 1.5384615000e+01 0.0000000000e+00 
          2.5000000000e-01 1.6153846000e+01 0.0000000000e+00 
          2.5000000000e-01 1.6923077000e+01 0.0000000000e+00 
          2.5000000000e-01 1.7692308000e+01 0.0000000000e+00 
          2.5000000000e-01 1.8461538000e+01 0.0000000000e+00 
          2.5000000000e-01 1.9230769000e+01 0.0000000000e+00 
          2.5000000000e-01 2.0000000000e+01 0.0000000000e+00 
          2.5000000000e-01 2.0769231000e+01 0.0000000000e+00 
          2.5000000000e-01 2.1538462000e+01 0.0000000000e+00 
          2.5000000000e-01 2.2307692000e+01 0.0000000000e+00 
          2.5000000000e-01 2.3076923000e+01 0.0000000000e+00 
          2.5000000000e-01 2.3846154000e+01 0.0000000000e+00 
          2.5000000000e-01 2.4615385000e+01 0.0000000000e+00 
          2.5000000000e-01 2.5384615000e+01 0.0000000000e+00 
          2.5000000000e-01 2.6153846000e+01 0.0000000000e+00 
          2.5000000000e-01 2.6923077000e+01 0.0000000000e+00 
          2.5000000000e-01 2.7692308000e+01 0.0000000000e+00 
          2.5000000000e-01 2.8461538000e+01 0.0000000000e+00 
          2.5000000000e-01 2.9230769000e+01 0.0000000000e+00 
          0.0000000000e+00 7.6923100000e-01 0.0000000000e+00 
          0.0000000000e+00 1.5384620000e+00 0.0000000000e+00 
          0.0000000000e+00 2.3076920000e+00 0.0000000000e+00 
          0.0000000000e+00 3.0769230000e+00 0.0000000000e+00 
          0.0000000000e+00 3.8461540000e+00 0.0000000000e+00 
          0.0000000000e+00 4.6153850000e+00 0.0000000000e+00 
          0.0000000000e+00 5.3846150000e+00 0.0000000000e+00 
          0.0000000000e+00 6.1538460000e+00 0.0000000000e+00 
          0.0000000000e+00 6.9230770000e+00 0.0000000000e+00 
          0.0000000000e+00 7.6923080000e+00 0.0000000000e+00 
          0.0000000000e+00 8.4615380000e+00 0.0000000000e+00 
          0.0000000000e+00 9.2307690000e+00 0.0000000000e+00 
          0.0000000000e+00 1.0000000000e+01 0.0000000000e+00 
          0.0000000000e+00 1.0769231000e+01 0.0000000000e+00 
          0.0000000000e+00 1.1538462000e+01 0.0000000000e+00 
          0.0000000000e+00 1.2307692000e+01 0.0000000000e+00 
          0.0000000000e+00 1.3076923000e+01 0.0000000000e+00 
          0.0000000000e+00 1.3846154000e+01 0.0000000000e+00 
          0.0000000000e+00 1.4615385000e+01 0.0000000000e+00 
          0.0000000000e+00 1.5384615000e+01 0.0000000000e+00 
          0.0000000000e+00 1.6153846000e+01 0.0000000000e+00 
          0.0000000000e+00 1.6923077000e+01 0.0000000000e+00 
          0.0000000000e+00 1.7692308000e+01 0.0000000000e+00 
          0.0000000000e+00 1.8461538000e+01 0.0000000000e+00 
          0.0000000000e+00 1.9230769000e+01 0.0000000000e+00 
          0.0000000000e+00 2.0000000000e+01 0.0000000000e+00 
          0.0000000000e+00 2.0769231000e+01 0.0000000000e+00 
          0.0000000000e+00 2.1538462000e+01 0.0000000000e+00 
          0.0000000000e+00 2.2307692000e+01 0.0000000000e+00 
          0.0000000000e+00 2.3076923000e+01 0.0000000000e+00 
          0.0000000000e+00 2.3846154000e+01 0.0000000000e+00 
          0.0000000000e+00 2.4615385000e+01 0.0000000000e+00 
          0.0000000000e+00 2.5384615000e+01 0.0000000000e+00 
          0.0000000000e+00 2.6153846000e+01 0.0000000000e+00 
          0.0000000000e+00 2.6923077000e+01 0.0000000000e+00 
          0.0000000000e+00 2.7692308000e+01 0.0000000000e+00 
          0.0000000000e+00 2.8461538000e+01 0.0000000000e+00 
          0.0000000000e+00 2.9230769000e+01 0.0000000000e+00 
        </DataArray>
      </Points>
      <Cells>
        <DataArray type="Int64" Name="connectivity" format="ascii">
          0
          1
          2
          3
          4
          5
          6
          7
          8
          9
          10
          11
          12
          13
          14
          15
          16
          17
          18
          19
          20
          21
          22
          23
          24
          25
          26
          27
          28
          29
          30
          31
          32
          33
          34
          35
          36
          37
          38
          39
          40
          41
          42
          43
          44
          45
          46
          47
          48
          49
          50
          51
          52
          53
          54
          55
          56
          57
          58
          59
          60
          61
          62
          63
          64
          65
          66
          67
          68
          69
          70
          71
          72
          73
          74
          75
          76
          77
          78
          79
          80
          81
        </DataArray>
        <DataArray type="Int64" Name="offsets" format="ascii">
          82
        </DataArray>
        <DataArray type="Int64" Name="types" format="ascii">
          2
        </DataArray>
      </Cells>
      <PointData>
        <DataArray type="Int64" Name="NodeTag" format="ascii">
          1
          2
          3
          4
          5
          6
          7
          8
          9
          10
          11
          12
          13
          14
          15
          16
          17
          18
          19
          20
          21
          22
          23
          24
          25
          26
          27
          28
          29
          30
          31
          32
          33
          34
          35
          36
          37
          38
          39
          40
          41
          42
          43
          44
          45
          46
          47
          48
          49
          50
          51
          52
          53
          54
          55
          56
          57
          58
          59
          60
          61
          62
          63
          64
          65
          66
          67
          68
          69
          70
          71
          72
          73
          74
          75
          76
          77
          78
          79
          80
          81
          82
        </DataArray>
        <DataArray type="Float64" Name="Velocity" NumberOfComponents="3" format="ascii">
          -2.5843134578e-04 -7.7840847896e-05 0.0000000000e+00 
          -2.5843134578e-04 -7.7840847896e-05 0.0000000000e+00 
          -1.0188908485e-03 -7.7787331873e-05 0.0000000000e+00 
          -1.0188908485e-03 -7.7787331873e-05 0.0000000000e+00 
          0.0000000000e+00 0.0000000000e+00 0.0000000000e+00 
          0.0000000000e+00 0.0000000000e+00 0.0000000000e+00 
          -2.9303553392e-04 -7.7860320759e-05 0.0000000000e+00 
          -3.2710540936e-04 -7.7827280636e-05 0.0000000000e+00 
          -3.6062090231e-04 -7.7858440171e-05 0.0000000000e+00 
          -3.9354365167e-04 -7.7855085616e-05 0.0000000000e+00 
          -4.2586064496e-04 -7.7822884497e-05 0.0000000000e+00 
          -4.5754542810e-04 -7.7886233962e-05 0.0000000000e+00 
          -4.8856216230e-04 -7.7814125729e-05 0.0000000000e+00 
          -5.1891130462e-04 -7.7861847661e-05 0.0000000000e+00 
          -5.4854502630e-04 -7.7866130441e-05 0.0000000000e+00 
          -5.7746110096e-04 -7.7814472432e-05 0.0000000000e+00 
          -6.0562801532e-04 -7.7887486941e-05 0.0000000000e+00 
          -6.3302536570e-04 -7.7843451215e-05 0.0000000000e+00 
          -6.5964359693e-04 -7.7818075973e-05 0.0000000000e+00 
          -6.8544110359e-04 -7.7918910857e-05 0.0000000000e+00 
          -7.1042187864e-04 -7.7782541405e-05 0.0000000000e+00 
          -7.3455157742e-04 -7.7897238671e-05 0.0000000000e+00 
          -7.5781559691e-04 -7.7856999893e-05 0.0000000000e+00 
          -7.8019983312e-04 -7.7815477030e-05 0.0000000000e+00 
          -8.0167479977e-04 -7.7908228190e-05 0.0000000000e+00 
          -8.2223584097e-04 -7.7817417592e-05 0.0000000000e+00 
          -8.4185841886e-04 -7.7875297304e-05 0.0000000000e+00 
          -8.6052836188e-04 -7.7851205749e-05 0.0000000000e+00 
          -8.7822384112e-04 -7.7869782735e-05 0.0000000000e+00 
          -8.9493873916e-04 -7.7841671392e-05 0.0000000000e+00 
          -9.1065115037e-04 -7.7869502453e-05 0.0000000000e+00 
          -9.2534472250e-04 -7.7876861415e-05 0.0000000000e+00 
          -9.3901928486e-04 -7.7839474108e-05 0.0000000000e+00 
          -9.5163584767e-04 -7.7868874282e-05 0.0000000000e+00 
          -9.6321017604e-04 -7.7879573103e-05 0.0000000000e+00 
          -9.7371960942e-04 -7.7827517563e-05 0.0000000000e+00 
          -9.8313918768e-04 -7.7914176234e-05 0.0000000000e+00 
          -9.9148951381e-04 -7.7820657765e-05 0.0000000000e+00 
          -9.9873227732e-04 -7.7884916462e-05 0.0000000000e+00 
          -1.0048789740e-03 -7.7872623124e-05 0.0000000000e+00 
          -1.0099204273e-03 -7.7858155878e-05 0.0000000000e+00 
          -1.0138362874e-03 -7.7866660726e-05 0.0000000000e+00 
          -1.0166477954e-03 -7.7852317821e-05 0.0000000000e+00 
          -1.0183308265e-03 -7.7924152223e-05 0.0000000000e+00 
          -2.9303553392e-04 -7.7860320759e-05 0.0000000000e+00 
          -3.2710540936e-04 -7.7827280636e-05 0.0000000000e+00 
          -3.6062090231e-04 -7.7858440171e-05 0.0000000000e+00 
          -3.9354365167e-04 -7.7855085616e-05 0.0000000000e+00 
          -4.2586064496e-04 -7.7822884497e-05 0.0000000000e+00 
          -4.5754542810e-04 -7.7886233962e-05 0.0000000000e+00 
          -4.8856216230e-04 -7.7814125729e-05 0.0000000000e+00 
          -5.1891130462e-04 -7.7861847661e-05 0.0000000000e+00 
          -5.4854502630e-04 -7.7866130441e-05 0.0000000000e+00 
          -5.7746110096e-04 -7.7814472432e-05 0.0000000000e+00 
          -6.0562801532e-04 -7.7887486941e-05 0.0000000000e+00 
          -6.3302536570e-04 -7.7843451215e-05 0.0000000000e+00 
          -6.5964359693e-04 -7.7818075973e-05 0.0000000000e+00 
          -6.8544110359e-04 -7.7918910857e-05 0.0000000000e+00 
          -7.1042187864e-04 -7.7782541405e-05 0.0000000000e+00 
          -7.3455157742e-04 -7.7897238671e-05 0.0000000000e+00 
          -7.5781559691e-04 -7.7856999893e-05 0.0000000000e+00 
          -7.8019983312e-04 -7.7815477030e-05 0.0000000000e+00 
          -8.0167479977e-04 -7.7908228190e-05 0.0000000000e+00 
          -8.2223584097e-04 -7.7817417592e-05 0.0000000000e+00 
          -8.4185841886e-04 -7.7875297304e-05 0.0000000000e+00 
          -8.6052836188e-04 -7.7851205749e-05 0.0000000000e+00 
          -8.7822384112e-04 -7.7869782735e-05 0.0000000000e+00 
          -8.9493873916e-04 -7.7841671392e-05 0.0000000000e+00 
          -9.1065115037e-04 -7.7869502453e-05 0.0000000000e+00 
          -9.2534472250e-04 -7.7876861415e-05 0.0000000000e+00 
          -9.3901928486e-04 -7.7839474108e-05 0.0000000000e+00 
          -9.5163584767e-04 -7.7868874282e-05 0.0000000000e+00 
          -9.6321017604e-04 -7.7879573103e-05 0.0000000000e+00 
          -9.7371960942e-04 -7.7827517563e-05 0.0000000000e+00 
          -9.8313918768e-04 -7.7914176234e-05 0.0000000000e+00 
          -9.9148951381e-04 -7.7820657765e-05 0.0000000000e+00 
          -9.9873227732e-04 -7.7884916462e-05 0.0000000000e+00 
          -1.0048789740e-03 -7.7872623124e-05 0.0000000000e+00 
          -1.0099204273e-03 -7.7858155878e-05 0.0000000000e+00 
          -1.0138362874e-03 -7.7866660726e-05 0.0000000000e+00 
          -1.0166477954e-03 -7.7852317821e-05 0.0000000000e+00 
          -1.0183308265e-03 -7.7924152223e-05 0.0000000000e+00 
        </DataArray>
        <DataArray type="Float64" Name="Displacement" NumberOfComponents="3" format="ascii">
          1.9646239429e-05 -4.6446413620e-04 0.0000000000e+00 
          1.9646239429e-05 -4.6446413620e-04 0.0000000000e+00 
          -9.1732560591e-05 -4.8804438011e-04 0.0000000000e+00 
          -9.1732560591e-05 -4.8804438011e-04 0.0000000000e+00 
          0.0000000000e+00 0.0000000000e+00 0.0000000000e+00 
          0.0000000000e+00 0.0000000000e+00 0.0000000000e+00 
          1.5342901555e-05 -4.6565782598e-04 0.0000000000e+00 
          1.1024680224e-05 -4.6682069526e-04 0.0000000000e+00 
          6.6999520430e-06 -4.6795227695e-04 0.0000000000e+00 
          2.3771551667e-06 -4.6905307577e-04 0.0000000000e+00 
          -1.9354102514e-06 -4.7012281815e-04 0.0000000000e+00 
          -6.2293831847e-06 -4.7116141669e-04 0.0000000000e+00 
          -1.0496505700e-05 -4.7216925600e-04 0.0000000000e+00 
          -1.4728645464e-05 -4.7314586670e-04 0.0000000000e+00 
          -1.8917661653e-05 -4.7409155568e-04 0.0000000000e+00 
          -2.3055613463e-05 -4.7500631864e-04 0.0000000000e+00 
          -2.7134620522e-05 -4.7588988543e-04 0.0000000000e+00 
          -3.1146950376e-05 -4.7674265006e-04 0.0000000000e+00 
          -3.5085062919e-05 -4.7756427234e-04 0.0000000000e+00 
          -3.8941510639e-05 -4.7835494381e-04 0.0000000000e+00 
          -4.2709067107e-05 -4.7911459402e-04 0.0000000000e+00 
          -4.6380672340e-05 -4.7984325190e-04 0.0000000000e+00 
          -4.9949485604e-05 -4.8054088565e-04 0.0000000000e+00 
          -5.3408856583e-05 -4.8120751665e-04 0.0000000000e+00 
          -5.6752365467e-05 -4.8184318481e-04 0.0000000000e+00 
          -5.9973820449e-05 -4.8244778497e-04 0.0000000000e+00 
          -6.3067271402e-05 -4.8302136766e-04 0.0000000000e+00 
          -6.6027034776e-05 -4.8356409708e-04 0.0000000000e+00 
          -6.8847654635e-05 -4.8407553350e-04 0.0000000000e+00 
          -7.1523964799e-05 -4.8455629996e-04 0.0000000000e+00 
          -7.4051084652e-05 -4.8500579941e-04 0.0000000000e+00 
          -7.6424382988e-05 -4.8542438118e-04 0.0000000000e+00 
          -7.8639556923e-05 -4.8581203730e-04 0.0000000000e+00 
          -8.0692564702e-05 -4.8616851840e-04 0.0000000000e+00 
          -8.2579685862e-05 -4.8649415349e-04 0.0000000000e+00 
          -8.4297520550e-05 -4.8678863765e-04 0.0000000000e+00 
          -8.5842920773e-05 -4.8705233088e-04 0.0000000000e+00 
          -8.7213154554e-05 -4.8728469850e-04 0.0000000000e+00 
          -8.8405698776e-05 -4.8748634695e-04 0.0000000000e+00 
          -8.9418421860e-05 -4.8765688444e-04 0.0000000000e+00 
          -9.0249527536e-05 -4.8779637183e-04 0.0000000000e+00 
          -9.0897474161e-05 -4.8790491424e-04 0.0000000000e+00 
          -9.1361141778e-05 -4.8798240098e-04 0.0000000000e+00 
          -9.1639672553e-05 -4.8802899715e-04 0.0000000000e+00 
          1.5342901555e-05 -4.6565782598e-04 0.0000000000e+00 
          1.1024680224e-05 -4.6682069526e-04 0.0000000000e+00 
          6.6999520430e-06 -4.6795227695e-04 0.0000000000e+00 
          2.3771551667e-06 -4.6905307577e-04 0.0000000000e+00 
          -1.9354102514e-06 -4.7012281815e-04 0.0000000000e+00 
          -6.2293831847e-06 -4.7116141669e-04 0.0000000000e+00 
          -1.0496505700e-05 -4.7216925600e-04 0.0000000000e+00 
          -1.4728645464e-05 -4.7314586670e-04 0.0000000000e+00 
          -1.8917661653e-05 -4.7409155568e-04 0.0000000000e+00 
          -2.3055613463e-05 -4.7500631864e-04 0.0000000000e+00 
          -2.7134620522e-05 -4.7588988543e-04 0.0000000000e+00 
          -3.1146950376e-05 -4.7674265006e-04 0.0000000000e+00 
          -3.5085062919e-05 -4.7756427234e-04 0.0000000000e+00 
          -3.8941510639e-05 -4.7835494381e-04 0.0000000000e+00 
          -4.2709067107e-05 -4.7911459402e-04 0.0000000000e+00 
          -4.6380672340e-05 -4.7984325190e-04 0.0000000000e+00 
          -4.9949485604e-05 -4.8054088565e-04 0.0000000000e+00 
          -5.3408856583e-05 -4.8120751665e-04 0.0000000000e+00 
          -5.6752365467e-05 -4.8184318481e-04 0.0000000000e+00 
          -5.9973820449e-05 -4.8244778497e-04 0.0000000000e+00 
          -6.3067271402e-05 -4.8302136766e-04 0.0000000000e+00 
          -6.6027034776e-05 -4.8356409708e-04 0.0000000000e+00 
          -6.8847654635e-05 -4.8407553350e-04 0.0000000000e+00 
          -7.1523964799e-05 -4.8455629996e-04 0.0000000000e+00 
          -7.4051084652e-05 -4.8500579941e-04 0.0000000000e+00 
          -7.6424382988e-05 -4.8542438118e-04 0.0000000000e+00 
          -7.8639556923e-05 -4.8581203730e-04 0.0000000000e+00 
          -8.0692564702e-05 -4.8616851840e-04 0.0000000000e+00 
          -8.2579685862e-05 -4.8649415349e-04 0.0000000000e+00 
          -8.4297520550e-05 -4.8678863765e-04 0.0000000000e+00 
          -8.5842920773e-05 -4.8705233088e-04 0.0000000000e+00 
          -8.7213154554e-05 -4.8728469850e-04 0.0000000000e+00 
          -8.8405698776e-05 -4.8748634695e-04 0.0000000000e+00 
          -8.9418421860e-05 -4.8765688444e-04 0.0000000000e+00 
          -9.0249527536e-05 -4.8779637183e-04 0.0000000000e+00 
          -9.0897474161e-05 -4.8790491424e-04 0.0000000000e+00 
          -9.1361141778e-05 -4.8798240098e-04 0.0000000000e+00 
          -9.1639672553e-05 -4.8802899715e-04 0.0000000000e+00 
        </DataArray>
        <DataArray type="Float64" Name="Acceleration" NumberOfComponents="3" format="ascii">
          -2.0989827211e-03 -8.6231095547e-07 0.0000000000e+00 
          -2.0989827211e-03 -8.6231095547e-07 0.0000000000e+00 
          1.6738791443e-02 -4.3323309580e-05 0.0000000000e+00 
          1.6738791443e-02 -4.3323309580e-05 0.0000000000e+00 
          0.0000000000e+00 0.0000000000e+00 0.0000000000e+00 
          0.0000000000e+00 0.0000000000e+00 0.0000000000e+00 
          -1.3410288255e-03 -3.3488751807e-05 0.0000000000e+00 
          -5.8678693505e-04 5.0420573315e-05 0.0000000000e+00 
          1.7452100286e-04 -3.9999751842e-05 0.0000000000e+00 
          9.2187458531e-04 9.0275756357e-06 0.0000000000e+00 
          1.6752196028e-03 2.4778996225e-05 0.0000000000e+00 
          2.4187774039e-03 -4.4761425077e-05 0.0000000000e+00 
          3.1525169335e-03 4.0293447680e-05 0.0000000000e+00 
          3.8855191598e-03 -1.5248102715e-05 0.0000000000e+00 
          4.6010014892e-03 -1.4474036791e-05 0.0000000000e+00 
          5.3105640933e-03 3.4005989332e-05 0.0000000000e+00 
          6.0082295766e-03 -3.6583776518e-05 0.0000000000e+00 
          6.6871262004e-03 2.4510708349e-05 0.0000000000e+00 
          7.3581619130e-03 -1.0005644936e-05 0.0000000000e+00 
          8.0092773257e-03 2.6890705846e-06 0.0000000000e+00 
          8.6449712550e-03 -2.6926869022e-06 0.0000000000e+00 
          9.2621955977e-03 3.3828061721e-06 0.0000000000e+00 
          9.8609659128e-03 -6.4693358365e-07 0.0000000000e+00 
          1.0439403680e-02 -7.8394299443e-06 0.0000000000e+00 
          1.0996927278e-02 1.0975453885e-05 0.0000000000e+00 
          1.1533800709e-02 2.1495501422e-06 0.0000000000e+00 
          1.2045514897e-02 -2.7582714695e-05 0.0000000000e+00 
          1.2537105484e-02 5.1660002622e-05 0.0000000000e+00 
          1.3002283431e-02 -6.0727011204e-05 0.0000000000e+00 
          1.3442663904e-02 4.7088756468e-05 0.0000000000e+00 
          1.3859622446e-02 -1.5973810392e-05 0.0000000000e+00 
          1.4247320820e-02 -1.4541447790e-05 0.0000000000e+00 
          1.4611490914e-02 3.0398481205e-05 0.0000000000e+00 
          1.4946500614e-02 -2.8964376419e-05 0.0000000000e+00 
          1.5253276405e-02 2.6135518704e-05 0.0000000000e+00 
          1.5536685796e-02 -3.8817222130e-05 0.0000000000e+00 
          1.5782842380e-02 5.7534175386e-05 0.0000000000e+00 
          1.6010050927e-02 -5.1791432054e-05 0.0000000000e+00 
          1.6202389858e-02 1.8902763645e-05 0.0000000000e+00 
          1.6364087076e-02 7.8889970147e-06 0.0000000000e+00 
          1.6502992248e-02 -1.1058273858e-05 0.0000000000e+00 
          1.6603858996e-02 8.8741187982e-06 0.0000000000e+00 
          1.6681260266e-02 -2.0837765524e-05 0.0000000000e+00 
          1.6726777141e-02 3.7278065953e-05 0.0000000000e+00 
          -1.3410288255e-03 -3.3488751807e-05 0.0000000000e+00 
          -5.8678693505e-04 5.0420573315e-05 0.0000000000e+00 
          1.7452100286e-04 -3.9999751842e-05 0.0000000000e+00 
          9.2187458531e-04 9.0275756357e-06 0.0000000000e+00 
          1.6752196028e-03 2.4778996225e-05 0.0000000000e+00 
          2.4187774039e-03 -4.4761425077e-05 0.0000000000e+00 
          3.1525169335e-03 4.0293447680e-05 0.0000000000e+00 
          3.8855191598e-03 -1.5248102715e-05 0.0000000000e+00 
          4.6010014892e-03 -1.4474036791e-05 0.0000000000e+00 
          5.3105640933e-03 3.4005989332e-05 0.0000000000e+00 
          6.0082295766e-03 -3.6583776518e-05 0.0000000000e+00 
          6.6871262004e-03 2.4510708349e-05 0.0000000000e+00 
          7.3581619130e-03 -1.0005644936e-05 0.0000000000e+00 
          8.0092773257e-03 2.6890705846e-06 0.0000000000e+00 
          8.6449712550e-03 -2.6926869022e-06 0.0000000000e+00 
          9.2621955977e-03 3.3828061721e-06 0.0000000000e+00 
          9.8609659128e-03 -6.4693358365e-07 0.0000000000e+00 
          1.0439403680e-02 -7.8394299443e-06 0.0000000000e+00 
          1.0996927278e-02 1.0975453885e-05 0.0000000000e+00 
          1.1533800709e-02 2.1495501422e-06 0.0000000000e+00 
          1.2045514897e-02 -2.7582714695e-05 0.0000000000e+00 
          1.2537105484e-02 5.1660002622e-05 0.0000000000e+00 
          1.3002283431e-02 -6.0727011204e-05 0.0000000000e+00 
          1.3442663904e-02 4.7088756468e-05 0.0000000000e+00 
          1.3859622446e-02 -1.5973810392e-05 0.0000000000e+00 
          1.4247320820e-02 -1.4541447790e-05 0.0000000000e+00 
          1.4611490914e-02 3.0398481205e-05 0.0000000000e+00 
          1.4946500614e-02 -2.8964376419e-05 0.0000000000e+00 
          1.5253276405e-02 2.6135518704e-05 0.0000000000e+00 
          1.5536685796e-02 -3.8817222130e-05 0.0000000000e+00 
          1.5782842380e-02 5.7534175386e-05 0.0000000000e+00 
          1.6010050927e-02 -5.1791432054e-05 0.0000000000e+00 
          1.6202389858e-02 1.8902763645e-05 0.0000000000e+00 
          1.6364087076e-02 7.8889970147e-06 0.0000000000e+00 
          1.6502992248e-02 -1.1058273858e-05 0.0000000000e+00 
          1.6603858996e-02 8.8741187982e-06 0.0000000000e+00 
          1.6681260266e-02 -2.0837765524e-05 0.0000000000e+00 
          1.6726777141e-02 3.7278065953e-05 0.0000000000e+00 
        </DataArray>
        <DataArray type="Float64" Name="Reaction" NumberOfComponents="3" format="ascii">
          0.0000000000e+00 0.0000000000e+00 0.0000000000e+00 
          0.0000000000e+00 0.0000000000e+00 0.0000000000e+00 
          0.0000000000e+00 0.0000000000e+00 0.0000000000e+00 
          0.0000000000e+00 0.0000000000e+00 0.0000000000e+00 
          0.0000000000e+00 0.0000000000e+00 0.0000000000e+00 
          0.0000000000e+00 0.0000000000e+00 0.0000000000e+00 
          0.0000000000e+00 0.0000000000e+00 0.0000000000e+00 
          0.0000000000e+00 0.0000000000e+00 0.0000000000e+00 
          0.0000000000e+00 0.0000000000e+00 0.0000000000e+00 
          0.0000000000e+00 0.0000000000e+00 0.0000000000e+00 
          0.0000000000e+00 0.0000000000e+00 0.0000000000e+00 
          0.0000000000e+00 0.0000000000e+00 0.0000000000e+00 
          0.0000000000e+00 0.0000000000e+00 0.0000000000e+00 
          0.0000000000e+00 0.0000000000e+00 0.0000000000e+00 
          0.0000000000e+00 0.0000000000e+00 0.0000000000e+00 
          0.0000000000e+00 0.0000000000e+00 0.0000000000e+00 
          0.0000000000e+00 0.0000000000e+00 0.0000000000e+00 
          0.0000000000e+00 0.0000000000e+00 0.0000000000e+00 
          0.0000000000e+00 0.0000000000e+00 0.0000000000e+00 
          0.0000000000e+00 0.0000000000e+00 0.0000000000e+00 
          0.0000000000e+00 0.0000000000e+00 0.0000000000e+00 
          0.0000000000e+00 0.0000000000e+00 0.0000000000e+00 
          0.0000000000e+00 0.0000000000e+00 0.0000000000e+00 
          0.0000000000e+00 0.0000000000e+00 0.0000000000e+00 
          0.0000000000e+00 0.0000000000e+00 0.0000000000e+00 
          0.0000000000e+00 0.0000000000e+00 0.0000000000e+00 
          0.0000000000e+00 0.0000000000e+00 0.0000000000e+00 
          0.0000000000e+00 0.0000000000e+00 0.0000000000e+00 
          0.0000000000e+00 0.0000000000e+00 0.0000000000e+00 
          0.0000000000e+00 0.0000000000e+00 0.0000000000e+00 
          0.0000000000e+00 0.0000000000e+00 0.0000000000e+00 
          0.0000000000e+00 0.0000000000e+00 0.0000000000e+00 
          0.0000000000e+00 0.0000000000e+00 0.0000000000e+00 
          0.0000000000e+00 0.0000000000e+00 0.0000000000e+00 
          0.0000000000e+00 0.0000000000e+00 0.0000000000e+00 
          0.0000000000e+00 0.0000000000e+00 0.0000000000e+00 
          0.0000000000e+00 0.0000000000e+00 0.0000000000e+00 
          0.0000000000e+00 0.0000000000e+00 0.0000000000e+00 
          0.0000000000e+00 0.0000000000e+00 0.0000000000e+00 
          0.0000000000e+00 0.0000000000e+00 0.0000000000e+00 
          0.0000000000e+00 0.0000000000e+00 0.0000000000e+00 
          0.0000000000e+00 0.0000000000e+00 0.0000000000e+00 
          0.0000000000e+00 0.0000000000e+00 0.0000000000e+00 
          0.0000000000e+00 0.0000000000e+00 0.0000000000e+00 
          0.0000000000e+00 0.0000000000e+00 0.0000000000e+00 
          0.0000000000e+00 0.0000000000e+00 0.0000000000e+00 
          0.0000000000e+00 0.0000000000e+00 0.0000000000e+00 
          0.0000000000e+00 0.0000000000e+00 0.0000000000e+00 
          0.0000000000e+00 0.0000000000e+00 0.0000000000e+00 
          0.0000000000e+00 0.0000000000e+00 0.0000000000e+00 
          0.0000000000e+00 0.0000000000e+00 0.0000000000e+00 
          0.0000000000e+00 0.0000000000e+00 0.0000000000e+00 
          0.0000000000e+00 0.0000000000e+00 0.0000000000e+00 
          0.0000000000e+00 0.0000000000e+00 0.0000000000e+00 
          0.0000000000e+00 0.0000000000e+00 0.0000000000e+00 
          0.0000000000e+00 0.0000000000e+00 0.0000000000e+00 
          0.0000000000e+00 0.0000000000e+00 0.0000000000e+00 
          0.0000000000e+00 0.0000000000e+00 0.0000000000e+00 
          0.0000000000e+00 0.0000000000e+00 0.0000000000e+00 
          0.0000000000e+00 0.0000000000e+00 0.0000000000e+00 
          0.0000000000e+00 0.0000000000e+00 0.0000000000e+00 
          0.0000000000e+00 0.0000000000e+00 0.0000000000e+00 
          0.0000000000e+00 0.0000000000e+00 0.0000000000e+00 
          0.0000000000e+00 0.0000000000e+00 0.0000000000e+00 
          0.0000000000e+00 0.0000000000e+00 0.0000000000e+00 
          0.0000000000e+00 0.0000000000e+00 0.0000000000e+00 
          0.0000000000e+00 0.0000000000e+00 0.0000000000e+00 
          0.0000000000e+00 0.0000000000e+00 0.0000000000e+00 
          0.0000000000e+00 0.0000000000e+00 0.0000000000e+00 
          0.0000000000e+00 0.0000000000e+00 0.0000000000e+00 
          0.0000000000e+00 0.0000000000e+00 0.0000000000e+00 
          0.0000000000e+00 0.0000000000e+00 0.0000000000e+00 
          0.0000000000e+00 0.0000000000e+00 0.0000000000e+00 
          0.0000000000e+00 0.0000000000e+00 0.0000000000e+00 
          0.0000000000e+00 0.0000000000e+00 0.0000000000e+00 
          0.0000000000e+00 0.0000000000e+00 0.0000000000e+00 
          0.0000000000e+00 0.0000000000e+00 0.0000000000e+00 
          0.0000000000e+00 0.0000000000e+00 0.0000000000e+00 
          0.0000000000e+00 0.0000000000e+00 0.0000000000e+00 
          0.0000000000e+00 0.0000000000e+00 0.0000000000e+00 
          0.0000000000e+00 0.0000000000e+00 0.0000000000e+00 
          0.0000000000e+00 0.0000000000e+00 0.0000000000e+00 
        </DataArray>
      </PointData>
      <CellData>
        <DataArray type="Int64" Name="ElementTag" format="ascii">
          0
        </DataArray>
      </CellData>
    </Piece>
  </UnstructuredGrid>
</VTKFile>
