<?xml version="1.0"?>
<VTKFile type="UnstructuredGrid" version="1.0" byte_order="LittleEndian" compressor="vtkZLibDataCompressor">
  <UnstructuredGrid>
    <Piece NumberOfPoints="82" NumberOfCells="1">
      <Points>
        <DataArray type="Float64" Name="Points" NumberOfComponents="3" format="ascii">
          0.0000000000e+00 0.0000000000e+00 0.0000000000e+00 
          2.5000000000e-01 0.0000000000e+00 0.0000000000e+00 
          2.5000000000e-01 3.0000000000e+01 0.0000000000e+00 
          0.0000000000e+00 3.0000000000e+01 0.0000000000e+00 
          0.0000000000e+00 -5.0000000000e+00 0.0000000000e+00 
          2.5000000000e-01 -5.0000000000e+00 0.0000000000e+00 
          2.5000000000e-01 7.6923100000e-01 0.0000000000e+00 
          2.5000000000e-01 1.5384620000e+00 0.0000000000e+00 
          2.5000000000e-01 2.3076920000e+00 0.0000000000e+00 
          2.5000000000e-01 3.0769230000e+00 0.0000000000e+00 
          2.5000000000e-01 3.8461540000e+00 0.0000000000e+00 
          2.5000000000e-01 4.6153850000e+00 0.0000000000e+00 
          2.5000000000e-01 5.3846150000e+00 0.0000000000e+00 
          2.5000000000e-01 6.1538460000e+00 0.0000000000e+00 
          2.5000000000e-01 6.9230770000e+00 0.0000000000e+00 
          2.5000000000e-01 7.6923080000e+00 0.0000000000e+00 
          2.5000000000e-01 8.4615380000e+00 0.0000000000e+00 
          2.5000000000e-01 9.2307690000e+00 0.0000000000e+00 
          2.5000000000e-01 1.0000000000e+01 0.0000000000e+00 
          2.5000000000e-01 1.0769231000e+01 0.0000000000e+00 
          2.5000000000e-01 1.1538462000e+01 0.0000000000e+00 
          2.5000000000e-01 1.2307692000e+01 0.0000000000e+00 
          2.5000000000e-01 1.3076923000e+01 0.0000000000e+00 
          2.5000000000e-01 1.3846154000e+01 0.0000000000e+00 
          2.5000000000e-01 1.4615385000e+01 0.0000000000e+00 
          2.5000000000e-01 1.5384615000e+01 0.0000000000e+00 
          2.5000000000e-01 1.6153846000e+01 0.0000000000e+00 
          2.5000000000e-01 1.6923077000e+01 0.0000000000e+00 
          2.5000000000e-01 1.7692308000e+01 0.0000000000e+00 
          2.5000000000e-01 1.8461538000e+01 0.0000000000e+00 
          2.5000000000e-01 1.9230769000e+01 0.0000000000e+00 
          2.5000000000e-01 2.0000000000e+01 0.0000000000e+00 
          2.5000000000e-01 2.0769231000e+01 0.0000000000e+00 
          2.5000000000e-01 2.1538462000e+01 0.0000000000e+00 
          2.5000000000e-01 2.2307692000e+01 0.0000000000e+00 
          2.5000000000e-01 2.3076923000e+01 0.0000000000e+00 
          2.5000000000e-01 2.3846154000e+01 0.0000000000e+00 
          2.5000000000e-01 2.4615385000e+01 0.0000000000e+00 
          2.5000000000e-01 2.5384615000e+01 0.0000000000e+00 
          2.5000000000e-01 2.6153846000e+01 0.0000000000e+00 
          2.5000000000e-01 2.6923077000e+01 0.0000000000e+00 
          2.5000000000e-01 2.7692308000e+01 0.0000000000e+00 
          2.5000000000e-01 2.8461538000e+01 0.0000000000e+00 
          2.5000000000e-01 2.9230769000e+01 0.0000000000e+00 
          0.0000000000e+00 7.6923100000e-01 0.0000000000e+00 
          0.0000000000e+00 1.5384620000e+00 0.0000000000e+00 
          0.0000000000e+00 2.3076920000e+00 0.0000000000e+00 
          0.0000000000e+00 3.0769230000e+00 0.0000000000e+00 
          0.0000000000e+00 3.8461540000e+00 0.0000000000e+00 
          0.0000000000e+00 4.6153850000e+00 0.0000000000e+00 
          0.0000000000e+00 5.3846150000e+00 0.0000000000e+00 
          0.0000000000e+00 6.1538460000e+00 0.0000000000e+00 
          0.0000000000e+00 6.9230770000e+00 0.0000000000e+00 
          0.0000000000e+00 7.6923080000e+00 0.0000000000e+00 
          0.0000000000e+00 8.4615380000e+00 0.0000000000e+00 
          0.0000000000e+00 9.2307690000e+00 0.0000000000e+00 
          0.0000000000e+00 1.0000000000e+01 0.0000000000e+00 
          0.0000000000e+00 1.0769231000e+01 0.0000000000e+00 
          0.0000000000e+00 1.1538462000e+01 0.0000000000e+00 
          0.0000000000e+00 1.2307692000e+01 0.0000000000e+00 
          0.0000000000e+00 1.3076923000e+01 0.0000000000e+00 
          0.0000000000e+00 1.3846154000e+01 0.0000000000e+00 
          0.0000000000e+00 1.4615385000e+01 0.0000000000e+00 
          0.0000000000e+00 1.5384615000e+01 0.0000000000e+00 
          0.0000000000e+00 1.6153846000e+01 0.0000000000e+00 
          0.0000000000e+00 1.6923077000e+01 0.0000000000e+00 
          0.0000000000e+00 1.7692308000e+01 0.0000000000e+00 
          0.0000000000e+00 1.8461538000e+01 0.0000000000e+00 
          0.0000000000e+00 1.9230769000e+01 0.0000000000e+00 
          0.0000000000e+00 2.0000000000e+01 0.0000000000e+00 
          0.0000000000e+00 2.0769231000e+01 0.0000000000e+00 
          0.0000000000e+00 2.1538462000e+01 0.0000000000e+00 
          0.0000000000e+00 2.2307692000e+01 0.0000000000e+00 
          0.0000000000e+00 2.3076923000e+01 0.0000000000e+00 
          0.0000000000e+00 2.3846154000e+01 0.0000000000e+00 
          0.0000000000e+00 2.4615385000e+01 0.0000000000e+00 
          0.0000000000e+00 2.5384615000e+01 0.0000000000e+00 
          0.0000000000e+00 2.6153846000e+01 0.0000000000e+00 
          0.0000000000e+00 2.6923077000e+01 0.0000000000e+00 
          0.0000000000e+00 2.7692308000e+01 0.0000000000e+00 
          0.0000000000e+00 2.8461538000e+01 0.0000000000e+00 
          0.0000000000e+00 2.9230769000e+01 0.0000000000e+00 
        </DataArray>
      </Points>
      <Cells>
        <DataArray type="Int64" Name="connectivity" format="ascii">
          0
          1
          2
          3
          4
          5
          6
          7
          8
          9
          10
          11
          12
          13
          14
          15
          16
          17
          18
          19
          20
          21
          22
          23
          24
          25
          26
          27
          28
          29
          30
          31
          32
          33
          34
          35
          36
          37
          38
          39
          40
          41
          42
          43
          44
          45
          46
          47
          48
          49
          50
          51
          52
          53
          54
          55
          56
          57
          58
          59
          60
          61
          62
          63
          64
          65
          66
          67
          68
          69
          70
          71
          72
          73
          74
          75
          76
          77
          78
          79
          80
          81
        </DataArray>
        <DataArray type="Int64" Name="offsets" format="ascii">
          82
        </DataArray>
        <DataArray type="Int64" Name="types" format="ascii">
          2
        </DataArray>
      </Cells>
      <PointData>
        <DataArray type="Int64" Name="NodeTag" format="ascii">
          1
          2
          3
          4
          5
          6
          7
          8
          9
          10
          11
          12
          13
          14
          15
          16
          17
          18
          19
          20
          21
          22
          23
          24
          25
          26
          27
          28
          29
          30
          31
          32
          33
          34
          35
          36
          37
          38
          39
          40
          41
          42
          43
          44
          45
          46
          47
          48
          49
          50
          51
          52
          53
          54
          55
          56
          57
          58
          59
          60
          61
          62
          63
          64
          65
          66
          67
          68
          69
          70
          71
          72
          73
          74
          75
          76
          77
          78
          79
          80
          81
          82
        </DataArray>
        <DataArray type="Float64" Name="Velocity" NumberOfComponents="3" format="ascii">
          1.9870782288e-04 -7.7829625486e-05 0.0000000000e+00 
          1.9870782288e-04 -7.7829625486e-05 0.0000000000e+00 
          5.9367723335e-03 -7.7838098806e-05 0.0000000000e+00 
          5.9367723335e-03 -7.7838098806e-05 0.0000000000e+00 
          0.0000000000e+00 0.0000000000e+00 0.0000000000e+00 
          0.0000000000e+00 0.0000000000e+00 0.0000000000e+00 
          4.3898067588e-04 -7.7811369610e-05 0.0000000000e+00 
          6.7803768157e-04 -7.7834007832e-05 0.0000000000e+00 
          9.1554444866e-04 -7.7851829629e-05 0.0000000000e+00 
          1.1510937361e-03 -7.7797499221e-05 0.0000000000e+00 
          1.3843682755e-03 -7.7823033189e-05 0.0000000000e+00 
          1.6149842100e-03 -7.7840938332e-05 0.0000000000e+00 
          1.8426035031e-03 -7.7825902431e-05 0.0000000000e+00 
          2.0668996648e-03 -7.7792611050e-05 0.0000000000e+00 
          2.2875026900e-03 -7.7824288507e-05 0.0000000000e+00 
          2.5041185476e-03 -7.7857092179e-05 0.0000000000e+00 
          2.7164177806e-03 -7.7774065802e-05 0.0000000000e+00 
          2.9240790628e-03 -7.7845410986e-05 0.0000000000e+00 
          3.1268210729e-03 -7.7799623085e-05 0.0000000000e+00 
          3.3243336825e-03 -7.7860219784e-05 0.0000000000e+00 
          3.5163489109e-03 -7.7751058469e-05 0.0000000000e+00 
          3.7025946256e-03 -7.7886041211e-05 0.0000000000e+00 
          3.8828008593e-03 -7.7797634365e-05 0.0000000000e+00 
          4.0567258101e-03 -7.7821734589e-05 0.0000000000e+00 
          4.2241334546e-03 -7.7850907704e-05 0.0000000000e+00 
          4.3847906908e-03 -7.7789275099e-05 0.0000000000e+00 
          4.5384823347e-03 -7.7857348691e-05 0.0000000000e+00 
          4.6850117673e-03 -7.7781594879e-05 0.0000000000e+00 
          4.8241725376e-03 -7.7880463793e-05 0.0000000000e+00 
          4.9557965229e-03 -7.7771135424e-05 0.0000000000e+00 
          5.0797146828e-03 -7.7853141497e-05 0.0000000000e+00 
          5.1957509333e-03 -7.7860989404e-05 0.0000000000e+00 
          5.3037799461e-03 -7.7737973379e-05 0.0000000000e+00 
          5.4036535638e-03 -7.7918482963e-05 0.0000000000e+00 
          5.4952528884e-03 -7.7795718611e-05 0.0000000000e+00 
          5.5784712596e-03 -7.7796037386e-05 0.0000000000e+00 
          5.6531871388e-03 -7.7878016862e-05 0.0000000000e+00 
          5.7193384771e-03 -7.7773594419e-05 0.0000000000e+00 
          5.7768161631e-03 -7.7861211298e-05 0.0000000000e+00 
          5.8255707659e-03 -7.7837718515e-05 0.0000000000e+00 
          5.8655533851e-03 -7.7781351703e-05 0.0000000000e+00 
          5.8966768926e-03 -7.7849427876e-05 0.0000000000e+00 
          5.9189464470e-03 -7.7822401711e-05 0.0000000000e+00 
          5.9323240509e-03 -7.7809643104e-05 0.0000000000e+00 
          4.3898067588e-04 -7.7811369610e-05 0.0000000000e+00 
          6.7803768157e-04 -7.7834007832e-05 0.0000000000e+00 
          9.1554444866e-04 -7.7851829629e-05 0.0000000000e+00 
          1.1510937361e-03 -7.7797499221e-05 0.0000000000e+00 
          1.3843682755e-03 -7.7823033189e-05 0.0000000000e+00 
          1.6149842100e-03 -7.7840938332e-05 0.0000000000e+00 
          1.8426035031e-03 -7.7825902431e-05 0.0000000000e+00 
          2.0668996648e-03 -7.7792611050e-05 0.0000000000e+00 
          2.2875026900e-03 -7.7824288507e-05 0.0000000000e+00 
          2.5041185476e-03 -7.7857092179e-05 0.0000000000e+00 
          2.7164177806e-03 -7.7774065802e-05 0.0000000000e+00 
          2.9240790628e-03 -7.7845410986e-05 0.0000000000e+00 
          3.1268210729e-03 -7.7799623085e-05 0.0000000000e+00 
          3.3243336825e-03 -7.7860219784e-05 0.0000000000e+00 
          3.5163489109e-03 -7.7751058469e-05 0.0000000000e+00 
          3.7025946256e-03 -7.7886041211e-05 0.0000000000e+00 
          3.8828008593e-03 -7.7797634365e-05 0.0000000000e+00 
          4.0567258101e-03 -7.7821734589e-05 0.0000000000e+00 
          4.2241334546e-03 -7.7850907704e-05 0.0000000000e+00 
          4.3847906908e-03 -7.7789275099e-05 0.0000000000e+00 
          4.5384823347e-03 -7.7857348691e-05 0.0000000000e+00 
          4.6850117673e-03 -7.7781594879e-05 0.0000000000e+00 
          4.8241725376e-03 -7.7880463793e-05 0.0000000000e+00 
          4.9557965229e-03 -7.7771135424e-05 0.0000000000e+00 
          5.0797146828e-03 -7.7853141497e-05 0.0000000000e+00 
          5.1957509333e-03 -7.7860989404e-05 0.0000000000e+00 
          5.3037799461e-03 -7.7737973379e-05 0.0000000000e+00 
          5.4036535638e-03 -7.7918482963e-05 0.0000000000e+00 
          5.4952528884e-03 -7.7795718611e-05 0.0000000000e+00 
          5.5784712596e-03 -7.7796037386e-05 0.0000000000e+00 
          5.6531871388e-03 -7.7878016862e-05 0.0000000000e+00 
          5.7193384771e-03 -7.7773594419e-05 0.0000000000e+00 
          5.7768161631e-03 -7.7861211298e-05 0.0000000000e+00 
          5.8255707659e-03 -7.7837718515e-05 0.0000000000e+00 
          5.8655533851e-03 -7.7781351703e-05 0.0000000000e+00 
          5.8966768926e-03 -7.7849427876e-05 0.0000000000e+00 
          5.9189464470e-03 -7.7822401711e-05 0.0000000000e+00 
          5.9323240509e-03 -7.7809643104e-05 0.0000000000e+00 
        </DataArray>
        <DataArray type="Float64" Name="Displacement" NumberOfComponents="3" format="ascii">
          -1.0122287910e-04 -3.9907524275e-04 0.0000000000e+00 
          -1.0122287910e-04 -3.9907524275e-04 0.0000000000e+00 
          1.6287509152e-05 -4.2265112231e-04 0.0000000000e+00 
          1.6287509152e-05 -4.2265112231e-04 0.0000000000e+00 
          0.0000000000e+00 0.0000000000e+00 0.0000000000e+00 
          0.0000000000e+00 0.0000000000e+00 0.0000000000e+00 
          -9.7842570793e-05 -4.0026875217e-04 0.0000000000e+00 
          -9.4315374301e-05 -4.0143132106e-04 0.0000000000e+00 
          -9.0655452488e-05 -4.0256284004e-04 0.0000000000e+00 
          -8.6877158781e-05 -4.0366336482e-04 0.0000000000e+00 
          -8.2994964292e-05 -4.0473284241e-04 0.0000000000e+00 
          -7.9023456313e-05 -4.0577141437e-04 0.0000000000e+00 
          -7.4977273248e-05 -4.0677885698e-04 0.0000000000e+00 
          -7.0871059431e-05 -4.0775544854e-04 0.0000000000e+00 
          -6.6719497031e-05 -4.0870088760e-04 0.0000000000e+00 
          -6.2537141888e-05 -4.0961544875e-04 0.0000000000e+00 
          -5.8338516366e-05 -4.1049886603e-04 0.0000000000e+00 
          -5.4137995781e-05 -4.1135145857e-04 0.0000000000e+00 
          -4.9949780488e-05 -4.1217288566e-04 0.0000000000e+00 
          -4.5787916904e-05 -4.1296340990e-04 0.0000000000e+00 
          -4.1666148108e-05 -4.1372293926e-04 0.0000000000e+00 
          -3.7598035951e-05 -4.1445133928e-04 0.0000000000e+00 
          -3.3596781552e-05 -4.1514891016e-04 0.0000000000e+00 
          -2.9675283992e-05 -4.1581536560e-04 0.0000000000e+00 
          -2.5846085460e-05 -4.1645099244e-04 0.0000000000e+00 
          -2.2121315663e-05 -4.1705530720e-04 0.0000000000e+00 
          -1.8512731656e-05 -4.1762897125e-04 0.0000000000e+00 
          -1.5031609115e-05 -4.1817147505e-04 0.0000000000e+00 
          -1.1688768745e-05 -4.1868287940e-04 0.0000000000e+00 
          -8.4945507528e-06 -4.1916351984e-04 0.0000000000e+00 
          -5.4587723187e-06 -4.1961291656e-04 0.0000000000e+00 
          -2.5907087604e-06 -4.2003151156e-04 0.0000000000e+00 
          1.0092013831e-07 -4.2041897369e-04 0.0000000000e+00 
          2.6079306079e-06 -4.2077550607e-04 0.0000000000e+00 
          4.9227896655e-06 -4.2110101008e-04 0.0000000000e+00 
          7.0385290493e-06 -4.2139546953e-04 0.0000000000e+00 
          8.9487928977e-06 -4.2165910676e-04 0.0000000000e+00 
          1.0647924214e-05 -4.2189144155e-04 0.0000000000e+00 
          1.2130797603e-05 -4.2209303124e-04 0.0000000000e+00 
          1.3393062131e-05 -4.2226358866e-04 0.0000000000e+00 
          1.4430956932e-05 -4.2240290044e-04 0.0000000000e+00 
          1.5241390052e-05 -4.2251158967e-04 0.0000000000e+00 
          1.5822001073e-05 -4.2258898820e-04 0.0000000000e+00 
          1.6171043654e-05 -4.2263541813e-04 0.0000000000e+00 
          -9.7842570793e-05 -4.0026875217e-04 0.0000000000e+00 
          -9.4315374301e-05 -4.0143132106e-04 0.0000000000e+00 
          -9.0655452488e-05 -4.0256284004e-04 0.0000000000e+00 
          -8.6877158781e-05 -4.0366336482e-04 0.0000000000e+00 
          -8.2994964292e-05 -4.0473284241e-04 0.0000000000e+00 
          -7.9023456313e-05 -4.0577141437e-04 0.0000000000e+00 
          -7.4977273248e-05 -4.0677885698e-04 0.0000000000e+00 
          -7.0871059431e-05 -4.0775544854e-04 0.0000000000e+00 
          -6.6719497031e-05 -4.0870088760e-04 0.0000000000e+00 
          -6.2537141888e-05 -4.0961544875e-04 0.0000000000e+00 
          -5.8338516366e-05 -4.1049886603e-04 0.0000000000e+00 
          -5.4137995781e-05 -4.1135145857e-04 0.0000000000e+00 
          -4.9949780488e-05 -4.1217288566e-04 0.0000000000e+00 
          -4.5787916904e-05 -4.1296340990e-04 0.0000000000e+00 
          -4.1666148108e-05 -4.1372293926e-04 0.0000000000e+00 
          -3.7598035951e-05 -4.1445133928e-04 0.0000000000e+00 
          -3.3596781552e-05 -4.1514891016e-04 0.0000000000e+00 
          -2.9675283992e-05 -4.1581536560e-04 0.0000000000e+00 
          -2.5846085460e-05 -4.1645099244e-04 0.0000000000e+00 
          -2.2121315663e-05 -4.1705530720e-04 0.0000000000e+00 
          -1.8512731656e-05 -4.1762897125e-04 0.0000000000e+00 
          -1.5031609115e-05 -4.1817147505e-04 0.0000000000e+00 
          -1.1688768745e-05 -4.1868287940e-04 0.0000000000e+00 
          -8.4945507528e-06 -4.1916351984e-04 0.0000000000e+00 
          -5.4587723187e-06 -4.1961291656e-04 0.0000000000e+00 
          -2.5907087604e-06 -4.2003151156e-04 0.0000000000e+00 
          1.0092013831e-07 -4.2041897369e-04 0.0000000000e+00 
          2.6079306079e-06 -4.2077550607e-04 0.0000000000e+00 
          4.9227896655e-06 -4.2110101008e-04 0.0000000000e+00 
          7.0385290493e-06 -4.2139546953e-04 0.0000000000e+00 
          8.9487928977e-06 -4.2165910676e-04 0.0000000000e+00 
          1.0647924214e-05 -4.2189144155e-04 0.0000000000e+00 
          1.2130797603e-05 -4.2209303124e-04 0.0000000000e+00 
          1.3393062131e-05 -4.2226358866e-04 0.0000000000e+00 
          1.4430956932e-05 -4.2240290044e-04 0.0000000000e+00 
          1.5241390052e-05 -4.2251158967e-04 0.0000000000e+00 
          1.5822001073e-05 -4.2258898820e-04 0.0000000000e+00 
          1.6171043654e-05 -4.2263541813e-04 0.0000000000e+00 
        </DataArray>
        <DataArray type="Float64" Name="Acceleration" NumberOfComponents="3" format="ascii">
          1.4493527624e-02 1.3109274616e-06 0.0000000000e+00 
          1.4493527624e-02 1.3109274616e-06 0.0000000000e+00 
          -2.0987542692e-02 7.2445876001e-05 0.0000000000e+00 
          -2.0987542692e-02 7.2445876001e-05 0.0000000000e+00 
          0.0000000000e+00 0.0000000000e+00 0.0000000000e+00 
          0.0000000000e+00 0.0000000000e+00 0.0000000000e+00 
          1.3234915544e-02 -1.1859892140e-05 0.0000000000e+00 
          1.1959249965e-02 7.5916078734e-06 0.0000000000e+00 
          1.0665119709e-02 -1.9194430175e-06 0.0000000000e+00 
          9.3616655746e-03 7.3616721621e-06 0.0000000000e+00 
          8.0473219282e-03 -1.8146386523e-05 0.0000000000e+00 
          6.7288509486e-03 2.1934352944e-05 0.0000000000e+00 
          5.4084189428e-03 -2.7744605040e-05 0.0000000000e+00 
          4.0859968713e-03 2.6340259280e-05 0.0000000000e+00 
          2.7744869510e-03 -2.3143364984e-05 0.0000000000e+00 
          1.4664859381e-03 2.4581359302e-05 0.0000000000e+00 
          1.7025732666e-04 -3.2515166163e-05 0.0000000000e+00 
          -1.1087311094e-03 2.8674516782e-05 0.0000000000e+00 
          -2.3743410738e-03 -1.8649975845e-05 0.0000000000e+00 
          -3.6126195311e-03 -2.0654373703e-06 0.0000000000e+00 
          -4.8340957903e-03 2.1999977528e-05 0.0000000000e+00 
          -6.0244963632e-03 -3.1757652768e-05 0.0000000000e+00 
          -7.1862488144e-03 1.9660196868e-05 0.0000000000e+00 
          -8.3163247043e-03 -3.2026740341e-05 0.0000000000e+00 
          -9.4088050278e-03 5.4955249528e-05 0.0000000000e+00 
          -1.0469012256e-02 -6.3937521756e-05 0.0000000000e+00 
          -1.1484529748e-02 2.7733461053e-05 0.0000000000e+00 
          -1.2459496702e-02 1.6780049292e-05 0.0000000000e+00 
          -1.3390804352e-02 -4.3794856166e-05 0.0000000000e+00 
          -1.4276100471e-02 4.2892838668e-05 0.0000000000e+00 
          -1.5111441533e-02 -3.6870566108e-05 0.0000000000e+00 
          -1.5897111251e-02 2.2798626342e-05 0.0000000000e+00 
          -1.6634485056e-02 -1.3799152487e-05 0.0000000000e+00 
          -1.7312961802e-02 3.8967619999e-06 0.0000000000e+00 
          -1.7941358635e-02 6.9690115057e-06 0.0000000000e+00 
          -1.8513751528e-02 -3.3179835341e-05 0.0000000000e+00 
          -1.9023458058e-02 5.3359321223e-05 0.0000000000e+00 
          -1.9485105327e-02 -4.7119261788e-05 0.0000000000e+00 
          -1.9877480741e-02 4.7240343106e-06 0.0000000000e+00 
          -2.0216155408e-02 4.3122967837e-05 0.0000000000e+00 
          -2.0494746642e-02 -6.9159314964e-05 0.0000000000e+00 
          -2.0707370428e-02 5.1227181886e-05 0.0000000000e+00 
          -2.0864855339e-02 -6.7763161058e-06 0.0000000000e+00 
          -2.0955654521e-02 -5.0563734996e-05 0.0000000000e+00 
          1.3234915544e-02 -1.1859892140e-05 0.0000000000e+00 
          1.1959249965e-02 7.5916078734e-06 0.0000000000e+00 
          1.0665119709e-02 -1.9194430175e-06 0.0000000000e+00 
          9.3616655746e-03 7.3616721621e-06 0.0000000000e+00 
          8.0473219282e-03 -1.8146386523e-05 0.0000000000e+00 
          6.7288509486e-03 2.1934352944e-05 0.0000000000e+00 
          5.4084189428e-03 -2.7744605040e-05 0.0000000000e+00 
          4.0859968713e-03 2.6340259280e-05 0.0000000000e+00 
          2.7744869510e-03 -2.3143364984e-05 0.0000000000e+00 
          1.4664859381e-03 2.4581359302e-05 0.0000000000e+00 
          1.7025732666e-04 -3.2515166163e-05 0.0000000000e+00 
          -1.1087311094e-03 2.8674516782e-05 0.0000000000e+00 
          -2.3743410738e-03 -1.8649975845e-05 0.0000000000e+00 
          -3.6126195311e-03 -2.0654373703e-06 0.0000000000e+00 
          -4.8340957903e-03 2.1999977528e-05 0.0000000000e+00 
          -6.0244963632e-03 -3.1757652768e-05 0.0000000000e+00 
          -7.1862488144e-03 1.9660196868e-05 0.0000000000e+00 
          -8.3163247043e-03 -3.2026740341e-05 0.0000000000e+00 
          -9.4088050278e-03 5.4955249528e-05 0.0000000000e+00 
          -1.0469012256e-02 -6.3937521756e-05 0.0000000000e+00 
          -1.1484529748e-02 2.7733461053e-05 0.0000000000e+00 
          -1.2459496702e-02 1.6780049292e-05 0.0000000000e+00 
          -1.3390804352e-02 -4.3794856166e-05 0.0000000000e+00 
          -1.4276100471e-02 4.2892838668e-05 0.0000000000e+00 
          -1.5111441533e-02 -3.6870566108e-05 0.0000000000e+00 
          -1.5897111251e-02 2.2798626342e-05 0.0000000000e+00 
          -1.6634485056e-02 -1.3799152487e-05 0.0000000000e+00 
          -1.7312961802e-02 3.8967619999e-06 0.0000000000e+00 
          -1.7941358635e-02 6.9690115057e-06 0.0000000000e+00 
          -1.8513751528e-02 -3.3179835341e-05 0.0000000000e+00 
          -1.9023458058e-02 5.3359321223e-05 0.0000000000e+00 
          -1.9485105327e-02 -4.7119261788e-05 0.0000000000e+00 
          -1.9877480741e-02 4.7240343106e-06 0.0000000000e+00 
          -2.0216155408e-02 4.3122967837e-05 0.0000000000e+00 
          -2.0494746642e-02 -6.9159314964e-05 0.0000000000e+00 
          -2.0707370428e-02 5.1227181886e-05 0.0000000000e+00 
          -2.0864855339e-02 -6.7763161058e-06 0.0000000000e+00 
          -2.0955654521e-02 -5.0563734996e-05 0.0000000000e+00 
        </DataArray>
        <DataArray type="Float64" Name="Reaction" NumberOfComponents="3" format="ascii">
          0.0000000000e+00 0.0000000000e+00 0.0000000000e+00 
          0.0000000000e+00 0.0000000000e+00 0.0000000000e+00 
          0.0000000000e+00 0.0000000000e+00 0.0000000000e+00 
          0.0000000000e+00 0.0000000000e+00 0.0000000000e+00 
          0.0000000000e+00 0.0000000000e+00 0.0000000000e+00 
          0.0000000000e+00 0.0000000000e+00 0.0000000000e+00 
          0.0000000000e+00 0.0000000000e+00 0.0000000000e+00 
          0.0000000000e+00 0.0000000000e+00 0.0000000000e+00 
          0.0000000000e+00 0.0000000000e+00 0.0000000000e+00 
          0.0000000000e+00 0.0000000000e+00 0.0000000000e+00 
          0.0000000000e+00 0.0000000000e+00 0.0000000000e+00 
          0.0000000000e+00 0.0000000000e+00 0.0000000000e+00 
          0.0000000000e+00 0.0000000000e+00 0.0000000000e+00 
          0.0000000000e+00 0.0000000000e+00 0.0000000000e+00 
          0.0000000000e+00 0.0000000000e+00 0.0000000000e+00 
          0.0000000000e+00 0.0000000000e+00 0.0000000000e+00 
          0.0000000000e+00 0.0000000000e+00 0.0000000000e+00 
          0.0000000000e+00 0.0000000000e+00 0.0000000000e+00 
          0.0000000000e+00 0.0000000000e+00 0.0000000000e+00 
          0.0000000000e+00 0.0000000000e+00 0.0000000000e+00 
          0.0000000000e+00 0.0000000000e+00 0.0000000000e+00 
          0.0000000000e+00 0.0000000000e+00 0.0000000000e+00 
          0.0000000000e+00 0.0000000000e+00 0.0000000000e+00 
          0.0000000000e+00 0.0000000000e+00 0.0000000000e+00 
          0.0000000000e+00 0.0000000000e+00 0.0000000000e+00 
          0.0000000000e+00 0.0000000000e+00 0.0000000000e+00 
          0.0000000000e+00 0.0000000000e+00 0.0000000000e+00 
          0.0000000000e+00 0.0000000000e+00 0.0000000000e+00 
          0.0000000000e+00 0.0000000000e+00 0.0000000000e+00 
          0.0000000000e+00 0.0000000000e+00 0.0000000000e+00 
          0.0000000000e+00 0.0000000000e+00 0.0000000000e+00 
          0.0000000000e+00 0.0000000000e+00 0.0000000000e+00 
          0.0000000000e+00 0.0000000000e+00 0.0000000000e+00 
          0.0000000000e+00 0.0000000000e+00 0.0000000000e+00 
          0.0000000000e+00 0.0000000000e+00 0.0000000000e+00 
          0.0000000000e+00 0.0000000000e+00 0.0000000000e+00 
          0.0000000000e+00 0.0000000000e+00 0.0000000000e+00 
          0.0000000000e+00 0.0000000000e+00 0.0000000000e+00 
          0.0000000000e+00 0.0000000000e+00 0.0000000000e+00 
          0.0000000000e+00 0.0000000000e+00 0.0000000000e+00 
          0.0000000000e+00 0.0000000000e+00 0.0000000000e+00 
          0.0000000000e+00 0.0000000000e+00 0.0000000000e+00 
          0.0000000000e+00 0.0000000000e+00 0.0000000000e+00 
          0.0000000000e+00 0.0000000000e+00 0.0000000000e+00 
          0.0000000000e+00 0.0000000000e+00 0.0000000000e+00 
          0.0000000000e+00 0.0000000000e+00 0.0000000000e+00 
          0.0000000000e+00 0.0000000000e+00 0.0000000000e+00 
          0.0000000000e+00 0.0000000000e+00 0.0000000000e+00 
          0.0000000000e+00 0.0000000000e+00 0.0000000000e+00 
          0.0000000000e+00 0.0000000000e+00 0.0000000000e+00 
          0.0000000000e+00 0.0000000000e+00 0.0000000000e+00 
          0.0000000000e+00 0.0000000000e+00 0.0000000000e+00 
          0.0000000000e+00 0.0000000000e+00 0.0000000000e+00 
          0.0000000000e+00 0.0000000000e+00 0.0000000000e+00 
          0.0000000000e+00 0.0000000000e+00 0.0000000000e+00 
          0.0000000000e+00 0.0000000000e+00 0.0000000000e+00 
          0.0000000000e+00 0.0000000000e+00 0.0000000000e+00 
          0.0000000000e+00 0.0000000000e+00 0.0000000000e+00 
          0.0000000000e+00 0.0000000000e+00 0.0000000000e+00 
          0.0000000000e+00 0.0000000000e+00 0.0000000000e+00 
          0.0000000000e+00 0.0000000000e+00 0.0000000000e+00 
          0.0000000000e+00 0.0000000000e+00 0.0000000000e+00 
          0.0000000000e+00 0.0000000000e+00 0.0000000000e+00 
          0.0000000000e+00 0.0000000000e+00 0.0000000000e+00 
          0.0000000000e+00 0.0000000000e+00 0.0000000000e+00 
          0.0000000000e+00 0.0000000000e+00 0.0000000000e+00 
          0.0000000000e+00 0.0000000000e+00 0.0000000000e+00 
          0.0000000000e+00 0.0000000000e+00 0.0000000000e+00 
          0.0000000000e+00 0.0000000000e+00 0.0000000000e+00 
          0.0000000000e+00 0.0000000000e+00 0.0000000000e+00 
          0.0000000000e+00 0.0000000000e+00 0.0000000000e+00 
          0.0000000000e+00 0.0000000000e+00 0.0000000000e+00 
          0.0000000000e+00 0.0000000000e+00 0.0000000000e+00 
          0.0000000000e+00 0.0000000000e+00 0.0000000000e+00 
          0.0000000000e+00 0.0000000000e+00 0.0000000000e+00 
          0.0000000000e+00 0.0000000000e+00 0.0000000000e+00 
          0.0000000000e+00 0.0000000000e+00 0.0000000000e+00 
          0.0000000000e+00 0.0000000000e+00 0.0000000000e+00 
          0.0000000000e+00 0.0000000000e+00 0.0000000000e+00 
          0.0000000000e+00 0.0000000000e+00 0.0000000000e+00 
          0.0000000000e+00 0.0000000000e+00 0.0000000000e+00 
          0.0000000000e+00 0.0000000000e+00 0.0000000000e+00 
        </DataArray>
      </PointData>
      <CellData>
        <DataArray type="Int64" Name="ElementTag" format="ascii">
          0
        </DataArray>
      </CellData>
    </Piece>
  </UnstructuredGrid>
</VTKFile>
