<?xml version="1.0"?>
<VTKFile type="UnstructuredGrid" version="1.0" byte_order="LittleEndian" compressor="vtkZLibDataCompressor">
  <UnstructuredGrid>
    <Piece NumberOfPoints="80" NumberOfCells="39">
      <Points>
        <DataArray type="Float64" Name="Points" NumberOfComponents="3" format="ascii">
          0.0000000000e+00 0.0000000000e+00 0.0000000000e+00 
          2.5000000000e-01 0.0000000000e+00 0.0000000000e+00 
          2.5000000000e-01 3.0000000000e+01 0.0000000000e+00 
          0.0000000000e+00 3.0000000000e+01 0.0000000000e+00 
          2.5000000000e-01 7.6923100000e-01 0.0000000000e+00 
          2.5000000000e-01 1.5384620000e+00 0.0000000000e+00 
          2.5000000000e-01 2.3076920000e+00 0.0000000000e+00 
          2.5000000000e-01 3.0769230000e+00 0.0000000000e+00 
          2.5000000000e-01 3.8461540000e+00 0.0000000000e+00 
          2.5000000000e-01 4.6153850000e+00 0.0000000000e+00 
          2.5000000000e-01 5.3846150000e+00 0.0000000000e+00 
          2.5000000000e-01 6.1538460000e+00 0.0000000000e+00 
          2.5000000000e-01 6.9230770000e+00 0.0000000000e+00 
          2.5000000000e-01 7.6923080000e+00 0.0000000000e+00 
          2.5000000000e-01 8.4615380000e+00 0.0000000000e+00 
          2.5000000000e-01 9.2307690000e+00 0.0000000000e+00 
          2.5000000000e-01 1.0000000000e+01 0.0000000000e+00 
          2.5000000000e-01 1.0769231000e+01 0.0000000000e+00 
          2.5000000000e-01 1.1538462000e+01 0.0000000000e+00 
          2.5000000000e-01 1.2307692000e+01 0.0000000000e+00 
          2.5000000000e-01 1.3076923000e+01 0.0000000000e+00 
          2.5000000000e-01 1.3846154000e+01 0.0000000000e+00 
          2.5000000000e-01 1.4615385000e+01 0.0000000000e+00 
          2.5000000000e-01 1.5384615000e+01 0.0000000000e+00 
          2.5000000000e-01 1.6153846000e+01 0.0000000000e+00 
          2.5000000000e-01 1.6923077000e+01 0.0000000000e+00 
          2.5000000000e-01 1.7692308000e+01 0.0000000000e+00 
          2.5000000000e-01 1.8461538000e+01 0.0000000000e+00 
          2.5000000000e-01 1.9230769000e+01 0.0000000000e+00 
          2.5000000000e-01 2.0000000000e+01 0.0000000000e+00 
          2.5000000000e-01 2.0769231000e+01 0.0000000000e+00 
          2.5000000000e-01 2.1538462000e+01 0.0000000000e+00 
          2.5000000000e-01 2.2307692000e+01 0.0000000000e+00 
          2.5000000000e-01 2.3076923000e+01 0.0000000000e+00 
          2.5000000000e-01 2.3846154000e+01 0.0000000000e+00 
          2.5000000000e-01 2.4615385000e+01 0.0000000000e+00 
          2.5000000000e-01 2.5384615000e+01 0.0000000000e+00 
          2.5000000000e-01 2.6153846000e+01 0.0000000000e+00 
          2.5000000000e-01 2.6923077000e+01 0.0000000000e+00 
          2.5000000000e-01 2.7692308000e+01 0.0000000000e+00 
          2.5000000000e-01 2.8461538000e+01 0.0000000000e+00 
          2.5000000000e-01 2.9230769000e+01 0.0000000000e+00 
          0.0000000000e+00 7.6923100000e-01 0.0000000000e+00 
          0.0000000000e+00 1.5384620000e+00 0.0000000000e+00 
          0.0000000000e+00 2.3076920000e+00 0.0000000000e+00 
          0.0000000000e+00 3.0769230000e+00 0.0000000000e+00 
          0.0000000000e+00 3.8461540000e+00 0.0000000000e+00 
          0.0000000000e+00 4.6153850000e+00 0.0000000000e+00 
          0.0000000000e+00 5.3846150000e+00 0.0000000000e+00 
          0.0000000000e+00 6.1538460000e+00 0.0000000000e+00 
          0.0000000000e+00 6.9230770000e+00 0.0000000000e+00 
          0.0000000000e+00 7.6923080000e+00 0.0000000000e+00 
          0.0000000000e+00 8.4615380000e+00 0.0000000000e+00 
          0.0000000000e+00 9.2307690000e+00 0.0000000000e+00 
          0.0000000000e+00 1.0000000000e+01 0.0000000000e+00 
          0.0000000000e+00 1.0769231000e+01 0.0000000000e+00 
          0.0000000000e+00 1.1538462000e+01 0.0000000000e+00 
          0.0000000000e+00 1.2307692000e+01 0.0000000000e+00 
          0.0000000000e+00 1.3076923000e+01 0.0000000000e+00 
          0.0000000000e+00 1.3846154000e+01 0.0000000000e+00 
          0.0000000000e+00 1.4615385000e+01 0.0000000000e+00 
          0.0000000000e+00 1.5384615000e+01 0.0000000000e+00 
          0.0000000000e+00 1.6153846000e+01 0.0000000000e+00 
          0.0000000000e+00 1.6923077000e+01 0.0000000000e+00 
          0.0000000000e+00 1.7692308000e+01 0.0000000000e+00 
          0.0000000000e+00 1.8461538000e+01 0.0000000000e+00 
          0.0000000000e+00 1.9230769000e+01 0.0000000000e+00 
          0.0000000000e+00 2.0000000000e+01 0.0000000000e+00 
          0.0000000000e+00 2.0769231000e+01 0.0000000000e+00 
          0.0000000000e+00 2.1538462000e+01 0.0000000000e+00 
          0.0000000000e+00 2.2307692000e+01 0.0000000000e+00 
          0.0000000000e+00 2.3076923000e+01 0.0000000000e+00 
          0.0000000000e+00 2.3846154000e+01 0.0000000000e+00 
          0.0000000000e+00 2.4615385000e+01 0.0000000000e+00 
          0.0000000000e+00 2.5384615000e+01 0.0000000000e+00 
          0.0000000000e+00 2.6153846000e+01 0.0000000000e+00 
          0.0000000000e+00 2.6923077000e+01 0.0000000000e+00 
          0.0000000000e+00 2.7692308000e+01 0.0000000000e+00 
          0.0000000000e+00 2.8461538000e+01 0.0000000000e+00 
          0.0000000000e+00 2.9230769000e+01 0.0000000000e+00 
        </DataArray>
      </Points>
      <Cells>
        <DataArray type="Int64" Name="connectivity" format="ascii">
          0 1 4 42 
          42 4 5 43 
          43 5 6 44 
          44 6 7 45 
          45 7 8 46 
          46 8 9 47 
          47 9 10 48 
          48 10 11 49 
          49 11 12 50 
          50 12 13 51 
          51 13 14 52 
          52 14 15 53 
          53 15 16 54 
          54 16 17 55 
          55 17 18 56 
          56 18 19 57 
          57 19 20 58 
          58 20 21 59 
          59 21 22 60 
          60 22 23 61 
          61 23 24 62 
          62 24 25 63 
          63 25 26 64 
          64 26 27 65 
          65 27 28 66 
          66 28 29 67 
          67 29 30 68 
          68 30 31 69 
          69 31 32 70 
          70 32 33 71 
          71 33 34 72 
          72 34 35 73 
          73 35 36 74 
          74 36 37 75 
          75 37 38 76 
          76 38 39 77 
          77 39 40 78 
          78 40 41 79 
          79 41 2 3 
        </DataArray>
        <DataArray type="Int64" Name="offsets" format="ascii">
          4
          8
          12
          16
          20
          24
          28
          32
          36
          40
          44
          48
          52
          56
          60
          64
          68
          72
          76
          80
          84
          88
          92
          96
          100
          104
          108
          112
          116
          120
          124
          128
          132
          136
          140
          144
          148
          152
          156
        </DataArray>
        <DataArray type="Int64" Name="types" format="ascii">
          9
          9
          9
          9
          9
          9
          9
          9
          9
          9
          9
          9
          9
          9
          9
          9
          9
          9
          9
          9
          9
          9
          9
          9
          9
          9
          9
          9
          9
          9
          9
          9
          9
          9
          9
          9
          9
          9
          9
        </DataArray>
      </Cells>
      <PointData>
        <DataArray type="Int64" Name="NodeTag" format="ascii">
          1
          2
          3
          4
          7
          8
          9
          10
          11
          12
          13
          14
          15
          16
          17
          18
          19
          20
          21
          22
          23
          24
          25
          26
          27
          28
          29
          30
          31
          32
          33
          34
          35
          36
          37
          38
          39
          40
          41
          42
          43
          44
          45
          46
          47
          48
          49
          50
          51
          52
          53
          54
          55
          56
          57
          58
          59
          60
          61
          62
          63
          64
          65
          66
          67
          68
          69
          70
          71
          72
          73
          74
          75
          76
          77
          78
          79
          80
          81
          82
        </DataArray>
        <DataArray type="Float64" Name="Velocity" NumberOfComponents="3" format="ascii">
          -5.7375957369e-05 -7.7844059786e-05 0.0000000000e+00 
          -5.7375957369e-05 -7.7844059786e-05 0.0000000000e+00 
          -1.2941300722e-04 -7.7866554851e-05 0.0000000000e+00 
          -1.2941300722e-04 -7.7866554851e-05 0.0000000000e+00 
          -6.1057902768e-05 -7.7802198145e-05 0.0000000000e+00 
          -6.4644338673e-05 -7.7896798365e-05 0.0000000000e+00 
          -6.8117895335e-05 -7.7814515308e-05 0.0000000000e+00 
          -7.1498479561e-05 -7.7847904228e-05 0.0000000000e+00 
          -7.4775056909e-05 -7.7853292394e-05 0.0000000000e+00 
          -7.7948330498e-05 -7.7839124150e-05 0.0000000000e+00 
          -8.1026728293e-05 -7.7842281895e-05 0.0000000000e+00 
          -8.4000681365e-05 -7.7857215334e-05 0.0000000000e+00 
          -8.6882916526e-05 -7.7826024525e-05 0.0000000000e+00 
          -8.9658742881e-05 -7.7862816153e-05 0.0000000000e+00 
          -9.2346762930e-05 -7.7838475494e-05 0.0000000000e+00 
          -9.4933717858e-05 -7.7838603055e-05 0.0000000000e+00 
          -9.7422929510e-05 -7.7864312416e-05 0.0000000000e+00 
          -9.9826389167e-05 -7.7818335510e-05 0.0000000000e+00 
          -1.0212319808e-04 -7.7878620775e-05 0.0000000000e+00 
          -1.0433786895e-04 -7.7816163419e-05 0.0000000000e+00 
          -1.0645189043e-04 -7.7858447856e-05 0.0000000000e+00 
          -1.0847481994e-04 -7.7852982605e-05 0.0000000000e+00 
          -1.1040680416e-04 -7.7840821532e-05 0.0000000000e+00 
          -1.1224421970e-04 -7.7829392389e-05 0.0000000000e+00 
          -1.1398944299e-04 -7.7884849391e-05 0.0000000000e+00 
          -1.1564321776e-04 -7.7804560496e-05 0.0000000000e+00 
          -1.1720349400e-04 -7.7872394421e-05 0.0000000000e+00 
          -1.1867255522e-04 -7.7844525362e-05 0.0000000000e+00 
          -1.2004744761e-04 -7.7833074836e-05 0.0000000000e+00 
          -1.2132963797e-04 -7.7858304841e-05 0.0000000000e+00 
          -1.2252050068e-04 -7.7845584234e-05 0.0000000000e+00 
          -1.2361457260e-04 -7.7839854022e-05 0.0000000000e+00 
          -1.2461840892e-04 -7.7853037979e-05 0.0000000000e+00 
          -1.2552501211e-04 -7.7851499284e-05 0.0000000000e+00 
          -1.2633850718e-04 -7.7819510223e-05 0.0000000000e+00 
          -1.2705882800e-04 -7.7900033955e-05 0.0000000000e+00 
          -1.2768043120e-04 -7.7779027466e-05 0.0000000000e+00 
          -1.2820959548e-04 -7.7900165760e-05 0.0000000000e+00 
          -1.2864219906e-04 -7.7830426493e-05 0.0000000000e+00 
          -1.2897853764e-04 -7.7826467017e-05 0.0000000000e+00 
          -1.2921940020e-04 -7.7880888775e-05 0.0000000000e+00 
          -1.2936289083e-04 -7.7819886153e-05 0.0000000000e+00 
          -6.1057902768e-05 -7.7802198145e-05 0.0000000000e+00 
          -6.4644338673e-05 -7.7896798365e-05 0.0000000000e+00 
          -6.8117895335e-05 -7.7814515308e-05 0.0000000000e+00 
          -7.1498479561e-05 -7.7847904228e-05 0.0000000000e+00 
          -7.4775056909e-05 -7.7853292394e-05 0.0000000000e+00 
          -7.7948330498e-05 -7.7839124150e-05 0.0000000000e+00 
          -8.1026728293e-05 -7.7842281895e-05 0.0000000000e+00 
          -8.4000681365e-05 -7.7857215334e-05 0.0000000000e+00 
          -8.6882916526e-05 -7.7826024525e-05 0.0000000000e+00 
          -8.9658742881e-05 -7.7862816153e-05 0.0000000000e+00 
          -9.2346762930e-05 -7.7838475494e-05 0.0000000000e+00 
          -9.4933717858e-05 -7.7838603055e-05 0.0000000000e+00 
          -9.7422929510e-05 -7.7864312416e-05 0.0000000000e+00 
          -9.9826389167e-05 -7.7818335510e-05 0.0000000000e+00 
          -1.0212319808e-04 -7.7878620775e-05 0.0000000000e+00 
          -1.0433786895e-04 -7.7816163419e-05 0.0000000000e+00 
          -1.0645189043e-04 -7.7858447856e-05 0.0000000000e+00 
          -1.0847481994e-04 -7.7852982605e-05 0.0000000000e+00 
          -1.1040680416e-04 -7.7840821532e-05 0.0000000000e+00 
          -1.1224421970e-04 -7.7829392389e-05 0.0000000000e+00 
          -1.1398944299e-04 -7.7884849391e-05 0.0000000000e+00 
          -1.1564321776e-04 -7.7804560496e-05 0.0000000000e+00 
          -1.1720349400e-04 -7.7872394421e-05 0.0000000000e+00 
          -1.1867255522e-04 -7.7844525362e-05 0.0000000000e+00 
          -1.2004744761e-04 -7.7833074836e-05 0.0000000000e+00 
          -1.2132963797e-04 -7.7858304841e-05 0.0000000000e+00 
          -1.2252050068e-04 -7.7845584234e-05 0.0000000000e+00 
          -1.2361457260e-04 -7.7839854022e-05 0.0000000000e+00 
          -1.2461840892e-04 -7.7853037979e-05 0.0000000000e+00 
          -1.2552501211e-04 -7.7851499284e-05 0.0000000000e+00 
          -1.2633850718e-04 -7.7819510223e-05 0.0000000000e+00 
          -1.2705882800e-04 -7.7900033955e-05 0.0000000000e+00 
          -1.2768043120e-04 -7.7779027466e-05 0.0000000000e+00 
          -1.2820959548e-04 -7.7900165760e-05 0.0000000000e+00 
          -1.2864219906e-04 -7.7830426493e-05 0.0000000000e+00 
          -1.2897853764e-04 -7.7826467017e-05 0.0000000000e+00 
          -1.2921940020e-04 -7.7880888775e-05 0.0000000000e+00 
          -1.2936289083e-04 -7.7819886153e-05 0.0000000000e+00 
        </DataArray>
        <DataArray type="Float64" Name="Displacement" NumberOfComponents="3" format="ascii">
          2.7469351115e-06 -5.4697942978e-04 0.0000000000e+00 
          2.7469351115e-06 -5.4697942978e-04 0.0000000000e+00 
          -2.1432307315e-05 -5.7055965776e-04 0.0000000000e+00 
          -2.1432307315e-05 -5.7055965776e-04 0.0000000000e+00 
          1.7928627035e-06 -5.4817315953e-04 0.0000000000e+00 
          8.3799625952e-07 -5.4933590042e-04 0.0000000000e+00 
          -1.1595743803e-07 -5.5046762045e-04 0.0000000000e+00 
          -1.0672923294e-06 -5.5156834650e-04 0.0000000000e+00 
          -2.0143509578e-06 -5.5263805493e-04 0.0000000000e+00 
          -2.9554104042e-06 -5.5367675253e-04 0.0000000000e+00 
          -3.8888483233e-06 -5.5468449887e-04 0.0000000000e+00 
          -4.8129993169e-06 -5.5566109242e-04 0.0000000000e+00 
          -5.7262228436e-06 -5.5660693152e-04 0.0000000000e+00 
          -6.6269609941e-06 -5.5752144737e-04 0.0000000000e+00 
          -7.5135706885e-06 -5.5840524726e-04 0.0000000000e+00 
          -8.3845419192e-06 -5.5925787775e-04 0.0000000000e+00 
          -9.2383522027e-06 -5.6007947785e-04 0.0000000000e+00 
          -1.0073468302e-05 -5.6087026997e-04 0.0000000000e+00 
          -1.0888492733e-05 -5.6162976818e-04 0.0000000000e+00 
          -1.1681952861e-05 -5.6235853340e-04 0.0000000000e+00 
          -1.2452490587e-05 -5.6305607967e-04 0.0000000000e+00 
          -1.3198784016e-05 -5.6372278388e-04 0.0000000000e+00 
          -1.3919487017e-05 -5.6435836958e-04 0.0000000000e+00 
          -1.4613408641e-05 -5.6496296139e-04 0.0000000000e+00 
          -1.5279296853e-05 -5.6553667145e-04 0.0000000000e+00 
          -1.5916018646e-05 -5.6607915314e-04 0.0000000000e+00 
          -1.6522485006e-05 -5.6659083608e-04 0.0000000000e+00 
          -1.7097611401e-05 -5.6707142881e-04 0.0000000000e+00 
          -1.7640436270e-05 -5.6752096289e-04 0.0000000000e+00 
          -1.8150003488e-05 -5.6793960657e-04 0.0000000000e+00 
          -1.8625438783e-05 -5.6832714283e-04 0.0000000000e+00 
          -1.9065921105e-05 -5.6868371734e-04 0.0000000000e+00 
          -1.9470685648e-05 -5.6900931059e-04 0.0000000000e+00 
          -1.9839039842e-05 -5.6930383048e-04 0.0000000000e+00 
          -2.0170341386e-05 -5.6956739191e-04 0.0000000000e+00 
          -2.0464031164e-05 -5.6979997020e-04 0.0000000000e+00 
          -2.0719585850e-05 -5.7000145044e-04 0.0000000000e+00 
          -2.0936580001e-05 -5.7017204539e-04 0.0000000000e+00 
          -2.1114629911e-05 -5.7031152862e-04 0.0000000000e+00 
          -2.1253430508e-05 -5.7042004662e-04 0.0000000000e+00 
          -2.1352753308e-05 -5.7049762683e-04 0.0000000000e+00 
          -2.1412404419e-05 -5.7054402306e-04 0.0000000000e+00 
          1.7928627035e-06 -5.4817315953e-04 0.0000000000e+00 
          8.3799625952e-07 -5.4933590042e-04 0.0000000000e+00 
          -1.1595743803e-07 -5.5046762045e-04 0.0000000000e+00 
          -1.0672923294e-06 -5.5156834650e-04 0.0000000000e+00 
          -2.0143509578e-06 -5.5263805493e-04 0.0000000000e+00 
          -2.9554104042e-06 -5.5367675253e-04 0.0000000000e+00 
          -3.8888483233e-06 -5.5468449887e-04 0.0000000000e+00 
          -4.8129993169e-06 -5.5566109242e-04 0.0000000000e+00 
          -5.7262228436e-06 -5.5660693152e-04 0.0000000000e+00 
          -6.6269609941e-06 -5.5752144737e-04 0.0000000000e+00 
          -7.5135706885e-06 -5.5840524726e-04 0.0000000000e+00 
          -8.3845419192e-06 -5.5925787775e-04 0.0000000000e+00 
          -9.2383522027e-06 -5.6007947785e-04 0.0000000000e+00 
          -1.0073468302e-05 -5.6087026997e-04 0.0000000000e+00 
          -1.0888492733e-05 -5.6162976818e-04 0.0000000000e+00 
          -1.1681952861e-05 -5.6235853340e-04 0.0000000000e+00 
          -1.2452490587e-05 -5.6305607967e-04 0.0000000000e+00 
          -1.3198784016e-05 -5.6372278388e-04 0.0000000000e+00 
          -1.3919487017e-05 -5.6435836958e-04 0.0000000000e+00 
          -1.4613408641e-05 -5.6496296139e-04 0.0000000000e+00 
          -1.5279296853e-05 -5.6553667145e-04 0.0000000000e+00 
          -1.5916018646e-05 -5.6607915314e-04 0.0000000000e+00 
          -1.6522485006e-05 -5.6659083608e-04 0.0000000000e+00 
          -1.7097611401e-05 -5.6707142881e-04 0.0000000000e+00 
          -1.7640436270e-05 -5.6752096289e-04 0.0000000000e+00 
          -1.8150003488e-05 -5.6793960657e-04 0.0000000000e+00 
          -1.8625438783e-05 -5.6832714283e-04 0.0000000000e+00 
          -1.9065921105e-05 -5.6868371734e-04 0.0000000000e+00 
          -1.9470685648e-05 -5.6900931059e-04 0.0000000000e+00 
          -1.9839039842e-05 -5.6930383048e-04 0.0000000000e+00 
          -2.0170341386e-05 -5.6956739191e-04 0.0000000000e+00 
          -2.0464031164e-05 -5.6979997020e-04 0.0000000000e+00 
          -2.0719585850e-05 -5.7000145044e-04 0.0000000000e+00 
          -2.0936580001e-05 -5.7017204539e-04 0.0000000000e+00 
          -2.1114629911e-05 -5.7031152862e-04 0.0000000000e+00 
          -2.1253430508e-05 -5.7042004662e-04 0.0000000000e+00 
          -2.1352753308e-05 -5.7049762683e-04 0.0000000000e+00 
          -2.1412404419e-05 -5.7054402306e-04 0.0000000000e+00 
        </DataArray>
        <DataArray type="Float64" Name="Acceleration" NumberOfComponents="3" format="ascii">
          -2.2480269740e-04 2.7115175522e-06 0.0000000000e+00 
          -2.2480269740e-04 2.7115175522e-06 0.0000000000e+00 
          3.5865805716e-03 4.7405753017e-05 0.0000000000e+00 
          3.5865805716e-03 4.7405753017e-05 0.0000000000e+00 
          -7.1544204463e-05 -3.1492075843e-06 0.0000000000e+00 
          8.2128565725e-05 2.3564380227e-06 0.0000000000e+00 
          2.3607150131e-04 -1.9579826581e-06 0.0000000000e+00 
          3.8529974252e-04 2.0320580566e-06 0.0000000000e+00 
          5.4053814139e-04 8.1168265476e-07 0.0000000000e+00 
          6.8660576774e-04 -1.0159139206e-05 0.0000000000e+00 
          8.3688021074e-04 2.6631641898e-05 0.0000000000e+00 
          9.8458634907e-04 -4.5390154293e-05 0.0000000000e+00 
          1.1249570476e-03 5.7107561891e-05 0.0000000000e+00 
          1.2728987785e-03 -5.2530610396e-05 0.0000000000e+00 
          1.4091612295e-03 2.9596363596e-05 0.0000000000e+00 
          1.5462352277e-03 4.3333367604e-06 0.0000000000e+00 
          1.6843828916e-03 -3.5743461938e-05 0.0000000000e+00 
          1.8102990853e-03 5.1821394413e-05 0.0000000000e+00 
          1.9428944932e-03 -4.9426097189e-05 0.0000000000e+00 
          2.0654480385e-03 3.8488966566e-05 0.0000000000e+00 
          2.1844590123e-03 -2.9603419795e-05 0.0000000000e+00 
          2.3057480854e-03 2.0213358386e-05 0.0000000000e+00 
          2.4129752398e-03 -2.3803401015e-06 0.0000000000e+00 
          2.5259488059e-03 -2.2306580906e-05 0.0000000000e+00 
          2.6279518210e-03 4.0011386289e-05 0.0000000000e+00 
          2.7260743098e-03 -3.7406902155e-05 0.0000000000e+00 
          2.8237272888e-03 1.5003662582e-05 0.0000000000e+00 
          2.9105004707e-03 9.5450786374e-06 0.0000000000e+00 
          2.9965800188e-03 -2.0894135256e-05 0.0000000000e+00 
          3.0753536093e-03 1.8216625634e-05 0.0000000000e+00 
          3.1493319787e-03 -8.0349319311e-06 0.0000000000e+00 
          3.2181970954e-03 -4.5906549903e-06 0.0000000000e+00 
          3.2806939415e-03 1.2156447910e-05 0.0000000000e+00 
          3.3385168177e-03 -8.6276224056e-06 0.0000000000e+00 
          3.3888944760e-03 -4.1794683303e-06 0.0000000000e+00 
          3.4360193516e-03 1.6482162113e-05 0.0000000000e+00 
          3.4744126325e-03 -2.1760308839e-05 0.0000000000e+00 
          3.5089529746e-03 1.8989428188e-05 0.0000000000e+00 
          3.5364406303e-03 -7.4088352718e-06 0.0000000000e+00 
          3.5570180428e-03 -1.2364495376e-05 0.0000000000e+00 
          3.5745116165e-03 3.2032436741e-05 0.0000000000e+00 
          3.5813925650e-03 -4.4115552325e-05 0.0000000000e+00 
          -7.1544204463e-05 -3.1492075843e-06 0.0000000000e+00 
          8.2128565725e-05 2.3564380227e-06 0.0000000000e+00 
          2.3607150131e-04 -1.9579826581e-06 0.0000000000e+00 
          3.8529974252e-04 2.0320580566e-06 0.0000000000e+00 
          5.4053814139e-04 8.1168265476e-07 0.0000000000e+00 
          6.8660576774e-04 -1.0159139206e-05 0.0000000000e+00 
          8.3688021074e-04 2.6631641898e-05 0.0000000000e+00 
          9.8458634907e-04 -4.5390154293e-05 0.0000000000e+00 
          1.1249570476e-03 5.7107561891e-05 0.0000000000e+00 
          1.2728987785e-03 -5.2530610396e-05 0.0000000000e+00 
          1.4091612295e-03 2.9596363596e-05 0.0000000000e+00 
          1.5462352277e-03 4.3333367604e-06 0.0000000000e+00 
          1.6843828916e-03 -3.5743461938e-05 0.0000000000e+00 
          1.8102990853e-03 5.1821394413e-05 0.0000000000e+00 
          1.9428944932e-03 -4.9426097189e-05 0.0000000000e+00 
          2.0654480385e-03 3.8488966566e-05 0.0000000000e+00 
          2.1844590123e-03 -2.9603419795e-05 0.0000000000e+00 
          2.3057480854e-03 2.0213358386e-05 0.0000000000e+00 
          2.4129752398e-03 -2.3803401015e-06 0.0000000000e+00 
          2.5259488059e-03 -2.2306580906e-05 0.0000000000e+00 
          2.6279518210e-03 4.0011386289e-05 0.0000000000e+00 
          2.7260743098e-03 -3.7406902155e-05 0.0000000000e+00 
          2.8237272888e-03 1.5003662582e-05 0.0000000000e+00 
          2.9105004707e-03 9.5450786374e-06 0.0000000000e+00 
          2.9965800188e-03 -2.0894135256e-05 0.0000000000e+00 
          3.0753536093e-03 1.8216625634e-05 0.0000000000e+00 
          3.1493319787e-03 -8.0349319311e-06 0.0000000000e+00 
          3.2181970954e-03 -4.5906549903e-06 0.0000000000e+00 
          3.2806939415e-03 1.2156447910e-05 0.0000000000e+00 
          3.3385168177e-03 -8.6276224056e-06 0.0000000000e+00 
          3.3888944760e-03 -4.1794683303e-06 0.0000000000e+00 
          3.4360193516e-03 1.6482162113e-05 0.0000000000e+00 
          3.4744126325e-03 -2.1760308839e-05 0.0000000000e+00 
          3.5089529746e-03 1.8989428188e-05 0.0000000000e+00 
          3.5364406303e-03 -7.4088352718e-06 0.0000000000e+00 
          3.5570180428e-03 -1.2364495376e-05 0.0000000000e+00 
          3.5745116165e-03 3.2032436741e-05 0.0000000000e+00 
          3.5813925650e-03 -4.4115552325e-05 0.0000000000e+00 
        </DataArray>
        <DataArray type="Float64" Name="Reaction" NumberOfComponents="3" format="ascii">
          0.0000000000e+00 0.0000000000e+00 0.0000000000e+00 
          0.0000000000e+00 0.0000000000e+00 0.0000000000e+00 
          0.0000000000e+00 0.0000000000e+00 0.0000000000e+00 
          0.0000000000e+00 0.0000000000e+00 0.0000000000e+00 
          0.0000000000e+00 0.0000000000e+00 0.0000000000e+00 
          0.0000000000e+00 0.0000000000e+00 0.0000000000e+00 
          0.0000000000e+00 0.0000000000e+00 0.0000000000e+00 
          0.0000000000e+00 0.0000000000e+00 0.0000000000e+00 
          0.0000000000e+00 0.0000000000e+00 0.0000000000e+00 
          0.0000000000e+00 0.0000000000e+00 0.0000000000e+00 
          0.0000000000e+00 0.0000000000e+00 0.0000000000e+00 
          0.0000000000e+00 0.0000000000e+00 0.0000000000e+00 
          0.0000000000e+00 0.0000000000e+00 0.0000000000e+00 
          0.0000000000e+00 0.0000000000e+00 0.0000000000e+00 
          0.0000000000e+00 0.0000000000e+00 0.0000000000e+00 
          0.0000000000e+00 0.0000000000e+00 0.0000000000e+00 
          0.0000000000e+00 0.0000000000e+00 0.0000000000e+00 
          0.0000000000e+00 0.0000000000e+00 0.0000000000e+00 
          0.0000000000e+00 0.0000000000e+00 0.0000000000e+00 
          0.0000000000e+00 0.0000000000e+00 0.0000000000e+00 
          0.0000000000e+00 0.0000000000e+00 0.0000000000e+00 
          0.0000000000e+00 0.0000000000e+00 0.0000000000e+00 
          0.0000000000e+00 0.0000000000e+00 0.0000000000e+00 
          0.0000000000e+00 0.0000000000e+00 0.0000000000e+00 
          0.0000000000e+00 0.0000000000e+00 0.0000000000e+00 
          0.0000000000e+00 0.0000000000e+00 0.0000000000e+00 
          0.0000000000e+00 0.0000000000e+00 0.0000000000e+00 
          0.0000000000e+00 0.0000000000e+00 0.0000000000e+00 
          0.0000000000e+00 0.0000000000e+00 0.0000000000e+00 
          0.0000000000e+00 0.0000000000e+00 0.0000000000e+00 
          0.0000000000e+00 0.0000000000e+00 0.0000000000e+00 
          0.0000000000e+00 0.0000000000e+00 0.0000000000e+00 
          0.0000000000e+00 0.0000000000e+00 0.0000000000e+00 
          0.0000000000e+00 0.0000000000e+00 0.0000000000e+00 
          0.0000000000e+00 0.0000000000e+00 0.0000000000e+00 
          0.0000000000e+00 0.0000000000e+00 0.0000000000e+00 
          0.0000000000e+00 0.0000000000e+00 0.0000000000e+00 
          0.0000000000e+00 0.0000000000e+00 0.0000000000e+00 
          0.0000000000e+00 0.0000000000e+00 0.0000000000e+00 
          0.0000000000e+00 0.0000000000e+00 0.0000000000e+00 
          0.0000000000e+00 0.0000000000e+00 0.0000000000e+00 
          0.0000000000e+00 0.0000000000e+00 0.0000000000e+00 
          0.0000000000e+00 0.0000000000e+00 0.0000000000e+00 
          0.0000000000e+00 0.0000000000e+00 0.0000000000e+00 
          0.0000000000e+00 0.0000000000e+00 0.0000000000e+00 
          0.0000000000e+00 0.0000000000e+00 0.0000000000e+00 
          0.0000000000e+00 0.0000000000e+00 0.0000000000e+00 
          0.0000000000e+00 0.0000000000e+00 0.0000000000e+00 
          0.0000000000e+00 0.0000000000e+00 0.0000000000e+00 
          0.0000000000e+00 0.0000000000e+00 0.0000000000e+00 
          0.0000000000e+00 0.0000000000e+00 0.0000000000e+00 
          0.0000000000e+00 0.0000000000e+00 0.0000000000e+00 
          0.0000000000e+00 0.0000000000e+00 0.0000000000e+00 
          0.0000000000e+00 0.0000000000e+00 0.0000000000e+00 
          0.0000000000e+00 0.0000000000e+00 0.0000000000e+00 
          0.0000000000e+00 0.0000000000e+00 0.0000000000e+00 
          0.0000000000e+00 0.0000000000e+00 0.0000000000e+00 
          0.0000000000e+00 0.0000000000e+00 0.0000000000e+00 
          0.0000000000e+00 0.0000000000e+00 0.0000000000e+00 
          0.0000000000e+00 0.0000000000e+00 0.0000000000e+00 
          0.0000000000e+00 0.0000000000e+00 0.0000000000e+00 
          0.0000000000e+00 0.0000000000e+00 0.0000000000e+00 
          0.0000000000e+00 0.0000000000e+00 0.0000000000e+00 
          0.0000000000e+00 0.0000000000e+00 0.0000000000e+00 
          0.0000000000e+00 0.0000000000e+00 0.0000000000e+00 
          0.0000000000e+00 0.0000000000e+00 0.0000000000e+00 
          0.0000000000e+00 0.0000000000e+00 0.0000000000e+00 
          0.0000000000e+00 0.0000000000e+00 0.0000000000e+00 
          0.0000000000e+00 0.0000000000e+00 0.0000000000e+00 
          0.0000000000e+00 0.0000000000e+00 0.0000000000e+00 
          0.0000000000e+00 0.0000000000e+00 0.0000000000e+00 
          0.0000000000e+00 0.0000000000e+00 0.0000000000e+00 
          0.0000000000e+00 0.0000000000e+00 0.0000000000e+00 
          0.0000000000e+00 0.0000000000e+00 0.0000000000e+00 
          0.0000000000e+00 0.0000000000e+00 0.0000000000e+00 
          0.0000000000e+00 0.0000000000e+00 0.0000000000e+00 
          0.0000000000e+00 0.0000000000e+00 0.0000000000e+00 
          0.0000000000e+00 0.0000000000e+00 0.0000000000e+00 
          0.0000000000e+00 0.0000000000e+00 0.0000000000e+00 
          0.0000000000e+00 0.0000000000e+00 0.0000000000e+00 
        </DataArray>
      </PointData>
      <CellData>
        <DataArray type="Int64" Name="ElementTag" format="ascii">
          90
          91
          92
          93
          94
          95
          96
          97
          98
          99
          100
          101
          102
          103
          104
          105
          106
          107
          108
          109
          110
          111
          112
          113
          114
          115
          116
          117
          118
          119
          120
          121
          122
          123
          124
          125
          126
          127
          128
        </DataArray>
      </CellData>
    </Piece>
  </UnstructuredGrid>
</VTKFile>
