<?xml version="1.0"?>
<VTKFile type="UnstructuredGrid" version="1.0" byte_order="LittleEndian" compressor="vtkZLibDataCompressor">
  <UnstructuredGrid>
    <Piece NumberOfPoints="80" NumberOfCells="39">
      <Points>
        <DataArray type="Float64" Name="Points" NumberOfComponents="3" format="ascii">
          0.0000000000e+00 0.0000000000e+00 0.0000000000e+00 
          2.5000000000e-01 0.0000000000e+00 0.0000000000e+00 
          2.5000000000e-01 3.0000000000e+01 0.0000000000e+00 
          0.0000000000e+00 3.0000000000e+01 0.0000000000e+00 
          2.5000000000e-01 7.6923100000e-01 0.0000000000e+00 
          2.5000000000e-01 1.5384620000e+00 0.0000000000e+00 
          2.5000000000e-01 2.3076920000e+00 0.0000000000e+00 
          2.5000000000e-01 3.0769230000e+00 0.0000000000e+00 
          2.5000000000e-01 3.8461540000e+00 0.0000000000e+00 
          2.5000000000e-01 4.6153850000e+00 0.0000000000e+00 
          2.5000000000e-01 5.3846150000e+00 0.0000000000e+00 
          2.5000000000e-01 6.1538460000e+00 0.0000000000e+00 
          2.5000000000e-01 6.9230770000e+00 0.0000000000e+00 
          2.5000000000e-01 7.6923080000e+00 0.0000000000e+00 
          2.5000000000e-01 8.4615380000e+00 0.0000000000e+00 
          2.5000000000e-01 9.2307690000e+00 0.0000000000e+00 
          2.5000000000e-01 1.0000000000e+01 0.0000000000e+00 
          2.5000000000e-01 1.0769231000e+01 0.0000000000e+00 
          2.5000000000e-01 1.1538462000e+01 0.0000000000e+00 
          2.5000000000e-01 1.2307692000e+01 0.0000000000e+00 
          2.5000000000e-01 1.3076923000e+01 0.0000000000e+00 
          2.5000000000e-01 1.3846154000e+01 0.0000000000e+00 
          2.5000000000e-01 1.4615385000e+01 0.0000000000e+00 
          2.5000000000e-01 1.5384615000e+01 0.0000000000e+00 
          2.5000000000e-01 1.6153846000e+01 0.0000000000e+00 
          2.5000000000e-01 1.6923077000e+01 0.0000000000e+00 
          2.5000000000e-01 1.7692308000e+01 0.0000000000e+00 
          2.5000000000e-01 1.8461538000e+01 0.0000000000e+00 
          2.5000000000e-01 1.9230769000e+01 0.0000000000e+00 
          2.5000000000e-01 2.0000000000e+01 0.0000000000e+00 
          2.5000000000e-01 2.0769231000e+01 0.0000000000e+00 
          2.5000000000e-01 2.1538462000e+01 0.0000000000e+00 
          2.5000000000e-01 2.2307692000e+01 0.0000000000e+00 
          2.5000000000e-01 2.3076923000e+01 0.0000000000e+00 
          2.5000000000e-01 2.3846154000e+01 0.0000000000e+00 
          2.5000000000e-01 2.4615385000e+01 0.0000000000e+00 
          2.5000000000e-01 2.5384615000e+01 0.0000000000e+00 
          2.5000000000e-01 2.6153846000e+01 0.0000000000e+00 
          2.5000000000e-01 2.6923077000e+01 0.0000000000e+00 
          2.5000000000e-01 2.7692308000e+01 0.0000000000e+00 
          2.5000000000e-01 2.8461538000e+01 0.0000000000e+00 
          2.5000000000e-01 2.9230769000e+01 0.0000000000e+00 
          0.0000000000e+00 7.6923100000e-01 0.0000000000e+00 
          0.0000000000e+00 1.5384620000e+00 0.0000000000e+00 
          0.0000000000e+00 2.3076920000e+00 0.0000000000e+00 
          0.0000000000e+00 3.0769230000e+00 0.0000000000e+00 
          0.0000000000e+00 3.8461540000e+00 0.0000000000e+00 
          0.0000000000e+00 4.6153850000e+00 0.0000000000e+00 
          0.0000000000e+00 5.3846150000e+00 0.0000000000e+00 
          0.0000000000e+00 6.1538460000e+00 0.0000000000e+00 
          0.0000000000e+00 6.9230770000e+00 0.0000000000e+00 
          0.0000000000e+00 7.6923080000e+00 0.0000000000e+00 
          0.0000000000e+00 8.4615380000e+00 0.0000000000e+00 
          0.0000000000e+00 9.2307690000e+00 0.0000000000e+00 
          0.0000000000e+00 1.0000000000e+01 0.0000000000e+00 
          0.0000000000e+00 1.0769231000e+01 0.0000000000e+00 
          0.0000000000e+00 1.1538462000e+01 0.0000000000e+00 
          0.0000000000e+00 1.2307692000e+01 0.0000000000e+00 
          0.0000000000e+00 1.3076923000e+01 0.0000000000e+00 
          0.0000000000e+00 1.3846154000e+01 0.0000000000e+00 
          0.0000000000e+00 1.4615385000e+01 0.0000000000e+00 
          0.0000000000e+00 1.5384615000e+01 0.0000000000e+00 
          0.0000000000e+00 1.6153846000e+01 0.0000000000e+00 
          0.0000000000e+00 1.6923077000e+01 0.0000000000e+00 
          0.0000000000e+00 1.7692308000e+01 0.0000000000e+00 
          0.0000000000e+00 1.8461538000e+01 0.0000000000e+00 
          0.0000000000e+00 1.9230769000e+01 0.0000000000e+00 
          0.0000000000e+00 2.0000000000e+01 0.0000000000e+00 
          0.0000000000e+00 2.0769231000e+01 0.0000000000e+00 
          0.0000000000e+00 2.1538462000e+01 0.0000000000e+00 
          0.0000000000e+00 2.2307692000e+01 0.0000000000e+00 
          0.0000000000e+00 2.3076923000e+01 0.0000000000e+00 
          0.0000000000e+00 2.3846154000e+01 0.0000000000e+00 
          0.0000000000e+00 2.4615385000e+01 0.0000000000e+00 
          0.0000000000e+00 2.5384615000e+01 0.0000000000e+00 
          0.0000000000e+00 2.6153846000e+01 0.0000000000e+00 
          0.0000000000e+00 2.6923077000e+01 0.0000000000e+00 
          0.0000000000e+00 2.7692308000e+01 0.0000000000e+00 
          0.0000000000e+00 2.8461538000e+01 0.0000000000e+00 
          0.0000000000e+00 2.9230769000e+01 0.0000000000e+00 
        </DataArray>
      </Points>
      <Cells>
        <DataArray type="Int64" Name="connectivity" format="ascii">
          0 1 4 42 
          42 4 5 43 
          43 5 6 44 
          44 6 7 45 
          45 7 8 46 
          46 8 9 47 
          47 9 10 48 
          48 10 11 49 
          49 11 12 50 
          50 12 13 51 
          51 13 14 52 
          52 14 15 53 
          53 15 16 54 
          54 16 17 55 
          55 17 18 56 
          56 18 19 57 
          57 19 20 58 
          58 20 21 59 
          59 21 22 60 
          60 22 23 61 
          61 23 24 62 
          62 24 25 63 
          63 25 26 64 
          64 26 27 65 
          65 27 28 66 
          66 28 29 67 
          67 29 30 68 
          68 30 31 69 
          69 31 32 70 
          70 32 33 71 
          71 33 34 72 
          72 34 35 73 
          73 35 36 74 
          74 36 37 75 
          75 37 38 76 
          76 38 39 77 
          77 39 40 78 
          78 40 41 79 
          79 41 2 3 
        </DataArray>
        <DataArray type="Int64" Name="offsets" format="ascii">
          4
          8
          12
          16
          20
          24
          28
          32
          36
          40
          44
          48
          52
          56
          60
          64
          68
          72
          76
          80
          84
          88
          92
          96
          100
          104
          108
          112
          116
          120
          124
          128
          132
          136
          140
          144
          148
          152
          156
        </DataArray>
        <DataArray type="Int64" Name="types" format="ascii">
          9
          9
          9
          9
          9
          9
          9
          9
          9
          9
          9
          9
          9
          9
          9
          9
          9
          9
          9
          9
          9
          9
          9
          9
          9
          9
          9
          9
          9
          9
          9
          9
          9
          9
          9
          9
          9
          9
          9
        </DataArray>
      </Cells>
      <PointData>
        <DataArray type="Int64" Name="NodeTag" format="ascii">
          1
          2
          3
          4
          7
          8
          9
          10
          11
          12
          13
          14
          15
          16
          17
          18
          19
          20
          21
          22
          23
          24
          25
          26
          27
          28
          29
          30
          31
          32
          33
          34
          35
          36
          37
          38
          39
          40
          41
          42
          43
          44
          45
          46
          47
          48
          49
          50
          51
          52
          53
          54
          55
          56
          57
          58
          59
          60
          61
          62
          63
          64
          65
          66
          67
          68
          69
          70
          71
          72
          73
          74
          75
          76
          77
          78
          79
          80
          81
          82
        </DataArray>
        <DataArray type="Float64" Name="Velocity" NumberOfComponents="3" format="ascii">
          7.9259431172e-03 -7.7794096198e-05 0.0000000000e+00 
          7.9259431172e-03 -7.7794096198e-05 0.0000000000e+00 
          5.2286952586e-02 -7.6932856578e-05 0.0000000000e+00 
          5.2286952586e-02 -7.6932856578e-05 0.0000000000e+00 
          9.8612505567e-03 -7.7839802896e-05 0.0000000000e+00 
          1.1776834805e-02 -7.7681420627e-05 0.0000000000e+00 
          1.3670437578e-02 -7.7668151125e-05 0.0000000000e+00 
          1.5539861538e-02 -7.7732294696e-05 0.0000000000e+00 
          1.7382963224e-02 -7.7550858859e-05 0.0000000000e+00 
          1.9197610878e-02 -7.7649711771e-05 0.0000000000e+00 
          2.0981767178e-02 -7.7560459257e-05 0.0000000000e+00 
          2.2733385739e-02 -7.7465779929e-05 0.0000000000e+00 
          2.4450480710e-02 -7.7458721743e-05 0.0000000000e+00 
          2.6131151926e-02 -7.7469460214e-05 0.0000000000e+00 
          2.7773497221e-02 -7.7430217746e-05 0.0000000000e+00 
          2.9375703896e-02 -7.7367015708e-05 0.0000000000e+00 
          3.0935974374e-02 -7.7348117107e-05 0.0000000000e+00 
          3.2452566765e-02 -7.7327986178e-05 0.0000000000e+00 
          3.3923851904e-02 -7.7277905728e-05 0.0000000000e+00 
          3.5348174353e-02 -7.7261181636e-05 0.0000000000e+00 
          3.6723941448e-02 -7.7251517839e-05 0.0000000000e+00 
          3.8049680276e-02 -7.7204381451e-05 0.0000000000e+00 
          3.9323896407e-02 -7.7193600445e-05 0.0000000000e+00 
          4.0545215677e-02 -7.7124293371e-05 0.0000000000e+00 
          4.1712287059e-02 -7.7144642068e-05 0.0000000000e+00 
          4.2823791613e-02 -7.7034105864e-05 0.0000000000e+00 
          4.3878555143e-02 -7.6948551271e-05 0.0000000000e+00 
          4.4875374718e-02 -7.7160246945e-05 0.0000000000e+00 
          4.5813167801e-02 -7.6848454078e-05 0.0000000000e+00 
          4.6690899023e-02 -7.6983306487e-05 0.0000000000e+00 
          4.7507584903e-02 -7.7116271874e-05 0.0000000000e+00 
          4.8262340255e-02 -7.6818143051e-05 0.0000000000e+00 
          4.8954288471e-02 -7.7059820823e-05 0.0000000000e+00 
          4.9582707057e-02 -7.7008012021e-05 0.0000000000e+00 
          5.0146876521e-02 -7.6918736440e-05 0.0000000000e+00 
          5.0646152862e-02 -7.6969457132e-05 0.0000000000e+00 
          5.1080012591e-02 -7.6955460923e-05 0.0000000000e+00 
          5.1447933597e-02 -7.6977059260e-05 0.0000000000e+00 
          5.1749536418e-02 -7.6952488856e-05 0.0000000000e+00 
          5.1984457614e-02 -7.7003243090e-05 0.0000000000e+00 
          5.2152441119e-02 -7.7049075982e-05 0.0000000000e+00 
          5.2253322654e-02 -7.6987162481e-05 0.0000000000e+00 
          9.8612505567e-03 -7.7839802896e-05 0.0000000000e+00 
          1.1776834805e-02 -7.7681420627e-05 0.0000000000e+00 
          1.3670437578e-02 -7.7668151125e-05 0.0000000000e+00 
          1.5539861538e-02 -7.7732294696e-05 0.0000000000e+00 
          1.7382963224e-02 -7.7550858859e-05 0.0000000000e+00 
          1.9197610878e-02 -7.7649711771e-05 0.0000000000e+00 
          2.0981767178e-02 -7.7560459257e-05 0.0000000000e+00 
          2.2733385739e-02 -7.7465779929e-05 0.0000000000e+00 
          2.4450480710e-02 -7.7458721743e-05 0.0000000000e+00 
          2.6131151926e-02 -7.7469460214e-05 0.0000000000e+00 
          2.7773497221e-02 -7.7430217746e-05 0.0000000000e+00 
          2.9375703896e-02 -7.7367015708e-05 0.0000000000e+00 
          3.0935974374e-02 -7.7348117107e-05 0.0000000000e+00 
          3.2452566765e-02 -7.7327986178e-05 0.0000000000e+00 
          3.3923851904e-02 -7.7277905728e-05 0.0000000000e+00 
          3.5348174353e-02 -7.7261181636e-05 0.0000000000e+00 
          3.6723941448e-02 -7.7251517839e-05 0.0000000000e+00 
          3.8049680276e-02 -7.7204381451e-05 0.0000000000e+00 
          3.9323896407e-02 -7.7193600445e-05 0.0000000000e+00 
          4.0545215677e-02 -7.7124293371e-05 0.0000000000e+00 
          4.1712287059e-02 -7.7144642068e-05 0.0000000000e+00 
          4.2823791613e-02 -7.7034105864e-05 0.0000000000e+00 
          4.3878555143e-02 -7.6948551271e-05 0.0000000000e+00 
          4.4875374718e-02 -7.7160246945e-05 0.0000000000e+00 
          4.5813167801e-02 -7.6848454078e-05 0.0000000000e+00 
          4.6690899023e-02 -7.6983306487e-05 0.0000000000e+00 
          4.7507584903e-02 -7.7116271874e-05 0.0000000000e+00 
          4.8262340255e-02 -7.6818143051e-05 0.0000000000e+00 
          4.8954288471e-02 -7.7059820823e-05 0.0000000000e+00 
          4.9582707057e-02 -7.7008012021e-05 0.0000000000e+00 
          5.0146876521e-02 -7.6918736440e-05 0.0000000000e+00 
          5.0646152862e-02 -7.6969457132e-05 0.0000000000e+00 
          5.1080012591e-02 -7.6955460923e-05 0.0000000000e+00 
          5.1447933597e-02 -7.6977059260e-05 0.0000000000e+00 
          5.1749536418e-02 -7.6952488856e-05 0.0000000000e+00 
          5.1984457614e-02 -7.7003243090e-05 0.0000000000e+00 
          5.2152441119e-02 -7.7049075982e-05 0.0000000000e+00 
          5.2253322654e-02 -7.6987162481e-05 0.0000000000e+00 
        </DataArray>
        <DataArray type="Float64" Name="Displacement" NumberOfComponents="3" format="ascii">
          -9.5425379738e-04 -2.8075985923e-04 0.0000000000e+00 
          -9.5425379738e-04 -2.8075985923e-04 0.0000000000e+00 
          2.5862539314e-03 -3.0430888267e-04 0.0000000000e+00 
          2.5862539314e-03 -3.0430888267e-04 0.0000000000e+00 
          -8.2198047659e-04 -2.8195283103e-04 0.0000000000e+00 
          -6.8869853638e-04 -2.8311434158e-04 0.0000000000e+00 
          -5.5469968320e-04 -2.8424558278e-04 0.0000000000e+00 
          -4.2027537859e-04 -2.8534541231e-04 0.0000000000e+00 
          -2.8571724302e-04 -2.8641429931e-04 0.0000000000e+00 
          -1.5131567337e-04 -2.8745212883e-04 0.0000000000e+00 
          -1.7359713226e-05 -2.8845899637e-04 0.0000000000e+00 
          1.1586434661e-04 -2.8943490350e-04 0.0000000000e+00 
          2.4807258681e-04 -2.9037961344e-04 0.0000000000e+00 
          3.7898454789e-04 -2.9129337191e-04 0.0000000000e+00 
          5.0832364003e-04 -2.9217620224e-04 0.0000000000e+00 
          6.3581829160e-04 -2.9302792138e-04 0.0000000000e+00 
          7.6120137077e-04 -2.9384852510e-04 0.0000000000e+00 
          8.8421159100e-04 -2.9463818872e-04 0.0000000000e+00 
          1.0045937572e-03 -2.9539692983e-04 0.0000000000e+00 
          1.1220989740e-03 -2.9612457918e-04 0.0000000000e+00 
          1.2364857798e-03 -2.9682112796e-04 0.0000000000e+00 
          1.3475197324e-03 -2.9748673514e-04 0.0000000000e+00 
          1.4549743403e-03 -2.9812150834e-04 0.0000000000e+00 
          1.5586312020e-03 -2.9872515124e-04 0.0000000000e+00 
          1.6582808594e-03 -2.9929761481e-04 0.0000000000e+00 
          1.7537223598e-03 -2.9983949972e-04 0.0000000000e+00 
          1.8447641998e-03 -3.0035002616e-04 0.0000000000e+00 
          1.9312241575e-03 -3.0082979772e-04 0.0000000000e+00 
          2.0129302427e-03 -3.0127840687e-04 0.0000000000e+00 
          2.0897200779e-03 -3.0169611551e-04 0.0000000000e+00 
          2.1614416987e-03 -3.0208288450e-04 0.0000000000e+00 
          2.2279536899e-03 -3.0243855713e-04 0.0000000000e+00 
          2.2891251039e-03 -3.0276334771e-04 0.0000000000e+00 
          2.3448361754e-03 -3.0305697316e-04 0.0000000000e+00 
          2.3949778452e-03 -3.0332010255e-04 0.0000000000e+00 
          2.4394522157e-03 -3.0355187289e-04 0.0000000000e+00 
          2.4781727051e-03 -3.0375273754e-04 0.0000000000e+00 
          2.5110641049e-03 -3.0392272277e-04 0.0000000000e+00 
          2.5380625088e-03 -3.0406175348e-04 0.0000000000e+00 
          2.5591156549e-03 -3.0416992421e-04 0.0000000000e+00 
          2.5741827332e-03 -3.0424717333e-04 0.0000000000e+00 
          2.5832346676e-03 -3.0429347019e-04 0.0000000000e+00 
          -8.2198047659e-04 -2.8195283103e-04 0.0000000000e+00 
          -6.8869853638e-04 -2.8311434158e-04 0.0000000000e+00 
          -5.5469968320e-04 -2.8424558278e-04 0.0000000000e+00 
          -4.2027537859e-04 -2.8534541231e-04 0.0000000000e+00 
          -2.8571724302e-04 -2.8641429931e-04 0.0000000000e+00 
          -1.5131567337e-04 -2.8745212883e-04 0.0000000000e+00 
          -1.7359713226e-05 -2.8845899637e-04 0.0000000000e+00 
          1.1586434661e-04 -2.8943490350e-04 0.0000000000e+00 
          2.4807258681e-04 -2.9037961344e-04 0.0000000000e+00 
          3.7898454789e-04 -2.9129337191e-04 0.0000000000e+00 
          5.0832364003e-04 -2.9217620224e-04 0.0000000000e+00 
          6.3581829160e-04 -2.9302792138e-04 0.0000000000e+00 
          7.6120137077e-04 -2.9384852510e-04 0.0000000000e+00 
          8.8421159100e-04 -2.9463818872e-04 0.0000000000e+00 
          1.0045937572e-03 -2.9539692983e-04 0.0000000000e+00 
          1.1220989740e-03 -2.9612457918e-04 0.0000000000e+00 
          1.2364857798e-03 -2.9682112796e-04 0.0000000000e+00 
          1.3475197324e-03 -2.9748673514e-04 0.0000000000e+00 
          1.4549743403e-03 -2.9812150834e-04 0.0000000000e+00 
          1.5586312020e-03 -2.9872515124e-04 0.0000000000e+00 
          1.6582808594e-03 -2.9929761481e-04 0.0000000000e+00 
          1.7537223598e-03 -2.9983949972e-04 0.0000000000e+00 
          1.8447641998e-03 -3.0035002616e-04 0.0000000000e+00 
          1.9312241575e-03 -3.0082979772e-04 0.0000000000e+00 
          2.0129302427e-03 -3.0127840687e-04 0.0000000000e+00 
          2.0897200779e-03 -3.0169611551e-04 0.0000000000e+00 
          2.1614416987e-03 -3.0208288450e-04 0.0000000000e+00 
          2.2279536899e-03 -3.0243855713e-04 0.0000000000e+00 
          2.2891251039e-03 -3.0276334771e-04 0.0000000000e+00 
          2.3448361754e-03 -3.0305697316e-04 0.0000000000e+00 
          2.3949778452e-03 -3.0332010255e-04 0.0000000000e+00 
          2.4394522157e-03 -3.0355187289e-04 0.0000000000e+00 
          2.4781727051e-03 -3.0375273754e-04 0.0000000000e+00 
          2.5110641049e-03 -3.0392272277e-04 0.0000000000e+00 
          2.5380625088e-03 -3.0406175348e-04 0.0000000000e+00 
          2.5591156549e-03 -3.0416992421e-04 0.0000000000e+00 
          2.5741827332e-03 -3.0424717333e-04 0.0000000000e+00 
          2.5832346676e-03 -3.0429347019e-04 0.0000000000e+00 
        </DataArray>
        <DataArray type="Float64" Name="Acceleration" NumberOfComponents="3" format="ascii">
          1.1706329739e-01 -3.8443967637e-06 0.0000000000e+00 
          1.1706329739e-01 -3.8443967637e-06 0.0000000000e+00 
          -5.4408326258e-01 -3.2683014935e-05 0.0000000000e+00 
          -5.4408326258e-01 -3.2683014935e-05 0.0000000000e+00 
          9.0878601409e-02 8.1977434190e-05 0.0000000000e+00 
          6.4611011654e-02 -1.3306960312e-04 0.0000000000e+00 
          3.8318344540e-02 7.3312335009e-05 0.0000000000e+00 
          1.2058432570e-02 -1.1499111464e-05 0.0000000000e+00 
          -1.4106897885e-02 9.2168097525e-06 0.0000000000e+00 
          -4.0134632621e-02 -8.2253172731e-06 0.0000000000e+00 
          -6.5961396642e-02 -8.0387062173e-06 0.0000000000e+00 
          -9.1527354601e-02 3.4393721540e-05 0.0000000000e+00 
          -1.1679730865e-01 -9.8872401068e-06 0.0000000000e+00 
          -1.4170354029e-01 -1.4293239772e-05 0.0000000000e+00 
          -1.6620299618e-01 1.9103483015e-05 0.0000000000e+00 
          -1.9025684266e-01 1.9657337980e-05 0.0000000000e+00 
          -2.1379927603e-01 -1.1935480445e-05 0.0000000000e+00 
          -2.3679285712e-01 -1.5106379802e-05 0.0000000000e+00 
          -2.5920522735e-01 1.5227059382e-05 0.0000000000e+00 
          -2.8098893881e-01 1.7156267116e-05 0.0000000000e+00 
          -3.0209869239e-01 -1.1666518443e-05 0.0000000000e+00 
          -3.2250603032e-01 -3.1061419969e-05 0.0000000000e+00 
          -3.4217251297e-01 2.2202778105e-05 0.0000000000e+00 
          -3.6106939090e-01 3.1318878089e-05 0.0000000000e+00 
          -3.7916325510e-01 -7.7068348623e-05 0.0000000000e+00 
          -3.9641809618e-01 6.3454811530e-05 0.0000000000e+00 
          -4.1282678704e-01 -4.5421774041e-05 0.0000000000e+00 
          -4.2834369880e-01 2.8239530065e-05 0.0000000000e+00 
          -4.4296384088e-01 -1.9069813384e-05 0.0000000000e+00 
          -4.5665611989e-01 -1.2016001210e-05 0.0000000000e+00 
          -4.6939791980e-01 1.6221893886e-05 0.0000000000e+00 
          -4.8118969623e-01 -2.2469248788e-05 0.0000000000e+00 
          -4.9199513530e-01 2.8694026934e-05 0.0000000000e+00 
          -5.0181408411e-01 -9.1953869141e-05 0.0000000000e+00 
          -5.1063486521e-01 6.3560422781e-05 0.0000000000e+00 
          -5.1843184289e-01 -1.8180702845e-05 0.0000000000e+00 
          -5.2521736247e-01 -2.2818497502e-05 0.0000000000e+00 
          -5.3097058049e-01 -9.3394400227e-06 0.0000000000e+00 
          -5.3567945731e-01 -2.6373635564e-05 0.0000000000e+00 
          -5.3935511522e-01 -1.5281607037e-05 0.0000000000e+00 
          -5.4197846952e-01 -9.7244407070e-06 0.0000000000e+00 
          -5.4355552983e-01 -2.1977698934e-05 0.0000000000e+00 
          9.0878601409e-02 8.1977434190e-05 0.0000000000e+00 
          6.4611011654e-02 -1.3306960312e-04 0.0000000000e+00 
          3.8318344540e-02 7.3312335009e-05 0.0000000000e+00 
          1.2058432570e-02 -1.1499111464e-05 0.0000000000e+00 
          -1.4106897885e-02 9.2168097525e-06 0.0000000000e+00 
          -4.0134632621e-02 -8.2253172731e-06 0.0000000000e+00 
          -6.5961396642e-02 -8.0387062173e-06 0.0000000000e+00 
          -9.1527354601e-02 3.4393721540e-05 0.0000000000e+00 
          -1.1679730865e-01 -9.8872401068e-06 0.0000000000e+00 
          -1.4170354029e-01 -1.4293239772e-05 0.0000000000e+00 
          -1.6620299618e-01 1.9103483015e-05 0.0000000000e+00 
          -1.9025684266e-01 1.9657337980e-05 0.0000000000e+00 
          -2.1379927603e-01 -1.1935480445e-05 0.0000000000e+00 
          -2.3679285712e-01 -1.5106379802e-05 0.0000000000e+00 
          -2.5920522735e-01 1.5227059382e-05 0.0000000000e+00 
          -2.8098893881e-01 1.7156267116e-05 0.0000000000e+00 
          -3.0209869239e-01 -1.1666518443e-05 0.0000000000e+00 
          -3.2250603032e-01 -3.1061419969e-05 0.0000000000e+00 
          -3.4217251297e-01 2.2202778105e-05 0.0000000000e+00 
          -3.6106939090e-01 3.1318878089e-05 0.0000000000e+00 
          -3.7916325510e-01 -7.7068348623e-05 0.0000000000e+00 
          -3.9641809618e-01 6.3454811530e-05 0.0000000000e+00 
          -4.1282678704e-01 -4.5421774041e-05 0.0000000000e+00 
          -4.2834369880e-01 2.8239530065e-05 0.0000000000e+00 
          -4.4296384088e-01 -1.9069813384e-05 0.0000000000e+00 
          -4.5665611989e-01 -1.2016001210e-05 0.0000000000e+00 
          -4.6939791980e-01 1.6221893886e-05 0.0000000000e+00 
          -4.8118969623e-01 -2.2469248788e-05 0.0000000000e+00 
          -4.9199513530e-01 2.8694026934e-05 0.0000000000e+00 
          -5.0181408411e-01 -9.1953869141e-05 0.0000000000e+00 
          -5.1063486521e-01 6.3560422781e-05 0.0000000000e+00 
          -5.1843184289e-01 -1.8180702845e-05 0.0000000000e+00 
          -5.2521736247e-01 -2.2818497502e-05 0.0000000000e+00 
          -5.3097058049e-01 -9.3394400227e-06 0.0000000000e+00 
          -5.3567945731e-01 -2.6373635564e-05 0.0000000000e+00 
          -5.3935511522e-01 -1.5281607037e-05 0.0000000000e+00 
          -5.4197846952e-01 -9.7244407070e-06 0.0000000000e+00 
          -5.4355552983e-01 -2.1977698934e-05 0.0000000000e+00 
        </DataArray>
        <DataArray type="Float64" Name="Reaction" NumberOfComponents="3" format="ascii">
          0.0000000000e+00 0.0000000000e+00 0.0000000000e+00 
          0.0000000000e+00 0.0000000000e+00 0.0000000000e+00 
          0.0000000000e+00 0.0000000000e+00 0.0000000000e+00 
          0.0000000000e+00 0.0000000000e+00 0.0000000000e+00 
          0.0000000000e+00 0.0000000000e+00 0.0000000000e+00 
          0.0000000000e+00 0.0000000000e+00 0.0000000000e+00 
          0.0000000000e+00 0.0000000000e+00 0.0000000000e+00 
          0.0000000000e+00 0.0000000000e+00 0.0000000000e+00 
          0.0000000000e+00 0.0000000000e+00 0.0000000000e+00 
          0.0000000000e+00 0.0000000000e+00 0.0000000000e+00 
          0.0000000000e+00 0.0000000000e+00 0.0000000000e+00 
          0.0000000000e+00 0.0000000000e+00 0.0000000000e+00 
          0.0000000000e+00 0.0000000000e+00 0.0000000000e+00 
          0.0000000000e+00 0.0000000000e+00 0.0000000000e+00 
          0.0000000000e+00 0.0000000000e+00 0.0000000000e+00 
          0.0000000000e+00 0.0000000000e+00 0.0000000000e+00 
          0.0000000000e+00 0.0000000000e+00 0.0000000000e+00 
          0.0000000000e+00 0.0000000000e+00 0.0000000000e+00 
          0.0000000000e+00 0.0000000000e+00 0.0000000000e+00 
          0.0000000000e+00 0.0000000000e+00 0.0000000000e+00 
          0.0000000000e+00 0.0000000000e+00 0.0000000000e+00 
          0.0000000000e+00 0.0000000000e+00 0.0000000000e+00 
          0.0000000000e+00 0.0000000000e+00 0.0000000000e+00 
          0.0000000000e+00 0.0000000000e+00 0.0000000000e+00 
          0.0000000000e+00 0.0000000000e+00 0.0000000000e+00 
          0.0000000000e+00 0.0000000000e+00 0.0000000000e+00 
          0.0000000000e+00 0.0000000000e+00 0.0000000000e+00 
          0.0000000000e+00 0.0000000000e+00 0.0000000000e+00 
          0.0000000000e+00 0.0000000000e+00 0.0000000000e+00 
          0.0000000000e+00 0.0000000000e+00 0.0000000000e+00 
          0.0000000000e+00 0.0000000000e+00 0.0000000000e+00 
          0.0000000000e+00 0.0000000000e+00 0.0000000000e+00 
          0.0000000000e+00 0.0000000000e+00 0.0000000000e+00 
          0.0000000000e+00 0.0000000000e+00 0.0000000000e+00 
          0.0000000000e+00 0.0000000000e+00 0.0000000000e+00 
          0.0000000000e+00 0.0000000000e+00 0.0000000000e+00 
          0.0000000000e+00 0.0000000000e+00 0.0000000000e+00 
          0.0000000000e+00 0.0000000000e+00 0.0000000000e+00 
          0.0000000000e+00 0.0000000000e+00 0.0000000000e+00 
          0.0000000000e+00 0.0000000000e+00 0.0000000000e+00 
          0.0000000000e+00 0.0000000000e+00 0.0000000000e+00 
          0.0000000000e+00 0.0000000000e+00 0.0000000000e+00 
          0.0000000000e+00 0.0000000000e+00 0.0000000000e+00 
          0.0000000000e+00 0.0000000000e+00 0.0000000000e+00 
          0.0000000000e+00 0.0000000000e+00 0.0000000000e+00 
          0.0000000000e+00 0.0000000000e+00 0.0000000000e+00 
          0.0000000000e+00 0.0000000000e+00 0.0000000000e+00 
          0.0000000000e+00 0.0000000000e+00 0.0000000000e+00 
          0.0000000000e+00 0.0000000000e+00 0.0000000000e+00 
          0.0000000000e+00 0.0000000000e+00 0.0000000000e+00 
          0.0000000000e+00 0.0000000000e+00 0.0000000000e+00 
          0.0000000000e+00 0.0000000000e+00 0.0000000000e+00 
          0.0000000000e+00 0.0000000000e+00 0.0000000000e+00 
          0.0000000000e+00 0.0000000000e+00 0.0000000000e+00 
          0.0000000000e+00 0.0000000000e+00 0.0000000000e+00 
          0.0000000000e+00 0.0000000000e+00 0.0000000000e+00 
          0.0000000000e+00 0.0000000000e+00 0.0000000000e+00 
          0.0000000000e+00 0.0000000000e+00 0.0000000000e+00 
          0.0000000000e+00 0.0000000000e+00 0.0000000000e+00 
          0.0000000000e+00 0.0000000000e+00 0.0000000000e+00 
          0.0000000000e+00 0.0000000000e+00 0.0000000000e+00 
          0.0000000000e+00 0.0000000000e+00 0.0000000000e+00 
          0.0000000000e+00 0.0000000000e+00 0.0000000000e+00 
          0.0000000000e+00 0.0000000000e+00 0.0000000000e+00 
          0.0000000000e+00 0.0000000000e+00 0.0000000000e+00 
          0.0000000000e+00 0.0000000000e+00 0.0000000000e+00 
          0.0000000000e+00 0.0000000000e+00 0.0000000000e+00 
          0.0000000000e+00 0.0000000000e+00 0.0000000000e+00 
          0.0000000000e+00 0.0000000000e+00 0.0000000000e+00 
          0.0000000000e+00 0.0000000000e+00 0.0000000000e+00 
          0.0000000000e+00 0.0000000000e+00 0.0000000000e+00 
          0.0000000000e+00 0.0000000000e+00 0.0000000000e+00 
          0.0000000000e+00 0.0000000000e+00 0.0000000000e+00 
          0.0000000000e+00 0.0000000000e+00 0.0000000000e+00 
          0.0000000000e+00 0.0000000000e+00 0.0000000000e+00 
          0.0000000000e+00 0.0000000000e+00 0.0000000000e+00 
          0.0000000000e+00 0.0000000000e+00 0.0000000000e+00 
          0.0000000000e+00 0.0000000000e+00 0.0000000000e+00 
          0.0000000000e+00 0.0000000000e+00 0.0000000000e+00 
          0.0000000000e+00 0.0000000000e+00 0.0000000000e+00 
        </DataArray>
      </PointData>
      <CellData>
        <DataArray type="Int64" Name="ElementTag" format="ascii">
          90
          91
          92
          93
          94
          95
          96
          97
          98
          99
          100
          101
          102
          103
          104
          105
          106
          107
          108
          109
          110
          111
          112
          113
          114
          115
          116
          117
          118
          119
          120
          121
          122
          123
          124
          125
          126
          127
          128
        </DataArray>
      </CellData>
    </Piece>
  </UnstructuredGrid>
</VTKFile>
