<?xml version="1.0"?>
<VTKFile type="UnstructuredGrid" version="1.0" byte_order="LittleEndian" compressor="vtkZLibDataCompressor">
  <UnstructuredGrid>
    <Piece NumberOfPoints="80" NumberOfCells="39">
      <Points>
        <DataArray type="Float64" Name="Points" NumberOfComponents="3" format="ascii">
          0.0000000000e+00 0.0000000000e+00 0.0000000000e+00 
          2.5000000000e-01 0.0000000000e+00 0.0000000000e+00 
          2.5000000000e-01 3.0000000000e+01 0.0000000000e+00 
          0.0000000000e+00 3.0000000000e+01 0.0000000000e+00 
          2.5000000000e-01 7.6923100000e-01 0.0000000000e+00 
          2.5000000000e-01 1.5384620000e+00 0.0000000000e+00 
          2.5000000000e-01 2.3076920000e+00 0.0000000000e+00 
          2.5000000000e-01 3.0769230000e+00 0.0000000000e+00 
          2.5000000000e-01 3.8461540000e+00 0.0000000000e+00 
          2.5000000000e-01 4.6153850000e+00 0.0000000000e+00 
          2.5000000000e-01 5.3846150000e+00 0.0000000000e+00 
          2.5000000000e-01 6.1538460000e+00 0.0000000000e+00 
          2.5000000000e-01 6.9230770000e+00 0.0000000000e+00 
          2.5000000000e-01 7.6923080000e+00 0.0000000000e+00 
          2.5000000000e-01 8.4615380000e+00 0.0000000000e+00 
          2.5000000000e-01 9.2307690000e+00 0.0000000000e+00 
          2.5000000000e-01 1.0000000000e+01 0.0000000000e+00 
          2.5000000000e-01 1.0769231000e+01 0.0000000000e+00 
          2.5000000000e-01 1.1538462000e+01 0.0000000000e+00 
          2.5000000000e-01 1.2307692000e+01 0.0000000000e+00 
          2.5000000000e-01 1.3076923000e+01 0.0000000000e+00 
          2.5000000000e-01 1.3846154000e+01 0.0000000000e+00 
          2.5000000000e-01 1.4615385000e+01 0.0000000000e+00 
          2.5000000000e-01 1.5384615000e+01 0.0000000000e+00 
          2.5000000000e-01 1.6153846000e+01 0.0000000000e+00 
          2.5000000000e-01 1.6923077000e+01 0.0000000000e+00 
          2.5000000000e-01 1.7692308000e+01 0.0000000000e+00 
          2.5000000000e-01 1.8461538000e+01 0.0000000000e+00 
          2.5000000000e-01 1.9230769000e+01 0.0000000000e+00 
          2.5000000000e-01 2.0000000000e+01 0.0000000000e+00 
          2.5000000000e-01 2.0769231000e+01 0.0000000000e+00 
          2.5000000000e-01 2.1538462000e+01 0.0000000000e+00 
          2.5000000000e-01 2.2307692000e+01 0.0000000000e+00 
          2.5000000000e-01 2.3076923000e+01 0.0000000000e+00 
          2.5000000000e-01 2.3846154000e+01 0.0000000000e+00 
          2.5000000000e-01 2.4615385000e+01 0.0000000000e+00 
          2.5000000000e-01 2.5384615000e+01 0.0000000000e+00 
          2.5000000000e-01 2.6153846000e+01 0.0000000000e+00 
          2.5000000000e-01 2.6923077000e+01 0.0000000000e+00 
          2.5000000000e-01 2.7692308000e+01 0.0000000000e+00 
          2.5000000000e-01 2.8461538000e+01 0.0000000000e+00 
          2.5000000000e-01 2.9230769000e+01 0.0000000000e+00 
          0.0000000000e+00 7.6923100000e-01 0.0000000000e+00 
          0.0000000000e+00 1.5384620000e+00 0.0000000000e+00 
          0.0000000000e+00 2.3076920000e+00 0.0000000000e+00 
          0.0000000000e+00 3.0769230000e+00 0.0000000000e+00 
          0.0000000000e+00 3.8461540000e+00 0.0000000000e+00 
          0.0000000000e+00 4.6153850000e+00 0.0000000000e+00 
          0.0000000000e+00 5.3846150000e+00 0.0000000000e+00 
          0.0000000000e+00 6.1538460000e+00 0.0000000000e+00 
          0.0000000000e+00 6.9230770000e+00 0.0000000000e+00 
          0.0000000000e+00 7.6923080000e+00 0.0000000000e+00 
          0.0000000000e+00 8.4615380000e+00 0.0000000000e+00 
          0.0000000000e+00 9.2307690000e+00 0.0000000000e+00 
          0.0000000000e+00 1.0000000000e+01 0.0000000000e+00 
          0.0000000000e+00 1.0769231000e+01 0.0000000000e+00 
          0.0000000000e+00 1.1538462000e+01 0.0000000000e+00 
          0.0000000000e+00 1.2307692000e+01 0.0000000000e+00 
          0.0000000000e+00 1.3076923000e+01 0.0000000000e+00 
          0.0000000000e+00 1.3846154000e+01 0.0000000000e+00 
          0.0000000000e+00 1.4615385000e+01 0.0000000000e+00 
          0.0000000000e+00 1.5384615000e+01 0.0000000000e+00 
          0.0000000000e+00 1.6153846000e+01 0.0000000000e+00 
          0.0000000000e+00 1.6923077000e+01 0.0000000000e+00 
          0.0000000000e+00 1.7692308000e+01 0.0000000000e+00 
          0.0000000000e+00 1.8461538000e+01 0.0000000000e+00 
          0.0000000000e+00 1.9230769000e+01 0.0000000000e+00 
          0.0000000000e+00 2.0000000000e+01 0.0000000000e+00 
          0.0000000000e+00 2.0769231000e+01 0.0000000000e+00 
          0.0000000000e+00 2.1538462000e+01 0.0000000000e+00 
          0.0000000000e+00 2.2307692000e+01 0.0000000000e+00 
          0.0000000000e+00 2.3076923000e+01 0.0000000000e+00 
          0.0000000000e+00 2.3846154000e+01 0.0000000000e+00 
          0.0000000000e+00 2.4615385000e+01 0.0000000000e+00 
          0.0000000000e+00 2.5384615000e+01 0.0000000000e+00 
          0.0000000000e+00 2.6153846000e+01 0.0000000000e+00 
          0.0000000000e+00 2.6923077000e+01 0.0000000000e+00 
          0.0000000000e+00 2.7692308000e+01 0.0000000000e+00 
          0.0000000000e+00 2.8461538000e+01 0.0000000000e+00 
          0.0000000000e+00 2.9230769000e+01 0.0000000000e+00 
        </DataArray>
      </Points>
      <Cells>
        <DataArray type="Int64" Name="connectivity" format="ascii">
          0 1 4 42 
          42 4 5 43 
          43 5 6 44 
          44 6 7 45 
          45 7 8 46 
          46 8 9 47 
          47 9 10 48 
          48 10 11 49 
          49 11 12 50 
          50 12 13 51 
          51 13 14 52 
          52 14 15 53 
          53 15 16 54 
          54 16 17 55 
          55 17 18 56 
          56 18 19 57 
          57 19 20 58 
          58 20 21 59 
          59 21 22 60 
          60 22 23 61 
          61 23 24 62 
          62 24 25 63 
          63 25 26 64 
          64 26 27 65 
          65 27 28 66 
          66 28 29 67 
          67 29 30 68 
          68 30 31 69 
          69 31 32 70 
          70 32 33 71 
          71 33 34 72 
          72 34 35 73 
          73 35 36 74 
          74 36 37 75 
          75 37 38 76 
          76 38 39 77 
          77 39 40 78 
          78 40 41 79 
          79 41 2 3 
        </DataArray>
        <DataArray type="Int64" Name="offsets" format="ascii">
          4
          8
          12
          16
          20
          24
          28
          32
          36
          40
          44
          48
          52
          56
          60
          64
          68
          72
          76
          80
          84
          88
          92
          96
          100
          104
          108
          112
          116
          120
          124
          128
          132
          136
          140
          144
          148
          152
          156
        </DataArray>
        <DataArray type="Int64" Name="types" format="ascii">
          9
          9
          9
          9
          9
          9
          9
          9
          9
          9
          9
          9
          9
          9
          9
          9
          9
          9
          9
          9
          9
          9
          9
          9
          9
          9
          9
          9
          9
          9
          9
          9
          9
          9
          9
          9
          9
          9
          9
        </DataArray>
      </Cells>
      <PointData>
        <DataArray type="Int64" Name="NodeTag" format="ascii">
          1
          2
          3
          4
          7
          8
          9
          10
          11
          12
          13
          14
          15
          16
          17
          18
          19
          20
          21
          22
          23
          24
          25
          26
          27
          28
          29
          30
          31
          32
          33
          34
          35
          36
          37
          38
          39
          40
          41
          42
          43
          44
          45
          46
          47
          48
          49
          50
          51
          52
          53
          54
          55
          56
          57
          58
          59
          60
          61
          62
          63
          64
          65
          66
          67
          68
          69
          70
          71
          72
          73
          74
          75
          76
          77
          78
          79
          80
          81
          82
        </DataArray>
        <DataArray type="Float64" Name="Velocity" NumberOfComponents="3" format="ascii">
          -5.2203701405e-02 -7.8146510695e-05 0.0000000000e+00 
          -5.2203701405e-02 -7.8146510695e-05 0.0000000000e+00 
          3.0100078490e-01 -7.0941967249e-05 0.0000000000e+00 
          3.0100078490e-01 -7.0941967249e-05 0.0000000000e+00 
          -3.8514700230e-02 -7.7892737363e-05 0.0000000000e+00 
          -2.4795217804e-02 -7.7775144370e-05 0.0000000000e+00 
          -1.1069686641e-02 -7.7500043520e-05 0.0000000000e+00 
          2.6374887181e-03 -7.7226330064e-05 0.0000000000e+00 
          1.6301872696e-02 -7.7124442864e-05 0.0000000000e+00 
          2.9899097738e-02 -7.7101665839e-05 0.0000000000e+00 
          4.3404843494e-02 -7.6571876502e-05 0.0000000000e+00 
          5.6794954016e-02 -7.6222313345e-05 0.0000000000e+00 
          7.0045380641e-02 -7.6346581331e-05 0.0000000000e+00 
          8.3132318971e-02 -7.5963288440e-05 0.0000000000e+00 
          9.6032145422e-02 -7.5781770049e-05 0.0000000000e+00 
          1.0872161410e-01 -7.5526116678e-05 0.0000000000e+00 
          1.2117771415e-01 -7.5382690536e-05 0.0000000000e+00 
          1.3337775033e-01 -7.5263388127e-05 0.0000000000e+00 
          1.4529950202e-01 -7.5062751740e-05 0.0000000000e+00 
          1.5692116004e-01 -7.4899523696e-05 0.0000000000e+00 
          1.6822139485e-01 -7.4666127735e-05 0.0000000000e+00 
          1.7917939512e-01 -7.4405986621e-05 0.0000000000e+00 
          1.8977485060e-01 -7.4200000392e-05 0.0000000000e+00 
          1.9998813341e-01 -7.3946374026e-05 0.0000000000e+00 
          2.0980032400e-01 -7.3760062117e-05 0.0000000000e+00 
          2.1919301068e-01 -7.3426570205e-05 0.0000000000e+00 
          2.2814859268e-01 -7.2964915336e-05 0.0000000000e+00 
          2.3665024071e-01 -7.2675492157e-05 0.0000000000e+00 
          2.4468195465e-01 -7.2484279233e-05 0.0000000000e+00 
          2.5222851770e-01 -7.2333393808e-05 0.0000000000e+00 
          2.5927561385e-01 -7.1988389876e-05 0.0000000000e+00 
          2.6580983456e-01 -7.1900608470e-05 0.0000000000e+00 
          2.7181872129e-01 -7.1883265587e-05 0.0000000000e+00 
          2.7729078467e-01 -7.1648393159e-05 0.0000000000e+00 
          2.8221548472e-01 -7.1434172224e-05 0.0000000000e+00 
          2.8658342837e-01 -7.1304778896e-05 0.0000000000e+00 
          2.9038619401e-01 -7.0952429054e-05 0.0000000000e+00 
          2.9361643501e-01 -7.1091252510e-05 0.0000000000e+00 
          2.9626793751e-01 -7.0926751266e-05 0.0000000000e+00 
          2.9833554299e-01 -7.0982513295e-05 0.0000000000e+00 
          2.9981527496e-01 -7.1141949090e-05 0.0000000000e+00 
          3.0070427046e-01 -7.0867112774e-05 0.0000000000e+00 
          -3.8514700230e-02 -7.7892737363e-05 0.0000000000e+00 
          -2.4795217804e-02 -7.7775144370e-05 0.0000000000e+00 
          -1.1069686641e-02 -7.7500043520e-05 0.0000000000e+00 
          2.6374887181e-03 -7.7226330064e-05 0.0000000000e+00 
          1.6301872696e-02 -7.7124442864e-05 0.0000000000e+00 
          2.9899097738e-02 -7.7101665839e-05 0.0000000000e+00 
          4.3404843494e-02 -7.6571876502e-05 0.0000000000e+00 
          5.6794954016e-02 -7.6222313345e-05 0.0000000000e+00 
          7.0045380641e-02 -7.6346581331e-05 0.0000000000e+00 
          8.3132318971e-02 -7.5963288440e-05 0.0000000000e+00 
          9.6032145422e-02 -7.5781770049e-05 0.0000000000e+00 
          1.0872161410e-01 -7.5526116678e-05 0.0000000000e+00 
          1.2117771415e-01 -7.5382690536e-05 0.0000000000e+00 
          1.3337775033e-01 -7.5263388127e-05 0.0000000000e+00 
          1.4529950202e-01 -7.5062751740e-05 0.0000000000e+00 
          1.5692116004e-01 -7.4899523696e-05 0.0000000000e+00 
          1.6822139485e-01 -7.4666127735e-05 0.0000000000e+00 
          1.7917939512e-01 -7.4405986621e-05 0.0000000000e+00 
          1.8977485060e-01 -7.4200000392e-05 0.0000000000e+00 
          1.9998813341e-01 -7.3946374026e-05 0.0000000000e+00 
          2.0980032400e-01 -7.3760062117e-05 0.0000000000e+00 
          2.1919301068e-01 -7.3426570205e-05 0.0000000000e+00 
          2.2814859268e-01 -7.2964915336e-05 0.0000000000e+00 
          2.3665024071e-01 -7.2675492157e-05 0.0000000000e+00 
          2.4468195465e-01 -7.2484279233e-05 0.0000000000e+00 
          2.5222851770e-01 -7.2333393808e-05 0.0000000000e+00 
          2.5927561385e-01 -7.1988389876e-05 0.0000000000e+00 
          2.6580983456e-01 -7.1900608470e-05 0.0000000000e+00 
          2.7181872129e-01 -7.1883265587e-05 0.0000000000e+00 
          2.7729078467e-01 -7.1648393159e-05 0.0000000000e+00 
          2.8221548472e-01 -7.1434172224e-05 0.0000000000e+00 
          2.8658342837e-01 -7.1304778896e-05 0.0000000000e+00 
          2.9038619401e-01 -7.0952429054e-05 0.0000000000e+00 
          2.9361643501e-01 -7.1091252510e-05 0.0000000000e+00 
          2.9626793751e-01 -7.0926751266e-05 0.0000000000e+00 
          2.9833554299e-01 -7.0982513295e-05 0.0000000000e+00 
          2.9981527496e-01 -7.1141949090e-05 0.0000000000e+00 
          3.0070427046e-01 -7.0867112774e-05 0.0000000000e+00 
        </DataArray>
        <DataArray type="Float64" Name="Displacement" NumberOfComponents="3" format="ascii">
          -4.4475609031e-03 -1.9128337217e-04 0.0000000000e+00 
          -4.4475609031e-03 -1.9128337217e-04 0.0000000000e+00 
          -2.3748000119e-02 -2.1500366960e-04 0.0000000000e+00 
          -2.3748000119e-02 -2.1500366960e-04 0.0000000000e+00 
          -5.3062181975e-03 -1.9248175971e-04 0.0000000000e+00 
          -6.1547097953e-03 -1.9364954588e-04 0.0000000000e+00 
          -6.9921013878e-03 -1.9478580218e-04 0.0000000000e+00 
          -7.8174795594e-03 -1.9589148622e-04 0.0000000000e+00 
          -8.6299462827e-03 -1.9696594670e-04 0.0000000000e+00 
          -9.4286243802e-03 -1.9800974154e-04 0.0000000000e+00 
          -1.0212656388e-02 -1.9902245608e-04 0.0000000000e+00 
          -1.0981209330e-02 -2.0000419140e-04 0.0000000000e+00 
          -1.1733469677e-02 -2.0095512224e-04 0.0000000000e+00 
          -1.2468648396e-02 -2.0187437960e-04 0.0000000000e+00 
          -1.3185979480e-02 -2.0276234691e-04 0.0000000000e+00 
          -1.3884724333e-02 -2.0361891676e-04 0.0000000000e+00 
          -1.4564166826e-02 -2.0444418158e-04 0.0000000000e+00 
          -1.5223617675e-02 -2.0523886996e-04 0.0000000000e+00 
          -1.5862413937e-02 -2.0600230880e-04 0.0000000000e+00 
          -1.6479918355e-02 -2.0673441081e-04 0.0000000000e+00 
          -1.7075523067e-02 -2.0743611763e-04 0.0000000000e+00 
          -1.7648645018e-02 -2.0810612567e-04 0.0000000000e+00 
          -1.8198729382e-02 -2.0874495512e-04 0.0000000000e+00 
          -1.8725248176e-02 -2.0935360093e-04 0.0000000000e+00 
          -1.9227702734e-02 -2.0993094348e-04 0.0000000000e+00 
          -1.9705619850e-02 -2.1047712247e-04 0.0000000000e+00 
          -2.0158554606e-02 -2.1099240934e-04 0.0000000000e+00 
          -2.0586088656e-02 -2.1147643884e-04 0.0000000000e+00 
          -2.0987832551e-02 -2.1192994560e-04 0.0000000000e+00 
          -2.1363421936e-02 -2.1235256900e-04 0.0000000000e+00 
          -2.1712519770e-02 -2.1274343101e-04 0.0000000000e+00 
          -2.2034815686e-02 -2.1310397926e-04 0.0000000000e+00 
          -2.2330024811e-02 -2.1343342501e-04 0.0000000000e+00 
          -2.2597889509e-02 -2.1373122529e-04 0.0000000000e+00 
          -2.2838176545e-02 -2.1399800197e-04 0.0000000000e+00 
          -2.3050678438e-02 -2.1423347450e-04 0.0000000000e+00 
          -2.3235212729e-02 -2.1443775667e-04 0.0000000000e+00 
          -2.3391622341e-02 -2.1461052785e-04 0.0000000000e+00 
          -2.3519774286e-02 -2.1475220462e-04 0.0000000000e+00 
          -2.3619560119e-02 -2.1486214296e-04 0.0000000000e+00 
          -2.3690895583e-02 -2.1494039047e-04 0.0000000000e+00 
          -2.3733720971e-02 -2.1498771943e-04 0.0000000000e+00 
          -5.3062181975e-03 -1.9248175971e-04 0.0000000000e+00 
          -6.1547097953e-03 -1.9364954588e-04 0.0000000000e+00 
          -6.9921013878e-03 -1.9478580218e-04 0.0000000000e+00 
          -7.8174795594e-03 -1.9589148622e-04 0.0000000000e+00 
          -8.6299462827e-03 -1.9696594670e-04 0.0000000000e+00 
          -9.4286243802e-03 -1.9800974154e-04 0.0000000000e+00 
          -1.0212656388e-02 -1.9902245608e-04 0.0000000000e+00 
          -1.0981209330e-02 -2.0000419140e-04 0.0000000000e+00 
          -1.1733469677e-02 -2.0095512224e-04 0.0000000000e+00 
          -1.2468648396e-02 -2.0187437960e-04 0.0000000000e+00 
          -1.3185979480e-02 -2.0276234691e-04 0.0000000000e+00 
          -1.3884724333e-02 -2.0361891676e-04 0.0000000000e+00 
          -1.4564166826e-02 -2.0444418158e-04 0.0000000000e+00 
          -1.5223617675e-02 -2.0523886996e-04 0.0000000000e+00 
          -1.5862413937e-02 -2.0600230880e-04 0.0000000000e+00 
          -1.6479918355e-02 -2.0673441081e-04 0.0000000000e+00 
          -1.7075523067e-02 -2.0743611763e-04 0.0000000000e+00 
          -1.7648645018e-02 -2.0810612567e-04 0.0000000000e+00 
          -1.8198729382e-02 -2.0874495512e-04 0.0000000000e+00 
          -1.8725248176e-02 -2.0935360093e-04 0.0000000000e+00 
          -1.9227702734e-02 -2.0993094348e-04 0.0000000000e+00 
          -1.9705619850e-02 -2.1047712247e-04 0.0000000000e+00 
          -2.0158554606e-02 -2.1099240934e-04 0.0000000000e+00 
          -2.0586088656e-02 -2.1147643884e-04 0.0000000000e+00 
          -2.0987832551e-02 -2.1192994560e-04 0.0000000000e+00 
          -2.1363421936e-02 -2.1235256900e-04 0.0000000000e+00 
          -2.1712519770e-02 -2.1274343101e-04 0.0000000000e+00 
          -2.2034815686e-02 -2.1310397926e-04 0.0000000000e+00 
          -2.2330024811e-02 -2.1343342501e-04 0.0000000000e+00 
          -2.2597889509e-02 -2.1373122529e-04 0.0000000000e+00 
          -2.2838176545e-02 -2.1399800197e-04 0.0000000000e+00 
          -2.3050678438e-02 -2.1423347450e-04 0.0000000000e+00 
          -2.3235212729e-02 -2.1443775667e-04 0.0000000000e+00 
          -2.3391622341e-02 -2.1461052785e-04 0.0000000000e+00 
          -2.3519774286e-02 -2.1475220462e-04 0.0000000000e+00 
          -2.3619560119e-02 -2.1486214296e-04 0.0000000000e+00 
          -2.3690895583e-02 -2.1494039047e-04 0.0000000000e+00 
          -2.3733720971e-02 -2.1498771943e-04 0.0000000000e+00 
        </DataArray>
        <DataArray type="Float64" Name="Acceleration" NumberOfComponents="3" format="ascii">
          8.3039447986e-01 1.7318957028e-05 0.0000000000e+00 
          8.3039447986e-01 1.7318957028e-05 0.0000000000e+00 
          2.5731588806e+00 1.6110428744e-04 0.0000000000e+00 
          2.5731588806e+00 1.6110428744e-04 0.0000000000e+00 
          9.1594933798e-01 -7.2976749124e-05 0.0000000000e+00 
          1.0000349605e+00 9.4079233657e-05 0.0000000000e+00 
          1.0825317338e+00 -7.7951301041e-05 0.0000000000e+00 
          1.1633469952e+00 3.9143450415e-05 0.0000000000e+00 
          1.2423824150e+00 -6.1394755952e-05 0.0000000000e+00 
          1.3195505824e+00 1.3096644181e-05 0.0000000000e+00 
          1.3947872005e+00 -4.6485283322e-06 0.0000000000e+00 
          1.4679949720e+00 -3.6374289326e-05 0.0000000000e+00 
          1.5390884679e+00 1.2022292346e-04 0.0000000000e+00 
          1.6080240599e+00 5.0919970837e-05 0.0000000000e+00 
          1.6747413262e+00 7.0694722950e-05 0.0000000000e+00 
          1.7391807284e+00 5.3826014097e-05 0.0000000000e+00 
          1.8012865699e+00 -7.7469681973e-05 0.0000000000e+00 
          1.8610191216e+00 4.3826433226e-05 0.0000000000e+00 
          1.9183660903e+00 5.9387450522e-05 0.0000000000e+00 
          1.9732803732e+00 -1.0995543060e-04 0.0000000000e+00 
          2.0257411904e+00 1.2478132819e-04 0.0000000000e+00 
          2.0757320391e+00 3.1040006920e-05 0.0000000000e+00 
          2.1232441490e+00 -1.4839181240e-04 0.0000000000e+00 
          2.1682982140e+00 5.3652388177e-05 0.0000000000e+00 
          2.2108720190e+00 2.8333397642e-05 0.0000000000e+00 
          2.2509599842e+00 -2.0583332806e-05 0.0000000000e+00 
          2.2886052066e+00 4.5126338351e-05 0.0000000000e+00 
          2.3237953909e+00 -8.7026223509e-05 0.0000000000e+00 
          2.3565730606e+00 -2.2162971387e-05 0.0000000000e+00 
          2.3869410598e+00 1.3606293350e-04 0.0000000000e+00 
          2.4149057812e+00 -1.2480387799e-04 0.0000000000e+00 
          2.4405403242e+00 1.7255019517e-05 0.0000000000e+00 
          2.4638230537e+00 1.1525671972e-04 0.0000000000e+00 
          2.4848017730e+00 3.1092382166e-06 0.0000000000e+00 
          2.5034963084e+00 5.3666937939e-05 0.0000000000e+00 
          2.5199161482e+00 3.3118288268e-05 0.0000000000e+00 
          2.5341124009e+00 9.0991017864e-05 0.0000000000e+00 
          2.5460716492e+00 1.5870930851e-05 0.0000000000e+00 
          2.5558426308e+00 1.3192739951e-04 0.0000000000e+00 
          2.5634278450e+00 1.2333365049e-04 0.0000000000e+00 
          2.5688240991e+00 -1.5797807677e-05 0.0000000000e+00 
          2.5720726073e+00 6.7116496220e-05 0.0000000000e+00 
          9.1594933798e-01 -7.2976749124e-05 0.0000000000e+00 
          1.0000349605e+00 9.4079233657e-05 0.0000000000e+00 
          1.0825317338e+00 -7.7951301041e-05 0.0000000000e+00 
          1.1633469952e+00 3.9143450415e-05 0.0000000000e+00 
          1.2423824150e+00 -6.1394755952e-05 0.0000000000e+00 
          1.3195505824e+00 1.3096644181e-05 0.0000000000e+00 
          1.3947872005e+00 -4.6485283322e-06 0.0000000000e+00 
          1.4679949720e+00 -3.6374289326e-05 0.0000000000e+00 
          1.5390884679e+00 1.2022292346e-04 0.0000000000e+00 
          1.6080240599e+00 5.0919970837e-05 0.0000000000e+00 
          1.6747413262e+00 7.0694722950e-05 0.0000000000e+00 
          1.7391807284e+00 5.3826014097e-05 0.0000000000e+00 
          1.8012865699e+00 -7.7469681973e-05 0.0000000000e+00 
          1.8610191216e+00 4.3826433226e-05 0.0000000000e+00 
          1.9183660903e+00 5.9387450522e-05 0.0000000000e+00 
          1.9732803732e+00 -1.0995543060e-04 0.0000000000e+00 
          2.0257411904e+00 1.2478132819e-04 0.0000000000e+00 
          2.0757320391e+00 3.1040006920e-05 0.0000000000e+00 
          2.1232441490e+00 -1.4839181240e-04 0.0000000000e+00 
          2.1682982140e+00 5.3652388177e-05 0.0000000000e+00 
          2.2108720190e+00 2.8333397642e-05 0.0000000000e+00 
          2.2509599842e+00 -2.0583332806e-05 0.0000000000e+00 
          2.2886052066e+00 4.5126338351e-05 0.0000000000e+00 
          2.3237953909e+00 -8.7026223509e-05 0.0000000000e+00 
          2.3565730606e+00 -2.2162971387e-05 0.0000000000e+00 
          2.3869410598e+00 1.3606293350e-04 0.0000000000e+00 
          2.4149057812e+00 -1.2480387799e-04 0.0000000000e+00 
          2.4405403242e+00 1.7255019517e-05 0.0000000000e+00 
          2.4638230537e+00 1.1525671972e-04 0.0000000000e+00 
          2.4848017730e+00 3.1092382166e-06 0.0000000000e+00 
          2.5034963084e+00 5.3666937939e-05 0.0000000000e+00 
          2.5199161482e+00 3.3118288268e-05 0.0000000000e+00 
          2.5341124009e+00 9.0991017864e-05 0.0000000000e+00 
          2.5460716492e+00 1.5870930851e-05 0.0000000000e+00 
          2.5558426308e+00 1.3192739951e-04 0.0000000000e+00 
          2.5634278450e+00 1.2333365049e-04 0.0000000000e+00 
          2.5688240991e+00 -1.5797807677e-05 0.0000000000e+00 
          2.5720726073e+00 6.7116496220e-05 0.0000000000e+00 
        </DataArray>
        <DataArray type="Float64" Name="Reaction" NumberOfComponents="3" format="ascii">
          0.0000000000e+00 0.0000000000e+00 0.0000000000e+00 
          0.0000000000e+00 0.0000000000e+00 0.0000000000e+00 
          0.0000000000e+00 0.0000000000e+00 0.0000000000e+00 
          0.0000000000e+00 0.0000000000e+00 0.0000000000e+00 
          0.0000000000e+00 0.0000000000e+00 0.0000000000e+00 
          0.0000000000e+00 0.0000000000e+00 0.0000000000e+00 
          0.0000000000e+00 0.0000000000e+00 0.0000000000e+00 
          0.0000000000e+00 0.0000000000e+00 0.0000000000e+00 
          0.0000000000e+00 0.0000000000e+00 0.0000000000e+00 
          0.0000000000e+00 0.0000000000e+00 0.0000000000e+00 
          0.0000000000e+00 0.0000000000e+00 0.0000000000e+00 
          0.0000000000e+00 0.0000000000e+00 0.0000000000e+00 
          0.0000000000e+00 0.0000000000e+00 0.0000000000e+00 
          0.0000000000e+00 0.0000000000e+00 0.0000000000e+00 
          0.0000000000e+00 0.0000000000e+00 0.0000000000e+00 
          0.0000000000e+00 0.0000000000e+00 0.0000000000e+00 
          0.0000000000e+00 0.0000000000e+00 0.0000000000e+00 
          0.0000000000e+00 0.0000000000e+00 0.0000000000e+00 
          0.0000000000e+00 0.0000000000e+00 0.0000000000e+00 
          0.0000000000e+00 0.0000000000e+00 0.0000000000e+00 
          0.0000000000e+00 0.0000000000e+00 0.0000000000e+00 
          0.0000000000e+00 0.0000000000e+00 0.0000000000e+00 
          0.0000000000e+00 0.0000000000e+00 0.0000000000e+00 
          0.0000000000e+00 0.0000000000e+00 0.0000000000e+00 
          0.0000000000e+00 0.0000000000e+00 0.0000000000e+00 
          0.0000000000e+00 0.0000000000e+00 0.0000000000e+00 
          0.0000000000e+00 0.0000000000e+00 0.0000000000e+00 
          0.0000000000e+00 0.0000000000e+00 0.0000000000e+00 
          0.0000000000e+00 0.0000000000e+00 0.0000000000e+00 
          0.0000000000e+00 0.0000000000e+00 0.0000000000e+00 
          0.0000000000e+00 0.0000000000e+00 0.0000000000e+00 
          0.0000000000e+00 0.0000000000e+00 0.0000000000e+00 
          0.0000000000e+00 0.0000000000e+00 0.0000000000e+00 
          0.0000000000e+00 0.0000000000e+00 0.0000000000e+00 
          0.0000000000e+00 0.0000000000e+00 0.0000000000e+00 
          0.0000000000e+00 0.0000000000e+00 0.0000000000e+00 
          0.0000000000e+00 0.0000000000e+00 0.0000000000e+00 
          0.0000000000e+00 0.0000000000e+00 0.0000000000e+00 
          0.0000000000e+00 0.0000000000e+00 0.0000000000e+00 
          0.0000000000e+00 0.0000000000e+00 0.0000000000e+00 
          0.0000000000e+00 0.0000000000e+00 0.0000000000e+00 
          0.0000000000e+00 0.0000000000e+00 0.0000000000e+00 
          0.0000000000e+00 0.0000000000e+00 0.0000000000e+00 
          0.0000000000e+00 0.0000000000e+00 0.0000000000e+00 
          0.0000000000e+00 0.0000000000e+00 0.0000000000e+00 
          0.0000000000e+00 0.0000000000e+00 0.0000000000e+00 
          0.0000000000e+00 0.0000000000e+00 0.0000000000e+00 
          0.0000000000e+00 0.0000000000e+00 0.0000000000e+00 
          0.0000000000e+00 0.0000000000e+00 0.0000000000e+00 
          0.0000000000e+00 0.0000000000e+00 0.0000000000e+00 
          0.0000000000e+00 0.0000000000e+00 0.0000000000e+00 
          0.0000000000e+00 0.0000000000e+00 0.0000000000e+00 
          0.0000000000e+00 0.0000000000e+00 0.0000000000e+00 
          0.0000000000e+00 0.0000000000e+00 0.0000000000e+00 
          0.0000000000e+00 0.0000000000e+00 0.0000000000e+00 
          0.0000000000e+00 0.0000000000e+00 0.0000000000e+00 
          0.0000000000e+00 0.0000000000e+00 0.0000000000e+00 
          0.0000000000e+00 0.0000000000e+00 0.0000000000e+00 
          0.0000000000e+00 0.0000000000e+00 0.0000000000e+00 
          0.0000000000e+00 0.0000000000e+00 0.0000000000e+00 
          0.0000000000e+00 0.0000000000e+00 0.0000000000e+00 
          0.0000000000e+00 0.0000000000e+00 0.0000000000e+00 
          0.0000000000e+00 0.0000000000e+00 0.0000000000e+00 
          0.0000000000e+00 0.0000000000e+00 0.0000000000e+00 
          0.0000000000e+00 0.0000000000e+00 0.0000000000e+00 
          0.0000000000e+00 0.0000000000e+00 0.0000000000e+00 
          0.0000000000e+00 0.0000000000e+00 0.0000000000e+00 
          0.0000000000e+00 0.0000000000e+00 0.0000000000e+00 
          0.0000000000e+00 0.0000000000e+00 0.0000000000e+00 
          0.0000000000e+00 0.0000000000e+00 0.0000000000e+00 
          0.0000000000e+00 0.0000000000e+00 0.0000000000e+00 
          0.0000000000e+00 0.0000000000e+00 0.0000000000e+00 
          0.0000000000e+00 0.0000000000e+00 0.0000000000e+00 
          0.0000000000e+00 0.0000000000e+00 0.0000000000e+00 
          0.0000000000e+00 0.0000000000e+00 0.0000000000e+00 
          0.0000000000e+00 0.0000000000e+00 0.0000000000e+00 
          0.0000000000e+00 0.0000000000e+00 0.0000000000e+00 
          0.0000000000e+00 0.0000000000e+00 0.0000000000e+00 
          0.0000000000e+00 0.0000000000e+00 0.0000000000e+00 
          0.0000000000e+00 0.0000000000e+00 0.0000000000e+00 
        </DataArray>
      </PointData>
      <CellData>
        <DataArray type="Int64" Name="ElementTag" format="ascii">
          90
          91
          92
          93
          94
          95
          96
          97
          98
          99
          100
          101
          102
          103
          104
          105
          106
          107
          108
          109
          110
          111
          112
          113
          114
          115
          116
          117
          118
          119
          120
          121
          122
          123
          124
          125
          126
          127
          128
        </DataArray>
      </CellData>
    </Piece>
  </UnstructuredGrid>
</VTKFile>
