<?xml version="1.0"?>
<VTKFile type="UnstructuredGrid" version="1.0" byte_order="LittleEndian" compressor="vtkZLibDataCompressor">
  <UnstructuredGrid>
    <Piece NumberOfPoints="82" NumberOfCells="1">
      <Points>
        <DataArray type="Float64" Name="Points" NumberOfComponents="3" format="ascii">
          0.0000000000e+00 0.0000000000e+00 0.0000000000e+00 
          2.5000000000e-01 0.0000000000e+00 0.0000000000e+00 
          2.5000000000e-01 3.0000000000e+01 0.0000000000e+00 
          0.0000000000e+00 3.0000000000e+01 0.0000000000e+00 
          0.0000000000e+00 -5.0000000000e+00 0.0000000000e+00 
          2.5000000000e-01 -5.0000000000e+00 0.0000000000e+00 
          2.5000000000e-01 7.6923100000e-01 0.0000000000e+00 
          2.5000000000e-01 1.5384620000e+00 0.0000000000e+00 
          2.5000000000e-01 2.3076920000e+00 0.0000000000e+00 
          2.5000000000e-01 3.0769230000e+00 0.0000000000e+00 
          2.5000000000e-01 3.8461540000e+00 0.0000000000e+00 
          2.5000000000e-01 4.6153850000e+00 0.0000000000e+00 
          2.5000000000e-01 5.3846150000e+00 0.0000000000e+00 
          2.5000000000e-01 6.1538460000e+00 0.0000000000e+00 
          2.5000000000e-01 6.9230770000e+00 0.0000000000e+00 
          2.5000000000e-01 7.6923080000e+00 0.0000000000e+00 
          2.5000000000e-01 8.4615380000e+00 0.0000000000e+00 
          2.5000000000e-01 9.2307690000e+00 0.0000000000e+00 
          2.5000000000e-01 1.0000000000e+01 0.0000000000e+00 
          2.5000000000e-01 1.0769231000e+01 0.0000000000e+00 
          2.5000000000e-01 1.1538462000e+01 0.0000000000e+00 
          2.5000000000e-01 1.2307692000e+01 0.0000000000e+00 
          2.5000000000e-01 1.3076923000e+01 0.0000000000e+00 
          2.5000000000e-01 1.3846154000e+01 0.0000000000e+00 
          2.5000000000e-01 1.4615385000e+01 0.0000000000e+00 
          2.5000000000e-01 1.5384615000e+01 0.0000000000e+00 
          2.5000000000e-01 1.6153846000e+01 0.0000000000e+00 
          2.5000000000e-01 1.6923077000e+01 0.0000000000e+00 
          2.5000000000e-01 1.7692308000e+01 0.0000000000e+00 
          2.5000000000e-01 1.8461538000e+01 0.0000000000e+00 
          2.5000000000e-01 1.9230769000e+01 0.0000000000e+00 
          2.5000000000e-01 2.0000000000e+01 0.0000000000e+00 
          2.5000000000e-01 2.0769231000e+01 0.0000000000e+00 
          2.5000000000e-01 2.1538462000e+01 0.0000000000e+00 
          2.5000000000e-01 2.2307692000e+01 0.0000000000e+00 
          2.5000000000e-01 2.3076923000e+01 0.0000000000e+00 
          2.5000000000e-01 2.3846154000e+01 0.0000000000e+00 
          2.5000000000e-01 2.4615385000e+01 0.0000000000e+00 
          2.5000000000e-01 2.5384615000e+01 0.0000000000e+00 
          2.5000000000e-01 2.6153846000e+01 0.0000000000e+00 
          2.5000000000e-01 2.6923077000e+01 0.0000000000e+00 
          2.5000000000e-01 2.7692308000e+01 0.0000000000e+00 
          2.5000000000e-01 2.8461538000e+01 0.0000000000e+00 
          2.5000000000e-01 2.9230769000e+01 0.0000000000e+00 
          0.0000000000e+00 7.6923100000e-01 0.0000000000e+00 
          0.0000000000e+00 1.5384620000e+00 0.0000000000e+00 
          0.0000000000e+00 2.3076920000e+00 0.0000000000e+00 
          0.0000000000e+00 3.0769230000e+00 0.0000000000e+00 
          0.0000000000e+00 3.8461540000e+00 0.0000000000e+00 
          0.0000000000e+00 4.6153850000e+00 0.0000000000e+00 
          0.0000000000e+00 5.3846150000e+00 0.0000000000e+00 
          0.0000000000e+00 6.1538460000e+00 0.0000000000e+00 
          0.0000000000e+00 6.9230770000e+00 0.0000000000e+00 
          0.0000000000e+00 7.6923080000e+00 0.0000000000e+00 
          0.0000000000e+00 8.4615380000e+00 0.0000000000e+00 
          0.0000000000e+00 9.2307690000e+00 0.0000000000e+00 
          0.0000000000e+00 1.0000000000e+01 0.0000000000e+00 
          0.0000000000e+00 1.0769231000e+01 0.0000000000e+00 
          0.0000000000e+00 1.1538462000e+01 0.0000000000e+00 
          0.0000000000e+00 1.2307692000e+01 0.0000000000e+00 
          0.0000000000e+00 1.3076923000e+01 0.0000000000e+00 
          0.0000000000e+00 1.3846154000e+01 0.0000000000e+00 
          0.0000000000e+00 1.4615385000e+01 0.0000000000e+00 
          0.0000000000e+00 1.5384615000e+01 0.0000000000e+00 
          0.0000000000e+00 1.6153846000e+01 0.0000000000e+00 
          0.0000000000e+00 1.6923077000e+01 0.0000000000e+00 
          0.0000000000e+00 1.7692308000e+01 0.0000000000e+00 
          0.0000000000e+00 1.8461538000e+01 0.0000000000e+00 
          0.0000000000e+00 1.9230769000e+01 0.0000000000e+00 
          0.0000000000e+00 2.0000000000e+01 0.0000000000e+00 
          0.0000000000e+00 2.0769231000e+01 0.0000000000e+00 
          0.0000000000e+00 2.1538462000e+01 0.0000000000e+00 
          0.0000000000e+00 2.2307692000e+01 0.0000000000e+00 
          0.0000000000e+00 2.3076923000e+01 0.0000000000e+00 
          0.0000000000e+00 2.3846154000e+01 0.0000000000e+00 
          0.0000000000e+00 2.4615385000e+01 0.0000000000e+00 
          0.0000000000e+00 2.5384615000e+01 0.0000000000e+00 
          0.0000000000e+00 2.6153846000e+01 0.0000000000e+00 
          0.0000000000e+00 2.6923077000e+01 0.0000000000e+00 
          0.0000000000e+00 2.7692308000e+01 0.0000000000e+00 
          0.0000000000e+00 2.8461538000e+01 0.0000000000e+00 
          0.0000000000e+00 2.9230769000e+01 0.0000000000e+00 
        </DataArray>
      </Points>
      <Cells>
        <DataArray type="Int64" Name="connectivity" format="ascii">
          0
          1
          2
          3
          4
          5
          6
          7
          8
          9
          10
          11
          12
          13
          14
          15
          16
          17
          18
          19
          20
          21
          22
          23
          24
          25
          26
          27
          28
          29
          30
          31
          32
          33
          34
          35
          36
          37
          38
          39
          40
          41
          42
          43
          44
          45
          46
          47
          48
          49
          50
          51
          52
          53
          54
          55
          56
          57
          58
          59
          60
          61
          62
          63
          64
          65
          66
          67
          68
          69
          70
          71
          72
          73
          74
          75
          76
          77
          78
          79
          80
          81
        </DataArray>
        <DataArray type="Int64" Name="offsets" format="ascii">
          82
        </DataArray>
        <DataArray type="Int64" Name="types" format="ascii">
          2
        </DataArray>
      </Cells>
      <PointData>
        <DataArray type="Int64" Name="NodeTag" format="ascii">
          1
          2
          3
          4
          5
          6
          7
          8
          9
          10
          11
          12
          13
          14
          15
          16
          17
          18
          19
          20
          21
          22
          23
          24
          25
          26
          27
          28
          29
          30
          31
          32
          33
          34
          35
          36
          37
          38
          39
          40
          41
          42
          43
          44
          45
          46
          47
          48
          49
          50
          51
          52
          53
          54
          55
          56
          57
          58
          59
          60
          61
          62
          63
          64
          65
          66
          67
          68
          69
          70
          71
          72
          73
          74
          75
          76
          77
          78
          79
          80
          81
          82
        </DataArray>
        <DataArray type="Float64" Name="Velocity" NumberOfComponents="3" format="ascii">
          3.9789016215e-02 -7.8281493148e-05 0.0000000000e+00 
          3.9789016215e-02 -7.8281493148e-05 0.0000000000e+00 
          -1.8182444786e-01 -8.0582060542e-05 0.0000000000e+00 
          -1.8182444786e-01 -8.0582060542e-05 0.0000000000e+00 
          0.0000000000e+00 0.0000000000e+00 0.0000000000e+00 
          0.0000000000e+00 0.0000000000e+00 0.0000000000e+00 
          3.1333932128e-02 -7.8386321859e-05 0.0000000000e+00 
          2.2846158100e-02 -7.8569247196e-05 0.0000000000e+00 
          1.4341494191e-02 -7.8754564540e-05 0.0000000000e+00 
          5.8356519876e-03 -7.8847270799e-05 0.0000000000e+00 
          -2.6555615720e-03 -7.8932618761e-05 0.0000000000e+00 
          -1.1116402727e-02 -7.9153789666e-05 0.0000000000e+00 
          -1.9531172723e-02 -7.9454402435e-05 0.0000000000e+00 
          -2.7884200885e-02 -7.9647034123e-05 0.0000000000e+00 
          -3.6159966150e-02 -7.9717804472e-05 0.0000000000e+00 
          -4.4342997048e-02 -7.9810838245e-05 0.0000000000e+00 
          -5.2417935956e-02 -7.9921244216e-05 0.0000000000e+00 
          -6.0369672002e-02 -8.0014173866e-05 0.0000000000e+00 
          -6.8183193575e-02 -8.0108176955e-05 0.0000000000e+00 
          -7.5843717048e-02 -8.0186300071e-05 0.0000000000e+00 
          -8.3336670246e-02 -8.0508290283e-05 0.0000000000e+00 
          -9.0647736075e-02 -8.0400452183e-05 0.0000000000e+00 
          -9.7762938343e-02 -8.0563697015e-05 0.0000000000e+00 
          -1.0466857537e-01 -8.1035610344e-05 0.0000000000e+00 
          -1.1135127148e-01 -8.0724960846e-05 0.0000000000e+00 
          -1.1779801194e-01 -8.0717460443e-05 0.0000000000e+00 
          -1.2399625030e-01 -8.1059246353e-05 0.0000000000e+00 
          -1.2993379173e-01 -8.0771120397e-05 0.0000000000e+00 
          -1.3559892407e-01 -8.0838097504e-05 0.0000000000e+00 
          -1.4098043144e-01 -8.1065190191e-05 0.0000000000e+00 
          -1.4606756412e-01 -8.0763991797e-05 0.0000000000e+00 
          -1.5085020899e-01 -8.0704772547e-05 0.0000000000e+00 
          -1.5531874986e-01 -8.0735287627e-05 0.0000000000e+00 
          -1.5946416497e-01 -8.0790010115e-05 0.0000000000e+00 
          -1.6327807282e-01 -8.0723699412e-05 0.0000000000e+00 
          -1.6675271636e-01 -8.0613173646e-05 0.0000000000e+00 
          -1.6988104889e-01 -8.0615586362e-05 0.0000000000e+00 
          -1.7265665286e-01 -8.0649886906e-05 0.0000000000e+00 
          -1.7507382878e-01 -8.0624273699e-05 0.0000000000e+00 
          -1.7712761370e-01 -8.0598839512e-05 0.0000000000e+00 
          -1.7881380174e-01 -8.0640333009e-05 0.0000000000e+00 
          -1.8012894803e-01 -8.0696903554e-05 0.0000000000e+00 
          -1.8107026291e-01 -8.0686147908e-05 0.0000000000e+00 
          -1.8163580285e-01 -8.0619772618e-05 0.0000000000e+00 
          3.1333932128e-02 -7.8386321859e-05 0.0000000000e+00 
          2.2846158100e-02 -7.8569247196e-05 0.0000000000e+00 
          1.4341494191e-02 -7.8754564540e-05 0.0000000000e+00 
          5.8356519876e-03 -7.8847270799e-05 0.0000000000e+00 
          -2.6555615720e-03 -7.8932618761e-05 0.0000000000e+00 
          -1.1116402727e-02 -7.9153789666e-05 0.0000000000e+00 
          -1.9531172723e-02 -7.9454402435e-05 0.0000000000e+00 
          -2.7884200885e-02 -7.9647034123e-05 0.0000000000e+00 
          -3.6159966150e-02 -7.9717804472e-05 0.0000000000e+00 
          -4.4342997048e-02 -7.9810838245e-05 0.0000000000e+00 
          -5.2417935956e-02 -7.9921244216e-05 0.0000000000e+00 
          -6.0369672002e-02 -8.0014173866e-05 0.0000000000e+00 
          -6.8183193575e-02 -8.0108176955e-05 0.0000000000e+00 
          -7.5843717048e-02 -8.0186300071e-05 0.0000000000e+00 
          -8.3336670246e-02 -8.0508290283e-05 0.0000000000e+00 
          -9.0647736075e-02 -8.0400452183e-05 0.0000000000e+00 
          -9.7762938343e-02 -8.0563697015e-05 0.0000000000e+00 
          -1.0466857537e-01 -8.1035610344e-05 0.0000000000e+00 
          -1.1135127148e-01 -8.0724960846e-05 0.0000000000e+00 
          -1.1779801194e-01 -8.0717460443e-05 0.0000000000e+00 
          -1.2399625030e-01 -8.1059246353e-05 0.0000000000e+00 
          -1.2993379173e-01 -8.0771120397e-05 0.0000000000e+00 
          -1.3559892407e-01 -8.0838097504e-05 0.0000000000e+00 
          -1.4098043144e-01 -8.1065190191e-05 0.0000000000e+00 
          -1.4606756412e-01 -8.0763991797e-05 0.0000000000e+00 
          -1.5085020899e-01 -8.0704772547e-05 0.0000000000e+00 
          -1.5531874986e-01 -8.0735287627e-05 0.0000000000e+00 
          -1.5946416497e-01 -8.0790010115e-05 0.0000000000e+00 
          -1.6327807282e-01 -8.0723699412e-05 0.0000000000e+00 
          -1.6675271636e-01 -8.0613173646e-05 0.0000000000e+00 
          -1.6988104889e-01 -8.0615586362e-05 0.0000000000e+00 
          -1.7265665286e-01 -8.0649886906e-05 0.0000000000e+00 
          -1.7507382878e-01 -8.0624273699e-05 0.0000000000e+00 
          -1.7712761370e-01 -8.0598839512e-05 0.0000000000e+00 
          -1.7881380174e-01 -8.0640333009e-05 0.0000000000e+00 
          -1.8012894803e-01 -8.0696903554e-05 0.0000000000e+00 
          -1.8107026291e-01 -8.0686147908e-05 0.0000000000e+00 
          -1.8163580285e-01 -8.0619772618e-05 0.0000000000e+00 
        </DataArray>
        <DataArray type="Float64" Name="Displacement" NumberOfComponents="3" format="ascii">
          2.5993243527e-03 -2.1065842772e-04 0.0000000000e+00 
          2.5993243527e-03 -2.1065842772e-04 0.0000000000e+00 
          1.7703829527e-02 -2.3443574819e-04 0.0000000000e+00 
          1.7703829527e-02 -2.3443574819e-04 0.0000000000e+00 
          0.0000000000e+00 0.0000000000e+00 0.0000000000e+00 
          0.0000000000e+00 0.0000000000e+00 0.0000000000e+00 
          3.2572711283e-03 -2.1185897938e-04 0.0000000000e+00 
          3.9087848540e-03 -2.1302848959e-04 0.0000000000e+00 
          4.5530775033e-03 -2.1416700259e-04 0.0000000000e+00 
          5.1893759166e-03 -2.1527460149e-04 0.0000000000e+00 
          5.8169174191e-03 -2.1635124825e-04 0.0000000000e+00 
          6.4349542706e-03 -2.1739681612e-04 0.0000000000e+00 
          7.0427527556e-03 -2.1841132571e-04 0.0000000000e+00 
          7.6395969637e-03 -2.1939501191e-04 0.0000000000e+00 
          8.2247851662e-03 -2.2034796699e-04 0.0000000000e+00 
          8.7976334964e-03 -2.2126992382e-04 0.0000000000e+00 
          9.3574749850e-03 -2.2216059848e-04 0.0000000000e+00 
          9.9036633906e-03 -2.2302018516e-04 0.0000000000e+00 
          1.0435569297e-02 -2.2384912633e-04 0.0000000000e+00 
          1.0952583644e-02 -2.2464698242e-04 0.0000000000e+00 
          1.1454117648e-02 -2.2541363938e-04 0.0000000000e+00 
          1.1939602513e-02 -2.2614950171e-04 0.0000000000e+00 
          1.2408492428e-02 -2.2685372399e-04 0.0000000000e+00 
          1.2860261227e-02 -2.2752745254e-04 0.0000000000e+00 
          1.3294405144e-02 -2.2816934126e-04 0.0000000000e+00 
          1.3710442358e-02 -2.2878037797e-04 0.0000000000e+00 
          1.4107915106e-02 -2.2936057117e-04 0.0000000000e+00 
          1.4486386612e-02 -2.2990878176e-04 0.0000000000e+00 
          1.4845443834e-02 -2.3042626400e-04 0.0000000000e+00 
          1.5184696378e-02 -2.3091199496e-04 0.0000000000e+00 
          1.5503778555e-02 -2.3136678372e-04 0.0000000000e+00 
          1.5802346693e-02 -2.3179009722e-04 0.0000000000e+00 
          1.6080081040e-02 -2.3218196130e-04 0.0000000000e+00 
          1.6336685717e-02 -2.3254276489e-04 0.0000000000e+00 
          1.6571888042e-02 -2.3287211132e-04 0.0000000000e+00 
          1.6785439908e-02 -2.3316981187e-04 0.0000000000e+00 
          1.6977116077e-02 -2.3343598397e-04 0.0000000000e+00 
          1.7146715276e-02 -2.3367066814e-04 0.0000000000e+00 
          1.7294059873e-02 -2.3387378493e-04 0.0000000000e+00 
          1.7418996398e-02 -2.3404545938e-04 0.0000000000e+00 
          1.7521394530e-02 -2.3418600468e-04 0.0000000000e+00 
          1.7601147811e-02 -2.3429547282e-04 0.0000000000e+00 
          1.7658173469e-02 -2.3437359223e-04 0.0000000000e+00 
          1.7692412576e-02 -2.3442026019e-04 0.0000000000e+00 
          3.2572711283e-03 -2.1185897938e-04 0.0000000000e+00 
          3.9087848540e-03 -2.1302848959e-04 0.0000000000e+00 
          4.5530775033e-03 -2.1416700259e-04 0.0000000000e+00 
          5.1893759166e-03 -2.1527460149e-04 0.0000000000e+00 
          5.8169174191e-03 -2.1635124825e-04 0.0000000000e+00 
          6.4349542706e-03 -2.1739681612e-04 0.0000000000e+00 
          7.0427527556e-03 -2.1841132571e-04 0.0000000000e+00 
          7.6395969637e-03 -2.1939501191e-04 0.0000000000e+00 
          8.2247851662e-03 -2.2034796699e-04 0.0000000000e+00 
          8.7976334964e-03 -2.2126992382e-04 0.0000000000e+00 
          9.3574749850e-03 -2.2216059848e-04 0.0000000000e+00 
          9.9036633906e-03 -2.2302018516e-04 0.0000000000e+00 
          1.0435569297e-02 -2.2384912633e-04 0.0000000000e+00 
          1.0952583644e-02 -2.2464698242e-04 0.0000000000e+00 
          1.1454117648e-02 -2.2541363938e-04 0.0000000000e+00 
          1.1939602513e-02 -2.2614950171e-04 0.0000000000e+00 
          1.2408492428e-02 -2.2685372399e-04 0.0000000000e+00 
          1.2860261227e-02 -2.2752745254e-04 0.0000000000e+00 
          1.3294405144e-02 -2.2816934126e-04 0.0000000000e+00 
          1.3710442358e-02 -2.2878037797e-04 0.0000000000e+00 
          1.4107915106e-02 -2.2936057117e-04 0.0000000000e+00 
          1.4486386612e-02 -2.2990878176e-04 0.0000000000e+00 
          1.4845443834e-02 -2.3042626400e-04 0.0000000000e+00 
          1.5184696378e-02 -2.3091199496e-04 0.0000000000e+00 
          1.5503778555e-02 -2.3136678372e-04 0.0000000000e+00 
          1.5802346693e-02 -2.3179009722e-04 0.0000000000e+00 
          1.6080081040e-02 -2.3218196130e-04 0.0000000000e+00 
          1.6336685717e-02 -2.3254276489e-04 0.0000000000e+00 
          1.6571888042e-02 -2.3287211132e-04 0.0000000000e+00 
          1.6785439908e-02 -2.3316981187e-04 0.0000000000e+00 
          1.6977116077e-02 -2.3343598397e-04 0.0000000000e+00 
          1.7146715276e-02 -2.3367066814e-04 0.0000000000e+00 
          1.7294059873e-02 -2.3387378493e-04 0.0000000000e+00 
          1.7418996398e-02 -2.3404545938e-04 0.0000000000e+00 
          1.7521394530e-02 -2.3418600468e-04 0.0000000000e+00 
          1.7601147811e-02 -2.3429547282e-04 0.0000000000e+00 
          1.7658173469e-02 -2.3437359223e-04 0.0000000000e+00 
          1.7692412576e-02 -2.3442026019e-04 0.0000000000e+00 
        </DataArray>
        <DataArray type="Float64" Name="Acceleration" NumberOfComponents="3" format="ascii">
          -5.0767969027e-01 -6.9302952223e-06 0.0000000000e+00 
          -5.0767969027e-01 -6.9302952223e-06 0.0000000000e+00 
          -2.0573797887e+00 -5.4655875653e-06 0.0000000000e+00 
          -2.0573797887e+00 -5.4655875653e-06 0.0000000000e+00 
          0.0000000000e+00 0.0000000000e+00 0.0000000000e+00 
          0.0000000000e+00 0.0000000000e+00 0.0000000000e+00 
          -5.7963050508e-01 6.3277608489e-06 0.0000000000e+00 
          -6.5055819208e-01 -1.9083768364e-06 0.0000000000e+00 
          -7.2037238508e-01 -1.6351626126e-05 0.0000000000e+00 
          -7.8901497011e-01 -9.7657618541e-06 0.0000000000e+00 
          -8.5638780960e-01 1.3073026958e-05 0.0000000000e+00 
          -9.2242645618e-01 9.1278108860e-06 0.0000000000e+00 
          -9.8707381479e-01 -3.2727176147e-05 0.0000000000e+00 
          -1.0502291241e+00 -4.9596170411e-05 0.0000000000e+00 
          -1.1118468581e+00 -1.4556447197e-06 0.0000000000e+00 
          -1.1718773097e+00 4.9500332103e-05 0.0000000000e+00 
          -1.2302361111e+00 1.4925758346e-05 0.0000000000e+00 
          -1.2868814077e+00 -6.5024247202e-05 0.0000000000e+00 
          -1.3417588267e+00 1.4190790624e-05 0.0000000000e+00 
          -1.3948095811e+00 3.4742129394e-05 0.0000000000e+00 
          -1.4460031589e+00 -3.8317680609e-05 0.0000000000e+00 
          -1.4952955949e+00 1.1437210746e-04 0.0000000000e+00 
          -1.5426463341e+00 -9.2375103530e-05 0.0000000000e+00 
          -1.5880367452e+00 1.5020016846e-04 0.0000000000e+00 
          -1.6314019397e+00 -2.7949820972e-05 0.0000000000e+00 
          -1.6727449035e+00 -2.9195018971e-05 0.0000000000e+00 
          -1.7120494108e+00 1.7592730193e-04 0.0000000000e+00 
          -1.7492654112e+00 -5.0093808317e-05 0.0000000000e+00 
          -1.7844019730e+00 1.3413222008e-04 0.0000000000e+00 
          -1.8174307626e+00 -1.1441244696e-05 0.0000000000e+00 
          -1.8483554860e+00 8.4501640972e-05 0.0000000000e+00 
          -1.8771657384e+00 7.9846269618e-05 0.0000000000e+00 
          -1.9038249223e+00 9.7583445220e-06 0.0000000000e+00 
          -1.9283679296e+00 8.1165114642e-05 0.0000000000e+00 
          -1.9507779281e+00 1.1533118289e-04 0.0000000000e+00 
          -1.9710434246e+00 9.4085189072e-05 0.0000000000e+00 
          -1.9891787131e+00 8.6786106238e-05 0.0000000000e+00 
          -2.0051676009e+00 1.0105799968e-04 0.0000000000e+00 
          -2.0190300953e+00 7.8620528897e-05 0.0000000000e+00 
          -2.0307536965e+00 2.2131887558e-05 0.0000000000e+00 
          -2.0403457947e+00 1.2760970417e-05 0.0000000000e+00 
          -2.0477983453e+00 6.1687991193e-05 0.0000000000e+00 
          -2.0531213722e+00 8.0232068026e-05 0.0000000000e+00 
          -2.0563211914e+00 3.1287111425e-05 0.0000000000e+00 
          -5.7963050508e-01 6.3277608489e-06 0.0000000000e+00 
          -6.5055819208e-01 -1.9083768364e-06 0.0000000000e+00 
          -7.2037238508e-01 -1.6351626126e-05 0.0000000000e+00 
          -7.8901497011e-01 -9.7657618541e-06 0.0000000000e+00 
          -8.5638780960e-01 1.3073026958e-05 0.0000000000e+00 
          -9.2242645618e-01 9.1278108860e-06 0.0000000000e+00 
          -9.8707381479e-01 -3.2727176147e-05 0.0000000000e+00 
          -1.0502291241e+00 -4.9596170411e-05 0.0000000000e+00 
          -1.1118468581e+00 -1.4556447197e-06 0.0000000000e+00 
          -1.1718773097e+00 4.9500332103e-05 0.0000000000e+00 
          -1.2302361111e+00 1.4925758346e-05 0.0000000000e+00 
          -1.2868814077e+00 -6.5024247202e-05 0.0000000000e+00 
          -1.3417588267e+00 1.4190790624e-05 0.0000000000e+00 
          -1.3948095811e+00 3.4742129394e-05 0.0000000000e+00 
          -1.4460031589e+00 -3.8317680609e-05 0.0000000000e+00 
          -1.4952955949e+00 1.1437210746e-04 0.0000000000e+00 
          -1.5426463341e+00 -9.2375103530e-05 0.0000000000e+00 
          -1.5880367452e+00 1.5020016846e-04 0.0000000000e+00 
          -1.6314019397e+00 -2.7949820972e-05 0.0000000000e+00 
          -1.6727449035e+00 -2.9195018971e-05 0.0000000000e+00 
          -1.7120494108e+00 1.7592730193e-04 0.0000000000e+00 
          -1.7492654112e+00 -5.0093808317e-05 0.0000000000e+00 
          -1.7844019730e+00 1.3413222008e-04 0.0000000000e+00 
          -1.8174307626e+00 -1.1441244696e-05 0.0000000000e+00 
          -1.8483554860e+00 8.4501640972e-05 0.0000000000e+00 
          -1.8771657384e+00 7.9846269618e-05 0.0000000000e+00 
          -1.9038249223e+00 9.7583445220e-06 0.0000000000e+00 
          -1.9283679296e+00 8.1165114642e-05 0.0000000000e+00 
          -1.9507779281e+00 1.1533118289e-04 0.0000000000e+00 
          -1.9710434246e+00 9.4085189072e-05 0.0000000000e+00 
          -1.9891787131e+00 8.6786106238e-05 0.0000000000e+00 
          -2.0051676009e+00 1.0105799968e-04 0.0000000000e+00 
          -2.0190300953e+00 7.8620528897e-05 0.0000000000e+00 
          -2.0307536965e+00 2.2131887558e-05 0.0000000000e+00 
          -2.0403457947e+00 1.2760970417e-05 0.0000000000e+00 
          -2.0477983453e+00 6.1687991193e-05 0.0000000000e+00 
          -2.0531213722e+00 8.0232068026e-05 0.0000000000e+00 
          -2.0563211914e+00 3.1287111425e-05 0.0000000000e+00 
        </DataArray>
        <DataArray type="Float64" Name="Reaction" NumberOfComponents="3" format="ascii">
          0.0000000000e+00 0.0000000000e+00 0.0000000000e+00 
          0.0000000000e+00 0.0000000000e+00 0.0000000000e+00 
          0.0000000000e+00 0.0000000000e+00 0.0000000000e+00 
          0.0000000000e+00 0.0000000000e+00 0.0000000000e+00 
          0.0000000000e+00 0.0000000000e+00 0.0000000000e+00 
          0.0000000000e+00 0.0000000000e+00 0.0000000000e+00 
          0.0000000000e+00 0.0000000000e+00 0.0000000000e+00 
          0.0000000000e+00 0.0000000000e+00 0.0000000000e+00 
          0.0000000000e+00 0.0000000000e+00 0.0000000000e+00 
          0.0000000000e+00 0.0000000000e+00 0.0000000000e+00 
          0.0000000000e+00 0.0000000000e+00 0.0000000000e+00 
          0.0000000000e+00 0.0000000000e+00 0.0000000000e+00 
          0.0000000000e+00 0.0000000000e+00 0.0000000000e+00 
          0.0000000000e+00 0.0000000000e+00 0.0000000000e+00 
          0.0000000000e+00 0.0000000000e+00 0.0000000000e+00 
          0.0000000000e+00 0.0000000000e+00 0.0000000000e+00 
          0.0000000000e+00 0.0000000000e+00 0.0000000000e+00 
          0.0000000000e+00 0.0000000000e+00 0.0000000000e+00 
          0.0000000000e+00 0.0000000000e+00 0.0000000000e+00 
          0.0000000000e+00 0.0000000000e+00 0.0000000000e+00 
          0.0000000000e+00 0.0000000000e+00 0.0000000000e+00 
          0.0000000000e+00 0.0000000000e+00 0.0000000000e+00 
          0.0000000000e+00 0.0000000000e+00 0.0000000000e+00 
          0.0000000000e+00 0.0000000000e+00 0.0000000000e+00 
          0.0000000000e+00 0.0000000000e+00 0.0000000000e+00 
          0.0000000000e+00 0.0000000000e+00 0.0000000000e+00 
          0.0000000000e+00 0.0000000000e+00 0.0000000000e+00 
          0.0000000000e+00 0.0000000000e+00 0.0000000000e+00 
          0.0000000000e+00 0.0000000000e+00 0.0000000000e+00 
          0.0000000000e+00 0.0000000000e+00 0.0000000000e+00 
          0.0000000000e+00 0.0000000000e+00 0.0000000000e+00 
          0.0000000000e+00 0.0000000000e+00 0.0000000000e+00 
          0.0000000000e+00 0.0000000000e+00 0.0000000000e+00 
          0.0000000000e+00 0.0000000000e+00 0.0000000000e+00 
          0.0000000000e+00 0.0000000000e+00 0.0000000000e+00 
          0.0000000000e+00 0.0000000000e+00 0.0000000000e+00 
          0.0000000000e+00 0.0000000000e+00 0.0000000000e+00 
          0.0000000000e+00 0.0000000000e+00 0.0000000000e+00 
          0.0000000000e+00 0.0000000000e+00 0.0000000000e+00 
          0.0000000000e+00 0.0000000000e+00 0.0000000000e+00 
          0.0000000000e+00 0.0000000000e+00 0.0000000000e+00 
          0.0000000000e+00 0.0000000000e+00 0.0000000000e+00 
          0.0000000000e+00 0.0000000000e+00 0.0000000000e+00 
          0.0000000000e+00 0.0000000000e+00 0.0000000000e+00 
          0.0000000000e+00 0.0000000000e+00 0.0000000000e+00 
          0.0000000000e+00 0.0000000000e+00 0.0000000000e+00 
          0.0000000000e+00 0.0000000000e+00 0.0000000000e+00 
          0.0000000000e+00 0.0000000000e+00 0.0000000000e+00 
          0.0000000000e+00 0.0000000000e+00 0.0000000000e+00 
          0.0000000000e+00 0.0000000000e+00 0.0000000000e+00 
          0.0000000000e+00 0.0000000000e+00 0.0000000000e+00 
          0.0000000000e+00 0.0000000000e+00 0.0000000000e+00 
          0.0000000000e+00 0.0000000000e+00 0.0000000000e+00 
          0.0000000000e+00 0.0000000000e+00 0.0000000000e+00 
          0.0000000000e+00 0.0000000000e+00 0.0000000000e+00 
          0.0000000000e+00 0.0000000000e+00 0.0000000000e+00 
          0.0000000000e+00 0.0000000000e+00 0.0000000000e+00 
          0.0000000000e+00 0.0000000000e+00 0.0000000000e+00 
          0.0000000000e+00 0.0000000000e+00 0.0000000000e+00 
          0.0000000000e+00 0.0000000000e+00 0.0000000000e+00 
          0.0000000000e+00 0.0000000000e+00 0.0000000000e+00 
          0.0000000000e+00 0.0000000000e+00 0.0000000000e+00 
          0.0000000000e+00 0.0000000000e+00 0.0000000000e+00 
          0.0000000000e+00 0.0000000000e+00 0.0000000000e+00 
          0.0000000000e+00 0.0000000000e+00 0.0000000000e+00 
          0.0000000000e+00 0.0000000000e+00 0.0000000000e+00 
          0.0000000000e+00 0.0000000000e+00 0.0000000000e+00 
          0.0000000000e+00 0.0000000000e+00 0.0000000000e+00 
          0.0000000000e+00 0.0000000000e+00 0.0000000000e+00 
          0.0000000000e+00 0.0000000000e+00 0.0000000000e+00 
          0.0000000000e+00 0.0000000000e+00 0.0000000000e+00 
          0.0000000000e+00 0.0000000000e+00 0.0000000000e+00 
          0.0000000000e+00 0.0000000000e+00 0.0000000000e+00 
          0.0000000000e+00 0.0000000000e+00 0.0000000000e+00 
          0.0000000000e+00 0.0000000000e+00 0.0000000000e+00 
          0.0000000000e+00 0.0000000000e+00 0.0000000000e+00 
          0.0000000000e+00 0.0000000000e+00 0.0000000000e+00 
          0.0000000000e+00 0.0000000000e+00 0.0000000000e+00 
          0.0000000000e+00 0.0000000000e+00 0.0000000000e+00 
          0.0000000000e+00 0.0000000000e+00 0.0000000000e+00 
          0.0000000000e+00 0.0000000000e+00 0.0000000000e+00 
          0.0000000000e+00 0.0000000000e+00 0.0000000000e+00 
        </DataArray>
      </PointData>
      <CellData>
        <DataArray type="Int64" Name="ElementTag" format="ascii">
          0
        </DataArray>
      </CellData>
    </Piece>
  </UnstructuredGrid>
</VTKFile>
