<?xml version="1.0"?>
<VTKFile type="UnstructuredGrid" version="1.0" byte_order="LittleEndian" compressor="vtkZLibDataCompressor">
  <UnstructuredGrid>
    <Piece NumberOfPoints="82" NumberOfCells="1">
      <Points>
        <DataArray type="Float64" Name="Points" NumberOfComponents="3" format="ascii">
          0.0000000000e+00 0.0000000000e+00 0.0000000000e+00 
          2.5000000000e-01 0.0000000000e+00 0.0000000000e+00 
          2.5000000000e-01 3.0000000000e+01 0.0000000000e+00 
          0.0000000000e+00 3.0000000000e+01 0.0000000000e+00 
          0.0000000000e+00 -5.0000000000e+00 0.0000000000e+00 
          2.5000000000e-01 -5.0000000000e+00 0.0000000000e+00 
          2.5000000000e-01 7.6923100000e-01 0.0000000000e+00 
          2.5000000000e-01 1.5384620000e+00 0.0000000000e+00 
          2.5000000000e-01 2.3076920000e+00 0.0000000000e+00 
          2.5000000000e-01 3.0769230000e+00 0.0000000000e+00 
          2.5000000000e-01 3.8461540000e+00 0.0000000000e+00 
          2.5000000000e-01 4.6153850000e+00 0.0000000000e+00 
          2.5000000000e-01 5.3846150000e+00 0.0000000000e+00 
          2.5000000000e-01 6.1538460000e+00 0.0000000000e+00 
          2.5000000000e-01 6.9230770000e+00 0.0000000000e+00 
          2.5000000000e-01 7.6923080000e+00 0.0000000000e+00 
          2.5000000000e-01 8.4615380000e+00 0.0000000000e+00 
          2.5000000000e-01 9.2307690000e+00 0.0000000000e+00 
          2.5000000000e-01 1.0000000000e+01 0.0000000000e+00 
          2.5000000000e-01 1.0769231000e+01 0.0000000000e+00 
          2.5000000000e-01 1.1538462000e+01 0.0000000000e+00 
          2.5000000000e-01 1.2307692000e+01 0.0000000000e+00 
          2.5000000000e-01 1.3076923000e+01 0.0000000000e+00 
          2.5000000000e-01 1.3846154000e+01 0.0000000000e+00 
          2.5000000000e-01 1.4615385000e+01 0.0000000000e+00 
          2.5000000000e-01 1.5384615000e+01 0.0000000000e+00 
          2.5000000000e-01 1.6153846000e+01 0.0000000000e+00 
          2.5000000000e-01 1.6923077000e+01 0.0000000000e+00 
          2.5000000000e-01 1.7692308000e+01 0.0000000000e+00 
          2.5000000000e-01 1.8461538000e+01 0.0000000000e+00 
          2.5000000000e-01 1.9230769000e+01 0.0000000000e+00 
          2.5000000000e-01 2.0000000000e+01 0.0000000000e+00 
          2.5000000000e-01 2.0769231000e+01 0.0000000000e+00 
          2.5000000000e-01 2.1538462000e+01 0.0000000000e+00 
          2.5000000000e-01 2.2307692000e+01 0.0000000000e+00 
          2.5000000000e-01 2.3076923000e+01 0.0000000000e+00 
          2.5000000000e-01 2.3846154000e+01 0.0000000000e+00 
          2.5000000000e-01 2.4615385000e+01 0.0000000000e+00 
          2.5000000000e-01 2.5384615000e+01 0.0000000000e+00 
          2.5000000000e-01 2.6153846000e+01 0.0000000000e+00 
          2.5000000000e-01 2.6923077000e+01 0.0000000000e+00 
          2.5000000000e-01 2.7692308000e+01 0.0000000000e+00 
          2.5000000000e-01 2.8461538000e+01 0.0000000000e+00 
          2.5000000000e-01 2.9230769000e+01 0.0000000000e+00 
          0.0000000000e+00 7.6923100000e-01 0.0000000000e+00 
          0.0000000000e+00 1.5384620000e+00 0.0000000000e+00 
          0.0000000000e+00 2.3076920000e+00 0.0000000000e+00 
          0.0000000000e+00 3.0769230000e+00 0.0000000000e+00 
          0.0000000000e+00 3.8461540000e+00 0.0000000000e+00 
          0.0000000000e+00 4.6153850000e+00 0.0000000000e+00 
          0.0000000000e+00 5.3846150000e+00 0.0000000000e+00 
          0.0000000000e+00 6.1538460000e+00 0.0000000000e+00 
          0.0000000000e+00 6.9230770000e+00 0.0000000000e+00 
          0.0000000000e+00 7.6923080000e+00 0.0000000000e+00 
          0.0000000000e+00 8.4615380000e+00 0.0000000000e+00 
          0.0000000000e+00 9.2307690000e+00 0.0000000000e+00 
          0.0000000000e+00 1.0000000000e+01 0.0000000000e+00 
          0.0000000000e+00 1.0769231000e+01 0.0000000000e+00 
          0.0000000000e+00 1.1538462000e+01 0.0000000000e+00 
          0.0000000000e+00 1.2307692000e+01 0.0000000000e+00 
          0.0000000000e+00 1.3076923000e+01 0.0000000000e+00 
          0.0000000000e+00 1.3846154000e+01 0.0000000000e+00 
          0.0000000000e+00 1.4615385000e+01 0.0000000000e+00 
          0.0000000000e+00 1.5384615000e+01 0.0000000000e+00 
          0.0000000000e+00 1.6153846000e+01 0.0000000000e+00 
          0.0000000000e+00 1.6923077000e+01 0.0000000000e+00 
          0.0000000000e+00 1.7692308000e+01 0.0000000000e+00 
          0.0000000000e+00 1.8461538000e+01 0.0000000000e+00 
          0.0000000000e+00 1.9230769000e+01 0.0000000000e+00 
          0.0000000000e+00 2.0000000000e+01 0.0000000000e+00 
          0.0000000000e+00 2.0769231000e+01 0.0000000000e+00 
          0.0000000000e+00 2.1538462000e+01 0.0000000000e+00 
          0.0000000000e+00 2.2307692000e+01 0.0000000000e+00 
          0.0000000000e+00 2.3076923000e+01 0.0000000000e+00 
          0.0000000000e+00 2.3846154000e+01 0.0000000000e+00 
          0.0000000000e+00 2.4615385000e+01 0.0000000000e+00 
          0.0000000000e+00 2.5384615000e+01 0.0000000000e+00 
          0.0000000000e+00 2.6153846000e+01 0.0000000000e+00 
          0.0000000000e+00 2.6923077000e+01 0.0000000000e+00 
          0.0000000000e+00 2.7692308000e+01 0.0000000000e+00 
          0.0000000000e+00 2.8461538000e+01 0.0000000000e+00 
          0.0000000000e+00 2.9230769000e+01 0.0000000000e+00 
        </DataArray>
      </Points>
      <Cells>
        <DataArray type="Int64" Name="connectivity" format="ascii">
          0
          1
          2
          3
          4
          5
          6
          7
          8
          9
          10
          11
          12
          13
          14
          15
          16
          17
          18
          19
          20
          21
          22
          23
          24
          25
          26
          27
          28
          29
          30
          31
          32
          33
          34
          35
          36
          37
          38
          39
          40
          41
          42
          43
          44
          45
          46
          47
          48
          49
          50
          51
          52
          53
          54
          55
          56
          57
          58
          59
          60
          61
          62
          63
          64
          65
          66
          67
          68
          69
          70
          71
          72
          73
          74
          75
          76
          77
          78
          79
          80
          81
        </DataArray>
        <DataArray type="Int64" Name="offsets" format="ascii">
          82
        </DataArray>
        <DataArray type="Int64" Name="types" format="ascii">
          2
        </DataArray>
      </Cells>
      <PointData>
        <DataArray type="Int64" Name="NodeTag" format="ascii">
          1
          2
          3
          4
          5
          6
          7
          8
          9
          10
          11
          12
          13
          14
          15
          16
          17
          18
          19
          20
          21
          22
          23
          24
          25
          26
          27
          28
          29
          30
          31
          32
          33
          34
          35
          36
          37
          38
          39
          40
          41
          42
          43
          44
          45
          46
          47
          48
          49
          50
          51
          52
          53
          54
          55
          56
          57
          58
          59
          60
          61
          62
          63
          64
          65
          66
          67
          68
          69
          70
          71
          72
          73
          74
          75
          76
          77
          78
          79
          80
          81
          82
        </DataArray>
        <DataArray type="Float64" Name="Velocity" NumberOfComponents="3" format="ascii">
          -6.8846496356e-04 -7.7838605497e-05 0.0000000000e+00 
          -6.8846496356e-04 -7.7838605497e-05 0.0000000000e+00 
          -2.6624644316e-04 -7.7838339520e-05 0.0000000000e+00 
          -2.6624644316e-04 -7.7838339520e-05 0.0000000000e+00 
          0.0000000000e+00 0.0000000000e+00 0.0000000000e+00 
          0.0000000000e+00 0.0000000000e+00 0.0000000000e+00 
          -6.8034226960e-04 -7.7816259485e-05 0.0000000000e+00 
          -6.7119945219e-04 -7.7858796697e-05 0.0000000000e+00 
          -6.6108758096e-04 -7.7813415671e-05 0.0000000000e+00 
          -6.5011625193e-04 -7.7871791724e-05 0.0000000000e+00 
          -6.3834984421e-04 -7.7774408334e-05 0.0000000000e+00 
          -6.2585355741e-04 -7.7893496154e-05 0.0000000000e+00 
          -6.1274343707e-04 -7.7790578255e-05 0.0000000000e+00 
          -5.9906329616e-04 -7.7861216641e-05 0.0000000000e+00 
          -5.8490754128e-04 -7.7816875624e-05 0.0000000000e+00 
          -5.7036720878e-04 -7.7817045887e-05 0.0000000000e+00 
          -5.5548883061e-04 -7.7886147856e-05 0.0000000000e+00 
          -5.4038174085e-04 -7.7737309084e-05 0.0000000000e+00 
          -5.2510301768e-04 -7.7940772339e-05 0.0000000000e+00 
          -5.0972474539e-04 -7.7780797764e-05 0.0000000000e+00 
          -4.9433918280e-04 -7.7801014966e-05 0.0000000000e+00 
          -4.7899006206e-04 -7.7912583378e-05 0.0000000000e+00 
          -4.6377045299e-04 -7.7770641189e-05 0.0000000000e+00 
          -4.4872981194e-04 -7.7845768537e-05 0.0000000000e+00 
          -4.3394181454e-04 -7.7859400466e-05 0.0000000000e+00 
          -4.1946674065e-04 -7.7810357882e-05 0.0000000000e+00 
          -4.0536222874e-04 -7.7849543842e-05 0.0000000000e+00 
          -3.9168991402e-04 -7.7836892135e-05 0.0000000000e+00 
          -3.7849410539e-04 -7.7825882518e-05 0.0000000000e+00 
          -3.6584346445e-04 -7.7842937486e-05 0.0000000000e+00 
          -3.5376662764e-04 -7.7839088279e-05 0.0000000000e+00 
          -3.4232945100e-04 -7.7833109601e-05 0.0000000000e+00 
          -3.3155763629e-04 -7.7833386487e-05 0.0000000000e+00 
          -3.2149852461e-04 -7.7834836104e-05 0.0000000000e+00 
          -3.1219907064e-04 -7.7838645860e-05 0.0000000000e+00 
          -3.0366843854e-04 -7.7838964137e-05 0.0000000000e+00 
          -2.9596726048e-04 -7.7835217607e-05 0.0000000000e+00 
          -2.8909947836e-04 -7.7834129096e-05 0.0000000000e+00 
          -2.8309208468e-04 -7.7837001916e-05 0.0000000000e+00 
          -2.7799017830e-04 -7.7838536964e-05 0.0000000000e+00 
          -2.7377415492e-04 -7.7835215422e-05 0.0000000000e+00 
          -2.7048826989e-04 -7.7830596178e-05 0.0000000000e+00 
          -2.6813286070e-04 -7.7830705810e-05 0.0000000000e+00 
          -2.6671161634e-04 -7.7835436877e-05 0.0000000000e+00 
          -6.8034226960e-04 -7.7816259485e-05 0.0000000000e+00 
          -6.7119945219e-04 -7.7858796697e-05 0.0000000000e+00 
          -6.6108758096e-04 -7.7813415671e-05 0.0000000000e+00 
          -6.5011625193e-04 -7.7871791724e-05 0.0000000000e+00 
          -6.3834984421e-04 -7.7774408334e-05 0.0000000000e+00 
          -6.2585355741e-04 -7.7893496154e-05 0.0000000000e+00 
          -6.1274343707e-04 -7.7790578255e-05 0.0000000000e+00 
          -5.9906329616e-04 -7.7861216641e-05 0.0000000000e+00 
          -5.8490754128e-04 -7.7816875624e-05 0.0000000000e+00 
          -5.7036720878e-04 -7.7817045887e-05 0.0000000000e+00 
          -5.5548883061e-04 -7.7886147856e-05 0.0000000000e+00 
          -5.4038174085e-04 -7.7737309084e-05 0.0000000000e+00 
          -5.2510301768e-04 -7.7940772339e-05 0.0000000000e+00 
          -5.0972474539e-04 -7.7780797764e-05 0.0000000000e+00 
          -4.9433918280e-04 -7.7801014966e-05 0.0000000000e+00 
          -4.7899006206e-04 -7.7912583378e-05 0.0000000000e+00 
          -4.6377045299e-04 -7.7770641189e-05 0.0000000000e+00 
          -4.4872981194e-04 -7.7845768537e-05 0.0000000000e+00 
          -4.3394181454e-04 -7.7859400466e-05 0.0000000000e+00 
          -4.1946674065e-04 -7.7810357882e-05 0.0000000000e+00 
          -4.0536222874e-04 -7.7849543842e-05 0.0000000000e+00 
          -3.9168991402e-04 -7.7836892135e-05 0.0000000000e+00 
          -3.7849410539e-04 -7.7825882518e-05 0.0000000000e+00 
          -3.6584346445e-04 -7.7842937486e-05 0.0000000000e+00 
          -3.5376662764e-04 -7.7839088279e-05 0.0000000000e+00 
          -3.4232945100e-04 -7.7833109601e-05 0.0000000000e+00 
          -3.3155763629e-04 -7.7833386487e-05 0.0000000000e+00 
          -3.2149852461e-04 -7.7834836104e-05 0.0000000000e+00 
          -3.1219907064e-04 -7.7838645860e-05 0.0000000000e+00 
          -3.0366843854e-04 -7.7838964137e-05 0.0000000000e+00 
          -2.9596726048e-04 -7.7835217607e-05 0.0000000000e+00 
          -2.8909947836e-04 -7.7834129096e-05 0.0000000000e+00 
          -2.8309208468e-04 -7.7837001916e-05 0.0000000000e+00 
          -2.7799017830e-04 -7.7838536964e-05 0.0000000000e+00 
          -2.7377415492e-04 -7.7835215422e-05 0.0000000000e+00 
          -2.7048826989e-04 -7.7830596178e-05 0.0000000000e+00 
          -2.6813286070e-04 -7.7830705810e-05 0.0000000000e+00 
          -2.6671161634e-04 -7.7835436877e-05 0.0000000000e+00 
        </DataArray>
        <DataArray type="Float64" Name="Displacement" NumberOfComponents="3" format="ascii">
          1.1610660238e-05 -4.2787754831e-04 0.0000000000e+00 
          1.1610660238e-05 -4.2787754831e-04 0.0000000000e+00 
          -2.7136110582e-04 -4.5145537637e-04 0.0000000000e+00 
          -2.7136110582e-04 -4.5145537637e-04 0.0000000000e+00 
          0.0000000000e+00 0.0000000000e+00 0.0000000000e+00 
          0.0000000000e+00 0.0000000000e+00 0.0000000000e+00 
          1.8006336818e-07 -4.2907119716e-04 0.0000000000e+00 
          -1.1227140100e-05 -4.3023379411e-04 0.0000000000e+00 
          -2.2592640308e-05 -4.3136540422e-04 0.0000000000e+00 
          -3.3898307512e-05 -4.3246602671e-04 0.0000000000e+00 
          -4.5126069702e-05 -4.3353564158e-04 0.0000000000e+00 
          -5.6258020779e-05 -4.3457426542e-04 0.0000000000e+00 
          -6.7276418039e-05 -4.3558176429e-04 0.0000000000e+00 
          -7.8163742367e-05 -4.3655851704e-04 0.0000000000e+00 
          -8.8902652251e-05 -4.3750395923e-04 0.0000000000e+00 
          -9.9476072280e-05 -4.3841870024e-04 0.0000000000e+00 
          -1.0986716718e-04 -4.3930208809e-04 0.0000000000e+00 
          -1.2005943109e-04 -4.4015482926e-04 0.0000000000e+00 
          -1.3003663043e-04 -4.4097639908e-04 0.0000000000e+00 
          -1.3978285975e-04 -4.4176678749e-04 0.0000000000e+00 
          -1.4928261437e-04 -4.4252659886e-04 0.0000000000e+00 
          -1.5852073821e-04 -4.4325501240e-04 0.0000000000e+00 
          -1.6748245184e-04 -4.4395258295e-04 0.0000000000e+00 
          -1.7615348924e-04 -4.4461925142e-04 0.0000000000e+00 
          -1.8451993070e-04 -4.4525469857e-04 0.0000000000e+00 
          -1.9256837995e-04 -4.4585929973e-04 0.0000000000e+00 
          -2.0028595387e-04 -4.4643289302e-04 0.0000000000e+00 
          -2.0766020817e-04 -4.4697541461e-04 0.0000000000e+00 
          -2.1467932321e-04 -4.4748698155e-04 0.0000000000e+00 
          -2.2133194708e-04 -4.4796753082e-04 0.0000000000e+00 
          -2.2760738291e-04 -4.4841707460e-04 0.0000000000e+00 
          -2.3349546484e-04 -4.4883563081e-04 0.0000000000e+00 
          -2.3898668394e-04 -4.4922316993e-04 0.0000000000e+00 
          -2.4407212586e-04 -4.4957969926e-04 0.0000000000e+00 
          -2.4874352872e-04 -4.4990523207e-04 0.0000000000e+00 
          -2.5299334460e-04 -4.5019976672e-04 0.0000000000e+00 
          -2.5681461813e-04 -4.5046329784e-04 0.0000000000e+00 
          -2.6020114107e-04 -4.5069582111e-04 0.0000000000e+00 
          -2.6314740276e-04 -4.5089733647e-04 0.0000000000e+00 
          -2.6564857838e-04 -4.5106784818e-04 0.0000000000e+00 
          -2.6770060337e-04 -4.5120735777e-04 0.0000000000e+00 
          -2.6930010301e-04 -4.5131586524e-04 0.0000000000e+00 
          -2.7044447668e-04 -4.5139337082e-04 0.0000000000e+00 
          -2.7113186002e-04 -4.5143987483e-04 0.0000000000e+00 
          1.8006336818e-07 -4.2907119716e-04 0.0000000000e+00 
          -1.1227140100e-05 -4.3023379411e-04 0.0000000000e+00 
          -2.2592640308e-05 -4.3136540422e-04 0.0000000000e+00 
          -3.3898307512e-05 -4.3246602671e-04 0.0000000000e+00 
          -4.5126069702e-05 -4.3353564158e-04 0.0000000000e+00 
          -5.6258020779e-05 -4.3457426542e-04 0.0000000000e+00 
          -6.7276418039e-05 -4.3558176429e-04 0.0000000000e+00 
          -7.8163742367e-05 -4.3655851704e-04 0.0000000000e+00 
          -8.8902652251e-05 -4.3750395923e-04 0.0000000000e+00 
          -9.9476072280e-05 -4.3841870024e-04 0.0000000000e+00 
          -1.0986716718e-04 -4.3930208809e-04 0.0000000000e+00 
          -1.2005943109e-04 -4.4015482926e-04 0.0000000000e+00 
          -1.3003663043e-04 -4.4097639908e-04 0.0000000000e+00 
          -1.3978285975e-04 -4.4176678749e-04 0.0000000000e+00 
          -1.4928261437e-04 -4.4252659886e-04 0.0000000000e+00 
          -1.5852073821e-04 -4.4325501240e-04 0.0000000000e+00 
          -1.6748245184e-04 -4.4395258295e-04 0.0000000000e+00 
          -1.7615348924e-04 -4.4461925142e-04 0.0000000000e+00 
          -1.8451993070e-04 -4.4525469857e-04 0.0000000000e+00 
          -1.9256837995e-04 -4.4585929973e-04 0.0000000000e+00 
          -2.0028595387e-04 -4.4643289302e-04 0.0000000000e+00 
          -2.0766020817e-04 -4.4697541461e-04 0.0000000000e+00 
          -2.1467932321e-04 -4.4748698155e-04 0.0000000000e+00 
          -2.2133194708e-04 -4.4796753082e-04 0.0000000000e+00 
          -2.2760738291e-04 -4.4841707460e-04 0.0000000000e+00 
          -2.3349546484e-04 -4.4883563081e-04 0.0000000000e+00 
          -2.3898668394e-04 -4.4922316993e-04 0.0000000000e+00 
          -2.4407212586e-04 -4.4957969926e-04 0.0000000000e+00 
          -2.4874352872e-04 -4.4990523207e-04 0.0000000000e+00 
          -2.5299334460e-04 -4.5019976672e-04 0.0000000000e+00 
          -2.5681461813e-04 -4.5046329784e-04 0.0000000000e+00 
          -2.6020114107e-04 -4.5069582111e-04 0.0000000000e+00 
          -2.6314740276e-04 -4.5089733647e-04 0.0000000000e+00 
          -2.6564857838e-04 -4.5106784818e-04 0.0000000000e+00 
          -2.6770060337e-04 -4.5120735777e-04 0.0000000000e+00 
          -2.6930010301e-04 -4.5131586524e-04 0.0000000000e+00 
          -2.7044447668e-04 -4.5139337082e-04 0.0000000000e+00 
          -2.7113186002e-04 -4.5143987483e-04 0.0000000000e+00 
        </DataArray>
        <DataArray type="Float64" Name="Acceleration" NumberOfComponents="3" format="ascii">
          4.5582905624e-04 1.3357260839e-06 0.0000000000e+00 
          4.5582905624e-04 1.3357260839e-06 0.0000000000e+00 
          4.1310997634e-02 -5.8720676943e-07 0.0000000000e+00 
          4.1310997634e-02 -5.8720676943e-07 0.0000000000e+00 
          0.0000000000e+00 0.0000000000e+00 0.0000000000e+00 
          0.0000000000e+00 0.0000000000e+00 0.0000000000e+00 
          2.1077916788e-03 8.2086813895e-06 0.0000000000e+00 
          3.7562172478e-03 -3.7737477469e-06 0.0000000000e+00 
          5.3924065838e-03 -3.1035752014e-06 0.0000000000e+00 
          7.0193956751e-03 2.2883830753e-07 0.0000000000e+00 
          8.6327703888e-03 -2.7560028000e-06 0.0000000000e+00 
          1.0230139280e-02 2.1145312206e-05 0.0000000000e+00 
          1.1811228319e-02 -4.6652988945e-05 0.0000000000e+00 
          1.3372434493e-02 5.4821617667e-05 0.0000000000e+00 
          1.4910962697e-02 -5.4989796945e-05 0.0000000000e+00 
          1.6426648217e-02 6.2296368607e-05 0.0000000000e+00 
          1.7916292393e-02 -6.4603214035e-05 0.0000000000e+00 
          1.9377743797e-02 2.9737408661e-05 0.0000000000e+00 
          2.0810854631e-02 3.1549894042e-05 0.0000000000e+00 
          2.2207856935e-02 -7.7362589729e-05 0.0000000000e+00 
          2.3572383256e-02 7.0380821917e-05 0.0000000000e+00 
          2.4906203773e-02 -2.9259775981e-05 0.0000000000e+00 
          2.6190502606e-02 -1.8787383083e-05 0.0000000000e+00 
          2.7444695609e-02 3.8740737749e-05 0.0000000000e+00 
          2.8650801936e-02 -2.9035110341e-05 0.0000000000e+00 
          2.9813482814e-02 4.2321761790e-07 0.0000000000e+00 
          3.0933776023e-02 1.1778134356e-05 0.0000000000e+00 
          3.1998749335e-02 -9.3132997243e-06 0.0000000000e+00 
          3.3020819289e-02 1.9330712806e-06 0.0000000000e+00 
          3.3986188773e-02 -3.7954676291e-08 0.0000000000e+00 
          3.4901351624e-02 -3.3811700871e-06 0.0000000000e+00 
          3.5758124250e-02 1.9390205864e-06 0.0000000000e+00 
          3.6561325879e-02 6.2047757393e-07 0.0000000000e+00 
          3.7305214186e-02 -1.8396688332e-06 0.0000000000e+00 
          3.7986390414e-02 -1.3946934699e-06 0.0000000000e+00 
          3.8612512778e-02 -5.0575338378e-07 0.0000000000e+00 
          3.9171887150e-02 2.7242073342e-07 0.0000000000e+00 
          3.9668087722e-02 2.3921183528e-07 0.0000000000e+00 
          4.0103505128e-02 -4.3254350784e-07 0.0000000000e+00 
          4.0469359815e-02 -7.6021318834e-07 0.0000000000e+00 
          4.0773426879e-02 -7.5972010544e-07 0.0000000000e+00 
          4.1007640922e-02 -8.1507245059e-07 0.0000000000e+00 
          4.1175892416e-02 -8.3888833702e-07 0.0000000000e+00 
          4.1279097682e-02 -6.9584875273e-07 0.0000000000e+00 
          2.1077916788e-03 8.2086813895e-06 0.0000000000e+00 
          3.7562172478e-03 -3.7737477469e-06 0.0000000000e+00 
          5.3924065838e-03 -3.1035752014e-06 0.0000000000e+00 
          7.0193956751e-03 2.2883830753e-07 0.0000000000e+00 
          8.6327703888e-03 -2.7560028000e-06 0.0000000000e+00 
          1.0230139280e-02 2.1145312206e-05 0.0000000000e+00 
          1.1811228319e-02 -4.6652988945e-05 0.0000000000e+00 
          1.3372434493e-02 5.4821617667e-05 0.0000000000e+00 
          1.4910962697e-02 -5.4989796945e-05 0.0000000000e+00 
          1.6426648217e-02 6.2296368607e-05 0.0000000000e+00 
          1.7916292393e-02 -6.4603214035e-05 0.0000000000e+00 
          1.9377743797e-02 2.9737408661e-05 0.0000000000e+00 
          2.0810854631e-02 3.1549894042e-05 0.0000000000e+00 
          2.2207856935e-02 -7.7362589729e-05 0.0000000000e+00 
          2.3572383256e-02 7.0380821917e-05 0.0000000000e+00 
          2.4906203773e-02 -2.9259775981e-05 0.0000000000e+00 
          2.6190502606e-02 -1.8787383083e-05 0.0000000000e+00 
          2.7444695609e-02 3.8740737749e-05 0.0000000000e+00 
          2.8650801936e-02 -2.9035110341e-05 0.0000000000e+00 
          2.9813482814e-02 4.2321761790e-07 0.0000000000e+00 
          3.0933776023e-02 1.1778134356e-05 0.0000000000e+00 
          3.1998749335e-02 -9.3132997243e-06 0.0000000000e+00 
          3.3020819289e-02 1.9330712806e-06 0.0000000000e+00 
          3.3986188773e-02 -3.7954676291e-08 0.0000000000e+00 
          3.4901351624e-02 -3.3811700871e-06 0.0000000000e+00 
          3.5758124250e-02 1.9390205864e-06 0.0000000000e+00 
          3.6561325879e-02 6.2047757393e-07 0.0000000000e+00 
          3.7305214186e-02 -1.8396688332e-06 0.0000000000e+00 
          3.7986390414e-02 -1.3946934699e-06 0.0000000000e+00 
          3.8612512778e-02 -5.0575338378e-07 0.0000000000e+00 
          3.9171887150e-02 2.7242073342e-07 0.0000000000e+00 
          3.9668087722e-02 2.3921183528e-07 0.0000000000e+00 
          4.0103505128e-02 -4.3254350784e-07 0.0000000000e+00 
          4.0469359815e-02 -7.6021318834e-07 0.0000000000e+00 
          4.0773426879e-02 -7.5972010544e-07 0.0000000000e+00 
          4.1007640922e-02 -8.1507245059e-07 0.0000000000e+00 
          4.1175892416e-02 -8.3888833702e-07 0.0000000000e+00 
          4.1279097682e-02 -6.9584875273e-07 0.0000000000e+00 
        </DataArray>
        <DataArray type="Float64" Name="Reaction" NumberOfComponents="3" format="ascii">
          0.0000000000e+00 0.0000000000e+00 0.0000000000e+00 
          0.0000000000e+00 0.0000000000e+00 0.0000000000e+00 
          0.0000000000e+00 0.0000000000e+00 0.0000000000e+00 
          0.0000000000e+00 0.0000000000e+00 0.0000000000e+00 
          0.0000000000e+00 0.0000000000e+00 0.0000000000e+00 
          0.0000000000e+00 0.0000000000e+00 0.0000000000e+00 
          0.0000000000e+00 0.0000000000e+00 0.0000000000e+00 
          0.0000000000e+00 0.0000000000e+00 0.0000000000e+00 
          0.0000000000e+00 0.0000000000e+00 0.0000000000e+00 
          0.0000000000e+00 0.0000000000e+00 0.0000000000e+00 
          0.0000000000e+00 0.0000000000e+00 0.0000000000e+00 
          0.0000000000e+00 0.0000000000e+00 0.0000000000e+00 
          0.0000000000e+00 0.0000000000e+00 0.0000000000e+00 
          0.0000000000e+00 0.0000000000e+00 0.0000000000e+00 
          0.0000000000e+00 0.0000000000e+00 0.0000000000e+00 
          0.0000000000e+00 0.0000000000e+00 0.0000000000e+00 
          0.0000000000e+00 0.0000000000e+00 0.0000000000e+00 
          0.0000000000e+00 0.0000000000e+00 0.0000000000e+00 
          0.0000000000e+00 0.0000000000e+00 0.0000000000e+00 
          0.0000000000e+00 0.0000000000e+00 0.0000000000e+00 
          0.0000000000e+00 0.0000000000e+00 0.0000000000e+00 
          0.0000000000e+00 0.0000000000e+00 0.0000000000e+00 
          0.0000000000e+00 0.0000000000e+00 0.0000000000e+00 
          0.0000000000e+00 0.0000000000e+00 0.0000000000e+00 
          0.0000000000e+00 0.0000000000e+00 0.0000000000e+00 
          0.0000000000e+00 0.0000000000e+00 0.0000000000e+00 
          0.0000000000e+00 0.0000000000e+00 0.0000000000e+00 
          0.0000000000e+00 0.0000000000e+00 0.0000000000e+00 
          0.0000000000e+00 0.0000000000e+00 0.0000000000e+00 
          0.0000000000e+00 0.0000000000e+00 0.0000000000e+00 
          0.0000000000e+00 0.0000000000e+00 0.0000000000e+00 
          0.0000000000e+00 0.0000000000e+00 0.0000000000e+00 
          0.0000000000e+00 0.0000000000e+00 0.0000000000e+00 
          0.0000000000e+00 0.0000000000e+00 0.0000000000e+00 
          0.0000000000e+00 0.0000000000e+00 0.0000000000e+00 
          0.0000000000e+00 0.0000000000e+00 0.0000000000e+00 
          0.0000000000e+00 0.0000000000e+00 0.0000000000e+00 
          0.0000000000e+00 0.0000000000e+00 0.0000000000e+00 
          0.0000000000e+00 0.0000000000e+00 0.0000000000e+00 
          0.0000000000e+00 0.0000000000e+00 0.0000000000e+00 
          0.0000000000e+00 0.0000000000e+00 0.0000000000e+00 
          0.0000000000e+00 0.0000000000e+00 0.0000000000e+00 
          0.0000000000e+00 0.0000000000e+00 0.0000000000e+00 
          0.0000000000e+00 0.0000000000e+00 0.0000000000e+00 
          0.0000000000e+00 0.0000000000e+00 0.0000000000e+00 
          0.0000000000e+00 0.0000000000e+00 0.0000000000e+00 
          0.0000000000e+00 0.0000000000e+00 0.0000000000e+00 
          0.0000000000e+00 0.0000000000e+00 0.0000000000e+00 
          0.0000000000e+00 0.0000000000e+00 0.0000000000e+00 
          0.0000000000e+00 0.0000000000e+00 0.0000000000e+00 
          0.0000000000e+00 0.0000000000e+00 0.0000000000e+00 
          0.0000000000e+00 0.0000000000e+00 0.0000000000e+00 
          0.0000000000e+00 0.0000000000e+00 0.0000000000e+00 
          0.0000000000e+00 0.0000000000e+00 0.0000000000e+00 
          0.0000000000e+00 0.0000000000e+00 0.0000000000e+00 
          0.0000000000e+00 0.0000000000e+00 0.0000000000e+00 
          0.0000000000e+00 0.0000000000e+00 0.0000000000e+00 
          0.0000000000e+00 0.0000000000e+00 0.0000000000e+00 
          0.0000000000e+00 0.0000000000e+00 0.0000000000e+00 
          0.0000000000e+00 0.0000000000e+00 0.0000000000e+00 
          0.0000000000e+00 0.0000000000e+00 0.0000000000e+00 
          0.0000000000e+00 0.0000000000e+00 0.0000000000e+00 
          0.0000000000e+00 0.0000000000e+00 0.0000000000e+00 
          0.0000000000e+00 0.0000000000e+00 0.0000000000e+00 
          0.0000000000e+00 0.0000000000e+00 0.0000000000e+00 
          0.0000000000e+00 0.0000000000e+00 0.0000000000e+00 
          0.0000000000e+00 0.0000000000e+00 0.0000000000e+00 
          0.0000000000e+00 0.0000000000e+00 0.0000000000e+00 
          0.0000000000e+00 0.0000000000e+00 0.0000000000e+00 
          0.0000000000e+00 0.0000000000e+00 0.0000000000e+00 
          0.0000000000e+00 0.0000000000e+00 0.0000000000e+00 
          0.0000000000e+00 0.0000000000e+00 0.0000000000e+00 
          0.0000000000e+00 0.0000000000e+00 0.0000000000e+00 
          0.0000000000e+00 0.0000000000e+00 0.0000000000e+00 
          0.0000000000e+00 0.0000000000e+00 0.0000000000e+00 
          0.0000000000e+00 0.0000000000e+00 0.0000000000e+00 
          0.0000000000e+00 0.0000000000e+00 0.0000000000e+00 
          0.0000000000e+00 0.0000000000e+00 0.0000000000e+00 
          0.0000000000e+00 0.0000000000e+00 0.0000000000e+00 
          0.0000000000e+00 0.0000000000e+00 0.0000000000e+00 
          0.0000000000e+00 0.0000000000e+00 0.0000000000e+00 
          0.0000000000e+00 0.0000000000e+00 0.0000000000e+00 
        </DataArray>
      </PointData>
      <CellData>
        <DataArray type="Int64" Name="ElementTag" format="ascii">
          0
        </DataArray>
      </CellData>
    </Piece>
  </UnstructuredGrid>
</VTKFile>
