<?xml version="1.0"?>
<VTKFile type="UnstructuredGrid" version="1.0" byte_order="LittleEndian" compressor="vtkZLibDataCompressor">
  <UnstructuredGrid>
    <Piece NumberOfPoints="82" NumberOfCells="1">
      <Points>
        <DataArray type="Float64" Name="Points" NumberOfComponents="3" format="ascii">
          0.0000000000e+00 0.0000000000e+00 0.0000000000e+00 
          2.5000000000e-01 0.0000000000e+00 0.0000000000e+00 
          2.5000000000e-01 3.0000000000e+01 0.0000000000e+00 
          0.0000000000e+00 3.0000000000e+01 0.0000000000e+00 
          0.0000000000e+00 -5.0000000000e+00 0.0000000000e+00 
          2.5000000000e-01 -5.0000000000e+00 0.0000000000e+00 
          2.5000000000e-01 7.6923100000e-01 0.0000000000e+00 
          2.5000000000e-01 1.5384620000e+00 0.0000000000e+00 
          2.5000000000e-01 2.3076920000e+00 0.0000000000e+00 
          2.5000000000e-01 3.0769230000e+00 0.0000000000e+00 
          2.5000000000e-01 3.8461540000e+00 0.0000000000e+00 
          2.5000000000e-01 4.6153850000e+00 0.0000000000e+00 
          2.5000000000e-01 5.3846150000e+00 0.0000000000e+00 
          2.5000000000e-01 6.1538460000e+00 0.0000000000e+00 
          2.5000000000e-01 6.9230770000e+00 0.0000000000e+00 
          2.5000000000e-01 7.6923080000e+00 0.0000000000e+00 
          2.5000000000e-01 8.4615380000e+00 0.0000000000e+00 
          2.5000000000e-01 9.2307690000e+00 0.0000000000e+00 
          2.5000000000e-01 1.0000000000e+01 0.0000000000e+00 
          2.5000000000e-01 1.0769231000e+01 0.0000000000e+00 
          2.5000000000e-01 1.1538462000e+01 0.0000000000e+00 
          2.5000000000e-01 1.2307692000e+01 0.0000000000e+00 
          2.5000000000e-01 1.3076923000e+01 0.0000000000e+00 
          2.5000000000e-01 1.3846154000e+01 0.0000000000e+00 
          2.5000000000e-01 1.4615385000e+01 0.0000000000e+00 
          2.5000000000e-01 1.5384615000e+01 0.0000000000e+00 
          2.5000000000e-01 1.6153846000e+01 0.0000000000e+00 
          2.5000000000e-01 1.6923077000e+01 0.0000000000e+00 
          2.5000000000e-01 1.7692308000e+01 0.0000000000e+00 
          2.5000000000e-01 1.8461538000e+01 0.0000000000e+00 
          2.5000000000e-01 1.9230769000e+01 0.0000000000e+00 
          2.5000000000e-01 2.0000000000e+01 0.0000000000e+00 
          2.5000000000e-01 2.0769231000e+01 0.0000000000e+00 
          2.5000000000e-01 2.1538462000e+01 0.0000000000e+00 
          2.5000000000e-01 2.2307692000e+01 0.0000000000e+00 
          2.5000000000e-01 2.3076923000e+01 0.0000000000e+00 
          2.5000000000e-01 2.3846154000e+01 0.0000000000e+00 
          2.5000000000e-01 2.4615385000e+01 0.0000000000e+00 
          2.5000000000e-01 2.5384615000e+01 0.0000000000e+00 
          2.5000000000e-01 2.6153846000e+01 0.0000000000e+00 
          2.5000000000e-01 2.6923077000e+01 0.0000000000e+00 
          2.5000000000e-01 2.7692308000e+01 0.0000000000e+00 
          2.5000000000e-01 2.8461538000e+01 0.0000000000e+00 
          2.5000000000e-01 2.9230769000e+01 0.0000000000e+00 
          0.0000000000e+00 7.6923100000e-01 0.0000000000e+00 
          0.0000000000e+00 1.5384620000e+00 0.0000000000e+00 
          0.0000000000e+00 2.3076920000e+00 0.0000000000e+00 
          0.0000000000e+00 3.0769230000e+00 0.0000000000e+00 
          0.0000000000e+00 3.8461540000e+00 0.0000000000e+00 
          0.0000000000e+00 4.6153850000e+00 0.0000000000e+00 
          0.0000000000e+00 5.3846150000e+00 0.0000000000e+00 
          0.0000000000e+00 6.1538460000e+00 0.0000000000e+00 
          0.0000000000e+00 6.9230770000e+00 0.0000000000e+00 
          0.0000000000e+00 7.6923080000e+00 0.0000000000e+00 
          0.0000000000e+00 8.4615380000e+00 0.0000000000e+00 
          0.0000000000e+00 9.2307690000e+00 0.0000000000e+00 
          0.0000000000e+00 1.0000000000e+01 0.0000000000e+00 
          0.0000000000e+00 1.0769231000e+01 0.0000000000e+00 
          0.0000000000e+00 1.1538462000e+01 0.0000000000e+00 
          0.0000000000e+00 1.2307692000e+01 0.0000000000e+00 
          0.0000000000e+00 1.3076923000e+01 0.0000000000e+00 
          0.0000000000e+00 1.3846154000e+01 0.0000000000e+00 
          0.0000000000e+00 1.4615385000e+01 0.0000000000e+00 
          0.0000000000e+00 1.5384615000e+01 0.0000000000e+00 
          0.0000000000e+00 1.6153846000e+01 0.0000000000e+00 
          0.0000000000e+00 1.6923077000e+01 0.0000000000e+00 
          0.0000000000e+00 1.7692308000e+01 0.0000000000e+00 
          0.0000000000e+00 1.8461538000e+01 0.0000000000e+00 
          0.0000000000e+00 1.9230769000e+01 0.0000000000e+00 
          0.0000000000e+00 2.0000000000e+01 0.0000000000e+00 
          0.0000000000e+00 2.0769231000e+01 0.0000000000e+00 
          0.0000000000e+00 2.1538462000e+01 0.0000000000e+00 
          0.0000000000e+00 2.2307692000e+01 0.0000000000e+00 
          0.0000000000e+00 2.3076923000e+01 0.0000000000e+00 
          0.0000000000e+00 2.3846154000e+01 0.0000000000e+00 
          0.0000000000e+00 2.4615385000e+01 0.0000000000e+00 
          0.0000000000e+00 2.5384615000e+01 0.0000000000e+00 
          0.0000000000e+00 2.6153846000e+01 0.0000000000e+00 
          0.0000000000e+00 2.6923077000e+01 0.0000000000e+00 
          0.0000000000e+00 2.7692308000e+01 0.0000000000e+00 
          0.0000000000e+00 2.8461538000e+01 0.0000000000e+00 
          0.0000000000e+00 2.9230769000e+01 0.0000000000e+00 
        </DataArray>
      </Points>
      <Cells>
        <DataArray type="Int64" Name="connectivity" format="ascii">
          0
          1
          2
          3
          4
          5
          6
          7
          8
          9
          10
          11
          12
          13
          14
          15
          16
          17
          18
          19
          20
          21
          22
          23
          24
          25
          26
          27
          28
          29
          30
          31
          32
          33
          34
          35
          36
          37
          38
          39
          40
          41
          42
          43
          44
          45
          46
          47
          48
          49
          50
          51
          52
          53
          54
          55
          56
          57
          58
          59
          60
          61
          62
          63
          64
          65
          66
          67
          68
          69
          70
          71
          72
          73
          74
          75
          76
          77
          78
          79
          80
          81
        </DataArray>
        <DataArray type="Int64" Name="offsets" format="ascii">
          82
        </DataArray>
        <DataArray type="Int64" Name="types" format="ascii">
          2
        </DataArray>
      </Cells>
      <PointData>
        <DataArray type="Int64" Name="NodeTag" format="ascii">
          1
          2
          3
          4
          5
          6
          7
          8
          9
          10
          11
          12
          13
          14
          15
          16
          17
          18
          19
          20
          21
          22
          23
          24
          25
          26
          27
          28
          29
          30
          31
          32
          33
          34
          35
          36
          37
          38
          39
          40
          41
          42
          43
          44
          45
          46
          47
          48
          49
          50
          51
          52
          53
          54
          55
          56
          57
          58
          59
          60
          61
          62
          63
          64
          65
          66
          67
          68
          69
          70
          71
          72
          73
          74
          75
          76
          77
          78
          79
          80
          81
          82
        </DataArray>
        <DataArray type="Float64" Name="Velocity" NumberOfComponents="3" format="ascii">
          4.0092091368e-17 -8.0209770623e-05 0.0000000000e+00 
          4.0092091368e-17 -8.0209770623e-05 0.0000000000e+00 
          7.0300971775e-18 1.1118125005e-05 0.0000000000e+00 
          7.0300971775e-18 1.1118125005e-05 0.0000000000e+00 
          0.0000000000e+00 0.0000000000e+00 0.0000000000e+00 
          0.0000000000e+00 0.0000000000e+00 0.0000000000e+00 
          3.5807121079e-17 -7.8035842591e-05 0.0000000000e+00 
          8.7863887207e-18 -7.5780749536e-05 0.0000000000e+00 
          3.9273021369e-17 -7.2746896543e-05 0.0000000000e+00 
          2.3657800681e-18 -6.9726130452e-05 0.0000000000e+00 
          1.5877627670e-17 -6.7809968493e-05 0.0000000000e+00 
          5.4986297114e-18 -6.5273218371e-05 0.0000000000e+00 
          3.1503061124e-18 -6.2506187035e-05 0.0000000000e+00 
          2.9462083881e-17 -5.9770760275e-05 0.0000000000e+00 
          -4.9647960852e-18 -5.7509365479e-05 0.0000000000e+00 
          4.7930188057e-18 -5.5725258920e-05 0.0000000000e+00 
          -3.0325528282e-18 -5.2723756007e-05 0.0000000000e+00 
          7.5691092322e-18 -5.0228682347e-05 0.0000000000e+00 
          -1.3706915468e-17 -4.8187762570e-05 0.0000000000e+00 
          -2.5452573064e-20 -4.5795394201e-05 0.0000000000e+00 
          7.0624831127e-18 -4.3510025052e-05 0.0000000000e+00 
          2.9119271109e-18 -4.1015407640e-05 0.0000000000e+00 
          -1.2390385326e-17 -3.7439782001e-05 0.0000000000e+00 
          8.0934495981e-18 -3.4206317359e-05 0.0000000000e+00 
          -8.6281942015e-18 -3.2128579236e-05 0.0000000000e+00 
          1.8664586509e-17 -2.9752273714e-05 0.0000000000e+00 
          -1.7378003188e-17 -2.7731583302e-05 0.0000000000e+00 
          4.3972351388e-18 -2.5965597386e-05 0.0000000000e+00 
          8.7719513770e-19 -2.4064825295e-05 0.0000000000e+00 
          -4.1365694696e-18 -2.1700284649e-05 0.0000000000e+00 
          -4.4094785321e-18 -1.8912025136e-05 0.0000000000e+00 
          6.0302080129e-18 -1.6626909116e-05 0.0000000000e+00 
          4.0232735470e-18 -1.4069990557e-05 0.0000000000e+00 
          4.8542731888e-19 -1.0935587303e-05 0.0000000000e+00 
          -5.8092580725e-18 -7.7197937210e-06 0.0000000000e+00 
          -1.1823318843e-17 -4.6174828335e-06 0.0000000000e+00 
          8.8139868895e-18 -1.9292831279e-06 0.0000000000e+00 
          4.7347108122e-18 1.2620214795e-06 0.0000000000e+00 
          8.1350922175e-19 4.3266737999e-06 0.0000000000e+00 
          2.3649800382e-18 6.1498324336e-06 0.0000000000e+00 
          -1.0226212576e-18 7.6894819941e-06 0.0000000000e+00 
          1.4358599350e-18 9.0661315931e-06 0.0000000000e+00 
          4.7234340516e-18 1.0529460544e-05 0.0000000000e+00 
          -6.2594603509e-18 1.1326239750e-05 0.0000000000e+00 
          3.5807121079e-17 -7.8035842591e-05 0.0000000000e+00 
          8.7863887207e-18 -7.5780749536e-05 0.0000000000e+00 
          3.9273021369e-17 -7.2746896543e-05 0.0000000000e+00 
          2.3657800681e-18 -6.9726130452e-05 0.0000000000e+00 
          1.5877627670e-17 -6.7809968493e-05 0.0000000000e+00 
          5.4986297114e-18 -6.5273218371e-05 0.0000000000e+00 
          3.1503061124e-18 -6.2506187035e-05 0.0000000000e+00 
          2.9462083881e-17 -5.9770760275e-05 0.0000000000e+00 
          -4.9647960852e-18 -5.7509365479e-05 0.0000000000e+00 
          4.7930188057e-18 -5.5725258920e-05 0.0000000000e+00 
          -3.0325528282e-18 -5.2723756007e-05 0.0000000000e+00 
          7.5691092322e-18 -5.0228682347e-05 0.0000000000e+00 
          -1.3706915468e-17 -4.8187762570e-05 0.0000000000e+00 
          -2.5452573064e-20 -4.5795394201e-05 0.0000000000e+00 
          7.0624831127e-18 -4.3510025052e-05 0.0000000000e+00 
          2.9119271109e-18 -4.1015407640e-05 0.0000000000e+00 
          -1.2390385326e-17 -3.7439782001e-05 0.0000000000e+00 
          8.0934495981e-18 -3.4206317359e-05 0.0000000000e+00 
          -8.6281942015e-18 -3.2128579236e-05 0.0000000000e+00 
          1.8664586509e-17 -2.9752273714e-05 0.0000000000e+00 
          -1.7378003188e-17 -2.7731583302e-05 0.0000000000e+00 
          4.3972351388e-18 -2.5965597386e-05 0.0000000000e+00 
          8.7719513770e-19 -2.4064825295e-05 0.0000000000e+00 
          -4.1365694696e-18 -2.1700284649e-05 0.0000000000e+00 
          -4.4094785321e-18 -1.8912025136e-05 0.0000000000e+00 
          6.0302080129e-18 -1.6626909116e-05 0.0000000000e+00 
          4.0232735470e-18 -1.4069990557e-05 0.0000000000e+00 
          4.8542731888e-19 -1.0935587303e-05 0.0000000000e+00 
          -5.8092580725e-18 -7.7197937210e-06 0.0000000000e+00 
          -1.1823318843e-17 -4.6174828335e-06 0.0000000000e+00 
          8.8139868895e-18 -1.9292831279e-06 0.0000000000e+00 
          4.7347108122e-18 1.2620214795e-06 0.0000000000e+00 
          8.1350922175e-19 4.3266737999e-06 0.0000000000e+00 
          2.3649800382e-18 6.1498324336e-06 0.0000000000e+00 
          -1.0226212576e-18 7.6894819941e-06 0.0000000000e+00 
          1.4358599350e-18 9.0661315931e-06 0.0000000000e+00 
          4.7234340516e-18 1.0529460544e-05 0.0000000000e+00 
          -6.2594603509e-18 1.1326239750e-05 0.0000000000e+00 
        </DataArray>
        <DataArray type="Float64" Name="Displacement" NumberOfComponents="3" format="ascii">
          5.4348937435e-19 -7.8219461112e-05 0.0000000000e+00 
          5.4348937435e-19 -7.8219461112e-05 0.0000000000e+00 
          2.0036305242e-20 -1.0251759260e-04 0.0000000000e+00 
          2.0036305242e-20 -1.0251759260e-04 0.0000000000e+00 
          0.0000000000e+00 0.0000000000e+00 0.0000000000e+00 
          0.0000000000e+00 0.0000000000e+00 0.0000000000e+00 
          4.0244922484e-19 -7.9449568766e-05 0.0000000000e+00 
          3.0007618709e-19 -8.0646269575e-05 0.0000000000e+00 
          2.4300172149e-19 -8.1810075869e-05 0.0000000000e+00 
          2.1327699928e-19 -8.2941164383e-05 0.0000000000e+00 
          1.2535200852e-19 -8.4039447268e-05 0.0000000000e+00 
          1.4504414199e-19 -8.5106925045e-05 0.0000000000e+00 
          1.3251757409e-19 -8.6144141083e-05 0.0000000000e+00 
          1.0025226168e-19 -8.7150595779e-05 0.0000000000e+00 
          8.5121284273e-20 -8.8125503729e-05 0.0000000000e+00 
          3.7437182399e-20 -8.9068129983e-05 0.0000000000e+00 
          6.0207620888e-20 -8.9977568911e-05 0.0000000000e+00 
          2.7339283642e-20 -9.0852978163e-05 0.0000000000e+00 
          -1.2539946388e-20 -9.1695966781e-05 0.0000000000e+00 
          -4.7640954485e-21 -9.2508111907e-05 0.0000000000e+00 
          2.5019165105e-20 -9.3289258031e-05 0.0000000000e+00 
          1.4095281456e-20 -9.4039147357e-05 0.0000000000e+00 
          5.5934419074e-20 -9.4757638866e-05 0.0000000000e+00 
          4.1787112667e-20 -9.5445239939e-05 0.0000000000e+00 
          -4.3746938696e-21 -9.6101368929e-05 0.0000000000e+00 
          1.1807314978e-20 -9.6724475972e-05 0.0000000000e+00 
          1.4271139811e-20 -9.7314934522e-05 0.0000000000e+00 
          -1.7084805828e-20 -9.7873118356e-05 0.0000000000e+00 
          1.2613376305e-20 -9.8399693587e-05 0.0000000000e+00 
          -1.9939515636e-21 -9.8893432734e-05 0.0000000000e+00 
          1.7818161932e-20 -9.9352507707e-05 0.0000000000e+00 
          3.1847341346e-20 -9.9779851880e-05 0.0000000000e+00 
          1.4909204512e-20 -1.0017585456e-04 0.0000000000e+00 
          -5.6644397604e-21 -1.0054150393e-04 0.0000000000e+00 
          -1.3877640074e-21 -1.0087817615e-04 0.0000000000e+00 
          3.5050499005e-20 -1.0118444076e-04 0.0000000000e+00 
          1.6091553423e-20 -1.0145881626e-04 0.0000000000e+00 
          -1.7968252874e-20 -1.0170263011e-04 0.0000000000e+00 
          -7.8531233214e-21 -1.0191598928e-04 0.0000000000e+00 
          3.8551980447e-21 -1.0209791588e-04 0.0000000000e+00 
          1.2429577803e-20 -1.0224888908e-04 0.0000000000e+00 
          -4.4754447844e-21 -1.0236734792e-04 0.0000000000e+00 
          2.0388358495e-20 -1.0245118575e-04 0.0000000000e+00 
          -1.4962622983e-21 -1.0250084254e-04 0.0000000000e+00 
          4.0244922484e-19 -7.9449568766e-05 0.0000000000e+00 
          3.0007618709e-19 -8.0646269575e-05 0.0000000000e+00 
          2.4300172149e-19 -8.1810075869e-05 0.0000000000e+00 
          2.1327699928e-19 -8.2941164383e-05 0.0000000000e+00 
          1.2535200852e-19 -8.4039447268e-05 0.0000000000e+00 
          1.4504414199e-19 -8.5106925045e-05 0.0000000000e+00 
          1.3251757409e-19 -8.6144141083e-05 0.0000000000e+00 
          1.0025226168e-19 -8.7150595779e-05 0.0000000000e+00 
          8.5121284273e-20 -8.8125503729e-05 0.0000000000e+00 
          3.7437182399e-20 -8.9068129983e-05 0.0000000000e+00 
          6.0207620888e-20 -8.9977568911e-05 0.0000000000e+00 
          2.7339283642e-20 -9.0852978163e-05 0.0000000000e+00 
          -1.2539946388e-20 -9.1695966781e-05 0.0000000000e+00 
          -4.7640954485e-21 -9.2508111907e-05 0.0000000000e+00 
          2.5019165105e-20 -9.3289258031e-05 0.0000000000e+00 
          1.4095281456e-20 -9.4039147357e-05 0.0000000000e+00 
          5.5934419074e-20 -9.4757638866e-05 0.0000000000e+00 
          4.1787112667e-20 -9.5445239939e-05 0.0000000000e+00 
          -4.3746938696e-21 -9.6101368929e-05 0.0000000000e+00 
          1.1807314978e-20 -9.6724475972e-05 0.0000000000e+00 
          1.4271139811e-20 -9.7314934522e-05 0.0000000000e+00 
          -1.7084805828e-20 -9.7873118356e-05 0.0000000000e+00 
          1.2613376305e-20 -9.8399693587e-05 0.0000000000e+00 
          -1.9939515636e-21 -9.8893432734e-05 0.0000000000e+00 
          1.7818161932e-20 -9.9352507707e-05 0.0000000000e+00 
          3.1847341346e-20 -9.9779851880e-05 0.0000000000e+00 
          1.4909204512e-20 -1.0017585456e-04 0.0000000000e+00 
          -5.6644397604e-21 -1.0054150393e-04 0.0000000000e+00 
          -1.3877640074e-21 -1.0087817615e-04 0.0000000000e+00 
          3.5050499005e-20 -1.0118444076e-04 0.0000000000e+00 
          1.6091553423e-20 -1.0145881626e-04 0.0000000000e+00 
          -1.7968252874e-20 -1.0170263011e-04 0.0000000000e+00 
          -7.8531233214e-21 -1.0191598928e-04 0.0000000000e+00 
          3.8551980447e-21 -1.0209791588e-04 0.0000000000e+00 
          1.2429577803e-20 -1.0224888908e-04 0.0000000000e+00 
          -4.4754447844e-21 -1.0236734792e-04 0.0000000000e+00 
          2.0388358495e-20 -1.0245118575e-04 0.0000000000e+00 
          -1.4962622983e-21 -1.0250084254e-04 0.0000000000e+00 
        </DataArray>
        <DataArray type="Float64" Name="Acceleration" NumberOfComponents="3" format="ascii">
          1.6521387115e-15 1.3655999653e-04 0.0000000000e+00 
          1.6521387115e-15 1.3655999653e-04 0.0000000000e+00 
          -3.9744515497e-15 4.4938664975e-04 0.0000000000e+00 
          -3.9744515497e-15 4.4938664975e-04 0.0000000000e+00 
          0.0000000000e+00 0.0000000000e+00 0.0000000000e+00 
          0.0000000000e+00 0.0000000000e+00 0.0000000000e+00 
          4.1585662897e-15 4.3258114681e-04 0.0000000000e+00 
          5.0395158959e-15 3.3998833060e-04 0.0000000000e+00 
          2.1588774395e-15 3.0868540612e-04 0.0000000000e+00 
          -4.8590353335e-15 3.2423934974e-04 0.0000000000e+00 
          9.5502391039e-15 -3.6262266253e-05 0.0000000000e+00 
          -3.5107364693e-15 -1.3441883766e-04 0.0000000000e+00 
          -2.6746706443e-15 -4.3902518362e-05 0.0000000000e+00 
          3.9573542982e-15 9.7383930365e-05 0.0000000000e+00 
          -3.0389238761e-15 2.2982452681e-04 0.0000000000e+00 
          3.8830757631e-15 3.9281386952e-04 0.0000000000e+00 
          -2.6400113508e-15 5.4503469072e-04 0.0000000000e+00 
          3.6407869252e-17 2.5486173841e-04 0.0000000000e+00 
          3.3896133552e-15 -2.9345227603e-05 0.0000000000e+00 
          -1.8551949579e-16 -1.3217451944e-06 0.0000000000e+00 
          -1.3853418197e-15 4.4961981083e-05 0.0000000000e+00 
          3.9386617881e-15 7.0725626836e-05 0.0000000000e+00 
          -3.3495492382e-15 -2.0885769930e-05 0.0000000000e+00 
          -5.6352438323e-15 8.3929267410e-05 0.0000000000e+00 
          7.5137723245e-15 3.6307862081e-04 0.0000000000e+00 
          -1.9985868813e-15 2.9607299715e-04 0.0000000000e+00 
          -2.9444076464e-15 2.2856676789e-04 0.0000000000e+00 
          3.0511922346e-15 1.0853084644e-04 0.0000000000e+00 
          -9.5864195454e-16 3.2961575416e-04 0.0000000000e+00 
          1.6335408483e-15 6.5927647573e-04 0.0000000000e+00 
          -6.1828055957e-16 1.3055106673e-04 0.0000000000e+00 
          -2.0640270482e-15 6.0396480972e-05 0.0000000000e+00 
          1.3291798607e-15 -1.1767838643e-04 0.0000000000e+00 
          -7.0873858844e-18 -3.6574186219e-04 0.0000000000e+00 
          4.0214806167e-15 -1.0781164798e-04 0.0000000000e+00 
          -5.4786148749e-15 1.5907908469e-04 0.0000000000e+00 
          4.2213381907e-16 -8.0134599515e-05 0.0000000000e+00 
          6.1161175698e-16 -9.9456686670e-05 0.0000000000e+00 
          8.5169555462e-16 7.6863339993e-05 0.0000000000e+00 
          5.1476728296e-17 -9.5394381918e-06 0.0000000000e+00 
          5.5684928753e-18 2.7175100263e-04 0.0000000000e+00 
          7.2837651293e-16 6.5136142942e-04 0.0000000000e+00 
          -2.1386855843e-15 5.7211925569e-04 0.0000000000e+00 
          3.2190684836e-15 3.4245955783e-04 0.0000000000e+00 
          4.1585662897e-15 4.3258114681e-04 0.0000000000e+00 
          5.0395158959e-15 3.3998833060e-04 0.0000000000e+00 
          2.1588774395e-15 3.0868540612e-04 0.0000000000e+00 
          -4.8590353335e-15 3.2423934974e-04 0.0000000000e+00 
          9.5502391039e-15 -3.6262266253e-05 0.0000000000e+00 
          -3.5107364693e-15 -1.3441883766e-04 0.0000000000e+00 
          -2.6746706443e-15 -4.3902518362e-05 0.0000000000e+00 
          3.9573542982e-15 9.7383930365e-05 0.0000000000e+00 
          -3.0389238761e-15 2.2982452681e-04 0.0000000000e+00 
          3.8830757631e-15 3.9281386952e-04 0.0000000000e+00 
          -2.6400113508e-15 5.4503469072e-04 0.0000000000e+00 
          3.6407869252e-17 2.5486173841e-04 0.0000000000e+00 
          3.3896133552e-15 -2.9345227603e-05 0.0000000000e+00 
          -1.8551949579e-16 -1.3217451944e-06 0.0000000000e+00 
          -1.3853418197e-15 4.4961981083e-05 0.0000000000e+00 
          3.9386617881e-15 7.0725626836e-05 0.0000000000e+00 
          -3.3495492382e-15 -2.0885769930e-05 0.0000000000e+00 
          -5.6352438323e-15 8.3929267410e-05 0.0000000000e+00 
          7.5137723245e-15 3.6307862081e-04 0.0000000000e+00 
          -1.9985868813e-15 2.9607299715e-04 0.0000000000e+00 
          -2.9444076464e-15 2.2856676789e-04 0.0000000000e+00 
          3.0511922346e-15 1.0853084644e-04 0.0000000000e+00 
          -9.5864195454e-16 3.2961575416e-04 0.0000000000e+00 
          1.6335408483e-15 6.5927647573e-04 0.0000000000e+00 
          -6.1828055957e-16 1.3055106673e-04 0.0000000000e+00 
          -2.0640270482e-15 6.0396480972e-05 0.0000000000e+00 
          1.3291798607e-15 -1.1767838643e-04 0.0000000000e+00 
          -7.0873858844e-18 -3.6574186219e-04 0.0000000000e+00 
          4.0214806167e-15 -1.0781164798e-04 0.0000000000e+00 
          -5.4786148749e-15 1.5907908469e-04 0.0000000000e+00 
          4.2213381907e-16 -8.0134599515e-05 0.0000000000e+00 
          6.1161175698e-16 -9.9456686670e-05 0.0000000000e+00 
          8.5169555462e-16 7.6863339993e-05 0.0000000000e+00 
          5.1476728296e-17 -9.5394381918e-06 0.0000000000e+00 
          5.5684928753e-18 2.7175100263e-04 0.0000000000e+00 
          7.2837651293e-16 6.5136142942e-04 0.0000000000e+00 
          -2.1386855843e-15 5.7211925569e-04 0.0000000000e+00 
          3.2190684836e-15 3.4245955783e-04 0.0000000000e+00 
        </DataArray>
        <DataArray type="Float64" Name="Reaction" NumberOfComponents="3" format="ascii">
          0.0000000000e+00 0.0000000000e+00 0.0000000000e+00 
          0.0000000000e+00 0.0000000000e+00 0.0000000000e+00 
          0.0000000000e+00 0.0000000000e+00 0.0000000000e+00 
          0.0000000000e+00 0.0000000000e+00 0.0000000000e+00 
          0.0000000000e+00 0.0000000000e+00 0.0000000000e+00 
          0.0000000000e+00 0.0000000000e+00 0.0000000000e+00 
          0.0000000000e+00 0.0000000000e+00 0.0000000000e+00 
          0.0000000000e+00 0.0000000000e+00 0.0000000000e+00 
          0.0000000000e+00 0.0000000000e+00 0.0000000000e+00 
          0.0000000000e+00 0.0000000000e+00 0.0000000000e+00 
          0.0000000000e+00 0.0000000000e+00 0.0000000000e+00 
          0.0000000000e+00 0.0000000000e+00 0.0000000000e+00 
          0.0000000000e+00 0.0000000000e+00 0.0000000000e+00 
          0.0000000000e+00 0.0000000000e+00 0.0000000000e+00 
          0.0000000000e+00 0.0000000000e+00 0.0000000000e+00 
          0.0000000000e+00 0.0000000000e+00 0.0000000000e+00 
          0.0000000000e+00 0.0000000000e+00 0.0000000000e+00 
          0.0000000000e+00 0.0000000000e+00 0.0000000000e+00 
          0.0000000000e+00 0.0000000000e+00 0.0000000000e+00 
          0.0000000000e+00 0.0000000000e+00 0.0000000000e+00 
          0.0000000000e+00 0.0000000000e+00 0.0000000000e+00 
          0.0000000000e+00 0.0000000000e+00 0.0000000000e+00 
          0.0000000000e+00 0.0000000000e+00 0.0000000000e+00 
          0.0000000000e+00 0.0000000000e+00 0.0000000000e+00 
          0.0000000000e+00 0.0000000000e+00 0.0000000000e+00 
          0.0000000000e+00 0.0000000000e+00 0.0000000000e+00 
          0.0000000000e+00 0.0000000000e+00 0.0000000000e+00 
          0.0000000000e+00 0.0000000000e+00 0.0000000000e+00 
          0.0000000000e+00 0.0000000000e+00 0.0000000000e+00 
          0.0000000000e+00 0.0000000000e+00 0.0000000000e+00 
          0.0000000000e+00 0.0000000000e+00 0.0000000000e+00 
          0.0000000000e+00 0.0000000000e+00 0.0000000000e+00 
          0.0000000000e+00 0.0000000000e+00 0.0000000000e+00 
          0.0000000000e+00 0.0000000000e+00 0.0000000000e+00 
          0.0000000000e+00 0.0000000000e+00 0.0000000000e+00 
          0.0000000000e+00 0.0000000000e+00 0.0000000000e+00 
          0.0000000000e+00 0.0000000000e+00 0.0000000000e+00 
          0.0000000000e+00 0.0000000000e+00 0.0000000000e+00 
          0.0000000000e+00 0.0000000000e+00 0.0000000000e+00 
          0.0000000000e+00 0.0000000000e+00 0.0000000000e+00 
          0.0000000000e+00 0.0000000000e+00 0.0000000000e+00 
          0.0000000000e+00 0.0000000000e+00 0.0000000000e+00 
          0.0000000000e+00 0.0000000000e+00 0.0000000000e+00 
          0.0000000000e+00 0.0000000000e+00 0.0000000000e+00 
          0.0000000000e+00 0.0000000000e+00 0.0000000000e+00 
          0.0000000000e+00 0.0000000000e+00 0.0000000000e+00 
          0.0000000000e+00 0.0000000000e+00 0.0000000000e+00 
          0.0000000000e+00 0.0000000000e+00 0.0000000000e+00 
          0.0000000000e+00 0.0000000000e+00 0.0000000000e+00 
          0.0000000000e+00 0.0000000000e+00 0.0000000000e+00 
          0.0000000000e+00 0.0000000000e+00 0.0000000000e+00 
          0.0000000000e+00 0.0000000000e+00 0.0000000000e+00 
          0.0000000000e+00 0.0000000000e+00 0.0000000000e+00 
          0.0000000000e+00 0.0000000000e+00 0.0000000000e+00 
          0.0000000000e+00 0.0000000000e+00 0.0000000000e+00 
          0.0000000000e+00 0.0000000000e+00 0.0000000000e+00 
          0.0000000000e+00 0.0000000000e+00 0.0000000000e+00 
          0.0000000000e+00 0.0000000000e+00 0.0000000000e+00 
          0.0000000000e+00 0.0000000000e+00 0.0000000000e+00 
          0.0000000000e+00 0.0000000000e+00 0.0000000000e+00 
          0.0000000000e+00 0.0000000000e+00 0.0000000000e+00 
          0.0000000000e+00 0.0000000000e+00 0.0000000000e+00 
          0.0000000000e+00 0.0000000000e+00 0.0000000000e+00 
          0.0000000000e+00 0.0000000000e+00 0.0000000000e+00 
          0.0000000000e+00 0.0000000000e+00 0.0000000000e+00 
          0.0000000000e+00 0.0000000000e+00 0.0000000000e+00 
          0.0000000000e+00 0.0000000000e+00 0.0000000000e+00 
          0.0000000000e+00 0.0000000000e+00 0.0000000000e+00 
          0.0000000000e+00 0.0000000000e+00 0.0000000000e+00 
          0.0000000000e+00 0.0000000000e+00 0.0000000000e+00 
          0.0000000000e+00 0.0000000000e+00 0.0000000000e+00 
          0.0000000000e+00 0.0000000000e+00 0.0000000000e+00 
          0.0000000000e+00 0.0000000000e+00 0.0000000000e+00 
          0.0000000000e+00 0.0000000000e+00 0.0000000000e+00 
          0.0000000000e+00 0.0000000000e+00 0.0000000000e+00 
          0.0000000000e+00 0.0000000000e+00 0.0000000000e+00 
          0.0000000000e+00 0.0000000000e+00 0.0000000000e+00 
          0.0000000000e+00 0.0000000000e+00 0.0000000000e+00 
          0.0000000000e+00 0.0000000000e+00 0.0000000000e+00 
          0.0000000000e+00 0.0000000000e+00 0.0000000000e+00 
          0.0000000000e+00 0.0000000000e+00 0.0000000000e+00 
          0.0000000000e+00 0.0000000000e+00 0.0000000000e+00 
        </DataArray>
      </PointData>
      <CellData>
        <DataArray type="Int64" Name="ElementTag" format="ascii">
          0
        </DataArray>
      </CellData>
    </Piece>
  </UnstructuredGrid>
</VTKFile>
