<?xml version="1.0"?>
<VTKFile type="UnstructuredGrid" version="1.0" byte_order="LittleEndian" compressor="vtkZLibDataCompressor">
  <UnstructuredGrid>
    <Piece NumberOfPoints="82" NumberOfCells="1">
      <Points>
        <DataArray type="Float64" Name="Points" NumberOfComponents="3" format="ascii">
          0.0000000000e+00 0.0000000000e+00 0.0000000000e+00 
          2.5000000000e-01 0.0000000000e+00 0.0000000000e+00 
          2.5000000000e-01 3.0000000000e+01 0.0000000000e+00 
          0.0000000000e+00 3.0000000000e+01 0.0000000000e+00 
          0.0000000000e+00 -5.0000000000e+00 0.0000000000e+00 
          2.5000000000e-01 -5.0000000000e+00 0.0000000000e+00 
          2.5000000000e-01 7.6923100000e-01 0.0000000000e+00 
          2.5000000000e-01 1.5384620000e+00 0.0000000000e+00 
          2.5000000000e-01 2.3076920000e+00 0.0000000000e+00 
          2.5000000000e-01 3.0769230000e+00 0.0000000000e+00 
          2.5000000000e-01 3.8461540000e+00 0.0000000000e+00 
          2.5000000000e-01 4.6153850000e+00 0.0000000000e+00 
          2.5000000000e-01 5.3846150000e+00 0.0000000000e+00 
          2.5000000000e-01 6.1538460000e+00 0.0000000000e+00 
          2.5000000000e-01 6.9230770000e+00 0.0000000000e+00 
          2.5000000000e-01 7.6923080000e+00 0.0000000000e+00 
          2.5000000000e-01 8.4615380000e+00 0.0000000000e+00 
          2.5000000000e-01 9.2307690000e+00 0.0000000000e+00 
          2.5000000000e-01 1.0000000000e+01 0.0000000000e+00 
          2.5000000000e-01 1.0769231000e+01 0.0000000000e+00 
          2.5000000000e-01 1.1538462000e+01 0.0000000000e+00 
          2.5000000000e-01 1.2307692000e+01 0.0000000000e+00 
          2.5000000000e-01 1.3076923000e+01 0.0000000000e+00 
          2.5000000000e-01 1.3846154000e+01 0.0000000000e+00 
          2.5000000000e-01 1.4615385000e+01 0.0000000000e+00 
          2.5000000000e-01 1.5384615000e+01 0.0000000000e+00 
          2.5000000000e-01 1.6153846000e+01 0.0000000000e+00 
          2.5000000000e-01 1.6923077000e+01 0.0000000000e+00 
          2.5000000000e-01 1.7692308000e+01 0.0000000000e+00 
          2.5000000000e-01 1.8461538000e+01 0.0000000000e+00 
          2.5000000000e-01 1.9230769000e+01 0.0000000000e+00 
          2.5000000000e-01 2.0000000000e+01 0.0000000000e+00 
          2.5000000000e-01 2.0769231000e+01 0.0000000000e+00 
          2.5000000000e-01 2.1538462000e+01 0.0000000000e+00 
          2.5000000000e-01 2.2307692000e+01 0.0000000000e+00 
          2.5000000000e-01 2.3076923000e+01 0.0000000000e+00 
          2.5000000000e-01 2.3846154000e+01 0.0000000000e+00 
          2.5000000000e-01 2.4615385000e+01 0.0000000000e+00 
          2.5000000000e-01 2.5384615000e+01 0.0000000000e+00 
          2.5000000000e-01 2.6153846000e+01 0.0000000000e+00 
          2.5000000000e-01 2.6923077000e+01 0.0000000000e+00 
          2.5000000000e-01 2.7692308000e+01 0.0000000000e+00 
          2.5000000000e-01 2.8461538000e+01 0.0000000000e+00 
          2.5000000000e-01 2.9230769000e+01 0.0000000000e+00 
          0.0000000000e+00 7.6923100000e-01 0.0000000000e+00 
          0.0000000000e+00 1.5384620000e+00 0.0000000000e+00 
          0.0000000000e+00 2.3076920000e+00 0.0000000000e+00 
          0.0000000000e+00 3.0769230000e+00 0.0000000000e+00 
          0.0000000000e+00 3.8461540000e+00 0.0000000000e+00 
          0.0000000000e+00 4.6153850000e+00 0.0000000000e+00 
          0.0000000000e+00 5.3846150000e+00 0.0000000000e+00 
          0.0000000000e+00 6.1538460000e+00 0.0000000000e+00 
          0.0000000000e+00 6.9230770000e+00 0.0000000000e+00 
          0.0000000000e+00 7.6923080000e+00 0.0000000000e+00 
          0.0000000000e+00 8.4615380000e+00 0.0000000000e+00 
          0.0000000000e+00 9.2307690000e+00 0.0000000000e+00 
          0.0000000000e+00 1.0000000000e+01 0.0000000000e+00 
          0.0000000000e+00 1.0769231000e+01 0.0000000000e+00 
          0.0000000000e+00 1.1538462000e+01 0.0000000000e+00 
          0.0000000000e+00 1.2307692000e+01 0.0000000000e+00 
          0.0000000000e+00 1.3076923000e+01 0.0000000000e+00 
          0.0000000000e+00 1.3846154000e+01 0.0000000000e+00 
          0.0000000000e+00 1.4615385000e+01 0.0000000000e+00 
          0.0000000000e+00 1.5384615000e+01 0.0000000000e+00 
          0.0000000000e+00 1.6153846000e+01 0.0000000000e+00 
          0.0000000000e+00 1.6923077000e+01 0.0000000000e+00 
          0.0000000000e+00 1.7692308000e+01 0.0000000000e+00 
          0.0000000000e+00 1.8461538000e+01 0.0000000000e+00 
          0.0000000000e+00 1.9230769000e+01 0.0000000000e+00 
          0.0000000000e+00 2.0000000000e+01 0.0000000000e+00 
          0.0000000000e+00 2.0769231000e+01 0.0000000000e+00 
          0.0000000000e+00 2.1538462000e+01 0.0000000000e+00 
          0.0000000000e+00 2.2307692000e+01 0.0000000000e+00 
          0.0000000000e+00 2.3076923000e+01 0.0000000000e+00 
          0.0000000000e+00 2.3846154000e+01 0.0000000000e+00 
          0.0000000000e+00 2.4615385000e+01 0.0000000000e+00 
          0.0000000000e+00 2.5384615000e+01 0.0000000000e+00 
          0.0000000000e+00 2.6153846000e+01 0.0000000000e+00 
          0.0000000000e+00 2.6923077000e+01 0.0000000000e+00 
          0.0000000000e+00 2.7692308000e+01 0.0000000000e+00 
          0.0000000000e+00 2.8461538000e+01 0.0000000000e+00 
          0.0000000000e+00 2.9230769000e+01 0.0000000000e+00 
        </DataArray>
      </Points>
      <Cells>
        <DataArray type="Int64" Name="connectivity" format="ascii">
          0
          1
          2
          3
          4
          5
          6
          7
          8
          9
          10
          11
          12
          13
          14
          15
          16
          17
          18
          19
          20
          21
          22
          23
          24
          25
          26
          27
          28
          29
          30
          31
          32
          33
          34
          35
          36
          37
          38
          39
          40
          41
          42
          43
          44
          45
          46
          47
          48
          49
          50
          51
          52
          53
          54
          55
          56
          57
          58
          59
          60
          61
          62
          63
          64
          65
          66
          67
          68
          69
          70
          71
          72
          73
          74
          75
          76
          77
          78
          79
          80
          81
        </DataArray>
        <DataArray type="Int64" Name="offsets" format="ascii">
          82
        </DataArray>
        <DataArray type="Int64" Name="types" format="ascii">
          2
        </DataArray>
      </Cells>
      <PointData>
        <DataArray type="Int64" Name="NodeTag" format="ascii">
          1
          2
          3
          4
          5
          6
          7
          8
          9
          10
          11
          12
          13
          14
          15
          16
          17
          18
          19
          20
          21
          22
          23
          24
          25
          26
          27
          28
          29
          30
          31
          32
          33
          34
          35
          36
          37
          38
          39
          40
          41
          42
          43
          44
          45
          46
          47
          48
          49
          50
          51
          52
          53
          54
          55
          56
          57
          58
          59
          60
          61
          62
          63
          64
          65
          66
          67
          68
          69
          70
          71
          72
          73
          74
          75
          76
          77
          78
          79
          80
          81
          82
        </DataArray>
        <DataArray type="Float64" Name="Velocity" NumberOfComponents="3" format="ascii">
          -5.3045355060e-02 -7.6782401307e-05 0.0000000000e+00 
          -5.3045355060e-02 -7.6782401307e-05 0.0000000000e+00 
          -5.4987126770e-01 -8.2308502457e-05 0.0000000000e+00 
          -5.4987126770e-01 -8.2308502457e-05 0.0000000000e+00 
          0.0000000000e+00 0.0000000000e+00 0.0000000000e+00 
          0.0000000000e+00 0.0000000000e+00 0.0000000000e+00 
          -7.1978886245e-02 -7.6793562941e-05 0.0000000000e+00 
          -9.1005005222e-02 -7.7356580086e-05 0.0000000000e+00 
          -1.1008662482e-01 -7.7480592809e-05 0.0000000000e+00 
          -1.2918643063e-01 -7.7627078356e-05 0.0000000000e+00 
          -1.4826680405e-01 -7.8159570137e-05 0.0000000000e+00 
          -1.6729004547e-01 -7.8328895745e-05 0.0000000000e+00 
          -1.8621848284e-01 -7.8761058158e-05 0.0000000000e+00 
          -2.0501453020e-01 -7.8926306847e-05 0.0000000000e+00 
          -2.2364075520e-01 -7.9501436496e-05 0.0000000000e+00 
          -2.4206022024e-01 -7.9978958415e-05 0.0000000000e+00 
          -2.6023622560e-01 -8.0349825782e-05 0.0000000000e+00 
          -2.7813269024e-01 -8.0730217254e-05 0.0000000000e+00 
          -2.9571408922e-01 -8.0734542279e-05 0.0000000000e+00 
          -3.1294558789e-01 -8.1204877510e-05 0.0000000000e+00 
          -3.2979320301e-01 -8.1679618242e-05 0.0000000000e+00 
          -3.4622366888e-01 -8.1692866288e-05 0.0000000000e+00 
          -3.6220474024e-01 -8.1539939006e-05 0.0000000000e+00 
          -3.7770511862e-01 -8.1697452533e-05 0.0000000000e+00 
          -3.9269461383e-01 -8.1880278925e-05 0.0000000000e+00 
          -4.0714410081e-01 -8.1825622233e-05 0.0000000000e+00 
          -4.2102563251e-01 -8.2160492739e-05 0.0000000000e+00 
          -4.3431249459e-01 -8.2134938649e-05 0.0000000000e+00 
          -4.4697922186e-01 -8.2179528144e-05 0.0000000000e+00 
          -4.5900164284e-01 -8.2260877612e-05 0.0000000000e+00 
          -4.7035694683e-01 -8.2122082376e-05 0.0000000000e+00 
          -4.8102362031e-01 -8.2371061426e-05 0.0000000000e+00 
          -4.9098161242e-01 -8.2283386430e-05 0.0000000000e+00 
          -5.0021226856e-01 -8.2462822708e-05 0.0000000000e+00 
          -5.0869833227e-01 -8.2481937727e-05 0.0000000000e+00 
          -5.1642403762e-01 -8.2368177449e-05 0.0000000000e+00 
          -5.2337510095e-01 -8.2367791402e-05 0.0000000000e+00 
          -5.2953868857e-01 -8.2255823793e-05 0.0000000000e+00 
          -5.3490343772e-01 -8.2263439025e-05 0.0000000000e+00 
          -5.3945955445e-01 -8.2169090479e-05 0.0000000000e+00 
          -5.4319866125e-01 -8.2223092235e-05 0.0000000000e+00 
          -5.4611392638e-01 -8.2492060751e-05 0.0000000000e+00 
          -5.4820006231e-01 -8.2526094899e-05 0.0000000000e+00 
          -5.4945327319e-01 -8.2365402387e-05 0.0000000000e+00 
          -7.1978886245e-02 -7.6793562941e-05 0.0000000000e+00 
          -9.1005005222e-02 -7.7356580086e-05 0.0000000000e+00 
          -1.1008662482e-01 -7.7480592809e-05 0.0000000000e+00 
          -1.2918643063e-01 -7.7627078356e-05 0.0000000000e+00 
          -1.4826680405e-01 -7.8159570137e-05 0.0000000000e+00 
          -1.6729004547e-01 -7.8328895745e-05 0.0000000000e+00 
          -1.8621848284e-01 -7.8761058158e-05 0.0000000000e+00 
          -2.0501453020e-01 -7.8926306847e-05 0.0000000000e+00 
          -2.2364075520e-01 -7.9501436496e-05 0.0000000000e+00 
          -2.4206022024e-01 -7.9978958415e-05 0.0000000000e+00 
          -2.6023622560e-01 -8.0349825782e-05 0.0000000000e+00 
          -2.7813269024e-01 -8.0730217254e-05 0.0000000000e+00 
          -2.9571408922e-01 -8.0734542279e-05 0.0000000000e+00 
          -3.1294558789e-01 -8.1204877510e-05 0.0000000000e+00 
          -3.2979320301e-01 -8.1679618242e-05 0.0000000000e+00 
          -3.4622366888e-01 -8.1692866288e-05 0.0000000000e+00 
          -3.6220474024e-01 -8.1539939006e-05 0.0000000000e+00 
          -3.7770511862e-01 -8.1697452533e-05 0.0000000000e+00 
          -3.9269461383e-01 -8.1880278925e-05 0.0000000000e+00 
          -4.0714410081e-01 -8.1825622233e-05 0.0000000000e+00 
          -4.2102563251e-01 -8.2160492739e-05 0.0000000000e+00 
          -4.3431249459e-01 -8.2134938649e-05 0.0000000000e+00 
          -4.4697922186e-01 -8.2179528144e-05 0.0000000000e+00 
          -4.5900164284e-01 -8.2260877612e-05 0.0000000000e+00 
          -4.7035694683e-01 -8.2122082376e-05 0.0000000000e+00 
          -4.8102362031e-01 -8.2371061426e-05 0.0000000000e+00 
          -4.9098161242e-01 -8.2283386430e-05 0.0000000000e+00 
          -5.0021226856e-01 -8.2462822708e-05 0.0000000000e+00 
          -5.0869833227e-01 -8.2481937727e-05 0.0000000000e+00 
          -5.1642403762e-01 -8.2368177449e-05 0.0000000000e+00 
          -5.2337510095e-01 -8.2367791402e-05 0.0000000000e+00 
          -5.2953868857e-01 -8.2255823793e-05 0.0000000000e+00 
          -5.3490343772e-01 -8.2263439025e-05 0.0000000000e+00 
          -5.3945955445e-01 -8.2169090479e-05 0.0000000000e+00 
          -5.4319866125e-01 -8.2223092235e-05 0.0000000000e+00 
          -5.4611392638e-01 -8.2492060751e-05 0.0000000000e+00 
          -5.4820006231e-01 -8.2526094899e-05 0.0000000000e+00 
          -5.4945327319e-01 -8.2365402387e-05 0.0000000000e+00 
        </DataArray>
        <DataArray type="Float64" Name="Displacement" NumberOfComponents="3" format="ascii">
          1.2684140962e-02 -1.7406109672e-04 0.0000000000e+00 
          1.2684140962e-02 -1.7406109672e-04 0.0000000000e+00 
          1.5743832275e-02 -1.9716830003e-04 0.0000000000e+00 
          1.5743832275e-02 -1.9716830003e-04 0.0000000000e+00 
          0.0000000000e+00 0.0000000000e+00 0.0000000000e+00 
          0.0000000000e+00 0.0000000000e+00 0.0000000000e+00 
          1.2835478566e-02 -1.7523834423e-04 0.0000000000e+00 
          1.2984789516e-02 -1.7638465864e-04 0.0000000000e+00 
          1.3131745326e-02 -1.7749959832e-04 0.0000000000e+00 
          1.3276039197e-02 -1.7858295653e-04 0.0000000000e+00 
          1.3417385755e-02 -1.7963543687e-04 0.0000000000e+00 
          1.3555522225e-02 -1.8065695592e-04 0.0000000000e+00 
          1.3690208488e-02 -1.8164708420e-04 0.0000000000e+00 
          1.3821228039e-02 -1.8260637794e-04 0.0000000000e+00 
          1.3948386768e-02 -1.8353460051e-04 0.0000000000e+00 
          1.4071513895e-02 -1.8443201326e-04 0.0000000000e+00 
          1.4190461275e-02 -1.8529828122e-04 0.0000000000e+00 
          1.4305103256e-02 -1.8613323266e-04 0.0000000000e+00 
          1.4415335476e-02 -1.8693784699e-04 0.0000000000e+00 
          1.4521074619e-02 -1.8771199668e-04 0.0000000000e+00 
          1.4622257642e-02 -1.8845511358e-04 0.0000000000e+00 
          1.4718840298e-02 -1.8916809836e-04 0.0000000000e+00 
          1.4810796451e-02 -1.8985001481e-04 0.0000000000e+00 
          1.4898116495e-02 -1.9050071409e-04 0.0000000000e+00 
          1.4980806291e-02 -1.9112148168e-04 0.0000000000e+00 
          1.5058885636e-02 -1.9171133194e-04 0.0000000000e+00 
          1.5132387095e-02 -1.9227049983e-04 0.0000000000e+00 
          1.5201353870e-02 -1.9279944402e-04 0.0000000000e+00 
          1.5265838797e-02 -1.9329833812e-04 0.0000000000e+00 
          1.5325902452e-02 -1.9376707312e-04 0.0000000000e+00 
          1.5381611773e-02 -1.9420548787e-04 0.0000000000e+00 
          1.5433038149e-02 -1.9461373206e-04 0.0000000000e+00 
          1.5480256247e-02 -1.9499191407e-04 0.0000000000e+00 
          1.5523342240e-02 -1.9534000287e-04 0.0000000000e+00 
          1.5562372451e-02 -1.9565698510e-04 0.0000000000e+00 
          1.5597421851e-02 -1.9594397114e-04 0.0000000000e+00 
          1.5628562344e-02 -1.9620107888e-04 0.0000000000e+00 
          1.5655862165e-02 -1.9642714345e-04 0.0000000000e+00 
          1.5679384312e-02 -1.9662327576e-04 0.0000000000e+00 
          1.5699185747e-02 -1.9678982334e-04 0.0000000000e+00 
          1.5715316226e-02 -1.9692549992e-04 0.0000000000e+00 
          1.5727817409e-02 -1.9703121253e-04 0.0000000000e+00 
          1.5736722654e-02 -1.9710720221e-04 0.0000000000e+00 
          1.5742056111e-02 -1.9715276536e-04 0.0000000000e+00 
          1.2835478566e-02 -1.7523834423e-04 0.0000000000e+00 
          1.2984789516e-02 -1.7638465864e-04 0.0000000000e+00 
          1.3131745326e-02 -1.7749959832e-04 0.0000000000e+00 
          1.3276039197e-02 -1.7858295653e-04 0.0000000000e+00 
          1.3417385755e-02 -1.7963543687e-04 0.0000000000e+00 
          1.3555522225e-02 -1.8065695592e-04 0.0000000000e+00 
          1.3690208488e-02 -1.8164708420e-04 0.0000000000e+00 
          1.3821228039e-02 -1.8260637794e-04 0.0000000000e+00 
          1.3948386768e-02 -1.8353460051e-04 0.0000000000e+00 
          1.4071513895e-02 -1.8443201326e-04 0.0000000000e+00 
          1.4190461275e-02 -1.8529828122e-04 0.0000000000e+00 
          1.4305103256e-02 -1.8613323266e-04 0.0000000000e+00 
          1.4415335476e-02 -1.8693784699e-04 0.0000000000e+00 
          1.4521074619e-02 -1.8771199668e-04 0.0000000000e+00 
          1.4622257642e-02 -1.8845511358e-04 0.0000000000e+00 
          1.4718840298e-02 -1.8916809836e-04 0.0000000000e+00 
          1.4810796451e-02 -1.8985001481e-04 0.0000000000e+00 
          1.4898116495e-02 -1.9050071409e-04 0.0000000000e+00 
          1.4980806291e-02 -1.9112148168e-04 0.0000000000e+00 
          1.5058885636e-02 -1.9171133194e-04 0.0000000000e+00 
          1.5132387095e-02 -1.9227049983e-04 0.0000000000e+00 
          1.5201353870e-02 -1.9279944402e-04 0.0000000000e+00 
          1.5265838797e-02 -1.9329833812e-04 0.0000000000e+00 
          1.5325902452e-02 -1.9376707312e-04 0.0000000000e+00 
          1.5381611773e-02 -1.9420548787e-04 0.0000000000e+00 
          1.5433038149e-02 -1.9461373206e-04 0.0000000000e+00 
          1.5480256247e-02 -1.9499191407e-04 0.0000000000e+00 
          1.5523342240e-02 -1.9534000287e-04 0.0000000000e+00 
          1.5562372451e-02 -1.9565698510e-04 0.0000000000e+00 
          1.5597421851e-02 -1.9594397114e-04 0.0000000000e+00 
          1.5628562344e-02 -1.9620107888e-04 0.0000000000e+00 
          1.5655862165e-02 -1.9642714345e-04 0.0000000000e+00 
          1.5679384312e-02 -1.9662327576e-04 0.0000000000e+00 
          1.5699185747e-02 -1.9678982334e-04 0.0000000000e+00 
          1.5715316226e-02 -1.9692549992e-04 0.0000000000e+00 
          1.5727817409e-02 -1.9703121253e-04 0.0000000000e+00 
          1.5736722654e-02 -1.9710720221e-04 0.0000000000e+00 
          1.5742056111e-02 -1.9715276536e-04 0.0000000000e+00 
        </DataArray>
        <DataArray type="Float64" Name="Acceleration" NumberOfComponents="3" format="ascii">
          -1.5120425500e-01 -7.8598827612e-07 0.0000000000e+00 
          -1.5120425500e-01 -7.8598827612e-07 0.0000000000e+00 
          -3.2007180186e-01 1.1355583179e-05 0.0000000000e+00 
          -3.2007180186e-01 1.1355583179e-05 0.0000000000e+00 
          0.0000000000e+00 0.0000000000e+00 0.0000000000e+00 
          0.0000000000e+00 0.0000000000e+00 0.0000000000e+00 
          -1.8260555581e-01 -1.3198441122e-05 0.0000000000e+00 
          -2.1218564362e-01 6.6129247864e-05 0.0000000000e+00 
          -2.3986339699e-01 1.0390594111e-04 0.0000000000e+00 
          -2.6555870219e-01 -2.3151348670e-05 0.0000000000e+00 
          -2.8923524428e-01 -8.1165677908e-06 0.0000000000e+00 
          -3.1085486155e-01 6.9047663034e-05 0.0000000000e+00 
          -3.3039404540e-01 -3.0722324285e-05 0.0000000000e+00 
          -3.4786761366e-01 1.1682705512e-05 0.0000000000e+00 
          -3.6325541975e-01 -3.5413218115e-05 0.0000000000e+00 
          -3.7658963355e-01 2.4751224307e-05 0.0000000000e+00 
          -3.8793920108e-01 5.6102371818e-05 0.0000000000e+00 
          -3.9732819783e-01 -1.2059693457e-04 0.0000000000e+00 
          -4.0483509549e-01 -9.7617066073e-05 0.0000000000e+00 
          -4.1051538362e-01 4.7669164822e-06 0.0000000000e+00 
          -4.1449118560e-01 -1.5769975838e-04 0.0000000000e+00 
          -4.1686854554e-01 1.1341220719e-05 0.0000000000e+00 
          -4.1772263889e-01 3.7992982877e-05 0.0000000000e+00 
          -4.1719449071e-01 -1.9365363701e-04 0.0000000000e+00 
          -4.1540185574e-01 -1.6175881315e-05 0.0000000000e+00 
          -4.1248595351e-01 -5.8239418392e-05 0.0000000000e+00 
          -4.0858398409e-01 -1.4103290938e-04 0.0000000000e+00 
          -4.0382335975e-01 -1.7231918192e-04 0.0000000000e+00 
          -3.9835858447e-01 -1.5278193730e-04 0.0000000000e+00 
          -3.9234137802e-01 -1.2352141594e-04 0.0000000000e+00 
          -3.8590176283e-01 -1.5061236551e-04 0.0000000000e+00 
          -3.7917421856e-01 -1.7013926580e-04 0.0000000000e+00 
          -3.7231074462e-01 -1.6454933534e-04 0.0000000000e+00 
          -3.6542968964e-01 1.7990828787e-05 0.0000000000e+00 
          -3.5868377434e-01 -1.8195412001e-04 0.0000000000e+00 
          -3.5220021902e-01 -2.0327645803e-04 0.0000000000e+00 
          -3.4605206780e-01 6.6387258999e-06 0.0000000000e+00 
          -3.4037336996e-01 -1.9359712047e-04 0.0000000000e+00 
          -3.3524652194e-01 -2.5612922374e-04 0.0000000000e+00 
          -3.3076035249e-01 -2.4388681182e-05 0.0000000000e+00 
          -3.2700679662e-01 -1.8783894951e-04 0.0000000000e+00 
          -3.2400023426e-01 -2.3128890634e-04 0.0000000000e+00 
          -3.2182637197e-01 -1.0446093673e-04 0.0000000000e+00 
          -3.2051913635e-01 -1.7621581317e-04 0.0000000000e+00 
          -1.8260555581e-01 -1.3198441122e-05 0.0000000000e+00 
          -2.1218564362e-01 6.6129247864e-05 0.0000000000e+00 
          -2.3986339699e-01 1.0390594111e-04 0.0000000000e+00 
          -2.6555870219e-01 -2.3151348670e-05 0.0000000000e+00 
          -2.8923524428e-01 -8.1165677908e-06 0.0000000000e+00 
          -3.1085486155e-01 6.9047663034e-05 0.0000000000e+00 
          -3.3039404540e-01 -3.0722324285e-05 0.0000000000e+00 
          -3.4786761366e-01 1.1682705512e-05 0.0000000000e+00 
          -3.6325541975e-01 -3.5413218115e-05 0.0000000000e+00 
          -3.7658963355e-01 2.4751224307e-05 0.0000000000e+00 
          -3.8793920108e-01 5.6102371818e-05 0.0000000000e+00 
          -3.9732819783e-01 -1.2059693457e-04 0.0000000000e+00 
          -4.0483509549e-01 -9.7617066073e-05 0.0000000000e+00 
          -4.1051538362e-01 4.7669164822e-06 0.0000000000e+00 
          -4.1449118560e-01 -1.5769975838e-04 0.0000000000e+00 
          -4.1686854554e-01 1.1341220719e-05 0.0000000000e+00 
          -4.1772263889e-01 3.7992982877e-05 0.0000000000e+00 
          -4.1719449071e-01 -1.9365363701e-04 0.0000000000e+00 
          -4.1540185574e-01 -1.6175881315e-05 0.0000000000e+00 
          -4.1248595351e-01 -5.8239418392e-05 0.0000000000e+00 
          -4.0858398409e-01 -1.4103290938e-04 0.0000000000e+00 
          -4.0382335975e-01 -1.7231918192e-04 0.0000000000e+00 
          -3.9835858447e-01 -1.5278193730e-04 0.0000000000e+00 
          -3.9234137802e-01 -1.2352141594e-04 0.0000000000e+00 
          -3.8590176283e-01 -1.5061236551e-04 0.0000000000e+00 
          -3.7917421856e-01 -1.7013926580e-04 0.0000000000e+00 
          -3.7231074462e-01 -1.6454933534e-04 0.0000000000e+00 
          -3.6542968964e-01 1.7990828787e-05 0.0000000000e+00 
          -3.5868377434e-01 -1.8195412001e-04 0.0000000000e+00 
          -3.5220021902e-01 -2.0327645803e-04 0.0000000000e+00 
          -3.4605206780e-01 6.6387258999e-06 0.0000000000e+00 
          -3.4037336996e-01 -1.9359712047e-04 0.0000000000e+00 
          -3.3524652194e-01 -2.5612922374e-04 0.0000000000e+00 
          -3.3076035249e-01 -2.4388681182e-05 0.0000000000e+00 
          -3.2700679662e-01 -1.8783894951e-04 0.0000000000e+00 
          -3.2400023426e-01 -2.3128890634e-04 0.0000000000e+00 
          -3.2182637197e-01 -1.0446093673e-04 0.0000000000e+00 
          -3.2051913635e-01 -1.7621581317e-04 0.0000000000e+00 
        </DataArray>
        <DataArray type="Float64" Name="Reaction" NumberOfComponents="3" format="ascii">
          0.0000000000e+00 0.0000000000e+00 0.0000000000e+00 
          0.0000000000e+00 0.0000000000e+00 0.0000000000e+00 
          0.0000000000e+00 0.0000000000e+00 0.0000000000e+00 
          0.0000000000e+00 0.0000000000e+00 0.0000000000e+00 
          0.0000000000e+00 0.0000000000e+00 0.0000000000e+00 
          0.0000000000e+00 0.0000000000e+00 0.0000000000e+00 
          0.0000000000e+00 0.0000000000e+00 0.0000000000e+00 
          0.0000000000e+00 0.0000000000e+00 0.0000000000e+00 
          0.0000000000e+00 0.0000000000e+00 0.0000000000e+00 
          0.0000000000e+00 0.0000000000e+00 0.0000000000e+00 
          0.0000000000e+00 0.0000000000e+00 0.0000000000e+00 
          0.0000000000e+00 0.0000000000e+00 0.0000000000e+00 
          0.0000000000e+00 0.0000000000e+00 0.0000000000e+00 
          0.0000000000e+00 0.0000000000e+00 0.0000000000e+00 
          0.0000000000e+00 0.0000000000e+00 0.0000000000e+00 
          0.0000000000e+00 0.0000000000e+00 0.0000000000e+00 
          0.0000000000e+00 0.0000000000e+00 0.0000000000e+00 
          0.0000000000e+00 0.0000000000e+00 0.0000000000e+00 
          0.0000000000e+00 0.0000000000e+00 0.0000000000e+00 
          0.0000000000e+00 0.0000000000e+00 0.0000000000e+00 
          0.0000000000e+00 0.0000000000e+00 0.0000000000e+00 
          0.0000000000e+00 0.0000000000e+00 0.0000000000e+00 
          0.0000000000e+00 0.0000000000e+00 0.0000000000e+00 
          0.0000000000e+00 0.0000000000e+00 0.0000000000e+00 
          0.0000000000e+00 0.0000000000e+00 0.0000000000e+00 
          0.0000000000e+00 0.0000000000e+00 0.0000000000e+00 
          0.0000000000e+00 0.0000000000e+00 0.0000000000e+00 
          0.0000000000e+00 0.0000000000e+00 0.0000000000e+00 
          0.0000000000e+00 0.0000000000e+00 0.0000000000e+00 
          0.0000000000e+00 0.0000000000e+00 0.0000000000e+00 
          0.0000000000e+00 0.0000000000e+00 0.0000000000e+00 
          0.0000000000e+00 0.0000000000e+00 0.0000000000e+00 
          0.0000000000e+00 0.0000000000e+00 0.0000000000e+00 
          0.0000000000e+00 0.0000000000e+00 0.0000000000e+00 
          0.0000000000e+00 0.0000000000e+00 0.0000000000e+00 
          0.0000000000e+00 0.0000000000e+00 0.0000000000e+00 
          0.0000000000e+00 0.0000000000e+00 0.0000000000e+00 
          0.0000000000e+00 0.0000000000e+00 0.0000000000e+00 
          0.0000000000e+00 0.0000000000e+00 0.0000000000e+00 
          0.0000000000e+00 0.0000000000e+00 0.0000000000e+00 
          0.0000000000e+00 0.0000000000e+00 0.0000000000e+00 
          0.0000000000e+00 0.0000000000e+00 0.0000000000e+00 
          0.0000000000e+00 0.0000000000e+00 0.0000000000e+00 
          0.0000000000e+00 0.0000000000e+00 0.0000000000e+00 
          0.0000000000e+00 0.0000000000e+00 0.0000000000e+00 
          0.0000000000e+00 0.0000000000e+00 0.0000000000e+00 
          0.0000000000e+00 0.0000000000e+00 0.0000000000e+00 
          0.0000000000e+00 0.0000000000e+00 0.0000000000e+00 
          0.0000000000e+00 0.0000000000e+00 0.0000000000e+00 
          0.0000000000e+00 0.0000000000e+00 0.0000000000e+00 
          0.0000000000e+00 0.0000000000e+00 0.0000000000e+00 
          0.0000000000e+00 0.0000000000e+00 0.0000000000e+00 
          0.0000000000e+00 0.0000000000e+00 0.0000000000e+00 
          0.0000000000e+00 0.0000000000e+00 0.0000000000e+00 
          0.0000000000e+00 0.0000000000e+00 0.0000000000e+00 
          0.0000000000e+00 0.0000000000e+00 0.0000000000e+00 
          0.0000000000e+00 0.0000000000e+00 0.0000000000e+00 
          0.0000000000e+00 0.0000000000e+00 0.0000000000e+00 
          0.0000000000e+00 0.0000000000e+00 0.0000000000e+00 
          0.0000000000e+00 0.0000000000e+00 0.0000000000e+00 
          0.0000000000e+00 0.0000000000e+00 0.0000000000e+00 
          0.0000000000e+00 0.0000000000e+00 0.0000000000e+00 
          0.0000000000e+00 0.0000000000e+00 0.0000000000e+00 
          0.0000000000e+00 0.0000000000e+00 0.0000000000e+00 
          0.0000000000e+00 0.0000000000e+00 0.0000000000e+00 
          0.0000000000e+00 0.0000000000e+00 0.0000000000e+00 
          0.0000000000e+00 0.0000000000e+00 0.0000000000e+00 
          0.0000000000e+00 0.0000000000e+00 0.0000000000e+00 
          0.0000000000e+00 0.0000000000e+00 0.0000000000e+00 
          0.0000000000e+00 0.0000000000e+00 0.0000000000e+00 
          0.0000000000e+00 0.0000000000e+00 0.0000000000e+00 
          0.0000000000e+00 0.0000000000e+00 0.0000000000e+00 
          0.0000000000e+00 0.0000000000e+00 0.0000000000e+00 
          0.0000000000e+00 0.0000000000e+00 0.0000000000e+00 
          0.0000000000e+00 0.0000000000e+00 0.0000000000e+00 
          0.0000000000e+00 0.0000000000e+00 0.0000000000e+00 
          0.0000000000e+00 0.0000000000e+00 0.0000000000e+00 
          0.0000000000e+00 0.0000000000e+00 0.0000000000e+00 
          0.0000000000e+00 0.0000000000e+00 0.0000000000e+00 
          0.0000000000e+00 0.0000000000e+00 0.0000000000e+00 
          0.0000000000e+00 0.0000000000e+00 0.0000000000e+00 
          0.0000000000e+00 0.0000000000e+00 0.0000000000e+00 
        </DataArray>
      </PointData>
      <CellData>
        <DataArray type="Int64" Name="ElementTag" format="ascii">
          0
        </DataArray>
      </CellData>
    </Piece>
  </UnstructuredGrid>
</VTKFile>
