<?xml version="1.0"?>
<VTKFile type="UnstructuredGrid" version="1.0" byte_order="LittleEndian" compressor="vtkZLibDataCompressor">
  <UnstructuredGrid>
    <Piece NumberOfPoints="82" NumberOfCells="1">
      <Points>
        <DataArray type="Float64" Name="Points" NumberOfComponents="3" format="ascii">
          0.0000000000e+00 0.0000000000e+00 0.0000000000e+00 
          2.5000000000e-01 0.0000000000e+00 0.0000000000e+00 
          2.5000000000e-01 3.0000000000e+01 0.0000000000e+00 
          0.0000000000e+00 3.0000000000e+01 0.0000000000e+00 
          0.0000000000e+00 -5.0000000000e+00 0.0000000000e+00 
          2.5000000000e-01 -5.0000000000e+00 0.0000000000e+00 
          2.5000000000e-01 7.6923100000e-01 0.0000000000e+00 
          2.5000000000e-01 1.5384620000e+00 0.0000000000e+00 
          2.5000000000e-01 2.3076920000e+00 0.0000000000e+00 
          2.5000000000e-01 3.0769230000e+00 0.0000000000e+00 
          2.5000000000e-01 3.8461540000e+00 0.0000000000e+00 
          2.5000000000e-01 4.6153850000e+00 0.0000000000e+00 
          2.5000000000e-01 5.3846150000e+00 0.0000000000e+00 
          2.5000000000e-01 6.1538460000e+00 0.0000000000e+00 
          2.5000000000e-01 6.9230770000e+00 0.0000000000e+00 
          2.5000000000e-01 7.6923080000e+00 0.0000000000e+00 
          2.5000000000e-01 8.4615380000e+00 0.0000000000e+00 
          2.5000000000e-01 9.2307690000e+00 0.0000000000e+00 
          2.5000000000e-01 1.0000000000e+01 0.0000000000e+00 
          2.5000000000e-01 1.0769231000e+01 0.0000000000e+00 
          2.5000000000e-01 1.1538462000e+01 0.0000000000e+00 
          2.5000000000e-01 1.2307692000e+01 0.0000000000e+00 
          2.5000000000e-01 1.3076923000e+01 0.0000000000e+00 
          2.5000000000e-01 1.3846154000e+01 0.0000000000e+00 
          2.5000000000e-01 1.4615385000e+01 0.0000000000e+00 
          2.5000000000e-01 1.5384615000e+01 0.0000000000e+00 
          2.5000000000e-01 1.6153846000e+01 0.0000000000e+00 
          2.5000000000e-01 1.6923077000e+01 0.0000000000e+00 
          2.5000000000e-01 1.7692308000e+01 0.0000000000e+00 
          2.5000000000e-01 1.8461538000e+01 0.0000000000e+00 
          2.5000000000e-01 1.9230769000e+01 0.0000000000e+00 
          2.5000000000e-01 2.0000000000e+01 0.0000000000e+00 
          2.5000000000e-01 2.0769231000e+01 0.0000000000e+00 
          2.5000000000e-01 2.1538462000e+01 0.0000000000e+00 
          2.5000000000e-01 2.2307692000e+01 0.0000000000e+00 
          2.5000000000e-01 2.3076923000e+01 0.0000000000e+00 
          2.5000000000e-01 2.3846154000e+01 0.0000000000e+00 
          2.5000000000e-01 2.4615385000e+01 0.0000000000e+00 
          2.5000000000e-01 2.5384615000e+01 0.0000000000e+00 
          2.5000000000e-01 2.6153846000e+01 0.0000000000e+00 
          2.5000000000e-01 2.6923077000e+01 0.0000000000e+00 
          2.5000000000e-01 2.7692308000e+01 0.0000000000e+00 
          2.5000000000e-01 2.8461538000e+01 0.0000000000e+00 
          2.5000000000e-01 2.9230769000e+01 0.0000000000e+00 
          0.0000000000e+00 7.6923100000e-01 0.0000000000e+00 
          0.0000000000e+00 1.5384620000e+00 0.0000000000e+00 
          0.0000000000e+00 2.3076920000e+00 0.0000000000e+00 
          0.0000000000e+00 3.0769230000e+00 0.0000000000e+00 
          0.0000000000e+00 3.8461540000e+00 0.0000000000e+00 
          0.0000000000e+00 4.6153850000e+00 0.0000000000e+00 
          0.0000000000e+00 5.3846150000e+00 0.0000000000e+00 
          0.0000000000e+00 6.1538460000e+00 0.0000000000e+00 
          0.0000000000e+00 6.9230770000e+00 0.0000000000e+00 
          0.0000000000e+00 7.6923080000e+00 0.0000000000e+00 
          0.0000000000e+00 8.4615380000e+00 0.0000000000e+00 
          0.0000000000e+00 9.2307690000e+00 0.0000000000e+00 
          0.0000000000e+00 1.0000000000e+01 0.0000000000e+00 
          0.0000000000e+00 1.0769231000e+01 0.0000000000e+00 
          0.0000000000e+00 1.1538462000e+01 0.0000000000e+00 
          0.0000000000e+00 1.2307692000e+01 0.0000000000e+00 
          0.0000000000e+00 1.3076923000e+01 0.0000000000e+00 
          0.0000000000e+00 1.3846154000e+01 0.0000000000e+00 
          0.0000000000e+00 1.4615385000e+01 0.0000000000e+00 
          0.0000000000e+00 1.5384615000e+01 0.0000000000e+00 
          0.0000000000e+00 1.6153846000e+01 0.0000000000e+00 
          0.0000000000e+00 1.6923077000e+01 0.0000000000e+00 
          0.0000000000e+00 1.7692308000e+01 0.0000000000e+00 
          0.0000000000e+00 1.8461538000e+01 0.0000000000e+00 
          0.0000000000e+00 1.9230769000e+01 0.0000000000e+00 
          0.0000000000e+00 2.0000000000e+01 0.0000000000e+00 
          0.0000000000e+00 2.0769231000e+01 0.0000000000e+00 
          0.0000000000e+00 2.1538462000e+01 0.0000000000e+00 
          0.0000000000e+00 2.2307692000e+01 0.0000000000e+00 
          0.0000000000e+00 2.3076923000e+01 0.0000000000e+00 
          0.0000000000e+00 2.3846154000e+01 0.0000000000e+00 
          0.0000000000e+00 2.4615385000e+01 0.0000000000e+00 
          0.0000000000e+00 2.5384615000e+01 0.0000000000e+00 
          0.0000000000e+00 2.6153846000e+01 0.0000000000e+00 
          0.0000000000e+00 2.6923077000e+01 0.0000000000e+00 
          0.0000000000e+00 2.7692308000e+01 0.0000000000e+00 
          0.0000000000e+00 2.8461538000e+01 0.0000000000e+00 
          0.0000000000e+00 2.9230769000e+01 0.0000000000e+00 
        </DataArray>
      </Points>
      <Cells>
        <DataArray type="Int64" Name="connectivity" format="ascii">
          0
          1
          2
          3
          4
          5
          6
          7
          8
          9
          10
          11
          12
          13
          14
          15
          16
          17
          18
          19
          20
          21
          22
          23
          24
          25
          26
          27
          28
          29
          30
          31
          32
          33
          34
          35
          36
          37
          38
          39
          40
          41
          42
          43
          44
          45
          46
          47
          48
          49
          50
          51
          52
          53
          54
          55
          56
          57
          58
          59
          60
          61
          62
          63
          64
          65
          66
          67
          68
          69
          70
          71
          72
          73
          74
          75
          76
          77
          78
          79
          80
          81
        </DataArray>
        <DataArray type="Int64" Name="offsets" format="ascii">
          82
        </DataArray>
        <DataArray type="Int64" Name="types" format="ascii">
          2
        </DataArray>
      </Cells>
      <PointData>
        <DataArray type="Int64" Name="NodeTag" format="ascii">
          1
          2
          3
          4
          5
          6
          7
          8
          9
          10
          11
          12
          13
          14
          15
          16
          17
          18
          19
          20
          21
          22
          23
          24
          25
          26
          27
          28
          29
          30
          31
          32
          33
          34
          35
          36
          37
          38
          39
          40
          41
          42
          43
          44
          45
          46
          47
          48
          49
          50
          51
          52
          53
          54
          55
          56
          57
          58
          59
          60
          61
          62
          63
          64
          65
          66
          67
          68
          69
          70
          71
          72
          73
          74
          75
          76
          77
          78
          79
          80
          81
          82
        </DataArray>
        <DataArray type="Float64" Name="Velocity" NumberOfComponents="3" format="ascii">
          -2.5276616762e-07 -7.7844848410e-05 0.0000000000e+00 
          -2.5276616762e-07 -7.7844848410e-05 0.0000000000e+00 
          4.0586654551e-06 -7.7907597784e-05 0.0000000000e+00 
          4.0586654551e-06 -7.7907597784e-05 0.0000000000e+00 
          0.0000000000e+00 0.0000000000e+00 0.0000000000e+00 
          0.0000000000e+00 0.0000000000e+00 0.0000000000e+00 
          -7.8734075441e-08 -7.7842763669e-05 0.0000000000e+00 
          9.2629470781e-08 -7.7842457040e-05 0.0000000000e+00 
          2.6816568108e-07 -7.7853994084e-05 0.0000000000e+00 
          4.3787905550e-07 -7.7829775172e-05 0.0000000000e+00 
          6.0983023627e-07 -7.7857917107e-05 0.0000000000e+00 
          7.7996756941e-07 -7.7837570500e-05 0.0000000000e+00 
          9.4617097109e-07 -7.7842544592e-05 0.0000000000e+00 
          1.1140273908e-06 -7.7855582863e-05 0.0000000000e+00 
          1.2766130040e-06 -7.7824844688e-05 0.0000000000e+00 
          1.4379302486e-06 -7.7869857508e-05 0.0000000000e+00 
          1.5972647321e-06 -7.7818331993e-05 0.0000000000e+00 
          1.7514600505e-06 -7.7865564581e-05 0.0000000000e+00 
          1.9051409684e-06 -7.7831856591e-05 0.0000000000e+00 
          2.0521830814e-06 -7.7849342405e-05 0.0000000000e+00 
          2.1990423036e-06 -7.7843858095e-05 0.0000000000e+00 
          2.3376039538e-06 -7.7841916552e-05 0.0000000000e+00 
          2.4768464567e-06 -7.7854021630e-05 0.0000000000e+00 
          2.6068356505e-06 -7.7822647184e-05 0.0000000000e+00 
          2.7354860416e-06 -7.7877516085e-05 0.0000000000e+00 
          2.8586029078e-06 -7.7811319213e-05 0.0000000000e+00 
          2.9743970842e-06 -7.7860554188e-05 0.0000000000e+00 
          3.0890476189e-06 -7.7858115469e-05 0.0000000000e+00 
          3.1941131664e-06 -7.7801232676e-05 0.0000000000e+00 
          3.2957551803e-06 -7.7904061226e-05 0.0000000000e+00 
          3.3928798084e-06 -7.7786779222e-05 0.0000000000e+00 
          3.4790457076e-06 -7.7885926590e-05 0.0000000000e+00 
          3.5666021368e-06 -7.7824271208e-05 0.0000000000e+00 
          3.6409502218e-06 -7.7847240148e-05 0.0000000000e+00 
          3.7124111364e-06 -7.7850581500e-05 0.0000000000e+00 
          3.7795546404e-06 -7.7837289867e-05 0.0000000000e+00 
          3.8325335007e-06 -7.7847993186e-05 0.0000000000e+00 
          3.8902141175e-06 -7.7846093976e-05 0.0000000000e+00 
          3.9291957211e-06 -7.7838465056e-05 0.0000000000e+00 
          3.9709941578e-06 -7.7851525773e-05 0.0000000000e+00 
          4.0009451750e-06 -7.7842687615e-05 0.0000000000e+00 
          4.0239215208e-06 -7.7831952316e-05 0.0000000000e+00 
          4.0443773065e-06 -7.7878515681e-05 0.0000000000e+00 
          4.0507391686e-06 -7.7789850998e-05 0.0000000000e+00 
          -7.8734075441e-08 -7.7842763669e-05 0.0000000000e+00 
          9.2629470781e-08 -7.7842457040e-05 0.0000000000e+00 
          2.6816568108e-07 -7.7853994084e-05 0.0000000000e+00 
          4.3787905550e-07 -7.7829775172e-05 0.0000000000e+00 
          6.0983023627e-07 -7.7857917107e-05 0.0000000000e+00 
          7.7996756941e-07 -7.7837570500e-05 0.0000000000e+00 
          9.4617097109e-07 -7.7842544592e-05 0.0000000000e+00 
          1.1140273908e-06 -7.7855582863e-05 0.0000000000e+00 
          1.2766130040e-06 -7.7824844688e-05 0.0000000000e+00 
          1.4379302486e-06 -7.7869857508e-05 0.0000000000e+00 
          1.5972647321e-06 -7.7818331993e-05 0.0000000000e+00 
          1.7514600505e-06 -7.7865564581e-05 0.0000000000e+00 
          1.9051409684e-06 -7.7831856591e-05 0.0000000000e+00 
          2.0521830814e-06 -7.7849342405e-05 0.0000000000e+00 
          2.1990423036e-06 -7.7843858095e-05 0.0000000000e+00 
          2.3376039538e-06 -7.7841916552e-05 0.0000000000e+00 
          2.4768464567e-06 -7.7854021630e-05 0.0000000000e+00 
          2.6068356505e-06 -7.7822647184e-05 0.0000000000e+00 
          2.7354860416e-06 -7.7877516085e-05 0.0000000000e+00 
          2.8586029078e-06 -7.7811319213e-05 0.0000000000e+00 
          2.9743970842e-06 -7.7860554188e-05 0.0000000000e+00 
          3.0890476189e-06 -7.7858115469e-05 0.0000000000e+00 
          3.1941131664e-06 -7.7801232676e-05 0.0000000000e+00 
          3.2957551803e-06 -7.7904061226e-05 0.0000000000e+00 
          3.3928798084e-06 -7.7786779222e-05 0.0000000000e+00 
          3.4790457076e-06 -7.7885926590e-05 0.0000000000e+00 
          3.5666021368e-06 -7.7824271208e-05 0.0000000000e+00 
          3.6409502218e-06 -7.7847240148e-05 0.0000000000e+00 
          3.7124111364e-06 -7.7850581500e-05 0.0000000000e+00 
          3.7795546404e-06 -7.7837289867e-05 0.0000000000e+00 
          3.8325335007e-06 -7.7847993186e-05 0.0000000000e+00 
          3.8902141175e-06 -7.7846093976e-05 0.0000000000e+00 
          3.9291957211e-06 -7.7838465056e-05 0.0000000000e+00 
          3.9709941578e-06 -7.7851525773e-05 0.0000000000e+00 
          4.0009451750e-06 -7.7842687615e-05 0.0000000000e+00 
          4.0239215208e-06 -7.7831952316e-05 0.0000000000e+00 
          4.0443773065e-06 -7.7878515681e-05 0.0000000000e+00 
          4.0507391686e-06 -7.7789850998e-05 0.0000000000e+00 
        </DataArray>
        <DataArray type="Float64" Name="Displacement" NumberOfComponents="3" format="ascii">
          -6.4944070785e-08 -7.6027328661e-04 0.0000000000e+00 
          -6.4944070785e-08 -7.6027328661e-04 0.0000000000e+00 
          -1.4236437946e-07 -7.8385362220e-04 0.0000000000e+00 
          -1.4236437946e-07 -7.8385362220e-04 0.0000000000e+00 
          0.0000000000e+00 0.0000000000e+00 0.0000000000e+00 
          0.0000000000e+00 0.0000000000e+00 0.0000000000e+00 
          -6.9083427808e-08 -7.6146703593e-04 0.0000000000e+00 
          -7.3117179388e-08 -7.6262974979e-04 0.0000000000e+00 
          -7.7016934995e-08 -7.6376153176e-04 0.0000000000e+00 
          -8.0809211591e-08 -7.6486217038e-04 0.0000000000e+00 
          -8.4481459002e-08 -7.6593199587e-04 0.0000000000e+00 
          -8.8023307489e-08 -7.6697061143e-04 0.0000000000e+00 
          -9.1461190489e-08 -7.6797836466e-04 0.0000000000e+00 
          -9.4764983306e-08 -7.6895508450e-04 0.0000000000e+00 
          -9.7955397755e-08 -7.6990069370e-04 0.0000000000e+00 
          -1.0102699507e-07 -7.7081549792e-04 0.0000000000e+00 
          -1.0397305405e-07 -7.7169906439e-04 0.0000000000e+00 
          -1.0680825133e-07 -7.7255181828e-04 0.0000000000e+00 
          -1.0951901669e-07 -7.7337344640e-04 0.0000000000e+00 
          -1.1211413613e-07 -7.7416411769e-04 0.0000000000e+00 
          -1.1459591372e-07 -7.7492377761e-04 0.0000000000e+00 
          -1.1695620073e-07 -7.7565241490e-04 0.0000000000e+00 
          -1.1920864876e-07 -7.7635007154e-04 0.0000000000e+00 
          -1.2134290745e-07 -7.7701668985e-04 0.0000000000e+00 
          -1.2336781715e-07 -7.7765233954e-04 0.0000000000e+00 
          -1.2528170190e-07 -7.7825694093e-04 0.0000000000e+00 
          -1.2708557443e-07 -7.7883058284e-04 0.0000000000e+00 
          -1.2878392659e-07 -7.7937316291e-04 0.0000000000e+00 
          -1.3036969898e-07 -7.7988480194e-04 0.0000000000e+00 
          -1.3186228720e-07 -7.8036536553e-04 0.0000000000e+00 
          -1.3323462041e-07 -7.8081499099e-04 0.0000000000e+00 
          -1.3452129680e-07 -7.8123353719e-04 0.0000000000e+00 
          -1.3569701377e-07 -7.8162116232e-04 0.0000000000e+00 
          -1.3677169583e-07 -7.8197769185e-04 0.0000000000e+00 
          -1.3776053592e-07 -7.8230328732e-04 0.0000000000e+00 
          -1.3863468810e-07 -7.8259783367e-04 0.0000000000e+00 
          -1.3942635434e-07 -7.8286139077e-04 0.0000000000e+00 
          -1.4011944011e-07 -7.8309394414e-04 0.0000000000e+00 
          -1.4071142367e-07 -7.8329546404e-04 0.0000000000e+00 
          -1.4122257217e-07 -7.8346603913e-04 0.0000000000e+00 
          -1.4162900951e-07 -7.8360551573e-04 0.0000000000e+00 
          -1.4195073540e-07 -7.8371408167e-04 0.0000000000e+00 
          -1.4217996647e-07 -7.8379158295e-04 0.0000000000e+00 
          -1.4231187754e-07 -7.8383806885e-04 0.0000000000e+00 
          -6.9083427808e-08 -7.6146703593e-04 0.0000000000e+00 
          -7.3117179388e-08 -7.6262974979e-04 0.0000000000e+00 
          -7.7016934995e-08 -7.6376153176e-04 0.0000000000e+00 
          -8.0809211591e-08 -7.6486217038e-04 0.0000000000e+00 
          -8.4481459002e-08 -7.6593199587e-04 0.0000000000e+00 
          -8.8023307489e-08 -7.6697061143e-04 0.0000000000e+00 
          -9.1461190489e-08 -7.6797836466e-04 0.0000000000e+00 
          -9.4764983306e-08 -7.6895508450e-04 0.0000000000e+00 
          -9.7955397755e-08 -7.6990069370e-04 0.0000000000e+00 
          -1.0102699507e-07 -7.7081549792e-04 0.0000000000e+00 
          -1.0397305405e-07 -7.7169906439e-04 0.0000000000e+00 
          -1.0680825133e-07 -7.7255181828e-04 0.0000000000e+00 
          -1.0951901669e-07 -7.7337344640e-04 0.0000000000e+00 
          -1.1211413613e-07 -7.7416411769e-04 0.0000000000e+00 
          -1.1459591372e-07 -7.7492377761e-04 0.0000000000e+00 
          -1.1695620073e-07 -7.7565241490e-04 0.0000000000e+00 
          -1.1920864876e-07 -7.7635007154e-04 0.0000000000e+00 
          -1.2134290745e-07 -7.7701668985e-04 0.0000000000e+00 
          -1.2336781715e-07 -7.7765233954e-04 0.0000000000e+00 
          -1.2528170190e-07 -7.7825694093e-04 0.0000000000e+00 
          -1.2708557443e-07 -7.7883058284e-04 0.0000000000e+00 
          -1.2878392659e-07 -7.7937316291e-04 0.0000000000e+00 
          -1.3036969898e-07 -7.7988480194e-04 0.0000000000e+00 
          -1.3186228720e-07 -7.8036536553e-04 0.0000000000e+00 
          -1.3323462041e-07 -7.8081499099e-04 0.0000000000e+00 
          -1.3452129680e-07 -7.8123353719e-04 0.0000000000e+00 
          -1.3569701377e-07 -7.8162116232e-04 0.0000000000e+00 
          -1.3677169583e-07 -7.8197769185e-04 0.0000000000e+00 
          -1.3776053592e-07 -7.8230328732e-04 0.0000000000e+00 
          -1.3863468810e-07 -7.8259783367e-04 0.0000000000e+00 
          -1.3942635434e-07 -7.8286139077e-04 0.0000000000e+00 
          -1.4011944011e-07 -7.8309394414e-04 0.0000000000e+00 
          -1.4071142367e-07 -7.8329546404e-04 0.0000000000e+00 
          -1.4122257217e-07 -7.8346603913e-04 0.0000000000e+00 
          -1.4162900951e-07 -7.8360551573e-04 0.0000000000e+00 
          -1.4195073540e-07 -7.8371408167e-04 0.0000000000e+00 
          -1.4217996647e-07 -7.8379158295e-04 0.0000000000e+00 
          -1.4231187754e-07 -7.8383806885e-04 0.0000000000e+00 
        </DataArray>
        <DataArray type="Float64" Name="Acceleration" NumberOfComponents="3" format="ascii">
          1.0497449286e-05 7.4948882711e-08 0.0000000000e+00 
          1.0497449286e-05 7.4948882711e-08 0.0000000000e+00 
          9.4610528799e-06 1.8087548491e-05 0.0000000000e+00 
          9.4610528799e-06 1.8087548491e-05 0.0000000000e+00 
          0.0000000000e+00 0.0000000000e+00 0.0000000000e+00 
          0.0000000000e+00 0.0000000000e+00 0.0000000000e+00 
          9.5152589245e-06 5.2475536034e-06 0.0000000000e+00 
          1.2072852870e-05 -1.3676378477e-05 0.0000000000e+00 
          9.6845342311e-06 2.4959472840e-05 0.0000000000e+00 
          1.0814866617e-05 -3.4818477031e-05 0.0000000000e+00 
          1.1749200585e-05 3.6690236759e-05 0.0000000000e+00 
          9.3670990652e-06 -2.6184450858e-05 0.0000000000e+00 
          1.2082200877e-05 5.1152210799e-06 0.0000000000e+00 
          1.0215614826e-05 1.8796618156e-05 0.0000000000e+00 
          1.0705658226e-05 -3.6285881289e-05 0.0000000000e+00 
          1.1310914761e-05 4.1497834605e-05 0.0000000000e+00 
          9.9892092618e-06 -3.4703545943e-05 0.0000000000e+00 
          1.1211561533e-05 2.1520854036e-05 0.0000000000e+00 
          1.0419925941e-05 -8.9228179208e-06 0.0000000000e+00 
          1.0212324881e-05 9.0861428975e-07 0.0000000000e+00 
          1.0946271582e-05 2.7705472701e-06 0.0000000000e+00 
          9.7167870956e-06 -4.4561546801e-06 0.0000000000e+00 
          1.0649093956e-05 5.7642621932e-06 0.0000000000e+00 
          9.8525598942e-06 -6.7955117392e-06 0.0000000000e+00 
          1.0003349376e-05 7.4243055403e-06 0.0000000000e+00 
          9.9125482881e-06 -8.3000278095e-06 0.0000000000e+00 
          9.5075946990e-06 1.0003082981e-05 0.0000000000e+00 
          1.0143658675e-05 -1.1767400891e-05 0.0000000000e+00 
          8.3959093479e-06 1.2343944008e-05 0.0000000000e+00 
          1.0835394964e-05 -1.2174040701e-05 0.0000000000e+00 
          7.7178491430e-06 1.3139261778e-05 0.0000000000e+00 
          9.9976629367e-06 -1.5364732498e-05 0.0000000000e+00 
          9.1034445516e-06 1.6086033095e-05 0.0000000000e+00 
          7.7344196482e-06 -1.3098212945e-05 0.0000000000e+00 
          1.0333731088e-05 7.7908622548e-06 0.0000000000e+00 
          7.4321446392e-06 -3.0807114658e-06 0.0000000000e+00 
          8.8822958238e-06 -4.6908480411e-07 0.0000000000e+00 
          9.1094455035e-06 4.8470105340e-06 0.0000000000e+00 
          7.2834725485e-06 -1.1037622248e-05 0.0000000000e+00 
          9.4346819258e-06 1.6605963411e-05 0.0000000000e+00 
          7.6326692630e-06 -1.7240757957e-05 0.0000000000e+00 
          8.3339445597e-06 1.0495845003e-05 0.0000000000e+00 
          8.7687567966e-06 1.6519542323e-06 0.0000000000e+00 
          7.1549213038e-06 -1.3298552360e-05 0.0000000000e+00 
          9.5152589245e-06 5.2475536034e-06 0.0000000000e+00 
          1.2072852870e-05 -1.3676378477e-05 0.0000000000e+00 
          9.6845342311e-06 2.4959472840e-05 0.0000000000e+00 
          1.0814866617e-05 -3.4818477031e-05 0.0000000000e+00 
          1.1749200585e-05 3.6690236759e-05 0.0000000000e+00 
          9.3670990652e-06 -2.6184450858e-05 0.0000000000e+00 
          1.2082200877e-05 5.1152210799e-06 0.0000000000e+00 
          1.0215614826e-05 1.8796618156e-05 0.0000000000e+00 
          1.0705658226e-05 -3.6285881289e-05 0.0000000000e+00 
          1.1310914761e-05 4.1497834605e-05 0.0000000000e+00 
          9.9892092618e-06 -3.4703545943e-05 0.0000000000e+00 
          1.1211561533e-05 2.1520854036e-05 0.0000000000e+00 
          1.0419925941e-05 -8.9228179208e-06 0.0000000000e+00 
          1.0212324881e-05 9.0861428975e-07 0.0000000000e+00 
          1.0946271582e-05 2.7705472701e-06 0.0000000000e+00 
          9.7167870956e-06 -4.4561546801e-06 0.0000000000e+00 
          1.0649093956e-05 5.7642621932e-06 0.0000000000e+00 
          9.8525598942e-06 -6.7955117392e-06 0.0000000000e+00 
          1.0003349376e-05 7.4243055403e-06 0.0000000000e+00 
          9.9125482881e-06 -8.3000278095e-06 0.0000000000e+00 
          9.5075946990e-06 1.0003082981e-05 0.0000000000e+00 
          1.0143658675e-05 -1.1767400891e-05 0.0000000000e+00 
          8.3959093479e-06 1.2343944008e-05 0.0000000000e+00 
          1.0835394964e-05 -1.2174040701e-05 0.0000000000e+00 
          7.7178491430e-06 1.3139261778e-05 0.0000000000e+00 
          9.9976629367e-06 -1.5364732498e-05 0.0000000000e+00 
          9.1034445516e-06 1.6086033095e-05 0.0000000000e+00 
          7.7344196482e-06 -1.3098212945e-05 0.0000000000e+00 
          1.0333731088e-05 7.7908622548e-06 0.0000000000e+00 
          7.4321446392e-06 -3.0807114658e-06 0.0000000000e+00 
          8.8822958238e-06 -4.6908480411e-07 0.0000000000e+00 
          9.1094455035e-06 4.8470105340e-06 0.0000000000e+00 
          7.2834725485e-06 -1.1037622248e-05 0.0000000000e+00 
          9.4346819258e-06 1.6605963411e-05 0.0000000000e+00 
          7.6326692630e-06 -1.7240757957e-05 0.0000000000e+00 
          8.3339445597e-06 1.0495845003e-05 0.0000000000e+00 
          8.7687567966e-06 1.6519542323e-06 0.0000000000e+00 
          7.1549213038e-06 -1.3298552360e-05 0.0000000000e+00 
        </DataArray>
        <DataArray type="Float64" Name="Reaction" NumberOfComponents="3" format="ascii">
          0.0000000000e+00 0.0000000000e+00 0.0000000000e+00 
          0.0000000000e+00 0.0000000000e+00 0.0000000000e+00 
          0.0000000000e+00 0.0000000000e+00 0.0000000000e+00 
          0.0000000000e+00 0.0000000000e+00 0.0000000000e+00 
          0.0000000000e+00 0.0000000000e+00 0.0000000000e+00 
          0.0000000000e+00 0.0000000000e+00 0.0000000000e+00 
          0.0000000000e+00 0.0000000000e+00 0.0000000000e+00 
          0.0000000000e+00 0.0000000000e+00 0.0000000000e+00 
          0.0000000000e+00 0.0000000000e+00 0.0000000000e+00 
          0.0000000000e+00 0.0000000000e+00 0.0000000000e+00 
          0.0000000000e+00 0.0000000000e+00 0.0000000000e+00 
          0.0000000000e+00 0.0000000000e+00 0.0000000000e+00 
          0.0000000000e+00 0.0000000000e+00 0.0000000000e+00 
          0.0000000000e+00 0.0000000000e+00 0.0000000000e+00 
          0.0000000000e+00 0.0000000000e+00 0.0000000000e+00 
          0.0000000000e+00 0.0000000000e+00 0.0000000000e+00 
          0.0000000000e+00 0.0000000000e+00 0.0000000000e+00 
          0.0000000000e+00 0.0000000000e+00 0.0000000000e+00 
          0.0000000000e+00 0.0000000000e+00 0.0000000000e+00 
          0.0000000000e+00 0.0000000000e+00 0.0000000000e+00 
          0.0000000000e+00 0.0000000000e+00 0.0000000000e+00 
          0.0000000000e+00 0.0000000000e+00 0.0000000000e+00 
          0.0000000000e+00 0.0000000000e+00 0.0000000000e+00 
          0.0000000000e+00 0.0000000000e+00 0.0000000000e+00 
          0.0000000000e+00 0.0000000000e+00 0.0000000000e+00 
          0.0000000000e+00 0.0000000000e+00 0.0000000000e+00 
          0.0000000000e+00 0.0000000000e+00 0.0000000000e+00 
          0.0000000000e+00 0.0000000000e+00 0.0000000000e+00 
          0.0000000000e+00 0.0000000000e+00 0.0000000000e+00 
          0.0000000000e+00 0.0000000000e+00 0.0000000000e+00 
          0.0000000000e+00 0.0000000000e+00 0.0000000000e+00 
          0.0000000000e+00 0.0000000000e+00 0.0000000000e+00 
          0.0000000000e+00 0.0000000000e+00 0.0000000000e+00 
          0.0000000000e+00 0.0000000000e+00 0.0000000000e+00 
          0.0000000000e+00 0.0000000000e+00 0.0000000000e+00 
          0.0000000000e+00 0.0000000000e+00 0.0000000000e+00 
          0.0000000000e+00 0.0000000000e+00 0.0000000000e+00 
          0.0000000000e+00 0.0000000000e+00 0.0000000000e+00 
          0.0000000000e+00 0.0000000000e+00 0.0000000000e+00 
          0.0000000000e+00 0.0000000000e+00 0.0000000000e+00 
          0.0000000000e+00 0.0000000000e+00 0.0000000000e+00 
          0.0000000000e+00 0.0000000000e+00 0.0000000000e+00 
          0.0000000000e+00 0.0000000000e+00 0.0000000000e+00 
          0.0000000000e+00 0.0000000000e+00 0.0000000000e+00 
          0.0000000000e+00 0.0000000000e+00 0.0000000000e+00 
          0.0000000000e+00 0.0000000000e+00 0.0000000000e+00 
          0.0000000000e+00 0.0000000000e+00 0.0000000000e+00 
          0.0000000000e+00 0.0000000000e+00 0.0000000000e+00 
          0.0000000000e+00 0.0000000000e+00 0.0000000000e+00 
          0.0000000000e+00 0.0000000000e+00 0.0000000000e+00 
          0.0000000000e+00 0.0000000000e+00 0.0000000000e+00 
          0.0000000000e+00 0.0000000000e+00 0.0000000000e+00 
          0.0000000000e+00 0.0000000000e+00 0.0000000000e+00 
          0.0000000000e+00 0.0000000000e+00 0.0000000000e+00 
          0.0000000000e+00 0.0000000000e+00 0.0000000000e+00 
          0.0000000000e+00 0.0000000000e+00 0.0000000000e+00 
          0.0000000000e+00 0.0000000000e+00 0.0000000000e+00 
          0.0000000000e+00 0.0000000000e+00 0.0000000000e+00 
          0.0000000000e+00 0.0000000000e+00 0.0000000000e+00 
          0.0000000000e+00 0.0000000000e+00 0.0000000000e+00 
          0.0000000000e+00 0.0000000000e+00 0.0000000000e+00 
          0.0000000000e+00 0.0000000000e+00 0.0000000000e+00 
          0.0000000000e+00 0.0000000000e+00 0.0000000000e+00 
          0.0000000000e+00 0.0000000000e+00 0.0000000000e+00 
          0.0000000000e+00 0.0000000000e+00 0.0000000000e+00 
          0.0000000000e+00 0.0000000000e+00 0.0000000000e+00 
          0.0000000000e+00 0.0000000000e+00 0.0000000000e+00 
          0.0000000000e+00 0.0000000000e+00 0.0000000000e+00 
          0.0000000000e+00 0.0000000000e+00 0.0000000000e+00 
          0.0000000000e+00 0.0000000000e+00 0.0000000000e+00 
          0.0000000000e+00 0.0000000000e+00 0.0000000000e+00 
          0.0000000000e+00 0.0000000000e+00 0.0000000000e+00 
          0.0000000000e+00 0.0000000000e+00 0.0000000000e+00 
          0.0000000000e+00 0.0000000000e+00 0.0000000000e+00 
          0.0000000000e+00 0.0000000000e+00 0.0000000000e+00 
          0.0000000000e+00 0.0000000000e+00 0.0000000000e+00 
          0.0000000000e+00 0.0000000000e+00 0.0000000000e+00 
          0.0000000000e+00 0.0000000000e+00 0.0000000000e+00 
          0.0000000000e+00 0.0000000000e+00 0.0000000000e+00 
          0.0000000000e+00 0.0000000000e+00 0.0000000000e+00 
          0.0000000000e+00 0.0000000000e+00 0.0000000000e+00 
          0.0000000000e+00 0.0000000000e+00 0.0000000000e+00 
        </DataArray>
      </PointData>
      <CellData>
        <DataArray type="Int64" Name="ElementTag" format="ascii">
          0
        </DataArray>
      </CellData>
    </Piece>
  </UnstructuredGrid>
</VTKFile>
