<?xml version="1.0"?>
<VTKFile type="UnstructuredGrid" version="1.0" byte_order="LittleEndian" compressor="vtkZLibDataCompressor">
  <UnstructuredGrid>
    <Piece NumberOfPoints="80" NumberOfCells="39">
      <Points>
        <DataArray type="Float64" Name="Points" NumberOfComponents="3" format="ascii">
          0.0000000000e+00 0.0000000000e+00 0.0000000000e+00 
          2.5000000000e-01 0.0000000000e+00 0.0000000000e+00 
          2.5000000000e-01 3.0000000000e+01 0.0000000000e+00 
          0.0000000000e+00 3.0000000000e+01 0.0000000000e+00 
          2.5000000000e-01 7.6923100000e-01 0.0000000000e+00 
          2.5000000000e-01 1.5384620000e+00 0.0000000000e+00 
          2.5000000000e-01 2.3076920000e+00 0.0000000000e+00 
          2.5000000000e-01 3.0769230000e+00 0.0000000000e+00 
          2.5000000000e-01 3.8461540000e+00 0.0000000000e+00 
          2.5000000000e-01 4.6153850000e+00 0.0000000000e+00 
          2.5000000000e-01 5.3846150000e+00 0.0000000000e+00 
          2.5000000000e-01 6.1538460000e+00 0.0000000000e+00 
          2.5000000000e-01 6.9230770000e+00 0.0000000000e+00 
          2.5000000000e-01 7.6923080000e+00 0.0000000000e+00 
          2.5000000000e-01 8.4615380000e+00 0.0000000000e+00 
          2.5000000000e-01 9.2307690000e+00 0.0000000000e+00 
          2.5000000000e-01 1.0000000000e+01 0.0000000000e+00 
          2.5000000000e-01 1.0769231000e+01 0.0000000000e+00 
          2.5000000000e-01 1.1538462000e+01 0.0000000000e+00 
          2.5000000000e-01 1.2307692000e+01 0.0000000000e+00 
          2.5000000000e-01 1.3076923000e+01 0.0000000000e+00 
          2.5000000000e-01 1.3846154000e+01 0.0000000000e+00 
          2.5000000000e-01 1.4615385000e+01 0.0000000000e+00 
          2.5000000000e-01 1.5384615000e+01 0.0000000000e+00 
          2.5000000000e-01 1.6153846000e+01 0.0000000000e+00 
          2.5000000000e-01 1.6923077000e+01 0.0000000000e+00 
          2.5000000000e-01 1.7692308000e+01 0.0000000000e+00 
          2.5000000000e-01 1.8461538000e+01 0.0000000000e+00 
          2.5000000000e-01 1.9230769000e+01 0.0000000000e+00 
          2.5000000000e-01 2.0000000000e+01 0.0000000000e+00 
          2.5000000000e-01 2.0769231000e+01 0.0000000000e+00 
          2.5000000000e-01 2.1538462000e+01 0.0000000000e+00 
          2.5000000000e-01 2.2307692000e+01 0.0000000000e+00 
          2.5000000000e-01 2.3076923000e+01 0.0000000000e+00 
          2.5000000000e-01 2.3846154000e+01 0.0000000000e+00 
          2.5000000000e-01 2.4615385000e+01 0.0000000000e+00 
          2.5000000000e-01 2.5384615000e+01 0.0000000000e+00 
          2.5000000000e-01 2.6153846000e+01 0.0000000000e+00 
          2.5000000000e-01 2.6923077000e+01 0.0000000000e+00 
          2.5000000000e-01 2.7692308000e+01 0.0000000000e+00 
          2.5000000000e-01 2.8461538000e+01 0.0000000000e+00 
          2.5000000000e-01 2.9230769000e+01 0.0000000000e+00 
          0.0000000000e+00 7.6923100000e-01 0.0000000000e+00 
          0.0000000000e+00 1.5384620000e+00 0.0000000000e+00 
          0.0000000000e+00 2.3076920000e+00 0.0000000000e+00 
          0.0000000000e+00 3.0769230000e+00 0.0000000000e+00 
          0.0000000000e+00 3.8461540000e+00 0.0000000000e+00 
          0.0000000000e+00 4.6153850000e+00 0.0000000000e+00 
          0.0000000000e+00 5.3846150000e+00 0.0000000000e+00 
          0.0000000000e+00 6.1538460000e+00 0.0000000000e+00 
          0.0000000000e+00 6.9230770000e+00 0.0000000000e+00 
          0.0000000000e+00 7.6923080000e+00 0.0000000000e+00 
          0.0000000000e+00 8.4615380000e+00 0.0000000000e+00 
          0.0000000000e+00 9.2307690000e+00 0.0000000000e+00 
          0.0000000000e+00 1.0000000000e+01 0.0000000000e+00 
          0.0000000000e+00 1.0769231000e+01 0.0000000000e+00 
          0.0000000000e+00 1.1538462000e+01 0.0000000000e+00 
          0.0000000000e+00 1.2307692000e+01 0.0000000000e+00 
          0.0000000000e+00 1.3076923000e+01 0.0000000000e+00 
          0.0000000000e+00 1.3846154000e+01 0.0000000000e+00 
          0.0000000000e+00 1.4615385000e+01 0.0000000000e+00 
          0.0000000000e+00 1.5384615000e+01 0.0000000000e+00 
          0.0000000000e+00 1.6153846000e+01 0.0000000000e+00 
          0.0000000000e+00 1.6923077000e+01 0.0000000000e+00 
          0.0000000000e+00 1.7692308000e+01 0.0000000000e+00 
          0.0000000000e+00 1.8461538000e+01 0.0000000000e+00 
          0.0000000000e+00 1.9230769000e+01 0.0000000000e+00 
          0.0000000000e+00 2.0000000000e+01 0.0000000000e+00 
          0.0000000000e+00 2.0769231000e+01 0.0000000000e+00 
          0.0000000000e+00 2.1538462000e+01 0.0000000000e+00 
          0.0000000000e+00 2.2307692000e+01 0.0000000000e+00 
          0.0000000000e+00 2.3076923000e+01 0.0000000000e+00 
          0.0000000000e+00 2.3846154000e+01 0.0000000000e+00 
          0.0000000000e+00 2.4615385000e+01 0.0000000000e+00 
          0.0000000000e+00 2.5384615000e+01 0.0000000000e+00 
          0.0000000000e+00 2.6153846000e+01 0.0000000000e+00 
          0.0000000000e+00 2.6923077000e+01 0.0000000000e+00 
          0.0000000000e+00 2.7692308000e+01 0.0000000000e+00 
          0.0000000000e+00 2.8461538000e+01 0.0000000000e+00 
          0.0000000000e+00 2.9230769000e+01 0.0000000000e+00 
        </DataArray>
      </Points>
      <Cells>
        <DataArray type="Int64" Name="connectivity" format="ascii">
          0 1 4 42 
          42 4 5 43 
          43 5 6 44 
          44 6 7 45 
          45 7 8 46 
          46 8 9 47 
          47 9 10 48 
          48 10 11 49 
          49 11 12 50 
          50 12 13 51 
          51 13 14 52 
          52 14 15 53 
          53 15 16 54 
          54 16 17 55 
          55 17 18 56 
          56 18 19 57 
          57 19 20 58 
          58 20 21 59 
          59 21 22 60 
          60 22 23 61 
          61 23 24 62 
          62 24 25 63 
          63 25 26 64 
          64 26 27 65 
          65 27 28 66 
          66 28 29 67 
          67 29 30 68 
          68 30 31 69 
          69 31 32 70 
          70 32 33 71 
          71 33 34 72 
          72 34 35 73 
          73 35 36 74 
          74 36 37 75 
          75 37 38 76 
          76 38 39 77 
          77 39 40 78 
          78 40 41 79 
          79 41 2 3 
        </DataArray>
        <DataArray type="Int64" Name="offsets" format="ascii">
          4
          8
          12
          16
          20
          24
          28
          32
          36
          40
          44
          48
          52
          56
          60
          64
          68
          72
          76
          80
          84
          88
          92
          96
          100
          104
          108
          112
          116
          120
          124
          128
          132
          136
          140
          144
          148
          152
          156
        </DataArray>
        <DataArray type="Int64" Name="types" format="ascii">
          9
          9
          9
          9
          9
          9
          9
          9
          9
          9
          9
          9
          9
          9
          9
          9
          9
          9
          9
          9
          9
          9
          9
          9
          9
          9
          9
          9
          9
          9
          9
          9
          9
          9
          9
          9
          9
          9
          9
        </DataArray>
      </Cells>
      <PointData>
        <DataArray type="Int64" Name="NodeTag" format="ascii">
          1
          2
          3
          4
          7
          8
          9
          10
          11
          12
          13
          14
          15
          16
          17
          18
          19
          20
          21
          22
          23
          24
          25
          26
          27
          28
          29
          30
          31
          32
          33
          34
          35
          36
          37
          38
          39
          40
          41
          42
          43
          44
          45
          46
          47
          48
          49
          50
          51
          52
          53
          54
          55
          56
          57
          58
          59
          60
          61
          62
          63
          64
          65
          66
          67
          68
          69
          70
          71
          72
          73
          74
          75
          76
          77
          78
          79
          80
          81
          82
        </DataArray>
        <DataArray type="Float64" Name="Velocity" NumberOfComponents="3" format="ascii">
          2.1652975314e-04 -7.7800783753e-05 0.0000000000e+00 
          2.1652975314e-04 -7.7800783753e-05 0.0000000000e+00 
          3.1080517505e-02 -7.8070393087e-05 0.0000000000e+00 
          3.1080517505e-02 -7.8070393087e-05 0.0000000000e+00 
          1.4959388910e-03 -7.7798007970e-05 0.0000000000e+00 
          2.7703306202e-03 -7.7814328291e-05 0.0000000000e+00 
          4.0376491529e-03 -7.7919028521e-05 0.0000000000e+00 
          5.2958843852e-03 -7.7780008633e-05 0.0000000000e+00 
          6.5430642954e-03 -7.7919949516e-05 0.0000000000e+00 
          7.7772089463e-03 -7.7888984648e-05 0.0000000000e+00 
          8.9963913324e-03 -7.7879941723e-05 0.0000000000e+00 
          1.0198704472e-02 -7.7970082242e-05 0.0000000000e+00 
          1.1382276393e-02 -7.7883451481e-05 0.0000000000e+00 
          1.2545298921e-02 -7.7926870013e-05 0.0000000000e+00 
          1.3685968883e-02 -7.8012229888e-05 0.0000000000e+00 
          1.4802555760e-02 -7.7926363906e-05 0.0000000000e+00 
          1.5893386240e-02 -7.7985558305e-05 0.0000000000e+00 
          1.6956803144e-02 -7.8029286936e-05 0.0000000000e+00 
          1.7991243354e-02 -7.7964886385e-05 0.0000000000e+00 
          1.8995175500e-02 -7.8090703681e-05 0.0000000000e+00 
          1.9967121120e-02 -7.7960492460e-05 0.0000000000e+00 
          2.0905683303e-02 -7.8046333799e-05 0.0000000000e+00 
          2.1809514178e-02 -7.8094140486e-05 0.0000000000e+00 
          2.2677328243e-02 -7.8028775464e-05 0.0000000000e+00 
          2.3507900726e-02 -7.8081172878e-05 0.0000000000e+00 
          2.4300078185e-02 -7.8024406124e-05 0.0000000000e+00 
          2.5052756619e-02 -7.8097996081e-05 0.0000000000e+00 
          2.5764911155e-02 -7.8108819381e-05 0.0000000000e+00 
          2.6435589963e-02 -7.7941044460e-05 0.0000000000e+00 
          2.7063871288e-02 -7.8156249746e-05 0.0000000000e+00 
          2.7648927515e-02 -7.8031206411e-05 0.0000000000e+00 
          2.8189987456e-02 -7.8044927956e-05 0.0000000000e+00 
          2.8686351029e-02 -7.8093465618e-05 0.0000000000e+00 
          2.9137365292e-02 -7.8108028993e-05 0.0000000000e+00 
          2.9542443531e-02 -7.8061397810e-05 0.0000000000e+00 
          2.9901085734e-02 -7.7986917232e-05 0.0000000000e+00 
          3.0212817546e-02 -7.8185669152e-05 0.0000000000e+00 
          3.0477263284e-02 -7.8004651133e-05 0.0000000000e+00 
          3.0694071701e-02 -7.8078012840e-05 0.0000000000e+00 
          3.0862979846e-02 -7.8091184033e-05 0.0000000000e+00 
          3.0983791495e-02 -7.8040925036e-05 0.0000000000e+00 
          3.1056328049e-02 -7.8105447879e-05 0.0000000000e+00 
          1.4959388910e-03 -7.7798007970e-05 0.0000000000e+00 
          2.7703306202e-03 -7.7814328291e-05 0.0000000000e+00 
          4.0376491529e-03 -7.7919028521e-05 0.0000000000e+00 
          5.2958843852e-03 -7.7780008633e-05 0.0000000000e+00 
          6.5430642954e-03 -7.7919949516e-05 0.0000000000e+00 
          7.7772089463e-03 -7.7888984648e-05 0.0000000000e+00 
          8.9963913324e-03 -7.7879941723e-05 0.0000000000e+00 
          1.0198704472e-02 -7.7970082242e-05 0.0000000000e+00 
          1.1382276393e-02 -7.7883451481e-05 0.0000000000e+00 
          1.2545298921e-02 -7.7926870013e-05 0.0000000000e+00 
          1.3685968883e-02 -7.8012229888e-05 0.0000000000e+00 
          1.4802555760e-02 -7.7926363906e-05 0.0000000000e+00 
          1.5893386240e-02 -7.7985558305e-05 0.0000000000e+00 
          1.6956803144e-02 -7.8029286936e-05 0.0000000000e+00 
          1.7991243354e-02 -7.7964886385e-05 0.0000000000e+00 
          1.8995175500e-02 -7.8090703681e-05 0.0000000000e+00 
          1.9967121120e-02 -7.7960492460e-05 0.0000000000e+00 
          2.0905683303e-02 -7.8046333799e-05 0.0000000000e+00 
          2.1809514178e-02 -7.8094140486e-05 0.0000000000e+00 
          2.2677328243e-02 -7.8028775464e-05 0.0000000000e+00 
          2.3507900726e-02 -7.8081172878e-05 0.0000000000e+00 
          2.4300078185e-02 -7.8024406124e-05 0.0000000000e+00 
          2.5052756619e-02 -7.8097996081e-05 0.0000000000e+00 
          2.5764911155e-02 -7.8108819381e-05 0.0000000000e+00 
          2.6435589963e-02 -7.7941044460e-05 0.0000000000e+00 
          2.7063871288e-02 -7.8156249746e-05 0.0000000000e+00 
          2.7648927515e-02 -7.8031206411e-05 0.0000000000e+00 
          2.8189987456e-02 -7.8044927956e-05 0.0000000000e+00 
          2.8686351029e-02 -7.8093465618e-05 0.0000000000e+00 
          2.9137365292e-02 -7.8108028993e-05 0.0000000000e+00 
          2.9542443531e-02 -7.8061397810e-05 0.0000000000e+00 
          2.9901085734e-02 -7.7986917232e-05 0.0000000000e+00 
          3.0212817546e-02 -7.8185669152e-05 0.0000000000e+00 
          3.0477263284e-02 -7.8004651133e-05 0.0000000000e+00 
          3.0694071701e-02 -7.8078012840e-05 0.0000000000e+00 
          3.0862979846e-02 -7.8091184033e-05 0.0000000000e+00 
          3.0983791495e-02 -7.8040925036e-05 0.0000000000e+00 
          3.1056328049e-02 -7.8105447879e-05 0.0000000000e+00 
        </DataArray>
        <DataArray type="Float64" Name="Displacement" NumberOfComponents="3" format="ascii">
          -5.2121666843e-04 -3.1733606491e-04 0.0000000000e+00 
          -5.2121666843e-04 -3.1733606491e-04 0.0000000000e+00 
          -2.3982481748e-04 -3.4089474512e-04 0.0000000000e+00 
          -2.3982481748e-04 -3.4089474512e-04 0.0000000000e+00 
          -5.1719279979e-04 -3.1852913017e-04 0.0000000000e+00 
          -5.1236325609e-04 -3.1969106391e-04 0.0000000000e+00 
          -5.0677965522e-04 -3.2082215643e-04 0.0000000000e+00 
          -5.0049465327e-04 -3.2192204606e-04 0.0000000000e+00 
          -4.9356188515e-04 -3.2299089634e-04 0.0000000000e+00 
          -4.8603567133e-04 -3.2402911959e-04 0.0000000000e+00 
          -4.7797103046e-04 -3.2503577986e-04 0.0000000000e+00 
          -4.6942335411e-04 -3.2601171433e-04 0.0000000000e+00 
          -4.6044834204e-04 -3.2695666624e-04 0.0000000000e+00 
          -4.5110194066e-04 -3.2787057587e-04 0.0000000000e+00 
          -4.4143990590e-04 -3.2875343517e-04 0.0000000000e+00 
          -4.3151799966e-04 -3.2960529181e-04 0.0000000000e+00 
          -4.2139154747e-04 -3.3042628076e-04 0.0000000000e+00 
          -4.1111534200e-04 -3.3121588205e-04 0.0000000000e+00 
          -4.0074377543e-04 -3.3197495944e-04 0.0000000000e+00 
          -3.9033019089e-04 -3.3270283509e-04 0.0000000000e+00 
          -3.7992714457e-04 -3.3339964961e-04 0.0000000000e+00 
          -3.6958611836e-04 -3.3406567240e-04 0.0000000000e+00 
          -3.5935729376e-04 -3.3470061142e-04 0.0000000000e+00 
          -3.4928966138e-04 -3.3530454160e-04 0.0000000000e+00 
          -3.3943056182e-04 -3.3587754543e-04 0.0000000000e+00 
          -3.2982578592e-04 -3.3641960779e-04 0.0000000000e+00 
          -3.2051944669e-04 -3.3693057556e-04 0.0000000000e+00 
          -3.1155374139e-04 -3.3741085940e-04 0.0000000000e+00 
          -3.0296891912e-04 -3.3785978839e-04 0.0000000000e+00 
          -2.9480314563e-04 -3.3827785206e-04 0.0000000000e+00 
          -2.8709240804e-04 -3.3866503688e-04 0.0000000000e+00 
          -2.7987045748e-04 -3.3902107261e-04 0.0000000000e+00 
          -2.7316864942e-04 -3.3934632280e-04 0.0000000000e+00 
          -2.6701589400e-04 -3.3964052686e-04 0.0000000000e+00 
          -2.6143859193e-04 -3.3990363861e-04 0.0000000000e+00 
          -2.5646055700e-04 -3.4013603915e-04 0.0000000000e+00 
          -2.5210298355e-04 -3.4033732140e-04 0.0000000000e+00 
          -2.4838430540e-04 -3.4050756164e-04 0.0000000000e+00 
          -2.4532018407e-04 -3.4064708208e-04 0.0000000000e+00 
          -2.4292352490e-04 -3.4075536134e-04 0.0000000000e+00 
          -2.4120441956e-04 -3.4083293738e-04 0.0000000000e+00 
          -2.4017008038e-04 -3.4087937682e-04 0.0000000000e+00 
          -5.1719279979e-04 -3.1852913017e-04 0.0000000000e+00 
          -5.1236325609e-04 -3.1969106391e-04 0.0000000000e+00 
          -5.0677965522e-04 -3.2082215643e-04 0.0000000000e+00 
          -5.0049465327e-04 -3.2192204606e-04 0.0000000000e+00 
          -4.9356188515e-04 -3.2299089634e-04 0.0000000000e+00 
          -4.8603567133e-04 -3.2402911959e-04 0.0000000000e+00 
          -4.7797103046e-04 -3.2503577986e-04 0.0000000000e+00 
          -4.6942335411e-04 -3.2601171433e-04 0.0000000000e+00 
          -4.6044834204e-04 -3.2695666624e-04 0.0000000000e+00 
          -4.5110194066e-04 -3.2787057587e-04 0.0000000000e+00 
          -4.4143990590e-04 -3.2875343517e-04 0.0000000000e+00 
          -4.3151799966e-04 -3.2960529181e-04 0.0000000000e+00 
          -4.2139154747e-04 -3.3042628076e-04 0.0000000000e+00 
          -4.1111534200e-04 -3.3121588205e-04 0.0000000000e+00 
          -4.0074377543e-04 -3.3197495944e-04 0.0000000000e+00 
          -3.9033019089e-04 -3.3270283509e-04 0.0000000000e+00 
          -3.7992714457e-04 -3.3339964961e-04 0.0000000000e+00 
          -3.6958611836e-04 -3.3406567240e-04 0.0000000000e+00 
          -3.5935729376e-04 -3.3470061142e-04 0.0000000000e+00 
          -3.4928966138e-04 -3.3530454160e-04 0.0000000000e+00 
          -3.3943056182e-04 -3.3587754543e-04 0.0000000000e+00 
          -3.2982578592e-04 -3.3641960779e-04 0.0000000000e+00 
          -3.2051944669e-04 -3.3693057556e-04 0.0000000000e+00 
          -3.1155374139e-04 -3.3741085940e-04 0.0000000000e+00 
          -3.0296891912e-04 -3.3785978839e-04 0.0000000000e+00 
          -2.9480314563e-04 -3.3827785206e-04 0.0000000000e+00 
          -2.8709240804e-04 -3.3866503688e-04 0.0000000000e+00 
          -2.7987045748e-04 -3.3902107261e-04 0.0000000000e+00 
          -2.7316864942e-04 -3.3934632280e-04 0.0000000000e+00 
          -2.6701589400e-04 -3.3964052686e-04 0.0000000000e+00 
          -2.6143859193e-04 -3.3990363861e-04 0.0000000000e+00 
          -2.5646055700e-04 -3.4013603915e-04 0.0000000000e+00 
          -2.5210298355e-04 -3.4033732140e-04 0.0000000000e+00 
          -2.4838430540e-04 -3.4050756164e-04 0.0000000000e+00 
          -2.4532018407e-04 -3.4064708208e-04 0.0000000000e+00 
          -2.4292352490e-04 -3.4075536134e-04 0.0000000000e+00 
          -2.4120441956e-04 -3.4083293738e-04 0.0000000000e+00 
          -2.4017008038e-04 -3.4087937682e-04 0.0000000000e+00 
        </DataArray>
        <DataArray type="Float64" Name="Acceleration" NumberOfComponents="3" format="ascii">
          7.7131879851e-02 -8.7055473774e-08 0.0000000000e+00 
          7.7131879851e-02 -8.7055473774e-08 0.0000000000e+00 
          -6.2217736917e-02 -4.8610208389e-05 0.0000000000e+00 
          -6.2217736917e-02 -4.8610208389e-05 0.0000000000e+00 
          7.2592914559e-02 2.2560058985e-05 0.0000000000e+00 
          6.7942739011e-02 -3.0018099990e-05 0.0000000000e+00 
          6.3197008665e-02 3.5689221077e-05 0.0000000000e+00 
          5.8365010815e-02 5.9501997668e-06 0.0000000000e+00 
          5.3470630835e-02 -6.8353995621e-05 0.0000000000e+00 
          4.8514315158e-02 1.0007745647e-04 0.0000000000e+00 
          4.3521535670e-02 -5.0314480235e-05 0.0000000000e+00 
          3.8503791280e-02 -4.2850459231e-06 0.0000000000e+00 
          3.3462910848e-02 6.4784564646e-06 0.0000000000e+00 
          2.8440341100e-02 7.7227861521e-06 0.0000000000e+00 
          2.3413816498e-02 -4.5137853605e-07 0.0000000000e+00 
          1.8429994307e-02 -2.4985142557e-05 0.0000000000e+00 
          1.3493066247e-02 6.8716575875e-05 0.0000000000e+00 
          8.5922233087e-03 -8.6937165919e-05 0.0000000000e+00 
          3.7871252045e-03 3.5044694789e-05 0.0000000000e+00 
          -9.5073556402e-04 1.0050048317e-05 0.0000000000e+00 
          -5.5881342824e-03 -3.8674648489e-05 0.0000000000e+00 
          -1.0109586680e-02 1.3954388786e-05 0.0000000000e+00 
          -1.4522567939e-02 3.1196858374e-07 0.0000000000e+00 
          -1.8790409830e-02 -1.4267865938e-05 0.0000000000e+00 
          -2.2915064118e-02 -1.1688992260e-05 0.0000000000e+00 
          -2.6889733641e-02 1.5902628847e-05 0.0000000000e+00 
          -3.0690759018e-02 -5.8206509227e-05 0.0000000000e+00 
          -3.4319385854e-02 6.2917419134e-05 0.0000000000e+00 
          -3.7757123126e-02 -2.5409760331e-05 0.0000000000e+00 
          -4.0999632516e-02 -2.2973571730e-05 0.0000000000e+00 
          -4.4040676860e-02 2.5723573199e-05 0.0000000000e+00 
          -4.6865112536e-02 -3.9861521622e-05 0.0000000000e+00 
          -4.9471543768e-02 7.2508767585e-06 0.0000000000e+00 
          -5.1849482774e-02 1.5494685015e-05 0.0000000000e+00 
          -5.3995153211e-02 -5.3185384338e-05 0.0000000000e+00 
          -5.5904331031e-02 2.0132651631e-05 0.0000000000e+00 
          -5.7566275360e-02 6.4773402048e-06 0.0000000000e+00 
          -5.8976862545e-02 -5.1633438277e-05 0.0000000000e+00 
          -6.0139659243e-02 4.2317514951e-05 0.0000000000e+00 
          -6.1048775720e-02 -5.4635519204e-05 0.0000000000e+00 
          -6.1699024490e-02 2.3494806719e-05 0.0000000000e+00 
          -6.2087134782e-02 1.1679430987e-05 0.0000000000e+00 
          7.2592914559e-02 2.2560058985e-05 0.0000000000e+00 
          6.7942739011e-02 -3.0018099990e-05 0.0000000000e+00 
          6.3197008665e-02 3.5689221077e-05 0.0000000000e+00 
          5.8365010815e-02 5.9501997668e-06 0.0000000000e+00 
          5.3470630835e-02 -6.8353995621e-05 0.0000000000e+00 
          4.8514315158e-02 1.0007745647e-04 0.0000000000e+00 
          4.3521535670e-02 -5.0314480235e-05 0.0000000000e+00 
          3.8503791280e-02 -4.2850459231e-06 0.0000000000e+00 
          3.3462910848e-02 6.4784564646e-06 0.0000000000e+00 
          2.8440341100e-02 7.7227861521e-06 0.0000000000e+00 
          2.3413816498e-02 -4.5137853605e-07 0.0000000000e+00 
          1.8429994307e-02 -2.4985142557e-05 0.0000000000e+00 
          1.3493066247e-02 6.8716575875e-05 0.0000000000e+00 
          8.5922233087e-03 -8.6937165919e-05 0.0000000000e+00 
          3.7871252045e-03 3.5044694789e-05 0.0000000000e+00 
          -9.5073556402e-04 1.0050048317e-05 0.0000000000e+00 
          -5.5881342824e-03 -3.8674648489e-05 0.0000000000e+00 
          -1.0109586680e-02 1.3954388786e-05 0.0000000000e+00 
          -1.4522567939e-02 3.1196858374e-07 0.0000000000e+00 
          -1.8790409830e-02 -1.4267865938e-05 0.0000000000e+00 
          -2.2915064118e-02 -1.1688992260e-05 0.0000000000e+00 
          -2.6889733641e-02 1.5902628847e-05 0.0000000000e+00 
          -3.0690759018e-02 -5.8206509227e-05 0.0000000000e+00 
          -3.4319385854e-02 6.2917419134e-05 0.0000000000e+00 
          -3.7757123126e-02 -2.5409760331e-05 0.0000000000e+00 
          -4.0999632516e-02 -2.2973571730e-05 0.0000000000e+00 
          -4.4040676860e-02 2.5723573199e-05 0.0000000000e+00 
          -4.6865112536e-02 -3.9861521622e-05 0.0000000000e+00 
          -4.9471543768e-02 7.2508767585e-06 0.0000000000e+00 
          -5.1849482774e-02 1.5494685015e-05 0.0000000000e+00 
          -5.3995153211e-02 -5.3185384338e-05 0.0000000000e+00 
          -5.5904331031e-02 2.0132651631e-05 0.0000000000e+00 
          -5.7566275360e-02 6.4773402048e-06 0.0000000000e+00 
          -5.8976862545e-02 -5.1633438277e-05 0.0000000000e+00 
          -6.0139659243e-02 4.2317514951e-05 0.0000000000e+00 
          -6.1048775720e-02 -5.4635519204e-05 0.0000000000e+00 
          -6.1699024490e-02 2.3494806719e-05 0.0000000000e+00 
          -6.2087134782e-02 1.1679430987e-05 0.0000000000e+00 
        </DataArray>
        <DataArray type="Float64" Name="Reaction" NumberOfComponents="3" format="ascii">
          0.0000000000e+00 0.0000000000e+00 0.0000000000e+00 
          0.0000000000e+00 0.0000000000e+00 0.0000000000e+00 
          0.0000000000e+00 0.0000000000e+00 0.0000000000e+00 
          0.0000000000e+00 0.0000000000e+00 0.0000000000e+00 
          0.0000000000e+00 0.0000000000e+00 0.0000000000e+00 
          0.0000000000e+00 0.0000000000e+00 0.0000000000e+00 
          0.0000000000e+00 0.0000000000e+00 0.0000000000e+00 
          0.0000000000e+00 0.0000000000e+00 0.0000000000e+00 
          0.0000000000e+00 0.0000000000e+00 0.0000000000e+00 
          0.0000000000e+00 0.0000000000e+00 0.0000000000e+00 
          0.0000000000e+00 0.0000000000e+00 0.0000000000e+00 
          0.0000000000e+00 0.0000000000e+00 0.0000000000e+00 
          0.0000000000e+00 0.0000000000e+00 0.0000000000e+00 
          0.0000000000e+00 0.0000000000e+00 0.0000000000e+00 
          0.0000000000e+00 0.0000000000e+00 0.0000000000e+00 
          0.0000000000e+00 0.0000000000e+00 0.0000000000e+00 
          0.0000000000e+00 0.0000000000e+00 0.0000000000e+00 
          0.0000000000e+00 0.0000000000e+00 0.0000000000e+00 
          0.0000000000e+00 0.0000000000e+00 0.0000000000e+00 
          0.0000000000e+00 0.0000000000e+00 0.0000000000e+00 
          0.0000000000e+00 0.0000000000e+00 0.0000000000e+00 
          0.0000000000e+00 0.0000000000e+00 0.0000000000e+00 
          0.0000000000e+00 0.0000000000e+00 0.0000000000e+00 
          0.0000000000e+00 0.0000000000e+00 0.0000000000e+00 
          0.0000000000e+00 0.0000000000e+00 0.0000000000e+00 
          0.0000000000e+00 0.0000000000e+00 0.0000000000e+00 
          0.0000000000e+00 0.0000000000e+00 0.0000000000e+00 
          0.0000000000e+00 0.0000000000e+00 0.0000000000e+00 
          0.0000000000e+00 0.0000000000e+00 0.0000000000e+00 
          0.0000000000e+00 0.0000000000e+00 0.0000000000e+00 
          0.0000000000e+00 0.0000000000e+00 0.0000000000e+00 
          0.0000000000e+00 0.0000000000e+00 0.0000000000e+00 
          0.0000000000e+00 0.0000000000e+00 0.0000000000e+00 
          0.0000000000e+00 0.0000000000e+00 0.0000000000e+00 
          0.0000000000e+00 0.0000000000e+00 0.0000000000e+00 
          0.0000000000e+00 0.0000000000e+00 0.0000000000e+00 
          0.0000000000e+00 0.0000000000e+00 0.0000000000e+00 
          0.0000000000e+00 0.0000000000e+00 0.0000000000e+00 
          0.0000000000e+00 0.0000000000e+00 0.0000000000e+00 
          0.0000000000e+00 0.0000000000e+00 0.0000000000e+00 
          0.0000000000e+00 0.0000000000e+00 0.0000000000e+00 
          0.0000000000e+00 0.0000000000e+00 0.0000000000e+00 
          0.0000000000e+00 0.0000000000e+00 0.0000000000e+00 
          0.0000000000e+00 0.0000000000e+00 0.0000000000e+00 
          0.0000000000e+00 0.0000000000e+00 0.0000000000e+00 
          0.0000000000e+00 0.0000000000e+00 0.0000000000e+00 
          0.0000000000e+00 0.0000000000e+00 0.0000000000e+00 
          0.0000000000e+00 0.0000000000e+00 0.0000000000e+00 
          0.0000000000e+00 0.0000000000e+00 0.0000000000e+00 
          0.0000000000e+00 0.0000000000e+00 0.0000000000e+00 
          0.0000000000e+00 0.0000000000e+00 0.0000000000e+00 
          0.0000000000e+00 0.0000000000e+00 0.0000000000e+00 
          0.0000000000e+00 0.0000000000e+00 0.0000000000e+00 
          0.0000000000e+00 0.0000000000e+00 0.0000000000e+00 
          0.0000000000e+00 0.0000000000e+00 0.0000000000e+00 
          0.0000000000e+00 0.0000000000e+00 0.0000000000e+00 
          0.0000000000e+00 0.0000000000e+00 0.0000000000e+00 
          0.0000000000e+00 0.0000000000e+00 0.0000000000e+00 
          0.0000000000e+00 0.0000000000e+00 0.0000000000e+00 
          0.0000000000e+00 0.0000000000e+00 0.0000000000e+00 
          0.0000000000e+00 0.0000000000e+00 0.0000000000e+00 
          0.0000000000e+00 0.0000000000e+00 0.0000000000e+00 
          0.0000000000e+00 0.0000000000e+00 0.0000000000e+00 
          0.0000000000e+00 0.0000000000e+00 0.0000000000e+00 
          0.0000000000e+00 0.0000000000e+00 0.0000000000e+00 
          0.0000000000e+00 0.0000000000e+00 0.0000000000e+00 
          0.0000000000e+00 0.0000000000e+00 0.0000000000e+00 
          0.0000000000e+00 0.0000000000e+00 0.0000000000e+00 
          0.0000000000e+00 0.0000000000e+00 0.0000000000e+00 
          0.0000000000e+00 0.0000000000e+00 0.0000000000e+00 
          0.0000000000e+00 0.0000000000e+00 0.0000000000e+00 
          0.0000000000e+00 0.0000000000e+00 0.0000000000e+00 
          0.0000000000e+00 0.0000000000e+00 0.0000000000e+00 
          0.0000000000e+00 0.0000000000e+00 0.0000000000e+00 
          0.0000000000e+00 0.0000000000e+00 0.0000000000e+00 
          0.0000000000e+00 0.0000000000e+00 0.0000000000e+00 
          0.0000000000e+00 0.0000000000e+00 0.0000000000e+00 
          0.0000000000e+00 0.0000000000e+00 0.0000000000e+00 
          0.0000000000e+00 0.0000000000e+00 0.0000000000e+00 
          0.0000000000e+00 0.0000000000e+00 0.0000000000e+00 
        </DataArray>
      </PointData>
      <CellData>
        <DataArray type="Int64" Name="ElementTag" format="ascii">
          90
          91
          92
          93
          94
          95
          96
          97
          98
          99
          100
          101
          102
          103
          104
          105
          106
          107
          108
          109
          110
          111
          112
          113
          114
          115
          116
          117
          118
          119
          120
          121
          122
          123
          124
          125
          126
          127
          128
        </DataArray>
      </CellData>
    </Piece>
  </UnstructuredGrid>
</VTKFile>
