<?xml version="1.0"?>
<VTKFile type="UnstructuredGrid" version="1.0" byte_order="LittleEndian" compressor="vtkZLibDataCompressor">
  <UnstructuredGrid>
    <Piece NumberOfPoints="80" NumberOfCells="39">
      <Points>
        <DataArray type="Float64" Name="Points" NumberOfComponents="3" format="ascii">
          0.0000000000e+00 0.0000000000e+00 0.0000000000e+00 
          2.5000000000e-01 0.0000000000e+00 0.0000000000e+00 
          2.5000000000e-01 3.0000000000e+01 0.0000000000e+00 
          0.0000000000e+00 3.0000000000e+01 0.0000000000e+00 
          2.5000000000e-01 7.6923100000e-01 0.0000000000e+00 
          2.5000000000e-01 1.5384620000e+00 0.0000000000e+00 
          2.5000000000e-01 2.3076920000e+00 0.0000000000e+00 
          2.5000000000e-01 3.0769230000e+00 0.0000000000e+00 
          2.5000000000e-01 3.8461540000e+00 0.0000000000e+00 
          2.5000000000e-01 4.6153850000e+00 0.0000000000e+00 
          2.5000000000e-01 5.3846150000e+00 0.0000000000e+00 
          2.5000000000e-01 6.1538460000e+00 0.0000000000e+00 
          2.5000000000e-01 6.9230770000e+00 0.0000000000e+00 
          2.5000000000e-01 7.6923080000e+00 0.0000000000e+00 
          2.5000000000e-01 8.4615380000e+00 0.0000000000e+00 
          2.5000000000e-01 9.2307690000e+00 0.0000000000e+00 
          2.5000000000e-01 1.0000000000e+01 0.0000000000e+00 
          2.5000000000e-01 1.0769231000e+01 0.0000000000e+00 
          2.5000000000e-01 1.1538462000e+01 0.0000000000e+00 
          2.5000000000e-01 1.2307692000e+01 0.0000000000e+00 
          2.5000000000e-01 1.3076923000e+01 0.0000000000e+00 
          2.5000000000e-01 1.3846154000e+01 0.0000000000e+00 
          2.5000000000e-01 1.4615385000e+01 0.0000000000e+00 
          2.5000000000e-01 1.5384615000e+01 0.0000000000e+00 
          2.5000000000e-01 1.6153846000e+01 0.0000000000e+00 
          2.5000000000e-01 1.6923077000e+01 0.0000000000e+00 
          2.5000000000e-01 1.7692308000e+01 0.0000000000e+00 
          2.5000000000e-01 1.8461538000e+01 0.0000000000e+00 
          2.5000000000e-01 1.9230769000e+01 0.0000000000e+00 
          2.5000000000e-01 2.0000000000e+01 0.0000000000e+00 
          2.5000000000e-01 2.0769231000e+01 0.0000000000e+00 
          2.5000000000e-01 2.1538462000e+01 0.0000000000e+00 
          2.5000000000e-01 2.2307692000e+01 0.0000000000e+00 
          2.5000000000e-01 2.3076923000e+01 0.0000000000e+00 
          2.5000000000e-01 2.3846154000e+01 0.0000000000e+00 
          2.5000000000e-01 2.4615385000e+01 0.0000000000e+00 
          2.5000000000e-01 2.5384615000e+01 0.0000000000e+00 
          2.5000000000e-01 2.6153846000e+01 0.0000000000e+00 
          2.5000000000e-01 2.6923077000e+01 0.0000000000e+00 
          2.5000000000e-01 2.7692308000e+01 0.0000000000e+00 
          2.5000000000e-01 2.8461538000e+01 0.0000000000e+00 
          2.5000000000e-01 2.9230769000e+01 0.0000000000e+00 
          0.0000000000e+00 7.6923100000e-01 0.0000000000e+00 
          0.0000000000e+00 1.5384620000e+00 0.0000000000e+00 
          0.0000000000e+00 2.3076920000e+00 0.0000000000e+00 
          0.0000000000e+00 3.0769230000e+00 0.0000000000e+00 
          0.0000000000e+00 3.8461540000e+00 0.0000000000e+00 
          0.0000000000e+00 4.6153850000e+00 0.0000000000e+00 
          0.0000000000e+00 5.3846150000e+00 0.0000000000e+00 
          0.0000000000e+00 6.1538460000e+00 0.0000000000e+00 
          0.0000000000e+00 6.9230770000e+00 0.0000000000e+00 
          0.0000000000e+00 7.6923080000e+00 0.0000000000e+00 
          0.0000000000e+00 8.4615380000e+00 0.0000000000e+00 
          0.0000000000e+00 9.2307690000e+00 0.0000000000e+00 
          0.0000000000e+00 1.0000000000e+01 0.0000000000e+00 
          0.0000000000e+00 1.0769231000e+01 0.0000000000e+00 
          0.0000000000e+00 1.1538462000e+01 0.0000000000e+00 
          0.0000000000e+00 1.2307692000e+01 0.0000000000e+00 
          0.0000000000e+00 1.3076923000e+01 0.0000000000e+00 
          0.0000000000e+00 1.3846154000e+01 0.0000000000e+00 
          0.0000000000e+00 1.4615385000e+01 0.0000000000e+00 
          0.0000000000e+00 1.5384615000e+01 0.0000000000e+00 
          0.0000000000e+00 1.6153846000e+01 0.0000000000e+00 
          0.0000000000e+00 1.6923077000e+01 0.0000000000e+00 
          0.0000000000e+00 1.7692308000e+01 0.0000000000e+00 
          0.0000000000e+00 1.8461538000e+01 0.0000000000e+00 
          0.0000000000e+00 1.9230769000e+01 0.0000000000e+00 
          0.0000000000e+00 2.0000000000e+01 0.0000000000e+00 
          0.0000000000e+00 2.0769231000e+01 0.0000000000e+00 
          0.0000000000e+00 2.1538462000e+01 0.0000000000e+00 
          0.0000000000e+00 2.2307692000e+01 0.0000000000e+00 
          0.0000000000e+00 2.3076923000e+01 0.0000000000e+00 
          0.0000000000e+00 2.3846154000e+01 0.0000000000e+00 
          0.0000000000e+00 2.4615385000e+01 0.0000000000e+00 
          0.0000000000e+00 2.5384615000e+01 0.0000000000e+00 
          0.0000000000e+00 2.6153846000e+01 0.0000000000e+00 
          0.0000000000e+00 2.6923077000e+01 0.0000000000e+00 
          0.0000000000e+00 2.7692308000e+01 0.0000000000e+00 
          0.0000000000e+00 2.8461538000e+01 0.0000000000e+00 
          0.0000000000e+00 2.9230769000e+01 0.0000000000e+00 
        </DataArray>
      </Points>
      <Cells>
        <DataArray type="Int64" Name="connectivity" format="ascii">
          0 1 4 42 
          42 4 5 43 
          43 5 6 44 
          44 6 7 45 
          45 7 8 46 
          46 8 9 47 
          47 9 10 48 
          48 10 11 49 
          49 11 12 50 
          50 12 13 51 
          51 13 14 52 
          52 14 15 53 
          53 15 16 54 
          54 16 17 55 
          55 17 18 56 
          56 18 19 57 
          57 19 20 58 
          58 20 21 59 
          59 21 22 60 
          60 22 23 61 
          61 23 24 62 
          62 24 25 63 
          63 25 26 64 
          64 26 27 65 
          65 27 28 66 
          66 28 29 67 
          67 29 30 68 
          68 30 31 69 
          69 31 32 70 
          70 32 33 71 
          71 33 34 72 
          72 34 35 73 
          73 35 36 74 
          74 36 37 75 
          75 37 38 76 
          76 38 39 77 
          77 39 40 78 
          78 40 41 79 
          79 41 2 3 
        </DataArray>
        <DataArray type="Int64" Name="offsets" format="ascii">
          4
          8
          12
          16
          20
          24
          28
          32
          36
          40
          44
          48
          52
          56
          60
          64
          68
          72
          76
          80
          84
          88
          92
          96
          100
          104
          108
          112
          116
          120
          124
          128
          132
          136
          140
          144
          148
          152
          156
        </DataArray>
        <DataArray type="Int64" Name="types" format="ascii">
          9
          9
          9
          9
          9
          9
          9
          9
          9
          9
          9
          9
          9
          9
          9
          9
          9
          9
          9
          9
          9
          9
          9
          9
          9
          9
          9
          9
          9
          9
          9
          9
          9
          9
          9
          9
          9
          9
          9
        </DataArray>
      </Cells>
      <PointData>
        <DataArray type="Int64" Name="NodeTag" format="ascii">
          1
          2
          3
          4
          7
          8
          9
          10
          11
          12
          13
          14
          15
          16
          17
          18
          19
          20
          21
          22
          23
          24
          25
          26
          27
          28
          29
          30
          31
          32
          33
          34
          35
          36
          37
          38
          39
          40
          41
          42
          43
          44
          45
          46
          47
          48
          49
          50
          51
          52
          53
          54
          55
          56
          57
          58
          59
          60
          61
          62
          63
          64
          65
          66
          67
          68
          69
          70
          71
          72
          73
          74
          75
          76
          77
          78
          79
          80
          81
          82
        </DataArray>
        <DataArray type="Float64" Name="Velocity" NumberOfComponents="3" format="ascii">
          -4.1837991701e-06 -7.7845106208e-05 0.0000000000e+00 
          -4.1837991701e-06 -7.7845106208e-05 0.0000000000e+00 
          4.5080998107e-05 -7.7843407578e-05 0.0000000000e+00 
          4.5080998107e-05 -7.7843407578e-05 0.0000000000e+00 
          -2.2232334111e-06 -7.7863651716e-05 0.0000000000e+00 
          -2.6374215033e-07 -7.7814247679e-05 0.0000000000e+00 
          1.6933276885e-06 -7.7870245383e-05 0.0000000000e+00 
          3.6402275386e-06 -7.7839830042e-05 0.0000000000e+00 
          5.5824370515e-06 -7.7818697600e-05 0.0000000000e+00 
          7.5041990414e-06 -7.7895792027e-05 0.0000000000e+00 
          9.4134677681e-06 -7.7789431460e-05 0.0000000000e+00 
          1.1303232076e-05 -7.7879817021e-05 0.0000000000e+00 
          1.3162638855e-05 -7.7838738155e-05 0.0000000000e+00 
          1.5006580760e-05 -7.7828183630e-05 0.0000000000e+00 
          1.6809412380e-05 -7.7872295548e-05 0.0000000000e+00 
          1.8586142892e-05 -7.7811724478e-05 0.0000000000e+00 
          2.0327349847e-05 -7.7880979758e-05 0.0000000000e+00 
          2.2022931273e-05 -7.7808681087e-05 0.0000000000e+00 
          2.3686736703e-05 -7.7875499295e-05 0.0000000000e+00 
          2.5297138798e-05 -7.7822338857e-05 0.0000000000e+00 
          2.6864150358e-05 -7.7859701782e-05 0.0000000000e+00 
          2.8384269571e-05 -7.7835599041e-05 0.0000000000e+00 
          2.9843000413e-05 -7.7847904617e-05 0.0000000000e+00 
          3.1257818879e-05 -7.7848231222e-05 0.0000000000e+00 
          3.2605898629e-05 -7.7835629303e-05 0.0000000000e+00 
          3.3900064554e-05 -7.7859875602e-05 0.0000000000e+00 
          3.5130257614e-05 -7.7822234235e-05 0.0000000000e+00 
          3.6296533077e-05 -7.7875124548e-05 0.0000000000e+00 
          3.7397452677e-05 -7.7809851984e-05 0.0000000000e+00 
          3.8430644055e-05 -7.7880369831e-05 0.0000000000e+00 
          3.9394706387e-05 -7.7812148908e-05 0.0000000000e+00 
          4.0285720923e-05 -7.7871671693e-05 0.0000000000e+00 
          4.1108322242e-05 -7.7829894884e-05 0.0000000000e+00 
          4.1851503441e-05 -7.7838454930e-05 0.0000000000e+00 
          4.2525513762e-05 -7.7878551555e-05 0.0000000000e+00 
          4.3117855613e-05 -7.7793087164e-05 0.0000000000e+00 
          4.3635927271e-05 -7.7892320766e-05 0.0000000000e+00 
          4.4077024583e-05 -7.7822174823e-05 0.0000000000e+00 
          4.4433878709e-05 -7.7840201742e-05 0.0000000000e+00 
          4.4718361659e-05 -7.7863892728e-05 0.0000000000e+00 
          4.4917829036e-05 -7.7828361730e-05 0.0000000000e+00 
          4.5037244693e-05 -7.7851631123e-05 0.0000000000e+00 
          -2.2232334111e-06 -7.7863651716e-05 0.0000000000e+00 
          -2.6374215033e-07 -7.7814247679e-05 0.0000000000e+00 
          1.6933276885e-06 -7.7870245383e-05 0.0000000000e+00 
          3.6402275386e-06 -7.7839830042e-05 0.0000000000e+00 
          5.5824370515e-06 -7.7818697600e-05 0.0000000000e+00 
          7.5041990414e-06 -7.7895792027e-05 0.0000000000e+00 
          9.4134677681e-06 -7.7789431460e-05 0.0000000000e+00 
          1.1303232076e-05 -7.7879817021e-05 0.0000000000e+00 
          1.3162638855e-05 -7.7838738155e-05 0.0000000000e+00 
          1.5006580760e-05 -7.7828183630e-05 0.0000000000e+00 
          1.6809412380e-05 -7.7872295548e-05 0.0000000000e+00 
          1.8586142892e-05 -7.7811724478e-05 0.0000000000e+00 
          2.0327349847e-05 -7.7880979758e-05 0.0000000000e+00 
          2.2022931273e-05 -7.7808681087e-05 0.0000000000e+00 
          2.3686736703e-05 -7.7875499295e-05 0.0000000000e+00 
          2.5297138798e-05 -7.7822338857e-05 0.0000000000e+00 
          2.6864150358e-05 -7.7859701782e-05 0.0000000000e+00 
          2.8384269571e-05 -7.7835599041e-05 0.0000000000e+00 
          2.9843000413e-05 -7.7847904617e-05 0.0000000000e+00 
          3.1257818879e-05 -7.7848231222e-05 0.0000000000e+00 
          3.2605898629e-05 -7.7835629303e-05 0.0000000000e+00 
          3.3900064554e-05 -7.7859875602e-05 0.0000000000e+00 
          3.5130257614e-05 -7.7822234235e-05 0.0000000000e+00 
          3.6296533077e-05 -7.7875124548e-05 0.0000000000e+00 
          3.7397452677e-05 -7.7809851984e-05 0.0000000000e+00 
          3.8430644055e-05 -7.7880369831e-05 0.0000000000e+00 
          3.9394706387e-05 -7.7812148908e-05 0.0000000000e+00 
          4.0285720923e-05 -7.7871671693e-05 0.0000000000e+00 
          4.1108322242e-05 -7.7829894884e-05 0.0000000000e+00 
          4.1851503441e-05 -7.7838454930e-05 0.0000000000e+00 
          4.2525513762e-05 -7.7878551555e-05 0.0000000000e+00 
          4.3117855613e-05 -7.7793087164e-05 0.0000000000e+00 
          4.3635927271e-05 -7.7892320766e-05 0.0000000000e+00 
          4.4077024583e-05 -7.7822174823e-05 0.0000000000e+00 
          4.4433878709e-05 -7.7840201742e-05 0.0000000000e+00 
          4.4718361659e-05 -7.7863892728e-05 0.0000000000e+00 
          4.4917829036e-05 -7.7828361730e-05 0.0000000000e+00 
          4.5037244693e-05 -7.7851631123e-05 0.0000000000e+00 
        </DataArray>
        <DataArray type="Float64" Name="Displacement" NumberOfComponents="3" format="ascii">
          -7.0655218911e-07 -6.3805746615e-04 0.0000000000e+00 
          -7.0655218911e-07 -6.3805746615e-04 0.0000000000e+00 
          -2.1267634905e-06 -6.6163775543e-04 0.0000000000e+00 
          -2.1267634905e-06 -6.6163775543e-04 0.0000000000e+00 
          -7.7537676351e-07 -6.3925122312e-04 0.0000000000e+00 
          -8.4282940335e-07 -6.4041394717e-04 0.0000000000e+00 
          -9.0889547549e-07 -6.4154565659e-04 0.0000000000e+00 
          -9.7349650219e-07 -6.4264645016e-04 0.0000000000e+00 
          -1.0366083057e-06 -6.4371607610e-04 0.0000000000e+00 
          -1.0981912838e-06 -6.4475485781e-04 0.0000000000e+00 
          -1.1581956412e-06 -6.4576256018e-04 0.0000000000e+00 
          -1.2165992963e-06 -6.4673918316e-04 0.0000000000e+00 
          -1.2733571680e-06 -6.4768500205e-04 0.0000000000e+00 
          -1.3284480097e-06 -6.4859956296e-04 0.0000000000e+00 
          -1.3818365325e-06 -6.4948333945e-04 0.0000000000e+00 
          -1.4334965094e-06 -6.5033594733e-04 0.0000000000e+00 
          -1.4834130453e-06 -6.5115766024e-04 0.0000000000e+00 
          -1.5315414089e-06 -6.5194829643e-04 0.0000000000e+00 
          -1.5778954885e-06 -6.5270795423e-04 0.0000000000e+00 
          -1.6224210076e-06 -6.5343662011e-04 0.0000000000e+00 
          -1.6651243939e-06 -6.5413424035e-04 0.0000000000e+00 
          -1.7059943086e-06 -6.5480088895e-04 0.0000000000e+00 
          -1.7449880910e-06 -6.5543651776e-04 0.0000000000e+00 
          -1.7821385778e-06 -6.5604114072e-04 0.0000000000e+00 
          -1.8173974490e-06 -6.5661475840e-04 0.0000000000e+00 
          -1.8507769480e-06 -6.5715735987e-04 0.0000000000e+00 
          -1.8822720552e-06 -6.5766898640e-04 0.0000000000e+00 
          -1.9118551399e-06 -6.5814956662e-04 0.0000000000e+00 
          -1.9395567772e-06 -6.5859915458e-04 0.0000000000e+00 
          -1.9653405481e-06 -6.5901776737e-04 0.0000000000e+00 
          -1.9892170989e-06 -6.5940530385e-04 0.0000000000e+00 
          -2.0111978930e-06 -6.5976194101e-04 0.0000000000e+00 
          -2.0312488183e-06 -6.6008741098e-04 0.0000000000e+00 
          -2.0494068679e-06 -6.6038209429e-04 0.0000000000e+00 
          -2.0656418097e-06 -6.6064552931e-04 0.0000000000e+00 
          -2.0799683465e-06 -6.6087815253e-04 0.0000000000e+00 
          -2.0923852475e-06 -6.6107969062e-04 0.0000000000e+00 
          -2.1028900806e-06 -6.6125015885e-04 0.0000000000e+00 
          -2.1114822694e-06 -6.6138978606e-04 0.0000000000e+00 
          -2.1181666050e-06 -6.6149822979e-04 0.0000000000e+00 
          -2.1229420478e-06 -6.6157577220e-04 0.0000000000e+00 
          -2.1258008956e-06 -6.6162230677e-04 0.0000000000e+00 
          -7.7537676351e-07 -6.3925122312e-04 0.0000000000e+00 
          -8.4282940335e-07 -6.4041394717e-04 0.0000000000e+00 
          -9.0889547549e-07 -6.4154565659e-04 0.0000000000e+00 
          -9.7349650219e-07 -6.4264645016e-04 0.0000000000e+00 
          -1.0366083057e-06 -6.4371607610e-04 0.0000000000e+00 
          -1.0981912838e-06 -6.4475485781e-04 0.0000000000e+00 
          -1.1581956412e-06 -6.4576256018e-04 0.0000000000e+00 
          -1.2165992963e-06 -6.4673918316e-04 0.0000000000e+00 
          -1.2733571680e-06 -6.4768500205e-04 0.0000000000e+00 
          -1.3284480097e-06 -6.4859956296e-04 0.0000000000e+00 
          -1.3818365325e-06 -6.4948333945e-04 0.0000000000e+00 
          -1.4334965094e-06 -6.5033594733e-04 0.0000000000e+00 
          -1.4834130453e-06 -6.5115766024e-04 0.0000000000e+00 
          -1.5315414089e-06 -6.5194829643e-04 0.0000000000e+00 
          -1.5778954885e-06 -6.5270795423e-04 0.0000000000e+00 
          -1.6224210076e-06 -6.5343662011e-04 0.0000000000e+00 
          -1.6651243939e-06 -6.5413424035e-04 0.0000000000e+00 
          -1.7059943086e-06 -6.5480088895e-04 0.0000000000e+00 
          -1.7449880910e-06 -6.5543651776e-04 0.0000000000e+00 
          -1.7821385778e-06 -6.5604114072e-04 0.0000000000e+00 
          -1.8173974490e-06 -6.5661475840e-04 0.0000000000e+00 
          -1.8507769480e-06 -6.5715735987e-04 0.0000000000e+00 
          -1.8822720552e-06 -6.5766898640e-04 0.0000000000e+00 
          -1.9118551399e-06 -6.5814956662e-04 0.0000000000e+00 
          -1.9395567772e-06 -6.5859915458e-04 0.0000000000e+00 
          -1.9653405481e-06 -6.5901776737e-04 0.0000000000e+00 
          -1.9892170989e-06 -6.5940530385e-04 0.0000000000e+00 
          -2.0111978930e-06 -6.5976194101e-04 0.0000000000e+00 
          -2.0312488183e-06 -6.6008741098e-04 0.0000000000e+00 
          -2.0494068679e-06 -6.6038209429e-04 0.0000000000e+00 
          -2.0656418097e-06 -6.6064552931e-04 0.0000000000e+00 
          -2.0799683465e-06 -6.6087815253e-04 0.0000000000e+00 
          -2.0923852475e-06 -6.6107969062e-04 0.0000000000e+00 
          -2.1028900806e-06 -6.6125015885e-04 0.0000000000e+00 
          -2.1114822694e-06 -6.6138978606e-04 0.0000000000e+00 
          -2.1181666050e-06 -6.6149822979e-04 0.0000000000e+00 
          -2.1229420478e-06 -6.6157577220e-04 0.0000000000e+00 
          -2.1258008956e-06 -6.6162230677e-04 0.0000000000e+00 
        </DataArray>
        <DataArray type="Float64" Name="Acceleration" NumberOfComponents="3" format="ascii">
          1.1794250681e-04 -1.2381032153e-06 0.0000000000e+00 
          1.1794250681e-04 -1.2381032153e-06 0.0000000000e+00 
          1.7346340583e-04 -1.9646972525e-05 0.0000000000e+00 
          1.7346340583e-04 -1.9646972525e-05 0.0000000000e+00 
          1.2361401376e-04 4.7892387047e-06 0.0000000000e+00 
          1.2492483015e-04 1.2341676496e-06 0.0000000000e+00 
          1.3201131174e-04 -1.6037933208e-05 0.0000000000e+00 
          1.3418195160e-04 2.9065276823e-05 0.0000000000e+00 
          1.3775018664e-04 -2.9211967730e-05 0.0000000000e+00 
          1.4222990681e-04 1.2924080511e-05 0.0000000000e+00 
          1.4423356060e-04 1.3402660417e-05 0.0000000000e+00 
          1.4828833861e-04 -3.6445855761e-05 0.0000000000e+00 
          1.5020268770e-04 4.5348138433e-05 0.0000000000e+00 
          1.5337614446e-04 -4.0193283990e-05 0.0000000000e+00 
          1.5575175864e-04 2.9452097719e-05 0.0000000000e+00 
          1.5708746750e-04 -2.0069406609e-05 0.0000000000e+00 
          1.6111786373e-04 1.2684349163e-05 0.0000000000e+00 
          1.5986648648e-04 -5.0359767192e-06 0.0000000000e+00 
          1.6475181515e-04 -2.7660460479e-06 0.0000000000e+00 
          1.6418307714e-04 7.2568219827e-06 0.0000000000e+00 
          1.6519940686e-04 -6.2509819557e-06 0.0000000000e+00 
          1.6904323523e-04 2.4233802813e-06 0.0000000000e+00 
          1.6608032063e-04 -2.2689962231e-07 0.0000000000e+00 
          1.7044277329e-04 -4.3694143914e-08 0.0000000000e+00 
          1.6933514448e-04 1.7775946284e-06 0.0000000000e+00 
          1.6978741597e-04 -5.6566001509e-06 0.0000000000e+00 
          1.7227365699e-04 7.0950384504e-06 0.0000000000e+00 
          1.6952570018e-04 -2.4223001847e-06 0.0000000000e+00 
          1.7280354616e-04 -5.6146234150e-06 0.0000000000e+00 
          1.7184430222e-04 1.2608288491e-05 0.0000000000e+00 
          1.7081141885e-04 -1.9284743287e-05 0.0000000000e+00 
          1.7388275049e-04 2.8913588107e-05 0.0000000000e+00 
          1.7055430655e-04 -3.9506084276e-05 0.0000000000e+00 
          1.7327580443e-04 4.3599563716e-05 0.0000000000e+00 
          1.7195106434e-04 -3.5054238210e-05 0.0000000000e+00 
          1.7206061394e-04 1.4153963983e-05 0.0000000000e+00 
          1.7228266369e-04 1.1497792493e-05 0.0000000000e+00 
          1.7233301609e-04 -2.9791655356e-05 0.0000000000e+00 
          1.7190135581e-04 3.1924421199e-05 0.0000000000e+00 
          1.7199455284e-04 -1.8941093635e-05 0.0000000000e+00 
          1.7268966795e-04 2.9315725786e-07 0.0000000000e+00 
          1.7085613118e-04 1.4340331117e-05 0.0000000000e+00 
          1.2361401376e-04 4.7892387047e-06 0.0000000000e+00 
          1.2492483015e-04 1.2341676496e-06 0.0000000000e+00 
          1.3201131174e-04 -1.6037933208e-05 0.0000000000e+00 
          1.3418195160e-04 2.9065276823e-05 0.0000000000e+00 
          1.3775018664e-04 -2.9211967730e-05 0.0000000000e+00 
          1.4222990681e-04 1.2924080511e-05 0.0000000000e+00 
          1.4423356060e-04 1.3402660417e-05 0.0000000000e+00 
          1.4828833861e-04 -3.6445855761e-05 0.0000000000e+00 
          1.5020268770e-04 4.5348138433e-05 0.0000000000e+00 
          1.5337614446e-04 -4.0193283990e-05 0.0000000000e+00 
          1.5575175864e-04 2.9452097719e-05 0.0000000000e+00 
          1.5708746750e-04 -2.0069406609e-05 0.0000000000e+00 
          1.6111786373e-04 1.2684349163e-05 0.0000000000e+00 
          1.5986648648e-04 -5.0359767192e-06 0.0000000000e+00 
          1.6475181515e-04 -2.7660460479e-06 0.0000000000e+00 
          1.6418307714e-04 7.2568219827e-06 0.0000000000e+00 
          1.6519940686e-04 -6.2509819557e-06 0.0000000000e+00 
          1.6904323523e-04 2.4233802813e-06 0.0000000000e+00 
          1.6608032063e-04 -2.2689962231e-07 0.0000000000e+00 
          1.7044277329e-04 -4.3694143914e-08 0.0000000000e+00 
          1.6933514448e-04 1.7775946284e-06 0.0000000000e+00 
          1.6978741597e-04 -5.6566001509e-06 0.0000000000e+00 
          1.7227365699e-04 7.0950384504e-06 0.0000000000e+00 
          1.6952570018e-04 -2.4223001847e-06 0.0000000000e+00 
          1.7280354616e-04 -5.6146234150e-06 0.0000000000e+00 
          1.7184430222e-04 1.2608288491e-05 0.0000000000e+00 
          1.7081141885e-04 -1.9284743287e-05 0.0000000000e+00 
          1.7388275049e-04 2.8913588107e-05 0.0000000000e+00 
          1.7055430655e-04 -3.9506084276e-05 0.0000000000e+00 
          1.7327580443e-04 4.3599563716e-05 0.0000000000e+00 
          1.7195106434e-04 -3.5054238210e-05 0.0000000000e+00 
          1.7206061394e-04 1.4153963983e-05 0.0000000000e+00 
          1.7228266369e-04 1.1497792493e-05 0.0000000000e+00 
          1.7233301609e-04 -2.9791655356e-05 0.0000000000e+00 
          1.7190135581e-04 3.1924421199e-05 0.0000000000e+00 
          1.7199455284e-04 -1.8941093635e-05 0.0000000000e+00 
          1.7268966795e-04 2.9315725786e-07 0.0000000000e+00 
          1.7085613118e-04 1.4340331117e-05 0.0000000000e+00 
        </DataArray>
        <DataArray type="Float64" Name="Reaction" NumberOfComponents="3" format="ascii">
          0.0000000000e+00 0.0000000000e+00 0.0000000000e+00 
          0.0000000000e+00 0.0000000000e+00 0.0000000000e+00 
          0.0000000000e+00 0.0000000000e+00 0.0000000000e+00 
          0.0000000000e+00 0.0000000000e+00 0.0000000000e+00 
          0.0000000000e+00 0.0000000000e+00 0.0000000000e+00 
          0.0000000000e+00 0.0000000000e+00 0.0000000000e+00 
          0.0000000000e+00 0.0000000000e+00 0.0000000000e+00 
          0.0000000000e+00 0.0000000000e+00 0.0000000000e+00 
          0.0000000000e+00 0.0000000000e+00 0.0000000000e+00 
          0.0000000000e+00 0.0000000000e+00 0.0000000000e+00 
          0.0000000000e+00 0.0000000000e+00 0.0000000000e+00 
          0.0000000000e+00 0.0000000000e+00 0.0000000000e+00 
          0.0000000000e+00 0.0000000000e+00 0.0000000000e+00 
          0.0000000000e+00 0.0000000000e+00 0.0000000000e+00 
          0.0000000000e+00 0.0000000000e+00 0.0000000000e+00 
          0.0000000000e+00 0.0000000000e+00 0.0000000000e+00 
          0.0000000000e+00 0.0000000000e+00 0.0000000000e+00 
          0.0000000000e+00 0.0000000000e+00 0.0000000000e+00 
          0.0000000000e+00 0.0000000000e+00 0.0000000000e+00 
          0.0000000000e+00 0.0000000000e+00 0.0000000000e+00 
          0.0000000000e+00 0.0000000000e+00 0.0000000000e+00 
          0.0000000000e+00 0.0000000000e+00 0.0000000000e+00 
          0.0000000000e+00 0.0000000000e+00 0.0000000000e+00 
          0.0000000000e+00 0.0000000000e+00 0.0000000000e+00 
          0.0000000000e+00 0.0000000000e+00 0.0000000000e+00 
          0.0000000000e+00 0.0000000000e+00 0.0000000000e+00 
          0.0000000000e+00 0.0000000000e+00 0.0000000000e+00 
          0.0000000000e+00 0.0000000000e+00 0.0000000000e+00 
          0.0000000000e+00 0.0000000000e+00 0.0000000000e+00 
          0.0000000000e+00 0.0000000000e+00 0.0000000000e+00 
          0.0000000000e+00 0.0000000000e+00 0.0000000000e+00 
          0.0000000000e+00 0.0000000000e+00 0.0000000000e+00 
          0.0000000000e+00 0.0000000000e+00 0.0000000000e+00 
          0.0000000000e+00 0.0000000000e+00 0.0000000000e+00 
          0.0000000000e+00 0.0000000000e+00 0.0000000000e+00 
          0.0000000000e+00 0.0000000000e+00 0.0000000000e+00 
          0.0000000000e+00 0.0000000000e+00 0.0000000000e+00 
          0.0000000000e+00 0.0000000000e+00 0.0000000000e+00 
          0.0000000000e+00 0.0000000000e+00 0.0000000000e+00 
          0.0000000000e+00 0.0000000000e+00 0.0000000000e+00 
          0.0000000000e+00 0.0000000000e+00 0.0000000000e+00 
          0.0000000000e+00 0.0000000000e+00 0.0000000000e+00 
          0.0000000000e+00 0.0000000000e+00 0.0000000000e+00 
          0.0000000000e+00 0.0000000000e+00 0.0000000000e+00 
          0.0000000000e+00 0.0000000000e+00 0.0000000000e+00 
          0.0000000000e+00 0.0000000000e+00 0.0000000000e+00 
          0.0000000000e+00 0.0000000000e+00 0.0000000000e+00 
          0.0000000000e+00 0.0000000000e+00 0.0000000000e+00 
          0.0000000000e+00 0.0000000000e+00 0.0000000000e+00 
          0.0000000000e+00 0.0000000000e+00 0.0000000000e+00 
          0.0000000000e+00 0.0000000000e+00 0.0000000000e+00 
          0.0000000000e+00 0.0000000000e+00 0.0000000000e+00 
          0.0000000000e+00 0.0000000000e+00 0.0000000000e+00 
          0.0000000000e+00 0.0000000000e+00 0.0000000000e+00 
          0.0000000000e+00 0.0000000000e+00 0.0000000000e+00 
          0.0000000000e+00 0.0000000000e+00 0.0000000000e+00 
          0.0000000000e+00 0.0000000000e+00 0.0000000000e+00 
          0.0000000000e+00 0.0000000000e+00 0.0000000000e+00 
          0.0000000000e+00 0.0000000000e+00 0.0000000000e+00 
          0.0000000000e+00 0.0000000000e+00 0.0000000000e+00 
          0.0000000000e+00 0.0000000000e+00 0.0000000000e+00 
          0.0000000000e+00 0.0000000000e+00 0.0000000000e+00 
          0.0000000000e+00 0.0000000000e+00 0.0000000000e+00 
          0.0000000000e+00 0.0000000000e+00 0.0000000000e+00 
          0.0000000000e+00 0.0000000000e+00 0.0000000000e+00 
          0.0000000000e+00 0.0000000000e+00 0.0000000000e+00 
          0.0000000000e+00 0.0000000000e+00 0.0000000000e+00 
          0.0000000000e+00 0.0000000000e+00 0.0000000000e+00 
          0.0000000000e+00 0.0000000000e+00 0.0000000000e+00 
          0.0000000000e+00 0.0000000000e+00 0.0000000000e+00 
          0.0000000000e+00 0.0000000000e+00 0.0000000000e+00 
          0.0000000000e+00 0.0000000000e+00 0.0000000000e+00 
          0.0000000000e+00 0.0000000000e+00 0.0000000000e+00 
          0.0000000000e+00 0.0000000000e+00 0.0000000000e+00 
          0.0000000000e+00 0.0000000000e+00 0.0000000000e+00 
          0.0000000000e+00 0.0000000000e+00 0.0000000000e+00 
          0.0000000000e+00 0.0000000000e+00 0.0000000000e+00 
          0.0000000000e+00 0.0000000000e+00 0.0000000000e+00 
          0.0000000000e+00 0.0000000000e+00 0.0000000000e+00 
          0.0000000000e+00 0.0000000000e+00 0.0000000000e+00 
        </DataArray>
      </PointData>
      <CellData>
        <DataArray type="Int64" Name="ElementTag" format="ascii">
          90
          91
          92
          93
          94
          95
          96
          97
          98
          99
          100
          101
          102
          103
          104
          105
          106
          107
          108
          109
          110
          111
          112
          113
          114
          115
          116
          117
          118
          119
          120
          121
          122
          123
          124
          125
          126
          127
          128
        </DataArray>
      </CellData>
    </Piece>
  </UnstructuredGrid>
</VTKFile>
