<?xml version="1.0"?>
<VTKFile type="UnstructuredGrid" version="1.0" byte_order="LittleEndian" compressor="vtkZLibDataCompressor">
  <UnstructuredGrid>
    <Piece NumberOfPoints="80" NumberOfCells="39">
      <Points>
        <DataArray type="Float64" Name="Points" NumberOfComponents="3" format="ascii">
          0.0000000000e+00 0.0000000000e+00 0.0000000000e+00 
          2.5000000000e-01 0.0000000000e+00 0.0000000000e+00 
          2.5000000000e-01 3.0000000000e+01 0.0000000000e+00 
          0.0000000000e+00 3.0000000000e+01 0.0000000000e+00 
          2.5000000000e-01 7.6923100000e-01 0.0000000000e+00 
          2.5000000000e-01 1.5384620000e+00 0.0000000000e+00 
          2.5000000000e-01 2.3076920000e+00 0.0000000000e+00 
          2.5000000000e-01 3.0769230000e+00 0.0000000000e+00 
          2.5000000000e-01 3.8461540000e+00 0.0000000000e+00 
          2.5000000000e-01 4.6153850000e+00 0.0000000000e+00 
          2.5000000000e-01 5.3846150000e+00 0.0000000000e+00 
          2.5000000000e-01 6.1538460000e+00 0.0000000000e+00 
          2.5000000000e-01 6.9230770000e+00 0.0000000000e+00 
          2.5000000000e-01 7.6923080000e+00 0.0000000000e+00 
          2.5000000000e-01 8.4615380000e+00 0.0000000000e+00 
          2.5000000000e-01 9.2307690000e+00 0.0000000000e+00 
          2.5000000000e-01 1.0000000000e+01 0.0000000000e+00 
          2.5000000000e-01 1.0769231000e+01 0.0000000000e+00 
          2.5000000000e-01 1.1538462000e+01 0.0000000000e+00 
          2.5000000000e-01 1.2307692000e+01 0.0000000000e+00 
          2.5000000000e-01 1.3076923000e+01 0.0000000000e+00 
          2.5000000000e-01 1.3846154000e+01 0.0000000000e+00 
          2.5000000000e-01 1.4615385000e+01 0.0000000000e+00 
          2.5000000000e-01 1.5384615000e+01 0.0000000000e+00 
          2.5000000000e-01 1.6153846000e+01 0.0000000000e+00 
          2.5000000000e-01 1.6923077000e+01 0.0000000000e+00 
          2.5000000000e-01 1.7692308000e+01 0.0000000000e+00 
          2.5000000000e-01 1.8461538000e+01 0.0000000000e+00 
          2.5000000000e-01 1.9230769000e+01 0.0000000000e+00 
          2.5000000000e-01 2.0000000000e+01 0.0000000000e+00 
          2.5000000000e-01 2.0769231000e+01 0.0000000000e+00 
          2.5000000000e-01 2.1538462000e+01 0.0000000000e+00 
          2.5000000000e-01 2.2307692000e+01 0.0000000000e+00 
          2.5000000000e-01 2.3076923000e+01 0.0000000000e+00 
          2.5000000000e-01 2.3846154000e+01 0.0000000000e+00 
          2.5000000000e-01 2.4615385000e+01 0.0000000000e+00 
          2.5000000000e-01 2.5384615000e+01 0.0000000000e+00 
          2.5000000000e-01 2.6153846000e+01 0.0000000000e+00 
          2.5000000000e-01 2.6923077000e+01 0.0000000000e+00 
          2.5000000000e-01 2.7692308000e+01 0.0000000000e+00 
          2.5000000000e-01 2.8461538000e+01 0.0000000000e+00 
          2.5000000000e-01 2.9230769000e+01 0.0000000000e+00 
          0.0000000000e+00 7.6923100000e-01 0.0000000000e+00 
          0.0000000000e+00 1.5384620000e+00 0.0000000000e+00 
          0.0000000000e+00 2.3076920000e+00 0.0000000000e+00 
          0.0000000000e+00 3.0769230000e+00 0.0000000000e+00 
          0.0000000000e+00 3.8461540000e+00 0.0000000000e+00 
          0.0000000000e+00 4.6153850000e+00 0.0000000000e+00 
          0.0000000000e+00 5.3846150000e+00 0.0000000000e+00 
          0.0000000000e+00 6.1538460000e+00 0.0000000000e+00 
          0.0000000000e+00 6.9230770000e+00 0.0000000000e+00 
          0.0000000000e+00 7.6923080000e+00 0.0000000000e+00 
          0.0000000000e+00 8.4615380000e+00 0.0000000000e+00 
          0.0000000000e+00 9.2307690000e+00 0.0000000000e+00 
          0.0000000000e+00 1.0000000000e+01 0.0000000000e+00 
          0.0000000000e+00 1.0769231000e+01 0.0000000000e+00 
          0.0000000000e+00 1.1538462000e+01 0.0000000000e+00 
          0.0000000000e+00 1.2307692000e+01 0.0000000000e+00 
          0.0000000000e+00 1.3076923000e+01 0.0000000000e+00 
          0.0000000000e+00 1.3846154000e+01 0.0000000000e+00 
          0.0000000000e+00 1.4615385000e+01 0.0000000000e+00 
          0.0000000000e+00 1.5384615000e+01 0.0000000000e+00 
          0.0000000000e+00 1.6153846000e+01 0.0000000000e+00 
          0.0000000000e+00 1.6923077000e+01 0.0000000000e+00 
          0.0000000000e+00 1.7692308000e+01 0.0000000000e+00 
          0.0000000000e+00 1.8461538000e+01 0.0000000000e+00 
          0.0000000000e+00 1.9230769000e+01 0.0000000000e+00 
          0.0000000000e+00 2.0000000000e+01 0.0000000000e+00 
          0.0000000000e+00 2.0769231000e+01 0.0000000000e+00 
          0.0000000000e+00 2.1538462000e+01 0.0000000000e+00 
          0.0000000000e+00 2.2307692000e+01 0.0000000000e+00 
          0.0000000000e+00 2.3076923000e+01 0.0000000000e+00 
          0.0000000000e+00 2.3846154000e+01 0.0000000000e+00 
          0.0000000000e+00 2.4615385000e+01 0.0000000000e+00 
          0.0000000000e+00 2.5384615000e+01 0.0000000000e+00 
          0.0000000000e+00 2.6153846000e+01 0.0000000000e+00 
          0.0000000000e+00 2.6923077000e+01 0.0000000000e+00 
          0.0000000000e+00 2.7692308000e+01 0.0000000000e+00 
          0.0000000000e+00 2.8461538000e+01 0.0000000000e+00 
          0.0000000000e+00 2.9230769000e+01 0.0000000000e+00 
        </DataArray>
      </Points>
      <Cells>
        <DataArray type="Int64" Name="connectivity" format="ascii">
          0 1 4 42 
          42 4 5 43 
          43 5 6 44 
          44 6 7 45 
          45 7 8 46 
          46 8 9 47 
          47 9 10 48 
          48 10 11 49 
          49 11 12 50 
          50 12 13 51 
          51 13 14 52 
          52 14 15 53 
          53 15 16 54 
          54 16 17 55 
          55 17 18 56 
          56 18 19 57 
          57 19 20 58 
          58 20 21 59 
          59 21 22 60 
          60 22 23 61 
          61 23 24 62 
          62 24 25 63 
          63 25 26 64 
          64 26 27 65 
          65 27 28 66 
          66 28 29 67 
          67 29 30 68 
          68 30 31 69 
          69 31 32 70 
          70 32 33 71 
          71 33 34 72 
          72 34 35 73 
          73 35 36 74 
          74 36 37 75 
          75 37 38 76 
          76 38 39 77 
          77 39 40 78 
          78 40 41 79 
          79 41 2 3 
        </DataArray>
        <DataArray type="Int64" Name="offsets" format="ascii">
          4
          8
          12
          16
          20
          24
          28
          32
          36
          40
          44
          48
          52
          56
          60
          64
          68
          72
          76
          80
          84
          88
          92
          96
          100
          104
          108
          112
          116
          120
          124
          128
          132
          136
          140
          144
          148
          152
          156
        </DataArray>
        <DataArray type="Int64" Name="types" format="ascii">
          9
          9
          9
          9
          9
          9
          9
          9
          9
          9
          9
          9
          9
          9
          9
          9
          9
          9
          9
          9
          9
          9
          9
          9
          9
          9
          9
          9
          9
          9
          9
          9
          9
          9
          9
          9
          9
          9
          9
        </DataArray>
      </Cells>
      <PointData>
        <DataArray type="Int64" Name="NodeTag" format="ascii">
          1
          2
          3
          4
          7
          8
          9
          10
          11
          12
          13
          14
          15
          16
          17
          18
          19
          20
          21
          22
          23
          24
          25
          26
          27
          28
          29
          30
          31
          32
          33
          34
          35
          36
          37
          38
          39
          40
          41
          42
          43
          44
          45
          46
          47
          48
          49
          50
          51
          52
          53
          54
          55
          56
          57
          58
          59
          60
          61
          62
          63
          64
          65
          66
          67
          68
          69
          70
          71
          72
          73
          74
          75
          76
          77
          78
          79
          80
          81
          82
        </DataArray>
        <DataArray type="Float64" Name="Velocity" NumberOfComponents="3" format="ascii">
          -5.0210372149e-04 -7.7840681599e-05 0.0000000000e+00 
          -5.0210372149e-04 -7.7840681599e-05 0.0000000000e+00 
          1.8609657224e-03 -7.7871120664e-05 0.0000000000e+00 
          1.8609657224e-03 -7.7871120664e-05 0.0000000000e+00 
          -4.1319100600e-04 -7.7849241448e-05 0.0000000000e+00 
          -3.2381305270e-04 -7.7835002196e-05 0.0000000000e+00 
          -2.3412920298e-04 -7.7854407126e-05 0.0000000000e+00 
          -1.4431982315e-04 -7.7828621202e-05 0.0000000000e+00 
          -5.4551009845e-05 -7.7863085899e-05 0.0000000000e+00 
          3.5003313177e-05 -7.7835950198e-05 0.0000000000e+00 
          1.2416731384e-04 -7.7857176795e-05 0.0000000000e+00 
          2.1277905648e-04 -7.7853619761e-05 0.0000000000e+00 
          3.0066161271e-04 -7.7840308014e-05 0.0000000000e+00 
          3.8764684048e-04 -7.7879546662e-05 0.0000000000e+00 
          4.7357159679e-04 -7.7806397812e-05 0.0000000000e+00 
          5.5825998341e-04 -7.7913942151e-05 0.0000000000e+00 
          6.4155476584e-04 -7.7798315383e-05 0.0000000000e+00 
          7.2329018047e-04 -7.7918048482e-05 0.0000000000e+00 
          8.0330594934e-04 -7.7812077706e-05 0.0000000000e+00 
          8.8144044663e-04 -7.7880773799e-05 0.0000000000e+00 
          9.5754744526e-04 -7.7887961424e-05 0.0000000000e+00 
          1.0314611584e-03 -7.7806107764e-05 0.0000000000e+00 
          1.1030462319e-03 -7.7927983578e-05 0.0000000000e+00 
          1.1721509829e-03 -7.7806144716e-05 0.0000000000e+00 
          1.2386316317e-03 -7.7913818041e-05 0.0000000000e+00 
          1.3023621119e-03 -7.7872322522e-05 0.0000000000e+00 
          1.3632017201e-03 -7.7800399172e-05 0.0000000000e+00 
          1.4210324179e-03 -7.7949584203e-05 0.0000000000e+00 
          1.4757238645e-03 -7.7832098829e-05 0.0000000000e+00 
          1.5271710461e-03 -7.7839288307e-05 0.0000000000e+00 
          1.5752622810e-03 -7.7929313255e-05 0.0000000000e+00 
          1.6198945767e-03 -7.7833795467e-05 0.0000000000e+00 
          1.6609736088e-03 -7.7857049512e-05 0.0000000000e+00 
          1.6984148251e-03 -7.7899644219e-05 0.0000000000e+00 
          1.7321326782e-03 -7.7854209019e-05 0.0000000000e+00 
          1.7620600404e-03 -7.7865192894e-05 0.0000000000e+00 
          1.7881286528e-03 -7.7878148338e-05 0.0000000000e+00 
          1.8102819678e-03 -7.7861217702e-05 0.0000000000e+00 
          1.8284757576e-03 -7.7868130166e-05 0.0000000000e+00 
          1.8426666765e-03 -7.7876087194e-05 0.0000000000e+00 
          1.8528253830e-03 -7.7870708283e-05 0.0000000000e+00 
          1.8589299376e-03 -7.7869531961e-05 0.0000000000e+00 
          -4.1319100600e-04 -7.7849241448e-05 0.0000000000e+00 
          -3.2381305270e-04 -7.7835002196e-05 0.0000000000e+00 
          -2.3412920298e-04 -7.7854407126e-05 0.0000000000e+00 
          -1.4431982315e-04 -7.7828621202e-05 0.0000000000e+00 
          -5.4551009845e-05 -7.7863085899e-05 0.0000000000e+00 
          3.5003313177e-05 -7.7835950198e-05 0.0000000000e+00 
          1.2416731384e-04 -7.7857176795e-05 0.0000000000e+00 
          2.1277905648e-04 -7.7853619761e-05 0.0000000000e+00 
          3.0066161271e-04 -7.7840308014e-05 0.0000000000e+00 
          3.8764684048e-04 -7.7879546662e-05 0.0000000000e+00 
          4.7357159679e-04 -7.7806397812e-05 0.0000000000e+00 
          5.5825998341e-04 -7.7913942151e-05 0.0000000000e+00 
          6.4155476584e-04 -7.7798315383e-05 0.0000000000e+00 
          7.2329018047e-04 -7.7918048482e-05 0.0000000000e+00 
          8.0330594934e-04 -7.7812077706e-05 0.0000000000e+00 
          8.8144044663e-04 -7.7880773799e-05 0.0000000000e+00 
          9.5754744526e-04 -7.7887961424e-05 0.0000000000e+00 
          1.0314611584e-03 -7.7806107764e-05 0.0000000000e+00 
          1.1030462319e-03 -7.7927983578e-05 0.0000000000e+00 
          1.1721509829e-03 -7.7806144716e-05 0.0000000000e+00 
          1.2386316317e-03 -7.7913818041e-05 0.0000000000e+00 
          1.3023621119e-03 -7.7872322522e-05 0.0000000000e+00 
          1.3632017201e-03 -7.7800399172e-05 0.0000000000e+00 
          1.4210324179e-03 -7.7949584203e-05 0.0000000000e+00 
          1.4757238645e-03 -7.7832098829e-05 0.0000000000e+00 
          1.5271710461e-03 -7.7839288307e-05 0.0000000000e+00 
          1.5752622810e-03 -7.7929313255e-05 0.0000000000e+00 
          1.6198945767e-03 -7.7833795467e-05 0.0000000000e+00 
          1.6609736088e-03 -7.7857049512e-05 0.0000000000e+00 
          1.6984148251e-03 -7.7899644219e-05 0.0000000000e+00 
          1.7321326782e-03 -7.7854209019e-05 0.0000000000e+00 
          1.7620600404e-03 -7.7865192894e-05 0.0000000000e+00 
          1.7881286528e-03 -7.7878148338e-05 0.0000000000e+00 
          1.8102819678e-03 -7.7861217702e-05 0.0000000000e+00 
          1.8284757576e-03 -7.7868130166e-05 0.0000000000e+00 
          1.8426666765e-03 -7.7876087194e-05 0.0000000000e+00 
          1.8528253830e-03 -7.7870708283e-05 0.0000000000e+00 
          1.8589299376e-03 -7.7869531961e-05 0.0000000000e+00 
        </DataArray>
        <DataArray type="Float64" Name="Displacement" NumberOfComponents="3" format="ascii">
          -2.5578812840e-05 -4.3254784703e-04 0.0000000000e+00 
          -2.5578812840e-05 -4.3254784703e-04 0.0000000000e+00 
          -2.1909196249e-04 -4.5612654328e-04 0.0000000000e+00 
          -2.1909196249e-04 -4.5612654328e-04 0.0000000000e+00 
          -3.3887491428e-05 -4.3374153336e-04 0.0000000000e+00 
          -4.2126376326e-05 -4.3490421179e-04 0.0000000000e+00 
          -5.0284931964e-05 -4.3603592673e-04 0.0000000000e+00 
          -5.8352889188e-05 -4.3713655852e-04 0.0000000000e+00 
          -6.6320021789e-05 -4.3820626343e-04 0.0000000000e+00 
          -7.4176264600e-05 -4.3924485681e-04 0.0000000000e+00 
          -8.1911812701e-05 -4.4025260935e-04 0.0000000000e+00 
          -8.9516940809e-05 -4.4122915846e-04 0.0000000000e+00 
          -9.6982173020e-05 -4.4217488860e-04 0.0000000000e+00 
          -1.0429824992e-04 -4.4308939632e-04 0.0000000000e+00 
          -1.1145602700e-04 -4.4397312816e-04 0.0000000000e+00 
          -1.1844673521e-04 -4.4482568466e-04 0.0000000000e+00 
          -1.2526170369e-04 -4.4564730632e-04 0.0000000000e+00 
          -1.3189255524e-04 -4.4643793060e-04 0.0000000000e+00 
          -1.3833120078e-04 -4.4719744399e-04 0.0000000000e+00 
          -1.4456969164e-04 -4.4792619456e-04 0.0000000000e+00 
          -1.5060049088e-04 -4.4862360577e-04 0.0000000000e+00 
          -1.5641623084e-04 -4.4929032490e-04 0.0000000000e+00 
          -1.6200986769e-04 -4.4992583931e-04 0.0000000000e+00 
          -1.6737461528e-04 -4.5053040112e-04 0.0000000000e+00 
          -1.7250402354e-04 -4.5110406822e-04 0.0000000000e+00 
          -1.7739191064e-04 -4.5164646342e-04 0.0000000000e+00 
          -1.8203238880e-04 -4.5215819796e-04 0.0000000000e+00 
          -1.8641993409e-04 -4.5263869500e-04 0.0000000000e+00 
          -1.9054924347e-04 -4.5308813112e-04 0.0000000000e+00 
          -1.9441545111e-04 -4.5350685616e-04 0.0000000000e+00 
          -1.9801393003e-04 -4.5389430603e-04 0.0000000000e+00 
          -2.0134038493e-04 -4.5425079788e-04 0.0000000000e+00 
          -2.0439090299e-04 -4.5457643254e-04 0.0000000000e+00 
          -2.0716183382e-04 -4.5487090399e-04 0.0000000000e+00 
          -2.0964994570e-04 -4.5513441727e-04 0.0000000000e+00 
          -2.1185227543e-04 -4.5536698654e-04 0.0000000000e+00 
          -2.1376621337e-04 -4.5556848443e-04 0.0000000000e+00 
          -2.1538953968e-04 -4.5573899886e-04 0.0000000000e+00 
          -2.1672030653e-04 -4.5587853197e-04 0.0000000000e+00 
          -2.1775699922e-04 -4.5598703811e-04 0.0000000000e+00 
          -2.1849834480e-04 -4.5606454134e-04 0.0000000000e+00 
          -2.1894349486e-04 -4.5611104471e-04 0.0000000000e+00 
          -3.3887491428e-05 -4.3374153336e-04 0.0000000000e+00 
          -4.2126376326e-05 -4.3490421179e-04 0.0000000000e+00 
          -5.0284931964e-05 -4.3603592673e-04 0.0000000000e+00 
          -5.8352889188e-05 -4.3713655852e-04 0.0000000000e+00 
          -6.6320021789e-05 -4.3820626343e-04 0.0000000000e+00 
          -7.4176264600e-05 -4.3924485681e-04 0.0000000000e+00 
          -8.1911812701e-05 -4.4025260935e-04 0.0000000000e+00 
          -8.9516940809e-05 -4.4122915846e-04 0.0000000000e+00 
          -9.6982173020e-05 -4.4217488860e-04 0.0000000000e+00 
          -1.0429824992e-04 -4.4308939632e-04 0.0000000000e+00 
          -1.1145602700e-04 -4.4397312816e-04 0.0000000000e+00 
          -1.1844673521e-04 -4.4482568466e-04 0.0000000000e+00 
          -1.2526170369e-04 -4.4564730632e-04 0.0000000000e+00 
          -1.3189255524e-04 -4.4643793060e-04 0.0000000000e+00 
          -1.3833120078e-04 -4.4719744399e-04 0.0000000000e+00 
          -1.4456969164e-04 -4.4792619456e-04 0.0000000000e+00 
          -1.5060049088e-04 -4.4862360577e-04 0.0000000000e+00 
          -1.5641623084e-04 -4.4929032490e-04 0.0000000000e+00 
          -1.6200986769e-04 -4.4992583931e-04 0.0000000000e+00 
          -1.6737461528e-04 -4.5053040112e-04 0.0000000000e+00 
          -1.7250402354e-04 -4.5110406822e-04 0.0000000000e+00 
          -1.7739191064e-04 -4.5164646342e-04 0.0000000000e+00 
          -1.8203238880e-04 -4.5215819796e-04 0.0000000000e+00 
          -1.8641993409e-04 -4.5263869500e-04 0.0000000000e+00 
          -1.9054924347e-04 -4.5308813112e-04 0.0000000000e+00 
          -1.9441545111e-04 -4.5350685616e-04 0.0000000000e+00 
          -1.9801393003e-04 -4.5389430603e-04 0.0000000000e+00 
          -2.0134038493e-04 -4.5425079788e-04 0.0000000000e+00 
          -2.0439090299e-04 -4.5457643254e-04 0.0000000000e+00 
          -2.0716183382e-04 -4.5487090399e-04 0.0000000000e+00 
          -2.0964994570e-04 -4.5513441727e-04 0.0000000000e+00 
          -2.1185227543e-04 -4.5536698654e-04 0.0000000000e+00 
          -2.1376621337e-04 -4.5556848443e-04 0.0000000000e+00 
          -2.1538953968e-04 -4.5573899886e-04 0.0000000000e+00 
          -2.1672030653e-04 -4.5587853197e-04 0.0000000000e+00 
          -2.1775699922e-04 -4.5598703811e-04 0.0000000000e+00 
          -2.1849834480e-04 -4.5606454134e-04 0.0000000000e+00 
          -2.1894349486e-04 -4.5611104471e-04 0.0000000000e+00 
        </DataArray>
        <DataArray type="Float64" Name="Acceleration" NumberOfComponents="3" format="ascii">
          5.3347288113e-03 -5.5166961133e-07 0.0000000000e+00 
          5.3347288113e-03 -5.5166961133e-07 0.0000000000e+00 
          2.6754453387e-02 -1.6567867380e-06 0.0000000000e+00 
          2.6754453387e-02 -1.6567867380e-06 0.0000000000e+00 
          6.2885492114e-03 2.8239701072e-07 0.0000000000e+00 
          7.2368740285e-03 -7.9842004008e-06 0.0000000000e+00 
          8.1640569779e-03 1.4111586131e-05 0.0000000000e+00 
          9.0844976726e-03 -1.4317489013e-05 0.0000000000e+00 
          9.9913891187e-03 1.8955989278e-05 0.0000000000e+00 
          1.0873932586e-02 -3.0056612078e-05 0.0000000000e+00 
          1.1752012743e-02 3.5756147375e-05 0.0000000000e+00 
          1.2604896533e-02 -3.3762690995e-05 0.0000000000e+00 
          1.3439187960e-02 3.8937866263e-05 0.0000000000e+00 
          1.4262297236e-02 -4.1731799930e-05 0.0000000000e+00 
          1.5054083623e-02 3.0665553616e-05 0.0000000000e+00 
          1.5834497014e-02 -1.2885157961e-05 0.0000000000e+00 
          1.6589298471e-02 -1.6129254964e-06 0.0000000000e+00 
          1.7318141270e-02 1.8840648892e-05 0.0000000000e+00 
          1.8033612762e-02 -4.4049686827e-05 0.0000000000e+00 
          1.8714167824e-02 6.0185368140e-05 0.0000000000e+00 
          1.9377265930e-02 -5.6628934036e-05 0.0000000000e+00 
          2.0011928933e-02 3.5749603481e-05 0.0000000000e+00 
          2.0622759602e-02 -9.8235438514e-06 0.0000000000e+00 
          2.1205180668e-02 -1.9968632807e-05 0.0000000000e+00 
          2.1761533022e-02 4.7854850664e-05 0.0000000000e+00 
          2.2292034223e-02 -6.2292476719e-05 0.0000000000e+00 
          2.2789252173e-02 4.1547455100e-05 0.0000000000e+00 
          2.3268094820e-02 9.9533924669e-06 0.0000000000e+00 
          2.3705985568e-02 -5.3208735899e-05 0.0000000000e+00 
          2.4122887094e-02 4.8447221847e-05 0.0000000000e+00 
          2.4509900205e-02 -8.7083232890e-06 0.0000000000e+00 
          2.4862114514e-02 -2.6949586387e-05 0.0000000000e+00 
          2.5191734398e-02 2.8349665796e-05 0.0000000000e+00 
          2.5482546046e-02 -8.6796232865e-06 0.0000000000e+00 
          2.5749536110e-02 -1.1232023427e-05 0.0000000000e+00 
          2.5984463218e-02 1.1676917321e-05 0.0000000000e+00 
          2.6184921984e-02 -4.0705673536e-06 0.0000000000e+00 
          2.6360185178e-02 -4.5078404955e-06 0.0000000000e+00 
          2.6496663244e-02 3.7166802402e-06 0.0000000000e+00 
          2.6611287673e-02 -6.3122936078e-07 0.0000000000e+00 
          2.6687905945e-02 -1.1459565251e-06 0.0000000000e+00 
          2.6731672622e-02 -2.7688984611e-07 0.0000000000e+00 
          6.2885492114e-03 2.8239701072e-07 0.0000000000e+00 
          7.2368740285e-03 -7.9842004008e-06 0.0000000000e+00 
          8.1640569779e-03 1.4111586131e-05 0.0000000000e+00 
          9.0844976726e-03 -1.4317489013e-05 0.0000000000e+00 
          9.9913891187e-03 1.8955989278e-05 0.0000000000e+00 
          1.0873932586e-02 -3.0056612078e-05 0.0000000000e+00 
          1.1752012743e-02 3.5756147375e-05 0.0000000000e+00 
          1.2604896533e-02 -3.3762690995e-05 0.0000000000e+00 
          1.3439187960e-02 3.8937866263e-05 0.0000000000e+00 
          1.4262297236e-02 -4.1731799930e-05 0.0000000000e+00 
          1.5054083623e-02 3.0665553616e-05 0.0000000000e+00 
          1.5834497014e-02 -1.2885157961e-05 0.0000000000e+00 
          1.6589298471e-02 -1.6129254964e-06 0.0000000000e+00 
          1.7318141270e-02 1.8840648892e-05 0.0000000000e+00 
          1.8033612762e-02 -4.4049686827e-05 0.0000000000e+00 
          1.8714167824e-02 6.0185368140e-05 0.0000000000e+00 
          1.9377265930e-02 -5.6628934036e-05 0.0000000000e+00 
          2.0011928933e-02 3.5749603481e-05 0.0000000000e+00 
          2.0622759602e-02 -9.8235438514e-06 0.0000000000e+00 
          2.1205180668e-02 -1.9968632807e-05 0.0000000000e+00 
          2.1761533022e-02 4.7854850664e-05 0.0000000000e+00 
          2.2292034223e-02 -6.2292476719e-05 0.0000000000e+00 
          2.2789252173e-02 4.1547455100e-05 0.0000000000e+00 
          2.3268094820e-02 9.9533924669e-06 0.0000000000e+00 
          2.3705985568e-02 -5.3208735899e-05 0.0000000000e+00 
          2.4122887094e-02 4.8447221847e-05 0.0000000000e+00 
          2.4509900205e-02 -8.7083232890e-06 0.0000000000e+00 
          2.4862114514e-02 -2.6949586387e-05 0.0000000000e+00 
          2.5191734398e-02 2.8349665796e-05 0.0000000000e+00 
          2.5482546046e-02 -8.6796232865e-06 0.0000000000e+00 
          2.5749536110e-02 -1.1232023427e-05 0.0000000000e+00 
          2.5984463218e-02 1.1676917321e-05 0.0000000000e+00 
          2.6184921984e-02 -4.0705673536e-06 0.0000000000e+00 
          2.6360185178e-02 -4.5078404955e-06 0.0000000000e+00 
          2.6496663244e-02 3.7166802402e-06 0.0000000000e+00 
          2.6611287673e-02 -6.3122936078e-07 0.0000000000e+00 
          2.6687905945e-02 -1.1459565251e-06 0.0000000000e+00 
          2.6731672622e-02 -2.7688984611e-07 0.0000000000e+00 
        </DataArray>
        <DataArray type="Float64" Name="Reaction" NumberOfComponents="3" format="ascii">
          0.0000000000e+00 0.0000000000e+00 0.0000000000e+00 
          0.0000000000e+00 0.0000000000e+00 0.0000000000e+00 
          0.0000000000e+00 0.0000000000e+00 0.0000000000e+00 
          0.0000000000e+00 0.0000000000e+00 0.0000000000e+00 
          0.0000000000e+00 0.0000000000e+00 0.0000000000e+00 
          0.0000000000e+00 0.0000000000e+00 0.0000000000e+00 
          0.0000000000e+00 0.0000000000e+00 0.0000000000e+00 
          0.0000000000e+00 0.0000000000e+00 0.0000000000e+00 
          0.0000000000e+00 0.0000000000e+00 0.0000000000e+00 
          0.0000000000e+00 0.0000000000e+00 0.0000000000e+00 
          0.0000000000e+00 0.0000000000e+00 0.0000000000e+00 
          0.0000000000e+00 0.0000000000e+00 0.0000000000e+00 
          0.0000000000e+00 0.0000000000e+00 0.0000000000e+00 
          0.0000000000e+00 0.0000000000e+00 0.0000000000e+00 
          0.0000000000e+00 0.0000000000e+00 0.0000000000e+00 
          0.0000000000e+00 0.0000000000e+00 0.0000000000e+00 
          0.0000000000e+00 0.0000000000e+00 0.0000000000e+00 
          0.0000000000e+00 0.0000000000e+00 0.0000000000e+00 
          0.0000000000e+00 0.0000000000e+00 0.0000000000e+00 
          0.0000000000e+00 0.0000000000e+00 0.0000000000e+00 
          0.0000000000e+00 0.0000000000e+00 0.0000000000e+00 
          0.0000000000e+00 0.0000000000e+00 0.0000000000e+00 
          0.0000000000e+00 0.0000000000e+00 0.0000000000e+00 
          0.0000000000e+00 0.0000000000e+00 0.0000000000e+00 
          0.0000000000e+00 0.0000000000e+00 0.0000000000e+00 
          0.0000000000e+00 0.0000000000e+00 0.0000000000e+00 
          0.0000000000e+00 0.0000000000e+00 0.0000000000e+00 
          0.0000000000e+00 0.0000000000e+00 0.0000000000e+00 
          0.0000000000e+00 0.0000000000e+00 0.0000000000e+00 
          0.0000000000e+00 0.0000000000e+00 0.0000000000e+00 
          0.0000000000e+00 0.0000000000e+00 0.0000000000e+00 
          0.0000000000e+00 0.0000000000e+00 0.0000000000e+00 
          0.0000000000e+00 0.0000000000e+00 0.0000000000e+00 
          0.0000000000e+00 0.0000000000e+00 0.0000000000e+00 
          0.0000000000e+00 0.0000000000e+00 0.0000000000e+00 
          0.0000000000e+00 0.0000000000e+00 0.0000000000e+00 
          0.0000000000e+00 0.0000000000e+00 0.0000000000e+00 
          0.0000000000e+00 0.0000000000e+00 0.0000000000e+00 
          0.0000000000e+00 0.0000000000e+00 0.0000000000e+00 
          0.0000000000e+00 0.0000000000e+00 0.0000000000e+00 
          0.0000000000e+00 0.0000000000e+00 0.0000000000e+00 
          0.0000000000e+00 0.0000000000e+00 0.0000000000e+00 
          0.0000000000e+00 0.0000000000e+00 0.0000000000e+00 
          0.0000000000e+00 0.0000000000e+00 0.0000000000e+00 
          0.0000000000e+00 0.0000000000e+00 0.0000000000e+00 
          0.0000000000e+00 0.0000000000e+00 0.0000000000e+00 
          0.0000000000e+00 0.0000000000e+00 0.0000000000e+00 
          0.0000000000e+00 0.0000000000e+00 0.0000000000e+00 
          0.0000000000e+00 0.0000000000e+00 0.0000000000e+00 
          0.0000000000e+00 0.0000000000e+00 0.0000000000e+00 
          0.0000000000e+00 0.0000000000e+00 0.0000000000e+00 
          0.0000000000e+00 0.0000000000e+00 0.0000000000e+00 
          0.0000000000e+00 0.0000000000e+00 0.0000000000e+00 
          0.0000000000e+00 0.0000000000e+00 0.0000000000e+00 
          0.0000000000e+00 0.0000000000e+00 0.0000000000e+00 
          0.0000000000e+00 0.0000000000e+00 0.0000000000e+00 
          0.0000000000e+00 0.0000000000e+00 0.0000000000e+00 
          0.0000000000e+00 0.0000000000e+00 0.0000000000e+00 
          0.0000000000e+00 0.0000000000e+00 0.0000000000e+00 
          0.0000000000e+00 0.0000000000e+00 0.0000000000e+00 
          0.0000000000e+00 0.0000000000e+00 0.0000000000e+00 
          0.0000000000e+00 0.0000000000e+00 0.0000000000e+00 
          0.0000000000e+00 0.0000000000e+00 0.0000000000e+00 
          0.0000000000e+00 0.0000000000e+00 0.0000000000e+00 
          0.0000000000e+00 0.0000000000e+00 0.0000000000e+00 
          0.0000000000e+00 0.0000000000e+00 0.0000000000e+00 
          0.0000000000e+00 0.0000000000e+00 0.0000000000e+00 
          0.0000000000e+00 0.0000000000e+00 0.0000000000e+00 
          0.0000000000e+00 0.0000000000e+00 0.0000000000e+00 
          0.0000000000e+00 0.0000000000e+00 0.0000000000e+00 
          0.0000000000e+00 0.0000000000e+00 0.0000000000e+00 
          0.0000000000e+00 0.0000000000e+00 0.0000000000e+00 
          0.0000000000e+00 0.0000000000e+00 0.0000000000e+00 
          0.0000000000e+00 0.0000000000e+00 0.0000000000e+00 
          0.0000000000e+00 0.0000000000e+00 0.0000000000e+00 
          0.0000000000e+00 0.0000000000e+00 0.0000000000e+00 
          0.0000000000e+00 0.0000000000e+00 0.0000000000e+00 
          0.0000000000e+00 0.0000000000e+00 0.0000000000e+00 
          0.0000000000e+00 0.0000000000e+00 0.0000000000e+00 
          0.0000000000e+00 0.0000000000e+00 0.0000000000e+00 
        </DataArray>
      </PointData>
      <CellData>
        <DataArray type="Int64" Name="ElementTag" format="ascii">
          90
          91
          92
          93
          94
          95
          96
          97
          98
          99
          100
          101
          102
          103
          104
          105
          106
          107
          108
          109
          110
          111
          112
          113
          114
          115
          116
          117
          118
          119
          120
          121
          122
          123
          124
          125
          126
          127
          128
        </DataArray>
      </CellData>
    </Piece>
  </UnstructuredGrid>
</VTKFile>
