<?xml version="1.0"?>
<VTKFile type="UnstructuredGrid" version="1.0" byte_order="LittleEndian" compressor="vtkZLibDataCompressor">
  <UnstructuredGrid>
    <Piece NumberOfPoints="82" NumberOfCells="1">
      <Points>
        <DataArray type="Float64" Name="Points" NumberOfComponents="3" format="ascii">
          0.0000000000e+00 0.0000000000e+00 0.0000000000e+00 
          2.5000000000e-01 0.0000000000e+00 0.0000000000e+00 
          2.5000000000e-01 3.0000000000e+01 0.0000000000e+00 
          0.0000000000e+00 3.0000000000e+01 0.0000000000e+00 
          0.0000000000e+00 -5.0000000000e+00 0.0000000000e+00 
          2.5000000000e-01 -5.0000000000e+00 0.0000000000e+00 
          2.5000000000e-01 7.6923100000e-01 0.0000000000e+00 
          2.5000000000e-01 1.5384620000e+00 0.0000000000e+00 
          2.5000000000e-01 2.3076920000e+00 0.0000000000e+00 
          2.5000000000e-01 3.0769230000e+00 0.0000000000e+00 
          2.5000000000e-01 3.8461540000e+00 0.0000000000e+00 
          2.5000000000e-01 4.6153850000e+00 0.0000000000e+00 
          2.5000000000e-01 5.3846150000e+00 0.0000000000e+00 
          2.5000000000e-01 6.1538460000e+00 0.0000000000e+00 
          2.5000000000e-01 6.9230770000e+00 0.0000000000e+00 
          2.5000000000e-01 7.6923080000e+00 0.0000000000e+00 
          2.5000000000e-01 8.4615380000e+00 0.0000000000e+00 
          2.5000000000e-01 9.2307690000e+00 0.0000000000e+00 
          2.5000000000e-01 1.0000000000e+01 0.0000000000e+00 
          2.5000000000e-01 1.0769231000e+01 0.0000000000e+00 
          2.5000000000e-01 1.1538462000e+01 0.0000000000e+00 
          2.5000000000e-01 1.2307692000e+01 0.0000000000e+00 
          2.5000000000e-01 1.3076923000e+01 0.0000000000e+00 
          2.5000000000e-01 1.3846154000e+01 0.0000000000e+00 
          2.5000000000e-01 1.4615385000e+01 0.0000000000e+00 
          2.5000000000e-01 1.5384615000e+01 0.0000000000e+00 
          2.5000000000e-01 1.6153846000e+01 0.0000000000e+00 
          2.5000000000e-01 1.6923077000e+01 0.0000000000e+00 
          2.5000000000e-01 1.7692308000e+01 0.0000000000e+00 
          2.5000000000e-01 1.8461538000e+01 0.0000000000e+00 
          2.5000000000e-01 1.9230769000e+01 0.0000000000e+00 
          2.5000000000e-01 2.0000000000e+01 0.0000000000e+00 
          2.5000000000e-01 2.0769231000e+01 0.0000000000e+00 
          2.5000000000e-01 2.1538462000e+01 0.0000000000e+00 
          2.5000000000e-01 2.2307692000e+01 0.0000000000e+00 
          2.5000000000e-01 2.3076923000e+01 0.0000000000e+00 
          2.5000000000e-01 2.3846154000e+01 0.0000000000e+00 
          2.5000000000e-01 2.4615385000e+01 0.0000000000e+00 
          2.5000000000e-01 2.5384615000e+01 0.0000000000e+00 
          2.5000000000e-01 2.6153846000e+01 0.0000000000e+00 
          2.5000000000e-01 2.6923077000e+01 0.0000000000e+00 
          2.5000000000e-01 2.7692308000e+01 0.0000000000e+00 
          2.5000000000e-01 2.8461538000e+01 0.0000000000e+00 
          2.5000000000e-01 2.9230769000e+01 0.0000000000e+00 
          0.0000000000e+00 7.6923100000e-01 0.0000000000e+00 
          0.0000000000e+00 1.5384620000e+00 0.0000000000e+00 
          0.0000000000e+00 2.3076920000e+00 0.0000000000e+00 
          0.0000000000e+00 3.0769230000e+00 0.0000000000e+00 
          0.0000000000e+00 3.8461540000e+00 0.0000000000e+00 
          0.0000000000e+00 4.6153850000e+00 0.0000000000e+00 
          0.0000000000e+00 5.3846150000e+00 0.0000000000e+00 
          0.0000000000e+00 6.1538460000e+00 0.0000000000e+00 
          0.0000000000e+00 6.9230770000e+00 0.0000000000e+00 
          0.0000000000e+00 7.6923080000e+00 0.0000000000e+00 
          0.0000000000e+00 8.4615380000e+00 0.0000000000e+00 
          0.0000000000e+00 9.2307690000e+00 0.0000000000e+00 
          0.0000000000e+00 1.0000000000e+01 0.0000000000e+00 
          0.0000000000e+00 1.0769231000e+01 0.0000000000e+00 
          0.0000000000e+00 1.1538462000e+01 0.0000000000e+00 
          0.0000000000e+00 1.2307692000e+01 0.0000000000e+00 
          0.0000000000e+00 1.3076923000e+01 0.0000000000e+00 
          0.0000000000e+00 1.3846154000e+01 0.0000000000e+00 
          0.0000000000e+00 1.4615385000e+01 0.0000000000e+00 
          0.0000000000e+00 1.5384615000e+01 0.0000000000e+00 
          0.0000000000e+00 1.6153846000e+01 0.0000000000e+00 
          0.0000000000e+00 1.6923077000e+01 0.0000000000e+00 
          0.0000000000e+00 1.7692308000e+01 0.0000000000e+00 
          0.0000000000e+00 1.8461538000e+01 0.0000000000e+00 
          0.0000000000e+00 1.9230769000e+01 0.0000000000e+00 
          0.0000000000e+00 2.0000000000e+01 0.0000000000e+00 
          0.0000000000e+00 2.0769231000e+01 0.0000000000e+00 
          0.0000000000e+00 2.1538462000e+01 0.0000000000e+00 
          0.0000000000e+00 2.2307692000e+01 0.0000000000e+00 
          0.0000000000e+00 2.3076923000e+01 0.0000000000e+00 
          0.0000000000e+00 2.3846154000e+01 0.0000000000e+00 
          0.0000000000e+00 2.4615385000e+01 0.0000000000e+00 
          0.0000000000e+00 2.5384615000e+01 0.0000000000e+00 
          0.0000000000e+00 2.6153846000e+01 0.0000000000e+00 
          0.0000000000e+00 2.6923077000e+01 0.0000000000e+00 
          0.0000000000e+00 2.7692308000e+01 0.0000000000e+00 
          0.0000000000e+00 2.8461538000e+01 0.0000000000e+00 
          0.0000000000e+00 2.9230769000e+01 0.0000000000e+00 
        </DataArray>
      </Points>
      <Cells>
        <DataArray type="Int64" Name="connectivity" format="ascii">
          0
          1
          2
          3
          4
          5
          6
          7
          8
          9
          10
          11
          12
          13
          14
          15
          16
          17
          18
          19
          20
          21
          22
          23
          24
          25
          26
          27
          28
          29
          30
          31
          32
          33
          34
          35
          36
          37
          38
          39
          40
          41
          42
          43
          44
          45
          46
          47
          48
          49
          50
          51
          52
          53
          54
          55
          56
          57
          58
          59
          60
          61
          62
          63
          64
          65
          66
          67
          68
          69
          70
          71
          72
          73
          74
          75
          76
          77
          78
          79
          80
          81
        </DataArray>
        <DataArray type="Int64" Name="offsets" format="ascii">
          82
        </DataArray>
        <DataArray type="Int64" Name="types" format="ascii">
          2
        </DataArray>
      </Cells>
      <PointData>
        <DataArray type="Int64" Name="NodeTag" format="ascii">
          1
          2
          3
          4
          5
          6
          7
          8
          9
          10
          11
          12
          13
          14
          15
          16
          17
          18
          19
          20
          21
          22
          23
          24
          25
          26
          27
          28
          29
          30
          31
          32
          33
          34
          35
          36
          37
          38
          39
          40
          41
          42
          43
          44
          45
          46
          47
          48
          49
          50
          51
          52
          53
          54
          55
          56
          57
          58
          59
          60
          61
          62
          63
          64
          65
          66
          67
          68
          69
          70
          71
          72
          73
          74
          75
          76
          77
          78
          79
          80
          81
          82
        </DataArray>
        <DataArray type="Float64" Name="Velocity" NumberOfComponents="3" format="ascii">
          -8.1045302645e-07 -7.7844101536e-05 0.0000000000e+00 
          -8.1045302645e-07 -7.7844101536e-05 0.0000000000e+00 
          8.8828131499e-06 -7.7823017413e-05 0.0000000000e+00 
          8.8828131499e-06 -7.7823017413e-05 0.0000000000e+00 
          0.0000000000e+00 0.0000000000e+00 0.0000000000e+00 
          0.0000000000e+00 0.0000000000e+00 0.0000000000e+00 
          -4.2548376291e-07 -7.7818370475e-05 0.0000000000e+00 
          -3.8145438098e-08 -7.7888463722e-05 0.0000000000e+00 
          3.4490437534e-07 -7.7795326564e-05 0.0000000000e+00 
          7.3063410636e-07 -7.7886720082e-05 0.0000000000e+00 
          1.1104637053e-06 -7.7817293439e-05 0.0000000000e+00 
          1.4901486803e-06 -7.7854277363e-05 0.0000000000e+00 
          1.8660452178e-06 -7.7847019794e-05 0.0000000000e+00 
          2.2360945125e-06 -7.7840027258e-05 0.0000000000e+00 
          2.6050480195e-06 -7.7843036373e-05 0.0000000000e+00 
          2.9642094883e-06 -7.7850210834e-05 0.0000000000e+00 
          3.3228676943e-06 -7.7842342048e-05 0.0000000000e+00 
          3.6686248963e-06 -7.7839037720e-05 0.0000000000e+00 
          4.0145918086e-06 -7.7853252734e-05 0.0000000000e+00 
          4.3460541478e-06 -7.7839332388e-05 0.0000000000e+00 
          4.6736570788e-06 -7.7845438787e-05 0.0000000000e+00 
          4.9922425578e-06 -7.7840112804e-05 0.0000000000e+00 
          5.2976608232e-06 -7.7862082304e-05 0.0000000000e+00 
          5.5995487358e-06 -7.7810655207e-05 0.0000000000e+00 
          5.8846550605e-06 -7.7887542397e-05 0.0000000000e+00 
          6.1635999432e-06 -7.7805582719e-05 0.0000000000e+00 
          6.4296706011e-06 -7.7867822666e-05 0.0000000000e+00 
          6.6820028322e-06 -7.7841496163e-05 0.0000000000e+00 
          6.9271526107e-06 -7.7828802556e-05 0.0000000000e+00 
          7.1535127656e-06 -7.7873492969e-05 0.0000000000e+00 
          7.3722477967e-06 -7.7811056110e-05 0.0000000000e+00 
          7.5750383382e-06 -7.7872058823e-05 0.0000000000e+00 
          7.7628349429e-06 -7.7831223991e-05 0.0000000000e+00 
          7.9420174688e-06 -7.7840092058e-05 0.0000000000e+00 
          8.0995895656e-06 -7.7866067278e-05 0.0000000000e+00 
          8.2482973225e-06 -7.7809831599e-05 0.0000000000e+00 
          8.3810500248e-06 -7.7884550049e-05 0.0000000000e+00 
          8.4953459423e-06 -7.7810851262e-05 0.0000000000e+00 
          8.6000410543e-06 -7.7859165175e-05 0.0000000000e+00 
          8.6849432889e-06 -7.7857275259e-05 0.0000000000e+00 
          8.7555239496e-06 -7.7806328783e-05 0.0000000000e+00 
          8.8120881261e-06 -7.7894387173e-05 0.0000000000e+00 
          8.8505793072e-06 -7.7800846866e-05 0.0000000000e+00 
          8.8745935488e-06 -7.7873512433e-05 0.0000000000e+00 
          -4.2548376291e-07 -7.7818370475e-05 0.0000000000e+00 
          -3.8145438098e-08 -7.7888463722e-05 0.0000000000e+00 
          3.4490437534e-07 -7.7795326564e-05 0.0000000000e+00 
          7.3063410636e-07 -7.7886720082e-05 0.0000000000e+00 
          1.1104637053e-06 -7.7817293439e-05 0.0000000000e+00 
          1.4901486803e-06 -7.7854277363e-05 0.0000000000e+00 
          1.8660452178e-06 -7.7847019794e-05 0.0000000000e+00 
          2.2360945125e-06 -7.7840027258e-05 0.0000000000e+00 
          2.6050480195e-06 -7.7843036373e-05 0.0000000000e+00 
          2.9642094883e-06 -7.7850210834e-05 0.0000000000e+00 
          3.3228676943e-06 -7.7842342048e-05 0.0000000000e+00 
          3.6686248963e-06 -7.7839037720e-05 0.0000000000e+00 
          4.0145918086e-06 -7.7853252734e-05 0.0000000000e+00 
          4.3460541478e-06 -7.7839332388e-05 0.0000000000e+00 
          4.6736570788e-06 -7.7845438787e-05 0.0000000000e+00 
          4.9922425578e-06 -7.7840112804e-05 0.0000000000e+00 
          5.2976608232e-06 -7.7862082304e-05 0.0000000000e+00 
          5.5995487358e-06 -7.7810655207e-05 0.0000000000e+00 
          5.8846550605e-06 -7.7887542397e-05 0.0000000000e+00 
          6.1635999432e-06 -7.7805582719e-05 0.0000000000e+00 
          6.4296706011e-06 -7.7867822666e-05 0.0000000000e+00 
          6.6820028322e-06 -7.7841496163e-05 0.0000000000e+00 
          6.9271526107e-06 -7.7828802556e-05 0.0000000000e+00 
          7.1535127656e-06 -7.7873492969e-05 0.0000000000e+00 
          7.3722477967e-06 -7.7811056110e-05 0.0000000000e+00 
          7.5750383382e-06 -7.7872058823e-05 0.0000000000e+00 
          7.7628349429e-06 -7.7831223991e-05 0.0000000000e+00 
          7.9420174688e-06 -7.7840092058e-05 0.0000000000e+00 
          8.0995895656e-06 -7.7866067278e-05 0.0000000000e+00 
          8.2482973225e-06 -7.7809831599e-05 0.0000000000e+00 
          8.3810500248e-06 -7.7884550049e-05 0.0000000000e+00 
          8.4953459423e-06 -7.7810851262e-05 0.0000000000e+00 
          8.6000410543e-06 -7.7859165175e-05 0.0000000000e+00 
          8.6849432889e-06 -7.7857275259e-05 0.0000000000e+00 
          8.7555239496e-06 -7.7806328783e-05 0.0000000000e+00 
          8.8120881261e-06 -7.7894387173e-05 0.0000000000e+00 
          8.8505793072e-06 -7.7800846866e-05 0.0000000000e+00 
          8.8745935488e-06 -7.7873512433e-05 0.0000000000e+00 
        </DataArray>
        <DataArray type="Float64" Name="Displacement" NumberOfComponents="3" format="ascii">
          -1.3936419643e-07 -7.1901572045e-04 0.0000000000e+00 
          -1.3936419643e-07 -7.1901572045e-04 0.0000000000e+00 
          -4.1363825821e-07 -7.4259602311e-04 0.0000000000e+00 
          -4.1363825821e-07 -7.4259602311e-04 0.0000000000e+00 
          0.0000000000e+00 0.0000000000e+00 0.0000000000e+00 
          0.0000000000e+00 0.0000000000e+00 0.0000000000e+00 
          -1.5269445332e-07 -7.2020945366e-04 0.0000000000e+00 
          -1.6577163407e-07 -7.2137220946e-04 0.0000000000e+00 
          -1.7855126131e-07 -7.2250391687e-04 0.0000000000e+00 
          -1.9106509682e-07 -7.2360465923e-04 0.0000000000e+00 
          -2.0327971097e-07 -7.2467437254e-04 0.0000000000e+00 
          -2.1518449417e-07 -7.2571306862e-04 0.0000000000e+00 
          -2.2680572899e-07 -7.2672081612e-04 0.0000000000e+00 
          -2.3808350461e-07 -7.2769744120e-04 0.0000000000e+00 
          -2.4906597610e-07 -7.2864322997e-04 0.0000000000e+00 
          -2.5970917762e-07 -7.2955782725e-04 0.0000000000e+00 
          -2.7002258740e-07 -7.3044155149e-04 0.0000000000e+00 
          -2.8000531582e-07 -7.3129424725e-04 0.0000000000e+00 
          -2.8963962952e-07 -7.3211583436e-04 0.0000000000e+00 
          -2.9893653378e-07 -7.3290659986e-04 0.0000000000e+00 
          -3.0787800142e-07 -7.3366616509e-04 0.0000000000e+00 
          -3.1647538206e-07 -7.3439487050e-04 0.0000000000e+00 
          -3.2470891099e-07 -7.3509247517e-04 0.0000000000e+00 
          -3.3259349208e-07 -7.3575915320e-04 0.0000000000e+00 
          -3.4011592750e-07 -7.3639472257e-04 0.0000000000e+00 
          -3.4727075889e-07 -7.3699941586e-04 0.0000000000e+00 
          -3.5407526880e-07 -7.3757297197e-04 0.0000000000e+00 
          -3.6050214081e-07 -7.3811561463e-04 0.0000000000e+00 
          -3.6657103506e-07 -7.3862722521e-04 0.0000000000e+00 
          -3.7227449427e-07 -7.3910777791e-04 0.0000000000e+00 
          -3.7760221228e-07 -7.3955744328e-04 0.0000000000e+00 
          -3.8257456574e-07 -7.3997594670e-04 0.0000000000e+00 
          -3.8716795629e-07 -7.4036358951e-04 0.0000000000e+00 
          -3.9139892191e-07 -7.4072013451e-04 0.0000000000e+00 
          -3.9526300170e-07 -7.4104569179e-04 0.0000000000e+00 
          -3.9875106078e-07 -7.4134028342e-04 0.0000000000e+00 
          -4.0188114728e-07 -7.4160379989e-04 0.0000000000e+00 
          -4.0463499231e-07 -7.4183637533e-04 0.0000000000e+00 
          -4.0702357653e-07 -7.4203790673e-04 0.0000000000e+00 
          -4.0904731785e-07 -7.4220843315e-04 0.0000000000e+00 
          -4.1069671715e-07 -7.4234797623e-04 0.0000000000e+00 
          -4.1198514494e-07 -7.4245648911e-04 0.0000000000e+00 
          -4.1290295969e-07 -7.4253400742e-04 0.0000000000e+00 
          -4.1345235844e-07 -7.4258051461e-04 0.0000000000e+00 
          -1.5269445332e-07 -7.2020945366e-04 0.0000000000e+00 
          -1.6577163407e-07 -7.2137220946e-04 0.0000000000e+00 
          -1.7855126131e-07 -7.2250391687e-04 0.0000000000e+00 
          -1.9106509682e-07 -7.2360465923e-04 0.0000000000e+00 
          -2.0327971097e-07 -7.2467437254e-04 0.0000000000e+00 
          -2.1518449417e-07 -7.2571306862e-04 0.0000000000e+00 
          -2.2680572899e-07 -7.2672081612e-04 0.0000000000e+00 
          -2.3808350461e-07 -7.2769744120e-04 0.0000000000e+00 
          -2.4906597610e-07 -7.2864322997e-04 0.0000000000e+00 
          -2.5970917762e-07 -7.2955782725e-04 0.0000000000e+00 
          -2.7002258740e-07 -7.3044155149e-04 0.0000000000e+00 
          -2.8000531582e-07 -7.3129424725e-04 0.0000000000e+00 
          -2.8963962952e-07 -7.3211583436e-04 0.0000000000e+00 
          -2.9893653378e-07 -7.3290659986e-04 0.0000000000e+00 
          -3.0787800142e-07 -7.3366616509e-04 0.0000000000e+00 
          -3.1647538206e-07 -7.3439487050e-04 0.0000000000e+00 
          -3.2470891099e-07 -7.3509247517e-04 0.0000000000e+00 
          -3.3259349208e-07 -7.3575915320e-04 0.0000000000e+00 
          -3.4011592750e-07 -7.3639472257e-04 0.0000000000e+00 
          -3.4727075889e-07 -7.3699941586e-04 0.0000000000e+00 
          -3.5407526880e-07 -7.3757297197e-04 0.0000000000e+00 
          -3.6050214081e-07 -7.3811561463e-04 0.0000000000e+00 
          -3.6657103506e-07 -7.3862722521e-04 0.0000000000e+00 
          -3.7227449427e-07 -7.3910777791e-04 0.0000000000e+00 
          -3.7760221228e-07 -7.3955744328e-04 0.0000000000e+00 
          -3.8257456574e-07 -7.3997594670e-04 0.0000000000e+00 
          -3.8716795629e-07 -7.4036358951e-04 0.0000000000e+00 
          -3.9139892191e-07 -7.4072013451e-04 0.0000000000e+00 
          -3.9526300170e-07 -7.4104569179e-04 0.0000000000e+00 
          -3.9875106078e-07 -7.4134028342e-04 0.0000000000e+00 
          -4.0188114728e-07 -7.4160379989e-04 0.0000000000e+00 
          -4.0463499231e-07 -7.4183637533e-04 0.0000000000e+00 
          -4.0702357653e-07 -7.4203790673e-04 0.0000000000e+00 
          -4.0904731785e-07 -7.4220843315e-04 0.0000000000e+00 
          -4.1069671715e-07 -7.4234797623e-04 0.0000000000e+00 
          -4.1198514494e-07 -7.4245648911e-04 0.0000000000e+00 
          -4.1290295969e-07 -7.4253400742e-04 0.0000000000e+00 
          -4.1345235844e-07 -7.4258051461e-04 0.0000000000e+00 
        </DataArray>
        <DataArray type="Float64" Name="Acceleration" NumberOfComponents="3" format="ascii">
          2.3190055515e-05 1.6999976456e-06 0.0000000000e+00 
          2.3190055515e-05 1.6999976456e-06 0.0000000000e+00 
          3.3499872000e-05 1.9210182413e-06 0.0000000000e+00 
          3.3499872000e-05 1.9210182413e-06 0.0000000000e+00 
          0.0000000000e+00 0.0000000000e+00 0.0000000000e+00 
          0.0000000000e+00 0.0000000000e+00 0.0000000000e+00 
          2.2802659249e-05 -5.2121066051e-06 0.0000000000e+00 
          2.6808679774e-05 7.3153772240e-06 0.0000000000e+00 
          2.3949871298e-05 -7.1702299335e-06 0.0000000000e+00 
          2.6960436400e-05 4.0921277887e-06 0.0000000000e+00 
          2.7916379677e-05 1.9629806037e-06 0.0000000000e+00 
          2.5546925476e-05 -1.0640188573e-05 0.0000000000e+00 
          3.0947732685e-05 2.1159034996e-05 0.0000000000e+00 
          2.6607485674e-05 -3.0640642222e-05 0.0000000000e+00 
          3.0568894390e-05 3.3364895057e-05 0.0000000000e+00 
          2.9713697519e-05 -2.4222131703e-05 0.0000000000e+00 
          2.9796271476e-05 4.1986852023e-06 0.0000000000e+00 
          3.1392855070e-05 1.8438299056e-05 0.0000000000e+00 
          3.0401256166e-05 -3.3287346131e-05 0.0000000000e+00 
          3.2025541691e-05 3.4945815109e-05 0.0000000000e+00 
          3.1001930855e-05 -2.6569723304e-05 0.0000000000e+00 
          3.2784786147e-05 1.7186491942e-05 0.0000000000e+00 
          3.1440889129e-05 -1.4361538506e-05 0.0000000000e+00 
          3.2630040862e-05 1.8437523770e-05 0.0000000000e+00 
          3.3121032602e-05 -2.3609285562e-05 0.0000000000e+00 
          3.1565515060e-05 2.3724093104e-05 0.0000000000e+00 
          3.4025921012e-05 -1.6739285765e-05 0.0000000000e+00 
          3.2254502813e-05 4.6389483871e-06 0.0000000000e+00 
          3.2925771978e-05 9.1787940875e-06 0.0000000000e+00 
          3.3855714179e-05 -2.1328690575e-05 0.0000000000e+00 
          3.2019048776e-05 2.8041993778e-05 0.0000000000e+00 
          3.4145305336e-05 -2.6260952747e-05 0.0000000000e+00 
          3.2655202795e-05 1.6484063336e-05 0.0000000000e+00 
          3.3056706430e-05 -3.4282812518e-06 0.0000000000e+00 
          3.3880682619e-05 -7.2500298905e-06 0.0000000000e+00 
          3.2254036778e-05 1.2401044343e-05 0.0000000000e+00 
          3.3900099650e-05 -1.1769310356e-05 0.0000000000e+00 
          3.2910461982e-05 6.7510540003e-06 0.0000000000e+00 
          3.2873366944e-05 -1.9245623084e-07 0.0000000000e+00 
          3.3728955157e-05 -4.1457229243e-06 0.0000000000e+00 
          3.2524245085e-05 4.3001487639e-06 0.0000000000e+00 
          3.3392882177e-05 -2.1327110571e-06 0.0000000000e+00 
          3.3195137519e-05 8.8047396840e-07 0.0000000000e+00 
          3.2751976676e-05 -1.3761101239e-06 0.0000000000e+00 
          2.2802659249e-05 -5.2121066051e-06 0.0000000000e+00 
          2.6808679774e-05 7.3153772240e-06 0.0000000000e+00 
          2.3949871298e-05 -7.1702299335e-06 0.0000000000e+00 
          2.6960436400e-05 4.0921277887e-06 0.0000000000e+00 
          2.7916379677e-05 1.9629806037e-06 0.0000000000e+00 
          2.5546925476e-05 -1.0640188573e-05 0.0000000000e+00 
          3.0947732685e-05 2.1159034996e-05 0.0000000000e+00 
          2.6607485674e-05 -3.0640642222e-05 0.0000000000e+00 
          3.0568894390e-05 3.3364895057e-05 0.0000000000e+00 
          2.9713697519e-05 -2.4222131703e-05 0.0000000000e+00 
          2.9796271476e-05 4.1986852023e-06 0.0000000000e+00 
          3.1392855070e-05 1.8438299056e-05 0.0000000000e+00 
          3.0401256166e-05 -3.3287346131e-05 0.0000000000e+00 
          3.2025541691e-05 3.4945815109e-05 0.0000000000e+00 
          3.1001930855e-05 -2.6569723304e-05 0.0000000000e+00 
          3.2784786147e-05 1.7186491942e-05 0.0000000000e+00 
          3.1440889129e-05 -1.4361538506e-05 0.0000000000e+00 
          3.2630040862e-05 1.8437523770e-05 0.0000000000e+00 
          3.3121032602e-05 -2.3609285562e-05 0.0000000000e+00 
          3.1565515060e-05 2.3724093104e-05 0.0000000000e+00 
          3.4025921012e-05 -1.6739285765e-05 0.0000000000e+00 
          3.2254502813e-05 4.6389483871e-06 0.0000000000e+00 
          3.2925771978e-05 9.1787940875e-06 0.0000000000e+00 
          3.3855714179e-05 -2.1328690575e-05 0.0000000000e+00 
          3.2019048776e-05 2.8041993778e-05 0.0000000000e+00 
          3.4145305336e-05 -2.6260952747e-05 0.0000000000e+00 
          3.2655202795e-05 1.6484063336e-05 0.0000000000e+00 
          3.3056706430e-05 -3.4282812518e-06 0.0000000000e+00 
          3.3880682619e-05 -7.2500298905e-06 0.0000000000e+00 
          3.2254036778e-05 1.2401044343e-05 0.0000000000e+00 
          3.3900099650e-05 -1.1769310356e-05 0.0000000000e+00 
          3.2910461982e-05 6.7510540003e-06 0.0000000000e+00 
          3.2873366944e-05 -1.9245623084e-07 0.0000000000e+00 
          3.3728955157e-05 -4.1457229243e-06 0.0000000000e+00 
          3.2524245085e-05 4.3001487639e-06 0.0000000000e+00 
          3.3392882177e-05 -2.1327110571e-06 0.0000000000e+00 
          3.3195137519e-05 8.8047396840e-07 0.0000000000e+00 
          3.2751976676e-05 -1.3761101239e-06 0.0000000000e+00 
        </DataArray>
        <DataArray type="Float64" Name="Reaction" NumberOfComponents="3" format="ascii">
          0.0000000000e+00 0.0000000000e+00 0.0000000000e+00 
          0.0000000000e+00 0.0000000000e+00 0.0000000000e+00 
          0.0000000000e+00 0.0000000000e+00 0.0000000000e+00 
          0.0000000000e+00 0.0000000000e+00 0.0000000000e+00 
          0.0000000000e+00 0.0000000000e+00 0.0000000000e+00 
          0.0000000000e+00 0.0000000000e+00 0.0000000000e+00 
          0.0000000000e+00 0.0000000000e+00 0.0000000000e+00 
          0.0000000000e+00 0.0000000000e+00 0.0000000000e+00 
          0.0000000000e+00 0.0000000000e+00 0.0000000000e+00 
          0.0000000000e+00 0.0000000000e+00 0.0000000000e+00 
          0.0000000000e+00 0.0000000000e+00 0.0000000000e+00 
          0.0000000000e+00 0.0000000000e+00 0.0000000000e+00 
          0.0000000000e+00 0.0000000000e+00 0.0000000000e+00 
          0.0000000000e+00 0.0000000000e+00 0.0000000000e+00 
          0.0000000000e+00 0.0000000000e+00 0.0000000000e+00 
          0.0000000000e+00 0.0000000000e+00 0.0000000000e+00 
          0.0000000000e+00 0.0000000000e+00 0.0000000000e+00 
          0.0000000000e+00 0.0000000000e+00 0.0000000000e+00 
          0.0000000000e+00 0.0000000000e+00 0.0000000000e+00 
          0.0000000000e+00 0.0000000000e+00 0.0000000000e+00 
          0.0000000000e+00 0.0000000000e+00 0.0000000000e+00 
          0.0000000000e+00 0.0000000000e+00 0.0000000000e+00 
          0.0000000000e+00 0.0000000000e+00 0.0000000000e+00 
          0.0000000000e+00 0.0000000000e+00 0.0000000000e+00 
          0.0000000000e+00 0.0000000000e+00 0.0000000000e+00 
          0.0000000000e+00 0.0000000000e+00 0.0000000000e+00 
          0.0000000000e+00 0.0000000000e+00 0.0000000000e+00 
          0.0000000000e+00 0.0000000000e+00 0.0000000000e+00 
          0.0000000000e+00 0.0000000000e+00 0.0000000000e+00 
          0.0000000000e+00 0.0000000000e+00 0.0000000000e+00 
          0.0000000000e+00 0.0000000000e+00 0.0000000000e+00 
          0.0000000000e+00 0.0000000000e+00 0.0000000000e+00 
          0.0000000000e+00 0.0000000000e+00 0.0000000000e+00 
          0.0000000000e+00 0.0000000000e+00 0.0000000000e+00 
          0.0000000000e+00 0.0000000000e+00 0.0000000000e+00 
          0.0000000000e+00 0.0000000000e+00 0.0000000000e+00 
          0.0000000000e+00 0.0000000000e+00 0.0000000000e+00 
          0.0000000000e+00 0.0000000000e+00 0.0000000000e+00 
          0.0000000000e+00 0.0000000000e+00 0.0000000000e+00 
          0.0000000000e+00 0.0000000000e+00 0.0000000000e+00 
          0.0000000000e+00 0.0000000000e+00 0.0000000000e+00 
          0.0000000000e+00 0.0000000000e+00 0.0000000000e+00 
          0.0000000000e+00 0.0000000000e+00 0.0000000000e+00 
          0.0000000000e+00 0.0000000000e+00 0.0000000000e+00 
          0.0000000000e+00 0.0000000000e+00 0.0000000000e+00 
          0.0000000000e+00 0.0000000000e+00 0.0000000000e+00 
          0.0000000000e+00 0.0000000000e+00 0.0000000000e+00 
          0.0000000000e+00 0.0000000000e+00 0.0000000000e+00 
          0.0000000000e+00 0.0000000000e+00 0.0000000000e+00 
          0.0000000000e+00 0.0000000000e+00 0.0000000000e+00 
          0.0000000000e+00 0.0000000000e+00 0.0000000000e+00 
          0.0000000000e+00 0.0000000000e+00 0.0000000000e+00 
          0.0000000000e+00 0.0000000000e+00 0.0000000000e+00 
          0.0000000000e+00 0.0000000000e+00 0.0000000000e+00 
          0.0000000000e+00 0.0000000000e+00 0.0000000000e+00 
          0.0000000000e+00 0.0000000000e+00 0.0000000000e+00 
          0.0000000000e+00 0.0000000000e+00 0.0000000000e+00 
          0.0000000000e+00 0.0000000000e+00 0.0000000000e+00 
          0.0000000000e+00 0.0000000000e+00 0.0000000000e+00 
          0.0000000000e+00 0.0000000000e+00 0.0000000000e+00 
          0.0000000000e+00 0.0000000000e+00 0.0000000000e+00 
          0.0000000000e+00 0.0000000000e+00 0.0000000000e+00 
          0.0000000000e+00 0.0000000000e+00 0.0000000000e+00 
          0.0000000000e+00 0.0000000000e+00 0.0000000000e+00 
          0.0000000000e+00 0.0000000000e+00 0.0000000000e+00 
          0.0000000000e+00 0.0000000000e+00 0.0000000000e+00 
          0.0000000000e+00 0.0000000000e+00 0.0000000000e+00 
          0.0000000000e+00 0.0000000000e+00 0.0000000000e+00 
          0.0000000000e+00 0.0000000000e+00 0.0000000000e+00 
          0.0000000000e+00 0.0000000000e+00 0.0000000000e+00 
          0.0000000000e+00 0.0000000000e+00 0.0000000000e+00 
          0.0000000000e+00 0.0000000000e+00 0.0000000000e+00 
          0.0000000000e+00 0.0000000000e+00 0.0000000000e+00 
          0.0000000000e+00 0.0000000000e+00 0.0000000000e+00 
          0.0000000000e+00 0.0000000000e+00 0.0000000000e+00 
          0.0000000000e+00 0.0000000000e+00 0.0000000000e+00 
          0.0000000000e+00 0.0000000000e+00 0.0000000000e+00 
          0.0000000000e+00 0.0000000000e+00 0.0000000000e+00 
          0.0000000000e+00 0.0000000000e+00 0.0000000000e+00 
          0.0000000000e+00 0.0000000000e+00 0.0000000000e+00 
          0.0000000000e+00 0.0000000000e+00 0.0000000000e+00 
          0.0000000000e+00 0.0000000000e+00 0.0000000000e+00 
        </DataArray>
      </PointData>
      <CellData>
        <DataArray type="Int64" Name="ElementTag" format="ascii">
          0
        </DataArray>
      </CellData>
    </Piece>
  </UnstructuredGrid>
</VTKFile>
