<?xml version="1.0"?>
<VTKFile type="UnstructuredGrid" version="1.0" byte_order="LittleEndian" compressor="vtkZLibDataCompressor">
  <UnstructuredGrid>
    <Piece NumberOfPoints="82" NumberOfCells="1">
      <Points>
        <DataArray type="Float64" Name="Points" NumberOfComponents="3" format="ascii">
          0.0000000000e+00 0.0000000000e+00 0.0000000000e+00 
          2.5000000000e-01 0.0000000000e+00 0.0000000000e+00 
          2.5000000000e-01 3.0000000000e+01 0.0000000000e+00 
          0.0000000000e+00 3.0000000000e+01 0.0000000000e+00 
          0.0000000000e+00 -5.0000000000e+00 0.0000000000e+00 
          2.5000000000e-01 -5.0000000000e+00 0.0000000000e+00 
          2.5000000000e-01 7.6923100000e-01 0.0000000000e+00 
          2.5000000000e-01 1.5384620000e+00 0.0000000000e+00 
          2.5000000000e-01 2.3076920000e+00 0.0000000000e+00 
          2.5000000000e-01 3.0769230000e+00 0.0000000000e+00 
          2.5000000000e-01 3.8461540000e+00 0.0000000000e+00 
          2.5000000000e-01 4.6153850000e+00 0.0000000000e+00 
          2.5000000000e-01 5.3846150000e+00 0.0000000000e+00 
          2.5000000000e-01 6.1538460000e+00 0.0000000000e+00 
          2.5000000000e-01 6.9230770000e+00 0.0000000000e+00 
          2.5000000000e-01 7.6923080000e+00 0.0000000000e+00 
          2.5000000000e-01 8.4615380000e+00 0.0000000000e+00 
          2.5000000000e-01 9.2307690000e+00 0.0000000000e+00 
          2.5000000000e-01 1.0000000000e+01 0.0000000000e+00 
          2.5000000000e-01 1.0769231000e+01 0.0000000000e+00 
          2.5000000000e-01 1.1538462000e+01 0.0000000000e+00 
          2.5000000000e-01 1.2307692000e+01 0.0000000000e+00 
          2.5000000000e-01 1.3076923000e+01 0.0000000000e+00 
          2.5000000000e-01 1.3846154000e+01 0.0000000000e+00 
          2.5000000000e-01 1.4615385000e+01 0.0000000000e+00 
          2.5000000000e-01 1.5384615000e+01 0.0000000000e+00 
          2.5000000000e-01 1.6153846000e+01 0.0000000000e+00 
          2.5000000000e-01 1.6923077000e+01 0.0000000000e+00 
          2.5000000000e-01 1.7692308000e+01 0.0000000000e+00 
          2.5000000000e-01 1.8461538000e+01 0.0000000000e+00 
          2.5000000000e-01 1.9230769000e+01 0.0000000000e+00 
          2.5000000000e-01 2.0000000000e+01 0.0000000000e+00 
          2.5000000000e-01 2.0769231000e+01 0.0000000000e+00 
          2.5000000000e-01 2.1538462000e+01 0.0000000000e+00 
          2.5000000000e-01 2.2307692000e+01 0.0000000000e+00 
          2.5000000000e-01 2.3076923000e+01 0.0000000000e+00 
          2.5000000000e-01 2.3846154000e+01 0.0000000000e+00 
          2.5000000000e-01 2.4615385000e+01 0.0000000000e+00 
          2.5000000000e-01 2.5384615000e+01 0.0000000000e+00 
          2.5000000000e-01 2.6153846000e+01 0.0000000000e+00 
          2.5000000000e-01 2.6923077000e+01 0.0000000000e+00 
          2.5000000000e-01 2.7692308000e+01 0.0000000000e+00 
          2.5000000000e-01 2.8461538000e+01 0.0000000000e+00 
          2.5000000000e-01 2.9230769000e+01 0.0000000000e+00 
          0.0000000000e+00 7.6923100000e-01 0.0000000000e+00 
          0.0000000000e+00 1.5384620000e+00 0.0000000000e+00 
          0.0000000000e+00 2.3076920000e+00 0.0000000000e+00 
          0.0000000000e+00 3.0769230000e+00 0.0000000000e+00 
          0.0000000000e+00 3.8461540000e+00 0.0000000000e+00 
          0.0000000000e+00 4.6153850000e+00 0.0000000000e+00 
          0.0000000000e+00 5.3846150000e+00 0.0000000000e+00 
          0.0000000000e+00 6.1538460000e+00 0.0000000000e+00 
          0.0000000000e+00 6.9230770000e+00 0.0000000000e+00 
          0.0000000000e+00 7.6923080000e+00 0.0000000000e+00 
          0.0000000000e+00 8.4615380000e+00 0.0000000000e+00 
          0.0000000000e+00 9.2307690000e+00 0.0000000000e+00 
          0.0000000000e+00 1.0000000000e+01 0.0000000000e+00 
          0.0000000000e+00 1.0769231000e+01 0.0000000000e+00 
          0.0000000000e+00 1.1538462000e+01 0.0000000000e+00 
          0.0000000000e+00 1.2307692000e+01 0.0000000000e+00 
          0.0000000000e+00 1.3076923000e+01 0.0000000000e+00 
          0.0000000000e+00 1.3846154000e+01 0.0000000000e+00 
          0.0000000000e+00 1.4615385000e+01 0.0000000000e+00 
          0.0000000000e+00 1.5384615000e+01 0.0000000000e+00 
          0.0000000000e+00 1.6153846000e+01 0.0000000000e+00 
          0.0000000000e+00 1.6923077000e+01 0.0000000000e+00 
          0.0000000000e+00 1.7692308000e+01 0.0000000000e+00 
          0.0000000000e+00 1.8461538000e+01 0.0000000000e+00 
          0.0000000000e+00 1.9230769000e+01 0.0000000000e+00 
          0.0000000000e+00 2.0000000000e+01 0.0000000000e+00 
          0.0000000000e+00 2.0769231000e+01 0.0000000000e+00 
          0.0000000000e+00 2.1538462000e+01 0.0000000000e+00 
          0.0000000000e+00 2.2307692000e+01 0.0000000000e+00 
          0.0000000000e+00 2.3076923000e+01 0.0000000000e+00 
          0.0000000000e+00 2.3846154000e+01 0.0000000000e+00 
          0.0000000000e+00 2.4615385000e+01 0.0000000000e+00 
          0.0000000000e+00 2.5384615000e+01 0.0000000000e+00 
          0.0000000000e+00 2.6153846000e+01 0.0000000000e+00 
          0.0000000000e+00 2.6923077000e+01 0.0000000000e+00 
          0.0000000000e+00 2.7692308000e+01 0.0000000000e+00 
          0.0000000000e+00 2.8461538000e+01 0.0000000000e+00 
          0.0000000000e+00 2.9230769000e+01 0.0000000000e+00 
        </DataArray>
      </Points>
      <Cells>
        <DataArray type="Int64" Name="connectivity" format="ascii">
          0
          1
          2
          3
          4
          5
          6
          7
          8
          9
          10
          11
          12
          13
          14
          15
          16
          17
          18
          19
          20
          21
          22
          23
          24
          25
          26
          27
          28
          29
          30
          31
          32
          33
          34
          35
          36
          37
          38
          39
          40
          41
          42
          43
          44
          45
          46
          47
          48
          49
          50
          51
          52
          53
          54
          55
          56
          57
          58
          59
          60
          61
          62
          63
          64
          65
          66
          67
          68
          69
          70
          71
          72
          73
          74
          75
          76
          77
          78
          79
          80
          81
        </DataArray>
        <DataArray type="Int64" Name="offsets" format="ascii">
          82
        </DataArray>
        <DataArray type="Int64" Name="types" format="ascii">
          2
        </DataArray>
      </Cells>
      <PointData>
        <DataArray type="Int64" Name="NodeTag" format="ascii">
          1
          2
          3
          4
          5
          6
          7
          8
          9
          10
          11
          12
          13
          14
          15
          16
          17
          18
          19
          20
          21
          22
          23
          24
          25
          26
          27
          28
          29
          30
          31
          32
          33
          34
          35
          36
          37
          38
          39
          40
          41
          42
          43
          44
          45
          46
          47
          48
          49
          50
          51
          52
          53
          54
          55
          56
          57
          58
          59
          60
          61
          62
          63
          64
          65
          66
          67
          68
          69
          70
          71
          72
          73
          74
          75
          76
          77
          78
          79
          80
          81
          82
        </DataArray>
        <DataArray type="Float64" Name="Velocity" NumberOfComponents="3" format="ascii">
          -3.0397352077e-02 -7.7938135799e-05 0.0000000000e+00 
          -3.0397352077e-02 -7.7938135799e-05 0.0000000000e+00 
          -1.5845766758e-01 -7.3709664180e-05 0.0000000000e+00 
          -1.5845766758e-01 -7.3709664180e-05 0.0000000000e+00 
          0.0000000000e+00 0.0000000000e+00 0.0000000000e+00 
          0.0000000000e+00 0.0000000000e+00 0.0000000000e+00 
          -3.6068337681e-02 -7.7954236706e-05 0.0000000000e+00 
          -4.1670427763e-02 -7.7640291322e-05 0.0000000000e+00 
          -4.7197901349e-02 -7.7815796611e-05 0.0000000000e+00 
          -5.2645225206e-02 -7.7478368096e-05 0.0000000000e+00 
          -5.8006954697e-02 -7.7308047874e-05 0.0000000000e+00 
          -6.3277691802e-02 -7.7436049340e-05 0.0000000000e+00 
          -6.8452264004e-02 -7.7014349408e-05 0.0000000000e+00 
          -7.3525601757e-02 -7.6967807343e-05 0.0000000000e+00 
          -7.8492724599e-02 -7.6872060894e-05 0.0000000000e+00 
          -8.3348821297e-02 -7.6707662286e-05 0.0000000000e+00 
          -8.8089047581e-02 -7.6447794483e-05 0.0000000000e+00 
          -9.2708852234e-02 -7.6420446214e-05 0.0000000000e+00 
          -9.7203765414e-02 -7.6424018403e-05 0.0000000000e+00 
          -1.0156931665e-01 -7.6325838430e-05 0.0000000000e+00 
          -1.0580127086e-01 -7.6254178390e-05 0.0000000000e+00 
          -1.0989541489e-01 -7.6074371475e-05 0.0000000000e+00 
          -1.1384773865e-01 -7.5961318532e-05 0.0000000000e+00 
          -1.1765433049e-01 -7.5861618401e-05 0.0000000000e+00 
          -1.2131132737e-01 -7.5812617513e-05 0.0000000000e+00 
          -1.2481507965e-01 -7.5711533553e-05 0.0000000000e+00 
          -1.2816201678e-01 -7.5551046432e-05 0.0000000000e+00 
          -1.3134876107e-01 -7.5404967609e-05 0.0000000000e+00 
          -1.3437201887e-01 -7.5243769731e-05 0.0000000000e+00 
          -1.3722861407e-01 -7.5184051209e-05 0.0000000000e+00 
          -1.3991561563e-01 -7.5038306476e-05 0.0000000000e+00 
          -1.4243017208e-01 -7.4871791295e-05 0.0000000000e+00 
          -1.4476960181e-01 -7.4695244074e-05 0.0000000000e+00 
          -1.4693141821e-01 -7.4615232161e-05 0.0000000000e+00 
          -1.4891328712e-01 -7.4478422766e-05 0.0000000000e+00 
          -1.5071306930e-01 -7.4256529052e-05 0.0000000000e+00 
          -1.5232879665e-01 -7.4355958154e-05 0.0000000000e+00 
          -1.5375868468e-01 -7.4011649543e-05 0.0000000000e+00 
          -1.5500115151e-01 -7.3837130155e-05 0.0000000000e+00 
          -1.5605483711e-01 -7.3905242229e-05 0.0000000000e+00 
          -1.5691855534e-01 -7.3904507151e-05 0.0000000000e+00 
          -1.5759135506e-01 -7.3674237520e-05 0.0000000000e+00 
          -1.5807247024e-01 -7.3669996544e-05 0.0000000000e+00 
          -1.5836134030e-01 -7.3814251373e-05 0.0000000000e+00 
          -3.6068337681e-02 -7.7954236706e-05 0.0000000000e+00 
          -4.1670427763e-02 -7.7640291322e-05 0.0000000000e+00 
          -4.7197901349e-02 -7.7815796611e-05 0.0000000000e+00 
          -5.2645225206e-02 -7.7478368096e-05 0.0000000000e+00 
          -5.8006954697e-02 -7.7308047874e-05 0.0000000000e+00 
          -6.3277691802e-02 -7.7436049340e-05 0.0000000000e+00 
          -6.8452264004e-02 -7.7014349408e-05 0.0000000000e+00 
          -7.3525601757e-02 -7.6967807343e-05 0.0000000000e+00 
          -7.8492724599e-02 -7.6872060894e-05 0.0000000000e+00 
          -8.3348821297e-02 -7.6707662286e-05 0.0000000000e+00 
          -8.8089047581e-02 -7.6447794483e-05 0.0000000000e+00 
          -9.2708852234e-02 -7.6420446214e-05 0.0000000000e+00 
          -9.7203765414e-02 -7.6424018403e-05 0.0000000000e+00 
          -1.0156931665e-01 -7.6325838430e-05 0.0000000000e+00 
          -1.0580127086e-01 -7.6254178390e-05 0.0000000000e+00 
          -1.0989541489e-01 -7.6074371475e-05 0.0000000000e+00 
          -1.1384773865e-01 -7.5961318532e-05 0.0000000000e+00 
          -1.1765433049e-01 -7.5861618401e-05 0.0000000000e+00 
          -1.2131132737e-01 -7.5812617513e-05 0.0000000000e+00 
          -1.2481507965e-01 -7.5711533553e-05 0.0000000000e+00 
          -1.2816201678e-01 -7.5551046432e-05 0.0000000000e+00 
          -1.3134876107e-01 -7.5404967609e-05 0.0000000000e+00 
          -1.3437201887e-01 -7.5243769731e-05 0.0000000000e+00 
          -1.3722861407e-01 -7.5184051209e-05 0.0000000000e+00 
          -1.3991561563e-01 -7.5038306476e-05 0.0000000000e+00 
          -1.4243017208e-01 -7.4871791295e-05 0.0000000000e+00 
          -1.4476960181e-01 -7.4695244074e-05 0.0000000000e+00 
          -1.4693141821e-01 -7.4615232161e-05 0.0000000000e+00 
          -1.4891328712e-01 -7.4478422766e-05 0.0000000000e+00 
          -1.5071306930e-01 -7.4256529052e-05 0.0000000000e+00 
          -1.5232879665e-01 -7.4355958154e-05 0.0000000000e+00 
          -1.5375868468e-01 -7.4011649543e-05 0.0000000000e+00 
          -1.5500115151e-01 -7.3837130155e-05 0.0000000000e+00 
          -1.5605483711e-01 -7.3905242229e-05 0.0000000000e+00 
          -1.5691855534e-01 -7.3904507151e-05 0.0000000000e+00 
          -1.5759135506e-01 -7.3674237520e-05 0.0000000000e+00 
          -1.5807247024e-01 -7.3669996544e-05 0.0000000000e+00 
          -1.5836134030e-01 -7.3814251373e-05 0.0000000000e+00 
        </DataArray>
        <DataArray type="Float64" Name="Displacement" NumberOfComponents="3" format="ascii">
          2.9558860619e-03 -2.2084153034e-04 0.0000000000e+00 
          2.9558860619e-03 -2.2084153034e-04 0.0000000000e+00 
          -1.0371815542e-02 -2.4444673123e-04 0.0000000000e+00 
          -1.0371815542e-02 -2.4444673123e-04 0.0000000000e+00 
          0.0000000000e+00 0.0000000000e+00 0.0000000000e+00 
          0.0000000000e+00 0.0000000000e+00 0.0000000000e+00 
          2.4491810198e-03 -2.2203673188e-04 0.0000000000e+00 
          1.9397140607e-03 -2.2320087660e-04 0.0000000000e+00 
          1.4285367480e-03 -2.2433348530e-04 0.0000000000e+00 
          9.1669825306e-04 -2.2543544258e-04 0.0000000000e+00 
          4.0524722707e-04 -2.2650647444e-04 0.0000000000e+00 
          -1.0477296615e-04 -2.2754622263e-04 0.0000000000e+00 
          -6.1232504778e-04 -2.2855467800e-04 0.0000000000e+00 
          -1.1163825457e-03 -2.2953262695e-04 0.0000000000e+00 
          -1.6159278085e-03 -2.3047948538e-04 0.0000000000e+00 
          -2.1099567258e-03 -2.3139497836e-04 0.0000000000e+00 
          -2.5974792923e-03 -2.3227976364e-04 0.0000000000e+00 
          -3.0775239302e-03 -2.3313318537e-04 0.0000000000e+00 
          -3.5491357060e-03 -2.3395565651e-04 0.0000000000e+00 
          -4.0113805188e-03 -2.3474708475e-04 0.0000000000e+00 
          -4.4633461741e-03 -2.3550771082e-04 0.0000000000e+00 
          -4.9041433619e-03 -2.3623717671e-04 0.0000000000e+00 
          -5.3329095689e-03 -2.3693558155e-04 0.0000000000e+00 
          -5.7488071712e-03 -2.3760279569e-04 0.0000000000e+00 
          -6.1510270531e-03 -2.3823884324e-04 0.0000000000e+00 
          -6.5387889273e-03 -2.3884372101e-04 0.0000000000e+00 
          -6.9113445697e-03 -2.3941750184e-04 0.0000000000e+00 
          -7.2679760976e-03 -2.3996028698e-04 0.0000000000e+00 
          -7.6079989631e-03 -2.4047205290e-04 0.0000000000e+00 
          -7.9307619847e-03 -2.4095293573e-04 0.0000000000e+00 
          -8.2356502858e-03 -2.4140283103e-04 0.0000000000e+00 
          -8.5220833690e-03 -2.4182187560e-04 0.0000000000e+00 
          -8.7895178765e-03 -2.4220975645e-04 0.0000000000e+00 
          -9.0374478523e-03 -2.4256695810e-04 0.0000000000e+00 
          -9.2654048976e-03 -2.4289294334e-04 0.0000000000e+00 
          -9.4729604217e-03 -2.4318786442e-04 0.0000000000e+00 
          -9.6597240798e-03 -2.4345183503e-04 0.0000000000e+00 
          -9.8253455023e-03 -2.4368517545e-04 0.0000000000e+00 
          -9.9695144117e-03 -2.4388699902e-04 0.0000000000e+00 
          -1.0091961696e-02 -2.4405756565e-04 0.0000000000e+00 
          -1.0192458564e-02 -2.4419784422e-04 0.0000000000e+00 
          -1.0270817576e-02 -2.4430641364e-04 0.0000000000e+00 
          -1.0326892665e-02 -2.4438434580e-04 0.0000000000e+00 
          -1.0360579583e-02 -2.4443138198e-04 0.0000000000e+00 
          2.4491810198e-03 -2.2203673188e-04 0.0000000000e+00 
          1.9397140607e-03 -2.2320087660e-04 0.0000000000e+00 
          1.4285367480e-03 -2.2433348530e-04 0.0000000000e+00 
          9.1669825306e-04 -2.2543544258e-04 0.0000000000e+00 
          4.0524722707e-04 -2.2650647444e-04 0.0000000000e+00 
          -1.0477296615e-04 -2.2754622263e-04 0.0000000000e+00 
          -6.1232504778e-04 -2.2855467800e-04 0.0000000000e+00 
          -1.1163825457e-03 -2.2953262695e-04 0.0000000000e+00 
          -1.6159278085e-03 -2.3047948538e-04 0.0000000000e+00 
          -2.1099567258e-03 -2.3139497836e-04 0.0000000000e+00 
          -2.5974792923e-03 -2.3227976364e-04 0.0000000000e+00 
          -3.0775239302e-03 -2.3313318537e-04 0.0000000000e+00 
          -3.5491357060e-03 -2.3395565651e-04 0.0000000000e+00 
          -4.0113805188e-03 -2.3474708475e-04 0.0000000000e+00 
          -4.4633461741e-03 -2.3550771082e-04 0.0000000000e+00 
          -4.9041433619e-03 -2.3623717671e-04 0.0000000000e+00 
          -5.3329095689e-03 -2.3693558155e-04 0.0000000000e+00 
          -5.7488071712e-03 -2.3760279569e-04 0.0000000000e+00 
          -6.1510270531e-03 -2.3823884324e-04 0.0000000000e+00 
          -6.5387889273e-03 -2.3884372101e-04 0.0000000000e+00 
          -6.9113445697e-03 -2.3941750184e-04 0.0000000000e+00 
          -7.2679760976e-03 -2.3996028698e-04 0.0000000000e+00 
          -7.6079989631e-03 -2.4047205290e-04 0.0000000000e+00 
          -7.9307619847e-03 -2.4095293573e-04 0.0000000000e+00 
          -8.2356502858e-03 -2.4140283103e-04 0.0000000000e+00 
          -8.5220833690e-03 -2.4182187560e-04 0.0000000000e+00 
          -8.7895178765e-03 -2.4220975645e-04 0.0000000000e+00 
          -9.0374478523e-03 -2.4256695810e-04 0.0000000000e+00 
          -9.2654048976e-03 -2.4289294334e-04 0.0000000000e+00 
          -9.4729604217e-03 -2.4318786442e-04 0.0000000000e+00 
          -9.6597240798e-03 -2.4345183503e-04 0.0000000000e+00 
          -9.8253455023e-03 -2.4368517545e-04 0.0000000000e+00 
          -9.9695144117e-03 -2.4388699902e-04 0.0000000000e+00 
          -1.0091961696e-02 -2.4405756565e-04 0.0000000000e+00 
          -1.0192458564e-02 -2.4419784422e-04 0.0000000000e+00 
          -1.0270817576e-02 -2.4430641364e-04 0.0000000000e+00 
          -1.0326892665e-02 -2.4438434580e-04 0.0000000000e+00 
          -1.0360579583e-02 -2.4443138198e-04 0.0000000000e+00 
        </DataArray>
        <DataArray type="Float64" Name="Acceleration" NumberOfComponents="3" format="ascii">
          -3.4338654645e-01 -1.0369302629e-06 0.0000000000e+00 
          -3.4338654645e-01 -1.0369302629e-06 0.0000000000e+00 
          2.0247641139e+00 -5.5473198627e-05 0.0000000000e+00 
          2.0247641139e+00 -5.5473198627e-05 0.0000000000e+00 
          0.0000000000e+00 0.0000000000e+00 0.0000000000e+00 
          0.0000000000e+00 0.0000000000e+00 0.0000000000e+00 
          -2.4885416977e-01 9.0996484471e-06 0.0000000000e+00 
          -1.5416621713e-01 9.5187273370e-05 0.0000000000e+00 
          -5.9513988777e-02 -6.3689004346e-05 0.0000000000e+00 
          3.4911718871e-02 -1.4580632795e-05 0.0000000000e+00 
          1.2892085864e-01 4.9978070017e-05 0.0000000000e+00 
          2.2232242185e-01 5.1389905811e-05 0.0000000000e+00 
          3.1492854648e-01 -8.9845424786e-05 0.0000000000e+00 
          4.0656130155e-01 1.5170326165e-05 0.0000000000e+00 
          4.9703361749e-01 6.4713282949e-05 0.0000000000e+00 
          5.8617833846e-01 -5.4020013353e-05 0.0000000000e+00 
          6.7383366706e-01 6.4582058894e-05 0.0000000000e+00 
          7.5981753546e-01 -1.0045146593e-05 0.0000000000e+00 
          8.4398186788e-01 6.5892692458e-06 0.0000000000e+00 
          9.2617238403e-01 -3.6792547902e-05 0.0000000000e+00 
          1.0062500022e+00 2.7555765041e-05 0.0000000000e+00 
          1.0840674682e+00 1.0035352922e-05 0.0000000000e+00 
          1.1594866989e+00 3.3220564080e-05 0.0000000000e+00 
          1.2323896136e+00 2.8880213939e-05 0.0000000000e+00 
          1.3026504702e+00 2.9314255807e-05 0.0000000000e+00 
          1.3701578341e+00 1.6472657503e-05 0.0000000000e+00 
          1.4347941551e+00 -1.9179146429e-06 0.0000000000e+00 
          1.4964732912e+00 2.3212624213e-06 0.0000000000e+00 
          1.5551092208e+00 -2.2319776860e-05 0.0000000000e+00 
          1.6105864710e+00 -3.2727202069e-06 0.0000000000e+00 
          1.6628515697e+00 -2.8040782982e-05 0.0000000000e+00 
          1.7118092039e+00 2.8361857203e-05 0.0000000000e+00 
          1.7573968118e+00 -5.8951903803e-05 0.0000000000e+00 
          1.7995749598e+00 3.7783867233e-05 0.0000000000e+00 
          1.8382452393e+00 1.0499179337e-05 0.0000000000e+00 
          1.8733881909e+00 -1.0066169362e-05 0.0000000000e+00 
          1.9049571788e+00 -6.7785497115e-05 0.0000000000e+00 
          1.9328981703e+00 9.1954220204e-05 0.0000000000e+00 
          1.9571794391e+00 4.5211450468e-05 0.0000000000e+00 
          1.9777759221e+00 -1.2943693581e-04 0.0000000000e+00 
          1.9946645464e+00 1.2664939581e-04 0.0000000000e+00 
          2.0078201121e+00 -6.6523592080e-05 0.0000000000e+00 
          2.0172263522e+00 -1.9865726065e-05 0.0000000000e+00 
          2.0228757890e+00 1.2264606847e-04 0.0000000000e+00 
          -2.4885416977e-01 9.0996484471e-06 0.0000000000e+00 
          -1.5416621713e-01 9.5187273370e-05 0.0000000000e+00 
          -5.9513988777e-02 -6.3689004346e-05 0.0000000000e+00 
          3.4911718871e-02 -1.4580632795e-05 0.0000000000e+00 
          1.2892085864e-01 4.9978070017e-05 0.0000000000e+00 
          2.2232242185e-01 5.1389905811e-05 0.0000000000e+00 
          3.1492854648e-01 -8.9845424786e-05 0.0000000000e+00 
          4.0656130155e-01 1.5170326165e-05 0.0000000000e+00 
          4.9703361749e-01 6.4713282949e-05 0.0000000000e+00 
          5.8617833846e-01 -5.4020013353e-05 0.0000000000e+00 
          6.7383366706e-01 6.4582058894e-05 0.0000000000e+00 
          7.5981753546e-01 -1.0045146593e-05 0.0000000000e+00 
          8.4398186788e-01 6.5892692458e-06 0.0000000000e+00 
          9.2617238403e-01 -3.6792547902e-05 0.0000000000e+00 
          1.0062500022e+00 2.7555765041e-05 0.0000000000e+00 
          1.0840674682e+00 1.0035352922e-05 0.0000000000e+00 
          1.1594866989e+00 3.3220564080e-05 0.0000000000e+00 
          1.2323896136e+00 2.8880213939e-05 0.0000000000e+00 
          1.3026504702e+00 2.9314255807e-05 0.0000000000e+00 
          1.3701578341e+00 1.6472657503e-05 0.0000000000e+00 
          1.4347941551e+00 -1.9179146429e-06 0.0000000000e+00 
          1.4964732912e+00 2.3212624213e-06 0.0000000000e+00 
          1.5551092208e+00 -2.2319776860e-05 0.0000000000e+00 
          1.6105864710e+00 -3.2727202069e-06 0.0000000000e+00 
          1.6628515697e+00 -2.8040782982e-05 0.0000000000e+00 
          1.7118092039e+00 2.8361857203e-05 0.0000000000e+00 
          1.7573968118e+00 -5.8951903803e-05 0.0000000000e+00 
          1.7995749598e+00 3.7783867233e-05 0.0000000000e+00 
          1.8382452393e+00 1.0499179337e-05 0.0000000000e+00 
          1.8733881909e+00 -1.0066169362e-05 0.0000000000e+00 
          1.9049571788e+00 -6.7785497115e-05 0.0000000000e+00 
          1.9328981703e+00 9.1954220204e-05 0.0000000000e+00 
          1.9571794391e+00 4.5211450468e-05 0.0000000000e+00 
          1.9777759221e+00 -1.2943693581e-04 0.0000000000e+00 
          1.9946645464e+00 1.2664939581e-04 0.0000000000e+00 
          2.0078201121e+00 -6.6523592080e-05 0.0000000000e+00 
          2.0172263522e+00 -1.9865726065e-05 0.0000000000e+00 
          2.0228757890e+00 1.2264606847e-04 0.0000000000e+00 
        </DataArray>
        <DataArray type="Float64" Name="Reaction" NumberOfComponents="3" format="ascii">
          0.0000000000e+00 0.0000000000e+00 0.0000000000e+00 
          0.0000000000e+00 0.0000000000e+00 0.0000000000e+00 
          0.0000000000e+00 0.0000000000e+00 0.0000000000e+00 
          0.0000000000e+00 0.0000000000e+00 0.0000000000e+00 
          0.0000000000e+00 0.0000000000e+00 0.0000000000e+00 
          0.0000000000e+00 0.0000000000e+00 0.0000000000e+00 
          0.0000000000e+00 0.0000000000e+00 0.0000000000e+00 
          0.0000000000e+00 0.0000000000e+00 0.0000000000e+00 
          0.0000000000e+00 0.0000000000e+00 0.0000000000e+00 
          0.0000000000e+00 0.0000000000e+00 0.0000000000e+00 
          0.0000000000e+00 0.0000000000e+00 0.0000000000e+00 
          0.0000000000e+00 0.0000000000e+00 0.0000000000e+00 
          0.0000000000e+00 0.0000000000e+00 0.0000000000e+00 
          0.0000000000e+00 0.0000000000e+00 0.0000000000e+00 
          0.0000000000e+00 0.0000000000e+00 0.0000000000e+00 
          0.0000000000e+00 0.0000000000e+00 0.0000000000e+00 
          0.0000000000e+00 0.0000000000e+00 0.0000000000e+00 
          0.0000000000e+00 0.0000000000e+00 0.0000000000e+00 
          0.0000000000e+00 0.0000000000e+00 0.0000000000e+00 
          0.0000000000e+00 0.0000000000e+00 0.0000000000e+00 
          0.0000000000e+00 0.0000000000e+00 0.0000000000e+00 
          0.0000000000e+00 0.0000000000e+00 0.0000000000e+00 
          0.0000000000e+00 0.0000000000e+00 0.0000000000e+00 
          0.0000000000e+00 0.0000000000e+00 0.0000000000e+00 
          0.0000000000e+00 0.0000000000e+00 0.0000000000e+00 
          0.0000000000e+00 0.0000000000e+00 0.0000000000e+00 
          0.0000000000e+00 0.0000000000e+00 0.0000000000e+00 
          0.0000000000e+00 0.0000000000e+00 0.0000000000e+00 
          0.0000000000e+00 0.0000000000e+00 0.0000000000e+00 
          0.0000000000e+00 0.0000000000e+00 0.0000000000e+00 
          0.0000000000e+00 0.0000000000e+00 0.0000000000e+00 
          0.0000000000e+00 0.0000000000e+00 0.0000000000e+00 
          0.0000000000e+00 0.0000000000e+00 0.0000000000e+00 
          0.0000000000e+00 0.0000000000e+00 0.0000000000e+00 
          0.0000000000e+00 0.0000000000e+00 0.0000000000e+00 
          0.0000000000e+00 0.0000000000e+00 0.0000000000e+00 
          0.0000000000e+00 0.0000000000e+00 0.0000000000e+00 
          0.0000000000e+00 0.0000000000e+00 0.0000000000e+00 
          0.0000000000e+00 0.0000000000e+00 0.0000000000e+00 
          0.0000000000e+00 0.0000000000e+00 0.0000000000e+00 
          0.0000000000e+00 0.0000000000e+00 0.0000000000e+00 
          0.0000000000e+00 0.0000000000e+00 0.0000000000e+00 
          0.0000000000e+00 0.0000000000e+00 0.0000000000e+00 
          0.0000000000e+00 0.0000000000e+00 0.0000000000e+00 
          0.0000000000e+00 0.0000000000e+00 0.0000000000e+00 
          0.0000000000e+00 0.0000000000e+00 0.0000000000e+00 
          0.0000000000e+00 0.0000000000e+00 0.0000000000e+00 
          0.0000000000e+00 0.0000000000e+00 0.0000000000e+00 
          0.0000000000e+00 0.0000000000e+00 0.0000000000e+00 
          0.0000000000e+00 0.0000000000e+00 0.0000000000e+00 
          0.0000000000e+00 0.0000000000e+00 0.0000000000e+00 
          0.0000000000e+00 0.0000000000e+00 0.0000000000e+00 
          0.0000000000e+00 0.0000000000e+00 0.0000000000e+00 
          0.0000000000e+00 0.0000000000e+00 0.0000000000e+00 
          0.0000000000e+00 0.0000000000e+00 0.0000000000e+00 
          0.0000000000e+00 0.0000000000e+00 0.0000000000e+00 
          0.0000000000e+00 0.0000000000e+00 0.0000000000e+00 
          0.0000000000e+00 0.0000000000e+00 0.0000000000e+00 
          0.0000000000e+00 0.0000000000e+00 0.0000000000e+00 
          0.0000000000e+00 0.0000000000e+00 0.0000000000e+00 
          0.0000000000e+00 0.0000000000e+00 0.0000000000e+00 
          0.0000000000e+00 0.0000000000e+00 0.0000000000e+00 
          0.0000000000e+00 0.0000000000e+00 0.0000000000e+00 
          0.0000000000e+00 0.0000000000e+00 0.0000000000e+00 
          0.0000000000e+00 0.0000000000e+00 0.0000000000e+00 
          0.0000000000e+00 0.0000000000e+00 0.0000000000e+00 
          0.0000000000e+00 0.0000000000e+00 0.0000000000e+00 
          0.0000000000e+00 0.0000000000e+00 0.0000000000e+00 
          0.0000000000e+00 0.0000000000e+00 0.0000000000e+00 
          0.0000000000e+00 0.0000000000e+00 0.0000000000e+00 
          0.0000000000e+00 0.0000000000e+00 0.0000000000e+00 
          0.0000000000e+00 0.0000000000e+00 0.0000000000e+00 
          0.0000000000e+00 0.0000000000e+00 0.0000000000e+00 
          0.0000000000e+00 0.0000000000e+00 0.0000000000e+00 
          0.0000000000e+00 0.0000000000e+00 0.0000000000e+00 
          0.0000000000e+00 0.0000000000e+00 0.0000000000e+00 
          0.0000000000e+00 0.0000000000e+00 0.0000000000e+00 
          0.0000000000e+00 0.0000000000e+00 0.0000000000e+00 
          0.0000000000e+00 0.0000000000e+00 0.0000000000e+00 
          0.0000000000e+00 0.0000000000e+00 0.0000000000e+00 
          0.0000000000e+00 0.0000000000e+00 0.0000000000e+00 
          0.0000000000e+00 0.0000000000e+00 0.0000000000e+00 
        </DataArray>
      </PointData>
      <CellData>
        <DataArray type="Int64" Name="ElementTag" format="ascii">
          0
        </DataArray>
      </CellData>
    </Piece>
  </UnstructuredGrid>
</VTKFile>
