<?xml version="1.0"?>
<VTKFile type="UnstructuredGrid" version="1.0" byte_order="LittleEndian" compressor="vtkZLibDataCompressor">
  <UnstructuredGrid>
    <Piece NumberOfPoints="82" NumberOfCells="1">
      <Points>
        <DataArray type="Float64" Name="Points" NumberOfComponents="3" format="ascii">
          0.0000000000e+00 0.0000000000e+00 0.0000000000e+00 
          2.5000000000e-01 0.0000000000e+00 0.0000000000e+00 
          2.5000000000e-01 3.0000000000e+01 0.0000000000e+00 
          0.0000000000e+00 3.0000000000e+01 0.0000000000e+00 
          0.0000000000e+00 -5.0000000000e+00 0.0000000000e+00 
          2.5000000000e-01 -5.0000000000e+00 0.0000000000e+00 
          2.5000000000e-01 7.6923100000e-01 0.0000000000e+00 
          2.5000000000e-01 1.5384620000e+00 0.0000000000e+00 
          2.5000000000e-01 2.3076920000e+00 0.0000000000e+00 
          2.5000000000e-01 3.0769230000e+00 0.0000000000e+00 
          2.5000000000e-01 3.8461540000e+00 0.0000000000e+00 
          2.5000000000e-01 4.6153850000e+00 0.0000000000e+00 
          2.5000000000e-01 5.3846150000e+00 0.0000000000e+00 
          2.5000000000e-01 6.1538460000e+00 0.0000000000e+00 
          2.5000000000e-01 6.9230770000e+00 0.0000000000e+00 
          2.5000000000e-01 7.6923080000e+00 0.0000000000e+00 
          2.5000000000e-01 8.4615380000e+00 0.0000000000e+00 
          2.5000000000e-01 9.2307690000e+00 0.0000000000e+00 
          2.5000000000e-01 1.0000000000e+01 0.0000000000e+00 
          2.5000000000e-01 1.0769231000e+01 0.0000000000e+00 
          2.5000000000e-01 1.1538462000e+01 0.0000000000e+00 
          2.5000000000e-01 1.2307692000e+01 0.0000000000e+00 
          2.5000000000e-01 1.3076923000e+01 0.0000000000e+00 
          2.5000000000e-01 1.3846154000e+01 0.0000000000e+00 
          2.5000000000e-01 1.4615385000e+01 0.0000000000e+00 
          2.5000000000e-01 1.5384615000e+01 0.0000000000e+00 
          2.5000000000e-01 1.6153846000e+01 0.0000000000e+00 
          2.5000000000e-01 1.6923077000e+01 0.0000000000e+00 
          2.5000000000e-01 1.7692308000e+01 0.0000000000e+00 
          2.5000000000e-01 1.8461538000e+01 0.0000000000e+00 
          2.5000000000e-01 1.9230769000e+01 0.0000000000e+00 
          2.5000000000e-01 2.0000000000e+01 0.0000000000e+00 
          2.5000000000e-01 2.0769231000e+01 0.0000000000e+00 
          2.5000000000e-01 2.1538462000e+01 0.0000000000e+00 
          2.5000000000e-01 2.2307692000e+01 0.0000000000e+00 
          2.5000000000e-01 2.3076923000e+01 0.0000000000e+00 
          2.5000000000e-01 2.3846154000e+01 0.0000000000e+00 
          2.5000000000e-01 2.4615385000e+01 0.0000000000e+00 
          2.5000000000e-01 2.5384615000e+01 0.0000000000e+00 
          2.5000000000e-01 2.6153846000e+01 0.0000000000e+00 
          2.5000000000e-01 2.6923077000e+01 0.0000000000e+00 
          2.5000000000e-01 2.7692308000e+01 0.0000000000e+00 
          2.5000000000e-01 2.8461538000e+01 0.0000000000e+00 
          2.5000000000e-01 2.9230769000e+01 0.0000000000e+00 
          0.0000000000e+00 7.6923100000e-01 0.0000000000e+00 
          0.0000000000e+00 1.5384620000e+00 0.0000000000e+00 
          0.0000000000e+00 2.3076920000e+00 0.0000000000e+00 
          0.0000000000e+00 3.0769230000e+00 0.0000000000e+00 
          0.0000000000e+00 3.8461540000e+00 0.0000000000e+00 
          0.0000000000e+00 4.6153850000e+00 0.0000000000e+00 
          0.0000000000e+00 5.3846150000e+00 0.0000000000e+00 
          0.0000000000e+00 6.1538460000e+00 0.0000000000e+00 
          0.0000000000e+00 6.9230770000e+00 0.0000000000e+00 
          0.0000000000e+00 7.6923080000e+00 0.0000000000e+00 
          0.0000000000e+00 8.4615380000e+00 0.0000000000e+00 
          0.0000000000e+00 9.2307690000e+00 0.0000000000e+00 
          0.0000000000e+00 1.0000000000e+01 0.0000000000e+00 
          0.0000000000e+00 1.0769231000e+01 0.0000000000e+00 
          0.0000000000e+00 1.1538462000e+01 0.0000000000e+00 
          0.0000000000e+00 1.2307692000e+01 0.0000000000e+00 
          0.0000000000e+00 1.3076923000e+01 0.0000000000e+00 
          0.0000000000e+00 1.3846154000e+01 0.0000000000e+00 
          0.0000000000e+00 1.4615385000e+01 0.0000000000e+00 
          0.0000000000e+00 1.5384615000e+01 0.0000000000e+00 
          0.0000000000e+00 1.6153846000e+01 0.0000000000e+00 
          0.0000000000e+00 1.6923077000e+01 0.0000000000e+00 
          0.0000000000e+00 1.7692308000e+01 0.0000000000e+00 
          0.0000000000e+00 1.8461538000e+01 0.0000000000e+00 
          0.0000000000e+00 1.9230769000e+01 0.0000000000e+00 
          0.0000000000e+00 2.0000000000e+01 0.0000000000e+00 
          0.0000000000e+00 2.0769231000e+01 0.0000000000e+00 
          0.0000000000e+00 2.1538462000e+01 0.0000000000e+00 
          0.0000000000e+00 2.2307692000e+01 0.0000000000e+00 
          0.0000000000e+00 2.3076923000e+01 0.0000000000e+00 
          0.0000000000e+00 2.3846154000e+01 0.0000000000e+00 
          0.0000000000e+00 2.4615385000e+01 0.0000000000e+00 
          0.0000000000e+00 2.5384615000e+01 0.0000000000e+00 
          0.0000000000e+00 2.6153846000e+01 0.0000000000e+00 
          0.0000000000e+00 2.6923077000e+01 0.0000000000e+00 
          0.0000000000e+00 2.7692308000e+01 0.0000000000e+00 
          0.0000000000e+00 2.8461538000e+01 0.0000000000e+00 
          0.0000000000e+00 2.9230769000e+01 0.0000000000e+00 
        </DataArray>
      </Points>
      <Cells>
        <DataArray type="Int64" Name="connectivity" format="ascii">
          0
          1
          2
          3
          4
          5
          6
          7
          8
          9
          10
          11
          12
          13
          14
          15
          16
          17
          18
          19
          20
          21
          22
          23
          24
          25
          26
          27
          28
          29
          30
          31
          32
          33
          34
          35
          36
          37
          38
          39
          40
          41
          42
          43
          44
          45
          46
          47
          48
          49
          50
          51
          52
          53
          54
          55
          56
          57
          58
          59
          60
          61
          62
          63
          64
          65
          66
          67
          68
          69
          70
          71
          72
          73
          74
          75
          76
          77
          78
          79
          80
          81
        </DataArray>
        <DataArray type="Int64" Name="offsets" format="ascii">
          82
        </DataArray>
        <DataArray type="Int64" Name="types" format="ascii">
          2
        </DataArray>
      </Cells>
      <PointData>
        <DataArray type="Int64" Name="NodeTag" format="ascii">
          1
          2
          3
          4
          5
          6
          7
          8
          9
          10
          11
          12
          13
          14
          15
          16
          17
          18
          19
          20
          21
          22
          23
          24
          25
          26
          27
          28
          29
          30
          31
          32
          33
          34
          35
          36
          37
          38
          39
          40
          41
          42
          43
          44
          45
          46
          47
          48
          49
          50
          51
          52
          53
          54
          55
          56
          57
          58
          59
          60
          61
          62
          63
          64
          65
          66
          67
          68
          69
          70
          71
          72
          73
          74
          75
          76
          77
          78
          79
          80
          81
          82
        </DataArray>
        <DataArray type="Float64" Name="Velocity" NumberOfComponents="3" format="ascii">
          -1.0130429446e-05 -7.7844554183e-05 0.0000000000e+00 
          -1.0130429446e-05 -7.7844554183e-05 0.0000000000e+00 
          2.2287900269e-05 -7.7843406465e-05 0.0000000000e+00 
          2.2287900269e-05 -7.7843406465e-05 0.0000000000e+00 
          0.0000000000e+00 0.0000000000e+00 0.0000000000e+00 
          0.0000000000e+00 0.0000000000e+00 0.0000000000e+00 
          -8.9583716236e-06 -7.7843208033e-05 0.0000000000e+00 
          -7.7666918402e-06 -7.7845464582e-05 0.0000000000e+00 
          -6.5791422975e-06 -7.7844274478e-05 0.0000000000e+00 
          -5.3716753151e-06 -7.7845535517e-05 0.0000000000e+00 
          -4.1695073621e-06 -7.7841604620e-05 0.0000000000e+00 
          -2.9645922918e-06 -7.7845465590e-05 0.0000000000e+00 
          -1.7547065185e-06 -7.7852359831e-05 0.0000000000e+00 
          -5.5992945445e-07 -7.7826218238e-05 0.0000000000e+00 
          6.4068175657e-07 -7.7866566854e-05 0.0000000000e+00 
          1.8226043714e-06 -7.7830642269e-05 0.0000000000e+00 
          2.9976940156e-06 -7.7838885575e-05 0.0000000000e+00 
          4.1591302367e-06 -7.7878015445e-05 0.0000000000e+00 
          5.3002295859e-06 -7.7784798588e-05 0.0000000000e+00 
          6.4281247868e-06 -7.7916804221e-05 0.0000000000e+00 
          7.5272256630e-06 -7.7781111279e-05 0.0000000000e+00 
          8.6100120715e-06 -7.7883582877e-05 0.0000000000e+00 
          9.6620517677e-06 -7.7834259240e-05 0.0000000000e+00 
          1.0683819008e-05 -7.7837710494e-05 0.0000000000e+00 
          1.1683863794e-05 -7.7851089026e-05 0.0000000000e+00 
          1.2636595311e-05 -7.7849169135e-05 0.0000000000e+00 
          1.3569249832e-05 -7.7838207056e-05 0.0000000000e+00 
          1.4454366546e-05 -7.7834253348e-05 0.0000000000e+00 
          1.5302394049e-05 -7.7884768941e-05 0.0000000000e+00 
          1.6114648210e-05 -7.7781644854e-05 0.0000000000e+00 
          1.6875085937e-05 -7.7913139807e-05 0.0000000000e+00 
          1.7598864407e-05 -7.7788477247e-05 0.0000000000e+00 
          1.8271353334e-05 -7.7878641034e-05 0.0000000000e+00 
          1.8897687791e-05 -7.7837051365e-05 0.0000000000e+00 
          1.9474301543e-05 -7.7831387795e-05 0.0000000000e+00 
          2.0000581007e-05 -7.7867030524e-05 0.0000000000e+00 
          2.0474011449e-05 -7.7827867750e-05 0.0000000000e+00 
          2.0895469155e-05 -7.7851104659e-05 0.0000000000e+00 
          2.1261515862e-05 -7.7845268530e-05 0.0000000000e+00 
          2.1573984836e-05 -7.7843647432e-05 0.0000000000e+00 
          2.1830206408e-05 -7.7845763381e-05 0.0000000000e+00 
          2.2029500683e-05 -7.7843202623e-05 0.0000000000e+00 
          2.2173174536e-05 -7.7846339903e-05 0.0000000000e+00 
          2.2258738713e-05 -7.7845239366e-05 0.0000000000e+00 
          -8.9583716236e-06 -7.7843208033e-05 0.0000000000e+00 
          -7.7666918402e-06 -7.7845464582e-05 0.0000000000e+00 
          -6.5791422975e-06 -7.7844274478e-05 0.0000000000e+00 
          -5.3716753151e-06 -7.7845535517e-05 0.0000000000e+00 
          -4.1695073621e-06 -7.7841604620e-05 0.0000000000e+00 
          -2.9645922918e-06 -7.7845465590e-05 0.0000000000e+00 
          -1.7547065185e-06 -7.7852359831e-05 0.0000000000e+00 
          -5.5992945445e-07 -7.7826218238e-05 0.0000000000e+00 
          6.4068175657e-07 -7.7866566854e-05 0.0000000000e+00 
          1.8226043714e-06 -7.7830642269e-05 0.0000000000e+00 
          2.9976940156e-06 -7.7838885575e-05 0.0000000000e+00 
          4.1591302367e-06 -7.7878015445e-05 0.0000000000e+00 
          5.3002295859e-06 -7.7784798588e-05 0.0000000000e+00 
          6.4281247868e-06 -7.7916804221e-05 0.0000000000e+00 
          7.5272256630e-06 -7.7781111279e-05 0.0000000000e+00 
          8.6100120715e-06 -7.7883582877e-05 0.0000000000e+00 
          9.6620517677e-06 -7.7834259240e-05 0.0000000000e+00 
          1.0683819008e-05 -7.7837710494e-05 0.0000000000e+00 
          1.1683863794e-05 -7.7851089026e-05 0.0000000000e+00 
          1.2636595311e-05 -7.7849169135e-05 0.0000000000e+00 
          1.3569249832e-05 -7.7838207056e-05 0.0000000000e+00 
          1.4454366546e-05 -7.7834253348e-05 0.0000000000e+00 
          1.5302394049e-05 -7.7884768941e-05 0.0000000000e+00 
          1.6114648210e-05 -7.7781644854e-05 0.0000000000e+00 
          1.6875085937e-05 -7.7913139807e-05 0.0000000000e+00 
          1.7598864407e-05 -7.7788477247e-05 0.0000000000e+00 
          1.8271353334e-05 -7.7878641034e-05 0.0000000000e+00 
          1.8897687791e-05 -7.7837051365e-05 0.0000000000e+00 
          1.9474301543e-05 -7.7831387795e-05 0.0000000000e+00 
          2.0000581007e-05 -7.7867030524e-05 0.0000000000e+00 
          2.0474011449e-05 -7.7827867750e-05 0.0000000000e+00 
          2.0895469155e-05 -7.7851104659e-05 0.0000000000e+00 
          2.1261515862e-05 -7.7845268530e-05 0.0000000000e+00 
          2.1573984836e-05 -7.7843647432e-05 0.0000000000e+00 
          2.1830206408e-05 -7.7845763381e-05 0.0000000000e+00 
          2.2029500683e-05 -7.7843202623e-05 0.0000000000e+00 
          2.2173174536e-05 -7.7846339903e-05 0.0000000000e+00 
          2.2258738713e-05 -7.7845239366e-05 0.0000000000e+00 
        </DataArray>
        <DataArray type="Float64" Name="Displacement" NumberOfComponents="3" format="ascii">
          -2.6275630416e-07 -6.3338680079e-04 0.0000000000e+00 
          -2.6275630416e-07 -6.3338680079e-04 0.0000000000e+00 
          -4.2674932927e-06 -6.5696708408e-04 0.0000000000e+00 
          -4.2674932927e-06 -6.5696708408e-04 0.0000000000e+00 
          0.0000000000e+00 0.0000000000e+00 0.0000000000e+00 
          0.0000000000e+00 0.0000000000e+00 0.0000000000e+00 
          -4.3059992557e-07 -6.3458054553e-04 0.0000000000e+00 
          -5.9743036335e-07 -6.3574328090e-04 0.0000000000e+00 
          -7.6301613865e-07 -6.3687500588e-04 0.0000000000e+00 
          -9.2713065829e-07 -6.3797573352e-04 0.0000000000e+00 
          -1.0895446225e-06 -6.3904545773e-04 0.0000000000e+00 
          -1.2500365551e-06 -6.4008415267e-04 0.0000000000e+00 
          -1.4083895502e-06 -6.4109187352e-04 0.0000000000e+00 
          -1.5643738614e-06 -6.4206856350e-04 0.0000000000e+00 
          -1.7177896615e-06 -6.4301424689e-04 0.0000000000e+00 
          -1.8684247280e-06 -6.4392897561e-04 0.0000000000e+00 
          -2.0160537540e-06 -6.4481256586e-04 0.0000000000e+00 
          -2.1605086731e-06 -6.4566535652e-04 0.0000000000e+00 
          -2.3015587633e-06 -6.4648692683e-04 0.0000000000e+00 
          -2.4390267243e-06 -6.4727761084e-04 0.0000000000e+00 
          -2.5727312951e-06 -6.4803732862e-04 0.0000000000e+00 
          -2.7024659787e-06 -6.4876586103e-04 0.0000000000e+00 
          -2.8280788737e-06 -6.4946361456e-04 0.0000000000e+00 
          -2.9493812245e-06 -6.5013017682e-04 0.0000000000e+00 
          -3.0662104730e-06 -6.5076583616e-04 0.0000000000e+00 
          -3.1784108736e-06 -6.5137045947e-04 0.0000000000e+00 
          -3.2858215174e-06 -6.5194404542e-04 0.0000000000e+00 
          -3.3882979254e-06 -6.5248672473e-04 0.0000000000e+00 
          -3.4857033452e-06 -6.5299822178e-04 0.0000000000e+00 
          -3.5778933115e-06 -6.5347893045e-04 0.0000000000e+00 
          -3.6647497121e-06 -6.5392846008e-04 0.0000000000e+00 
          -3.7461528960e-06 -6.5434702210e-04 0.0000000000e+00 
          -3.8219800492e-06 -6.5473469192e-04 0.0000000000e+00 
          -3.8921399382e-06 -6.5509115394e-04 0.0000000000e+00 
          -3.9565306164e-06 -6.5541680589e-04 0.0000000000e+00 
          -4.0150493087e-06 -6.5571132183e-04 0.0000000000e+00 
          -4.0676482476e-06 -6.5597488284e-04 0.0000000000e+00 
          -4.1142116142e-06 -6.5620743985e-04 0.0000000000e+00 
          -4.1547111006e-06 -6.5640896720e-04 0.0000000000e+00 
          -4.1890758666e-06 -6.5657951439e-04 0.0000000000e+00 
          -4.2172444942e-06 -6.5671903351e-04 0.0000000000e+00 
          -4.2392126285e-06 -6.5682755617e-04 0.0000000000e+00 
          -4.2549128672e-06 -6.5690507748e-04 0.0000000000e+00 
          -4.2643452024e-06 -6.5695158361e-04 0.0000000000e+00 
          -4.3059992557e-07 -6.3458054553e-04 0.0000000000e+00 
          -5.9743036335e-07 -6.3574328090e-04 0.0000000000e+00 
          -7.6301613865e-07 -6.3687500588e-04 0.0000000000e+00 
          -9.2713065829e-07 -6.3797573352e-04 0.0000000000e+00 
          -1.0895446225e-06 -6.3904545773e-04 0.0000000000e+00 
          -1.2500365551e-06 -6.4008415267e-04 0.0000000000e+00 
          -1.4083895502e-06 -6.4109187352e-04 0.0000000000e+00 
          -1.5643738614e-06 -6.4206856350e-04 0.0000000000e+00 
          -1.7177896615e-06 -6.4301424689e-04 0.0000000000e+00 
          -1.8684247280e-06 -6.4392897561e-04 0.0000000000e+00 
          -2.0160537540e-06 -6.4481256586e-04 0.0000000000e+00 
          -2.1605086731e-06 -6.4566535652e-04 0.0000000000e+00 
          -2.3015587633e-06 -6.4648692683e-04 0.0000000000e+00 
          -2.4390267243e-06 -6.4727761084e-04 0.0000000000e+00 
          -2.5727312951e-06 -6.4803732862e-04 0.0000000000e+00 
          -2.7024659787e-06 -6.4876586103e-04 0.0000000000e+00 
          -2.8280788737e-06 -6.4946361456e-04 0.0000000000e+00 
          -2.9493812245e-06 -6.5013017682e-04 0.0000000000e+00 
          -3.0662104730e-06 -6.5076583616e-04 0.0000000000e+00 
          -3.1784108736e-06 -6.5137045947e-04 0.0000000000e+00 
          -3.2858215174e-06 -6.5194404542e-04 0.0000000000e+00 
          -3.3882979254e-06 -6.5248672473e-04 0.0000000000e+00 
          -3.4857033452e-06 -6.5299822178e-04 0.0000000000e+00 
          -3.5778933115e-06 -6.5347893045e-04 0.0000000000e+00 
          -3.6647497121e-06 -6.5392846008e-04 0.0000000000e+00 
          -3.7461528960e-06 -6.5434702210e-04 0.0000000000e+00 
          -3.8219800492e-06 -6.5473469192e-04 0.0000000000e+00 
          -3.8921399382e-06 -6.5509115394e-04 0.0000000000e+00 
          -3.9565306164e-06 -6.5541680589e-04 0.0000000000e+00 
          -4.0150493087e-06 -6.5571132183e-04 0.0000000000e+00 
          -4.0676482476e-06 -6.5597488284e-04 0.0000000000e+00 
          -4.1142116142e-06 -6.5620743985e-04 0.0000000000e+00 
          -4.1547111006e-06 -6.5640896720e-04 0.0000000000e+00 
          -4.1890758666e-06 -6.5657951439e-04 0.0000000000e+00 
          -4.2172444942e-06 -6.5671903351e-04 0.0000000000e+00 
          -4.2392126285e-06 -6.5682755617e-04 0.0000000000e+00 
          -4.2549128672e-06 -6.5690507748e-04 0.0000000000e+00 
          -4.2643452024e-06 -6.5695158361e-04 0.0000000000e+00 
        </DataArray>
        <DataArray type="Float64" Name="Acceleration" NumberOfComponents="3" format="ascii">
          7.0155520172e-05 7.9944793230e-08 0.0000000000e+00 
          7.0155520172e-05 7.9944793230e-08 0.0000000000e+00 
          5.6729830130e-04 -9.7545784289e-07 0.0000000000e+00 
          5.6729830130e-04 -9.7545784289e-07 0.0000000000e+00 
          0.0000000000e+00 0.0000000000e+00 0.0000000000e+00 
          0.0000000000e+00 0.0000000000e+00 0.0000000000e+00 
          9.1289845969e-05 5.4487656981e-07 0.0000000000e+00 
          1.1212722401e-04 4.7094093947e-07 0.0000000000e+00 
          1.3258252278e-04 -1.3531262049e-06 0.0000000000e+00 
          1.5322340527e-04 -5.2549168084e-07 0.0000000000e+00 
          1.7317884033e-04 4.1345212455e-06 0.0000000000e+00 
          1.9270406983e-04 -6.0455690665e-06 0.0000000000e+00 
          2.1344178667e-04 4.6624722750e-06 0.0000000000e+00 
          2.3142791916e-04 4.5096289203e-08 0.0000000000e+00 
          2.5054959241e-04 -9.3093987099e-06 0.0000000000e+00 
          2.7083306425e-04 2.3605023663e-05 0.0000000000e+00 
          2.8601078126e-04 -3.7043692896e-05 0.0000000000e+00 
          3.0678180958e-04 3.8563625466e-05 0.0000000000e+00 
          3.2275690958e-04 -2.1628211517e-05 0.0000000000e+00 
          3.3908889643e-04 -7.2306157471e-06 0.0000000000e+00 
          3.5767970949e-04 3.2098134867e-05 0.0000000000e+00 
          3.7139673169e-04 -4.0815643738e-05 0.0000000000e+00 
          3.8838853609e-04 3.3325334042e-05 0.0000000000e+00 
          4.0303535929e-04 -1.8635972431e-05 0.0000000000e+00 
          4.1705546291e-04 5.2144007285e-06 0.0000000000e+00 
          4.3157997214e-04 5.7331925475e-06 0.0000000000e+00 
          4.4458439551e-04 -1.7963341466e-05 0.0000000000e+00 
          4.5690604487e-04 3.1701312335e-05 0.0000000000e+00 
          4.6991216057e-04 -3.9386212592e-05 0.0000000000e+00 
          4.8057591824e-04 3.1237392688e-05 0.0000000000e+00 
          4.9134560249e-04 -6.9776900040e-06 0.0000000000e+00 
          5.0241137029e-04 -2.0568479060e-05 0.0000000000e+00 
          5.1063169769e-04 3.6303879088e-05 0.0000000000e+00 
          5.1981008206e-04 -3.5438967564e-05 0.0000000000e+00 
          5.2908540638e-04 2.3446608942e-05 0.0000000000e+00 
          5.3338147352e-04 -9.2638698680e-06 0.0000000000e+00 
          5.4381699378e-04 -4.2240467857e-07 0.0000000000e+00 
          5.4636318377e-04 4.1606600223e-06 0.0000000000e+00 
          5.5275552520e-04 -4.6658004637e-06 0.0000000000e+00 
          5.5828431194e-04 3.9164522677e-06 0.0000000000e+00 
          5.5867668248e-04 -1.7811616527e-06 0.0000000000e+00 
          5.6474830949e-04 -9.1310084327e-07 0.0000000000e+00 
          5.6475268148e-04 1.6156470227e-06 0.0000000000e+00 
          5.6622288209e-04 -1.2035214619e-07 0.0000000000e+00 
          9.1289845969e-05 5.4487656981e-07 0.0000000000e+00 
          1.1212722401e-04 4.7094093947e-07 0.0000000000e+00 
          1.3258252278e-04 -1.3531262049e-06 0.0000000000e+00 
          1.5322340527e-04 -5.2549168084e-07 0.0000000000e+00 
          1.7317884033e-04 4.1345212455e-06 0.0000000000e+00 
          1.9270406983e-04 -6.0455690665e-06 0.0000000000e+00 
          2.1344178667e-04 4.6624722750e-06 0.0000000000e+00 
          2.3142791916e-04 4.5096289203e-08 0.0000000000e+00 
          2.5054959241e-04 -9.3093987099e-06 0.0000000000e+00 
          2.7083306425e-04 2.3605023663e-05 0.0000000000e+00 
          2.8601078126e-04 -3.7043692896e-05 0.0000000000e+00 
          3.0678180958e-04 3.8563625466e-05 0.0000000000e+00 
          3.2275690958e-04 -2.1628211517e-05 0.0000000000e+00 
          3.3908889643e-04 -7.2306157471e-06 0.0000000000e+00 
          3.5767970949e-04 3.2098134867e-05 0.0000000000e+00 
          3.7139673169e-04 -4.0815643738e-05 0.0000000000e+00 
          3.8838853609e-04 3.3325334042e-05 0.0000000000e+00 
          4.0303535929e-04 -1.8635972431e-05 0.0000000000e+00 
          4.1705546291e-04 5.2144007285e-06 0.0000000000e+00 
          4.3157997214e-04 5.7331925475e-06 0.0000000000e+00 
          4.4458439551e-04 -1.7963341466e-05 0.0000000000e+00 
          4.5690604487e-04 3.1701312335e-05 0.0000000000e+00 
          4.6991216057e-04 -3.9386212592e-05 0.0000000000e+00 
          4.8057591824e-04 3.1237392688e-05 0.0000000000e+00 
          4.9134560249e-04 -6.9776900040e-06 0.0000000000e+00 
          5.0241137029e-04 -2.0568479060e-05 0.0000000000e+00 
          5.1063169769e-04 3.6303879088e-05 0.0000000000e+00 
          5.1981008206e-04 -3.5438967564e-05 0.0000000000e+00 
          5.2908540638e-04 2.3446608942e-05 0.0000000000e+00 
          5.3338147352e-04 -9.2638698680e-06 0.0000000000e+00 
          5.4381699378e-04 -4.2240467857e-07 0.0000000000e+00 
          5.4636318377e-04 4.1606600223e-06 0.0000000000e+00 
          5.5275552520e-04 -4.6658004637e-06 0.0000000000e+00 
          5.5828431194e-04 3.9164522677e-06 0.0000000000e+00 
          5.5867668248e-04 -1.7811616527e-06 0.0000000000e+00 
          5.6474830949e-04 -9.1310084327e-07 0.0000000000e+00 
          5.6475268148e-04 1.6156470227e-06 0.0000000000e+00 
          5.6622288209e-04 -1.2035214619e-07 0.0000000000e+00 
        </DataArray>
        <DataArray type="Float64" Name="Reaction" NumberOfComponents="3" format="ascii">
          0.0000000000e+00 0.0000000000e+00 0.0000000000e+00 
          0.0000000000e+00 0.0000000000e+00 0.0000000000e+00 
          0.0000000000e+00 0.0000000000e+00 0.0000000000e+00 
          0.0000000000e+00 0.0000000000e+00 0.0000000000e+00 
          0.0000000000e+00 0.0000000000e+00 0.0000000000e+00 
          0.0000000000e+00 0.0000000000e+00 0.0000000000e+00 
          0.0000000000e+00 0.0000000000e+00 0.0000000000e+00 
          0.0000000000e+00 0.0000000000e+00 0.0000000000e+00 
          0.0000000000e+00 0.0000000000e+00 0.0000000000e+00 
          0.0000000000e+00 0.0000000000e+00 0.0000000000e+00 
          0.0000000000e+00 0.0000000000e+00 0.0000000000e+00 
          0.0000000000e+00 0.0000000000e+00 0.0000000000e+00 
          0.0000000000e+00 0.0000000000e+00 0.0000000000e+00 
          0.0000000000e+00 0.0000000000e+00 0.0000000000e+00 
          0.0000000000e+00 0.0000000000e+00 0.0000000000e+00 
          0.0000000000e+00 0.0000000000e+00 0.0000000000e+00 
          0.0000000000e+00 0.0000000000e+00 0.0000000000e+00 
          0.0000000000e+00 0.0000000000e+00 0.0000000000e+00 
          0.0000000000e+00 0.0000000000e+00 0.0000000000e+00 
          0.0000000000e+00 0.0000000000e+00 0.0000000000e+00 
          0.0000000000e+00 0.0000000000e+00 0.0000000000e+00 
          0.0000000000e+00 0.0000000000e+00 0.0000000000e+00 
          0.0000000000e+00 0.0000000000e+00 0.0000000000e+00 
          0.0000000000e+00 0.0000000000e+00 0.0000000000e+00 
          0.0000000000e+00 0.0000000000e+00 0.0000000000e+00 
          0.0000000000e+00 0.0000000000e+00 0.0000000000e+00 
          0.0000000000e+00 0.0000000000e+00 0.0000000000e+00 
          0.0000000000e+00 0.0000000000e+00 0.0000000000e+00 
          0.0000000000e+00 0.0000000000e+00 0.0000000000e+00 
          0.0000000000e+00 0.0000000000e+00 0.0000000000e+00 
          0.0000000000e+00 0.0000000000e+00 0.0000000000e+00 
          0.0000000000e+00 0.0000000000e+00 0.0000000000e+00 
          0.0000000000e+00 0.0000000000e+00 0.0000000000e+00 
          0.0000000000e+00 0.0000000000e+00 0.0000000000e+00 
          0.0000000000e+00 0.0000000000e+00 0.0000000000e+00 
          0.0000000000e+00 0.0000000000e+00 0.0000000000e+00 
          0.0000000000e+00 0.0000000000e+00 0.0000000000e+00 
          0.0000000000e+00 0.0000000000e+00 0.0000000000e+00 
          0.0000000000e+00 0.0000000000e+00 0.0000000000e+00 
          0.0000000000e+00 0.0000000000e+00 0.0000000000e+00 
          0.0000000000e+00 0.0000000000e+00 0.0000000000e+00 
          0.0000000000e+00 0.0000000000e+00 0.0000000000e+00 
          0.0000000000e+00 0.0000000000e+00 0.0000000000e+00 
          0.0000000000e+00 0.0000000000e+00 0.0000000000e+00 
          0.0000000000e+00 0.0000000000e+00 0.0000000000e+00 
          0.0000000000e+00 0.0000000000e+00 0.0000000000e+00 
          0.0000000000e+00 0.0000000000e+00 0.0000000000e+00 
          0.0000000000e+00 0.0000000000e+00 0.0000000000e+00 
          0.0000000000e+00 0.0000000000e+00 0.0000000000e+00 
          0.0000000000e+00 0.0000000000e+00 0.0000000000e+00 
          0.0000000000e+00 0.0000000000e+00 0.0000000000e+00 
          0.0000000000e+00 0.0000000000e+00 0.0000000000e+00 
          0.0000000000e+00 0.0000000000e+00 0.0000000000e+00 
          0.0000000000e+00 0.0000000000e+00 0.0000000000e+00 
          0.0000000000e+00 0.0000000000e+00 0.0000000000e+00 
          0.0000000000e+00 0.0000000000e+00 0.0000000000e+00 
          0.0000000000e+00 0.0000000000e+00 0.0000000000e+00 
          0.0000000000e+00 0.0000000000e+00 0.0000000000e+00 
          0.0000000000e+00 0.0000000000e+00 0.0000000000e+00 
          0.0000000000e+00 0.0000000000e+00 0.0000000000e+00 
          0.0000000000e+00 0.0000000000e+00 0.0000000000e+00 
          0.0000000000e+00 0.0000000000e+00 0.0000000000e+00 
          0.0000000000e+00 0.0000000000e+00 0.0000000000e+00 
          0.0000000000e+00 0.0000000000e+00 0.0000000000e+00 
          0.0000000000e+00 0.0000000000e+00 0.0000000000e+00 
          0.0000000000e+00 0.0000000000e+00 0.0000000000e+00 
          0.0000000000e+00 0.0000000000e+00 0.0000000000e+00 
          0.0000000000e+00 0.0000000000e+00 0.0000000000e+00 
          0.0000000000e+00 0.0000000000e+00 0.0000000000e+00 
          0.0000000000e+00 0.0000000000e+00 0.0000000000e+00 
          0.0000000000e+00 0.0000000000e+00 0.0000000000e+00 
          0.0000000000e+00 0.0000000000e+00 0.0000000000e+00 
          0.0000000000e+00 0.0000000000e+00 0.0000000000e+00 
          0.0000000000e+00 0.0000000000e+00 0.0000000000e+00 
          0.0000000000e+00 0.0000000000e+00 0.0000000000e+00 
          0.0000000000e+00 0.0000000000e+00 0.0000000000e+00 
          0.0000000000e+00 0.0000000000e+00 0.0000000000e+00 
          0.0000000000e+00 0.0000000000e+00 0.0000000000e+00 
          0.0000000000e+00 0.0000000000e+00 0.0000000000e+00 
          0.0000000000e+00 0.0000000000e+00 0.0000000000e+00 
          0.0000000000e+00 0.0000000000e+00 0.0000000000e+00 
          0.0000000000e+00 0.0000000000e+00 0.0000000000e+00 
        </DataArray>
      </PointData>
      <CellData>
        <DataArray type="Int64" Name="ElementTag" format="ascii">
          0
        </DataArray>
      </CellData>
    </Piece>
  </UnstructuredGrid>
</VTKFile>
