<?xml version="1.0"?>
<VTKFile type="UnstructuredGrid" version="1.0" byte_order="LittleEndian" compressor="vtkZLibDataCompressor">
  <UnstructuredGrid>
    <Piece NumberOfPoints="80" NumberOfCells="39">
      <Points>
        <DataArray type="Float64" Name="Points" NumberOfComponents="3" format="ascii">
          0.0000000000e+00 0.0000000000e+00 0.0000000000e+00 
          2.5000000000e-01 0.0000000000e+00 0.0000000000e+00 
          2.5000000000e-01 3.0000000000e+01 0.0000000000e+00 
          0.0000000000e+00 3.0000000000e+01 0.0000000000e+00 
          2.5000000000e-01 7.6923100000e-01 0.0000000000e+00 
          2.5000000000e-01 1.5384620000e+00 0.0000000000e+00 
          2.5000000000e-01 2.3076920000e+00 0.0000000000e+00 
          2.5000000000e-01 3.0769230000e+00 0.0000000000e+00 
          2.5000000000e-01 3.8461540000e+00 0.0000000000e+00 
          2.5000000000e-01 4.6153850000e+00 0.0000000000e+00 
          2.5000000000e-01 5.3846150000e+00 0.0000000000e+00 
          2.5000000000e-01 6.1538460000e+00 0.0000000000e+00 
          2.5000000000e-01 6.9230770000e+00 0.0000000000e+00 
          2.5000000000e-01 7.6923080000e+00 0.0000000000e+00 
          2.5000000000e-01 8.4615380000e+00 0.0000000000e+00 
          2.5000000000e-01 9.2307690000e+00 0.0000000000e+00 
          2.5000000000e-01 1.0000000000e+01 0.0000000000e+00 
          2.5000000000e-01 1.0769231000e+01 0.0000000000e+00 
          2.5000000000e-01 1.1538462000e+01 0.0000000000e+00 
          2.5000000000e-01 1.2307692000e+01 0.0000000000e+00 
          2.5000000000e-01 1.3076923000e+01 0.0000000000e+00 
          2.5000000000e-01 1.3846154000e+01 0.0000000000e+00 
          2.5000000000e-01 1.4615385000e+01 0.0000000000e+00 
          2.5000000000e-01 1.5384615000e+01 0.0000000000e+00 
          2.5000000000e-01 1.6153846000e+01 0.0000000000e+00 
          2.5000000000e-01 1.6923077000e+01 0.0000000000e+00 
          2.5000000000e-01 1.7692308000e+01 0.0000000000e+00 
          2.5000000000e-01 1.8461538000e+01 0.0000000000e+00 
          2.5000000000e-01 1.9230769000e+01 0.0000000000e+00 
          2.5000000000e-01 2.0000000000e+01 0.0000000000e+00 
          2.5000000000e-01 2.0769231000e+01 0.0000000000e+00 
          2.5000000000e-01 2.1538462000e+01 0.0000000000e+00 
          2.5000000000e-01 2.2307692000e+01 0.0000000000e+00 
          2.5000000000e-01 2.3076923000e+01 0.0000000000e+00 
          2.5000000000e-01 2.3846154000e+01 0.0000000000e+00 
          2.5000000000e-01 2.4615385000e+01 0.0000000000e+00 
          2.5000000000e-01 2.5384615000e+01 0.0000000000e+00 
          2.5000000000e-01 2.6153846000e+01 0.0000000000e+00 
          2.5000000000e-01 2.6923077000e+01 0.0000000000e+00 
          2.5000000000e-01 2.7692308000e+01 0.0000000000e+00 
          2.5000000000e-01 2.8461538000e+01 0.0000000000e+00 
          2.5000000000e-01 2.9230769000e+01 0.0000000000e+00 
          0.0000000000e+00 7.6923100000e-01 0.0000000000e+00 
          0.0000000000e+00 1.5384620000e+00 0.0000000000e+00 
          0.0000000000e+00 2.3076920000e+00 0.0000000000e+00 
          0.0000000000e+00 3.0769230000e+00 0.0000000000e+00 
          0.0000000000e+00 3.8461540000e+00 0.0000000000e+00 
          0.0000000000e+00 4.6153850000e+00 0.0000000000e+00 
          0.0000000000e+00 5.3846150000e+00 0.0000000000e+00 
          0.0000000000e+00 6.1538460000e+00 0.0000000000e+00 
          0.0000000000e+00 6.9230770000e+00 0.0000000000e+00 
          0.0000000000e+00 7.6923080000e+00 0.0000000000e+00 
          0.0000000000e+00 8.4615380000e+00 0.0000000000e+00 
          0.0000000000e+00 9.2307690000e+00 0.0000000000e+00 
          0.0000000000e+00 1.0000000000e+01 0.0000000000e+00 
          0.0000000000e+00 1.0769231000e+01 0.0000000000e+00 
          0.0000000000e+00 1.1538462000e+01 0.0000000000e+00 
          0.0000000000e+00 1.2307692000e+01 0.0000000000e+00 
          0.0000000000e+00 1.3076923000e+01 0.0000000000e+00 
          0.0000000000e+00 1.3846154000e+01 0.0000000000e+00 
          0.0000000000e+00 1.4615385000e+01 0.0000000000e+00 
          0.0000000000e+00 1.5384615000e+01 0.0000000000e+00 
          0.0000000000e+00 1.6153846000e+01 0.0000000000e+00 
          0.0000000000e+00 1.6923077000e+01 0.0000000000e+00 
          0.0000000000e+00 1.7692308000e+01 0.0000000000e+00 
          0.0000000000e+00 1.8461538000e+01 0.0000000000e+00 
          0.0000000000e+00 1.9230769000e+01 0.0000000000e+00 
          0.0000000000e+00 2.0000000000e+01 0.0000000000e+00 
          0.0000000000e+00 2.0769231000e+01 0.0000000000e+00 
          0.0000000000e+00 2.1538462000e+01 0.0000000000e+00 
          0.0000000000e+00 2.2307692000e+01 0.0000000000e+00 
          0.0000000000e+00 2.3076923000e+01 0.0000000000e+00 
          0.0000000000e+00 2.3846154000e+01 0.0000000000e+00 
          0.0000000000e+00 2.4615385000e+01 0.0000000000e+00 
          0.0000000000e+00 2.5384615000e+01 0.0000000000e+00 
          0.0000000000e+00 2.6153846000e+01 0.0000000000e+00 
          0.0000000000e+00 2.6923077000e+01 0.0000000000e+00 
          0.0000000000e+00 2.7692308000e+01 0.0000000000e+00 
          0.0000000000e+00 2.8461538000e+01 0.0000000000e+00 
          0.0000000000e+00 2.9230769000e+01 0.0000000000e+00 
        </DataArray>
      </Points>
      <Cells>
        <DataArray type="Int64" Name="connectivity" format="ascii">
          0 1 4 42 
          42 4 5 43 
          43 5 6 44 
          44 6 7 45 
          45 7 8 46 
          46 8 9 47 
          47 9 10 48 
          48 10 11 49 
          49 11 12 50 
          50 12 13 51 
          51 13 14 52 
          52 14 15 53 
          53 15 16 54 
          54 16 17 55 
          55 17 18 56 
          56 18 19 57 
          57 19 20 58 
          58 20 21 59 
          59 21 22 60 
          60 22 23 61 
          61 23 24 62 
          62 24 25 63 
          63 25 26 64 
          64 26 27 65 
          65 27 28 66 
          66 28 29 67 
          67 29 30 68 
          68 30 31 69 
          69 31 32 70 
          70 32 33 71 
          71 33 34 72 
          72 34 35 73 
          73 35 36 74 
          74 36 37 75 
          75 37 38 76 
          76 38 39 77 
          77 39 40 78 
          78 40 41 79 
          79 41 2 3 
        </DataArray>
        <DataArray type="Int64" Name="offsets" format="ascii">
          4
          8
          12
          16
          20
          24
          28
          32
          36
          40
          44
          48
          52
          56
          60
          64
          68
          72
          76
          80
          84
          88
          92
          96
          100
          104
          108
          112
          116
          120
          124
          128
          132
          136
          140
          144
          148
          152
          156
        </DataArray>
        <DataArray type="Int64" Name="types" format="ascii">
          9
          9
          9
          9
          9
          9
          9
          9
          9
          9
          9
          9
          9
          9
          9
          9
          9
          9
          9
          9
          9
          9
          9
          9
          9
          9
          9
          9
          9
          9
          9
          9
          9
          9
          9
          9
          9
          9
          9
        </DataArray>
      </Cells>
      <PointData>
        <DataArray type="Int64" Name="NodeTag" format="ascii">
          1
          2
          3
          4
          7
          8
          9
          10
          11
          12
          13
          14
          15
          16
          17
          18
          19
          20
          21
          22
          23
          24
          25
          26
          27
          28
          29
          30
          31
          32
          33
          34
          35
          36
          37
          38
          39
          40
          41
          42
          43
          44
          45
          46
          47
          48
          49
          50
          51
          52
          53
          54
          55
          56
          57
          58
          59
          60
          61
          62
          63
          64
          65
          66
          67
          68
          69
          70
          71
          72
          73
          74
          75
          76
          77
          78
          79
          80
          81
          82
        </DataArray>
        <DataArray type="Float64" Name="Velocity" NumberOfComponents="3" format="ascii">
          -2.2204029078e-04 -7.7849568225e-05 0.0000000000e+00 
          -2.2204029078e-04 -7.7849568225e-05 0.0000000000e+00 
          8.2831852817e-04 -7.7793850510e-05 0.0000000000e+00 
          8.2831852817e-04 -7.7793850510e-05 0.0000000000e+00 
          -1.8250696869e-04 -7.7885528259e-05 0.0000000000e+00 
          -1.4275756995e-04 -7.7802099627e-05 0.0000000000e+00 
          -1.0288685964e-04 -7.7875315409e-05 0.0000000000e+00 
          -6.2953293605e-05 -7.7822137171e-05 0.0000000000e+00 
          -2.3042871382e-05 -7.7858143268e-05 0.0000000000e+00 
          1.6765986548e-05 -7.7862997583e-05 0.0000000000e+00 
          5.6412888346e-05 -7.7792600760e-05 0.0000000000e+00 
          9.5797920018e-05 -7.7891497705e-05 0.0000000000e+00 
          1.3487020988e-04 -7.7820711281e-05 0.0000000000e+00 
          1.7353184630e-04 -7.7844196572e-05 0.0000000000e+00 
          2.1172849448e-04 -7.7840974554e-05 0.0000000000e+00 
          2.4937356713e-04 -7.7847281247e-05 0.0000000000e+00 
          2.8639249790e-04 -7.7835411834e-05 0.0000000000e+00 
          3.2272797514e-04 -7.7837543320e-05 0.0000000000e+00 
          3.5828322043e-04 -7.7854888764e-05 0.0000000000e+00 
          3.9302015830e-04 -7.7831005016e-05 0.0000000000e+00 
          4.2684083230e-04 -7.7850137785e-05 0.0000000000e+00 
          4.5968766317e-04 -7.7823079568e-05 0.0000000000e+00 
          4.9151220878e-04 -7.7870175321e-05 0.0000000000e+00 
          5.2221140513e-04 -7.7824215466e-05 0.0000000000e+00 
          5.5176652600e-04 -7.7823991502e-05 0.0000000000e+00 
          5.8008736883e-04 -7.7894953564e-05 0.0000000000e+00 
          6.0711875777e-04 -7.7781463682e-05 0.0000000000e+00 
          6.3282720639e-04 -7.7868882557e-05 0.0000000000e+00 
          6.5712557469e-04 -7.7866718540e-05 0.0000000000e+00 
          6.7999239194e-04 -7.7782166637e-05 0.0000000000e+00 
          7.0136140720e-04 -7.7901568337e-05 0.0000000000e+00 
          7.2119468520e-04 -7.7799052020e-05 0.0000000000e+00 
          7.3945299673e-04 -7.7868828497e-05 0.0000000000e+00 
          7.5608697160e-04 -7.7814818321e-05 0.0000000000e+00 
          7.7107190809e-04 -7.7882385670e-05 0.0000000000e+00 
          7.8437196627e-04 -7.7796951838e-05 0.0000000000e+00 
          7.9595484680e-04 -7.7871257430e-05 0.0000000000e+00 
          8.0579886157e-04 -7.7837033429e-05 0.0000000000e+00 
          8.1388631515e-04 -7.7816002100e-05 0.0000000000e+00 
          8.2018841459e-04 -7.7885878828e-05 0.0000000000e+00 
          8.2470399028e-04 -7.7792007079e-05 0.0000000000e+00 
          8.2741949735e-04 -7.7889494418e-05 0.0000000000e+00 
          -1.8250696869e-04 -7.7885528259e-05 0.0000000000e+00 
          -1.4275756995e-04 -7.7802099627e-05 0.0000000000e+00 
          -1.0288685964e-04 -7.7875315409e-05 0.0000000000e+00 
          -6.2953293605e-05 -7.7822137171e-05 0.0000000000e+00 
          -2.3042871382e-05 -7.7858143268e-05 0.0000000000e+00 
          1.6765986548e-05 -7.7862997583e-05 0.0000000000e+00 
          5.6412888346e-05 -7.7792600760e-05 0.0000000000e+00 
          9.5797920018e-05 -7.7891497705e-05 0.0000000000e+00 
          1.3487020988e-04 -7.7820711281e-05 0.0000000000e+00 
          1.7353184630e-04 -7.7844196572e-05 0.0000000000e+00 
          2.1172849448e-04 -7.7840974554e-05 0.0000000000e+00 
          2.4937356713e-04 -7.7847281247e-05 0.0000000000e+00 
          2.8639249790e-04 -7.7835411834e-05 0.0000000000e+00 
          3.2272797514e-04 -7.7837543320e-05 0.0000000000e+00 
          3.5828322043e-04 -7.7854888764e-05 0.0000000000e+00 
          3.9302015830e-04 -7.7831005016e-05 0.0000000000e+00 
          4.2684083230e-04 -7.7850137785e-05 0.0000000000e+00 
          4.5968766317e-04 -7.7823079568e-05 0.0000000000e+00 
          4.9151220878e-04 -7.7870175321e-05 0.0000000000e+00 
          5.2221140513e-04 -7.7824215466e-05 0.0000000000e+00 
          5.5176652600e-04 -7.7823991502e-05 0.0000000000e+00 
          5.8008736883e-04 -7.7894953564e-05 0.0000000000e+00 
          6.0711875777e-04 -7.7781463682e-05 0.0000000000e+00 
          6.3282720639e-04 -7.7868882557e-05 0.0000000000e+00 
          6.5712557469e-04 -7.7866718540e-05 0.0000000000e+00 
          6.7999239194e-04 -7.7782166637e-05 0.0000000000e+00 
          7.0136140720e-04 -7.7901568337e-05 0.0000000000e+00 
          7.2119468520e-04 -7.7799052020e-05 0.0000000000e+00 
          7.3945299673e-04 -7.7868828497e-05 0.0000000000e+00 
          7.5608697160e-04 -7.7814818321e-05 0.0000000000e+00 
          7.7107190809e-04 -7.7882385670e-05 0.0000000000e+00 
          7.8437196627e-04 -7.7796951838e-05 0.0000000000e+00 
          7.9595484680e-04 -7.7871257430e-05 0.0000000000e+00 
          8.0579886157e-04 -7.7837033429e-05 0.0000000000e+00 
          8.1388631515e-04 -7.7816002100e-05 0.0000000000e+00 
          8.2018841459e-04 -7.7885878828e-05 0.0000000000e+00 
          8.2470399028e-04 -7.7792007079e-05 0.0000000000e+00 
          8.2741949735e-04 -7.7889494418e-05 0.0000000000e+00 
        </DataArray>
        <DataArray type="Float64" Name="Displacement" NumberOfComponents="3" format="ascii">
          -1.1400521500e-05 -4.7302722591e-04 0.0000000000e+00 
          -1.1400521500e-05 -4.7302722591e-04 0.0000000000e+00 
          -9.6944021339e-05 -4.9660839307e-04 0.0000000000e+00 
          -9.6944021339e-05 -4.9660839307e-04 0.0000000000e+00 
          -1.5074713304e-05 -4.7422105587e-04 0.0000000000e+00 
          -1.8717907369e-05 -4.7538375089e-04 0.0000000000e+00 
          -2.2325438665e-05 -4.7651561787e-04 0.0000000000e+00 
          -2.5892791765e-05 -4.7761628563e-04 0.0000000000e+00 
          -2.9415443643e-05 -4.7868609184e-04 0.0000000000e+00 
          -3.2888952599e-05 -4.7972489356e-04 0.0000000000e+00 
          -3.6308992375e-05 -4.8073250432e-04 0.0000000000e+00 
          -3.9671269516e-05 -4.8170937761e-04 0.0000000000e+00 
          -4.2971608595e-05 -4.8265501577e-04 0.0000000000e+00 
          -4.6205913854e-05 -4.8356978235e-04 0.0000000000e+00 
          -4.9370155328e-05 -4.8445350395e-04 0.0000000000e+00 
          -5.2460464904e-05 -4.8530612962e-04 0.0000000000e+00 
          -5.5473015008e-05 -4.8612796509e-04 0.0000000000e+00 
          -5.8404110827e-05 -4.8691852248e-04 0.0000000000e+00 
          -6.1250173828e-05 -4.8767825294e-04 0.0000000000e+00 
          -6.4007716431e-05 -4.8840701232e-04 0.0000000000e+00 
          -6.6673396942e-05 -4.8910451536e-04 0.0000000000e+00 
          -6.9243972016e-05 -4.8977133512e-04 0.0000000000e+00 
          -7.1716330507e-05 -4.9040688129e-04 0.0000000000e+00 
          -7.4087487423e-05 -4.9101159836e-04 0.0000000000e+00 
          -7.6354588243e-05 -4.9158519321e-04 0.0000000000e+00 
          -7.8514897680e-05 -4.9212785827e-04 0.0000000000e+00 
          -8.0565855296e-05 -4.9263947582e-04 0.0000000000e+00 
          -8.2504973644e-05 -4.9312007588e-04 0.0000000000e+00 
          -8.4329950218e-05 -4.9356970766e-04 0.0000000000e+00 
          -8.6038636889e-05 -4.9398830164e-04 0.0000000000e+00 
          -8.7628961873e-05 -4.9437591894e-04 0.0000000000e+00 
          -8.9099074845e-05 -4.9473244302e-04 0.0000000000e+00 
          -9.0447212094e-05 -4.9505813240e-04 0.0000000000e+00 
          -9.1671782378e-05 -4.9535259835e-04 0.0000000000e+00 
          -9.2771365376e-05 -4.9561620413e-04 0.0000000000e+00 
          -9.3744636012e-05 -4.9584881504e-04 0.0000000000e+00 
          -9.4590454008e-05 -4.9605026272e-04 0.0000000000e+00 
          -9.5307846790e-05 -4.9622086585e-04 0.0000000000e+00 
          -9.5895945567e-05 -4.9636042270e-04 0.0000000000e+00 
          -9.6354074485e-05 -4.9646885897e-04 0.0000000000e+00 
          -9.6681699166e-05 -4.9654645010e-04 0.0000000000e+00 
          -9.6878415292e-05 -4.9659296792e-04 0.0000000000e+00 
          -1.5074713304e-05 -4.7422105587e-04 0.0000000000e+00 
          -1.8717907369e-05 -4.7538375089e-04 0.0000000000e+00 
          -2.2325438665e-05 -4.7651561787e-04 0.0000000000e+00 
          -2.5892791765e-05 -4.7761628563e-04 0.0000000000e+00 
          -2.9415443643e-05 -4.7868609184e-04 0.0000000000e+00 
          -3.2888952599e-05 -4.7972489356e-04 0.0000000000e+00 
          -3.6308992375e-05 -4.8073250432e-04 0.0000000000e+00 
          -3.9671269516e-05 -4.8170937761e-04 0.0000000000e+00 
          -4.2971608595e-05 -4.8265501577e-04 0.0000000000e+00 
          -4.6205913854e-05 -4.8356978235e-04 0.0000000000e+00 
          -4.9370155328e-05 -4.8445350395e-04 0.0000000000e+00 
          -5.2460464904e-05 -4.8530612962e-04 0.0000000000e+00 
          -5.5473015008e-05 -4.8612796509e-04 0.0000000000e+00 
          -5.8404110827e-05 -4.8691852248e-04 0.0000000000e+00 
          -6.1250173828e-05 -4.8767825294e-04 0.0000000000e+00 
          -6.4007716431e-05 -4.8840701232e-04 0.0000000000e+00 
          -6.6673396942e-05 -4.8910451536e-04 0.0000000000e+00 
          -6.9243972016e-05 -4.8977133512e-04 0.0000000000e+00 
          -7.1716330507e-05 -4.9040688129e-04 0.0000000000e+00 
          -7.4087487423e-05 -4.9101159836e-04 0.0000000000e+00 
          -7.6354588243e-05 -4.9158519321e-04 0.0000000000e+00 
          -7.8514897680e-05 -4.9212785827e-04 0.0000000000e+00 
          -8.0565855296e-05 -4.9263947582e-04 0.0000000000e+00 
          -8.2504973644e-05 -4.9312007588e-04 0.0000000000e+00 
          -8.4329950218e-05 -4.9356970766e-04 0.0000000000e+00 
          -8.6038636889e-05 -4.9398830164e-04 0.0000000000e+00 
          -8.7628961873e-05 -4.9437591894e-04 0.0000000000e+00 
          -8.9099074845e-05 -4.9473244302e-04 0.0000000000e+00 
          -9.0447212094e-05 -4.9505813240e-04 0.0000000000e+00 
          -9.1671782378e-05 -4.9535259835e-04 0.0000000000e+00 
          -9.2771365376e-05 -4.9561620413e-04 0.0000000000e+00 
          -9.3744636012e-05 -4.9584881504e-04 0.0000000000e+00 
          -9.4590454008e-05 -4.9605026272e-04 0.0000000000e+00 
          -9.5307846790e-05 -4.9622086585e-04 0.0000000000e+00 
          -9.5895945567e-05 -4.9636042270e-04 0.0000000000e+00 
          -9.6354074485e-05 -4.9646885897e-04 0.0000000000e+00 
          -9.6681699166e-05 -4.9654645010e-04 0.0000000000e+00 
          -9.6878415292e-05 -4.9659296792e-04 0.0000000000e+00 
        </DataArray>
        <DataArray type="Float64" Name="Acceleration" NumberOfComponents="3" format="ascii">
          2.3720550944e-03 -2.5645248490e-06 0.0000000000e+00 
          2.3720550944e-03 -2.5645248490e-06 0.0000000000e+00 
          1.1822468832e-02 -2.8119933341e-05 0.0000000000e+00 
          1.1822468832e-02 -2.8119933341e-05 0.0000000000e+00 
          2.7929575223e-03 2.3176171752e-05 0.0000000000e+00 
          3.2128654394e-03 -3.2393630074e-05 0.0000000000e+00 
          3.6205597266e-03 3.5028740386e-05 0.0000000000e+00 
          4.0276683878e-03 -2.6091778983e-05 0.0000000000e+00 
          4.4278743372e-03 -3.3182283010e-07 0.0000000000e+00 
          4.8172812205e-03 3.3036755531e-05 0.0000000000e+00 
          5.2049315021e-03 -4.8212671398e-05 0.0000000000e+00 
          5.5807417036e-03 4.1230732196e-05 0.0000000000e+00 
          5.9497775634e-03 -2.4283702219e-05 0.0000000000e+00 
          6.3125187849e-03 6.7607129985e-06 0.0000000000e+00 
          6.6617851232e-03 1.6355714092e-05 0.0000000000e+00 
          7.0062819083e-03 -3.8950478522e-05 0.0000000000e+00 
          7.3391919069e-03 4.8971409624e-05 0.0000000000e+00 
          7.6616249123e-03 -3.2331226203e-05 0.0000000000e+00 
          7.9755447805e-03 -6.5205085791e-06 0.0000000000e+00 
          8.2772842801e-03 4.5225705869e-05 0.0000000000e+00 
          8.5691877442e-03 -5.8216133569e-05 0.0000000000e+00 
          8.8495081202e-03 4.8160344516e-05 0.0000000000e+00 
          9.1181898543e-03 -3.2075118319e-05 0.0000000000e+00 
          9.3759436510e-03 2.1025831564e-05 0.0000000000e+00 
          9.6221145029e-03 -1.3793535115e-05 0.0000000000e+00 
          9.8528149890e-03 7.4184257819e-06 0.0000000000e+00 
          1.0076718328e-02 1.9035137732e-06 0.0000000000e+00 
          1.0284633107e-02 -6.7448986369e-06 0.0000000000e+00 
          1.0477949883e-02 5.6722887452e-06 0.0000000000e+00 
          1.0664621711e-02 -5.3463352516e-06 0.0000000000e+00 
          1.0831339728e-02 1.5659002773e-05 0.0000000000e+00 
          1.0990102792e-02 -3.1004944393e-05 0.0000000000e+00 
          1.1133792629e-02 3.9203733688e-05 0.0000000000e+00 
          1.1261601378e-02 -2.6341903611e-05 0.0000000000e+00 
          1.1380993249e-02 -2.0668441245e-06 0.0000000000e+00 
          1.1483642855e-02 2.8230135689e-05 0.0000000000e+00 
          1.1571472115e-02 -2.9102642077e-05 0.0000000000e+00 
          1.1649645147e-02 7.1960237681e-06 0.0000000000e+00 
          1.1710540948e-02 2.0588108687e-05 0.0000000000e+00 
          1.1758658804e-02 -2.9062765460e-05 0.0000000000e+00 
          1.1795165311e-02 1.2089585463e-05 0.0000000000e+00 
          1.1813277035e-02 1.5558853716e-05 0.0000000000e+00 
          2.7929575223e-03 2.3176171752e-05 0.0000000000e+00 
          3.2128654394e-03 -3.2393630074e-05 0.0000000000e+00 
          3.6205597266e-03 3.5028740386e-05 0.0000000000e+00 
          4.0276683878e-03 -2.6091778983e-05 0.0000000000e+00 
          4.4278743372e-03 -3.3182283010e-07 0.0000000000e+00 
          4.8172812205e-03 3.3036755531e-05 0.0000000000e+00 
          5.2049315021e-03 -4.8212671398e-05 0.0000000000e+00 
          5.5807417036e-03 4.1230732196e-05 0.0000000000e+00 
          5.9497775634e-03 -2.4283702219e-05 0.0000000000e+00 
          6.3125187849e-03 6.7607129985e-06 0.0000000000e+00 
          6.6617851232e-03 1.6355714092e-05 0.0000000000e+00 
          7.0062819083e-03 -3.8950478522e-05 0.0000000000e+00 
          7.3391919069e-03 4.8971409624e-05 0.0000000000e+00 
          7.6616249123e-03 -3.2331226203e-05 0.0000000000e+00 
          7.9755447805e-03 -6.5205085791e-06 0.0000000000e+00 
          8.2772842801e-03 4.5225705869e-05 0.0000000000e+00 
          8.5691877442e-03 -5.8216133569e-05 0.0000000000e+00 
          8.8495081202e-03 4.8160344516e-05 0.0000000000e+00 
          9.1181898543e-03 -3.2075118319e-05 0.0000000000e+00 
          9.3759436510e-03 2.1025831564e-05 0.0000000000e+00 
          9.6221145029e-03 -1.3793535115e-05 0.0000000000e+00 
          9.8528149890e-03 7.4184257819e-06 0.0000000000e+00 
          1.0076718328e-02 1.9035137732e-06 0.0000000000e+00 
          1.0284633107e-02 -6.7448986369e-06 0.0000000000e+00 
          1.0477949883e-02 5.6722887452e-06 0.0000000000e+00 
          1.0664621711e-02 -5.3463352516e-06 0.0000000000e+00 
          1.0831339728e-02 1.5659002773e-05 0.0000000000e+00 
          1.0990102792e-02 -3.1004944393e-05 0.0000000000e+00 
          1.1133792629e-02 3.9203733688e-05 0.0000000000e+00 
          1.1261601378e-02 -2.6341903611e-05 0.0000000000e+00 
          1.1380993249e-02 -2.0668441245e-06 0.0000000000e+00 
          1.1483642855e-02 2.8230135689e-05 0.0000000000e+00 
          1.1571472115e-02 -2.9102642077e-05 0.0000000000e+00 
          1.1649645147e-02 7.1960237681e-06 0.0000000000e+00 
          1.1710540948e-02 2.0588108687e-05 0.0000000000e+00 
          1.1758658804e-02 -2.9062765460e-05 0.0000000000e+00 
          1.1795165311e-02 1.2089585463e-05 0.0000000000e+00 
          1.1813277035e-02 1.5558853716e-05 0.0000000000e+00 
        </DataArray>
        <DataArray type="Float64" Name="Reaction" NumberOfComponents="3" format="ascii">
          0.0000000000e+00 0.0000000000e+00 0.0000000000e+00 
          0.0000000000e+00 0.0000000000e+00 0.0000000000e+00 
          0.0000000000e+00 0.0000000000e+00 0.0000000000e+00 
          0.0000000000e+00 0.0000000000e+00 0.0000000000e+00 
          0.0000000000e+00 0.0000000000e+00 0.0000000000e+00 
          0.0000000000e+00 0.0000000000e+00 0.0000000000e+00 
          0.0000000000e+00 0.0000000000e+00 0.0000000000e+00 
          0.0000000000e+00 0.0000000000e+00 0.0000000000e+00 
          0.0000000000e+00 0.0000000000e+00 0.0000000000e+00 
          0.0000000000e+00 0.0000000000e+00 0.0000000000e+00 
          0.0000000000e+00 0.0000000000e+00 0.0000000000e+00 
          0.0000000000e+00 0.0000000000e+00 0.0000000000e+00 
          0.0000000000e+00 0.0000000000e+00 0.0000000000e+00 
          0.0000000000e+00 0.0000000000e+00 0.0000000000e+00 
          0.0000000000e+00 0.0000000000e+00 0.0000000000e+00 
          0.0000000000e+00 0.0000000000e+00 0.0000000000e+00 
          0.0000000000e+00 0.0000000000e+00 0.0000000000e+00 
          0.0000000000e+00 0.0000000000e+00 0.0000000000e+00 
          0.0000000000e+00 0.0000000000e+00 0.0000000000e+00 
          0.0000000000e+00 0.0000000000e+00 0.0000000000e+00 
          0.0000000000e+00 0.0000000000e+00 0.0000000000e+00 
          0.0000000000e+00 0.0000000000e+00 0.0000000000e+00 
          0.0000000000e+00 0.0000000000e+00 0.0000000000e+00 
          0.0000000000e+00 0.0000000000e+00 0.0000000000e+00 
          0.0000000000e+00 0.0000000000e+00 0.0000000000e+00 
          0.0000000000e+00 0.0000000000e+00 0.0000000000e+00 
          0.0000000000e+00 0.0000000000e+00 0.0000000000e+00 
          0.0000000000e+00 0.0000000000e+00 0.0000000000e+00 
          0.0000000000e+00 0.0000000000e+00 0.0000000000e+00 
          0.0000000000e+00 0.0000000000e+00 0.0000000000e+00 
          0.0000000000e+00 0.0000000000e+00 0.0000000000e+00 
          0.0000000000e+00 0.0000000000e+00 0.0000000000e+00 
          0.0000000000e+00 0.0000000000e+00 0.0000000000e+00 
          0.0000000000e+00 0.0000000000e+00 0.0000000000e+00 
          0.0000000000e+00 0.0000000000e+00 0.0000000000e+00 
          0.0000000000e+00 0.0000000000e+00 0.0000000000e+00 
          0.0000000000e+00 0.0000000000e+00 0.0000000000e+00 
          0.0000000000e+00 0.0000000000e+00 0.0000000000e+00 
          0.0000000000e+00 0.0000000000e+00 0.0000000000e+00 
          0.0000000000e+00 0.0000000000e+00 0.0000000000e+00 
          0.0000000000e+00 0.0000000000e+00 0.0000000000e+00 
          0.0000000000e+00 0.0000000000e+00 0.0000000000e+00 
          0.0000000000e+00 0.0000000000e+00 0.0000000000e+00 
          0.0000000000e+00 0.0000000000e+00 0.0000000000e+00 
          0.0000000000e+00 0.0000000000e+00 0.0000000000e+00 
          0.0000000000e+00 0.0000000000e+00 0.0000000000e+00 
          0.0000000000e+00 0.0000000000e+00 0.0000000000e+00 
          0.0000000000e+00 0.0000000000e+00 0.0000000000e+00 
          0.0000000000e+00 0.0000000000e+00 0.0000000000e+00 
          0.0000000000e+00 0.0000000000e+00 0.0000000000e+00 
          0.0000000000e+00 0.0000000000e+00 0.0000000000e+00 
          0.0000000000e+00 0.0000000000e+00 0.0000000000e+00 
          0.0000000000e+00 0.0000000000e+00 0.0000000000e+00 
          0.0000000000e+00 0.0000000000e+00 0.0000000000e+00 
          0.0000000000e+00 0.0000000000e+00 0.0000000000e+00 
          0.0000000000e+00 0.0000000000e+00 0.0000000000e+00 
          0.0000000000e+00 0.0000000000e+00 0.0000000000e+00 
          0.0000000000e+00 0.0000000000e+00 0.0000000000e+00 
          0.0000000000e+00 0.0000000000e+00 0.0000000000e+00 
          0.0000000000e+00 0.0000000000e+00 0.0000000000e+00 
          0.0000000000e+00 0.0000000000e+00 0.0000000000e+00 
          0.0000000000e+00 0.0000000000e+00 0.0000000000e+00 
          0.0000000000e+00 0.0000000000e+00 0.0000000000e+00 
          0.0000000000e+00 0.0000000000e+00 0.0000000000e+00 
          0.0000000000e+00 0.0000000000e+00 0.0000000000e+00 
          0.0000000000e+00 0.0000000000e+00 0.0000000000e+00 
          0.0000000000e+00 0.0000000000e+00 0.0000000000e+00 
          0.0000000000e+00 0.0000000000e+00 0.0000000000e+00 
          0.0000000000e+00 0.0000000000e+00 0.0000000000e+00 
          0.0000000000e+00 0.0000000000e+00 0.0000000000e+00 
          0.0000000000e+00 0.0000000000e+00 0.0000000000e+00 
          0.0000000000e+00 0.0000000000e+00 0.0000000000e+00 
          0.0000000000e+00 0.0000000000e+00 0.0000000000e+00 
          0.0000000000e+00 0.0000000000e+00 0.0000000000e+00 
          0.0000000000e+00 0.0000000000e+00 0.0000000000e+00 
          0.0000000000e+00 0.0000000000e+00 0.0000000000e+00 
          0.0000000000e+00 0.0000000000e+00 0.0000000000e+00 
          0.0000000000e+00 0.0000000000e+00 0.0000000000e+00 
          0.0000000000e+00 0.0000000000e+00 0.0000000000e+00 
          0.0000000000e+00 0.0000000000e+00 0.0000000000e+00 
        </DataArray>
      </PointData>
      <CellData>
        <DataArray type="Int64" Name="ElementTag" format="ascii">
          90
          91
          92
          93
          94
          95
          96
          97
          98
          99
          100
          101
          102
          103
          104
          105
          106
          107
          108
          109
          110
          111
          112
          113
          114
          115
          116
          117
          118
          119
          120
          121
          122
          123
          124
          125
          126
          127
          128
        </DataArray>
      </CellData>
    </Piece>
  </UnstructuredGrid>
</VTKFile>
