<?xml version="1.0"?>
<VTKFile type="UnstructuredGrid" version="1.0" byte_order="LittleEndian" compressor="vtkZLibDataCompressor">
  <UnstructuredGrid>
    <Piece NumberOfPoints="80" NumberOfCells="39">
      <Points>
        <DataArray type="Float64" Name="Points" NumberOfComponents="3" format="ascii">
          0.0000000000e+00 0.0000000000e+00 0.0000000000e+00 
          2.5000000000e-01 0.0000000000e+00 0.0000000000e+00 
          2.5000000000e-01 3.0000000000e+01 0.0000000000e+00 
          0.0000000000e+00 3.0000000000e+01 0.0000000000e+00 
          2.5000000000e-01 7.6923100000e-01 0.0000000000e+00 
          2.5000000000e-01 1.5384620000e+00 0.0000000000e+00 
          2.5000000000e-01 2.3076920000e+00 0.0000000000e+00 
          2.5000000000e-01 3.0769230000e+00 0.0000000000e+00 
          2.5000000000e-01 3.8461540000e+00 0.0000000000e+00 
          2.5000000000e-01 4.6153850000e+00 0.0000000000e+00 
          2.5000000000e-01 5.3846150000e+00 0.0000000000e+00 
          2.5000000000e-01 6.1538460000e+00 0.0000000000e+00 
          2.5000000000e-01 6.9230770000e+00 0.0000000000e+00 
          2.5000000000e-01 7.6923080000e+00 0.0000000000e+00 
          2.5000000000e-01 8.4615380000e+00 0.0000000000e+00 
          2.5000000000e-01 9.2307690000e+00 0.0000000000e+00 
          2.5000000000e-01 1.0000000000e+01 0.0000000000e+00 
          2.5000000000e-01 1.0769231000e+01 0.0000000000e+00 
          2.5000000000e-01 1.1538462000e+01 0.0000000000e+00 
          2.5000000000e-01 1.2307692000e+01 0.0000000000e+00 
          2.5000000000e-01 1.3076923000e+01 0.0000000000e+00 
          2.5000000000e-01 1.3846154000e+01 0.0000000000e+00 
          2.5000000000e-01 1.4615385000e+01 0.0000000000e+00 
          2.5000000000e-01 1.5384615000e+01 0.0000000000e+00 
          2.5000000000e-01 1.6153846000e+01 0.0000000000e+00 
          2.5000000000e-01 1.6923077000e+01 0.0000000000e+00 
          2.5000000000e-01 1.7692308000e+01 0.0000000000e+00 
          2.5000000000e-01 1.8461538000e+01 0.0000000000e+00 
          2.5000000000e-01 1.9230769000e+01 0.0000000000e+00 
          2.5000000000e-01 2.0000000000e+01 0.0000000000e+00 
          2.5000000000e-01 2.0769231000e+01 0.0000000000e+00 
          2.5000000000e-01 2.1538462000e+01 0.0000000000e+00 
          2.5000000000e-01 2.2307692000e+01 0.0000000000e+00 
          2.5000000000e-01 2.3076923000e+01 0.0000000000e+00 
          2.5000000000e-01 2.3846154000e+01 0.0000000000e+00 
          2.5000000000e-01 2.4615385000e+01 0.0000000000e+00 
          2.5000000000e-01 2.5384615000e+01 0.0000000000e+00 
          2.5000000000e-01 2.6153846000e+01 0.0000000000e+00 
          2.5000000000e-01 2.6923077000e+01 0.0000000000e+00 
          2.5000000000e-01 2.7692308000e+01 0.0000000000e+00 
          2.5000000000e-01 2.8461538000e+01 0.0000000000e+00 
          2.5000000000e-01 2.9230769000e+01 0.0000000000e+00 
          0.0000000000e+00 7.6923100000e-01 0.0000000000e+00 
          0.0000000000e+00 1.5384620000e+00 0.0000000000e+00 
          0.0000000000e+00 2.3076920000e+00 0.0000000000e+00 
          0.0000000000e+00 3.0769230000e+00 0.0000000000e+00 
          0.0000000000e+00 3.8461540000e+00 0.0000000000e+00 
          0.0000000000e+00 4.6153850000e+00 0.0000000000e+00 
          0.0000000000e+00 5.3846150000e+00 0.0000000000e+00 
          0.0000000000e+00 6.1538460000e+00 0.0000000000e+00 
          0.0000000000e+00 6.9230770000e+00 0.0000000000e+00 
          0.0000000000e+00 7.6923080000e+00 0.0000000000e+00 
          0.0000000000e+00 8.4615380000e+00 0.0000000000e+00 
          0.0000000000e+00 9.2307690000e+00 0.0000000000e+00 
          0.0000000000e+00 1.0000000000e+01 0.0000000000e+00 
          0.0000000000e+00 1.0769231000e+01 0.0000000000e+00 
          0.0000000000e+00 1.1538462000e+01 0.0000000000e+00 
          0.0000000000e+00 1.2307692000e+01 0.0000000000e+00 
          0.0000000000e+00 1.3076923000e+01 0.0000000000e+00 
          0.0000000000e+00 1.3846154000e+01 0.0000000000e+00 
          0.0000000000e+00 1.4615385000e+01 0.0000000000e+00 
          0.0000000000e+00 1.5384615000e+01 0.0000000000e+00 
          0.0000000000e+00 1.6153846000e+01 0.0000000000e+00 
          0.0000000000e+00 1.6923077000e+01 0.0000000000e+00 
          0.0000000000e+00 1.7692308000e+01 0.0000000000e+00 
          0.0000000000e+00 1.8461538000e+01 0.0000000000e+00 
          0.0000000000e+00 1.9230769000e+01 0.0000000000e+00 
          0.0000000000e+00 2.0000000000e+01 0.0000000000e+00 
          0.0000000000e+00 2.0769231000e+01 0.0000000000e+00 
          0.0000000000e+00 2.1538462000e+01 0.0000000000e+00 
          0.0000000000e+00 2.2307692000e+01 0.0000000000e+00 
          0.0000000000e+00 2.3076923000e+01 0.0000000000e+00 
          0.0000000000e+00 2.3846154000e+01 0.0000000000e+00 
          0.0000000000e+00 2.4615385000e+01 0.0000000000e+00 
          0.0000000000e+00 2.5384615000e+01 0.0000000000e+00 
          0.0000000000e+00 2.6153846000e+01 0.0000000000e+00 
          0.0000000000e+00 2.6923077000e+01 0.0000000000e+00 
          0.0000000000e+00 2.7692308000e+01 0.0000000000e+00 
          0.0000000000e+00 2.8461538000e+01 0.0000000000e+00 
          0.0000000000e+00 2.9230769000e+01 0.0000000000e+00 
        </DataArray>
      </Points>
      <Cells>
        <DataArray type="Int64" Name="connectivity" format="ascii">
          0 1 4 42 
          42 4 5 43 
          43 5 6 44 
          44 6 7 45 
          45 7 8 46 
          46 8 9 47 
          47 9 10 48 
          48 10 11 49 
          49 11 12 50 
          50 12 13 51 
          51 13 14 52 
          52 14 15 53 
          53 15 16 54 
          54 16 17 55 
          55 17 18 56 
          56 18 19 57 
          57 19 20 58 
          58 20 21 59 
          59 21 22 60 
          60 22 23 61 
          61 23 24 62 
          62 24 25 63 
          63 25 26 64 
          64 26 27 65 
          65 27 28 66 
          66 28 29 67 
          67 29 30 68 
          68 30 31 69 
          69 31 32 70 
          70 32 33 71 
          71 33 34 72 
          72 34 35 73 
          73 35 36 74 
          74 36 37 75 
          75 37 38 76 
          76 38 39 77 
          77 39 40 78 
          78 40 41 79 
          79 41 2 3 
        </DataArray>
        <DataArray type="Int64" Name="offsets" format="ascii">
          4
          8
          12
          16
          20
          24
          28
          32
          36
          40
          44
          48
          52
          56
          60
          64
          68
          72
          76
          80
          84
          88
          92
          96
          100
          104
          108
          112
          116
          120
          124
          128
          132
          136
          140
          144
          148
          152
          156
        </DataArray>
        <DataArray type="Int64" Name="types" format="ascii">
          9
          9
          9
          9
          9
          9
          9
          9
          9
          9
          9
          9
          9
          9
          9
          9
          9
          9
          9
          9
          9
          9
          9
          9
          9
          9
          9
          9
          9
          9
          9
          9
          9
          9
          9
          9
          9
          9
          9
        </DataArray>
      </Cells>
      <PointData>
        <DataArray type="Int64" Name="NodeTag" format="ascii">
          1
          2
          3
          4
          7
          8
          9
          10
          11
          12
          13
          14
          15
          16
          17
          18
          19
          20
          21
          22
          23
          24
          25
          26
          27
          28
          29
          30
          31
          32
          33
          34
          35
          36
          37
          38
          39
          40
          41
          42
          43
          44
          45
          46
          47
          48
          49
          50
          51
          52
          53
          54
          55
          56
          57
          58
          59
          60
          61
          62
          63
          64
          65
          66
          67
          68
          69
          70
          71
          72
          73
          74
          75
          76
          77
          78
          79
          80
          81
          82
        </DataArray>
        <DataArray type="Float64" Name="Velocity" NumberOfComponents="3" format="ascii">
          6.5050547802e-20 -1.2540445713e-04 0.0000000000e+00 
          6.5050547802e-20 -1.2540445713e-04 0.0000000000e+00 
          7.9463228385e-20 -1.9026202664e-04 0.0000000000e+00 
          7.9463228385e-20 -1.9026202664e-04 0.0000000000e+00 
          1.7864009614e-20 -1.3660548485e-04 0.0000000000e+00 
          -2.3765823043e-18 -1.4764639553e-04 0.0000000000e+00 
          2.3042630942e-18 -1.5839378124e-04 0.0000000000e+00 
          -9.2839716386e-19 -1.6853690429e-04 0.0000000000e+00 
          -2.0890257108e-18 -1.7776908498e-04 0.0000000000e+00 
          5.1203812114e-18 -1.8556189190e-04 0.0000000000e+00 
          -1.8489955753e-18 -1.9138405513e-04 0.0000000000e+00 
          -2.4001308132e-18 -1.9482697920e-04 0.0000000000e+00 
          4.2647365819e-18 -1.9554531434e-04 0.0000000000e+00 
          -2.7050945961e-18 -1.9414143584e-04 0.0000000000e+00 
          1.6838107325e-19 -1.9112845383e-04 0.0000000000e+00 
          2.0540926138e-18 -1.8844589731e-04 0.0000000000e+00 
          -3.8172491254e-18 -1.8681567177e-04 0.0000000000e+00 
          3.9086875803e-18 -1.8745509685e-04 0.0000000000e+00 
          -4.5996713359e-18 -1.8931938009e-04 0.0000000000e+00 
          2.8943788232e-18 -1.9109098335e-04 0.0000000000e+00 
          -3.3802045432e-18 -1.9158126260e-04 0.0000000000e+00 
          5.6397976347e-18 -1.9006921105e-04 0.0000000000e+00 
          -5.4925276271e-18 -1.8877976065e-04 0.0000000000e+00 
          4.8591689245e-18 -1.8837039836e-04 0.0000000000e+00 
          -5.5568625421e-18 -1.8955404918e-04 0.0000000000e+00 
          5.8579588684e-18 -1.9087696844e-04 0.0000000000e+00 
          -4.0836727299e-18 -1.9024530923e-04 0.0000000000e+00 
          5.8539475348e-18 -1.8930873099e-04 0.0000000000e+00 
          -4.9683496374e-18 -1.8887271284e-04 0.0000000000e+00 
          1.0488021852e-18 -1.8959288706e-04 0.0000000000e+00 
          2.8334910757e-18 -1.9069150243e-04 0.0000000000e+00 
          -6.7257589294e-18 -1.8977339894e-04 0.0000000000e+00 
          5.6336015152e-18 -1.8889903267e-04 0.0000000000e+00 
          -6.8165554520e-18 -1.8973108021e-04 0.0000000000e+00 
          4.0563948830e-18 -1.9012627072e-04 0.0000000000e+00 
          1.4152107217e-18 -1.8977046922e-04 0.0000000000e+00 
          7.5984413496e-20 -1.8946969620e-04 0.0000000000e+00 
          4.3741501874e-19 -1.8944357203e-04 0.0000000000e+00 
          5.0145727424e-20 -1.8999833971e-04 0.0000000000e+00 
          -1.3780784464e-19 -1.8999151878e-04 0.0000000000e+00 
          3.1285838176e-19 -1.8922147118e-04 0.0000000000e+00 
          -2.0913166159e-19 -1.8957163117e-04 0.0000000000e+00 
          1.7864009614e-20 -1.3660548485e-04 0.0000000000e+00 
          -2.3765823043e-18 -1.4764639553e-04 0.0000000000e+00 
          2.3042630942e-18 -1.5839378124e-04 0.0000000000e+00 
          -9.2839716386e-19 -1.6853690429e-04 0.0000000000e+00 
          -2.0890257108e-18 -1.7776908498e-04 0.0000000000e+00 
          5.1203812114e-18 -1.8556189190e-04 0.0000000000e+00 
          -1.8489955753e-18 -1.9138405513e-04 0.0000000000e+00 
          -2.4001308132e-18 -1.9482697920e-04 0.0000000000e+00 
          4.2647365819e-18 -1.9554531434e-04 0.0000000000e+00 
          -2.7050945961e-18 -1.9414143584e-04 0.0000000000e+00 
          1.6838107325e-19 -1.9112845383e-04 0.0000000000e+00 
          2.0540926138e-18 -1.8844589731e-04 0.0000000000e+00 
          -3.8172491254e-18 -1.8681567177e-04 0.0000000000e+00 
          3.9086875803e-18 -1.8745509685e-04 0.0000000000e+00 
          -4.5996713359e-18 -1.8931938009e-04 0.0000000000e+00 
          2.8943788232e-18 -1.9109098335e-04 0.0000000000e+00 
          -3.3802045432e-18 -1.9158126260e-04 0.0000000000e+00 
          5.6397976347e-18 -1.9006921105e-04 0.0000000000e+00 
          -5.4925276271e-18 -1.8877976065e-04 0.0000000000e+00 
          4.8591689245e-18 -1.8837039836e-04 0.0000000000e+00 
          -5.5568625421e-18 -1.8955404918e-04 0.0000000000e+00 
          5.8579588684e-18 -1.9087696844e-04 0.0000000000e+00 
          -4.0836727299e-18 -1.9024530923e-04 0.0000000000e+00 
          5.8539475348e-18 -1.8930873099e-04 0.0000000000e+00 
          -4.9683496374e-18 -1.8887271284e-04 0.0000000000e+00 
          1.0488021852e-18 -1.8959288706e-04 0.0000000000e+00 
          2.8334910757e-18 -1.9069150243e-04 0.0000000000e+00 
          -6.7257589294e-18 -1.8977339894e-04 0.0000000000e+00 
          5.6336015152e-18 -1.8889903267e-04 0.0000000000e+00 
          -6.8165554520e-18 -1.8973108021e-04 0.0000000000e+00 
          4.0563948830e-18 -1.9012627072e-04 0.0000000000e+00 
          1.4152107217e-18 -1.8977046922e-04 0.0000000000e+00 
          7.5984413496e-20 -1.8946969620e-04 0.0000000000e+00 
          4.3741501874e-19 -1.8944357203e-04 0.0000000000e+00 
          5.0145727424e-20 -1.8999833971e-04 0.0000000000e+00 
          -1.3780784464e-19 -1.8999151878e-04 0.0000000000e+00 
          3.1285838176e-19 -1.8922147118e-04 0.0000000000e+00 
          -2.0913166159e-19 -1.8957163117e-04 0.0000000000e+00 
        </DataArray>
        <DataArray type="Float64" Name="Displacement" NumberOfComponents="3" format="ascii">
          2.7989613647e-21 -1.0694550395e-05 0.0000000000e+00 
          2.7989613647e-21 -1.0694550395e-05 0.0000000000e+00 
          2.9745693707e-21 -5.1220433123e-05 0.0000000000e+00 
          2.9745693707e-21 -5.1220433123e-05 0.0000000000e+00 
          1.8176923013e-21 -1.2629100599e-05 0.0000000000e+00 
          -2.7126571361e-21 -1.4536204959e-05 0.0000000000e+00 
          3.0009456968e-21 -1.6415318671e-05 0.0000000000e+00 
          9.9025752110e-21 -1.8265227851e-05 0.0000000000e+00 
          6.7939853118e-21 -2.0084382319e-05 0.0000000000e+00 
          1.1167676853e-20 -2.1869727771e-05 0.0000000000e+00 
          1.1511280304e-20 -2.3617639259e-05 0.0000000000e+00 
          4.7163821764e-21 -2.5322474681e-05 0.0000000000e+00 
          1.1933796560e-20 -2.6978627994e-05 0.0000000000e+00 
          8.3346565510e-21 -2.8579685893e-05 0.0000000000e+00 
          1.7348766530e-21 -3.0121527822e-05 0.0000000000e+00 
          1.1674604723e-20 -3.1602296105e-05 0.0000000000e+00 
          3.5968378986e-21 -3.3023722923e-05 0.0000000000e+00 
          8.1842284946e-21 -3.4390416185e-05 0.0000000000e+00 
          1.0079330646e-20 -3.5706064775e-05 0.0000000000e+00 
          7.8427196649e-21 -3.6973264278e-05 0.0000000000e+00 
          1.0741972219e-20 -3.8188951209e-05 0.0000000000e+00 
          5.5810848682e-21 -3.9349770429e-05 0.0000000000e+00 
          1.0085930808e-20 -4.0452912721e-05 0.0000000000e+00 
          3.1097839794e-21 -4.1499414152e-05 0.0000000000e+00 
          8.4669707090e-21 -4.2494073179e-05 0.0000000000e+00 
          -5.9488301858e-22 -4.3437500303e-05 0.0000000000e+00 
          1.5333972806e-20 -4.4328573364e-05 0.0000000000e+00 
          1.3989578422e-20 -4.5163715709e-05 0.0000000000e+00 
          2.5930565477e-21 -4.5941996735e-05 0.0000000000e+00 
          2.2689953729e-20 -4.6668158520e-05 0.0000000000e+00 
          1.1544425351e-22 -4.7342553563e-05 0.0000000000e+00 
          1.4055419400e-20 -4.7962860795e-05 0.0000000000e+00 
          7.0817989105e-21 -4.8527953727e-05 0.0000000000e+00 
          1.9812948276e-21 -4.9037805404e-05 0.0000000000e+00 
          1.5708598394e-20 -4.9495826613e-05 0.0000000000e+00 
          -1.2825707258e-21 -4.9901602313e-05 0.0000000000e+00 
          3.6507022187e-23 -5.0250642229e-05 0.0000000000e+00 
          2.3920193679e-21 -5.0545381616e-05 0.0000000000e+00 
          4.1212726324e-21 -5.0789153243e-05 0.0000000000e+00 
          2.3563900676e-21 -5.0978123125e-05 0.0000000000e+00 
          2.5831889597e-21 -5.1111262804e-05 0.0000000000e+00 
          3.3203149960e-21 -5.1192427853e-05 0.0000000000e+00 
          1.8176923013e-21 -1.2629100599e-05 0.0000000000e+00 
          -2.7126571361e-21 -1.4536204959e-05 0.0000000000e+00 
          3.0009456968e-21 -1.6415318671e-05 0.0000000000e+00 
          9.9025752110e-21 -1.8265227851e-05 0.0000000000e+00 
          6.7939853118e-21 -2.0084382319e-05 0.0000000000e+00 
          1.1167676853e-20 -2.1869727771e-05 0.0000000000e+00 
          1.1511280304e-20 -2.3617639259e-05 0.0000000000e+00 
          4.7163821764e-21 -2.5322474681e-05 0.0000000000e+00 
          1.1933796560e-20 -2.6978627994e-05 0.0000000000e+00 
          8.3346565510e-21 -2.8579685893e-05 0.0000000000e+00 
          1.7348766530e-21 -3.0121527822e-05 0.0000000000e+00 
          1.1674604723e-20 -3.1602296105e-05 0.0000000000e+00 
          3.5968378986e-21 -3.3023722923e-05 0.0000000000e+00 
          8.1842284946e-21 -3.4390416185e-05 0.0000000000e+00 
          1.0079330646e-20 -3.5706064775e-05 0.0000000000e+00 
          7.8427196649e-21 -3.6973264278e-05 0.0000000000e+00 
          1.0741972219e-20 -3.8188951209e-05 0.0000000000e+00 
          5.5810848682e-21 -3.9349770429e-05 0.0000000000e+00 
          1.0085930808e-20 -4.0452912721e-05 0.0000000000e+00 
          3.1097839794e-21 -4.1499414152e-05 0.0000000000e+00 
          8.4669707090e-21 -4.2494073179e-05 0.0000000000e+00 
          -5.9488301858e-22 -4.3437500303e-05 0.0000000000e+00 
          1.5333972806e-20 -4.4328573364e-05 0.0000000000e+00 
          1.3989578422e-20 -4.5163715709e-05 0.0000000000e+00 
          2.5930565477e-21 -4.5941996735e-05 0.0000000000e+00 
          2.2689953729e-20 -4.6668158520e-05 0.0000000000e+00 
          1.1544425351e-22 -4.7342553563e-05 0.0000000000e+00 
          1.4055419400e-20 -4.7962860795e-05 0.0000000000e+00 
          7.0817989105e-21 -4.8527953727e-05 0.0000000000e+00 
          1.9812948276e-21 -4.9037805404e-05 0.0000000000e+00 
          1.5708598394e-20 -4.9495826613e-05 0.0000000000e+00 
          -1.2825707258e-21 -4.9901602313e-05 0.0000000000e+00 
          3.6507022187e-23 -5.0250642229e-05 0.0000000000e+00 
          2.3920193679e-21 -5.0545381616e-05 0.0000000000e+00 
          4.1212726324e-21 -5.0789153243e-05 0.0000000000e+00 
          2.3563900676e-21 -5.0978123125e-05 0.0000000000e+00 
          2.5831889597e-21 -5.1111262804e-05 0.0000000000e+00 
          3.3203149960e-21 -5.1192427853e-05 0.0000000000e+00 
        </DataArray>
        <DataArray type="Float64" Name="Acceleration" NumberOfComponents="3" format="ascii">
          -5.3392859320e-17 -7.2193376395e-04 0.0000000000e+00 
          -5.3392859320e-17 -7.2193376395e-04 0.0000000000e+00 
          -3.5553479034e-17 4.5058561114e-03 0.0000000000e+00 
          -3.5553479034e-17 4.5058561114e-03 0.0000000000e+00 
          -3.2304310098e-16 -6.4161510735e-04 0.0000000000e+00 
          7.3578207273e-16 -5.4387579737e-04 0.0000000000e+00 
          2.2875497184e-16 -3.2424877757e-04 0.0000000000e+00 
          -8.6131226147e-16 -4.5343877654e-05 0.0000000000e+00 
          1.9870939670e-16 5.0505376478e-04 0.0000000000e+00 
          -5.1474472766e-17 1.1578788198e-03 0.0000000000e+00 
          -1.9555227541e-16 2.1754273198e-03 0.0000000000e+00 
          7.0631897044e-16 3.1852437687e-03 0.0000000000e+00 
          -1.0988881259e-15 4.3409469589e-03 0.0000000000e+00 
          -8.1125373088e-17 5.0831331884e-03 0.0000000000e+00 
          1.9257271857e-15 5.4186160200e-03 0.0000000000e+00 
          -1.9539462737e-15 5.1061020187e-03 0.0000000000e+00 
          5.5301072636e-16 4.2757385804e-03 0.0000000000e+00 
          5.0785204885e-16 3.6109869743e-03 0.0000000000e+00 
          -4.5100257642e-16 3.1429614391e-03 0.0000000000e+00 
          8.1461104678e-16 3.6956073756e-03 0.0000000000e+00 
          -1.4829311336e-15 4.2999138592e-03 0.0000000000e+00 
          1.6069007252e-15 4.8061458703e-03 0.0000000000e+00 
          -1.9985759213e-15 4.6192040194e-03 0.0000000000e+00 
          1.0976422618e-15 3.7549927177e-03 0.0000000000e+00 
          -2.8464082453e-16 3.6447269554e-03 0.0000000000e+00 
          1.5680704190e-15 3.8469443402e-03 0.0000000000e+00 
          -2.1419962018e-15 4.4912825659e-03 0.0000000000e+00 
          1.5470075385e-16 4.6593722669e-03 0.0000000000e+00 
          3.4595467094e-15 3.8046286797e-03 0.0000000000e+00 
          -4.7854426194e-15 3.7411069068e-03 0.0000000000e+00 
          3.4237881660e-15 4.1593728416e-03 0.0000000000e+00 
          -2.2797822237e-15 4.3622445488e-03 0.0000000000e+00 
          9.4828298708e-17 4.3673669409e-03 0.0000000000e+00 
          2.3637185468e-15 3.7525905489e-03 0.0000000000e+00 
          -1.8005324206e-15 3.8273828058e-03 0.0000000000e+00 
          1.7721163920e-16 4.6364727786e-03 0.0000000000e+00 
          1.4106178451e-16 4.1977935231e-03 0.0000000000e+00 
          1.9920592234e-16 3.5971272724e-03 0.0000000000e+00 
          -2.5501965990e-16 4.2880265429e-03 0.0000000000e+00 
          7.4681573099e-17 4.4733338674e-03 0.0000000000e+00 
          1.6894132327e-16 3.7786067930e-03 0.0000000000e+00 
          -1.8541532014e-16 3.9921376349e-03 0.0000000000e+00 
          -3.2304310098e-16 -6.4161510735e-04 0.0000000000e+00 
          7.3578207273e-16 -5.4387579737e-04 0.0000000000e+00 
          2.2875497184e-16 -3.2424877757e-04 0.0000000000e+00 
          -8.6131226147e-16 -4.5343877654e-05 0.0000000000e+00 
          1.9870939670e-16 5.0505376478e-04 0.0000000000e+00 
          -5.1474472766e-17 1.1578788198e-03 0.0000000000e+00 
          -1.9555227541e-16 2.1754273198e-03 0.0000000000e+00 
          7.0631897044e-16 3.1852437687e-03 0.0000000000e+00 
          -1.0988881259e-15 4.3409469589e-03 0.0000000000e+00 
          -8.1125373088e-17 5.0831331884e-03 0.0000000000e+00 
          1.9257271857e-15 5.4186160200e-03 0.0000000000e+00 
          -1.9539462737e-15 5.1061020187e-03 0.0000000000e+00 
          5.5301072636e-16 4.2757385804e-03 0.0000000000e+00 
          5.0785204885e-16 3.6109869743e-03 0.0000000000e+00 
          -4.5100257642e-16 3.1429614391e-03 0.0000000000e+00 
          8.1461104678e-16 3.6956073756e-03 0.0000000000e+00 
          -1.4829311336e-15 4.2999138592e-03 0.0000000000e+00 
          1.6069007252e-15 4.8061458703e-03 0.0000000000e+00 
          -1.9985759213e-15 4.6192040194e-03 0.0000000000e+00 
          1.0976422618e-15 3.7549927177e-03 0.0000000000e+00 
          -2.8464082453e-16 3.6447269554e-03 0.0000000000e+00 
          1.5680704190e-15 3.8469443402e-03 0.0000000000e+00 
          -2.1419962018e-15 4.4912825659e-03 0.0000000000e+00 
          1.5470075385e-16 4.6593722669e-03 0.0000000000e+00 
          3.4595467094e-15 3.8046286797e-03 0.0000000000e+00 
          -4.7854426194e-15 3.7411069068e-03 0.0000000000e+00 
          3.4237881660e-15 4.1593728416e-03 0.0000000000e+00 
          -2.2797822237e-15 4.3622445488e-03 0.0000000000e+00 
          9.4828298708e-17 4.3673669409e-03 0.0000000000e+00 
          2.3637185468e-15 3.7525905489e-03 0.0000000000e+00 
          -1.8005324206e-15 3.8273828058e-03 0.0000000000e+00 
          1.7721163920e-16 4.6364727786e-03 0.0000000000e+00 
          1.4106178451e-16 4.1977935231e-03 0.0000000000e+00 
          1.9920592234e-16 3.5971272724e-03 0.0000000000e+00 
          -2.5501965990e-16 4.2880265429e-03 0.0000000000e+00 
          7.4681573099e-17 4.4733338674e-03 0.0000000000e+00 
          1.6894132327e-16 3.7786067930e-03 0.0000000000e+00 
          -1.8541532014e-16 3.9921376349e-03 0.0000000000e+00 
        </DataArray>
        <DataArray type="Float64" Name="Reaction" NumberOfComponents="3" format="ascii">
          0.0000000000e+00 0.0000000000e+00 0.0000000000e+00 
          0.0000000000e+00 0.0000000000e+00 0.0000000000e+00 
          0.0000000000e+00 0.0000000000e+00 0.0000000000e+00 
          0.0000000000e+00 0.0000000000e+00 0.0000000000e+00 
          0.0000000000e+00 0.0000000000e+00 0.0000000000e+00 
          0.0000000000e+00 0.0000000000e+00 0.0000000000e+00 
          0.0000000000e+00 0.0000000000e+00 0.0000000000e+00 
          0.0000000000e+00 0.0000000000e+00 0.0000000000e+00 
          0.0000000000e+00 0.0000000000e+00 0.0000000000e+00 
          0.0000000000e+00 0.0000000000e+00 0.0000000000e+00 
          0.0000000000e+00 0.0000000000e+00 0.0000000000e+00 
          0.0000000000e+00 0.0000000000e+00 0.0000000000e+00 
          0.0000000000e+00 0.0000000000e+00 0.0000000000e+00 
          0.0000000000e+00 0.0000000000e+00 0.0000000000e+00 
          0.0000000000e+00 0.0000000000e+00 0.0000000000e+00 
          0.0000000000e+00 0.0000000000e+00 0.0000000000e+00 
          0.0000000000e+00 0.0000000000e+00 0.0000000000e+00 
          0.0000000000e+00 0.0000000000e+00 0.0000000000e+00 
          0.0000000000e+00 0.0000000000e+00 0.0000000000e+00 
          0.0000000000e+00 0.0000000000e+00 0.0000000000e+00 
          0.0000000000e+00 0.0000000000e+00 0.0000000000e+00 
          0.0000000000e+00 0.0000000000e+00 0.0000000000e+00 
          0.0000000000e+00 0.0000000000e+00 0.0000000000e+00 
          0.0000000000e+00 0.0000000000e+00 0.0000000000e+00 
          0.0000000000e+00 0.0000000000e+00 0.0000000000e+00 
          0.0000000000e+00 0.0000000000e+00 0.0000000000e+00 
          0.0000000000e+00 0.0000000000e+00 0.0000000000e+00 
          0.0000000000e+00 0.0000000000e+00 0.0000000000e+00 
          0.0000000000e+00 0.0000000000e+00 0.0000000000e+00 
          0.0000000000e+00 0.0000000000e+00 0.0000000000e+00 
          0.0000000000e+00 0.0000000000e+00 0.0000000000e+00 
          0.0000000000e+00 0.0000000000e+00 0.0000000000e+00 
          0.0000000000e+00 0.0000000000e+00 0.0000000000e+00 
          0.0000000000e+00 0.0000000000e+00 0.0000000000e+00 
          0.0000000000e+00 0.0000000000e+00 0.0000000000e+00 
          0.0000000000e+00 0.0000000000e+00 0.0000000000e+00 
          0.0000000000e+00 0.0000000000e+00 0.0000000000e+00 
          0.0000000000e+00 0.0000000000e+00 0.0000000000e+00 
          0.0000000000e+00 0.0000000000e+00 0.0000000000e+00 
          0.0000000000e+00 0.0000000000e+00 0.0000000000e+00 
          0.0000000000e+00 0.0000000000e+00 0.0000000000e+00 
          0.0000000000e+00 0.0000000000e+00 0.0000000000e+00 
          0.0000000000e+00 0.0000000000e+00 0.0000000000e+00 
          0.0000000000e+00 0.0000000000e+00 0.0000000000e+00 
          0.0000000000e+00 0.0000000000e+00 0.0000000000e+00 
          0.0000000000e+00 0.0000000000e+00 0.0000000000e+00 
          0.0000000000e+00 0.0000000000e+00 0.0000000000e+00 
          0.0000000000e+00 0.0000000000e+00 0.0000000000e+00 
          0.0000000000e+00 0.0000000000e+00 0.0000000000e+00 
          0.0000000000e+00 0.0000000000e+00 0.0000000000e+00 
          0.0000000000e+00 0.0000000000e+00 0.0000000000e+00 
          0.0000000000e+00 0.0000000000e+00 0.0000000000e+00 
          0.0000000000e+00 0.0000000000e+00 0.0000000000e+00 
          0.0000000000e+00 0.0000000000e+00 0.0000000000e+00 
          0.0000000000e+00 0.0000000000e+00 0.0000000000e+00 
          0.0000000000e+00 0.0000000000e+00 0.0000000000e+00 
          0.0000000000e+00 0.0000000000e+00 0.0000000000e+00 
          0.0000000000e+00 0.0000000000e+00 0.0000000000e+00 
          0.0000000000e+00 0.0000000000e+00 0.0000000000e+00 
          0.0000000000e+00 0.0000000000e+00 0.0000000000e+00 
          0.0000000000e+00 0.0000000000e+00 0.0000000000e+00 
          0.0000000000e+00 0.0000000000e+00 0.0000000000e+00 
          0.0000000000e+00 0.0000000000e+00 0.0000000000e+00 
          0.0000000000e+00 0.0000000000e+00 0.0000000000e+00 
          0.0000000000e+00 0.0000000000e+00 0.0000000000e+00 
          0.0000000000e+00 0.0000000000e+00 0.0000000000e+00 
          0.0000000000e+00 0.0000000000e+00 0.0000000000e+00 
          0.0000000000e+00 0.0000000000e+00 0.0000000000e+00 
          0.0000000000e+00 0.0000000000e+00 0.0000000000e+00 
          0.0000000000e+00 0.0000000000e+00 0.0000000000e+00 
          0.0000000000e+00 0.0000000000e+00 0.0000000000e+00 
          0.0000000000e+00 0.0000000000e+00 0.0000000000e+00 
          0.0000000000e+00 0.0000000000e+00 0.0000000000e+00 
          0.0000000000e+00 0.0000000000e+00 0.0000000000e+00 
          0.0000000000e+00 0.0000000000e+00 0.0000000000e+00 
          0.0000000000e+00 0.0000000000e+00 0.0000000000e+00 
          0.0000000000e+00 0.0000000000e+00 0.0000000000e+00 
          0.0000000000e+00 0.0000000000e+00 0.0000000000e+00 
          0.0000000000e+00 0.0000000000e+00 0.0000000000e+00 
          0.0000000000e+00 0.0000000000e+00 0.0000000000e+00 
        </DataArray>
      </PointData>
      <CellData>
        <DataArray type="Int64" Name="ElementTag" format="ascii">
          90
          91
          92
          93
          94
          95
          96
          97
          98
          99
          100
          101
          102
          103
          104
          105
          106
          107
          108
          109
          110
          111
          112
          113
          114
          115
          116
          117
          118
          119
          120
          121
          122
          123
          124
          125
          126
          127
          128
        </DataArray>
      </CellData>
    </Piece>
  </UnstructuredGrid>
</VTKFile>
