<?xml version="1.0"?>
<VTKFile type="UnstructuredGrid" version="1.0" byte_order="LittleEndian" compressor="vtkZLibDataCompressor">
  <UnstructuredGrid>
    <Piece NumberOfPoints="80" NumberOfCells="39">
      <Points>
        <DataArray type="Float64" Name="Points" NumberOfComponents="3" format="ascii">
          0.0000000000e+00 0.0000000000e+00 0.0000000000e+00 
          2.5000000000e-01 0.0000000000e+00 0.0000000000e+00 
          2.5000000000e-01 3.0000000000e+01 0.0000000000e+00 
          0.0000000000e+00 3.0000000000e+01 0.0000000000e+00 
          2.5000000000e-01 7.6923100000e-01 0.0000000000e+00 
          2.5000000000e-01 1.5384620000e+00 0.0000000000e+00 
          2.5000000000e-01 2.3076920000e+00 0.0000000000e+00 
          2.5000000000e-01 3.0769230000e+00 0.0000000000e+00 
          2.5000000000e-01 3.8461540000e+00 0.0000000000e+00 
          2.5000000000e-01 4.6153850000e+00 0.0000000000e+00 
          2.5000000000e-01 5.3846150000e+00 0.0000000000e+00 
          2.5000000000e-01 6.1538460000e+00 0.0000000000e+00 
          2.5000000000e-01 6.9230770000e+00 0.0000000000e+00 
          2.5000000000e-01 7.6923080000e+00 0.0000000000e+00 
          2.5000000000e-01 8.4615380000e+00 0.0000000000e+00 
          2.5000000000e-01 9.2307690000e+00 0.0000000000e+00 
          2.5000000000e-01 1.0000000000e+01 0.0000000000e+00 
          2.5000000000e-01 1.0769231000e+01 0.0000000000e+00 
          2.5000000000e-01 1.1538462000e+01 0.0000000000e+00 
          2.5000000000e-01 1.2307692000e+01 0.0000000000e+00 
          2.5000000000e-01 1.3076923000e+01 0.0000000000e+00 
          2.5000000000e-01 1.3846154000e+01 0.0000000000e+00 
          2.5000000000e-01 1.4615385000e+01 0.0000000000e+00 
          2.5000000000e-01 1.5384615000e+01 0.0000000000e+00 
          2.5000000000e-01 1.6153846000e+01 0.0000000000e+00 
          2.5000000000e-01 1.6923077000e+01 0.0000000000e+00 
          2.5000000000e-01 1.7692308000e+01 0.0000000000e+00 
          2.5000000000e-01 1.8461538000e+01 0.0000000000e+00 
          2.5000000000e-01 1.9230769000e+01 0.0000000000e+00 
          2.5000000000e-01 2.0000000000e+01 0.0000000000e+00 
          2.5000000000e-01 2.0769231000e+01 0.0000000000e+00 
          2.5000000000e-01 2.1538462000e+01 0.0000000000e+00 
          2.5000000000e-01 2.2307692000e+01 0.0000000000e+00 
          2.5000000000e-01 2.3076923000e+01 0.0000000000e+00 
          2.5000000000e-01 2.3846154000e+01 0.0000000000e+00 
          2.5000000000e-01 2.4615385000e+01 0.0000000000e+00 
          2.5000000000e-01 2.5384615000e+01 0.0000000000e+00 
          2.5000000000e-01 2.6153846000e+01 0.0000000000e+00 
          2.5000000000e-01 2.6923077000e+01 0.0000000000e+00 
          2.5000000000e-01 2.7692308000e+01 0.0000000000e+00 
          2.5000000000e-01 2.8461538000e+01 0.0000000000e+00 
          2.5000000000e-01 2.9230769000e+01 0.0000000000e+00 
          0.0000000000e+00 7.6923100000e-01 0.0000000000e+00 
          0.0000000000e+00 1.5384620000e+00 0.0000000000e+00 
          0.0000000000e+00 2.3076920000e+00 0.0000000000e+00 
          0.0000000000e+00 3.0769230000e+00 0.0000000000e+00 
          0.0000000000e+00 3.8461540000e+00 0.0000000000e+00 
          0.0000000000e+00 4.6153850000e+00 0.0000000000e+00 
          0.0000000000e+00 5.3846150000e+00 0.0000000000e+00 
          0.0000000000e+00 6.1538460000e+00 0.0000000000e+00 
          0.0000000000e+00 6.9230770000e+00 0.0000000000e+00 
          0.0000000000e+00 7.6923080000e+00 0.0000000000e+00 
          0.0000000000e+00 8.4615380000e+00 0.0000000000e+00 
          0.0000000000e+00 9.2307690000e+00 0.0000000000e+00 
          0.0000000000e+00 1.0000000000e+01 0.0000000000e+00 
          0.0000000000e+00 1.0769231000e+01 0.0000000000e+00 
          0.0000000000e+00 1.1538462000e+01 0.0000000000e+00 
          0.0000000000e+00 1.2307692000e+01 0.0000000000e+00 
          0.0000000000e+00 1.3076923000e+01 0.0000000000e+00 
          0.0000000000e+00 1.3846154000e+01 0.0000000000e+00 
          0.0000000000e+00 1.4615385000e+01 0.0000000000e+00 
          0.0000000000e+00 1.5384615000e+01 0.0000000000e+00 
          0.0000000000e+00 1.6153846000e+01 0.0000000000e+00 
          0.0000000000e+00 1.6923077000e+01 0.0000000000e+00 
          0.0000000000e+00 1.7692308000e+01 0.0000000000e+00 
          0.0000000000e+00 1.8461538000e+01 0.0000000000e+00 
          0.0000000000e+00 1.9230769000e+01 0.0000000000e+00 
          0.0000000000e+00 2.0000000000e+01 0.0000000000e+00 
          0.0000000000e+00 2.0769231000e+01 0.0000000000e+00 
          0.0000000000e+00 2.1538462000e+01 0.0000000000e+00 
          0.0000000000e+00 2.2307692000e+01 0.0000000000e+00 
          0.0000000000e+00 2.3076923000e+01 0.0000000000e+00 
          0.0000000000e+00 2.3846154000e+01 0.0000000000e+00 
          0.0000000000e+00 2.4615385000e+01 0.0000000000e+00 
          0.0000000000e+00 2.5384615000e+01 0.0000000000e+00 
          0.0000000000e+00 2.6153846000e+01 0.0000000000e+00 
          0.0000000000e+00 2.6923077000e+01 0.0000000000e+00 
          0.0000000000e+00 2.7692308000e+01 0.0000000000e+00 
          0.0000000000e+00 2.8461538000e+01 0.0000000000e+00 
          0.0000000000e+00 2.9230769000e+01 0.0000000000e+00 
        </DataArray>
      </Points>
      <Cells>
        <DataArray type="Int64" Name="connectivity" format="ascii">
          0 1 4 42 
          42 4 5 43 
          43 5 6 44 
          44 6 7 45 
          45 7 8 46 
          46 8 9 47 
          47 9 10 48 
          48 10 11 49 
          49 11 12 50 
          50 12 13 51 
          51 13 14 52 
          52 14 15 53 
          53 15 16 54 
          54 16 17 55 
          55 17 18 56 
          56 18 19 57 
          57 19 20 58 
          58 20 21 59 
          59 21 22 60 
          60 22 23 61 
          61 23 24 62 
          62 24 25 63 
          63 25 26 64 
          64 26 27 65 
          65 27 28 66 
          66 28 29 67 
          67 29 30 68 
          68 30 31 69 
          69 31 32 70 
          70 32 33 71 
          71 33 34 72 
          72 34 35 73 
          73 35 36 74 
          74 36 37 75 
          75 37 38 76 
          76 38 39 77 
          77 39 40 78 
          78 40 41 79 
          79 41 2 3 
        </DataArray>
        <DataArray type="Int64" Name="offsets" format="ascii">
          4
          8
          12
          16
          20
          24
          28
          32
          36
          40
          44
          48
          52
          56
          60
          64
          68
          72
          76
          80
          84
          88
          92
          96
          100
          104
          108
          112
          116
          120
          124
          128
          132
          136
          140
          144
          148
          152
          156
        </DataArray>
        <DataArray type="Int64" Name="types" format="ascii">
          9
          9
          9
          9
          9
          9
          9
          9
          9
          9
          9
          9
          9
          9
          9
          9
          9
          9
          9
          9
          9
          9
          9
          9
          9
          9
          9
          9
          9
          9
          9
          9
          9
          9
          9
          9
          9
          9
          9
        </DataArray>
      </Cells>
      <PointData>
        <DataArray type="Int64" Name="NodeTag" format="ascii">
          1
          2
          3
          4
          7
          8
          9
          10
          11
          12
          13
          14
          15
          16
          17
          18
          19
          20
          21
          22
          23
          24
          25
          26
          27
          28
          29
          30
          31
          32
          33
          34
          35
          36
          37
          38
          39
          40
          41
          42
          43
          44
          45
          46
          47
          48
          49
          50
          51
          52
          53
          54
          55
          56
          57
          58
          59
          60
          61
          62
          63
          64
          65
          66
          67
          68
          69
          70
          71
          72
          73
          74
          75
          76
          77
          78
          79
          80
          81
          82
        </DataArray>
        <DataArray type="Float64" Name="Velocity" NumberOfComponents="3" format="ascii">
          1.9628891736e-03 -7.7850921317e-05 0.0000000000e+00 
          1.9628891736e-03 -7.7850921317e-05 0.0000000000e+00 
          7.8634807745e-03 -7.7728963877e-05 0.0000000000e+00 
          7.8634807745e-03 -7.7728963877e-05 0.0000000000e+00 
          2.2308199726e-03 -7.7834481248e-05 0.0000000000e+00 
          2.4946834976e-03 -7.7880676064e-05 0.0000000000e+00 
          2.7542806237e-03 -7.7755116045e-05 0.0000000000e+00 
          3.0093870259e-03 -7.7907844151e-05 0.0000000000e+00 
          3.2598203058e-03 -7.7788004403e-05 0.0000000000e+00 
          3.5053814557e-03 -7.7746747850e-05 0.0000000000e+00 
          3.7458948999e-03 -7.7924028256e-05 0.0000000000e+00 
          3.9811732296e-03 -7.7716797692e-05 0.0000000000e+00 
          4.2110246457e-03 -7.7829788920e-05 0.0000000000e+00 
          4.4353108816e-03 -7.7805061273e-05 0.0000000000e+00 
          4.6538227604e-03 -7.7781516585e-05 0.0000000000e+00 
          4.8664291160e-03 -7.7814125987e-05 0.0000000000e+00 
          5.0729512556e-03 -7.7745115732e-05 0.0000000000e+00 
          5.2732218068e-03 -7.7830686425e-05 0.0000000000e+00 
          5.4671164622e-03 -7.7747854928e-05 0.0000000000e+00 
          5.6544518713e-03 -7.7751431515e-05 0.0000000000e+00 
          5.8350858116e-03 -7.7825724226e-05 0.0000000000e+00 
          6.0088861284e-03 -7.7686654233e-05 0.0000000000e+00 
          6.1756920058e-03 -7.7783584552e-05 0.0000000000e+00 
          6.3353704288e-03 -7.7716302777e-05 0.0000000000e+00 
          6.4877986055e-03 -7.7738136184e-05 0.0000000000e+00 
          6.6328171714e-03 -7.7738179494e-05 0.0000000000e+00 
          6.7703113918e-03 -7.7708683814e-05 0.0000000000e+00 
          6.9001655418e-03 -7.7684517310e-05 0.0000000000e+00 
          7.0222488008e-03 -7.7751137248e-05 0.0000000000e+00 
          7.1364472827e-03 -7.7697580608e-05 0.0000000000e+00 
          7.2426531961e-03 -7.7635515718e-05 0.0000000000e+00 
          7.3407674068e-03 -7.7793180766e-05 0.0000000000e+00 
          7.4306942354e-03 -7.7578109870e-05 0.0000000000e+00 
          7.5123378176e-03 -7.7740183245e-05 0.0000000000e+00 
          7.5856127997e-03 -7.7678827213e-05 0.0000000000e+00 
          7.6504590263e-03 -7.7630884441e-05 0.0000000000e+00 
          7.7067918925e-03 -7.7695454686e-05 0.0000000000e+00 
          7.7545611362e-03 -7.7678893074e-05 0.0000000000e+00 
          7.7937206463e-03 -7.7637034849e-05 0.0000000000e+00 
          7.8242114560e-03 -7.7685614677e-05 0.0000000000e+00 
          7.8460218497e-03 -7.7690641003e-05 0.0000000000e+00 
          7.8591165635e-03 -7.7592212594e-05 0.0000000000e+00 
          2.2308199726e-03 -7.7834481248e-05 0.0000000000e+00 
          2.4946834976e-03 -7.7880676064e-05 0.0000000000e+00 
          2.7542806237e-03 -7.7755116045e-05 0.0000000000e+00 
          3.0093870259e-03 -7.7907844151e-05 0.0000000000e+00 
          3.2598203058e-03 -7.7788004403e-05 0.0000000000e+00 
          3.5053814557e-03 -7.7746747850e-05 0.0000000000e+00 
          3.7458948999e-03 -7.7924028256e-05 0.0000000000e+00 
          3.9811732296e-03 -7.7716797692e-05 0.0000000000e+00 
          4.2110246457e-03 -7.7829788920e-05 0.0000000000e+00 
          4.4353108816e-03 -7.7805061273e-05 0.0000000000e+00 
          4.6538227604e-03 -7.7781516585e-05 0.0000000000e+00 
          4.8664291160e-03 -7.7814125987e-05 0.0000000000e+00 
          5.0729512556e-03 -7.7745115732e-05 0.0000000000e+00 
          5.2732218068e-03 -7.7830686425e-05 0.0000000000e+00 
          5.4671164622e-03 -7.7747854928e-05 0.0000000000e+00 
          5.6544518713e-03 -7.7751431515e-05 0.0000000000e+00 
          5.8350858116e-03 -7.7825724226e-05 0.0000000000e+00 
          6.0088861284e-03 -7.7686654233e-05 0.0000000000e+00 
          6.1756920058e-03 -7.7783584552e-05 0.0000000000e+00 
          6.3353704288e-03 -7.7716302777e-05 0.0000000000e+00 
          6.4877986055e-03 -7.7738136184e-05 0.0000000000e+00 
          6.6328171714e-03 -7.7738179494e-05 0.0000000000e+00 
          6.7703113918e-03 -7.7708683814e-05 0.0000000000e+00 
          6.9001655418e-03 -7.7684517310e-05 0.0000000000e+00 
          7.0222488008e-03 -7.7751137248e-05 0.0000000000e+00 
          7.1364472827e-03 -7.7697580608e-05 0.0000000000e+00 
          7.2426531961e-03 -7.7635515718e-05 0.0000000000e+00 
          7.3407674068e-03 -7.7793180766e-05 0.0000000000e+00 
          7.4306942354e-03 -7.7578109870e-05 0.0000000000e+00 
          7.5123378176e-03 -7.7740183245e-05 0.0000000000e+00 
          7.5856127997e-03 -7.7678827213e-05 0.0000000000e+00 
          7.6504590263e-03 -7.7630884441e-05 0.0000000000e+00 
          7.7067918925e-03 -7.7695454686e-05 0.0000000000e+00 
          7.7545611362e-03 -7.7678893074e-05 0.0000000000e+00 
          7.7937206463e-03 -7.7637034849e-05 0.0000000000e+00 
          7.8242114560e-03 -7.7685614677e-05 0.0000000000e+00 
          7.8460218497e-03 -7.7690641003e-05 0.0000000000e+00 
          7.8591165635e-03 -7.7592212594e-05 0.0000000000e+00 
        </DataArray>
        <DataArray type="Float64" Name="Displacement" NumberOfComponents="3" format="ascii">
          -1.5129404945e-04 -3.6326790169e-04 0.0000000000e+00 
          -1.5129404945e-04 -3.6326790169e-04 0.0000000000e+00 
          6.9544734641e-04 -3.8685100916e-04 0.0000000000e+00 
          6.9544734641e-04 -3.8685100916e-04 0.0000000000e+00 
          -1.1860677654e-04 -3.6446174242e-04 0.0000000000e+00 
          -8.5803176559e-05 -3.6562461840e-04 0.0000000000e+00 
          -5.2947251192e-05 -3.6675637865e-04 0.0000000000e+00 
          -2.0102861715e-05 -3.6785724221e-04 0.0000000000e+00 
          1.2666260583e-05 -3.6892712000e-04 0.0000000000e+00 
          4.5296757386e-05 -3.6996590218e-04 0.0000000000e+00 
          7.7725670364e-05 -3.7097365445e-04 0.0000000000e+00 
          1.0989083265e-04 -3.7195044394e-04 0.0000000000e+00 
          1.4173052419e-04 -3.7289625405e-04 0.0000000000e+00 
          1.7318395107e-04 -3.7381097296e-04 0.0000000000e+00 
          2.0419119783e-04 -3.7469473036e-04 0.0000000000e+00 
          2.3469342606e-04 -3.7554750617e-04 0.0000000000e+00 
          2.6463291270e-04 -3.7636925451e-04 0.0000000000e+00 
          2.9395311500e-04 -3.7715989405e-04 0.0000000000e+00 
          3.2259883263e-04 -3.7791972485e-04 0.0000000000e+00 
          3.5051633117e-04 -3.7864843197e-04 0.0000000000e+00 
          3.7765338039e-04 -3.7934605682e-04 0.0000000000e+00 
          4.0395932931e-04 -3.8001295970e-04 0.0000000000e+00 
          4.2938523191e-04 -3.8064840830e-04 0.0000000000e+00 
          4.5388382009e-04 -3.8125320414e-04 0.0000000000e+00 
          4.7740984131e-04 -3.8182696085e-04 0.0000000000e+00 
          4.9991980374e-04 -3.8236954344e-04 0.0000000000e+00 
          5.2137224935e-04 -3.8288122634e-04 0.0000000000e+00 
          5.4172770552e-04 -3.8336187232e-04 0.0000000000e+00 
          5.6094891361e-04 -3.8381159934e-04 0.0000000000e+00 
          5.7900066910e-04 -3.8423020143e-04 0.0000000000e+00 
          5.9585002016e-04 -3.8461782601e-04 0.0000000000e+00 
          6.1146626249e-04 -3.8497459473e-04 0.0000000000e+00 
          6.2582094099e-04 -3.8530013230e-04 0.0000000000e+00 
          6.3888807527e-04 -3.8559481489e-04 0.0000000000e+00 
          6.5064390293e-04 -3.8585841028e-04 0.0000000000e+00 
          6.6106716143e-04 -3.8609103489e-04 0.0000000000e+00 
          6.7013899381e-04 -3.8629260860e-04 0.0000000000e+00 
          6.7784300693e-04 -3.8646321038e-04 0.0000000000e+00 
          6.8416535098e-04 -3.8660277498e-04 0.0000000000e+00 
          6.8909454222e-04 -3.8671133065e-04 0.0000000000e+00 
          6.9262175715e-04 -3.8678882033e-04 0.0000000000e+00 
          6.9474065739e-04 -3.8683526523e-04 0.0000000000e+00 
          -1.1860677654e-04 -3.6446174242e-04 0.0000000000e+00 
          -8.5803176559e-05 -3.6562461840e-04 0.0000000000e+00 
          -5.2947251192e-05 -3.6675637865e-04 0.0000000000e+00 
          -2.0102861715e-05 -3.6785724221e-04 0.0000000000e+00 
          1.2666260583e-05 -3.6892712000e-04 0.0000000000e+00 
          4.5296757386e-05 -3.6996590218e-04 0.0000000000e+00 
          7.7725670364e-05 -3.7097365445e-04 0.0000000000e+00 
          1.0989083265e-04 -3.7195044394e-04 0.0000000000e+00 
          1.4173052419e-04 -3.7289625405e-04 0.0000000000e+00 
          1.7318395107e-04 -3.7381097296e-04 0.0000000000e+00 
          2.0419119783e-04 -3.7469473036e-04 0.0000000000e+00 
          2.3469342606e-04 -3.7554750617e-04 0.0000000000e+00 
          2.6463291270e-04 -3.7636925451e-04 0.0000000000e+00 
          2.9395311500e-04 -3.7715989405e-04 0.0000000000e+00 
          3.2259883263e-04 -3.7791972485e-04 0.0000000000e+00 
          3.5051633117e-04 -3.7864843197e-04 0.0000000000e+00 
          3.7765338039e-04 -3.7934605682e-04 0.0000000000e+00 
          4.0395932931e-04 -3.8001295970e-04 0.0000000000e+00 
          4.2938523191e-04 -3.8064840830e-04 0.0000000000e+00 
          4.5388382009e-04 -3.8125320414e-04 0.0000000000e+00 
          4.7740984131e-04 -3.8182696085e-04 0.0000000000e+00 
          4.9991980374e-04 -3.8236954344e-04 0.0000000000e+00 
          5.2137224935e-04 -3.8288122634e-04 0.0000000000e+00 
          5.4172770552e-04 -3.8336187232e-04 0.0000000000e+00 
          5.6094891361e-04 -3.8381159934e-04 0.0000000000e+00 
          5.7900066910e-04 -3.8423020143e-04 0.0000000000e+00 
          5.9585002016e-04 -3.8461782601e-04 0.0000000000e+00 
          6.1146626249e-04 -3.8497459473e-04 0.0000000000e+00 
          6.2582094099e-04 -3.8530013230e-04 0.0000000000e+00 
          6.3888807527e-04 -3.8559481489e-04 0.0000000000e+00 
          6.5064390293e-04 -3.8585841028e-04 0.0000000000e+00 
          6.6106716143e-04 -3.8609103489e-04 0.0000000000e+00 
          6.7013899381e-04 -3.8629260860e-04 0.0000000000e+00 
          6.7784300693e-04 -3.8646321038e-04 0.0000000000e+00 
          6.8416535098e-04 -3.8660277498e-04 0.0000000000e+00 
          6.8909454222e-04 -3.8671133065e-04 0.0000000000e+00 
          6.9262175715e-04 -3.8678882033e-04 0.0000000000e+00 
          6.9474065739e-04 -3.8683526523e-04 0.0000000000e+00 
        </DataArray>
        <DataArray type="Float64" Name="Acceleration" NumberOfComponents="3" format="ascii">
          1.6249843565e-02 1.1332432045e-06 0.0000000000e+00 
          1.6249843565e-02 1.1332432045e-06 0.0000000000e+00 
          -1.2734815160e-01 8.6771359216e-05 0.0000000000e+00 
          -1.2734815160e-01 8.6771359216e-05 0.0000000000e+00 
          1.0481299229e-02 -7.4964014942e-06 0.0000000000e+00 
          4.7184719538e-03 1.9451633070e-05 0.0000000000e+00 
          -1.0432557000e-03 -1.9488930914e-05 0.0000000000e+00 
          -6.7817213741e-03 -3.7063013292e-06 0.0000000000e+00 
          -1.2490430930e-02 1.6086934728e-05 0.0000000000e+00 
          -1.8159314017e-02 4.0157771529e-06 0.0000000000e+00 
          -2.3768272382e-02 -7.6105068046e-06 0.0000000000e+00 
          -2.9325556349e-02 -4.8565840329e-06 0.0000000000e+00 
          -3.4803209114e-02 1.5292091450e-05 0.0000000000e+00 
          -4.0198104017e-02 -8.2818900735e-06 0.0000000000e+00 
          -4.5506828724e-02 -4.2474556211e-06 0.0000000000e+00 
          -5.0704127827e-02 3.8080698153e-06 0.0000000000e+00 
          -5.5798742781e-02 1.8463284880e-05 0.0000000000e+00 
          -6.0772400260e-02 -3.5607914161e-05 0.0000000000e+00 
          -6.5610751098e-02 2.0978635550e-05 0.0000000000e+00 
          -7.0323340819e-02 1.3858357661e-05 0.0000000000e+00 
          -7.4883778052e-02 -5.1243375502e-05 0.0000000000e+00 
          -7.9293911338e-02 8.0720375052e-05 0.0000000000e+00 
          -8.3550045614e-02 -6.3854547704e-05 0.0000000000e+00 
          -8.7633130052e-02 6.0563256048e-06 0.0000000000e+00 
          -9.1548903205e-02 3.0233600431e-05 0.0000000000e+00 
          -9.5284354149e-02 -1.9218646218e-05 0.0000000000e+00 
          -9.8838595821e-02 5.4036208555e-06 0.0000000000e+00 
          -1.0220044105e-01 -1.5629228167e-05 0.0000000000e+00 
          -1.0536998973e-01 2.1369072595e-05 0.0000000000e+00 
          -1.0833901371e-01 -5.1933344891e-06 0.0000000000e+00 
          -1.1110553193e-01 -2.7116143382e-05 0.0000000000e+00 
          -1.1366778420e-01 4.0439446603e-05 0.0000000000e+00 
          -1.1601203360e-01 -2.7196332893e-05 0.0000000000e+00 
          -1.1815131661e-01 1.4572986191e-05 0.0000000000e+00 
          -1.2006711367e-01 -6.4094605435e-06 0.0000000000e+00 
          -1.2176517809e-01 7.9894361520e-06 0.0000000000e+00 
          -1.2324435876e-01 -6.1504075987e-06 0.0000000000e+00 
          -1.2449111190e-01 5.5576778469e-06 0.0000000000e+00 
          -1.2552582041e-01 4.6785903512e-07 0.0000000000e+00 
          -1.2632050221e-01 1.0733454573e-05 0.0000000000e+00 
          -1.2689243027e-01 6.9508047748e-06 0.0000000000e+00 
          -1.2724302075e-01 -5.5027960257e-05 0.0000000000e+00 
          1.0481299229e-02 -7.4964014942e-06 0.0000000000e+00 
          4.7184719538e-03 1.9451633070e-05 0.0000000000e+00 
          -1.0432557000e-03 -1.9488930914e-05 0.0000000000e+00 
          -6.7817213741e-03 -3.7063013292e-06 0.0000000000e+00 
          -1.2490430930e-02 1.6086934728e-05 0.0000000000e+00 
          -1.8159314017e-02 4.0157771529e-06 0.0000000000e+00 
          -2.3768272382e-02 -7.6105068046e-06 0.0000000000e+00 
          -2.9325556349e-02 -4.8565840329e-06 0.0000000000e+00 
          -3.4803209114e-02 1.5292091450e-05 0.0000000000e+00 
          -4.0198104017e-02 -8.2818900735e-06 0.0000000000e+00 
          -4.5506828724e-02 -4.2474556211e-06 0.0000000000e+00 
          -5.0704127827e-02 3.8080698153e-06 0.0000000000e+00 
          -5.5798742781e-02 1.8463284880e-05 0.0000000000e+00 
          -6.0772400260e-02 -3.5607914161e-05 0.0000000000e+00 
          -6.5610751098e-02 2.0978635550e-05 0.0000000000e+00 
          -7.0323340819e-02 1.3858357661e-05 0.0000000000e+00 
          -7.4883778052e-02 -5.1243375502e-05 0.0000000000e+00 
          -7.9293911338e-02 8.0720375052e-05 0.0000000000e+00 
          -8.3550045614e-02 -6.3854547704e-05 0.0000000000e+00 
          -8.7633130052e-02 6.0563256048e-06 0.0000000000e+00 
          -9.1548903205e-02 3.0233600431e-05 0.0000000000e+00 
          -9.5284354149e-02 -1.9218646218e-05 0.0000000000e+00 
          -9.8838595821e-02 5.4036208555e-06 0.0000000000e+00 
          -1.0220044105e-01 -1.5629228167e-05 0.0000000000e+00 
          -1.0536998973e-01 2.1369072595e-05 0.0000000000e+00 
          -1.0833901371e-01 -5.1933344891e-06 0.0000000000e+00 
          -1.1110553193e-01 -2.7116143382e-05 0.0000000000e+00 
          -1.1366778420e-01 4.0439446603e-05 0.0000000000e+00 
          -1.1601203360e-01 -2.7196332893e-05 0.0000000000e+00 
          -1.1815131661e-01 1.4572986191e-05 0.0000000000e+00 
          -1.2006711367e-01 -6.4094605435e-06 0.0000000000e+00 
          -1.2176517809e-01 7.9894361520e-06 0.0000000000e+00 
          -1.2324435876e-01 -6.1504075987e-06 0.0000000000e+00 
          -1.2449111190e-01 5.5576778469e-06 0.0000000000e+00 
          -1.2552582041e-01 4.6785903512e-07 0.0000000000e+00 
          -1.2632050221e-01 1.0733454573e-05 0.0000000000e+00 
          -1.2689243027e-01 6.9508047748e-06 0.0000000000e+00 
          -1.2724302075e-01 -5.5027960257e-05 0.0000000000e+00 
        </DataArray>
        <DataArray type="Float64" Name="Reaction" NumberOfComponents="3" format="ascii">
          0.0000000000e+00 0.0000000000e+00 0.0000000000e+00 
          0.0000000000e+00 0.0000000000e+00 0.0000000000e+00 
          0.0000000000e+00 0.0000000000e+00 0.0000000000e+00 
          0.0000000000e+00 0.0000000000e+00 0.0000000000e+00 
          0.0000000000e+00 0.0000000000e+00 0.0000000000e+00 
          0.0000000000e+00 0.0000000000e+00 0.0000000000e+00 
          0.0000000000e+00 0.0000000000e+00 0.0000000000e+00 
          0.0000000000e+00 0.0000000000e+00 0.0000000000e+00 
          0.0000000000e+00 0.0000000000e+00 0.0000000000e+00 
          0.0000000000e+00 0.0000000000e+00 0.0000000000e+00 
          0.0000000000e+00 0.0000000000e+00 0.0000000000e+00 
          0.0000000000e+00 0.0000000000e+00 0.0000000000e+00 
          0.0000000000e+00 0.0000000000e+00 0.0000000000e+00 
          0.0000000000e+00 0.0000000000e+00 0.0000000000e+00 
          0.0000000000e+00 0.0000000000e+00 0.0000000000e+00 
          0.0000000000e+00 0.0000000000e+00 0.0000000000e+00 
          0.0000000000e+00 0.0000000000e+00 0.0000000000e+00 
          0.0000000000e+00 0.0000000000e+00 0.0000000000e+00 
          0.0000000000e+00 0.0000000000e+00 0.0000000000e+00 
          0.0000000000e+00 0.0000000000e+00 0.0000000000e+00 
          0.0000000000e+00 0.0000000000e+00 0.0000000000e+00 
          0.0000000000e+00 0.0000000000e+00 0.0000000000e+00 
          0.0000000000e+00 0.0000000000e+00 0.0000000000e+00 
          0.0000000000e+00 0.0000000000e+00 0.0000000000e+00 
          0.0000000000e+00 0.0000000000e+00 0.0000000000e+00 
          0.0000000000e+00 0.0000000000e+00 0.0000000000e+00 
          0.0000000000e+00 0.0000000000e+00 0.0000000000e+00 
          0.0000000000e+00 0.0000000000e+00 0.0000000000e+00 
          0.0000000000e+00 0.0000000000e+00 0.0000000000e+00 
          0.0000000000e+00 0.0000000000e+00 0.0000000000e+00 
          0.0000000000e+00 0.0000000000e+00 0.0000000000e+00 
          0.0000000000e+00 0.0000000000e+00 0.0000000000e+00 
          0.0000000000e+00 0.0000000000e+00 0.0000000000e+00 
          0.0000000000e+00 0.0000000000e+00 0.0000000000e+00 
          0.0000000000e+00 0.0000000000e+00 0.0000000000e+00 
          0.0000000000e+00 0.0000000000e+00 0.0000000000e+00 
          0.0000000000e+00 0.0000000000e+00 0.0000000000e+00 
          0.0000000000e+00 0.0000000000e+00 0.0000000000e+00 
          0.0000000000e+00 0.0000000000e+00 0.0000000000e+00 
          0.0000000000e+00 0.0000000000e+00 0.0000000000e+00 
          0.0000000000e+00 0.0000000000e+00 0.0000000000e+00 
          0.0000000000e+00 0.0000000000e+00 0.0000000000e+00 
          0.0000000000e+00 0.0000000000e+00 0.0000000000e+00 
          0.0000000000e+00 0.0000000000e+00 0.0000000000e+00 
          0.0000000000e+00 0.0000000000e+00 0.0000000000e+00 
          0.0000000000e+00 0.0000000000e+00 0.0000000000e+00 
          0.0000000000e+00 0.0000000000e+00 0.0000000000e+00 
          0.0000000000e+00 0.0000000000e+00 0.0000000000e+00 
          0.0000000000e+00 0.0000000000e+00 0.0000000000e+00 
          0.0000000000e+00 0.0000000000e+00 0.0000000000e+00 
          0.0000000000e+00 0.0000000000e+00 0.0000000000e+00 
          0.0000000000e+00 0.0000000000e+00 0.0000000000e+00 
          0.0000000000e+00 0.0000000000e+00 0.0000000000e+00 
          0.0000000000e+00 0.0000000000e+00 0.0000000000e+00 
          0.0000000000e+00 0.0000000000e+00 0.0000000000e+00 
          0.0000000000e+00 0.0000000000e+00 0.0000000000e+00 
          0.0000000000e+00 0.0000000000e+00 0.0000000000e+00 
          0.0000000000e+00 0.0000000000e+00 0.0000000000e+00 
          0.0000000000e+00 0.0000000000e+00 0.0000000000e+00 
          0.0000000000e+00 0.0000000000e+00 0.0000000000e+00 
          0.0000000000e+00 0.0000000000e+00 0.0000000000e+00 
          0.0000000000e+00 0.0000000000e+00 0.0000000000e+00 
          0.0000000000e+00 0.0000000000e+00 0.0000000000e+00 
          0.0000000000e+00 0.0000000000e+00 0.0000000000e+00 
          0.0000000000e+00 0.0000000000e+00 0.0000000000e+00 
          0.0000000000e+00 0.0000000000e+00 0.0000000000e+00 
          0.0000000000e+00 0.0000000000e+00 0.0000000000e+00 
          0.0000000000e+00 0.0000000000e+00 0.0000000000e+00 
          0.0000000000e+00 0.0000000000e+00 0.0000000000e+00 
          0.0000000000e+00 0.0000000000e+00 0.0000000000e+00 
          0.0000000000e+00 0.0000000000e+00 0.0000000000e+00 
          0.0000000000e+00 0.0000000000e+00 0.0000000000e+00 
          0.0000000000e+00 0.0000000000e+00 0.0000000000e+00 
          0.0000000000e+00 0.0000000000e+00 0.0000000000e+00 
          0.0000000000e+00 0.0000000000e+00 0.0000000000e+00 
          0.0000000000e+00 0.0000000000e+00 0.0000000000e+00 
          0.0000000000e+00 0.0000000000e+00 0.0000000000e+00 
          0.0000000000e+00 0.0000000000e+00 0.0000000000e+00 
          0.0000000000e+00 0.0000000000e+00 0.0000000000e+00 
          0.0000000000e+00 0.0000000000e+00 0.0000000000e+00 
        </DataArray>
      </PointData>
      <CellData>
        <DataArray type="Int64" Name="ElementTag" format="ascii">
          90
          91
          92
          93
          94
          95
          96
          97
          98
          99
          100
          101
          102
          103
          104
          105
          106
          107
          108
          109
          110
          111
          112
          113
          114
          115
          116
          117
          118
          119
          120
          121
          122
          123
          124
          125
          126
          127
          128
        </DataArray>
      </CellData>
    </Piece>
  </UnstructuredGrid>
</VTKFile>
