<?xml version="1.0"?>
<VTKFile type="UnstructuredGrid" version="1.0" byte_order="LittleEndian" compressor="vtkZLibDataCompressor">
  <UnstructuredGrid>
    <Piece NumberOfPoints="80" NumberOfCells="39">
      <Points>
        <DataArray type="Float64" Name="Points" NumberOfComponents="3" format="ascii">
          0.0000000000e+00 0.0000000000e+00 0.0000000000e+00 
          2.5000000000e-01 0.0000000000e+00 0.0000000000e+00 
          2.5000000000e-01 3.0000000000e+01 0.0000000000e+00 
          0.0000000000e+00 3.0000000000e+01 0.0000000000e+00 
          2.5000000000e-01 7.6923100000e-01 0.0000000000e+00 
          2.5000000000e-01 1.5384620000e+00 0.0000000000e+00 
          2.5000000000e-01 2.3076920000e+00 0.0000000000e+00 
          2.5000000000e-01 3.0769230000e+00 0.0000000000e+00 
          2.5000000000e-01 3.8461540000e+00 0.0000000000e+00 
          2.5000000000e-01 4.6153850000e+00 0.0000000000e+00 
          2.5000000000e-01 5.3846150000e+00 0.0000000000e+00 
          2.5000000000e-01 6.1538460000e+00 0.0000000000e+00 
          2.5000000000e-01 6.9230770000e+00 0.0000000000e+00 
          2.5000000000e-01 7.6923080000e+00 0.0000000000e+00 
          2.5000000000e-01 8.4615380000e+00 0.0000000000e+00 
          2.5000000000e-01 9.2307690000e+00 0.0000000000e+00 
          2.5000000000e-01 1.0000000000e+01 0.0000000000e+00 
          2.5000000000e-01 1.0769231000e+01 0.0000000000e+00 
          2.5000000000e-01 1.1538462000e+01 0.0000000000e+00 
          2.5000000000e-01 1.2307692000e+01 0.0000000000e+00 
          2.5000000000e-01 1.3076923000e+01 0.0000000000e+00 
          2.5000000000e-01 1.3846154000e+01 0.0000000000e+00 
          2.5000000000e-01 1.4615385000e+01 0.0000000000e+00 
          2.5000000000e-01 1.5384615000e+01 0.0000000000e+00 
          2.5000000000e-01 1.6153846000e+01 0.0000000000e+00 
          2.5000000000e-01 1.6923077000e+01 0.0000000000e+00 
          2.5000000000e-01 1.7692308000e+01 0.0000000000e+00 
          2.5000000000e-01 1.8461538000e+01 0.0000000000e+00 
          2.5000000000e-01 1.9230769000e+01 0.0000000000e+00 
          2.5000000000e-01 2.0000000000e+01 0.0000000000e+00 
          2.5000000000e-01 2.0769231000e+01 0.0000000000e+00 
          2.5000000000e-01 2.1538462000e+01 0.0000000000e+00 
          2.5000000000e-01 2.2307692000e+01 0.0000000000e+00 
          2.5000000000e-01 2.3076923000e+01 0.0000000000e+00 
          2.5000000000e-01 2.3846154000e+01 0.0000000000e+00 
          2.5000000000e-01 2.4615385000e+01 0.0000000000e+00 
          2.5000000000e-01 2.5384615000e+01 0.0000000000e+00 
          2.5000000000e-01 2.6153846000e+01 0.0000000000e+00 
          2.5000000000e-01 2.6923077000e+01 0.0000000000e+00 
          2.5000000000e-01 2.7692308000e+01 0.0000000000e+00 
          2.5000000000e-01 2.8461538000e+01 0.0000000000e+00 
          2.5000000000e-01 2.9230769000e+01 0.0000000000e+00 
          0.0000000000e+00 7.6923100000e-01 0.0000000000e+00 
          0.0000000000e+00 1.5384620000e+00 0.0000000000e+00 
          0.0000000000e+00 2.3076920000e+00 0.0000000000e+00 
          0.0000000000e+00 3.0769230000e+00 0.0000000000e+00 
          0.0000000000e+00 3.8461540000e+00 0.0000000000e+00 
          0.0000000000e+00 4.6153850000e+00 0.0000000000e+00 
          0.0000000000e+00 5.3846150000e+00 0.0000000000e+00 
          0.0000000000e+00 6.1538460000e+00 0.0000000000e+00 
          0.0000000000e+00 6.9230770000e+00 0.0000000000e+00 
          0.0000000000e+00 7.6923080000e+00 0.0000000000e+00 
          0.0000000000e+00 8.4615380000e+00 0.0000000000e+00 
          0.0000000000e+00 9.2307690000e+00 0.0000000000e+00 
          0.0000000000e+00 1.0000000000e+01 0.0000000000e+00 
          0.0000000000e+00 1.0769231000e+01 0.0000000000e+00 
          0.0000000000e+00 1.1538462000e+01 0.0000000000e+00 
          0.0000000000e+00 1.2307692000e+01 0.0000000000e+00 
          0.0000000000e+00 1.3076923000e+01 0.0000000000e+00 
          0.0000000000e+00 1.3846154000e+01 0.0000000000e+00 
          0.0000000000e+00 1.4615385000e+01 0.0000000000e+00 
          0.0000000000e+00 1.5384615000e+01 0.0000000000e+00 
          0.0000000000e+00 1.6153846000e+01 0.0000000000e+00 
          0.0000000000e+00 1.6923077000e+01 0.0000000000e+00 
          0.0000000000e+00 1.7692308000e+01 0.0000000000e+00 
          0.0000000000e+00 1.8461538000e+01 0.0000000000e+00 
          0.0000000000e+00 1.9230769000e+01 0.0000000000e+00 
          0.0000000000e+00 2.0000000000e+01 0.0000000000e+00 
          0.0000000000e+00 2.0769231000e+01 0.0000000000e+00 
          0.0000000000e+00 2.1538462000e+01 0.0000000000e+00 
          0.0000000000e+00 2.2307692000e+01 0.0000000000e+00 
          0.0000000000e+00 2.3076923000e+01 0.0000000000e+00 
          0.0000000000e+00 2.3846154000e+01 0.0000000000e+00 
          0.0000000000e+00 2.4615385000e+01 0.0000000000e+00 
          0.0000000000e+00 2.5384615000e+01 0.0000000000e+00 
          0.0000000000e+00 2.6153846000e+01 0.0000000000e+00 
          0.0000000000e+00 2.6923077000e+01 0.0000000000e+00 
          0.0000000000e+00 2.7692308000e+01 0.0000000000e+00 
          0.0000000000e+00 2.8461538000e+01 0.0000000000e+00 
          0.0000000000e+00 2.9230769000e+01 0.0000000000e+00 
        </DataArray>
      </Points>
      <Cells>
        <DataArray type="Int64" Name="connectivity" format="ascii">
          0 1 4 42 
          42 4 5 43 
          43 5 6 44 
          44 6 7 45 
          45 7 8 46 
          46 8 9 47 
          47 9 10 48 
          48 10 11 49 
          49 11 12 50 
          50 12 13 51 
          51 13 14 52 
          52 14 15 53 
          53 15 16 54 
          54 16 17 55 
          55 17 18 56 
          56 18 19 57 
          57 19 20 58 
          58 20 21 59 
          59 21 22 60 
          60 22 23 61 
          61 23 24 62 
          62 24 25 63 
          63 25 26 64 
          64 26 27 65 
          65 27 28 66 
          66 28 29 67 
          67 29 30 68 
          68 30 31 69 
          69 31 32 70 
          70 32 33 71 
          71 33 34 72 
          72 34 35 73 
          73 35 36 74 
          74 36 37 75 
          75 37 38 76 
          76 38 39 77 
          77 39 40 78 
          78 40 41 79 
          79 41 2 3 
        </DataArray>
        <DataArray type="Int64" Name="offsets" format="ascii">
          4
          8
          12
          16
          20
          24
          28
          32
          36
          40
          44
          48
          52
          56
          60
          64
          68
          72
          76
          80
          84
          88
          92
          96
          100
          104
          108
          112
          116
          120
          124
          128
          132
          136
          140
          144
          148
          152
          156
        </DataArray>
        <DataArray type="Int64" Name="types" format="ascii">
          9
          9
          9
          9
          9
          9
          9
          9
          9
          9
          9
          9
          9
          9
          9
          9
          9
          9
          9
          9
          9
          9
          9
          9
          9
          9
          9
          9
          9
          9
          9
          9
          9
          9
          9
          9
          9
          9
          9
        </DataArray>
      </Cells>
      <PointData>
        <DataArray type="Int64" Name="NodeTag" format="ascii">
          1
          2
          3
          4
          7
          8
          9
          10
          11
          12
          13
          14
          15
          16
          17
          18
          19
          20
          21
          22
          23
          24
          25
          26
          27
          28
          29
          30
          31
          32
          33
          34
          35
          36
          37
          38
          39
          40
          41
          42
          43
          44
          45
          46
          47
          48
          49
          50
          51
          52
          53
          54
          55
          56
          57
          58
          59
          60
          61
          62
          63
          64
          65
          66
          67
          68
          69
          70
          71
          72
          73
          74
          75
          76
          77
          78
          79
          80
          81
          82
        </DataArray>
        <DataArray type="Float64" Name="Velocity" NumberOfComponents="3" format="ascii">
          5.2888396131e-03 -7.7836216520e-05 0.0000000000e+00 
          5.2888396131e-03 -7.7836216520e-05 0.0000000000e+00 
          6.1834189722e-02 -7.6645342902e-05 0.0000000000e+00 
          6.1834189722e-02 -7.6645342902e-05 0.0000000000e+00 
          7.7000295835e-03 -7.7878735486e-05 0.0000000000e+00 
          1.0093833626e-02 -7.7677765561e-05 0.0000000000e+00 
          1.2466917336e-02 -7.7763276961e-05 0.0000000000e+00 
          1.4815975874e-02 -7.7750092293e-05 0.0000000000e+00 
          1.7137792767e-02 -7.7686707921e-05 0.0000000000e+00 
          1.9429171997e-02 -7.7604047942e-05 0.0000000000e+00 
          2.1686991053e-02 -7.7597251216e-05 0.0000000000e+00 
          2.3908196885e-02 -7.7525314455e-05 0.0000000000e+00 
          2.6089767014e-02 -7.7519838699e-05 0.0000000000e+00 
          2.8228812829e-02 -7.7540535480e-05 0.0000000000e+00 
          3.0322487299e-02 -7.7460560044e-05 0.0000000000e+00 
          3.2368007982e-02 -7.7395774354e-05 0.0000000000e+00 
          3.4362711846e-02 -7.7421552100e-05 0.0000000000e+00 
          3.6303999912e-02 -7.7381030193e-05 0.0000000000e+00 
          3.8189356900e-02 -7.7261664191e-05 0.0000000000e+00 
          4.0016382844e-02 -7.7240067283e-05 0.0000000000e+00 
          4.1782740681e-02 -7.7274591922e-05 0.0000000000e+00 
          4.3486185737e-02 -7.7213765703e-05 0.0000000000e+00 
          4.5124617630e-02 -7.7152597084e-05 0.0000000000e+00 
          4.6695992083e-02 -7.7188899805e-05 0.0000000000e+00 
          4.8198368157e-02 -7.7124122331e-05 0.0000000000e+00 
          4.9629913953e-02 -7.7066443240e-05 0.0000000000e+00 
          5.0988867538e-02 -7.7136973803e-05 0.0000000000e+00 
          5.2273624938e-02 -7.6917845940e-05 0.0000000000e+00 
          5.3482635587e-02 -7.7082876939e-05 0.0000000000e+00 
          5.4614465841e-02 -7.7012753439e-05 0.0000000000e+00 
          5.5667782068e-02 -7.6904261921e-05 0.0000000000e+00 
          5.6641339550e-02 -7.7007207855e-05 0.0000000000e+00 
          5.7534032123e-02 -7.6810261767e-05 0.0000000000e+00 
          5.8344799183e-02 -7.6921928301e-05 0.0000000000e+00 
          5.9072703555e-02 -7.6805733519e-05 0.0000000000e+00 
          5.9716946660e-02 -7.6683320098e-05 0.0000000000e+00 
          6.0276762269e-02 -7.6775705889e-05 0.0000000000e+00 
          6.0751522925e-02 -7.6779173556e-05 0.0000000000e+00 
          6.1140704146e-02 -7.6660992218e-05 0.0000000000e+00 
          6.1443840221e-02 -7.6634146550e-05 0.0000000000e+00 
          6.1660623992e-02 -7.6691783196e-05 0.0000000000e+00 
          6.1790793563e-02 -7.6680155349e-05 0.0000000000e+00 
          7.7000295835e-03 -7.7878735486e-05 0.0000000000e+00 
          1.0093833626e-02 -7.7677765561e-05 0.0000000000e+00 
          1.2466917336e-02 -7.7763276961e-05 0.0000000000e+00 
          1.4815975874e-02 -7.7750092293e-05 0.0000000000e+00 
          1.7137792767e-02 -7.7686707921e-05 0.0000000000e+00 
          1.9429171997e-02 -7.7604047942e-05 0.0000000000e+00 
          2.1686991053e-02 -7.7597251216e-05 0.0000000000e+00 
          2.3908196885e-02 -7.7525314455e-05 0.0000000000e+00 
          2.6089767014e-02 -7.7519838699e-05 0.0000000000e+00 
          2.8228812829e-02 -7.7540535480e-05 0.0000000000e+00 
          3.0322487299e-02 -7.7460560044e-05 0.0000000000e+00 
          3.2368007982e-02 -7.7395774354e-05 0.0000000000e+00 
          3.4362711846e-02 -7.7421552100e-05 0.0000000000e+00 
          3.6303999912e-02 -7.7381030193e-05 0.0000000000e+00 
          3.8189356900e-02 -7.7261664191e-05 0.0000000000e+00 
          4.0016382844e-02 -7.7240067283e-05 0.0000000000e+00 
          4.1782740681e-02 -7.7274591922e-05 0.0000000000e+00 
          4.3486185737e-02 -7.7213765703e-05 0.0000000000e+00 
          4.5124617630e-02 -7.7152597084e-05 0.0000000000e+00 
          4.6695992083e-02 -7.7188899805e-05 0.0000000000e+00 
          4.8198368157e-02 -7.7124122331e-05 0.0000000000e+00 
          4.9629913953e-02 -7.7066443240e-05 0.0000000000e+00 
          5.0988867538e-02 -7.7136973803e-05 0.0000000000e+00 
          5.2273624938e-02 -7.6917845940e-05 0.0000000000e+00 
          5.3482635587e-02 -7.7082876939e-05 0.0000000000e+00 
          5.4614465841e-02 -7.7012753439e-05 0.0000000000e+00 
          5.5667782068e-02 -7.6904261921e-05 0.0000000000e+00 
          5.6641339550e-02 -7.7007207855e-05 0.0000000000e+00 
          5.7534032123e-02 -7.6810261767e-05 0.0000000000e+00 
          5.8344799183e-02 -7.6921928301e-05 0.0000000000e+00 
          5.9072703555e-02 -7.6805733519e-05 0.0000000000e+00 
          5.9716946660e-02 -7.6683320098e-05 0.0000000000e+00 
          6.0276762269e-02 -7.6775705889e-05 0.0000000000e+00 
          6.0751522925e-02 -7.6779173556e-05 0.0000000000e+00 
          6.1140704146e-02 -7.6660992218e-05 0.0000000000e+00 
          6.1443840221e-02 -7.6634146550e-05 0.0000000000e+00 
          6.1660623992e-02 -7.6691783196e-05 0.0000000000e+00 
          6.1790793563e-02 -7.6680155349e-05 0.0000000000e+00 
        </DataArray>
        <DataArray type="Float64" Name="Displacement" NumberOfComponents="3" format="ascii">
          -1.0873522949e-03 -2.7920357362e-04 0.0000000000e+00 
          -1.0873522949e-03 -2.7920357362e-04 0.0000000000e+00 
          1.4404077491e-03 -3.0277298314e-04 0.0000000000e+00 
          1.4404077491e-03 -3.0277298314e-04 0.0000000000e+00 
          -9.9871409687e-04 -2.8039719480e-04 0.0000000000e+00 
          -9.0869367167e-04 -2.8156010350e-04 0.0000000000e+00 
          -8.1752674368e-04 -2.8269125564e-04 0.0000000000e+00 
          -7.2544974366e-04 -2.8379206928e-04 0.0000000000e+00 
          -6.3270007206e-04 -2.8486167129e-04 0.0000000000e+00 
          -5.3951510132e-04 -2.8590006539e-04 0.0000000000e+00 
          -4.4613161315e-04 -2.8690754780e-04 0.0000000000e+00 
          -3.5278501526e-04 -2.8788400445e-04 0.0000000000e+00 
          -2.5970941107e-04 -2.8882931584e-04 0.0000000000e+00 
          -1.6713654105e-04 -2.8974368217e-04 0.0000000000e+00 
          -7.5295684054e-05 -2.9062718025e-04 0.0000000000e+00 
          1.5587558032e-05 -2.9147962039e-04 0.0000000000e+00 
          1.0529097538e-04 -2.9230097805e-04 0.0000000000e+00 
          1.9359655921e-04 -2.9309142764e-04 0.0000000000e+00 
          2.8029099171e-04 -2.9385095522e-04 0.0000000000e+00 
          3.6516594551e-04 -2.9457934326e-04 0.0000000000e+00 
          4.4801895177e-04 -2.9527659498e-04 0.0000000000e+00 
          5.2865314572e-04 -2.9594295798e-04 0.0000000000e+00 
          6.0687791861e-04 -2.9657836734e-04 0.0000000000e+00 
          6.8250940685e-04 -2.9718253638e-04 0.0000000000e+00 
          7.5537100490e-04 -2.9775566823e-04 0.0000000000e+00 
          8.2529301641e-04 -2.9829790037e-04 0.0000000000e+00 
          8.9211361592e-04 -2.9880922136e-04 0.0000000000e+00 
          9.5567864811e-04 -2.9928908093e-04 0.0000000000e+00 
          1.0158424769e-03 -2.9973854664e-04 0.0000000000e+00 
          1.0724675383e-03 -3.0015653983e-04 0.0000000000e+00 
          1.1254249370e-03 -3.0054354420e-04 0.0000000000e+00 
          1.1745946789e-03 -3.0090003676e-04 0.0000000000e+00 
          1.2198655817e-03 -3.0122485862e-04 0.0000000000e+00 
          1.2611358793e-03 -3.0151907540e-04 0.0000000000e+00 
          1.2983128539e-03 -3.0178226503e-04 0.0000000000e+00 
          1.3313133055e-03 -3.0201444426e-04 0.0000000000e+00 
          1.3600635467e-03 -3.0221562595e-04 0.0000000000e+00 
          1.3844995258e-03 -3.0238591649e-04 0.0000000000e+00 
          1.4045669531e-03 -3.0252517196e-04 0.0000000000e+00 
          1.4202212424e-03 -3.0263348199e-04 0.0000000000e+00 
          1.4314276799e-03 -3.0271096432e-04 0.0000000000e+00 
          1.4381615085e-03 -3.0275748731e-04 0.0000000000e+00 
          -9.9871409687e-04 -2.8039719480e-04 0.0000000000e+00 
          -9.0869367167e-04 -2.8156010350e-04 0.0000000000e+00 
          -8.1752674368e-04 -2.8269125564e-04 0.0000000000e+00 
          -7.2544974366e-04 -2.8379206928e-04 0.0000000000e+00 
          -6.3270007206e-04 -2.8486167129e-04 0.0000000000e+00 
          -5.3951510132e-04 -2.8590006539e-04 0.0000000000e+00 
          -4.4613161315e-04 -2.8690754780e-04 0.0000000000e+00 
          -3.5278501526e-04 -2.8788400445e-04 0.0000000000e+00 
          -2.5970941107e-04 -2.8882931584e-04 0.0000000000e+00 
          -1.6713654105e-04 -2.8974368217e-04 0.0000000000e+00 
          -7.5295684054e-05 -2.9062718025e-04 0.0000000000e+00 
          1.5587558032e-05 -2.9147962039e-04 0.0000000000e+00 
          1.0529097538e-04 -2.9230097805e-04 0.0000000000e+00 
          1.9359655921e-04 -2.9309142764e-04 0.0000000000e+00 
          2.8029099171e-04 -2.9385095522e-04 0.0000000000e+00 
          3.6516594551e-04 -2.9457934326e-04 0.0000000000e+00 
          4.4801895177e-04 -2.9527659498e-04 0.0000000000e+00 
          5.2865314572e-04 -2.9594295798e-04 0.0000000000e+00 
          6.0687791861e-04 -2.9657836734e-04 0.0000000000e+00 
          6.8250940685e-04 -2.9718253638e-04 0.0000000000e+00 
          7.5537100490e-04 -2.9775566823e-04 0.0000000000e+00 
          8.2529301641e-04 -2.9829790037e-04 0.0000000000e+00 
          8.9211361592e-04 -2.9880922136e-04 0.0000000000e+00 
          9.5567864811e-04 -2.9928908093e-04 0.0000000000e+00 
          1.0158424769e-03 -2.9973854664e-04 0.0000000000e+00 
          1.0724675383e-03 -3.0015653983e-04 0.0000000000e+00 
          1.1254249370e-03 -3.0054354420e-04 0.0000000000e+00 
          1.1745946789e-03 -3.0090003676e-04 0.0000000000e+00 
          1.2198655817e-03 -3.0122485862e-04 0.0000000000e+00 
          1.2611358793e-03 -3.0151907540e-04 0.0000000000e+00 
          1.2983128539e-03 -3.0178226503e-04 0.0000000000e+00 
          1.3313133055e-03 -3.0201444426e-04 0.0000000000e+00 
          1.3600635467e-03 -3.0221562595e-04 0.0000000000e+00 
          1.3844995258e-03 -3.0238591649e-04 0.0000000000e+00 
          1.4045669531e-03 -3.0252517196e-04 0.0000000000e+00 
          1.4202212424e-03 -3.0263348199e-04 0.0000000000e+00 
          1.4314276799e-03 -3.0271096432e-04 0.0000000000e+00 
          1.4381615085e-03 -3.0275748731e-04 0.0000000000e+00 
        </DataArray>
        <DataArray type="Float64" Name="Acceleration" NumberOfComponents="3" format="ascii">
          1.4561587280e-01 -2.0706660134e-06 0.0000000000e+00 
          1.4561587280e-01 -2.0706660134e-06 0.0000000000e+00 
          -4.0478143046e-01 -2.6479466607e-06 0.0000000000e+00 
          -4.0478143046e-01 -2.6479466607e-06 0.0000000000e+00 
          1.2454139954e-01 -5.2953018073e-05 0.0000000000e+00 
          1.0331291096e-01 1.3493234599e-04 0.0000000000e+00 
          8.1988661910e-02 -1.2007953507e-04 0.0000000000e+00 
          6.0609037659e-02 3.6995553443e-05 0.0000000000e+00 
          3.9221312158e-02 3.6322133292e-05 0.0000000000e+00 
          1.7897762464e-02 -1.7286053158e-05 0.0000000000e+00 
          -3.3348267168e-03 3.7397033215e-06 0.0000000000e+00 
          -2.4417068407e-02 2.5034378545e-05 0.0000000000e+00 
          -4.5297341533e-02 -1.1042495313e-05 0.0000000000e+00 
          -6.5945104357e-02 -2.5087511207e-05 0.0000000000e+00 
          -8.6293808098e-02 9.5090349080e-06 0.0000000000e+00 
          -1.0630453855e-01 1.3722124037e-05 0.0000000000e+00 
          -1.2594756063e-01 -1.7708868050e-05 0.0000000000e+00 
          -1.4516791685e-01 -1.5194152186e-05 0.0000000000e+00 
          -1.6392878913e-01 2.3834368837e-05 0.0000000000e+00 
          -1.8219152642e-01 2.3600267998e-05 0.0000000000e+00 
          -1.9991937034e-01 -2.1196224050e-05 0.0000000000e+00 
          -2.1709359597e-01 -9.4971255828e-06 0.0000000000e+00 
          -2.3365136097e-01 4.2027031081e-05 0.0000000000e+00 
          -2.4958159793e-01 5.7050002502e-06 0.0000000000e+00 
          -2.6486255199e-01 -1.9212686161e-05 0.0000000000e+00 
          -2.7944334596e-01 -1.7154205442e-05 0.0000000000e+00 
          -2.9332579038e-01 8.1898303117e-05 0.0000000000e+00 
          -3.0646278768e-01 -1.1025543557e-04 0.0000000000e+00 
          -3.1884993485e-01 8.4008938539e-05 0.0000000000e+00 
          -3.3046364708e-01 -3.1556333254e-06 0.0000000000e+00 
          -3.4127535139e-01 -8.9116394207e-05 0.0000000000e+00 
          -3.5128804009e-01 1.1964735318e-04 0.0000000000e+00 
          -3.6046795683e-01 -7.2225964651e-05 0.0000000000e+00 
          -3.6881649185e-01 3.7492688555e-06 0.0000000000e+00 
          -3.7631297124e-01 7.3040776216e-07 0.0000000000e+00 
          -3.8294922488e-01 -1.6269387008e-06 0.0000000000e+00 
          -3.8872716524e-01 -2.0706933333e-05 0.0000000000e+00 
          -3.9361513863e-01 5.1785950885e-06 0.0000000000e+00 
          -3.9763244864e-01 -1.0974689367e-05 0.0000000000e+00 
          -4.0075917355e-01 -3.2205147178e-05 0.0000000000e+00 
          -4.0299248187e-01 -8.4477759620e-06 0.0000000000e+00 
          -4.0434053308e-01 3.7543130312e-06 0.0000000000e+00 
          1.2454139954e-01 -5.2953018073e-05 0.0000000000e+00 
          1.0331291096e-01 1.3493234599e-04 0.0000000000e+00 
          8.1988661910e-02 -1.2007953507e-04 0.0000000000e+00 
          6.0609037659e-02 3.6995553443e-05 0.0000000000e+00 
          3.9221312158e-02 3.6322133292e-05 0.0000000000e+00 
          1.7897762464e-02 -1.7286053158e-05 0.0000000000e+00 
          -3.3348267168e-03 3.7397033215e-06 0.0000000000e+00 
          -2.4417068407e-02 2.5034378545e-05 0.0000000000e+00 
          -4.5297341533e-02 -1.1042495313e-05 0.0000000000e+00 
          -6.5945104357e-02 -2.5087511207e-05 0.0000000000e+00 
          -8.6293808098e-02 9.5090349080e-06 0.0000000000e+00 
          -1.0630453855e-01 1.3722124037e-05 0.0000000000e+00 
          -1.2594756063e-01 -1.7708868050e-05 0.0000000000e+00 
          -1.4516791685e-01 -1.5194152186e-05 0.0000000000e+00 
          -1.6392878913e-01 2.3834368837e-05 0.0000000000e+00 
          -1.8219152642e-01 2.3600267998e-05 0.0000000000e+00 
          -1.9991937034e-01 -2.1196224050e-05 0.0000000000e+00 
          -2.1709359597e-01 -9.4971255828e-06 0.0000000000e+00 
          -2.3365136097e-01 4.2027031081e-05 0.0000000000e+00 
          -2.4958159793e-01 5.7050002502e-06 0.0000000000e+00 
          -2.6486255199e-01 -1.9212686161e-05 0.0000000000e+00 
          -2.7944334596e-01 -1.7154205442e-05 0.0000000000e+00 
          -2.9332579038e-01 8.1898303117e-05 0.0000000000e+00 
          -3.0646278768e-01 -1.1025543557e-04 0.0000000000e+00 
          -3.1884993485e-01 8.4008938539e-05 0.0000000000e+00 
          -3.3046364708e-01 -3.1556333254e-06 0.0000000000e+00 
          -3.4127535139e-01 -8.9116394207e-05 0.0000000000e+00 
          -3.5128804009e-01 1.1964735318e-04 0.0000000000e+00 
          -3.6046795683e-01 -7.2225964651e-05 0.0000000000e+00 
          -3.6881649185e-01 3.7492688555e-06 0.0000000000e+00 
          -3.7631297124e-01 7.3040776216e-07 0.0000000000e+00 
          -3.8294922488e-01 -1.6269387008e-06 0.0000000000e+00 
          -3.8872716524e-01 -2.0706933333e-05 0.0000000000e+00 
          -3.9361513863e-01 5.1785950885e-06 0.0000000000e+00 
          -3.9763244864e-01 -1.0974689367e-05 0.0000000000e+00 
          -4.0075917355e-01 -3.2205147178e-05 0.0000000000e+00 
          -4.0299248187e-01 -8.4477759620e-06 0.0000000000e+00 
          -4.0434053308e-01 3.7543130312e-06 0.0000000000e+00 
        </DataArray>
        <DataArray type="Float64" Name="Reaction" NumberOfComponents="3" format="ascii">
          0.0000000000e+00 0.0000000000e+00 0.0000000000e+00 
          0.0000000000e+00 0.0000000000e+00 0.0000000000e+00 
          0.0000000000e+00 0.0000000000e+00 0.0000000000e+00 
          0.0000000000e+00 0.0000000000e+00 0.0000000000e+00 
          0.0000000000e+00 0.0000000000e+00 0.0000000000e+00 
          0.0000000000e+00 0.0000000000e+00 0.0000000000e+00 
          0.0000000000e+00 0.0000000000e+00 0.0000000000e+00 
          0.0000000000e+00 0.0000000000e+00 0.0000000000e+00 
          0.0000000000e+00 0.0000000000e+00 0.0000000000e+00 
          0.0000000000e+00 0.0000000000e+00 0.0000000000e+00 
          0.0000000000e+00 0.0000000000e+00 0.0000000000e+00 
          0.0000000000e+00 0.0000000000e+00 0.0000000000e+00 
          0.0000000000e+00 0.0000000000e+00 0.0000000000e+00 
          0.0000000000e+00 0.0000000000e+00 0.0000000000e+00 
          0.0000000000e+00 0.0000000000e+00 0.0000000000e+00 
          0.0000000000e+00 0.0000000000e+00 0.0000000000e+00 
          0.0000000000e+00 0.0000000000e+00 0.0000000000e+00 
          0.0000000000e+00 0.0000000000e+00 0.0000000000e+00 
          0.0000000000e+00 0.0000000000e+00 0.0000000000e+00 
          0.0000000000e+00 0.0000000000e+00 0.0000000000e+00 
          0.0000000000e+00 0.0000000000e+00 0.0000000000e+00 
          0.0000000000e+00 0.0000000000e+00 0.0000000000e+00 
          0.0000000000e+00 0.0000000000e+00 0.0000000000e+00 
          0.0000000000e+00 0.0000000000e+00 0.0000000000e+00 
          0.0000000000e+00 0.0000000000e+00 0.0000000000e+00 
          0.0000000000e+00 0.0000000000e+00 0.0000000000e+00 
          0.0000000000e+00 0.0000000000e+00 0.0000000000e+00 
          0.0000000000e+00 0.0000000000e+00 0.0000000000e+00 
          0.0000000000e+00 0.0000000000e+00 0.0000000000e+00 
          0.0000000000e+00 0.0000000000e+00 0.0000000000e+00 
          0.0000000000e+00 0.0000000000e+00 0.0000000000e+00 
          0.0000000000e+00 0.0000000000e+00 0.0000000000e+00 
          0.0000000000e+00 0.0000000000e+00 0.0000000000e+00 
          0.0000000000e+00 0.0000000000e+00 0.0000000000e+00 
          0.0000000000e+00 0.0000000000e+00 0.0000000000e+00 
          0.0000000000e+00 0.0000000000e+00 0.0000000000e+00 
          0.0000000000e+00 0.0000000000e+00 0.0000000000e+00 
          0.0000000000e+00 0.0000000000e+00 0.0000000000e+00 
          0.0000000000e+00 0.0000000000e+00 0.0000000000e+00 
          0.0000000000e+00 0.0000000000e+00 0.0000000000e+00 
          0.0000000000e+00 0.0000000000e+00 0.0000000000e+00 
          0.0000000000e+00 0.0000000000e+00 0.0000000000e+00 
          0.0000000000e+00 0.0000000000e+00 0.0000000000e+00 
          0.0000000000e+00 0.0000000000e+00 0.0000000000e+00 
          0.0000000000e+00 0.0000000000e+00 0.0000000000e+00 
          0.0000000000e+00 0.0000000000e+00 0.0000000000e+00 
          0.0000000000e+00 0.0000000000e+00 0.0000000000e+00 
          0.0000000000e+00 0.0000000000e+00 0.0000000000e+00 
          0.0000000000e+00 0.0000000000e+00 0.0000000000e+00 
          0.0000000000e+00 0.0000000000e+00 0.0000000000e+00 
          0.0000000000e+00 0.0000000000e+00 0.0000000000e+00 
          0.0000000000e+00 0.0000000000e+00 0.0000000000e+00 
          0.0000000000e+00 0.0000000000e+00 0.0000000000e+00 
          0.0000000000e+00 0.0000000000e+00 0.0000000000e+00 
          0.0000000000e+00 0.0000000000e+00 0.0000000000e+00 
          0.0000000000e+00 0.0000000000e+00 0.0000000000e+00 
          0.0000000000e+00 0.0000000000e+00 0.0000000000e+00 
          0.0000000000e+00 0.0000000000e+00 0.0000000000e+00 
          0.0000000000e+00 0.0000000000e+00 0.0000000000e+00 
          0.0000000000e+00 0.0000000000e+00 0.0000000000e+00 
          0.0000000000e+00 0.0000000000e+00 0.0000000000e+00 
          0.0000000000e+00 0.0000000000e+00 0.0000000000e+00 
          0.0000000000e+00 0.0000000000e+00 0.0000000000e+00 
          0.0000000000e+00 0.0000000000e+00 0.0000000000e+00 
          0.0000000000e+00 0.0000000000e+00 0.0000000000e+00 
          0.0000000000e+00 0.0000000000e+00 0.0000000000e+00 
          0.0000000000e+00 0.0000000000e+00 0.0000000000e+00 
          0.0000000000e+00 0.0000000000e+00 0.0000000000e+00 
          0.0000000000e+00 0.0000000000e+00 0.0000000000e+00 
          0.0000000000e+00 0.0000000000e+00 0.0000000000e+00 
          0.0000000000e+00 0.0000000000e+00 0.0000000000e+00 
          0.0000000000e+00 0.0000000000e+00 0.0000000000e+00 
          0.0000000000e+00 0.0000000000e+00 0.0000000000e+00 
          0.0000000000e+00 0.0000000000e+00 0.0000000000e+00 
          0.0000000000e+00 0.0000000000e+00 0.0000000000e+00 
          0.0000000000e+00 0.0000000000e+00 0.0000000000e+00 
          0.0000000000e+00 0.0000000000e+00 0.0000000000e+00 
          0.0000000000e+00 0.0000000000e+00 0.0000000000e+00 
          0.0000000000e+00 0.0000000000e+00 0.0000000000e+00 
          0.0000000000e+00 0.0000000000e+00 0.0000000000e+00 
        </DataArray>
      </PointData>
      <CellData>
        <DataArray type="Int64" Name="ElementTag" format="ascii">
          90
          91
          92
          93
          94
          95
          96
          97
          98
          99
          100
          101
          102
          103
          104
          105
          106
          107
          108
          109
          110
          111
          112
          113
          114
          115
          116
          117
          118
          119
          120
          121
          122
          123
          124
          125
          126
          127
          128
        </DataArray>
      </CellData>
    </Piece>
  </UnstructuredGrid>
</VTKFile>
