<?xml version="1.0"?>
<VTKFile type="UnstructuredGrid" version="1.0" byte_order="LittleEndian" compressor="vtkZLibDataCompressor">
  <UnstructuredGrid>
    <Piece NumberOfPoints="82" NumberOfCells="1">
      <Points>
        <DataArray type="Float64" Name="Points" NumberOfComponents="3" format="ascii">
          0.0000000000e+00 0.0000000000e+00 0.0000000000e+00 
          2.5000000000e-01 0.0000000000e+00 0.0000000000e+00 
          2.5000000000e-01 3.0000000000e+01 0.0000000000e+00 
          0.0000000000e+00 3.0000000000e+01 0.0000000000e+00 
          0.0000000000e+00 -5.0000000000e+00 0.0000000000e+00 
          2.5000000000e-01 -5.0000000000e+00 0.0000000000e+00 
          2.5000000000e-01 7.6923100000e-01 0.0000000000e+00 
          2.5000000000e-01 1.5384620000e+00 0.0000000000e+00 
          2.5000000000e-01 2.3076920000e+00 0.0000000000e+00 
          2.5000000000e-01 3.0769230000e+00 0.0000000000e+00 
          2.5000000000e-01 3.8461540000e+00 0.0000000000e+00 
          2.5000000000e-01 4.6153850000e+00 0.0000000000e+00 
          2.5000000000e-01 5.3846150000e+00 0.0000000000e+00 
          2.5000000000e-01 6.1538460000e+00 0.0000000000e+00 
          2.5000000000e-01 6.9230770000e+00 0.0000000000e+00 
          2.5000000000e-01 7.6923080000e+00 0.0000000000e+00 
          2.5000000000e-01 8.4615380000e+00 0.0000000000e+00 
          2.5000000000e-01 9.2307690000e+00 0.0000000000e+00 
          2.5000000000e-01 1.0000000000e+01 0.0000000000e+00 
          2.5000000000e-01 1.0769231000e+01 0.0000000000e+00 
          2.5000000000e-01 1.1538462000e+01 0.0000000000e+00 
          2.5000000000e-01 1.2307692000e+01 0.0000000000e+00 
          2.5000000000e-01 1.3076923000e+01 0.0000000000e+00 
          2.5000000000e-01 1.3846154000e+01 0.0000000000e+00 
          2.5000000000e-01 1.4615385000e+01 0.0000000000e+00 
          2.5000000000e-01 1.5384615000e+01 0.0000000000e+00 
          2.5000000000e-01 1.6153846000e+01 0.0000000000e+00 
          2.5000000000e-01 1.6923077000e+01 0.0000000000e+00 
          2.5000000000e-01 1.7692308000e+01 0.0000000000e+00 
          2.5000000000e-01 1.8461538000e+01 0.0000000000e+00 
          2.5000000000e-01 1.9230769000e+01 0.0000000000e+00 
          2.5000000000e-01 2.0000000000e+01 0.0000000000e+00 
          2.5000000000e-01 2.0769231000e+01 0.0000000000e+00 
          2.5000000000e-01 2.1538462000e+01 0.0000000000e+00 
          2.5000000000e-01 2.2307692000e+01 0.0000000000e+00 
          2.5000000000e-01 2.3076923000e+01 0.0000000000e+00 
          2.5000000000e-01 2.3846154000e+01 0.0000000000e+00 
          2.5000000000e-01 2.4615385000e+01 0.0000000000e+00 
          2.5000000000e-01 2.5384615000e+01 0.0000000000e+00 
          2.5000000000e-01 2.6153846000e+01 0.0000000000e+00 
          2.5000000000e-01 2.6923077000e+01 0.0000000000e+00 
          2.5000000000e-01 2.7692308000e+01 0.0000000000e+00 
          2.5000000000e-01 2.8461538000e+01 0.0000000000e+00 
          2.5000000000e-01 2.9230769000e+01 0.0000000000e+00 
          0.0000000000e+00 7.6923100000e-01 0.0000000000e+00 
          0.0000000000e+00 1.5384620000e+00 0.0000000000e+00 
          0.0000000000e+00 2.3076920000e+00 0.0000000000e+00 
          0.0000000000e+00 3.0769230000e+00 0.0000000000e+00 
          0.0000000000e+00 3.8461540000e+00 0.0000000000e+00 
          0.0000000000e+00 4.6153850000e+00 0.0000000000e+00 
          0.0000000000e+00 5.3846150000e+00 0.0000000000e+00 
          0.0000000000e+00 6.1538460000e+00 0.0000000000e+00 
          0.0000000000e+00 6.9230770000e+00 0.0000000000e+00 
          0.0000000000e+00 7.6923080000e+00 0.0000000000e+00 
          0.0000000000e+00 8.4615380000e+00 0.0000000000e+00 
          0.0000000000e+00 9.2307690000e+00 0.0000000000e+00 
          0.0000000000e+00 1.0000000000e+01 0.0000000000e+00 
          0.0000000000e+00 1.0769231000e+01 0.0000000000e+00 
          0.0000000000e+00 1.1538462000e+01 0.0000000000e+00 
          0.0000000000e+00 1.2307692000e+01 0.0000000000e+00 
          0.0000000000e+00 1.3076923000e+01 0.0000000000e+00 
          0.0000000000e+00 1.3846154000e+01 0.0000000000e+00 
          0.0000000000e+00 1.4615385000e+01 0.0000000000e+00 
          0.0000000000e+00 1.5384615000e+01 0.0000000000e+00 
          0.0000000000e+00 1.6153846000e+01 0.0000000000e+00 
          0.0000000000e+00 1.6923077000e+01 0.0000000000e+00 
          0.0000000000e+00 1.7692308000e+01 0.0000000000e+00 
          0.0000000000e+00 1.8461538000e+01 0.0000000000e+00 
          0.0000000000e+00 1.9230769000e+01 0.0000000000e+00 
          0.0000000000e+00 2.0000000000e+01 0.0000000000e+00 
          0.0000000000e+00 2.0769231000e+01 0.0000000000e+00 
          0.0000000000e+00 2.1538462000e+01 0.0000000000e+00 
          0.0000000000e+00 2.2307692000e+01 0.0000000000e+00 
          0.0000000000e+00 2.3076923000e+01 0.0000000000e+00 
          0.0000000000e+00 2.3846154000e+01 0.0000000000e+00 
          0.0000000000e+00 2.4615385000e+01 0.0000000000e+00 
          0.0000000000e+00 2.5384615000e+01 0.0000000000e+00 
          0.0000000000e+00 2.6153846000e+01 0.0000000000e+00 
          0.0000000000e+00 2.6923077000e+01 0.0000000000e+00 
          0.0000000000e+00 2.7692308000e+01 0.0000000000e+00 
          0.0000000000e+00 2.8461538000e+01 0.0000000000e+00 
          0.0000000000e+00 2.9230769000e+01 0.0000000000e+00 
        </DataArray>
      </Points>
      <Cells>
        <DataArray type="Int64" Name="connectivity" format="ascii">
          0
          1
          2
          3
          4
          5
          6
          7
          8
          9
          10
          11
          12
          13
          14
          15
          16
          17
          18
          19
          20
          21
          22
          23
          24
          25
          26
          27
          28
          29
          30
          31
          32
          33
          34
          35
          36
          37
          38
          39
          40
          41
          42
          43
          44
          45
          46
          47
          48
          49
          50
          51
          52
          53
          54
          55
          56
          57
          58
          59
          60
          61
          62
          63
          64
          65
          66
          67
          68
          69
          70
          71
          72
          73
          74
          75
          76
          77
          78
          79
          80
          81
        </DataArray>
        <DataArray type="Int64" Name="offsets" format="ascii">
          82
        </DataArray>
        <DataArray type="Int64" Name="types" format="ascii">
          2
        </DataArray>
      </Cells>
      <PointData>
        <DataArray type="Int64" Name="NodeTag" format="ascii">
          1
          2
          3
          4
          5
          6
          7
          8
          9
          10
          11
          12
          13
          14
          15
          16
          17
          18
          19
          20
          21
          22
          23
          24
          25
          26
          27
          28
          29
          30
          31
          32
          33
          34
          35
          36
          37
          38
          39
          40
          41
          42
          43
          44
          45
          46
          47
          48
          49
          50
          51
          52
          53
          54
          55
          56
          57
          58
          59
          60
          61
          62
          63
          64
          65
          66
          67
          68
          69
          70
          71
          72
          73
          74
          75
          76
          77
          78
          79
          80
          81
          82
        </DataArray>
        <DataArray type="Float64" Name="Velocity" NumberOfComponents="3" format="ascii">
          6.7505628344e-05 -7.7857897658e-05 0.0000000000e+00 
          6.7505628344e-05 -7.7857897658e-05 0.0000000000e+00 
          -4.1210566744e-03 -7.7816126760e-05 0.0000000000e+00 
          -4.1210566744e-03 -7.7816126760e-05 0.0000000000e+00 
          0.0000000000e+00 0.0000000000e+00 0.0000000000e+00 
          0.0000000000e+00 0.0000000000e+00 0.0000000000e+00 
          -1.0451575322e-04 -7.7820994797e-05 0.0000000000e+00 
          -2.7602136811e-04 -7.7859461733e-05 0.0000000000e+00 
          -4.4672994325e-04 -7.7878368530e-05 0.0000000000e+00 
          -6.1635755770e-04 -7.7768536294e-05 0.0000000000e+00 
          -7.8464374465e-04 -7.7926421400e-05 0.0000000000e+00 
          -9.5129740522e-04 -7.7782832706e-05 0.0000000000e+00 
          -1.1160636318e-03 -7.7825649782e-05 0.0000000000e+00 
          -1.2786815938e-03 -7.7881424047e-05 0.0000000000e+00 
          -1.4388661951e-03 -7.7803141383e-05 0.0000000000e+00 
          -1.5963958332e-03 -7.7821603390e-05 0.0000000000e+00 
          -1.7509980539e-03 -7.7860893683e-05 0.0000000000e+00 
          -1.9024365358e-03 -7.7812372593e-05 0.0000000000e+00 
          -2.0504836777e-03 -7.7814954007e-05 0.0000000000e+00 
          -2.1948879124e-03 -7.7851417776e-05 0.0000000000e+00 
          -2.3354572774e-03 -7.7820612946e-05 0.0000000000e+00 
          -2.4719479329e-03 -7.7803507655e-05 0.0000000000e+00 
          -2.6041669858e-03 -7.7836606224e-05 0.0000000000e+00 
          -2.7319175343e-03 -7.7831238159e-05 0.0000000000e+00 
          -2.8549959654e-03 -7.7802199788e-05 0.0000000000e+00 
          -2.9732344259e-03 -7.7816919382e-05 0.0000000000e+00 
          -3.0864520874e-03 -7.7832877971e-05 0.0000000000e+00 
          -3.1944780373e-03 -7.7810764074e-05 0.0000000000e+00 
          -3.2971671029e-03 -7.7801644448e-05 0.0000000000e+00 
          -3.3943685963e-03 -7.7822142418e-05 0.0000000000e+00 
          -3.4859346169e-03 -7.7825499145e-05 0.0000000000e+00 
          -3.5717525398e-03 -7.7809677940e-05 0.0000000000e+00 
          -3.6516871544e-03 -7.7809994876e-05 0.0000000000e+00 
          -3.7256360878e-03 -7.7819610673e-05 0.0000000000e+00 
          -3.7934939750e-03 -7.7816486968e-05 0.0000000000e+00 
          -3.8551677801e-03 -7.7812981367e-05 0.0000000000e+00 
          -3.9105744615e-03 -7.7819319672e-05 0.0000000000e+00 
          -3.9596395494e-03 -7.7819270518e-05 0.0000000000e+00 
          -4.0022952757e-03 -7.7810776704e-05 0.0000000000e+00 
          -4.0384812124e-03 -7.7812015425e-05 0.0000000000e+00 
          -4.0681620498e-03 -7.7820268366e-05 0.0000000000e+00 
          -4.0912795237e-03 -7.7817649984e-05 0.0000000000e+00 
          -4.1078190102e-03 -7.7809621173e-05 0.0000000000e+00 
          -4.1177525580e-03 -7.7811671255e-05 0.0000000000e+00 
          -1.0451575322e-04 -7.7820994797e-05 0.0000000000e+00 
          -2.7602136811e-04 -7.7859461733e-05 0.0000000000e+00 
          -4.4672994325e-04 -7.7878368530e-05 0.0000000000e+00 
          -6.1635755770e-04 -7.7768536294e-05 0.0000000000e+00 
          -7.8464374465e-04 -7.7926421400e-05 0.0000000000e+00 
          -9.5129740522e-04 -7.7782832706e-05 0.0000000000e+00 
          -1.1160636318e-03 -7.7825649782e-05 0.0000000000e+00 
          -1.2786815938e-03 -7.7881424047e-05 0.0000000000e+00 
          -1.4388661951e-03 -7.7803141383e-05 0.0000000000e+00 
          -1.5963958332e-03 -7.7821603390e-05 0.0000000000e+00 
          -1.7509980539e-03 -7.7860893683e-05 0.0000000000e+00 
          -1.9024365358e-03 -7.7812372593e-05 0.0000000000e+00 
          -2.0504836777e-03 -7.7814954007e-05 0.0000000000e+00 
          -2.1948879124e-03 -7.7851417776e-05 0.0000000000e+00 
          -2.3354572774e-03 -7.7820612946e-05 0.0000000000e+00 
          -2.4719479329e-03 -7.7803507655e-05 0.0000000000e+00 
          -2.6041669858e-03 -7.7836606224e-05 0.0000000000e+00 
          -2.7319175343e-03 -7.7831238159e-05 0.0000000000e+00 
          -2.8549959654e-03 -7.7802199788e-05 0.0000000000e+00 
          -2.9732344259e-03 -7.7816919382e-05 0.0000000000e+00 
          -3.0864520874e-03 -7.7832877971e-05 0.0000000000e+00 
          -3.1944780373e-03 -7.7810764074e-05 0.0000000000e+00 
          -3.2971671029e-03 -7.7801644448e-05 0.0000000000e+00 
          -3.3943685963e-03 -7.7822142418e-05 0.0000000000e+00 
          -3.4859346169e-03 -7.7825499145e-05 0.0000000000e+00 
          -3.5717525398e-03 -7.7809677940e-05 0.0000000000e+00 
          -3.6516871544e-03 -7.7809994876e-05 0.0000000000e+00 
          -3.7256360878e-03 -7.7819610673e-05 0.0000000000e+00 
          -3.7934939750e-03 -7.7816486968e-05 0.0000000000e+00 
          -3.8551677801e-03 -7.7812981367e-05 0.0000000000e+00 
          -3.9105744615e-03 -7.7819319672e-05 0.0000000000e+00 
          -3.9596395494e-03 -7.7819270518e-05 0.0000000000e+00 
          -4.0022952757e-03 -7.7810776704e-05 0.0000000000e+00 
          -4.0384812124e-03 -7.7812015425e-05 0.0000000000e+00 
          -4.0681620498e-03 -7.7820268366e-05 0.0000000000e+00 
          -4.0912795237e-03 -7.7817649984e-05 0.0000000000e+00 
          -4.1078190102e-03 -7.7809621173e-05 0.0000000000e+00 
          -4.1177525580e-03 -7.7811671255e-05 0.0000000000e+00 
        </DataArray>
        <DataArray type="Float64" Name="Displacement" NumberOfComponents="3" format="ascii">
          6.8074095107e-05 -4.1775791359e-04 0.0000000000e+00 
          6.8074095107e-05 -4.1775791359e-04 0.0000000000e+00 
          6.9745753057e-05 -4.4134061816e-04 0.0000000000e+00 
          6.9745753057e-05 -4.4134061816e-04 0.0000000000e+00 
          0.0000000000e+00 0.0000000000e+00 0.0000000000e+00 
          0.0000000000e+00 0.0000000000e+00 0.0000000000e+00 
          6.9137618447e-05 -4.1895186188e-04 0.0000000000e+00 
          7.0090118206e-05 -4.2011434553e-04 0.0000000000e+00 
          7.0935771199e-05 -4.2124658150e-04 0.0000000000e+00 
          7.1678956608e-05 -4.2234701492e-04 0.0000000000e+00 
          7.2324144192e-05 -4.2341701457e-04 0.0000000000e+00 
          7.2875985202e-05 -4.2445581696e-04 0.0000000000e+00 
          7.3339211852e-05 -4.2546348168e-04 0.0000000000e+00 
          7.3718651819e-05 -4.2644034796e-04 0.0000000000e+00 
          7.4019281744e-05 -4.2738614820e-04 0.0000000000e+00 
          7.4246064094e-05 -4.2830084647e-04 0.0000000000e+00 
          7.4404040096e-05 -4.2918467946e-04 0.0000000000e+00 
          7.4498317853e-05 -4.3003746546e-04 0.0000000000e+00 
          7.4534008122e-05 -4.3085914404e-04 0.0000000000e+00 
          7.4516183478e-05 -4.3164991620e-04 0.0000000000e+00 
          7.4449978212e-05 -4.3240971028e-04 0.0000000000e+00 
          7.4340414630e-05 -4.3313840443e-04 0.0000000000e+00 
          7.4192519004e-05 -4.3383611511e-04 0.0000000000e+00 
          7.4011270920e-05 -4.3450286796e-04 0.0000000000e+00 
          7.3801473868e-05 -4.3513856139e-04 0.0000000000e+00 
          7.3567950938e-05 -4.3574323200e-04 0.0000000000e+00 
          7.3315335132e-05 -4.3631694434e-04 0.0000000000e+00 
          7.3048138728e-05 -4.3685962978e-04 0.0000000000e+00 
          7.2770786724e-05 -4.3737126753e-04 0.0000000000e+00 
          7.2487425195e-05 -4.3785193338e-04 0.0000000000e+00 
          7.2202159668e-05 -4.3830161649e-04 0.0000000000e+00 
          7.1918832295e-05 -4.3872024238e-04 0.0000000000e+00 
          7.1641054789e-05 -4.3910784216e-04 0.0000000000e+00 
          7.1372331438e-05 -4.3946448082e-04 0.0000000000e+00 
          7.1115794341e-05 -4.3979011857e-04 0.0000000000e+00 
          7.0874475476e-05 -4.4008470207e-04 0.0000000000e+00 
          7.0651065867e-05 -4.4034827139e-04 0.0000000000e+00 
          7.0448013146e-05 -4.4058086821e-04 0.0000000000e+00 
          7.0267553414e-05 -4.4078245048e-04 0.0000000000e+00 
          7.0111547860e-05 -4.4095298585e-04 0.0000000000e+00 
          6.9981665807e-05 -4.4109251869e-04 0.0000000000e+00 
          6.9879252092e-05 -4.4120108131e-04 0.0000000000e+00 
          6.9805339096e-05 -4.4127863020e-04 0.0000000000e+00 
          6.9760690510e-05 -4.4132513002e-04 0.0000000000e+00 
          6.9137618447e-05 -4.1895186188e-04 0.0000000000e+00 
          7.0090118206e-05 -4.2011434553e-04 0.0000000000e+00 
          7.0935771199e-05 -4.2124658150e-04 0.0000000000e+00 
          7.1678956608e-05 -4.2234701492e-04 0.0000000000e+00 
          7.2324144192e-05 -4.2341701457e-04 0.0000000000e+00 
          7.2875985202e-05 -4.2445581696e-04 0.0000000000e+00 
          7.3339211852e-05 -4.2546348168e-04 0.0000000000e+00 
          7.3718651819e-05 -4.2644034796e-04 0.0000000000e+00 
          7.4019281744e-05 -4.2738614820e-04 0.0000000000e+00 
          7.4246064094e-05 -4.2830084647e-04 0.0000000000e+00 
          7.4404040096e-05 -4.2918467946e-04 0.0000000000e+00 
          7.4498317853e-05 -4.3003746546e-04 0.0000000000e+00 
          7.4534008122e-05 -4.3085914404e-04 0.0000000000e+00 
          7.4516183478e-05 -4.3164991620e-04 0.0000000000e+00 
          7.4449978212e-05 -4.3240971028e-04 0.0000000000e+00 
          7.4340414630e-05 -4.3313840443e-04 0.0000000000e+00 
          7.4192519004e-05 -4.3383611511e-04 0.0000000000e+00 
          7.4011270920e-05 -4.3450286796e-04 0.0000000000e+00 
          7.3801473868e-05 -4.3513856139e-04 0.0000000000e+00 
          7.3567950938e-05 -4.3574323200e-04 0.0000000000e+00 
          7.3315335132e-05 -4.3631694434e-04 0.0000000000e+00 
          7.3048138728e-05 -4.3685962978e-04 0.0000000000e+00 
          7.2770786724e-05 -4.3737126753e-04 0.0000000000e+00 
          7.2487425195e-05 -4.3785193338e-04 0.0000000000e+00 
          7.2202159668e-05 -4.3830161649e-04 0.0000000000e+00 
          7.1918832295e-05 -4.3872024238e-04 0.0000000000e+00 
          7.1641054789e-05 -4.3910784216e-04 0.0000000000e+00 
          7.1372331438e-05 -4.3946448082e-04 0.0000000000e+00 
          7.1115794341e-05 -4.3979011857e-04 0.0000000000e+00 
          7.0874475476e-05 -4.4008470207e-04 0.0000000000e+00 
          7.0651065867e-05 -4.4034827139e-04 0.0000000000e+00 
          7.0448013146e-05 -4.4058086821e-04 0.0000000000e+00 
          7.0267553414e-05 -4.4078245048e-04 0.0000000000e+00 
          7.0111547860e-05 -4.4095298585e-04 0.0000000000e+00 
          6.9981665807e-05 -4.4109251869e-04 0.0000000000e+00 
          6.9879252092e-05 -4.4120108131e-04 0.0000000000e+00 
          6.9805339096e-05 -4.4127863020e-04 0.0000000000e+00 
          6.9760690510e-05 -4.4132513002e-04 0.0000000000e+00 
        </DataArray>
        <DataArray type="Float64" Name="Acceleration" NumberOfComponents="3" format="ascii">
          -1.0365676284e-02 1.4234170356e-06 0.0000000000e+00 
          -1.0365676284e-02 1.4234170356e-06 0.0000000000e+00 
          2.6917881302e-03 -5.4175429248e-06 0.0000000000e+00 
          2.6917881302e-03 -5.4175429248e-06 0.0000000000e+00 
          0.0000000000e+00 0.0000000000e+00 0.0000000000e+00 
          0.0000000000e+00 0.0000000000e+00 0.0000000000e+00 
          -1.0003443942e-02 8.2586865718e-05 0.0000000000e+00 
          -9.6270117787e-03 -1.3697341826e-04 0.0000000000e+00 
          -9.2326367537e-03 1.4374844244e-04 0.0000000000e+00 
          -8.8297975470e-03 -1.0317686827e-04 0.0000000000e+00 
          -8.4107105994e-03 3.4402606894e-05 0.0000000000e+00 
          -7.9842798650e-03 2.3436053684e-05 0.0000000000e+00 
          -7.5494047220e-03 -3.7224886197e-05 0.0000000000e+00 
          -7.1009404233e-03 1.0758552673e-05 0.0000000000e+00 
          -6.6538123725e-03 1.7234054544e-05 0.0000000000e+00 
          -6.1995733171e-03 -2.5621468437e-05 0.0000000000e+00 
          -5.7393599548e-03 7.5336724322e-06 0.0000000000e+00 
          -5.2788483388e-03 1.8218770316e-05 0.0000000000e+00 
          -4.8217993639e-03 -1.8007180206e-05 0.0000000000e+00 
          -4.3591896006e-03 -5.0922458427e-06 0.0000000000e+00 
          -3.9066851961e-03 1.6699287115e-05 0.0000000000e+00 
          -3.4537823988e-03 -3.9473704457e-06 0.0000000000e+00 
          -3.0051222043e-03 -8.7407645970e-06 0.0000000000e+00 
          -2.5723184228e-03 9.5676527884e-06 0.0000000000e+00 
          -2.1377772751e-03 2.8310516144e-06 0.0000000000e+00 
          -1.7202795687e-03 -8.5169170390e-06 0.0000000000e+00 
          -1.3137406753e-03 3.7047076153e-06 0.0000000000e+00 
          -9.1503957641e-04 7.4530049568e-06 0.0000000000e+00 
          -5.4150365744e-04 -6.3151883092e-06 0.0000000000e+00 
          -1.7152082155e-04 -4.1341728538e-06 0.0000000000e+00 
          1.7463146271e-04 9.1673594054e-06 0.0000000000e+00 
          5.0005387819e-04 3.5643771670e-06 0.0000000000e+00 
          8.1579734842e-04 -8.1491095749e-06 0.0000000000e+00 
          1.0979762211e-03 -1.0507187690e-06 0.0000000000e+00 
          1.3712236491e-03 8.7143312692e-06 0.0000000000e+00 
          1.6136593870e-03 1.4142116624e-06 0.0000000000e+00 
          1.8341957962e-03 -6.0994268230e-06 0.0000000000e+00 
          2.0356530274e-03 1.4373190015e-06 0.0000000000e+00 
          2.2033924064e-03 7.3605166849e-06 0.0000000000e+00 
          2.3537789761e-03 -6.8506130108e-07 0.0000000000e+00 
          2.4749514983e-03 -6.5096637362e-06 0.0000000000e+00 
          2.5679640970e-03 1.3189315073e-06 0.0000000000e+00 
          2.6367915669e-03 7.7208244318e-06 0.0000000000e+00 
          2.6770316421e-03 9.6422781065e-07 0.0000000000e+00 
          -1.0003443942e-02 8.2586865718e-05 0.0000000000e+00 
          -9.6270117787e-03 -1.3697341826e-04 0.0000000000e+00 
          -9.2326367537e-03 1.4374844244e-04 0.0000000000e+00 
          -8.8297975470e-03 -1.0317686827e-04 0.0000000000e+00 
          -8.4107105994e-03 3.4402606894e-05 0.0000000000e+00 
          -7.9842798650e-03 2.3436053684e-05 0.0000000000e+00 
          -7.5494047220e-03 -3.7224886197e-05 0.0000000000e+00 
          -7.1009404233e-03 1.0758552673e-05 0.0000000000e+00 
          -6.6538123725e-03 1.7234054544e-05 0.0000000000e+00 
          -6.1995733171e-03 -2.5621468437e-05 0.0000000000e+00 
          -5.7393599548e-03 7.5336724322e-06 0.0000000000e+00 
          -5.2788483388e-03 1.8218770316e-05 0.0000000000e+00 
          -4.8217993639e-03 -1.8007180206e-05 0.0000000000e+00 
          -4.3591896006e-03 -5.0922458427e-06 0.0000000000e+00 
          -3.9066851961e-03 1.6699287115e-05 0.0000000000e+00 
          -3.4537823988e-03 -3.9473704457e-06 0.0000000000e+00 
          -3.0051222043e-03 -8.7407645970e-06 0.0000000000e+00 
          -2.5723184228e-03 9.5676527884e-06 0.0000000000e+00 
          -2.1377772751e-03 2.8310516144e-06 0.0000000000e+00 
          -1.7202795687e-03 -8.5169170390e-06 0.0000000000e+00 
          -1.3137406753e-03 3.7047076153e-06 0.0000000000e+00 
          -9.1503957641e-04 7.4530049568e-06 0.0000000000e+00 
          -5.4150365744e-04 -6.3151883092e-06 0.0000000000e+00 
          -1.7152082155e-04 -4.1341728538e-06 0.0000000000e+00 
          1.7463146271e-04 9.1673594054e-06 0.0000000000e+00 
          5.0005387819e-04 3.5643771670e-06 0.0000000000e+00 
          8.1579734842e-04 -8.1491095749e-06 0.0000000000e+00 
          1.0979762211e-03 -1.0507187690e-06 0.0000000000e+00 
          1.3712236491e-03 8.7143312692e-06 0.0000000000e+00 
          1.6136593870e-03 1.4142116624e-06 0.0000000000e+00 
          1.8341957962e-03 -6.0994268230e-06 0.0000000000e+00 
          2.0356530274e-03 1.4373190015e-06 0.0000000000e+00 
          2.2033924064e-03 7.3605166849e-06 0.0000000000e+00 
          2.3537789761e-03 -6.8506130108e-07 0.0000000000e+00 
          2.4749514983e-03 -6.5096637362e-06 0.0000000000e+00 
          2.5679640970e-03 1.3189315073e-06 0.0000000000e+00 
          2.6367915669e-03 7.7208244318e-06 0.0000000000e+00 
          2.6770316421e-03 9.6422781065e-07 0.0000000000e+00 
        </DataArray>
        <DataArray type="Float64" Name="Reaction" NumberOfComponents="3" format="ascii">
          0.0000000000e+00 0.0000000000e+00 0.0000000000e+00 
          0.0000000000e+00 0.0000000000e+00 0.0000000000e+00 
          0.0000000000e+00 0.0000000000e+00 0.0000000000e+00 
          0.0000000000e+00 0.0000000000e+00 0.0000000000e+00 
          0.0000000000e+00 0.0000000000e+00 0.0000000000e+00 
          0.0000000000e+00 0.0000000000e+00 0.0000000000e+00 
          0.0000000000e+00 0.0000000000e+00 0.0000000000e+00 
          0.0000000000e+00 0.0000000000e+00 0.0000000000e+00 
          0.0000000000e+00 0.0000000000e+00 0.0000000000e+00 
          0.0000000000e+00 0.0000000000e+00 0.0000000000e+00 
          0.0000000000e+00 0.0000000000e+00 0.0000000000e+00 
          0.0000000000e+00 0.0000000000e+00 0.0000000000e+00 
          0.0000000000e+00 0.0000000000e+00 0.0000000000e+00 
          0.0000000000e+00 0.0000000000e+00 0.0000000000e+00 
          0.0000000000e+00 0.0000000000e+00 0.0000000000e+00 
          0.0000000000e+00 0.0000000000e+00 0.0000000000e+00 
          0.0000000000e+00 0.0000000000e+00 0.0000000000e+00 
          0.0000000000e+00 0.0000000000e+00 0.0000000000e+00 
          0.0000000000e+00 0.0000000000e+00 0.0000000000e+00 
          0.0000000000e+00 0.0000000000e+00 0.0000000000e+00 
          0.0000000000e+00 0.0000000000e+00 0.0000000000e+00 
          0.0000000000e+00 0.0000000000e+00 0.0000000000e+00 
          0.0000000000e+00 0.0000000000e+00 0.0000000000e+00 
          0.0000000000e+00 0.0000000000e+00 0.0000000000e+00 
          0.0000000000e+00 0.0000000000e+00 0.0000000000e+00 
          0.0000000000e+00 0.0000000000e+00 0.0000000000e+00 
          0.0000000000e+00 0.0000000000e+00 0.0000000000e+00 
          0.0000000000e+00 0.0000000000e+00 0.0000000000e+00 
          0.0000000000e+00 0.0000000000e+00 0.0000000000e+00 
          0.0000000000e+00 0.0000000000e+00 0.0000000000e+00 
          0.0000000000e+00 0.0000000000e+00 0.0000000000e+00 
          0.0000000000e+00 0.0000000000e+00 0.0000000000e+00 
          0.0000000000e+00 0.0000000000e+00 0.0000000000e+00 
          0.0000000000e+00 0.0000000000e+00 0.0000000000e+00 
          0.0000000000e+00 0.0000000000e+00 0.0000000000e+00 
          0.0000000000e+00 0.0000000000e+00 0.0000000000e+00 
          0.0000000000e+00 0.0000000000e+00 0.0000000000e+00 
          0.0000000000e+00 0.0000000000e+00 0.0000000000e+00 
          0.0000000000e+00 0.0000000000e+00 0.0000000000e+00 
          0.0000000000e+00 0.0000000000e+00 0.0000000000e+00 
          0.0000000000e+00 0.0000000000e+00 0.0000000000e+00 
          0.0000000000e+00 0.0000000000e+00 0.0000000000e+00 
          0.0000000000e+00 0.0000000000e+00 0.0000000000e+00 
          0.0000000000e+00 0.0000000000e+00 0.0000000000e+00 
          0.0000000000e+00 0.0000000000e+00 0.0000000000e+00 
          0.0000000000e+00 0.0000000000e+00 0.0000000000e+00 
          0.0000000000e+00 0.0000000000e+00 0.0000000000e+00 
          0.0000000000e+00 0.0000000000e+00 0.0000000000e+00 
          0.0000000000e+00 0.0000000000e+00 0.0000000000e+00 
          0.0000000000e+00 0.0000000000e+00 0.0000000000e+00 
          0.0000000000e+00 0.0000000000e+00 0.0000000000e+00 
          0.0000000000e+00 0.0000000000e+00 0.0000000000e+00 
          0.0000000000e+00 0.0000000000e+00 0.0000000000e+00 
          0.0000000000e+00 0.0000000000e+00 0.0000000000e+00 
          0.0000000000e+00 0.0000000000e+00 0.0000000000e+00 
          0.0000000000e+00 0.0000000000e+00 0.0000000000e+00 
          0.0000000000e+00 0.0000000000e+00 0.0000000000e+00 
          0.0000000000e+00 0.0000000000e+00 0.0000000000e+00 
          0.0000000000e+00 0.0000000000e+00 0.0000000000e+00 
          0.0000000000e+00 0.0000000000e+00 0.0000000000e+00 
          0.0000000000e+00 0.0000000000e+00 0.0000000000e+00 
          0.0000000000e+00 0.0000000000e+00 0.0000000000e+00 
          0.0000000000e+00 0.0000000000e+00 0.0000000000e+00 
          0.0000000000e+00 0.0000000000e+00 0.0000000000e+00 
          0.0000000000e+00 0.0000000000e+00 0.0000000000e+00 
          0.0000000000e+00 0.0000000000e+00 0.0000000000e+00 
          0.0000000000e+00 0.0000000000e+00 0.0000000000e+00 
          0.0000000000e+00 0.0000000000e+00 0.0000000000e+00 
          0.0000000000e+00 0.0000000000e+00 0.0000000000e+00 
          0.0000000000e+00 0.0000000000e+00 0.0000000000e+00 
          0.0000000000e+00 0.0000000000e+00 0.0000000000e+00 
          0.0000000000e+00 0.0000000000e+00 0.0000000000e+00 
          0.0000000000e+00 0.0000000000e+00 0.0000000000e+00 
          0.0000000000e+00 0.0000000000e+00 0.0000000000e+00 
          0.0000000000e+00 0.0000000000e+00 0.0000000000e+00 
          0.0000000000e+00 0.0000000000e+00 0.0000000000e+00 
          0.0000000000e+00 0.0000000000e+00 0.0000000000e+00 
          0.0000000000e+00 0.0000000000e+00 0.0000000000e+00 
          0.0000000000e+00 0.0000000000e+00 0.0000000000e+00 
          0.0000000000e+00 0.0000000000e+00 0.0000000000e+00 
          0.0000000000e+00 0.0000000000e+00 0.0000000000e+00 
          0.0000000000e+00 0.0000000000e+00 0.0000000000e+00 
        </DataArray>
      </PointData>
      <CellData>
        <DataArray type="Int64" Name="ElementTag" format="ascii">
          0
        </DataArray>
      </CellData>
    </Piece>
  </UnstructuredGrid>
</VTKFile>
