<?xml version="1.0"?>
<VTKFile type="UnstructuredGrid" version="1.0" byte_order="LittleEndian" compressor="vtkZLibDataCompressor">
  <UnstructuredGrid>
    <Piece NumberOfPoints="82" NumberOfCells="1">
      <Points>
        <DataArray type="Float64" Name="Points" NumberOfComponents="3" format="ascii">
          0.0000000000e+00 0.0000000000e+00 0.0000000000e+00 
          2.5000000000e-01 0.0000000000e+00 0.0000000000e+00 
          2.5000000000e-01 3.0000000000e+01 0.0000000000e+00 
          0.0000000000e+00 3.0000000000e+01 0.0000000000e+00 
          0.0000000000e+00 -5.0000000000e+00 0.0000000000e+00 
          2.5000000000e-01 -5.0000000000e+00 0.0000000000e+00 
          2.5000000000e-01 7.6923100000e-01 0.0000000000e+00 
          2.5000000000e-01 1.5384620000e+00 0.0000000000e+00 
          2.5000000000e-01 2.3076920000e+00 0.0000000000e+00 
          2.5000000000e-01 3.0769230000e+00 0.0000000000e+00 
          2.5000000000e-01 3.8461540000e+00 0.0000000000e+00 
          2.5000000000e-01 4.6153850000e+00 0.0000000000e+00 
          2.5000000000e-01 5.3846150000e+00 0.0000000000e+00 
          2.5000000000e-01 6.1538460000e+00 0.0000000000e+00 
          2.5000000000e-01 6.9230770000e+00 0.0000000000e+00 
          2.5000000000e-01 7.6923080000e+00 0.0000000000e+00 
          2.5000000000e-01 8.4615380000e+00 0.0000000000e+00 
          2.5000000000e-01 9.2307690000e+00 0.0000000000e+00 
          2.5000000000e-01 1.0000000000e+01 0.0000000000e+00 
          2.5000000000e-01 1.0769231000e+01 0.0000000000e+00 
          2.5000000000e-01 1.1538462000e+01 0.0000000000e+00 
          2.5000000000e-01 1.2307692000e+01 0.0000000000e+00 
          2.5000000000e-01 1.3076923000e+01 0.0000000000e+00 
          2.5000000000e-01 1.3846154000e+01 0.0000000000e+00 
          2.5000000000e-01 1.4615385000e+01 0.0000000000e+00 
          2.5000000000e-01 1.5384615000e+01 0.0000000000e+00 
          2.5000000000e-01 1.6153846000e+01 0.0000000000e+00 
          2.5000000000e-01 1.6923077000e+01 0.0000000000e+00 
          2.5000000000e-01 1.7692308000e+01 0.0000000000e+00 
          2.5000000000e-01 1.8461538000e+01 0.0000000000e+00 
          2.5000000000e-01 1.9230769000e+01 0.0000000000e+00 
          2.5000000000e-01 2.0000000000e+01 0.0000000000e+00 
          2.5000000000e-01 2.0769231000e+01 0.0000000000e+00 
          2.5000000000e-01 2.1538462000e+01 0.0000000000e+00 
          2.5000000000e-01 2.2307692000e+01 0.0000000000e+00 
          2.5000000000e-01 2.3076923000e+01 0.0000000000e+00 
          2.5000000000e-01 2.3846154000e+01 0.0000000000e+00 
          2.5000000000e-01 2.4615385000e+01 0.0000000000e+00 
          2.5000000000e-01 2.5384615000e+01 0.0000000000e+00 
          2.5000000000e-01 2.6153846000e+01 0.0000000000e+00 
          2.5000000000e-01 2.6923077000e+01 0.0000000000e+00 
          2.5000000000e-01 2.7692308000e+01 0.0000000000e+00 
          2.5000000000e-01 2.8461538000e+01 0.0000000000e+00 
          2.5000000000e-01 2.9230769000e+01 0.0000000000e+00 
          0.0000000000e+00 7.6923100000e-01 0.0000000000e+00 
          0.0000000000e+00 1.5384620000e+00 0.0000000000e+00 
          0.0000000000e+00 2.3076920000e+00 0.0000000000e+00 
          0.0000000000e+00 3.0769230000e+00 0.0000000000e+00 
          0.0000000000e+00 3.8461540000e+00 0.0000000000e+00 
          0.0000000000e+00 4.6153850000e+00 0.0000000000e+00 
          0.0000000000e+00 5.3846150000e+00 0.0000000000e+00 
          0.0000000000e+00 6.1538460000e+00 0.0000000000e+00 
          0.0000000000e+00 6.9230770000e+00 0.0000000000e+00 
          0.0000000000e+00 7.6923080000e+00 0.0000000000e+00 
          0.0000000000e+00 8.4615380000e+00 0.0000000000e+00 
          0.0000000000e+00 9.2307690000e+00 0.0000000000e+00 
          0.0000000000e+00 1.0000000000e+01 0.0000000000e+00 
          0.0000000000e+00 1.0769231000e+01 0.0000000000e+00 
          0.0000000000e+00 1.1538462000e+01 0.0000000000e+00 
          0.0000000000e+00 1.2307692000e+01 0.0000000000e+00 
          0.0000000000e+00 1.3076923000e+01 0.0000000000e+00 
          0.0000000000e+00 1.3846154000e+01 0.0000000000e+00 
          0.0000000000e+00 1.4615385000e+01 0.0000000000e+00 
          0.0000000000e+00 1.5384615000e+01 0.0000000000e+00 
          0.0000000000e+00 1.6153846000e+01 0.0000000000e+00 
          0.0000000000e+00 1.6923077000e+01 0.0000000000e+00 
          0.0000000000e+00 1.7692308000e+01 0.0000000000e+00 
          0.0000000000e+00 1.8461538000e+01 0.0000000000e+00 
          0.0000000000e+00 1.9230769000e+01 0.0000000000e+00 
          0.0000000000e+00 2.0000000000e+01 0.0000000000e+00 
          0.0000000000e+00 2.0769231000e+01 0.0000000000e+00 
          0.0000000000e+00 2.1538462000e+01 0.0000000000e+00 
          0.0000000000e+00 2.2307692000e+01 0.0000000000e+00 
          0.0000000000e+00 2.3076923000e+01 0.0000000000e+00 
          0.0000000000e+00 2.3846154000e+01 0.0000000000e+00 
          0.0000000000e+00 2.4615385000e+01 0.0000000000e+00 
          0.0000000000e+00 2.5384615000e+01 0.0000000000e+00 
          0.0000000000e+00 2.6153846000e+01 0.0000000000e+00 
          0.0000000000e+00 2.6923077000e+01 0.0000000000e+00 
          0.0000000000e+00 2.7692308000e+01 0.0000000000e+00 
          0.0000000000e+00 2.8461538000e+01 0.0000000000e+00 
          0.0000000000e+00 2.9230769000e+01 0.0000000000e+00 
        </DataArray>
      </Points>
      <Cells>
        <DataArray type="Int64" Name="connectivity" format="ascii">
          0
          1
          2
          3
          4
          5
          6
          7
          8
          9
          10
          11
          12
          13
          14
          15
          16
          17
          18
          19
          20
          21
          22
          23
          24
          25
          26
          27
          28
          29
          30
          31
          32
          33
          34
          35
          36
          37
          38
          39
          40
          41
          42
          43
          44
          45
          46
          47
          48
          49
          50
          51
          52
          53
          54
          55
          56
          57
          58
          59
          60
          61
          62
          63
          64
          65
          66
          67
          68
          69
          70
          71
          72
          73
          74
          75
          76
          77
          78
          79
          80
          81
        </DataArray>
        <DataArray type="Int64" Name="offsets" format="ascii">
          82
        </DataArray>
        <DataArray type="Int64" Name="types" format="ascii">
          2
        </DataArray>
      </Cells>
      <PointData>
        <DataArray type="Int64" Name="NodeTag" format="ascii">
          1
          2
          3
          4
          5
          6
          7
          8
          9
          10
          11
          12
          13
          14
          15
          16
          17
          18
          19
          20
          21
          22
          23
          24
          25
          26
          27
          28
          29
          30
          31
          32
          33
          34
          35
          36
          37
          38
          39
          40
          41
          42
          43
          44
          45
          46
          47
          48
          49
          50
          51
          52
          53
          54
          55
          56
          57
          58
          59
          60
          61
          62
          63
          64
          65
          66
          67
          68
          69
          70
          71
          72
          73
          74
          75
          76
          77
          78
          79
          80
          81
          82
        </DataArray>
        <DataArray type="Float64" Name="Velocity" NumberOfComponents="3" format="ascii">
          2.6538574819e-02 -8.0249237172e-05 0.0000000000e+00 
          2.6538574819e-02 -8.0249237172e-05 0.0000000000e+00 
          2.0402756907e-03 -6.2646121630e-05 0.0000000000e+00 
          2.0402756907e-03 -6.2646121630e-05 0.0000000000e+00 
          0.0000000000e+00 0.0000000000e+00 0.0000000000e+00 
          0.0000000000e+00 0.0000000000e+00 0.0000000000e+00 
          2.4870971155e-02 -7.9375217852e-05 0.0000000000e+00 
          2.3285129204e-02 -7.8816824379e-05 0.0000000000e+00 
          2.1779025046e-02 -7.7996919592e-05 0.0000000000e+00 
          2.0350513445e-02 -7.7177810611e-05 0.0000000000e+00 
          1.8997363772e-02 -7.6512671314e-05 0.0000000000e+00 
          1.7717273427e-02 -7.6051887534e-05 0.0000000000e+00 
          1.6507872609e-02 -7.5165071080e-05 0.0000000000e+00 
          1.5366744915e-02 -7.4411025808e-05 0.0000000000e+00 
          1.4291449306e-02 -7.3706504736e-05 0.0000000000e+00 
          1.3279525431e-02 -7.2998810396e-05 0.0000000000e+00 
          1.2328513295e-02 -7.2755454900e-05 0.0000000000e+00 
          1.1435957851e-02 -7.1472795634e-05 0.0000000000e+00 
          1.0599426468e-02 -7.0293329282e-05 0.0000000000e+00 
          9.8165158445e-03 -6.9720814754e-05 0.0000000000e+00 
          9.0848620005e-03 -6.8552738733e-05 0.0000000000e+00 
          8.4021500266e-03 -6.7722362641e-05 0.0000000000e+00 
          7.7661187901e-03 -6.6687651782e-05 0.0000000000e+00 
          7.1745721258e-03 -6.5676561527e-05 0.0000000000e+00 
          6.6253817278e-03 -6.5506109202e-05 0.0000000000e+00 
          6.1164953081e-03 -6.4944249149e-05 0.0000000000e+00 
          5.6459384986e-03 -6.4482654370e-05 0.0000000000e+00 
          5.2118226956e-03 -6.4357127286e-05 0.0000000000e+00 
          4.8123467791e-03 -6.4232858616e-05 0.0000000000e+00 
          4.4458017173e-03 -6.3454331174e-05 0.0000000000e+00 
          4.1105710482e-03 -6.2981729885e-05 0.0000000000e+00 
          3.8051361984e-03 -6.3061808516e-05 0.0000000000e+00 
          3.5280771002e-03 -6.2986576086e-05 0.0000000000e+00 
          3.2780744841e-03 -6.2772817201e-05 0.0000000000e+00 
          3.0539112449e-03 -6.2812928049e-05 0.0000000000e+00 
          2.8544723813e-03 -6.2783570143e-05 0.0000000000e+00 
          2.6787478836e-03 -6.2390422186e-05 0.0000000000e+00 
          2.5258324079e-03 -6.2648950316e-05 0.0000000000e+00 
          2.3949262886e-03 -6.2830850088e-05 0.0000000000e+00 
          2.2853352936e-03 -6.2719694929e-05 0.0000000000e+00 
          2.1964719789e-03 -6.2439056365e-05 0.0000000000e+00 
          2.1278552508e-03 -6.2564035310e-05 0.0000000000e+00 
          2.0791108152e-03 -6.2565475127e-05 0.0000000000e+00 
          2.0499710977e-03 -6.2458443503e-05 0.0000000000e+00 
          2.4870971155e-02 -7.9375217852e-05 0.0000000000e+00 
          2.3285129204e-02 -7.8816824379e-05 0.0000000000e+00 
          2.1779025046e-02 -7.7996919592e-05 0.0000000000e+00 
          2.0350513445e-02 -7.7177810611e-05 0.0000000000e+00 
          1.8997363772e-02 -7.6512671314e-05 0.0000000000e+00 
          1.7717273427e-02 -7.6051887534e-05 0.0000000000e+00 
          1.6507872609e-02 -7.5165071080e-05 0.0000000000e+00 
          1.5366744915e-02 -7.4411025808e-05 0.0000000000e+00 
          1.4291449306e-02 -7.3706504736e-05 0.0000000000e+00 
          1.3279525431e-02 -7.2998810396e-05 0.0000000000e+00 
          1.2328513295e-02 -7.2755454900e-05 0.0000000000e+00 
          1.1435957851e-02 -7.1472795634e-05 0.0000000000e+00 
          1.0599426468e-02 -7.0293329282e-05 0.0000000000e+00 
          9.8165158445e-03 -6.9720814754e-05 0.0000000000e+00 
          9.0848620005e-03 -6.8552738733e-05 0.0000000000e+00 
          8.4021500266e-03 -6.7722362641e-05 0.0000000000e+00 
          7.7661187901e-03 -6.6687651782e-05 0.0000000000e+00 
          7.1745721258e-03 -6.5676561527e-05 0.0000000000e+00 
          6.6253817278e-03 -6.5506109202e-05 0.0000000000e+00 
          6.1164953081e-03 -6.4944249149e-05 0.0000000000e+00 
          5.6459384986e-03 -6.4482654370e-05 0.0000000000e+00 
          5.2118226956e-03 -6.4357127286e-05 0.0000000000e+00 
          4.8123467791e-03 -6.4232858616e-05 0.0000000000e+00 
          4.4458017173e-03 -6.3454331174e-05 0.0000000000e+00 
          4.1105710482e-03 -6.2981729885e-05 0.0000000000e+00 
          3.8051361984e-03 -6.3061808516e-05 0.0000000000e+00 
          3.5280771002e-03 -6.2986576086e-05 0.0000000000e+00 
          3.2780744841e-03 -6.2772817201e-05 0.0000000000e+00 
          3.0539112449e-03 -6.2812928049e-05 0.0000000000e+00 
          2.8544723813e-03 -6.2783570143e-05 0.0000000000e+00 
          2.6787478836e-03 -6.2390422186e-05 0.0000000000e+00 
          2.5258324079e-03 -6.2648950316e-05 0.0000000000e+00 
          2.3949262886e-03 -6.2830850088e-05 0.0000000000e+00 
          2.2853352936e-03 -6.2719694929e-05 0.0000000000e+00 
          2.1964719789e-03 -6.2439056365e-05 0.0000000000e+00 
          2.1278552508e-03 -6.2564035310e-05 0.0000000000e+00 
          2.0791108152e-03 -6.2565475127e-05 0.0000000000e+00 
          2.0499710977e-03 -6.2458443503e-05 0.0000000000e+00 
        </DataArray>
        <DataArray type="Float64" Name="Displacement" NumberOfComponents="3" format="ascii">
          1.1629626017e-03 -1.3220575248e-04 0.0000000000e+00 
          1.1629626017e-03 -1.3220575248e-04 0.0000000000e+00 
          6.1717451741e-05 -1.5679190638e-04 0.0000000000e+00 
          6.1717451741e-05 -1.5679190638e-04 0.0000000000e+00 
          0.0000000000e+00 0.0000000000e+00 0.0000000000e+00 
          0.0000000000e+00 0.0000000000e+00 0.0000000000e+00 
          1.0774300841e-03 -1.3343670055e-04 0.0000000000e+00 
          9.9732594774e-04 -1.3463560636e-04 0.0000000000e+00 
          9.2238259740e-04 -1.3580309440e-04 0.0000000000e+00 
          8.5233926868e-04 -1.3693937432e-04 0.0000000000e+00 
          7.8694299629e-04 -1.3804326660e-04 0.0000000000e+00 
          7.2594848866e-04 -1.3911452574e-04 0.0000000000e+00 
          6.6911856803e-04 -1.4015457883e-04 0.0000000000e+00 
          6.1622409561e-04 -1.4116297172e-04 0.0000000000e+00 
          5.6704455725e-04 -1.4214081067e-04 0.0000000000e+00 
          5.2136788170e-04 -1.4308852258e-04 0.0000000000e+00 
          4.7899063780e-04 -1.4400567152e-04 0.0000000000e+00 
          4.3971784604e-04 -1.4489153225e-04 0.0000000000e+00 
          4.0336331161e-04 -1.4574625255e-04 0.0000000000e+00 
          3.6974936869e-04 -1.4657038453e-04 0.0000000000e+00 
          3.3870687636e-04 -1.4736364532e-04 0.0000000000e+00 
          3.1007517049e-04 -1.4812596320e-04 0.0000000000e+00 
          2.8370181002e-04 -1.4885703805e-04 0.0000000000e+00 
          2.5944267476e-04 -1.4955664683e-04 0.0000000000e+00 
          2.3716167592e-04 -1.5022434439e-04 0.0000000000e+00 
          2.1673066623e-04 -1.5086097958e-04 0.0000000000e+00 
          1.9802917110e-04 -1.5146590523e-04 0.0000000000e+00 
          1.8094437735e-04 -1.5203879419e-04 0.0000000000e+00 
          1.6537084925e-04 -1.5258027623e-04 0.0000000000e+00 
          1.5121039317e-04 -1.5308966489e-04 0.0000000000e+00 
          1.3837180584e-04 -1.5356673707e-04 0.0000000000e+00 
          1.2677080665e-04 -1.5401078482e-04 0.0000000000e+00 
          1.1632978665e-04 -1.5442139328e-04 0.0000000000e+00 
          1.0697765562e-04 -1.5479915164e-04 0.0000000000e+00 
          9.8649687259e-05 -1.5514453073e-04 0.0000000000e+00 
          9.1287321228e-05 -1.5545751020e-04 0.0000000000e+00 
          8.4838080724e-05 -1.5573752228e-04 0.0000000000e+00 
          7.9255390694e-05 -1.5598483930e-04 0.0000000000e+00 
          7.4498469141e-05 -1.5619928668e-04 0.0000000000e+00 
          7.0532190528e-05 -1.5638132637e-04 0.0000000000e+00 
          6.7327023226e-05 -1.5653053960e-04 0.0000000000e+00 
          6.4858918402e-05 -1.5664508890e-04 0.0000000000e+00 
          6.3109247701e-05 -1.5672682313e-04 0.0000000000e+00 
          6.2064739361e-05 -1.5677588486e-04 0.0000000000e+00 
          1.0774300841e-03 -1.3343670055e-04 0.0000000000e+00 
          9.9732594774e-04 -1.3463560636e-04 0.0000000000e+00 
          9.2238259740e-04 -1.3580309440e-04 0.0000000000e+00 
          8.5233926868e-04 -1.3693937432e-04 0.0000000000e+00 
          7.8694299629e-04 -1.3804326660e-04 0.0000000000e+00 
          7.2594848866e-04 -1.3911452574e-04 0.0000000000e+00 
          6.6911856803e-04 -1.4015457883e-04 0.0000000000e+00 
          6.1622409561e-04 -1.4116297172e-04 0.0000000000e+00 
          5.6704455725e-04 -1.4214081067e-04 0.0000000000e+00 
          5.2136788170e-04 -1.4308852258e-04 0.0000000000e+00 
          4.7899063780e-04 -1.4400567152e-04 0.0000000000e+00 
          4.3971784604e-04 -1.4489153225e-04 0.0000000000e+00 
          4.0336331161e-04 -1.4574625255e-04 0.0000000000e+00 
          3.6974936869e-04 -1.4657038453e-04 0.0000000000e+00 
          3.3870687636e-04 -1.4736364532e-04 0.0000000000e+00 
          3.1007517049e-04 -1.4812596320e-04 0.0000000000e+00 
          2.8370181002e-04 -1.4885703805e-04 0.0000000000e+00 
          2.5944267476e-04 -1.4955664683e-04 0.0000000000e+00 
          2.3716167592e-04 -1.5022434439e-04 0.0000000000e+00 
          2.1673066623e-04 -1.5086097958e-04 0.0000000000e+00 
          1.9802917110e-04 -1.5146590523e-04 0.0000000000e+00 
          1.8094437735e-04 -1.5203879419e-04 0.0000000000e+00 
          1.6537084925e-04 -1.5258027623e-04 0.0000000000e+00 
          1.5121039317e-04 -1.5308966489e-04 0.0000000000e+00 
          1.3837180584e-04 -1.5356673707e-04 0.0000000000e+00 
          1.2677080665e-04 -1.5401078482e-04 0.0000000000e+00 
          1.1632978665e-04 -1.5442139328e-04 0.0000000000e+00 
          1.0697765562e-04 -1.5479915164e-04 0.0000000000e+00 
          9.8649687259e-05 -1.5514453073e-04 0.0000000000e+00 
          9.1287321228e-05 -1.5545751020e-04 0.0000000000e+00 
          8.4838080724e-05 -1.5573752228e-04 0.0000000000e+00 
          7.9255390694e-05 -1.5598483930e-04 0.0000000000e+00 
          7.4498469141e-05 -1.5619928668e-04 0.0000000000e+00 
          7.0532190528e-05 -1.5638132637e-04 0.0000000000e+00 
          6.7327023226e-05 -1.5653053960e-04 0.0000000000e+00 
          6.4858918402e-05 -1.5664508890e-04 0.0000000000e+00 
          6.3109247701e-05 -1.5672682313e-04 0.0000000000e+00 
          6.2064739361e-05 -1.5677588486e-04 0.0000000000e+00 
        </DataArray>
        <DataArray type="Float64" Name="Acceleration" NumberOfComponents="3" format="ascii">
          5.1382967761e-01 5.4627263930e-05 0.0000000000e+00 
          5.1382967761e-01 5.4627263930e-05 0.0000000000e+00 
          6.2582600887e-02 1.8681815730e-04 0.0000000000e+00 
          6.2582600887e-02 1.8681815730e-04 0.0000000000e+00 
          0.0000000000e+00 0.0000000000e+00 0.0000000000e+00 
          0.0000000000e+00 0.0000000000e+00 0.0000000000e+00 
          4.8910786597e-01 1.8667545538e-04 0.0000000000e+00 
          4.6498853693e-01 7.3874818307e-05 0.0000000000e+00 
          4.4151069131e-01 3.6637176397e-05 0.0000000000e+00 
          4.1870895142e-01 2.4891779581e-04 0.0000000000e+00 
          3.9660769819e-01 2.9315472257e-04 0.0000000000e+00 
          3.7523110088e-01 3.5749702015e-05 0.0000000000e+00 
          3.5459854232e-01 1.1807722617e-04 0.0000000000e+00 
          3.3472289511e-01 -8.1525191583e-05 0.0000000000e+00 
          3.1561485609e-01 -1.5845281027e-04 0.0000000000e+00 
          2.9728053802e-01 -8.0106394815e-05 0.0000000000e+00 
          2.7972241362e-01 5.1011791113e-05 0.0000000000e+00 
          2.6294074935e-01 2.4163407617e-05 0.0000000000e+00 
          2.4693270647e-01 -7.5326774046e-05 0.0000000000e+00 
          2.3169277643e-01 -2.4353591473e-05 0.0000000000e+00 
          2.1721340846e-01 -1.1605374851e-05 0.0000000000e+00 
          2.0348486657e-01 4.2834358732e-05 0.0000000000e+00 
          1.9049586603e-01 8.2845970767e-05 0.0000000000e+00 
          1.7823399895e-01 1.6306375120e-04 0.0000000000e+00 
          1.6668539054e-01 9.9532750173e-06 0.0000000000e+00 
          1.5583517162e-01 1.2687117346e-04 0.0000000000e+00 
          1.4566798780e-01 1.8567331910e-04 0.0000000000e+00 
          1.3616801905e-01 7.2188752850e-05 0.0000000000e+00 
          1.2731900359e-01 1.9577264146e-04 0.0000000000e+00 
          1.1910472052e-01 2.3621604409e-04 0.0000000000e+00 
          1.1150913591e-01 3.6366717786e-04 0.0000000000e+00 
          1.0451641602e-01 4.3842898853e-04 0.0000000000e+00 
          9.8111046631e-02 3.3225382268e-04 0.0000000000e+00 
          9.2278163176e-02 2.4733075631e-04 0.0000000000e+00 
          8.7003709067e-02 2.5115947092e-04 0.0000000000e+00 
          8.2274413192e-02 3.5338939197e-04 0.0000000000e+00 
          7.8077908977e-02 3.0431381366e-04 0.0000000000e+00 
          7.4402861723e-02 3.3572889775e-04 0.0000000000e+00 
          7.1239093830e-02 2.5258284300e-04 0.0000000000e+00 
          6.8577632146e-02 3.2799469726e-04 0.0000000000e+00 
          6.6410784875e-02 6.5911089515e-04 0.0000000000e+00 
          6.4732170420e-02 3.2592734233e-04 0.0000000000e+00 
          6.3536767572e-02 3.0027089678e-04 0.0000000000e+00 
          6.2820963686e-02 3.6651228541e-04 0.0000000000e+00 
          4.8910786597e-01 1.8667545538e-04 0.0000000000e+00 
          4.6498853693e-01 7.3874818307e-05 0.0000000000e+00 
          4.4151069131e-01 3.6637176397e-05 0.0000000000e+00 
          4.1870895142e-01 2.4891779581e-04 0.0000000000e+00 
          3.9660769819e-01 2.9315472257e-04 0.0000000000e+00 
          3.7523110088e-01 3.5749702015e-05 0.0000000000e+00 
          3.5459854232e-01 1.1807722617e-04 0.0000000000e+00 
          3.3472289511e-01 -8.1525191583e-05 0.0000000000e+00 
          3.1561485609e-01 -1.5845281027e-04 0.0000000000e+00 
          2.9728053802e-01 -8.0106394815e-05 0.0000000000e+00 
          2.7972241362e-01 5.1011791113e-05 0.0000000000e+00 
          2.6294074935e-01 2.4163407617e-05 0.0000000000e+00 
          2.4693270647e-01 -7.5326774046e-05 0.0000000000e+00 
          2.3169277643e-01 -2.4353591473e-05 0.0000000000e+00 
          2.1721340846e-01 -1.1605374851e-05 0.0000000000e+00 
          2.0348486657e-01 4.2834358732e-05 0.0000000000e+00 
          1.9049586603e-01 8.2845970767e-05 0.0000000000e+00 
          1.7823399895e-01 1.6306375120e-04 0.0000000000e+00 
          1.6668539054e-01 9.9532750173e-06 0.0000000000e+00 
          1.5583517162e-01 1.2687117346e-04 0.0000000000e+00 
          1.4566798780e-01 1.8567331910e-04 0.0000000000e+00 
          1.3616801905e-01 7.2188752850e-05 0.0000000000e+00 
          1.2731900359e-01 1.9577264146e-04 0.0000000000e+00 
          1.1910472052e-01 2.3621604409e-04 0.0000000000e+00 
          1.1150913591e-01 3.6366717786e-04 0.0000000000e+00 
          1.0451641602e-01 4.3842898853e-04 0.0000000000e+00 
          9.8111046631e-02 3.3225382268e-04 0.0000000000e+00 
          9.2278163176e-02 2.4733075631e-04 0.0000000000e+00 
          8.7003709067e-02 2.5115947092e-04 0.0000000000e+00 
          8.2274413192e-02 3.5338939197e-04 0.0000000000e+00 
          7.8077908977e-02 3.0431381366e-04 0.0000000000e+00 
          7.4402861723e-02 3.3572889775e-04 0.0000000000e+00 
          7.1239093830e-02 2.5258284300e-04 0.0000000000e+00 
          6.8577632146e-02 3.2799469726e-04 0.0000000000e+00 
          6.6410784875e-02 6.5911089515e-04 0.0000000000e+00 
          6.4732170420e-02 3.2592734233e-04 0.0000000000e+00 
          6.3536767572e-02 3.0027089678e-04 0.0000000000e+00 
          6.2820963686e-02 3.6651228541e-04 0.0000000000e+00 
        </DataArray>
        <DataArray type="Float64" Name="Reaction" NumberOfComponents="3" format="ascii">
          0.0000000000e+00 0.0000000000e+00 0.0000000000e+00 
          0.0000000000e+00 0.0000000000e+00 0.0000000000e+00 
          0.0000000000e+00 0.0000000000e+00 0.0000000000e+00 
          0.0000000000e+00 0.0000000000e+00 0.0000000000e+00 
          0.0000000000e+00 0.0000000000e+00 0.0000000000e+00 
          0.0000000000e+00 0.0000000000e+00 0.0000000000e+00 
          0.0000000000e+00 0.0000000000e+00 0.0000000000e+00 
          0.0000000000e+00 0.0000000000e+00 0.0000000000e+00 
          0.0000000000e+00 0.0000000000e+00 0.0000000000e+00 
          0.0000000000e+00 0.0000000000e+00 0.0000000000e+00 
          0.0000000000e+00 0.0000000000e+00 0.0000000000e+00 
          0.0000000000e+00 0.0000000000e+00 0.0000000000e+00 
          0.0000000000e+00 0.0000000000e+00 0.0000000000e+00 
          0.0000000000e+00 0.0000000000e+00 0.0000000000e+00 
          0.0000000000e+00 0.0000000000e+00 0.0000000000e+00 
          0.0000000000e+00 0.0000000000e+00 0.0000000000e+00 
          0.0000000000e+00 0.0000000000e+00 0.0000000000e+00 
          0.0000000000e+00 0.0000000000e+00 0.0000000000e+00 
          0.0000000000e+00 0.0000000000e+00 0.0000000000e+00 
          0.0000000000e+00 0.0000000000e+00 0.0000000000e+00 
          0.0000000000e+00 0.0000000000e+00 0.0000000000e+00 
          0.0000000000e+00 0.0000000000e+00 0.0000000000e+00 
          0.0000000000e+00 0.0000000000e+00 0.0000000000e+00 
          0.0000000000e+00 0.0000000000e+00 0.0000000000e+00 
          0.0000000000e+00 0.0000000000e+00 0.0000000000e+00 
          0.0000000000e+00 0.0000000000e+00 0.0000000000e+00 
          0.0000000000e+00 0.0000000000e+00 0.0000000000e+00 
          0.0000000000e+00 0.0000000000e+00 0.0000000000e+00 
          0.0000000000e+00 0.0000000000e+00 0.0000000000e+00 
          0.0000000000e+00 0.0000000000e+00 0.0000000000e+00 
          0.0000000000e+00 0.0000000000e+00 0.0000000000e+00 
          0.0000000000e+00 0.0000000000e+00 0.0000000000e+00 
          0.0000000000e+00 0.0000000000e+00 0.0000000000e+00 
          0.0000000000e+00 0.0000000000e+00 0.0000000000e+00 
          0.0000000000e+00 0.0000000000e+00 0.0000000000e+00 
          0.0000000000e+00 0.0000000000e+00 0.0000000000e+00 
          0.0000000000e+00 0.0000000000e+00 0.0000000000e+00 
          0.0000000000e+00 0.0000000000e+00 0.0000000000e+00 
          0.0000000000e+00 0.0000000000e+00 0.0000000000e+00 
          0.0000000000e+00 0.0000000000e+00 0.0000000000e+00 
          0.0000000000e+00 0.0000000000e+00 0.0000000000e+00 
          0.0000000000e+00 0.0000000000e+00 0.0000000000e+00 
          0.0000000000e+00 0.0000000000e+00 0.0000000000e+00 
          0.0000000000e+00 0.0000000000e+00 0.0000000000e+00 
          0.0000000000e+00 0.0000000000e+00 0.0000000000e+00 
          0.0000000000e+00 0.0000000000e+00 0.0000000000e+00 
          0.0000000000e+00 0.0000000000e+00 0.0000000000e+00 
          0.0000000000e+00 0.0000000000e+00 0.0000000000e+00 
          0.0000000000e+00 0.0000000000e+00 0.0000000000e+00 
          0.0000000000e+00 0.0000000000e+00 0.0000000000e+00 
          0.0000000000e+00 0.0000000000e+00 0.0000000000e+00 
          0.0000000000e+00 0.0000000000e+00 0.0000000000e+00 
          0.0000000000e+00 0.0000000000e+00 0.0000000000e+00 
          0.0000000000e+00 0.0000000000e+00 0.0000000000e+00 
          0.0000000000e+00 0.0000000000e+00 0.0000000000e+00 
          0.0000000000e+00 0.0000000000e+00 0.0000000000e+00 
          0.0000000000e+00 0.0000000000e+00 0.0000000000e+00 
          0.0000000000e+00 0.0000000000e+00 0.0000000000e+00 
          0.0000000000e+00 0.0000000000e+00 0.0000000000e+00 
          0.0000000000e+00 0.0000000000e+00 0.0000000000e+00 
          0.0000000000e+00 0.0000000000e+00 0.0000000000e+00 
          0.0000000000e+00 0.0000000000e+00 0.0000000000e+00 
          0.0000000000e+00 0.0000000000e+00 0.0000000000e+00 
          0.0000000000e+00 0.0000000000e+00 0.0000000000e+00 
          0.0000000000e+00 0.0000000000e+00 0.0000000000e+00 
          0.0000000000e+00 0.0000000000e+00 0.0000000000e+00 
          0.0000000000e+00 0.0000000000e+00 0.0000000000e+00 
          0.0000000000e+00 0.0000000000e+00 0.0000000000e+00 
          0.0000000000e+00 0.0000000000e+00 0.0000000000e+00 
          0.0000000000e+00 0.0000000000e+00 0.0000000000e+00 
          0.0000000000e+00 0.0000000000e+00 0.0000000000e+00 
          0.0000000000e+00 0.0000000000e+00 0.0000000000e+00 
          0.0000000000e+00 0.0000000000e+00 0.0000000000e+00 
          0.0000000000e+00 0.0000000000e+00 0.0000000000e+00 
          0.0000000000e+00 0.0000000000e+00 0.0000000000e+00 
          0.0000000000e+00 0.0000000000e+00 0.0000000000e+00 
          0.0000000000e+00 0.0000000000e+00 0.0000000000e+00 
          0.0000000000e+00 0.0000000000e+00 0.0000000000e+00 
          0.0000000000e+00 0.0000000000e+00 0.0000000000e+00 
          0.0000000000e+00 0.0000000000e+00 0.0000000000e+00 
          0.0000000000e+00 0.0000000000e+00 0.0000000000e+00 
          0.0000000000e+00 0.0000000000e+00 0.0000000000e+00 
        </DataArray>
      </PointData>
      <CellData>
        <DataArray type="Int64" Name="ElementTag" format="ascii">
          0
        </DataArray>
      </CellData>
    </Piece>
  </UnstructuredGrid>
</VTKFile>
