<?xml version="1.0"?>
<VTKFile type="UnstructuredGrid" version="1.0" byte_order="LittleEndian" compressor="vtkZLibDataCompressor">
  <UnstructuredGrid>
    <Piece NumberOfPoints="80" NumberOfCells="39">
      <Points>
        <DataArray type="Float64" Name="Points" NumberOfComponents="3" format="ascii">
          0.0000000000e+00 0.0000000000e+00 0.0000000000e+00 
          2.5000000000e-01 0.0000000000e+00 0.0000000000e+00 
          2.5000000000e-01 3.0000000000e+01 0.0000000000e+00 
          0.0000000000e+00 3.0000000000e+01 0.0000000000e+00 
          2.5000000000e-01 7.6923100000e-01 0.0000000000e+00 
          2.5000000000e-01 1.5384620000e+00 0.0000000000e+00 
          2.5000000000e-01 2.3076920000e+00 0.0000000000e+00 
          2.5000000000e-01 3.0769230000e+00 0.0000000000e+00 
          2.5000000000e-01 3.8461540000e+00 0.0000000000e+00 
          2.5000000000e-01 4.6153850000e+00 0.0000000000e+00 
          2.5000000000e-01 5.3846150000e+00 0.0000000000e+00 
          2.5000000000e-01 6.1538460000e+00 0.0000000000e+00 
          2.5000000000e-01 6.9230770000e+00 0.0000000000e+00 
          2.5000000000e-01 7.6923080000e+00 0.0000000000e+00 
          2.5000000000e-01 8.4615380000e+00 0.0000000000e+00 
          2.5000000000e-01 9.2307690000e+00 0.0000000000e+00 
          2.5000000000e-01 1.0000000000e+01 0.0000000000e+00 
          2.5000000000e-01 1.0769231000e+01 0.0000000000e+00 
          2.5000000000e-01 1.1538462000e+01 0.0000000000e+00 
          2.5000000000e-01 1.2307692000e+01 0.0000000000e+00 
          2.5000000000e-01 1.3076923000e+01 0.0000000000e+00 
          2.5000000000e-01 1.3846154000e+01 0.0000000000e+00 
          2.5000000000e-01 1.4615385000e+01 0.0000000000e+00 
          2.5000000000e-01 1.5384615000e+01 0.0000000000e+00 
          2.5000000000e-01 1.6153846000e+01 0.0000000000e+00 
          2.5000000000e-01 1.6923077000e+01 0.0000000000e+00 
          2.5000000000e-01 1.7692308000e+01 0.0000000000e+00 
          2.5000000000e-01 1.8461538000e+01 0.0000000000e+00 
          2.5000000000e-01 1.9230769000e+01 0.0000000000e+00 
          2.5000000000e-01 2.0000000000e+01 0.0000000000e+00 
          2.5000000000e-01 2.0769231000e+01 0.0000000000e+00 
          2.5000000000e-01 2.1538462000e+01 0.0000000000e+00 
          2.5000000000e-01 2.2307692000e+01 0.0000000000e+00 
          2.5000000000e-01 2.3076923000e+01 0.0000000000e+00 
          2.5000000000e-01 2.3846154000e+01 0.0000000000e+00 
          2.5000000000e-01 2.4615385000e+01 0.0000000000e+00 
          2.5000000000e-01 2.5384615000e+01 0.0000000000e+00 
          2.5000000000e-01 2.6153846000e+01 0.0000000000e+00 
          2.5000000000e-01 2.6923077000e+01 0.0000000000e+00 
          2.5000000000e-01 2.7692308000e+01 0.0000000000e+00 
          2.5000000000e-01 2.8461538000e+01 0.0000000000e+00 
          2.5000000000e-01 2.9230769000e+01 0.0000000000e+00 
          0.0000000000e+00 7.6923100000e-01 0.0000000000e+00 
          0.0000000000e+00 1.5384620000e+00 0.0000000000e+00 
          0.0000000000e+00 2.3076920000e+00 0.0000000000e+00 
          0.0000000000e+00 3.0769230000e+00 0.0000000000e+00 
          0.0000000000e+00 3.8461540000e+00 0.0000000000e+00 
          0.0000000000e+00 4.6153850000e+00 0.0000000000e+00 
          0.0000000000e+00 5.3846150000e+00 0.0000000000e+00 
          0.0000000000e+00 6.1538460000e+00 0.0000000000e+00 
          0.0000000000e+00 6.9230770000e+00 0.0000000000e+00 
          0.0000000000e+00 7.6923080000e+00 0.0000000000e+00 
          0.0000000000e+00 8.4615380000e+00 0.0000000000e+00 
          0.0000000000e+00 9.2307690000e+00 0.0000000000e+00 
          0.0000000000e+00 1.0000000000e+01 0.0000000000e+00 
          0.0000000000e+00 1.0769231000e+01 0.0000000000e+00 
          0.0000000000e+00 1.1538462000e+01 0.0000000000e+00 
          0.0000000000e+00 1.2307692000e+01 0.0000000000e+00 
          0.0000000000e+00 1.3076923000e+01 0.0000000000e+00 
          0.0000000000e+00 1.3846154000e+01 0.0000000000e+00 
          0.0000000000e+00 1.4615385000e+01 0.0000000000e+00 
          0.0000000000e+00 1.5384615000e+01 0.0000000000e+00 
          0.0000000000e+00 1.6153846000e+01 0.0000000000e+00 
          0.0000000000e+00 1.6923077000e+01 0.0000000000e+00 
          0.0000000000e+00 1.7692308000e+01 0.0000000000e+00 
          0.0000000000e+00 1.8461538000e+01 0.0000000000e+00 
          0.0000000000e+00 1.9230769000e+01 0.0000000000e+00 
          0.0000000000e+00 2.0000000000e+01 0.0000000000e+00 
          0.0000000000e+00 2.0769231000e+01 0.0000000000e+00 
          0.0000000000e+00 2.1538462000e+01 0.0000000000e+00 
          0.0000000000e+00 2.2307692000e+01 0.0000000000e+00 
          0.0000000000e+00 2.3076923000e+01 0.0000000000e+00 
          0.0000000000e+00 2.3846154000e+01 0.0000000000e+00 
          0.0000000000e+00 2.4615385000e+01 0.0000000000e+00 
          0.0000000000e+00 2.5384615000e+01 0.0000000000e+00 
          0.0000000000e+00 2.6153846000e+01 0.0000000000e+00 
          0.0000000000e+00 2.6923077000e+01 0.0000000000e+00 
          0.0000000000e+00 2.7692308000e+01 0.0000000000e+00 
          0.0000000000e+00 2.8461538000e+01 0.0000000000e+00 
          0.0000000000e+00 2.9230769000e+01 0.0000000000e+00 
        </DataArray>
      </Points>
      <Cells>
        <DataArray type="Int64" Name="connectivity" format="ascii">
          0 1 4 42 
          42 4 5 43 
          43 5 6 44 
          44 6 7 45 
          45 7 8 46 
          46 8 9 47 
          47 9 10 48 
          48 10 11 49 
          49 11 12 50 
          50 12 13 51 
          51 13 14 52 
          52 14 15 53 
          53 15 16 54 
          54 16 17 55 
          55 17 18 56 
          56 18 19 57 
          57 19 20 58 
          58 20 21 59 
          59 21 22 60 
          60 22 23 61 
          61 23 24 62 
          62 24 25 63 
          63 25 26 64 
          64 26 27 65 
          65 27 28 66 
          66 28 29 67 
          67 29 30 68 
          68 30 31 69 
          69 31 32 70 
          70 32 33 71 
          71 33 34 72 
          72 34 35 73 
          73 35 36 74 
          74 36 37 75 
          75 37 38 76 
          76 38 39 77 
          77 39 40 78 
          78 40 41 79 
          79 41 2 3 
        </DataArray>
        <DataArray type="Int64" Name="offsets" format="ascii">
          4
          8
          12
          16
          20
          24
          28
          32
          36
          40
          44
          48
          52
          56
          60
          64
          68
          72
          76
          80
          84
          88
          92
          96
          100
          104
          108
          112
          116
          120
          124
          128
          132
          136
          140
          144
          148
          152
          156
        </DataArray>
        <DataArray type="Int64" Name="types" format="ascii">
          9
          9
          9
          9
          9
          9
          9
          9
          9
          9
          9
          9
          9
          9
          9
          9
          9
          9
          9
          9
          9
          9
          9
          9
          9
          9
          9
          9
          9
          9
          9
          9
          9
          9
          9
          9
          9
          9
          9
        </DataArray>
      </Cells>
      <PointData>
        <DataArray type="Int64" Name="NodeTag" format="ascii">
          1
          2
          3
          4
          7
          8
          9
          10
          11
          12
          13
          14
          15
          16
          17
          18
          19
          20
          21
          22
          23
          24
          25
          26
          27
          28
          29
          30
          31
          32
          33
          34
          35
          36
          37
          38
          39
          40
          41
          42
          43
          44
          45
          46
          47
          48
          49
          50
          51
          52
          53
          54
          55
          56
          57
          58
          59
          60
          61
          62
          63
          64
          65
          66
          67
          68
          69
          70
          71
          72
          73
          74
          75
          76
          77
          78
          79
          80
          81
          82
        </DataArray>
        <DataArray type="Float64" Name="Velocity" NumberOfComponents="3" format="ascii">
          -2.7996081237e-04 -7.7848250686e-05 0.0000000000e+00 
          -2.7996081237e-04 -7.7848250686e-05 0.0000000000e+00 
          4.0698461627e-04 -7.7801363770e-05 0.0000000000e+00 
          4.0698461627e-04 -7.7801363770e-05 0.0000000000e+00 
          -2.5594103275e-04 -7.7808140737e-05 0.0000000000e+00 
          -2.3157643764e-04 -7.7910716742e-05 0.0000000000e+00 
          -2.0692257708e-04 -7.7786373318e-05 0.0000000000e+00 
          -1.8204070730e-04 -7.7886074722e-05 0.0000000000e+00 
          -1.5698978473e-04 -7.7859054558e-05 0.0000000000e+00 
          -1.3183037071e-04 -7.7798618562e-05 0.0000000000e+00 
          -1.0661820339e-04 -7.7912524621e-05 0.0000000000e+00 
          -8.1418911502e-05 -7.7797568192e-05 0.0000000000e+00 
          -5.6288080509e-05 -7.7876919312e-05 0.0000000000e+00 
          -3.1282329893e-05 -7.7853119858e-05 0.0000000000e+00 
          -6.4697566208e-06 -7.7803964284e-05 0.0000000000e+00 
          1.8105252382e-05 -7.7919189615e-05 0.0000000000e+00 
          4.2370762747e-05 -7.7803682238e-05 0.0000000000e+00 
          6.6276020895e-05 -7.7849658060e-05 0.0000000000e+00 
          8.9773970224e-05 -7.7875018841e-05 0.0000000000e+00 
          1.1278585376e-04 -7.7817844351e-05 0.0000000000e+00 
          1.3528101607e-04 -7.7884478307e-05 0.0000000000e+00 
          1.5719658469e-04 -7.7808929868e-05 0.0000000000e+00 
          1.7847130156e-04 -7.7885987778e-05 0.0000000000e+00 
          1.9907418200e-04 -7.7823169456e-05 0.0000000000e+00 
          2.1893836139e-04 -7.7867185544e-05 0.0000000000e+00 
          2.3802101090e-04 -7.7824860916e-05 0.0000000000e+00 
          2.5628625304e-04 -7.7881000406e-05 0.0000000000e+00 
          2.7367131783e-04 -7.7822274290e-05 0.0000000000e+00 
          2.9015045688e-04 -7.7837412669e-05 0.0000000000e+00 
          3.0567754023e-04 -7.7898387680e-05 0.0000000000e+00 
          3.2020587771e-04 -7.7790644879e-05 0.0000000000e+00 
          3.3372025577e-04 -7.7872159787e-05 0.0000000000e+00 
          3.4616550053e-04 -7.7866167083e-05 0.0000000000e+00 
          3.5752393232e-04 -7.7809625602e-05 0.0000000000e+00 
          3.6776652503e-04 -7.7869880127e-05 0.0000000000e+00 
          3.7686061098e-04 -7.7857951514e-05 0.0000000000e+00 
          3.8479315744e-04 -7.7823743781e-05 0.0000000000e+00 
          3.9153652879e-04 -7.7857086259e-05 0.0000000000e+00 
          3.9707364449e-04 -7.7864554109e-05 0.0000000000e+00 
          4.0140385042e-04 -7.7828300741e-05 0.0000000000e+00 
          4.0449890823e-04 -7.7850514019e-05 0.0000000000e+00 
          4.0635437772e-04 -7.7879604016e-05 0.0000000000e+00 
          -2.5594103275e-04 -7.7808140737e-05 0.0000000000e+00 
          -2.3157643764e-04 -7.7910716742e-05 0.0000000000e+00 
          -2.0692257708e-04 -7.7786373318e-05 0.0000000000e+00 
          -1.8204070730e-04 -7.7886074722e-05 0.0000000000e+00 
          -1.5698978473e-04 -7.7859054558e-05 0.0000000000e+00 
          -1.3183037071e-04 -7.7798618562e-05 0.0000000000e+00 
          -1.0661820339e-04 -7.7912524621e-05 0.0000000000e+00 
          -8.1418911502e-05 -7.7797568192e-05 0.0000000000e+00 
          -5.6288080509e-05 -7.7876919312e-05 0.0000000000e+00 
          -3.1282329893e-05 -7.7853119858e-05 0.0000000000e+00 
          -6.4697566208e-06 -7.7803964284e-05 0.0000000000e+00 
          1.8105252382e-05 -7.7919189615e-05 0.0000000000e+00 
          4.2370762747e-05 -7.7803682238e-05 0.0000000000e+00 
          6.6276020895e-05 -7.7849658060e-05 0.0000000000e+00 
          8.9773970224e-05 -7.7875018841e-05 0.0000000000e+00 
          1.1278585376e-04 -7.7817844351e-05 0.0000000000e+00 
          1.3528101607e-04 -7.7884478307e-05 0.0000000000e+00 
          1.5719658469e-04 -7.7808929868e-05 0.0000000000e+00 
          1.7847130156e-04 -7.7885987778e-05 0.0000000000e+00 
          1.9907418200e-04 -7.7823169456e-05 0.0000000000e+00 
          2.1893836139e-04 -7.7867185544e-05 0.0000000000e+00 
          2.3802101090e-04 -7.7824860916e-05 0.0000000000e+00 
          2.5628625304e-04 -7.7881000406e-05 0.0000000000e+00 
          2.7367131783e-04 -7.7822274290e-05 0.0000000000e+00 
          2.9015045688e-04 -7.7837412669e-05 0.0000000000e+00 
          3.0567754023e-04 -7.7898387680e-05 0.0000000000e+00 
          3.2020587771e-04 -7.7790644879e-05 0.0000000000e+00 
          3.3372025577e-04 -7.7872159787e-05 0.0000000000e+00 
          3.4616550053e-04 -7.7866167083e-05 0.0000000000e+00 
          3.5752393232e-04 -7.7809625602e-05 0.0000000000e+00 
          3.6776652503e-04 -7.7869880127e-05 0.0000000000e+00 
          3.7686061098e-04 -7.7857951514e-05 0.0000000000e+00 
          3.8479315744e-04 -7.7823743781e-05 0.0000000000e+00 
          3.9153652879e-04 -7.7857086259e-05 0.0000000000e+00 
          3.9707364449e-04 -7.7864554109e-05 0.0000000000e+00 
          4.0140385042e-04 -7.7828300741e-05 0.0000000000e+00 
          4.0449890823e-04 -7.7850514019e-05 0.0000000000e+00 
          4.0635437772e-04 -7.7879604016e-05 0.0000000000e+00 
        </DataArray>
        <DataArray type="Float64" Name="Displacement" NumberOfComponents="3" format="ascii">
          -3.8001275322e-06 -4.7069181255e-04 0.0000000000e+00 
          -3.8001275322e-06 -4.7069181255e-04 0.0000000000e+00 
          -1.1578846757e-04 -4.9427307169e-04 0.0000000000e+00 
          -1.1578846757e-04 -4.9427307169e-04 0.0000000000e+00 
          -8.4413924145e-06 -4.7188560802e-04 0.0000000000e+00 
          -1.3060002129e-05 -4.7304836449e-04 0.0000000000e+00 
          -1.7649336979e-05 -4.7418016221e-04 0.0000000000e+00 
          -2.2202746683e-05 -4.7528091272e-04 0.0000000000e+00 
          -2.6713700171e-05 -4.7635068951e-04 0.0000000000e+00 
          -3.1175718602e-05 -4.7738944827e-04 0.0000000000e+00 
          -3.5582347919e-05 -4.7839716791e-04 0.0000000000e+00 
          -3.9927344092e-05 -4.7937393514e-04 0.0000000000e+00 
          -4.4204410354e-05 -4.8031966370e-04 0.0000000000e+00 
          -4.8407449266e-05 -4.8123440827e-04 0.0000000000e+00 
          -5.2530412591e-05 -4.8211805456e-04 0.0000000000e+00 
          -5.6567399667e-05 -4.8297086251e-04 0.0000000000e+00 
          -6.0512628605e-05 -4.8379250217e-04 0.0000000000e+00 
          -6.4360404851e-05 -4.8458323376e-04 0.0000000000e+00 
          -6.8105239154e-05 -4.8534290527e-04 0.0000000000e+00 
          -7.1741704249e-05 -4.8607156042e-04 0.0000000000e+00 
          -7.5264596676e-05 -4.8676933249e-04 0.0000000000e+00 
          -7.8668835405e-05 -4.8743587211e-04 0.0000000000e+00 
          -8.1949489008e-05 -4.8807158498e-04 0.0000000000e+00 
          -8.5101841731e-05 -4.8867629145e-04 0.0000000000e+00 
          -8.8121301302e-05 -4.8924979305e-04 0.0000000000e+00 
          -9.1003533157e-05 -4.8979256803e-04 0.0000000000e+00 
          -9.3744321396e-05 -4.9030411631e-04 0.0000000000e+00 
          -9.6339683688e-05 -4.9078473744e-04 0.0000000000e+00 
          -9.8785876974e-05 -4.9123437114e-04 0.0000000000e+00 
          -1.0107927492e-04 -4.9165292596e-04 0.0000000000e+00 
          -1.0321659738e-04 -4.9204059708e-04 0.0000000000e+00 
          -1.0519467194e-04 -4.9239708583e-04 0.0000000000e+00 
          -1.0701060368e-04 -4.9272276796e-04 0.0000000000e+00 
          -1.0866176656e-04 -4.9301723799e-04 0.0000000000e+00 
          -1.1014569854e-04 -4.9328090773e-04 0.0000000000e+00 
          -1.1146024490e-04 -4.9351334944e-04 0.0000000000e+00 
          -1.1260345726e-04 -4.9371501719e-04 0.0000000000e+00 
          -1.1357365437e-04 -4.9388549579e-04 0.0000000000e+00 
          -1.1436941765e-04 -4.9402499666e-04 0.0000000000e+00 
          -1.1498956361e-04 -4.9413363955e-04 0.0000000000e+00 
          -1.1543317746e-04 -4.9421101306e-04 0.0000000000e+00 
          -1.1569960827e-04 -4.9425763686e-04 0.0000000000e+00 
          -8.4413924145e-06 -4.7188560802e-04 0.0000000000e+00 
          -1.3060002129e-05 -4.7304836449e-04 0.0000000000e+00 
          -1.7649336979e-05 -4.7418016221e-04 0.0000000000e+00 
          -2.2202746683e-05 -4.7528091272e-04 0.0000000000e+00 
          -2.6713700171e-05 -4.7635068951e-04 0.0000000000e+00 
          -3.1175718602e-05 -4.7738944827e-04 0.0000000000e+00 
          -3.5582347919e-05 -4.7839716791e-04 0.0000000000e+00 
          -3.9927344092e-05 -4.7937393514e-04 0.0000000000e+00 
          -4.4204410354e-05 -4.8031966370e-04 0.0000000000e+00 
          -4.8407449266e-05 -4.8123440827e-04 0.0000000000e+00 
          -5.2530412591e-05 -4.8211805456e-04 0.0000000000e+00 
          -5.6567399667e-05 -4.8297086251e-04 0.0000000000e+00 
          -6.0512628605e-05 -4.8379250217e-04 0.0000000000e+00 
          -6.4360404851e-05 -4.8458323376e-04 0.0000000000e+00 
          -6.8105239154e-05 -4.8534290527e-04 0.0000000000e+00 
          -7.1741704249e-05 -4.8607156042e-04 0.0000000000e+00 
          -7.5264596676e-05 -4.8676933249e-04 0.0000000000e+00 
          -7.8668835405e-05 -4.8743587211e-04 0.0000000000e+00 
          -8.1949489008e-05 -4.8807158498e-04 0.0000000000e+00 
          -8.5101841731e-05 -4.8867629145e-04 0.0000000000e+00 
          -8.8121301302e-05 -4.8924979305e-04 0.0000000000e+00 
          -9.1003533157e-05 -4.8979256803e-04 0.0000000000e+00 
          -9.3744321396e-05 -4.9030411631e-04 0.0000000000e+00 
          -9.6339683688e-05 -4.9078473744e-04 0.0000000000e+00 
          -9.8785876974e-05 -4.9123437114e-04 0.0000000000e+00 
          -1.0107927492e-04 -4.9165292596e-04 0.0000000000e+00 
          -1.0321659738e-04 -4.9204059708e-04 0.0000000000e+00 
          -1.0519467194e-04 -4.9239708583e-04 0.0000000000e+00 
          -1.0701060368e-04 -4.9272276796e-04 0.0000000000e+00 
          -1.0866176656e-04 -4.9301723799e-04 0.0000000000e+00 
          -1.1014569854e-04 -4.9328090773e-04 0.0000000000e+00 
          -1.1146024490e-04 -4.9351334944e-04 0.0000000000e+00 
          -1.1260345726e-04 -4.9371501719e-04 0.0000000000e+00 
          -1.1357365437e-04 -4.9388549579e-04 0.0000000000e+00 
          -1.1436941765e-04 -4.9402499666e-04 0.0000000000e+00 
          -1.1498956361e-04 -4.9413363955e-04 0.0000000000e+00 
          -1.1543317746e-04 -4.9421101306e-04 0.0000000000e+00 
          -1.1569960827e-04 -4.9425763686e-04 0.0000000000e+00 
        </DataArray>
        <DataArray type="Float64" Name="Acceleration" NumberOfComponents="3" format="ascii">
          1.4341386565e-03 2.4908563069e-06 0.0000000000e+00 
          1.4341386565e-03 2.4908563069e-06 0.0000000000e+00 
          1.6012797224e-02 -2.4629960039e-05 0.0000000000e+00 
          1.6012797224e-02 -2.4629960039e-05 0.0000000000e+00 
          2.0412753526e-03 5.8844109414e-06 0.0000000000e+00 
          2.6371872741e-03 -8.8351746990e-06 0.0000000000e+00 
          3.2374662826e-03 7.6344446326e-06 0.0000000000e+00 
          3.8253888496e-03 -5.8780375112e-06 0.0000000000e+00 
          4.4091453751e-03 2.1057644378e-06 0.0000000000e+00 
          4.9901555030e-03 5.6772254372e-06 0.0000000000e+00 
          5.5537878447e-03 -9.4788681062e-06 0.0000000000e+00 
          6.1206191165e-03 5.8256175092e-06 0.0000000000e+00 
          6.6700104797e-03 -4.0254646551e-06 0.0000000000e+00 
          7.2144902388e-03 1.6363340137e-05 0.0000000000e+00 
          7.7471177191e-03 -3.0062212770e-05 0.0000000000e+00 
          8.2675895521e-03 2.9185094298e-05 0.0000000000e+00 
          8.7806799906e-03 -1.7709097697e-05 0.0000000000e+00 
          9.2752722458e-03 9.6857310739e-06 0.0000000000e+00 
          9.7638601536e-03 1.6390281172e-06 0.0000000000e+00 
          1.0233554253e-02 -2.2037538423e-05 0.0000000000e+00 
          1.0690932484e-02 4.0746395036e-05 0.0000000000e+00 
          1.1135264004e-02 -3.2361579859e-05 0.0000000000e+00 
          1.1559800866e-02 -1.2847825620e-07 0.0000000000e+00 
          1.1974312439e-02 3.5923321513e-05 0.0000000000e+00 
          1.2364488219e-02 -5.0405781196e-05 0.0000000000e+00 
          1.2744349148e-02 3.9708706298e-05 0.0000000000e+00 
          1.3102869602e-02 -1.4376939264e-05 0.0000000000e+00 
          1.3440734630e-02 -3.2927030864e-06 0.0000000000e+00 
          1.3767161952e-02 1.3074701210e-05 0.0000000000e+00 
          1.4062709397e-02 -2.2100959156e-05 0.0000000000e+00 
          1.4348550317e-02 3.1722309723e-05 0.0000000000e+00 
          1.4609185368e-02 -3.6062780176e-05 0.0000000000e+00 
          1.4846221998e-02 3.7158737698e-05 0.0000000000e+00 
          1.5067833911e-02 -3.7130471177e-05 0.0000000000e+00 
          1.5261979281e-02 3.9950316288e-05 0.0000000000e+00 
          1.5437407942e-02 -4.1919194306e-05 0.0000000000e+00 
          1.5589158832e-02 3.2995367818e-05 0.0000000000e+00 
          1.5716833546e-02 -5.1547038362e-06 0.0000000000e+00 
          1.5823467117e-02 -2.6736830772e-05 0.0000000000e+00 
          1.5905850154e-02 4.7389610266e-05 0.0000000000e+00 
          1.5964604244e-02 -4.6225325115e-05 0.0000000000e+00 
          1.5999543332e-02 3.2911955504e-05 0.0000000000e+00 
          2.0412753526e-03 5.8844109414e-06 0.0000000000e+00 
          2.6371872741e-03 -8.8351746990e-06 0.0000000000e+00 
          3.2374662826e-03 7.6344446326e-06 0.0000000000e+00 
          3.8253888496e-03 -5.8780375112e-06 0.0000000000e+00 
          4.4091453751e-03 2.1057644378e-06 0.0000000000e+00 
          4.9901555030e-03 5.6772254372e-06 0.0000000000e+00 
          5.5537878447e-03 -9.4788681062e-06 0.0000000000e+00 
          6.1206191165e-03 5.8256175092e-06 0.0000000000e+00 
          6.6700104797e-03 -4.0254646551e-06 0.0000000000e+00 
          7.2144902388e-03 1.6363340137e-05 0.0000000000e+00 
          7.7471177191e-03 -3.0062212770e-05 0.0000000000e+00 
          8.2675895521e-03 2.9185094298e-05 0.0000000000e+00 
          8.7806799906e-03 -1.7709097697e-05 0.0000000000e+00 
          9.2752722458e-03 9.6857310739e-06 0.0000000000e+00 
          9.7638601536e-03 1.6390281172e-06 0.0000000000e+00 
          1.0233554253e-02 -2.2037538423e-05 0.0000000000e+00 
          1.0690932484e-02 4.0746395036e-05 0.0000000000e+00 
          1.1135264004e-02 -3.2361579859e-05 0.0000000000e+00 
          1.1559800866e-02 -1.2847825620e-07 0.0000000000e+00 
          1.1974312439e-02 3.5923321513e-05 0.0000000000e+00 
          1.2364488219e-02 -5.0405781196e-05 0.0000000000e+00 
          1.2744349148e-02 3.9708706298e-05 0.0000000000e+00 
          1.3102869602e-02 -1.4376939264e-05 0.0000000000e+00 
          1.3440734630e-02 -3.2927030864e-06 0.0000000000e+00 
          1.3767161952e-02 1.3074701210e-05 0.0000000000e+00 
          1.4062709397e-02 -2.2100959156e-05 0.0000000000e+00 
          1.4348550317e-02 3.1722309723e-05 0.0000000000e+00 
          1.4609185368e-02 -3.6062780176e-05 0.0000000000e+00 
          1.4846221998e-02 3.7158737698e-05 0.0000000000e+00 
          1.5067833911e-02 -3.7130471177e-05 0.0000000000e+00 
          1.5261979281e-02 3.9950316288e-05 0.0000000000e+00 
          1.5437407942e-02 -4.1919194306e-05 0.0000000000e+00 
          1.5589158832e-02 3.2995367818e-05 0.0000000000e+00 
          1.5716833546e-02 -5.1547038362e-06 0.0000000000e+00 
          1.5823467117e-02 -2.6736830772e-05 0.0000000000e+00 
          1.5905850154e-02 4.7389610266e-05 0.0000000000e+00 
          1.5964604244e-02 -4.6225325115e-05 0.0000000000e+00 
          1.5999543332e-02 3.2911955504e-05 0.0000000000e+00 
        </DataArray>
        <DataArray type="Float64" Name="Reaction" NumberOfComponents="3" format="ascii">
          0.0000000000e+00 0.0000000000e+00 0.0000000000e+00 
          0.0000000000e+00 0.0000000000e+00 0.0000000000e+00 
          0.0000000000e+00 0.0000000000e+00 0.0000000000e+00 
          0.0000000000e+00 0.0000000000e+00 0.0000000000e+00 
          0.0000000000e+00 0.0000000000e+00 0.0000000000e+00 
          0.0000000000e+00 0.0000000000e+00 0.0000000000e+00 
          0.0000000000e+00 0.0000000000e+00 0.0000000000e+00 
          0.0000000000e+00 0.0000000000e+00 0.0000000000e+00 
          0.0000000000e+00 0.0000000000e+00 0.0000000000e+00 
          0.0000000000e+00 0.0000000000e+00 0.0000000000e+00 
          0.0000000000e+00 0.0000000000e+00 0.0000000000e+00 
          0.0000000000e+00 0.0000000000e+00 0.0000000000e+00 
          0.0000000000e+00 0.0000000000e+00 0.0000000000e+00 
          0.0000000000e+00 0.0000000000e+00 0.0000000000e+00 
          0.0000000000e+00 0.0000000000e+00 0.0000000000e+00 
          0.0000000000e+00 0.0000000000e+00 0.0000000000e+00 
          0.0000000000e+00 0.0000000000e+00 0.0000000000e+00 
          0.0000000000e+00 0.0000000000e+00 0.0000000000e+00 
          0.0000000000e+00 0.0000000000e+00 0.0000000000e+00 
          0.0000000000e+00 0.0000000000e+00 0.0000000000e+00 
          0.0000000000e+00 0.0000000000e+00 0.0000000000e+00 
          0.0000000000e+00 0.0000000000e+00 0.0000000000e+00 
          0.0000000000e+00 0.0000000000e+00 0.0000000000e+00 
          0.0000000000e+00 0.0000000000e+00 0.0000000000e+00 
          0.0000000000e+00 0.0000000000e+00 0.0000000000e+00 
          0.0000000000e+00 0.0000000000e+00 0.0000000000e+00 
          0.0000000000e+00 0.0000000000e+00 0.0000000000e+00 
          0.0000000000e+00 0.0000000000e+00 0.0000000000e+00 
          0.0000000000e+00 0.0000000000e+00 0.0000000000e+00 
          0.0000000000e+00 0.0000000000e+00 0.0000000000e+00 
          0.0000000000e+00 0.0000000000e+00 0.0000000000e+00 
          0.0000000000e+00 0.0000000000e+00 0.0000000000e+00 
          0.0000000000e+00 0.0000000000e+00 0.0000000000e+00 
          0.0000000000e+00 0.0000000000e+00 0.0000000000e+00 
          0.0000000000e+00 0.0000000000e+00 0.0000000000e+00 
          0.0000000000e+00 0.0000000000e+00 0.0000000000e+00 
          0.0000000000e+00 0.0000000000e+00 0.0000000000e+00 
          0.0000000000e+00 0.0000000000e+00 0.0000000000e+00 
          0.0000000000e+00 0.0000000000e+00 0.0000000000e+00 
          0.0000000000e+00 0.0000000000e+00 0.0000000000e+00 
          0.0000000000e+00 0.0000000000e+00 0.0000000000e+00 
          0.0000000000e+00 0.0000000000e+00 0.0000000000e+00 
          0.0000000000e+00 0.0000000000e+00 0.0000000000e+00 
          0.0000000000e+00 0.0000000000e+00 0.0000000000e+00 
          0.0000000000e+00 0.0000000000e+00 0.0000000000e+00 
          0.0000000000e+00 0.0000000000e+00 0.0000000000e+00 
          0.0000000000e+00 0.0000000000e+00 0.0000000000e+00 
          0.0000000000e+00 0.0000000000e+00 0.0000000000e+00 
          0.0000000000e+00 0.0000000000e+00 0.0000000000e+00 
          0.0000000000e+00 0.0000000000e+00 0.0000000000e+00 
          0.0000000000e+00 0.0000000000e+00 0.0000000000e+00 
          0.0000000000e+00 0.0000000000e+00 0.0000000000e+00 
          0.0000000000e+00 0.0000000000e+00 0.0000000000e+00 
          0.0000000000e+00 0.0000000000e+00 0.0000000000e+00 
          0.0000000000e+00 0.0000000000e+00 0.0000000000e+00 
          0.0000000000e+00 0.0000000000e+00 0.0000000000e+00 
          0.0000000000e+00 0.0000000000e+00 0.0000000000e+00 
          0.0000000000e+00 0.0000000000e+00 0.0000000000e+00 
          0.0000000000e+00 0.0000000000e+00 0.0000000000e+00 
          0.0000000000e+00 0.0000000000e+00 0.0000000000e+00 
          0.0000000000e+00 0.0000000000e+00 0.0000000000e+00 
          0.0000000000e+00 0.0000000000e+00 0.0000000000e+00 
          0.0000000000e+00 0.0000000000e+00 0.0000000000e+00 
          0.0000000000e+00 0.0000000000e+00 0.0000000000e+00 
          0.0000000000e+00 0.0000000000e+00 0.0000000000e+00 
          0.0000000000e+00 0.0000000000e+00 0.0000000000e+00 
          0.0000000000e+00 0.0000000000e+00 0.0000000000e+00 
          0.0000000000e+00 0.0000000000e+00 0.0000000000e+00 
          0.0000000000e+00 0.0000000000e+00 0.0000000000e+00 
          0.0000000000e+00 0.0000000000e+00 0.0000000000e+00 
          0.0000000000e+00 0.0000000000e+00 0.0000000000e+00 
          0.0000000000e+00 0.0000000000e+00 0.0000000000e+00 
          0.0000000000e+00 0.0000000000e+00 0.0000000000e+00 
          0.0000000000e+00 0.0000000000e+00 0.0000000000e+00 
          0.0000000000e+00 0.0000000000e+00 0.0000000000e+00 
          0.0000000000e+00 0.0000000000e+00 0.0000000000e+00 
          0.0000000000e+00 0.0000000000e+00 0.0000000000e+00 
          0.0000000000e+00 0.0000000000e+00 0.0000000000e+00 
          0.0000000000e+00 0.0000000000e+00 0.0000000000e+00 
          0.0000000000e+00 0.0000000000e+00 0.0000000000e+00 
        </DataArray>
      </PointData>
      <CellData>
        <DataArray type="Int64" Name="ElementTag" format="ascii">
          90
          91
          92
          93
          94
          95
          96
          97
          98
          99
          100
          101
          102
          103
          104
          105
          106
          107
          108
          109
          110
          111
          112
          113
          114
          115
          116
          117
          118
          119
          120
          121
          122
          123
          124
          125
          126
          127
          128
        </DataArray>
      </CellData>
    </Piece>
  </UnstructuredGrid>
</VTKFile>
