<?xml version="1.0"?>
<VTKFile type="UnstructuredGrid" version="1.0" byte_order="LittleEndian" compressor="vtkZLibDataCompressor">
  <UnstructuredGrid>
    <Piece NumberOfPoints="82" NumberOfCells="1">
      <Points>
        <DataArray type="Float64" Name="Points" NumberOfComponents="3" format="ascii">
          0.0000000000e+00 0.0000000000e+00 0.0000000000e+00 
          2.5000000000e-01 0.0000000000e+00 0.0000000000e+00 
          2.5000000000e-01 3.0000000000e+01 0.0000000000e+00 
          0.0000000000e+00 3.0000000000e+01 0.0000000000e+00 
          0.0000000000e+00 -5.0000000000e+00 0.0000000000e+00 
          2.5000000000e-01 -5.0000000000e+00 0.0000000000e+00 
          2.5000000000e-01 7.6923100000e-01 0.0000000000e+00 
          2.5000000000e-01 1.5384620000e+00 0.0000000000e+00 
          2.5000000000e-01 2.3076920000e+00 0.0000000000e+00 
          2.5000000000e-01 3.0769230000e+00 0.0000000000e+00 
          2.5000000000e-01 3.8461540000e+00 0.0000000000e+00 
          2.5000000000e-01 4.6153850000e+00 0.0000000000e+00 
          2.5000000000e-01 5.3846150000e+00 0.0000000000e+00 
          2.5000000000e-01 6.1538460000e+00 0.0000000000e+00 
          2.5000000000e-01 6.9230770000e+00 0.0000000000e+00 
          2.5000000000e-01 7.6923080000e+00 0.0000000000e+00 
          2.5000000000e-01 8.4615380000e+00 0.0000000000e+00 
          2.5000000000e-01 9.2307690000e+00 0.0000000000e+00 
          2.5000000000e-01 1.0000000000e+01 0.0000000000e+00 
          2.5000000000e-01 1.0769231000e+01 0.0000000000e+00 
          2.5000000000e-01 1.1538462000e+01 0.0000000000e+00 
          2.5000000000e-01 1.2307692000e+01 0.0000000000e+00 
          2.5000000000e-01 1.3076923000e+01 0.0000000000e+00 
          2.5000000000e-01 1.3846154000e+01 0.0000000000e+00 
          2.5000000000e-01 1.4615385000e+01 0.0000000000e+00 
          2.5000000000e-01 1.5384615000e+01 0.0000000000e+00 
          2.5000000000e-01 1.6153846000e+01 0.0000000000e+00 
          2.5000000000e-01 1.6923077000e+01 0.0000000000e+00 
          2.5000000000e-01 1.7692308000e+01 0.0000000000e+00 
          2.5000000000e-01 1.8461538000e+01 0.0000000000e+00 
          2.5000000000e-01 1.9230769000e+01 0.0000000000e+00 
          2.5000000000e-01 2.0000000000e+01 0.0000000000e+00 
          2.5000000000e-01 2.0769231000e+01 0.0000000000e+00 
          2.5000000000e-01 2.1538462000e+01 0.0000000000e+00 
          2.5000000000e-01 2.2307692000e+01 0.0000000000e+00 
          2.5000000000e-01 2.3076923000e+01 0.0000000000e+00 
          2.5000000000e-01 2.3846154000e+01 0.0000000000e+00 
          2.5000000000e-01 2.4615385000e+01 0.0000000000e+00 
          2.5000000000e-01 2.5384615000e+01 0.0000000000e+00 
          2.5000000000e-01 2.6153846000e+01 0.0000000000e+00 
          2.5000000000e-01 2.6923077000e+01 0.0000000000e+00 
          2.5000000000e-01 2.7692308000e+01 0.0000000000e+00 
          2.5000000000e-01 2.8461538000e+01 0.0000000000e+00 
          2.5000000000e-01 2.9230769000e+01 0.0000000000e+00 
          0.0000000000e+00 7.6923100000e-01 0.0000000000e+00 
          0.0000000000e+00 1.5384620000e+00 0.0000000000e+00 
          0.0000000000e+00 2.3076920000e+00 0.0000000000e+00 
          0.0000000000e+00 3.0769230000e+00 0.0000000000e+00 
          0.0000000000e+00 3.8461540000e+00 0.0000000000e+00 
          0.0000000000e+00 4.6153850000e+00 0.0000000000e+00 
          0.0000000000e+00 5.3846150000e+00 0.0000000000e+00 
          0.0000000000e+00 6.1538460000e+00 0.0000000000e+00 
          0.0000000000e+00 6.9230770000e+00 0.0000000000e+00 
          0.0000000000e+00 7.6923080000e+00 0.0000000000e+00 
          0.0000000000e+00 8.4615380000e+00 0.0000000000e+00 
          0.0000000000e+00 9.2307690000e+00 0.0000000000e+00 
          0.0000000000e+00 1.0000000000e+01 0.0000000000e+00 
          0.0000000000e+00 1.0769231000e+01 0.0000000000e+00 
          0.0000000000e+00 1.1538462000e+01 0.0000000000e+00 
          0.0000000000e+00 1.2307692000e+01 0.0000000000e+00 
          0.0000000000e+00 1.3076923000e+01 0.0000000000e+00 
          0.0000000000e+00 1.3846154000e+01 0.0000000000e+00 
          0.0000000000e+00 1.4615385000e+01 0.0000000000e+00 
          0.0000000000e+00 1.5384615000e+01 0.0000000000e+00 
          0.0000000000e+00 1.6153846000e+01 0.0000000000e+00 
          0.0000000000e+00 1.6923077000e+01 0.0000000000e+00 
          0.0000000000e+00 1.7692308000e+01 0.0000000000e+00 
          0.0000000000e+00 1.8461538000e+01 0.0000000000e+00 
          0.0000000000e+00 1.9230769000e+01 0.0000000000e+00 
          0.0000000000e+00 2.0000000000e+01 0.0000000000e+00 
          0.0000000000e+00 2.0769231000e+01 0.0000000000e+00 
          0.0000000000e+00 2.1538462000e+01 0.0000000000e+00 
          0.0000000000e+00 2.2307692000e+01 0.0000000000e+00 
          0.0000000000e+00 2.3076923000e+01 0.0000000000e+00 
          0.0000000000e+00 2.3846154000e+01 0.0000000000e+00 
          0.0000000000e+00 2.4615385000e+01 0.0000000000e+00 
          0.0000000000e+00 2.5384615000e+01 0.0000000000e+00 
          0.0000000000e+00 2.6153846000e+01 0.0000000000e+00 
          0.0000000000e+00 2.6923077000e+01 0.0000000000e+00 
          0.0000000000e+00 2.7692308000e+01 0.0000000000e+00 
          0.0000000000e+00 2.8461538000e+01 0.0000000000e+00 
          0.0000000000e+00 2.9230769000e+01 0.0000000000e+00 
        </DataArray>
      </Points>
      <Cells>
        <DataArray type="Int64" Name="connectivity" format="ascii">
          0
          1
          2
          3
          4
          5
          6
          7
          8
          9
          10
          11
          12
          13
          14
          15
          16
          17
          18
          19
          20
          21
          22
          23
          24
          25
          26
          27
          28
          29
          30
          31
          32
          33
          34
          35
          36
          37
          38
          39
          40
          41
          42
          43
          44
          45
          46
          47
          48
          49
          50
          51
          52
          53
          54
          55
          56
          57
          58
          59
          60
          61
          62
          63
          64
          65
          66
          67
          68
          69
          70
          71
          72
          73
          74
          75
          76
          77
          78
          79
          80
          81
        </DataArray>
        <DataArray type="Int64" Name="offsets" format="ascii">
          82
        </DataArray>
        <DataArray type="Int64" Name="types" format="ascii">
          2
        </DataArray>
      </Cells>
      <PointData>
        <DataArray type="Int64" Name="NodeTag" format="ascii">
          1
          2
          3
          4
          5
          6
          7
          8
          9
          10
          11
          12
          13
          14
          15
          16
          17
          18
          19
          20
          21
          22
          23
          24
          25
          26
          27
          28
          29
          30
          31
          32
          33
          34
          35
          36
          37
          38
          39
          40
          41
          42
          43
          44
          45
          46
          47
          48
          49
          50
          51
          52
          53
          54
          55
          56
          57
          58
          59
          60
          61
          62
          63
          64
          65
          66
          67
          68
          69
          70
          71
          72
          73
          74
          75
          76
          77
          78
          79
          80
          81
          82
        </DataArray>
        <DataArray type="Float64" Name="Velocity" NumberOfComponents="3" format="ascii">
          3.1015558849e-05 -7.7845186617e-05 0.0000000000e+00 
          3.1015558849e-05 -7.7845186617e-05 0.0000000000e+00 
          1.5329234836e-04 -7.7838973704e-05 0.0000000000e+00 
          1.5329234836e-04 -7.7838973704e-05 0.0000000000e+00 
          0.0000000000e+00 0.0000000000e+00 0.0000000000e+00 
          0.0000000000e+00 0.0000000000e+00 0.0000000000e+00 
          3.6458830980e-05 -7.7834773900e-05 0.0000000000e+00 
          4.1833469659e-05 -7.7851272500e-05 0.0000000000e+00 
          4.7132951029e-05 -7.7843555992e-05 0.0000000000e+00 
          5.2354838954e-05 -7.7851089792e-05 0.0000000000e+00 
          5.7488205466e-05 -7.7815088544e-05 0.0000000000e+00 
          6.2537256087e-05 -7.7895634382e-05 0.0000000000e+00 
          6.7488498513e-05 -7.7783877336e-05 0.0000000000e+00 
          7.2338622968e-05 -7.7892841125e-05 0.0000000000e+00 
          7.7092783176e-05 -7.7821853173e-05 0.0000000000e+00 
          8.1729399357e-05 -7.7832650141e-05 0.0000000000e+00 
          8.6260269275e-05 -7.7877439856e-05 0.0000000000e+00 
          9.0672724920e-05 -7.7807757259e-05 0.0000000000e+00 
          9.4960109790e-05 -7.7860549311e-05 0.0000000000e+00 
          9.9131102686e-05 -7.7855435872e-05 0.0000000000e+00 
          1.0316408677e-04 -7.7806439467e-05 0.0000000000e+00 
          1.0707063847e-04 -7.7890960870e-05 0.0000000000e+00 
          1.1083857185e-04 -7.7807382400e-05 0.0000000000e+00 
          1.1446474583e-04 -7.7846227314e-05 0.0000000000e+00 
          1.1795276995e-04 -7.7877929337e-05 0.0000000000e+00 
          1.2128605347e-04 -7.7789374666e-05 0.0000000000e+00 
          1.2447676455e-04 -7.7891101553e-05 0.0000000000e+00 
          1.2751024507e-04 -7.7809481051e-05 0.0000000000e+00 
          1.3038597073e-04 -7.7864665567e-05 0.0000000000e+00 
          1.3310876384e-04 -7.7825259516e-05 0.0000000000e+00 
          1.3566070692e-04 -7.7855619354e-05 0.0000000000e+00 
          1.3805736597e-04 -7.7841022273e-05 0.0000000000e+00 
          1.4027961922e-04 -7.7829124617e-05 0.0000000000e+00 
          1.4233779349e-04 -7.7862763620e-05 0.0000000000e+00 
          1.4422043423e-04 -7.7820210527e-05 0.0000000000e+00 
          1.4593338473e-04 -7.7873043857e-05 0.0000000000e+00 
          1.4746984545e-04 -7.7794860798e-05 0.0000000000e+00 
          1.4882566566e-04 -7.7894801365e-05 0.0000000000e+00 
          1.5001282211e-04 -7.7810021597e-05 0.0000000000e+00 
          1.5100746381e-04 -7.7837384924e-05 0.0000000000e+00 
          1.5183394832e-04 -7.7873789700e-05 0.0000000000e+00 
          1.5247050854e-04 -7.7805201372e-05 0.0000000000e+00 
          1.5292747617e-04 -7.7864166137e-05 0.0000000000e+00 
          1.5320474297e-04 -7.7837151363e-05 0.0000000000e+00 
          3.6458830980e-05 -7.7834773900e-05 0.0000000000e+00 
          4.1833469659e-05 -7.7851272500e-05 0.0000000000e+00 
          4.7132951029e-05 -7.7843555992e-05 0.0000000000e+00 
          5.2354838954e-05 -7.7851089792e-05 0.0000000000e+00 
          5.7488205466e-05 -7.7815088544e-05 0.0000000000e+00 
          6.2537256087e-05 -7.7895634382e-05 0.0000000000e+00 
          6.7488498513e-05 -7.7783877336e-05 0.0000000000e+00 
          7.2338622968e-05 -7.7892841125e-05 0.0000000000e+00 
          7.7092783176e-05 -7.7821853173e-05 0.0000000000e+00 
          8.1729399357e-05 -7.7832650141e-05 0.0000000000e+00 
          8.6260269275e-05 -7.7877439856e-05 0.0000000000e+00 
          9.0672724920e-05 -7.7807757259e-05 0.0000000000e+00 
          9.4960109790e-05 -7.7860549311e-05 0.0000000000e+00 
          9.9131102686e-05 -7.7855435872e-05 0.0000000000e+00 
          1.0316408677e-04 -7.7806439467e-05 0.0000000000e+00 
          1.0707063847e-04 -7.7890960870e-05 0.0000000000e+00 
          1.1083857185e-04 -7.7807382400e-05 0.0000000000e+00 
          1.1446474583e-04 -7.7846227314e-05 0.0000000000e+00 
          1.1795276995e-04 -7.7877929337e-05 0.0000000000e+00 
          1.2128605347e-04 -7.7789374666e-05 0.0000000000e+00 
          1.2447676455e-04 -7.7891101553e-05 0.0000000000e+00 
          1.2751024507e-04 -7.7809481051e-05 0.0000000000e+00 
          1.3038597073e-04 -7.7864665567e-05 0.0000000000e+00 
          1.3310876384e-04 -7.7825259516e-05 0.0000000000e+00 
          1.3566070692e-04 -7.7855619354e-05 0.0000000000e+00 
          1.3805736597e-04 -7.7841022273e-05 0.0000000000e+00 
          1.4027961922e-04 -7.7829124617e-05 0.0000000000e+00 
          1.4233779349e-04 -7.7862763620e-05 0.0000000000e+00 
          1.4422043423e-04 -7.7820210527e-05 0.0000000000e+00 
          1.4593338473e-04 -7.7873043857e-05 0.0000000000e+00 
          1.4746984545e-04 -7.7794860798e-05 0.0000000000e+00 
          1.4882566566e-04 -7.7894801365e-05 0.0000000000e+00 
          1.5001282211e-04 -7.7810021597e-05 0.0000000000e+00 
          1.5100746381e-04 -7.7837384924e-05 0.0000000000e+00 
          1.5183394832e-04 -7.7873789700e-05 0.0000000000e+00 
          1.5247050854e-04 -7.7805201372e-05 0.0000000000e+00 
          1.5292747617e-04 -7.7864166137e-05 0.0000000000e+00 
          1.5320474297e-04 -7.7837151363e-05 0.0000000000e+00 
        </DataArray>
        <DataArray type="Float64" Name="Displacement" NumberOfComponents="3" format="ascii">
          -2.8765247982e-06 -5.6488369439e-04 0.0000000000e+00 
          -2.8765247982e-06 -5.6488369439e-04 0.0000000000e+00 
          1.0670678750e-05 -5.8846403847e-04 0.0000000000e+00 
          1.0670678750e-05 -5.8846403847e-04 0.0000000000e+00 
          0.0000000000e+00 0.0000000000e+00 0.0000000000e+00 
          0.0000000000e+00 0.0000000000e+00 0.0000000000e+00 
          -2.3596292954e-06 -5.6607744756e-04 0.0000000000e+00 
          -1.8401417357e-06 -5.6724015219e-04 0.0000000000e+00 
          -1.3191005665e-06 -5.6837193481e-04 0.0000000000e+00 
          -7.9758806999e-07 -5.6947259004e-04 0.0000000000e+00 
          -2.7664773373e-07 -5.7054238975e-04 0.0000000000e+00 
          2.4267256134e-07 -5.7158102284e-04 0.0000000000e+00 
          7.5930520591e-07 -5.7258876949e-04 0.0000000000e+00 
          1.2722567252e-06 -5.7356549571e-04 0.0000000000e+00 
          1.7804527057e-06 -5.7451109728e-04 0.0000000000e+00 
          2.2829197793e-06 -5.7542589069e-04 0.0000000000e+00 
          2.7786532261e-06 -5.7630949873e-04 0.0000000000e+00 
          3.2666533701e-06 -5.7716220047e-04 0.0000000000e+00 
          3.7459979261e-06 -5.7798384976e-04 0.0000000000e+00 
          4.2157048232e-06 -5.7877454177e-04 0.0000000000e+00 
          4.6748907983e-06 -5.7953417194e-04 0.0000000000e+00 
          5.1226446825e-06 -5.8026280254e-04 0.0000000000e+00 
          5.5580971954e-06 -5.8096051676e-04 0.0000000000e+00 
          5.9804177669e-06 -5.8162703385e-04 0.0000000000e+00 
          6.3887821415e-06 -5.8226279679e-04 0.0000000000e+00 
          6.7824121063e-06 -5.8286731592e-04 0.0000000000e+00 
          7.1605560921e-06 -5.8344097391e-04 0.0000000000e+00 
          7.5224872555e-06 -5.8398359749e-04 0.0000000000e+00 
          7.8675230079e-06 -5.8449516879e-04 0.0000000000e+00 
          8.1950090296e-06 -5.8497578254e-04 0.0000000000e+00 
          8.5043283554e-06 -5.8542537553e-04 0.0000000000e+00 
          8.7948898044e-06 -5.8584395979e-04 0.0000000000e+00 
          9.0661623092e-06 -5.8623153231e-04 0.0000000000e+00 
          9.3176252546e-06 -5.8658810285e-04 0.0000000000e+00 
          9.5488136487e-06 -5.8691368797e-04 0.0000000000e+00 
          9.7593034804e-06 -5.8720822080e-04 0.0000000000e+00 
          9.9486835278e-06 -5.8747178485e-04 0.0000000000e+00 
          1.0116631605e-05 -5.8770436823e-04 0.0000000000e+00 
          1.0262807941e-05 -5.8790581037e-04 0.0000000000e+00 
          1.0386952621e-05 -5.8807648443e-04 0.0000000000e+00 
          1.0488859239e-05 -5.8821588385e-04 0.0000000000e+00 
          1.0568287675e-05 -5.8832448221e-04 0.0000000000e+00 
          1.0625143930e-05 -5.8840198791e-04 0.0000000000e+00 
          1.0659304772e-05 -5.8844844819e-04 0.0000000000e+00 
          -2.3596292954e-06 -5.6607744756e-04 0.0000000000e+00 
          -1.8401417357e-06 -5.6724015219e-04 0.0000000000e+00 
          -1.3191005665e-06 -5.6837193481e-04 0.0000000000e+00 
          -7.9758806999e-07 -5.6947259004e-04 0.0000000000e+00 
          -2.7664773373e-07 -5.7054238975e-04 0.0000000000e+00 
          2.4267256134e-07 -5.7158102284e-04 0.0000000000e+00 
          7.5930520591e-07 -5.7258876949e-04 0.0000000000e+00 
          1.2722567252e-06 -5.7356549571e-04 0.0000000000e+00 
          1.7804527057e-06 -5.7451109728e-04 0.0000000000e+00 
          2.2829197793e-06 -5.7542589069e-04 0.0000000000e+00 
          2.7786532261e-06 -5.7630949873e-04 0.0000000000e+00 
          3.2666533701e-06 -5.7716220047e-04 0.0000000000e+00 
          3.7459979261e-06 -5.7798384976e-04 0.0000000000e+00 
          4.2157048232e-06 -5.7877454177e-04 0.0000000000e+00 
          4.6748907983e-06 -5.7953417194e-04 0.0000000000e+00 
          5.1226446825e-06 -5.8026280254e-04 0.0000000000e+00 
          5.5580971954e-06 -5.8096051676e-04 0.0000000000e+00 
          5.9804177669e-06 -5.8162703385e-04 0.0000000000e+00 
          6.3887821415e-06 -5.8226279679e-04 0.0000000000e+00 
          6.7824121063e-06 -5.8286731592e-04 0.0000000000e+00 
          7.1605560921e-06 -5.8344097391e-04 0.0000000000e+00 
          7.5224872555e-06 -5.8398359749e-04 0.0000000000e+00 
          7.8675230079e-06 -5.8449516879e-04 0.0000000000e+00 
          8.1950090296e-06 -5.8497578254e-04 0.0000000000e+00 
          8.5043283554e-06 -5.8542537553e-04 0.0000000000e+00 
          8.7948898044e-06 -5.8584395979e-04 0.0000000000e+00 
          9.0661623092e-06 -5.8623153231e-04 0.0000000000e+00 
          9.3176252546e-06 -5.8658810285e-04 0.0000000000e+00 
          9.5488136487e-06 -5.8691368797e-04 0.0000000000e+00 
          9.7593034804e-06 -5.8720822080e-04 0.0000000000e+00 
          9.9486835278e-06 -5.8747178485e-04 0.0000000000e+00 
          1.0116631605e-05 -5.8770436823e-04 0.0000000000e+00 
          1.0262807941e-05 -5.8790581037e-04 0.0000000000e+00 
          1.0386952621e-05 -5.8807648443e-04 0.0000000000e+00 
          1.0488859239e-05 -5.8821588385e-04 0.0000000000e+00 
          1.0568287675e-05 -5.8832448221e-04 0.0000000000e+00 
          1.0625143930e-05 -5.8840198791e-04 0.0000000000e+00 
          1.0659304772e-05 -5.8844844819e-04 0.0000000000e+00 
        </DataArray>
        <DataArray type="Float64" Name="Acceleration" NumberOfComponents="3" format="ascii">
          3.2970735934e-04 5.8057813090e-07 0.0000000000e+00 
          3.2970735934e-04 5.8057813090e-07 0.0000000000e+00 
          -2.0496356838e-03 3.1398581869e-05 0.0000000000e+00 
          -2.0496356838e-03 3.1398581869e-05 0.0000000000e+00 
          0.0000000000e+00 0.0000000000e+00 0.0000000000e+00 
          0.0000000000e+00 0.0000000000e+00 0.0000000000e+00 
          2.3354944021e-04 7.6057716146e-06 0.0000000000e+00 
          1.4004441207e-04 -1.5458774572e-05 0.0000000000e+00 
          4.2406513886e-05 2.2084405570e-05 0.0000000000e+00 
          -5.1552767883e-05 -2.7179030119e-05 0.0000000000e+00 
          -1.4596891079e-04 2.8884153978e-05 0.0000000000e+00 
          -2.4210226050e-04 -2.1837358590e-05 0.0000000000e+00 
          -3.3173738326e-04 2.7786592592e-06 0.0000000000e+00 
          -4.2848344182e-04 2.1320020833e-05 0.0000000000e+00 
          -5.1618582412e-04 -3.5713073175e-05 0.0000000000e+00 
          -6.0665540087e-04 3.2060000035e-05 0.0000000000e+00 
          -6.9684437291e-04 -1.7815209926e-05 0.0000000000e+00 
          -7.7988557548e-04 8.3078115786e-06 0.0000000000e+00 
          -8.6837209107e-04 -8.8385867849e-06 0.0000000000e+00 
          -9.4795586089e-04 1.0000609585e-05 0.0000000000e+00 
          -1.0300021861e-03 -1.3860325069e-06 0.0000000000e+00 
          -1.1084310104e-03 -1.6035848320e-05 0.0000000000e+00 
          -1.1832138499e-03 3.4381136150e-05 0.0000000000e+00 
          -1.2574809062e-03 -4.5445151787e-05 0.0000000000e+00 
          -1.3275541798e-03 4.2655687262e-05 0.0000000000e+00 
          -1.3953643009e-03 -2.6021059029e-05 0.0000000000e+00 
          -1.4608073162e-03 5.0609486465e-06 0.0000000000e+00 
          -1.5223099040e-03 8.2780843986e-06 0.0000000000e+00 
          -1.5812280557e-03 -8.9005289389e-06 0.0000000000e+00 
          -1.6368946011e-03 2.7152110419e-06 0.0000000000e+00 
          -1.6901217386e-03 4.3300262764e-07 0.0000000000e+00 
          -1.7379719754e-03 9.7115873127e-07 0.0000000000e+00 
          -1.7848804184e-03 -7.8482491755e-07 0.0000000000e+00 
          -1.8267512090e-03 -3.8403903240e-06 0.0000000000e+00 
          -1.8650096483e-03 8.3590200735e-06 0.0000000000e+00 
          -1.9020332552e-03 -6.7671956732e-06 0.0000000000e+00 
          -1.9310628833e-03 -4.6243847854e-06 0.0000000000e+00 
          -1.9616609829e-03 2.4265242029e-05 0.0000000000e+00 
          -1.9851140766e-03 -4.2883598822e-05 0.0000000000e+00 
          -2.0036933925e-03 4.8349724890e-05 0.0000000000e+00 
          -2.0253285112e-03 -3.6991948065e-05 0.0000000000e+00 
          -2.0337928431e-03 1.5542149876e-05 0.0000000000e+00 
          -2.0449093997e-03 7.0637262078e-06 0.0000000000e+00 
          -2.0531415503e-03 -2.4569990653e-05 0.0000000000e+00 
          2.3354944021e-04 7.6057716146e-06 0.0000000000e+00 
          1.4004441207e-04 -1.5458774572e-05 0.0000000000e+00 
          4.2406513886e-05 2.2084405570e-05 0.0000000000e+00 
          -5.1552767883e-05 -2.7179030119e-05 0.0000000000e+00 
          -1.4596891079e-04 2.8884153978e-05 0.0000000000e+00 
          -2.4210226050e-04 -2.1837358590e-05 0.0000000000e+00 
          -3.3173738326e-04 2.7786592592e-06 0.0000000000e+00 
          -4.2848344182e-04 2.1320020833e-05 0.0000000000e+00 
          -5.1618582412e-04 -3.5713073175e-05 0.0000000000e+00 
          -6.0665540087e-04 3.2060000035e-05 0.0000000000e+00 
          -6.9684437291e-04 -1.7815209926e-05 0.0000000000e+00 
          -7.7988557548e-04 8.3078115786e-06 0.0000000000e+00 
          -8.6837209107e-04 -8.8385867849e-06 0.0000000000e+00 
          -9.4795586089e-04 1.0000609585e-05 0.0000000000e+00 
          -1.0300021861e-03 -1.3860325069e-06 0.0000000000e+00 
          -1.1084310104e-03 -1.6035848320e-05 0.0000000000e+00 
          -1.1832138499e-03 3.4381136150e-05 0.0000000000e+00 
          -1.2574809062e-03 -4.5445151787e-05 0.0000000000e+00 
          -1.3275541798e-03 4.2655687262e-05 0.0000000000e+00 
          -1.3953643009e-03 -2.6021059029e-05 0.0000000000e+00 
          -1.4608073162e-03 5.0609486465e-06 0.0000000000e+00 
          -1.5223099040e-03 8.2780843986e-06 0.0000000000e+00 
          -1.5812280557e-03 -8.9005289389e-06 0.0000000000e+00 
          -1.6368946011e-03 2.7152110419e-06 0.0000000000e+00 
          -1.6901217386e-03 4.3300262764e-07 0.0000000000e+00 
          -1.7379719754e-03 9.7115873127e-07 0.0000000000e+00 
          -1.7848804184e-03 -7.8482491755e-07 0.0000000000e+00 
          -1.8267512090e-03 -3.8403903240e-06 0.0000000000e+00 
          -1.8650096483e-03 8.3590200735e-06 0.0000000000e+00 
          -1.9020332552e-03 -6.7671956732e-06 0.0000000000e+00 
          -1.9310628833e-03 -4.6243847854e-06 0.0000000000e+00 
          -1.9616609829e-03 2.4265242029e-05 0.0000000000e+00 
          -1.9851140766e-03 -4.2883598822e-05 0.0000000000e+00 
          -2.0036933925e-03 4.8349724890e-05 0.0000000000e+00 
          -2.0253285112e-03 -3.6991948065e-05 0.0000000000e+00 
          -2.0337928431e-03 1.5542149876e-05 0.0000000000e+00 
          -2.0449093997e-03 7.0637262078e-06 0.0000000000e+00 
          -2.0531415503e-03 -2.4569990653e-05 0.0000000000e+00 
        </DataArray>
        <DataArray type="Float64" Name="Reaction" NumberOfComponents="3" format="ascii">
          0.0000000000e+00 0.0000000000e+00 0.0000000000e+00 
          0.0000000000e+00 0.0000000000e+00 0.0000000000e+00 
          0.0000000000e+00 0.0000000000e+00 0.0000000000e+00 
          0.0000000000e+00 0.0000000000e+00 0.0000000000e+00 
          0.0000000000e+00 0.0000000000e+00 0.0000000000e+00 
          0.0000000000e+00 0.0000000000e+00 0.0000000000e+00 
          0.0000000000e+00 0.0000000000e+00 0.0000000000e+00 
          0.0000000000e+00 0.0000000000e+00 0.0000000000e+00 
          0.0000000000e+00 0.0000000000e+00 0.0000000000e+00 
          0.0000000000e+00 0.0000000000e+00 0.0000000000e+00 
          0.0000000000e+00 0.0000000000e+00 0.0000000000e+00 
          0.0000000000e+00 0.0000000000e+00 0.0000000000e+00 
          0.0000000000e+00 0.0000000000e+00 0.0000000000e+00 
          0.0000000000e+00 0.0000000000e+00 0.0000000000e+00 
          0.0000000000e+00 0.0000000000e+00 0.0000000000e+00 
          0.0000000000e+00 0.0000000000e+00 0.0000000000e+00 
          0.0000000000e+00 0.0000000000e+00 0.0000000000e+00 
          0.0000000000e+00 0.0000000000e+00 0.0000000000e+00 
          0.0000000000e+00 0.0000000000e+00 0.0000000000e+00 
          0.0000000000e+00 0.0000000000e+00 0.0000000000e+00 
          0.0000000000e+00 0.0000000000e+00 0.0000000000e+00 
          0.0000000000e+00 0.0000000000e+00 0.0000000000e+00 
          0.0000000000e+00 0.0000000000e+00 0.0000000000e+00 
          0.0000000000e+00 0.0000000000e+00 0.0000000000e+00 
          0.0000000000e+00 0.0000000000e+00 0.0000000000e+00 
          0.0000000000e+00 0.0000000000e+00 0.0000000000e+00 
          0.0000000000e+00 0.0000000000e+00 0.0000000000e+00 
          0.0000000000e+00 0.0000000000e+00 0.0000000000e+00 
          0.0000000000e+00 0.0000000000e+00 0.0000000000e+00 
          0.0000000000e+00 0.0000000000e+00 0.0000000000e+00 
          0.0000000000e+00 0.0000000000e+00 0.0000000000e+00 
          0.0000000000e+00 0.0000000000e+00 0.0000000000e+00 
          0.0000000000e+00 0.0000000000e+00 0.0000000000e+00 
          0.0000000000e+00 0.0000000000e+00 0.0000000000e+00 
          0.0000000000e+00 0.0000000000e+00 0.0000000000e+00 
          0.0000000000e+00 0.0000000000e+00 0.0000000000e+00 
          0.0000000000e+00 0.0000000000e+00 0.0000000000e+00 
          0.0000000000e+00 0.0000000000e+00 0.0000000000e+00 
          0.0000000000e+00 0.0000000000e+00 0.0000000000e+00 
          0.0000000000e+00 0.0000000000e+00 0.0000000000e+00 
          0.0000000000e+00 0.0000000000e+00 0.0000000000e+00 
          0.0000000000e+00 0.0000000000e+00 0.0000000000e+00 
          0.0000000000e+00 0.0000000000e+00 0.0000000000e+00 
          0.0000000000e+00 0.0000000000e+00 0.0000000000e+00 
          0.0000000000e+00 0.0000000000e+00 0.0000000000e+00 
          0.0000000000e+00 0.0000000000e+00 0.0000000000e+00 
          0.0000000000e+00 0.0000000000e+00 0.0000000000e+00 
          0.0000000000e+00 0.0000000000e+00 0.0000000000e+00 
          0.0000000000e+00 0.0000000000e+00 0.0000000000e+00 
          0.0000000000e+00 0.0000000000e+00 0.0000000000e+00 
          0.0000000000e+00 0.0000000000e+00 0.0000000000e+00 
          0.0000000000e+00 0.0000000000e+00 0.0000000000e+00 
          0.0000000000e+00 0.0000000000e+00 0.0000000000e+00 
          0.0000000000e+00 0.0000000000e+00 0.0000000000e+00 
          0.0000000000e+00 0.0000000000e+00 0.0000000000e+00 
          0.0000000000e+00 0.0000000000e+00 0.0000000000e+00 
          0.0000000000e+00 0.0000000000e+00 0.0000000000e+00 
          0.0000000000e+00 0.0000000000e+00 0.0000000000e+00 
          0.0000000000e+00 0.0000000000e+00 0.0000000000e+00 
          0.0000000000e+00 0.0000000000e+00 0.0000000000e+00 
          0.0000000000e+00 0.0000000000e+00 0.0000000000e+00 
          0.0000000000e+00 0.0000000000e+00 0.0000000000e+00 
          0.0000000000e+00 0.0000000000e+00 0.0000000000e+00 
          0.0000000000e+00 0.0000000000e+00 0.0000000000e+00 
          0.0000000000e+00 0.0000000000e+00 0.0000000000e+00 
          0.0000000000e+00 0.0000000000e+00 0.0000000000e+00 
          0.0000000000e+00 0.0000000000e+00 0.0000000000e+00 
          0.0000000000e+00 0.0000000000e+00 0.0000000000e+00 
          0.0000000000e+00 0.0000000000e+00 0.0000000000e+00 
          0.0000000000e+00 0.0000000000e+00 0.0000000000e+00 
          0.0000000000e+00 0.0000000000e+00 0.0000000000e+00 
          0.0000000000e+00 0.0000000000e+00 0.0000000000e+00 
          0.0000000000e+00 0.0000000000e+00 0.0000000000e+00 
          0.0000000000e+00 0.0000000000e+00 0.0000000000e+00 
          0.0000000000e+00 0.0000000000e+00 0.0000000000e+00 
          0.0000000000e+00 0.0000000000e+00 0.0000000000e+00 
          0.0000000000e+00 0.0000000000e+00 0.0000000000e+00 
          0.0000000000e+00 0.0000000000e+00 0.0000000000e+00 
          0.0000000000e+00 0.0000000000e+00 0.0000000000e+00 
          0.0000000000e+00 0.0000000000e+00 0.0000000000e+00 
          0.0000000000e+00 0.0000000000e+00 0.0000000000e+00 
          0.0000000000e+00 0.0000000000e+00 0.0000000000e+00 
        </DataArray>
      </PointData>
      <CellData>
        <DataArray type="Int64" Name="ElementTag" format="ascii">
          0
        </DataArray>
      </CellData>
    </Piece>
  </UnstructuredGrid>
</VTKFile>
