<?xml version="1.0"?>
<VTKFile type="UnstructuredGrid" version="1.0" byte_order="LittleEndian" compressor="vtkZLibDataCompressor">
  <UnstructuredGrid>
    <Piece NumberOfPoints="80" NumberOfCells="39">
      <Points>
        <DataArray type="Float64" Name="Points" NumberOfComponents="3" format="ascii">
          0.0000000000e+00 0.0000000000e+00 0.0000000000e+00 
          2.5000000000e-01 0.0000000000e+00 0.0000000000e+00 
          2.5000000000e-01 3.0000000000e+01 0.0000000000e+00 
          0.0000000000e+00 3.0000000000e+01 0.0000000000e+00 
          2.5000000000e-01 7.6923100000e-01 0.0000000000e+00 
          2.5000000000e-01 1.5384620000e+00 0.0000000000e+00 
          2.5000000000e-01 2.3076920000e+00 0.0000000000e+00 
          2.5000000000e-01 3.0769230000e+00 0.0000000000e+00 
          2.5000000000e-01 3.8461540000e+00 0.0000000000e+00 
          2.5000000000e-01 4.6153850000e+00 0.0000000000e+00 
          2.5000000000e-01 5.3846150000e+00 0.0000000000e+00 
          2.5000000000e-01 6.1538460000e+00 0.0000000000e+00 
          2.5000000000e-01 6.9230770000e+00 0.0000000000e+00 
          2.5000000000e-01 7.6923080000e+00 0.0000000000e+00 
          2.5000000000e-01 8.4615380000e+00 0.0000000000e+00 
          2.5000000000e-01 9.2307690000e+00 0.0000000000e+00 
          2.5000000000e-01 1.0000000000e+01 0.0000000000e+00 
          2.5000000000e-01 1.0769231000e+01 0.0000000000e+00 
          2.5000000000e-01 1.1538462000e+01 0.0000000000e+00 
          2.5000000000e-01 1.2307692000e+01 0.0000000000e+00 
          2.5000000000e-01 1.3076923000e+01 0.0000000000e+00 
          2.5000000000e-01 1.3846154000e+01 0.0000000000e+00 
          2.5000000000e-01 1.4615385000e+01 0.0000000000e+00 
          2.5000000000e-01 1.5384615000e+01 0.0000000000e+00 
          2.5000000000e-01 1.6153846000e+01 0.0000000000e+00 
          2.5000000000e-01 1.6923077000e+01 0.0000000000e+00 
          2.5000000000e-01 1.7692308000e+01 0.0000000000e+00 
          2.5000000000e-01 1.8461538000e+01 0.0000000000e+00 
          2.5000000000e-01 1.9230769000e+01 0.0000000000e+00 
          2.5000000000e-01 2.0000000000e+01 0.0000000000e+00 
          2.5000000000e-01 2.0769231000e+01 0.0000000000e+00 
          2.5000000000e-01 2.1538462000e+01 0.0000000000e+00 
          2.5000000000e-01 2.2307692000e+01 0.0000000000e+00 
          2.5000000000e-01 2.3076923000e+01 0.0000000000e+00 
          2.5000000000e-01 2.3846154000e+01 0.0000000000e+00 
          2.5000000000e-01 2.4615385000e+01 0.0000000000e+00 
          2.5000000000e-01 2.5384615000e+01 0.0000000000e+00 
          2.5000000000e-01 2.6153846000e+01 0.0000000000e+00 
          2.5000000000e-01 2.6923077000e+01 0.0000000000e+00 
          2.5000000000e-01 2.7692308000e+01 0.0000000000e+00 
          2.5000000000e-01 2.8461538000e+01 0.0000000000e+00 
          2.5000000000e-01 2.9230769000e+01 0.0000000000e+00 
          0.0000000000e+00 7.6923100000e-01 0.0000000000e+00 
          0.0000000000e+00 1.5384620000e+00 0.0000000000e+00 
          0.0000000000e+00 2.3076920000e+00 0.0000000000e+00 
          0.0000000000e+00 3.0769230000e+00 0.0000000000e+00 
          0.0000000000e+00 3.8461540000e+00 0.0000000000e+00 
          0.0000000000e+00 4.6153850000e+00 0.0000000000e+00 
          0.0000000000e+00 5.3846150000e+00 0.0000000000e+00 
          0.0000000000e+00 6.1538460000e+00 0.0000000000e+00 
          0.0000000000e+00 6.9230770000e+00 0.0000000000e+00 
          0.0000000000e+00 7.6923080000e+00 0.0000000000e+00 
          0.0000000000e+00 8.4615380000e+00 0.0000000000e+00 
          0.0000000000e+00 9.2307690000e+00 0.0000000000e+00 
          0.0000000000e+00 1.0000000000e+01 0.0000000000e+00 
          0.0000000000e+00 1.0769231000e+01 0.0000000000e+00 
          0.0000000000e+00 1.1538462000e+01 0.0000000000e+00 
          0.0000000000e+00 1.2307692000e+01 0.0000000000e+00 
          0.0000000000e+00 1.3076923000e+01 0.0000000000e+00 
          0.0000000000e+00 1.3846154000e+01 0.0000000000e+00 
          0.0000000000e+00 1.4615385000e+01 0.0000000000e+00 
          0.0000000000e+00 1.5384615000e+01 0.0000000000e+00 
          0.0000000000e+00 1.6153846000e+01 0.0000000000e+00 
          0.0000000000e+00 1.6923077000e+01 0.0000000000e+00 
          0.0000000000e+00 1.7692308000e+01 0.0000000000e+00 
          0.0000000000e+00 1.8461538000e+01 0.0000000000e+00 
          0.0000000000e+00 1.9230769000e+01 0.0000000000e+00 
          0.0000000000e+00 2.0000000000e+01 0.0000000000e+00 
          0.0000000000e+00 2.0769231000e+01 0.0000000000e+00 
          0.0000000000e+00 2.1538462000e+01 0.0000000000e+00 
          0.0000000000e+00 2.2307692000e+01 0.0000000000e+00 
          0.0000000000e+00 2.3076923000e+01 0.0000000000e+00 
          0.0000000000e+00 2.3846154000e+01 0.0000000000e+00 
          0.0000000000e+00 2.4615385000e+01 0.0000000000e+00 
          0.0000000000e+00 2.5384615000e+01 0.0000000000e+00 
          0.0000000000e+00 2.6153846000e+01 0.0000000000e+00 
          0.0000000000e+00 2.6923077000e+01 0.0000000000e+00 
          0.0000000000e+00 2.7692308000e+01 0.0000000000e+00 
          0.0000000000e+00 2.8461538000e+01 0.0000000000e+00 
          0.0000000000e+00 2.9230769000e+01 0.0000000000e+00 
        </DataArray>
      </Points>
      <Cells>
        <DataArray type="Int64" Name="connectivity" format="ascii">
          0 1 4 42 
          42 4 5 43 
          43 5 6 44 
          44 6 7 45 
          45 7 8 46 
          46 8 9 47 
          47 9 10 48 
          48 10 11 49 
          49 11 12 50 
          50 12 13 51 
          51 13 14 52 
          52 14 15 53 
          53 15 16 54 
          54 16 17 55 
          55 17 18 56 
          56 18 19 57 
          57 19 20 58 
          58 20 21 59 
          59 21 22 60 
          60 22 23 61 
          61 23 24 62 
          62 24 25 63 
          63 25 26 64 
          64 26 27 65 
          65 27 28 66 
          66 28 29 67 
          67 29 30 68 
          68 30 31 69 
          69 31 32 70 
          70 32 33 71 
          71 33 34 72 
          72 34 35 73 
          73 35 36 74 
          74 36 37 75 
          75 37 38 76 
          76 38 39 77 
          77 39 40 78 
          78 40 41 79 
          79 41 2 3 
        </DataArray>
        <DataArray type="Int64" Name="offsets" format="ascii">
          4
          8
          12
          16
          20
          24
          28
          32
          36
          40
          44
          48
          52
          56
          60
          64
          68
          72
          76
          80
          84
          88
          92
          96
          100
          104
          108
          112
          116
          120
          124
          128
          132
          136
          140
          144
          148
          152
          156
        </DataArray>
        <DataArray type="Int64" Name="types" format="ascii">
          9
          9
          9
          9
          9
          9
          9
          9
          9
          9
          9
          9
          9
          9
          9
          9
          9
          9
          9
          9
          9
          9
          9
          9
          9
          9
          9
          9
          9
          9
          9
          9
          9
          9
          9
          9
          9
          9
          9
        </DataArray>
      </Cells>
      <PointData>
        <DataArray type="Int64" Name="NodeTag" format="ascii">
          1
          2
          3
          4
          7
          8
          9
          10
          11
          12
          13
          14
          15
          16
          17
          18
          19
          20
          21
          22
          23
          24
          25
          26
          27
          28
          29
          30
          31
          32
          33
          34
          35
          36
          37
          38
          39
          40
          41
          42
          43
          44
          45
          46
          47
          48
          49
          50
          51
          52
          53
          54
          55
          56
          57
          58
          59
          60
          61
          62
          63
          64
          65
          66
          67
          68
          69
          70
          71
          72
          73
          74
          75
          76
          77
          78
          79
          80
          81
          82
        </DataArray>
        <DataArray type="Float64" Name="Velocity" NumberOfComponents="3" format="ascii">
          -9.4090931304e-02 -7.9207730894e-05 0.0000000000e+00 
          -9.4090931304e-02 -7.9207730894e-05 0.0000000000e+00 
          -4.3487803721e-02 -7.9277288340e-05 0.0000000000e+00 
          -4.3487803721e-02 -7.9277288340e-05 0.0000000000e+00 
          -9.3053273237e-02 -7.9399655739e-05 0.0000000000e+00 
          -9.1904583939e-02 -7.9249066902e-05 0.0000000000e+00 
          -9.0652707853e-02 -7.9334057503e-05 0.0000000000e+00 
          -8.9305682000e-02 -7.9609921875e-05 0.0000000000e+00 
          -8.7871769629e-02 -7.9568418340e-05 0.0000000000e+00 
          -8.6359410793e-02 -7.9664246160e-05 0.0000000000e+00 
          -8.4777085038e-02 -7.9535997619e-05 0.0000000000e+00 
          -8.3133411412e-02 -7.9531350228e-05 0.0000000000e+00 
          -8.1437077451e-02 -7.9486089564e-05 0.0000000000e+00 
          -7.9696718864e-02 -7.9389827839e-05 0.0000000000e+00 
          -7.7920975094e-02 -7.9355940496e-05 0.0000000000e+00 
          -7.6118472605e-02 -7.9118454630e-05 0.0000000000e+00 
          -7.4297762736e-02 -7.9127502184e-05 0.0000000000e+00 
          -7.2467271153e-02 -7.9097646151e-05 0.0000000000e+00 
          -7.0635246156e-02 -7.9070815976e-05 0.0000000000e+00 
          -6.8809820616e-02 -7.8963071977e-05 0.0000000000e+00 
          -6.6998953326e-02 -7.9052912365e-05 0.0000000000e+00 
          -6.5210413032e-02 -7.9046398915e-05 0.0000000000e+00 
          -6.3451709524e-02 -7.8875149923e-05 0.0000000000e+00 
          -6.1730081851e-02 -7.8853305656e-05 0.0000000000e+00 
          -6.0052573359e-02 -7.8821964790e-05 0.0000000000e+00 
          -5.8425906902e-02 -7.9052706336e-05 0.0000000000e+00 
          -5.6856550526e-02 -7.9271574678e-05 0.0000000000e+00 
          -5.5350619514e-02 -7.9270123281e-05 0.0000000000e+00 
          -5.3913903086e-02 -7.9283181151e-05 0.0000000000e+00 
          -5.2551928225e-02 -7.9312486139e-05 0.0000000000e+00 
          -5.1269823134e-02 -7.9277590544e-05 0.0000000000e+00 
          -5.0072369690e-02 -7.9228937381e-05 0.0000000000e+00 
          -4.8963988439e-02 -7.9070287135e-05 0.0000000000e+00 
          -4.7948749924e-02 -7.8975490044e-05 0.0000000000e+00 
          -4.7030357845e-02 -7.9161559704e-05 0.0000000000e+00 
          -4.6212175577e-02 -7.9209050484e-05 0.0000000000e+00 
          -4.5497118317e-02 -7.8742408682e-05 0.0000000000e+00 
          -4.4887677436e-02 -7.8957831176e-05 0.0000000000e+00 
          -4.4386101535e-02 -7.9116343700e-05 0.0000000000e+00 
          -4.3994168630e-02 -7.9026424302e-05 0.0000000000e+00 
          -4.3713218739e-02 -7.9271767061e-05 0.0000000000e+00 
          -4.3544222857e-02 -7.9213441999e-05 0.0000000000e+00 
          -9.3053273237e-02 -7.9399655739e-05 0.0000000000e+00 
          -9.1904583939e-02 -7.9249066902e-05 0.0000000000e+00 
          -9.0652707853e-02 -7.9334057503e-05 0.0000000000e+00 
          -8.9305682000e-02 -7.9609921875e-05 0.0000000000e+00 
          -8.7871769629e-02 -7.9568418340e-05 0.0000000000e+00 
          -8.6359410793e-02 -7.9664246160e-05 0.0000000000e+00 
          -8.4777085038e-02 -7.9535997619e-05 0.0000000000e+00 
          -8.3133411412e-02 -7.9531350228e-05 0.0000000000e+00 
          -8.1437077451e-02 -7.9486089564e-05 0.0000000000e+00 
          -7.9696718864e-02 -7.9389827839e-05 0.0000000000e+00 
          -7.7920975094e-02 -7.9355940496e-05 0.0000000000e+00 
          -7.6118472605e-02 -7.9118454630e-05 0.0000000000e+00 
          -7.4297762736e-02 -7.9127502184e-05 0.0000000000e+00 
          -7.2467271153e-02 -7.9097646151e-05 0.0000000000e+00 
          -7.0635246156e-02 -7.9070815976e-05 0.0000000000e+00 
          -6.8809820616e-02 -7.8963071977e-05 0.0000000000e+00 
          -6.6998953326e-02 -7.9052912365e-05 0.0000000000e+00 
          -6.5210413032e-02 -7.9046398915e-05 0.0000000000e+00 
          -6.3451709524e-02 -7.8875149923e-05 0.0000000000e+00 
          -6.1730081851e-02 -7.8853305656e-05 0.0000000000e+00 
          -6.0052573359e-02 -7.8821964790e-05 0.0000000000e+00 
          -5.8425906902e-02 -7.9052706336e-05 0.0000000000e+00 
          -5.6856550526e-02 -7.9271574678e-05 0.0000000000e+00 
          -5.5350619514e-02 -7.9270123281e-05 0.0000000000e+00 
          -5.3913903086e-02 -7.9283181151e-05 0.0000000000e+00 
          -5.2551928225e-02 -7.9312486139e-05 0.0000000000e+00 
          -5.1269823134e-02 -7.9277590544e-05 0.0000000000e+00 
          -5.0072369690e-02 -7.9228937381e-05 0.0000000000e+00 
          -4.8963988439e-02 -7.9070287135e-05 0.0000000000e+00 
          -4.7948749924e-02 -7.8975490044e-05 0.0000000000e+00 
          -4.7030357845e-02 -7.9161559704e-05 0.0000000000e+00 
          -4.6212175577e-02 -7.9209050484e-05 0.0000000000e+00 
          -4.5497118317e-02 -7.8742408682e-05 0.0000000000e+00 
          -4.4887677436e-02 -7.8957831176e-05 0.0000000000e+00 
          -4.4386101535e-02 -7.9116343700e-05 0.0000000000e+00 
          -4.3994168630e-02 -7.9026424302e-05 0.0000000000e+00 
          -4.3713218739e-02 -7.9271767061e-05 0.0000000000e+00 
          -4.3544222857e-02 -7.9213441999e-05 0.0000000000e+00 
        </DataArray>
        <DataArray type="Float64" Name="Displacement" NumberOfComponents="3" format="ascii">
          1.7806936333e-03 -1.8498377363e-04 0.0000000000e+00 
          1.7806936333e-03 -1.8498377363e-04 0.0000000000e+00 
          -3.5620570223e-02 -2.0900804750e-04 0.0000000000e+00 
          -3.5620570223e-02 -2.0900804750e-04 0.0000000000e+00 
          2.6522390952e-04 -1.8619872544e-04 0.0000000000e+00 
          -1.2463779200e-03 -1.8738323446e-04 0.0000000000e+00 
          -2.7517753386e-03 -1.8853588718e-04 0.0000000000e+00 
          -4.2486444298e-03 -1.8965721881e-04 0.0000000000e+00 
          -5.7346657355e-03 -1.9074713444e-04 0.0000000000e+00 
          -7.2075356379e-03 -1.9180595866e-04 0.0000000000e+00 
          -8.6649658057e-03 -1.9283338063e-04 0.0000000000e+00 
          -1.0104694271e-02 -1.9382962074e-04 0.0000000000e+00 
          -1.1524477587e-02 -1.9479375428e-04 0.0000000000e+00 
          -1.2922101776e-02 -1.9572622854e-04 0.0000000000e+00 
          -1.4295382019e-02 -1.9662737794e-04 0.0000000000e+00 
          -1.5642173183e-02 -1.9749604715e-04 0.0000000000e+00 
          -1.6960362357e-02 -1.9833340399e-04 0.0000000000e+00 
          -1.8247879470e-02 -1.9913931411e-04 0.0000000000e+00 
          -1.9502698716e-02 -1.9991253891e-04 0.0000000000e+00 
          -2.0722840158e-02 -2.0065430596e-04 0.0000000000e+00 
          -2.1906379479e-02 -2.0136466277e-04 0.0000000000e+00 
          -2.3051441630e-02 -2.0204369994e-04 0.0000000000e+00 
          -2.4156210263e-02 -2.0269097740e-04 0.0000000000e+00 
          -2.5218928086e-02 -2.0330631656e-04 0.0000000000e+00 
          -2.6237905021e-02 -2.0389082606e-04 0.0000000000e+00 
          -2.7211513200e-02 -2.0444339539e-04 0.0000000000e+00 
          -2.8138195466e-02 -2.0496442858e-04 0.0000000000e+00 
          -2.9016465491e-02 -2.0545469163e-04 0.0000000000e+00 
          -2.9844915417e-02 -2.0591272003e-04 0.0000000000e+00 
          -3.0622211065e-02 -2.0633925868e-04 0.0000000000e+00 
          -3.1347099591e-02 -2.0673442670e-04 0.0000000000e+00 
          -3.2018410738e-02 -2.0709777599e-04 0.0000000000e+00 
          -3.2635057794e-02 -2.0742975270e-04 0.0000000000e+00 
          -3.3196043504e-02 -2.0772978187e-04 0.0000000000e+00 
          -3.3700456978e-02 -2.0799857103e-04 0.0000000000e+00 
          -3.4147478824e-02 -2.0823538925e-04 0.0000000000e+00 
          -3.4536381649e-02 -2.0844046644e-04 0.0000000000e+00 
          -3.4866533178e-02 -2.0861432802e-04 0.0000000000e+00 
          -3.5137394835e-02 -2.0875653822e-04 0.0000000000e+00 
          -3.5348524897e-02 -2.0886674148e-04 0.0000000000e+00 
          -3.5499578675e-02 -2.0894538707e-04 0.0000000000e+00 
          -3.5590309960e-02 -2.0899252758e-04 0.0000000000e+00 
          2.6522390952e-04 -1.8619872544e-04 0.0000000000e+00 
          -1.2463779200e-03 -1.8738323446e-04 0.0000000000e+00 
          -2.7517753386e-03 -1.8853588718e-04 0.0000000000e+00 
          -4.2486444298e-03 -1.8965721881e-04 0.0000000000e+00 
          -5.7346657355e-03 -1.9074713444e-04 0.0000000000e+00 
          -7.2075356379e-03 -1.9180595866e-04 0.0000000000e+00 
          -8.6649658057e-03 -1.9283338063e-04 0.0000000000e+00 
          -1.0104694271e-02 -1.9382962074e-04 0.0000000000e+00 
          -1.1524477587e-02 -1.9479375428e-04 0.0000000000e+00 
          -1.2922101776e-02 -1.9572622854e-04 0.0000000000e+00 
          -1.4295382019e-02 -1.9662737794e-04 0.0000000000e+00 
          -1.5642173183e-02 -1.9749604715e-04 0.0000000000e+00 
          -1.6960362357e-02 -1.9833340399e-04 0.0000000000e+00 
          -1.8247879470e-02 -1.9913931411e-04 0.0000000000e+00 
          -1.9502698716e-02 -1.9991253891e-04 0.0000000000e+00 
          -2.0722840158e-02 -2.0065430596e-04 0.0000000000e+00 
          -2.1906379479e-02 -2.0136466277e-04 0.0000000000e+00 
          -2.3051441630e-02 -2.0204369994e-04 0.0000000000e+00 
          -2.4156210263e-02 -2.0269097740e-04 0.0000000000e+00 
          -2.5218928086e-02 -2.0330631656e-04 0.0000000000e+00 
          -2.6237905021e-02 -2.0389082606e-04 0.0000000000e+00 
          -2.7211513200e-02 -2.0444339539e-04 0.0000000000e+00 
          -2.8138195466e-02 -2.0496442858e-04 0.0000000000e+00 
          -2.9016465491e-02 -2.0545469163e-04 0.0000000000e+00 
          -2.9844915417e-02 -2.0591272003e-04 0.0000000000e+00 
          -3.0622211065e-02 -2.0633925868e-04 0.0000000000e+00 
          -3.1347099591e-02 -2.0673442670e-04 0.0000000000e+00 
          -3.2018410738e-02 -2.0709777599e-04 0.0000000000e+00 
          -3.2635057794e-02 -2.0742975270e-04 0.0000000000e+00 
          -3.3196043504e-02 -2.0772978187e-04 0.0000000000e+00 
          -3.3700456978e-02 -2.0799857103e-04 0.0000000000e+00 
          -3.4147478824e-02 -2.0823538925e-04 0.0000000000e+00 
          -3.4536381649e-02 -2.0844046644e-04 0.0000000000e+00 
          -3.4866533178e-02 -2.0861432802e-04 0.0000000000e+00 
          -3.5137394835e-02 -2.0875653822e-04 0.0000000000e+00 
          -3.5348524897e-02 -2.0886674148e-04 0.0000000000e+00 
          -3.5499578675e-02 -2.0894538707e-04 0.0000000000e+00 
          -3.5590309960e-02 -2.0899252758e-04 0.0000000000e+00 
        </DataArray>
        <DataArray type="Float64" Name="Acceleration" NumberOfComponents="3" format="ascii">
          1.3786033494e-01 -1.1199427505e-05 0.0000000000e+00 
          1.3786033494e-01 -1.1199427505e-05 0.0000000000e+00 
          5.4530189254e+00 6.0367125062e-06 0.0000000000e+00 
          5.4530189254e+00 6.0367125062e-06 0.0000000000e+00 
          3.4850491051e-01 -1.0155395266e-04 0.0000000000e+00 
          5.5885370443e-01 1.5290010406e-04 0.0000000000e+00 
          7.6859596890e-01 5.6994334367e-05 0.0000000000e+00 
          9.7740689774e-01 7.3822716851e-05 0.0000000000e+00 
          1.1849674146e+00 1.5330936183e-05 0.0000000000e+00 
          1.3909807718e+00 7.1107077129e-05 0.0000000000e+00 
          1.5951300871e+00 3.1874465323e-05 0.0000000000e+00 
          1.7970973668e+00 1.9826648962e-04 0.0000000000e+00 
          1.9965810392e+00 1.1766355748e-04 0.0000000000e+00 
          2.1932782729e+00 5.7190159739e-05 0.0000000000e+00 
          2.3868806588e+00 2.6581082217e-04 0.0000000000e+00 
          2.5770958586e+00 5.5146619041e-05 0.0000000000e+00 
          2.7636132387e+00 7.9359666856e-05 0.0000000000e+00 
          2.9461423242e+00 3.0256033212e-04 0.0000000000e+00 
          3.1243977913e+00 8.1175490037e-05 0.0000000000e+00 
          3.2980685059e+00 7.2961490633e-05 0.0000000000e+00 
          3.4668689493e+00 5.6459140961e-05 0.0000000000e+00 
          3.6305255347e+00 1.3576181332e-04 0.0000000000e+00 
          3.7887389642e+00 1.6780122739e-04 0.0000000000e+00 
          3.9412675242e+00 -3.1687925480e-05 0.0000000000e+00 
          4.0878144341e+00 1.6827894576e-04 0.0000000000e+00 
          4.2281174348e+00 9.5471163272e-05 0.0000000000e+00 
          4.3619385518e+00 -4.2672441149e-05 0.0000000000e+00 
          4.4889950882e+00 2.2146525603e-04 0.0000000000e+00 
          4.6091013978e+00 8.7111586551e-05 0.0000000000e+00 
          4.7219852153e+00 6.5647357601e-05 0.0000000000e+00 
          4.8274277208e+00 1.4639731601e-04 0.0000000000e+00 
          4.9252734069e+00 6.5923567504e-05 0.0000000000e+00 
          5.0152728066e+00 1.6968960832e-04 0.0000000000e+00 
          5.0972700700e+00 4.2109549075e-05 0.0000000000e+00 
          5.1710990715e+00 1.7382489944e-04 0.0000000000e+00 
          5.2365964932e+00 1.3235123969e-04 0.0000000000e+00 
          5.2936566744e+00 3.7763807965e-05 0.0000000000e+00 
          5.3421346398e+00 1.1623768632e-04 0.0000000000e+00 
          5.3819346078e+00 1.8031312116e-04 0.0000000000e+00 
          5.4129777224e+00 9.9337485518e-05 0.0000000000e+00 
          5.4351968950e+00 8.9897473937e-05 0.0000000000e+00 
          5.4485585307e+00 1.1069157511e-04 0.0000000000e+00 
          3.4850491051e-01 -1.0155395266e-04 0.0000000000e+00 
          5.5885370443e-01 1.5290010406e-04 0.0000000000e+00 
          7.6859596890e-01 5.6994334367e-05 0.0000000000e+00 
          9.7740689774e-01 7.3822716851e-05 0.0000000000e+00 
          1.1849674146e+00 1.5330936183e-05 0.0000000000e+00 
          1.3909807718e+00 7.1107077129e-05 0.0000000000e+00 
          1.5951300871e+00 3.1874465323e-05 0.0000000000e+00 
          1.7970973668e+00 1.9826648962e-04 0.0000000000e+00 
          1.9965810392e+00 1.1766355748e-04 0.0000000000e+00 
          2.1932782729e+00 5.7190159739e-05 0.0000000000e+00 
          2.3868806588e+00 2.6581082217e-04 0.0000000000e+00 
          2.5770958586e+00 5.5146619041e-05 0.0000000000e+00 
          2.7636132387e+00 7.9359666856e-05 0.0000000000e+00 
          2.9461423242e+00 3.0256033212e-04 0.0000000000e+00 
          3.1243977913e+00 8.1175490037e-05 0.0000000000e+00 
          3.2980685059e+00 7.2961490633e-05 0.0000000000e+00 
          3.4668689493e+00 5.6459140961e-05 0.0000000000e+00 
          3.6305255347e+00 1.3576181332e-04 0.0000000000e+00 
          3.7887389642e+00 1.6780122739e-04 0.0000000000e+00 
          3.9412675242e+00 -3.1687925480e-05 0.0000000000e+00 
          4.0878144341e+00 1.6827894576e-04 0.0000000000e+00 
          4.2281174348e+00 9.5471163272e-05 0.0000000000e+00 
          4.3619385518e+00 -4.2672441149e-05 0.0000000000e+00 
          4.4889950882e+00 2.2146525603e-04 0.0000000000e+00 
          4.6091013978e+00 8.7111586551e-05 0.0000000000e+00 
          4.7219852153e+00 6.5647357601e-05 0.0000000000e+00 
          4.8274277208e+00 1.4639731601e-04 0.0000000000e+00 
          4.9252734069e+00 6.5923567504e-05 0.0000000000e+00 
          5.0152728066e+00 1.6968960832e-04 0.0000000000e+00 
          5.0972700700e+00 4.2109549075e-05 0.0000000000e+00 
          5.1710990715e+00 1.7382489944e-04 0.0000000000e+00 
          5.2365964932e+00 1.3235123969e-04 0.0000000000e+00 
          5.2936566744e+00 3.7763807965e-05 0.0000000000e+00 
          5.3421346398e+00 1.1623768632e-04 0.0000000000e+00 
          5.3819346078e+00 1.8031312116e-04 0.0000000000e+00 
          5.4129777224e+00 9.9337485518e-05 0.0000000000e+00 
          5.4351968950e+00 8.9897473937e-05 0.0000000000e+00 
          5.4485585307e+00 1.1069157511e-04 0.0000000000e+00 
        </DataArray>
        <DataArray type="Float64" Name="Reaction" NumberOfComponents="3" format="ascii">
          0.0000000000e+00 0.0000000000e+00 0.0000000000e+00 
          0.0000000000e+00 0.0000000000e+00 0.0000000000e+00 
          0.0000000000e+00 0.0000000000e+00 0.0000000000e+00 
          0.0000000000e+00 0.0000000000e+00 0.0000000000e+00 
          0.0000000000e+00 0.0000000000e+00 0.0000000000e+00 
          0.0000000000e+00 0.0000000000e+00 0.0000000000e+00 
          0.0000000000e+00 0.0000000000e+00 0.0000000000e+00 
          0.0000000000e+00 0.0000000000e+00 0.0000000000e+00 
          0.0000000000e+00 0.0000000000e+00 0.0000000000e+00 
          0.0000000000e+00 0.0000000000e+00 0.0000000000e+00 
          0.0000000000e+00 0.0000000000e+00 0.0000000000e+00 
          0.0000000000e+00 0.0000000000e+00 0.0000000000e+00 
          0.0000000000e+00 0.0000000000e+00 0.0000000000e+00 
          0.0000000000e+00 0.0000000000e+00 0.0000000000e+00 
          0.0000000000e+00 0.0000000000e+00 0.0000000000e+00 
          0.0000000000e+00 0.0000000000e+00 0.0000000000e+00 
          0.0000000000e+00 0.0000000000e+00 0.0000000000e+00 
          0.0000000000e+00 0.0000000000e+00 0.0000000000e+00 
          0.0000000000e+00 0.0000000000e+00 0.0000000000e+00 
          0.0000000000e+00 0.0000000000e+00 0.0000000000e+00 
          0.0000000000e+00 0.0000000000e+00 0.0000000000e+00 
          0.0000000000e+00 0.0000000000e+00 0.0000000000e+00 
          0.0000000000e+00 0.0000000000e+00 0.0000000000e+00 
          0.0000000000e+00 0.0000000000e+00 0.0000000000e+00 
          0.0000000000e+00 0.0000000000e+00 0.0000000000e+00 
          0.0000000000e+00 0.0000000000e+00 0.0000000000e+00 
          0.0000000000e+00 0.0000000000e+00 0.0000000000e+00 
          0.0000000000e+00 0.0000000000e+00 0.0000000000e+00 
          0.0000000000e+00 0.0000000000e+00 0.0000000000e+00 
          0.0000000000e+00 0.0000000000e+00 0.0000000000e+00 
          0.0000000000e+00 0.0000000000e+00 0.0000000000e+00 
          0.0000000000e+00 0.0000000000e+00 0.0000000000e+00 
          0.0000000000e+00 0.0000000000e+00 0.0000000000e+00 
          0.0000000000e+00 0.0000000000e+00 0.0000000000e+00 
          0.0000000000e+00 0.0000000000e+00 0.0000000000e+00 
          0.0000000000e+00 0.0000000000e+00 0.0000000000e+00 
          0.0000000000e+00 0.0000000000e+00 0.0000000000e+00 
          0.0000000000e+00 0.0000000000e+00 0.0000000000e+00 
          0.0000000000e+00 0.0000000000e+00 0.0000000000e+00 
          0.0000000000e+00 0.0000000000e+00 0.0000000000e+00 
          0.0000000000e+00 0.0000000000e+00 0.0000000000e+00 
          0.0000000000e+00 0.0000000000e+00 0.0000000000e+00 
          0.0000000000e+00 0.0000000000e+00 0.0000000000e+00 
          0.0000000000e+00 0.0000000000e+00 0.0000000000e+00 
          0.0000000000e+00 0.0000000000e+00 0.0000000000e+00 
          0.0000000000e+00 0.0000000000e+00 0.0000000000e+00 
          0.0000000000e+00 0.0000000000e+00 0.0000000000e+00 
          0.0000000000e+00 0.0000000000e+00 0.0000000000e+00 
          0.0000000000e+00 0.0000000000e+00 0.0000000000e+00 
          0.0000000000e+00 0.0000000000e+00 0.0000000000e+00 
          0.0000000000e+00 0.0000000000e+00 0.0000000000e+00 
          0.0000000000e+00 0.0000000000e+00 0.0000000000e+00 
          0.0000000000e+00 0.0000000000e+00 0.0000000000e+00 
          0.0000000000e+00 0.0000000000e+00 0.0000000000e+00 
          0.0000000000e+00 0.0000000000e+00 0.0000000000e+00 
          0.0000000000e+00 0.0000000000e+00 0.0000000000e+00 
          0.0000000000e+00 0.0000000000e+00 0.0000000000e+00 
          0.0000000000e+00 0.0000000000e+00 0.0000000000e+00 
          0.0000000000e+00 0.0000000000e+00 0.0000000000e+00 
          0.0000000000e+00 0.0000000000e+00 0.0000000000e+00 
          0.0000000000e+00 0.0000000000e+00 0.0000000000e+00 
          0.0000000000e+00 0.0000000000e+00 0.0000000000e+00 
          0.0000000000e+00 0.0000000000e+00 0.0000000000e+00 
          0.0000000000e+00 0.0000000000e+00 0.0000000000e+00 
          0.0000000000e+00 0.0000000000e+00 0.0000000000e+00 
          0.0000000000e+00 0.0000000000e+00 0.0000000000e+00 
          0.0000000000e+00 0.0000000000e+00 0.0000000000e+00 
          0.0000000000e+00 0.0000000000e+00 0.0000000000e+00 
          0.0000000000e+00 0.0000000000e+00 0.0000000000e+00 
          0.0000000000e+00 0.0000000000e+00 0.0000000000e+00 
          0.0000000000e+00 0.0000000000e+00 0.0000000000e+00 
          0.0000000000e+00 0.0000000000e+00 0.0000000000e+00 
          0.0000000000e+00 0.0000000000e+00 0.0000000000e+00 
          0.0000000000e+00 0.0000000000e+00 0.0000000000e+00 
          0.0000000000e+00 0.0000000000e+00 0.0000000000e+00 
          0.0000000000e+00 0.0000000000e+00 0.0000000000e+00 
          0.0000000000e+00 0.0000000000e+00 0.0000000000e+00 
          0.0000000000e+00 0.0000000000e+00 0.0000000000e+00 
          0.0000000000e+00 0.0000000000e+00 0.0000000000e+00 
          0.0000000000e+00 0.0000000000e+00 0.0000000000e+00 
        </DataArray>
      </PointData>
      <CellData>
        <DataArray type="Int64" Name="ElementTag" format="ascii">
          90
          91
          92
          93
          94
          95
          96
          97
          98
          99
          100
          101
          102
          103
          104
          105
          106
          107
          108
          109
          110
          111
          112
          113
          114
          115
          116
          117
          118
          119
          120
          121
          122
          123
          124
          125
          126
          127
          128
        </DataArray>
      </CellData>
    </Piece>
  </UnstructuredGrid>
</VTKFile>
