<?xml version="1.0"?>
<VTKFile type="UnstructuredGrid" version="1.0" byte_order="LittleEndian" compressor="vtkZLibDataCompressor">
  <UnstructuredGrid>
    <Piece NumberOfPoints="82" NumberOfCells="1">
      <Points>
        <DataArray type="Float64" Name="Points" NumberOfComponents="3" format="ascii">
          0.0000000000e+00 0.0000000000e+00 0.0000000000e+00 
          2.5000000000e-01 0.0000000000e+00 0.0000000000e+00 
          2.5000000000e-01 3.0000000000e+01 0.0000000000e+00 
          0.0000000000e+00 3.0000000000e+01 0.0000000000e+00 
          0.0000000000e+00 -5.0000000000e+00 0.0000000000e+00 
          2.5000000000e-01 -5.0000000000e+00 0.0000000000e+00 
          2.5000000000e-01 7.6923100000e-01 0.0000000000e+00 
          2.5000000000e-01 1.5384620000e+00 0.0000000000e+00 
          2.5000000000e-01 2.3076920000e+00 0.0000000000e+00 
          2.5000000000e-01 3.0769230000e+00 0.0000000000e+00 
          2.5000000000e-01 3.8461540000e+00 0.0000000000e+00 
          2.5000000000e-01 4.6153850000e+00 0.0000000000e+00 
          2.5000000000e-01 5.3846150000e+00 0.0000000000e+00 
          2.5000000000e-01 6.1538460000e+00 0.0000000000e+00 
          2.5000000000e-01 6.9230770000e+00 0.0000000000e+00 
          2.5000000000e-01 7.6923080000e+00 0.0000000000e+00 
          2.5000000000e-01 8.4615380000e+00 0.0000000000e+00 
          2.5000000000e-01 9.2307690000e+00 0.0000000000e+00 
          2.5000000000e-01 1.0000000000e+01 0.0000000000e+00 
          2.5000000000e-01 1.0769231000e+01 0.0000000000e+00 
          2.5000000000e-01 1.1538462000e+01 0.0000000000e+00 
          2.5000000000e-01 1.2307692000e+01 0.0000000000e+00 
          2.5000000000e-01 1.3076923000e+01 0.0000000000e+00 
          2.5000000000e-01 1.3846154000e+01 0.0000000000e+00 
          2.5000000000e-01 1.4615385000e+01 0.0000000000e+00 
          2.5000000000e-01 1.5384615000e+01 0.0000000000e+00 
          2.5000000000e-01 1.6153846000e+01 0.0000000000e+00 
          2.5000000000e-01 1.6923077000e+01 0.0000000000e+00 
          2.5000000000e-01 1.7692308000e+01 0.0000000000e+00 
          2.5000000000e-01 1.8461538000e+01 0.0000000000e+00 
          2.5000000000e-01 1.9230769000e+01 0.0000000000e+00 
          2.5000000000e-01 2.0000000000e+01 0.0000000000e+00 
          2.5000000000e-01 2.0769231000e+01 0.0000000000e+00 
          2.5000000000e-01 2.1538462000e+01 0.0000000000e+00 
          2.5000000000e-01 2.2307692000e+01 0.0000000000e+00 
          2.5000000000e-01 2.3076923000e+01 0.0000000000e+00 
          2.5000000000e-01 2.3846154000e+01 0.0000000000e+00 
          2.5000000000e-01 2.4615385000e+01 0.0000000000e+00 
          2.5000000000e-01 2.5384615000e+01 0.0000000000e+00 
          2.5000000000e-01 2.6153846000e+01 0.0000000000e+00 
          2.5000000000e-01 2.6923077000e+01 0.0000000000e+00 
          2.5000000000e-01 2.7692308000e+01 0.0000000000e+00 
          2.5000000000e-01 2.8461538000e+01 0.0000000000e+00 
          2.5000000000e-01 2.9230769000e+01 0.0000000000e+00 
          0.0000000000e+00 7.6923100000e-01 0.0000000000e+00 
          0.0000000000e+00 1.5384620000e+00 0.0000000000e+00 
          0.0000000000e+00 2.3076920000e+00 0.0000000000e+00 
          0.0000000000e+00 3.0769230000e+00 0.0000000000e+00 
          0.0000000000e+00 3.8461540000e+00 0.0000000000e+00 
          0.0000000000e+00 4.6153850000e+00 0.0000000000e+00 
          0.0000000000e+00 5.3846150000e+00 0.0000000000e+00 
          0.0000000000e+00 6.1538460000e+00 0.0000000000e+00 
          0.0000000000e+00 6.9230770000e+00 0.0000000000e+00 
          0.0000000000e+00 7.6923080000e+00 0.0000000000e+00 
          0.0000000000e+00 8.4615380000e+00 0.0000000000e+00 
          0.0000000000e+00 9.2307690000e+00 0.0000000000e+00 
          0.0000000000e+00 1.0000000000e+01 0.0000000000e+00 
          0.0000000000e+00 1.0769231000e+01 0.0000000000e+00 
          0.0000000000e+00 1.1538462000e+01 0.0000000000e+00 
          0.0000000000e+00 1.2307692000e+01 0.0000000000e+00 
          0.0000000000e+00 1.3076923000e+01 0.0000000000e+00 
          0.0000000000e+00 1.3846154000e+01 0.0000000000e+00 
          0.0000000000e+00 1.4615385000e+01 0.0000000000e+00 
          0.0000000000e+00 1.5384615000e+01 0.0000000000e+00 
          0.0000000000e+00 1.6153846000e+01 0.0000000000e+00 
          0.0000000000e+00 1.6923077000e+01 0.0000000000e+00 
          0.0000000000e+00 1.7692308000e+01 0.0000000000e+00 
          0.0000000000e+00 1.8461538000e+01 0.0000000000e+00 
          0.0000000000e+00 1.9230769000e+01 0.0000000000e+00 
          0.0000000000e+00 2.0000000000e+01 0.0000000000e+00 
          0.0000000000e+00 2.0769231000e+01 0.0000000000e+00 
          0.0000000000e+00 2.1538462000e+01 0.0000000000e+00 
          0.0000000000e+00 2.2307692000e+01 0.0000000000e+00 
          0.0000000000e+00 2.3076923000e+01 0.0000000000e+00 
          0.0000000000e+00 2.3846154000e+01 0.0000000000e+00 
          0.0000000000e+00 2.4615385000e+01 0.0000000000e+00 
          0.0000000000e+00 2.5384615000e+01 0.0000000000e+00 
          0.0000000000e+00 2.6153846000e+01 0.0000000000e+00 
          0.0000000000e+00 2.6923077000e+01 0.0000000000e+00 
          0.0000000000e+00 2.7692308000e+01 0.0000000000e+00 
          0.0000000000e+00 2.8461538000e+01 0.0000000000e+00 
          0.0000000000e+00 2.9230769000e+01 0.0000000000e+00 
        </DataArray>
      </Points>
      <Cells>
        <DataArray type="Int64" Name="connectivity" format="ascii">
          0
          1
          2
          3
          4
          5
          6
          7
          8
          9
          10
          11
          12
          13
          14
          15
          16
          17
          18
          19
          20
          21
          22
          23
          24
          25
          26
          27
          28
          29
          30
          31
          32
          33
          34
          35
          36
          37
          38
          39
          40
          41
          42
          43
          44
          45
          46
          47
          48
          49
          50
          51
          52
          53
          54
          55
          56
          57
          58
          59
          60
          61
          62
          63
          64
          65
          66
          67
          68
          69
          70
          71
          72
          73
          74
          75
          76
          77
          78
          79
          80
          81
        </DataArray>
        <DataArray type="Int64" Name="offsets" format="ascii">
          82
        </DataArray>
        <DataArray type="Int64" Name="types" format="ascii">
          2
        </DataArray>
      </Cells>
      <PointData>
        <DataArray type="Int64" Name="NodeTag" format="ascii">
          1
          2
          3
          4
          5
          6
          7
          8
          9
          10
          11
          12
          13
          14
          15
          16
          17
          18
          19
          20
          21
          22
          23
          24
          25
          26
          27
          28
          29
          30
          31
          32
          33
          34
          35
          36
          37
          38
          39
          40
          41
          42
          43
          44
          45
          46
          47
          48
          49
          50
          51
          52
          53
          54
          55
          56
          57
          58
          59
          60
          61
          62
          63
          64
          65
          66
          67
          68
          69
          70
          71
          72
          73
          74
          75
          76
          77
          78
          79
          80
          81
          82
        </DataArray>
        <DataArray type="Float64" Name="Velocity" NumberOfComponents="3" format="ascii">
          2.2909236902e-03 -7.7847809567e-05 0.0000000000e+00 
          2.2909236902e-03 -7.7847809567e-05 0.0000000000e+00 
          3.7838880348e-03 -7.7661525458e-05 0.0000000000e+00 
          3.7838880348e-03 -7.7661525458e-05 0.0000000000e+00 
          0.0000000000e+00 0.0000000000e+00 0.0000000000e+00 
          0.0000000000e+00 0.0000000000e+00 0.0000000000e+00 
          2.3814402240e-03 -7.7861265819e-05 0.0000000000e+00 
          2.4680834384e-03 -7.7801125153e-05 0.0000000000e+00 
          2.5509582008e-03 -7.7841905321e-05 0.0000000000e+00 
          2.6301500272e-03 -7.7819283480e-05 0.0000000000e+00 
          2.7057716885e-03 -7.7830117787e-05 0.0000000000e+00 
          2.7779385756e-03 -7.7810046769e-05 0.0000000000e+00 
          2.8467268187e-03 -7.7773421435e-05 0.0000000000e+00 
          2.9122782264e-03 -7.7826427417e-05 0.0000000000e+00 
          2.9746802604e-03 -7.7766289671e-05 0.0000000000e+00 
          3.0340344798e-03 -7.7790680489e-05 0.0000000000e+00 
          3.0904750529e-03 -7.7817957063e-05 0.0000000000e+00 
          3.1440682526e-03 -7.7681736671e-05 0.0000000000e+00 
          3.1949339272e-03 -7.7844177913e-05 0.0000000000e+00 
          3.2431786196e-03 -7.7766479166e-05 0.0000000000e+00 
          3.2888614857e-03 -7.7724734935e-05 0.0000000000e+00 
          3.3321048065e-03 -7.7772877813e-05 0.0000000000e+00 
          3.3729794732e-03 -7.7708783941e-05 0.0000000000e+00 
          3.4115588746e-03 -7.7805042920e-05 0.0000000000e+00 
          3.4479309013e-03 -7.7664682311e-05 0.0000000000e+00 
          3.4821536736e-03 -7.7761340949e-05 0.0000000000e+00 
          3.5143003044e-03 -7.7765645172e-05 0.0000000000e+00 
          3.5444237083e-03 -7.7652737860e-05 0.0000000000e+00 
          3.5725857807e-03 -7.7771591535e-05 0.0000000000e+00 
          3.5988242658e-03 -7.7720868301e-05 0.0000000000e+00 
          3.6232026297e-03 -7.7664905532e-05 0.0000000000e+00 
          3.6457439571e-03 -7.7756617498e-05 0.0000000000e+00 
          3.6664871695e-03 -7.7677353385e-05 0.0000000000e+00 
          3.6854832210e-03 -7.7687264794e-05 0.0000000000e+00 
          3.7027303252e-03 -7.7714255320e-05 0.0000000000e+00 
          3.7182799849e-03 -7.7713074006e-05 0.0000000000e+00 
          3.7321332209e-03 -7.7632149254e-05 0.0000000000e+00 
          3.7443168880e-03 -7.7765296805e-05 0.0000000000e+00 
          3.7548624152e-03 -7.7609831720e-05 0.0000000000e+00 
          3.7637453997e-03 -7.7679653027e-05 0.0000000000e+00 
          3.7710132192e-03 -7.7728422790e-05 0.0000000000e+00 
          3.7766529900e-03 -7.7591213697e-05 0.0000000000e+00 
          3.7806730062e-03 -7.7733651535e-05 0.0000000000e+00 
          3.7830928024e-03 -7.7645062019e-05 0.0000000000e+00 
          2.3814402240e-03 -7.7861265819e-05 0.0000000000e+00 
          2.4680834384e-03 -7.7801125153e-05 0.0000000000e+00 
          2.5509582008e-03 -7.7841905321e-05 0.0000000000e+00 
          2.6301500272e-03 -7.7819283480e-05 0.0000000000e+00 
          2.7057716885e-03 -7.7830117787e-05 0.0000000000e+00 
          2.7779385756e-03 -7.7810046769e-05 0.0000000000e+00 
          2.8467268187e-03 -7.7773421435e-05 0.0000000000e+00 
          2.9122782264e-03 -7.7826427417e-05 0.0000000000e+00 
          2.9746802604e-03 -7.7766289671e-05 0.0000000000e+00 
          3.0340344798e-03 -7.7790680489e-05 0.0000000000e+00 
          3.0904750529e-03 -7.7817957063e-05 0.0000000000e+00 
          3.1440682526e-03 -7.7681736671e-05 0.0000000000e+00 
          3.1949339272e-03 -7.7844177913e-05 0.0000000000e+00 
          3.2431786196e-03 -7.7766479166e-05 0.0000000000e+00 
          3.2888614857e-03 -7.7724734935e-05 0.0000000000e+00 
          3.3321048065e-03 -7.7772877813e-05 0.0000000000e+00 
          3.3729794732e-03 -7.7708783941e-05 0.0000000000e+00 
          3.4115588746e-03 -7.7805042920e-05 0.0000000000e+00 
          3.4479309013e-03 -7.7664682311e-05 0.0000000000e+00 
          3.4821536736e-03 -7.7761340949e-05 0.0000000000e+00 
          3.5143003044e-03 -7.7765645172e-05 0.0000000000e+00 
          3.5444237083e-03 -7.7652737860e-05 0.0000000000e+00 
          3.5725857807e-03 -7.7771591535e-05 0.0000000000e+00 
          3.5988242658e-03 -7.7720868301e-05 0.0000000000e+00 
          3.6232026297e-03 -7.7664905532e-05 0.0000000000e+00 
          3.6457439571e-03 -7.7756617498e-05 0.0000000000e+00 
          3.6664871695e-03 -7.7677353385e-05 0.0000000000e+00 
          3.6854832210e-03 -7.7687264794e-05 0.0000000000e+00 
          3.7027303252e-03 -7.7714255320e-05 0.0000000000e+00 
          3.7182799849e-03 -7.7713074006e-05 0.0000000000e+00 
          3.7321332209e-03 -7.7632149254e-05 0.0000000000e+00 
          3.7443168880e-03 -7.7765296805e-05 0.0000000000e+00 
          3.7548624152e-03 -7.7609831720e-05 0.0000000000e+00 
          3.7637453997e-03 -7.7679653027e-05 0.0000000000e+00 
          3.7710132192e-03 -7.7728422790e-05 0.0000000000e+00 
          3.7766529900e-03 -7.7591213697e-05 0.0000000000e+00 
          3.7806730062e-03 -7.7733651535e-05 0.0000000000e+00 
          3.7830928024e-03 -7.7645062019e-05 0.0000000000e+00 
        </DataArray>
        <DataArray type="Float64" Name="Displacement" NumberOfComponents="3" format="ascii">
          -8.6684879481e-05 -3.6560326560e-04 0.0000000000e+00 
          -8.6684879481e-05 -3.6560326560e-04 0.0000000000e+00 
          8.7121203515e-04 -3.8918043345e-04 0.0000000000e+00 
          8.7121203515e-04 -3.8918043345e-04 0.0000000000e+00 
          0.0000000000e+00 0.0000000000e+00 0.0000000000e+00 
          0.0000000000e+00 0.0000000000e+00 0.0000000000e+00 
          -4.8609304166e-05 -3.6679706546e-04 0.0000000000e+00 
          -1.0537653945e-05 -3.6795951529e-04 0.0000000000e+00 
          2.7464415289e-05 -3.6909136592e-04 0.0000000000e+00 
          6.5331754536e-05 -3.7019197469e-04 0.0000000000e+00 
          1.0299928539e-04 -3.7126161092e-04 0.0000000000e+00 
          1.4040252784e-04 -3.7230027491e-04 0.0000000000e+00 
          1.7747750141e-04 -3.7330781001e-04 0.0000000000e+00 
          2.1416097595e-04 -3.7428456931e-04 0.0000000000e+00 
          2.5039043111e-04 -3.7523001208e-04 0.0000000000e+00 
          2.8610409233e-04 -3.7614473297e-04 0.0000000000e+00 
          3.2124119864e-04 -3.7702835297e-04 0.0000000000e+00 
          3.5574213679e-04 -3.7788079126e-04 0.0000000000e+00 
          3.8954823013e-04 -3.7870250940e-04 0.0000000000e+00 
          4.2260212722e-04 -3.7949304760e-04 0.0000000000e+00 
          4.5484774523e-04 -3.8025256086e-04 0.0000000000e+00 
          4.8623033014e-04 -3.8098122631e-04 0.0000000000e+00 
          5.1669679595e-04 -3.8167874320e-04 0.0000000000e+00 
          5.4619545997e-04 -3.8234531383e-04 0.0000000000e+00 
          5.7467629382e-04 -3.8298083759e-04 0.0000000000e+00 
          6.0209102012e-04 -3.8358540220e-04 0.0000000000e+00 
          6.2839324130e-04 -3.8415883992e-04 0.0000000000e+00 
          6.5353834026e-04 -3.8470148151e-04 0.0000000000e+00 
          6.7748367804e-04 -3.8521284251e-04 0.0000000000e+00 
          7.0018862126e-04 -3.8569343034e-04 0.0000000000e+00 
          7.2161472115e-04 -3.8614290528e-04 0.0000000000e+00 
          7.4172560732e-04 -3.8656125952e-04 0.0000000000e+00 
          7.6048714346e-04 -3.8694887429e-04 0.0000000000e+00 
          7.7786747871e-04 -3.8730524916e-04 0.0000000000e+00 
          7.9383707732e-04 -3.8763079236e-04 0.0000000000e+00 
          8.0836884358e-04 -3.8792511995e-04 0.0000000000e+00 
          8.2143810929e-04 -3.8818872069e-04 0.0000000000e+00 
          8.3302260329e-04 -3.8842120648e-04 0.0000000000e+00 
          8.4310263887e-04 -3.8862259644e-04 0.0000000000e+00 
          8.5166112185e-04 -3.8879305462e-04 0.0000000000e+00 
          8.5868344286e-04 -3.8893258702e-04 0.0000000000e+00 
          8.6415770969e-04 -3.8904103275e-04 0.0000000000e+00 
          8.6807453949e-04 -3.8911846970e-04 0.0000000000e+00 
          8.7042731155e-04 -3.8916503595e-04 0.0000000000e+00 
          -4.8609304166e-05 -3.6679706546e-04 0.0000000000e+00 
          -1.0537653945e-05 -3.6795951529e-04 0.0000000000e+00 
          2.7464415289e-05 -3.6909136592e-04 0.0000000000e+00 
          6.5331754536e-05 -3.7019197469e-04 0.0000000000e+00 
          1.0299928539e-04 -3.7126161092e-04 0.0000000000e+00 
          1.4040252784e-04 -3.7230027491e-04 0.0000000000e+00 
          1.7747750141e-04 -3.7330781001e-04 0.0000000000e+00 
          2.1416097595e-04 -3.7428456931e-04 0.0000000000e+00 
          2.5039043111e-04 -3.7523001208e-04 0.0000000000e+00 
          2.8610409233e-04 -3.7614473297e-04 0.0000000000e+00 
          3.2124119864e-04 -3.7702835297e-04 0.0000000000e+00 
          3.5574213679e-04 -3.7788079126e-04 0.0000000000e+00 
          3.8954823013e-04 -3.7870250940e-04 0.0000000000e+00 
          4.2260212722e-04 -3.7949304760e-04 0.0000000000e+00 
          4.5484774523e-04 -3.8025256086e-04 0.0000000000e+00 
          4.8623033014e-04 -3.8098122631e-04 0.0000000000e+00 
          5.1669679595e-04 -3.8167874320e-04 0.0000000000e+00 
          5.4619545997e-04 -3.8234531383e-04 0.0000000000e+00 
          5.7467629382e-04 -3.8298083759e-04 0.0000000000e+00 
          6.0209102012e-04 -3.8358540220e-04 0.0000000000e+00 
          6.2839324130e-04 -3.8415883992e-04 0.0000000000e+00 
          6.5353834026e-04 -3.8470148151e-04 0.0000000000e+00 
          6.7748367804e-04 -3.8521284251e-04 0.0000000000e+00 
          7.0018862126e-04 -3.8569343034e-04 0.0000000000e+00 
          7.2161472115e-04 -3.8614290528e-04 0.0000000000e+00 
          7.4172560732e-04 -3.8656125952e-04 0.0000000000e+00 
          7.6048714346e-04 -3.8694887429e-04 0.0000000000e+00 
          7.7786747871e-04 -3.8730524916e-04 0.0000000000e+00 
          7.9383707732e-04 -3.8763079236e-04 0.0000000000e+00 
          8.0836884358e-04 -3.8792511995e-04 0.0000000000e+00 
          8.2143810929e-04 -3.8818872069e-04 0.0000000000e+00 
          8.3302260329e-04 -3.8842120648e-04 0.0000000000e+00 
          8.4310263887e-04 -3.8862259644e-04 0.0000000000e+00 
          8.5166112185e-04 -3.8879305462e-04 0.0000000000e+00 
          8.5868344286e-04 -3.8893258702e-04 0.0000000000e+00 
          8.6415770969e-04 -3.8904103275e-04 0.0000000000e+00 
          8.6807453949e-04 -3.8911846970e-04 0.0000000000e+00 
          8.7042731155e-04 -3.8916503595e-04 0.0000000000e+00 
        </DataArray>
        <DataArray type="Float64" Name="Acceleration" NumberOfComponents="3" format="ascii">
          5.5698493163e-03 -1.5642152104e-06 0.0000000000e+00 
          5.5698493163e-03 -1.5642152104e-06 0.0000000000e+00 
          -1.4141029252e-01 -3.8083480640e-05 0.0000000000e+00 
          -1.4141029252e-01 -3.8083480640e-05 0.0000000000e+00 
          0.0000000000e+00 0.0000000000e+00 0.0000000000e+00 
          0.0000000000e+00 0.0000000000e+00 0.0000000000e+00 
          -3.5365871287e-04 6.1936049333e-05 0.0000000000e+00 
          -6.2649371155e-03 -7.3627920020e-05 0.0000000000e+00 
          -1.2143897047e-02 4.2709441019e-05 0.0000000000e+00 
          -1.8003130786e-02 -6.0900801838e-06 0.0000000000e+00 
          -2.3812907064e-02 -6.1447086375e-06 0.0000000000e+00 
          -2.9573351476e-02 2.1853573933e-05 0.0000000000e+00 
          -3.5279200360e-02 -4.1305975247e-05 0.0000000000e+00 
          -4.0908043091e-02 5.5898794995e-05 0.0000000000e+00 
          -4.6474053332e-02 -5.1259220400e-05 0.0000000000e+00 
          -5.1944653169e-02 1.6834150104e-05 0.0000000000e+00 
          -5.7324161301e-02 3.1812764548e-05 0.0000000000e+00 
          -6.2606888755e-02 -5.1570216734e-05 0.0000000000e+00 
          -6.7774368431e-02 3.1282703558e-05 0.0000000000e+00 
          -7.2827540507e-02 3.3542470181e-06 0.0000000000e+00 
          -7.7757361593e-02 -2.8736582579e-05 0.0000000000e+00 
          -8.2547870366e-02 2.5805681493e-05 0.0000000000e+00 
          -8.7200851862e-02 -1.0827789662e-05 0.0000000000e+00 
          -9.1708508171e-02 7.3044402636e-06 0.0000000000e+00 
          -9.6055247000e-02 -8.6415377699e-06 0.0000000000e+00 
          -1.0024218448e-01 2.1870620652e-05 0.0000000000e+00 
          -1.0425899759e-01 -3.7880860503e-05 0.0000000000e+00 
          -1.0810085153e-01 4.9421448872e-05 0.0000000000e+00 
          -1.1175941288e-01 -4.2126442907e-05 0.0000000000e+00 
          -1.1522904332e-01 1.9316704371e-05 0.0000000000e+00 
          -1.1850335375e-01 2.0609763882e-05 0.0000000000e+00 
          -1.2157910300e-01 -4.8091114098e-05 0.0000000000e+00 
          -1.2444892761e-01 4.2090675104e-05 0.0000000000e+00 
          -1.2710836885e-01 -3.1550537783e-05 0.0000000000e+00 
          -1.2955348898e-01 3.7792257714e-05 0.0000000000e+00 
          -1.3177418831e-01 -5.0364877406e-05 0.0000000000e+00 
          -1.3378086274e-01 1.9572907773e-05 0.0000000000e+00 
          -1.3555358239e-01 1.6083854770e-05 0.0000000000e+00 
          -1.3709616402e-01 -1.3383556182e-05 0.0000000000e+00 
          -1.3841122706e-01 -1.4519350109e-05 0.0000000000e+00 
          -1.3948273829e-01 1.4477151860e-05 0.0000000000e+00 
          -1.4032778476e-01 4.2715847942e-07 0.0000000000e+00 
          -1.4092524226e-01 -2.4421513966e-05 0.0000000000e+00 
          -1.4128426211e-01 2.9267296443e-05 0.0000000000e+00 
          -3.5365871287e-04 6.1936049333e-05 0.0000000000e+00 
          -6.2649371155e-03 -7.3627920020e-05 0.0000000000e+00 
          -1.2143897047e-02 4.2709441019e-05 0.0000000000e+00 
          -1.8003130786e-02 -6.0900801838e-06 0.0000000000e+00 
          -2.3812907064e-02 -6.1447086375e-06 0.0000000000e+00 
          -2.9573351476e-02 2.1853573933e-05 0.0000000000e+00 
          -3.5279200360e-02 -4.1305975247e-05 0.0000000000e+00 
          -4.0908043091e-02 5.5898794995e-05 0.0000000000e+00 
          -4.6474053332e-02 -5.1259220400e-05 0.0000000000e+00 
          -5.1944653169e-02 1.6834150104e-05 0.0000000000e+00 
          -5.7324161301e-02 3.1812764548e-05 0.0000000000e+00 
          -6.2606888755e-02 -5.1570216734e-05 0.0000000000e+00 
          -6.7774368431e-02 3.1282703558e-05 0.0000000000e+00 
          -7.2827540507e-02 3.3542470181e-06 0.0000000000e+00 
          -7.7757361593e-02 -2.8736582579e-05 0.0000000000e+00 
          -8.2547870366e-02 2.5805681493e-05 0.0000000000e+00 
          -8.7200851862e-02 -1.0827789662e-05 0.0000000000e+00 
          -9.1708508171e-02 7.3044402636e-06 0.0000000000e+00 
          -9.6055247000e-02 -8.6415377699e-06 0.0000000000e+00 
          -1.0024218448e-01 2.1870620652e-05 0.0000000000e+00 
          -1.0425899759e-01 -3.7880860503e-05 0.0000000000e+00 
          -1.0810085153e-01 4.9421448872e-05 0.0000000000e+00 
          -1.1175941288e-01 -4.2126442907e-05 0.0000000000e+00 
          -1.1522904332e-01 1.9316704371e-05 0.0000000000e+00 
          -1.1850335375e-01 2.0609763882e-05 0.0000000000e+00 
          -1.2157910300e-01 -4.8091114098e-05 0.0000000000e+00 
          -1.2444892761e-01 4.2090675104e-05 0.0000000000e+00 
          -1.2710836885e-01 -3.1550537783e-05 0.0000000000e+00 
          -1.2955348898e-01 3.7792257714e-05 0.0000000000e+00 
          -1.3177418831e-01 -5.0364877406e-05 0.0000000000e+00 
          -1.3378086274e-01 1.9572907773e-05 0.0000000000e+00 
          -1.3555358239e-01 1.6083854770e-05 0.0000000000e+00 
          -1.3709616402e-01 -1.3383556182e-05 0.0000000000e+00 
          -1.3841122706e-01 -1.4519350109e-05 0.0000000000e+00 
          -1.3948273829e-01 1.4477151860e-05 0.0000000000e+00 
          -1.4032778476e-01 4.2715847942e-07 0.0000000000e+00 
          -1.4092524226e-01 -2.4421513966e-05 0.0000000000e+00 
          -1.4128426211e-01 2.9267296443e-05 0.0000000000e+00 
        </DataArray>
        <DataArray type="Float64" Name="Reaction" NumberOfComponents="3" format="ascii">
          0.0000000000e+00 0.0000000000e+00 0.0000000000e+00 
          0.0000000000e+00 0.0000000000e+00 0.0000000000e+00 
          0.0000000000e+00 0.0000000000e+00 0.0000000000e+00 
          0.0000000000e+00 0.0000000000e+00 0.0000000000e+00 
          0.0000000000e+00 0.0000000000e+00 0.0000000000e+00 
          0.0000000000e+00 0.0000000000e+00 0.0000000000e+00 
          0.0000000000e+00 0.0000000000e+00 0.0000000000e+00 
          0.0000000000e+00 0.0000000000e+00 0.0000000000e+00 
          0.0000000000e+00 0.0000000000e+00 0.0000000000e+00 
          0.0000000000e+00 0.0000000000e+00 0.0000000000e+00 
          0.0000000000e+00 0.0000000000e+00 0.0000000000e+00 
          0.0000000000e+00 0.0000000000e+00 0.0000000000e+00 
          0.0000000000e+00 0.0000000000e+00 0.0000000000e+00 
          0.0000000000e+00 0.0000000000e+00 0.0000000000e+00 
          0.0000000000e+00 0.0000000000e+00 0.0000000000e+00 
          0.0000000000e+00 0.0000000000e+00 0.0000000000e+00 
          0.0000000000e+00 0.0000000000e+00 0.0000000000e+00 
          0.0000000000e+00 0.0000000000e+00 0.0000000000e+00 
          0.0000000000e+00 0.0000000000e+00 0.0000000000e+00 
          0.0000000000e+00 0.0000000000e+00 0.0000000000e+00 
          0.0000000000e+00 0.0000000000e+00 0.0000000000e+00 
          0.0000000000e+00 0.0000000000e+00 0.0000000000e+00 
          0.0000000000e+00 0.0000000000e+00 0.0000000000e+00 
          0.0000000000e+00 0.0000000000e+00 0.0000000000e+00 
          0.0000000000e+00 0.0000000000e+00 0.0000000000e+00 
          0.0000000000e+00 0.0000000000e+00 0.0000000000e+00 
          0.0000000000e+00 0.0000000000e+00 0.0000000000e+00 
          0.0000000000e+00 0.0000000000e+00 0.0000000000e+00 
          0.0000000000e+00 0.0000000000e+00 0.0000000000e+00 
          0.0000000000e+00 0.0000000000e+00 0.0000000000e+00 
          0.0000000000e+00 0.0000000000e+00 0.0000000000e+00 
          0.0000000000e+00 0.0000000000e+00 0.0000000000e+00 
          0.0000000000e+00 0.0000000000e+00 0.0000000000e+00 
          0.0000000000e+00 0.0000000000e+00 0.0000000000e+00 
          0.0000000000e+00 0.0000000000e+00 0.0000000000e+00 
          0.0000000000e+00 0.0000000000e+00 0.0000000000e+00 
          0.0000000000e+00 0.0000000000e+00 0.0000000000e+00 
          0.0000000000e+00 0.0000000000e+00 0.0000000000e+00 
          0.0000000000e+00 0.0000000000e+00 0.0000000000e+00 
          0.0000000000e+00 0.0000000000e+00 0.0000000000e+00 
          0.0000000000e+00 0.0000000000e+00 0.0000000000e+00 
          0.0000000000e+00 0.0000000000e+00 0.0000000000e+00 
          0.0000000000e+00 0.0000000000e+00 0.0000000000e+00 
          0.0000000000e+00 0.0000000000e+00 0.0000000000e+00 
          0.0000000000e+00 0.0000000000e+00 0.0000000000e+00 
          0.0000000000e+00 0.0000000000e+00 0.0000000000e+00 
          0.0000000000e+00 0.0000000000e+00 0.0000000000e+00 
          0.0000000000e+00 0.0000000000e+00 0.0000000000e+00 
          0.0000000000e+00 0.0000000000e+00 0.0000000000e+00 
          0.0000000000e+00 0.0000000000e+00 0.0000000000e+00 
          0.0000000000e+00 0.0000000000e+00 0.0000000000e+00 
          0.0000000000e+00 0.0000000000e+00 0.0000000000e+00 
          0.0000000000e+00 0.0000000000e+00 0.0000000000e+00 
          0.0000000000e+00 0.0000000000e+00 0.0000000000e+00 
          0.0000000000e+00 0.0000000000e+00 0.0000000000e+00 
          0.0000000000e+00 0.0000000000e+00 0.0000000000e+00 
          0.0000000000e+00 0.0000000000e+00 0.0000000000e+00 
          0.0000000000e+00 0.0000000000e+00 0.0000000000e+00 
          0.0000000000e+00 0.0000000000e+00 0.0000000000e+00 
          0.0000000000e+00 0.0000000000e+00 0.0000000000e+00 
          0.0000000000e+00 0.0000000000e+00 0.0000000000e+00 
          0.0000000000e+00 0.0000000000e+00 0.0000000000e+00 
          0.0000000000e+00 0.0000000000e+00 0.0000000000e+00 
          0.0000000000e+00 0.0000000000e+00 0.0000000000e+00 
          0.0000000000e+00 0.0000000000e+00 0.0000000000e+00 
          0.0000000000e+00 0.0000000000e+00 0.0000000000e+00 
          0.0000000000e+00 0.0000000000e+00 0.0000000000e+00 
          0.0000000000e+00 0.0000000000e+00 0.0000000000e+00 
          0.0000000000e+00 0.0000000000e+00 0.0000000000e+00 
          0.0000000000e+00 0.0000000000e+00 0.0000000000e+00 
          0.0000000000e+00 0.0000000000e+00 0.0000000000e+00 
          0.0000000000e+00 0.0000000000e+00 0.0000000000e+00 
          0.0000000000e+00 0.0000000000e+00 0.0000000000e+00 
          0.0000000000e+00 0.0000000000e+00 0.0000000000e+00 
          0.0000000000e+00 0.0000000000e+00 0.0000000000e+00 
          0.0000000000e+00 0.0000000000e+00 0.0000000000e+00 
          0.0000000000e+00 0.0000000000e+00 0.0000000000e+00 
          0.0000000000e+00 0.0000000000e+00 0.0000000000e+00 
          0.0000000000e+00 0.0000000000e+00 0.0000000000e+00 
          0.0000000000e+00 0.0000000000e+00 0.0000000000e+00 
          0.0000000000e+00 0.0000000000e+00 0.0000000000e+00 
          0.0000000000e+00 0.0000000000e+00 0.0000000000e+00 
        </DataArray>
      </PointData>
      <CellData>
        <DataArray type="Int64" Name="ElementTag" format="ascii">
          0
        </DataArray>
      </CellData>
    </Piece>
  </UnstructuredGrid>
</VTKFile>
