<?xml version="1.0"?>
<VTKFile type="UnstructuredGrid" version="1.0" byte_order="LittleEndian" compressor="vtkZLibDataCompressor">
  <UnstructuredGrid>
    <Piece NumberOfPoints="80" NumberOfCells="39">
      <Points>
        <DataArray type="Float64" Name="Points" NumberOfComponents="3" format="ascii">
          0.0000000000e+00 0.0000000000e+00 0.0000000000e+00 
          2.5000000000e-01 0.0000000000e+00 0.0000000000e+00 
          2.5000000000e-01 3.0000000000e+01 0.0000000000e+00 
          0.0000000000e+00 3.0000000000e+01 0.0000000000e+00 
          2.5000000000e-01 7.6923100000e-01 0.0000000000e+00 
          2.5000000000e-01 1.5384620000e+00 0.0000000000e+00 
          2.5000000000e-01 2.3076920000e+00 0.0000000000e+00 
          2.5000000000e-01 3.0769230000e+00 0.0000000000e+00 
          2.5000000000e-01 3.8461540000e+00 0.0000000000e+00 
          2.5000000000e-01 4.6153850000e+00 0.0000000000e+00 
          2.5000000000e-01 5.3846150000e+00 0.0000000000e+00 
          2.5000000000e-01 6.1538460000e+00 0.0000000000e+00 
          2.5000000000e-01 6.9230770000e+00 0.0000000000e+00 
          2.5000000000e-01 7.6923080000e+00 0.0000000000e+00 
          2.5000000000e-01 8.4615380000e+00 0.0000000000e+00 
          2.5000000000e-01 9.2307690000e+00 0.0000000000e+00 
          2.5000000000e-01 1.0000000000e+01 0.0000000000e+00 
          2.5000000000e-01 1.0769231000e+01 0.0000000000e+00 
          2.5000000000e-01 1.1538462000e+01 0.0000000000e+00 
          2.5000000000e-01 1.2307692000e+01 0.0000000000e+00 
          2.5000000000e-01 1.3076923000e+01 0.0000000000e+00 
          2.5000000000e-01 1.3846154000e+01 0.0000000000e+00 
          2.5000000000e-01 1.4615385000e+01 0.0000000000e+00 
          2.5000000000e-01 1.5384615000e+01 0.0000000000e+00 
          2.5000000000e-01 1.6153846000e+01 0.0000000000e+00 
          2.5000000000e-01 1.6923077000e+01 0.0000000000e+00 
          2.5000000000e-01 1.7692308000e+01 0.0000000000e+00 
          2.5000000000e-01 1.8461538000e+01 0.0000000000e+00 
          2.5000000000e-01 1.9230769000e+01 0.0000000000e+00 
          2.5000000000e-01 2.0000000000e+01 0.0000000000e+00 
          2.5000000000e-01 2.0769231000e+01 0.0000000000e+00 
          2.5000000000e-01 2.1538462000e+01 0.0000000000e+00 
          2.5000000000e-01 2.2307692000e+01 0.0000000000e+00 
          2.5000000000e-01 2.3076923000e+01 0.0000000000e+00 
          2.5000000000e-01 2.3846154000e+01 0.0000000000e+00 
          2.5000000000e-01 2.4615385000e+01 0.0000000000e+00 
          2.5000000000e-01 2.5384615000e+01 0.0000000000e+00 
          2.5000000000e-01 2.6153846000e+01 0.0000000000e+00 
          2.5000000000e-01 2.6923077000e+01 0.0000000000e+00 
          2.5000000000e-01 2.7692308000e+01 0.0000000000e+00 
          2.5000000000e-01 2.8461538000e+01 0.0000000000e+00 
          2.5000000000e-01 2.9230769000e+01 0.0000000000e+00 
          0.0000000000e+00 7.6923100000e-01 0.0000000000e+00 
          0.0000000000e+00 1.5384620000e+00 0.0000000000e+00 
          0.0000000000e+00 2.3076920000e+00 0.0000000000e+00 
          0.0000000000e+00 3.0769230000e+00 0.0000000000e+00 
          0.0000000000e+00 3.8461540000e+00 0.0000000000e+00 
          0.0000000000e+00 4.6153850000e+00 0.0000000000e+00 
          0.0000000000e+00 5.3846150000e+00 0.0000000000e+00 
          0.0000000000e+00 6.1538460000e+00 0.0000000000e+00 
          0.0000000000e+00 6.9230770000e+00 0.0000000000e+00 
          0.0000000000e+00 7.6923080000e+00 0.0000000000e+00 
          0.0000000000e+00 8.4615380000e+00 0.0000000000e+00 
          0.0000000000e+00 9.2307690000e+00 0.0000000000e+00 
          0.0000000000e+00 1.0000000000e+01 0.0000000000e+00 
          0.0000000000e+00 1.0769231000e+01 0.0000000000e+00 
          0.0000000000e+00 1.1538462000e+01 0.0000000000e+00 
          0.0000000000e+00 1.2307692000e+01 0.0000000000e+00 
          0.0000000000e+00 1.3076923000e+01 0.0000000000e+00 
          0.0000000000e+00 1.3846154000e+01 0.0000000000e+00 
          0.0000000000e+00 1.4615385000e+01 0.0000000000e+00 
          0.0000000000e+00 1.5384615000e+01 0.0000000000e+00 
          0.0000000000e+00 1.6153846000e+01 0.0000000000e+00 
          0.0000000000e+00 1.6923077000e+01 0.0000000000e+00 
          0.0000000000e+00 1.7692308000e+01 0.0000000000e+00 
          0.0000000000e+00 1.8461538000e+01 0.0000000000e+00 
          0.0000000000e+00 1.9230769000e+01 0.0000000000e+00 
          0.0000000000e+00 2.0000000000e+01 0.0000000000e+00 
          0.0000000000e+00 2.0769231000e+01 0.0000000000e+00 
          0.0000000000e+00 2.1538462000e+01 0.0000000000e+00 
          0.0000000000e+00 2.2307692000e+01 0.0000000000e+00 
          0.0000000000e+00 2.3076923000e+01 0.0000000000e+00 
          0.0000000000e+00 2.3846154000e+01 0.0000000000e+00 
          0.0000000000e+00 2.4615385000e+01 0.0000000000e+00 
          0.0000000000e+00 2.5384615000e+01 0.0000000000e+00 
          0.0000000000e+00 2.6153846000e+01 0.0000000000e+00 
          0.0000000000e+00 2.6923077000e+01 0.0000000000e+00 
          0.0000000000e+00 2.7692308000e+01 0.0000000000e+00 
          0.0000000000e+00 2.8461538000e+01 0.0000000000e+00 
          0.0000000000e+00 2.9230769000e+01 0.0000000000e+00 
        </DataArray>
      </Points>
      <Cells>
        <DataArray type="Int64" Name="connectivity" format="ascii">
          0 1 4 42 
          42 4 5 43 
          43 5 6 44 
          44 6 7 45 
          45 7 8 46 
          46 8 9 47 
          47 9 10 48 
          48 10 11 49 
          49 11 12 50 
          50 12 13 51 
          51 13 14 52 
          52 14 15 53 
          53 15 16 54 
          54 16 17 55 
          55 17 18 56 
          56 18 19 57 
          57 19 20 58 
          58 20 21 59 
          59 21 22 60 
          60 22 23 61 
          61 23 24 62 
          62 24 25 63 
          63 25 26 64 
          64 26 27 65 
          65 27 28 66 
          66 28 29 67 
          67 29 30 68 
          68 30 31 69 
          69 31 32 70 
          70 32 33 71 
          71 33 34 72 
          72 34 35 73 
          73 35 36 74 
          74 36 37 75 
          75 37 38 76 
          76 38 39 77 
          77 39 40 78 
          78 40 41 79 
          79 41 2 3 
        </DataArray>
        <DataArray type="Int64" Name="offsets" format="ascii">
          4
          8
          12
          16
          20
          24
          28
          32
          36
          40
          44
          48
          52
          56
          60
          64
          68
          72
          76
          80
          84
          88
          92
          96
          100
          104
          108
          112
          116
          120
          124
          128
          132
          136
          140
          144
          148
          152
          156
        </DataArray>
        <DataArray type="Int64" Name="types" format="ascii">
          9
          9
          9
          9
          9
          9
          9
          9
          9
          9
          9
          9
          9
          9
          9
          9
          9
          9
          9
          9
          9
          9
          9
          9
          9
          9
          9
          9
          9
          9
          9
          9
          9
          9
          9
          9
          9
          9
          9
        </DataArray>
      </Cells>
      <PointData>
        <DataArray type="Int64" Name="NodeTag" format="ascii">
          1
          2
          3
          4
          7
          8
          9
          10
          11
          12
          13
          14
          15
          16
          17
          18
          19
          20
          21
          22
          23
          24
          25
          26
          27
          28
          29
          30
          31
          32
          33
          34
          35
          36
          37
          38
          39
          40
          41
          42
          43
          44
          45
          46
          47
          48
          49
          50
          51
          52
          53
          54
          55
          56
          57
          58
          59
          60
          61
          62
          63
          64
          65
          66
          67
          68
          69
          70
          71
          72
          73
          74
          75
          76
          77
          78
          79
          80
          81
          82
        </DataArray>
        <DataArray type="Float64" Name="Velocity" NumberOfComponents="3" format="ascii">
          -1.0539763972e-19 -1.0462542210e-04 0.0000000000e+00 
          -1.0539763972e-19 -1.0462542210e-04 0.0000000000e+00 
          3.0342142732e-18 9.8098994306e-05 0.0000000000e+00 
          3.0342142732e-18 9.8098994306e-05 0.0000000000e+00 
          1.6614409002e-18 -9.6188798327e-05 0.0000000000e+00 
          -3.5366360817e-18 -8.7615299307e-05 0.0000000000e+00 
          3.8067021778e-19 -7.9256008467e-05 0.0000000000e+00 
          1.6637373584e-18 -7.0881143062e-05 0.0000000000e+00 
          1.9596422767e-18 -6.2101444992e-05 0.0000000000e+00 
          9.9185980058e-19 -5.3154812246e-05 0.0000000000e+00 
          -6.2766647396e-19 -4.5199702117e-05 0.0000000000e+00 
          -3.2267864926e-18 -3.8112661724e-05 0.0000000000e+00 
          -5.0729016907e-20 -3.0146965291e-05 0.0000000000e+00 
          -3.7611358411e-19 -2.0211769098e-05 0.0000000000e+00 
          -2.1458365190e-18 -9.9458630830e-06 0.0000000000e+00 
          8.0723469149e-19 -1.7112503705e-06 0.0000000000e+00 
          3.3677486085e-20 5.1572894951e-06 0.0000000000e+00 
          1.8629947565e-18 1.2210595317e-05 0.0000000000e+00 
          1.1743002597e-18 2.0127289267e-05 0.0000000000e+00 
          3.0983439487e-18 2.7983749807e-05 0.0000000000e+00 
          -1.4147416195e-18 3.7305651597e-05 0.0000000000e+00 
          -1.4639142781e-18 4.8275076997e-05 0.0000000000e+00 
          -2.4749948227e-19 5.9231107782e-05 0.0000000000e+00 
          3.9082913894e-18 6.8589300300e-05 0.0000000000e+00 
          -5.2478159118e-18 7.6826234112e-05 0.0000000000e+00 
          -2.5453858503e-18 8.4302758247e-05 0.0000000000e+00 
          3.2348812851e-19 8.8983050427e-05 0.0000000000e+00 
          2.3053603170e-18 9.2250311539e-05 0.0000000000e+00 
          -5.6392206209e-19 9.4982998326e-05 0.0000000000e+00 
          1.7314443825e-18 9.6565657330e-05 0.0000000000e+00 
          -9.4438886201e-20 9.7167145012e-05 0.0000000000e+00 
          1.0182754786e-18 9.7652567111e-05 0.0000000000e+00 
          -1.1439844018e-20 9.8449757905e-05 0.0000000000e+00 
          -6.0698600980e-19 9.8113224965e-05 0.0000000000e+00 
          5.4290713037e-18 9.8140891676e-05 0.0000000000e+00 
          -7.4309680753e-18 9.8776215146e-05 0.0000000000e+00 
          4.2757007016e-18 9.8159274257e-05 0.0000000000e+00 
          -3.6900824106e-18 9.8326277970e-05 0.0000000000e+00 
          3.2679761583e-18 9.8742427872e-05 0.0000000000e+00 
          -3.4155049006e-18 9.8114240854e-05 0.0000000000e+00 
          4.8449384977e-18 9.8484586740e-05 0.0000000000e+00 
          -5.6882410308e-18 9.8624609850e-05 0.0000000000e+00 
          1.6614409002e-18 -9.6188798327e-05 0.0000000000e+00 
          -3.5366360817e-18 -8.7615299307e-05 0.0000000000e+00 
          3.8067021778e-19 -7.9256008467e-05 0.0000000000e+00 
          1.6637373584e-18 -7.0881143062e-05 0.0000000000e+00 
          1.9596422767e-18 -6.2101444992e-05 0.0000000000e+00 
          9.9185980058e-19 -5.3154812246e-05 0.0000000000e+00 
          -6.2766647396e-19 -4.5199702117e-05 0.0000000000e+00 
          -3.2267864926e-18 -3.8112661724e-05 0.0000000000e+00 
          -5.0729016907e-20 -3.0146965291e-05 0.0000000000e+00 
          -3.7611358411e-19 -2.0211769098e-05 0.0000000000e+00 
          -2.1458365190e-18 -9.9458630830e-06 0.0000000000e+00 
          8.0723469149e-19 -1.7112503705e-06 0.0000000000e+00 
          3.3677486085e-20 5.1572894951e-06 0.0000000000e+00 
          1.8629947565e-18 1.2210595317e-05 0.0000000000e+00 
          1.1743002597e-18 2.0127289267e-05 0.0000000000e+00 
          3.0983439487e-18 2.7983749807e-05 0.0000000000e+00 
          -1.4147416195e-18 3.7305651597e-05 0.0000000000e+00 
          -1.4639142781e-18 4.8275076997e-05 0.0000000000e+00 
          -2.4749948227e-19 5.9231107782e-05 0.0000000000e+00 
          3.9082913894e-18 6.8589300300e-05 0.0000000000e+00 
          -5.2478159118e-18 7.6826234112e-05 0.0000000000e+00 
          -2.5453858503e-18 8.4302758247e-05 0.0000000000e+00 
          3.2348812851e-19 8.8983050427e-05 0.0000000000e+00 
          2.3053603170e-18 9.2250311539e-05 0.0000000000e+00 
          -5.6392206209e-19 9.4982998326e-05 0.0000000000e+00 
          1.7314443825e-18 9.6565657330e-05 0.0000000000e+00 
          -9.4438886201e-20 9.7167145012e-05 0.0000000000e+00 
          1.0182754786e-18 9.7652567111e-05 0.0000000000e+00 
          -1.1439844018e-20 9.8449757905e-05 0.0000000000e+00 
          -6.0698600980e-19 9.8113224965e-05 0.0000000000e+00 
          5.4290713037e-18 9.8140891676e-05 0.0000000000e+00 
          -7.4309680753e-18 9.8776215146e-05 0.0000000000e+00 
          4.2757007016e-18 9.8159274257e-05 0.0000000000e+00 
          -3.6900824106e-18 9.8326277970e-05 0.0000000000e+00 
          3.2679761583e-18 9.8742427872e-05 0.0000000000e+00 
          -3.4155049006e-18 9.8114240854e-05 0.0000000000e+00 
          4.8449384977e-18 9.8484586740e-05 0.0000000000e+00 
          -5.6882410308e-18 9.8624609850e-05 0.0000000000e+00 
        </DataArray>
        <DataArray type="Float64" Name="Displacement" NumberOfComponents="3" format="ascii">
          3.7651602887e-21 -1.9219485457e-05 0.0000000000e+00 
          3.7651602887e-21 -1.9219485457e-05 0.0000000000e+00 
          2.1004395878e-20 -5.4414121528e-05 0.0000000000e+00 
          2.1004395878e-20 -5.4414121528e-05 0.0000000000e+00 
          2.5086898301e-21 -2.0827765834e-05 0.0000000000e+00 
          6.8378149625e-21 -2.2397786529e-05 0.0000000000e+00 
          -9.2422299111e-21 -2.3931150137e-05 0.0000000000e+00 
          -2.1592234271e-22 -2.5433013466e-05 0.0000000000e+00 
          1.3286535857e-20 -2.6905162171e-05 0.0000000000e+00 
          1.8464378544e-20 -2.8343443026e-05 0.0000000000e+00 
          9.4961391737e-21 -2.9744067427e-05 0.0000000000e+00 
          6.5863156119e-21 -3.1107935673e-05 0.0000000000e+00 
          -1.7138824013e-21 -3.2439020118e-05 0.0000000000e+00 
          1.4711492443e-21 -3.3738157385e-05 0.0000000000e+00 
          -3.3125275653e-21 -3.5004748879e-05 0.0000000000e+00 
          -2.2093107251e-21 -3.6238326580e-05 0.0000000000e+00 
          -1.2060829097e-20 -3.7438669668e-05 0.0000000000e+00 
          3.2956707310e-21 -3.8602095751e-05 0.0000000000e+00 
          1.0692495928e-20 -3.9726438340e-05 0.0000000000e+00 
          1.0000347472e-20 -4.0814859671e-05 0.0000000000e+00 
          1.1813248298e-20 -4.1872117763e-05 0.0000000000e+00 
          2.2839492286e-20 -4.2899823193e-05 0.0000000000e+00 
          -5.5636256582e-21 -4.3897140681e-05 0.0000000000e+00 
          9.0192205356e-21 -4.4865792605e-05 0.0000000000e+00 
          8.6517557663e-21 -4.5803143920e-05 0.0000000000e+00 
          1.9960801952e-20 -4.6703883062e-05 0.0000000000e+00 
          -1.2108211649e-20 -4.7563913229e-05 0.0000000000e+00 
          7.7991848200e-21 -4.8381125019e-05 0.0000000000e+00 
          1.3238717822e-20 -4.9151803303e-05 0.0000000000e+00 
          -5.2404244299e-21 -4.9871467455e-05 0.0000000000e+00 
          1.9638477165e-20 -5.0541170864e-05 0.0000000000e+00 
          1.7003102752e-20 -5.1159085359e-05 0.0000000000e+00 
          3.0058586357e-20 -5.1722813004e-05 0.0000000000e+00 
          3.2571376213e-21 -5.2233947235e-05 0.0000000000e+00 
          1.5931496763e-20 -5.2691698477e-05 0.0000000000e+00 
          1.0532487530e-20 -5.3095242994e-05 0.0000000000e+00 
          8.8789631905e-22 -5.3445046490e-05 0.0000000000e+00 
          1.5138555121e-20 -5.3741400434e-05 0.0000000000e+00 
          -3.2493647927e-21 -5.3983770003e-05 0.0000000000e+00 
          1.3436580221e-20 -5.4171854828e-05 0.0000000000e+00 
          1.2682085295e-20 -5.4306801672e-05 0.0000000000e+00 
          -8.9153381875e-21 -5.4387630443e-05 0.0000000000e+00 
          2.5086898301e-21 -2.0827765834e-05 0.0000000000e+00 
          6.8378149625e-21 -2.2397786529e-05 0.0000000000e+00 
          -9.2422299111e-21 -2.3931150137e-05 0.0000000000e+00 
          -2.1592234271e-22 -2.5433013466e-05 0.0000000000e+00 
          1.3286535857e-20 -2.6905162171e-05 0.0000000000e+00 
          1.8464378544e-20 -2.8343443026e-05 0.0000000000e+00 
          9.4961391737e-21 -2.9744067427e-05 0.0000000000e+00 
          6.5863156119e-21 -3.1107935673e-05 0.0000000000e+00 
          -1.7138824013e-21 -3.2439020118e-05 0.0000000000e+00 
          1.4711492443e-21 -3.3738157385e-05 0.0000000000e+00 
          -3.3125275653e-21 -3.5004748879e-05 0.0000000000e+00 
          -2.2093107251e-21 -3.6238326580e-05 0.0000000000e+00 
          -1.2060829097e-20 -3.7438669668e-05 0.0000000000e+00 
          3.2956707310e-21 -3.8602095751e-05 0.0000000000e+00 
          1.0692495928e-20 -3.9726438340e-05 0.0000000000e+00 
          1.0000347472e-20 -4.0814859671e-05 0.0000000000e+00 
          1.1813248298e-20 -4.1872117763e-05 0.0000000000e+00 
          2.2839492286e-20 -4.2899823193e-05 0.0000000000e+00 
          -5.5636256582e-21 -4.3897140681e-05 0.0000000000e+00 
          9.0192205356e-21 -4.4865792605e-05 0.0000000000e+00 
          8.6517557663e-21 -4.5803143920e-05 0.0000000000e+00 
          1.9960801952e-20 -4.6703883062e-05 0.0000000000e+00 
          -1.2108211649e-20 -4.7563913229e-05 0.0000000000e+00 
          7.7991848200e-21 -4.8381125019e-05 0.0000000000e+00 
          1.3238717822e-20 -4.9151803303e-05 0.0000000000e+00 
          -5.2404244299e-21 -4.9871467455e-05 0.0000000000e+00 
          1.9638477165e-20 -5.0541170864e-05 0.0000000000e+00 
          1.7003102752e-20 -5.1159085359e-05 0.0000000000e+00 
          3.0058586357e-20 -5.1722813004e-05 0.0000000000e+00 
          3.2571376213e-21 -5.2233947235e-05 0.0000000000e+00 
          1.5931496763e-20 -5.2691698477e-05 0.0000000000e+00 
          1.0532487530e-20 -5.3095242994e-05 0.0000000000e+00 
          8.8789631905e-22 -5.3445046490e-05 0.0000000000e+00 
          1.5138555121e-20 -5.3741400434e-05 0.0000000000e+00 
          -3.2493647927e-21 -5.3983770003e-05 0.0000000000e+00 
          1.3436580221e-20 -5.4171854828e-05 0.0000000000e+00 
          1.2682085295e-20 -5.4306801672e-05 0.0000000000e+00 
          -8.9153381875e-21 -5.4387630443e-05 0.0000000000e+00 
        </DataArray>
        <DataArray type="Float64" Name="Acceleration" NumberOfComponents="3" format="ascii">
          8.1756722741e-17 5.3423464983e-04 0.0000000000e+00 
          8.1756722741e-17 5.3423464983e-04 0.0000000000e+00 
          -5.5811236536e-15 3.9601318756e-03 0.0000000000e+00 
          -5.5811236536e-15 3.9601318756e-03 0.0000000000e+00 
          7.3643915417e-16 1.3070814540e-03 0.0000000000e+00 
          -2.3505182898e-15 1.0179324898e-03 0.0000000000e+00 
          2.7502302303e-15 8.9373413058e-05 0.0000000000e+00 
          3.0972616261e-18 -2.3277199246e-04 0.0000000000e+00 
          -8.8428169895e-16 5.1565609624e-04 0.0000000000e+00 
          -5.6266290222e-16 1.1980534685e-03 0.0000000000e+00 
          2.3772335897e-16 1.0364724440e-03 0.0000000000e+00 
          -5.3908329341e-16 3.2030612188e-04 0.0000000000e+00 
          8.7650585725e-16 1.6954319659e-04 0.0000000000e+00 
          -3.4108794528e-16 2.7711964642e-04 0.0000000000e+00 
          2.8602512891e-16 3.6205195963e-04 0.0000000000e+00 
          -1.0054389938e-15 4.0154407584e-04 0.0000000000e+00 
          2.1562949434e-15 1.0651258080e-03 0.0000000000e+00 
          -1.1352952705e-15 1.4555356469e-03 0.0000000000e+00 
          2.9228623137e-16 8.8543737431e-04 0.0000000000e+00 
          -7.4847108431e-17 2.8532944553e-05 0.0000000000e+00 
          7.4550845569e-16 -2.6195785603e-04 0.0000000000e+00 
          -3.3629371205e-15 -1.1143731065e-04 0.0000000000e+00 
          3.0344144912e-15 -4.2204000389e-04 0.0000000000e+00 
          1.1048479112e-16 5.3259502349e-05 0.0000000000e+00 
          -4.9923925649e-16 1.0101938706e-03 0.0000000000e+00 
          -2.7255266555e-15 1.7484535758e-03 0.0000000000e+00 
          2.9324165574e-15 2.1283898037e-03 0.0000000000e+00 
          -4.7651682723e-17 2.7982541171e-03 0.0000000000e+00 
          -1.7147155471e-15 3.6054838211e-03 0.0000000000e+00 
          3.1759586232e-15 3.4156587058e-03 0.0000000000e+00 
          -2.2585346472e-15 3.7451025247e-03 0.0000000000e+00 
          5.6982052054e-16 4.1770943030e-03 0.0000000000e+00 
          -2.2405411321e-15 3.8902146564e-03 0.0000000000e+00 
          3.1291124082e-15 4.0323611953e-03 0.0000000000e+00 
          -8.5821464342e-16 4.1808015200e-03 0.0000000000e+00 
          -1.3651604349e-15 4.0968041706e-03 0.0000000000e+00 
          2.5065608494e-15 4.0444441121e-03 0.0000000000e+00 
          -3.2789902163e-15 4.1407334290e-03 0.0000000000e+00 
          3.1479145206e-15 4.1948606845e-03 0.0000000000e+00 
          -2.3665586424e-15 3.9881844306e-03 0.0000000000e+00 
          -6.2390632417e-17 4.1648639853e-03 0.0000000000e+00 
          3.8840152949e-15 4.2044012817e-03 0.0000000000e+00 
          7.3643915417e-16 1.3070814540e-03 0.0000000000e+00 
          -2.3505182898e-15 1.0179324898e-03 0.0000000000e+00 
          2.7502302303e-15 8.9373413058e-05 0.0000000000e+00 
          3.0972616261e-18 -2.3277199246e-04 0.0000000000e+00 
          -8.8428169895e-16 5.1565609624e-04 0.0000000000e+00 
          -5.6266290222e-16 1.1980534685e-03 0.0000000000e+00 
          2.3772335897e-16 1.0364724440e-03 0.0000000000e+00 
          -5.3908329341e-16 3.2030612188e-04 0.0000000000e+00 
          8.7650585725e-16 1.6954319659e-04 0.0000000000e+00 
          -3.4108794528e-16 2.7711964642e-04 0.0000000000e+00 
          2.8602512891e-16 3.6205195963e-04 0.0000000000e+00 
          -1.0054389938e-15 4.0154407584e-04 0.0000000000e+00 
          2.1562949434e-15 1.0651258080e-03 0.0000000000e+00 
          -1.1352952705e-15 1.4555356469e-03 0.0000000000e+00 
          2.9228623137e-16 8.8543737431e-04 0.0000000000e+00 
          -7.4847108431e-17 2.8532944553e-05 0.0000000000e+00 
          7.4550845569e-16 -2.6195785603e-04 0.0000000000e+00 
          -3.3629371205e-15 -1.1143731065e-04 0.0000000000e+00 
          3.0344144912e-15 -4.2204000389e-04 0.0000000000e+00 
          1.1048479112e-16 5.3259502349e-05 0.0000000000e+00 
          -4.9923925649e-16 1.0101938706e-03 0.0000000000e+00 
          -2.7255266555e-15 1.7484535758e-03 0.0000000000e+00 
          2.9324165574e-15 2.1283898037e-03 0.0000000000e+00 
          -4.7651682723e-17 2.7982541171e-03 0.0000000000e+00 
          -1.7147155471e-15 3.6054838211e-03 0.0000000000e+00 
          3.1759586232e-15 3.4156587058e-03 0.0000000000e+00 
          -2.2585346472e-15 3.7451025247e-03 0.0000000000e+00 
          5.6982052054e-16 4.1770943030e-03 0.0000000000e+00 
          -2.2405411321e-15 3.8902146564e-03 0.0000000000e+00 
          3.1291124082e-15 4.0323611953e-03 0.0000000000e+00 
          -8.5821464342e-16 4.1808015200e-03 0.0000000000e+00 
          -1.3651604349e-15 4.0968041706e-03 0.0000000000e+00 
          2.5065608494e-15 4.0444441121e-03 0.0000000000e+00 
          -3.2789902163e-15 4.1407334290e-03 0.0000000000e+00 
          3.1479145206e-15 4.1948606845e-03 0.0000000000e+00 
          -2.3665586424e-15 3.9881844306e-03 0.0000000000e+00 
          -6.2390632417e-17 4.1648639853e-03 0.0000000000e+00 
          3.8840152949e-15 4.2044012817e-03 0.0000000000e+00 
        </DataArray>
        <DataArray type="Float64" Name="Reaction" NumberOfComponents="3" format="ascii">
          0.0000000000e+00 0.0000000000e+00 0.0000000000e+00 
          0.0000000000e+00 0.0000000000e+00 0.0000000000e+00 
          0.0000000000e+00 0.0000000000e+00 0.0000000000e+00 
          0.0000000000e+00 0.0000000000e+00 0.0000000000e+00 
          0.0000000000e+00 0.0000000000e+00 0.0000000000e+00 
          0.0000000000e+00 0.0000000000e+00 0.0000000000e+00 
          0.0000000000e+00 0.0000000000e+00 0.0000000000e+00 
          0.0000000000e+00 0.0000000000e+00 0.0000000000e+00 
          0.0000000000e+00 0.0000000000e+00 0.0000000000e+00 
          0.0000000000e+00 0.0000000000e+00 0.0000000000e+00 
          0.0000000000e+00 0.0000000000e+00 0.0000000000e+00 
          0.0000000000e+00 0.0000000000e+00 0.0000000000e+00 
          0.0000000000e+00 0.0000000000e+00 0.0000000000e+00 
          0.0000000000e+00 0.0000000000e+00 0.0000000000e+00 
          0.0000000000e+00 0.0000000000e+00 0.0000000000e+00 
          0.0000000000e+00 0.0000000000e+00 0.0000000000e+00 
          0.0000000000e+00 0.0000000000e+00 0.0000000000e+00 
          0.0000000000e+00 0.0000000000e+00 0.0000000000e+00 
          0.0000000000e+00 0.0000000000e+00 0.0000000000e+00 
          0.0000000000e+00 0.0000000000e+00 0.0000000000e+00 
          0.0000000000e+00 0.0000000000e+00 0.0000000000e+00 
          0.0000000000e+00 0.0000000000e+00 0.0000000000e+00 
          0.0000000000e+00 0.0000000000e+00 0.0000000000e+00 
          0.0000000000e+00 0.0000000000e+00 0.0000000000e+00 
          0.0000000000e+00 0.0000000000e+00 0.0000000000e+00 
          0.0000000000e+00 0.0000000000e+00 0.0000000000e+00 
          0.0000000000e+00 0.0000000000e+00 0.0000000000e+00 
          0.0000000000e+00 0.0000000000e+00 0.0000000000e+00 
          0.0000000000e+00 0.0000000000e+00 0.0000000000e+00 
          0.0000000000e+00 0.0000000000e+00 0.0000000000e+00 
          0.0000000000e+00 0.0000000000e+00 0.0000000000e+00 
          0.0000000000e+00 0.0000000000e+00 0.0000000000e+00 
          0.0000000000e+00 0.0000000000e+00 0.0000000000e+00 
          0.0000000000e+00 0.0000000000e+00 0.0000000000e+00 
          0.0000000000e+00 0.0000000000e+00 0.0000000000e+00 
          0.0000000000e+00 0.0000000000e+00 0.0000000000e+00 
          0.0000000000e+00 0.0000000000e+00 0.0000000000e+00 
          0.0000000000e+00 0.0000000000e+00 0.0000000000e+00 
          0.0000000000e+00 0.0000000000e+00 0.0000000000e+00 
          0.0000000000e+00 0.0000000000e+00 0.0000000000e+00 
          0.0000000000e+00 0.0000000000e+00 0.0000000000e+00 
          0.0000000000e+00 0.0000000000e+00 0.0000000000e+00 
          0.0000000000e+00 0.0000000000e+00 0.0000000000e+00 
          0.0000000000e+00 0.0000000000e+00 0.0000000000e+00 
          0.0000000000e+00 0.0000000000e+00 0.0000000000e+00 
          0.0000000000e+00 0.0000000000e+00 0.0000000000e+00 
          0.0000000000e+00 0.0000000000e+00 0.0000000000e+00 
          0.0000000000e+00 0.0000000000e+00 0.0000000000e+00 
          0.0000000000e+00 0.0000000000e+00 0.0000000000e+00 
          0.0000000000e+00 0.0000000000e+00 0.0000000000e+00 
          0.0000000000e+00 0.0000000000e+00 0.0000000000e+00 
          0.0000000000e+00 0.0000000000e+00 0.0000000000e+00 
          0.0000000000e+00 0.0000000000e+00 0.0000000000e+00 
          0.0000000000e+00 0.0000000000e+00 0.0000000000e+00 
          0.0000000000e+00 0.0000000000e+00 0.0000000000e+00 
          0.0000000000e+00 0.0000000000e+00 0.0000000000e+00 
          0.0000000000e+00 0.0000000000e+00 0.0000000000e+00 
          0.0000000000e+00 0.0000000000e+00 0.0000000000e+00 
          0.0000000000e+00 0.0000000000e+00 0.0000000000e+00 
          0.0000000000e+00 0.0000000000e+00 0.0000000000e+00 
          0.0000000000e+00 0.0000000000e+00 0.0000000000e+00 
          0.0000000000e+00 0.0000000000e+00 0.0000000000e+00 
          0.0000000000e+00 0.0000000000e+00 0.0000000000e+00 
          0.0000000000e+00 0.0000000000e+00 0.0000000000e+00 
          0.0000000000e+00 0.0000000000e+00 0.0000000000e+00 
          0.0000000000e+00 0.0000000000e+00 0.0000000000e+00 
          0.0000000000e+00 0.0000000000e+00 0.0000000000e+00 
          0.0000000000e+00 0.0000000000e+00 0.0000000000e+00 
          0.0000000000e+00 0.0000000000e+00 0.0000000000e+00 
          0.0000000000e+00 0.0000000000e+00 0.0000000000e+00 
          0.0000000000e+00 0.0000000000e+00 0.0000000000e+00 
          0.0000000000e+00 0.0000000000e+00 0.0000000000e+00 
          0.0000000000e+00 0.0000000000e+00 0.0000000000e+00 
          0.0000000000e+00 0.0000000000e+00 0.0000000000e+00 
          0.0000000000e+00 0.0000000000e+00 0.0000000000e+00 
          0.0000000000e+00 0.0000000000e+00 0.0000000000e+00 
          0.0000000000e+00 0.0000000000e+00 0.0000000000e+00 
          0.0000000000e+00 0.0000000000e+00 0.0000000000e+00 
          0.0000000000e+00 0.0000000000e+00 0.0000000000e+00 
          0.0000000000e+00 0.0000000000e+00 0.0000000000e+00 
        </DataArray>
      </PointData>
      <CellData>
        <DataArray type="Int64" Name="ElementTag" format="ascii">
          90
          91
          92
          93
          94
          95
          96
          97
          98
          99
          100
          101
          102
          103
          104
          105
          106
          107
          108
          109
          110
          111
          112
          113
          114
          115
          116
          117
          118
          119
          120
          121
          122
          123
          124
          125
          126
          127
          128
        </DataArray>
      </CellData>
    </Piece>
  </UnstructuredGrid>
</VTKFile>
