<?xml version="1.0"?>
<VTKFile type="UnstructuredGrid" version="1.0" byte_order="LittleEndian" compressor="vtkZLibDataCompressor">
  <UnstructuredGrid>
    <Piece NumberOfPoints="80" NumberOfCells="39">
      <Points>
        <DataArray type="Float64" Name="Points" NumberOfComponents="3" format="ascii">
          0.0000000000e+00 0.0000000000e+00 0.0000000000e+00 
          2.5000000000e-01 0.0000000000e+00 0.0000000000e+00 
          2.5000000000e-01 3.0000000000e+01 0.0000000000e+00 
          0.0000000000e+00 3.0000000000e+01 0.0000000000e+00 
          2.5000000000e-01 7.6923100000e-01 0.0000000000e+00 
          2.5000000000e-01 1.5384620000e+00 0.0000000000e+00 
          2.5000000000e-01 2.3076920000e+00 0.0000000000e+00 
          2.5000000000e-01 3.0769230000e+00 0.0000000000e+00 
          2.5000000000e-01 3.8461540000e+00 0.0000000000e+00 
          2.5000000000e-01 4.6153850000e+00 0.0000000000e+00 
          2.5000000000e-01 5.3846150000e+00 0.0000000000e+00 
          2.5000000000e-01 6.1538460000e+00 0.0000000000e+00 
          2.5000000000e-01 6.9230770000e+00 0.0000000000e+00 
          2.5000000000e-01 7.6923080000e+00 0.0000000000e+00 
          2.5000000000e-01 8.4615380000e+00 0.0000000000e+00 
          2.5000000000e-01 9.2307690000e+00 0.0000000000e+00 
          2.5000000000e-01 1.0000000000e+01 0.0000000000e+00 
          2.5000000000e-01 1.0769231000e+01 0.0000000000e+00 
          2.5000000000e-01 1.1538462000e+01 0.0000000000e+00 
          2.5000000000e-01 1.2307692000e+01 0.0000000000e+00 
          2.5000000000e-01 1.3076923000e+01 0.0000000000e+00 
          2.5000000000e-01 1.3846154000e+01 0.0000000000e+00 
          2.5000000000e-01 1.4615385000e+01 0.0000000000e+00 
          2.5000000000e-01 1.5384615000e+01 0.0000000000e+00 
          2.5000000000e-01 1.6153846000e+01 0.0000000000e+00 
          2.5000000000e-01 1.6923077000e+01 0.0000000000e+00 
          2.5000000000e-01 1.7692308000e+01 0.0000000000e+00 
          2.5000000000e-01 1.8461538000e+01 0.0000000000e+00 
          2.5000000000e-01 1.9230769000e+01 0.0000000000e+00 
          2.5000000000e-01 2.0000000000e+01 0.0000000000e+00 
          2.5000000000e-01 2.0769231000e+01 0.0000000000e+00 
          2.5000000000e-01 2.1538462000e+01 0.0000000000e+00 
          2.5000000000e-01 2.2307692000e+01 0.0000000000e+00 
          2.5000000000e-01 2.3076923000e+01 0.0000000000e+00 
          2.5000000000e-01 2.3846154000e+01 0.0000000000e+00 
          2.5000000000e-01 2.4615385000e+01 0.0000000000e+00 
          2.5000000000e-01 2.5384615000e+01 0.0000000000e+00 
          2.5000000000e-01 2.6153846000e+01 0.0000000000e+00 
          2.5000000000e-01 2.6923077000e+01 0.0000000000e+00 
          2.5000000000e-01 2.7692308000e+01 0.0000000000e+00 
          2.5000000000e-01 2.8461538000e+01 0.0000000000e+00 
          2.5000000000e-01 2.9230769000e+01 0.0000000000e+00 
          0.0000000000e+00 7.6923100000e-01 0.0000000000e+00 
          0.0000000000e+00 1.5384620000e+00 0.0000000000e+00 
          0.0000000000e+00 2.3076920000e+00 0.0000000000e+00 
          0.0000000000e+00 3.0769230000e+00 0.0000000000e+00 
          0.0000000000e+00 3.8461540000e+00 0.0000000000e+00 
          0.0000000000e+00 4.6153850000e+00 0.0000000000e+00 
          0.0000000000e+00 5.3846150000e+00 0.0000000000e+00 
          0.0000000000e+00 6.1538460000e+00 0.0000000000e+00 
          0.0000000000e+00 6.9230770000e+00 0.0000000000e+00 
          0.0000000000e+00 7.6923080000e+00 0.0000000000e+00 
          0.0000000000e+00 8.4615380000e+00 0.0000000000e+00 
          0.0000000000e+00 9.2307690000e+00 0.0000000000e+00 
          0.0000000000e+00 1.0000000000e+01 0.0000000000e+00 
          0.0000000000e+00 1.0769231000e+01 0.0000000000e+00 
          0.0000000000e+00 1.1538462000e+01 0.0000000000e+00 
          0.0000000000e+00 1.2307692000e+01 0.0000000000e+00 
          0.0000000000e+00 1.3076923000e+01 0.0000000000e+00 
          0.0000000000e+00 1.3846154000e+01 0.0000000000e+00 
          0.0000000000e+00 1.4615385000e+01 0.0000000000e+00 
          0.0000000000e+00 1.5384615000e+01 0.0000000000e+00 
          0.0000000000e+00 1.6153846000e+01 0.0000000000e+00 
          0.0000000000e+00 1.6923077000e+01 0.0000000000e+00 
          0.0000000000e+00 1.7692308000e+01 0.0000000000e+00 
          0.0000000000e+00 1.8461538000e+01 0.0000000000e+00 
          0.0000000000e+00 1.9230769000e+01 0.0000000000e+00 
          0.0000000000e+00 2.0000000000e+01 0.0000000000e+00 
          0.0000000000e+00 2.0769231000e+01 0.0000000000e+00 
          0.0000000000e+00 2.1538462000e+01 0.0000000000e+00 
          0.0000000000e+00 2.2307692000e+01 0.0000000000e+00 
          0.0000000000e+00 2.3076923000e+01 0.0000000000e+00 
          0.0000000000e+00 2.3846154000e+01 0.0000000000e+00 
          0.0000000000e+00 2.4615385000e+01 0.0000000000e+00 
          0.0000000000e+00 2.5384615000e+01 0.0000000000e+00 
          0.0000000000e+00 2.6153846000e+01 0.0000000000e+00 
          0.0000000000e+00 2.6923077000e+01 0.0000000000e+00 
          0.0000000000e+00 2.7692308000e+01 0.0000000000e+00 
          0.0000000000e+00 2.8461538000e+01 0.0000000000e+00 
          0.0000000000e+00 2.9230769000e+01 0.0000000000e+00 
        </DataArray>
      </Points>
      <Cells>
        <DataArray type="Int64" Name="connectivity" format="ascii">
          0 1 4 42 
          42 4 5 43 
          43 5 6 44 
          44 6 7 45 
          45 7 8 46 
          46 8 9 47 
          47 9 10 48 
          48 10 11 49 
          49 11 12 50 
          50 12 13 51 
          51 13 14 52 
          52 14 15 53 
          53 15 16 54 
          54 16 17 55 
          55 17 18 56 
          56 18 19 57 
          57 19 20 58 
          58 20 21 59 
          59 21 22 60 
          60 22 23 61 
          61 23 24 62 
          62 24 25 63 
          63 25 26 64 
          64 26 27 65 
          65 27 28 66 
          66 28 29 67 
          67 29 30 68 
          68 30 31 69 
          69 31 32 70 
          70 32 33 71 
          71 33 34 72 
          72 34 35 73 
          73 35 36 74 
          74 36 37 75 
          75 37 38 76 
          76 38 39 77 
          77 39 40 78 
          78 40 41 79 
          79 41 2 3 
        </DataArray>
        <DataArray type="Int64" Name="offsets" format="ascii">
          4
          8
          12
          16
          20
          24
          28
          32
          36
          40
          44
          48
          52
          56
          60
          64
          68
          72
          76
          80
          84
          88
          92
          96
          100
          104
          108
          112
          116
          120
          124
          128
          132
          136
          140
          144
          148
          152
          156
        </DataArray>
        <DataArray type="Int64" Name="types" format="ascii">
          9
          9
          9
          9
          9
          9
          9
          9
          9
          9
          9
          9
          9
          9
          9
          9
          9
          9
          9
          9
          9
          9
          9
          9
          9
          9
          9
          9
          9
          9
          9
          9
          9
          9
          9
          9
          9
          9
          9
        </DataArray>
      </Cells>
      <PointData>
        <DataArray type="Int64" Name="NodeTag" format="ascii">
          1
          2
          3
          4
          7
          8
          9
          10
          11
          12
          13
          14
          15
          16
          17
          18
          19
          20
          21
          22
          23
          24
          25
          26
          27
          28
          29
          30
          31
          32
          33
          34
          35
          36
          37
          38
          39
          40
          41
          42
          43
          44
          45
          46
          47
          48
          49
          50
          51
          52
          53
          54
          55
          56
          57
          58
          59
          60
          61
          62
          63
          64
          65
          66
          67
          68
          69
          70
          71
          72
          73
          74
          75
          76
          77
          78
          79
          80
          81
          82
        </DataArray>
        <DataArray type="Float64" Name="Velocity" NumberOfComponents="3" format="ascii">
          1.4052081514e-06 -7.7843728209e-05 0.0000000000e+00 
          1.4052081514e-06 -7.7843728209e-05 0.0000000000e+00 
          -2.1989110372e-06 -7.7845245777e-05 0.0000000000e+00 
          -2.1989110372e-06 -7.7845245777e-05 0.0000000000e+00 
          1.2779713212e-06 -7.7838803019e-05 0.0000000000e+00 
          1.1499841794e-06 -7.7852390631e-05 0.0000000000e+00 
          1.0198617981e-06 -7.7836683646e-05 0.0000000000e+00 
          8.8846689831e-07 -7.7856954449e-05 0.0000000000e+00 
          7.5684259946e-07 -7.7818305422e-05 0.0000000000e+00 
          6.2483050572e-07 -7.7887961816e-05 0.0000000000e+00 
          4.9098682199e-07 -7.7791488648e-05 0.0000000000e+00 
          3.6073496306e-07 -7.7890341129e-05 0.0000000000e+00 
          2.2649798589e-07 -7.7821802924e-05 0.0000000000e+00 
          9.6535029375e-08 -7.7835771793e-05 0.0000000000e+00 
          -3.3418825060e-08 -7.7881501227e-05 0.0000000000e+00 
          -1.6354820128e-07 -7.7792143878e-05 0.0000000000e+00 
          -2.8967570707e-07 -7.7894529737e-05 0.0000000000e+00 
          -4.1433773998e-07 -7.7809359813e-05 0.0000000000e+00 
          -5.4039538030e-07 -7.7862105589e-05 0.0000000000e+00 
          -6.5612076874e-07 -7.7837902019e-05 0.0000000000e+00 
          -7.7876135774e-07 -7.7848428359e-05 0.0000000000e+00 
          -8.8977176278e-07 -7.7838251467e-05 0.0000000000e+00 
          -1.0027700956e-06 -7.7850934081e-05 0.0000000000e+00 
          -1.1109188481e-06 -7.7843694422e-05 0.0000000000e+00 
          -1.2121999174e-06 -7.7836165693e-05 0.0000000000e+00 
          -1.3163148266e-06 -7.7856000660e-05 0.0000000000e+00 
          -1.4063671088e-06 -7.7841488697e-05 0.0000000000e+00 
          -1.5021704316e-06 -7.7831053934e-05 0.0000000000e+00 
          -1.5852397712e-06 -7.7870590670e-05 0.0000000000e+00 
          -1.6663212039e-06 -7.7815600104e-05 0.0000000000e+00 
          -1.7449602254e-06 -7.7868203480e-05 0.0000000000e+00 
          -1.8111358639e-06 -7.7828413240e-05 0.0000000000e+00 
          -1.8806024525e-06 -7.7850466170e-05 0.0000000000e+00 
          -1.9364176839e-06 -7.7852059911e-05 0.0000000000e+00 
          -1.9913850081e-06 -7.7821933325e-05 0.0000000000e+00 
          -2.0397071138e-06 -7.7875855680e-05 0.0000000000e+00 
          -2.0780008387e-06 -7.7815377657e-05 0.0000000000e+00 
          -2.1176592463e-06 -7.7861221963e-05 0.0000000000e+00 
          -2.1419530763e-06 -7.7841898366e-05 0.0000000000e+00 
          -2.1676856569e-06 -7.7838540878e-05 0.0000000000e+00 
          -2.1835622459e-06 -7.7850709353e-05 0.0000000000e+00 
          -2.1900773289e-06 -7.7841633498e-05 0.0000000000e+00 
          1.2779713212e-06 -7.7838803019e-05 0.0000000000e+00 
          1.1499841794e-06 -7.7852390631e-05 0.0000000000e+00 
          1.0198617981e-06 -7.7836683646e-05 0.0000000000e+00 
          8.8846689831e-07 -7.7856954449e-05 0.0000000000e+00 
          7.5684259946e-07 -7.7818305422e-05 0.0000000000e+00 
          6.2483050572e-07 -7.7887961816e-05 0.0000000000e+00 
          4.9098682199e-07 -7.7791488648e-05 0.0000000000e+00 
          3.6073496306e-07 -7.7890341129e-05 0.0000000000e+00 
          2.2649798589e-07 -7.7821802924e-05 0.0000000000e+00 
          9.6535029375e-08 -7.7835771793e-05 0.0000000000e+00 
          -3.3418825060e-08 -7.7881501227e-05 0.0000000000e+00 
          -1.6354820128e-07 -7.7792143878e-05 0.0000000000e+00 
          -2.8967570707e-07 -7.7894529737e-05 0.0000000000e+00 
          -4.1433773998e-07 -7.7809359813e-05 0.0000000000e+00 
          -5.4039538030e-07 -7.7862105589e-05 0.0000000000e+00 
          -6.5612076874e-07 -7.7837902019e-05 0.0000000000e+00 
          -7.7876135774e-07 -7.7848428359e-05 0.0000000000e+00 
          -8.8977176278e-07 -7.7838251467e-05 0.0000000000e+00 
          -1.0027700956e-06 -7.7850934081e-05 0.0000000000e+00 
          -1.1109188481e-06 -7.7843694422e-05 0.0000000000e+00 
          -1.2121999174e-06 -7.7836165693e-05 0.0000000000e+00 
          -1.3163148266e-06 -7.7856000660e-05 0.0000000000e+00 
          -1.4063671088e-06 -7.7841488697e-05 0.0000000000e+00 
          -1.5021704316e-06 -7.7831053934e-05 0.0000000000e+00 
          -1.5852397712e-06 -7.7870590670e-05 0.0000000000e+00 
          -1.6663212039e-06 -7.7815600104e-05 0.0000000000e+00 
          -1.7449602254e-06 -7.7868203480e-05 0.0000000000e+00 
          -1.8111358639e-06 -7.7828413240e-05 0.0000000000e+00 
          -1.8806024525e-06 -7.7850466170e-05 0.0000000000e+00 
          -1.9364176839e-06 -7.7852059911e-05 0.0000000000e+00 
          -1.9913850081e-06 -7.7821933325e-05 0.0000000000e+00 
          -2.0397071138e-06 -7.7875855680e-05 0.0000000000e+00 
          -2.0780008387e-06 -7.7815377657e-05 0.0000000000e+00 
          -2.1176592463e-06 -7.7861221963e-05 0.0000000000e+00 
          -2.1419530763e-06 -7.7841898366e-05 0.0000000000e+00 
          -2.1676856569e-06 -7.7838540878e-05 0.0000000000e+00 
          -2.1835622459e-06 -7.7850709353e-05 0.0000000000e+00 
          -2.1900773289e-06 -7.7841633498e-05 0.0000000000e+00 
        </DataArray>
        <DataArray type="Float64" Name="Displacement" NumberOfComponents="3" format="ascii">
          2.1623804113e-08 -7.3380616838e-04 0.0000000000e+00 
          2.1623804113e-08 -7.3380616838e-04 0.0000000000e+00 
          5.8282017487e-07 -7.5738646580e-04 0.0000000000e+00 
          5.8282017487e-07 -7.5738646580e-04 0.0000000000e+00 
          4.4917510366e-08 -7.3499989942e-04 0.0000000000e+00 
          6.8091220482e-08 -7.3616266178e-04 0.0000000000e+00 
          9.1117829965e-08 -7.3729437461e-04 0.0000000000e+00 
          1.1395730966e-07 -7.3839509339e-04 0.0000000000e+00 
          1.3658363543e-07 -7.3946484174e-04 0.0000000000e+00 
          1.5895721045e-07 -7.4050350526e-04 0.0000000000e+00 
          1.8105556832e-07 -7.4151127021e-04 0.0000000000e+00 
          2.0283677236e-07 -7.4248790662e-04 0.0000000000e+00 
          2.2427778255e-07 -7.4343364850e-04 0.0000000000e+00 
          2.4534600286e-07 -7.4434831860e-04 0.0000000000e+00 
          2.6600736642e-07 -7.4523197440e-04 0.0000000000e+00 
          2.8623828857e-07 -7.4608470469e-04 0.0000000000e+00 
          3.0600944540e-07 -7.4690630222e-04 0.0000000000e+00 
          3.2528266429e-07 -7.4769702610e-04 0.0000000000e+00 
          3.4404986394e-07 -7.4845664209e-04 0.0000000000e+00 
          3.6226304274e-07 -7.4918530264e-04 0.0000000000e+00 
          3.7990834271e-07 -7.4988295078e-04 0.0000000000e+00 
          3.9696626797e-07 -7.5054957414e-04 0.0000000000e+00 
          4.1338577523e-07 -7.5118521569e-04 0.0000000000e+00 
          4.2918510456e-07 -7.5178983009e-04 0.0000000000e+00 
          4.4429797252e-07 -7.5236345392e-04 0.0000000000e+00 
          4.5873185682e-07 -7.5290605576e-04 0.0000000000e+00 
          4.7246094398e-07 -7.5341767691e-04 0.0000000000e+00 
          4.8544828037e-07 -7.5389823996e-04 0.0000000000e+00 
          4.9770253591e-07 -7.5434789695e-04 0.0000000000e+00 
          5.0918147678e-07 -7.5476638178e-04 0.0000000000e+00 
          5.1988165863e-07 -7.5515408214e-04 0.0000000000e+00 
          5.2978665789e-07 -7.5551054709e-04 0.0000000000e+00 
          5.3887581817e-07 -7.5583616888e-04 0.0000000000e+00 
          5.4714083972e-07 -7.5613074807e-04 0.0000000000e+00 
          5.5457184233e-07 -7.5639421557e-04 0.0000000000e+00 
          5.6115005250e-07 -7.5662688382e-04 0.0000000000e+00 
          5.6687182649e-07 -7.5682830836e-04 0.0000000000e+00 
          5.7173262001e-07 -7.5699892857e-04 0.0000000000e+00 
          5.7570952123e-07 -7.5713841009e-04 0.0000000000e+00 
          5.7881882219e-07 -7.5724694974e-04 0.0000000000e+00 
          5.8103826168e-07 -7.5732446021e-04 0.0000000000e+00 
          5.8236775885e-07 -7.5737097797e-04 0.0000000000e+00 
          4.4917510366e-08 -7.3499989942e-04 0.0000000000e+00 
          6.8091220482e-08 -7.3616266178e-04 0.0000000000e+00 
          9.1117829965e-08 -7.3729437461e-04 0.0000000000e+00 
          1.1395730966e-07 -7.3839509339e-04 0.0000000000e+00 
          1.3658363543e-07 -7.3946484174e-04 0.0000000000e+00 
          1.5895721045e-07 -7.4050350526e-04 0.0000000000e+00 
          1.8105556832e-07 -7.4151127021e-04 0.0000000000e+00 
          2.0283677236e-07 -7.4248790662e-04 0.0000000000e+00 
          2.2427778255e-07 -7.4343364850e-04 0.0000000000e+00 
          2.4534600286e-07 -7.4434831860e-04 0.0000000000e+00 
          2.6600736642e-07 -7.4523197440e-04 0.0000000000e+00 
          2.8623828857e-07 -7.4608470469e-04 0.0000000000e+00 
          3.0600944540e-07 -7.4690630222e-04 0.0000000000e+00 
          3.2528266429e-07 -7.4769702610e-04 0.0000000000e+00 
          3.4404986394e-07 -7.4845664209e-04 0.0000000000e+00 
          3.6226304274e-07 -7.4918530264e-04 0.0000000000e+00 
          3.7990834271e-07 -7.4988295078e-04 0.0000000000e+00 
          3.9696626797e-07 -7.5054957414e-04 0.0000000000e+00 
          4.1338577523e-07 -7.5118521569e-04 0.0000000000e+00 
          4.2918510456e-07 -7.5178983009e-04 0.0000000000e+00 
          4.4429797252e-07 -7.5236345392e-04 0.0000000000e+00 
          4.5873185682e-07 -7.5290605576e-04 0.0000000000e+00 
          4.7246094398e-07 -7.5341767691e-04 0.0000000000e+00 
          4.8544828037e-07 -7.5389823996e-04 0.0000000000e+00 
          4.9770253591e-07 -7.5434789695e-04 0.0000000000e+00 
          5.0918147678e-07 -7.5476638178e-04 0.0000000000e+00 
          5.1988165863e-07 -7.5515408214e-04 0.0000000000e+00 
          5.2978665789e-07 -7.5551054709e-04 0.0000000000e+00 
          5.3887581817e-07 -7.5583616888e-04 0.0000000000e+00 
          5.4714083972e-07 -7.5613074807e-04 0.0000000000e+00 
          5.5457184233e-07 -7.5639421557e-04 0.0000000000e+00 
          5.6115005250e-07 -7.5662688382e-04 0.0000000000e+00 
          5.6687182649e-07 -7.5682830836e-04 0.0000000000e+00 
          5.7173262001e-07 -7.5699892857e-04 0.0000000000e+00 
          5.7570952123e-07 -7.5713841009e-04 0.0000000000e+00 
          5.7881882219e-07 -7.5724694974e-04 0.0000000000e+00 
          5.8103826168e-07 -7.5732446021e-04 0.0000000000e+00 
          5.8236775885e-07 -7.5737097797e-04 0.0000000000e+00 
        </DataArray>
        <DataArray type="Float64" Name="Acceleration" NumberOfComponents="3" format="ascii">
          -7.5963738798e-06 3.9226416348e-07 0.0000000000e+00 
          -7.5963738798e-06 3.9226416348e-07 0.0000000000e+00 
          -8.1527153455e-05 -5.5267356941e-06 0.0000000000e+00 
          -8.1527153455e-05 -5.5267356941e-06 0.0000000000e+00 
          -1.0811888928e-05 -6.7875402733e-06 0.0000000000e+00 
          -1.3251368933e-05 7.5236311283e-06 0.0000000000e+00 
          -1.6863471494e-05 -1.9449124675e-06 0.0000000000e+00 
          -1.9205590055e-05 -6.4722636720e-06 0.0000000000e+00 
          -2.2773340784e-05 1.4146646915e-05 0.0000000000e+00 
          -2.4795037233e-05 -1.9654329733e-05 0.0000000000e+00 
          -2.8578793621e-05 2.2263067349e-05 0.0000000000e+00 
          -3.0652137141e-05 -2.0149922313e-05 0.0000000000e+00 
          -3.3589104699e-05 1.1794147853e-05 0.0000000000e+00 
          -3.6656199769e-05 1.2310139936e-06 0.0000000000e+00 
          -3.8786067225e-05 -1.4353788203e-05 0.0000000000e+00 
          -4.1425762974e-05 2.2781245386e-05 0.0000000000e+00 
          -4.4865190904e-05 -2.3910382061e-05 0.0000000000e+00 
          -4.5593333551e-05 1.8300537221e-05 0.0000000000e+00 
          -4.9916272348e-05 -9.3388469598e-06 0.0000000000e+00 
          -5.1169169566e-05 1.2675603633e-06 0.0000000000e+00 
          -5.2923622092e-05 3.3236416989e-06 0.0000000000e+00 
          -5.7522722479e-05 -4.4195113432e-06 0.0000000000e+00 
          -5.5877441664e-05 3.6140197485e-06 0.0000000000e+00 
          -6.1853416232e-05 -2.6976655275e-06 0.0000000000e+00 
          -6.1177768957e-05 2.8206866913e-06 0.0000000000e+00 
          -6.3503613351e-05 -4.6205237643e-06 0.0000000000e+00 
          -6.6831732037e-05 9.2178507808e-06 0.0000000000e+00 
          -6.6053596365e-05 -1.7952941118e-05 0.0000000000e+00 
          -6.9857382735e-05 2.9881151987e-05 0.0000000000e+00 
          -7.0167725136e-05 -3.9981040388e-05 0.0000000000e+00 
          -7.1647522825e-05 4.1278231175e-05 0.0000000000e+00 
          -7.3507685472e-05 -2.9476255685e-05 0.0000000000e+00 
          -7.4257640325e-05 6.6147026597e-06 0.0000000000e+00 
          -7.5146753940e-05 1.8984304465e-05 0.0000000000e+00 
          -7.6838282222e-05 -3.7316778369e-05 0.0000000000e+00 
          -7.7165971238e-05 4.2731035792e-05 0.0000000000e+00 
          -7.7576761695e-05 -3.6350177447e-05 0.0000000000e+00 
          -7.9640442110e-05 2.3849185280e-05 0.0000000000e+00 
          -7.8172496212e-05 -1.1616840165e-05 0.0000000000e+00 
          -8.0178067704e-05 4.1022847796e-06 0.0000000000e+00 
          -8.0185873178e-05 -2.4349329000e-06 0.0000000000e+00 
          -7.9026743563e-05 4.2514949968e-06 0.0000000000e+00 
          -1.0811888928e-05 -6.7875402733e-06 0.0000000000e+00 
          -1.3251368933e-05 7.5236311283e-06 0.0000000000e+00 
          -1.6863471494e-05 -1.9449124675e-06 0.0000000000e+00 
          -1.9205590055e-05 -6.4722636720e-06 0.0000000000e+00 
          -2.2773340784e-05 1.4146646915e-05 0.0000000000e+00 
          -2.4795037233e-05 -1.9654329733e-05 0.0000000000e+00 
          -2.8578793621e-05 2.2263067349e-05 0.0000000000e+00 
          -3.0652137141e-05 -2.0149922313e-05 0.0000000000e+00 
          -3.3589104699e-05 1.1794147853e-05 0.0000000000e+00 
          -3.6656199769e-05 1.2310139936e-06 0.0000000000e+00 
          -3.8786067225e-05 -1.4353788203e-05 0.0000000000e+00 
          -4.1425762974e-05 2.2781245386e-05 0.0000000000e+00 
          -4.4865190904e-05 -2.3910382061e-05 0.0000000000e+00 
          -4.5593333551e-05 1.8300537221e-05 0.0000000000e+00 
          -4.9916272348e-05 -9.3388469598e-06 0.0000000000e+00 
          -5.1169169566e-05 1.2675603633e-06 0.0000000000e+00 
          -5.2923622092e-05 3.3236416989e-06 0.0000000000e+00 
          -5.7522722479e-05 -4.4195113432e-06 0.0000000000e+00 
          -5.5877441664e-05 3.6140197485e-06 0.0000000000e+00 
          -6.1853416232e-05 -2.6976655275e-06 0.0000000000e+00 
          -6.1177768957e-05 2.8206866913e-06 0.0000000000e+00 
          -6.3503613351e-05 -4.6205237643e-06 0.0000000000e+00 
          -6.6831732037e-05 9.2178507808e-06 0.0000000000e+00 
          -6.6053596365e-05 -1.7952941118e-05 0.0000000000e+00 
          -6.9857382735e-05 2.9881151987e-05 0.0000000000e+00 
          -7.0167725136e-05 -3.9981040388e-05 0.0000000000e+00 
          -7.1647522825e-05 4.1278231175e-05 0.0000000000e+00 
          -7.3507685472e-05 -2.9476255685e-05 0.0000000000e+00 
          -7.4257640325e-05 6.6147026597e-06 0.0000000000e+00 
          -7.5146753940e-05 1.8984304465e-05 0.0000000000e+00 
          -7.6838282222e-05 -3.7316778369e-05 0.0000000000e+00 
          -7.7165971238e-05 4.2731035792e-05 0.0000000000e+00 
          -7.7576761695e-05 -3.6350177447e-05 0.0000000000e+00 
          -7.9640442110e-05 2.3849185280e-05 0.0000000000e+00 
          -7.8172496212e-05 -1.1616840165e-05 0.0000000000e+00 
          -8.0178067704e-05 4.1022847796e-06 0.0000000000e+00 
          -8.0185873178e-05 -2.4349329000e-06 0.0000000000e+00 
          -7.9026743563e-05 4.2514949968e-06 0.0000000000e+00 
        </DataArray>
        <DataArray type="Float64" Name="Reaction" NumberOfComponents="3" format="ascii">
          0.0000000000e+00 0.0000000000e+00 0.0000000000e+00 
          0.0000000000e+00 0.0000000000e+00 0.0000000000e+00 
          0.0000000000e+00 0.0000000000e+00 0.0000000000e+00 
          0.0000000000e+00 0.0000000000e+00 0.0000000000e+00 
          0.0000000000e+00 0.0000000000e+00 0.0000000000e+00 
          0.0000000000e+00 0.0000000000e+00 0.0000000000e+00 
          0.0000000000e+00 0.0000000000e+00 0.0000000000e+00 
          0.0000000000e+00 0.0000000000e+00 0.0000000000e+00 
          0.0000000000e+00 0.0000000000e+00 0.0000000000e+00 
          0.0000000000e+00 0.0000000000e+00 0.0000000000e+00 
          0.0000000000e+00 0.0000000000e+00 0.0000000000e+00 
          0.0000000000e+00 0.0000000000e+00 0.0000000000e+00 
          0.0000000000e+00 0.0000000000e+00 0.0000000000e+00 
          0.0000000000e+00 0.0000000000e+00 0.0000000000e+00 
          0.0000000000e+00 0.0000000000e+00 0.0000000000e+00 
          0.0000000000e+00 0.0000000000e+00 0.0000000000e+00 
          0.0000000000e+00 0.0000000000e+00 0.0000000000e+00 
          0.0000000000e+00 0.0000000000e+00 0.0000000000e+00 
          0.0000000000e+00 0.0000000000e+00 0.0000000000e+00 
          0.0000000000e+00 0.0000000000e+00 0.0000000000e+00 
          0.0000000000e+00 0.0000000000e+00 0.0000000000e+00 
          0.0000000000e+00 0.0000000000e+00 0.0000000000e+00 
          0.0000000000e+00 0.0000000000e+00 0.0000000000e+00 
          0.0000000000e+00 0.0000000000e+00 0.0000000000e+00 
          0.0000000000e+00 0.0000000000e+00 0.0000000000e+00 
          0.0000000000e+00 0.0000000000e+00 0.0000000000e+00 
          0.0000000000e+00 0.0000000000e+00 0.0000000000e+00 
          0.0000000000e+00 0.0000000000e+00 0.0000000000e+00 
          0.0000000000e+00 0.0000000000e+00 0.0000000000e+00 
          0.0000000000e+00 0.0000000000e+00 0.0000000000e+00 
          0.0000000000e+00 0.0000000000e+00 0.0000000000e+00 
          0.0000000000e+00 0.0000000000e+00 0.0000000000e+00 
          0.0000000000e+00 0.0000000000e+00 0.0000000000e+00 
          0.0000000000e+00 0.0000000000e+00 0.0000000000e+00 
          0.0000000000e+00 0.0000000000e+00 0.0000000000e+00 
          0.0000000000e+00 0.0000000000e+00 0.0000000000e+00 
          0.0000000000e+00 0.0000000000e+00 0.0000000000e+00 
          0.0000000000e+00 0.0000000000e+00 0.0000000000e+00 
          0.0000000000e+00 0.0000000000e+00 0.0000000000e+00 
          0.0000000000e+00 0.0000000000e+00 0.0000000000e+00 
          0.0000000000e+00 0.0000000000e+00 0.0000000000e+00 
          0.0000000000e+00 0.0000000000e+00 0.0000000000e+00 
          0.0000000000e+00 0.0000000000e+00 0.0000000000e+00 
          0.0000000000e+00 0.0000000000e+00 0.0000000000e+00 
          0.0000000000e+00 0.0000000000e+00 0.0000000000e+00 
          0.0000000000e+00 0.0000000000e+00 0.0000000000e+00 
          0.0000000000e+00 0.0000000000e+00 0.0000000000e+00 
          0.0000000000e+00 0.0000000000e+00 0.0000000000e+00 
          0.0000000000e+00 0.0000000000e+00 0.0000000000e+00 
          0.0000000000e+00 0.0000000000e+00 0.0000000000e+00 
          0.0000000000e+00 0.0000000000e+00 0.0000000000e+00 
          0.0000000000e+00 0.0000000000e+00 0.0000000000e+00 
          0.0000000000e+00 0.0000000000e+00 0.0000000000e+00 
          0.0000000000e+00 0.0000000000e+00 0.0000000000e+00 
          0.0000000000e+00 0.0000000000e+00 0.0000000000e+00 
          0.0000000000e+00 0.0000000000e+00 0.0000000000e+00 
          0.0000000000e+00 0.0000000000e+00 0.0000000000e+00 
          0.0000000000e+00 0.0000000000e+00 0.0000000000e+00 
          0.0000000000e+00 0.0000000000e+00 0.0000000000e+00 
          0.0000000000e+00 0.0000000000e+00 0.0000000000e+00 
          0.0000000000e+00 0.0000000000e+00 0.0000000000e+00 
          0.0000000000e+00 0.0000000000e+00 0.0000000000e+00 
          0.0000000000e+00 0.0000000000e+00 0.0000000000e+00 
          0.0000000000e+00 0.0000000000e+00 0.0000000000e+00 
          0.0000000000e+00 0.0000000000e+00 0.0000000000e+00 
          0.0000000000e+00 0.0000000000e+00 0.0000000000e+00 
          0.0000000000e+00 0.0000000000e+00 0.0000000000e+00 
          0.0000000000e+00 0.0000000000e+00 0.0000000000e+00 
          0.0000000000e+00 0.0000000000e+00 0.0000000000e+00 
          0.0000000000e+00 0.0000000000e+00 0.0000000000e+00 
          0.0000000000e+00 0.0000000000e+00 0.0000000000e+00 
          0.0000000000e+00 0.0000000000e+00 0.0000000000e+00 
          0.0000000000e+00 0.0000000000e+00 0.0000000000e+00 
          0.0000000000e+00 0.0000000000e+00 0.0000000000e+00 
          0.0000000000e+00 0.0000000000e+00 0.0000000000e+00 
          0.0000000000e+00 0.0000000000e+00 0.0000000000e+00 
          0.0000000000e+00 0.0000000000e+00 0.0000000000e+00 
          0.0000000000e+00 0.0000000000e+00 0.0000000000e+00 
          0.0000000000e+00 0.0000000000e+00 0.0000000000e+00 
          0.0000000000e+00 0.0000000000e+00 0.0000000000e+00 
        </DataArray>
      </PointData>
      <CellData>
        <DataArray type="Int64" Name="ElementTag" format="ascii">
          90
          91
          92
          93
          94
          95
          96
          97
          98
          99
          100
          101
          102
          103
          104
          105
          106
          107
          108
          109
          110
          111
          112
          113
          114
          115
          116
          117
          118
          119
          120
          121
          122
          123
          124
          125
          126
          127
          128
        </DataArray>
      </CellData>
    </Piece>
  </UnstructuredGrid>
</VTKFile>
