<?xml version="1.0"?>
<VTKFile type="UnstructuredGrid" version="1.0" byte_order="LittleEndian" compressor="vtkZLibDataCompressor">
  <UnstructuredGrid>
    <Piece NumberOfPoints="80" NumberOfCells="39">
      <Points>
        <DataArray type="Float64" Name="Points" NumberOfComponents="3" format="ascii">
          0.0000000000e+00 0.0000000000e+00 0.0000000000e+00 
          2.5000000000e-01 0.0000000000e+00 0.0000000000e+00 
          2.5000000000e-01 3.0000000000e+01 0.0000000000e+00 
          0.0000000000e+00 3.0000000000e+01 0.0000000000e+00 
          2.5000000000e-01 7.6923100000e-01 0.0000000000e+00 
          2.5000000000e-01 1.5384620000e+00 0.0000000000e+00 
          2.5000000000e-01 2.3076920000e+00 0.0000000000e+00 
          2.5000000000e-01 3.0769230000e+00 0.0000000000e+00 
          2.5000000000e-01 3.8461540000e+00 0.0000000000e+00 
          2.5000000000e-01 4.6153850000e+00 0.0000000000e+00 
          2.5000000000e-01 5.3846150000e+00 0.0000000000e+00 
          2.5000000000e-01 6.1538460000e+00 0.0000000000e+00 
          2.5000000000e-01 6.9230770000e+00 0.0000000000e+00 
          2.5000000000e-01 7.6923080000e+00 0.0000000000e+00 
          2.5000000000e-01 8.4615380000e+00 0.0000000000e+00 
          2.5000000000e-01 9.2307690000e+00 0.0000000000e+00 
          2.5000000000e-01 1.0000000000e+01 0.0000000000e+00 
          2.5000000000e-01 1.0769231000e+01 0.0000000000e+00 
          2.5000000000e-01 1.1538462000e+01 0.0000000000e+00 
          2.5000000000e-01 1.2307692000e+01 0.0000000000e+00 
          2.5000000000e-01 1.3076923000e+01 0.0000000000e+00 
          2.5000000000e-01 1.3846154000e+01 0.0000000000e+00 
          2.5000000000e-01 1.4615385000e+01 0.0000000000e+00 
          2.5000000000e-01 1.5384615000e+01 0.0000000000e+00 
          2.5000000000e-01 1.6153846000e+01 0.0000000000e+00 
          2.5000000000e-01 1.6923077000e+01 0.0000000000e+00 
          2.5000000000e-01 1.7692308000e+01 0.0000000000e+00 
          2.5000000000e-01 1.8461538000e+01 0.0000000000e+00 
          2.5000000000e-01 1.9230769000e+01 0.0000000000e+00 
          2.5000000000e-01 2.0000000000e+01 0.0000000000e+00 
          2.5000000000e-01 2.0769231000e+01 0.0000000000e+00 
          2.5000000000e-01 2.1538462000e+01 0.0000000000e+00 
          2.5000000000e-01 2.2307692000e+01 0.0000000000e+00 
          2.5000000000e-01 2.3076923000e+01 0.0000000000e+00 
          2.5000000000e-01 2.3846154000e+01 0.0000000000e+00 
          2.5000000000e-01 2.4615385000e+01 0.0000000000e+00 
          2.5000000000e-01 2.5384615000e+01 0.0000000000e+00 
          2.5000000000e-01 2.6153846000e+01 0.0000000000e+00 
          2.5000000000e-01 2.6923077000e+01 0.0000000000e+00 
          2.5000000000e-01 2.7692308000e+01 0.0000000000e+00 
          2.5000000000e-01 2.8461538000e+01 0.0000000000e+00 
          2.5000000000e-01 2.9230769000e+01 0.0000000000e+00 
          0.0000000000e+00 7.6923100000e-01 0.0000000000e+00 
          0.0000000000e+00 1.5384620000e+00 0.0000000000e+00 
          0.0000000000e+00 2.3076920000e+00 0.0000000000e+00 
          0.0000000000e+00 3.0769230000e+00 0.0000000000e+00 
          0.0000000000e+00 3.8461540000e+00 0.0000000000e+00 
          0.0000000000e+00 4.6153850000e+00 0.0000000000e+00 
          0.0000000000e+00 5.3846150000e+00 0.0000000000e+00 
          0.0000000000e+00 6.1538460000e+00 0.0000000000e+00 
          0.0000000000e+00 6.9230770000e+00 0.0000000000e+00 
          0.0000000000e+00 7.6923080000e+00 0.0000000000e+00 
          0.0000000000e+00 8.4615380000e+00 0.0000000000e+00 
          0.0000000000e+00 9.2307690000e+00 0.0000000000e+00 
          0.0000000000e+00 1.0000000000e+01 0.0000000000e+00 
          0.0000000000e+00 1.0769231000e+01 0.0000000000e+00 
          0.0000000000e+00 1.1538462000e+01 0.0000000000e+00 
          0.0000000000e+00 1.2307692000e+01 0.0000000000e+00 
          0.0000000000e+00 1.3076923000e+01 0.0000000000e+00 
          0.0000000000e+00 1.3846154000e+01 0.0000000000e+00 
          0.0000000000e+00 1.4615385000e+01 0.0000000000e+00 
          0.0000000000e+00 1.5384615000e+01 0.0000000000e+00 
          0.0000000000e+00 1.6153846000e+01 0.0000000000e+00 
          0.0000000000e+00 1.6923077000e+01 0.0000000000e+00 
          0.0000000000e+00 1.7692308000e+01 0.0000000000e+00 
          0.0000000000e+00 1.8461538000e+01 0.0000000000e+00 
          0.0000000000e+00 1.9230769000e+01 0.0000000000e+00 
          0.0000000000e+00 2.0000000000e+01 0.0000000000e+00 
          0.0000000000e+00 2.0769231000e+01 0.0000000000e+00 
          0.0000000000e+00 2.1538462000e+01 0.0000000000e+00 
          0.0000000000e+00 2.2307692000e+01 0.0000000000e+00 
          0.0000000000e+00 2.3076923000e+01 0.0000000000e+00 
          0.0000000000e+00 2.3846154000e+01 0.0000000000e+00 
          0.0000000000e+00 2.4615385000e+01 0.0000000000e+00 
          0.0000000000e+00 2.5384615000e+01 0.0000000000e+00 
          0.0000000000e+00 2.6153846000e+01 0.0000000000e+00 
          0.0000000000e+00 2.6923077000e+01 0.0000000000e+00 
          0.0000000000e+00 2.7692308000e+01 0.0000000000e+00 
          0.0000000000e+00 2.8461538000e+01 0.0000000000e+00 
          0.0000000000e+00 2.9230769000e+01 0.0000000000e+00 
        </DataArray>
      </Points>
      <Cells>
        <DataArray type="Int64" Name="connectivity" format="ascii">
          0 1 4 42 
          42 4 5 43 
          43 5 6 44 
          44 6 7 45 
          45 7 8 46 
          46 8 9 47 
          47 9 10 48 
          48 10 11 49 
          49 11 12 50 
          50 12 13 51 
          51 13 14 52 
          52 14 15 53 
          53 15 16 54 
          54 16 17 55 
          55 17 18 56 
          56 18 19 57 
          57 19 20 58 
          58 20 21 59 
          59 21 22 60 
          60 22 23 61 
          61 23 24 62 
          62 24 25 63 
          63 25 26 64 
          64 26 27 65 
          65 27 28 66 
          66 28 29 67 
          67 29 30 68 
          68 30 31 69 
          69 31 32 70 
          70 32 33 71 
          71 33 34 72 
          72 34 35 73 
          73 35 36 74 
          74 36 37 75 
          75 37 38 76 
          76 38 39 77 
          77 39 40 78 
          78 40 41 79 
          79 41 2 3 
        </DataArray>
        <DataArray type="Int64" Name="offsets" format="ascii">
          4
          8
          12
          16
          20
          24
          28
          32
          36
          40
          44
          48
          52
          56
          60
          64
          68
          72
          76
          80
          84
          88
          92
          96
          100
          104
          108
          112
          116
          120
          124
          128
          132
          136
          140
          144
          148
          152
          156
        </DataArray>
        <DataArray type="Int64" Name="types" format="ascii">
          9
          9
          9
          9
          9
          9
          9
          9
          9
          9
          9
          9
          9
          9
          9
          9
          9
          9
          9
          9
          9
          9
          9
          9
          9
          9
          9
          9
          9
          9
          9
          9
          9
          9
          9
          9
          9
          9
          9
        </DataArray>
      </Cells>
      <PointData>
        <DataArray type="Int64" Name="NodeTag" format="ascii">
          1
          2
          3
          4
          7
          8
          9
          10
          11
          12
          13
          14
          15
          16
          17
          18
          19
          20
          21
          22
          23
          24
          25
          26
          27
          28
          29
          30
          31
          32
          33
          34
          35
          36
          37
          38
          39
          40
          41
          42
          43
          44
          45
          46
          47
          48
          49
          50
          51
          52
          53
          54
          55
          56
          57
          58
          59
          60
          61
          62
          63
          64
          65
          66
          67
          68
          69
          70
          71
          72
          73
          74
          75
          76
          77
          78
          79
          80
          81
          82
        </DataArray>
        <DataArray type="Float64" Name="Velocity" NumberOfComponents="3" format="ascii">
          -4.9120341567e-19 -8.4669574046e-05 0.0000000000e+00 
          -4.9120341567e-19 -8.4669574046e-05 0.0000000000e+00 
          -9.5390305320e-18 -2.4384979017e-04 0.0000000000e+00 
          -9.5390305320e-18 -2.4384979017e-04 0.0000000000e+00 
          -2.9201474229e-18 -9.0216638516e-05 0.0000000000e+00 
          1.5586448492e-18 -9.6894936395e-05 0.0000000000e+00 
          -3.4038968045e-18 -1.0371878271e-04 0.0000000000e+00 
          7.9997103669e-18 -1.0999762846e-04 0.0000000000e+00 
          -8.4589294579e-18 -1.1573732696e-04 0.0000000000e+00 
          7.7712995963e-18 -1.2131648532e-04 0.0000000000e+00 
          3.6876392327e-18 -1.2796083032e-04 0.0000000000e+00 
          -4.0846973140e-18 -1.3468500838e-04 0.0000000000e+00 
          -5.2871590687e-18 -1.4064217102e-04 0.0000000000e+00 
          2.6683285922e-18 -1.4687389503e-04 0.0000000000e+00 
          -9.6125340305e-19 -1.5293635990e-04 0.0000000000e+00 
          -4.3747855258e-18 -1.5879176160e-04 0.0000000000e+00 
          1.2601873032e-18 -1.6526090321e-04 0.0000000000e+00 
          9.7518905109e-19 -1.7135165399e-04 0.0000000000e+00 
          1.2619684371e-18 -1.7797569180e-04 0.0000000000e+00 
          5.3089575946e-18 -1.8478915863e-04 0.0000000000e+00 
          2.3479355747e-19 -1.8989498397e-04 0.0000000000e+00 
          -8.5466532978e-21 -1.9528927034e-04 0.0000000000e+00 
          -1.4858491489e-18 -2.0191547398e-04 0.0000000000e+00 
          -2.6263019518e-19 -2.0878554021e-04 0.0000000000e+00 
          1.0565711161e-18 -2.1509991248e-04 0.0000000000e+00 
          -9.9850237176e-19 -2.2057799264e-04 0.0000000000e+00 
          1.1110740094e-18 -2.2558481600e-04 0.0000000000e+00 
          -3.9471900853e-18 -2.3053801690e-04 0.0000000000e+00 
          -5.7109723071e-19 -2.3530024511e-04 0.0000000000e+00 
          1.5922904450e-18 -2.3995755902e-04 0.0000000000e+00 
          -7.0397916655e-19 -2.4401880045e-04 0.0000000000e+00 
          2.1732622247e-18 -2.4786162267e-04 0.0000000000e+00 
          2.0815008835e-18 -2.4944687071e-04 0.0000000000e+00 
          -4.1697517143e-19 -2.4883310086e-04 0.0000000000e+00 
          -1.5852400702e-18 -2.4833708755e-04 0.0000000000e+00 
          -1.8357693275e-18 -2.4723406447e-04 0.0000000000e+00 
          3.7599829914e-18 -2.4567118789e-04 0.0000000000e+00 
          -4.5199593378e-20 -2.4435137138e-04 0.0000000000e+00 
          -1.6992410145e-18 -2.4454990528e-04 0.0000000000e+00 
          -2.7077243813e-18 -2.4424953323e-04 0.0000000000e+00 
          1.9398072567e-18 -2.4329379520e-04 0.0000000000e+00 
          6.2303151864e-18 -2.4359036185e-04 0.0000000000e+00 
          -2.9201474229e-18 -9.0216638516e-05 0.0000000000e+00 
          1.5586448492e-18 -9.6894936395e-05 0.0000000000e+00 
          -3.4038968045e-18 -1.0371878271e-04 0.0000000000e+00 
          7.9997103669e-18 -1.0999762846e-04 0.0000000000e+00 
          -8.4589294579e-18 -1.1573732696e-04 0.0000000000e+00 
          7.7712995963e-18 -1.2131648532e-04 0.0000000000e+00 
          3.6876392327e-18 -1.2796083032e-04 0.0000000000e+00 
          -4.0846973140e-18 -1.3468500838e-04 0.0000000000e+00 
          -5.2871590687e-18 -1.4064217102e-04 0.0000000000e+00 
          2.6683285922e-18 -1.4687389503e-04 0.0000000000e+00 
          -9.6125340305e-19 -1.5293635990e-04 0.0000000000e+00 
          -4.3747855258e-18 -1.5879176160e-04 0.0000000000e+00 
          1.2601873032e-18 -1.6526090321e-04 0.0000000000e+00 
          9.7518905109e-19 -1.7135165399e-04 0.0000000000e+00 
          1.2619684371e-18 -1.7797569180e-04 0.0000000000e+00 
          5.3089575946e-18 -1.8478915863e-04 0.0000000000e+00 
          2.3479355747e-19 -1.8989498397e-04 0.0000000000e+00 
          -8.5466532978e-21 -1.9528927034e-04 0.0000000000e+00 
          -1.4858491489e-18 -2.0191547398e-04 0.0000000000e+00 
          -2.6263019518e-19 -2.0878554021e-04 0.0000000000e+00 
          1.0565711161e-18 -2.1509991248e-04 0.0000000000e+00 
          -9.9850237176e-19 -2.2057799264e-04 0.0000000000e+00 
          1.1110740094e-18 -2.2558481600e-04 0.0000000000e+00 
          -3.9471900853e-18 -2.3053801690e-04 0.0000000000e+00 
          -5.7109723071e-19 -2.3530024511e-04 0.0000000000e+00 
          1.5922904450e-18 -2.3995755902e-04 0.0000000000e+00 
          -7.0397916655e-19 -2.4401880045e-04 0.0000000000e+00 
          2.1732622247e-18 -2.4786162267e-04 0.0000000000e+00 
          2.0815008835e-18 -2.4944687071e-04 0.0000000000e+00 
          -4.1697517143e-19 -2.4883310086e-04 0.0000000000e+00 
          -1.5852400702e-18 -2.4833708755e-04 0.0000000000e+00 
          -1.8357693275e-18 -2.4723406447e-04 0.0000000000e+00 
          3.7599829914e-18 -2.4567118789e-04 0.0000000000e+00 
          -4.5199593378e-20 -2.4435137138e-04 0.0000000000e+00 
          -1.6992410145e-18 -2.4454990528e-04 0.0000000000e+00 
          -2.7077243813e-18 -2.4424953323e-04 0.0000000000e+00 
          1.9398072567e-18 -2.4329379520e-04 0.0000000000e+00 
          6.2303151864e-18 -2.4359036185e-04 0.0000000000e+00 
        </DataArray>
        <DataArray type="Float64" Name="Displacement" NumberOfComponents="3" format="ascii">
          3.2720659861e-21 -3.5511417434e-05 0.0000000000e+00 
          3.2720659861e-21 -3.5511417434e-05 0.0000000000e+00 
          -1.7860416060e-20 -6.3650992082e-05 0.0000000000e+00 
          -1.7860416060e-20 -6.3650992082e-05 0.0000000000e+00 
          -1.1515366271e-20 -3.6812170139e-05 0.0000000000e+00 
          -1.9000006667e-20 -3.8084752215e-05 0.0000000000e+00 
          -1.9367182687e-20 -3.9330437913e-05 0.0000000000e+00 
          -1.0080915598e-20 -4.0545912676e-05 0.0000000000e+00 
          -8.8581821219e-21 -4.1730707023e-05 0.0000000000e+00 
          -1.9621349711e-20 -4.2887831674e-05 0.0000000000e+00 
          4.2746191508e-21 -4.4017324277e-05 0.0000000000e+00 
          7.6421840161e-21 -4.5118778337e-05 0.0000000000e+00 
          4.9465295110e-21 -4.6190405144e-05 0.0000000000e+00 
          9.8177165211e-21 -4.7230717601e-05 0.0000000000e+00 
          -2.0444608046e-20 -4.8243373175e-05 0.0000000000e+00 
          -1.4592651233e-20 -4.9229765396e-05 0.0000000000e+00 
          3.9061624009e-21 -5.0187529996e-05 0.0000000000e+00 
          -1.0537292332e-20 -5.1114615676e-05 0.0000000000e+00 
          1.2536971224e-20 -5.2011547921e-05 0.0000000000e+00 
          -1.7553577237e-20 -5.2880220939e-05 0.0000000000e+00 
          1.6367532436e-20 -5.3721409647e-05 0.0000000000e+00 
          2.1494003382e-21 -5.4534389619e-05 0.0000000000e+00 
          -2.4684212765e-21 -5.5318259980e-05 0.0000000000e+00 
          -6.8897424157e-21 -5.6072076851e-05 0.0000000000e+00 
          1.2931740075e-21 -5.6796682489e-05 0.0000000000e+00 
          3.4383477304e-21 -5.7490207122e-05 0.0000000000e+00 
          -2.0618402326e-21 -5.8153549995e-05 0.0000000000e+00 
          6.4492872841e-21 -5.8789770071e-05 0.0000000000e+00 
          -1.9091418637e-20 -5.9395525030e-05 0.0000000000e+00 
          -2.3365303700e-20 -5.9967173386e-05 0.0000000000e+00 
          -5.8412297013e-21 -6.0503196993e-05 0.0000000000e+00 
          -1.7423549922e-20 -6.1002824342e-05 0.0000000000e+00 
          1.3284199474e-20 -6.1463822526e-05 0.0000000000e+00 
          -8.6956534013e-21 -6.1884936265e-05 0.0000000000e+00 
          -6.6076627789e-21 -6.2265825591e-05 0.0000000000e+00 
          2.0597375655e-20 -6.2603641421e-05 0.0000000000e+00 
          -6.3164482506e-21 -6.2894779804e-05 0.0000000000e+00 
          4.0324250981e-21 -6.3137256440e-05 0.0000000000e+00 
          -4.4051117386e-21 -6.3330118255e-05 0.0000000000e+00 
          -1.5309320935e-20 -6.3474930114e-05 0.0000000000e+00 
          5.4693174237e-22 -6.3574517458e-05 0.0000000000e+00 
          -1.3145775690e-20 -6.3632094196e-05 0.0000000000e+00 
          -1.1515366271e-20 -3.6812170139e-05 0.0000000000e+00 
          -1.9000006667e-20 -3.8084752215e-05 0.0000000000e+00 
          -1.9367182687e-20 -3.9330437913e-05 0.0000000000e+00 
          -1.0080915598e-20 -4.0545912676e-05 0.0000000000e+00 
          -8.8581821219e-21 -4.1730707023e-05 0.0000000000e+00 
          -1.9621349711e-20 -4.2887831674e-05 0.0000000000e+00 
          4.2746191508e-21 -4.4017324277e-05 0.0000000000e+00 
          7.6421840161e-21 -4.5118778337e-05 0.0000000000e+00 
          4.9465295110e-21 -4.6190405144e-05 0.0000000000e+00 
          9.8177165211e-21 -4.7230717601e-05 0.0000000000e+00 
          -2.0444608046e-20 -4.8243373175e-05 0.0000000000e+00 
          -1.4592651233e-20 -4.9229765396e-05 0.0000000000e+00 
          3.9061624009e-21 -5.0187529996e-05 0.0000000000e+00 
          -1.0537292332e-20 -5.1114615676e-05 0.0000000000e+00 
          1.2536971224e-20 -5.2011547921e-05 0.0000000000e+00 
          -1.7553577237e-20 -5.2880220939e-05 0.0000000000e+00 
          1.6367532436e-20 -5.3721409647e-05 0.0000000000e+00 
          2.1494003382e-21 -5.4534389619e-05 0.0000000000e+00 
          -2.4684212765e-21 -5.5318259980e-05 0.0000000000e+00 
          -6.8897424157e-21 -5.6072076851e-05 0.0000000000e+00 
          1.2931740075e-21 -5.6796682489e-05 0.0000000000e+00 
          3.4383477304e-21 -5.7490207122e-05 0.0000000000e+00 
          -2.0618402326e-21 -5.8153549995e-05 0.0000000000e+00 
          6.4492872841e-21 -5.8789770071e-05 0.0000000000e+00 
          -1.9091418637e-20 -5.9395525030e-05 0.0000000000e+00 
          -2.3365303700e-20 -5.9967173386e-05 0.0000000000e+00 
          -5.8412297013e-21 -6.0503196993e-05 0.0000000000e+00 
          -1.7423549922e-20 -6.1002824342e-05 0.0000000000e+00 
          1.3284199474e-20 -6.1463822526e-05 0.0000000000e+00 
          -8.6956534013e-21 -6.1884936265e-05 0.0000000000e+00 
          -6.6076627789e-21 -6.2265825591e-05 0.0000000000e+00 
          2.0597375655e-20 -6.2603641421e-05 0.0000000000e+00 
          -6.3164482506e-21 -6.2894779804e-05 0.0000000000e+00 
          4.0324250981e-21 -6.3137256440e-05 0.0000000000e+00 
          -4.4051117386e-21 -6.3330118255e-05 0.0000000000e+00 
          -1.5309320935e-20 -6.3474930114e-05 0.0000000000e+00 
          5.4693174237e-22 -6.3574517458e-05 0.0000000000e+00 
          -1.3145775690e-20 -6.3632094196e-05 0.0000000000e+00 
        </DataArray>
        <DataArray type="Float64" Name="Acceleration" NumberOfComponents="3" format="ascii">
          -3.8713587856e-16 -3.5570114743e-04 0.0000000000e+00 
          -3.8713587856e-16 -3.5570114743e-04 0.0000000000e+00 
          -8.2783046382e-16 1.2234830685e-03 0.0000000000e+00 
          -8.2783046382e-16 1.2234830685e-03 0.0000000000e+00 
          3.4625120824e-16 -5.1100559959e-04 0.0000000000e+00 
          4.0351981948e-16 -7.4091963681e-04 0.0000000000e+00 
          1.1943014182e-15 -1.4303919760e-04 0.0000000000e+00 
          -5.1153502798e-16 -5.8732184743e-05 0.0000000000e+00 
          -1.3718518834e-15 -6.0127599216e-04 0.0000000000e+00 
          2.5772842629e-15 -6.0832156751e-04 0.0000000000e+00 
          -1.9922511727e-15 -5.3454021366e-04 0.0000000000e+00 
          6.6036825551e-16 -2.1247550968e-04 0.0000000000e+00 
          -3.1922569030e-16 5.5505054650e-05 0.0000000000e+00 
          -2.4591098566e-15 -6.0381888927e-04 0.0000000000e+00 
          3.6616731314e-15 -8.5446402520e-04 0.0000000000e+00 
          -7.1285604399e-16 -4.2865412118e-04 0.0000000000e+00 
          -1.1476546755e-15 -5.9001710991e-05 0.0000000000e+00 
          1.0497964809e-15 -1.5369639139e-04 0.0000000000e+00 
          -2.3336365431e-15 -4.9524023652e-04 0.0000000000e+00 
          5.4039076845e-15 -6.3447656764e-04 0.0000000000e+00 
          -5.6845517121e-15 -5.0413854249e-04 0.0000000000e+00 
          2.0967226383e-15 -3.4179756855e-04 0.0000000000e+00 
          -7.8418575159e-17 -1.7187991125e-04 0.0000000000e+00 
          2.9251566472e-16 -3.2330470409e-04 0.0000000000e+00 
          -1.0029148318e-16 1.3455367508e-05 0.0000000000e+00 
          1.5245564035e-16 -1.4859202518e-04 0.0000000000e+00 
          -3.1364304445e-16 -6.9997509000e-04 0.0000000000e+00 
          -1.6400169314e-15 -9.7377483355e-05 0.0000000000e+00 
          1.7456633995e-15 5.5868047125e-04 0.0000000000e+00 
          1.6974226193e-15 8.3225578805e-04 0.0000000000e+00 
          -3.6720369238e-15 9.7128524289e-04 0.0000000000e+00 
          4.4594997773e-15 1.3735601596e-03 0.0000000000e+00 
          -3.1004026154e-15 1.5999828373e-03 0.0000000000e+00 
          1.8755515240e-16 1.6611337963e-03 0.0000000000e+00 
          2.6368442820e-15 2.1745496017e-03 0.0000000000e+00 
          -4.1144445044e-15 2.8239331591e-03 0.0000000000e+00 
          1.9310421979e-15 3.1816486875e-03 0.0000000000e+00 
          -1.4089420436e-16 3.3533221160e-03 0.0000000000e+00 
          -5.2018532835e-16 3.0713275984e-03 0.0000000000e+00 
          2.2455225158e-15 2.5621537228e-03 0.0000000000e+00 
          -3.3350079237e-15 1.9830410555e-03 0.0000000000e+00 
          2.1730190531e-15 1.3826174628e-03 0.0000000000e+00 
          3.4625120824e-16 -5.1100559959e-04 0.0000000000e+00 
          4.0351981948e-16 -7.4091963681e-04 0.0000000000e+00 
          1.1943014182e-15 -1.4303919760e-04 0.0000000000e+00 
          -5.1153502798e-16 -5.8732184743e-05 0.0000000000e+00 
          -1.3718518834e-15 -6.0127599216e-04 0.0000000000e+00 
          2.5772842629e-15 -6.0832156751e-04 0.0000000000e+00 
          -1.9922511727e-15 -5.3454021366e-04 0.0000000000e+00 
          6.6036825551e-16 -2.1247550968e-04 0.0000000000e+00 
          -3.1922569030e-16 5.5505054650e-05 0.0000000000e+00 
          -2.4591098566e-15 -6.0381888927e-04 0.0000000000e+00 
          3.6616731314e-15 -8.5446402520e-04 0.0000000000e+00 
          -7.1285604399e-16 -4.2865412118e-04 0.0000000000e+00 
          -1.1476546755e-15 -5.9001710991e-05 0.0000000000e+00 
          1.0497964809e-15 -1.5369639139e-04 0.0000000000e+00 
          -2.3336365431e-15 -4.9524023652e-04 0.0000000000e+00 
          5.4039076845e-15 -6.3447656764e-04 0.0000000000e+00 
          -5.6845517121e-15 -5.0413854249e-04 0.0000000000e+00 
          2.0967226383e-15 -3.4179756855e-04 0.0000000000e+00 
          -7.8418575159e-17 -1.7187991125e-04 0.0000000000e+00 
          2.9251566472e-16 -3.2330470409e-04 0.0000000000e+00 
          -1.0029148318e-16 1.3455367508e-05 0.0000000000e+00 
          1.5245564035e-16 -1.4859202518e-04 0.0000000000e+00 
          -3.1364304445e-16 -6.9997509000e-04 0.0000000000e+00 
          -1.6400169314e-15 -9.7377483355e-05 0.0000000000e+00 
          1.7456633995e-15 5.5868047125e-04 0.0000000000e+00 
          1.6974226193e-15 8.3225578805e-04 0.0000000000e+00 
          -3.6720369238e-15 9.7128524289e-04 0.0000000000e+00 
          4.4594997773e-15 1.3735601596e-03 0.0000000000e+00 
          -3.1004026154e-15 1.5999828373e-03 0.0000000000e+00 
          1.8755515240e-16 1.6611337963e-03 0.0000000000e+00 
          2.6368442820e-15 2.1745496017e-03 0.0000000000e+00 
          -4.1144445044e-15 2.8239331591e-03 0.0000000000e+00 
          1.9310421979e-15 3.1816486875e-03 0.0000000000e+00 
          -1.4089420436e-16 3.3533221160e-03 0.0000000000e+00 
          -5.2018532835e-16 3.0713275984e-03 0.0000000000e+00 
          2.2455225158e-15 2.5621537228e-03 0.0000000000e+00 
          -3.3350079237e-15 1.9830410555e-03 0.0000000000e+00 
          2.1730190531e-15 1.3826174628e-03 0.0000000000e+00 
        </DataArray>
        <DataArray type="Float64" Name="Reaction" NumberOfComponents="3" format="ascii">
          0.0000000000e+00 0.0000000000e+00 0.0000000000e+00 
          0.0000000000e+00 0.0000000000e+00 0.0000000000e+00 
          0.0000000000e+00 0.0000000000e+00 0.0000000000e+00 
          0.0000000000e+00 0.0000000000e+00 0.0000000000e+00 
          0.0000000000e+00 0.0000000000e+00 0.0000000000e+00 
          0.0000000000e+00 0.0000000000e+00 0.0000000000e+00 
          0.0000000000e+00 0.0000000000e+00 0.0000000000e+00 
          0.0000000000e+00 0.0000000000e+00 0.0000000000e+00 
          0.0000000000e+00 0.0000000000e+00 0.0000000000e+00 
          0.0000000000e+00 0.0000000000e+00 0.0000000000e+00 
          0.0000000000e+00 0.0000000000e+00 0.0000000000e+00 
          0.0000000000e+00 0.0000000000e+00 0.0000000000e+00 
          0.0000000000e+00 0.0000000000e+00 0.0000000000e+00 
          0.0000000000e+00 0.0000000000e+00 0.0000000000e+00 
          0.0000000000e+00 0.0000000000e+00 0.0000000000e+00 
          0.0000000000e+00 0.0000000000e+00 0.0000000000e+00 
          0.0000000000e+00 0.0000000000e+00 0.0000000000e+00 
          0.0000000000e+00 0.0000000000e+00 0.0000000000e+00 
          0.0000000000e+00 0.0000000000e+00 0.0000000000e+00 
          0.0000000000e+00 0.0000000000e+00 0.0000000000e+00 
          0.0000000000e+00 0.0000000000e+00 0.0000000000e+00 
          0.0000000000e+00 0.0000000000e+00 0.0000000000e+00 
          0.0000000000e+00 0.0000000000e+00 0.0000000000e+00 
          0.0000000000e+00 0.0000000000e+00 0.0000000000e+00 
          0.0000000000e+00 0.0000000000e+00 0.0000000000e+00 
          0.0000000000e+00 0.0000000000e+00 0.0000000000e+00 
          0.0000000000e+00 0.0000000000e+00 0.0000000000e+00 
          0.0000000000e+00 0.0000000000e+00 0.0000000000e+00 
          0.0000000000e+00 0.0000000000e+00 0.0000000000e+00 
          0.0000000000e+00 0.0000000000e+00 0.0000000000e+00 
          0.0000000000e+00 0.0000000000e+00 0.0000000000e+00 
          0.0000000000e+00 0.0000000000e+00 0.0000000000e+00 
          0.0000000000e+00 0.0000000000e+00 0.0000000000e+00 
          0.0000000000e+00 0.0000000000e+00 0.0000000000e+00 
          0.0000000000e+00 0.0000000000e+00 0.0000000000e+00 
          0.0000000000e+00 0.0000000000e+00 0.0000000000e+00 
          0.0000000000e+00 0.0000000000e+00 0.0000000000e+00 
          0.0000000000e+00 0.0000000000e+00 0.0000000000e+00 
          0.0000000000e+00 0.0000000000e+00 0.0000000000e+00 
          0.0000000000e+00 0.0000000000e+00 0.0000000000e+00 
          0.0000000000e+00 0.0000000000e+00 0.0000000000e+00 
          0.0000000000e+00 0.0000000000e+00 0.0000000000e+00 
          0.0000000000e+00 0.0000000000e+00 0.0000000000e+00 
          0.0000000000e+00 0.0000000000e+00 0.0000000000e+00 
          0.0000000000e+00 0.0000000000e+00 0.0000000000e+00 
          0.0000000000e+00 0.0000000000e+00 0.0000000000e+00 
          0.0000000000e+00 0.0000000000e+00 0.0000000000e+00 
          0.0000000000e+00 0.0000000000e+00 0.0000000000e+00 
          0.0000000000e+00 0.0000000000e+00 0.0000000000e+00 
          0.0000000000e+00 0.0000000000e+00 0.0000000000e+00 
          0.0000000000e+00 0.0000000000e+00 0.0000000000e+00 
          0.0000000000e+00 0.0000000000e+00 0.0000000000e+00 
          0.0000000000e+00 0.0000000000e+00 0.0000000000e+00 
          0.0000000000e+00 0.0000000000e+00 0.0000000000e+00 
          0.0000000000e+00 0.0000000000e+00 0.0000000000e+00 
          0.0000000000e+00 0.0000000000e+00 0.0000000000e+00 
          0.0000000000e+00 0.0000000000e+00 0.0000000000e+00 
          0.0000000000e+00 0.0000000000e+00 0.0000000000e+00 
          0.0000000000e+00 0.0000000000e+00 0.0000000000e+00 
          0.0000000000e+00 0.0000000000e+00 0.0000000000e+00 
          0.0000000000e+00 0.0000000000e+00 0.0000000000e+00 
          0.0000000000e+00 0.0000000000e+00 0.0000000000e+00 
          0.0000000000e+00 0.0000000000e+00 0.0000000000e+00 
          0.0000000000e+00 0.0000000000e+00 0.0000000000e+00 
          0.0000000000e+00 0.0000000000e+00 0.0000000000e+00 
          0.0000000000e+00 0.0000000000e+00 0.0000000000e+00 
          0.0000000000e+00 0.0000000000e+00 0.0000000000e+00 
          0.0000000000e+00 0.0000000000e+00 0.0000000000e+00 
          0.0000000000e+00 0.0000000000e+00 0.0000000000e+00 
          0.0000000000e+00 0.0000000000e+00 0.0000000000e+00 
          0.0000000000e+00 0.0000000000e+00 0.0000000000e+00 
          0.0000000000e+00 0.0000000000e+00 0.0000000000e+00 
          0.0000000000e+00 0.0000000000e+00 0.0000000000e+00 
          0.0000000000e+00 0.0000000000e+00 0.0000000000e+00 
          0.0000000000e+00 0.0000000000e+00 0.0000000000e+00 
          0.0000000000e+00 0.0000000000e+00 0.0000000000e+00 
          0.0000000000e+00 0.0000000000e+00 0.0000000000e+00 
          0.0000000000e+00 0.0000000000e+00 0.0000000000e+00 
          0.0000000000e+00 0.0000000000e+00 0.0000000000e+00 
          0.0000000000e+00 0.0000000000e+00 0.0000000000e+00 
        </DataArray>
      </PointData>
      <CellData>
        <DataArray type="Int64" Name="ElementTag" format="ascii">
          90
          91
          92
          93
          94
          95
          96
          97
          98
          99
          100
          101
          102
          103
          104
          105
          106
          107
          108
          109
          110
          111
          112
          113
          114
          115
          116
          117
          118
          119
          120
          121
          122
          123
          124
          125
          126
          127
          128
        </DataArray>
      </CellData>
    </Piece>
  </UnstructuredGrid>
</VTKFile>
