<?xml version="1.0"?>
<VTKFile type="UnstructuredGrid" version="1.0" byte_order="LittleEndian" compressor="vtkZLibDataCompressor">
  <UnstructuredGrid>
    <Piece NumberOfPoints="82" NumberOfCells="1">
      <Points>
        <DataArray type="Float64" Name="Points" NumberOfComponents="3" format="ascii">
          0.0000000000e+00 0.0000000000e+00 0.0000000000e+00 
          2.5000000000e-01 0.0000000000e+00 0.0000000000e+00 
          2.5000000000e-01 3.0000000000e+01 0.0000000000e+00 
          0.0000000000e+00 3.0000000000e+01 0.0000000000e+00 
          0.0000000000e+00 -5.0000000000e+00 0.0000000000e+00 
          2.5000000000e-01 -5.0000000000e+00 0.0000000000e+00 
          2.5000000000e-01 7.6923100000e-01 0.0000000000e+00 
          2.5000000000e-01 1.5384620000e+00 0.0000000000e+00 
          2.5000000000e-01 2.3076920000e+00 0.0000000000e+00 
          2.5000000000e-01 3.0769230000e+00 0.0000000000e+00 
          2.5000000000e-01 3.8461540000e+00 0.0000000000e+00 
          2.5000000000e-01 4.6153850000e+00 0.0000000000e+00 
          2.5000000000e-01 5.3846150000e+00 0.0000000000e+00 
          2.5000000000e-01 6.1538460000e+00 0.0000000000e+00 
          2.5000000000e-01 6.9230770000e+00 0.0000000000e+00 
          2.5000000000e-01 7.6923080000e+00 0.0000000000e+00 
          2.5000000000e-01 8.4615380000e+00 0.0000000000e+00 
          2.5000000000e-01 9.2307690000e+00 0.0000000000e+00 
          2.5000000000e-01 1.0000000000e+01 0.0000000000e+00 
          2.5000000000e-01 1.0769231000e+01 0.0000000000e+00 
          2.5000000000e-01 1.1538462000e+01 0.0000000000e+00 
          2.5000000000e-01 1.2307692000e+01 0.0000000000e+00 
          2.5000000000e-01 1.3076923000e+01 0.0000000000e+00 
          2.5000000000e-01 1.3846154000e+01 0.0000000000e+00 
          2.5000000000e-01 1.4615385000e+01 0.0000000000e+00 
          2.5000000000e-01 1.5384615000e+01 0.0000000000e+00 
          2.5000000000e-01 1.6153846000e+01 0.0000000000e+00 
          2.5000000000e-01 1.6923077000e+01 0.0000000000e+00 
          2.5000000000e-01 1.7692308000e+01 0.0000000000e+00 
          2.5000000000e-01 1.8461538000e+01 0.0000000000e+00 
          2.5000000000e-01 1.9230769000e+01 0.0000000000e+00 
          2.5000000000e-01 2.0000000000e+01 0.0000000000e+00 
          2.5000000000e-01 2.0769231000e+01 0.0000000000e+00 
          2.5000000000e-01 2.1538462000e+01 0.0000000000e+00 
          2.5000000000e-01 2.2307692000e+01 0.0000000000e+00 
          2.5000000000e-01 2.3076923000e+01 0.0000000000e+00 
          2.5000000000e-01 2.3846154000e+01 0.0000000000e+00 
          2.5000000000e-01 2.4615385000e+01 0.0000000000e+00 
          2.5000000000e-01 2.5384615000e+01 0.0000000000e+00 
          2.5000000000e-01 2.6153846000e+01 0.0000000000e+00 
          2.5000000000e-01 2.6923077000e+01 0.0000000000e+00 
          2.5000000000e-01 2.7692308000e+01 0.0000000000e+00 
          2.5000000000e-01 2.8461538000e+01 0.0000000000e+00 
          2.5000000000e-01 2.9230769000e+01 0.0000000000e+00 
          0.0000000000e+00 7.6923100000e-01 0.0000000000e+00 
          0.0000000000e+00 1.5384620000e+00 0.0000000000e+00 
          0.0000000000e+00 2.3076920000e+00 0.0000000000e+00 
          0.0000000000e+00 3.0769230000e+00 0.0000000000e+00 
          0.0000000000e+00 3.8461540000e+00 0.0000000000e+00 
          0.0000000000e+00 4.6153850000e+00 0.0000000000e+00 
          0.0000000000e+00 5.3846150000e+00 0.0000000000e+00 
          0.0000000000e+00 6.1538460000e+00 0.0000000000e+00 
          0.0000000000e+00 6.9230770000e+00 0.0000000000e+00 
          0.0000000000e+00 7.6923080000e+00 0.0000000000e+00 
          0.0000000000e+00 8.4615380000e+00 0.0000000000e+00 
          0.0000000000e+00 9.2307690000e+00 0.0000000000e+00 
          0.0000000000e+00 1.0000000000e+01 0.0000000000e+00 
          0.0000000000e+00 1.0769231000e+01 0.0000000000e+00 
          0.0000000000e+00 1.1538462000e+01 0.0000000000e+00 
          0.0000000000e+00 1.2307692000e+01 0.0000000000e+00 
          0.0000000000e+00 1.3076923000e+01 0.0000000000e+00 
          0.0000000000e+00 1.3846154000e+01 0.0000000000e+00 
          0.0000000000e+00 1.4615385000e+01 0.0000000000e+00 
          0.0000000000e+00 1.5384615000e+01 0.0000000000e+00 
          0.0000000000e+00 1.6153846000e+01 0.0000000000e+00 
          0.0000000000e+00 1.6923077000e+01 0.0000000000e+00 
          0.0000000000e+00 1.7692308000e+01 0.0000000000e+00 
          0.0000000000e+00 1.8461538000e+01 0.0000000000e+00 
          0.0000000000e+00 1.9230769000e+01 0.0000000000e+00 
          0.0000000000e+00 2.0000000000e+01 0.0000000000e+00 
          0.0000000000e+00 2.0769231000e+01 0.0000000000e+00 
          0.0000000000e+00 2.1538462000e+01 0.0000000000e+00 
          0.0000000000e+00 2.2307692000e+01 0.0000000000e+00 
          0.0000000000e+00 2.3076923000e+01 0.0000000000e+00 
          0.0000000000e+00 2.3846154000e+01 0.0000000000e+00 
          0.0000000000e+00 2.4615385000e+01 0.0000000000e+00 
          0.0000000000e+00 2.5384615000e+01 0.0000000000e+00 
          0.0000000000e+00 2.6153846000e+01 0.0000000000e+00 
          0.0000000000e+00 2.6923077000e+01 0.0000000000e+00 
          0.0000000000e+00 2.7692308000e+01 0.0000000000e+00 
          0.0000000000e+00 2.8461538000e+01 0.0000000000e+00 
          0.0000000000e+00 2.9230769000e+01 0.0000000000e+00 
        </DataArray>
      </Points>
      <Cells>
        <DataArray type="Int64" Name="connectivity" format="ascii">
          0
          1
          2
          3
          4
          5
          6
          7
          8
          9
          10
          11
          12
          13
          14
          15
          16
          17
          18
          19
          20
          21
          22
          23
          24
          25
          26
          27
          28
          29
          30
          31
          32
          33
          34
          35
          36
          37
          38
          39
          40
          41
          42
          43
          44
          45
          46
          47
          48
          49
          50
          51
          52
          53
          54
          55
          56
          57
          58
          59
          60
          61
          62
          63
          64
          65
          66
          67
          68
          69
          70
          71
          72
          73
          74
          75
          76
          77
          78
          79
          80
          81
        </DataArray>
        <DataArray type="Int64" Name="offsets" format="ascii">
          82
        </DataArray>
        <DataArray type="Int64" Name="types" format="ascii">
          2
        </DataArray>
      </Cells>
      <PointData>
        <DataArray type="Int64" Name="NodeTag" format="ascii">
          1
          2
          3
          4
          5
          6
          7
          8
          9
          10
          11
          12
          13
          14
          15
          16
          17
          18
          19
          20
          21
          22
          23
          24
          25
          26
          27
          28
          29
          30
          31
          32
          33
          34
          35
          36
          37
          38
          39
          40
          41
          42
          43
          44
          45
          46
          47
          48
          49
          50
          51
          52
          53
          54
          55
          56
          57
          58
          59
          60
          61
          62
          63
          64
          65
          66
          67
          68
          69
          70
          71
          72
          73
          74
          75
          76
          77
          78
          79
          80
          81
          82
        </DataArray>
        <DataArray type="Float64" Name="Velocity" NumberOfComponents="3" format="ascii">
          2.1935328962e-20 -5.9293071620e-05 0.0000000000e+00 
          2.1935328962e-20 -5.9293071620e-05 0.0000000000e+00 
          -1.1973358794e-17 -3.1868972378e-05 0.0000000000e+00 
          -1.1973358794e-17 -3.1868972378e-05 0.0000000000e+00 
          0.0000000000e+00 0.0000000000e+00 0.0000000000e+00 
          0.0000000000e+00 0.0000000000e+00 0.0000000000e+00 
          -1.4511825893e-19 -5.4586583858e-05 0.0000000000e+00 
          -3.9198431539e-20 -5.0458112318e-05 0.0000000000e+00 
          7.0071733401e-18 -4.7131926444e-05 0.0000000000e+00 
          -6.1828626754e-18 -4.3206852794e-05 0.0000000000e+00 
          -9.7703544875e-19 -3.9287189052e-05 0.0000000000e+00 
          -2.2479587707e-18 -3.5518596573e-05 0.0000000000e+00 
          3.0152728452e-18 -3.2555865735e-05 0.0000000000e+00 
          -3.4549718850e-18 -3.1069393233e-05 0.0000000000e+00 
          6.0426112226e-18 -2.9279632366e-05 0.0000000000e+00 
          -7.4228094424e-18 -2.7803108758e-05 0.0000000000e+00 
          1.7014944355e-18 -2.6729438052e-05 0.0000000000e+00 
          -2.9507577346e-19 -2.6731647475e-05 0.0000000000e+00 
          1.5694759062e-18 -2.8339577611e-05 0.0000000000e+00 
          -3.9419266661e-19 -2.9626482879e-05 0.0000000000e+00 
          4.1149473804e-18 -3.0333274853e-05 0.0000000000e+00 
          5.6132803100e-18 -3.1053603429e-05 0.0000000000e+00 
          -5.7702306937e-18 -3.2215805681e-05 0.0000000000e+00 
          5.7393207303e-18 -3.3106745561e-05 0.0000000000e+00 
          -1.0686663172e-18 -3.2975521716e-05 0.0000000000e+00 
          -6.4703316545e-18 -3.2890414825e-05 0.0000000000e+00 
          4.3783362681e-18 -3.1938495832e-05 0.0000000000e+00 
          -6.3341781550e-18 -3.0531228101e-05 0.0000000000e+00 
          -6.2567823609e-18 -2.9959910147e-05 0.0000000000e+00 
          4.8723829876e-18 -2.9675325201e-05 0.0000000000e+00 
          1.0672794033e-18 -2.9703704088e-05 0.0000000000e+00 
          5.7015285227e-18 -3.0955160473e-05 0.0000000000e+00 
          -7.0468637688e-18 -3.1934544403e-05 0.0000000000e+00 
          2.2871859465e-18 -3.1640275896e-05 0.0000000000e+00 
          -4.5764283498e-18 -3.1582928386e-05 0.0000000000e+00 
          7.8317879862e-18 -3.1300802713e-05 0.0000000000e+00 
          -5.2730933196e-18 -3.1551172678e-05 0.0000000000e+00 
          -3.6829739053e-19 -3.1283981745e-05 0.0000000000e+00 
          1.0651326367e-18 -3.0434729270e-05 0.0000000000e+00 
          3.6392702484e-18 -3.0620435694e-05 0.0000000000e+00 
          -7.3038417702e-18 -3.1106310704e-05 0.0000000000e+00 
          6.9747470875e-18 -3.0741232691e-05 0.0000000000e+00 
          -5.2094990470e-18 -3.0774901907e-05 0.0000000000e+00 
          7.7601310657e-18 -3.1636460974e-05 0.0000000000e+00 
          -1.4511825893e-19 -5.4586583858e-05 0.0000000000e+00 
          -3.9198431539e-20 -5.0458112318e-05 0.0000000000e+00 
          7.0071733401e-18 -4.7131926444e-05 0.0000000000e+00 
          -6.1828626754e-18 -4.3206852794e-05 0.0000000000e+00 
          -9.7703544875e-19 -3.9287189052e-05 0.0000000000e+00 
          -2.2479587707e-18 -3.5518596573e-05 0.0000000000e+00 
          3.0152728452e-18 -3.2555865735e-05 0.0000000000e+00 
          -3.4549718850e-18 -3.1069393233e-05 0.0000000000e+00 
          6.0426112226e-18 -2.9279632366e-05 0.0000000000e+00 
          -7.4228094424e-18 -2.7803108758e-05 0.0000000000e+00 
          1.7014944355e-18 -2.6729438052e-05 0.0000000000e+00 
          -2.9507577346e-19 -2.6731647475e-05 0.0000000000e+00 
          1.5694759062e-18 -2.8339577611e-05 0.0000000000e+00 
          -3.9419266661e-19 -2.9626482879e-05 0.0000000000e+00 
          4.1149473804e-18 -3.0333274853e-05 0.0000000000e+00 
          5.6132803100e-18 -3.1053603429e-05 0.0000000000e+00 
          -5.7702306937e-18 -3.2215805681e-05 0.0000000000e+00 
          5.7393207303e-18 -3.3106745561e-05 0.0000000000e+00 
          -1.0686663172e-18 -3.2975521716e-05 0.0000000000e+00 
          -6.4703316545e-18 -3.2890414825e-05 0.0000000000e+00 
          4.3783362681e-18 -3.1938495832e-05 0.0000000000e+00 
          -6.3341781550e-18 -3.0531228101e-05 0.0000000000e+00 
          -6.2567823609e-18 -2.9959910147e-05 0.0000000000e+00 
          4.8723829876e-18 -2.9675325201e-05 0.0000000000e+00 
          1.0672794033e-18 -2.9703704088e-05 0.0000000000e+00 
          5.7015285227e-18 -3.0955160473e-05 0.0000000000e+00 
          -7.0468637688e-18 -3.1934544403e-05 0.0000000000e+00 
          2.2871859465e-18 -3.1640275896e-05 0.0000000000e+00 
          -4.5764283498e-18 -3.1582928386e-05 0.0000000000e+00 
          7.8317879862e-18 -3.1300802713e-05 0.0000000000e+00 
          -5.2730933196e-18 -3.1551172678e-05 0.0000000000e+00 
          -3.6829739053e-19 -3.1283981745e-05 0.0000000000e+00 
          1.0651326367e-18 -3.0434729270e-05 0.0000000000e+00 
          3.6392702484e-18 -3.0620435694e-05 0.0000000000e+00 
          -7.3038417702e-18 -3.1106310704e-05 0.0000000000e+00 
          6.9747470875e-18 -3.0741232691e-05 0.0000000000e+00 
          -5.2094990470e-18 -3.0774901907e-05 0.0000000000e+00 
          7.7601310657e-18 -3.1636460974e-05 0.0000000000e+00 
        </DataArray>
        <DataArray type="Float64" Name="Displacement" NumberOfComponents="3" format="ascii">
          7.1589285970e-21 -5.5623306516e-05 0.0000000000e+00 
          7.1589285970e-21 -5.5623306516e-05 0.0000000000e+00 
          2.4848751484e-20 -7.2465051356e-05 0.0000000000e+00 
          2.4848751484e-20 -7.2465051356e-05 0.0000000000e+00 
          0.0000000000e+00 0.0000000000e+00 0.0000000000e+00 
          0.0000000000e+00 0.0000000000e+00 0.0000000000e+00 
          2.9724833646e-21 -5.6528026445e-05 0.0000000000e+00 
          2.7007585180e-20 -5.7400694235e-05 0.0000000000e+00 
          1.4609113559e-20 -5.8240228403e-05 0.0000000000e+00 
          2.3017373349e-20 -5.9048610242e-05 0.0000000000e+00 
          -1.4614629103e-21 -5.9827746373e-05 0.0000000000e+00 
          1.6998771872e-20 -6.0576505671e-05 0.0000000000e+00 
          7.9474402057e-21 -6.1294608170e-05 0.0000000000e+00 
          -8.0637139090e-21 -6.1984962410e-05 0.0000000000e+00 
          -1.3707662424e-20 -6.2649188568e-05 0.0000000000e+00 
          8.0563531267e-21 -6.3287290684e-05 0.0000000000e+00 
          1.1821903451e-20 -6.3901882891e-05 0.0000000000e+00 
          -7.3714974613e-21 -6.4494927606e-05 0.0000000000e+00 
          1.7958693692e-20 -6.5066316447e-05 0.0000000000e+00 
          2.1557718647e-20 -6.5617496088e-05 0.0000000000e+00 
          -5.8552489046e-21 -6.6150096923e-05 0.0000000000e+00 
          8.6509497612e-21 -6.6663142880e-05 0.0000000000e+00 
          2.4260361013e-20 -6.7157316853e-05 0.0000000000e+00 
          -1.3007989638e-20 -6.7633082577e-05 0.0000000000e+00 
          2.5852986619e-21 -6.8086585102e-05 0.0000000000e+00 
          5.2426514756e-21 -6.8516323321e-05 0.0000000000e+00 
          1.5084926790e-20 -6.8921995154e-05 0.0000000000e+00 
          1.3623673459e-21 -6.9305217574e-05 0.0000000000e+00 
          6.0843901224e-22 -6.9666312881e-05 0.0000000000e+00 
          1.8200206504e-20 -7.0003274439e-05 0.0000000000e+00 
          4.7322780139e-21 -7.0316899071e-05 0.0000000000e+00 
          1.3575566538e-20 -7.0609387469e-05 0.0000000000e+00 
          1.7581647786e-21 -7.0881941371e-05 0.0000000000e+00 
          4.1432570808e-21 -7.1134127202e-05 0.0000000000e+00 
          5.8475509092e-21 -7.1365926225e-05 0.0000000000e+00 
          -1.1246173815e-20 -7.1577467926e-05 0.0000000000e+00 
          -1.6265210323e-21 -7.1765718227e-05 0.0000000000e+00 
          -5.7747363851e-21 -7.1929167526e-05 0.0000000000e+00 
          1.6391266344e-20 -7.2068842295e-05 0.0000000000e+00 
          -8.4650679075e-21 -7.2186103196e-05 0.0000000000e+00 
          1.4970328901e-20 -7.2282838692e-05 0.0000000000e+00 
          1.1262873639e-20 -7.2360293411e-05 0.0000000000e+00 
          2.0181321750e-20 -7.2417213321e-05 0.0000000000e+00 
          1.6498571118e-20 -7.2452545090e-05 0.0000000000e+00 
          2.9724833646e-21 -5.6528026445e-05 0.0000000000e+00 
          2.7007585180e-20 -5.7400694235e-05 0.0000000000e+00 
          1.4609113559e-20 -5.8240228403e-05 0.0000000000e+00 
          2.3017373349e-20 -5.9048610242e-05 0.0000000000e+00 
          -1.4614629103e-21 -5.9827746373e-05 0.0000000000e+00 
          1.6998771872e-20 -6.0576505671e-05 0.0000000000e+00 
          7.9474402057e-21 -6.1294608170e-05 0.0000000000e+00 
          -8.0637139090e-21 -6.1984962410e-05 0.0000000000e+00 
          -1.3707662424e-20 -6.2649188568e-05 0.0000000000e+00 
          8.0563531267e-21 -6.3287290684e-05 0.0000000000e+00 
          1.1821903451e-20 -6.3901882891e-05 0.0000000000e+00 
          -7.3714974613e-21 -6.4494927606e-05 0.0000000000e+00 
          1.7958693692e-20 -6.5066316447e-05 0.0000000000e+00 
          2.1557718647e-20 -6.5617496088e-05 0.0000000000e+00 
          -5.8552489046e-21 -6.6150096923e-05 0.0000000000e+00 
          8.6509497612e-21 -6.6663142880e-05 0.0000000000e+00 
          2.4260361013e-20 -6.7157316853e-05 0.0000000000e+00 
          -1.3007989638e-20 -6.7633082577e-05 0.0000000000e+00 
          2.5852986619e-21 -6.8086585102e-05 0.0000000000e+00 
          5.2426514756e-21 -6.8516323321e-05 0.0000000000e+00 
          1.5084926790e-20 -6.8921995154e-05 0.0000000000e+00 
          1.3623673459e-21 -6.9305217574e-05 0.0000000000e+00 
          6.0843901224e-22 -6.9666312881e-05 0.0000000000e+00 
          1.8200206504e-20 -7.0003274439e-05 0.0000000000e+00 
          4.7322780139e-21 -7.0316899071e-05 0.0000000000e+00 
          1.3575566538e-20 -7.0609387469e-05 0.0000000000e+00 
          1.7581647786e-21 -7.0881941371e-05 0.0000000000e+00 
          4.1432570808e-21 -7.1134127202e-05 0.0000000000e+00 
          5.8475509092e-21 -7.1365926225e-05 0.0000000000e+00 
          -1.1246173815e-20 -7.1577467926e-05 0.0000000000e+00 
          -1.6265210323e-21 -7.1765718227e-05 0.0000000000e+00 
          -5.7747363851e-21 -7.1929167526e-05 0.0000000000e+00 
          1.6391266344e-20 -7.2068842295e-05 0.0000000000e+00 
          -8.4650679075e-21 -7.2186103196e-05 0.0000000000e+00 
          1.4970328901e-20 -7.2282838692e-05 0.0000000000e+00 
          1.1262873639e-20 -7.2360293411e-05 0.0000000000e+00 
          2.0181321750e-20 -7.2417213321e-05 0.0000000000e+00 
          1.6498571118e-20 -7.2452545090e-05 0.0000000000e+00 
        </DataArray>
        <DataArray type="Float64" Name="Acceleration" NumberOfComponents="3" format="ascii">
          1.5163187525e-16 3.0408316783e-04 0.0000000000e+00 
          1.5163187525e-16 3.0408316783e-04 0.0000000000e+00 
          -6.6755633620e-16 -1.0801074721e-03 0.0000000000e+00 
          -6.6755633620e-16 -1.0801074721e-03 0.0000000000e+00 
          0.0000000000e+00 0.0000000000e+00 0.0000000000e+00 
          0.0000000000e+00 0.0000000000e+00 0.0000000000e+00 
          2.3230961940e-15 1.8845781437e-04 0.0000000000e+00 
          -3.7792126340e-15 3.8315215920e-04 0.0000000000e+00 
          2.5773228953e-15 2.6508833557e-05 0.0000000000e+00 
          -2.9906712123e-15 -3.1727246068e-04 0.0000000000e+00 
          3.8945247760e-15 -1.1343902138e-04 0.0000000000e+00 
          -3.5284259843e-15 -6.3152827612e-05 0.0000000000e+00 
          6.7271561342e-16 -5.8694686345e-04 0.0000000000e+00 
          -5.5344254706e-16 -8.7908102290e-04 0.0000000000e+00 
          3.9822403419e-15 -8.7980877071e-04 0.0000000000e+00 
          -3.4872494264e-15 -1.3510270748e-03 0.0000000000e+00 
          -6.8291930457e-16 -1.7043748093e-03 0.0000000000e+00 
          3.4472448068e-15 -1.6849903587e-03 0.0000000000e+00 
          -2.0942351196e-15 -1.9456867013e-03 0.0000000000e+00 
          -1.8280198588e-15 -2.2394900194e-03 0.0000000000e+00 
          2.3621864273e-15 -2.0637162228e-03 0.0000000000e+00 
          9.5790959836e-16 -2.1865359799e-03 0.0000000000e+00 
          -4.3342785806e-15 -2.2702249788e-03 0.0000000000e+00 
          4.5096923953e-15 -1.5755482163e-03 0.0000000000e+00 
          -1.6029035671e-15 -1.3051404039e-03 0.0000000000e+00 
          1.0090909860e-15 -1.2505030373e-03 0.0000000000e+00 
          -2.1789190261e-15 -1.5419914826e-03 0.0000000000e+00 
          1.4334379509e-15 -1.6000712507e-03 0.0000000000e+00 
          1.5897371443e-15 -1.2385437673e-03 0.0000000000e+00 
          -2.9871046651e-15 -1.3819763356e-03 0.0000000000e+00 
          1.9447178247e-15 -1.7786314910e-03 0.0000000000e+00 
          -1.7206329065e-15 -1.9951894555e-03 0.0000000000e+00 
          1.7945834451e-15 -1.9170577721e-03 0.0000000000e+00 
          -1.1690524596e-15 -1.9137327202e-03 0.0000000000e+00 
          -5.8012231021e-16 -1.9369583607e-03 0.0000000000e+00 
          1.7626934096e-15 -1.3902622781e-03 0.0000000000e+00 
          -7.5192566231e-16 -1.1182256515e-03 0.0000000000e+00 
          1.8703608187e-15 -1.3032302459e-03 0.0000000000e+00 
          -4.3715363067e-15 -1.5483613759e-03 0.0000000000e+00 
          4.0430039908e-15 -1.8887055025e-03 0.0000000000e+00 
          -2.4820984366e-15 -2.1129920750e-03 0.0000000000e+00 
          1.8603829715e-15 -1.8870217282e-03 0.0000000000e+00 
          -1.4805588202e-15 -1.6971801872e-03 0.0000000000e+00 
          7.9728731949e-16 -1.4742185395e-03 0.0000000000e+00 
          2.3230961940e-15 1.8845781437e-04 0.0000000000e+00 
          -3.7792126340e-15 3.8315215920e-04 0.0000000000e+00 
          2.5773228953e-15 2.6508833557e-05 0.0000000000e+00 
          -2.9906712123e-15 -3.1727246068e-04 0.0000000000e+00 
          3.8945247760e-15 -1.1343902138e-04 0.0000000000e+00 
          -3.5284259843e-15 -6.3152827612e-05 0.0000000000e+00 
          6.7271561342e-16 -5.8694686345e-04 0.0000000000e+00 
          -5.5344254706e-16 -8.7908102290e-04 0.0000000000e+00 
          3.9822403419e-15 -8.7980877071e-04 0.0000000000e+00 
          -3.4872494264e-15 -1.3510270748e-03 0.0000000000e+00 
          -6.8291930457e-16 -1.7043748093e-03 0.0000000000e+00 
          3.4472448068e-15 -1.6849903587e-03 0.0000000000e+00 
          -2.0942351196e-15 -1.9456867013e-03 0.0000000000e+00 
          -1.8280198588e-15 -2.2394900194e-03 0.0000000000e+00 
          2.3621864273e-15 -2.0637162228e-03 0.0000000000e+00 
          9.5790959836e-16 -2.1865359799e-03 0.0000000000e+00 
          -4.3342785806e-15 -2.2702249788e-03 0.0000000000e+00 
          4.5096923953e-15 -1.5755482163e-03 0.0000000000e+00 
          -1.6029035671e-15 -1.3051404039e-03 0.0000000000e+00 
          1.0090909860e-15 -1.2505030373e-03 0.0000000000e+00 
          -2.1789190261e-15 -1.5419914826e-03 0.0000000000e+00 
          1.4334379509e-15 -1.6000712507e-03 0.0000000000e+00 
          1.5897371443e-15 -1.2385437673e-03 0.0000000000e+00 
          -2.9871046651e-15 -1.3819763356e-03 0.0000000000e+00 
          1.9447178247e-15 -1.7786314910e-03 0.0000000000e+00 
          -1.7206329065e-15 -1.9951894555e-03 0.0000000000e+00 
          1.7945834451e-15 -1.9170577721e-03 0.0000000000e+00 
          -1.1690524596e-15 -1.9137327202e-03 0.0000000000e+00 
          -5.8012231021e-16 -1.9369583607e-03 0.0000000000e+00 
          1.7626934096e-15 -1.3902622781e-03 0.0000000000e+00 
          -7.5192566231e-16 -1.1182256515e-03 0.0000000000e+00 
          1.8703608187e-15 -1.3032302459e-03 0.0000000000e+00 
          -4.3715363067e-15 -1.5483613759e-03 0.0000000000e+00 
          4.0430039908e-15 -1.8887055025e-03 0.0000000000e+00 
          -2.4820984366e-15 -2.1129920750e-03 0.0000000000e+00 
          1.8603829715e-15 -1.8870217282e-03 0.0000000000e+00 
          -1.4805588202e-15 -1.6971801872e-03 0.0000000000e+00 
          7.9728731949e-16 -1.4742185395e-03 0.0000000000e+00 
        </DataArray>
        <DataArray type="Float64" Name="Reaction" NumberOfComponents="3" format="ascii">
          0.0000000000e+00 0.0000000000e+00 0.0000000000e+00 
          0.0000000000e+00 0.0000000000e+00 0.0000000000e+00 
          0.0000000000e+00 0.0000000000e+00 0.0000000000e+00 
          0.0000000000e+00 0.0000000000e+00 0.0000000000e+00 
          0.0000000000e+00 0.0000000000e+00 0.0000000000e+00 
          0.0000000000e+00 0.0000000000e+00 0.0000000000e+00 
          0.0000000000e+00 0.0000000000e+00 0.0000000000e+00 
          0.0000000000e+00 0.0000000000e+00 0.0000000000e+00 
          0.0000000000e+00 0.0000000000e+00 0.0000000000e+00 
          0.0000000000e+00 0.0000000000e+00 0.0000000000e+00 
          0.0000000000e+00 0.0000000000e+00 0.0000000000e+00 
          0.0000000000e+00 0.0000000000e+00 0.0000000000e+00 
          0.0000000000e+00 0.0000000000e+00 0.0000000000e+00 
          0.0000000000e+00 0.0000000000e+00 0.0000000000e+00 
          0.0000000000e+00 0.0000000000e+00 0.0000000000e+00 
          0.0000000000e+00 0.0000000000e+00 0.0000000000e+00 
          0.0000000000e+00 0.0000000000e+00 0.0000000000e+00 
          0.0000000000e+00 0.0000000000e+00 0.0000000000e+00 
          0.0000000000e+00 0.0000000000e+00 0.0000000000e+00 
          0.0000000000e+00 0.0000000000e+00 0.0000000000e+00 
          0.0000000000e+00 0.0000000000e+00 0.0000000000e+00 
          0.0000000000e+00 0.0000000000e+00 0.0000000000e+00 
          0.0000000000e+00 0.0000000000e+00 0.0000000000e+00 
          0.0000000000e+00 0.0000000000e+00 0.0000000000e+00 
          0.0000000000e+00 0.0000000000e+00 0.0000000000e+00 
          0.0000000000e+00 0.0000000000e+00 0.0000000000e+00 
          0.0000000000e+00 0.0000000000e+00 0.0000000000e+00 
          0.0000000000e+00 0.0000000000e+00 0.0000000000e+00 
          0.0000000000e+00 0.0000000000e+00 0.0000000000e+00 
          0.0000000000e+00 0.0000000000e+00 0.0000000000e+00 
          0.0000000000e+00 0.0000000000e+00 0.0000000000e+00 
          0.0000000000e+00 0.0000000000e+00 0.0000000000e+00 
          0.0000000000e+00 0.0000000000e+00 0.0000000000e+00 
          0.0000000000e+00 0.0000000000e+00 0.0000000000e+00 
          0.0000000000e+00 0.0000000000e+00 0.0000000000e+00 
          0.0000000000e+00 0.0000000000e+00 0.0000000000e+00 
          0.0000000000e+00 0.0000000000e+00 0.0000000000e+00 
          0.0000000000e+00 0.0000000000e+00 0.0000000000e+00 
          0.0000000000e+00 0.0000000000e+00 0.0000000000e+00 
          0.0000000000e+00 0.0000000000e+00 0.0000000000e+00 
          0.0000000000e+00 0.0000000000e+00 0.0000000000e+00 
          0.0000000000e+00 0.0000000000e+00 0.0000000000e+00 
          0.0000000000e+00 0.0000000000e+00 0.0000000000e+00 
          0.0000000000e+00 0.0000000000e+00 0.0000000000e+00 
          0.0000000000e+00 0.0000000000e+00 0.0000000000e+00 
          0.0000000000e+00 0.0000000000e+00 0.0000000000e+00 
          0.0000000000e+00 0.0000000000e+00 0.0000000000e+00 
          0.0000000000e+00 0.0000000000e+00 0.0000000000e+00 
          0.0000000000e+00 0.0000000000e+00 0.0000000000e+00 
          0.0000000000e+00 0.0000000000e+00 0.0000000000e+00 
          0.0000000000e+00 0.0000000000e+00 0.0000000000e+00 
          0.0000000000e+00 0.0000000000e+00 0.0000000000e+00 
          0.0000000000e+00 0.0000000000e+00 0.0000000000e+00 
          0.0000000000e+00 0.0000000000e+00 0.0000000000e+00 
          0.0000000000e+00 0.0000000000e+00 0.0000000000e+00 
          0.0000000000e+00 0.0000000000e+00 0.0000000000e+00 
          0.0000000000e+00 0.0000000000e+00 0.0000000000e+00 
          0.0000000000e+00 0.0000000000e+00 0.0000000000e+00 
          0.0000000000e+00 0.0000000000e+00 0.0000000000e+00 
          0.0000000000e+00 0.0000000000e+00 0.0000000000e+00 
          0.0000000000e+00 0.0000000000e+00 0.0000000000e+00 
          0.0000000000e+00 0.0000000000e+00 0.0000000000e+00 
          0.0000000000e+00 0.0000000000e+00 0.0000000000e+00 
          0.0000000000e+00 0.0000000000e+00 0.0000000000e+00 
          0.0000000000e+00 0.0000000000e+00 0.0000000000e+00 
          0.0000000000e+00 0.0000000000e+00 0.0000000000e+00 
          0.0000000000e+00 0.0000000000e+00 0.0000000000e+00 
          0.0000000000e+00 0.0000000000e+00 0.0000000000e+00 
          0.0000000000e+00 0.0000000000e+00 0.0000000000e+00 
          0.0000000000e+00 0.0000000000e+00 0.0000000000e+00 
          0.0000000000e+00 0.0000000000e+00 0.0000000000e+00 
          0.0000000000e+00 0.0000000000e+00 0.0000000000e+00 
          0.0000000000e+00 0.0000000000e+00 0.0000000000e+00 
          0.0000000000e+00 0.0000000000e+00 0.0000000000e+00 
          0.0000000000e+00 0.0000000000e+00 0.0000000000e+00 
          0.0000000000e+00 0.0000000000e+00 0.0000000000e+00 
          0.0000000000e+00 0.0000000000e+00 0.0000000000e+00 
          0.0000000000e+00 0.0000000000e+00 0.0000000000e+00 
          0.0000000000e+00 0.0000000000e+00 0.0000000000e+00 
          0.0000000000e+00 0.0000000000e+00 0.0000000000e+00 
          0.0000000000e+00 0.0000000000e+00 0.0000000000e+00 
          0.0000000000e+00 0.0000000000e+00 0.0000000000e+00 
        </DataArray>
      </PointData>
      <CellData>
        <DataArray type="Int64" Name="ElementTag" format="ascii">
          0
        </DataArray>
      </CellData>
    </Piece>
  </UnstructuredGrid>
</VTKFile>
