<?xml version="1.0"?>
<VTKFile type="UnstructuredGrid" version="1.0" byte_order="LittleEndian" compressor="vtkZLibDataCompressor">
  <UnstructuredGrid>
    <Piece NumberOfPoints="80" NumberOfCells="39">
      <Points>
        <DataArray type="Float64" Name="Points" NumberOfComponents="3" format="ascii">
          0.0000000000e+00 0.0000000000e+00 0.0000000000e+00 
          2.5000000000e-01 0.0000000000e+00 0.0000000000e+00 
          2.5000000000e-01 3.0000000000e+01 0.0000000000e+00 
          0.0000000000e+00 3.0000000000e+01 0.0000000000e+00 
          2.5000000000e-01 7.6923100000e-01 0.0000000000e+00 
          2.5000000000e-01 1.5384620000e+00 0.0000000000e+00 
          2.5000000000e-01 2.3076920000e+00 0.0000000000e+00 
          2.5000000000e-01 3.0769230000e+00 0.0000000000e+00 
          2.5000000000e-01 3.8461540000e+00 0.0000000000e+00 
          2.5000000000e-01 4.6153850000e+00 0.0000000000e+00 
          2.5000000000e-01 5.3846150000e+00 0.0000000000e+00 
          2.5000000000e-01 6.1538460000e+00 0.0000000000e+00 
          2.5000000000e-01 6.9230770000e+00 0.0000000000e+00 
          2.5000000000e-01 7.6923080000e+00 0.0000000000e+00 
          2.5000000000e-01 8.4615380000e+00 0.0000000000e+00 
          2.5000000000e-01 9.2307690000e+00 0.0000000000e+00 
          2.5000000000e-01 1.0000000000e+01 0.0000000000e+00 
          2.5000000000e-01 1.0769231000e+01 0.0000000000e+00 
          2.5000000000e-01 1.1538462000e+01 0.0000000000e+00 
          2.5000000000e-01 1.2307692000e+01 0.0000000000e+00 
          2.5000000000e-01 1.3076923000e+01 0.0000000000e+00 
          2.5000000000e-01 1.3846154000e+01 0.0000000000e+00 
          2.5000000000e-01 1.4615385000e+01 0.0000000000e+00 
          2.5000000000e-01 1.5384615000e+01 0.0000000000e+00 
          2.5000000000e-01 1.6153846000e+01 0.0000000000e+00 
          2.5000000000e-01 1.6923077000e+01 0.0000000000e+00 
          2.5000000000e-01 1.7692308000e+01 0.0000000000e+00 
          2.5000000000e-01 1.8461538000e+01 0.0000000000e+00 
          2.5000000000e-01 1.9230769000e+01 0.0000000000e+00 
          2.5000000000e-01 2.0000000000e+01 0.0000000000e+00 
          2.5000000000e-01 2.0769231000e+01 0.0000000000e+00 
          2.5000000000e-01 2.1538462000e+01 0.0000000000e+00 
          2.5000000000e-01 2.2307692000e+01 0.0000000000e+00 
          2.5000000000e-01 2.3076923000e+01 0.0000000000e+00 
          2.5000000000e-01 2.3846154000e+01 0.0000000000e+00 
          2.5000000000e-01 2.4615385000e+01 0.0000000000e+00 
          2.5000000000e-01 2.5384615000e+01 0.0000000000e+00 
          2.5000000000e-01 2.6153846000e+01 0.0000000000e+00 
          2.5000000000e-01 2.6923077000e+01 0.0000000000e+00 
          2.5000000000e-01 2.7692308000e+01 0.0000000000e+00 
          2.5000000000e-01 2.8461538000e+01 0.0000000000e+00 
          2.5000000000e-01 2.9230769000e+01 0.0000000000e+00 
          0.0000000000e+00 7.6923100000e-01 0.0000000000e+00 
          0.0000000000e+00 1.5384620000e+00 0.0000000000e+00 
          0.0000000000e+00 2.3076920000e+00 0.0000000000e+00 
          0.0000000000e+00 3.0769230000e+00 0.0000000000e+00 
          0.0000000000e+00 3.8461540000e+00 0.0000000000e+00 
          0.0000000000e+00 4.6153850000e+00 0.0000000000e+00 
          0.0000000000e+00 5.3846150000e+00 0.0000000000e+00 
          0.0000000000e+00 6.1538460000e+00 0.0000000000e+00 
          0.0000000000e+00 6.9230770000e+00 0.0000000000e+00 
          0.0000000000e+00 7.6923080000e+00 0.0000000000e+00 
          0.0000000000e+00 8.4615380000e+00 0.0000000000e+00 
          0.0000000000e+00 9.2307690000e+00 0.0000000000e+00 
          0.0000000000e+00 1.0000000000e+01 0.0000000000e+00 
          0.0000000000e+00 1.0769231000e+01 0.0000000000e+00 
          0.0000000000e+00 1.1538462000e+01 0.0000000000e+00 
          0.0000000000e+00 1.2307692000e+01 0.0000000000e+00 
          0.0000000000e+00 1.3076923000e+01 0.0000000000e+00 
          0.0000000000e+00 1.3846154000e+01 0.0000000000e+00 
          0.0000000000e+00 1.4615385000e+01 0.0000000000e+00 
          0.0000000000e+00 1.5384615000e+01 0.0000000000e+00 
          0.0000000000e+00 1.6153846000e+01 0.0000000000e+00 
          0.0000000000e+00 1.6923077000e+01 0.0000000000e+00 
          0.0000000000e+00 1.7692308000e+01 0.0000000000e+00 
          0.0000000000e+00 1.8461538000e+01 0.0000000000e+00 
          0.0000000000e+00 1.9230769000e+01 0.0000000000e+00 
          0.0000000000e+00 2.0000000000e+01 0.0000000000e+00 
          0.0000000000e+00 2.0769231000e+01 0.0000000000e+00 
          0.0000000000e+00 2.1538462000e+01 0.0000000000e+00 
          0.0000000000e+00 2.2307692000e+01 0.0000000000e+00 
          0.0000000000e+00 2.3076923000e+01 0.0000000000e+00 
          0.0000000000e+00 2.3846154000e+01 0.0000000000e+00 
          0.0000000000e+00 2.4615385000e+01 0.0000000000e+00 
          0.0000000000e+00 2.5384615000e+01 0.0000000000e+00 
          0.0000000000e+00 2.6153846000e+01 0.0000000000e+00 
          0.0000000000e+00 2.6923077000e+01 0.0000000000e+00 
          0.0000000000e+00 2.7692308000e+01 0.0000000000e+00 
          0.0000000000e+00 2.8461538000e+01 0.0000000000e+00 
          0.0000000000e+00 2.9230769000e+01 0.0000000000e+00 
        </DataArray>
      </Points>
      <Cells>
        <DataArray type="Int64" Name="connectivity" format="ascii">
          0 1 4 42 
          42 4 5 43 
          43 5 6 44 
          44 6 7 45 
          45 7 8 46 
          46 8 9 47 
          47 9 10 48 
          48 10 11 49 
          49 11 12 50 
          50 12 13 51 
          51 13 14 52 
          52 14 15 53 
          53 15 16 54 
          54 16 17 55 
          55 17 18 56 
          56 18 19 57 
          57 19 20 58 
          58 20 21 59 
          59 21 22 60 
          60 22 23 61 
          61 23 24 62 
          62 24 25 63 
          63 25 26 64 
          64 26 27 65 
          65 27 28 66 
          66 28 29 67 
          67 29 30 68 
          68 30 31 69 
          69 31 32 70 
          70 32 33 71 
          71 33 34 72 
          72 34 35 73 
          73 35 36 74 
          74 36 37 75 
          75 37 38 76 
          76 38 39 77 
          77 39 40 78 
          78 40 41 79 
          79 41 2 3 
        </DataArray>
        <DataArray type="Int64" Name="offsets" format="ascii">
          4
          8
          12
          16
          20
          24
          28
          32
          36
          40
          44
          48
          52
          56
          60
          64
          68
          72
          76
          80
          84
          88
          92
          96
          100
          104
          108
          112
          116
          120
          124
          128
          132
          136
          140
          144
          148
          152
          156
        </DataArray>
        <DataArray type="Int64" Name="types" format="ascii">
          9
          9
          9
          9
          9
          9
          9
          9
          9
          9
          9
          9
          9
          9
          9
          9
          9
          9
          9
          9
          9
          9
          9
          9
          9
          9
          9
          9
          9
          9
          9
          9
          9
          9
          9
          9
          9
          9
          9
        </DataArray>
      </Cells>
      <PointData>
        <DataArray type="Int64" Name="NodeTag" format="ascii">
          1
          2
          3
          4
          7
          8
          9
          10
          11
          12
          13
          14
          15
          16
          17
          18
          19
          20
          21
          22
          23
          24
          25
          26
          27
          28
          29
          30
          31
          32
          33
          34
          35
          36
          37
          38
          39
          40
          41
          42
          43
          44
          45
          46
          47
          48
          49
          50
          51
          52
          53
          54
          55
          56
          57
          58
          59
          60
          61
          62
          63
          64
          65
          66
          67
          68
          69
          70
          71
          72
          73
          74
          75
          76
          77
          78
          79
          80
          81
          82
        </DataArray>
        <DataArray type="Float64" Name="Velocity" NumberOfComponents="3" format="ascii">
          9.0141414501e-05 -7.7847247993e-05 0.0000000000e+00 
          9.0141414501e-05 -7.7847247993e-05 0.0000000000e+00 
          8.5866069406e-05 -7.7877502665e-05 0.0000000000e+00 
          8.5866069406e-05 -7.7877502665e-05 0.0000000000e+00 
          9.1133951452e-05 -7.7861749829e-05 0.0000000000e+00 
          9.1993825930e-05 -7.7810236907e-05 0.0000000000e+00 
          9.2700958413e-05 -7.7897170232e-05 0.0000000000e+00 
          9.3298826332e-05 -7.7788909547e-05 0.0000000000e+00 
          9.3765501386e-05 -7.7891800092e-05 0.0000000000e+00 
          9.4122441346e-05 -7.7822306338e-05 0.0000000000e+00 
          9.4379221986e-05 -7.7845684669e-05 0.0000000000e+00 
          9.4530717285e-05 -7.7857845713e-05 0.0000000000e+00 
          9.4602729465e-05 -7.7836576723e-05 0.0000000000e+00 
          9.4588639434e-05 -7.7842533075e-05 0.0000000000e+00 
          9.4497692671e-05 -7.7857352233e-05 0.0000000000e+00 
          9.4348386033e-05 -7.7840995132e-05 0.0000000000e+00 
          9.4131531385e-05 -7.7829710553e-05 0.0000000000e+00 
          9.3867980930e-05 -7.7881065957e-05 0.0000000000e+00 
          9.3558395055e-05 -7.7798636165e-05 0.0000000000e+00 
          9.3206214593e-05 -7.7891382755e-05 0.0000000000e+00 
          9.2829299830e-05 -7.7812859444e-05 0.0000000000e+00 
          9.2418594821e-05 -7.7859354663e-05 0.0000000000e+00 
          9.1992995026e-05 -7.7842429703e-05 0.0000000000e+00 
          9.1551830523e-05 -7.7852927841e-05 0.0000000000e+00 
          9.1100879918e-05 -7.7824565640e-05 0.0000000000e+00 
          9.0644483634e-05 -7.7873546484e-05 0.0000000000e+00 
          9.0195141711e-05 -7.7833087124e-05 0.0000000000e+00 
          8.9744479030e-05 -7.7818493021e-05 0.0000000000e+00 
          8.9304013061e-05 -7.7898949307e-05 0.0000000000e+00 
          8.8884084361e-05 -7.7798370496e-05 0.0000000000e+00 
          8.8472180236e-05 -7.7867227516e-05 0.0000000000e+00 
          8.8086168382e-05 -7.7838030165e-05 0.0000000000e+00 
          8.7725559295e-05 -7.7848689481e-05 0.0000000000e+00 
          8.7382488750e-05 -7.7847035875e-05 0.0000000000e+00 
          8.7079557251e-05 -7.7827499468e-05 0.0000000000e+00 
          8.6801761310e-05 -7.7882343458e-05 0.0000000000e+00 
          8.6553004331e-05 -7.7796986444e-05 0.0000000000e+00 
          8.6352003480e-05 -7.7888456321e-05 0.0000000000e+00 
          8.6169806285e-05 -7.7828078335e-05 0.0000000000e+00 
          8.6040141826e-05 -7.7828582964e-05 0.0000000000e+00 
          8.5941588141e-05 -7.7881669753e-05 0.0000000000e+00 
          8.5878229296e-05 -7.7809647754e-05 0.0000000000e+00 
          9.1133951452e-05 -7.7861749829e-05 0.0000000000e+00 
          9.1993825930e-05 -7.7810236907e-05 0.0000000000e+00 
          9.2700958413e-05 -7.7897170232e-05 0.0000000000e+00 
          9.3298826332e-05 -7.7788909547e-05 0.0000000000e+00 
          9.3765501386e-05 -7.7891800092e-05 0.0000000000e+00 
          9.4122441346e-05 -7.7822306338e-05 0.0000000000e+00 
          9.4379221986e-05 -7.7845684669e-05 0.0000000000e+00 
          9.4530717285e-05 -7.7857845713e-05 0.0000000000e+00 
          9.4602729465e-05 -7.7836576723e-05 0.0000000000e+00 
          9.4588639434e-05 -7.7842533075e-05 0.0000000000e+00 
          9.4497692671e-05 -7.7857352233e-05 0.0000000000e+00 
          9.4348386033e-05 -7.7840995132e-05 0.0000000000e+00 
          9.4131531385e-05 -7.7829710553e-05 0.0000000000e+00 
          9.3867980930e-05 -7.7881065957e-05 0.0000000000e+00 
          9.3558395055e-05 -7.7798636165e-05 0.0000000000e+00 
          9.3206214593e-05 -7.7891382755e-05 0.0000000000e+00 
          9.2829299830e-05 -7.7812859444e-05 0.0000000000e+00 
          9.2418594821e-05 -7.7859354663e-05 0.0000000000e+00 
          9.1992995026e-05 -7.7842429703e-05 0.0000000000e+00 
          9.1551830523e-05 -7.7852927841e-05 0.0000000000e+00 
          9.1100879918e-05 -7.7824565640e-05 0.0000000000e+00 
          9.0644483634e-05 -7.7873546484e-05 0.0000000000e+00 
          9.0195141711e-05 -7.7833087124e-05 0.0000000000e+00 
          8.9744479030e-05 -7.7818493021e-05 0.0000000000e+00 
          8.9304013061e-05 -7.7898949307e-05 0.0000000000e+00 
          8.8884084361e-05 -7.7798370496e-05 0.0000000000e+00 
          8.8472180236e-05 -7.7867227516e-05 0.0000000000e+00 
          8.8086168382e-05 -7.7838030165e-05 0.0000000000e+00 
          8.7725559295e-05 -7.7848689481e-05 0.0000000000e+00 
          8.7382488750e-05 -7.7847035875e-05 0.0000000000e+00 
          8.7079557251e-05 -7.7827499468e-05 0.0000000000e+00 
          8.6801761310e-05 -7.7882343458e-05 0.0000000000e+00 
          8.6553004331e-05 -7.7796986444e-05 0.0000000000e+00 
          8.6352003480e-05 -7.7888456321e-05 0.0000000000e+00 
          8.6169806285e-05 -7.7828078335e-05 0.0000000000e+00 
          8.6040141826e-05 -7.7828582964e-05 0.0000000000e+00 
          8.5941588141e-05 -7.7881669753e-05 0.0000000000e+00 
          8.5878229296e-05 -7.7809647754e-05 0.0000000000e+00 
        </DataArray>
        <DataArray type="Float64" Name="Displacement" NumberOfComponents="3" format="ascii">
          -2.3644241146e-06 -5.2829675850e-04 0.0000000000e+00 
          -2.3644241146e-06 -5.2829675850e-04 0.0000000000e+00 
          3.4971417407e-05 -5.5187740231e-04 0.0000000000e+00 
          3.4971417407e-05 -5.5187740231e-04 0.0000000000e+00 
          -8.6711666517e-07 -5.2949054851e-04 0.0000000000e+00 
          6.2842736868e-07 -5.3065321771e-04 0.0000000000e+00 
          2.1197230918e-06 -5.3178505182e-04 0.0000000000e+00 
          3.6043015273e-06 -5.3288575038e-04 0.0000000000e+00 
          5.0797379421e-06 -5.3395542617e-04 0.0000000000e+00 
          6.5435705680e-06 -5.3499427826e-04 0.0000000000e+00 
          7.9934121500e-06 -5.3600187318e-04 0.0000000000e+00 
          9.4268792149e-06 -5.3697864657e-04 0.0000000000e+00 
          1.0841597307e-05 -5.3792434215e-04 0.0000000000e+00 
          1.2235286447e-05 -5.3883904091e-04 0.0000000000e+00 
          1.3605608908e-05 -5.3972273105e-04 0.0000000000e+00 
          1.4950360394e-05 -5.4057538342e-04 0.0000000000e+00 
          1.6267320619e-05 -5.4139715486e-04 0.0000000000e+00 
          1.7554316661e-05 -5.4218769801e-04 0.0000000000e+00 
          1.8809270727e-05 -5.4294745982e-04 0.0000000000e+00 
          2.0030087058e-05 -5.4367609831e-04 0.0000000000e+00 
          2.1214791248e-05 -5.4437369602e-04 0.0000000000e+00 
          2.2361427690e-05 -5.4504044081e-04 0.0000000000e+00 
          2.3468107947e-05 -5.4567596369e-04 0.0000000000e+00 
          2.4533019296e-05 -5.4628067574e-04 0.0000000000e+00 
          2.5554405936e-05 -5.4685429131e-04 0.0000000000e+00 
          2.6530593788e-05 -5.4739683729e-04 0.0000000000e+00 
          2.7459954599e-05 -5.4790857346e-04 0.0000000000e+00 
          2.8340986450e-05 -5.4838903214e-04 0.0000000000e+00 
          2.9172197875e-05 -5.4883874354e-04 0.0000000000e+00 
          2.9952242741e-05 -5.4925727883e-04 0.0000000000e+00 
          3.0679827834e-05 -5.4964486285e-04 0.0000000000e+00 
          3.1353722041e-05 -5.5000146584e-04 0.0000000000e+00 
          3.1972850837e-05 -5.5032701567e-04 0.0000000000e+00 
          3.2536147509e-05 -5.5062157232e-04 0.0000000000e+00 
          3.3042699737e-05 -5.5088515744e-04 0.0000000000e+00 
          3.3491663281e-05 -5.5111769440e-04 0.0000000000e+00 
          3.3882283194e-05 -5.5131920314e-04 0.0000000000e+00 
          3.4213918506e-05 -5.5148982878e-04 0.0000000000e+00 
          3.4486007409e-05 -5.5162923537e-04 0.0000000000e+00 
          3.4698111137e-05 -5.5173788348e-04 0.0000000000e+00 
          3.4849863601e-05 -5.5181531920e-04 0.0000000000e+00 
          3.4941013779e-05 -5.5186183175e-04 0.0000000000e+00 
          -8.6711666517e-07 -5.2949054851e-04 0.0000000000e+00 
          6.2842736868e-07 -5.3065321771e-04 0.0000000000e+00 
          2.1197230918e-06 -5.3178505182e-04 0.0000000000e+00 
          3.6043015273e-06 -5.3288575038e-04 0.0000000000e+00 
          5.0797379421e-06 -5.3395542617e-04 0.0000000000e+00 
          6.5435705680e-06 -5.3499427826e-04 0.0000000000e+00 
          7.9934121500e-06 -5.3600187318e-04 0.0000000000e+00 
          9.4268792149e-06 -5.3697864657e-04 0.0000000000e+00 
          1.0841597307e-05 -5.3792434215e-04 0.0000000000e+00 
          1.2235286447e-05 -5.3883904091e-04 0.0000000000e+00 
          1.3605608908e-05 -5.3972273105e-04 0.0000000000e+00 
          1.4950360394e-05 -5.4057538342e-04 0.0000000000e+00 
          1.6267320619e-05 -5.4139715486e-04 0.0000000000e+00 
          1.7554316661e-05 -5.4218769801e-04 0.0000000000e+00 
          1.8809270727e-05 -5.4294745982e-04 0.0000000000e+00 
          2.0030087058e-05 -5.4367609831e-04 0.0000000000e+00 
          2.1214791248e-05 -5.4437369602e-04 0.0000000000e+00 
          2.2361427690e-05 -5.4504044081e-04 0.0000000000e+00 
          2.3468107947e-05 -5.4567596369e-04 0.0000000000e+00 
          2.4533019296e-05 -5.4628067574e-04 0.0000000000e+00 
          2.5554405936e-05 -5.4685429131e-04 0.0000000000e+00 
          2.6530593788e-05 -5.4739683729e-04 0.0000000000e+00 
          2.7459954599e-05 -5.4790857346e-04 0.0000000000e+00 
          2.8340986450e-05 -5.4838903214e-04 0.0000000000e+00 
          2.9172197875e-05 -5.4883874354e-04 0.0000000000e+00 
          2.9952242741e-05 -5.4925727883e-04 0.0000000000e+00 
          3.0679827834e-05 -5.4964486285e-04 0.0000000000e+00 
          3.1353722041e-05 -5.5000146584e-04 0.0000000000e+00 
          3.1972850837e-05 -5.5032701567e-04 0.0000000000e+00 
          3.2536147509e-05 -5.5062157232e-04 0.0000000000e+00 
          3.3042699737e-05 -5.5088515744e-04 0.0000000000e+00 
          3.3491663281e-05 -5.5111769440e-04 0.0000000000e+00 
          3.3882283194e-05 -5.5131920314e-04 0.0000000000e+00 
          3.4213918506e-05 -5.5148982878e-04 0.0000000000e+00 
          3.4486007409e-05 -5.5162923537e-04 0.0000000000e+00 
          3.4698111137e-05 -5.5173788348e-04 0.0000000000e+00 
          3.4849863601e-05 -5.5181531920e-04 0.0000000000e+00 
          3.4941013779e-05 -5.5186183175e-04 0.0000000000e+00 
        </DataArray>
        <DataArray type="Float64" Name="Acceleration" NumberOfComponents="3" format="ascii">
          6.4267877506e-05 -1.1576448533e-06 0.0000000000e+00 
          6.4267877506e-05 -1.1576448533e-06 0.0000000000e+00 
          -5.4788538304e-03 2.4286984958e-05 0.0000000000e+00 
          -5.4788538304e-03 2.4286984958e-05 0.0000000000e+00 
          -1.5888722757e-04 2.0629966266e-05 0.0000000000e+00 
          -3.8260675554e-04 -3.1121619226e-05 0.0000000000e+00 
          -6.0541595166e-04 2.3554212323e-05 0.0000000000e+00 
          -8.2371412702e-04 2.9608524673e-06 0.0000000000e+00 
          -1.0455242889e-03 -3.2911812568e-05 0.0000000000e+00 
          -1.2604516742e-03 4.4968009267e-05 0.0000000000e+00 
          -1.4755471196e-03 -3.3061617053e-05 0.0000000000e+00 
          -1.6893194313e-03 1.2878711928e-05 0.0000000000e+00 
          -1.8947502193e-03 -1.7149057418e-06 0.0000000000e+00 
          -2.1052246956e-03 2.0726543554e-07 0.0000000000e+00 
          -2.3041573357e-03 5.8755035583e-06 0.0000000000e+00 
          -2.5040475411e-03 -2.2598471531e-05 0.0000000000e+00 
          -2.6998321034e-03 3.9996943224e-05 0.0000000000e+00 
          -2.8870452289e-03 -4.0546995910e-05 0.0000000000e+00 
          -3.0757364176e-03 2.0915881178e-05 0.0000000000e+00 
          -3.2539203410e-03 6.3805439488e-06 0.0000000000e+00 
          -3.4299791899e-03 -2.7647954658e-05 0.0000000000e+00 
          -3.6001312318e-03 3.8849463702e-05 0.0000000000e+00 
          -3.7633387955e-03 -3.5371104632e-05 0.0000000000e+00 
          -3.9217895417e-03 1.6391589229e-05 0.0000000000e+00 
          -4.0725000255e-03 1.1396336467e-05 0.0000000000e+00 
          -4.2192088322e-03 -3.5414461760e-05 0.0000000000e+00 
          -4.3544344293e-03 4.8755547007e-05 0.0000000000e+00 
          -4.4890248593e-03 -4.6568160120e-05 0.0000000000e+00 
          -4.6102081085e-03 3.0593914104e-05 0.0000000000e+00 
          -4.7267289935e-03 -9.9246992959e-06 0.0000000000e+00 
          -4.8376550011e-03 -4.5583450207e-06 0.0000000000e+00 
          -4.9344022984e-03 8.3630437350e-06 0.0000000000e+00 
          -5.0306603603e-03 -2.2887490950e-06 0.0000000000e+00 
          -5.1127865928e-03 -6.2740665995e-06 0.0000000000e+00 
          -5.1888541041e-03 7.5385165436e-06 0.0000000000e+00 
          -5.2568339826e-03 3.8985836140e-06 0.0000000000e+00 
          -5.3146782501e-03 -2.2158507746e-05 0.0000000000e+00 
          -5.3652491123e-03 3.8334502108e-05 0.0000000000e+00 
          -5.4047827070e-03 -4.4666853454e-05 0.0000000000e+00 
          -5.4377538604e-03 3.7117897155e-05 0.0000000000e+00 
          -5.4604068759e-03 -1.4964794901e-05 0.0000000000e+00 
          -5.4733841870e-03 -1.1595261030e-05 0.0000000000e+00 
          -1.5888722757e-04 2.0629966266e-05 0.0000000000e+00 
          -3.8260675554e-04 -3.1121619226e-05 0.0000000000e+00 
          -6.0541595166e-04 2.3554212323e-05 0.0000000000e+00 
          -8.2371412702e-04 2.9608524673e-06 0.0000000000e+00 
          -1.0455242889e-03 -3.2911812568e-05 0.0000000000e+00 
          -1.2604516742e-03 4.4968009267e-05 0.0000000000e+00 
          -1.4755471196e-03 -3.3061617053e-05 0.0000000000e+00 
          -1.6893194313e-03 1.2878711928e-05 0.0000000000e+00 
          -1.8947502193e-03 -1.7149057418e-06 0.0000000000e+00 
          -2.1052246956e-03 2.0726543554e-07 0.0000000000e+00 
          -2.3041573357e-03 5.8755035583e-06 0.0000000000e+00 
          -2.5040475411e-03 -2.2598471531e-05 0.0000000000e+00 
          -2.6998321034e-03 3.9996943224e-05 0.0000000000e+00 
          -2.8870452289e-03 -4.0546995910e-05 0.0000000000e+00 
          -3.0757364176e-03 2.0915881178e-05 0.0000000000e+00 
          -3.2539203410e-03 6.3805439488e-06 0.0000000000e+00 
          -3.4299791899e-03 -2.7647954658e-05 0.0000000000e+00 
          -3.6001312318e-03 3.8849463702e-05 0.0000000000e+00 
          -3.7633387955e-03 -3.5371104632e-05 0.0000000000e+00 
          -3.9217895417e-03 1.6391589229e-05 0.0000000000e+00 
          -4.0725000255e-03 1.1396336467e-05 0.0000000000e+00 
          -4.2192088322e-03 -3.5414461760e-05 0.0000000000e+00 
          -4.3544344293e-03 4.8755547007e-05 0.0000000000e+00 
          -4.4890248593e-03 -4.6568160120e-05 0.0000000000e+00 
          -4.6102081085e-03 3.0593914104e-05 0.0000000000e+00 
          -4.7267289935e-03 -9.9246992959e-06 0.0000000000e+00 
          -4.8376550011e-03 -4.5583450207e-06 0.0000000000e+00 
          -4.9344022984e-03 8.3630437350e-06 0.0000000000e+00 
          -5.0306603603e-03 -2.2887490950e-06 0.0000000000e+00 
          -5.1127865928e-03 -6.2740665995e-06 0.0000000000e+00 
          -5.1888541041e-03 7.5385165436e-06 0.0000000000e+00 
          -5.2568339826e-03 3.8985836140e-06 0.0000000000e+00 
          -5.3146782501e-03 -2.2158507746e-05 0.0000000000e+00 
          -5.3652491123e-03 3.8334502108e-05 0.0000000000e+00 
          -5.4047827070e-03 -4.4666853454e-05 0.0000000000e+00 
          -5.4377538604e-03 3.7117897155e-05 0.0000000000e+00 
          -5.4604068759e-03 -1.4964794901e-05 0.0000000000e+00 
          -5.4733841870e-03 -1.1595261030e-05 0.0000000000e+00 
        </DataArray>
        <DataArray type="Float64" Name="Reaction" NumberOfComponents="3" format="ascii">
          0.0000000000e+00 0.0000000000e+00 0.0000000000e+00 
          0.0000000000e+00 0.0000000000e+00 0.0000000000e+00 
          0.0000000000e+00 0.0000000000e+00 0.0000000000e+00 
          0.0000000000e+00 0.0000000000e+00 0.0000000000e+00 
          0.0000000000e+00 0.0000000000e+00 0.0000000000e+00 
          0.0000000000e+00 0.0000000000e+00 0.0000000000e+00 
          0.0000000000e+00 0.0000000000e+00 0.0000000000e+00 
          0.0000000000e+00 0.0000000000e+00 0.0000000000e+00 
          0.0000000000e+00 0.0000000000e+00 0.0000000000e+00 
          0.0000000000e+00 0.0000000000e+00 0.0000000000e+00 
          0.0000000000e+00 0.0000000000e+00 0.0000000000e+00 
          0.0000000000e+00 0.0000000000e+00 0.0000000000e+00 
          0.0000000000e+00 0.0000000000e+00 0.0000000000e+00 
          0.0000000000e+00 0.0000000000e+00 0.0000000000e+00 
          0.0000000000e+00 0.0000000000e+00 0.0000000000e+00 
          0.0000000000e+00 0.0000000000e+00 0.0000000000e+00 
          0.0000000000e+00 0.0000000000e+00 0.0000000000e+00 
          0.0000000000e+00 0.0000000000e+00 0.0000000000e+00 
          0.0000000000e+00 0.0000000000e+00 0.0000000000e+00 
          0.0000000000e+00 0.0000000000e+00 0.0000000000e+00 
          0.0000000000e+00 0.0000000000e+00 0.0000000000e+00 
          0.0000000000e+00 0.0000000000e+00 0.0000000000e+00 
          0.0000000000e+00 0.0000000000e+00 0.0000000000e+00 
          0.0000000000e+00 0.0000000000e+00 0.0000000000e+00 
          0.0000000000e+00 0.0000000000e+00 0.0000000000e+00 
          0.0000000000e+00 0.0000000000e+00 0.0000000000e+00 
          0.0000000000e+00 0.0000000000e+00 0.0000000000e+00 
          0.0000000000e+00 0.0000000000e+00 0.0000000000e+00 
          0.0000000000e+00 0.0000000000e+00 0.0000000000e+00 
          0.0000000000e+00 0.0000000000e+00 0.0000000000e+00 
          0.0000000000e+00 0.0000000000e+00 0.0000000000e+00 
          0.0000000000e+00 0.0000000000e+00 0.0000000000e+00 
          0.0000000000e+00 0.0000000000e+00 0.0000000000e+00 
          0.0000000000e+00 0.0000000000e+00 0.0000000000e+00 
          0.0000000000e+00 0.0000000000e+00 0.0000000000e+00 
          0.0000000000e+00 0.0000000000e+00 0.0000000000e+00 
          0.0000000000e+00 0.0000000000e+00 0.0000000000e+00 
          0.0000000000e+00 0.0000000000e+00 0.0000000000e+00 
          0.0000000000e+00 0.0000000000e+00 0.0000000000e+00 
          0.0000000000e+00 0.0000000000e+00 0.0000000000e+00 
          0.0000000000e+00 0.0000000000e+00 0.0000000000e+00 
          0.0000000000e+00 0.0000000000e+00 0.0000000000e+00 
          0.0000000000e+00 0.0000000000e+00 0.0000000000e+00 
          0.0000000000e+00 0.0000000000e+00 0.0000000000e+00 
          0.0000000000e+00 0.0000000000e+00 0.0000000000e+00 
          0.0000000000e+00 0.0000000000e+00 0.0000000000e+00 
          0.0000000000e+00 0.0000000000e+00 0.0000000000e+00 
          0.0000000000e+00 0.0000000000e+00 0.0000000000e+00 
          0.0000000000e+00 0.0000000000e+00 0.0000000000e+00 
          0.0000000000e+00 0.0000000000e+00 0.0000000000e+00 
          0.0000000000e+00 0.0000000000e+00 0.0000000000e+00 
          0.0000000000e+00 0.0000000000e+00 0.0000000000e+00 
          0.0000000000e+00 0.0000000000e+00 0.0000000000e+00 
          0.0000000000e+00 0.0000000000e+00 0.0000000000e+00 
          0.0000000000e+00 0.0000000000e+00 0.0000000000e+00 
          0.0000000000e+00 0.0000000000e+00 0.0000000000e+00 
          0.0000000000e+00 0.0000000000e+00 0.0000000000e+00 
          0.0000000000e+00 0.0000000000e+00 0.0000000000e+00 
          0.0000000000e+00 0.0000000000e+00 0.0000000000e+00 
          0.0000000000e+00 0.0000000000e+00 0.0000000000e+00 
          0.0000000000e+00 0.0000000000e+00 0.0000000000e+00 
          0.0000000000e+00 0.0000000000e+00 0.0000000000e+00 
          0.0000000000e+00 0.0000000000e+00 0.0000000000e+00 
          0.0000000000e+00 0.0000000000e+00 0.0000000000e+00 
          0.0000000000e+00 0.0000000000e+00 0.0000000000e+00 
          0.0000000000e+00 0.0000000000e+00 0.0000000000e+00 
          0.0000000000e+00 0.0000000000e+00 0.0000000000e+00 
          0.0000000000e+00 0.0000000000e+00 0.0000000000e+00 
          0.0000000000e+00 0.0000000000e+00 0.0000000000e+00 
          0.0000000000e+00 0.0000000000e+00 0.0000000000e+00 
          0.0000000000e+00 0.0000000000e+00 0.0000000000e+00 
          0.0000000000e+00 0.0000000000e+00 0.0000000000e+00 
          0.0000000000e+00 0.0000000000e+00 0.0000000000e+00 
          0.0000000000e+00 0.0000000000e+00 0.0000000000e+00 
          0.0000000000e+00 0.0000000000e+00 0.0000000000e+00 
          0.0000000000e+00 0.0000000000e+00 0.0000000000e+00 
          0.0000000000e+00 0.0000000000e+00 0.0000000000e+00 
          0.0000000000e+00 0.0000000000e+00 0.0000000000e+00 
          0.0000000000e+00 0.0000000000e+00 0.0000000000e+00 
          0.0000000000e+00 0.0000000000e+00 0.0000000000e+00 
        </DataArray>
      </PointData>
      <CellData>
        <DataArray type="Int64" Name="ElementTag" format="ascii">
          90
          91
          92
          93
          94
          95
          96
          97
          98
          99
          100
          101
          102
          103
          104
          105
          106
          107
          108
          109
          110
          111
          112
          113
          114
          115
          116
          117
          118
          119
          120
          121
          122
          123
          124
          125
          126
          127
          128
        </DataArray>
      </CellData>
    </Piece>
  </UnstructuredGrid>
</VTKFile>
