<?xml version="1.0"?>
<VTKFile type="UnstructuredGrid" version="1.0" byte_order="LittleEndian" compressor="vtkZLibDataCompressor">
  <UnstructuredGrid>
    <Piece NumberOfPoints="82" NumberOfCells="1">
      <Points>
        <DataArray type="Float64" Name="Points" NumberOfComponents="3" format="ascii">
          0.0000000000e+00 0.0000000000e+00 0.0000000000e+00 
          2.5000000000e-01 0.0000000000e+00 0.0000000000e+00 
          2.5000000000e-01 3.0000000000e+01 0.0000000000e+00 
          0.0000000000e+00 3.0000000000e+01 0.0000000000e+00 
          0.0000000000e+00 -5.0000000000e+00 0.0000000000e+00 
          2.5000000000e-01 -5.0000000000e+00 0.0000000000e+00 
          2.5000000000e-01 7.6923100000e-01 0.0000000000e+00 
          2.5000000000e-01 1.5384620000e+00 0.0000000000e+00 
          2.5000000000e-01 2.3076920000e+00 0.0000000000e+00 
          2.5000000000e-01 3.0769230000e+00 0.0000000000e+00 
          2.5000000000e-01 3.8461540000e+00 0.0000000000e+00 
          2.5000000000e-01 4.6153850000e+00 0.0000000000e+00 
          2.5000000000e-01 5.3846150000e+00 0.0000000000e+00 
          2.5000000000e-01 6.1538460000e+00 0.0000000000e+00 
          2.5000000000e-01 6.9230770000e+00 0.0000000000e+00 
          2.5000000000e-01 7.6923080000e+00 0.0000000000e+00 
          2.5000000000e-01 8.4615380000e+00 0.0000000000e+00 
          2.5000000000e-01 9.2307690000e+00 0.0000000000e+00 
          2.5000000000e-01 1.0000000000e+01 0.0000000000e+00 
          2.5000000000e-01 1.0769231000e+01 0.0000000000e+00 
          2.5000000000e-01 1.1538462000e+01 0.0000000000e+00 
          2.5000000000e-01 1.2307692000e+01 0.0000000000e+00 
          2.5000000000e-01 1.3076923000e+01 0.0000000000e+00 
          2.5000000000e-01 1.3846154000e+01 0.0000000000e+00 
          2.5000000000e-01 1.4615385000e+01 0.0000000000e+00 
          2.5000000000e-01 1.5384615000e+01 0.0000000000e+00 
          2.5000000000e-01 1.6153846000e+01 0.0000000000e+00 
          2.5000000000e-01 1.6923077000e+01 0.0000000000e+00 
          2.5000000000e-01 1.7692308000e+01 0.0000000000e+00 
          2.5000000000e-01 1.8461538000e+01 0.0000000000e+00 
          2.5000000000e-01 1.9230769000e+01 0.0000000000e+00 
          2.5000000000e-01 2.0000000000e+01 0.0000000000e+00 
          2.5000000000e-01 2.0769231000e+01 0.0000000000e+00 
          2.5000000000e-01 2.1538462000e+01 0.0000000000e+00 
          2.5000000000e-01 2.2307692000e+01 0.0000000000e+00 
          2.5000000000e-01 2.3076923000e+01 0.0000000000e+00 
          2.5000000000e-01 2.3846154000e+01 0.0000000000e+00 
          2.5000000000e-01 2.4615385000e+01 0.0000000000e+00 
          2.5000000000e-01 2.5384615000e+01 0.0000000000e+00 
          2.5000000000e-01 2.6153846000e+01 0.0000000000e+00 
          2.5000000000e-01 2.6923077000e+01 0.0000000000e+00 
          2.5000000000e-01 2.7692308000e+01 0.0000000000e+00 
          2.5000000000e-01 2.8461538000e+01 0.0000000000e+00 
          2.5000000000e-01 2.9230769000e+01 0.0000000000e+00 
          0.0000000000e+00 7.6923100000e-01 0.0000000000e+00 
          0.0000000000e+00 1.5384620000e+00 0.0000000000e+00 
          0.0000000000e+00 2.3076920000e+00 0.0000000000e+00 
          0.0000000000e+00 3.0769230000e+00 0.0000000000e+00 
          0.0000000000e+00 3.8461540000e+00 0.0000000000e+00 
          0.0000000000e+00 4.6153850000e+00 0.0000000000e+00 
          0.0000000000e+00 5.3846150000e+00 0.0000000000e+00 
          0.0000000000e+00 6.1538460000e+00 0.0000000000e+00 
          0.0000000000e+00 6.9230770000e+00 0.0000000000e+00 
          0.0000000000e+00 7.6923080000e+00 0.0000000000e+00 
          0.0000000000e+00 8.4615380000e+00 0.0000000000e+00 
          0.0000000000e+00 9.2307690000e+00 0.0000000000e+00 
          0.0000000000e+00 1.0000000000e+01 0.0000000000e+00 
          0.0000000000e+00 1.0769231000e+01 0.0000000000e+00 
          0.0000000000e+00 1.1538462000e+01 0.0000000000e+00 
          0.0000000000e+00 1.2307692000e+01 0.0000000000e+00 
          0.0000000000e+00 1.3076923000e+01 0.0000000000e+00 
          0.0000000000e+00 1.3846154000e+01 0.0000000000e+00 
          0.0000000000e+00 1.4615385000e+01 0.0000000000e+00 
          0.0000000000e+00 1.5384615000e+01 0.0000000000e+00 
          0.0000000000e+00 1.6153846000e+01 0.0000000000e+00 
          0.0000000000e+00 1.6923077000e+01 0.0000000000e+00 
          0.0000000000e+00 1.7692308000e+01 0.0000000000e+00 
          0.0000000000e+00 1.8461538000e+01 0.0000000000e+00 
          0.0000000000e+00 1.9230769000e+01 0.0000000000e+00 
          0.0000000000e+00 2.0000000000e+01 0.0000000000e+00 
          0.0000000000e+00 2.0769231000e+01 0.0000000000e+00 
          0.0000000000e+00 2.1538462000e+01 0.0000000000e+00 
          0.0000000000e+00 2.2307692000e+01 0.0000000000e+00 
          0.0000000000e+00 2.3076923000e+01 0.0000000000e+00 
          0.0000000000e+00 2.3846154000e+01 0.0000000000e+00 
          0.0000000000e+00 2.4615385000e+01 0.0000000000e+00 
          0.0000000000e+00 2.5384615000e+01 0.0000000000e+00 
          0.0000000000e+00 2.6153846000e+01 0.0000000000e+00 
          0.0000000000e+00 2.6923077000e+01 0.0000000000e+00 
          0.0000000000e+00 2.7692308000e+01 0.0000000000e+00 
          0.0000000000e+00 2.8461538000e+01 0.0000000000e+00 
          0.0000000000e+00 2.9230769000e+01 0.0000000000e+00 
        </DataArray>
      </Points>
      <Cells>
        <DataArray type="Int64" Name="connectivity" format="ascii">
          0
          1
          2
          3
          4
          5
          6
          7
          8
          9
          10
          11
          12
          13
          14
          15
          16
          17
          18
          19
          20
          21
          22
          23
          24
          25
          26
          27
          28
          29
          30
          31
          32
          33
          34
          35
          36
          37
          38
          39
          40
          41
          42
          43
          44
          45
          46
          47
          48
          49
          50
          51
          52
          53
          54
          55
          56
          57
          58
          59
          60
          61
          62
          63
          64
          65
          66
          67
          68
          69
          70
          71
          72
          73
          74
          75
          76
          77
          78
          79
          80
          81
        </DataArray>
        <DataArray type="Int64" Name="offsets" format="ascii">
          82
        </DataArray>
        <DataArray type="Int64" Name="types" format="ascii">
          2
        </DataArray>
      </Cells>
      <PointData>
        <DataArray type="Int64" Name="NodeTag" format="ascii">
          1
          2
          3
          4
          5
          6
          7
          8
          9
          10
          11
          12
          13
          14
          15
          16
          17
          18
          19
          20
          21
          22
          23
          24
          25
          26
          27
          28
          29
          30
          31
          32
          33
          34
          35
          36
          37
          38
          39
          40
          41
          42
          43
          44
          45
          46
          47
          48
          49
          50
          51
          52
          53
          54
          55
          56
          57
          58
          59
          60
          61
          62
          63
          64
          65
          66
          67
          68
          69
          70
          71
          72
          73
          74
          75
          76
          77
          78
          79
          80
          81
          82
        </DataArray>
        <DataArray type="Float64" Name="Velocity" NumberOfComponents="3" format="ascii">
          -4.4841370670e-06 -7.7845389731e-05 0.0000000000e+00 
          -4.4841370670e-06 -7.7845389731e-05 0.0000000000e+00 
          9.9483854053e-06 -7.7827505783e-05 0.0000000000e+00 
          9.9483854053e-06 -7.7827505783e-05 0.0000000000e+00 
          0.0000000000e+00 0.0000000000e+00 0.0000000000e+00 
          0.0000000000e+00 0.0000000000e+00 0.0000000000e+00 
          -3.9609674541e-06 -7.7820059526e-05 0.0000000000e+00 
          -3.4328127269e-06 -7.7883918582e-05 0.0000000000e+00 
          -2.9005839985e-06 -7.7801144827e-05 0.0000000000e+00 
          -2.3648875852e-06 -7.7881055192e-05 0.0000000000e+00 
          -1.8295585122e-06 -7.7822953622e-05 0.0000000000e+00 
          -1.2905944402e-06 -7.7846911762e-05 0.0000000000e+00 
          -7.5533928077e-07 -7.7860053638e-05 0.0000000000e+00 
          -2.2013125274e-07 -7.7813915896e-05 0.0000000000e+00 
          3.1304629406e-07 -7.7885364330e-05 0.0000000000e+00 
          8.3884491808e-07 -7.7802386518e-05 0.0000000000e+00 
          1.3629119644e-06 -7.7873361151e-05 0.0000000000e+00 
          1.8803798389e-06 -7.7839104326e-05 0.0000000000e+00 
          2.3866986971e-06 -7.7828937051e-05 0.0000000000e+00 
          2.8901036691e-06 -7.7865271762e-05 0.0000000000e+00 
          3.3804198272e-06 -7.7834470215e-05 0.0000000000e+00 
          3.8583116373e-06 -7.7837389441e-05 0.0000000000e+00 
          4.3325690851e-06 -7.7861519507e-05 0.0000000000e+00 
          4.7821232769e-06 -7.7831423919e-05 0.0000000000e+00 
          5.2293062875e-06 -7.7840848711e-05 0.0000000000e+00 
          5.6549320368e-06 -7.7867974642e-05 0.0000000000e+00 
          6.0665137751e-06 -7.7808244694e-05 0.0000000000e+00 
          6.4636645433e-06 -7.7877707103e-05 0.0000000000e+00 
          6.8390154290e-06 -7.7828877226e-05 0.0000000000e+00 
          7.2019279038e-06 -7.7836185530e-05 0.0000000000e+00 
          7.5389613907e-06 -7.7872868028e-05 0.0000000000e+00 
          7.8621959614e-06 -7.7804306394e-05 0.0000000000e+00 
          8.1612088875e-06 -7.7884575041e-05 0.0000000000e+00 
          8.4387990993e-06 -7.7816436116e-05 0.0000000000e+00 
          8.6976999783e-06 -7.7854497053e-05 0.0000000000e+00 
          8.9292932545e-06 -7.7846515422e-05 0.0000000000e+00 
          9.1418606955e-06 -7.7841301209e-05 0.0000000000e+00 
          9.3286506571e-06 -7.7843605360e-05 0.0000000000e+00 
          9.4913663247e-06 -7.7842953391e-05 0.0000000000e+00 
          9.6310009219e-06 -7.7858487481e-05 0.0000000000e+00 
          9.7442868005e-06 -7.7814251766e-05 0.0000000000e+00 
          9.8336474396e-06 -7.7882417819e-05 0.0000000000e+00 
          9.8971073198e-06 -7.7811271716e-05 0.0000000000e+00 
          9.9353469371e-06 -7.7866683015e-05 0.0000000000e+00 
          -3.9609674541e-06 -7.7820059526e-05 0.0000000000e+00 
          -3.4328127269e-06 -7.7883918582e-05 0.0000000000e+00 
          -2.9005839985e-06 -7.7801144827e-05 0.0000000000e+00 
          -2.3648875852e-06 -7.7881055192e-05 0.0000000000e+00 
          -1.8295585122e-06 -7.7822953622e-05 0.0000000000e+00 
          -1.2905944402e-06 -7.7846911762e-05 0.0000000000e+00 
          -7.5533928077e-07 -7.7860053638e-05 0.0000000000e+00 
          -2.2013125274e-07 -7.7813915896e-05 0.0000000000e+00 
          3.1304629406e-07 -7.7885364330e-05 0.0000000000e+00 
          8.3884491808e-07 -7.7802386518e-05 0.0000000000e+00 
          1.3629119644e-06 -7.7873361151e-05 0.0000000000e+00 
          1.8803798389e-06 -7.7839104326e-05 0.0000000000e+00 
          2.3866986971e-06 -7.7828937051e-05 0.0000000000e+00 
          2.8901036691e-06 -7.7865271762e-05 0.0000000000e+00 
          3.3804198272e-06 -7.7834470215e-05 0.0000000000e+00 
          3.8583116373e-06 -7.7837389441e-05 0.0000000000e+00 
          4.3325690851e-06 -7.7861519507e-05 0.0000000000e+00 
          4.7821232769e-06 -7.7831423919e-05 0.0000000000e+00 
          5.2293062875e-06 -7.7840848711e-05 0.0000000000e+00 
          5.6549320368e-06 -7.7867974642e-05 0.0000000000e+00 
          6.0665137751e-06 -7.7808244694e-05 0.0000000000e+00 
          6.4636645433e-06 -7.7877707103e-05 0.0000000000e+00 
          6.8390154290e-06 -7.7828877226e-05 0.0000000000e+00 
          7.2019279038e-06 -7.7836185530e-05 0.0000000000e+00 
          7.5389613907e-06 -7.7872868028e-05 0.0000000000e+00 
          7.8621959614e-06 -7.7804306394e-05 0.0000000000e+00 
          8.1612088875e-06 -7.7884575041e-05 0.0000000000e+00 
          8.4387990993e-06 -7.7816436116e-05 0.0000000000e+00 
          8.6976999783e-06 -7.7854497053e-05 0.0000000000e+00 
          8.9292932545e-06 -7.7846515422e-05 0.0000000000e+00 
          9.1418606955e-06 -7.7841301209e-05 0.0000000000e+00 
          9.3286506571e-06 -7.7843605360e-05 0.0000000000e+00 
          9.4913663247e-06 -7.7842953391e-05 0.0000000000e+00 
          9.6310009219e-06 -7.7858487481e-05 0.0000000000e+00 
          9.7442868005e-06 -7.7814251766e-05 0.0000000000e+00 
          9.8336474396e-06 -7.7882417819e-05 0.0000000000e+00 
          9.8971073198e-06 -7.7811271716e-05 0.0000000000e+00 
          9.9353469371e-06 -7.7866683015e-05 0.0000000000e+00 
        </DataArray>
        <DataArray type="Float64" Name="Displacement" NumberOfComponents="3" format="ascii">
          -1.1768353895e-07 -6.7386593034e-04 0.0000000000e+00 
          -1.1768353895e-07 -6.7386593034e-04 0.0000000000e+00 
          -1.8898793220e-06 -6.9744620598e-04 0.0000000000e+00 
          -1.8898793220e-06 -6.9744620598e-04 0.0000000000e+00 
          0.0000000000e+00 0.0000000000e+00 0.0000000000e+00 
          0.0000000000e+00 0.0000000000e+00 0.0000000000e+00 
          -1.9197640874e-07 -6.7505968397e-04 0.0000000000e+00 
          -2.6582240574e-07 -6.7622239973e-04 0.0000000000e+00 
          -3.3911036006e-07 -6.7735413142e-04 0.0000000000e+00 
          -4.1174962469e-07 -6.7845489549e-04 0.0000000000e+00 
          -4.8363202067e-07 -6.7952454484e-04 0.0000000000e+00 
          -5.5466293658e-07 -6.8056332499e-04 0.0000000000e+00 
          -6.2474329541e-07 -6.8157099092e-04 0.0000000000e+00 
          -6.9378009190e-07 -6.8254770272e-04 0.0000000000e+00 
          -7.6167034832e-07 -6.8349338465e-04 0.0000000000e+00 
          -8.2833415587e-07 -6.8440810799e-04 0.0000000000e+00 
          -8.9366671643e-07 -6.8529172077e-04 0.0000000000e+00 
          -9.5759026583e-07 -6.8614448224e-04 0.0000000000e+00 
          -1.0200072261e-06 -6.8696605774e-04 0.0000000000e+00 
          -1.0808411481e-06 -6.8775680237e-04 0.0000000000e+00 
          -1.1400026302e-06 -6.8851640420e-04 0.0000000000e+00 
          -1.1974142802e-06 -6.8924505809e-04 0.0000000000e+00 
          -1.2529927026e-06 -6.8994274576e-04 0.0000000000e+00 
          -1.3066727072e-06 -6.9060930262e-04 0.0000000000e+00 
          -1.3583634139e-06 -6.9124502474e-04 0.0000000000e+00 
          -1.4080103126e-06 -6.9184955782e-04 0.0000000000e+00 
          -1.4555419091e-06 -6.9242325623e-04 0.0000000000e+00 
          -1.5008743596e-06 -6.9296580134e-04 0.0000000000e+00 
          -1.5439855572e-06 -6.9347744922e-04 0.0000000000e+00 
          -1.5847647899e-06 -6.9395802903e-04 0.0000000000e+00 
          -1.6232011392e-06 -6.9440761929e-04 0.0000000000e+00 
          -1.6592213366e-06 -6.9482622115e-04 0.0000000000e+00 
          -1.6927596488e-06 -6.9521376377e-04 0.0000000000e+00 
          -1.7238178684e-06 -6.9557040542e-04 0.0000000000e+00 
          -1.7522930409e-06 -6.9589587634e-04 0.0000000000e+00 
          -1.7781928095e-06 -6.9619052603e-04 0.0000000000e+00 
          -1.8014644093e-06 -6.9645403735e-04 0.0000000000e+00 
          -1.8220593036e-06 -6.9668656168e-04 0.0000000000e+00 
          -1.8399885162e-06 -6.9688817848e-04 0.0000000000e+00 
          -1.8551825295e-06 -6.9705861707e-04 0.0000000000e+00 
          -1.8676525872e-06 -6.9719822909e-04 0.0000000000e+00 
          -1.8773695111e-06 -6.9730670614e-04 0.0000000000e+00 
          -1.8843139370e-06 -6.9738421712e-04 0.0000000000e+00 
          -1.8884918741e-06 -6.9743077484e-04 0.0000000000e+00 
          -1.9197640874e-07 -6.7505968397e-04 0.0000000000e+00 
          -2.6582240574e-07 -6.7622239973e-04 0.0000000000e+00 
          -3.3911036006e-07 -6.7735413142e-04 0.0000000000e+00 
          -4.1174962469e-07 -6.7845489549e-04 0.0000000000e+00 
          -4.8363202067e-07 -6.7952454484e-04 0.0000000000e+00 
          -5.5466293658e-07 -6.8056332499e-04 0.0000000000e+00 
          -6.2474329541e-07 -6.8157099092e-04 0.0000000000e+00 
          -6.9378009190e-07 -6.8254770272e-04 0.0000000000e+00 
          -7.6167034832e-07 -6.8349338465e-04 0.0000000000e+00 
          -8.2833415587e-07 -6.8440810799e-04 0.0000000000e+00 
          -8.9366671643e-07 -6.8529172077e-04 0.0000000000e+00 
          -9.5759026583e-07 -6.8614448224e-04 0.0000000000e+00 
          -1.0200072261e-06 -6.8696605774e-04 0.0000000000e+00 
          -1.0808411481e-06 -6.8775680237e-04 0.0000000000e+00 
          -1.1400026302e-06 -6.8851640420e-04 0.0000000000e+00 
          -1.1974142802e-06 -6.8924505809e-04 0.0000000000e+00 
          -1.2529927026e-06 -6.8994274576e-04 0.0000000000e+00 
          -1.3066727072e-06 -6.9060930262e-04 0.0000000000e+00 
          -1.3583634139e-06 -6.9124502474e-04 0.0000000000e+00 
          -1.4080103126e-06 -6.9184955782e-04 0.0000000000e+00 
          -1.4555419091e-06 -6.9242325623e-04 0.0000000000e+00 
          -1.5008743596e-06 -6.9296580134e-04 0.0000000000e+00 
          -1.5439855572e-06 -6.9347744922e-04 0.0000000000e+00 
          -1.5847647899e-06 -6.9395802903e-04 0.0000000000e+00 
          -1.6232011392e-06 -6.9440761929e-04 0.0000000000e+00 
          -1.6592213366e-06 -6.9482622115e-04 0.0000000000e+00 
          -1.6927596488e-06 -6.9521376377e-04 0.0000000000e+00 
          -1.7238178684e-06 -6.9557040542e-04 0.0000000000e+00 
          -1.7522930409e-06 -6.9589587634e-04 0.0000000000e+00 
          -1.7781928095e-06 -6.9619052603e-04 0.0000000000e+00 
          -1.8014644093e-06 -6.9645403735e-04 0.0000000000e+00 
          -1.8220593036e-06 -6.9668656168e-04 0.0000000000e+00 
          -1.8399885162e-06 -6.9688817848e-04 0.0000000000e+00 
          -1.8551825295e-06 -6.9705861707e-04 0.0000000000e+00 
          -1.8676525872e-06 -6.9719822909e-04 0.0000000000e+00 
          -1.8773695111e-06 -6.9730670614e-04 0.0000000000e+00 
          -1.8843139370e-06 -6.9738421712e-04 0.0000000000e+00 
          -1.8884918741e-06 -6.9743077484e-04 0.0000000000e+00 
        </DataArray>
        <DataArray type="Float64" Name="Acceleration" NumberOfComponents="3" format="ascii">
          3.1322776709e-05 1.5503924709e-06 0.0000000000e+00 
          3.1322776709e-05 1.5503924709e-06 0.0000000000e+00 
          2.5002359562e-04 -2.5960414979e-05 0.0000000000e+00 
          2.5002359562e-04 -2.5960414979e-05 0.0000000000e+00 
          0.0000000000e+00 0.0000000000e+00 0.0000000000e+00 
          0.0000000000e+00 0.0000000000e+00 0.0000000000e+00 
          4.0264119996e-05 5.6850179152e-06 0.0000000000e+00 
          5.0272196571e-05 -4.2769936266e-06 0.0000000000e+00 
          5.8456844658e-05 -6.7060360776e-06 0.0000000000e+00 
          6.8195359706e-05 1.9529276162e-05 0.0000000000e+00 
          7.6720036003e-05 -2.4710884021e-05 0.0000000000e+00 
          8.5638916693e-05 1.9206240351e-05 0.0000000000e+00 
          9.4035298064e-05 -9.1667027740e-06 0.0000000000e+00 
          1.0330552361e-04 4.2417180263e-06 0.0000000000e+00 
          1.1050546613e-04 -8.6053384886e-06 0.0000000000e+00 
          1.1994040798e-04 1.8578558566e-05 0.0000000000e+00 
          1.2696242312e-04 -2.7727742411e-05 0.0000000000e+00 
          1.3574665416e-04 3.2372009418e-05 0.0000000000e+00 
          1.4263487880e-04 -3.1619522375e-05 0.0000000000e+00 
          1.5069013087e-04 2.4591794189e-05 0.0000000000e+00 
          1.5765670980e-04 -1.0691387972e-05 0.0000000000e+00 
          1.6518426278e-04 -7.0548050235e-06 0.0000000000e+00 
          1.7105118733e-04 2.2429477640e-05 0.0000000000e+00 
          1.7923967490e-04 -3.0922082689e-05 0.0000000000e+00 
          1.8414543766e-04 3.2787344652e-05 0.0000000000e+00 
          1.9059884362e-04 -3.0791033229e-05 0.0000000000e+00 
          1.9814740031e-04 2.6484110851e-05 0.0000000000e+00 
          2.0013926490e-04 -1.9661672909e-05 0.0000000000e+00 
          2.1011001795e-04 1.1014152565e-05 0.0000000000e+00 
          2.1110332075e-04 -2.9076911322e-06 0.0000000000e+00 
          2.1770006475e-04 -3.2323437903e-06 0.0000000000e+00 
          2.2362275837e-04 9.5329577398e-06 0.0000000000e+00 
          2.2346124023e-04 -1.8987148105e-05 0.0000000000e+00 
          2.3273445813e-04 2.9551446775e-05 0.0000000000e+00 
          2.3205246007e-04 -3.3276106859e-05 0.0000000000e+00 
          2.3680320271e-04 2.3790956169e-05 0.0000000000e+00 
          2.4117645730e-04 -3.4838634951e-06 0.0000000000e+00 
          2.4018123630e-04 -1.7850331968e-05 0.0000000000e+00 
          2.4644911979e-04 3.1021560063e-05 0.0000000000e+00 
          2.4543378274e-04 -3.2392435344e-05 0.0000000000e+00 
          2.4806278488e-04 2.3178721950e-05 0.0000000000e+00 
          2.4980689910e-04 -7.2703336801e-06 0.0000000000e+00 
          2.4926707621e-04 -9.5431863094e-06 0.0000000000e+00 
          2.5142858748e-04 2.1668988619e-05 0.0000000000e+00 
          4.0264119996e-05 5.6850179152e-06 0.0000000000e+00 
          5.0272196571e-05 -4.2769936266e-06 0.0000000000e+00 
          5.8456844658e-05 -6.7060360776e-06 0.0000000000e+00 
          6.8195359706e-05 1.9529276162e-05 0.0000000000e+00 
          7.6720036003e-05 -2.4710884021e-05 0.0000000000e+00 
          8.5638916693e-05 1.9206240351e-05 0.0000000000e+00 
          9.4035298064e-05 -9.1667027740e-06 0.0000000000e+00 
          1.0330552361e-04 4.2417180263e-06 0.0000000000e+00 
          1.1050546613e-04 -8.6053384886e-06 0.0000000000e+00 
          1.1994040798e-04 1.8578558566e-05 0.0000000000e+00 
          1.2696242312e-04 -2.7727742411e-05 0.0000000000e+00 
          1.3574665416e-04 3.2372009418e-05 0.0000000000e+00 
          1.4263487880e-04 -3.1619522375e-05 0.0000000000e+00 
          1.5069013087e-04 2.4591794189e-05 0.0000000000e+00 
          1.5765670980e-04 -1.0691387972e-05 0.0000000000e+00 
          1.6518426278e-04 -7.0548050235e-06 0.0000000000e+00 
          1.7105118733e-04 2.2429477640e-05 0.0000000000e+00 
          1.7923967490e-04 -3.0922082689e-05 0.0000000000e+00 
          1.8414543766e-04 3.2787344652e-05 0.0000000000e+00 
          1.9059884362e-04 -3.0791033229e-05 0.0000000000e+00 
          1.9814740031e-04 2.6484110851e-05 0.0000000000e+00 
          2.0013926490e-04 -1.9661672909e-05 0.0000000000e+00 
          2.1011001795e-04 1.1014152565e-05 0.0000000000e+00 
          2.1110332075e-04 -2.9076911322e-06 0.0000000000e+00 
          2.1770006475e-04 -3.2323437903e-06 0.0000000000e+00 
          2.2362275837e-04 9.5329577398e-06 0.0000000000e+00 
          2.2346124023e-04 -1.8987148105e-05 0.0000000000e+00 
          2.3273445813e-04 2.9551446775e-05 0.0000000000e+00 
          2.3205246007e-04 -3.3276106859e-05 0.0000000000e+00 
          2.3680320271e-04 2.3790956169e-05 0.0000000000e+00 
          2.4117645730e-04 -3.4838634951e-06 0.0000000000e+00 
          2.4018123630e-04 -1.7850331968e-05 0.0000000000e+00 
          2.4644911979e-04 3.1021560063e-05 0.0000000000e+00 
          2.4543378274e-04 -3.2392435344e-05 0.0000000000e+00 
          2.4806278488e-04 2.3178721950e-05 0.0000000000e+00 
          2.4980689910e-04 -7.2703336801e-06 0.0000000000e+00 
          2.4926707621e-04 -9.5431863094e-06 0.0000000000e+00 
          2.5142858748e-04 2.1668988619e-05 0.0000000000e+00 
        </DataArray>
        <DataArray type="Float64" Name="Reaction" NumberOfComponents="3" format="ascii">
          0.0000000000e+00 0.0000000000e+00 0.0000000000e+00 
          0.0000000000e+00 0.0000000000e+00 0.0000000000e+00 
          0.0000000000e+00 0.0000000000e+00 0.0000000000e+00 
          0.0000000000e+00 0.0000000000e+00 0.0000000000e+00 
          0.0000000000e+00 0.0000000000e+00 0.0000000000e+00 
          0.0000000000e+00 0.0000000000e+00 0.0000000000e+00 
          0.0000000000e+00 0.0000000000e+00 0.0000000000e+00 
          0.0000000000e+00 0.0000000000e+00 0.0000000000e+00 
          0.0000000000e+00 0.0000000000e+00 0.0000000000e+00 
          0.0000000000e+00 0.0000000000e+00 0.0000000000e+00 
          0.0000000000e+00 0.0000000000e+00 0.0000000000e+00 
          0.0000000000e+00 0.0000000000e+00 0.0000000000e+00 
          0.0000000000e+00 0.0000000000e+00 0.0000000000e+00 
          0.0000000000e+00 0.0000000000e+00 0.0000000000e+00 
          0.0000000000e+00 0.0000000000e+00 0.0000000000e+00 
          0.0000000000e+00 0.0000000000e+00 0.0000000000e+00 
          0.0000000000e+00 0.0000000000e+00 0.0000000000e+00 
          0.0000000000e+00 0.0000000000e+00 0.0000000000e+00 
          0.0000000000e+00 0.0000000000e+00 0.0000000000e+00 
          0.0000000000e+00 0.0000000000e+00 0.0000000000e+00 
          0.0000000000e+00 0.0000000000e+00 0.0000000000e+00 
          0.0000000000e+00 0.0000000000e+00 0.0000000000e+00 
          0.0000000000e+00 0.0000000000e+00 0.0000000000e+00 
          0.0000000000e+00 0.0000000000e+00 0.0000000000e+00 
          0.0000000000e+00 0.0000000000e+00 0.0000000000e+00 
          0.0000000000e+00 0.0000000000e+00 0.0000000000e+00 
          0.0000000000e+00 0.0000000000e+00 0.0000000000e+00 
          0.0000000000e+00 0.0000000000e+00 0.0000000000e+00 
          0.0000000000e+00 0.0000000000e+00 0.0000000000e+00 
          0.0000000000e+00 0.0000000000e+00 0.0000000000e+00 
          0.0000000000e+00 0.0000000000e+00 0.0000000000e+00 
          0.0000000000e+00 0.0000000000e+00 0.0000000000e+00 
          0.0000000000e+00 0.0000000000e+00 0.0000000000e+00 
          0.0000000000e+00 0.0000000000e+00 0.0000000000e+00 
          0.0000000000e+00 0.0000000000e+00 0.0000000000e+00 
          0.0000000000e+00 0.0000000000e+00 0.0000000000e+00 
          0.0000000000e+00 0.0000000000e+00 0.0000000000e+00 
          0.0000000000e+00 0.0000000000e+00 0.0000000000e+00 
          0.0000000000e+00 0.0000000000e+00 0.0000000000e+00 
          0.0000000000e+00 0.0000000000e+00 0.0000000000e+00 
          0.0000000000e+00 0.0000000000e+00 0.0000000000e+00 
          0.0000000000e+00 0.0000000000e+00 0.0000000000e+00 
          0.0000000000e+00 0.0000000000e+00 0.0000000000e+00 
          0.0000000000e+00 0.0000000000e+00 0.0000000000e+00 
          0.0000000000e+00 0.0000000000e+00 0.0000000000e+00 
          0.0000000000e+00 0.0000000000e+00 0.0000000000e+00 
          0.0000000000e+00 0.0000000000e+00 0.0000000000e+00 
          0.0000000000e+00 0.0000000000e+00 0.0000000000e+00 
          0.0000000000e+00 0.0000000000e+00 0.0000000000e+00 
          0.0000000000e+00 0.0000000000e+00 0.0000000000e+00 
          0.0000000000e+00 0.0000000000e+00 0.0000000000e+00 
          0.0000000000e+00 0.0000000000e+00 0.0000000000e+00 
          0.0000000000e+00 0.0000000000e+00 0.0000000000e+00 
          0.0000000000e+00 0.0000000000e+00 0.0000000000e+00 
          0.0000000000e+00 0.0000000000e+00 0.0000000000e+00 
          0.0000000000e+00 0.0000000000e+00 0.0000000000e+00 
          0.0000000000e+00 0.0000000000e+00 0.0000000000e+00 
          0.0000000000e+00 0.0000000000e+00 0.0000000000e+00 
          0.0000000000e+00 0.0000000000e+00 0.0000000000e+00 
          0.0000000000e+00 0.0000000000e+00 0.0000000000e+00 
          0.0000000000e+00 0.0000000000e+00 0.0000000000e+00 
          0.0000000000e+00 0.0000000000e+00 0.0000000000e+00 
          0.0000000000e+00 0.0000000000e+00 0.0000000000e+00 
          0.0000000000e+00 0.0000000000e+00 0.0000000000e+00 
          0.0000000000e+00 0.0000000000e+00 0.0000000000e+00 
          0.0000000000e+00 0.0000000000e+00 0.0000000000e+00 
          0.0000000000e+00 0.0000000000e+00 0.0000000000e+00 
          0.0000000000e+00 0.0000000000e+00 0.0000000000e+00 
          0.0000000000e+00 0.0000000000e+00 0.0000000000e+00 
          0.0000000000e+00 0.0000000000e+00 0.0000000000e+00 
          0.0000000000e+00 0.0000000000e+00 0.0000000000e+00 
          0.0000000000e+00 0.0000000000e+00 0.0000000000e+00 
          0.0000000000e+00 0.0000000000e+00 0.0000000000e+00 
          0.0000000000e+00 0.0000000000e+00 0.0000000000e+00 
          0.0000000000e+00 0.0000000000e+00 0.0000000000e+00 
          0.0000000000e+00 0.0000000000e+00 0.0000000000e+00 
          0.0000000000e+00 0.0000000000e+00 0.0000000000e+00 
          0.0000000000e+00 0.0000000000e+00 0.0000000000e+00 
          0.0000000000e+00 0.0000000000e+00 0.0000000000e+00 
          0.0000000000e+00 0.0000000000e+00 0.0000000000e+00 
          0.0000000000e+00 0.0000000000e+00 0.0000000000e+00 
          0.0000000000e+00 0.0000000000e+00 0.0000000000e+00 
        </DataArray>
      </PointData>
      <CellData>
        <DataArray type="Int64" Name="ElementTag" format="ascii">
          0
        </DataArray>
      </CellData>
    </Piece>
  </UnstructuredGrid>
</VTKFile>
