<?xml version="1.0"?>
<VTKFile type="UnstructuredGrid" version="1.0" byte_order="LittleEndian" compressor="vtkZLibDataCompressor">
  <UnstructuredGrid>
    <Piece NumberOfPoints="82" NumberOfCells="1">
      <Points>
        <DataArray type="Float64" Name="Points" NumberOfComponents="3" format="ascii">
          0.0000000000e+00 0.0000000000e+00 0.0000000000e+00 
          2.5000000000e-01 0.0000000000e+00 0.0000000000e+00 
          2.5000000000e-01 3.0000000000e+01 0.0000000000e+00 
          0.0000000000e+00 3.0000000000e+01 0.0000000000e+00 
          0.0000000000e+00 -5.0000000000e+00 0.0000000000e+00 
          2.5000000000e-01 -5.0000000000e+00 0.0000000000e+00 
          2.5000000000e-01 7.6923100000e-01 0.0000000000e+00 
          2.5000000000e-01 1.5384620000e+00 0.0000000000e+00 
          2.5000000000e-01 2.3076920000e+00 0.0000000000e+00 
          2.5000000000e-01 3.0769230000e+00 0.0000000000e+00 
          2.5000000000e-01 3.8461540000e+00 0.0000000000e+00 
          2.5000000000e-01 4.6153850000e+00 0.0000000000e+00 
          2.5000000000e-01 5.3846150000e+00 0.0000000000e+00 
          2.5000000000e-01 6.1538460000e+00 0.0000000000e+00 
          2.5000000000e-01 6.9230770000e+00 0.0000000000e+00 
          2.5000000000e-01 7.6923080000e+00 0.0000000000e+00 
          2.5000000000e-01 8.4615380000e+00 0.0000000000e+00 
          2.5000000000e-01 9.2307690000e+00 0.0000000000e+00 
          2.5000000000e-01 1.0000000000e+01 0.0000000000e+00 
          2.5000000000e-01 1.0769231000e+01 0.0000000000e+00 
          2.5000000000e-01 1.1538462000e+01 0.0000000000e+00 
          2.5000000000e-01 1.2307692000e+01 0.0000000000e+00 
          2.5000000000e-01 1.3076923000e+01 0.0000000000e+00 
          2.5000000000e-01 1.3846154000e+01 0.0000000000e+00 
          2.5000000000e-01 1.4615385000e+01 0.0000000000e+00 
          2.5000000000e-01 1.5384615000e+01 0.0000000000e+00 
          2.5000000000e-01 1.6153846000e+01 0.0000000000e+00 
          2.5000000000e-01 1.6923077000e+01 0.0000000000e+00 
          2.5000000000e-01 1.7692308000e+01 0.0000000000e+00 
          2.5000000000e-01 1.8461538000e+01 0.0000000000e+00 
          2.5000000000e-01 1.9230769000e+01 0.0000000000e+00 
          2.5000000000e-01 2.0000000000e+01 0.0000000000e+00 
          2.5000000000e-01 2.0769231000e+01 0.0000000000e+00 
          2.5000000000e-01 2.1538462000e+01 0.0000000000e+00 
          2.5000000000e-01 2.2307692000e+01 0.0000000000e+00 
          2.5000000000e-01 2.3076923000e+01 0.0000000000e+00 
          2.5000000000e-01 2.3846154000e+01 0.0000000000e+00 
          2.5000000000e-01 2.4615385000e+01 0.0000000000e+00 
          2.5000000000e-01 2.5384615000e+01 0.0000000000e+00 
          2.5000000000e-01 2.6153846000e+01 0.0000000000e+00 
          2.5000000000e-01 2.6923077000e+01 0.0000000000e+00 
          2.5000000000e-01 2.7692308000e+01 0.0000000000e+00 
          2.5000000000e-01 2.8461538000e+01 0.0000000000e+00 
          2.5000000000e-01 2.9230769000e+01 0.0000000000e+00 
          0.0000000000e+00 7.6923100000e-01 0.0000000000e+00 
          0.0000000000e+00 1.5384620000e+00 0.0000000000e+00 
          0.0000000000e+00 2.3076920000e+00 0.0000000000e+00 
          0.0000000000e+00 3.0769230000e+00 0.0000000000e+00 
          0.0000000000e+00 3.8461540000e+00 0.0000000000e+00 
          0.0000000000e+00 4.6153850000e+00 0.0000000000e+00 
          0.0000000000e+00 5.3846150000e+00 0.0000000000e+00 
          0.0000000000e+00 6.1538460000e+00 0.0000000000e+00 
          0.0000000000e+00 6.9230770000e+00 0.0000000000e+00 
          0.0000000000e+00 7.6923080000e+00 0.0000000000e+00 
          0.0000000000e+00 8.4615380000e+00 0.0000000000e+00 
          0.0000000000e+00 9.2307690000e+00 0.0000000000e+00 
          0.0000000000e+00 1.0000000000e+01 0.0000000000e+00 
          0.0000000000e+00 1.0769231000e+01 0.0000000000e+00 
          0.0000000000e+00 1.1538462000e+01 0.0000000000e+00 
          0.0000000000e+00 1.2307692000e+01 0.0000000000e+00 
          0.0000000000e+00 1.3076923000e+01 0.0000000000e+00 
          0.0000000000e+00 1.3846154000e+01 0.0000000000e+00 
          0.0000000000e+00 1.4615385000e+01 0.0000000000e+00 
          0.0000000000e+00 1.5384615000e+01 0.0000000000e+00 
          0.0000000000e+00 1.6153846000e+01 0.0000000000e+00 
          0.0000000000e+00 1.6923077000e+01 0.0000000000e+00 
          0.0000000000e+00 1.7692308000e+01 0.0000000000e+00 
          0.0000000000e+00 1.8461538000e+01 0.0000000000e+00 
          0.0000000000e+00 1.9230769000e+01 0.0000000000e+00 
          0.0000000000e+00 2.0000000000e+01 0.0000000000e+00 
          0.0000000000e+00 2.0769231000e+01 0.0000000000e+00 
          0.0000000000e+00 2.1538462000e+01 0.0000000000e+00 
          0.0000000000e+00 2.2307692000e+01 0.0000000000e+00 
          0.0000000000e+00 2.3076923000e+01 0.0000000000e+00 
          0.0000000000e+00 2.3846154000e+01 0.0000000000e+00 
          0.0000000000e+00 2.4615385000e+01 0.0000000000e+00 
          0.0000000000e+00 2.5384615000e+01 0.0000000000e+00 
          0.0000000000e+00 2.6153846000e+01 0.0000000000e+00 
          0.0000000000e+00 2.6923077000e+01 0.0000000000e+00 
          0.0000000000e+00 2.7692308000e+01 0.0000000000e+00 
          0.0000000000e+00 2.8461538000e+01 0.0000000000e+00 
          0.0000000000e+00 2.9230769000e+01 0.0000000000e+00 
        </DataArray>
      </Points>
      <Cells>
        <DataArray type="Int64" Name="connectivity" format="ascii">
          0
          1
          2
          3
          4
          5
          6
          7
          8
          9
          10
          11
          12
          13
          14
          15
          16
          17
          18
          19
          20
          21
          22
          23
          24
          25
          26
          27
          28
          29
          30
          31
          32
          33
          34
          35
          36
          37
          38
          39
          40
          41
          42
          43
          44
          45
          46
          47
          48
          49
          50
          51
          52
          53
          54
          55
          56
          57
          58
          59
          60
          61
          62
          63
          64
          65
          66
          67
          68
          69
          70
          71
          72
          73
          74
          75
          76
          77
          78
          79
          80
          81
        </DataArray>
        <DataArray type="Int64" Name="offsets" format="ascii">
          82
        </DataArray>
        <DataArray type="Int64" Name="types" format="ascii">
          2
        </DataArray>
      </Cells>
      <PointData>
        <DataArray type="Int64" Name="NodeTag" format="ascii">
          1
          2
          3
          4
          5
          6
          7
          8
          9
          10
          11
          12
          13
          14
          15
          16
          17
          18
          19
          20
          21
          22
          23
          24
          25
          26
          27
          28
          29
          30
          31
          32
          33
          34
          35
          36
          37
          38
          39
          40
          41
          42
          43
          44
          45
          46
          47
          48
          49
          50
          51
          52
          53
          54
          55
          56
          57
          58
          59
          60
          61
          62
          63
          64
          65
          66
          67
          68
          69
          70
          71
          72
          73
          74
          75
          76
          77
          78
          79
          80
          81
          82
        </DataArray>
        <DataArray type="Float64" Name="Velocity" NumberOfComponents="3" format="ascii">
          -5.2881647447e-03 -7.7962998458e-05 0.0000000000e+00 
          -5.2881647447e-03 -7.7962998458e-05 0.0000000000e+00 
          -3.4771695829e-02 -7.7696658313e-05 0.0000000000e+00 
          -3.4771695829e-02 -7.7696658313e-05 0.0000000000e+00 
          0.0000000000e+00 0.0000000000e+00 0.0000000000e+00 
          0.0000000000e+00 0.0000000000e+00 0.0000000000e+00 
          -6.5747320154e-03 -7.7978957831e-05 0.0000000000e+00 
          -7.8481622979e-03 -7.7934373143e-05 0.0000000000e+00 
          -9.1069293078e-03 -7.7824270901e-05 0.0000000000e+00 
          -1.0349623296e-02 -7.7952745011e-05 0.0000000000e+00 
          -1.1574778637e-02 -7.7808483267e-05 0.0000000000e+00 
          -1.2781009511e-02 -7.7877444245e-05 0.0000000000e+00 
          -1.3966926297e-02 -7.7818108448e-05 0.0000000000e+00 
          -1.5131177712e-02 -7.7728068343e-05 0.0000000000e+00 
          -1.6272503115e-02 -7.7893267374e-05 0.0000000000e+00 
          -1.7389575829e-02 -7.7711738258e-05 0.0000000000e+00 
          -1.8481152565e-02 -7.7783135876e-05 0.0000000000e+00 
          -1.9546032550e-02 -7.7836779974e-05 0.0000000000e+00 
          -2.0583015335e-02 -7.7678000292e-05 0.0000000000e+00 
          -2.1590985085e-02 -7.7833685531e-05 0.0000000000e+00 
          -2.2568795305e-02 -7.7757374825e-05 0.0000000000e+00 
          -2.3515369931e-02 -7.7738671206e-05 0.0000000000e+00 
          -2.4429695540e-02 -7.7834673565e-05 0.0000000000e+00 
          -2.5310741174e-02 -7.7717993749e-05 0.0000000000e+00 
          -2.6157549132e-02 -7.7795049934e-05 0.0000000000e+00 
          -2.6969174255e-02 -7.7803025178e-05 0.0000000000e+00 
          -2.7744742822e-02 -7.7704024429e-05 0.0000000000e+00 
          -2.8483387461e-02 -7.7832677041e-05 0.0000000000e+00 
          -2.9184308670e-02 -7.7822751095e-05 0.0000000000e+00 
          -2.9846724823e-02 -7.7693531686e-05 0.0000000000e+00 
          -3.0469899775e-02 -7.7841242478e-05 0.0000000000e+00 
          -3.1053167242e-02 -7.7865163554e-05 0.0000000000e+00 
          -3.1595858204e-02 -7.7713625970e-05 0.0000000000e+00 
          -3.2097396874e-02 -7.7724090578e-05 0.0000000000e+00 
          -3.2557194980e-02 -7.7833370607e-05 0.0000000000e+00 
          -3.2974769476e-02 -7.7731169585e-05 0.0000000000e+00 
          -3.3349659877e-02 -7.7718788506e-05 0.0000000000e+00 
          -3.3681412536e-02 -7.7780361837e-05 0.0000000000e+00 
          -3.3969715275e-02 -7.7757949882e-05 0.0000000000e+00 
          -3.4214190915e-02 -7.7752205321e-05 0.0000000000e+00 
          -3.4414578801e-02 -7.7812138525e-05 0.0000000000e+00 
          -3.4570700673e-02 -7.7768470285e-05 0.0000000000e+00 
          -3.4682322739e-02 -7.7747619222e-05 0.0000000000e+00 
          -3.4749340316e-02 -7.7852500117e-05 0.0000000000e+00 
          -6.5747320154e-03 -7.7978957831e-05 0.0000000000e+00 
          -7.8481622979e-03 -7.7934373143e-05 0.0000000000e+00 
          -9.1069293078e-03 -7.7824270901e-05 0.0000000000e+00 
          -1.0349623296e-02 -7.7952745011e-05 0.0000000000e+00 
          -1.1574778637e-02 -7.7808483267e-05 0.0000000000e+00 
          -1.2781009511e-02 -7.7877444245e-05 0.0000000000e+00 
          -1.3966926297e-02 -7.7818108448e-05 0.0000000000e+00 
          -1.5131177712e-02 -7.7728068343e-05 0.0000000000e+00 
          -1.6272503115e-02 -7.7893267374e-05 0.0000000000e+00 
          -1.7389575829e-02 -7.7711738258e-05 0.0000000000e+00 
          -1.8481152565e-02 -7.7783135876e-05 0.0000000000e+00 
          -1.9546032550e-02 -7.7836779974e-05 0.0000000000e+00 
          -2.0583015335e-02 -7.7678000292e-05 0.0000000000e+00 
          -2.1590985085e-02 -7.7833685531e-05 0.0000000000e+00 
          -2.2568795305e-02 -7.7757374825e-05 0.0000000000e+00 
          -2.3515369931e-02 -7.7738671206e-05 0.0000000000e+00 
          -2.4429695540e-02 -7.7834673565e-05 0.0000000000e+00 
          -2.5310741174e-02 -7.7717993749e-05 0.0000000000e+00 
          -2.6157549132e-02 -7.7795049934e-05 0.0000000000e+00 
          -2.6969174255e-02 -7.7803025178e-05 0.0000000000e+00 
          -2.7744742822e-02 -7.7704024429e-05 0.0000000000e+00 
          -2.8483387461e-02 -7.7832677041e-05 0.0000000000e+00 
          -2.9184308670e-02 -7.7822751095e-05 0.0000000000e+00 
          -2.9846724823e-02 -7.7693531686e-05 0.0000000000e+00 
          -3.0469899775e-02 -7.7841242478e-05 0.0000000000e+00 
          -3.1053167242e-02 -7.7865163554e-05 0.0000000000e+00 
          -3.1595858204e-02 -7.7713625970e-05 0.0000000000e+00 
          -3.2097396874e-02 -7.7724090578e-05 0.0000000000e+00 
          -3.2557194980e-02 -7.7833370607e-05 0.0000000000e+00 
          -3.2974769476e-02 -7.7731169585e-05 0.0000000000e+00 
          -3.3349659877e-02 -7.7718788506e-05 0.0000000000e+00 
          -3.3681412536e-02 -7.7780361837e-05 0.0000000000e+00 
          -3.3969715275e-02 -7.7757949882e-05 0.0000000000e+00 
          -3.4214190915e-02 -7.7752205321e-05 0.0000000000e+00 
          -3.4414578801e-02 -7.7812138525e-05 0.0000000000e+00 
          -3.4570700673e-02 -7.7768470285e-05 0.0000000000e+00 
          -3.4682322739e-02 -7.7747619222e-05 0.0000000000e+00 
          -3.4749340316e-02 -7.7852500117e-05 0.0000000000e+00 
        </DataArray>
        <DataArray type="Float64" Name="Displacement" NumberOfComponents="3" format="ascii">
          6.3477884182e-04 -3.0099158786e-04 0.0000000000e+00 
          6.3477884182e-04 -3.0099158786e-04 0.0000000000e+00 
          -1.7267457046e-03 -3.2460851040e-04 0.0000000000e+00 
          -1.7267457046e-03 -3.2460851040e-04 0.0000000000e+00 
          0.0000000000e+00 0.0000000000e+00 0.0000000000e+00 
          0.0000000000e+00 0.0000000000e+00 0.0000000000e+00 
          5.4652805138e-04 -3.0218717800e-04 0.0000000000e+00 
          4.5760725104e-04 -3.0335134188e-04 0.0000000000e+00 
          3.6821094688e-04 -3.0448487374e-04 0.0000000000e+00 
          2.7853337308e-04 -3.0558730203e-04 0.0000000000e+00 
          1.8876891565e-04 -3.0665864401e-04 0.0000000000e+00 
          9.9111203966e-05 -3.0769889716e-04 0.0000000000e+00 
          9.7528240687e-06 -3.0870827254e-04 0.0000000000e+00 
          -7.9115332349e-05 -3.0968636674e-04 0.0000000000e+00 
          -1.6730401300e-04 -3.1063350395e-04 0.0000000000e+00 
          -2.5462633578e-04 -3.1154960740e-04 0.0000000000e+00 
          -3.4089789581e-04 -3.1243458241e-04 0.0000000000e+00 
          -4.2593768984e-04 -3.1328851203e-04 0.0000000000e+00 
          -5.0956770324e-04 -3.1411145699e-04 0.0000000000e+00 
          -5.9161380410e-04 -3.1490336406e-04 0.0000000000e+00 
          -6.7190584803e-04 -3.1566419835e-04 0.0000000000e+00 
          -7.5027794836e-04 -3.1639408062e-04 0.0000000000e+00 
          -8.2656921053e-04 -3.1709262268e-04 0.0000000000e+00 
          -9.0062335557e-04 -3.1776041500e-04 0.0000000000e+00 
          -9.7228945647e-04 -3.1839705404e-04 0.0000000000e+00 
          -1.0414219537e-03 -3.1900286038e-04 0.0000000000e+00 
          -1.1078812450e-03 -3.1957727774e-04 0.0000000000e+00 
          -1.1715334211e-03 -3.2012086320e-04 0.0000000000e+00 
          -1.2322508121e-03 -3.2063333593e-04 0.0000000000e+00 
          -1.2899120212e-03 -3.2111459479e-04 0.0000000000e+00 
          -1.3444023758e-03 -3.2156508656e-04 0.0000000000e+00 
          -1.3956137189e-03 -3.2198422371e-04 0.0000000000e+00 
          -1.4434447696e-03 -3.2237261633e-04 0.0000000000e+00 
          -1.4878012652e-03 -3.2272967897e-04 0.0000000000e+00 
          -1.5285959609e-03 -3.2305569843e-04 0.0000000000e+00 
          -1.5657489819e-03 -3.2335080136e-04 0.0000000000e+00 
          -1.5991877127e-03 -3.2361462285e-04 0.0000000000e+00 
          -1.6288469167e-03 -3.2384778986e-04 0.0000000000e+00 
          -1.6546688405e-03 -3.2404948637e-04 0.0000000000e+00 
          -1.6766034028e-03 -3.2422024041e-04 0.0000000000e+00 
          -1.6946080145e-03 -3.2436019822e-04 0.0000000000e+00 
          -1.7086478582e-03 -3.2446874166e-04 0.0000000000e+00 
          -1.7186957291e-03 -3.2454647481e-04 0.0000000000e+00 
          -1.7247322229e-03 -3.2459301735e-04 0.0000000000e+00 
          5.4652805138e-04 -3.0218717800e-04 0.0000000000e+00 
          4.5760725104e-04 -3.0335134188e-04 0.0000000000e+00 
          3.6821094688e-04 -3.0448487374e-04 0.0000000000e+00 
          2.7853337308e-04 -3.0558730203e-04 0.0000000000e+00 
          1.8876891565e-04 -3.0665864401e-04 0.0000000000e+00 
          9.9111203966e-05 -3.0769889716e-04 0.0000000000e+00 
          9.7528240687e-06 -3.0870827254e-04 0.0000000000e+00 
          -7.9115332349e-05 -3.0968636674e-04 0.0000000000e+00 
          -1.6730401300e-04 -3.1063350395e-04 0.0000000000e+00 
          -2.5462633578e-04 -3.1154960740e-04 0.0000000000e+00 
          -3.4089789581e-04 -3.1243458241e-04 0.0000000000e+00 
          -4.2593768984e-04 -3.1328851203e-04 0.0000000000e+00 
          -5.0956770324e-04 -3.1411145699e-04 0.0000000000e+00 
          -5.9161380410e-04 -3.1490336406e-04 0.0000000000e+00 
          -6.7190584803e-04 -3.1566419835e-04 0.0000000000e+00 
          -7.5027794836e-04 -3.1639408062e-04 0.0000000000e+00 
          -8.2656921053e-04 -3.1709262268e-04 0.0000000000e+00 
          -9.0062335557e-04 -3.1776041500e-04 0.0000000000e+00 
          -9.7228945647e-04 -3.1839705404e-04 0.0000000000e+00 
          -1.0414219537e-03 -3.1900286038e-04 0.0000000000e+00 
          -1.1078812450e-03 -3.1957727774e-04 0.0000000000e+00 
          -1.1715334211e-03 -3.2012086320e-04 0.0000000000e+00 
          -1.2322508121e-03 -3.2063333593e-04 0.0000000000e+00 
          -1.2899120212e-03 -3.2111459479e-04 0.0000000000e+00 
          -1.3444023758e-03 -3.2156508656e-04 0.0000000000e+00 
          -1.3956137189e-03 -3.2198422371e-04 0.0000000000e+00 
          -1.4434447696e-03 -3.2237261633e-04 0.0000000000e+00 
          -1.4878012652e-03 -3.2272967897e-04 0.0000000000e+00 
          -1.5285959609e-03 -3.2305569843e-04 0.0000000000e+00 
          -1.5657489819e-03 -3.2335080136e-04 0.0000000000e+00 
          -1.5991877127e-03 -3.2361462285e-04 0.0000000000e+00 
          -1.6288469167e-03 -3.2384778986e-04 0.0000000000e+00 
          -1.6546688405e-03 -3.2404948637e-04 0.0000000000e+00 
          -1.6766034028e-03 -3.2422024041e-04 0.0000000000e+00 
          -1.6946080145e-03 -3.2436019822e-04 0.0000000000e+00 
          -1.7086478582e-03 -3.2446874166e-04 0.0000000000e+00 
          -1.7186957291e-03 -3.2454647481e-04 0.0000000000e+00 
          -1.7247322229e-03 -3.2459301735e-04 0.0000000000e+00 
        </DataArray>
        <DataArray type="Float64" Name="Acceleration" NumberOfComponents="3" format="ascii">
          -7.7823104240e-02 -1.8919839579e-06 0.0000000000e+00 
          -7.7823104240e-02 -1.8919839579e-06 0.0000000000e+00 
          3.6283735016e-01 -3.6451753041e-06 0.0000000000e+00 
          3.6283735016e-01 -3.6451753041e-06 0.0000000000e+00 
          0.0000000000e+00 0.0000000000e+00 0.0000000000e+00 
          0.0000000000e+00 0.0000000000e+00 0.0000000000e+00 
          -6.0369215451e-02 7.5671392365e-05 0.0000000000e+00 
          -4.2854331209e-02 -6.7714869332e-05 0.0000000000e+00 
          -2.5332495949e-02 1.7790457290e-05 0.0000000000e+00 
          -7.8283863045e-03 1.4410635061e-05 0.0000000000e+00 
          9.6180019925e-03 1.4866677472e-05 0.0000000000e+00 
          2.6959936138e-02 -2.3402633727e-05 0.0000000000e+00 
          4.4180599096e-02 4.9770287162e-05 0.0000000000e+00 
          6.1222108240e-02 -8.8951459440e-06 0.0000000000e+00 
          7.8060556054e-02 4.9444918829e-06 0.0000000000e+00 
          9.4665754038e-02 2.1797499529e-05 0.0000000000e+00 
          1.1099472698e-01 7.2494607535e-06 0.0000000000e+00 
          1.2702401905e-01 -3.9061762437e-06 0.0000000000e+00 
          1.4271364721e-01 5.6858499884e-06 0.0000000000e+00 
          1.5804399370e-01 1.1973037140e-05 0.0000000000e+00 
          1.7298164283e-01 -9.9553748854e-06 0.0000000000e+00 
          1.8749692909e-01 6.0341020755e-05 0.0000000000e+00 
          2.0156867072e-01 -4.6241128323e-05 0.0000000000e+00 
          2.1516749345e-01 2.6479428789e-05 0.0000000000e+00 
          2.2827474247e-01 -3.1427424728e-05 0.0000000000e+00 
          2.4086939101e-01 6.9099258164e-05 0.0000000000e+00 
          2.5292662352e-01 -3.1435767317e-05 0.0000000000e+00 
          2.6442993686e-01 1.9174028627e-05 0.0000000000e+00 
          2.7536144422e-01 3.7288900034e-05 0.0000000000e+00 
          2.8570718842e-01 -4.2996041375e-05 0.0000000000e+00 
          2.9544541449e-01 6.2760640644e-05 0.0000000000e+00 
          3.0457102524e-01 -4.7177571251e-05 0.0000000000e+00 
          3.1306427268e-01 5.8320250863e-05 0.0000000000e+00 
          3.2092063551e-01 6.5672613802e-06 0.0000000000e+00 
          3.2812706903e-01 -1.6103587547e-05 0.0000000000e+00 
          3.3466489117e-01 4.9575189480e-05 0.0000000000e+00 
          3.4054282730e-01 -6.3406756896e-05 0.0000000000e+00 
          3.4574371982e-01 8.3600756313e-05 0.0000000000e+00 
          3.5026220139e-01 -1.1458491572e-05 0.0000000000e+00 
          3.5409631115e-01 -3.7860289307e-05 0.0000000000e+00 
          3.5723342233e-01 7.3527815427e-05 0.0000000000e+00 
          3.5968369806e-01 -3.5344760865e-05 0.0000000000e+00 
          3.6143440509e-01 3.3231191321e-05 0.0000000000e+00 
          3.6248133802e-01 7.7745204458e-06 0.0000000000e+00 
          -6.0369215451e-02 7.5671392365e-05 0.0000000000e+00 
          -4.2854331209e-02 -6.7714869332e-05 0.0000000000e+00 
          -2.5332495949e-02 1.7790457290e-05 0.0000000000e+00 
          -7.8283863045e-03 1.4410635061e-05 0.0000000000e+00 
          9.6180019925e-03 1.4866677472e-05 0.0000000000e+00 
          2.6959936138e-02 -2.3402633727e-05 0.0000000000e+00 
          4.4180599096e-02 4.9770287162e-05 0.0000000000e+00 
          6.1222108240e-02 -8.8951459440e-06 0.0000000000e+00 
          7.8060556054e-02 4.9444918829e-06 0.0000000000e+00 
          9.4665754038e-02 2.1797499529e-05 0.0000000000e+00 
          1.1099472698e-01 7.2494607535e-06 0.0000000000e+00 
          1.2702401905e-01 -3.9061762437e-06 0.0000000000e+00 
          1.4271364721e-01 5.6858499884e-06 0.0000000000e+00 
          1.5804399370e-01 1.1973037140e-05 0.0000000000e+00 
          1.7298164283e-01 -9.9553748854e-06 0.0000000000e+00 
          1.8749692909e-01 6.0341020755e-05 0.0000000000e+00 
          2.0156867072e-01 -4.6241128323e-05 0.0000000000e+00 
          2.1516749345e-01 2.6479428789e-05 0.0000000000e+00 
          2.2827474247e-01 -3.1427424728e-05 0.0000000000e+00 
          2.4086939101e-01 6.9099258164e-05 0.0000000000e+00 
          2.5292662352e-01 -3.1435767317e-05 0.0000000000e+00 
          2.6442993686e-01 1.9174028627e-05 0.0000000000e+00 
          2.7536144422e-01 3.7288900034e-05 0.0000000000e+00 
          2.8570718842e-01 -4.2996041375e-05 0.0000000000e+00 
          2.9544541449e-01 6.2760640644e-05 0.0000000000e+00 
          3.0457102524e-01 -4.7177571251e-05 0.0000000000e+00 
          3.1306427268e-01 5.8320250863e-05 0.0000000000e+00 
          3.2092063551e-01 6.5672613802e-06 0.0000000000e+00 
          3.2812706903e-01 -1.6103587547e-05 0.0000000000e+00 
          3.3466489117e-01 4.9575189480e-05 0.0000000000e+00 
          3.4054282730e-01 -6.3406756896e-05 0.0000000000e+00 
          3.4574371982e-01 8.3600756313e-05 0.0000000000e+00 
          3.5026220139e-01 -1.1458491572e-05 0.0000000000e+00 
          3.5409631115e-01 -3.7860289307e-05 0.0000000000e+00 
          3.5723342233e-01 7.3527815427e-05 0.0000000000e+00 
          3.5968369806e-01 -3.5344760865e-05 0.0000000000e+00 
          3.6143440509e-01 3.3231191321e-05 0.0000000000e+00 
          3.6248133802e-01 7.7745204458e-06 0.0000000000e+00 
        </DataArray>
        <DataArray type="Float64" Name="Reaction" NumberOfComponents="3" format="ascii">
          0.0000000000e+00 0.0000000000e+00 0.0000000000e+00 
          0.0000000000e+00 0.0000000000e+00 0.0000000000e+00 
          0.0000000000e+00 0.0000000000e+00 0.0000000000e+00 
          0.0000000000e+00 0.0000000000e+00 0.0000000000e+00 
          0.0000000000e+00 0.0000000000e+00 0.0000000000e+00 
          0.0000000000e+00 0.0000000000e+00 0.0000000000e+00 
          0.0000000000e+00 0.0000000000e+00 0.0000000000e+00 
          0.0000000000e+00 0.0000000000e+00 0.0000000000e+00 
          0.0000000000e+00 0.0000000000e+00 0.0000000000e+00 
          0.0000000000e+00 0.0000000000e+00 0.0000000000e+00 
          0.0000000000e+00 0.0000000000e+00 0.0000000000e+00 
          0.0000000000e+00 0.0000000000e+00 0.0000000000e+00 
          0.0000000000e+00 0.0000000000e+00 0.0000000000e+00 
          0.0000000000e+00 0.0000000000e+00 0.0000000000e+00 
          0.0000000000e+00 0.0000000000e+00 0.0000000000e+00 
          0.0000000000e+00 0.0000000000e+00 0.0000000000e+00 
          0.0000000000e+00 0.0000000000e+00 0.0000000000e+00 
          0.0000000000e+00 0.0000000000e+00 0.0000000000e+00 
          0.0000000000e+00 0.0000000000e+00 0.0000000000e+00 
          0.0000000000e+00 0.0000000000e+00 0.0000000000e+00 
          0.0000000000e+00 0.0000000000e+00 0.0000000000e+00 
          0.0000000000e+00 0.0000000000e+00 0.0000000000e+00 
          0.0000000000e+00 0.0000000000e+00 0.0000000000e+00 
          0.0000000000e+00 0.0000000000e+00 0.0000000000e+00 
          0.0000000000e+00 0.0000000000e+00 0.0000000000e+00 
          0.0000000000e+00 0.0000000000e+00 0.0000000000e+00 
          0.0000000000e+00 0.0000000000e+00 0.0000000000e+00 
          0.0000000000e+00 0.0000000000e+00 0.0000000000e+00 
          0.0000000000e+00 0.0000000000e+00 0.0000000000e+00 
          0.0000000000e+00 0.0000000000e+00 0.0000000000e+00 
          0.0000000000e+00 0.0000000000e+00 0.0000000000e+00 
          0.0000000000e+00 0.0000000000e+00 0.0000000000e+00 
          0.0000000000e+00 0.0000000000e+00 0.0000000000e+00 
          0.0000000000e+00 0.0000000000e+00 0.0000000000e+00 
          0.0000000000e+00 0.0000000000e+00 0.0000000000e+00 
          0.0000000000e+00 0.0000000000e+00 0.0000000000e+00 
          0.0000000000e+00 0.0000000000e+00 0.0000000000e+00 
          0.0000000000e+00 0.0000000000e+00 0.0000000000e+00 
          0.0000000000e+00 0.0000000000e+00 0.0000000000e+00 
          0.0000000000e+00 0.0000000000e+00 0.0000000000e+00 
          0.0000000000e+00 0.0000000000e+00 0.0000000000e+00 
          0.0000000000e+00 0.0000000000e+00 0.0000000000e+00 
          0.0000000000e+00 0.0000000000e+00 0.0000000000e+00 
          0.0000000000e+00 0.0000000000e+00 0.0000000000e+00 
          0.0000000000e+00 0.0000000000e+00 0.0000000000e+00 
          0.0000000000e+00 0.0000000000e+00 0.0000000000e+00 
          0.0000000000e+00 0.0000000000e+00 0.0000000000e+00 
          0.0000000000e+00 0.0000000000e+00 0.0000000000e+00 
          0.0000000000e+00 0.0000000000e+00 0.0000000000e+00 
          0.0000000000e+00 0.0000000000e+00 0.0000000000e+00 
          0.0000000000e+00 0.0000000000e+00 0.0000000000e+00 
          0.0000000000e+00 0.0000000000e+00 0.0000000000e+00 
          0.0000000000e+00 0.0000000000e+00 0.0000000000e+00 
          0.0000000000e+00 0.0000000000e+00 0.0000000000e+00 
          0.0000000000e+00 0.0000000000e+00 0.0000000000e+00 
          0.0000000000e+00 0.0000000000e+00 0.0000000000e+00 
          0.0000000000e+00 0.0000000000e+00 0.0000000000e+00 
          0.0000000000e+00 0.0000000000e+00 0.0000000000e+00 
          0.0000000000e+00 0.0000000000e+00 0.0000000000e+00 
          0.0000000000e+00 0.0000000000e+00 0.0000000000e+00 
          0.0000000000e+00 0.0000000000e+00 0.0000000000e+00 
          0.0000000000e+00 0.0000000000e+00 0.0000000000e+00 
          0.0000000000e+00 0.0000000000e+00 0.0000000000e+00 
          0.0000000000e+00 0.0000000000e+00 0.0000000000e+00 
          0.0000000000e+00 0.0000000000e+00 0.0000000000e+00 
          0.0000000000e+00 0.0000000000e+00 0.0000000000e+00 
          0.0000000000e+00 0.0000000000e+00 0.0000000000e+00 
          0.0000000000e+00 0.0000000000e+00 0.0000000000e+00 
          0.0000000000e+00 0.0000000000e+00 0.0000000000e+00 
          0.0000000000e+00 0.0000000000e+00 0.0000000000e+00 
          0.0000000000e+00 0.0000000000e+00 0.0000000000e+00 
          0.0000000000e+00 0.0000000000e+00 0.0000000000e+00 
          0.0000000000e+00 0.0000000000e+00 0.0000000000e+00 
          0.0000000000e+00 0.0000000000e+00 0.0000000000e+00 
          0.0000000000e+00 0.0000000000e+00 0.0000000000e+00 
          0.0000000000e+00 0.0000000000e+00 0.0000000000e+00 
          0.0000000000e+00 0.0000000000e+00 0.0000000000e+00 
          0.0000000000e+00 0.0000000000e+00 0.0000000000e+00 
          0.0000000000e+00 0.0000000000e+00 0.0000000000e+00 
          0.0000000000e+00 0.0000000000e+00 0.0000000000e+00 
          0.0000000000e+00 0.0000000000e+00 0.0000000000e+00 
          0.0000000000e+00 0.0000000000e+00 0.0000000000e+00 
        </DataArray>
      </PointData>
      <CellData>
        <DataArray type="Int64" Name="ElementTag" format="ascii">
          0
        </DataArray>
      </CellData>
    </Piece>
  </UnstructuredGrid>
</VTKFile>
