<?xml version="1.0"?>
<VTKFile type="UnstructuredGrid" version="1.0" byte_order="LittleEndian" compressor="vtkZLibDataCompressor">
  <UnstructuredGrid>
    <Piece NumberOfPoints="80" NumberOfCells="39">
      <Points>
        <DataArray type="Float64" Name="Points" NumberOfComponents="3" format="ascii">
          0.0000000000e+00 0.0000000000e+00 0.0000000000e+00 
          2.5000000000e-01 0.0000000000e+00 0.0000000000e+00 
          2.5000000000e-01 3.0000000000e+01 0.0000000000e+00 
          0.0000000000e+00 3.0000000000e+01 0.0000000000e+00 
          2.5000000000e-01 7.6923100000e-01 0.0000000000e+00 
          2.5000000000e-01 1.5384620000e+00 0.0000000000e+00 
          2.5000000000e-01 2.3076920000e+00 0.0000000000e+00 
          2.5000000000e-01 3.0769230000e+00 0.0000000000e+00 
          2.5000000000e-01 3.8461540000e+00 0.0000000000e+00 
          2.5000000000e-01 4.6153850000e+00 0.0000000000e+00 
          2.5000000000e-01 5.3846150000e+00 0.0000000000e+00 
          2.5000000000e-01 6.1538460000e+00 0.0000000000e+00 
          2.5000000000e-01 6.9230770000e+00 0.0000000000e+00 
          2.5000000000e-01 7.6923080000e+00 0.0000000000e+00 
          2.5000000000e-01 8.4615380000e+00 0.0000000000e+00 
          2.5000000000e-01 9.2307690000e+00 0.0000000000e+00 
          2.5000000000e-01 1.0000000000e+01 0.0000000000e+00 
          2.5000000000e-01 1.0769231000e+01 0.0000000000e+00 
          2.5000000000e-01 1.1538462000e+01 0.0000000000e+00 
          2.5000000000e-01 1.2307692000e+01 0.0000000000e+00 
          2.5000000000e-01 1.3076923000e+01 0.0000000000e+00 
          2.5000000000e-01 1.3846154000e+01 0.0000000000e+00 
          2.5000000000e-01 1.4615385000e+01 0.0000000000e+00 
          2.5000000000e-01 1.5384615000e+01 0.0000000000e+00 
          2.5000000000e-01 1.6153846000e+01 0.0000000000e+00 
          2.5000000000e-01 1.6923077000e+01 0.0000000000e+00 
          2.5000000000e-01 1.7692308000e+01 0.0000000000e+00 
          2.5000000000e-01 1.8461538000e+01 0.0000000000e+00 
          2.5000000000e-01 1.9230769000e+01 0.0000000000e+00 
          2.5000000000e-01 2.0000000000e+01 0.0000000000e+00 
          2.5000000000e-01 2.0769231000e+01 0.0000000000e+00 
          2.5000000000e-01 2.1538462000e+01 0.0000000000e+00 
          2.5000000000e-01 2.2307692000e+01 0.0000000000e+00 
          2.5000000000e-01 2.3076923000e+01 0.0000000000e+00 
          2.5000000000e-01 2.3846154000e+01 0.0000000000e+00 
          2.5000000000e-01 2.4615385000e+01 0.0000000000e+00 
          2.5000000000e-01 2.5384615000e+01 0.0000000000e+00 
          2.5000000000e-01 2.6153846000e+01 0.0000000000e+00 
          2.5000000000e-01 2.6923077000e+01 0.0000000000e+00 
          2.5000000000e-01 2.7692308000e+01 0.0000000000e+00 
          2.5000000000e-01 2.8461538000e+01 0.0000000000e+00 
          2.5000000000e-01 2.9230769000e+01 0.0000000000e+00 
          0.0000000000e+00 7.6923100000e-01 0.0000000000e+00 
          0.0000000000e+00 1.5384620000e+00 0.0000000000e+00 
          0.0000000000e+00 2.3076920000e+00 0.0000000000e+00 
          0.0000000000e+00 3.0769230000e+00 0.0000000000e+00 
          0.0000000000e+00 3.8461540000e+00 0.0000000000e+00 
          0.0000000000e+00 4.6153850000e+00 0.0000000000e+00 
          0.0000000000e+00 5.3846150000e+00 0.0000000000e+00 
          0.0000000000e+00 6.1538460000e+00 0.0000000000e+00 
          0.0000000000e+00 6.9230770000e+00 0.0000000000e+00 
          0.0000000000e+00 7.6923080000e+00 0.0000000000e+00 
          0.0000000000e+00 8.4615380000e+00 0.0000000000e+00 
          0.0000000000e+00 9.2307690000e+00 0.0000000000e+00 
          0.0000000000e+00 1.0000000000e+01 0.0000000000e+00 
          0.0000000000e+00 1.0769231000e+01 0.0000000000e+00 
          0.0000000000e+00 1.1538462000e+01 0.0000000000e+00 
          0.0000000000e+00 1.2307692000e+01 0.0000000000e+00 
          0.0000000000e+00 1.3076923000e+01 0.0000000000e+00 
          0.0000000000e+00 1.3846154000e+01 0.0000000000e+00 
          0.0000000000e+00 1.4615385000e+01 0.0000000000e+00 
          0.0000000000e+00 1.5384615000e+01 0.0000000000e+00 
          0.0000000000e+00 1.6153846000e+01 0.0000000000e+00 
          0.0000000000e+00 1.6923077000e+01 0.0000000000e+00 
          0.0000000000e+00 1.7692308000e+01 0.0000000000e+00 
          0.0000000000e+00 1.8461538000e+01 0.0000000000e+00 
          0.0000000000e+00 1.9230769000e+01 0.0000000000e+00 
          0.0000000000e+00 2.0000000000e+01 0.0000000000e+00 
          0.0000000000e+00 2.0769231000e+01 0.0000000000e+00 
          0.0000000000e+00 2.1538462000e+01 0.0000000000e+00 
          0.0000000000e+00 2.2307692000e+01 0.0000000000e+00 
          0.0000000000e+00 2.3076923000e+01 0.0000000000e+00 
          0.0000000000e+00 2.3846154000e+01 0.0000000000e+00 
          0.0000000000e+00 2.4615385000e+01 0.0000000000e+00 
          0.0000000000e+00 2.5384615000e+01 0.0000000000e+00 
          0.0000000000e+00 2.6153846000e+01 0.0000000000e+00 
          0.0000000000e+00 2.6923077000e+01 0.0000000000e+00 
          0.0000000000e+00 2.7692308000e+01 0.0000000000e+00 
          0.0000000000e+00 2.8461538000e+01 0.0000000000e+00 
          0.0000000000e+00 2.9230769000e+01 0.0000000000e+00 
        </DataArray>
      </Points>
      <Cells>
        <DataArray type="Int64" Name="connectivity" format="ascii">
          0 1 4 42 
          42 4 5 43 
          43 5 6 44 
          44 6 7 45 
          45 7 8 46 
          46 8 9 47 
          47 9 10 48 
          48 10 11 49 
          49 11 12 50 
          50 12 13 51 
          51 13 14 52 
          52 14 15 53 
          53 15 16 54 
          54 16 17 55 
          55 17 18 56 
          56 18 19 57 
          57 19 20 58 
          58 20 21 59 
          59 21 22 60 
          60 22 23 61 
          61 23 24 62 
          62 24 25 63 
          63 25 26 64 
          64 26 27 65 
          65 27 28 66 
          66 28 29 67 
          67 29 30 68 
          68 30 31 69 
          69 31 32 70 
          70 32 33 71 
          71 33 34 72 
          72 34 35 73 
          73 35 36 74 
          74 36 37 75 
          75 37 38 76 
          76 38 39 77 
          77 39 40 78 
          78 40 41 79 
          79 41 2 3 
        </DataArray>
        <DataArray type="Int64" Name="offsets" format="ascii">
          4
          8
          12
          16
          20
          24
          28
          32
          36
          40
          44
          48
          52
          56
          60
          64
          68
          72
          76
          80
          84
          88
          92
          96
          100
          104
          108
          112
          116
          120
          124
          128
          132
          136
          140
          144
          148
          152
          156
        </DataArray>
        <DataArray type="Int64" Name="types" format="ascii">
          9
          9
          9
          9
          9
          9
          9
          9
          9
          9
          9
          9
          9
          9
          9
          9
          9
          9
          9
          9
          9
          9
          9
          9
          9
          9
          9
          9
          9
          9
          9
          9
          9
          9
          9
          9
          9
          9
          9
        </DataArray>
      </Cells>
      <PointData>
        <DataArray type="Int64" Name="NodeTag" format="ascii">
          1
          2
          3
          4
          7
          8
          9
          10
          11
          12
          13
          14
          15
          16
          17
          18
          19
          20
          21
          22
          23
          24
          25
          26
          27
          28
          29
          30
          31
          32
          33
          34
          35
          36
          37
          38
          39
          40
          41
          42
          43
          44
          45
          46
          47
          48
          49
          50
          51
          52
          53
          54
          55
          56
          57
          58
          59
          60
          61
          62
          63
          64
          65
          66
          67
          68
          69
          70
          71
          72
          73
          74
          75
          76
          77
          78
          79
          80
          81
          82
        </DataArray>
        <DataArray type="Float64" Name="Velocity" NumberOfComponents="3" format="ascii">
          4.0507356271e-16 -7.5197155525e-05 0.0000000000e+00 
          4.0507356271e-16 -7.5197155525e-05 0.0000000000e+00 
          -5.2955337985e-18 -1.2026391872e-05 0.0000000000e+00 
          -5.2955337985e-18 -1.2026391872e-05 0.0000000000e+00 
          3.0729809135e-16 -7.2373549155e-05 0.0000000000e+00 
          2.5394122346e-16 -7.0269517184e-05 0.0000000000e+00 
          1.7950393835e-16 -6.8328793595e-05 0.0000000000e+00 
          1.5040262596e-16 -6.5433741889e-05 0.0000000000e+00 
          1.1165925607e-16 -6.2496080670e-05 0.0000000000e+00 
          7.9952172602e-17 -6.0446324163e-05 0.0000000000e+00 
          8.2330399293e-17 -5.7881657878e-05 0.0000000000e+00 
          6.8691794351e-17 -5.5643813167e-05 0.0000000000e+00 
          3.1901499667e-17 -5.3479941481e-05 0.0000000000e+00 
          2.3448084440e-17 -5.0306016465e-05 0.0000000000e+00 
          3.5123476601e-17 -4.7789951376e-05 0.0000000000e+00 
          1.3852003680e-17 -4.5621294638e-05 0.0000000000e+00 
          2.3170300489e-17 -4.2723060122e-05 0.0000000000e+00 
          -1.2198069119e-17 -4.0164455129e-05 0.0000000000e+00 
          8.0315722592e-18 -3.8162124546e-05 0.0000000000e+00 
          1.7797070478e-17 -3.6433561860e-05 0.0000000000e+00 
          2.1669848278e-17 -3.4036649250e-05 0.0000000000e+00 
          -9.0132391352e-18 -3.0826586679e-05 0.0000000000e+00 
          1.8078736422e-17 -2.8056529532e-05 0.0000000000e+00 
          -7.9629116803e-18 -2.5359015510e-05 0.0000000000e+00 
          1.4423764740e-18 -2.2894072471e-05 0.0000000000e+00 
          1.4384685437e-19 -2.1153928109e-05 0.0000000000e+00 
          -1.9849878038e-18 -1.9498267763e-05 0.0000000000e+00 
          -8.9848775930e-18 -1.7563962446e-05 0.0000000000e+00 
          1.4876434108e-18 -1.5383359022e-05 0.0000000000e+00 
          7.9493162302e-18 -1.3559767742e-05 0.0000000000e+00 
          2.7312815000e-18 -1.2045698442e-05 0.0000000000e+00 
          9.2962185743e-18 -1.0820902659e-05 0.0000000000e+00 
          -1.0747103753e-17 -8.9408795290e-06 0.0000000000e+00 
          2.4131236838e-18 -7.4691136191e-06 0.0000000000e+00 
          6.2644332267e-18 -7.0157708759e-06 0.0000000000e+00 
          -1.0849784631e-17 -6.9473847999e-06 0.0000000000e+00 
          8.7818569990e-18 -7.1637002430e-06 0.0000000000e+00 
          -1.4165360557e-17 -8.1385161703e-06 0.0000000000e+00 
          1.0973797979e-17 -9.3479156755e-06 0.0000000000e+00 
          -5.2902400160e-20 -9.9871144232e-06 0.0000000000e+00 
          1.4172100878e-18 -1.1180522902e-05 0.0000000000e+00 
          1.8925845084e-18 -1.1950649622e-05 0.0000000000e+00 
          3.0729809135e-16 -7.2373549155e-05 0.0000000000e+00 
          2.5394122346e-16 -7.0269517184e-05 0.0000000000e+00 
          1.7950393835e-16 -6.8328793595e-05 0.0000000000e+00 
          1.5040262596e-16 -6.5433741889e-05 0.0000000000e+00 
          1.1165925607e-16 -6.2496080670e-05 0.0000000000e+00 
          7.9952172602e-17 -6.0446324163e-05 0.0000000000e+00 
          8.2330399293e-17 -5.7881657878e-05 0.0000000000e+00 
          6.8691794351e-17 -5.5643813167e-05 0.0000000000e+00 
          3.1901499667e-17 -5.3479941481e-05 0.0000000000e+00 
          2.3448084440e-17 -5.0306016465e-05 0.0000000000e+00 
          3.5123476601e-17 -4.7789951376e-05 0.0000000000e+00 
          1.3852003680e-17 -4.5621294638e-05 0.0000000000e+00 
          2.3170300489e-17 -4.2723060122e-05 0.0000000000e+00 
          -1.2198069119e-17 -4.0164455129e-05 0.0000000000e+00 
          8.0315722592e-18 -3.8162124546e-05 0.0000000000e+00 
          1.7797070478e-17 -3.6433561860e-05 0.0000000000e+00 
          2.1669848278e-17 -3.4036649250e-05 0.0000000000e+00 
          -9.0132391352e-18 -3.0826586679e-05 0.0000000000e+00 
          1.8078736422e-17 -2.8056529532e-05 0.0000000000e+00 
          -7.9629116803e-18 -2.5359015510e-05 0.0000000000e+00 
          1.4423764740e-18 -2.2894072471e-05 0.0000000000e+00 
          1.4384685437e-19 -2.1153928109e-05 0.0000000000e+00 
          -1.9849878038e-18 -1.9498267763e-05 0.0000000000e+00 
          -8.9848775930e-18 -1.7563962446e-05 0.0000000000e+00 
          1.4876434108e-18 -1.5383359022e-05 0.0000000000e+00 
          7.9493162302e-18 -1.3559767742e-05 0.0000000000e+00 
          2.7312815000e-18 -1.2045698442e-05 0.0000000000e+00 
          9.2962185743e-18 -1.0820902659e-05 0.0000000000e+00 
          -1.0747103753e-17 -8.9408795290e-06 0.0000000000e+00 
          2.4131236838e-18 -7.4691136191e-06 0.0000000000e+00 
          6.2644332267e-18 -7.0157708759e-06 0.0000000000e+00 
          -1.0849784631e-17 -6.9473847999e-06 0.0000000000e+00 
          8.7818569990e-18 -7.1637002430e-06 0.0000000000e+00 
          -1.4165360557e-17 -8.1385161703e-06 0.0000000000e+00 
          1.0973797979e-17 -9.3479156755e-06 0.0000000000e+00 
          -5.2902400160e-20 -9.9871144232e-06 0.0000000000e+00 
          1.4172100878e-18 -1.1180522902e-05 0.0000000000e+00 
          1.8925845084e-18 -1.1950649622e-05 0.0000000000e+00 
        </DataArray>
        <DataArray type="Float64" Name="Displacement" NumberOfComponents="3" format="ascii">
          5.3764272199e-18 -8.0550449691e-05 0.0000000000e+00 
          5.3764272199e-18 -8.0550449691e-05 0.0000000000e+00 
          9.7518345094e-20 -1.0236928586e-04 0.0000000000e+00 
          9.7518345094e-20 -1.0236928586e-04 0.0000000000e+00 
          4.1470252925e-18 -8.1702557852e-05 0.0000000000e+00 
          3.2880202682e-18 -8.2824046360e-05 0.0000000000e+00 
          2.5181634105e-18 -8.3914705024e-05 0.0000000000e+00 
          1.9741197636e-18 -8.4974431869e-05 0.0000000000e+00 
          1.5086146166e-18 -8.6001446074e-05 0.0000000000e+00 
          1.1370942614e-18 -8.6995707421e-05 0.0000000000e+00 
          9.1055403049e-19 -8.7957047530e-05 0.0000000000e+00 
          7.3940635848e-19 -8.8886090486e-05 0.0000000000e+00 
          5.2656604491e-19 -8.9783727300e-05 0.0000000000e+00 
          4.3148164381e-19 -9.0650389368e-05 0.0000000000e+00 
          3.3170551118e-19 -9.1486659607e-05 0.0000000000e+00 
          2.0216744852e-19 -9.2291072297e-05 0.0000000000e+00 
          1.9676288102e-19 -9.3062620210e-05 0.0000000000e+00 
          1.5061296447e-19 -9.3800676976e-05 0.0000000000e+00 
          1.3019835106e-19 -9.4507160684e-05 0.0000000000e+00 
          1.2263392786e-19 -9.5182424081e-05 0.0000000000e+00 
          7.9026300319e-20 -9.5825449455e-05 0.0000000000e+00 
          2.1751922468e-20 -9.6436557236e-05 0.0000000000e+00 
          1.3390341461e-20 -9.7016683232e-05 0.0000000000e+00 
          1.7829067603e-20 -9.7565889547e-05 0.0000000000e+00 
          2.7129100929e-20 -9.8083083536e-05 0.0000000000e+00 
          9.2378897532e-22 -9.8569484920e-05 0.0000000000e+00 
          -2.3254321846e-20 -9.9023679760e-05 0.0000000000e+00 
          -3.2642670133e-20 -9.9445933152e-05 0.0000000000e+00 
          -1.1236687194e-20 -9.9837924754e-05 0.0000000000e+00 
          3.2147484295e-20 -1.0019755228e-04 0.0000000000e+00 
          2.2174290717e-21 -1.0052604155e-04 0.0000000000e+00 
          1.8863146607e-20 -1.0082682816e-04 0.0000000000e+00 
          2.9794931533e-20 -1.0110026257e-04 0.0000000000e+00 
          -2.9054973954e-21 -1.0134642945e-04 0.0000000000e+00 
          1.5215732407e-20 -1.0156469015e-04 0.0000000000e+00 
          4.1282857462e-20 -1.0175586030e-04 0.0000000000e+00 
          2.1578863790e-20 -1.0192069358e-04 0.0000000000e+00 
          1.9014396144e-20 -1.0205920279e-04 0.0000000000e+00 
          8.3888428647e-21 -1.0217250720e-04 0.0000000000e+00 
          8.6135888749e-21 -1.0226028923e-04 0.0000000000e+00 
          8.9527499259e-21 -1.0232241196e-04 0.0000000000e+00 
          5.9249986699e-20 -1.0235822989e-04 0.0000000000e+00 
          4.1470252925e-18 -8.1702557852e-05 0.0000000000e+00 
          3.2880202682e-18 -8.2824046360e-05 0.0000000000e+00 
          2.5181634105e-18 -8.3914705024e-05 0.0000000000e+00 
          1.9741197636e-18 -8.4974431869e-05 0.0000000000e+00 
          1.5086146166e-18 -8.6001446074e-05 0.0000000000e+00 
          1.1370942614e-18 -8.6995707421e-05 0.0000000000e+00 
          9.1055403049e-19 -8.7957047530e-05 0.0000000000e+00 
          7.3940635848e-19 -8.8886090486e-05 0.0000000000e+00 
          5.2656604491e-19 -8.9783727300e-05 0.0000000000e+00 
          4.3148164381e-19 -9.0650389368e-05 0.0000000000e+00 
          3.3170551118e-19 -9.1486659607e-05 0.0000000000e+00 
          2.0216744852e-19 -9.2291072297e-05 0.0000000000e+00 
          1.9676288102e-19 -9.3062620210e-05 0.0000000000e+00 
          1.5061296447e-19 -9.3800676976e-05 0.0000000000e+00 
          1.3019835106e-19 -9.4507160684e-05 0.0000000000e+00 
          1.2263392786e-19 -9.5182424081e-05 0.0000000000e+00 
          7.9026300319e-20 -9.5825449455e-05 0.0000000000e+00 
          2.1751922468e-20 -9.6436557236e-05 0.0000000000e+00 
          1.3390341461e-20 -9.7016683232e-05 0.0000000000e+00 
          1.7829067603e-20 -9.7565889547e-05 0.0000000000e+00 
          2.7129100929e-20 -9.8083083536e-05 0.0000000000e+00 
          9.2378897532e-22 -9.8569484920e-05 0.0000000000e+00 
          -2.3254321846e-20 -9.9023679760e-05 0.0000000000e+00 
          -3.2642670133e-20 -9.9445933152e-05 0.0000000000e+00 
          -1.1236687194e-20 -9.9837924754e-05 0.0000000000e+00 
          3.2147484295e-20 -1.0019755228e-04 0.0000000000e+00 
          2.2174290717e-21 -1.0052604155e-04 0.0000000000e+00 
          1.8863146607e-20 -1.0082682816e-04 0.0000000000e+00 
          2.9794931533e-20 -1.0110026257e-04 0.0000000000e+00 
          -2.9054973954e-21 -1.0134642945e-04 0.0000000000e+00 
          1.5215732407e-20 -1.0156469015e-04 0.0000000000e+00 
          4.1282857462e-20 -1.0175586030e-04 0.0000000000e+00 
          2.1578863790e-20 -1.0192069358e-04 0.0000000000e+00 
          1.9014396144e-20 -1.0205920279e-04 0.0000000000e+00 
          8.3888428647e-21 -1.0217250720e-04 0.0000000000e+00 
          8.6135888749e-21 -1.0226028923e-04 0.0000000000e+00 
          8.9527499259e-21 -1.0232241196e-04 0.0000000000e+00 
          5.9249986699e-20 -1.0235822989e-04 0.0000000000e+00 
        </DataArray>
        <DataArray type="Float64" Name="Acceleration" NumberOfComponents="3" format="ascii">
          3.0137131490e-14 1.8443439110e-04 0.0000000000e+00 
          3.0137131490e-14 1.8443439110e-04 0.0000000000e+00 
          -7.8982154609e-15 -1.6028051912e-03 0.0000000000e+00 
          -7.8982154609e-15 -1.6028051912e-03 0.0000000000e+00 
          2.9125195523e-14 -6.9682042806e-05 0.0000000000e+00 
          1.1075803018e-14 -3.2056434987e-05 0.0000000000e+00 
          1.8590944114e-14 -1.3169535141e-05 0.0000000000e+00 
          5.5460271813e-15 3.0748276312e-04 0.0000000000e+00 
          1.0907954515e-14 3.1472979773e-04 0.0000000000e+00 
          1.2856907688e-14 3.4485146905e-04 0.0000000000e+00 
          4.7516630362e-15 2.3283906454e-04 0.0000000000e+00 
          -3.3441777569e-15 7.2046530155e-05 0.0000000000e+00 
          1.0469255267e-14 -5.6928429322e-06 0.0000000000e+00 
          -3.6269291286e-17 -1.1092912592e-04 0.0000000000e+00 
          -3.8053573089e-15 1.5359146355e-04 0.0000000000e+00 
          1.0164040409e-14 3.3489807817e-04 0.0000000000e+00 
          -1.7565525521e-15 4.4777263619e-04 0.0000000000e+00 
          1.3217272796e-15 1.0212542672e-04 0.0000000000e+00 
          2.5973528741e-15 3.8404549849e-05 0.0000000000e+00 
          -5.2048635231e-15 2.2211643027e-04 0.0000000000e+00 
          1.8391974973e-15 1.6421206273e-04 0.0000000000e+00 
          1.8333589388e-15 -4.4244979029e-06 0.0000000000e+00 
          6.0849958126e-16 -1.5740647165e-05 0.0000000000e+00 
          1.1006717782e-15 1.8141566042e-04 0.0000000000e+00 
          -2.3923617300e-15 -3.8515510721e-05 0.0000000000e+00 
          9.5023131233e-16 2.1628216986e-04 0.0000000000e+00 
          1.3267935132e-15 1.6841538323e-04 0.0000000000e+00 
          2.2368285186e-15 -1.3406763097e-04 0.0000000000e+00 
          -8.3465373809e-16 2.4466930785e-04 0.0000000000e+00 
          -2.2692716390e-15 2.3773762487e-05 0.0000000000e+00 
          1.6910838412e-15 -5.9533712077e-04 0.0000000000e+00 
          1.2843095586e-15 -6.5855040999e-04 0.0000000000e+00 
          -5.3956799287e-15 -6.7368038489e-04 0.0000000000e+00 
          3.9807672596e-15 -5.5865966185e-04 0.0000000000e+00 
          2.1598355839e-15 -7.0564211316e-04 0.0000000000e+00 
          -5.0942770891e-15 -8.4148999843e-04 0.0000000000e+00 
          3.6870228648e-15 -8.4372333841e-04 0.0000000000e+00 
          -3.4696316604e-15 -1.0454588390e-03 0.0000000000e+00 
          1.3447818025e-15 -9.8822896115e-04 0.0000000000e+00 
          8.9145370453e-16 -9.6357106547e-04 0.0000000000e+00 
          4.0539767607e-15 -8.4721656778e-04 0.0000000000e+00 
          -5.3663490276e-16 -1.1252621810e-03 0.0000000000e+00 
          2.9125195523e-14 -6.9682042806e-05 0.0000000000e+00 
          1.1075803018e-14 -3.2056434987e-05 0.0000000000e+00 
          1.8590944114e-14 -1.3169535141e-05 0.0000000000e+00 
          5.5460271813e-15 3.0748276312e-04 0.0000000000e+00 
          1.0907954515e-14 3.1472979773e-04 0.0000000000e+00 
          1.2856907688e-14 3.4485146905e-04 0.0000000000e+00 
          4.7516630362e-15 2.3283906454e-04 0.0000000000e+00 
          -3.3441777569e-15 7.2046530155e-05 0.0000000000e+00 
          1.0469255267e-14 -5.6928429322e-06 0.0000000000e+00 
          -3.6269291286e-17 -1.1092912592e-04 0.0000000000e+00 
          -3.8053573089e-15 1.5359146355e-04 0.0000000000e+00 
          1.0164040409e-14 3.3489807817e-04 0.0000000000e+00 
          -1.7565525521e-15 4.4777263619e-04 0.0000000000e+00 
          1.3217272796e-15 1.0212542672e-04 0.0000000000e+00 
          2.5973528741e-15 3.8404549849e-05 0.0000000000e+00 
          -5.2048635231e-15 2.2211643027e-04 0.0000000000e+00 
          1.8391974973e-15 1.6421206273e-04 0.0000000000e+00 
          1.8333589388e-15 -4.4244979029e-06 0.0000000000e+00 
          6.0849958126e-16 -1.5740647165e-05 0.0000000000e+00 
          1.1006717782e-15 1.8141566042e-04 0.0000000000e+00 
          -2.3923617300e-15 -3.8515510721e-05 0.0000000000e+00 
          9.5023131233e-16 2.1628216986e-04 0.0000000000e+00 
          1.3267935132e-15 1.6841538323e-04 0.0000000000e+00 
          2.2368285186e-15 -1.3406763097e-04 0.0000000000e+00 
          -8.3465373809e-16 2.4466930785e-04 0.0000000000e+00 
          -2.2692716390e-15 2.3773762487e-05 0.0000000000e+00 
          1.6910838412e-15 -5.9533712077e-04 0.0000000000e+00 
          1.2843095586e-15 -6.5855040999e-04 0.0000000000e+00 
          -5.3956799287e-15 -6.7368038489e-04 0.0000000000e+00 
          3.9807672596e-15 -5.5865966185e-04 0.0000000000e+00 
          2.1598355839e-15 -7.0564211316e-04 0.0000000000e+00 
          -5.0942770891e-15 -8.4148999843e-04 0.0000000000e+00 
          3.6870228648e-15 -8.4372333841e-04 0.0000000000e+00 
          -3.4696316604e-15 -1.0454588390e-03 0.0000000000e+00 
          1.3447818025e-15 -9.8822896115e-04 0.0000000000e+00 
          8.9145370453e-16 -9.6357106547e-04 0.0000000000e+00 
          4.0539767607e-15 -8.4721656778e-04 0.0000000000e+00 
          -5.3663490276e-16 -1.1252621810e-03 0.0000000000e+00 
        </DataArray>
        <DataArray type="Float64" Name="Reaction" NumberOfComponents="3" format="ascii">
          0.0000000000e+00 0.0000000000e+00 0.0000000000e+00 
          0.0000000000e+00 0.0000000000e+00 0.0000000000e+00 
          0.0000000000e+00 0.0000000000e+00 0.0000000000e+00 
          0.0000000000e+00 0.0000000000e+00 0.0000000000e+00 
          0.0000000000e+00 0.0000000000e+00 0.0000000000e+00 
          0.0000000000e+00 0.0000000000e+00 0.0000000000e+00 
          0.0000000000e+00 0.0000000000e+00 0.0000000000e+00 
          0.0000000000e+00 0.0000000000e+00 0.0000000000e+00 
          0.0000000000e+00 0.0000000000e+00 0.0000000000e+00 
          0.0000000000e+00 0.0000000000e+00 0.0000000000e+00 
          0.0000000000e+00 0.0000000000e+00 0.0000000000e+00 
          0.0000000000e+00 0.0000000000e+00 0.0000000000e+00 
          0.0000000000e+00 0.0000000000e+00 0.0000000000e+00 
          0.0000000000e+00 0.0000000000e+00 0.0000000000e+00 
          0.0000000000e+00 0.0000000000e+00 0.0000000000e+00 
          0.0000000000e+00 0.0000000000e+00 0.0000000000e+00 
          0.0000000000e+00 0.0000000000e+00 0.0000000000e+00 
          0.0000000000e+00 0.0000000000e+00 0.0000000000e+00 
          0.0000000000e+00 0.0000000000e+00 0.0000000000e+00 
          0.0000000000e+00 0.0000000000e+00 0.0000000000e+00 
          0.0000000000e+00 0.0000000000e+00 0.0000000000e+00 
          0.0000000000e+00 0.0000000000e+00 0.0000000000e+00 
          0.0000000000e+00 0.0000000000e+00 0.0000000000e+00 
          0.0000000000e+00 0.0000000000e+00 0.0000000000e+00 
          0.0000000000e+00 0.0000000000e+00 0.0000000000e+00 
          0.0000000000e+00 0.0000000000e+00 0.0000000000e+00 
          0.0000000000e+00 0.0000000000e+00 0.0000000000e+00 
          0.0000000000e+00 0.0000000000e+00 0.0000000000e+00 
          0.0000000000e+00 0.0000000000e+00 0.0000000000e+00 
          0.0000000000e+00 0.0000000000e+00 0.0000000000e+00 
          0.0000000000e+00 0.0000000000e+00 0.0000000000e+00 
          0.0000000000e+00 0.0000000000e+00 0.0000000000e+00 
          0.0000000000e+00 0.0000000000e+00 0.0000000000e+00 
          0.0000000000e+00 0.0000000000e+00 0.0000000000e+00 
          0.0000000000e+00 0.0000000000e+00 0.0000000000e+00 
          0.0000000000e+00 0.0000000000e+00 0.0000000000e+00 
          0.0000000000e+00 0.0000000000e+00 0.0000000000e+00 
          0.0000000000e+00 0.0000000000e+00 0.0000000000e+00 
          0.0000000000e+00 0.0000000000e+00 0.0000000000e+00 
          0.0000000000e+00 0.0000000000e+00 0.0000000000e+00 
          0.0000000000e+00 0.0000000000e+00 0.0000000000e+00 
          0.0000000000e+00 0.0000000000e+00 0.0000000000e+00 
          0.0000000000e+00 0.0000000000e+00 0.0000000000e+00 
          0.0000000000e+00 0.0000000000e+00 0.0000000000e+00 
          0.0000000000e+00 0.0000000000e+00 0.0000000000e+00 
          0.0000000000e+00 0.0000000000e+00 0.0000000000e+00 
          0.0000000000e+00 0.0000000000e+00 0.0000000000e+00 
          0.0000000000e+00 0.0000000000e+00 0.0000000000e+00 
          0.0000000000e+00 0.0000000000e+00 0.0000000000e+00 
          0.0000000000e+00 0.0000000000e+00 0.0000000000e+00 
          0.0000000000e+00 0.0000000000e+00 0.0000000000e+00 
          0.0000000000e+00 0.0000000000e+00 0.0000000000e+00 
          0.0000000000e+00 0.0000000000e+00 0.0000000000e+00 
          0.0000000000e+00 0.0000000000e+00 0.0000000000e+00 
          0.0000000000e+00 0.0000000000e+00 0.0000000000e+00 
          0.0000000000e+00 0.0000000000e+00 0.0000000000e+00 
          0.0000000000e+00 0.0000000000e+00 0.0000000000e+00 
          0.0000000000e+00 0.0000000000e+00 0.0000000000e+00 
          0.0000000000e+00 0.0000000000e+00 0.0000000000e+00 
          0.0000000000e+00 0.0000000000e+00 0.0000000000e+00 
          0.0000000000e+00 0.0000000000e+00 0.0000000000e+00 
          0.0000000000e+00 0.0000000000e+00 0.0000000000e+00 
          0.0000000000e+00 0.0000000000e+00 0.0000000000e+00 
          0.0000000000e+00 0.0000000000e+00 0.0000000000e+00 
          0.0000000000e+00 0.0000000000e+00 0.0000000000e+00 
          0.0000000000e+00 0.0000000000e+00 0.0000000000e+00 
          0.0000000000e+00 0.0000000000e+00 0.0000000000e+00 
          0.0000000000e+00 0.0000000000e+00 0.0000000000e+00 
          0.0000000000e+00 0.0000000000e+00 0.0000000000e+00 
          0.0000000000e+00 0.0000000000e+00 0.0000000000e+00 
          0.0000000000e+00 0.0000000000e+00 0.0000000000e+00 
          0.0000000000e+00 0.0000000000e+00 0.0000000000e+00 
          0.0000000000e+00 0.0000000000e+00 0.0000000000e+00 
          0.0000000000e+00 0.0000000000e+00 0.0000000000e+00 
          0.0000000000e+00 0.0000000000e+00 0.0000000000e+00 
          0.0000000000e+00 0.0000000000e+00 0.0000000000e+00 
          0.0000000000e+00 0.0000000000e+00 0.0000000000e+00 
          0.0000000000e+00 0.0000000000e+00 0.0000000000e+00 
          0.0000000000e+00 0.0000000000e+00 0.0000000000e+00 
          0.0000000000e+00 0.0000000000e+00 0.0000000000e+00 
        </DataArray>
      </PointData>
      <CellData>
        <DataArray type="Int64" Name="ElementTag" format="ascii">
          90
          91
          92
          93
          94
          95
          96
          97
          98
          99
          100
          101
          102
          103
          104
          105
          106
          107
          108
          109
          110
          111
          112
          113
          114
          115
          116
          117
          118
          119
          120
          121
          122
          123
          124
          125
          126
          127
          128
        </DataArray>
      </CellData>
    </Piece>
  </UnstructuredGrid>
</VTKFile>
