<?xml version="1.0"?>
<VTKFile type="UnstructuredGrid" version="1.0" byte_order="LittleEndian" compressor="vtkZLibDataCompressor">
  <UnstructuredGrid>
    <Piece NumberOfPoints="82" NumberOfCells="1">
      <Points>
        <DataArray type="Float64" Name="Points" NumberOfComponents="3" format="ascii">
          0.0000000000e+00 0.0000000000e+00 0.0000000000e+00 
          2.5000000000e-01 0.0000000000e+00 0.0000000000e+00 
          2.5000000000e-01 3.0000000000e+01 0.0000000000e+00 
          0.0000000000e+00 3.0000000000e+01 0.0000000000e+00 
          0.0000000000e+00 -5.0000000000e+00 0.0000000000e+00 
          2.5000000000e-01 -5.0000000000e+00 0.0000000000e+00 
          2.5000000000e-01 7.6923100000e-01 0.0000000000e+00 
          2.5000000000e-01 1.5384620000e+00 0.0000000000e+00 
          2.5000000000e-01 2.3076920000e+00 0.0000000000e+00 
          2.5000000000e-01 3.0769230000e+00 0.0000000000e+00 
          2.5000000000e-01 3.8461540000e+00 0.0000000000e+00 
          2.5000000000e-01 4.6153850000e+00 0.0000000000e+00 
          2.5000000000e-01 5.3846150000e+00 0.0000000000e+00 
          2.5000000000e-01 6.1538460000e+00 0.0000000000e+00 
          2.5000000000e-01 6.9230770000e+00 0.0000000000e+00 
          2.5000000000e-01 7.6923080000e+00 0.0000000000e+00 
          2.5000000000e-01 8.4615380000e+00 0.0000000000e+00 
          2.5000000000e-01 9.2307690000e+00 0.0000000000e+00 
          2.5000000000e-01 1.0000000000e+01 0.0000000000e+00 
          2.5000000000e-01 1.0769231000e+01 0.0000000000e+00 
          2.5000000000e-01 1.1538462000e+01 0.0000000000e+00 
          2.5000000000e-01 1.2307692000e+01 0.0000000000e+00 
          2.5000000000e-01 1.3076923000e+01 0.0000000000e+00 
          2.5000000000e-01 1.3846154000e+01 0.0000000000e+00 
          2.5000000000e-01 1.4615385000e+01 0.0000000000e+00 
          2.5000000000e-01 1.5384615000e+01 0.0000000000e+00 
          2.5000000000e-01 1.6153846000e+01 0.0000000000e+00 
          2.5000000000e-01 1.6923077000e+01 0.0000000000e+00 
          2.5000000000e-01 1.7692308000e+01 0.0000000000e+00 
          2.5000000000e-01 1.8461538000e+01 0.0000000000e+00 
          2.5000000000e-01 1.9230769000e+01 0.0000000000e+00 
          2.5000000000e-01 2.0000000000e+01 0.0000000000e+00 
          2.5000000000e-01 2.0769231000e+01 0.0000000000e+00 
          2.5000000000e-01 2.1538462000e+01 0.0000000000e+00 
          2.5000000000e-01 2.2307692000e+01 0.0000000000e+00 
          2.5000000000e-01 2.3076923000e+01 0.0000000000e+00 
          2.5000000000e-01 2.3846154000e+01 0.0000000000e+00 
          2.5000000000e-01 2.4615385000e+01 0.0000000000e+00 
          2.5000000000e-01 2.5384615000e+01 0.0000000000e+00 
          2.5000000000e-01 2.6153846000e+01 0.0000000000e+00 
          2.5000000000e-01 2.6923077000e+01 0.0000000000e+00 
          2.5000000000e-01 2.7692308000e+01 0.0000000000e+00 
          2.5000000000e-01 2.8461538000e+01 0.0000000000e+00 
          2.5000000000e-01 2.9230769000e+01 0.0000000000e+00 
          0.0000000000e+00 7.6923100000e-01 0.0000000000e+00 
          0.0000000000e+00 1.5384620000e+00 0.0000000000e+00 
          0.0000000000e+00 2.3076920000e+00 0.0000000000e+00 
          0.0000000000e+00 3.0769230000e+00 0.0000000000e+00 
          0.0000000000e+00 3.8461540000e+00 0.0000000000e+00 
          0.0000000000e+00 4.6153850000e+00 0.0000000000e+00 
          0.0000000000e+00 5.3846150000e+00 0.0000000000e+00 
          0.0000000000e+00 6.1538460000e+00 0.0000000000e+00 
          0.0000000000e+00 6.9230770000e+00 0.0000000000e+00 
          0.0000000000e+00 7.6923080000e+00 0.0000000000e+00 
          0.0000000000e+00 8.4615380000e+00 0.0000000000e+00 
          0.0000000000e+00 9.2307690000e+00 0.0000000000e+00 
          0.0000000000e+00 1.0000000000e+01 0.0000000000e+00 
          0.0000000000e+00 1.0769231000e+01 0.0000000000e+00 
          0.0000000000e+00 1.1538462000e+01 0.0000000000e+00 
          0.0000000000e+00 1.2307692000e+01 0.0000000000e+00 
          0.0000000000e+00 1.3076923000e+01 0.0000000000e+00 
          0.0000000000e+00 1.3846154000e+01 0.0000000000e+00 
          0.0000000000e+00 1.4615385000e+01 0.0000000000e+00 
          0.0000000000e+00 1.5384615000e+01 0.0000000000e+00 
          0.0000000000e+00 1.6153846000e+01 0.0000000000e+00 
          0.0000000000e+00 1.6923077000e+01 0.0000000000e+00 
          0.0000000000e+00 1.7692308000e+01 0.0000000000e+00 
          0.0000000000e+00 1.8461538000e+01 0.0000000000e+00 
          0.0000000000e+00 1.9230769000e+01 0.0000000000e+00 
          0.0000000000e+00 2.0000000000e+01 0.0000000000e+00 
          0.0000000000e+00 2.0769231000e+01 0.0000000000e+00 
          0.0000000000e+00 2.1538462000e+01 0.0000000000e+00 
          0.0000000000e+00 2.2307692000e+01 0.0000000000e+00 
          0.0000000000e+00 2.3076923000e+01 0.0000000000e+00 
          0.0000000000e+00 2.3846154000e+01 0.0000000000e+00 
          0.0000000000e+00 2.4615385000e+01 0.0000000000e+00 
          0.0000000000e+00 2.5384615000e+01 0.0000000000e+00 
          0.0000000000e+00 2.6153846000e+01 0.0000000000e+00 
          0.0000000000e+00 2.6923077000e+01 0.0000000000e+00 
          0.0000000000e+00 2.7692308000e+01 0.0000000000e+00 
          0.0000000000e+00 2.8461538000e+01 0.0000000000e+00 
          0.0000000000e+00 2.9230769000e+01 0.0000000000e+00 
        </DataArray>
      </Points>
      <Cells>
        <DataArray type="Int64" Name="connectivity" format="ascii">
          0
          1
          2
          3
          4
          5
          6
          7
          8
          9
          10
          11
          12
          13
          14
          15
          16
          17
          18
          19
          20
          21
          22
          23
          24
          25
          26
          27
          28
          29
          30
          31
          32
          33
          34
          35
          36
          37
          38
          39
          40
          41
          42
          43
          44
          45
          46
          47
          48
          49
          50
          51
          52
          53
          54
          55
          56
          57
          58
          59
          60
          61
          62
          63
          64
          65
          66
          67
          68
          69
          70
          71
          72
          73
          74
          75
          76
          77
          78
          79
          80
          81
        </DataArray>
        <DataArray type="Int64" Name="offsets" format="ascii">
          82
        </DataArray>
        <DataArray type="Int64" Name="types" format="ascii">
          2
        </DataArray>
      </Cells>
      <PointData>
        <DataArray type="Int64" Name="NodeTag" format="ascii">
          1
          2
          3
          4
          5
          6
          7
          8
          9
          10
          11
          12
          13
          14
          15
          16
          17
          18
          19
          20
          21
          22
          23
          24
          25
          26
          27
          28
          29
          30
          31
          32
          33
          34
          35
          36
          37
          38
          39
          40
          41
          42
          43
          44
          45
          46
          47
          48
          49
          50
          51
          52
          53
          54
          55
          56
          57
          58
          59
          60
          61
          62
          63
          64
          65
          66
          67
          68
          69
          70
          71
          72
          73
          74
          75
          76
          77
          78
          79
          80
          81
          82
        </DataArray>
        <DataArray type="Float64" Name="Velocity" NumberOfComponents="3" format="ascii">
          1.6645753682e-06 -7.7844223526e-05 0.0000000000e+00 
          1.6645753682e-06 -7.7844223526e-05 0.0000000000e+00 
          1.7868048146e-05 -7.7905766455e-05 0.0000000000e+00 
          1.7868048146e-05 -7.7905766455e-05 0.0000000000e+00 
          0.0000000000e+00 0.0000000000e+00 0.0000000000e+00 
          0.0000000000e+00 0.0000000000e+00 0.0000000000e+00 
          2.3584314603e-06 -7.7824142163e-05 0.0000000000e+00 
          3.0449689577e-06 -7.7881688221e-05 0.0000000000e+00 
          3.7281340099e-06 -7.7802340201e-05 0.0000000000e+00 
          4.4027542473e-06 -7.7873068273e-05 0.0000000000e+00 
          5.0686130498e-06 -7.7841026475e-05 0.0000000000e+00 
          5.7275618695e-06 -7.7827378067e-05 0.0000000000e+00 
          6.3743378584e-06 -7.7863617772e-05 0.0000000000e+00 
          7.0131964203e-06 -7.7839953539e-05 0.0000000000e+00 
          7.6363945604e-06 -7.7830885802e-05 0.0000000000e+00 
          8.2532841556e-06 -7.7865535391e-05 0.0000000000e+00 
          8.8499653353e-06 -7.7828913931e-05 0.0000000000e+00 
          9.4375863041e-06 -7.7847958087e-05 0.0000000000e+00 
          1.0011645621e-05 -7.7849817188e-05 0.0000000000e+00 
          1.0561285815e-05 -7.7838232803e-05 0.0000000000e+00 
          1.1109266481e-05 -7.7844157796e-05 0.0000000000e+00 
          1.1625701325e-05 -7.7851129664e-05 0.0000000000e+00 
          1.2134396890e-05 -7.7836873649e-05 0.0000000000e+00 
          1.2622985212e-05 -7.7847968212e-05 0.0000000000e+00 
          1.3087283419e-05 -7.7843463688e-05 0.0000000000e+00 
          1.3542587227e-05 -7.7848528177e-05 0.0000000000e+00 
          1.3967669310e-05 -7.7832075413e-05 0.0000000000e+00 
          1.4378696244e-05 -7.7862988661e-05 0.0000000000e+00 
          1.4768382120e-05 -7.7828681258e-05 0.0000000000e+00 
          1.5132922712e-05 -7.7846379143e-05 0.0000000000e+00 
          1.5481026950e-05 -7.7859981920e-05 0.0000000000e+00 
          1.5803083148e-05 -7.7818239700e-05 0.0000000000e+00 
          1.6103962804e-05 -7.7867041423e-05 0.0000000000e+00 
          1.6382842094e-05 -7.7836332986e-05 0.0000000000e+00 
          1.6637434412e-05 -7.7836824604e-05 0.0000000000e+00 
          1.6868216784e-05 -7.7860547055e-05 0.0000000000e+00 
          1.7077743019e-05 -7.7826219822e-05 0.0000000000e+00 
          1.7260431840e-05 -7.7862699716e-05 0.0000000000e+00 
          1.7419719513e-05 -7.7826825717e-05 0.0000000000e+00 
          1.7558037799e-05 -7.7856850997e-05 0.0000000000e+00 
          1.7665118448e-05 -7.7843751688e-05 0.0000000000e+00 
          1.7755015357e-05 -7.7827593438e-05 0.0000000000e+00 
          1.7816057076e-05 -7.7881331697e-05 0.0000000000e+00 
          1.7850679492e-05 -7.7790106122e-05 0.0000000000e+00 
          2.3584314603e-06 -7.7824142163e-05 0.0000000000e+00 
          3.0449689577e-06 -7.7881688221e-05 0.0000000000e+00 
          3.7281340099e-06 -7.7802340201e-05 0.0000000000e+00 
          4.4027542473e-06 -7.7873068273e-05 0.0000000000e+00 
          5.0686130498e-06 -7.7841026475e-05 0.0000000000e+00 
          5.7275618695e-06 -7.7827378067e-05 0.0000000000e+00 
          6.3743378584e-06 -7.7863617772e-05 0.0000000000e+00 
          7.0131964203e-06 -7.7839953539e-05 0.0000000000e+00 
          7.6363945604e-06 -7.7830885802e-05 0.0000000000e+00 
          8.2532841556e-06 -7.7865535391e-05 0.0000000000e+00 
          8.8499653353e-06 -7.7828913931e-05 0.0000000000e+00 
          9.4375863041e-06 -7.7847958087e-05 0.0000000000e+00 
          1.0011645621e-05 -7.7849817188e-05 0.0000000000e+00 
          1.0561285815e-05 -7.7838232803e-05 0.0000000000e+00 
          1.1109266481e-05 -7.7844157796e-05 0.0000000000e+00 
          1.1625701325e-05 -7.7851129664e-05 0.0000000000e+00 
          1.2134396890e-05 -7.7836873649e-05 0.0000000000e+00 
          1.2622985212e-05 -7.7847968212e-05 0.0000000000e+00 
          1.3087283419e-05 -7.7843463688e-05 0.0000000000e+00 
          1.3542587227e-05 -7.7848528177e-05 0.0000000000e+00 
          1.3967669310e-05 -7.7832075413e-05 0.0000000000e+00 
          1.4378696244e-05 -7.7862988661e-05 0.0000000000e+00 
          1.4768382120e-05 -7.7828681258e-05 0.0000000000e+00 
          1.5132922712e-05 -7.7846379143e-05 0.0000000000e+00 
          1.5481026950e-05 -7.7859981920e-05 0.0000000000e+00 
          1.5803083148e-05 -7.7818239700e-05 0.0000000000e+00 
          1.6103962804e-05 -7.7867041423e-05 0.0000000000e+00 
          1.6382842094e-05 -7.7836332986e-05 0.0000000000e+00 
          1.6637434412e-05 -7.7836824604e-05 0.0000000000e+00 
          1.6868216784e-05 -7.7860547055e-05 0.0000000000e+00 
          1.7077743019e-05 -7.7826219822e-05 0.0000000000e+00 
          1.7260431840e-05 -7.7862699716e-05 0.0000000000e+00 
          1.7419719513e-05 -7.7826825717e-05 0.0000000000e+00 
          1.7558037799e-05 -7.7856850997e-05 0.0000000000e+00 
          1.7665118448e-05 -7.7843751688e-05 0.0000000000e+00 
          1.7755015357e-05 -7.7827593438e-05 0.0000000000e+00 
          1.7816057076e-05 -7.7881331697e-05 0.0000000000e+00 
          1.7850679492e-05 -7.7790106122e-05 0.0000000000e+00 
        </DataArray>
        <DataArray type="Float64" Name="Displacement" NumberOfComponents="3" format="ascii">
          -3.1563516656e-07 -6.8398571095e-04 0.0000000000e+00 
          -3.1563516656e-07 -6.8398571095e-04 0.0000000000e+00 
          4.7031831789e-07 -7.0756600713e-04 0.0000000000e+00 
          4.7031831789e-07 -7.0756600713e-04 0.0000000000e+00 
          0.0000000000e+00 0.0000000000e+00 0.0000000000e+00 
          0.0000000000e+00 0.0000000000e+00 0.0000000000e+00 
          -2.8775946388e-07 -6.8517944711e-04 0.0000000000e+00 
          -2.5949440342e-07 -6.8634219705e-04 0.0000000000e+00 
          -2.3090200795e-07 -6.8747390758e-04 0.0000000000e+00 
          -2.0206458294e-07 -6.8857465605e-04 0.0000000000e+00 
          -1.7304589420e-07 -6.8964434911e-04 0.0000000000e+00 
          -1.4392303190e-07 -6.9068307425e-04 0.0000000000e+00 
          -1.1476767591e-07 -6.9169078838e-04 0.0000000000e+00 
          -8.5647751971e-08 -6.9266744537e-04 0.0000000000e+00 
          -5.6636522344e-08 -6.9361321681e-04 0.0000000000e+00 
          -2.7810714882e-08 -6.9452778735e-04 0.0000000000e+00 
          7.8035475870e-10 -6.9541160510e-04 0.0000000000e+00 
          2.9034831977e-08 -6.9626414582e-04 0.0000000000e+00 
          5.6924968808e-08 -6.9708591043e-04 0.0000000000e+00 
          8.4349483687e-08 -6.9787652571e-04 0.0000000000e+00 
          1.1126466491e-07 -6.9863617285e-04 0.0000000000e+00 
          1.3760702737e-07 -6.9936487663e-04 0.0000000000e+00 
          1.6329479911e-07 -7.0006241984e-04 0.0000000000e+00 
          1.8830231605e-07 -7.0072918436e-04 0.0000000000e+00 
          2.1253681910e-07 -7.0136468011e-04 0.0000000000e+00 
          2.3596783213e-07 -7.0196940656e-04 0.0000000000e+00 
          2.5853150091e-07 -7.0254297589e-04 0.0000000000e+00 
          2.8017266154e-07 -7.0308557527e-04 0.0000000000e+00 
          3.0085611220e-07 -7.0359722203e-04 0.0000000000e+00 
          3.2051740723e-07 -7.0407778418e-04 0.0000000000e+00 
          3.3912993116e-07 -7.0452737467e-04 0.0000000000e+00 
          3.5663655012e-07 -7.0494600033e-04 0.0000000000e+00 
          3.7301000361e-07 -7.0533352376e-04 0.0000000000e+00 
          3.8821036880e-07 -7.0569013001e-04 0.0000000000e+00 
          4.0219533899e-07 -7.0601571047e-04 0.0000000000e+00 
          4.1495519474e-07 -7.0631020561e-04 0.0000000000e+00 
          4.2643367932e-07 -7.0657385669e-04 0.0000000000e+00 
          4.3663088456e-07 -7.0680629912e-04 0.0000000000e+00 
          4.4551488125e-07 -7.0700792847e-04 0.0000000000e+00 
          4.5305247525e-07 -7.0717841190e-04 0.0000000000e+00 
          4.5925959755e-07 -7.0731794088e-04 0.0000000000e+00 
          4.6408807552e-07 -7.0742650610e-04 0.0000000000e+00 
          4.6754819472e-07 -7.0750396716e-04 0.0000000000e+00 
          4.6963270204e-07 -7.0755050867e-04 0.0000000000e+00 
          -2.8775946388e-07 -6.8517944711e-04 0.0000000000e+00 
          -2.5949440342e-07 -6.8634219705e-04 0.0000000000e+00 
          -2.3090200795e-07 -6.8747390758e-04 0.0000000000e+00 
          -2.0206458294e-07 -6.8857465605e-04 0.0000000000e+00 
          -1.7304589420e-07 -6.8964434911e-04 0.0000000000e+00 
          -1.4392303190e-07 -6.9068307425e-04 0.0000000000e+00 
          -1.1476767591e-07 -6.9169078838e-04 0.0000000000e+00 
          -8.5647751971e-08 -6.9266744537e-04 0.0000000000e+00 
          -5.6636522344e-08 -6.9361321681e-04 0.0000000000e+00 
          -2.7810714882e-08 -6.9452778735e-04 0.0000000000e+00 
          7.8035475870e-10 -6.9541160510e-04 0.0000000000e+00 
          2.9034831977e-08 -6.9626414582e-04 0.0000000000e+00 
          5.6924968808e-08 -6.9708591043e-04 0.0000000000e+00 
          8.4349483687e-08 -6.9787652571e-04 0.0000000000e+00 
          1.1126466491e-07 -6.9863617285e-04 0.0000000000e+00 
          1.3760702737e-07 -6.9936487663e-04 0.0000000000e+00 
          1.6329479911e-07 -7.0006241984e-04 0.0000000000e+00 
          1.8830231605e-07 -7.0072918436e-04 0.0000000000e+00 
          2.1253681910e-07 -7.0136468011e-04 0.0000000000e+00 
          2.3596783213e-07 -7.0196940656e-04 0.0000000000e+00 
          2.5853150091e-07 -7.0254297589e-04 0.0000000000e+00 
          2.8017266154e-07 -7.0308557527e-04 0.0000000000e+00 
          3.0085611220e-07 -7.0359722203e-04 0.0000000000e+00 
          3.2051740723e-07 -7.0407778418e-04 0.0000000000e+00 
          3.3912993116e-07 -7.0452737467e-04 0.0000000000e+00 
          3.5663655012e-07 -7.0494600033e-04 0.0000000000e+00 
          3.7301000361e-07 -7.0533352376e-04 0.0000000000e+00 
          3.8821036880e-07 -7.0569013001e-04 0.0000000000e+00 
          4.0219533899e-07 -7.0601571047e-04 0.0000000000e+00 
          4.1495519474e-07 -7.0631020561e-04 0.0000000000e+00 
          4.2643367932e-07 -7.0657385669e-04 0.0000000000e+00 
          4.3663088456e-07 -7.0680629912e-04 0.0000000000e+00 
          4.4551488125e-07 -7.0700792847e-04 0.0000000000e+00 
          4.5305247525e-07 -7.0717841190e-04 0.0000000000e+00 
          4.5925959755e-07 -7.0731794088e-04 0.0000000000e+00 
          4.6408807552e-07 -7.0742650610e-04 0.0000000000e+00 
          4.6754819472e-07 -7.0750396716e-04 0.0000000000e+00 
          4.6963270204e-07 -7.0755050867e-04 0.0000000000e+00 
        </DataArray>
        <DataArray type="Float64" Name="Acceleration" NumberOfComponents="3" format="ascii">
          4.1917301511e-05 1.3205493511e-06 0.0000000000e+00 
          4.1917301511e-05 1.3205493511e-06 0.0000000000e+00 
          -1.2355068526e-04 -1.6955408805e-06 0.0000000000e+00 
          -1.2355068526e-04 -1.6955408805e-06 0.0000000000e+00 
          0.0000000000e+00 0.0000000000e+00 0.0000000000e+00 
          0.0000000000e+00 0.0000000000e+00 0.0000000000e+00 
          3.5081903914e-05 -3.6266948389e-06 0.0000000000e+00 
          2.9496900120e-05 5.7003490059e-06 0.0000000000e+00 
          2.2074309959e-05 -7.7111702568e-06 0.0000000000e+00 
          1.6332220862e-05 8.8434822740e-06 0.0000000000e+00 
          9.3862429595e-06 -6.9233274638e-06 0.0000000000e+00 
          2.9311628542e-06 6.1012359814e-07 0.0000000000e+00 
          -3.1959154916e-06 9.3945796685e-06 0.0000000000e+00 
          -9.7935717674e-06 -2.1767931108e-05 0.0000000000e+00 
          -1.6706903223e-05 3.5062887207e-05 0.0000000000e+00 
          -2.1147006084e-05 -4.5893737778e-05 0.0000000000e+00 
          -3.0331010629e-05 4.8990233386e-05 0.0000000000e+00 
          -3.2827788426e-05 -4.1486709797e-05 0.0000000000e+00 
          -4.1953457409e-05 2.5766359782e-05 0.0000000000e+00 
          -4.5891968555e-05 -6.8828365557e-06 0.0000000000e+00 
          -5.1609048765e-05 -1.1515112234e-05 0.0000000000e+00 
          -5.8983041728e-05 2.7966143801e-05 0.0000000000e+00 
          -6.1292299668e-05 -4.1020531988e-05 0.0000000000e+00 
          -6.9650078755e-05 4.7289756016e-05 0.0000000000e+00 
          -7.2393340144e-05 -4.2852336512e-05 0.0000000000e+00 
          -7.8152225182e-05 2.7316585213e-05 0.0000000000e+00 
          -8.3119806461e-05 -6.5572463940e-06 0.0000000000e+00 
          -8.6291558631e-05 -9.6801518850e-06 0.0000000000e+00 
          -9.2095998493e-05 1.3997597297e-05 0.0000000000e+00 
          -9.4498711152e-05 -6.1333442673e-06 0.0000000000e+00 
          -9.9644221737e-05 -7.4802411463e-06 0.0000000000e+00 
          -1.0210044703e-04 1.7280098393e-05 0.0000000000e+00 
          -1.0569757311e-04 -1.6066150195e-05 0.0000000000e+00 
          -1.0950792175e-04 3.4322910674e-06 0.0000000000e+00 
          -1.1038694048e-04 1.4314323032e-05 0.0000000000e+00 
          -1.1545407327e-04 -2.9243519501e-05 0.0000000000e+00 
          -1.1544579827e-04 3.6456761831e-05 0.0000000000e+00 
          -1.1832172076e-04 -3.4866901337e-05 0.0000000000e+00 
          -1.2131466049e-04 2.5200933782e-05 0.0000000000e+00 
          -1.1987812710e-04 -9.3467515362e-06 0.0000000000e+00 
          -1.2421857800e-04 -7.6760208533e-06 0.0000000000e+00 
          -1.2329150139e-04 1.7615759586e-05 0.0000000000e+00 
          -1.2394583305e-04 -1.5617551799e-05 0.0000000000e+00 
          -1.2604288340e-04 6.6146404292e-06 0.0000000000e+00 
          3.5081903914e-05 -3.6266948389e-06 0.0000000000e+00 
          2.9496900120e-05 5.7003490059e-06 0.0000000000e+00 
          2.2074309959e-05 -7.7111702568e-06 0.0000000000e+00 
          1.6332220862e-05 8.8434822740e-06 0.0000000000e+00 
          9.3862429595e-06 -6.9233274638e-06 0.0000000000e+00 
          2.9311628542e-06 6.1012359814e-07 0.0000000000e+00 
          -3.1959154916e-06 9.3945796685e-06 0.0000000000e+00 
          -9.7935717674e-06 -2.1767931108e-05 0.0000000000e+00 
          -1.6706903223e-05 3.5062887207e-05 0.0000000000e+00 
          -2.1147006084e-05 -4.5893737778e-05 0.0000000000e+00 
          -3.0331010629e-05 4.8990233386e-05 0.0000000000e+00 
          -3.2827788426e-05 -4.1486709797e-05 0.0000000000e+00 
          -4.1953457409e-05 2.5766359782e-05 0.0000000000e+00 
          -4.5891968555e-05 -6.8828365557e-06 0.0000000000e+00 
          -5.1609048765e-05 -1.1515112234e-05 0.0000000000e+00 
          -5.8983041728e-05 2.7966143801e-05 0.0000000000e+00 
          -6.1292299668e-05 -4.1020531988e-05 0.0000000000e+00 
          -6.9650078755e-05 4.7289756016e-05 0.0000000000e+00 
          -7.2393340144e-05 -4.2852336512e-05 0.0000000000e+00 
          -7.8152225182e-05 2.7316585213e-05 0.0000000000e+00 
          -8.3119806461e-05 -6.5572463940e-06 0.0000000000e+00 
          -8.6291558631e-05 -9.6801518850e-06 0.0000000000e+00 
          -9.2095998493e-05 1.3997597297e-05 0.0000000000e+00 
          -9.4498711152e-05 -6.1333442673e-06 0.0000000000e+00 
          -9.9644221737e-05 -7.4802411463e-06 0.0000000000e+00 
          -1.0210044703e-04 1.7280098393e-05 0.0000000000e+00 
          -1.0569757311e-04 -1.6066150195e-05 0.0000000000e+00 
          -1.0950792175e-04 3.4322910674e-06 0.0000000000e+00 
          -1.1038694048e-04 1.4314323032e-05 0.0000000000e+00 
          -1.1545407327e-04 -2.9243519501e-05 0.0000000000e+00 
          -1.1544579827e-04 3.6456761831e-05 0.0000000000e+00 
          -1.1832172076e-04 -3.4866901337e-05 0.0000000000e+00 
          -1.2131466049e-04 2.5200933782e-05 0.0000000000e+00 
          -1.1987812710e-04 -9.3467515362e-06 0.0000000000e+00 
          -1.2421857800e-04 -7.6760208533e-06 0.0000000000e+00 
          -1.2329150139e-04 1.7615759586e-05 0.0000000000e+00 
          -1.2394583305e-04 -1.5617551799e-05 0.0000000000e+00 
          -1.2604288340e-04 6.6146404292e-06 0.0000000000e+00 
        </DataArray>
        <DataArray type="Float64" Name="Reaction" NumberOfComponents="3" format="ascii">
          0.0000000000e+00 0.0000000000e+00 0.0000000000e+00 
          0.0000000000e+00 0.0000000000e+00 0.0000000000e+00 
          0.0000000000e+00 0.0000000000e+00 0.0000000000e+00 
          0.0000000000e+00 0.0000000000e+00 0.0000000000e+00 
          0.0000000000e+00 0.0000000000e+00 0.0000000000e+00 
          0.0000000000e+00 0.0000000000e+00 0.0000000000e+00 
          0.0000000000e+00 0.0000000000e+00 0.0000000000e+00 
          0.0000000000e+00 0.0000000000e+00 0.0000000000e+00 
          0.0000000000e+00 0.0000000000e+00 0.0000000000e+00 
          0.0000000000e+00 0.0000000000e+00 0.0000000000e+00 
          0.0000000000e+00 0.0000000000e+00 0.0000000000e+00 
          0.0000000000e+00 0.0000000000e+00 0.0000000000e+00 
          0.0000000000e+00 0.0000000000e+00 0.0000000000e+00 
          0.0000000000e+00 0.0000000000e+00 0.0000000000e+00 
          0.0000000000e+00 0.0000000000e+00 0.0000000000e+00 
          0.0000000000e+00 0.0000000000e+00 0.0000000000e+00 
          0.0000000000e+00 0.0000000000e+00 0.0000000000e+00 
          0.0000000000e+00 0.0000000000e+00 0.0000000000e+00 
          0.0000000000e+00 0.0000000000e+00 0.0000000000e+00 
          0.0000000000e+00 0.0000000000e+00 0.0000000000e+00 
          0.0000000000e+00 0.0000000000e+00 0.0000000000e+00 
          0.0000000000e+00 0.0000000000e+00 0.0000000000e+00 
          0.0000000000e+00 0.0000000000e+00 0.0000000000e+00 
          0.0000000000e+00 0.0000000000e+00 0.0000000000e+00 
          0.0000000000e+00 0.0000000000e+00 0.0000000000e+00 
          0.0000000000e+00 0.0000000000e+00 0.0000000000e+00 
          0.0000000000e+00 0.0000000000e+00 0.0000000000e+00 
          0.0000000000e+00 0.0000000000e+00 0.0000000000e+00 
          0.0000000000e+00 0.0000000000e+00 0.0000000000e+00 
          0.0000000000e+00 0.0000000000e+00 0.0000000000e+00 
          0.0000000000e+00 0.0000000000e+00 0.0000000000e+00 
          0.0000000000e+00 0.0000000000e+00 0.0000000000e+00 
          0.0000000000e+00 0.0000000000e+00 0.0000000000e+00 
          0.0000000000e+00 0.0000000000e+00 0.0000000000e+00 
          0.0000000000e+00 0.0000000000e+00 0.0000000000e+00 
          0.0000000000e+00 0.0000000000e+00 0.0000000000e+00 
          0.0000000000e+00 0.0000000000e+00 0.0000000000e+00 
          0.0000000000e+00 0.0000000000e+00 0.0000000000e+00 
          0.0000000000e+00 0.0000000000e+00 0.0000000000e+00 
          0.0000000000e+00 0.0000000000e+00 0.0000000000e+00 
          0.0000000000e+00 0.0000000000e+00 0.0000000000e+00 
          0.0000000000e+00 0.0000000000e+00 0.0000000000e+00 
          0.0000000000e+00 0.0000000000e+00 0.0000000000e+00 
          0.0000000000e+00 0.0000000000e+00 0.0000000000e+00 
          0.0000000000e+00 0.0000000000e+00 0.0000000000e+00 
          0.0000000000e+00 0.0000000000e+00 0.0000000000e+00 
          0.0000000000e+00 0.0000000000e+00 0.0000000000e+00 
          0.0000000000e+00 0.0000000000e+00 0.0000000000e+00 
          0.0000000000e+00 0.0000000000e+00 0.0000000000e+00 
          0.0000000000e+00 0.0000000000e+00 0.0000000000e+00 
          0.0000000000e+00 0.0000000000e+00 0.0000000000e+00 
          0.0000000000e+00 0.0000000000e+00 0.0000000000e+00 
          0.0000000000e+00 0.0000000000e+00 0.0000000000e+00 
          0.0000000000e+00 0.0000000000e+00 0.0000000000e+00 
          0.0000000000e+00 0.0000000000e+00 0.0000000000e+00 
          0.0000000000e+00 0.0000000000e+00 0.0000000000e+00 
          0.0000000000e+00 0.0000000000e+00 0.0000000000e+00 
          0.0000000000e+00 0.0000000000e+00 0.0000000000e+00 
          0.0000000000e+00 0.0000000000e+00 0.0000000000e+00 
          0.0000000000e+00 0.0000000000e+00 0.0000000000e+00 
          0.0000000000e+00 0.0000000000e+00 0.0000000000e+00 
          0.0000000000e+00 0.0000000000e+00 0.0000000000e+00 
          0.0000000000e+00 0.0000000000e+00 0.0000000000e+00 
          0.0000000000e+00 0.0000000000e+00 0.0000000000e+00 
          0.0000000000e+00 0.0000000000e+00 0.0000000000e+00 
          0.0000000000e+00 0.0000000000e+00 0.0000000000e+00 
          0.0000000000e+00 0.0000000000e+00 0.0000000000e+00 
          0.0000000000e+00 0.0000000000e+00 0.0000000000e+00 
          0.0000000000e+00 0.0000000000e+00 0.0000000000e+00 
          0.0000000000e+00 0.0000000000e+00 0.0000000000e+00 
          0.0000000000e+00 0.0000000000e+00 0.0000000000e+00 
          0.0000000000e+00 0.0000000000e+00 0.0000000000e+00 
          0.0000000000e+00 0.0000000000e+00 0.0000000000e+00 
          0.0000000000e+00 0.0000000000e+00 0.0000000000e+00 
          0.0000000000e+00 0.0000000000e+00 0.0000000000e+00 
          0.0000000000e+00 0.0000000000e+00 0.0000000000e+00 
          0.0000000000e+00 0.0000000000e+00 0.0000000000e+00 
          0.0000000000e+00 0.0000000000e+00 0.0000000000e+00 
          0.0000000000e+00 0.0000000000e+00 0.0000000000e+00 
          0.0000000000e+00 0.0000000000e+00 0.0000000000e+00 
          0.0000000000e+00 0.0000000000e+00 0.0000000000e+00 
          0.0000000000e+00 0.0000000000e+00 0.0000000000e+00 
        </DataArray>
      </PointData>
      <CellData>
        <DataArray type="Int64" Name="ElementTag" format="ascii">
          0
        </DataArray>
      </CellData>
    </Piece>
  </UnstructuredGrid>
</VTKFile>
