<?xml version="1.0"?>
<VTKFile type="UnstructuredGrid" version="1.0" byte_order="LittleEndian" compressor="vtkZLibDataCompressor">
  <UnstructuredGrid>
    <Piece NumberOfPoints="82" NumberOfCells="1">
      <Points>
        <DataArray type="Float64" Name="Points" NumberOfComponents="3" format="ascii">
          0.0000000000e+00 0.0000000000e+00 0.0000000000e+00 
          2.5000000000e-01 0.0000000000e+00 0.0000000000e+00 
          2.5000000000e-01 3.0000000000e+01 0.0000000000e+00 
          0.0000000000e+00 3.0000000000e+01 0.0000000000e+00 
          0.0000000000e+00 -5.0000000000e+00 0.0000000000e+00 
          2.5000000000e-01 -5.0000000000e+00 0.0000000000e+00 
          2.5000000000e-01 7.6923100000e-01 0.0000000000e+00 
          2.5000000000e-01 1.5384620000e+00 0.0000000000e+00 
          2.5000000000e-01 2.3076920000e+00 0.0000000000e+00 
          2.5000000000e-01 3.0769230000e+00 0.0000000000e+00 
          2.5000000000e-01 3.8461540000e+00 0.0000000000e+00 
          2.5000000000e-01 4.6153850000e+00 0.0000000000e+00 
          2.5000000000e-01 5.3846150000e+00 0.0000000000e+00 
          2.5000000000e-01 6.1538460000e+00 0.0000000000e+00 
          2.5000000000e-01 6.9230770000e+00 0.0000000000e+00 
          2.5000000000e-01 7.6923080000e+00 0.0000000000e+00 
          2.5000000000e-01 8.4615380000e+00 0.0000000000e+00 
          2.5000000000e-01 9.2307690000e+00 0.0000000000e+00 
          2.5000000000e-01 1.0000000000e+01 0.0000000000e+00 
          2.5000000000e-01 1.0769231000e+01 0.0000000000e+00 
          2.5000000000e-01 1.1538462000e+01 0.0000000000e+00 
          2.5000000000e-01 1.2307692000e+01 0.0000000000e+00 
          2.5000000000e-01 1.3076923000e+01 0.0000000000e+00 
          2.5000000000e-01 1.3846154000e+01 0.0000000000e+00 
          2.5000000000e-01 1.4615385000e+01 0.0000000000e+00 
          2.5000000000e-01 1.5384615000e+01 0.0000000000e+00 
          2.5000000000e-01 1.6153846000e+01 0.0000000000e+00 
          2.5000000000e-01 1.6923077000e+01 0.0000000000e+00 
          2.5000000000e-01 1.7692308000e+01 0.0000000000e+00 
          2.5000000000e-01 1.8461538000e+01 0.0000000000e+00 
          2.5000000000e-01 1.9230769000e+01 0.0000000000e+00 
          2.5000000000e-01 2.0000000000e+01 0.0000000000e+00 
          2.5000000000e-01 2.0769231000e+01 0.0000000000e+00 
          2.5000000000e-01 2.1538462000e+01 0.0000000000e+00 
          2.5000000000e-01 2.2307692000e+01 0.0000000000e+00 
          2.5000000000e-01 2.3076923000e+01 0.0000000000e+00 
          2.5000000000e-01 2.3846154000e+01 0.0000000000e+00 
          2.5000000000e-01 2.4615385000e+01 0.0000000000e+00 
          2.5000000000e-01 2.5384615000e+01 0.0000000000e+00 
          2.5000000000e-01 2.6153846000e+01 0.0000000000e+00 
          2.5000000000e-01 2.6923077000e+01 0.0000000000e+00 
          2.5000000000e-01 2.7692308000e+01 0.0000000000e+00 
          2.5000000000e-01 2.8461538000e+01 0.0000000000e+00 
          2.5000000000e-01 2.9230769000e+01 0.0000000000e+00 
          0.0000000000e+00 7.6923100000e-01 0.0000000000e+00 
          0.0000000000e+00 1.5384620000e+00 0.0000000000e+00 
          0.0000000000e+00 2.3076920000e+00 0.0000000000e+00 
          0.0000000000e+00 3.0769230000e+00 0.0000000000e+00 
          0.0000000000e+00 3.8461540000e+00 0.0000000000e+00 
          0.0000000000e+00 4.6153850000e+00 0.0000000000e+00 
          0.0000000000e+00 5.3846150000e+00 0.0000000000e+00 
          0.0000000000e+00 6.1538460000e+00 0.0000000000e+00 
          0.0000000000e+00 6.9230770000e+00 0.0000000000e+00 
          0.0000000000e+00 7.6923080000e+00 0.0000000000e+00 
          0.0000000000e+00 8.4615380000e+00 0.0000000000e+00 
          0.0000000000e+00 9.2307690000e+00 0.0000000000e+00 
          0.0000000000e+00 1.0000000000e+01 0.0000000000e+00 
          0.0000000000e+00 1.0769231000e+01 0.0000000000e+00 
          0.0000000000e+00 1.1538462000e+01 0.0000000000e+00 
          0.0000000000e+00 1.2307692000e+01 0.0000000000e+00 
          0.0000000000e+00 1.3076923000e+01 0.0000000000e+00 
          0.0000000000e+00 1.3846154000e+01 0.0000000000e+00 
          0.0000000000e+00 1.4615385000e+01 0.0000000000e+00 
          0.0000000000e+00 1.5384615000e+01 0.0000000000e+00 
          0.0000000000e+00 1.6153846000e+01 0.0000000000e+00 
          0.0000000000e+00 1.6923077000e+01 0.0000000000e+00 
          0.0000000000e+00 1.7692308000e+01 0.0000000000e+00 
          0.0000000000e+00 1.8461538000e+01 0.0000000000e+00 
          0.0000000000e+00 1.9230769000e+01 0.0000000000e+00 
          0.0000000000e+00 2.0000000000e+01 0.0000000000e+00 
          0.0000000000e+00 2.0769231000e+01 0.0000000000e+00 
          0.0000000000e+00 2.1538462000e+01 0.0000000000e+00 
          0.0000000000e+00 2.2307692000e+01 0.0000000000e+00 
          0.0000000000e+00 2.3076923000e+01 0.0000000000e+00 
          0.0000000000e+00 2.3846154000e+01 0.0000000000e+00 
          0.0000000000e+00 2.4615385000e+01 0.0000000000e+00 
          0.0000000000e+00 2.5384615000e+01 0.0000000000e+00 
          0.0000000000e+00 2.6153846000e+01 0.0000000000e+00 
          0.0000000000e+00 2.6923077000e+01 0.0000000000e+00 
          0.0000000000e+00 2.7692308000e+01 0.0000000000e+00 
          0.0000000000e+00 2.8461538000e+01 0.0000000000e+00 
          0.0000000000e+00 2.9230769000e+01 0.0000000000e+00 
        </DataArray>
      </Points>
      <Cells>
        <DataArray type="Int64" Name="connectivity" format="ascii">
          0
          1
          2
          3
          4
          5
          6
          7
          8
          9
          10
          11
          12
          13
          14
          15
          16
          17
          18
          19
          20
          21
          22
          23
          24
          25
          26
          27
          28
          29
          30
          31
          32
          33
          34
          35
          36
          37
          38
          39
          40
          41
          42
          43
          44
          45
          46
          47
          48
          49
          50
          51
          52
          53
          54
          55
          56
          57
          58
          59
          60
          61
          62
          63
          64
          65
          66
          67
          68
          69
          70
          71
          72
          73
          74
          75
          76
          77
          78
          79
          80
          81
        </DataArray>
        <DataArray type="Int64" Name="offsets" format="ascii">
          82
        </DataArray>
        <DataArray type="Int64" Name="types" format="ascii">
          2
        </DataArray>
      </Cells>
      <PointData>
        <DataArray type="Int64" Name="NodeTag" format="ascii">
          1
          2
          3
          4
          5
          6
          7
          8
          9
          10
          11
          12
          13
          14
          15
          16
          17
          18
          19
          20
          21
          22
          23
          24
          25
          26
          27
          28
          29
          30
          31
          32
          33
          34
          35
          36
          37
          38
          39
          40
          41
          42
          43
          44
          45
          46
          47
          48
          49
          50
          51
          52
          53
          54
          55
          56
          57
          58
          59
          60
          61
          62
          63
          64
          65
          66
          67
          68
          69
          70
          71
          72
          73
          74
          75
          76
          77
          78
          79
          80
          81
          82
        </DataArray>
        <DataArray type="Float64" Name="Velocity" NumberOfComponents="3" format="ascii">
          -6.8196903921e-06 -7.7847383309e-05 0.0000000000e+00 
          -6.8196903921e-06 -7.7847383309e-05 0.0000000000e+00 
          1.0465921367e-04 -7.7826613853e-05 0.0000000000e+00 
          1.0465921367e-04 -7.7826613853e-05 0.0000000000e+00 
          0.0000000000e+00 0.0000000000e+00 0.0000000000e+00 
          0.0000000000e+00 0.0000000000e+00 0.0000000000e+00 
          -2.3341735173e-06 -7.7840708915e-05 0.0000000000e+00 
          2.1470765745e-06 -7.7849598027e-05 0.0000000000e+00 
          6.6143223533e-06 -7.7836797287e-05 0.0000000000e+00 
          1.1061749507e-05 -7.7848127838e-05 0.0000000000e+00 
          1.5484523700e-05 -7.7853328586e-05 0.0000000000e+00 
          1.9863938506e-05 -7.7818833901e-05 0.0000000000e+00 
          2.4211502055e-05 -7.7877224943e-05 0.0000000000e+00 
          2.8500637889e-05 -7.7813698028e-05 0.0000000000e+00 
          3.2734656206e-05 -7.7868735097e-05 0.0000000000e+00 
          3.6911046828e-05 -7.7823721140e-05 0.0000000000e+00 
          4.1003199568e-05 -7.7855624857e-05 0.0000000000e+00 
          4.5032601895e-05 -7.7851200289e-05 0.0000000000e+00 
          4.8965640734e-05 -7.7811489879e-05 0.0000000000e+00 
          5.2812793338e-05 -7.7894322233e-05 0.0000000000e+00 
          5.6564342094e-05 -7.7796307835e-05 0.0000000000e+00 
          6.0206677526e-05 -7.7866735468e-05 0.0000000000e+00 
          6.3745789244e-05 -7.7853478873e-05 0.0000000000e+00 
          6.7164045375e-05 -7.7815188813e-05 0.0000000000e+00 
          7.0467306800e-05 -7.7870598990e-05 0.0000000000e+00 
          7.3638190849e-05 -7.7830443997e-05 0.0000000000e+00 
          7.6683402227e-05 -7.7847601373e-05 0.0000000000e+00 
          7.9590021402e-05 -7.7843055880e-05 0.0000000000e+00 
          8.2353029317e-05 -7.7843637125e-05 0.0000000000e+00 
          8.4979181079e-05 -7.7850426224e-05 0.0000000000e+00 
          8.7446011464e-05 -7.7827048171e-05 0.0000000000e+00 
          8.9765480399e-05 -7.7867566022e-05 0.0000000000e+00 
          9.1929474073e-05 -7.7825082152e-05 0.0000000000e+00 
          9.3925455193e-05 -7.7844500072e-05 0.0000000000e+00 
          9.5769479818e-05 -7.7873206572e-05 0.0000000000e+00 
          9.7434927631e-05 -7.7787599182e-05 0.0000000000e+00 
          9.8940146003e-05 -7.7906598021e-05 0.0000000000e+00 
          1.0027306676e-04 -7.7801021897e-05 0.0000000000e+00 
          1.0142589067e-04 -7.7853180903e-05 0.0000000000e+00 
          1.0241496129e-04 -7.7867566975e-05 0.0000000000e+00 
          1.0321552375e-04 -7.7797968029e-05 0.0000000000e+00 
          1.0384715166e-04 -7.7897093259e-05 0.0000000000e+00 
          1.0429692552e-04 -7.7800855337e-05 0.0000000000e+00 
          1.0456295355e-04 -7.7870017739e-05 0.0000000000e+00 
          -2.3341735173e-06 -7.7840708915e-05 0.0000000000e+00 
          2.1470765745e-06 -7.7849598027e-05 0.0000000000e+00 
          6.6143223533e-06 -7.7836797287e-05 0.0000000000e+00 
          1.1061749507e-05 -7.7848127838e-05 0.0000000000e+00 
          1.5484523700e-05 -7.7853328586e-05 0.0000000000e+00 
          1.9863938506e-05 -7.7818833901e-05 0.0000000000e+00 
          2.4211502055e-05 -7.7877224943e-05 0.0000000000e+00 
          2.8500637889e-05 -7.7813698028e-05 0.0000000000e+00 
          3.2734656206e-05 -7.7868735097e-05 0.0000000000e+00 
          3.6911046828e-05 -7.7823721140e-05 0.0000000000e+00 
          4.1003199568e-05 -7.7855624857e-05 0.0000000000e+00 
          4.5032601895e-05 -7.7851200289e-05 0.0000000000e+00 
          4.8965640734e-05 -7.7811489879e-05 0.0000000000e+00 
          5.2812793338e-05 -7.7894322233e-05 0.0000000000e+00 
          5.6564342094e-05 -7.7796307835e-05 0.0000000000e+00 
          6.0206677526e-05 -7.7866735468e-05 0.0000000000e+00 
          6.3745789244e-05 -7.7853478873e-05 0.0000000000e+00 
          6.7164045375e-05 -7.7815188813e-05 0.0000000000e+00 
          7.0467306800e-05 -7.7870598990e-05 0.0000000000e+00 
          7.3638190849e-05 -7.7830443997e-05 0.0000000000e+00 
          7.6683402227e-05 -7.7847601373e-05 0.0000000000e+00 
          7.9590021402e-05 -7.7843055880e-05 0.0000000000e+00 
          8.2353029317e-05 -7.7843637125e-05 0.0000000000e+00 
          8.4979181079e-05 -7.7850426224e-05 0.0000000000e+00 
          8.7446011464e-05 -7.7827048171e-05 0.0000000000e+00 
          8.9765480399e-05 -7.7867566022e-05 0.0000000000e+00 
          9.1929474073e-05 -7.7825082152e-05 0.0000000000e+00 
          9.3925455193e-05 -7.7844500072e-05 0.0000000000e+00 
          9.5769479818e-05 -7.7873206572e-05 0.0000000000e+00 
          9.7434927631e-05 -7.7787599182e-05 0.0000000000e+00 
          9.8940146003e-05 -7.7906598021e-05 0.0000000000e+00 
          1.0027306676e-04 -7.7801021897e-05 0.0000000000e+00 
          1.0142589067e-04 -7.7853180903e-05 0.0000000000e+00 
          1.0241496129e-04 -7.7867566975e-05 0.0000000000e+00 
          1.0321552375e-04 -7.7797968029e-05 0.0000000000e+00 
          1.0384715166e-04 -7.7897093259e-05 0.0000000000e+00 
          1.0429692552e-04 -7.7800855337e-05 0.0000000000e+00 
          1.0456295355e-04 -7.7870017739e-05 0.0000000000e+00 
        </DataArray>
        <DataArray type="Float64" Name="Displacement" NumberOfComponents="3" format="ascii">
          -1.6725087904e-06 -5.9835679993e-04 0.0000000000e+00 
          -1.6725087904e-06 -5.9835679993e-04 0.0000000000e+00 
          -3.7898129572e-06 -6.2193707304e-04 0.0000000000e+00 
          -3.7898129572e-06 -6.2193707304e-04 0.0000000000e+00 
          0.0000000000e+00 0.0000000000e+00 0.0000000000e+00 
          0.0000000000e+00 0.0000000000e+00 0.0000000000e+00 
          -1.7842626441e-06 -5.9955058861e-04 0.0000000000e+00 
          -1.8929996378e-06 -6.0071320333e-04 0.0000000000e+00 
          -1.9986447847e-06 -6.0184506933e-04 0.0000000000e+00 
          -2.1012147537e-06 -6.0294568122e-04 0.0000000000e+00 
          -2.2006597442e-06 -6.0401546287e-04 0.0000000000e+00 
          -2.2969636203e-06 -6.0505413725e-04 0.0000000000e+00 
          -2.3901332520e-06 -6.0606187125e-04 0.0000000000e+00 
          -2.4801308792e-06 -6.0703851436e-04 0.0000000000e+00 
          -2.5669715740e-06 -6.0798428906e-04 0.0000000000e+00 
          -2.6506537955e-06 -6.0889888396e-04 0.0000000000e+00 
          -2.7311667122e-06 -6.0978260659e-04 0.0000000000e+00 
          -2.8085353985e-06 -6.1063530601e-04 0.0000000000e+00 
          -2.8827606088e-06 -6.1145689100e-04 0.0000000000e+00 
          -2.9538540139e-06 -6.1224763527e-04 0.0000000000e+00 
          -3.0218416468e-06 -6.1300722669e-04 0.0000000000e+00 
          -3.0867387659e-06 -6.1373590742e-04 0.0000000000e+00 
          -3.1485614024e-06 -6.1443354462e-04 0.0000000000e+00 
          -3.2073487188e-06 -6.1510013551e-04 0.0000000000e+00 
          -3.2631138691e-06 -6.1573585361e-04 0.0000000000e+00 
          -3.3158888833e-06 -6.1634036080e-04 0.0000000000e+00 
          -3.3657126961e-06 -6.1691407366e-04 0.0000000000e+00 
          -3.4125967943e-06 -6.1745663586e-04 0.0000000000e+00 
          -3.4565922544e-06 -6.1796822029e-04 0.0000000000e+00 
          -3.4977197291e-06 -6.1844889177e-04 0.0000000000e+00 
          -3.5360065136e-06 -6.1889837678e-04 0.0000000000e+00 
          -3.5715062769e-06 -6.1931706230e-04 0.0000000000e+00 
          -3.6042126239e-06 -6.1970456951e-04 0.0000000000e+00 
          -3.6341973924e-06 -6.2006117574e-04 0.0000000000e+00 
          -3.6614562774e-06 -6.2038672594e-04 0.0000000000e+00 
          -3.6860308810e-06 -6.2068130761e-04 0.0000000000e+00 
          -3.7079523018e-06 -6.2094482384e-04 0.0000000000e+00 
          -3.7272257976e-06 -6.2117740025e-04 0.0000000000e+00 
          -3.7438923581e-06 -6.2137893909e-04 0.0000000000e+00 
          -3.7579577502e-06 -6.2154945558e-04 0.0000000000e+00 
          -3.7694449808e-06 -6.2168899711e-04 0.0000000000e+00 
          -3.7783620618e-06 -6.2179752346e-04 0.0000000000e+00 
          -3.7847286549e-06 -6.2187503166e-04 0.0000000000e+00 
          -3.7885409120e-06 -6.2192152432e-04 0.0000000000e+00 
          -1.7842626441e-06 -5.9955058861e-04 0.0000000000e+00 
          -1.8929996378e-06 -6.0071320333e-04 0.0000000000e+00 
          -1.9986447847e-06 -6.0184506933e-04 0.0000000000e+00 
          -2.1012147537e-06 -6.0294568122e-04 0.0000000000e+00 
          -2.2006597442e-06 -6.0401546287e-04 0.0000000000e+00 
          -2.2969636203e-06 -6.0505413725e-04 0.0000000000e+00 
          -2.3901332520e-06 -6.0606187125e-04 0.0000000000e+00 
          -2.4801308792e-06 -6.0703851436e-04 0.0000000000e+00 
          -2.5669715740e-06 -6.0798428906e-04 0.0000000000e+00 
          -2.6506537955e-06 -6.0889888396e-04 0.0000000000e+00 
          -2.7311667122e-06 -6.0978260659e-04 0.0000000000e+00 
          -2.8085353985e-06 -6.1063530601e-04 0.0000000000e+00 
          -2.8827606088e-06 -6.1145689100e-04 0.0000000000e+00 
          -2.9538540139e-06 -6.1224763527e-04 0.0000000000e+00 
          -3.0218416468e-06 -6.1300722669e-04 0.0000000000e+00 
          -3.0867387659e-06 -6.1373590742e-04 0.0000000000e+00 
          -3.1485614024e-06 -6.1443354462e-04 0.0000000000e+00 
          -3.2073487188e-06 -6.1510013551e-04 0.0000000000e+00 
          -3.2631138691e-06 -6.1573585361e-04 0.0000000000e+00 
          -3.3158888833e-06 -6.1634036080e-04 0.0000000000e+00 
          -3.3657126961e-06 -6.1691407366e-04 0.0000000000e+00 
          -3.4125967943e-06 -6.1745663586e-04 0.0000000000e+00 
          -3.4565922544e-06 -6.1796822029e-04 0.0000000000e+00 
          -3.4977197291e-06 -6.1844889177e-04 0.0000000000e+00 
          -3.5360065136e-06 -6.1889837678e-04 0.0000000000e+00 
          -3.5715062769e-06 -6.1931706230e-04 0.0000000000e+00 
          -3.6042126239e-06 -6.1970456951e-04 0.0000000000e+00 
          -3.6341973924e-06 -6.2006117574e-04 0.0000000000e+00 
          -3.6614562774e-06 -6.2038672594e-04 0.0000000000e+00 
          -3.6860308810e-06 -6.2068130761e-04 0.0000000000e+00 
          -3.7079523018e-06 -6.2094482384e-04 0.0000000000e+00 
          -3.7272257976e-06 -6.2117740025e-04 0.0000000000e+00 
          -3.7438923581e-06 -6.2137893909e-04 0.0000000000e+00 
          -3.7579577502e-06 -6.2154945558e-04 0.0000000000e+00 
          -3.7694449808e-06 -6.2168899711e-04 0.0000000000e+00 
          -3.7783620618e-06 -6.2179752346e-04 0.0000000000e+00 
          -3.7847286549e-06 -6.2187503166e-04 0.0000000000e+00 
          -3.7885409120e-06 -6.2192152432e-04 0.0000000000e+00 
        </DataArray>
        <DataArray type="Float64" Name="Acceleration" NumberOfComponents="3" format="ascii">
          2.7006300099e-04 8.0604426744e-08 0.0000000000e+00 
          2.7006300099e-04 8.0604426744e-08 0.0000000000e+00 
          2.2922757292e-04 1.6418534759e-05 0.0000000000e+00 
          2.2922757292e-04 1.6418534759e-05 0.0000000000e+00 
          0.0000000000e+00 0.0000000000e+00 0.0000000000e+00 
          0.0000000000e+00 0.0000000000e+00 0.0000000000e+00 
          2.7182504651e-04 3.0206670742e-05 0.0000000000e+00 
          2.7856931008e-04 -4.6683988899e-05 0.0000000000e+00 
          2.7709215034e-04 4.4916791441e-05 0.0000000000e+00 
          2.8156673835e-04 -3.1733081801e-05 0.0000000000e+00 
          2.8302060922e-04 1.8189420533e-05 0.0000000000e+00 
          2.8239087520e-04 -1.2118958813e-05 0.0000000000e+00 
          2.8581497516e-04 1.5476904515e-05 0.0000000000e+00 
          2.8444583737e-04 -2.4855053772e-05 0.0000000000e+00 
          2.8458468888e-04 3.1258853653e-05 0.0000000000e+00 
          2.8555136950e-04 -2.4364311787e-05 0.0000000000e+00 
          2.8331098987e-04 3.2537546650e-06 0.0000000000e+00 
          2.8323338954e-04 1.9477321837e-05 0.0000000000e+00 
          2.8218184304e-04 -2.9844488983e-05 0.0000000000e+00 
          2.7983620363e-04 2.6402134372e-05 0.0000000000e+00 
          2.7845397389e-04 -1.7403290007e-05 0.0000000000e+00 
          2.7702473264e-04 6.8772614222e-06 0.0000000000e+00 
          2.7348833753e-04 7.2027272169e-06 0.0000000000e+00 
          2.7230313432e-04 -2.4066834170e-05 0.0000000000e+00 
          2.6941116345e-04 3.6729021480e-05 0.0000000000e+00 
          2.6591542872e-04 -3.8060532461e-05 0.0000000000e+00 
          2.6487408841e-04 2.6008026311e-05 0.0000000000e+00 
          2.6027200229e-04 -5.1468412058e-06 0.0000000000e+00 
          2.5840649537e-04 -1.6939600518e-05 0.0000000000e+00 
          2.5595677638e-04 3.2577660066e-05 0.0000000000e+00 
          2.5111611927e-04 -3.7274938191e-05 0.0000000000e+00 
          2.5169232629e-04 3.0991161805e-05 0.0000000000e+00 
          2.4521959464e-04 -1.8985243908e-05 0.0000000000e+00 
          2.4560445139e-04 8.8804556970e-06 0.0000000000e+00 
          2.4186241022e-04 -6.7311530523e-06 0.0000000000e+00 
          2.3905700743e-04 1.0649342378e-05 0.0000000000e+00 
          2.3858327225e-04 -1.1986545341e-05 0.0000000000e+00 
          2.3488821299e-04 5.5844562564e-06 0.0000000000e+00 
          2.3437252347e-04 2.9358849062e-06 0.0000000000e+00 
          2.3229744410e-04 -5.6527781829e-06 0.0000000000e+00 
          2.3157554423e-04 1.5924950246e-06 0.0000000000e+00 
          2.2980340510e-04 2.1155429597e-06 0.0000000000e+00 
          2.3015161746e-04 1.6796667081e-06 0.0000000000e+00 
          2.2887810331e-04 -1.1245139282e-05 0.0000000000e+00 
          2.7182504651e-04 3.0206670742e-05 0.0000000000e+00 
          2.7856931008e-04 -4.6683988899e-05 0.0000000000e+00 
          2.7709215034e-04 4.4916791441e-05 0.0000000000e+00 
          2.8156673835e-04 -3.1733081801e-05 0.0000000000e+00 
          2.8302060922e-04 1.8189420533e-05 0.0000000000e+00 
          2.8239087520e-04 -1.2118958813e-05 0.0000000000e+00 
          2.8581497516e-04 1.5476904515e-05 0.0000000000e+00 
          2.8444583737e-04 -2.4855053772e-05 0.0000000000e+00 
          2.8458468888e-04 3.1258853653e-05 0.0000000000e+00 
          2.8555136950e-04 -2.4364311787e-05 0.0000000000e+00 
          2.8331098987e-04 3.2537546650e-06 0.0000000000e+00 
          2.8323338954e-04 1.9477321837e-05 0.0000000000e+00 
          2.8218184304e-04 -2.9844488983e-05 0.0000000000e+00 
          2.7983620363e-04 2.6402134372e-05 0.0000000000e+00 
          2.7845397389e-04 -1.7403290007e-05 0.0000000000e+00 
          2.7702473264e-04 6.8772614222e-06 0.0000000000e+00 
          2.7348833753e-04 7.2027272169e-06 0.0000000000e+00 
          2.7230313432e-04 -2.4066834170e-05 0.0000000000e+00 
          2.6941116345e-04 3.6729021480e-05 0.0000000000e+00 
          2.6591542872e-04 -3.8060532461e-05 0.0000000000e+00 
          2.6487408841e-04 2.6008026311e-05 0.0000000000e+00 
          2.6027200229e-04 -5.1468412058e-06 0.0000000000e+00 
          2.5840649537e-04 -1.6939600518e-05 0.0000000000e+00 
          2.5595677638e-04 3.2577660066e-05 0.0000000000e+00 
          2.5111611927e-04 -3.7274938191e-05 0.0000000000e+00 
          2.5169232629e-04 3.0991161805e-05 0.0000000000e+00 
          2.4521959464e-04 -1.8985243908e-05 0.0000000000e+00 
          2.4560445139e-04 8.8804556970e-06 0.0000000000e+00 
          2.4186241022e-04 -6.7311530523e-06 0.0000000000e+00 
          2.3905700743e-04 1.0649342378e-05 0.0000000000e+00 
          2.3858327225e-04 -1.1986545341e-05 0.0000000000e+00 
          2.3488821299e-04 5.5844562564e-06 0.0000000000e+00 
          2.3437252347e-04 2.9358849062e-06 0.0000000000e+00 
          2.3229744410e-04 -5.6527781829e-06 0.0000000000e+00 
          2.3157554423e-04 1.5924950246e-06 0.0000000000e+00 
          2.2980340510e-04 2.1155429597e-06 0.0000000000e+00 
          2.3015161746e-04 1.6796667081e-06 0.0000000000e+00 
          2.2887810331e-04 -1.1245139282e-05 0.0000000000e+00 
        </DataArray>
        <DataArray type="Float64" Name="Reaction" NumberOfComponents="3" format="ascii">
          0.0000000000e+00 0.0000000000e+00 0.0000000000e+00 
          0.0000000000e+00 0.0000000000e+00 0.0000000000e+00 
          0.0000000000e+00 0.0000000000e+00 0.0000000000e+00 
          0.0000000000e+00 0.0000000000e+00 0.0000000000e+00 
          0.0000000000e+00 0.0000000000e+00 0.0000000000e+00 
          0.0000000000e+00 0.0000000000e+00 0.0000000000e+00 
          0.0000000000e+00 0.0000000000e+00 0.0000000000e+00 
          0.0000000000e+00 0.0000000000e+00 0.0000000000e+00 
          0.0000000000e+00 0.0000000000e+00 0.0000000000e+00 
          0.0000000000e+00 0.0000000000e+00 0.0000000000e+00 
          0.0000000000e+00 0.0000000000e+00 0.0000000000e+00 
          0.0000000000e+00 0.0000000000e+00 0.0000000000e+00 
          0.0000000000e+00 0.0000000000e+00 0.0000000000e+00 
          0.0000000000e+00 0.0000000000e+00 0.0000000000e+00 
          0.0000000000e+00 0.0000000000e+00 0.0000000000e+00 
          0.0000000000e+00 0.0000000000e+00 0.0000000000e+00 
          0.0000000000e+00 0.0000000000e+00 0.0000000000e+00 
          0.0000000000e+00 0.0000000000e+00 0.0000000000e+00 
          0.0000000000e+00 0.0000000000e+00 0.0000000000e+00 
          0.0000000000e+00 0.0000000000e+00 0.0000000000e+00 
          0.0000000000e+00 0.0000000000e+00 0.0000000000e+00 
          0.0000000000e+00 0.0000000000e+00 0.0000000000e+00 
          0.0000000000e+00 0.0000000000e+00 0.0000000000e+00 
          0.0000000000e+00 0.0000000000e+00 0.0000000000e+00 
          0.0000000000e+00 0.0000000000e+00 0.0000000000e+00 
          0.0000000000e+00 0.0000000000e+00 0.0000000000e+00 
          0.0000000000e+00 0.0000000000e+00 0.0000000000e+00 
          0.0000000000e+00 0.0000000000e+00 0.0000000000e+00 
          0.0000000000e+00 0.0000000000e+00 0.0000000000e+00 
          0.0000000000e+00 0.0000000000e+00 0.0000000000e+00 
          0.0000000000e+00 0.0000000000e+00 0.0000000000e+00 
          0.0000000000e+00 0.0000000000e+00 0.0000000000e+00 
          0.0000000000e+00 0.0000000000e+00 0.0000000000e+00 
          0.0000000000e+00 0.0000000000e+00 0.0000000000e+00 
          0.0000000000e+00 0.0000000000e+00 0.0000000000e+00 
          0.0000000000e+00 0.0000000000e+00 0.0000000000e+00 
          0.0000000000e+00 0.0000000000e+00 0.0000000000e+00 
          0.0000000000e+00 0.0000000000e+00 0.0000000000e+00 
          0.0000000000e+00 0.0000000000e+00 0.0000000000e+00 
          0.0000000000e+00 0.0000000000e+00 0.0000000000e+00 
          0.0000000000e+00 0.0000000000e+00 0.0000000000e+00 
          0.0000000000e+00 0.0000000000e+00 0.0000000000e+00 
          0.0000000000e+00 0.0000000000e+00 0.0000000000e+00 
          0.0000000000e+00 0.0000000000e+00 0.0000000000e+00 
          0.0000000000e+00 0.0000000000e+00 0.0000000000e+00 
          0.0000000000e+00 0.0000000000e+00 0.0000000000e+00 
          0.0000000000e+00 0.0000000000e+00 0.0000000000e+00 
          0.0000000000e+00 0.0000000000e+00 0.0000000000e+00 
          0.0000000000e+00 0.0000000000e+00 0.0000000000e+00 
          0.0000000000e+00 0.0000000000e+00 0.0000000000e+00 
          0.0000000000e+00 0.0000000000e+00 0.0000000000e+00 
          0.0000000000e+00 0.0000000000e+00 0.0000000000e+00 
          0.0000000000e+00 0.0000000000e+00 0.0000000000e+00 
          0.0000000000e+00 0.0000000000e+00 0.0000000000e+00 
          0.0000000000e+00 0.0000000000e+00 0.0000000000e+00 
          0.0000000000e+00 0.0000000000e+00 0.0000000000e+00 
          0.0000000000e+00 0.0000000000e+00 0.0000000000e+00 
          0.0000000000e+00 0.0000000000e+00 0.0000000000e+00 
          0.0000000000e+00 0.0000000000e+00 0.0000000000e+00 
          0.0000000000e+00 0.0000000000e+00 0.0000000000e+00 
          0.0000000000e+00 0.0000000000e+00 0.0000000000e+00 
          0.0000000000e+00 0.0000000000e+00 0.0000000000e+00 
          0.0000000000e+00 0.0000000000e+00 0.0000000000e+00 
          0.0000000000e+00 0.0000000000e+00 0.0000000000e+00 
          0.0000000000e+00 0.0000000000e+00 0.0000000000e+00 
          0.0000000000e+00 0.0000000000e+00 0.0000000000e+00 
          0.0000000000e+00 0.0000000000e+00 0.0000000000e+00 
          0.0000000000e+00 0.0000000000e+00 0.0000000000e+00 
          0.0000000000e+00 0.0000000000e+00 0.0000000000e+00 
          0.0000000000e+00 0.0000000000e+00 0.0000000000e+00 
          0.0000000000e+00 0.0000000000e+00 0.0000000000e+00 
          0.0000000000e+00 0.0000000000e+00 0.0000000000e+00 
          0.0000000000e+00 0.0000000000e+00 0.0000000000e+00 
          0.0000000000e+00 0.0000000000e+00 0.0000000000e+00 
          0.0000000000e+00 0.0000000000e+00 0.0000000000e+00 
          0.0000000000e+00 0.0000000000e+00 0.0000000000e+00 
          0.0000000000e+00 0.0000000000e+00 0.0000000000e+00 
          0.0000000000e+00 0.0000000000e+00 0.0000000000e+00 
          0.0000000000e+00 0.0000000000e+00 0.0000000000e+00 
          0.0000000000e+00 0.0000000000e+00 0.0000000000e+00 
          0.0000000000e+00 0.0000000000e+00 0.0000000000e+00 
          0.0000000000e+00 0.0000000000e+00 0.0000000000e+00 
        </DataArray>
      </PointData>
      <CellData>
        <DataArray type="Int64" Name="ElementTag" format="ascii">
          0
        </DataArray>
      </CellData>
    </Piece>
  </UnstructuredGrid>
</VTKFile>
