<?xml version="1.0"?>
<VTKFile type="UnstructuredGrid" version="1.0" byte_order="LittleEndian" compressor="vtkZLibDataCompressor">
  <UnstructuredGrid>
    <Piece NumberOfPoints="80" NumberOfCells="39">
      <Points>
        <DataArray type="Float64" Name="Points" NumberOfComponents="3" format="ascii">
          0.0000000000e+00 0.0000000000e+00 0.0000000000e+00 
          2.5000000000e-01 0.0000000000e+00 0.0000000000e+00 
          2.5000000000e-01 3.0000000000e+01 0.0000000000e+00 
          0.0000000000e+00 3.0000000000e+01 0.0000000000e+00 
          2.5000000000e-01 7.6923100000e-01 0.0000000000e+00 
          2.5000000000e-01 1.5384620000e+00 0.0000000000e+00 
          2.5000000000e-01 2.3076920000e+00 0.0000000000e+00 
          2.5000000000e-01 3.0769230000e+00 0.0000000000e+00 
          2.5000000000e-01 3.8461540000e+00 0.0000000000e+00 
          2.5000000000e-01 4.6153850000e+00 0.0000000000e+00 
          2.5000000000e-01 5.3846150000e+00 0.0000000000e+00 
          2.5000000000e-01 6.1538460000e+00 0.0000000000e+00 
          2.5000000000e-01 6.9230770000e+00 0.0000000000e+00 
          2.5000000000e-01 7.6923080000e+00 0.0000000000e+00 
          2.5000000000e-01 8.4615380000e+00 0.0000000000e+00 
          2.5000000000e-01 9.2307690000e+00 0.0000000000e+00 
          2.5000000000e-01 1.0000000000e+01 0.0000000000e+00 
          2.5000000000e-01 1.0769231000e+01 0.0000000000e+00 
          2.5000000000e-01 1.1538462000e+01 0.0000000000e+00 
          2.5000000000e-01 1.2307692000e+01 0.0000000000e+00 
          2.5000000000e-01 1.3076923000e+01 0.0000000000e+00 
          2.5000000000e-01 1.3846154000e+01 0.0000000000e+00 
          2.5000000000e-01 1.4615385000e+01 0.0000000000e+00 
          2.5000000000e-01 1.5384615000e+01 0.0000000000e+00 
          2.5000000000e-01 1.6153846000e+01 0.0000000000e+00 
          2.5000000000e-01 1.6923077000e+01 0.0000000000e+00 
          2.5000000000e-01 1.7692308000e+01 0.0000000000e+00 
          2.5000000000e-01 1.8461538000e+01 0.0000000000e+00 
          2.5000000000e-01 1.9230769000e+01 0.0000000000e+00 
          2.5000000000e-01 2.0000000000e+01 0.0000000000e+00 
          2.5000000000e-01 2.0769231000e+01 0.0000000000e+00 
          2.5000000000e-01 2.1538462000e+01 0.0000000000e+00 
          2.5000000000e-01 2.2307692000e+01 0.0000000000e+00 
          2.5000000000e-01 2.3076923000e+01 0.0000000000e+00 
          2.5000000000e-01 2.3846154000e+01 0.0000000000e+00 
          2.5000000000e-01 2.4615385000e+01 0.0000000000e+00 
          2.5000000000e-01 2.5384615000e+01 0.0000000000e+00 
          2.5000000000e-01 2.6153846000e+01 0.0000000000e+00 
          2.5000000000e-01 2.6923077000e+01 0.0000000000e+00 
          2.5000000000e-01 2.7692308000e+01 0.0000000000e+00 
          2.5000000000e-01 2.8461538000e+01 0.0000000000e+00 
          2.5000000000e-01 2.9230769000e+01 0.0000000000e+00 
          0.0000000000e+00 7.6923100000e-01 0.0000000000e+00 
          0.0000000000e+00 1.5384620000e+00 0.0000000000e+00 
          0.0000000000e+00 2.3076920000e+00 0.0000000000e+00 
          0.0000000000e+00 3.0769230000e+00 0.0000000000e+00 
          0.0000000000e+00 3.8461540000e+00 0.0000000000e+00 
          0.0000000000e+00 4.6153850000e+00 0.0000000000e+00 
          0.0000000000e+00 5.3846150000e+00 0.0000000000e+00 
          0.0000000000e+00 6.1538460000e+00 0.0000000000e+00 
          0.0000000000e+00 6.9230770000e+00 0.0000000000e+00 
          0.0000000000e+00 7.6923080000e+00 0.0000000000e+00 
          0.0000000000e+00 8.4615380000e+00 0.0000000000e+00 
          0.0000000000e+00 9.2307690000e+00 0.0000000000e+00 
          0.0000000000e+00 1.0000000000e+01 0.0000000000e+00 
          0.0000000000e+00 1.0769231000e+01 0.0000000000e+00 
          0.0000000000e+00 1.1538462000e+01 0.0000000000e+00 
          0.0000000000e+00 1.2307692000e+01 0.0000000000e+00 
          0.0000000000e+00 1.3076923000e+01 0.0000000000e+00 
          0.0000000000e+00 1.3846154000e+01 0.0000000000e+00 
          0.0000000000e+00 1.4615385000e+01 0.0000000000e+00 
          0.0000000000e+00 1.5384615000e+01 0.0000000000e+00 
          0.0000000000e+00 1.6153846000e+01 0.0000000000e+00 
          0.0000000000e+00 1.6923077000e+01 0.0000000000e+00 
          0.0000000000e+00 1.7692308000e+01 0.0000000000e+00 
          0.0000000000e+00 1.8461538000e+01 0.0000000000e+00 
          0.0000000000e+00 1.9230769000e+01 0.0000000000e+00 
          0.0000000000e+00 2.0000000000e+01 0.0000000000e+00 
          0.0000000000e+00 2.0769231000e+01 0.0000000000e+00 
          0.0000000000e+00 2.1538462000e+01 0.0000000000e+00 
          0.0000000000e+00 2.2307692000e+01 0.0000000000e+00 
          0.0000000000e+00 2.3076923000e+01 0.0000000000e+00 
          0.0000000000e+00 2.3846154000e+01 0.0000000000e+00 
          0.0000000000e+00 2.4615385000e+01 0.0000000000e+00 
          0.0000000000e+00 2.5384615000e+01 0.0000000000e+00 
          0.0000000000e+00 2.6153846000e+01 0.0000000000e+00 
          0.0000000000e+00 2.6923077000e+01 0.0000000000e+00 
          0.0000000000e+00 2.7692308000e+01 0.0000000000e+00 
          0.0000000000e+00 2.8461538000e+01 0.0000000000e+00 
          0.0000000000e+00 2.9230769000e+01 0.0000000000e+00 
        </DataArray>
      </Points>
      <Cells>
        <DataArray type="Int64" Name="connectivity" format="ascii">
          0 1 4 42 
          42 4 5 43 
          43 5 6 44 
          44 6 7 45 
          45 7 8 46 
          46 8 9 47 
          47 9 10 48 
          48 10 11 49 
          49 11 12 50 
          50 12 13 51 
          51 13 14 52 
          52 14 15 53 
          53 15 16 54 
          54 16 17 55 
          55 17 18 56 
          56 18 19 57 
          57 19 20 58 
          58 20 21 59 
          59 21 22 60 
          60 22 23 61 
          61 23 24 62 
          62 24 25 63 
          63 25 26 64 
          64 26 27 65 
          65 27 28 66 
          66 28 29 67 
          67 29 30 68 
          68 30 31 69 
          69 31 32 70 
          70 32 33 71 
          71 33 34 72 
          72 34 35 73 
          73 35 36 74 
          74 36 37 75 
          75 37 38 76 
          76 38 39 77 
          77 39 40 78 
          78 40 41 79 
          79 41 2 3 
        </DataArray>
        <DataArray type="Int64" Name="offsets" format="ascii">
          4
          8
          12
          16
          20
          24
          28
          32
          36
          40
          44
          48
          52
          56
          60
          64
          68
          72
          76
          80
          84
          88
          92
          96
          100
          104
          108
          112
          116
          120
          124
          128
          132
          136
          140
          144
          148
          152
          156
        </DataArray>
        <DataArray type="Int64" Name="types" format="ascii">
          9
          9
          9
          9
          9
          9
          9
          9
          9
          9
          9
          9
          9
          9
          9
          9
          9
          9
          9
          9
          9
          9
          9
          9
          9
          9
          9
          9
          9
          9
          9
          9
          9
          9
          9
          9
          9
          9
          9
        </DataArray>
      </Cells>
      <PointData>
        <DataArray type="Int64" Name="NodeTag" format="ascii">
          1
          2
          3
          4
          7
          8
          9
          10
          11
          12
          13
          14
          15
          16
          17
          18
          19
          20
          21
          22
          23
          24
          25
          26
          27
          28
          29
          30
          31
          32
          33
          34
          35
          36
          37
          38
          39
          40
          41
          42
          43
          44
          45
          46
          47
          48
          49
          50
          51
          52
          53
          54
          55
          56
          57
          58
          59
          60
          61
          62
          63
          64
          65
          66
          67
          68
          69
          70
          71
          72
          73
          74
          75
          76
          77
          78
          79
          80
          81
          82
        </DataArray>
        <DataArray type="Float64" Name="Velocity" NumberOfComponents="3" format="ascii">
          2.5704268714e-07 -7.9743887502e-05 0.0000000000e+00 
          2.5704268714e-07 -7.9743887502e-05 0.0000000000e+00 
          5.0866266669e-10 -3.2886697510e-05 0.0000000000e+00 
          5.0866266669e-10 -3.2886697510e-05 0.0000000000e+00 
          2.1894303371e-07 -7.8379349935e-05 0.0000000000e+00 
          1.8632336427e-07 -7.6668946440e-05 0.0000000000e+00 
          1.5842148482e-07 -7.4951271974e-05 0.0000000000e+00 
          1.3457716288e-07 -7.3697201034e-05 0.0000000000e+00 
          1.1421931870e-07 -7.2796952550e-05 0.0000000000e+00 
          9.6854289728e-08 -7.2253809051e-05 0.0000000000e+00 
          8.2055846187e-08 -7.1060220427e-05 0.0000000000e+00 
          6.9456299454e-08 -6.9376457121e-05 0.0000000000e+00 
          5.8738870267e-08 -6.8243538381e-05 0.0000000000e+00 
          4.9630849166e-08 -6.6269498411e-05 0.0000000000e+00 
          4.1897732860e-08 -6.4155369783e-05 0.0000000000e+00 
          3.5338036790e-08 -6.3205111180e-05 0.0000000000e+00 
          2.9778870515e-08 -6.1856825286e-05 0.0000000000e+00 
          2.5071998499e-08 -6.0208544822e-05 0.0000000000e+00 
          2.1090459979e-08 -5.8980305520e-05 0.0000000000e+00 
          1.7725629097e-08 -5.7998633814e-05 0.0000000000e+00 
          1.4884645192e-08 -5.7330030753e-05 0.0000000000e+00 
          1.2488229431e-08 -5.6355920900e-05 0.0000000000e+00 
          1.0468754148e-08 -5.4827399865e-05 0.0000000000e+00 
          8.7685957456e-09 -5.3173976017e-05 0.0000000000e+00 
          7.3386992038e-09 -5.1769237151e-05 0.0000000000e+00 
          6.1373619294e-09 -5.0557479827e-05 0.0000000000e+00 
          5.1291652799e-09 -4.9241973263e-05 0.0000000000e+00 
          4.2840669643e-09 -4.7500308813e-05 0.0000000000e+00 
          3.5766150661e-09 -4.5785900352e-05 0.0000000000e+00 
          2.9852840955e-09 -4.4438203119e-05 0.0000000000e+00 
          2.4918964341e-09 -4.2259341762e-05 0.0000000000e+00 
          2.0811332467e-09 -4.0433259741e-05 0.0000000000e+00 
          1.7401170843e-09 -3.8928718237e-05 0.0000000000e+00 
          1.4580546835e-09 -3.7820056869e-05 0.0000000000e+00 
          1.2259390042e-09 -3.6958558445e-05 0.0000000000e+00 
          1.0362942159e-09 -3.5982640989e-05 0.0000000000e+00 
          8.8296316972e-10 -3.5366034326e-05 0.0000000000e+00 
          7.6093057018e-10 -3.4066093744e-05 0.0000000000e+00 
          6.6617883584e-10 -3.3244959806e-05 0.0000000000e+00 
          5.9557061555e-10 -3.3122140215e-05 0.0000000000e+00 
          5.4675670557e-10 -3.3080721792e-05 0.0000000000e+00 
          5.1810709464e-10 -3.2963548228e-05 0.0000000000e+00 
          2.1894303371e-07 -7.8379349935e-05 0.0000000000e+00 
          1.8632336427e-07 -7.6668946440e-05 0.0000000000e+00 
          1.5842148482e-07 -7.4951271974e-05 0.0000000000e+00 
          1.3457716288e-07 -7.3697201034e-05 0.0000000000e+00 
          1.1421931870e-07 -7.2796952550e-05 0.0000000000e+00 
          9.6854289728e-08 -7.2253809051e-05 0.0000000000e+00 
          8.2055846187e-08 -7.1060220427e-05 0.0000000000e+00 
          6.9456299454e-08 -6.9376457121e-05 0.0000000000e+00 
          5.8738870267e-08 -6.8243538381e-05 0.0000000000e+00 
          4.9630849166e-08 -6.6269498411e-05 0.0000000000e+00 
          4.1897732860e-08 -6.4155369783e-05 0.0000000000e+00 
          3.5338036790e-08 -6.3205111180e-05 0.0000000000e+00 
          2.9778870515e-08 -6.1856825286e-05 0.0000000000e+00 
          2.5071998499e-08 -6.0208544822e-05 0.0000000000e+00 
          2.1090459979e-08 -5.8980305520e-05 0.0000000000e+00 
          1.7725629097e-08 -5.7998633814e-05 0.0000000000e+00 
          1.4884645192e-08 -5.7330030753e-05 0.0000000000e+00 
          1.2488229431e-08 -5.6355920900e-05 0.0000000000e+00 
          1.0468754148e-08 -5.4827399865e-05 0.0000000000e+00 
          8.7685957456e-09 -5.3173976017e-05 0.0000000000e+00 
          7.3386992038e-09 -5.1769237151e-05 0.0000000000e+00 
          6.1373619294e-09 -5.0557479827e-05 0.0000000000e+00 
          5.1291652799e-09 -4.9241973263e-05 0.0000000000e+00 
          4.2840669643e-09 -4.7500308813e-05 0.0000000000e+00 
          3.5766150661e-09 -4.5785900352e-05 0.0000000000e+00 
          2.9852840955e-09 -4.4438203119e-05 0.0000000000e+00 
          2.4918964341e-09 -4.2259341762e-05 0.0000000000e+00 
          2.0811332467e-09 -4.0433259741e-05 0.0000000000e+00 
          1.7401170843e-09 -3.8928718237e-05 0.0000000000e+00 
          1.4580546835e-09 -3.7820056869e-05 0.0000000000e+00 
          1.2259390042e-09 -3.6958558445e-05 0.0000000000e+00 
          1.0362942159e-09 -3.5982640989e-05 0.0000000000e+00 
          8.8296316972e-10 -3.5366034326e-05 0.0000000000e+00 
          7.6093057018e-10 -3.4066093744e-05 0.0000000000e+00 
          6.6617883584e-10 -3.3244959806e-05 0.0000000000e+00 
          5.9557061555e-10 -3.3122140215e-05 0.0000000000e+00 
          5.4675670557e-10 -3.3080721792e-05 0.0000000000e+00 
          5.1810709464e-10 -3.2963548228e-05 0.0000000000e+00 
        </DataArray>
        <DataArray type="Float64" Name="Displacement" NumberOfComponents="3" format="ascii">
          5.1764901569e-09 -1.0593865111e-04 0.0000000000e+00 
          5.1764901569e-09 -1.0593865111e-04 0.0000000000e+00 
          8.4991513532e-12 -1.3027394934e-04 0.0000000000e+00 
          8.4991513532e-12 -1.3027394934e-04 0.0000000000e+00 
          4.3860854752e-09 -1.0716165692e-04 0.0000000000e+00 
          3.7131392490e-09 -1.0835309587e-04 0.0000000000e+00 
          3.1407109655e-09 -1.0951274138e-04 0.0000000000e+00 
          2.6542215931e-09 -1.1064047674e-04 0.0000000000e+00 
          2.2411401761e-09 -1.1173599442e-04 0.0000000000e+00 
          1.8907041254e-09 -1.1280001040e-04 0.0000000000e+00 
          1.5936796237e-09 -1.1383372710e-04 0.0000000000e+00 
          1.3421507363e-09 -1.1483533622e-04 0.0000000000e+00 
          1.1293398146e-09 -1.1580567941e-04 0.0000000000e+00 
          9.4944815834e-10 -1.1674492861e-04 0.0000000000e+00 
          7.9751987957e-10 -1.1765285724e-04 0.0000000000e+00 
          6.6932278324e-10 -1.1852923303e-04 0.0000000000e+00 
          5.6124717677e-10 -1.1937377808e-04 0.0000000000e+00 
          4.7021663103e-10 -1.2018786682e-04 0.0000000000e+00 
          3.9361188091e-10 -1.2097017528e-04 0.0000000000e+00 
          3.2920512069e-10 -1.2172107267e-04 0.0000000000e+00 
          2.7510304739e-10 -1.2244067412e-04 0.0000000000e+00 
          2.2969863107e-10 -1.2312791927e-04 0.0000000000e+00 
          1.9162890002e-10 -1.2378229509e-04 0.0000000000e+00 
          1.5973913257e-10 -1.2440427620e-04 0.0000000000e+00 
          1.3305189320e-10 -1.2499476624e-04 0.0000000000e+00 
          1.1074089058e-10 -1.2555426108e-04 0.0000000000e+00 
          9.2108235810e-11 -1.2608300801e-04 0.0000000000e+00 
          7.6565223568e-11 -1.2658113740e-04 0.0000000000e+00 
          6.3615802237e-11 -1.2704836796e-04 0.0000000000e+00 
          5.2842674882e-11 -1.2748530613e-04 0.0000000000e+00 
          4.3895290046e-11 -1.2789122301e-04 0.0000000000e+00 
          3.6479736960e-11 -1.2826588582e-04 0.0000000000e+00 
          3.0350171924e-11 -1.2861080105e-04 0.0000000000e+00 
          2.5301537191e-11 -1.2892357138e-04 0.0000000000e+00 
          2.1163499392e-11 -1.2920331773e-04 0.0000000000e+00 
          1.7795293483e-11 -1.2945249811e-04 0.0000000000e+00 
          1.5081462875e-11 -1.2966993803e-04 0.0000000000e+00 
          1.2928312522e-11 -1.2985432990e-04 0.0000000000e+00 
          1.1261040923e-11 -1.3000550178e-04 0.0000000000e+00 
          1.0021402086e-11 -1.3012278949e-04 0.0000000000e+00 
          9.1658917844e-12 -1.3020661692e-04 0.0000000000e+00 
          8.6643763334e-12 -1.3025709246e-04 0.0000000000e+00 
          4.3860854752e-09 -1.0716165692e-04 0.0000000000e+00 
          3.7131392490e-09 -1.0835309587e-04 0.0000000000e+00 
          3.1407109655e-09 -1.0951274138e-04 0.0000000000e+00 
          2.6542215931e-09 -1.1064047674e-04 0.0000000000e+00 
          2.2411401761e-09 -1.1173599442e-04 0.0000000000e+00 
          1.8907041254e-09 -1.1280001040e-04 0.0000000000e+00 
          1.5936796237e-09 -1.1383372710e-04 0.0000000000e+00 
          1.3421507363e-09 -1.1483533622e-04 0.0000000000e+00 
          1.1293398146e-09 -1.1580567941e-04 0.0000000000e+00 
          9.4944815834e-10 -1.1674492861e-04 0.0000000000e+00 
          7.9751987957e-10 -1.1765285724e-04 0.0000000000e+00 
          6.6932278324e-10 -1.1852923303e-04 0.0000000000e+00 
          5.6124717677e-10 -1.1937377808e-04 0.0000000000e+00 
          4.7021663103e-10 -1.2018786682e-04 0.0000000000e+00 
          3.9361188091e-10 -1.2097017528e-04 0.0000000000e+00 
          3.2920512069e-10 -1.2172107267e-04 0.0000000000e+00 
          2.7510304739e-10 -1.2244067412e-04 0.0000000000e+00 
          2.2969863107e-10 -1.2312791927e-04 0.0000000000e+00 
          1.9162890002e-10 -1.2378229509e-04 0.0000000000e+00 
          1.5973913257e-10 -1.2440427620e-04 0.0000000000e+00 
          1.3305189320e-10 -1.2499476624e-04 0.0000000000e+00 
          1.1074089058e-10 -1.2555426108e-04 0.0000000000e+00 
          9.2108235810e-11 -1.2608300801e-04 0.0000000000e+00 
          7.6565223568e-11 -1.2658113740e-04 0.0000000000e+00 
          6.3615802237e-11 -1.2704836796e-04 0.0000000000e+00 
          5.2842674882e-11 -1.2748530613e-04 0.0000000000e+00 
          4.3895290046e-11 -1.2789122301e-04 0.0000000000e+00 
          3.6479736960e-11 -1.2826588582e-04 0.0000000000e+00 
          3.0350171924e-11 -1.2861080105e-04 0.0000000000e+00 
          2.5301537191e-11 -1.2892357138e-04 0.0000000000e+00 
          2.1163499392e-11 -1.2920331773e-04 0.0000000000e+00 
          1.7795293483e-11 -1.2945249811e-04 0.0000000000e+00 
          1.5081462875e-11 -1.2966993803e-04 0.0000000000e+00 
          1.2928312522e-11 -1.2985432990e-04 0.0000000000e+00 
          1.1261040923e-11 -1.3000550178e-04 0.0000000000e+00 
          1.0021402086e-11 -1.3012278949e-04 0.0000000000e+00 
          9.1658917844e-12 -1.3020661692e-04 0.0000000000e+00 
          8.6643763334e-12 -1.3025709246e-04 0.0000000000e+00 
        </DataArray>
        <DataArray type="Float64" Name="Acceleration" NumberOfComponents="3" format="ascii">
          1.2355404335e-05 8.7815397368e-05 0.0000000000e+00 
          1.2355404335e-05 8.7815397368e-05 0.0000000000e+00 
          2.9774196875e-08 4.8789064733e-04 0.0000000000e+00 
          2.9774196875e-08 4.8789064733e-04 0.0000000000e+00 
          1.0583238815e-05 1.0100873790e-04 0.0000000000e+00 
          9.0568039775e-06 1.4156925645e-04 0.0000000000e+00 
          7.7433376858e-06 1.6314823304e-04 0.0000000000e+00 
          6.6142017462e-06 2.1828761668e-04 0.0000000000e+00 
          5.6444712256e-06 8.9267472020e-05 0.0000000000e+00 
          4.8124543817e-06 -1.2765238665e-04 0.0000000000e+00 
          4.0992821404e-06 1.9869238394e-04 0.0000000000e+00 
          3.4885651761e-06 4.6780183665e-05 0.0000000000e+00 
          2.9660908335e-06 1.5796447506e-05 0.0000000000e+00 
          2.5195393698e-06 5.6415299152e-05 0.0000000000e+00 
          2.1382455912e-06 9.8700054368e-05 0.0000000000e+00 
          1.8129859704e-06 1.4855888090e-04 0.0000000000e+00 
          1.5357936367e-06 -9.9115206864e-05 0.0000000000e+00 
          1.2997926745e-06 1.3946580811e-04 0.0000000000e+00 
          1.0990561485e-06 7.2763166527e-05 0.0000000000e+00 
          9.2848078971e-07 5.2368495394e-05 0.0000000000e+00 
          7.8367606754e-07 2.4326709448e-04 0.0000000000e+00 
          6.6086962898e-07 3.3571816723e-04 0.0000000000e+00 
          5.5682355106e-07 2.5004987334e-04 0.0000000000e+00 
          4.6876209660e-07 8.7500006712e-05 0.0000000000e+00 
          3.9430757005e-07 -2.0083423848e-06 0.0000000000e+00 
          3.3142640727e-07 -4.6568669985e-05 0.0000000000e+00 
          2.7838125300e-07 -7.0174009495e-05 0.0000000000e+00 
          2.3368963484e-07 -1.9255287282e-05 0.0000000000e+00 
          1.9608838727e-07 -1.2865532814e-04 0.0000000000e+00 
          1.6450300393e-07 2.6941103639e-06 0.0000000000e+00 
          1.3802106667e-07 4.4643201477e-05 0.0000000000e+00 
          1.1586942140e-07 -2.2691038424e-04 0.0000000000e+00 
          9.7394734861e-08 2.0525824107e-04 0.0000000000e+00 
          8.2046582859e-08 3.6358633651e-04 0.0000000000e+00 
          6.9363374073e-08 -7.9355354843e-05 0.0000000000e+00 
          5.8960227826e-08 1.3224501569e-04 0.0000000000e+00 
          5.0518747776e-08 3.6797893618e-04 0.0000000000e+00 
          4.3778636130e-08 3.9890977725e-04 0.0000000000e+00 
          3.8530553260e-08 5.1859585094e-04 0.0000000000e+00 
          3.4610664692e-08 4.4219452675e-04 0.0000000000e+00 
          3.1895755055e-08 4.2270372162e-04 0.0000000000e+00 
          3.0300434405e-08 4.7074808767e-04 0.0000000000e+00 
          1.0583238815e-05 1.0100873790e-04 0.0000000000e+00 
          9.0568039775e-06 1.4156925645e-04 0.0000000000e+00 
          7.7433376858e-06 1.6314823304e-04 0.0000000000e+00 
          6.6142017462e-06 2.1828761668e-04 0.0000000000e+00 
          5.6444712256e-06 8.9267472020e-05 0.0000000000e+00 
          4.8124543817e-06 -1.2765238665e-04 0.0000000000e+00 
          4.0992821404e-06 1.9869238394e-04 0.0000000000e+00 
          3.4885651761e-06 4.6780183665e-05 0.0000000000e+00 
          2.9660908335e-06 1.5796447506e-05 0.0000000000e+00 
          2.5195393698e-06 5.6415299152e-05 0.0000000000e+00 
          2.1382455912e-06 9.8700054368e-05 0.0000000000e+00 
          1.8129859704e-06 1.4855888090e-04 0.0000000000e+00 
          1.5357936367e-06 -9.9115206864e-05 0.0000000000e+00 
          1.2997926745e-06 1.3946580811e-04 0.0000000000e+00 
          1.0990561485e-06 7.2763166527e-05 0.0000000000e+00 
          9.2848078971e-07 5.2368495394e-05 0.0000000000e+00 
          7.8367606754e-07 2.4326709448e-04 0.0000000000e+00 
          6.6086962898e-07 3.3571816723e-04 0.0000000000e+00 
          5.5682355106e-07 2.5004987334e-04 0.0000000000e+00 
          4.6876209660e-07 8.7500006712e-05 0.0000000000e+00 
          3.9430757005e-07 -2.0083423848e-06 0.0000000000e+00 
          3.3142640727e-07 -4.6568669985e-05 0.0000000000e+00 
          2.7838125300e-07 -7.0174009495e-05 0.0000000000e+00 
          2.3368963484e-07 -1.9255287282e-05 0.0000000000e+00 
          1.9608838727e-07 -1.2865532814e-04 0.0000000000e+00 
          1.6450300393e-07 2.6941103639e-06 0.0000000000e+00 
          1.3802106667e-07 4.4643201477e-05 0.0000000000e+00 
          1.1586942140e-07 -2.2691038424e-04 0.0000000000e+00 
          9.7394734861e-08 2.0525824107e-04 0.0000000000e+00 
          8.2046582859e-08 3.6358633651e-04 0.0000000000e+00 
          6.9363374073e-08 -7.9355354843e-05 0.0000000000e+00 
          5.8960227826e-08 1.3224501569e-04 0.0000000000e+00 
          5.0518747776e-08 3.6797893618e-04 0.0000000000e+00 
          4.3778636130e-08 3.9890977725e-04 0.0000000000e+00 
          3.8530553260e-08 5.1859585094e-04 0.0000000000e+00 
          3.4610664692e-08 4.4219452675e-04 0.0000000000e+00 
          3.1895755055e-08 4.2270372162e-04 0.0000000000e+00 
          3.0300434405e-08 4.7074808767e-04 0.0000000000e+00 
        </DataArray>
        <DataArray type="Float64" Name="Reaction" NumberOfComponents="3" format="ascii">
          0.0000000000e+00 0.0000000000e+00 0.0000000000e+00 
          0.0000000000e+00 0.0000000000e+00 0.0000000000e+00 
          0.0000000000e+00 0.0000000000e+00 0.0000000000e+00 
          0.0000000000e+00 0.0000000000e+00 0.0000000000e+00 
          0.0000000000e+00 0.0000000000e+00 0.0000000000e+00 
          0.0000000000e+00 0.0000000000e+00 0.0000000000e+00 
          0.0000000000e+00 0.0000000000e+00 0.0000000000e+00 
          0.0000000000e+00 0.0000000000e+00 0.0000000000e+00 
          0.0000000000e+00 0.0000000000e+00 0.0000000000e+00 
          0.0000000000e+00 0.0000000000e+00 0.0000000000e+00 
          0.0000000000e+00 0.0000000000e+00 0.0000000000e+00 
          0.0000000000e+00 0.0000000000e+00 0.0000000000e+00 
          0.0000000000e+00 0.0000000000e+00 0.0000000000e+00 
          0.0000000000e+00 0.0000000000e+00 0.0000000000e+00 
          0.0000000000e+00 0.0000000000e+00 0.0000000000e+00 
          0.0000000000e+00 0.0000000000e+00 0.0000000000e+00 
          0.0000000000e+00 0.0000000000e+00 0.0000000000e+00 
          0.0000000000e+00 0.0000000000e+00 0.0000000000e+00 
          0.0000000000e+00 0.0000000000e+00 0.0000000000e+00 
          0.0000000000e+00 0.0000000000e+00 0.0000000000e+00 
          0.0000000000e+00 0.0000000000e+00 0.0000000000e+00 
          0.0000000000e+00 0.0000000000e+00 0.0000000000e+00 
          0.0000000000e+00 0.0000000000e+00 0.0000000000e+00 
          0.0000000000e+00 0.0000000000e+00 0.0000000000e+00 
          0.0000000000e+00 0.0000000000e+00 0.0000000000e+00 
          0.0000000000e+00 0.0000000000e+00 0.0000000000e+00 
          0.0000000000e+00 0.0000000000e+00 0.0000000000e+00 
          0.0000000000e+00 0.0000000000e+00 0.0000000000e+00 
          0.0000000000e+00 0.0000000000e+00 0.0000000000e+00 
          0.0000000000e+00 0.0000000000e+00 0.0000000000e+00 
          0.0000000000e+00 0.0000000000e+00 0.0000000000e+00 
          0.0000000000e+00 0.0000000000e+00 0.0000000000e+00 
          0.0000000000e+00 0.0000000000e+00 0.0000000000e+00 
          0.0000000000e+00 0.0000000000e+00 0.0000000000e+00 
          0.0000000000e+00 0.0000000000e+00 0.0000000000e+00 
          0.0000000000e+00 0.0000000000e+00 0.0000000000e+00 
          0.0000000000e+00 0.0000000000e+00 0.0000000000e+00 
          0.0000000000e+00 0.0000000000e+00 0.0000000000e+00 
          0.0000000000e+00 0.0000000000e+00 0.0000000000e+00 
          0.0000000000e+00 0.0000000000e+00 0.0000000000e+00 
          0.0000000000e+00 0.0000000000e+00 0.0000000000e+00 
          0.0000000000e+00 0.0000000000e+00 0.0000000000e+00 
          0.0000000000e+00 0.0000000000e+00 0.0000000000e+00 
          0.0000000000e+00 0.0000000000e+00 0.0000000000e+00 
          0.0000000000e+00 0.0000000000e+00 0.0000000000e+00 
          0.0000000000e+00 0.0000000000e+00 0.0000000000e+00 
          0.0000000000e+00 0.0000000000e+00 0.0000000000e+00 
          0.0000000000e+00 0.0000000000e+00 0.0000000000e+00 
          0.0000000000e+00 0.0000000000e+00 0.0000000000e+00 
          0.0000000000e+00 0.0000000000e+00 0.0000000000e+00 
          0.0000000000e+00 0.0000000000e+00 0.0000000000e+00 
          0.0000000000e+00 0.0000000000e+00 0.0000000000e+00 
          0.0000000000e+00 0.0000000000e+00 0.0000000000e+00 
          0.0000000000e+00 0.0000000000e+00 0.0000000000e+00 
          0.0000000000e+00 0.0000000000e+00 0.0000000000e+00 
          0.0000000000e+00 0.0000000000e+00 0.0000000000e+00 
          0.0000000000e+00 0.0000000000e+00 0.0000000000e+00 
          0.0000000000e+00 0.0000000000e+00 0.0000000000e+00 
          0.0000000000e+00 0.0000000000e+00 0.0000000000e+00 
          0.0000000000e+00 0.0000000000e+00 0.0000000000e+00 
          0.0000000000e+00 0.0000000000e+00 0.0000000000e+00 
          0.0000000000e+00 0.0000000000e+00 0.0000000000e+00 
          0.0000000000e+00 0.0000000000e+00 0.0000000000e+00 
          0.0000000000e+00 0.0000000000e+00 0.0000000000e+00 
          0.0000000000e+00 0.0000000000e+00 0.0000000000e+00 
          0.0000000000e+00 0.0000000000e+00 0.0000000000e+00 
          0.0000000000e+00 0.0000000000e+00 0.0000000000e+00 
          0.0000000000e+00 0.0000000000e+00 0.0000000000e+00 
          0.0000000000e+00 0.0000000000e+00 0.0000000000e+00 
          0.0000000000e+00 0.0000000000e+00 0.0000000000e+00 
          0.0000000000e+00 0.0000000000e+00 0.0000000000e+00 
          0.0000000000e+00 0.0000000000e+00 0.0000000000e+00 
          0.0000000000e+00 0.0000000000e+00 0.0000000000e+00 
          0.0000000000e+00 0.0000000000e+00 0.0000000000e+00 
          0.0000000000e+00 0.0000000000e+00 0.0000000000e+00 
          0.0000000000e+00 0.0000000000e+00 0.0000000000e+00 
          0.0000000000e+00 0.0000000000e+00 0.0000000000e+00 
          0.0000000000e+00 0.0000000000e+00 0.0000000000e+00 
          0.0000000000e+00 0.0000000000e+00 0.0000000000e+00 
          0.0000000000e+00 0.0000000000e+00 0.0000000000e+00 
        </DataArray>
      </PointData>
      <CellData>
        <DataArray type="Int64" Name="ElementTag" format="ascii">
          90
          91
          92
          93
          94
          95
          96
          97
          98
          99
          100
          101
          102
          103
          104
          105
          106
          107
          108
          109
          110
          111
          112
          113
          114
          115
          116
          117
          118
          119
          120
          121
          122
          123
          124
          125
          126
          127
          128
        </DataArray>
      </CellData>
    </Piece>
  </UnstructuredGrid>
</VTKFile>
