<?xml version="1.0"?>
<VTKFile type="UnstructuredGrid" version="1.0" byte_order="LittleEndian" compressor="vtkZLibDataCompressor">
  <UnstructuredGrid>
    <Piece NumberOfPoints="82" NumberOfCells="1">
      <Points>
        <DataArray type="Float64" Name="Points" NumberOfComponents="3" format="ascii">
          0.0000000000e+00 0.0000000000e+00 0.0000000000e+00 
          2.5000000000e-01 0.0000000000e+00 0.0000000000e+00 
          2.5000000000e-01 3.0000000000e+01 0.0000000000e+00 
          0.0000000000e+00 3.0000000000e+01 0.0000000000e+00 
          0.0000000000e+00 -5.0000000000e+00 0.0000000000e+00 
          2.5000000000e-01 -5.0000000000e+00 0.0000000000e+00 
          2.5000000000e-01 7.6923100000e-01 0.0000000000e+00 
          2.5000000000e-01 1.5384620000e+00 0.0000000000e+00 
          2.5000000000e-01 2.3076920000e+00 0.0000000000e+00 
          2.5000000000e-01 3.0769230000e+00 0.0000000000e+00 
          2.5000000000e-01 3.8461540000e+00 0.0000000000e+00 
          2.5000000000e-01 4.6153850000e+00 0.0000000000e+00 
          2.5000000000e-01 5.3846150000e+00 0.0000000000e+00 
          2.5000000000e-01 6.1538460000e+00 0.0000000000e+00 
          2.5000000000e-01 6.9230770000e+00 0.0000000000e+00 
          2.5000000000e-01 7.6923080000e+00 0.0000000000e+00 
          2.5000000000e-01 8.4615380000e+00 0.0000000000e+00 
          2.5000000000e-01 9.2307690000e+00 0.0000000000e+00 
          2.5000000000e-01 1.0000000000e+01 0.0000000000e+00 
          2.5000000000e-01 1.0769231000e+01 0.0000000000e+00 
          2.5000000000e-01 1.1538462000e+01 0.0000000000e+00 
          2.5000000000e-01 1.2307692000e+01 0.0000000000e+00 
          2.5000000000e-01 1.3076923000e+01 0.0000000000e+00 
          2.5000000000e-01 1.3846154000e+01 0.0000000000e+00 
          2.5000000000e-01 1.4615385000e+01 0.0000000000e+00 
          2.5000000000e-01 1.5384615000e+01 0.0000000000e+00 
          2.5000000000e-01 1.6153846000e+01 0.0000000000e+00 
          2.5000000000e-01 1.6923077000e+01 0.0000000000e+00 
          2.5000000000e-01 1.7692308000e+01 0.0000000000e+00 
          2.5000000000e-01 1.8461538000e+01 0.0000000000e+00 
          2.5000000000e-01 1.9230769000e+01 0.0000000000e+00 
          2.5000000000e-01 2.0000000000e+01 0.0000000000e+00 
          2.5000000000e-01 2.0769231000e+01 0.0000000000e+00 
          2.5000000000e-01 2.1538462000e+01 0.0000000000e+00 
          2.5000000000e-01 2.2307692000e+01 0.0000000000e+00 
          2.5000000000e-01 2.3076923000e+01 0.0000000000e+00 
          2.5000000000e-01 2.3846154000e+01 0.0000000000e+00 
          2.5000000000e-01 2.4615385000e+01 0.0000000000e+00 
          2.5000000000e-01 2.5384615000e+01 0.0000000000e+00 
          2.5000000000e-01 2.6153846000e+01 0.0000000000e+00 
          2.5000000000e-01 2.6923077000e+01 0.0000000000e+00 
          2.5000000000e-01 2.7692308000e+01 0.0000000000e+00 
          2.5000000000e-01 2.8461538000e+01 0.0000000000e+00 
          2.5000000000e-01 2.9230769000e+01 0.0000000000e+00 
          0.0000000000e+00 7.6923100000e-01 0.0000000000e+00 
          0.0000000000e+00 1.5384620000e+00 0.0000000000e+00 
          0.0000000000e+00 2.3076920000e+00 0.0000000000e+00 
          0.0000000000e+00 3.0769230000e+00 0.0000000000e+00 
          0.0000000000e+00 3.8461540000e+00 0.0000000000e+00 
          0.0000000000e+00 4.6153850000e+00 0.0000000000e+00 
          0.0000000000e+00 5.3846150000e+00 0.0000000000e+00 
          0.0000000000e+00 6.1538460000e+00 0.0000000000e+00 
          0.0000000000e+00 6.9230770000e+00 0.0000000000e+00 
          0.0000000000e+00 7.6923080000e+00 0.0000000000e+00 
          0.0000000000e+00 8.4615380000e+00 0.0000000000e+00 
          0.0000000000e+00 9.2307690000e+00 0.0000000000e+00 
          0.0000000000e+00 1.0000000000e+01 0.0000000000e+00 
          0.0000000000e+00 1.0769231000e+01 0.0000000000e+00 
          0.0000000000e+00 1.1538462000e+01 0.0000000000e+00 
          0.0000000000e+00 1.2307692000e+01 0.0000000000e+00 
          0.0000000000e+00 1.3076923000e+01 0.0000000000e+00 
          0.0000000000e+00 1.3846154000e+01 0.0000000000e+00 
          0.0000000000e+00 1.4615385000e+01 0.0000000000e+00 
          0.0000000000e+00 1.5384615000e+01 0.0000000000e+00 
          0.0000000000e+00 1.6153846000e+01 0.0000000000e+00 
          0.0000000000e+00 1.6923077000e+01 0.0000000000e+00 
          0.0000000000e+00 1.7692308000e+01 0.0000000000e+00 
          0.0000000000e+00 1.8461538000e+01 0.0000000000e+00 
          0.0000000000e+00 1.9230769000e+01 0.0000000000e+00 
          0.0000000000e+00 2.0000000000e+01 0.0000000000e+00 
          0.0000000000e+00 2.0769231000e+01 0.0000000000e+00 
          0.0000000000e+00 2.1538462000e+01 0.0000000000e+00 
          0.0000000000e+00 2.2307692000e+01 0.0000000000e+00 
          0.0000000000e+00 2.3076923000e+01 0.0000000000e+00 
          0.0000000000e+00 2.3846154000e+01 0.0000000000e+00 
          0.0000000000e+00 2.4615385000e+01 0.0000000000e+00 
          0.0000000000e+00 2.5384615000e+01 0.0000000000e+00 
          0.0000000000e+00 2.6153846000e+01 0.0000000000e+00 
          0.0000000000e+00 2.6923077000e+01 0.0000000000e+00 
          0.0000000000e+00 2.7692308000e+01 0.0000000000e+00 
          0.0000000000e+00 2.8461538000e+01 0.0000000000e+00 
          0.0000000000e+00 2.9230769000e+01 0.0000000000e+00 
        </DataArray>
      </Points>
      <Cells>
        <DataArray type="Int64" Name="connectivity" format="ascii">
          0
          1
          2
          3
          4
          5
          6
          7
          8
          9
          10
          11
          12
          13
          14
          15
          16
          17
          18
          19
          20
          21
          22
          23
          24
          25
          26
          27
          28
          29
          30
          31
          32
          33
          34
          35
          36
          37
          38
          39
          40
          41
          42
          43
          44
          45
          46
          47
          48
          49
          50
          51
          52
          53
          54
          55
          56
          57
          58
          59
          60
          61
          62
          63
          64
          65
          66
          67
          68
          69
          70
          71
          72
          73
          74
          75
          76
          77
          78
          79
          80
          81
        </DataArray>
        <DataArray type="Int64" Name="offsets" format="ascii">
          82
        </DataArray>
        <DataArray type="Int64" Name="types" format="ascii">
          2
        </DataArray>
      </Cells>
      <PointData>
        <DataArray type="Int64" Name="NodeTag" format="ascii">
          1
          2
          3
          4
          5
          6
          7
          8
          9
          10
          11
          12
          13
          14
          15
          16
          17
          18
          19
          20
          21
          22
          23
          24
          25
          26
          27
          28
          29
          30
          31
          32
          33
          34
          35
          36
          37
          38
          39
          40
          41
          42
          43
          44
          45
          46
          47
          48
          49
          50
          51
          52
          53
          54
          55
          56
          57
          58
          59
          60
          61
          62
          63
          64
          65
          66
          67
          68
          69
          70
          71
          72
          73
          74
          75
          76
          77
          78
          79
          80
          81
          82
        </DataArray>
        <DataArray type="Float64" Name="Velocity" NumberOfComponents="3" format="ascii">
          2.9768953594e-03 -7.7827054964e-05 0.0000000000e+00 
          2.9768953594e-03 -7.7827054964e-05 0.0000000000e+00 
          2.5402560423e-02 -7.8128163443e-05 0.0000000000e+00 
          2.5402560423e-02 -7.8128163443e-05 0.0000000000e+00 
          0.0000000000e+00 0.0000000000e+00 0.0000000000e+00 
          0.0000000000e+00 0.0000000000e+00 0.0000000000e+00 
          3.9436404733e-03 -7.7952883601e-05 0.0000000000e+00 
          4.9020647117e-03 -7.7725159827e-05 0.0000000000e+00 
          5.8509185949e-03 -7.7968394126e-05 0.0000000000e+00 
          6.7890023373e-03 -7.7891908088e-05 0.0000000000e+00 
          7.7150961402e-03 -7.7900586410e-05 0.0000000000e+00 
          8.6280432516e-03 -7.7921471608e-05 0.0000000000e+00 
          9.5266830214e-03 -7.7934299773e-05 0.0000000000e+00 
          1.0409873731e-02 -7.7962561506e-05 0.0000000000e+00 
          1.1276558537e-02 -7.7939071955e-05 0.0000000000e+00 
          1.2125617337e-02 -7.7937248701e-05 0.0000000000e+00 
          1.2956017028e-02 -7.7974089995e-05 0.0000000000e+00 
          1.3766753279e-02 -7.7980009416e-05 0.0000000000e+00 
          1.4556817687e-02 -7.8019088131e-05 0.0000000000e+00 
          1.5325269703e-02 -7.8032813067e-05 0.0000000000e+00 
          1.6071173529e-02 -7.7964732418e-05 0.0000000000e+00 
          1.6793641308e-02 -7.8085936815e-05 0.0000000000e+00 
          1.7491797104e-02 -7.7989613970e-05 0.0000000000e+00 
          1.8164837845e-02 -7.8109952428e-05 0.0000000000e+00 
          1.8811950520e-02 -7.8118737536e-05 0.0000000000e+00 
          1.9432369512e-02 -7.8031463995e-05 0.0000000000e+00 
          2.0025390044e-02 -7.8179498734e-05 0.0000000000e+00 
          2.0590305085e-02 -7.8134306694e-05 0.0000000000e+00 
          2.1126470469e-02 -7.8151475005e-05 0.0000000000e+00 
          2.1633263824e-02 -7.8207130169e-05 0.0000000000e+00 
          2.2110097636e-02 -7.8126780389e-05 0.0000000000e+00 
          2.2556441419e-02 -7.8240564970e-05 0.0000000000e+00 
          2.2971765843e-02 -7.8177049967e-05 0.0000000000e+00 
          2.3355613369e-02 -7.8220369558e-05 0.0000000000e+00 
          2.3707542678e-02 -7.8268117687e-05 0.0000000000e+00 
          2.4027154602e-02 -7.8275421265e-05 0.0000000000e+00 
          2.4314099813e-02 -7.8268472712e-05 0.0000000000e+00 
          2.4568037373e-02 -7.8251546450e-05 0.0000000000e+00 
          2.4788703246e-02 -7.8329287722e-05 0.0000000000e+00 
          2.4975835064e-02 -7.8263385826e-05 0.0000000000e+00 
          2.5129225699e-02 -7.8369113897e-05 0.0000000000e+00 
          2.5248708779e-02 -7.8227886747e-05 0.0000000000e+00 
          2.5334151969e-02 -7.8315405893e-05 0.0000000000e+00 
          2.5385455815e-02 -7.8408168188e-05 0.0000000000e+00 
          3.9436404733e-03 -7.7952883601e-05 0.0000000000e+00 
          4.9020647117e-03 -7.7725159827e-05 0.0000000000e+00 
          5.8509185949e-03 -7.7968394126e-05 0.0000000000e+00 
          6.7890023373e-03 -7.7891908088e-05 0.0000000000e+00 
          7.7150961402e-03 -7.7900586410e-05 0.0000000000e+00 
          8.6280432516e-03 -7.7921471608e-05 0.0000000000e+00 
          9.5266830214e-03 -7.7934299773e-05 0.0000000000e+00 
          1.0409873731e-02 -7.7962561506e-05 0.0000000000e+00 
          1.1276558537e-02 -7.7939071955e-05 0.0000000000e+00 
          1.2125617337e-02 -7.7937248701e-05 0.0000000000e+00 
          1.2956017028e-02 -7.7974089995e-05 0.0000000000e+00 
          1.3766753279e-02 -7.7980009416e-05 0.0000000000e+00 
          1.4556817687e-02 -7.8019088131e-05 0.0000000000e+00 
          1.5325269703e-02 -7.8032813067e-05 0.0000000000e+00 
          1.6071173529e-02 -7.7964732418e-05 0.0000000000e+00 
          1.6793641308e-02 -7.8085936815e-05 0.0000000000e+00 
          1.7491797104e-02 -7.7989613970e-05 0.0000000000e+00 
          1.8164837845e-02 -7.8109952428e-05 0.0000000000e+00 
          1.8811950520e-02 -7.8118737536e-05 0.0000000000e+00 
          1.9432369512e-02 -7.8031463995e-05 0.0000000000e+00 
          2.0025390044e-02 -7.8179498734e-05 0.0000000000e+00 
          2.0590305085e-02 -7.8134306694e-05 0.0000000000e+00 
          2.1126470469e-02 -7.8151475005e-05 0.0000000000e+00 
          2.1633263824e-02 -7.8207130169e-05 0.0000000000e+00 
          2.2110097636e-02 -7.8126780389e-05 0.0000000000e+00 
          2.2556441419e-02 -7.8240564970e-05 0.0000000000e+00 
          2.2971765843e-02 -7.8177049967e-05 0.0000000000e+00 
          2.3355613369e-02 -7.8220369558e-05 0.0000000000e+00 
          2.3707542678e-02 -7.8268117687e-05 0.0000000000e+00 
          2.4027154602e-02 -7.8275421265e-05 0.0000000000e+00 
          2.4314099813e-02 -7.8268472712e-05 0.0000000000e+00 
          2.4568037373e-02 -7.8251546450e-05 0.0000000000e+00 
          2.4788703246e-02 -7.8329287722e-05 0.0000000000e+00 
          2.4975835064e-02 -7.8263385826e-05 0.0000000000e+00 
          2.5129225699e-02 -7.8369113897e-05 0.0000000000e+00 
          2.5248708779e-02 -7.8227886747e-05 0.0000000000e+00 
          2.5334151969e-02 -7.8315405893e-05 0.0000000000e+00 
          2.5385455815e-02 -7.8408168188e-05 0.0000000000e+00 
        </DataArray>
        <DataArray type="Float64" Name="Displacement" NumberOfComponents="3" format="ascii">
          -4.5484047342e-04 -3.2044850933e-04 0.0000000000e+00 
          -4.5484047342e-04 -3.2044850933e-04 0.0000000000e+00 
          9.1000311104e-04 -3.4402287982e-04 0.0000000000e+00 
          9.1000311104e-04 -3.4402287982e-04 0.0000000000e+00 
          0.0000000000e+00 0.0000000000e+00 0.0000000000e+00 
          0.0000000000e+00 0.0000000000e+00 0.0000000000e+00 
          -4.0507985830e-04 -3.2164200424e-04 0.0000000000e+00 
          -3.5478861976e-04 -3.2280459281e-04 0.0000000000e+00 
          -3.0408525301e-04 -3.2393598486e-04 0.0000000000e+00 
          -2.5308831596e-04 -3.2503649649e-04 0.0000000000e+00 
          -2.0191661522e-04 -3.2610603799e-04 0.0000000000e+00 
          -1.5068872310e-04 -3.2714459263e-04 0.0000000000e+00 
          -9.9522625660e-05 -3.2815196431e-04 0.0000000000e+00 
          -4.8535463491e-05 -3.2912855811e-04 0.0000000000e+00 
          2.1564117302e-06 -3.3007404289e-04 0.0000000000e+00 
          5.2438158843e-05 -3.3098846793e-04 0.0000000000e+00 
          1.0219617585e-04 -3.3187191302e-04 0.0000000000e+00 
          1.5131898296e-04 -3.3272437380e-04 0.0000000000e+00 
          1.9969681112e-04 -3.3354596598e-04 0.0000000000e+00 
          2.4722210763e-04 -3.3433642145e-04 0.0000000000e+00 
          2.9378993223e-04 -3.3509591536e-04 0.0000000000e+00 
          3.3929771089e-04 -3.3582437239e-04 0.0000000000e+00 
          3.8364597464e-04 -3.3652210731e-04 0.0000000000e+00 
          4.2673808162e-04 -3.3718837805e-04 0.0000000000e+00 
          4.6848058365e-04 -3.3782386827e-04 0.0000000000e+00 
          5.0878342645e-04 -3.3842864995e-04 0.0000000000e+00 
          5.4756010672e-04 -3.3900179575e-04 0.0000000000e+00 
          5.8472766195e-04 -3.3954445434e-04 0.0000000000e+00 
          6.2020701701e-04 -3.4005586164e-04 0.0000000000e+00 
          6.5392289984e-04 -3.4053624033e-04 0.0000000000e+00 
          6.8580426083e-04 -3.4098570986e-04 0.0000000000e+00 
          7.1578399686e-04 -3.4140417545e-04 0.0000000000e+00 
          7.4379927265e-04 -3.4179154339e-04 0.0000000000e+00 
          7.6979167091e-04 -3.4214792733e-04 0.0000000000e+00 
          7.9370706746e-04 -3.4247336772e-04 0.0000000000e+00 
          8.1549592444e-04 -3.4276779095e-04 0.0000000000e+00 
          8.3511316657e-04 -3.4303114243e-04 0.0000000000e+00 
          8.5251830139e-04 -3.4326356153e-04 0.0000000000e+00 
          8.6767553737e-04 -3.4346505988e-04 0.0000000000e+00 
          8.8055380089e-04 -3.4363544880e-04 0.0000000000e+00 
          8.9112665894e-04 -3.4377494474e-04 0.0000000000e+00 
          8.9937244454e-04 -3.4388335600e-04 0.0000000000e+00 
          9.0527433082e-04 -3.4396077806e-04 0.0000000000e+00 
          9.0882031750e-04 -3.4400722514e-04 0.0000000000e+00 
          -4.0507985830e-04 -3.2164200424e-04 0.0000000000e+00 
          -3.5478861976e-04 -3.2280459281e-04 0.0000000000e+00 
          -3.0408525301e-04 -3.2393598486e-04 0.0000000000e+00 
          -2.5308831596e-04 -3.2503649649e-04 0.0000000000e+00 
          -2.0191661522e-04 -3.2610603799e-04 0.0000000000e+00 
          -1.5068872310e-04 -3.2714459263e-04 0.0000000000e+00 
          -9.9522625660e-05 -3.2815196431e-04 0.0000000000e+00 
          -4.8535463491e-05 -3.2912855811e-04 0.0000000000e+00 
          2.1564117302e-06 -3.3007404289e-04 0.0000000000e+00 
          5.2438158843e-05 -3.3098846793e-04 0.0000000000e+00 
          1.0219617585e-04 -3.3187191302e-04 0.0000000000e+00 
          1.5131898296e-04 -3.3272437380e-04 0.0000000000e+00 
          1.9969681112e-04 -3.3354596598e-04 0.0000000000e+00 
          2.4722210763e-04 -3.3433642145e-04 0.0000000000e+00 
          2.9378993223e-04 -3.3509591536e-04 0.0000000000e+00 
          3.3929771089e-04 -3.3582437239e-04 0.0000000000e+00 
          3.8364597464e-04 -3.3652210731e-04 0.0000000000e+00 
          4.2673808162e-04 -3.3718837805e-04 0.0000000000e+00 
          4.6848058365e-04 -3.3782386827e-04 0.0000000000e+00 
          5.0878342645e-04 -3.3842864995e-04 0.0000000000e+00 
          5.4756010672e-04 -3.3900179575e-04 0.0000000000e+00 
          5.8472766195e-04 -3.3954445434e-04 0.0000000000e+00 
          6.2020701701e-04 -3.4005586164e-04 0.0000000000e+00 
          6.5392289984e-04 -3.4053624033e-04 0.0000000000e+00 
          6.8580426083e-04 -3.4098570986e-04 0.0000000000e+00 
          7.1578399686e-04 -3.4140417545e-04 0.0000000000e+00 
          7.4379927265e-04 -3.4179154339e-04 0.0000000000e+00 
          7.6979167091e-04 -3.4214792733e-04 0.0000000000e+00 
          7.9370706746e-04 -3.4247336772e-04 0.0000000000e+00 
          8.1549592444e-04 -3.4276779095e-04 0.0000000000e+00 
          8.3511316657e-04 -3.4303114243e-04 0.0000000000e+00 
          8.5251830139e-04 -3.4326356153e-04 0.0000000000e+00 
          8.6767553737e-04 -3.4346505988e-04 0.0000000000e+00 
          8.8055380089e-04 -3.4363544880e-04 0.0000000000e+00 
          8.9112665894e-04 -3.4377494474e-04 0.0000000000e+00 
          8.9937244454e-04 -3.4388335600e-04 0.0000000000e+00 
          9.0527433082e-04 -3.4396077806e-04 0.0000000000e+00 
          9.0882031750e-04 -3.4400722514e-04 0.0000000000e+00 
        </DataArray>
        <DataArray type="Float64" Name="Acceleration" NumberOfComponents="3" format="ascii">
          5.8427054250e-02 -7.8547210181e-06 0.0000000000e+00 
          5.8427054250e-02 -7.8547210181e-06 0.0000000000e+00 
          -2.1314406745e-01 5.4605714770e-05 0.0000000000e+00 
          -2.1314406745e-01 5.4605714770e-05 0.0000000000e+00 
          0.0000000000e+00 0.0000000000e+00 0.0000000000e+00 
          0.0000000000e+00 0.0000000000e+00 0.0000000000e+00 
          4.7810217893e-02 -1.8017979688e-05 0.0000000000e+00 
          3.7139529465e-02 3.4009949857e-05 0.0000000000e+00 
          2.6445341073e-02 -2.2422691533e-05 0.0000000000e+00 
          1.5746554250e-02 -6.5254677850e-06 0.0000000000e+00 
          5.0629537998e-03 -3.5072747822e-06 0.0000000000e+00 
          -5.5618331776e-03 3.1592836462e-05 0.0000000000e+00 
          -1.6128424672e-02 -4.0926023398e-05 0.0000000000e+00 
          -2.6605937219e-02 1.8501441029e-05 0.0000000000e+00 
          -3.6953352500e-02 9.6242954362e-06 0.0000000000e+00 
          -4.7183319442e-02 -4.9582734378e-06 0.0000000000e+00 
          -5.7239531472e-02 -3.7588444330e-06 0.0000000000e+00 
          -6.7124074331e-02 -2.4820777147e-05 0.0000000000e+00 
          -7.6814784917e-02 2.3492318752e-05 0.0000000000e+00 
          -8.6270111190e-02 -8.0675513294e-06 0.0000000000e+00 
          -9.5506962914e-02 5.3382047238e-06 0.0000000000e+00 
          -1.0447998221e-01 -5.1046675237e-05 0.0000000000e+00 
          -1.1318220584e-01 8.2506537825e-05 0.0000000000e+00 
          -1.2160207115e-01 -4.0693976235e-05 0.0000000000e+00 
          -1.2971150315e-01 -5.3801503178e-05 0.0000000000e+00 
          -1.3751506832e-01 1.1358955232e-04 0.0000000000e+00 
          -1.4498534387e-01 -9.3547124367e-05 0.0000000000e+00 
          -1.5211016850e-01 4.4141838311e-05 0.0000000000e+00 
          -1.5888848543e-01 3.9035574422e-06 0.0000000000e+00 
          -1.6529809651e-01 -1.7393560640e-05 0.0000000000e+00 
          -1.7134016519e-01 -4.3337538724e-07 0.0000000000e+00 
          -1.7700174644e-01 1.6455372517e-05 0.0000000000e+00 
          -1.8226526057e-01 -4.0264339745e-06 0.0000000000e+00 
          -1.8713927632e-01 -1.1385115646e-05 0.0000000000e+00 
          -1.9160834089e-01 2.0283698014e-06 0.0000000000e+00 
          -1.9566678560e-01 1.1788439527e-05 0.0000000000e+00 
          -1.9931523837e-01 -1.3327018080e-05 0.0000000000e+00 
          -2.0253848022e-01 -1.5466003113e-05 0.0000000000e+00 
          -2.0534182845e-01 1.8626176421e-05 0.0000000000e+00 
          -2.0772158541e-01 -2.0424625013e-05 0.0000000000e+00 
          -2.0967382314e-01 1.4116929705e-05 0.0000000000e+00 
          -2.1118940399e-01 -3.1037161808e-06 0.0000000000e+00 
          -2.1227203558e-01 -5.6282930815e-06 0.0000000000e+00 
          -2.1292836889e-01 -3.8552087456e-05 0.0000000000e+00 
          4.7810217893e-02 -1.8017979688e-05 0.0000000000e+00 
          3.7139529465e-02 3.4009949857e-05 0.0000000000e+00 
          2.6445341073e-02 -2.2422691533e-05 0.0000000000e+00 
          1.5746554250e-02 -6.5254677850e-06 0.0000000000e+00 
          5.0629537998e-03 -3.5072747822e-06 0.0000000000e+00 
          -5.5618331776e-03 3.1592836462e-05 0.0000000000e+00 
          -1.6128424672e-02 -4.0926023398e-05 0.0000000000e+00 
          -2.6605937219e-02 1.8501441029e-05 0.0000000000e+00 
          -3.6953352500e-02 9.6242954362e-06 0.0000000000e+00 
          -4.7183319442e-02 -4.9582734378e-06 0.0000000000e+00 
          -5.7239531472e-02 -3.7588444330e-06 0.0000000000e+00 
          -6.7124074331e-02 -2.4820777147e-05 0.0000000000e+00 
          -7.6814784917e-02 2.3492318752e-05 0.0000000000e+00 
          -8.6270111190e-02 -8.0675513294e-06 0.0000000000e+00 
          -9.5506962914e-02 5.3382047238e-06 0.0000000000e+00 
          -1.0447998221e-01 -5.1046675237e-05 0.0000000000e+00 
          -1.1318220584e-01 8.2506537825e-05 0.0000000000e+00 
          -1.2160207115e-01 -4.0693976235e-05 0.0000000000e+00 
          -1.2971150315e-01 -5.3801503178e-05 0.0000000000e+00 
          -1.3751506832e-01 1.1358955232e-04 0.0000000000e+00 
          -1.4498534387e-01 -9.3547124367e-05 0.0000000000e+00 
          -1.5211016850e-01 4.4141838311e-05 0.0000000000e+00 
          -1.5888848543e-01 3.9035574422e-06 0.0000000000e+00 
          -1.6529809651e-01 -1.7393560640e-05 0.0000000000e+00 
          -1.7134016519e-01 -4.3337538724e-07 0.0000000000e+00 
          -1.7700174644e-01 1.6455372517e-05 0.0000000000e+00 
          -1.8226526057e-01 -4.0264339745e-06 0.0000000000e+00 
          -1.8713927632e-01 -1.1385115646e-05 0.0000000000e+00 
          -1.9160834089e-01 2.0283698014e-06 0.0000000000e+00 
          -1.9566678560e-01 1.1788439527e-05 0.0000000000e+00 
          -1.9931523837e-01 -1.3327018080e-05 0.0000000000e+00 
          -2.0253848022e-01 -1.5466003113e-05 0.0000000000e+00 
          -2.0534182845e-01 1.8626176421e-05 0.0000000000e+00 
          -2.0772158541e-01 -2.0424625013e-05 0.0000000000e+00 
          -2.0967382314e-01 1.4116929705e-05 0.0000000000e+00 
          -2.1118940399e-01 -3.1037161808e-06 0.0000000000e+00 
          -2.1227203558e-01 -5.6282930815e-06 0.0000000000e+00 
          -2.1292836889e-01 -3.8552087456e-05 0.0000000000e+00 
        </DataArray>
        <DataArray type="Float64" Name="Reaction" NumberOfComponents="3" format="ascii">
          0.0000000000e+00 0.0000000000e+00 0.0000000000e+00 
          0.0000000000e+00 0.0000000000e+00 0.0000000000e+00 
          0.0000000000e+00 0.0000000000e+00 0.0000000000e+00 
          0.0000000000e+00 0.0000000000e+00 0.0000000000e+00 
          0.0000000000e+00 0.0000000000e+00 0.0000000000e+00 
          0.0000000000e+00 0.0000000000e+00 0.0000000000e+00 
          0.0000000000e+00 0.0000000000e+00 0.0000000000e+00 
          0.0000000000e+00 0.0000000000e+00 0.0000000000e+00 
          0.0000000000e+00 0.0000000000e+00 0.0000000000e+00 
          0.0000000000e+00 0.0000000000e+00 0.0000000000e+00 
          0.0000000000e+00 0.0000000000e+00 0.0000000000e+00 
          0.0000000000e+00 0.0000000000e+00 0.0000000000e+00 
          0.0000000000e+00 0.0000000000e+00 0.0000000000e+00 
          0.0000000000e+00 0.0000000000e+00 0.0000000000e+00 
          0.0000000000e+00 0.0000000000e+00 0.0000000000e+00 
          0.0000000000e+00 0.0000000000e+00 0.0000000000e+00 
          0.0000000000e+00 0.0000000000e+00 0.0000000000e+00 
          0.0000000000e+00 0.0000000000e+00 0.0000000000e+00 
          0.0000000000e+00 0.0000000000e+00 0.0000000000e+00 
          0.0000000000e+00 0.0000000000e+00 0.0000000000e+00 
          0.0000000000e+00 0.0000000000e+00 0.0000000000e+00 
          0.0000000000e+00 0.0000000000e+00 0.0000000000e+00 
          0.0000000000e+00 0.0000000000e+00 0.0000000000e+00 
          0.0000000000e+00 0.0000000000e+00 0.0000000000e+00 
          0.0000000000e+00 0.0000000000e+00 0.0000000000e+00 
          0.0000000000e+00 0.0000000000e+00 0.0000000000e+00 
          0.0000000000e+00 0.0000000000e+00 0.0000000000e+00 
          0.0000000000e+00 0.0000000000e+00 0.0000000000e+00 
          0.0000000000e+00 0.0000000000e+00 0.0000000000e+00 
          0.0000000000e+00 0.0000000000e+00 0.0000000000e+00 
          0.0000000000e+00 0.0000000000e+00 0.0000000000e+00 
          0.0000000000e+00 0.0000000000e+00 0.0000000000e+00 
          0.0000000000e+00 0.0000000000e+00 0.0000000000e+00 
          0.0000000000e+00 0.0000000000e+00 0.0000000000e+00 
          0.0000000000e+00 0.0000000000e+00 0.0000000000e+00 
          0.0000000000e+00 0.0000000000e+00 0.0000000000e+00 
          0.0000000000e+00 0.0000000000e+00 0.0000000000e+00 
          0.0000000000e+00 0.0000000000e+00 0.0000000000e+00 
          0.0000000000e+00 0.0000000000e+00 0.0000000000e+00 
          0.0000000000e+00 0.0000000000e+00 0.0000000000e+00 
          0.0000000000e+00 0.0000000000e+00 0.0000000000e+00 
          0.0000000000e+00 0.0000000000e+00 0.0000000000e+00 
          0.0000000000e+00 0.0000000000e+00 0.0000000000e+00 
          0.0000000000e+00 0.0000000000e+00 0.0000000000e+00 
          0.0000000000e+00 0.0000000000e+00 0.0000000000e+00 
          0.0000000000e+00 0.0000000000e+00 0.0000000000e+00 
          0.0000000000e+00 0.0000000000e+00 0.0000000000e+00 
          0.0000000000e+00 0.0000000000e+00 0.0000000000e+00 
          0.0000000000e+00 0.0000000000e+00 0.0000000000e+00 
          0.0000000000e+00 0.0000000000e+00 0.0000000000e+00 
          0.0000000000e+00 0.0000000000e+00 0.0000000000e+00 
          0.0000000000e+00 0.0000000000e+00 0.0000000000e+00 
          0.0000000000e+00 0.0000000000e+00 0.0000000000e+00 
          0.0000000000e+00 0.0000000000e+00 0.0000000000e+00 
          0.0000000000e+00 0.0000000000e+00 0.0000000000e+00 
          0.0000000000e+00 0.0000000000e+00 0.0000000000e+00 
          0.0000000000e+00 0.0000000000e+00 0.0000000000e+00 
          0.0000000000e+00 0.0000000000e+00 0.0000000000e+00 
          0.0000000000e+00 0.0000000000e+00 0.0000000000e+00 
          0.0000000000e+00 0.0000000000e+00 0.0000000000e+00 
          0.0000000000e+00 0.0000000000e+00 0.0000000000e+00 
          0.0000000000e+00 0.0000000000e+00 0.0000000000e+00 
          0.0000000000e+00 0.0000000000e+00 0.0000000000e+00 
          0.0000000000e+00 0.0000000000e+00 0.0000000000e+00 
          0.0000000000e+00 0.0000000000e+00 0.0000000000e+00 
          0.0000000000e+00 0.0000000000e+00 0.0000000000e+00 
          0.0000000000e+00 0.0000000000e+00 0.0000000000e+00 
          0.0000000000e+00 0.0000000000e+00 0.0000000000e+00 
          0.0000000000e+00 0.0000000000e+00 0.0000000000e+00 
          0.0000000000e+00 0.0000000000e+00 0.0000000000e+00 
          0.0000000000e+00 0.0000000000e+00 0.0000000000e+00 
          0.0000000000e+00 0.0000000000e+00 0.0000000000e+00 
          0.0000000000e+00 0.0000000000e+00 0.0000000000e+00 
          0.0000000000e+00 0.0000000000e+00 0.0000000000e+00 
          0.0000000000e+00 0.0000000000e+00 0.0000000000e+00 
          0.0000000000e+00 0.0000000000e+00 0.0000000000e+00 
          0.0000000000e+00 0.0000000000e+00 0.0000000000e+00 
          0.0000000000e+00 0.0000000000e+00 0.0000000000e+00 
          0.0000000000e+00 0.0000000000e+00 0.0000000000e+00 
          0.0000000000e+00 0.0000000000e+00 0.0000000000e+00 
          0.0000000000e+00 0.0000000000e+00 0.0000000000e+00 
          0.0000000000e+00 0.0000000000e+00 0.0000000000e+00 
        </DataArray>
      </PointData>
      <CellData>
        <DataArray type="Int64" Name="ElementTag" format="ascii">
          0
        </DataArray>
      </CellData>
    </Piece>
  </UnstructuredGrid>
</VTKFile>
