<?xml version="1.0"?>
<VTKFile type="UnstructuredGrid" version="1.0" byte_order="LittleEndian" compressor="vtkZLibDataCompressor">
  <UnstructuredGrid>
    <Piece NumberOfPoints="80" NumberOfCells="39">
      <Points>
        <DataArray type="Float64" Name="Points" NumberOfComponents="3" format="ascii">
          0.0000000000e+00 0.0000000000e+00 0.0000000000e+00 
          2.5000000000e-01 0.0000000000e+00 0.0000000000e+00 
          2.5000000000e-01 3.0000000000e+01 0.0000000000e+00 
          0.0000000000e+00 3.0000000000e+01 0.0000000000e+00 
          2.5000000000e-01 7.6923100000e-01 0.0000000000e+00 
          2.5000000000e-01 1.5384620000e+00 0.0000000000e+00 
          2.5000000000e-01 2.3076920000e+00 0.0000000000e+00 
          2.5000000000e-01 3.0769230000e+00 0.0000000000e+00 
          2.5000000000e-01 3.8461540000e+00 0.0000000000e+00 
          2.5000000000e-01 4.6153850000e+00 0.0000000000e+00 
          2.5000000000e-01 5.3846150000e+00 0.0000000000e+00 
          2.5000000000e-01 6.1538460000e+00 0.0000000000e+00 
          2.5000000000e-01 6.9230770000e+00 0.0000000000e+00 
          2.5000000000e-01 7.6923080000e+00 0.0000000000e+00 
          2.5000000000e-01 8.4615380000e+00 0.0000000000e+00 
          2.5000000000e-01 9.2307690000e+00 0.0000000000e+00 
          2.5000000000e-01 1.0000000000e+01 0.0000000000e+00 
          2.5000000000e-01 1.0769231000e+01 0.0000000000e+00 
          2.5000000000e-01 1.1538462000e+01 0.0000000000e+00 
          2.5000000000e-01 1.2307692000e+01 0.0000000000e+00 
          2.5000000000e-01 1.3076923000e+01 0.0000000000e+00 
          2.5000000000e-01 1.3846154000e+01 0.0000000000e+00 
          2.5000000000e-01 1.4615385000e+01 0.0000000000e+00 
          2.5000000000e-01 1.5384615000e+01 0.0000000000e+00 
          2.5000000000e-01 1.6153846000e+01 0.0000000000e+00 
          2.5000000000e-01 1.6923077000e+01 0.0000000000e+00 
          2.5000000000e-01 1.7692308000e+01 0.0000000000e+00 
          2.5000000000e-01 1.8461538000e+01 0.0000000000e+00 
          2.5000000000e-01 1.9230769000e+01 0.0000000000e+00 
          2.5000000000e-01 2.0000000000e+01 0.0000000000e+00 
          2.5000000000e-01 2.0769231000e+01 0.0000000000e+00 
          2.5000000000e-01 2.1538462000e+01 0.0000000000e+00 
          2.5000000000e-01 2.2307692000e+01 0.0000000000e+00 
          2.5000000000e-01 2.3076923000e+01 0.0000000000e+00 
          2.5000000000e-01 2.3846154000e+01 0.0000000000e+00 
          2.5000000000e-01 2.4615385000e+01 0.0000000000e+00 
          2.5000000000e-01 2.5384615000e+01 0.0000000000e+00 
          2.5000000000e-01 2.6153846000e+01 0.0000000000e+00 
          2.5000000000e-01 2.6923077000e+01 0.0000000000e+00 
          2.5000000000e-01 2.7692308000e+01 0.0000000000e+00 
          2.5000000000e-01 2.8461538000e+01 0.0000000000e+00 
          2.5000000000e-01 2.9230769000e+01 0.0000000000e+00 
          0.0000000000e+00 7.6923100000e-01 0.0000000000e+00 
          0.0000000000e+00 1.5384620000e+00 0.0000000000e+00 
          0.0000000000e+00 2.3076920000e+00 0.0000000000e+00 
          0.0000000000e+00 3.0769230000e+00 0.0000000000e+00 
          0.0000000000e+00 3.8461540000e+00 0.0000000000e+00 
          0.0000000000e+00 4.6153850000e+00 0.0000000000e+00 
          0.0000000000e+00 5.3846150000e+00 0.0000000000e+00 
          0.0000000000e+00 6.1538460000e+00 0.0000000000e+00 
          0.0000000000e+00 6.9230770000e+00 0.0000000000e+00 
          0.0000000000e+00 7.6923080000e+00 0.0000000000e+00 
          0.0000000000e+00 8.4615380000e+00 0.0000000000e+00 
          0.0000000000e+00 9.2307690000e+00 0.0000000000e+00 
          0.0000000000e+00 1.0000000000e+01 0.0000000000e+00 
          0.0000000000e+00 1.0769231000e+01 0.0000000000e+00 
          0.0000000000e+00 1.1538462000e+01 0.0000000000e+00 
          0.0000000000e+00 1.2307692000e+01 0.0000000000e+00 
          0.0000000000e+00 1.3076923000e+01 0.0000000000e+00 
          0.0000000000e+00 1.3846154000e+01 0.0000000000e+00 
          0.0000000000e+00 1.4615385000e+01 0.0000000000e+00 
          0.0000000000e+00 1.5384615000e+01 0.0000000000e+00 
          0.0000000000e+00 1.6153846000e+01 0.0000000000e+00 
          0.0000000000e+00 1.6923077000e+01 0.0000000000e+00 
          0.0000000000e+00 1.7692308000e+01 0.0000000000e+00 
          0.0000000000e+00 1.8461538000e+01 0.0000000000e+00 
          0.0000000000e+00 1.9230769000e+01 0.0000000000e+00 
          0.0000000000e+00 2.0000000000e+01 0.0000000000e+00 
          0.0000000000e+00 2.0769231000e+01 0.0000000000e+00 
          0.0000000000e+00 2.1538462000e+01 0.0000000000e+00 
          0.0000000000e+00 2.2307692000e+01 0.0000000000e+00 
          0.0000000000e+00 2.3076923000e+01 0.0000000000e+00 
          0.0000000000e+00 2.3846154000e+01 0.0000000000e+00 
          0.0000000000e+00 2.4615385000e+01 0.0000000000e+00 
          0.0000000000e+00 2.5384615000e+01 0.0000000000e+00 
          0.0000000000e+00 2.6153846000e+01 0.0000000000e+00 
          0.0000000000e+00 2.6923077000e+01 0.0000000000e+00 
          0.0000000000e+00 2.7692308000e+01 0.0000000000e+00 
          0.0000000000e+00 2.8461538000e+01 0.0000000000e+00 
          0.0000000000e+00 2.9230769000e+01 0.0000000000e+00 
        </DataArray>
      </Points>
      <Cells>
        <DataArray type="Int64" Name="connectivity" format="ascii">
          0 1 4 42 
          42 4 5 43 
          43 5 6 44 
          44 6 7 45 
          45 7 8 46 
          46 8 9 47 
          47 9 10 48 
          48 10 11 49 
          49 11 12 50 
          50 12 13 51 
          51 13 14 52 
          52 14 15 53 
          53 15 16 54 
          54 16 17 55 
          55 17 18 56 
          56 18 19 57 
          57 19 20 58 
          58 20 21 59 
          59 21 22 60 
          60 22 23 61 
          61 23 24 62 
          62 24 25 63 
          63 25 26 64 
          64 26 27 65 
          65 27 28 66 
          66 28 29 67 
          67 29 30 68 
          68 30 31 69 
          69 31 32 70 
          70 32 33 71 
          71 33 34 72 
          72 34 35 73 
          73 35 36 74 
          74 36 37 75 
          75 37 38 76 
          76 38 39 77 
          77 39 40 78 
          78 40 41 79 
          79 41 2 3 
        </DataArray>
        <DataArray type="Int64" Name="offsets" format="ascii">
          4
          8
          12
          16
          20
          24
          28
          32
          36
          40
          44
          48
          52
          56
          60
          64
          68
          72
          76
          80
          84
          88
          92
          96
          100
          104
          108
          112
          116
          120
          124
          128
          132
          136
          140
          144
          148
          152
          156
        </DataArray>
        <DataArray type="Int64" Name="types" format="ascii">
          9
          9
          9
          9
          9
          9
          9
          9
          9
          9
          9
          9
          9
          9
          9
          9
          9
          9
          9
          9
          9
          9
          9
          9
          9
          9
          9
          9
          9
          9
          9
          9
          9
          9
          9
          9
          9
          9
          9
        </DataArray>
      </Cells>
      <PointData>
        <DataArray type="Int64" Name="NodeTag" format="ascii">
          1
          2
          3
          4
          7
          8
          9
          10
          11
          12
          13
          14
          15
          16
          17
          18
          19
          20
          21
          22
          23
          24
          25
          26
          27
          28
          29
          30
          31
          32
          33
          34
          35
          36
          37
          38
          39
          40
          41
          42
          43
          44
          45
          46
          47
          48
          49
          50
          51
          52
          53
          54
          55
          56
          57
          58
          59
          60
          61
          62
          63
          64
          65
          66
          67
          68
          69
          70
          71
          72
          73
          74
          75
          76
          77
          78
          79
          80
          81
          82
        </DataArray>
        <DataArray type="Float64" Name="Velocity" NumberOfComponents="3" format="ascii">
          7.1652568736e-06 -7.7845038727e-05 0.0000000000e+00 
          7.1652568736e-06 -7.7845038727e-05 0.0000000000e+00 
          -1.0952100342e-05 -7.7864831816e-05 0.0000000000e+00 
          -1.0952100342e-05 -7.7864831816e-05 0.0000000000e+00 
          6.5295813556e-06 -7.7824376912e-05 0.0000000000e+00 
          5.8816103773e-06 -7.7879232319e-05 0.0000000000e+00 
          5.2306821388e-06 -7.7801059153e-05 0.0000000000e+00 
          4.5711527262e-06 -7.7891722880e-05 0.0000000000e+00 
          3.9075257076e-06 -7.7795687280e-05 0.0000000000e+00 
          3.2442276566e-06 -7.7892804049e-05 0.0000000000e+00 
          2.5756072389e-06 -7.7800595299e-05 0.0000000000e+00 
          1.9109588360e-06 -7.7872354830e-05 0.0000000000e+00 
          1.2470052837e-06 -7.7844571399e-05 0.0000000000e+00 
          5.8626319315e-07 -7.7815892510e-05 0.0000000000e+00 
          -6.7972373149e-08 -7.7883974473e-05 0.0000000000e+00 
          -7.1648550965e-07 -7.7815983728e-05 0.0000000000e+00 
          -1.3579001157e-06 -7.7849695275e-05 0.0000000000e+00 
          -1.9862264011e-06 -7.7856887468e-05 0.0000000000e+00 
          -2.6063651056e-06 -7.7826111975e-05 0.0000000000e+00 
          -3.2152900789e-06 -7.7857884117e-05 0.0000000000e+00 
          -3.8030674514e-06 -7.7839962876e-05 0.0000000000e+00 
          -4.3859697954e-06 -7.7838242365e-05 0.0000000000e+00 
          -4.9425562187e-06 -7.7856923566e-05 0.0000000000e+00 
          -5.4853569943e-06 -7.7832940379e-05 0.0000000000e+00 
          -6.0116343865e-06 -7.7845792985e-05 0.0000000000e+00 
          -6.5093387163e-06 -7.7855111312e-05 0.0000000000e+00 
          -6.9931326244e-06 -7.7824107817e-05 0.0000000000e+00 
          -7.4509218114e-06 -7.7867149949e-05 0.0000000000e+00 
          -7.8810733316e-06 -7.7828206197e-05 0.0000000000e+00 
          -8.2946336277e-06 -7.7840492424e-05 0.0000000000e+00 
          -8.6718386767e-06 -7.7873479605e-05 0.0000000000e+00 
          -9.0309590053e-06 -7.7800254015e-05 0.0000000000e+00 
          -9.3567601437e-06 -7.7881481834e-05 0.0000000000e+00 
          -9.6543088174e-06 -7.7827682896e-05 0.0000000000e+00 
          -9.9273770808e-06 -7.7840964736e-05 0.0000000000e+00 
          -1.0160894510e-05 -7.7856069816e-05 0.0000000000e+00 
          -1.0375776287e-05 -7.7834178506e-05 0.0000000000e+00 
          -1.0547199955e-05 -7.7847925028e-05 0.0000000000e+00 
          -1.0696968916e-05 -7.7845621186e-05 0.0000000000e+00 
          -1.0809479781e-05 -7.7838255729e-05 0.0000000000e+00 
          -1.0888553566e-05 -7.7855913177e-05 0.0000000000e+00 
          -1.0942815458e-05 -7.7826208793e-05 0.0000000000e+00 
          6.5295813556e-06 -7.7824376912e-05 0.0000000000e+00 
          5.8816103773e-06 -7.7879232319e-05 0.0000000000e+00 
          5.2306821388e-06 -7.7801059153e-05 0.0000000000e+00 
          4.5711527262e-06 -7.7891722880e-05 0.0000000000e+00 
          3.9075257076e-06 -7.7795687280e-05 0.0000000000e+00 
          3.2442276566e-06 -7.7892804049e-05 0.0000000000e+00 
          2.5756072389e-06 -7.7800595299e-05 0.0000000000e+00 
          1.9109588360e-06 -7.7872354830e-05 0.0000000000e+00 
          1.2470052837e-06 -7.7844571399e-05 0.0000000000e+00 
          5.8626319315e-07 -7.7815892510e-05 0.0000000000e+00 
          -6.7972373149e-08 -7.7883974473e-05 0.0000000000e+00 
          -7.1648550965e-07 -7.7815983728e-05 0.0000000000e+00 
          -1.3579001157e-06 -7.7849695275e-05 0.0000000000e+00 
          -1.9862264011e-06 -7.7856887468e-05 0.0000000000e+00 
          -2.6063651056e-06 -7.7826111975e-05 0.0000000000e+00 
          -3.2152900789e-06 -7.7857884117e-05 0.0000000000e+00 
          -3.8030674514e-06 -7.7839962876e-05 0.0000000000e+00 
          -4.3859697954e-06 -7.7838242365e-05 0.0000000000e+00 
          -4.9425562187e-06 -7.7856923566e-05 0.0000000000e+00 
          -5.4853569943e-06 -7.7832940379e-05 0.0000000000e+00 
          -6.0116343865e-06 -7.7845792985e-05 0.0000000000e+00 
          -6.5093387163e-06 -7.7855111312e-05 0.0000000000e+00 
          -6.9931326244e-06 -7.7824107817e-05 0.0000000000e+00 
          -7.4509218114e-06 -7.7867149949e-05 0.0000000000e+00 
          -7.8810733316e-06 -7.7828206197e-05 0.0000000000e+00 
          -8.2946336277e-06 -7.7840492424e-05 0.0000000000e+00 
          -8.6718386767e-06 -7.7873479605e-05 0.0000000000e+00 
          -9.0309590053e-06 -7.7800254015e-05 0.0000000000e+00 
          -9.3567601437e-06 -7.7881481834e-05 0.0000000000e+00 
          -9.6543088174e-06 -7.7827682896e-05 0.0000000000e+00 
          -9.9273770808e-06 -7.7840964736e-05 0.0000000000e+00 
          -1.0160894510e-05 -7.7856069816e-05 0.0000000000e+00 
          -1.0375776287e-05 -7.7834178506e-05 0.0000000000e+00 
          -1.0547199955e-05 -7.7847925028e-05 0.0000000000e+00 
          -1.0696968916e-05 -7.7845621186e-05 0.0000000000e+00 
          -1.0809479781e-05 -7.7838255729e-05 0.0000000000e+00 
          -1.0888553566e-05 -7.7855913177e-05 0.0000000000e+00 
          -1.0942815458e-05 -7.7826208793e-05 0.0000000000e+00 
        </DataArray>
        <DataArray type="Float64" Name="Displacement" NumberOfComponents="3" format="ascii">
          1.0624878513e-07 -6.5284792590e-04 0.0000000000e+00 
          1.0624878513e-07 -6.5284792590e-04 0.0000000000e+00 
          2.9694077282e-06 -6.7642827737e-04 0.0000000000e+00 
          2.9694077282e-06 -6.7642827737e-04 0.0000000000e+00 
          2.2502918078e-07 -6.5404167490e-04 0.0000000000e+00 
          3.4322943834e-07 -6.5520438773e-04 0.0000000000e+00 
          4.6064694642e-07 -6.5633615532e-04 0.0000000000e+00 
          5.7714942454e-07 -6.5743683898e-04 0.0000000000e+00 
          6.9254852398e-07 -6.5850658115e-04 0.0000000000e+00 
          8.0667618658e-07 -6.5954529707e-04 0.0000000000e+00 
          9.1939523168e-07 -6.6055297720e-04 0.0000000000e+00 
          1.0305077624e-06 -6.6152969601e-04 0.0000000000e+00 
          1.1398878924e-06 -6.6247538535e-04 0.0000000000e+00 
          1.2473631658e-06 -6.6339006786e-04 0.0000000000e+00 
          1.3527768421e-06 -6.6427374458e-04 0.0000000000e+00 
          1.4559949555e-06 -6.6512642093e-04 0.0000000000e+00 
          1.5568535683e-06 -6.6594811079e-04 0.0000000000e+00 
          1.6552142078e-06 -6.6673870056e-04 0.0000000000e+00 
          1.7509439823e-06 -6.6749846817e-04 0.0000000000e+00 
          1.8438901454e-06 -6.6822700235e-04 0.0000000000e+00 
          1.9339357455e-06 -6.6892470828e-04 0.0000000000e+00 
          2.0209391565e-06 -6.6959135577e-04 0.0000000000e+00 
          2.1047843631e-06 -6.7022690736e-04 0.0000000000e+00 
          2.1853416337e-06 -6.7083163555e-04 0.0000000000e+00 
          2.2625073295e-06 -6.7140516544e-04 0.0000000000e+00 
          2.3361568425e-06 -6.7194780584e-04 0.0000000000e+00 
          2.4061890209e-06 -6.7245944726e-04 0.0000000000e+00 
          2.4725139078e-06 -6.7293996493e-04 0.0000000000e+00 
          2.5350066185e-06 -6.7338962816e-04 0.0000000000e+00 
          2.5936129643e-06 -6.7380819057e-04 0.0000000000e+00 
          2.6482178842e-06 -6.7419573542e-04 0.0000000000e+00 
          2.6987547404e-06 -6.7455237676e-04 0.0000000000e+00 
          2.7451536505e-06 -6.7487786400e-04 0.0000000000e+00 
          2.7873337033e-06 -6.7517250292e-04 0.0000000000e+00 
          2.8252495943e-06 -6.7543597079e-04 0.0000000000e+00 
          2.8588299244e-06 -6.7566861158e-04 0.0000000000e+00 
          2.8880350931e-06 -6.7587006791e-04 0.0000000000e+00 
          2.9128255822e-06 -6.7604064904e-04 0.0000000000e+00 
          2.9331481465e-06 -6.7618018575e-04 0.0000000000e+00 
          2.9489956006e-06 -6.7628864930e-04 0.0000000000e+00 
          2.9603276401e-06 -6.7636625643e-04 0.0000000000e+00 
          2.9671296006e-06 -6.7641265636e-04 0.0000000000e+00 
          2.2502918078e-07 -6.5404167490e-04 0.0000000000e+00 
          3.4322943834e-07 -6.5520438773e-04 0.0000000000e+00 
          4.6064694642e-07 -6.5633615532e-04 0.0000000000e+00 
          5.7714942454e-07 -6.5743683898e-04 0.0000000000e+00 
          6.9254852398e-07 -6.5850658115e-04 0.0000000000e+00 
          8.0667618658e-07 -6.5954529707e-04 0.0000000000e+00 
          9.1939523168e-07 -6.6055297720e-04 0.0000000000e+00 
          1.0305077624e-06 -6.6152969601e-04 0.0000000000e+00 
          1.1398878924e-06 -6.6247538535e-04 0.0000000000e+00 
          1.2473631658e-06 -6.6339006786e-04 0.0000000000e+00 
          1.3527768421e-06 -6.6427374458e-04 0.0000000000e+00 
          1.4559949555e-06 -6.6512642093e-04 0.0000000000e+00 
          1.5568535683e-06 -6.6594811079e-04 0.0000000000e+00 
          1.6552142078e-06 -6.6673870056e-04 0.0000000000e+00 
          1.7509439823e-06 -6.6749846817e-04 0.0000000000e+00 
          1.8438901454e-06 -6.6822700235e-04 0.0000000000e+00 
          1.9339357455e-06 -6.6892470828e-04 0.0000000000e+00 
          2.0209391565e-06 -6.6959135577e-04 0.0000000000e+00 
          2.1047843631e-06 -6.7022690736e-04 0.0000000000e+00 
          2.1853416337e-06 -6.7083163555e-04 0.0000000000e+00 
          2.2625073295e-06 -6.7140516544e-04 0.0000000000e+00 
          2.3361568425e-06 -6.7194780584e-04 0.0000000000e+00 
          2.4061890209e-06 -6.7245944726e-04 0.0000000000e+00 
          2.4725139078e-06 -6.7293996493e-04 0.0000000000e+00 
          2.5350066185e-06 -6.7338962816e-04 0.0000000000e+00 
          2.5936129643e-06 -6.7380819057e-04 0.0000000000e+00 
          2.6482178842e-06 -6.7419573542e-04 0.0000000000e+00 
          2.6987547404e-06 -6.7455237676e-04 0.0000000000e+00 
          2.7451536505e-06 -6.7487786400e-04 0.0000000000e+00 
          2.7873337033e-06 -6.7517250292e-04 0.0000000000e+00 
          2.8252495943e-06 -6.7543597079e-04 0.0000000000e+00 
          2.8588299244e-06 -6.7566861158e-04 0.0000000000e+00 
          2.8880350931e-06 -6.7587006791e-04 0.0000000000e+00 
          2.9128255822e-06 -6.7604064904e-04 0.0000000000e+00 
          2.9331481465e-06 -6.7618018575e-04 0.0000000000e+00 
          2.9489956006e-06 -6.7628864930e-04 0.0000000000e+00 
          2.9603276401e-06 -6.7636625643e-04 0.0000000000e+00 
          2.9671296006e-06 -6.7641265636e-04 0.0000000000e+00 
        </DataArray>
        <DataArray type="Float64" Name="Acceleration" NumberOfComponents="3" format="ascii">
          -3.7991772491e-05 1.2555698040e-06 0.0000000000e+00 
          -3.7991772491e-05 1.2555698040e-06 0.0000000000e+00 
          -4.1052758578e-04 4.2471650111e-05 0.0000000000e+00 
          -4.1052758578e-04 4.2471650111e-05 0.0000000000e+00 
          -5.2271586229e-05 5.3751679933e-06 0.0000000000e+00 
          -7.0513567283e-05 -1.1270380204e-05 0.0000000000e+00 
          -8.2459812785e-05 1.4251430939e-05 0.0000000000e+00 
          -9.9416598532e-05 -1.1686537839e-05 0.0000000000e+00 
          -1.1455896923e-04 3.5899892781e-06 0.0000000000e+00 
          -1.2690609932e-04 5.0741793902e-06 0.0000000000e+00 
          -1.4476341785e-04 -7.8730492465e-06 0.0000000000e+00 
          -1.5609271950e-04 4.1699452548e-06 0.0000000000e+00 
          -1.7163134520e-04 8.8657616026e-08 0.0000000000e+00 
          -1.8574173962e-04 -3.0251370253e-07 0.0000000000e+00 
          -1.9783703453e-04 -8.6489657025e-07 0.0000000000e+00 
          -2.1259566535e-04 -3.5763702891e-06 0.0000000000e+00 
          -2.2507231835e-04 1.6894995730e-05 0.0000000000e+00 
          -2.3704613997e-04 -3.3188809713e-05 0.0000000000e+00 
          -2.5079816062e-04 4.0755046634e-05 0.0000000000e+00 
          -2.6135750957e-04 -3.1918341828e-05 0.0000000000e+00 
          -2.7410723952e-04 9.3900935894e-06 0.0000000000e+00 
          -2.8456046573e-04 1.6140240203e-05 0.0000000000e+00 
          -2.9624027482e-04 -3.3105067074e-05 0.0000000000e+00 
          -3.0559722334e-04 3.4738815821e-05 0.0000000000e+00 
          -3.1681500906e-04 -2.1057621841e-05 0.0000000000e+00 
          -3.2592900263e-04 -1.3237278593e-06 0.0000000000e+00 
          -3.3402672718e-04 2.1047124030e-05 0.0000000000e+00 
          -3.4529463341e-04 -2.7254635143e-05 0.0000000000e+00 
          -3.5016915466e-04 1.7025822804e-05 0.0000000000e+00 
          -3.6053638117e-04 2.0220361799e-06 0.0000000000e+00 
          -3.6654056937e-04 -1.8530327621e-05 0.0000000000e+00 
          -3.7283192016e-04 2.6555342055e-05 0.0000000000e+00 
          -3.8013305589e-04 -2.8394574574e-05 0.0000000000e+00 
          -3.8420940428e-04 2.9681411599e-05 0.0000000000e+00 
          -3.9064260082e-04 -3.2303275738e-05 0.0000000000e+00 
          -3.9420751271e-04 3.2056080666e-05 0.0000000000e+00 
          -3.9777503129e-04 -2.3581926109e-05 0.0000000000e+00 
          -4.0256884244e-04 6.8627265885e-06 0.0000000000e+00 
          -4.0321627225e-04 1.2041961136e-05 0.0000000000e+00 
          -4.0684671472e-04 -2.7028964515e-05 0.0000000000e+00 
          -4.0817064659e-04 3.6217017806e-05 0.0000000000e+00 
          -4.0760628544e-04 -4.0981537611e-05 0.0000000000e+00 
          -5.2271586229e-05 5.3751679933e-06 0.0000000000e+00 
          -7.0513567283e-05 -1.1270380204e-05 0.0000000000e+00 
          -8.2459812785e-05 1.4251430939e-05 0.0000000000e+00 
          -9.9416598532e-05 -1.1686537839e-05 0.0000000000e+00 
          -1.1455896923e-04 3.5899892781e-06 0.0000000000e+00 
          -1.2690609932e-04 5.0741793902e-06 0.0000000000e+00 
          -1.4476341785e-04 -7.8730492465e-06 0.0000000000e+00 
          -1.5609271950e-04 4.1699452548e-06 0.0000000000e+00 
          -1.7163134520e-04 8.8657616026e-08 0.0000000000e+00 
          -1.8574173962e-04 -3.0251370253e-07 0.0000000000e+00 
          -1.9783703453e-04 -8.6489657025e-07 0.0000000000e+00 
          -2.1259566535e-04 -3.5763702891e-06 0.0000000000e+00 
          -2.2507231835e-04 1.6894995730e-05 0.0000000000e+00 
          -2.3704613997e-04 -3.3188809713e-05 0.0000000000e+00 
          -2.5079816062e-04 4.0755046634e-05 0.0000000000e+00 
          -2.6135750957e-04 -3.1918341828e-05 0.0000000000e+00 
          -2.7410723952e-04 9.3900935894e-06 0.0000000000e+00 
          -2.8456046573e-04 1.6140240203e-05 0.0000000000e+00 
          -2.9624027482e-04 -3.3105067074e-05 0.0000000000e+00 
          -3.0559722334e-04 3.4738815821e-05 0.0000000000e+00 
          -3.1681500906e-04 -2.1057621841e-05 0.0000000000e+00 
          -3.2592900263e-04 -1.3237278593e-06 0.0000000000e+00 
          -3.3402672718e-04 2.1047124030e-05 0.0000000000e+00 
          -3.4529463341e-04 -2.7254635143e-05 0.0000000000e+00 
          -3.5016915466e-04 1.7025822804e-05 0.0000000000e+00 
          -3.6053638117e-04 2.0220361799e-06 0.0000000000e+00 
          -3.6654056937e-04 -1.8530327621e-05 0.0000000000e+00 
          -3.7283192016e-04 2.6555342055e-05 0.0000000000e+00 
          -3.8013305589e-04 -2.8394574574e-05 0.0000000000e+00 
          -3.8420940428e-04 2.9681411599e-05 0.0000000000e+00 
          -3.9064260082e-04 -3.2303275738e-05 0.0000000000e+00 
          -3.9420751271e-04 3.2056080666e-05 0.0000000000e+00 
          -3.9777503129e-04 -2.3581926109e-05 0.0000000000e+00 
          -4.0256884244e-04 6.8627265885e-06 0.0000000000e+00 
          -4.0321627225e-04 1.2041961136e-05 0.0000000000e+00 
          -4.0684671472e-04 -2.7028964515e-05 0.0000000000e+00 
          -4.0817064659e-04 3.6217017806e-05 0.0000000000e+00 
          -4.0760628544e-04 -4.0981537611e-05 0.0000000000e+00 
        </DataArray>
        <DataArray type="Float64" Name="Reaction" NumberOfComponents="3" format="ascii">
          0.0000000000e+00 0.0000000000e+00 0.0000000000e+00 
          0.0000000000e+00 0.0000000000e+00 0.0000000000e+00 
          0.0000000000e+00 0.0000000000e+00 0.0000000000e+00 
          0.0000000000e+00 0.0000000000e+00 0.0000000000e+00 
          0.0000000000e+00 0.0000000000e+00 0.0000000000e+00 
          0.0000000000e+00 0.0000000000e+00 0.0000000000e+00 
          0.0000000000e+00 0.0000000000e+00 0.0000000000e+00 
          0.0000000000e+00 0.0000000000e+00 0.0000000000e+00 
          0.0000000000e+00 0.0000000000e+00 0.0000000000e+00 
          0.0000000000e+00 0.0000000000e+00 0.0000000000e+00 
          0.0000000000e+00 0.0000000000e+00 0.0000000000e+00 
          0.0000000000e+00 0.0000000000e+00 0.0000000000e+00 
          0.0000000000e+00 0.0000000000e+00 0.0000000000e+00 
          0.0000000000e+00 0.0000000000e+00 0.0000000000e+00 
          0.0000000000e+00 0.0000000000e+00 0.0000000000e+00 
          0.0000000000e+00 0.0000000000e+00 0.0000000000e+00 
          0.0000000000e+00 0.0000000000e+00 0.0000000000e+00 
          0.0000000000e+00 0.0000000000e+00 0.0000000000e+00 
          0.0000000000e+00 0.0000000000e+00 0.0000000000e+00 
          0.0000000000e+00 0.0000000000e+00 0.0000000000e+00 
          0.0000000000e+00 0.0000000000e+00 0.0000000000e+00 
          0.0000000000e+00 0.0000000000e+00 0.0000000000e+00 
          0.0000000000e+00 0.0000000000e+00 0.0000000000e+00 
          0.0000000000e+00 0.0000000000e+00 0.0000000000e+00 
          0.0000000000e+00 0.0000000000e+00 0.0000000000e+00 
          0.0000000000e+00 0.0000000000e+00 0.0000000000e+00 
          0.0000000000e+00 0.0000000000e+00 0.0000000000e+00 
          0.0000000000e+00 0.0000000000e+00 0.0000000000e+00 
          0.0000000000e+00 0.0000000000e+00 0.0000000000e+00 
          0.0000000000e+00 0.0000000000e+00 0.0000000000e+00 
          0.0000000000e+00 0.0000000000e+00 0.0000000000e+00 
          0.0000000000e+00 0.0000000000e+00 0.0000000000e+00 
          0.0000000000e+00 0.0000000000e+00 0.0000000000e+00 
          0.0000000000e+00 0.0000000000e+00 0.0000000000e+00 
          0.0000000000e+00 0.0000000000e+00 0.0000000000e+00 
          0.0000000000e+00 0.0000000000e+00 0.0000000000e+00 
          0.0000000000e+00 0.0000000000e+00 0.0000000000e+00 
          0.0000000000e+00 0.0000000000e+00 0.0000000000e+00 
          0.0000000000e+00 0.0000000000e+00 0.0000000000e+00 
          0.0000000000e+00 0.0000000000e+00 0.0000000000e+00 
          0.0000000000e+00 0.0000000000e+00 0.0000000000e+00 
          0.0000000000e+00 0.0000000000e+00 0.0000000000e+00 
          0.0000000000e+00 0.0000000000e+00 0.0000000000e+00 
          0.0000000000e+00 0.0000000000e+00 0.0000000000e+00 
          0.0000000000e+00 0.0000000000e+00 0.0000000000e+00 
          0.0000000000e+00 0.0000000000e+00 0.0000000000e+00 
          0.0000000000e+00 0.0000000000e+00 0.0000000000e+00 
          0.0000000000e+00 0.0000000000e+00 0.0000000000e+00 
          0.0000000000e+00 0.0000000000e+00 0.0000000000e+00 
          0.0000000000e+00 0.0000000000e+00 0.0000000000e+00 
          0.0000000000e+00 0.0000000000e+00 0.0000000000e+00 
          0.0000000000e+00 0.0000000000e+00 0.0000000000e+00 
          0.0000000000e+00 0.0000000000e+00 0.0000000000e+00 
          0.0000000000e+00 0.0000000000e+00 0.0000000000e+00 
          0.0000000000e+00 0.0000000000e+00 0.0000000000e+00 
          0.0000000000e+00 0.0000000000e+00 0.0000000000e+00 
          0.0000000000e+00 0.0000000000e+00 0.0000000000e+00 
          0.0000000000e+00 0.0000000000e+00 0.0000000000e+00 
          0.0000000000e+00 0.0000000000e+00 0.0000000000e+00 
          0.0000000000e+00 0.0000000000e+00 0.0000000000e+00 
          0.0000000000e+00 0.0000000000e+00 0.0000000000e+00 
          0.0000000000e+00 0.0000000000e+00 0.0000000000e+00 
          0.0000000000e+00 0.0000000000e+00 0.0000000000e+00 
          0.0000000000e+00 0.0000000000e+00 0.0000000000e+00 
          0.0000000000e+00 0.0000000000e+00 0.0000000000e+00 
          0.0000000000e+00 0.0000000000e+00 0.0000000000e+00 
          0.0000000000e+00 0.0000000000e+00 0.0000000000e+00 
          0.0000000000e+00 0.0000000000e+00 0.0000000000e+00 
          0.0000000000e+00 0.0000000000e+00 0.0000000000e+00 
          0.0000000000e+00 0.0000000000e+00 0.0000000000e+00 
          0.0000000000e+00 0.0000000000e+00 0.0000000000e+00 
          0.0000000000e+00 0.0000000000e+00 0.0000000000e+00 
          0.0000000000e+00 0.0000000000e+00 0.0000000000e+00 
          0.0000000000e+00 0.0000000000e+00 0.0000000000e+00 
          0.0000000000e+00 0.0000000000e+00 0.0000000000e+00 
          0.0000000000e+00 0.0000000000e+00 0.0000000000e+00 
          0.0000000000e+00 0.0000000000e+00 0.0000000000e+00 
          0.0000000000e+00 0.0000000000e+00 0.0000000000e+00 
          0.0000000000e+00 0.0000000000e+00 0.0000000000e+00 
          0.0000000000e+00 0.0000000000e+00 0.0000000000e+00 
        </DataArray>
      </PointData>
      <CellData>
        <DataArray type="Int64" Name="ElementTag" format="ascii">
          90
          91
          92
          93
          94
          95
          96
          97
          98
          99
          100
          101
          102
          103
          104
          105
          106
          107
          108
          109
          110
          111
          112
          113
          114
          115
          116
          117
          118
          119
          120
          121
          122
          123
          124
          125
          126
          127
          128
        </DataArray>
      </CellData>
    </Piece>
  </UnstructuredGrid>
</VTKFile>
