<?xml version="1.0"?>
<VTKFile type="UnstructuredGrid" version="1.0" byte_order="LittleEndian" compressor="vtkZLibDataCompressor">
  <UnstructuredGrid>
    <Piece NumberOfPoints="80" NumberOfCells="39">
      <Points>
        <DataArray type="Float64" Name="Points" NumberOfComponents="3" format="ascii">
          0.0000000000e+00 0.0000000000e+00 0.0000000000e+00 
          2.5000000000e-01 0.0000000000e+00 0.0000000000e+00 
          2.5000000000e-01 3.0000000000e+01 0.0000000000e+00 
          0.0000000000e+00 3.0000000000e+01 0.0000000000e+00 
          2.5000000000e-01 7.6923100000e-01 0.0000000000e+00 
          2.5000000000e-01 1.5384620000e+00 0.0000000000e+00 
          2.5000000000e-01 2.3076920000e+00 0.0000000000e+00 
          2.5000000000e-01 3.0769230000e+00 0.0000000000e+00 
          2.5000000000e-01 3.8461540000e+00 0.0000000000e+00 
          2.5000000000e-01 4.6153850000e+00 0.0000000000e+00 
          2.5000000000e-01 5.3846150000e+00 0.0000000000e+00 
          2.5000000000e-01 6.1538460000e+00 0.0000000000e+00 
          2.5000000000e-01 6.9230770000e+00 0.0000000000e+00 
          2.5000000000e-01 7.6923080000e+00 0.0000000000e+00 
          2.5000000000e-01 8.4615380000e+00 0.0000000000e+00 
          2.5000000000e-01 9.2307690000e+00 0.0000000000e+00 
          2.5000000000e-01 1.0000000000e+01 0.0000000000e+00 
          2.5000000000e-01 1.0769231000e+01 0.0000000000e+00 
          2.5000000000e-01 1.1538462000e+01 0.0000000000e+00 
          2.5000000000e-01 1.2307692000e+01 0.0000000000e+00 
          2.5000000000e-01 1.3076923000e+01 0.0000000000e+00 
          2.5000000000e-01 1.3846154000e+01 0.0000000000e+00 
          2.5000000000e-01 1.4615385000e+01 0.0000000000e+00 
          2.5000000000e-01 1.5384615000e+01 0.0000000000e+00 
          2.5000000000e-01 1.6153846000e+01 0.0000000000e+00 
          2.5000000000e-01 1.6923077000e+01 0.0000000000e+00 
          2.5000000000e-01 1.7692308000e+01 0.0000000000e+00 
          2.5000000000e-01 1.8461538000e+01 0.0000000000e+00 
          2.5000000000e-01 1.9230769000e+01 0.0000000000e+00 
          2.5000000000e-01 2.0000000000e+01 0.0000000000e+00 
          2.5000000000e-01 2.0769231000e+01 0.0000000000e+00 
          2.5000000000e-01 2.1538462000e+01 0.0000000000e+00 
          2.5000000000e-01 2.2307692000e+01 0.0000000000e+00 
          2.5000000000e-01 2.3076923000e+01 0.0000000000e+00 
          2.5000000000e-01 2.3846154000e+01 0.0000000000e+00 
          2.5000000000e-01 2.4615385000e+01 0.0000000000e+00 
          2.5000000000e-01 2.5384615000e+01 0.0000000000e+00 
          2.5000000000e-01 2.6153846000e+01 0.0000000000e+00 
          2.5000000000e-01 2.6923077000e+01 0.0000000000e+00 
          2.5000000000e-01 2.7692308000e+01 0.0000000000e+00 
          2.5000000000e-01 2.8461538000e+01 0.0000000000e+00 
          2.5000000000e-01 2.9230769000e+01 0.0000000000e+00 
          0.0000000000e+00 7.6923100000e-01 0.0000000000e+00 
          0.0000000000e+00 1.5384620000e+00 0.0000000000e+00 
          0.0000000000e+00 2.3076920000e+00 0.0000000000e+00 
          0.0000000000e+00 3.0769230000e+00 0.0000000000e+00 
          0.0000000000e+00 3.8461540000e+00 0.0000000000e+00 
          0.0000000000e+00 4.6153850000e+00 0.0000000000e+00 
          0.0000000000e+00 5.3846150000e+00 0.0000000000e+00 
          0.0000000000e+00 6.1538460000e+00 0.0000000000e+00 
          0.0000000000e+00 6.9230770000e+00 0.0000000000e+00 
          0.0000000000e+00 7.6923080000e+00 0.0000000000e+00 
          0.0000000000e+00 8.4615380000e+00 0.0000000000e+00 
          0.0000000000e+00 9.2307690000e+00 0.0000000000e+00 
          0.0000000000e+00 1.0000000000e+01 0.0000000000e+00 
          0.0000000000e+00 1.0769231000e+01 0.0000000000e+00 
          0.0000000000e+00 1.1538462000e+01 0.0000000000e+00 
          0.0000000000e+00 1.2307692000e+01 0.0000000000e+00 
          0.0000000000e+00 1.3076923000e+01 0.0000000000e+00 
          0.0000000000e+00 1.3846154000e+01 0.0000000000e+00 
          0.0000000000e+00 1.4615385000e+01 0.0000000000e+00 
          0.0000000000e+00 1.5384615000e+01 0.0000000000e+00 
          0.0000000000e+00 1.6153846000e+01 0.0000000000e+00 
          0.0000000000e+00 1.6923077000e+01 0.0000000000e+00 
          0.0000000000e+00 1.7692308000e+01 0.0000000000e+00 
          0.0000000000e+00 1.8461538000e+01 0.0000000000e+00 
          0.0000000000e+00 1.9230769000e+01 0.0000000000e+00 
          0.0000000000e+00 2.0000000000e+01 0.0000000000e+00 
          0.0000000000e+00 2.0769231000e+01 0.0000000000e+00 
          0.0000000000e+00 2.1538462000e+01 0.0000000000e+00 
          0.0000000000e+00 2.2307692000e+01 0.0000000000e+00 
          0.0000000000e+00 2.3076923000e+01 0.0000000000e+00 
          0.0000000000e+00 2.3846154000e+01 0.0000000000e+00 
          0.0000000000e+00 2.4615385000e+01 0.0000000000e+00 
          0.0000000000e+00 2.5384615000e+01 0.0000000000e+00 
          0.0000000000e+00 2.6153846000e+01 0.0000000000e+00 
          0.0000000000e+00 2.6923077000e+01 0.0000000000e+00 
          0.0000000000e+00 2.7692308000e+01 0.0000000000e+00 
          0.0000000000e+00 2.8461538000e+01 0.0000000000e+00 
          0.0000000000e+00 2.9230769000e+01 0.0000000000e+00 
        </DataArray>
      </Points>
      <Cells>
        <DataArray type="Int64" Name="connectivity" format="ascii">
          0 1 4 42 
          42 4 5 43 
          43 5 6 44 
          44 6 7 45 
          45 7 8 46 
          46 8 9 47 
          47 9 10 48 
          48 10 11 49 
          49 11 12 50 
          50 12 13 51 
          51 13 14 52 
          52 14 15 53 
          53 15 16 54 
          54 16 17 55 
          55 17 18 56 
          56 18 19 57 
          57 19 20 58 
          58 20 21 59 
          59 21 22 60 
          60 22 23 61 
          61 23 24 62 
          62 24 25 63 
          63 25 26 64 
          64 26 27 65 
          65 27 28 66 
          66 28 29 67 
          67 29 30 68 
          68 30 31 69 
          69 31 32 70 
          70 32 33 71 
          71 33 34 72 
          72 34 35 73 
          73 35 36 74 
          74 36 37 75 
          75 37 38 76 
          76 38 39 77 
          77 39 40 78 
          78 40 41 79 
          79 41 2 3 
        </DataArray>
        <DataArray type="Int64" Name="offsets" format="ascii">
          4
          8
          12
          16
          20
          24
          28
          32
          36
          40
          44
          48
          52
          56
          60
          64
          68
          72
          76
          80
          84
          88
          92
          96
          100
          104
          108
          112
          116
          120
          124
          128
          132
          136
          140
          144
          148
          152
          156
        </DataArray>
        <DataArray type="Int64" Name="types" format="ascii">
          9
          9
          9
          9
          9
          9
          9
          9
          9
          9
          9
          9
          9
          9
          9
          9
          9
          9
          9
          9
          9
          9
          9
          9
          9
          9
          9
          9
          9
          9
          9
          9
          9
          9
          9
          9
          9
          9
          9
        </DataArray>
      </Cells>
      <PointData>
        <DataArray type="Int64" Name="NodeTag" format="ascii">
          1
          2
          3
          4
          7
          8
          9
          10
          11
          12
          13
          14
          15
          16
          17
          18
          19
          20
          21
          22
          23
          24
          25
          26
          27
          28
          29
          30
          31
          32
          33
          34
          35
          36
          37
          38
          39
          40
          41
          42
          43
          44
          45
          46
          47
          48
          49
          50
          51
          52
          53
          54
          55
          56
          57
          58
          59
          60
          61
          62
          63
          64
          65
          66
          67
          68
          69
          70
          71
          72
          73
          74
          75
          76
          77
          78
          79
          80
          81
          82
        </DataArray>
        <DataArray type="Float64" Name="Velocity" NumberOfComponents="3" format="ascii">
          2.1768219140e-02 -8.0617589801e-05 0.0000000000e+00 
          2.1768219140e-02 -8.0617589801e-05 0.0000000000e+00 
          1.4949713780e-03 -6.5945747318e-05 0.0000000000e+00 
          1.4949713780e-03 -6.5945747318e-05 0.0000000000e+00 
          2.0338712340e-02 -8.0133951785e-05 0.0000000000e+00 
          1.8984420186e-02 -7.9891348961e-05 0.0000000000e+00 
          1.7703021125e-02 -7.9346586769e-05 0.0000000000e+00 
          1.6492127388e-02 -7.8402504721e-05 0.0000000000e+00 
          1.5349300519e-02 -7.7489517519e-05 0.0000000000e+00 
          1.4272075650e-02 -7.6506071444e-05 0.0000000000e+00 
          1.3257967753e-02 -7.5812462494e-05 0.0000000000e+00 
          1.2304482223e-02 -7.4745601059e-05 0.0000000000e+00 
          1.1409136559e-02 -7.3561918608e-05 0.0000000000e+00 
          1.0569461660e-02 -7.2449124941e-05 0.0000000000e+00 
          9.7830157468e-03 -7.1619697140e-05 0.0000000000e+00 
          9.0473905367e-03 -7.0623272582e-05 0.0000000000e+00 
          8.3602244230e-03 -6.9969078667e-05 0.0000000000e+00 
          7.7192066396e-03 -6.9792995606e-05 0.0000000000e+00 
          7.1220845435e-03 -6.9209134468e-05 0.0000000000e+00 
          6.5666694545e-03 -6.8655388477e-05 0.0000000000e+00 
          6.0508401599e-03 -6.8104819829e-05 0.0000000000e+00 
          5.5725520420e-03 -6.7778317556e-05 0.0000000000e+00 
          5.1298372017e-03 -6.7465485910e-05 0.0000000000e+00 
          4.7208093557e-03 -6.7001646739e-05 0.0000000000e+00 
          4.3436652126e-03 -6.6319532798e-05 0.0000000000e+00 
          3.9966896258e-03 -6.6275070584e-05 0.0000000000e+00 
          3.6782551107e-03 -6.6657499667e-05 0.0000000000e+00 
          3.3868248311e-03 -6.6356680779e-05 0.0000000000e+00 
          3.1209526401e-03 -6.6221693297e-05 0.0000000000e+00 
          2.8792859647e-03 -6.6499440320e-05 0.0000000000e+00 
          2.6605646983e-03 -6.6438074101e-05 0.0000000000e+00 
          2.4636222365e-03 -6.6209541739e-05 0.0000000000e+00 
          2.2873861577e-03 -6.6209260167e-05 0.0000000000e+00 
          2.1308774131e-03 -6.6096645917e-05 0.0000000000e+00 
          1.9932116113e-03 -6.5784159245e-05 0.0000000000e+00 
          1.8735979771e-03 -6.6170259631e-05 0.0000000000e+00 
          1.7713395754e-03 -6.6400060852e-05 0.0000000000e+00 
          1.6858326309e-03 -6.6017751813e-05 0.0000000000e+00 
          1.6165671309e-03 -6.6055807926e-05 0.0000000000e+00 
          1.5631260438e-03 -6.6004892127e-05 0.0000000000e+00 
          1.5251852673e-03 -6.6234605375e-05 0.0000000000e+00 
          1.5025132883e-03 -6.6224250746e-05 0.0000000000e+00 
          2.0338712340e-02 -8.0133951785e-05 0.0000000000e+00 
          1.8984420186e-02 -7.9891348961e-05 0.0000000000e+00 
          1.7703021125e-02 -7.9346586769e-05 0.0000000000e+00 
          1.6492127388e-02 -7.8402504721e-05 0.0000000000e+00 
          1.5349300519e-02 -7.7489517519e-05 0.0000000000e+00 
          1.4272075650e-02 -7.6506071444e-05 0.0000000000e+00 
          1.3257967753e-02 -7.5812462494e-05 0.0000000000e+00 
          1.2304482223e-02 -7.4745601059e-05 0.0000000000e+00 
          1.1409136559e-02 -7.3561918608e-05 0.0000000000e+00 
          1.0569461660e-02 -7.2449124941e-05 0.0000000000e+00 
          9.7830157468e-03 -7.1619697140e-05 0.0000000000e+00 
          9.0473905367e-03 -7.0623272582e-05 0.0000000000e+00 
          8.3602244230e-03 -6.9969078667e-05 0.0000000000e+00 
          7.7192066396e-03 -6.9792995606e-05 0.0000000000e+00 
          7.1220845435e-03 -6.9209134468e-05 0.0000000000e+00 
          6.5666694545e-03 -6.8655388477e-05 0.0000000000e+00 
          6.0508401599e-03 -6.8104819829e-05 0.0000000000e+00 
          5.5725520420e-03 -6.7778317556e-05 0.0000000000e+00 
          5.1298372017e-03 -6.7465485910e-05 0.0000000000e+00 
          4.7208093557e-03 -6.7001646739e-05 0.0000000000e+00 
          4.3436652126e-03 -6.6319532798e-05 0.0000000000e+00 
          3.9966896258e-03 -6.6275070584e-05 0.0000000000e+00 
          3.6782551107e-03 -6.6657499667e-05 0.0000000000e+00 
          3.3868248311e-03 -6.6356680779e-05 0.0000000000e+00 
          3.1209526401e-03 -6.6221693297e-05 0.0000000000e+00 
          2.8792859647e-03 -6.6499440320e-05 0.0000000000e+00 
          2.6605646983e-03 -6.6438074101e-05 0.0000000000e+00 
          2.4636222365e-03 -6.6209541739e-05 0.0000000000e+00 
          2.2873861577e-03 -6.6209260167e-05 0.0000000000e+00 
          2.1308774131e-03 -6.6096645917e-05 0.0000000000e+00 
          1.9932116113e-03 -6.5784159245e-05 0.0000000000e+00 
          1.8735979771e-03 -6.6170259631e-05 0.0000000000e+00 
          1.7713395754e-03 -6.6400060852e-05 0.0000000000e+00 
          1.6858326309e-03 -6.6017751813e-05 0.0000000000e+00 
          1.6165671309e-03 -6.6055807926e-05 0.0000000000e+00 
          1.5631260438e-03 -6.6004892127e-05 0.0000000000e+00 
          1.5251852673e-03 -6.6234605375e-05 0.0000000000e+00 
          1.5025132883e-03 -6.6224250746e-05 0.0000000000e+00 
        </DataArray>
        <DataArray type="Float64" Name="Displacement" NumberOfComponents="3" format="ascii">
          9.2202828038e-04 -1.3140141575e-04 0.0000000000e+00 
          9.2202828038e-04 -1.3140141575e-04 0.0000000000e+00 
          4.4168690256e-05 -1.5615076619e-04 0.0000000000e+00 
          4.4168690256e-05 -1.5615076619e-04 0.0000000000e+00 
          8.5196579393e-04 -1.3263815760e-04 0.0000000000e+00 
          7.8654602322e-04 -1.3384263505e-04 0.0000000000e+00 
          7.2552326295e-04 -1.3501609879e-04 0.0000000000e+00 
          6.6865953143e-04 -1.3615886658e-04 0.0000000000e+00 
          6.1572528054e-04 -1.3727045685e-04 0.0000000000e+00 
          5.6649921391e-04 -1.3835084715e-04 0.0000000000e+00 
          5.2076851989e-04 -1.3940065324e-04 0.0000000000e+00 
          4.7832871118e-04 -1.4041852436e-04 0.0000000000e+00 
          4.3898399452e-04 -1.4140507730e-04 0.0000000000e+00 
          4.0254701777e-04 -1.4236133751e-04 0.0000000000e+00 
          3.6883893577e-04 -1.4328580233e-04 0.0000000000e+00 
          3.3768916378e-04 -1.4417954495e-04 0.0000000000e+00 
          3.0893554156e-04 -1.4504243161e-04 0.0000000000e+00 
          2.8242403491e-04 -1.4587471442e-04 0.0000000000e+00 
          2.5800863912e-04 -1.4667661717e-04 0.0000000000e+00 
          2.3555125197e-04 -1.4744578651e-04 0.0000000000e+00 
          2.1492138981e-04 -1.4818317393e-04 0.0000000000e+00 
          1.9599617734e-04 -1.4888887256e-04 0.0000000000e+00 
          1.7866003702e-04 -1.4956185801e-04 0.0000000000e+00 
          1.6280454252e-04 -1.5020323645e-04 0.0000000000e+00 
          1.4832813510e-04 -1.5081194502e-04 0.0000000000e+00 
          1.3513604107e-04 -1.5138759876e-04 0.0000000000e+00 
          1.2313998368e-04 -1.5193011581e-04 0.0000000000e+00 
          1.1225801494e-04 -1.5243988962e-04 0.0000000000e+00 
          1.0241425909e-04 -1.5291708816e-04 0.0000000000e+00 
          9.3538800636e-05 -1.5336220359e-04 0.0000000000e+00 
          8.5567437697e-05 -1.5377499474e-04 0.0000000000e+00 
          7.8441515610e-05 -1.5415485460e-04 0.0000000000e+00 
          7.2107761471e-05 -1.5450138734e-04 0.0000000000e+00 
          6.6518088856e-05 -1.5481454890e-04 0.0000000000e+00 
          6.1629494847e-05 -1.5509488390e-04 0.0000000000e+00 
          5.7403886146e-05 -1.5534172788e-04 0.0000000000e+00 
          5.3807964625e-05 -1.5555556855e-04 0.0000000000e+00 
          5.0813095347e-05 -1.5573665606e-04 0.0000000000e+00 
          4.8395234219e-05 -1.5588503886e-04 0.0000000000e+00 
          4.6534822846e-05 -1.5600021899e-04 0.0000000000e+00 
          4.5216724363e-05 -1.5608348033e-04 0.0000000000e+00 
          4.4430162125e-05 -1.5613415710e-04 0.0000000000e+00 
          8.5196579393e-04 -1.3263815760e-04 0.0000000000e+00 
          7.8654602322e-04 -1.3384263505e-04 0.0000000000e+00 
          7.2552326295e-04 -1.3501609879e-04 0.0000000000e+00 
          6.6865953143e-04 -1.3615886658e-04 0.0000000000e+00 
          6.1572528054e-04 -1.3727045685e-04 0.0000000000e+00 
          5.6649921391e-04 -1.3835084715e-04 0.0000000000e+00 
          5.2076851989e-04 -1.3940065324e-04 0.0000000000e+00 
          4.7832871118e-04 -1.4041852436e-04 0.0000000000e+00 
          4.3898399452e-04 -1.4140507730e-04 0.0000000000e+00 
          4.0254701777e-04 -1.4236133751e-04 0.0000000000e+00 
          3.6883893577e-04 -1.4328580233e-04 0.0000000000e+00 
          3.3768916378e-04 -1.4417954495e-04 0.0000000000e+00 
          3.0893554156e-04 -1.4504243161e-04 0.0000000000e+00 
          2.8242403491e-04 -1.4587471442e-04 0.0000000000e+00 
          2.5800863912e-04 -1.4667661717e-04 0.0000000000e+00 
          2.3555125197e-04 -1.4744578651e-04 0.0000000000e+00 
          2.1492138981e-04 -1.4818317393e-04 0.0000000000e+00 
          1.9599617734e-04 -1.4888887256e-04 0.0000000000e+00 
          1.7866003702e-04 -1.4956185801e-04 0.0000000000e+00 
          1.6280454252e-04 -1.5020323645e-04 0.0000000000e+00 
          1.4832813510e-04 -1.5081194502e-04 0.0000000000e+00 
          1.3513604107e-04 -1.5138759876e-04 0.0000000000e+00 
          1.2313998368e-04 -1.5193011581e-04 0.0000000000e+00 
          1.1225801494e-04 -1.5243988962e-04 0.0000000000e+00 
          1.0241425909e-04 -1.5291708816e-04 0.0000000000e+00 
          9.3538800636e-05 -1.5336220359e-04 0.0000000000e+00 
          8.5567437697e-05 -1.5377499474e-04 0.0000000000e+00 
          7.8441515610e-05 -1.5415485460e-04 0.0000000000e+00 
          7.2107761471e-05 -1.5450138734e-04 0.0000000000e+00 
          6.6518088856e-05 -1.5481454890e-04 0.0000000000e+00 
          6.1629494847e-05 -1.5509488390e-04 0.0000000000e+00 
          5.7403886146e-05 -1.5534172788e-04 0.0000000000e+00 
          5.3807964625e-05 -1.5555556855e-04 0.0000000000e+00 
          5.0813095347e-05 -1.5573665606e-04 0.0000000000e+00 
          4.8395234219e-05 -1.5588503886e-04 0.0000000000e+00 
          4.6534822846e-05 -1.5600021899e-04 0.0000000000e+00 
          4.5216724363e-05 -1.5608348033e-04 0.0000000000e+00 
          4.4430162125e-05 -1.5613415710e-04 0.0000000000e+00 
        </DataArray>
        <DataArray type="Float64" Name="Acceleration" NumberOfComponents="3" format="ascii">
          4.4116853730e-01 2.8770322703e-05 0.0000000000e+00 
          4.4116853730e-01 2.8770322703e-05 0.0000000000e+00 
          4.7118263566e-02 3.9858158660e-04 0.0000000000e+00 
          4.7118263566e-02 3.9858158660e-04 0.0000000000e+00 
          4.1831785598e-01 2.2670814790e-04 0.0000000000e+00 
          3.9617243479e-01 1.0572397957e-06 0.0000000000e+00 
          3.7474409424e-01 -5.5654087521e-05 0.0000000000e+00 
          3.5405396596e-01 3.0847338782e-05 0.0000000000e+00 
          3.3411472376e-01 3.4894644173e-05 0.0000000000e+00 
          3.1493482403e-01 -7.6313606641e-05 0.0000000000e+00 
          2.9652081383e-01 1.6759482881e-04 0.0000000000e+00 
          2.7887390657e-01 5.6195172256e-05 0.0000000000e+00 
          2.6199310843e-01 -1.2859440386e-04 0.0000000000e+00 
          2.4587501754e-01 1.4197546855e-04 0.0000000000e+00 
          2.3051288156e-01 -5.0979703707e-05 0.0000000000e+00 
          2.1589782694e-01 -2.7100833314e-05 0.0000000000e+00 
          2.0201904033e-01 -7.2528681864e-05 0.0000000000e+00 
          1.8886372795e-01 -1.1285644631e-04 0.0000000000e+00 
          1.7641792950e-01 3.1104800628e-04 0.0000000000e+00 
          1.6466634859e-01 1.3994717019e-04 0.0000000000e+00 
          1.5359230273e-01 1.2297901061e-04 0.0000000000e+00 
          1.4317853951e-01 3.0758176651e-04 0.0000000000e+00 
          1.3340734211e-01 1.0809775140e-04 0.0000000000e+00 
          1.2426040667e-01 2.9992736827e-04 0.0000000000e+00 
          1.1571917318e-01 3.6914833197e-04 0.0000000000e+00 
          1.0776526310e-01 3.8389726318e-04 0.0000000000e+00 
          1.0038037817e-01 3.1288060398e-04 0.0000000000e+00 
          9.3546366846e-02 2.8285077284e-04 0.0000000000e+00 
          8.7245507989e-02 1.9404024621e-04 0.0000000000e+00 
          8.1460791221e-02 2.3749800107e-04 0.0000000000e+00 
          7.6175890351e-02 3.4688448267e-04 0.0000000000e+00 
          7.1375201073e-02 4.1813602167e-04 0.0000000000e+00 
          6.7044000206e-02 4.2623888712e-04 0.0000000000e+00 
          6.3168566885e-02 3.2801291068e-04 0.0000000000e+00 
          5.9736285517e-02 4.4774892994e-04 0.0000000000e+00 
          5.6735674181e-02 3.5981649587e-04 0.0000000000e+00 
          5.4156450462e-02 3.1483736430e-04 0.0000000000e+00 
          5.1989573753e-02 3.0605476316e-04 0.0000000000e+00 
          5.0227323822e-02 3.9578643601e-04 0.0000000000e+00 
          4.8863339810e-02 1.6441393575e-04 0.0000000000e+00 
          4.7892650877e-02 2.8442541944e-04 0.0000000000e+00 
          4.7311679169e-02 5.5166729518e-04 0.0000000000e+00 
          4.1831785598e-01 2.2670814790e-04 0.0000000000e+00 
          3.9617243479e-01 1.0572397957e-06 0.0000000000e+00 
          3.7474409424e-01 -5.5654087521e-05 0.0000000000e+00 
          3.5405396596e-01 3.0847338782e-05 0.0000000000e+00 
          3.3411472376e-01 3.4894644173e-05 0.0000000000e+00 
          3.1493482403e-01 -7.6313606641e-05 0.0000000000e+00 
          2.9652081383e-01 1.6759482881e-04 0.0000000000e+00 
          2.7887390657e-01 5.6195172256e-05 0.0000000000e+00 
          2.6199310843e-01 -1.2859440386e-04 0.0000000000e+00 
          2.4587501754e-01 1.4197546855e-04 0.0000000000e+00 
          2.3051288156e-01 -5.0979703707e-05 0.0000000000e+00 
          2.1589782694e-01 -2.7100833314e-05 0.0000000000e+00 
          2.0201904033e-01 -7.2528681864e-05 0.0000000000e+00 
          1.8886372795e-01 -1.1285644631e-04 0.0000000000e+00 
          1.7641792950e-01 3.1104800628e-04 0.0000000000e+00 
          1.6466634859e-01 1.3994717019e-04 0.0000000000e+00 
          1.5359230273e-01 1.2297901061e-04 0.0000000000e+00 
          1.4317853951e-01 3.0758176651e-04 0.0000000000e+00 
          1.3340734211e-01 1.0809775140e-04 0.0000000000e+00 
          1.2426040667e-01 2.9992736827e-04 0.0000000000e+00 
          1.1571917318e-01 3.6914833197e-04 0.0000000000e+00 
          1.0776526310e-01 3.8389726318e-04 0.0000000000e+00 
          1.0038037817e-01 3.1288060398e-04 0.0000000000e+00 
          9.3546366846e-02 2.8285077284e-04 0.0000000000e+00 
          8.7245507989e-02 1.9404024621e-04 0.0000000000e+00 
          8.1460791221e-02 2.3749800107e-04 0.0000000000e+00 
          7.6175890351e-02 3.4688448267e-04 0.0000000000e+00 
          7.1375201073e-02 4.1813602167e-04 0.0000000000e+00 
          6.7044000206e-02 4.2623888712e-04 0.0000000000e+00 
          6.3168566885e-02 3.2801291068e-04 0.0000000000e+00 
          5.9736285517e-02 4.4774892994e-04 0.0000000000e+00 
          5.6735674181e-02 3.5981649587e-04 0.0000000000e+00 
          5.4156450462e-02 3.1483736430e-04 0.0000000000e+00 
          5.1989573753e-02 3.0605476316e-04 0.0000000000e+00 
          5.0227323822e-02 3.9578643601e-04 0.0000000000e+00 
          4.8863339810e-02 1.6441393575e-04 0.0000000000e+00 
          4.7892650877e-02 2.8442541944e-04 0.0000000000e+00 
          4.7311679169e-02 5.5166729518e-04 0.0000000000e+00 
        </DataArray>
        <DataArray type="Float64" Name="Reaction" NumberOfComponents="3" format="ascii">
          0.0000000000e+00 0.0000000000e+00 0.0000000000e+00 
          0.0000000000e+00 0.0000000000e+00 0.0000000000e+00 
          0.0000000000e+00 0.0000000000e+00 0.0000000000e+00 
          0.0000000000e+00 0.0000000000e+00 0.0000000000e+00 
          0.0000000000e+00 0.0000000000e+00 0.0000000000e+00 
          0.0000000000e+00 0.0000000000e+00 0.0000000000e+00 
          0.0000000000e+00 0.0000000000e+00 0.0000000000e+00 
          0.0000000000e+00 0.0000000000e+00 0.0000000000e+00 
          0.0000000000e+00 0.0000000000e+00 0.0000000000e+00 
          0.0000000000e+00 0.0000000000e+00 0.0000000000e+00 
          0.0000000000e+00 0.0000000000e+00 0.0000000000e+00 
          0.0000000000e+00 0.0000000000e+00 0.0000000000e+00 
          0.0000000000e+00 0.0000000000e+00 0.0000000000e+00 
          0.0000000000e+00 0.0000000000e+00 0.0000000000e+00 
          0.0000000000e+00 0.0000000000e+00 0.0000000000e+00 
          0.0000000000e+00 0.0000000000e+00 0.0000000000e+00 
          0.0000000000e+00 0.0000000000e+00 0.0000000000e+00 
          0.0000000000e+00 0.0000000000e+00 0.0000000000e+00 
          0.0000000000e+00 0.0000000000e+00 0.0000000000e+00 
          0.0000000000e+00 0.0000000000e+00 0.0000000000e+00 
          0.0000000000e+00 0.0000000000e+00 0.0000000000e+00 
          0.0000000000e+00 0.0000000000e+00 0.0000000000e+00 
          0.0000000000e+00 0.0000000000e+00 0.0000000000e+00 
          0.0000000000e+00 0.0000000000e+00 0.0000000000e+00 
          0.0000000000e+00 0.0000000000e+00 0.0000000000e+00 
          0.0000000000e+00 0.0000000000e+00 0.0000000000e+00 
          0.0000000000e+00 0.0000000000e+00 0.0000000000e+00 
          0.0000000000e+00 0.0000000000e+00 0.0000000000e+00 
          0.0000000000e+00 0.0000000000e+00 0.0000000000e+00 
          0.0000000000e+00 0.0000000000e+00 0.0000000000e+00 
          0.0000000000e+00 0.0000000000e+00 0.0000000000e+00 
          0.0000000000e+00 0.0000000000e+00 0.0000000000e+00 
          0.0000000000e+00 0.0000000000e+00 0.0000000000e+00 
          0.0000000000e+00 0.0000000000e+00 0.0000000000e+00 
          0.0000000000e+00 0.0000000000e+00 0.0000000000e+00 
          0.0000000000e+00 0.0000000000e+00 0.0000000000e+00 
          0.0000000000e+00 0.0000000000e+00 0.0000000000e+00 
          0.0000000000e+00 0.0000000000e+00 0.0000000000e+00 
          0.0000000000e+00 0.0000000000e+00 0.0000000000e+00 
          0.0000000000e+00 0.0000000000e+00 0.0000000000e+00 
          0.0000000000e+00 0.0000000000e+00 0.0000000000e+00 
          0.0000000000e+00 0.0000000000e+00 0.0000000000e+00 
          0.0000000000e+00 0.0000000000e+00 0.0000000000e+00 
          0.0000000000e+00 0.0000000000e+00 0.0000000000e+00 
          0.0000000000e+00 0.0000000000e+00 0.0000000000e+00 
          0.0000000000e+00 0.0000000000e+00 0.0000000000e+00 
          0.0000000000e+00 0.0000000000e+00 0.0000000000e+00 
          0.0000000000e+00 0.0000000000e+00 0.0000000000e+00 
          0.0000000000e+00 0.0000000000e+00 0.0000000000e+00 
          0.0000000000e+00 0.0000000000e+00 0.0000000000e+00 
          0.0000000000e+00 0.0000000000e+00 0.0000000000e+00 
          0.0000000000e+00 0.0000000000e+00 0.0000000000e+00 
          0.0000000000e+00 0.0000000000e+00 0.0000000000e+00 
          0.0000000000e+00 0.0000000000e+00 0.0000000000e+00 
          0.0000000000e+00 0.0000000000e+00 0.0000000000e+00 
          0.0000000000e+00 0.0000000000e+00 0.0000000000e+00 
          0.0000000000e+00 0.0000000000e+00 0.0000000000e+00 
          0.0000000000e+00 0.0000000000e+00 0.0000000000e+00 
          0.0000000000e+00 0.0000000000e+00 0.0000000000e+00 
          0.0000000000e+00 0.0000000000e+00 0.0000000000e+00 
          0.0000000000e+00 0.0000000000e+00 0.0000000000e+00 
          0.0000000000e+00 0.0000000000e+00 0.0000000000e+00 
          0.0000000000e+00 0.0000000000e+00 0.0000000000e+00 
          0.0000000000e+00 0.0000000000e+00 0.0000000000e+00 
          0.0000000000e+00 0.0000000000e+00 0.0000000000e+00 
          0.0000000000e+00 0.0000000000e+00 0.0000000000e+00 
          0.0000000000e+00 0.0000000000e+00 0.0000000000e+00 
          0.0000000000e+00 0.0000000000e+00 0.0000000000e+00 
          0.0000000000e+00 0.0000000000e+00 0.0000000000e+00 
          0.0000000000e+00 0.0000000000e+00 0.0000000000e+00 
          0.0000000000e+00 0.0000000000e+00 0.0000000000e+00 
          0.0000000000e+00 0.0000000000e+00 0.0000000000e+00 
          0.0000000000e+00 0.0000000000e+00 0.0000000000e+00 
          0.0000000000e+00 0.0000000000e+00 0.0000000000e+00 
          0.0000000000e+00 0.0000000000e+00 0.0000000000e+00 
          0.0000000000e+00 0.0000000000e+00 0.0000000000e+00 
          0.0000000000e+00 0.0000000000e+00 0.0000000000e+00 
          0.0000000000e+00 0.0000000000e+00 0.0000000000e+00 
          0.0000000000e+00 0.0000000000e+00 0.0000000000e+00 
          0.0000000000e+00 0.0000000000e+00 0.0000000000e+00 
        </DataArray>
      </PointData>
      <CellData>
        <DataArray type="Int64" Name="ElementTag" format="ascii">
          90
          91
          92
          93
          94
          95
          96
          97
          98
          99
          100
          101
          102
          103
          104
          105
          106
          107
          108
          109
          110
          111
          112
          113
          114
          115
          116
          117
          118
          119
          120
          121
          122
          123
          124
          125
          126
          127
          128
        </DataArray>
      </CellData>
    </Piece>
  </UnstructuredGrid>
</VTKFile>
