<?xml version="1.0"?>
<VTKFile type="UnstructuredGrid" version="1.0" byte_order="LittleEndian" compressor="vtkZLibDataCompressor">
  <UnstructuredGrid>
    <Piece NumberOfPoints="80" NumberOfCells="39">
      <Points>
        <DataArray type="Float64" Name="Points" NumberOfComponents="3" format="ascii">
          0.0000000000e+00 0.0000000000e+00 0.0000000000e+00 
          2.5000000000e-01 0.0000000000e+00 0.0000000000e+00 
          2.5000000000e-01 3.0000000000e+01 0.0000000000e+00 
          0.0000000000e+00 3.0000000000e+01 0.0000000000e+00 
          2.5000000000e-01 7.6923100000e-01 0.0000000000e+00 
          2.5000000000e-01 1.5384620000e+00 0.0000000000e+00 
          2.5000000000e-01 2.3076920000e+00 0.0000000000e+00 
          2.5000000000e-01 3.0769230000e+00 0.0000000000e+00 
          2.5000000000e-01 3.8461540000e+00 0.0000000000e+00 
          2.5000000000e-01 4.6153850000e+00 0.0000000000e+00 
          2.5000000000e-01 5.3846150000e+00 0.0000000000e+00 
          2.5000000000e-01 6.1538460000e+00 0.0000000000e+00 
          2.5000000000e-01 6.9230770000e+00 0.0000000000e+00 
          2.5000000000e-01 7.6923080000e+00 0.0000000000e+00 
          2.5000000000e-01 8.4615380000e+00 0.0000000000e+00 
          2.5000000000e-01 9.2307690000e+00 0.0000000000e+00 
          2.5000000000e-01 1.0000000000e+01 0.0000000000e+00 
          2.5000000000e-01 1.0769231000e+01 0.0000000000e+00 
          2.5000000000e-01 1.1538462000e+01 0.0000000000e+00 
          2.5000000000e-01 1.2307692000e+01 0.0000000000e+00 
          2.5000000000e-01 1.3076923000e+01 0.0000000000e+00 
          2.5000000000e-01 1.3846154000e+01 0.0000000000e+00 
          2.5000000000e-01 1.4615385000e+01 0.0000000000e+00 
          2.5000000000e-01 1.5384615000e+01 0.0000000000e+00 
          2.5000000000e-01 1.6153846000e+01 0.0000000000e+00 
          2.5000000000e-01 1.6923077000e+01 0.0000000000e+00 
          2.5000000000e-01 1.7692308000e+01 0.0000000000e+00 
          2.5000000000e-01 1.8461538000e+01 0.0000000000e+00 
          2.5000000000e-01 1.9230769000e+01 0.0000000000e+00 
          2.5000000000e-01 2.0000000000e+01 0.0000000000e+00 
          2.5000000000e-01 2.0769231000e+01 0.0000000000e+00 
          2.5000000000e-01 2.1538462000e+01 0.0000000000e+00 
          2.5000000000e-01 2.2307692000e+01 0.0000000000e+00 
          2.5000000000e-01 2.3076923000e+01 0.0000000000e+00 
          2.5000000000e-01 2.3846154000e+01 0.0000000000e+00 
          2.5000000000e-01 2.4615385000e+01 0.0000000000e+00 
          2.5000000000e-01 2.5384615000e+01 0.0000000000e+00 
          2.5000000000e-01 2.6153846000e+01 0.0000000000e+00 
          2.5000000000e-01 2.6923077000e+01 0.0000000000e+00 
          2.5000000000e-01 2.7692308000e+01 0.0000000000e+00 
          2.5000000000e-01 2.8461538000e+01 0.0000000000e+00 
          2.5000000000e-01 2.9230769000e+01 0.0000000000e+00 
          0.0000000000e+00 7.6923100000e-01 0.0000000000e+00 
          0.0000000000e+00 1.5384620000e+00 0.0000000000e+00 
          0.0000000000e+00 2.3076920000e+00 0.0000000000e+00 
          0.0000000000e+00 3.0769230000e+00 0.0000000000e+00 
          0.0000000000e+00 3.8461540000e+00 0.0000000000e+00 
          0.0000000000e+00 4.6153850000e+00 0.0000000000e+00 
          0.0000000000e+00 5.3846150000e+00 0.0000000000e+00 
          0.0000000000e+00 6.1538460000e+00 0.0000000000e+00 
          0.0000000000e+00 6.9230770000e+00 0.0000000000e+00 
          0.0000000000e+00 7.6923080000e+00 0.0000000000e+00 
          0.0000000000e+00 8.4615380000e+00 0.0000000000e+00 
          0.0000000000e+00 9.2307690000e+00 0.0000000000e+00 
          0.0000000000e+00 1.0000000000e+01 0.0000000000e+00 
          0.0000000000e+00 1.0769231000e+01 0.0000000000e+00 
          0.0000000000e+00 1.1538462000e+01 0.0000000000e+00 
          0.0000000000e+00 1.2307692000e+01 0.0000000000e+00 
          0.0000000000e+00 1.3076923000e+01 0.0000000000e+00 
          0.0000000000e+00 1.3846154000e+01 0.0000000000e+00 
          0.0000000000e+00 1.4615385000e+01 0.0000000000e+00 
          0.0000000000e+00 1.5384615000e+01 0.0000000000e+00 
          0.0000000000e+00 1.6153846000e+01 0.0000000000e+00 
          0.0000000000e+00 1.6923077000e+01 0.0000000000e+00 
          0.0000000000e+00 1.7692308000e+01 0.0000000000e+00 
          0.0000000000e+00 1.8461538000e+01 0.0000000000e+00 
          0.0000000000e+00 1.9230769000e+01 0.0000000000e+00 
          0.0000000000e+00 2.0000000000e+01 0.0000000000e+00 
          0.0000000000e+00 2.0769231000e+01 0.0000000000e+00 
          0.0000000000e+00 2.1538462000e+01 0.0000000000e+00 
          0.0000000000e+00 2.2307692000e+01 0.0000000000e+00 
          0.0000000000e+00 2.3076923000e+01 0.0000000000e+00 
          0.0000000000e+00 2.3846154000e+01 0.0000000000e+00 
          0.0000000000e+00 2.4615385000e+01 0.0000000000e+00 
          0.0000000000e+00 2.5384615000e+01 0.0000000000e+00 
          0.0000000000e+00 2.6153846000e+01 0.0000000000e+00 
          0.0000000000e+00 2.6923077000e+01 0.0000000000e+00 
          0.0000000000e+00 2.7692308000e+01 0.0000000000e+00 
          0.0000000000e+00 2.8461538000e+01 0.0000000000e+00 
          0.0000000000e+00 2.9230769000e+01 0.0000000000e+00 
        </DataArray>
      </Points>
      <Cells>
        <DataArray type="Int64" Name="connectivity" format="ascii">
          0 1 4 42 
          42 4 5 43 
          43 5 6 44 
          44 6 7 45 
          45 7 8 46 
          46 8 9 47 
          47 9 10 48 
          48 10 11 49 
          49 11 12 50 
          50 12 13 51 
          51 13 14 52 
          52 14 15 53 
          53 15 16 54 
          54 16 17 55 
          55 17 18 56 
          56 18 19 57 
          57 19 20 58 
          58 20 21 59 
          59 21 22 60 
          60 22 23 61 
          61 23 24 62 
          62 24 25 63 
          63 25 26 64 
          64 26 27 65 
          65 27 28 66 
          66 28 29 67 
          67 29 30 68 
          68 30 31 69 
          69 31 32 70 
          70 32 33 71 
          71 33 34 72 
          72 34 35 73 
          73 35 36 74 
          74 36 37 75 
          75 37 38 76 
          76 38 39 77 
          77 39 40 78 
          78 40 41 79 
          79 41 2 3 
        </DataArray>
        <DataArray type="Int64" Name="offsets" format="ascii">
          4
          8
          12
          16
          20
          24
          28
          32
          36
          40
          44
          48
          52
          56
          60
          64
          68
          72
          76
          80
          84
          88
          92
          96
          100
          104
          108
          112
          116
          120
          124
          128
          132
          136
          140
          144
          148
          152
          156
        </DataArray>
        <DataArray type="Int64" Name="types" format="ascii">
          9
          9
          9
          9
          9
          9
          9
          9
          9
          9
          9
          9
          9
          9
          9
          9
          9
          9
          9
          9
          9
          9
          9
          9
          9
          9
          9
          9
          9
          9
          9
          9
          9
          9
          9
          9
          9
          9
          9
        </DataArray>
      </Cells>
      <PointData>
        <DataArray type="Int64" Name="NodeTag" format="ascii">
          1
          2
          3
          4
          7
          8
          9
          10
          11
          12
          13
          14
          15
          16
          17
          18
          19
          20
          21
          22
          23
          24
          25
          26
          27
          28
          29
          30
          31
          32
          33
          34
          35
          36
          37
          38
          39
          40
          41
          42
          43
          44
          45
          46
          47
          48
          49
          50
          51
          52
          53
          54
          55
          56
          57
          58
          59
          60
          61
          62
          63
          64
          65
          66
          67
          68
          69
          70
          71
          72
          73
          74
          75
          76
          77
          78
          79
          80
          81
          82
        </DataArray>
        <DataArray type="Float64" Name="Velocity" NumberOfComponents="3" format="ascii">
          -1.4907400471e-02 -7.7746847373e-05 0.0000000000e+00 
          -1.4907400471e-02 -7.7746847373e-05 0.0000000000e+00 
          -6.0678619814e-02 -7.9262093781e-05 0.0000000000e+00 
          -6.0678619814e-02 -7.9262093781e-05 0.0000000000e+00 
          -1.6981462218e-02 -7.7774496988e-05 0.0000000000e+00 
          -1.9024518526e-02 -7.7815136117e-05 0.0000000000e+00 
          -2.1034872823e-02 -7.7943696357e-05 0.0000000000e+00 
          -2.3010971245e-02 -7.7988697531e-05 0.0000000000e+00 
          -2.4951228764e-02 -7.7963537713e-05 0.0000000000e+00 
          -2.6854135275e-02 -7.7995368958e-05 0.0000000000e+00 
          -2.8718237049e-02 -7.8086054777e-05 0.0000000000e+00 
          -3.0542080765e-02 -7.8123842263e-05 0.0000000000e+00 
          -3.2324270124e-02 -7.8129971421e-05 0.0000000000e+00 
          -3.4063440072e-02 -7.8153873616e-05 0.0000000000e+00 
          -3.5758250523e-02 -7.8312643373e-05 0.0000000000e+00 
          -3.7407418028e-02 -7.8237829494e-05 0.0000000000e+00 
          -3.9009637765e-02 -7.8396055587e-05 0.0000000000e+00 
          -4.0563636112e-02 -7.8331615401e-05 0.0000000000e+00 
          -4.2068238733e-02 -7.8377156168e-05 0.0000000000e+00 
          -4.3522205888e-02 -7.8525193156e-05 0.0000000000e+00 
          -4.4924335943e-02 -7.8464264844e-05 0.0000000000e+00 
          -4.6273505877e-02 -7.8655189224e-05 0.0000000000e+00 
          -4.7568547584e-02 -7.8677991354e-05 0.0000000000e+00 
          -4.8808396484e-02 -7.8795658401e-05 0.0000000000e+00 
          -4.9991964472e-02 -7.8839675527e-05 0.0000000000e+00 
          -5.1118161430e-02 -7.8781778553e-05 0.0000000000e+00 
          -5.2186040690e-02 -7.8984458693e-05 0.0000000000e+00 
          -5.3194585698e-02 -7.8899461197e-05 0.0000000000e+00 
          -5.4142841445e-02 -7.8908370821e-05 0.0000000000e+00 
          -5.5029944268e-02 -7.9070756380e-05 0.0000000000e+00 
          -5.5855003932e-02 -7.8961947900e-05 0.0000000000e+00 
          -5.6617229500e-02 -7.9085698665e-05 0.0000000000e+00 
          -5.7315849442e-02 -7.9070191986e-05 0.0000000000e+00 
          -5.7950176811e-02 -7.9039243838e-05 0.0000000000e+00 
          -5.8519528521e-02 -7.9175964965e-05 0.0000000000e+00 
          -5.9023323047e-02 -7.9050987354e-05 0.0000000000e+00 
          -5.9461065105e-02 -7.9261335496e-05 0.0000000000e+00 
          -5.9832256021e-02 -7.9162875223e-05 0.0000000000e+00 
          -6.0136508556e-02 -7.9125731342e-05 0.0000000000e+00 
          -6.0373477425e-02 -7.9271122996e-05 0.0000000000e+00 
          -6.0542930401e-02 -7.9007980397e-05 0.0000000000e+00 
          -6.0644687943e-02 -7.9172129479e-05 0.0000000000e+00 
          -1.6981462218e-02 -7.7774496988e-05 0.0000000000e+00 
          -1.9024518526e-02 -7.7815136117e-05 0.0000000000e+00 
          -2.1034872823e-02 -7.7943696357e-05 0.0000000000e+00 
          -2.3010971245e-02 -7.7988697531e-05 0.0000000000e+00 
          -2.4951228764e-02 -7.7963537713e-05 0.0000000000e+00 
          -2.6854135275e-02 -7.7995368958e-05 0.0000000000e+00 
          -2.8718237049e-02 -7.8086054777e-05 0.0000000000e+00 
          -3.0542080765e-02 -7.8123842263e-05 0.0000000000e+00 
          -3.2324270124e-02 -7.8129971421e-05 0.0000000000e+00 
          -3.4063440072e-02 -7.8153873616e-05 0.0000000000e+00 
          -3.5758250523e-02 -7.8312643373e-05 0.0000000000e+00 
          -3.7407418028e-02 -7.8237829494e-05 0.0000000000e+00 
          -3.9009637765e-02 -7.8396055587e-05 0.0000000000e+00 
          -4.0563636112e-02 -7.8331615401e-05 0.0000000000e+00 
          -4.2068238733e-02 -7.8377156168e-05 0.0000000000e+00 
          -4.3522205888e-02 -7.8525193156e-05 0.0000000000e+00 
          -4.4924335943e-02 -7.8464264844e-05 0.0000000000e+00 
          -4.6273505877e-02 -7.8655189224e-05 0.0000000000e+00 
          -4.7568547584e-02 -7.8677991354e-05 0.0000000000e+00 
          -4.8808396484e-02 -7.8795658401e-05 0.0000000000e+00 
          -4.9991964472e-02 -7.8839675527e-05 0.0000000000e+00 
          -5.1118161430e-02 -7.8781778553e-05 0.0000000000e+00 
          -5.2186040690e-02 -7.8984458693e-05 0.0000000000e+00 
          -5.3194585698e-02 -7.8899461197e-05 0.0000000000e+00 
          -5.4142841445e-02 -7.8908370821e-05 0.0000000000e+00 
          -5.5029944268e-02 -7.9070756380e-05 0.0000000000e+00 
          -5.5855003932e-02 -7.8961947900e-05 0.0000000000e+00 
          -5.6617229500e-02 -7.9085698665e-05 0.0000000000e+00 
          -5.7315849442e-02 -7.9070191986e-05 0.0000000000e+00 
          -5.7950176811e-02 -7.9039243838e-05 0.0000000000e+00 
          -5.8519528521e-02 -7.9175964965e-05 0.0000000000e+00 
          -5.9023323047e-02 -7.9050987354e-05 0.0000000000e+00 
          -5.9461065105e-02 -7.9261335496e-05 0.0000000000e+00 
          -5.9832256021e-02 -7.9162875223e-05 0.0000000000e+00 
          -6.0136508556e-02 -7.9125731342e-05 0.0000000000e+00 
          -6.0373477425e-02 -7.9271122996e-05 0.0000000000e+00 
          -6.0542930401e-02 -7.9007980397e-05 0.0000000000e+00 
          -6.0644687943e-02 -7.9172129479e-05 0.0000000000e+00 
        </DataArray>
        <DataArray type="Float64" Name="Displacement" NumberOfComponents="3" format="ascii">
          1.1649684477e-03 -2.6205791022e-04 0.0000000000e+00 
          1.1649684477e-03 -2.6205791022e-04 0.0000000000e+00 
          -5.2716723170e-03 -2.8559482186e-04 0.0000000000e+00 
          -5.2716723170e-03 -2.8559482186e-04 0.0000000000e+00 
          9.1670785974e-04 -2.6325014382e-04 0.0000000000e+00 
          6.6753869783e-04 -2.6441112409e-04 0.0000000000e+00 
          4.1794881700e-04 -2.6554137974e-04 0.0000000000e+00 
          1.6842444788e-04 -2.6664032832e-04 0.0000000000e+00 
          -8.0548935879e-05 -2.6770882429e-04 0.0000000000e+00 
          -3.2848873828e-04 -2.6874632198e-04 0.0000000000e+00 
          -5.7491543607e-04 -2.6975237525e-04 0.0000000000e+00 
          -8.1935496193e-04 -2.7072806058e-04 0.0000000000e+00 
          -1.0613374638e-03 -2.7167246308e-04 0.0000000000e+00 
          -1.3003995938e-03 -2.7258570664e-04 0.0000000000e+00 
          -1.5360846572e-03 -2.7346815756e-04 0.0000000000e+00 
          -1.7679445550e-03 -2.7431979223e-04 0.0000000000e+00 
          -1.9955390190e-03 -2.7513996346e-04 0.0000000000e+00 
          -2.2184373079e-03 -2.7592942420e-04 0.0000000000e+00 
          -2.4362188362e-03 -2.7668779556e-04 0.0000000000e+00 
          -2.6484735960e-03 -2.7741506105e-04 0.0000000000e+00 
          -2.8548038588e-03 -2.7811150337e-04 0.0000000000e+00 
          -3.0548233135e-03 -2.7877660249e-04 0.0000000000e+00 
          -3.2481587022e-03 -2.7941104916e-04 0.0000000000e+00 
          -3.4344499797e-03 -2.8001441568e-04 0.0000000000e+00 
          -3.6133518024e-03 -2.8058663066e-04 0.0000000000e+00 
          -3.7845326997e-03 -2.8112787099e-04 0.0000000000e+00 
          -3.9476764618e-03 -2.8163847646e-04 0.0000000000e+00 
          -4.1024822403e-03 -2.8211758745e-04 0.0000000000e+00 
          -4.2486658199e-03 -2.8256583803e-04 0.0000000000e+00 
          -4.3859587561e-03 -2.8298346612e-04 0.0000000000e+00 
          -4.5141097252e-03 -2.8336968376e-04 0.0000000000e+00 
          -4.6328844913e-03 -2.8372510872e-04 0.0000000000e+00 
          -4.7420662159e-03 -2.8404970731e-04 0.0000000000e+00 
          -4.8414564117e-03 -2.8434335934e-04 0.0000000000e+00 
          -4.9308741619e-03 -2.8460593808e-04 0.0000000000e+00 
          -5.0101571664e-03 -2.8483761005e-04 0.0000000000e+00 
          -5.0791615376e-03 -2.8503842810e-04 0.0000000000e+00 
          -5.1377624149e-03 -2.8520841627e-04 0.0000000000e+00 
          -5.1858537475e-03 -2.8534747748e-04 0.0000000000e+00 
          -5.2233485074e-03 -2.8545555486e-04 0.0000000000e+00 
          -5.2501789042e-03 -2.8553283535e-04 0.0000000000e+00 
          -5.2662965560e-03 -2.8557935642e-04 0.0000000000e+00 
          9.1670785974e-04 -2.6325014382e-04 0.0000000000e+00 
          6.6753869783e-04 -2.6441112409e-04 0.0000000000e+00 
          4.1794881700e-04 -2.6554137974e-04 0.0000000000e+00 
          1.6842444788e-04 -2.6664032832e-04 0.0000000000e+00 
          -8.0548935879e-05 -2.6770882429e-04 0.0000000000e+00 
          -3.2848873828e-04 -2.6874632198e-04 0.0000000000e+00 
          -5.7491543607e-04 -2.6975237525e-04 0.0000000000e+00 
          -8.1935496193e-04 -2.7072806058e-04 0.0000000000e+00 
          -1.0613374638e-03 -2.7167246308e-04 0.0000000000e+00 
          -1.3003995938e-03 -2.7258570664e-04 0.0000000000e+00 
          -1.5360846572e-03 -2.7346815756e-04 0.0000000000e+00 
          -1.7679445550e-03 -2.7431979223e-04 0.0000000000e+00 
          -1.9955390190e-03 -2.7513996346e-04 0.0000000000e+00 
          -2.2184373079e-03 -2.7592942420e-04 0.0000000000e+00 
          -2.4362188362e-03 -2.7668779556e-04 0.0000000000e+00 
          -2.6484735960e-03 -2.7741506105e-04 0.0000000000e+00 
          -2.8548038588e-03 -2.7811150337e-04 0.0000000000e+00 
          -3.0548233135e-03 -2.7877660249e-04 0.0000000000e+00 
          -3.2481587022e-03 -2.7941104916e-04 0.0000000000e+00 
          -3.4344499797e-03 -2.8001441568e-04 0.0000000000e+00 
          -3.6133518024e-03 -2.8058663066e-04 0.0000000000e+00 
          -3.7845326997e-03 -2.8112787099e-04 0.0000000000e+00 
          -3.9476764618e-03 -2.8163847646e-04 0.0000000000e+00 
          -4.1024822403e-03 -2.8211758745e-04 0.0000000000e+00 
          -4.2486658199e-03 -2.8256583803e-04 0.0000000000e+00 
          -4.3859587561e-03 -2.8298346612e-04 0.0000000000e+00 
          -4.5141097252e-03 -2.8336968376e-04 0.0000000000e+00 
          -4.6328844913e-03 -2.8372510872e-04 0.0000000000e+00 
          -4.7420662159e-03 -2.8404970731e-04 0.0000000000e+00 
          -4.8414564117e-03 -2.8434335934e-04 0.0000000000e+00 
          -4.9308741619e-03 -2.8460593808e-04 0.0000000000e+00 
          -5.0101571664e-03 -2.8483761005e-04 0.0000000000e+00 
          -5.0791615376e-03 -2.8503842810e-04 0.0000000000e+00 
          -5.1377624149e-03 -2.8520841627e-04 0.0000000000e+00 
          -5.1858537475e-03 -2.8534747748e-04 0.0000000000e+00 
          -5.2233485074e-03 -2.8545555486e-04 0.0000000000e+00 
          -5.2501789042e-03 -2.8553283535e-04 0.0000000000e+00 
          -5.2662965560e-03 -2.8557935642e-04 0.0000000000e+00 
        </DataArray>
        <DataArray type="Float64" Name="Acceleration" NumberOfComponents="3" format="ascii">
          -1.2577565826e-01 -2.3202001723e-06 0.0000000000e+00 
          -1.2577565826e-01 -2.3202001723e-06 0.0000000000e+00 
          9.6873338062e-01 -1.3597161295e-05 0.0000000000e+00 
          9.6873338062e-01 -1.3597161295e-05 0.0000000000e+00 
          -8.1864307823e-02 4.4510820398e-05 0.0000000000e+00 
          -3.7936864901e-02 -5.1029979641e-05 0.0000000000e+00 
          5.9319735338e-03 5.4463938025e-05 0.0000000000e+00 
          4.9644869353e-02 -9.9784459762e-05 0.0000000000e+00 
          9.3127721512e-02 -1.4528358471e-06 0.0000000000e+00 
          1.3630493748e-01 7.8714485837e-05 0.0000000000e+00 
          1.7907709549e-01 -1.1480405502e-04 0.0000000000e+00 
          2.2138271751e-01 4.9824012458e-05 0.0000000000e+00 
          2.6313126760e-01 2.7501192986e-05 0.0000000000e+00 
          3.0425296490e-01 -3.8711412069e-05 0.0000000000e+00 
          3.4468280399e-01 -3.4045976286e-05 0.0000000000e+00 
          3.8432400690e-01 8.2373876989e-05 0.0000000000e+00 
          4.2313465333e-01 -5.3314676527e-05 0.0000000000e+00 
          4.6103023082e-01 1.4965091049e-05 0.0000000000e+00 
          4.9794821654e-01 1.7769962231e-05 0.0000000000e+00 
          5.3383410131e-01 -3.2832672143e-05 0.0000000000e+00 
          5.6861625847e-01 6.0702420592e-05 0.0000000000e+00 
          6.0224755568e-01 -6.3771603732e-05 0.0000000000e+00 
          6.3466691972e-01 1.3165169711e-05 0.0000000000e+00 
          6.6582671929e-01 2.6310093423e-05 0.0000000000e+00 
          6.9567062759e-01 -5.7102642889e-06 0.0000000000e+00 
          7.2416175445e-01 -6.6941275383e-05 0.0000000000e+00 
          7.5125114656e-01 8.7856378777e-05 0.0000000000e+00 
          7.7689578802e-01 -2.6179884413e-05 0.0000000000e+00 
          8.0106452289e-01 -6.9172733643e-05 0.0000000000e+00 
          8.2370929431e-01 7.2825131263e-05 0.0000000000e+00 
          8.4481439789e-01 -3.8503279341e-05 0.0000000000e+00 
          8.6433976344e-01 -3.2502347423e-05 0.0000000000e+00 
          8.8224944781e-01 -1.0693456302e-05 0.0000000000e+00 
          8.9853703382e-01 1.2067015897e-05 0.0000000000e+00 
          9.1316060864e-01 -1.7944088321e-05 0.0000000000e+00 
          9.2611767349e-01 -2.7510039687e-05 0.0000000000e+00 
          9.3738404039e-01 -3.1746599525e-05 0.0000000000e+00 
          9.4693073529e-01 -1.4302544906e-05 0.0000000000e+00 
          9.5477212120e-01 -4.0576362167e-06 0.0000000000e+00 
          9.6087766159e-01 -3.7756566458e-05 0.0000000000e+00 
          9.6524325092e-01 -4.4475980120e-05 0.0000000000e+00 
          9.6786556425e-01 8.8840963818e-06 0.0000000000e+00 
          -8.1864307823e-02 4.4510820398e-05 0.0000000000e+00 
          -3.7936864901e-02 -5.1029979641e-05 0.0000000000e+00 
          5.9319735338e-03 5.4463938025e-05 0.0000000000e+00 
          4.9644869353e-02 -9.9784459762e-05 0.0000000000e+00 
          9.3127721512e-02 -1.4528358471e-06 0.0000000000e+00 
          1.3630493748e-01 7.8714485837e-05 0.0000000000e+00 
          1.7907709549e-01 -1.1480405502e-04 0.0000000000e+00 
          2.2138271751e-01 4.9824012458e-05 0.0000000000e+00 
          2.6313126760e-01 2.7501192986e-05 0.0000000000e+00 
          3.0425296490e-01 -3.8711412069e-05 0.0000000000e+00 
          3.4468280399e-01 -3.4045976286e-05 0.0000000000e+00 
          3.8432400690e-01 8.2373876989e-05 0.0000000000e+00 
          4.2313465333e-01 -5.3314676527e-05 0.0000000000e+00 
          4.6103023082e-01 1.4965091049e-05 0.0000000000e+00 
          4.9794821654e-01 1.7769962231e-05 0.0000000000e+00 
          5.3383410131e-01 -3.2832672143e-05 0.0000000000e+00 
          5.6861625847e-01 6.0702420592e-05 0.0000000000e+00 
          6.0224755568e-01 -6.3771603732e-05 0.0000000000e+00 
          6.3466691972e-01 1.3165169711e-05 0.0000000000e+00 
          6.6582671929e-01 2.6310093423e-05 0.0000000000e+00 
          6.9567062759e-01 -5.7102642889e-06 0.0000000000e+00 
          7.2416175445e-01 -6.6941275383e-05 0.0000000000e+00 
          7.5125114656e-01 8.7856378777e-05 0.0000000000e+00 
          7.7689578802e-01 -2.6179884413e-05 0.0000000000e+00 
          8.0106452289e-01 -6.9172733643e-05 0.0000000000e+00 
          8.2370929431e-01 7.2825131263e-05 0.0000000000e+00 
          8.4481439789e-01 -3.8503279341e-05 0.0000000000e+00 
          8.6433976344e-01 -3.2502347423e-05 0.0000000000e+00 
          8.8224944781e-01 -1.0693456302e-05 0.0000000000e+00 
          8.9853703382e-01 1.2067015897e-05 0.0000000000e+00 
          9.1316060864e-01 -1.7944088321e-05 0.0000000000e+00 
          9.2611767349e-01 -2.7510039687e-05 0.0000000000e+00 
          9.3738404039e-01 -3.1746599525e-05 0.0000000000e+00 
          9.4693073529e-01 -1.4302544906e-05 0.0000000000e+00 
          9.5477212120e-01 -4.0576362167e-06 0.0000000000e+00 
          9.6087766159e-01 -3.7756566458e-05 0.0000000000e+00 
          9.6524325092e-01 -4.4475980120e-05 0.0000000000e+00 
          9.6786556425e-01 8.8840963818e-06 0.0000000000e+00 
        </DataArray>
        <DataArray type="Float64" Name="Reaction" NumberOfComponents="3" format="ascii">
          0.0000000000e+00 0.0000000000e+00 0.0000000000e+00 
          0.0000000000e+00 0.0000000000e+00 0.0000000000e+00 
          0.0000000000e+00 0.0000000000e+00 0.0000000000e+00 
          0.0000000000e+00 0.0000000000e+00 0.0000000000e+00 
          0.0000000000e+00 0.0000000000e+00 0.0000000000e+00 
          0.0000000000e+00 0.0000000000e+00 0.0000000000e+00 
          0.0000000000e+00 0.0000000000e+00 0.0000000000e+00 
          0.0000000000e+00 0.0000000000e+00 0.0000000000e+00 
          0.0000000000e+00 0.0000000000e+00 0.0000000000e+00 
          0.0000000000e+00 0.0000000000e+00 0.0000000000e+00 
          0.0000000000e+00 0.0000000000e+00 0.0000000000e+00 
          0.0000000000e+00 0.0000000000e+00 0.0000000000e+00 
          0.0000000000e+00 0.0000000000e+00 0.0000000000e+00 
          0.0000000000e+00 0.0000000000e+00 0.0000000000e+00 
          0.0000000000e+00 0.0000000000e+00 0.0000000000e+00 
          0.0000000000e+00 0.0000000000e+00 0.0000000000e+00 
          0.0000000000e+00 0.0000000000e+00 0.0000000000e+00 
          0.0000000000e+00 0.0000000000e+00 0.0000000000e+00 
          0.0000000000e+00 0.0000000000e+00 0.0000000000e+00 
          0.0000000000e+00 0.0000000000e+00 0.0000000000e+00 
          0.0000000000e+00 0.0000000000e+00 0.0000000000e+00 
          0.0000000000e+00 0.0000000000e+00 0.0000000000e+00 
          0.0000000000e+00 0.0000000000e+00 0.0000000000e+00 
          0.0000000000e+00 0.0000000000e+00 0.0000000000e+00 
          0.0000000000e+00 0.0000000000e+00 0.0000000000e+00 
          0.0000000000e+00 0.0000000000e+00 0.0000000000e+00 
          0.0000000000e+00 0.0000000000e+00 0.0000000000e+00 
          0.0000000000e+00 0.0000000000e+00 0.0000000000e+00 
          0.0000000000e+00 0.0000000000e+00 0.0000000000e+00 
          0.0000000000e+00 0.0000000000e+00 0.0000000000e+00 
          0.0000000000e+00 0.0000000000e+00 0.0000000000e+00 
          0.0000000000e+00 0.0000000000e+00 0.0000000000e+00 
          0.0000000000e+00 0.0000000000e+00 0.0000000000e+00 
          0.0000000000e+00 0.0000000000e+00 0.0000000000e+00 
          0.0000000000e+00 0.0000000000e+00 0.0000000000e+00 
          0.0000000000e+00 0.0000000000e+00 0.0000000000e+00 
          0.0000000000e+00 0.0000000000e+00 0.0000000000e+00 
          0.0000000000e+00 0.0000000000e+00 0.0000000000e+00 
          0.0000000000e+00 0.0000000000e+00 0.0000000000e+00 
          0.0000000000e+00 0.0000000000e+00 0.0000000000e+00 
          0.0000000000e+00 0.0000000000e+00 0.0000000000e+00 
          0.0000000000e+00 0.0000000000e+00 0.0000000000e+00 
          0.0000000000e+00 0.0000000000e+00 0.0000000000e+00 
          0.0000000000e+00 0.0000000000e+00 0.0000000000e+00 
          0.0000000000e+00 0.0000000000e+00 0.0000000000e+00 
          0.0000000000e+00 0.0000000000e+00 0.0000000000e+00 
          0.0000000000e+00 0.0000000000e+00 0.0000000000e+00 
          0.0000000000e+00 0.0000000000e+00 0.0000000000e+00 
          0.0000000000e+00 0.0000000000e+00 0.0000000000e+00 
          0.0000000000e+00 0.0000000000e+00 0.0000000000e+00 
          0.0000000000e+00 0.0000000000e+00 0.0000000000e+00 
          0.0000000000e+00 0.0000000000e+00 0.0000000000e+00 
          0.0000000000e+00 0.0000000000e+00 0.0000000000e+00 
          0.0000000000e+00 0.0000000000e+00 0.0000000000e+00 
          0.0000000000e+00 0.0000000000e+00 0.0000000000e+00 
          0.0000000000e+00 0.0000000000e+00 0.0000000000e+00 
          0.0000000000e+00 0.0000000000e+00 0.0000000000e+00 
          0.0000000000e+00 0.0000000000e+00 0.0000000000e+00 
          0.0000000000e+00 0.0000000000e+00 0.0000000000e+00 
          0.0000000000e+00 0.0000000000e+00 0.0000000000e+00 
          0.0000000000e+00 0.0000000000e+00 0.0000000000e+00 
          0.0000000000e+00 0.0000000000e+00 0.0000000000e+00 
          0.0000000000e+00 0.0000000000e+00 0.0000000000e+00 
          0.0000000000e+00 0.0000000000e+00 0.0000000000e+00 
          0.0000000000e+00 0.0000000000e+00 0.0000000000e+00 
          0.0000000000e+00 0.0000000000e+00 0.0000000000e+00 
          0.0000000000e+00 0.0000000000e+00 0.0000000000e+00 
          0.0000000000e+00 0.0000000000e+00 0.0000000000e+00 
          0.0000000000e+00 0.0000000000e+00 0.0000000000e+00 
          0.0000000000e+00 0.0000000000e+00 0.0000000000e+00 
          0.0000000000e+00 0.0000000000e+00 0.0000000000e+00 
          0.0000000000e+00 0.0000000000e+00 0.0000000000e+00 
          0.0000000000e+00 0.0000000000e+00 0.0000000000e+00 
          0.0000000000e+00 0.0000000000e+00 0.0000000000e+00 
          0.0000000000e+00 0.0000000000e+00 0.0000000000e+00 
          0.0000000000e+00 0.0000000000e+00 0.0000000000e+00 
          0.0000000000e+00 0.0000000000e+00 0.0000000000e+00 
          0.0000000000e+00 0.0000000000e+00 0.0000000000e+00 
          0.0000000000e+00 0.0000000000e+00 0.0000000000e+00 
          0.0000000000e+00 0.0000000000e+00 0.0000000000e+00 
        </DataArray>
      </PointData>
      <CellData>
        <DataArray type="Int64" Name="ElementTag" format="ascii">
          90
          91
          92
          93
          94
          95
          96
          97
          98
          99
          100
          101
          102
          103
          104
          105
          106
          107
          108
          109
          110
          111
          112
          113
          114
          115
          116
          117
          118
          119
          120
          121
          122
          123
          124
          125
          126
          127
          128
        </DataArray>
      </CellData>
    </Piece>
  </UnstructuredGrid>
</VTKFile>
