<?xml version="1.0"?>
<VTKFile type="UnstructuredGrid" version="1.0" byte_order="LittleEndian" compressor="vtkZLibDataCompressor">
  <UnstructuredGrid>
    <Piece NumberOfPoints="82" NumberOfCells="1">
      <Points>
        <DataArray type="Float64" Name="Points" NumberOfComponents="3" format="ascii">
          0.0000000000e+00 0.0000000000e+00 0.0000000000e+00 
          2.5000000000e-01 0.0000000000e+00 0.0000000000e+00 
          2.5000000000e-01 3.0000000000e+01 0.0000000000e+00 
          0.0000000000e+00 3.0000000000e+01 0.0000000000e+00 
          0.0000000000e+00 -5.0000000000e+00 0.0000000000e+00 
          2.5000000000e-01 -5.0000000000e+00 0.0000000000e+00 
          2.5000000000e-01 7.6923100000e-01 0.0000000000e+00 
          2.5000000000e-01 1.5384620000e+00 0.0000000000e+00 
          2.5000000000e-01 2.3076920000e+00 0.0000000000e+00 
          2.5000000000e-01 3.0769230000e+00 0.0000000000e+00 
          2.5000000000e-01 3.8461540000e+00 0.0000000000e+00 
          2.5000000000e-01 4.6153850000e+00 0.0000000000e+00 
          2.5000000000e-01 5.3846150000e+00 0.0000000000e+00 
          2.5000000000e-01 6.1538460000e+00 0.0000000000e+00 
          2.5000000000e-01 6.9230770000e+00 0.0000000000e+00 
          2.5000000000e-01 7.6923080000e+00 0.0000000000e+00 
          2.5000000000e-01 8.4615380000e+00 0.0000000000e+00 
          2.5000000000e-01 9.2307690000e+00 0.0000000000e+00 
          2.5000000000e-01 1.0000000000e+01 0.0000000000e+00 
          2.5000000000e-01 1.0769231000e+01 0.0000000000e+00 
          2.5000000000e-01 1.1538462000e+01 0.0000000000e+00 
          2.5000000000e-01 1.2307692000e+01 0.0000000000e+00 
          2.5000000000e-01 1.3076923000e+01 0.0000000000e+00 
          2.5000000000e-01 1.3846154000e+01 0.0000000000e+00 
          2.5000000000e-01 1.4615385000e+01 0.0000000000e+00 
          2.5000000000e-01 1.5384615000e+01 0.0000000000e+00 
          2.5000000000e-01 1.6153846000e+01 0.0000000000e+00 
          2.5000000000e-01 1.6923077000e+01 0.0000000000e+00 
          2.5000000000e-01 1.7692308000e+01 0.0000000000e+00 
          2.5000000000e-01 1.8461538000e+01 0.0000000000e+00 
          2.5000000000e-01 1.9230769000e+01 0.0000000000e+00 
          2.5000000000e-01 2.0000000000e+01 0.0000000000e+00 
          2.5000000000e-01 2.0769231000e+01 0.0000000000e+00 
          2.5000000000e-01 2.1538462000e+01 0.0000000000e+00 
          2.5000000000e-01 2.2307692000e+01 0.0000000000e+00 
          2.5000000000e-01 2.3076923000e+01 0.0000000000e+00 
          2.5000000000e-01 2.3846154000e+01 0.0000000000e+00 
          2.5000000000e-01 2.4615385000e+01 0.0000000000e+00 
          2.5000000000e-01 2.5384615000e+01 0.0000000000e+00 
          2.5000000000e-01 2.6153846000e+01 0.0000000000e+00 
          2.5000000000e-01 2.6923077000e+01 0.0000000000e+00 
          2.5000000000e-01 2.7692308000e+01 0.0000000000e+00 
          2.5000000000e-01 2.8461538000e+01 0.0000000000e+00 
          2.5000000000e-01 2.9230769000e+01 0.0000000000e+00 
          0.0000000000e+00 7.6923100000e-01 0.0000000000e+00 
          0.0000000000e+00 1.5384620000e+00 0.0000000000e+00 
          0.0000000000e+00 2.3076920000e+00 0.0000000000e+00 
          0.0000000000e+00 3.0769230000e+00 0.0000000000e+00 
          0.0000000000e+00 3.8461540000e+00 0.0000000000e+00 
          0.0000000000e+00 4.6153850000e+00 0.0000000000e+00 
          0.0000000000e+00 5.3846150000e+00 0.0000000000e+00 
          0.0000000000e+00 6.1538460000e+00 0.0000000000e+00 
          0.0000000000e+00 6.9230770000e+00 0.0000000000e+00 
          0.0000000000e+00 7.6923080000e+00 0.0000000000e+00 
          0.0000000000e+00 8.4615380000e+00 0.0000000000e+00 
          0.0000000000e+00 9.2307690000e+00 0.0000000000e+00 
          0.0000000000e+00 1.0000000000e+01 0.0000000000e+00 
          0.0000000000e+00 1.0769231000e+01 0.0000000000e+00 
          0.0000000000e+00 1.1538462000e+01 0.0000000000e+00 
          0.0000000000e+00 1.2307692000e+01 0.0000000000e+00 
          0.0000000000e+00 1.3076923000e+01 0.0000000000e+00 
          0.0000000000e+00 1.3846154000e+01 0.0000000000e+00 
          0.0000000000e+00 1.4615385000e+01 0.0000000000e+00 
          0.0000000000e+00 1.5384615000e+01 0.0000000000e+00 
          0.0000000000e+00 1.6153846000e+01 0.0000000000e+00 
          0.0000000000e+00 1.6923077000e+01 0.0000000000e+00 
          0.0000000000e+00 1.7692308000e+01 0.0000000000e+00 
          0.0000000000e+00 1.8461538000e+01 0.0000000000e+00 
          0.0000000000e+00 1.9230769000e+01 0.0000000000e+00 
          0.0000000000e+00 2.0000000000e+01 0.0000000000e+00 
          0.0000000000e+00 2.0769231000e+01 0.0000000000e+00 
          0.0000000000e+00 2.1538462000e+01 0.0000000000e+00 
          0.0000000000e+00 2.2307692000e+01 0.0000000000e+00 
          0.0000000000e+00 2.3076923000e+01 0.0000000000e+00 
          0.0000000000e+00 2.3846154000e+01 0.0000000000e+00 
          0.0000000000e+00 2.4615385000e+01 0.0000000000e+00 
          0.0000000000e+00 2.5384615000e+01 0.0000000000e+00 
          0.0000000000e+00 2.6153846000e+01 0.0000000000e+00 
          0.0000000000e+00 2.6923077000e+01 0.0000000000e+00 
          0.0000000000e+00 2.7692308000e+01 0.0000000000e+00 
          0.0000000000e+00 2.8461538000e+01 0.0000000000e+00 
          0.0000000000e+00 2.9230769000e+01 0.0000000000e+00 
        </DataArray>
      </Points>
      <Cells>
        <DataArray type="Int64" Name="connectivity" format="ascii">
          0
          1
          2
          3
          4
          5
          6
          7
          8
          9
          10
          11
          12
          13
          14
          15
          16
          17
          18
          19
          20
          21
          22
          23
          24
          25
          26
          27
          28
          29
          30
          31
          32
          33
          34
          35
          36
          37
          38
          39
          40
          41
          42
          43
          44
          45
          46
          47
          48
          49
          50
          51
          52
          53
          54
          55
          56
          57
          58
          59
          60
          61
          62
          63
          64
          65
          66
          67
          68
          69
          70
          71
          72
          73
          74
          75
          76
          77
          78
          79
          80
          81
        </DataArray>
        <DataArray type="Int64" Name="offsets" format="ascii">
          82
        </DataArray>
        <DataArray type="Int64" Name="types" format="ascii">
          2
        </DataArray>
      </Cells>
      <PointData>
        <DataArray type="Int64" Name="NodeTag" format="ascii">
          1
          2
          3
          4
          5
          6
          7
          8
          9
          10
          11
          12
          13
          14
          15
          16
          17
          18
          19
          20
          21
          22
          23
          24
          25
          26
          27
          28
          29
          30
          31
          32
          33
          34
          35
          36
          37
          38
          39
          40
          41
          42
          43
          44
          45
          46
          47
          48
          49
          50
          51
          52
          53
          54
          55
          56
          57
          58
          59
          60
          61
          62
          63
          64
          65
          66
          67
          68
          69
          70
          71
          72
          73
          74
          75
          76
          77
          78
          79
          80
          81
          82
        </DataArray>
        <DataArray type="Float64" Name="Velocity" NumberOfComponents="3" format="ascii">
          -1.8092480262e-19 -5.5750033950e-05 0.0000000000e+00 
          -1.8092480262e-19 -5.5750033950e-05 0.0000000000e+00 
          9.4788444569e-19 -6.3983956732e-05 0.0000000000e+00 
          9.4788444569e-19 -6.3983956732e-05 0.0000000000e+00 
          0.0000000000e+00 0.0000000000e+00 0.0000000000e+00 
          0.0000000000e+00 0.0000000000e+00 0.0000000000e+00 
          -3.0334135036e-18 -5.6650820409e-05 0.0000000000e+00 
          5.6216141409e-18 -5.6853750699e-05 0.0000000000e+00 
          -8.0997725548e-18 -5.6935159118e-05 0.0000000000e+00 
          5.1938236642e-18 -5.8408587857e-05 0.0000000000e+00 
          -3.7865703563e-18 -6.0102242062e-05 0.0000000000e+00 
          1.1573669921e-18 -6.1955833463e-05 0.0000000000e+00 
          -2.0070981319e-18 -6.3563666811e-05 0.0000000000e+00 
          2.4076781863e-18 -6.3956513844e-05 0.0000000000e+00 
          1.3442395143e-18 -6.4974007874e-05 0.0000000000e+00 
          -2.2819210806e-18 -6.6158785918e-05 0.0000000000e+00 
          1.1974046439e-18 -6.6260888557e-05 0.0000000000e+00 
          6.2581970724e-18 -6.5002274555e-05 0.0000000000e+00 
          -5.9129888452e-18 -6.3879610095e-05 0.0000000000e+00 
          1.9437603856e-18 -6.3518812279e-05 0.0000000000e+00 
          -3.1952772138e-18 -6.2757034717e-05 0.0000000000e+00 
          3.3472869209e-18 -6.2917620936e-05 0.0000000000e+00 
          -3.4093633678e-18 -6.3330465411e-05 0.0000000000e+00 
          -1.0324171338e-17 -6.3269673996e-05 0.0000000000e+00 
          1.0433651962e-17 -6.4223332534e-05 0.0000000000e+00 
          -1.0196428900e-19 -6.4897925373e-05 0.0000000000e+00 
          2.2068807077e-18 -6.4900932714e-05 0.0000000000e+00 
          -2.1018528700e-18 -6.4830438419e-05 0.0000000000e+00 
          2.4715286970e-18 -6.4491416634e-05 0.0000000000e+00 
          1.0793406395e-18 -6.3576850148e-05 0.0000000000e+00 
          -6.3633033964e-18 -6.2707749212e-05 0.0000000000e+00 
          4.9229205447e-18 -6.2899438812e-05 0.0000000000e+00 
          -3.3700675887e-18 -6.4089392154e-05 0.0000000000e+00 
          -2.0531753156e-18 -6.5053276095e-05 0.0000000000e+00 
          2.4968577254e-18 -6.4575442950e-05 0.0000000000e+00 
          -2.2307336455e-18 -6.4257948355e-05 0.0000000000e+00 
          3.5411649259e-18 -6.4035756712e-05 0.0000000000e+00 
          5.4319579911e-19 -6.3663059869e-05 0.0000000000e+00 
          -7.9425038881e-19 -6.3226709169e-05 0.0000000000e+00 
          1.6652238843e-19 -6.3820298985e-05 0.0000000000e+00 
          1.9414856862e-18 -6.4675212863e-05 0.0000000000e+00 
          -2.4721519935e-18 -6.4364147623e-05 0.0000000000e+00 
          -1.4542193326e-18 -6.3915719907e-05 0.0000000000e+00 
          -1.1108088708e-18 -6.3804206657e-05 0.0000000000e+00 
          -3.0334135036e-18 -5.6650820409e-05 0.0000000000e+00 
          5.6216141409e-18 -5.6853750699e-05 0.0000000000e+00 
          -8.0997725548e-18 -5.6935159118e-05 0.0000000000e+00 
          5.1938236642e-18 -5.8408587857e-05 0.0000000000e+00 
          -3.7865703563e-18 -6.0102242062e-05 0.0000000000e+00 
          1.1573669921e-18 -6.1955833463e-05 0.0000000000e+00 
          -2.0070981319e-18 -6.3563666811e-05 0.0000000000e+00 
          2.4076781863e-18 -6.3956513844e-05 0.0000000000e+00 
          1.3442395143e-18 -6.4974007874e-05 0.0000000000e+00 
          -2.2819210806e-18 -6.6158785918e-05 0.0000000000e+00 
          1.1974046439e-18 -6.6260888557e-05 0.0000000000e+00 
          6.2581970724e-18 -6.5002274555e-05 0.0000000000e+00 
          -5.9129888452e-18 -6.3879610095e-05 0.0000000000e+00 
          1.9437603856e-18 -6.3518812279e-05 0.0000000000e+00 
          -3.1952772138e-18 -6.2757034717e-05 0.0000000000e+00 
          3.3472869209e-18 -6.2917620936e-05 0.0000000000e+00 
          -3.4093633678e-18 -6.3330465411e-05 0.0000000000e+00 
          -1.0324171338e-17 -6.3269673996e-05 0.0000000000e+00 
          1.0433651962e-17 -6.4223332534e-05 0.0000000000e+00 
          -1.0196428900e-19 -6.4897925373e-05 0.0000000000e+00 
          2.2068807077e-18 -6.4900932714e-05 0.0000000000e+00 
          -2.1018528700e-18 -6.4830438419e-05 0.0000000000e+00 
          2.4715286970e-18 -6.4491416634e-05 0.0000000000e+00 
          1.0793406395e-18 -6.3576850148e-05 0.0000000000e+00 
          -6.3633033964e-18 -6.2707749212e-05 0.0000000000e+00 
          4.9229205447e-18 -6.2899438812e-05 0.0000000000e+00 
          -3.3700675887e-18 -6.4089392154e-05 0.0000000000e+00 
          -2.0531753156e-18 -6.5053276095e-05 0.0000000000e+00 
          2.4968577254e-18 -6.4575442950e-05 0.0000000000e+00 
          -2.2307336455e-18 -6.4257948355e-05 0.0000000000e+00 
          3.5411649259e-18 -6.4035756712e-05 0.0000000000e+00 
          5.4319579911e-19 -6.3663059869e-05 0.0000000000e+00 
          -7.9425038881e-19 -6.3226709169e-05 0.0000000000e+00 
          1.6652238843e-19 -6.3820298985e-05 0.0000000000e+00 
          1.9414856862e-18 -6.4675212863e-05 0.0000000000e+00 
          -2.4721519935e-18 -6.4364147623e-05 0.0000000000e+00 
          -1.4542193326e-18 -6.3915719907e-05 0.0000000000e+00 
          -1.1108088708e-18 -6.3804206657e-05 0.0000000000e+00 
        </DataArray>
        <DataArray type="Float64" Name="Displacement" NumberOfComponents="3" format="ascii">
          9.2468233641e-21 -5.6764194096e-05 0.0000000000e+00 
          9.2468233641e-21 -5.6764194096e-05 0.0000000000e+00 
          9.2577347048e-21 -7.3414668766e-05 0.0000000000e+00 
          9.2577347048e-21 -7.3414668766e-05 0.0000000000e+00 
          0.0000000000e+00 0.0000000000e+00 0.0000000000e+00 
          0.0000000000e+00 0.0000000000e+00 0.0000000000e+00 
          -6.3191868919e-21 -5.7614862478e-05 0.0000000000e+00 
          -7.0702697034e-21 -5.8437810324e-05 0.0000000000e+00 
          -1.9450800690e-20 -5.9234401732e-05 0.0000000000e+00 
          -9.5695472142e-21 -6.0006379779e-05 0.0000000000e+00 
          -5.4215066862e-21 -6.0757378212e-05 0.0000000000e+00 
          1.3873737146e-20 -6.1487561437e-05 0.0000000000e+00 
          -1.1492402057e-20 -6.2197322226e-05 0.0000000000e+00 
          2.4383356425e-20 -6.2888279284e-05 0.0000000000e+00 
          -2.7759644150e-21 -6.3559302606e-05 0.0000000000e+00 
          2.6258577203e-21 -6.4209514772e-05 0.0000000000e+00 
          2.6971543962e-20 -6.4837989996e-05 0.0000000000e+00 
          3.6936977449e-20 -6.5442993240e-05 0.0000000000e+00 
          -6.7985526809e-22 -6.6024002801e-05 0.0000000000e+00 
          8.8132268538e-22 -6.6581856514e-05 0.0000000000e+00 
          2.2363074107e-20 -6.7116696908e-05 0.0000000000e+00 
          1.0162096955e-20 -6.7627955119e-05 0.0000000000e+00 
          -1.9335051257e-21 -6.8116279820e-05 0.0000000000e+00 
          4.3875586741e-21 -6.8583887007e-05 0.0000000000e+00 
          9.5093565412e-21 -6.9033252939e-05 0.0000000000e+00 
          4.0988228484e-21 -6.9462556686e-05 0.0000000000e+00 
          -3.2471268846e-21 -6.9869435153e-05 0.0000000000e+00 
          8.0330187040e-21 -7.0253098151e-05 0.0000000000e+00 
          -9.4669188579e-21 -7.0614815497e-05 0.0000000000e+00 
          -2.7412398020e-20 -7.0953796917e-05 0.0000000000e+00 
          1.8875541023e-21 -7.1269425704e-05 0.0000000000e+00 
          -1.4249019985e-20 -7.1563835327e-05 0.0000000000e+00 
          -2.3845682768e-21 -7.1836126951e-05 0.0000000000e+00 
          6.7888942108e-21 -7.2086846533e-05 0.0000000000e+00 
          2.5278373482e-20 -7.2317545846e-05 0.0000000000e+00 
          1.1654681003e-20 -7.2526577229e-05 0.0000000000e+00 
          2.2253326972e-21 -7.2714019437e-05 0.0000000000e+00 
          1.0017833173e-20 -7.2879307188e-05 0.0000000000e+00 
          1.0761504330e-20 -7.3020474789e-05 0.0000000000e+00 
          1.0339691541e-20 -7.3138561247e-05 0.0000000000e+00 
          3.0783004637e-21 -7.3235268755e-05 0.0000000000e+00 
          -7.8366645015e-21 -7.3311663484e-05 0.0000000000e+00 
          2.4868959617e-20 -7.3368610862e-05 0.0000000000e+00 
          -8.6569552130e-21 -7.3403510980e-05 0.0000000000e+00 
          -6.3191868919e-21 -5.7614862478e-05 0.0000000000e+00 
          -7.0702697034e-21 -5.8437810324e-05 0.0000000000e+00 
          -1.9450800690e-20 -5.9234401732e-05 0.0000000000e+00 
          -9.5695472142e-21 -6.0006379779e-05 0.0000000000e+00 
          -5.4215066862e-21 -6.0757378212e-05 0.0000000000e+00 
          1.3873737146e-20 -6.1487561437e-05 0.0000000000e+00 
          -1.1492402057e-20 -6.2197322226e-05 0.0000000000e+00 
          2.4383356425e-20 -6.2888279284e-05 0.0000000000e+00 
          -2.7759644150e-21 -6.3559302606e-05 0.0000000000e+00 
          2.6258577203e-21 -6.4209514772e-05 0.0000000000e+00 
          2.6971543962e-20 -6.4837989996e-05 0.0000000000e+00 
          3.6936977449e-20 -6.5442993240e-05 0.0000000000e+00 
          -6.7985526809e-22 -6.6024002801e-05 0.0000000000e+00 
          8.8132268538e-22 -6.6581856514e-05 0.0000000000e+00 
          2.2363074107e-20 -6.7116696908e-05 0.0000000000e+00 
          1.0162096955e-20 -6.7627955119e-05 0.0000000000e+00 
          -1.9335051257e-21 -6.8116279820e-05 0.0000000000e+00 
          4.3875586741e-21 -6.8583887007e-05 0.0000000000e+00 
          9.5093565412e-21 -6.9033252939e-05 0.0000000000e+00 
          4.0988228484e-21 -6.9462556686e-05 0.0000000000e+00 
          -3.2471268846e-21 -6.9869435153e-05 0.0000000000e+00 
          8.0330187040e-21 -7.0253098151e-05 0.0000000000e+00 
          -9.4669188579e-21 -7.0614815497e-05 0.0000000000e+00 
          -2.7412398020e-20 -7.0953796917e-05 0.0000000000e+00 
          1.8875541023e-21 -7.1269425704e-05 0.0000000000e+00 
          -1.4249019985e-20 -7.1563835327e-05 0.0000000000e+00 
          -2.3845682768e-21 -7.1836126951e-05 0.0000000000e+00 
          6.7888942108e-21 -7.2086846533e-05 0.0000000000e+00 
          2.5278373482e-20 -7.2317545846e-05 0.0000000000e+00 
          1.1654681003e-20 -7.2526577229e-05 0.0000000000e+00 
          2.2253326972e-21 -7.2714019437e-05 0.0000000000e+00 
          1.0017833173e-20 -7.2879307188e-05 0.0000000000e+00 
          1.0761504330e-20 -7.3020474789e-05 0.0000000000e+00 
          1.0339691541e-20 -7.3138561247e-05 0.0000000000e+00 
          3.0783004637e-21 -7.3235268755e-05 0.0000000000e+00 
          -7.8366645015e-21 -7.3311663484e-05 0.0000000000e+00 
          2.4868959617e-20 -7.3368610862e-05 0.0000000000e+00 
          -8.6569552130e-21 -7.3403510980e-05 0.0000000000e+00 
        </DataArray>
        <DataArray type="Float64" Name="Acceleration" NumberOfComponents="3" format="ascii">
          -4.0424435846e-16 -5.1456561880e-05 0.0000000000e+00 
          -4.0424435846e-16 -5.1456561880e-05 0.0000000000e+00 
          -1.7776505245e-15 -1.5661098872e-03 0.0000000000e+00 
          -1.7776505245e-15 -1.5661098872e-03 0.0000000000e+00 
          0.0000000000e+00 0.0000000000e+00 0.0000000000e+00 
          0.0000000000e+00 0.0000000000e+00 0.0000000000e+00 
          5.1752699488e-16 -5.9211440391e-04 0.0000000000e+00 
          -7.6821697586e-16 -8.3811346346e-04 0.0000000000e+00 
          6.4702391200e-16 -1.1518502135e-03 0.0000000000e+00 
          1.2436238616e-15 -1.8068549869e-03 0.0000000000e+00 
          -1.9118600242e-16 -1.8364817054e-03 0.0000000000e+00 
          -1.7080278851e-15 -1.9074247261e-03 0.0000000000e+00 
          3.3219251962e-15 -2.1987893098e-03 0.0000000000e+00 
          -4.8211106349e-15 -1.9953263349e-03 0.0000000000e+00 
          2.1164501116e-15 -1.8372118490e-03 0.0000000000e+00 
          2.7302878924e-15 -1.6705263023e-03 0.0000000000e+00 
          -1.8656903159e-15 -1.3575710686e-03 0.0000000000e+00 
          -3.7135742937e-15 -1.2637077827e-03 0.0000000000e+00 
          3.6514907160e-15 -1.4146891692e-03 0.0000000000e+00 
          1.2440122592e-15 -1.4403732903e-03 0.0000000000e+00 
          -3.1950121064e-15 -1.3379789760e-03 0.0000000000e+00 
          6.1334035058e-16 -1.4546327798e-03 0.0000000000e+00 
          1.8495642584e-15 -1.8540867033e-03 0.0000000000e+00 
          -1.2846782832e-15 -2.3003179919e-03 0.0000000000e+00 
          -6.7070871502e-16 -1.9722778179e-03 0.0000000000e+00 
          7.6038793226e-16 -1.5462369933e-03 0.0000000000e+00 
          -1.1677101709e-16 -1.4039452627e-03 0.0000000000e+00 
          4.6754730595e-17 -1.6327712090e-03 0.0000000000e+00 
          -1.8758209822e-15 -1.4904375072e-03 0.0000000000e+00 
          3.7017759024e-15 -1.3791454704e-03 0.0000000000e+00 
          -2.9170494998e-15 -1.7636873722e-03 0.0000000000e+00 
          2.4790029511e-15 -1.6017134009e-03 0.0000000000e+00 
          -1.0887269445e-15 -1.7000973887e-03 0.0000000000e+00 
          2.2682394262e-15 -1.9797844335e-03 0.0000000000e+00 
          -3.5060388702e-15 -1.6827612086e-03 0.0000000000e+00 
          -4.6592173112e-16 -1.6970098793e-03 0.0000000000e+00 
          1.7634136351e-15 -1.5951437157e-03 0.0000000000e+00 
          9.8782556711e-17 -1.2409483891e-03 0.0000000000e+00 
          -8.2205971860e-16 -1.4281153110e-03 0.0000000000e+00 
          -3.1331794599e-16 -1.7348933425e-03 0.0000000000e+00 
          1.8883092818e-16 -1.9270212345e-03 0.0000000000e+00 
          2.8986630802e-15 -2.0829861369e-03 0.0000000000e+00 
          -4.5657817689e-15 -1.6144448987e-03 0.0000000000e+00 
          3.1179736334e-15 -1.3090026784e-03 0.0000000000e+00 
          5.1752699488e-16 -5.9211440391e-04 0.0000000000e+00 
          -7.6821697586e-16 -8.3811346346e-04 0.0000000000e+00 
          6.4702391200e-16 -1.1518502135e-03 0.0000000000e+00 
          1.2436238616e-15 -1.8068549869e-03 0.0000000000e+00 
          -1.9118600242e-16 -1.8364817054e-03 0.0000000000e+00 
          -1.7080278851e-15 -1.9074247261e-03 0.0000000000e+00 
          3.3219251962e-15 -2.1987893098e-03 0.0000000000e+00 
          -4.8211106349e-15 -1.9953263349e-03 0.0000000000e+00 
          2.1164501116e-15 -1.8372118490e-03 0.0000000000e+00 
          2.7302878924e-15 -1.6705263023e-03 0.0000000000e+00 
          -1.8656903159e-15 -1.3575710686e-03 0.0000000000e+00 
          -3.7135742937e-15 -1.2637077827e-03 0.0000000000e+00 
          3.6514907160e-15 -1.4146891692e-03 0.0000000000e+00 
          1.2440122592e-15 -1.4403732903e-03 0.0000000000e+00 
          -3.1950121064e-15 -1.3379789760e-03 0.0000000000e+00 
          6.1334035058e-16 -1.4546327798e-03 0.0000000000e+00 
          1.8495642584e-15 -1.8540867033e-03 0.0000000000e+00 
          -1.2846782832e-15 -2.3003179919e-03 0.0000000000e+00 
          -6.7070871502e-16 -1.9722778179e-03 0.0000000000e+00 
          7.6038793226e-16 -1.5462369933e-03 0.0000000000e+00 
          -1.1677101709e-16 -1.4039452627e-03 0.0000000000e+00 
          4.6754730595e-17 -1.6327712090e-03 0.0000000000e+00 
          -1.8758209822e-15 -1.4904375072e-03 0.0000000000e+00 
          3.7017759024e-15 -1.3791454704e-03 0.0000000000e+00 
          -2.9170494998e-15 -1.7636873722e-03 0.0000000000e+00 
          2.4790029511e-15 -1.6017134009e-03 0.0000000000e+00 
          -1.0887269445e-15 -1.7000973887e-03 0.0000000000e+00 
          2.2682394262e-15 -1.9797844335e-03 0.0000000000e+00 
          -3.5060388702e-15 -1.6827612086e-03 0.0000000000e+00 
          -4.6592173112e-16 -1.6970098793e-03 0.0000000000e+00 
          1.7634136351e-15 -1.5951437157e-03 0.0000000000e+00 
          9.8782556711e-17 -1.2409483891e-03 0.0000000000e+00 
          -8.2205971860e-16 -1.4281153110e-03 0.0000000000e+00 
          -3.1331794599e-16 -1.7348933425e-03 0.0000000000e+00 
          1.8883092818e-16 -1.9270212345e-03 0.0000000000e+00 
          2.8986630802e-15 -2.0829861369e-03 0.0000000000e+00 
          -4.5657817689e-15 -1.6144448987e-03 0.0000000000e+00 
          3.1179736334e-15 -1.3090026784e-03 0.0000000000e+00 
        </DataArray>
        <DataArray type="Float64" Name="Reaction" NumberOfComponents="3" format="ascii">
          0.0000000000e+00 0.0000000000e+00 0.0000000000e+00 
          0.0000000000e+00 0.0000000000e+00 0.0000000000e+00 
          0.0000000000e+00 0.0000000000e+00 0.0000000000e+00 
          0.0000000000e+00 0.0000000000e+00 0.0000000000e+00 
          0.0000000000e+00 0.0000000000e+00 0.0000000000e+00 
          0.0000000000e+00 0.0000000000e+00 0.0000000000e+00 
          0.0000000000e+00 0.0000000000e+00 0.0000000000e+00 
          0.0000000000e+00 0.0000000000e+00 0.0000000000e+00 
          0.0000000000e+00 0.0000000000e+00 0.0000000000e+00 
          0.0000000000e+00 0.0000000000e+00 0.0000000000e+00 
          0.0000000000e+00 0.0000000000e+00 0.0000000000e+00 
          0.0000000000e+00 0.0000000000e+00 0.0000000000e+00 
          0.0000000000e+00 0.0000000000e+00 0.0000000000e+00 
          0.0000000000e+00 0.0000000000e+00 0.0000000000e+00 
          0.0000000000e+00 0.0000000000e+00 0.0000000000e+00 
          0.0000000000e+00 0.0000000000e+00 0.0000000000e+00 
          0.0000000000e+00 0.0000000000e+00 0.0000000000e+00 
          0.0000000000e+00 0.0000000000e+00 0.0000000000e+00 
          0.0000000000e+00 0.0000000000e+00 0.0000000000e+00 
          0.0000000000e+00 0.0000000000e+00 0.0000000000e+00 
          0.0000000000e+00 0.0000000000e+00 0.0000000000e+00 
          0.0000000000e+00 0.0000000000e+00 0.0000000000e+00 
          0.0000000000e+00 0.0000000000e+00 0.0000000000e+00 
          0.0000000000e+00 0.0000000000e+00 0.0000000000e+00 
          0.0000000000e+00 0.0000000000e+00 0.0000000000e+00 
          0.0000000000e+00 0.0000000000e+00 0.0000000000e+00 
          0.0000000000e+00 0.0000000000e+00 0.0000000000e+00 
          0.0000000000e+00 0.0000000000e+00 0.0000000000e+00 
          0.0000000000e+00 0.0000000000e+00 0.0000000000e+00 
          0.0000000000e+00 0.0000000000e+00 0.0000000000e+00 
          0.0000000000e+00 0.0000000000e+00 0.0000000000e+00 
          0.0000000000e+00 0.0000000000e+00 0.0000000000e+00 
          0.0000000000e+00 0.0000000000e+00 0.0000000000e+00 
          0.0000000000e+00 0.0000000000e+00 0.0000000000e+00 
          0.0000000000e+00 0.0000000000e+00 0.0000000000e+00 
          0.0000000000e+00 0.0000000000e+00 0.0000000000e+00 
          0.0000000000e+00 0.0000000000e+00 0.0000000000e+00 
          0.0000000000e+00 0.0000000000e+00 0.0000000000e+00 
          0.0000000000e+00 0.0000000000e+00 0.0000000000e+00 
          0.0000000000e+00 0.0000000000e+00 0.0000000000e+00 
          0.0000000000e+00 0.0000000000e+00 0.0000000000e+00 
          0.0000000000e+00 0.0000000000e+00 0.0000000000e+00 
          0.0000000000e+00 0.0000000000e+00 0.0000000000e+00 
          0.0000000000e+00 0.0000000000e+00 0.0000000000e+00 
          0.0000000000e+00 0.0000000000e+00 0.0000000000e+00 
          0.0000000000e+00 0.0000000000e+00 0.0000000000e+00 
          0.0000000000e+00 0.0000000000e+00 0.0000000000e+00 
          0.0000000000e+00 0.0000000000e+00 0.0000000000e+00 
          0.0000000000e+00 0.0000000000e+00 0.0000000000e+00 
          0.0000000000e+00 0.0000000000e+00 0.0000000000e+00 
          0.0000000000e+00 0.0000000000e+00 0.0000000000e+00 
          0.0000000000e+00 0.0000000000e+00 0.0000000000e+00 
          0.0000000000e+00 0.0000000000e+00 0.0000000000e+00 
          0.0000000000e+00 0.0000000000e+00 0.0000000000e+00 
          0.0000000000e+00 0.0000000000e+00 0.0000000000e+00 
          0.0000000000e+00 0.0000000000e+00 0.0000000000e+00 
          0.0000000000e+00 0.0000000000e+00 0.0000000000e+00 
          0.0000000000e+00 0.0000000000e+00 0.0000000000e+00 
          0.0000000000e+00 0.0000000000e+00 0.0000000000e+00 
          0.0000000000e+00 0.0000000000e+00 0.0000000000e+00 
          0.0000000000e+00 0.0000000000e+00 0.0000000000e+00 
          0.0000000000e+00 0.0000000000e+00 0.0000000000e+00 
          0.0000000000e+00 0.0000000000e+00 0.0000000000e+00 
          0.0000000000e+00 0.0000000000e+00 0.0000000000e+00 
          0.0000000000e+00 0.0000000000e+00 0.0000000000e+00 
          0.0000000000e+00 0.0000000000e+00 0.0000000000e+00 
          0.0000000000e+00 0.0000000000e+00 0.0000000000e+00 
          0.0000000000e+00 0.0000000000e+00 0.0000000000e+00 
          0.0000000000e+00 0.0000000000e+00 0.0000000000e+00 
          0.0000000000e+00 0.0000000000e+00 0.0000000000e+00 
          0.0000000000e+00 0.0000000000e+00 0.0000000000e+00 
          0.0000000000e+00 0.0000000000e+00 0.0000000000e+00 
          0.0000000000e+00 0.0000000000e+00 0.0000000000e+00 
          0.0000000000e+00 0.0000000000e+00 0.0000000000e+00 
          0.0000000000e+00 0.0000000000e+00 0.0000000000e+00 
          0.0000000000e+00 0.0000000000e+00 0.0000000000e+00 
          0.0000000000e+00 0.0000000000e+00 0.0000000000e+00 
          0.0000000000e+00 0.0000000000e+00 0.0000000000e+00 
          0.0000000000e+00 0.0000000000e+00 0.0000000000e+00 
          0.0000000000e+00 0.0000000000e+00 0.0000000000e+00 
          0.0000000000e+00 0.0000000000e+00 0.0000000000e+00 
          0.0000000000e+00 0.0000000000e+00 0.0000000000e+00 
        </DataArray>
      </PointData>
      <CellData>
        <DataArray type="Int64" Name="ElementTag" format="ascii">
          0
        </DataArray>
      </CellData>
    </Piece>
  </UnstructuredGrid>
</VTKFile>
