<?xml version="1.0"?>
<VTKFile type="UnstructuredGrid" version="1.0" byte_order="LittleEndian" compressor="vtkZLibDataCompressor">
  <UnstructuredGrid>
    <Piece NumberOfPoints="82" NumberOfCells="1">
      <Points>
        <DataArray type="Float64" Name="Points" NumberOfComponents="3" format="ascii">
          0.0000000000e+00 0.0000000000e+00 0.0000000000e+00 
          2.5000000000e-01 0.0000000000e+00 0.0000000000e+00 
          2.5000000000e-01 3.0000000000e+01 0.0000000000e+00 
          0.0000000000e+00 3.0000000000e+01 0.0000000000e+00 
          0.0000000000e+00 -5.0000000000e+00 0.0000000000e+00 
          2.5000000000e-01 -5.0000000000e+00 0.0000000000e+00 
          2.5000000000e-01 7.6923100000e-01 0.0000000000e+00 
          2.5000000000e-01 1.5384620000e+00 0.0000000000e+00 
          2.5000000000e-01 2.3076920000e+00 0.0000000000e+00 
          2.5000000000e-01 3.0769230000e+00 0.0000000000e+00 
          2.5000000000e-01 3.8461540000e+00 0.0000000000e+00 
          2.5000000000e-01 4.6153850000e+00 0.0000000000e+00 
          2.5000000000e-01 5.3846150000e+00 0.0000000000e+00 
          2.5000000000e-01 6.1538460000e+00 0.0000000000e+00 
          2.5000000000e-01 6.9230770000e+00 0.0000000000e+00 
          2.5000000000e-01 7.6923080000e+00 0.0000000000e+00 
          2.5000000000e-01 8.4615380000e+00 0.0000000000e+00 
          2.5000000000e-01 9.2307690000e+00 0.0000000000e+00 
          2.5000000000e-01 1.0000000000e+01 0.0000000000e+00 
          2.5000000000e-01 1.0769231000e+01 0.0000000000e+00 
          2.5000000000e-01 1.1538462000e+01 0.0000000000e+00 
          2.5000000000e-01 1.2307692000e+01 0.0000000000e+00 
          2.5000000000e-01 1.3076923000e+01 0.0000000000e+00 
          2.5000000000e-01 1.3846154000e+01 0.0000000000e+00 
          2.5000000000e-01 1.4615385000e+01 0.0000000000e+00 
          2.5000000000e-01 1.5384615000e+01 0.0000000000e+00 
          2.5000000000e-01 1.6153846000e+01 0.0000000000e+00 
          2.5000000000e-01 1.6923077000e+01 0.0000000000e+00 
          2.5000000000e-01 1.7692308000e+01 0.0000000000e+00 
          2.5000000000e-01 1.8461538000e+01 0.0000000000e+00 
          2.5000000000e-01 1.9230769000e+01 0.0000000000e+00 
          2.5000000000e-01 2.0000000000e+01 0.0000000000e+00 
          2.5000000000e-01 2.0769231000e+01 0.0000000000e+00 
          2.5000000000e-01 2.1538462000e+01 0.0000000000e+00 
          2.5000000000e-01 2.2307692000e+01 0.0000000000e+00 
          2.5000000000e-01 2.3076923000e+01 0.0000000000e+00 
          2.5000000000e-01 2.3846154000e+01 0.0000000000e+00 
          2.5000000000e-01 2.4615385000e+01 0.0000000000e+00 
          2.5000000000e-01 2.5384615000e+01 0.0000000000e+00 
          2.5000000000e-01 2.6153846000e+01 0.0000000000e+00 
          2.5000000000e-01 2.6923077000e+01 0.0000000000e+00 
          2.5000000000e-01 2.7692308000e+01 0.0000000000e+00 
          2.5000000000e-01 2.8461538000e+01 0.0000000000e+00 
          2.5000000000e-01 2.9230769000e+01 0.0000000000e+00 
          0.0000000000e+00 7.6923100000e-01 0.0000000000e+00 
          0.0000000000e+00 1.5384620000e+00 0.0000000000e+00 
          0.0000000000e+00 2.3076920000e+00 0.0000000000e+00 
          0.0000000000e+00 3.0769230000e+00 0.0000000000e+00 
          0.0000000000e+00 3.8461540000e+00 0.0000000000e+00 
          0.0000000000e+00 4.6153850000e+00 0.0000000000e+00 
          0.0000000000e+00 5.3846150000e+00 0.0000000000e+00 
          0.0000000000e+00 6.1538460000e+00 0.0000000000e+00 
          0.0000000000e+00 6.9230770000e+00 0.0000000000e+00 
          0.0000000000e+00 7.6923080000e+00 0.0000000000e+00 
          0.0000000000e+00 8.4615380000e+00 0.0000000000e+00 
          0.0000000000e+00 9.2307690000e+00 0.0000000000e+00 
          0.0000000000e+00 1.0000000000e+01 0.0000000000e+00 
          0.0000000000e+00 1.0769231000e+01 0.0000000000e+00 
          0.0000000000e+00 1.1538462000e+01 0.0000000000e+00 
          0.0000000000e+00 1.2307692000e+01 0.0000000000e+00 
          0.0000000000e+00 1.3076923000e+01 0.0000000000e+00 
          0.0000000000e+00 1.3846154000e+01 0.0000000000e+00 
          0.0000000000e+00 1.4615385000e+01 0.0000000000e+00 
          0.0000000000e+00 1.5384615000e+01 0.0000000000e+00 
          0.0000000000e+00 1.6153846000e+01 0.0000000000e+00 
          0.0000000000e+00 1.6923077000e+01 0.0000000000e+00 
          0.0000000000e+00 1.7692308000e+01 0.0000000000e+00 
          0.0000000000e+00 1.8461538000e+01 0.0000000000e+00 
          0.0000000000e+00 1.9230769000e+01 0.0000000000e+00 
          0.0000000000e+00 2.0000000000e+01 0.0000000000e+00 
          0.0000000000e+00 2.0769231000e+01 0.0000000000e+00 
          0.0000000000e+00 2.1538462000e+01 0.0000000000e+00 
          0.0000000000e+00 2.2307692000e+01 0.0000000000e+00 
          0.0000000000e+00 2.3076923000e+01 0.0000000000e+00 
          0.0000000000e+00 2.3846154000e+01 0.0000000000e+00 
          0.0000000000e+00 2.4615385000e+01 0.0000000000e+00 
          0.0000000000e+00 2.5384615000e+01 0.0000000000e+00 
          0.0000000000e+00 2.6153846000e+01 0.0000000000e+00 
          0.0000000000e+00 2.6923077000e+01 0.0000000000e+00 
          0.0000000000e+00 2.7692308000e+01 0.0000000000e+00 
          0.0000000000e+00 2.8461538000e+01 0.0000000000e+00 
          0.0000000000e+00 2.9230769000e+01 0.0000000000e+00 
        </DataArray>
      </Points>
      <Cells>
        <DataArray type="Int64" Name="connectivity" format="ascii">
          0
          1
          2
          3
          4
          5
          6
          7
          8
          9
          10
          11
          12
          13
          14
          15
          16
          17
          18
          19
          20
          21
          22
          23
          24
          25
          26
          27
          28
          29
          30
          31
          32
          33
          34
          35
          36
          37
          38
          39
          40
          41
          42
          43
          44
          45
          46
          47
          48
          49
          50
          51
          52
          53
          54
          55
          56
          57
          58
          59
          60
          61
          62
          63
          64
          65
          66
          67
          68
          69
          70
          71
          72
          73
          74
          75
          76
          77
          78
          79
          80
          81
        </DataArray>
        <DataArray type="Int64" Name="offsets" format="ascii">
          82
        </DataArray>
        <DataArray type="Int64" Name="types" format="ascii">
          2
        </DataArray>
      </Cells>
      <PointData>
        <DataArray type="Int64" Name="NodeTag" format="ascii">
          1
          2
          3
          4
          5
          6
          7
          8
          9
          10
          11
          12
          13
          14
          15
          16
          17
          18
          19
          20
          21
          22
          23
          24
          25
          26
          27
          28
          29
          30
          31
          32
          33
          34
          35
          36
          37
          38
          39
          40
          41
          42
          43
          44
          45
          46
          47
          48
          49
          50
          51
          52
          53
          54
          55
          56
          57
          58
          59
          60
          61
          62
          63
          64
          65
          66
          67
          68
          69
          70
          71
          72
          73
          74
          75
          76
          77
          78
          79
          80
          81
          82
        </DataArray>
        <DataArray type="Float64" Name="Velocity" NumberOfComponents="3" format="ascii">
          7.3877535311e-05 -7.7845331815e-05 0.0000000000e+00 
          7.3877535311e-05 -7.7845331815e-05 0.0000000000e+00 
          -7.7345894087e-04 -7.7791179840e-05 0.0000000000e+00 
          -7.7345894087e-04 -7.7791179840e-05 0.0000000000e+00 
          0.0000000000e+00 0.0000000000e+00 0.0000000000e+00 
          0.0000000000e+00 0.0000000000e+00 0.0000000000e+00 
          4.0189630007e-05 -7.7868938606e-05 0.0000000000e+00 
          6.4938047456e-06 -7.7824214114e-05 0.0000000000e+00 
          -2.7126937950e-05 -7.7841052191e-05 0.0000000000e+00 
          -6.0639002901e-05 -7.7880158884e-05 0.0000000000e+00 
          -9.3976547841e-05 -7.7804202584e-05 0.0000000000e+00 
          -1.2706887606e-04 -7.7884242957e-05 0.0000000000e+00 
          -1.5988553843e-04 -7.7838650686e-05 0.0000000000e+00 
          -1.9234866254e-04 -7.7811677108e-05 0.0000000000e+00 
          -2.2440832672e-04 -7.7915381323e-05 0.0000000000e+00 
          -2.5601757975e-04 -7.7794697625e-05 0.0000000000e+00 
          -2.8710774541e-04 -7.7866063608e-05 0.0000000000e+00 
          -3.1764307894e-04 -7.7850984511e-05 0.0000000000e+00 
          -3.4755698233e-04 -7.7851677356e-05 0.0000000000e+00 
          -3.7680154278e-04 -7.7834775322e-05 0.0000000000e+00 
          -4.0533791104e-04 -7.7868794416e-05 0.0000000000e+00 
          -4.3309935397e-04 -7.7841565978e-05 0.0000000000e+00 
          -4.6005484466e-04 -7.7839385660e-05 0.0000000000e+00 
          -4.8615091102e-04 -7.7886389749e-05 0.0000000000e+00 
          -5.1133962448e-04 -7.7796338679e-05 0.0000000000e+00 
          -5.3559029707e-04 -7.7905135641e-05 0.0000000000e+00 
          -5.5885023645e-04 -7.7825576227e-05 0.0000000000e+00 
          -5.8108599274e-04 -7.7836018140e-05 0.0000000000e+00 
          -6.0225629890e-04 -7.7903873264e-05 0.0000000000e+00 
          -6.2233350624e-04 -7.7788136584e-05 0.0000000000e+00 
          -6.4127021789e-04 -7.7908794821e-05 0.0000000000e+00 
          -6.5904850326e-04 -7.7804725865e-05 0.0000000000e+00 
          -6.7563257588e-04 -7.7887364050e-05 0.0000000000e+00 
          -6.9098571151e-04 -7.7839051271e-05 0.0000000000e+00 
          -7.0510488773e-04 -7.7831612560e-05 0.0000000000e+00 
          -7.1793857771e-04 -7.7897450723e-05 0.0000000000e+00 
          -7.2948753242e-04 -7.7814131326e-05 0.0000000000e+00 
          -7.3972441762e-04 -7.7848952644e-05 0.0000000000e+00 
          -7.4862010230e-04 -7.7894547829e-05 0.0000000000e+00 
          -7.5618992075e-04 -7.7801938131e-05 0.0000000000e+00 
          -7.6238642650e-04 -7.7868062964e-05 0.0000000000e+00 
          -7.6722216704e-04 -7.7879799547e-05 0.0000000000e+00 
          -7.7068442139e-04 -7.7794785975e-05 0.0000000000e+00 
          -7.7275513298e-04 -7.7912047326e-05 0.0000000000e+00 
          4.0189630007e-05 -7.7868938606e-05 0.0000000000e+00 
          6.4938047456e-06 -7.7824214114e-05 0.0000000000e+00 
          -2.7126937950e-05 -7.7841052191e-05 0.0000000000e+00 
          -6.0639002901e-05 -7.7880158884e-05 0.0000000000e+00 
          -9.3976547841e-05 -7.7804202584e-05 0.0000000000e+00 
          -1.2706887606e-04 -7.7884242957e-05 0.0000000000e+00 
          -1.5988553843e-04 -7.7838650686e-05 0.0000000000e+00 
          -1.9234866254e-04 -7.7811677108e-05 0.0000000000e+00 
          -2.2440832672e-04 -7.7915381323e-05 0.0000000000e+00 
          -2.5601757975e-04 -7.7794697625e-05 0.0000000000e+00 
          -2.8710774541e-04 -7.7866063608e-05 0.0000000000e+00 
          -3.1764307894e-04 -7.7850984511e-05 0.0000000000e+00 
          -3.4755698233e-04 -7.7851677356e-05 0.0000000000e+00 
          -3.7680154278e-04 -7.7834775322e-05 0.0000000000e+00 
          -4.0533791104e-04 -7.7868794416e-05 0.0000000000e+00 
          -4.3309935397e-04 -7.7841565978e-05 0.0000000000e+00 
          -4.6005484466e-04 -7.7839385660e-05 0.0000000000e+00 
          -4.8615091102e-04 -7.7886389749e-05 0.0000000000e+00 
          -5.1133962448e-04 -7.7796338679e-05 0.0000000000e+00 
          -5.3559029707e-04 -7.7905135641e-05 0.0000000000e+00 
          -5.5885023645e-04 -7.7825576227e-05 0.0000000000e+00 
          -5.8108599274e-04 -7.7836018140e-05 0.0000000000e+00 
          -6.0225629890e-04 -7.7903873264e-05 0.0000000000e+00 
          -6.2233350624e-04 -7.7788136584e-05 0.0000000000e+00 
          -6.4127021789e-04 -7.7908794821e-05 0.0000000000e+00 
          -6.5904850326e-04 -7.7804725865e-05 0.0000000000e+00 
          -6.7563257588e-04 -7.7887364050e-05 0.0000000000e+00 
          -6.9098571151e-04 -7.7839051271e-05 0.0000000000e+00 
          -7.0510488773e-04 -7.7831612560e-05 0.0000000000e+00 
          -7.1793857771e-04 -7.7897450723e-05 0.0000000000e+00 
          -7.2948753242e-04 -7.7814131326e-05 0.0000000000e+00 
          -7.3972441762e-04 -7.7848952644e-05 0.0000000000e+00 
          -7.4862010230e-04 -7.7894547829e-05 0.0000000000e+00 
          -7.5618992075e-04 -7.7801938131e-05 0.0000000000e+00 
          -7.6238642650e-04 -7.7868062964e-05 0.0000000000e+00 
          -7.6722216704e-04 -7.7879799547e-05 0.0000000000e+00 
          -7.7068442139e-04 -7.7794785975e-05 0.0000000000e+00 
          -7.7275513298e-04 -7.7912047326e-05 0.0000000000e+00 
        </DataArray>
        <DataArray type="Float64" Name="Displacement" NumberOfComponents="3" format="ascii">
          1.2101104366e-05 -4.9638046100e-04 0.0000000000e+00 
          1.2101104366e-05 -4.9638046100e-04 0.0000000000e+00 
          3.7324427191e-05 -5.1996120489e-04 0.0000000000e+00 
          3.7324427191e-05 -5.1996120489e-04 0.0000000000e+00 
          0.0000000000e+00 0.0000000000e+00 0.0000000000e+00 
          0.0000000000e+00 0.0000000000e+00 0.0000000000e+00 
          1.3316718188e-05 -4.9757422243e-04 0.0000000000e+00 
          1.4508921637e-05 -4.9873694230e-04 0.0000000000e+00 
          1.5676873647e-05 -4.9986877226e-04 0.0000000000e+00 
          1.6819715452e-05 -5.0096938932e-04 0.0000000000e+00 
          1.7936697688e-05 -5.0203923378e-04 0.0000000000e+00 
          1.9027051985e-05 -5.0307787365e-04 0.0000000000e+00 
          2.0090074142e-05 -5.0408564359e-04 0.0000000000e+00 
          2.1125130707e-05 -5.0506235547e-04 0.0000000000e+00 
          2.2131542445e-05 -5.0600799790e-04 0.0000000000e+00 
          2.3108784538e-05 -5.0692281244e-04 0.0000000000e+00 
          2.4056277401e-05 -5.0780637749e-04 0.0000000000e+00 
          2.4973522737e-05 -5.0865917821e-04 0.0000000000e+00 
          2.5860061514e-05 -5.0948078619e-04 0.0000000000e+00 
          2.6715460595e-05 -5.1027149182e-04 0.0000000000e+00 
          2.7539324440e-05 -5.1103117301e-04 0.0000000000e+00 
          2.8331298978e-05 -5.1175977816e-04 0.0000000000e+00 
          2.9091064693e-05 -5.1245751801e-04 0.0000000000e+00 
          2.9818321047e-05 -5.1312411116e-04 0.0000000000e+00 
          3.0512825635e-05 -5.1375973743e-04 0.0000000000e+00 
          3.1174329890e-05 -5.1436443527e-04 0.0000000000e+00 
          3.1802647985e-05 -5.1493803287e-04 0.0000000000e+00 
          3.2397596676e-05 -5.1548061138e-04 0.0000000000e+00 
          3.2959024210e-05 -5.1599233262e-04 0.0000000000e+00 
          3.3486805928e-05 -5.1647283918e-04 0.0000000000e+00 
          3.3980833610e-05 -5.1692250276e-04 0.0000000000e+00 
          3.4441009205e-05 -5.1734106902e-04 0.0000000000e+00 
          3.4867269193e-05 -5.1772868676e-04 0.0000000000e+00 
          3.5259550118e-05 -5.1808522368e-04 0.0000000000e+00 
          3.5617799684e-05 -5.1841084956e-04 0.0000000000e+00 
          3.5941996108e-05 -5.1870537809e-04 0.0000000000e+00 
          3.6232094307e-05 -5.1896895370e-04 0.0000000000e+00 
          3.6488097056e-05 -5.1920152144e-04 0.0000000000e+00 
          3.6709971559e-05 -5.1940302721e-04 0.0000000000e+00 
          3.6897715521e-05 -5.1957363243e-04 0.0000000000e+00 
          3.7051340193e-05 -5.1971309799e-04 0.0000000000e+00 
          3.7170812663e-05 -5.1982167481e-04 0.0000000000e+00 
          3.7256158461e-05 -5.1989917315e-04 0.0000000000e+00 
          3.7307365203e-05 -5.1994567121e-04 0.0000000000e+00 
          1.3316718188e-05 -4.9757422243e-04 0.0000000000e+00 
          1.4508921637e-05 -4.9873694230e-04 0.0000000000e+00 
          1.5676873647e-05 -4.9986877226e-04 0.0000000000e+00 
          1.6819715452e-05 -5.0096938932e-04 0.0000000000e+00 
          1.7936697688e-05 -5.0203923378e-04 0.0000000000e+00 
          1.9027051985e-05 -5.0307787365e-04 0.0000000000e+00 
          2.0090074142e-05 -5.0408564359e-04 0.0000000000e+00 
          2.1125130707e-05 -5.0506235547e-04 0.0000000000e+00 
          2.2131542445e-05 -5.0600799790e-04 0.0000000000e+00 
          2.3108784538e-05 -5.0692281244e-04 0.0000000000e+00 
          2.4056277401e-05 -5.0780637749e-04 0.0000000000e+00 
          2.4973522737e-05 -5.0865917821e-04 0.0000000000e+00 
          2.5860061514e-05 -5.0948078619e-04 0.0000000000e+00 
          2.6715460595e-05 -5.1027149182e-04 0.0000000000e+00 
          2.7539324440e-05 -5.1103117301e-04 0.0000000000e+00 
          2.8331298978e-05 -5.1175977816e-04 0.0000000000e+00 
          2.9091064693e-05 -5.1245751801e-04 0.0000000000e+00 
          2.9818321047e-05 -5.1312411116e-04 0.0000000000e+00 
          3.0512825635e-05 -5.1375973743e-04 0.0000000000e+00 
          3.1174329890e-05 -5.1436443527e-04 0.0000000000e+00 
          3.1802647985e-05 -5.1493803287e-04 0.0000000000e+00 
          3.2397596676e-05 -5.1548061138e-04 0.0000000000e+00 
          3.2959024210e-05 -5.1599233262e-04 0.0000000000e+00 
          3.3486805928e-05 -5.1647283918e-04 0.0000000000e+00 
          3.3980833610e-05 -5.1692250276e-04 0.0000000000e+00 
          3.4441009205e-05 -5.1734106902e-04 0.0000000000e+00 
          3.4867269193e-05 -5.1772868676e-04 0.0000000000e+00 
          3.5259550118e-05 -5.1808522368e-04 0.0000000000e+00 
          3.5617799684e-05 -5.1841084956e-04 0.0000000000e+00 
          3.5941996108e-05 -5.1870537809e-04 0.0000000000e+00 
          3.6232094307e-05 -5.1896895370e-04 0.0000000000e+00 
          3.6488097056e-05 -5.1920152144e-04 0.0000000000e+00 
          3.6709971559e-05 -5.1940302721e-04 0.0000000000e+00 
          3.6897715521e-05 -5.1957363243e-04 0.0000000000e+00 
          3.7051340193e-05 -5.1971309799e-04 0.0000000000e+00 
          3.7170812663e-05 -5.1982167481e-04 0.0000000000e+00 
          3.7256158461e-05 -5.1989917315e-04 0.0000000000e+00 
          3.7307365203e-05 -5.1994567121e-04 0.0000000000e+00 
        </DataArray>
        <DataArray type="Float64" Name="Acceleration" NumberOfComponents="3" format="ascii">
          -2.0268866506e-03 -1.5841228502e-06 0.0000000000e+00 
          -2.0268866506e-03 -1.5841228502e-06 0.0000000000e+00 
          -3.0746375816e-03 1.0994523465e-05 0.0000000000e+00 
          -3.0746375816e-03 1.0994523465e-05 0.0000000000e+00 
          0.0000000000e+00 0.0000000000e+00 0.0000000000e+00 
          0.0000000000e+00 0.0000000000e+00 0.0000000000e+00 
          -2.1093208203e-03 6.3478382702e-06 0.0000000000e+00 
          -2.1849671351e-03 -2.1241520240e-05 0.0000000000e+00 
          -2.2626174121e-03 3.7491468788e-05 0.0000000000e+00 
          -2.3299981302e-03 -4.2119390528e-05 0.0000000000e+00 
          -2.3992299260e-03 3.5724459043e-05 0.0000000000e+00 
          -2.4625569193e-03 -2.4811844252e-05 0.0000000000e+00 
          -2.5198811463e-03 9.5581797147e-06 0.0000000000e+00 
          -2.5809555651e-03 1.1375143962e-05 0.0000000000e+00 
          -2.6282425659e-03 -3.2157745866e-05 0.0000000000e+00 
          -2.6803551065e-03 4.3614602507e-05 0.0000000000e+00 
          -2.7254746988e-03 -4.3400374652e-05 0.0000000000e+00 
          -2.7667216676e-03 3.3590414003e-05 0.0000000000e+00 
          -2.8057480407e-03 -1.8739194112e-05 0.0000000000e+00 
          -2.8413870870e-03 3.2634723351e-06 0.0000000000e+00 
          -2.8731985950e-03 1.2392744358e-05 0.0000000000e+00 
          -2.9021731787e-03 -2.5242552140e-05 0.0000000000e+00 
          -2.9291577377e-03 2.5296959581e-05 0.0000000000e+00 
          -2.9509986562e-03 -7.1117270280e-06 0.0000000000e+00 
          -2.9733196983e-03 -1.4178536037e-05 0.0000000000e+00 
          -2.9902179977e-03 1.7069384498e-05 0.0000000000e+00 
          -3.0066492217e-03 2.2963359012e-06 0.0000000000e+00 
          -3.0203223867e-03 -2.6862388124e-05 0.0000000000e+00 
          -3.0314946478e-03 3.7437723399e-05 0.0000000000e+00 
          -3.0413690735e-03 -2.9324193773e-05 0.0000000000e+00 
          -3.0501398711e-03 1.6396987611e-05 0.0000000000e+00 
          -3.0558632170e-03 -1.0420322627e-05 0.0000000000e+00 
          -3.0615806613e-03 1.3424647698e-05 0.0000000000e+00 
          -3.0662527160e-03 -1.7247529381e-05 0.0000000000e+00 
          -3.0682992109e-03 1.6481356144e-05 0.0000000000e+00 
          -3.0723174484e-03 -9.6266351869e-06 0.0000000000e+00 
          -3.0720674407e-03 2.7770328942e-07 0.0000000000e+00 
          -3.0749983508e-03 9.9812243345e-06 0.0000000000e+00 
          -3.0752570820e-03 -1.9013673289e-05 0.0000000000e+00 
          -3.0742154324e-03 2.4027198025e-05 0.0000000000e+00 
          -3.0771808905e-03 -2.1192709599e-05 0.0000000000e+00 
          -3.0748725007e-03 1.2986791680e-05 0.0000000000e+00 
          -3.0760083133e-03 -1.0711951015e-06 0.0000000000e+00 
          -3.0765098417e-03 -7.5587318806e-06 0.0000000000e+00 
          -2.1093208203e-03 6.3478382702e-06 0.0000000000e+00 
          -2.1849671351e-03 -2.1241520240e-05 0.0000000000e+00 
          -2.2626174121e-03 3.7491468788e-05 0.0000000000e+00 
          -2.3299981302e-03 -4.2119390528e-05 0.0000000000e+00 
          -2.3992299260e-03 3.5724459043e-05 0.0000000000e+00 
          -2.4625569193e-03 -2.4811844252e-05 0.0000000000e+00 
          -2.5198811463e-03 9.5581797147e-06 0.0000000000e+00 
          -2.5809555651e-03 1.1375143962e-05 0.0000000000e+00 
          -2.6282425659e-03 -3.2157745866e-05 0.0000000000e+00 
          -2.6803551065e-03 4.3614602507e-05 0.0000000000e+00 
          -2.7254746988e-03 -4.3400374652e-05 0.0000000000e+00 
          -2.7667216676e-03 3.3590414003e-05 0.0000000000e+00 
          -2.8057480407e-03 -1.8739194112e-05 0.0000000000e+00 
          -2.8413870870e-03 3.2634723351e-06 0.0000000000e+00 
          -2.8731985950e-03 1.2392744358e-05 0.0000000000e+00 
          -2.9021731787e-03 -2.5242552140e-05 0.0000000000e+00 
          -2.9291577377e-03 2.5296959581e-05 0.0000000000e+00 
          -2.9509986562e-03 -7.1117270280e-06 0.0000000000e+00 
          -2.9733196983e-03 -1.4178536037e-05 0.0000000000e+00 
          -2.9902179977e-03 1.7069384498e-05 0.0000000000e+00 
          -3.0066492217e-03 2.2963359012e-06 0.0000000000e+00 
          -3.0203223867e-03 -2.6862388124e-05 0.0000000000e+00 
          -3.0314946478e-03 3.7437723399e-05 0.0000000000e+00 
          -3.0413690735e-03 -2.9324193773e-05 0.0000000000e+00 
          -3.0501398711e-03 1.6396987611e-05 0.0000000000e+00 
          -3.0558632170e-03 -1.0420322627e-05 0.0000000000e+00 
          -3.0615806613e-03 1.3424647698e-05 0.0000000000e+00 
          -3.0662527160e-03 -1.7247529381e-05 0.0000000000e+00 
          -3.0682992109e-03 1.6481356144e-05 0.0000000000e+00 
          -3.0723174484e-03 -9.6266351869e-06 0.0000000000e+00 
          -3.0720674407e-03 2.7770328942e-07 0.0000000000e+00 
          -3.0749983508e-03 9.9812243345e-06 0.0000000000e+00 
          -3.0752570820e-03 -1.9013673289e-05 0.0000000000e+00 
          -3.0742154324e-03 2.4027198025e-05 0.0000000000e+00 
          -3.0771808905e-03 -2.1192709599e-05 0.0000000000e+00 
          -3.0748725007e-03 1.2986791680e-05 0.0000000000e+00 
          -3.0760083133e-03 -1.0711951015e-06 0.0000000000e+00 
          -3.0765098417e-03 -7.5587318806e-06 0.0000000000e+00 
        </DataArray>
        <DataArray type="Float64" Name="Reaction" NumberOfComponents="3" format="ascii">
          0.0000000000e+00 0.0000000000e+00 0.0000000000e+00 
          0.0000000000e+00 0.0000000000e+00 0.0000000000e+00 
          0.0000000000e+00 0.0000000000e+00 0.0000000000e+00 
          0.0000000000e+00 0.0000000000e+00 0.0000000000e+00 
          0.0000000000e+00 0.0000000000e+00 0.0000000000e+00 
          0.0000000000e+00 0.0000000000e+00 0.0000000000e+00 
          0.0000000000e+00 0.0000000000e+00 0.0000000000e+00 
          0.0000000000e+00 0.0000000000e+00 0.0000000000e+00 
          0.0000000000e+00 0.0000000000e+00 0.0000000000e+00 
          0.0000000000e+00 0.0000000000e+00 0.0000000000e+00 
          0.0000000000e+00 0.0000000000e+00 0.0000000000e+00 
          0.0000000000e+00 0.0000000000e+00 0.0000000000e+00 
          0.0000000000e+00 0.0000000000e+00 0.0000000000e+00 
          0.0000000000e+00 0.0000000000e+00 0.0000000000e+00 
          0.0000000000e+00 0.0000000000e+00 0.0000000000e+00 
          0.0000000000e+00 0.0000000000e+00 0.0000000000e+00 
          0.0000000000e+00 0.0000000000e+00 0.0000000000e+00 
          0.0000000000e+00 0.0000000000e+00 0.0000000000e+00 
          0.0000000000e+00 0.0000000000e+00 0.0000000000e+00 
          0.0000000000e+00 0.0000000000e+00 0.0000000000e+00 
          0.0000000000e+00 0.0000000000e+00 0.0000000000e+00 
          0.0000000000e+00 0.0000000000e+00 0.0000000000e+00 
          0.0000000000e+00 0.0000000000e+00 0.0000000000e+00 
          0.0000000000e+00 0.0000000000e+00 0.0000000000e+00 
          0.0000000000e+00 0.0000000000e+00 0.0000000000e+00 
          0.0000000000e+00 0.0000000000e+00 0.0000000000e+00 
          0.0000000000e+00 0.0000000000e+00 0.0000000000e+00 
          0.0000000000e+00 0.0000000000e+00 0.0000000000e+00 
          0.0000000000e+00 0.0000000000e+00 0.0000000000e+00 
          0.0000000000e+00 0.0000000000e+00 0.0000000000e+00 
          0.0000000000e+00 0.0000000000e+00 0.0000000000e+00 
          0.0000000000e+00 0.0000000000e+00 0.0000000000e+00 
          0.0000000000e+00 0.0000000000e+00 0.0000000000e+00 
          0.0000000000e+00 0.0000000000e+00 0.0000000000e+00 
          0.0000000000e+00 0.0000000000e+00 0.0000000000e+00 
          0.0000000000e+00 0.0000000000e+00 0.0000000000e+00 
          0.0000000000e+00 0.0000000000e+00 0.0000000000e+00 
          0.0000000000e+00 0.0000000000e+00 0.0000000000e+00 
          0.0000000000e+00 0.0000000000e+00 0.0000000000e+00 
          0.0000000000e+00 0.0000000000e+00 0.0000000000e+00 
          0.0000000000e+00 0.0000000000e+00 0.0000000000e+00 
          0.0000000000e+00 0.0000000000e+00 0.0000000000e+00 
          0.0000000000e+00 0.0000000000e+00 0.0000000000e+00 
          0.0000000000e+00 0.0000000000e+00 0.0000000000e+00 
          0.0000000000e+00 0.0000000000e+00 0.0000000000e+00 
          0.0000000000e+00 0.0000000000e+00 0.0000000000e+00 
          0.0000000000e+00 0.0000000000e+00 0.0000000000e+00 
          0.0000000000e+00 0.0000000000e+00 0.0000000000e+00 
          0.0000000000e+00 0.0000000000e+00 0.0000000000e+00 
          0.0000000000e+00 0.0000000000e+00 0.0000000000e+00 
          0.0000000000e+00 0.0000000000e+00 0.0000000000e+00 
          0.0000000000e+00 0.0000000000e+00 0.0000000000e+00 
          0.0000000000e+00 0.0000000000e+00 0.0000000000e+00 
          0.0000000000e+00 0.0000000000e+00 0.0000000000e+00 
          0.0000000000e+00 0.0000000000e+00 0.0000000000e+00 
          0.0000000000e+00 0.0000000000e+00 0.0000000000e+00 
          0.0000000000e+00 0.0000000000e+00 0.0000000000e+00 
          0.0000000000e+00 0.0000000000e+00 0.0000000000e+00 
          0.0000000000e+00 0.0000000000e+00 0.0000000000e+00 
          0.0000000000e+00 0.0000000000e+00 0.0000000000e+00 
          0.0000000000e+00 0.0000000000e+00 0.0000000000e+00 
          0.0000000000e+00 0.0000000000e+00 0.0000000000e+00 
          0.0000000000e+00 0.0000000000e+00 0.0000000000e+00 
          0.0000000000e+00 0.0000000000e+00 0.0000000000e+00 
          0.0000000000e+00 0.0000000000e+00 0.0000000000e+00 
          0.0000000000e+00 0.0000000000e+00 0.0000000000e+00 
          0.0000000000e+00 0.0000000000e+00 0.0000000000e+00 
          0.0000000000e+00 0.0000000000e+00 0.0000000000e+00 
          0.0000000000e+00 0.0000000000e+00 0.0000000000e+00 
          0.0000000000e+00 0.0000000000e+00 0.0000000000e+00 
          0.0000000000e+00 0.0000000000e+00 0.0000000000e+00 
          0.0000000000e+00 0.0000000000e+00 0.0000000000e+00 
          0.0000000000e+00 0.0000000000e+00 0.0000000000e+00 
          0.0000000000e+00 0.0000000000e+00 0.0000000000e+00 
          0.0000000000e+00 0.0000000000e+00 0.0000000000e+00 
          0.0000000000e+00 0.0000000000e+00 0.0000000000e+00 
          0.0000000000e+00 0.0000000000e+00 0.0000000000e+00 
          0.0000000000e+00 0.0000000000e+00 0.0000000000e+00 
          0.0000000000e+00 0.0000000000e+00 0.0000000000e+00 
          0.0000000000e+00 0.0000000000e+00 0.0000000000e+00 
          0.0000000000e+00 0.0000000000e+00 0.0000000000e+00 
          0.0000000000e+00 0.0000000000e+00 0.0000000000e+00 
        </DataArray>
      </PointData>
      <CellData>
        <DataArray type="Int64" Name="ElementTag" format="ascii">
          0
        </DataArray>
      </CellData>
    </Piece>
  </UnstructuredGrid>
</VTKFile>
