<?xml version="1.0"?>
<VTKFile type="UnstructuredGrid" version="1.0" byte_order="LittleEndian" compressor="vtkZLibDataCompressor">
  <UnstructuredGrid>
    <Piece NumberOfPoints="80" NumberOfCells="39">
      <Points>
        <DataArray type="Float64" Name="Points" NumberOfComponents="3" format="ascii">
          0.0000000000e+00 0.0000000000e+00 0.0000000000e+00 
          2.5000000000e-01 0.0000000000e+00 0.0000000000e+00 
          2.5000000000e-01 3.0000000000e+01 0.0000000000e+00 
          0.0000000000e+00 3.0000000000e+01 0.0000000000e+00 
          2.5000000000e-01 7.6923100000e-01 0.0000000000e+00 
          2.5000000000e-01 1.5384620000e+00 0.0000000000e+00 
          2.5000000000e-01 2.3076920000e+00 0.0000000000e+00 
          2.5000000000e-01 3.0769230000e+00 0.0000000000e+00 
          2.5000000000e-01 3.8461540000e+00 0.0000000000e+00 
          2.5000000000e-01 4.6153850000e+00 0.0000000000e+00 
          2.5000000000e-01 5.3846150000e+00 0.0000000000e+00 
          2.5000000000e-01 6.1538460000e+00 0.0000000000e+00 
          2.5000000000e-01 6.9230770000e+00 0.0000000000e+00 
          2.5000000000e-01 7.6923080000e+00 0.0000000000e+00 
          2.5000000000e-01 8.4615380000e+00 0.0000000000e+00 
          2.5000000000e-01 9.2307690000e+00 0.0000000000e+00 
          2.5000000000e-01 1.0000000000e+01 0.0000000000e+00 
          2.5000000000e-01 1.0769231000e+01 0.0000000000e+00 
          2.5000000000e-01 1.1538462000e+01 0.0000000000e+00 
          2.5000000000e-01 1.2307692000e+01 0.0000000000e+00 
          2.5000000000e-01 1.3076923000e+01 0.0000000000e+00 
          2.5000000000e-01 1.3846154000e+01 0.0000000000e+00 
          2.5000000000e-01 1.4615385000e+01 0.0000000000e+00 
          2.5000000000e-01 1.5384615000e+01 0.0000000000e+00 
          2.5000000000e-01 1.6153846000e+01 0.0000000000e+00 
          2.5000000000e-01 1.6923077000e+01 0.0000000000e+00 
          2.5000000000e-01 1.7692308000e+01 0.0000000000e+00 
          2.5000000000e-01 1.8461538000e+01 0.0000000000e+00 
          2.5000000000e-01 1.9230769000e+01 0.0000000000e+00 
          2.5000000000e-01 2.0000000000e+01 0.0000000000e+00 
          2.5000000000e-01 2.0769231000e+01 0.0000000000e+00 
          2.5000000000e-01 2.1538462000e+01 0.0000000000e+00 
          2.5000000000e-01 2.2307692000e+01 0.0000000000e+00 
          2.5000000000e-01 2.3076923000e+01 0.0000000000e+00 
          2.5000000000e-01 2.3846154000e+01 0.0000000000e+00 
          2.5000000000e-01 2.4615385000e+01 0.0000000000e+00 
          2.5000000000e-01 2.5384615000e+01 0.0000000000e+00 
          2.5000000000e-01 2.6153846000e+01 0.0000000000e+00 
          2.5000000000e-01 2.6923077000e+01 0.0000000000e+00 
          2.5000000000e-01 2.7692308000e+01 0.0000000000e+00 
          2.5000000000e-01 2.8461538000e+01 0.0000000000e+00 
          2.5000000000e-01 2.9230769000e+01 0.0000000000e+00 
          0.0000000000e+00 7.6923100000e-01 0.0000000000e+00 
          0.0000000000e+00 1.5384620000e+00 0.0000000000e+00 
          0.0000000000e+00 2.3076920000e+00 0.0000000000e+00 
          0.0000000000e+00 3.0769230000e+00 0.0000000000e+00 
          0.0000000000e+00 3.8461540000e+00 0.0000000000e+00 
          0.0000000000e+00 4.6153850000e+00 0.0000000000e+00 
          0.0000000000e+00 5.3846150000e+00 0.0000000000e+00 
          0.0000000000e+00 6.1538460000e+00 0.0000000000e+00 
          0.0000000000e+00 6.9230770000e+00 0.0000000000e+00 
          0.0000000000e+00 7.6923080000e+00 0.0000000000e+00 
          0.0000000000e+00 8.4615380000e+00 0.0000000000e+00 
          0.0000000000e+00 9.2307690000e+00 0.0000000000e+00 
          0.0000000000e+00 1.0000000000e+01 0.0000000000e+00 
          0.0000000000e+00 1.0769231000e+01 0.0000000000e+00 
          0.0000000000e+00 1.1538462000e+01 0.0000000000e+00 
          0.0000000000e+00 1.2307692000e+01 0.0000000000e+00 
          0.0000000000e+00 1.3076923000e+01 0.0000000000e+00 
          0.0000000000e+00 1.3846154000e+01 0.0000000000e+00 
          0.0000000000e+00 1.4615385000e+01 0.0000000000e+00 
          0.0000000000e+00 1.5384615000e+01 0.0000000000e+00 
          0.0000000000e+00 1.6153846000e+01 0.0000000000e+00 
          0.0000000000e+00 1.6923077000e+01 0.0000000000e+00 
          0.0000000000e+00 1.7692308000e+01 0.0000000000e+00 
          0.0000000000e+00 1.8461538000e+01 0.0000000000e+00 
          0.0000000000e+00 1.9230769000e+01 0.0000000000e+00 
          0.0000000000e+00 2.0000000000e+01 0.0000000000e+00 
          0.0000000000e+00 2.0769231000e+01 0.0000000000e+00 
          0.0000000000e+00 2.1538462000e+01 0.0000000000e+00 
          0.0000000000e+00 2.2307692000e+01 0.0000000000e+00 
          0.0000000000e+00 2.3076923000e+01 0.0000000000e+00 
          0.0000000000e+00 2.3846154000e+01 0.0000000000e+00 
          0.0000000000e+00 2.4615385000e+01 0.0000000000e+00 
          0.0000000000e+00 2.5384615000e+01 0.0000000000e+00 
          0.0000000000e+00 2.6153846000e+01 0.0000000000e+00 
          0.0000000000e+00 2.6923077000e+01 0.0000000000e+00 
          0.0000000000e+00 2.7692308000e+01 0.0000000000e+00 
          0.0000000000e+00 2.8461538000e+01 0.0000000000e+00 
          0.0000000000e+00 2.9230769000e+01 0.0000000000e+00 
        </DataArray>
      </Points>
      <Cells>
        <DataArray type="Int64" Name="connectivity" format="ascii">
          0 1 4 42 
          42 4 5 43 
          43 5 6 44 
          44 6 7 45 
          45 7 8 46 
          46 8 9 47 
          47 9 10 48 
          48 10 11 49 
          49 11 12 50 
          50 12 13 51 
          51 13 14 52 
          52 14 15 53 
          53 15 16 54 
          54 16 17 55 
          55 17 18 56 
          56 18 19 57 
          57 19 20 58 
          58 20 21 59 
          59 21 22 60 
          60 22 23 61 
          61 23 24 62 
          62 24 25 63 
          63 25 26 64 
          64 26 27 65 
          65 27 28 66 
          66 28 29 67 
          67 29 30 68 
          68 30 31 69 
          69 31 32 70 
          70 32 33 71 
          71 33 34 72 
          72 34 35 73 
          73 35 36 74 
          74 36 37 75 
          75 37 38 76 
          76 38 39 77 
          77 39 40 78 
          78 40 41 79 
          79 41 2 3 
        </DataArray>
        <DataArray type="Int64" Name="offsets" format="ascii">
          4
          8
          12
          16
          20
          24
          28
          32
          36
          40
          44
          48
          52
          56
          60
          64
          68
          72
          76
          80
          84
          88
          92
          96
          100
          104
          108
          112
          116
          120
          124
          128
          132
          136
          140
          144
          148
          152
          156
        </DataArray>
        <DataArray type="Int64" Name="types" format="ascii">
          9
          9
          9
          9
          9
          9
          9
          9
          9
          9
          9
          9
          9
          9
          9
          9
          9
          9
          9
          9
          9
          9
          9
          9
          9
          9
          9
          9
          9
          9
          9
          9
          9
          9
          9
          9
          9
          9
          9
        </DataArray>
      </Cells>
      <PointData>
        <DataArray type="Int64" Name="NodeTag" format="ascii">
          1
          2
          3
          4
          7
          8
          9
          10
          11
          12
          13
          14
          15
          16
          17
          18
          19
          20
          21
          22
          23
          24
          25
          26
          27
          28
          29
          30
          31
          32
          33
          34
          35
          36
          37
          38
          39
          40
          41
          42
          43
          44
          45
          46
          47
          48
          49
          50
          51
          52
          53
          54
          55
          56
          57
          58
          59
          60
          61
          62
          63
          64
          65
          66
          67
          68
          69
          70
          71
          72
          73
          74
          75
          76
          77
          78
          79
          80
          81
          82
        </DataArray>
        <DataArray type="Float64" Name="Velocity" NumberOfComponents="3" format="ascii">
          9.6457949551e-05 -7.3814261975e-05 0.0000000000e+00 
          9.6457949551e-05 -7.3814261975e-05 0.0000000000e+00 
          8.3647014751e-07 -9.0564840946e-05 0.0000000000e+00 
          8.3647014751e-07 -9.0564840946e-05 0.0000000000e+00 
          8.5362176707e-05 -7.4713508237e-05 0.0000000000e+00 
          7.5473503248e-05 -7.5295262474e-05 0.0000000000e+00 
          6.6669238715e-05 -7.6140708113e-05 0.0000000000e+00 
          5.8838117351e-05 -7.7058186552e-05 0.0000000000e+00 
          5.1879391720e-05 -7.8246068519e-05 0.0000000000e+00 
          4.5701911592e-05 -7.9287463157e-05 0.0000000000e+00 
          4.0223323752e-05 -8.0643924644e-05 0.0000000000e+00 
          3.5369286751e-05 -8.2259831205e-05 0.0000000000e+00 
          3.1072806442e-05 -8.3656476670e-05 0.0000000000e+00 
          2.7273548837e-05 -8.4685158724e-05 0.0000000000e+00 
          2.3917259621e-05 -8.5870456228e-05 0.0000000000e+00 
          2.0955194467e-05 -8.7011147837e-05 0.0000000000e+00 
          1.8343628752e-05 -8.7680067268e-05 0.0000000000e+00 
          1.6043370584e-05 -8.8245102082e-05 0.0000000000e+00 
          1.4019338313e-05 -8.8931160145e-05 0.0000000000e+00 
          1.2240170296e-05 -8.9134415909e-05 0.0000000000e+00 
          1.0677854897e-05 -8.8808753787e-05 0.0000000000e+00 
          9.3074145341e-06 -8.9267268054e-05 0.0000000000e+00 
          8.1065974333e-06 -8.9698149422e-05 0.0000000000e+00 
          7.0556099926e-06 -9.0310481080e-05 0.0000000000e+00 
          6.1368642100e-06 -9.0673954001e-05 0.0000000000e+00 
          5.3347613789e-06 -9.0695025568e-05 0.0000000000e+00 
          4.6354840390e-06 -9.0576873510e-05 0.0000000000e+00 
          4.0268154600e-06 -9.0769550705e-05 0.0000000000e+00 
          3.4979717825e-06 -9.0816979137e-05 0.0000000000e+00 
          3.0394586661e-06 -9.0306415990e-05 0.0000000000e+00 
          2.6429354527e-06 -9.0624154130e-05 0.0000000000e+00 
          2.3010975500e-06 -9.0704560454e-05 0.0000000000e+00 
          2.0075714251e-06 -9.0675163386e-05 0.0000000000e+00 
          1.7568198412e-06 -9.0786889114e-05 0.0000000000e+00 
          1.5440618326e-06 -9.0446237584e-05 0.0000000000e+00 
          1.3651990948e-06 -9.0802506476e-05 0.0000000000e+00 
          1.2167540942e-06 -9.1008781243e-05 0.0000000000e+00 
          1.0958157371e-06 -9.0827461979e-05 0.0000000000e+00 
          9.9999518518e-07 -9.0733961093e-05 0.0000000000e+00 
          9.2738751489e-07 -9.0635479217e-05 0.0000000000e+00 
          8.7654182215e-07 -9.0836316691e-05 0.0000000000e+00 
          8.4643786929e-07 -9.0697344227e-05 0.0000000000e+00 
          8.5362176707e-05 -7.4713508237e-05 0.0000000000e+00 
          7.5473503248e-05 -7.5295262474e-05 0.0000000000e+00 
          6.6669238715e-05 -7.6140708113e-05 0.0000000000e+00 
          5.8838117351e-05 -7.7058186552e-05 0.0000000000e+00 
          5.1879391720e-05 -7.8246068519e-05 0.0000000000e+00 
          4.5701911592e-05 -7.9287463157e-05 0.0000000000e+00 
          4.0223323752e-05 -8.0643924644e-05 0.0000000000e+00 
          3.5369286751e-05 -8.2259831205e-05 0.0000000000e+00 
          3.1072806442e-05 -8.3656476670e-05 0.0000000000e+00 
          2.7273548837e-05 -8.4685158724e-05 0.0000000000e+00 
          2.3917259621e-05 -8.5870456228e-05 0.0000000000e+00 
          2.0955194467e-05 -8.7011147837e-05 0.0000000000e+00 
          1.8343628752e-05 -8.7680067268e-05 0.0000000000e+00 
          1.6043370584e-05 -8.8245102082e-05 0.0000000000e+00 
          1.4019338313e-05 -8.8931160145e-05 0.0000000000e+00 
          1.2240170296e-05 -8.9134415909e-05 0.0000000000e+00 
          1.0677854897e-05 -8.8808753787e-05 0.0000000000e+00 
          9.3074145341e-06 -8.9267268054e-05 0.0000000000e+00 
          8.1065974333e-06 -8.9698149422e-05 0.0000000000e+00 
          7.0556099926e-06 -9.0310481080e-05 0.0000000000e+00 
          6.1368642100e-06 -9.0673954001e-05 0.0000000000e+00 
          5.3347613789e-06 -9.0695025568e-05 0.0000000000e+00 
          4.6354840390e-06 -9.0576873510e-05 0.0000000000e+00 
          4.0268154600e-06 -9.0769550705e-05 0.0000000000e+00 
          3.4979717825e-06 -9.0816979137e-05 0.0000000000e+00 
          3.0394586661e-06 -9.0306415990e-05 0.0000000000e+00 
          2.6429354527e-06 -9.0624154130e-05 0.0000000000e+00 
          2.3010975500e-06 -9.0704560454e-05 0.0000000000e+00 
          2.0075714251e-06 -9.0675163386e-05 0.0000000000e+00 
          1.7568198412e-06 -9.0786889114e-05 0.0000000000e+00 
          1.5440618326e-06 -9.0446237584e-05 0.0000000000e+00 
          1.3651990948e-06 -9.0802506476e-05 0.0000000000e+00 
          1.2167540942e-06 -9.1008781243e-05 0.0000000000e+00 
          1.0958157371e-06 -9.0827461979e-05 0.0000000000e+00 
          9.9999518518e-07 -9.0733961093e-05 0.0000000000e+00 
          9.2738751489e-07 -9.0635479217e-05 0.0000000000e+00 
          8.7654182215e-07 -9.0836316691e-05 0.0000000000e+00 
          8.4643786929e-07 -9.0697344227e-05 0.0000000000e+00 
        </DataArray>
        <DataArray type="Float64" Name="Displacement" NumberOfComponents="3" format="ascii">
          2.4984711659e-06 -1.1637243171e-04 0.0000000000e+00 
          2.4984711659e-06 -1.1637243171e-04 0.0000000000e+00 
          1.7132952589e-08 -1.3825204242e-04 0.0000000000e+00 
          1.7132952589e-08 -1.3825204242e-04 0.0000000000e+00 
          2.1961423809e-06 -1.1750373137e-04 0.0000000000e+00 
          1.9287149428e-06 -1.1860408031e-04 0.0000000000e+00 
          1.6923773026e-06 -1.1967412164e-04 0.0000000000e+00 
          1.4837062702e-06 -1.2071280377e-04 0.0000000000e+00 
          1.2996323800e-06 -1.2171816000e-04 0.0000000000e+00 
          1.1374052011e-06 -1.2269233592e-04 0.0000000000e+00 
          9.9456321337e-07 -1.2363549379e-04 0.0000000000e+00 
          8.6890510971e-07 -1.2454749656e-04 0.0000000000e+00 
          7.5846534335e-07 -1.2542929162e-04 0.0000000000e+00 
          6.6149009861e-07 -1.2628020057e-04 0.0000000000e+00 
          5.7641640159e-07 -1.2710131022e-04 0.0000000000e+00 
          5.0185240634e-07 -1.2789215312e-04 0.0000000000e+00 
          4.3656055282e-07 -1.2865183643e-04 0.0000000000e+00 
          3.7944125996e-07 -1.2938120440e-04 0.0000000000e+00 
          3.2951868275e-07 -1.3008046802e-04 0.0000000000e+00 
          2.8592777214e-07 -1.3075093565e-04 0.0000000000e+00 
          2.4790232568e-07 -1.3139178120e-04 0.0000000000e+00 
          2.1476474939e-07 -1.3200209308e-04 0.0000000000e+00 
          1.8591630440e-07 -1.3258385824e-04 0.0000000000e+00 
          1.6082863316e-07 -1.3313707166e-04 0.0000000000e+00 
          1.3903594396e-07 -1.3366142432e-04 0.0000000000e+00 
          1.2012831137e-07 -1.3415831483e-04 0.0000000000e+00 
          1.0374537340e-07 -1.3462711410e-04 0.0000000000e+00 
          8.9570870718e-08 -1.3506671589e-04 0.0000000000e+00 
          7.7327660679e-08 -1.3547786708e-04 0.0000000000e+00 
          6.6773452797e-08 -1.3586087409e-04 0.0000000000e+00 
          5.7696850628e-08 -1.3621518486e-04 0.0000000000e+00 
          4.9913934751e-08 -1.3654023282e-04 0.0000000000e+00 
          4.3265238641e-08 -1.3683653932e-04 0.0000000000e+00 
          3.7613051250e-08 -1.3710489252e-04 0.0000000000e+00 
          3.2839138194e-08 -1.3734557303e-04 0.0000000000e+00 
          2.8842681414e-08 -1.3755843696e-04 0.0000000000e+00 
          2.5538546787e-08 -1.3774370473e-04 0.0000000000e+00 
          2.2855778849e-08 -1.3790069132e-04 0.0000000000e+00 
          2.0736373924e-08 -1.3802789019e-04 0.0000000000e+00 
          1.9134230070e-08 -1.3812575644e-04 0.0000000000e+00 
          1.8014326916e-08 -1.3819613486e-04 0.0000000000e+00 
          1.7352089550e-08 -1.3823845177e-04 0.0000000000e+00 
          2.1961423809e-06 -1.1750373137e-04 0.0000000000e+00 
          1.9287149428e-06 -1.1860408031e-04 0.0000000000e+00 
          1.6923773026e-06 -1.1967412164e-04 0.0000000000e+00 
          1.4837062702e-06 -1.2071280377e-04 0.0000000000e+00 
          1.2996323800e-06 -1.2171816000e-04 0.0000000000e+00 
          1.1374052011e-06 -1.2269233592e-04 0.0000000000e+00 
          9.9456321337e-07 -1.2363549379e-04 0.0000000000e+00 
          8.6890510971e-07 -1.2454749656e-04 0.0000000000e+00 
          7.5846534335e-07 -1.2542929162e-04 0.0000000000e+00 
          6.6149009861e-07 -1.2628020057e-04 0.0000000000e+00 
          5.7641640159e-07 -1.2710131022e-04 0.0000000000e+00 
          5.0185240634e-07 -1.2789215312e-04 0.0000000000e+00 
          4.3656055282e-07 -1.2865183643e-04 0.0000000000e+00 
          3.7944125996e-07 -1.2938120440e-04 0.0000000000e+00 
          3.2951868275e-07 -1.3008046802e-04 0.0000000000e+00 
          2.8592777214e-07 -1.3075093565e-04 0.0000000000e+00 
          2.4790232568e-07 -1.3139178120e-04 0.0000000000e+00 
          2.1476474939e-07 -1.3200209308e-04 0.0000000000e+00 
          1.8591630440e-07 -1.3258385824e-04 0.0000000000e+00 
          1.6082863316e-07 -1.3313707166e-04 0.0000000000e+00 
          1.3903594396e-07 -1.3366142432e-04 0.0000000000e+00 
          1.2012831137e-07 -1.3415831483e-04 0.0000000000e+00 
          1.0374537340e-07 -1.3462711410e-04 0.0000000000e+00 
          8.9570870718e-08 -1.3506671589e-04 0.0000000000e+00 
          7.7327660679e-08 -1.3547786708e-04 0.0000000000e+00 
          6.6773452797e-08 -1.3586087409e-04 0.0000000000e+00 
          5.7696850628e-08 -1.3621518486e-04 0.0000000000e+00 
          4.9913934751e-08 -1.3654023282e-04 0.0000000000e+00 
          4.3265238641e-08 -1.3683653932e-04 0.0000000000e+00 
          3.7613051250e-08 -1.3710489252e-04 0.0000000000e+00 
          3.2839138194e-08 -1.3734557303e-04 0.0000000000e+00 
          2.8842681414e-08 -1.3755843696e-04 0.0000000000e+00 
          2.5538546787e-08 -1.3774370473e-04 0.0000000000e+00 
          2.2855778849e-08 -1.3790069132e-04 0.0000000000e+00 
          2.0736373924e-08 -1.3802789019e-04 0.0000000000e+00 
          1.9134230070e-08 -1.3812575644e-04 0.0000000000e+00 
          1.8014326916e-08 -1.3819613486e-04 0.0000000000e+00 
          1.7352089550e-08 -1.3823845177e-04 0.0000000000e+00 
        </DataArray>
        <DataArray type="Float64" Name="Acceleration" NumberOfComponents="3" format="ascii">
          3.5268094582e-03 -5.8320936003e-05 0.0000000000e+00 
          3.5268094582e-03 -5.8320936003e-05 0.0000000000e+00 
          3.9489345866e-05 -6.8928932051e-04 0.0000000000e+00 
          3.9489345866e-05 -6.8928932051e-04 0.0000000000e+00 
          3.1446802703e-03 -1.0021942792e-05 0.0000000000e+00 
          2.8012263362e-03 -1.2616232889e-04 0.0000000000e+00 
          2.4928452953e-03 6.3842811766e-05 0.0000000000e+00 
          2.2162510941e-03 4.1799374850e-04 0.0000000000e+00 
          1.9684318298e-03 3.1351252544e-05 0.0000000000e+00 
          1.7466284078e-03 1.8928614535e-06 0.0000000000e+00 
          1.5483196291e-03 2.7033885922e-05 0.0000000000e+00 
          1.3712022458e-03 -1.4391736333e-04 0.0000000000e+00 
          1.2131799870e-03 -2.1664380389e-05 0.0000000000e+00 
          1.0723436860e-03 -2.1770338369e-04 0.0000000000e+00 
          9.4695546495e-04 -1.3307864457e-04 0.0000000000e+00 
          8.3543828110e-04 2.7615281265e-05 0.0000000000e+00 
          7.3636385429e-04 -1.2451932365e-04 0.0000000000e+00 
          6.4843829228e-04 -1.6254208413e-04 0.0000000000e+00 
          5.7049092996e-04 -3.9846623057e-04 0.0000000000e+00 
          5.0146474273e-04 -2.4928866013e-04 0.0000000000e+00 
          4.4040675565e-04 -8.5176730479e-05 0.0000000000e+00 
          3.8645919972e-04 -4.4323297368e-04 0.0000000000e+00 
          3.3885042304e-04 -4.4245432570e-04 0.0000000000e+00 
          2.9688752139e-04 -3.8650675053e-04 0.0000000000e+00 
          2.5994929787e-04 -6.3867760044e-04 0.0000000000e+00 
          2.2747997019e-04 -5.2531290014e-04 0.0000000000e+00 
          1.9898285097e-04 -3.2606082088e-04 0.0000000000e+00 
          1.7401505409e-04 -4.6044953836e-04 0.0000000000e+00 
          1.5218242987e-04 -5.1577093468e-04 0.0000000000e+00 
          1.3313519280e-04 -4.1628901206e-04 0.0000000000e+00 
          1.1656368972e-04 -3.1419072415e-04 0.0000000000e+00 
          1.0219472851e-04 -4.0820473634e-04 0.0000000000e+00 
          8.9788240668e-05 -5.5009684739e-04 0.0000000000e+00 
          7.9134252075e-05 -6.0073768130e-04 0.0000000000e+00 
          7.0050345847e-05 -5.7480479290e-04 0.0000000000e+00 
          6.2379246658e-05 -6.1456924734e-04 0.0000000000e+00 
          5.5986789216e-05 -4.9103678102e-04 0.0000000000e+00 
          5.0760120089e-05 -2.1959795412e-04 0.0000000000e+00 
          4.6606243881e-05 -3.0161342829e-04 0.0000000000e+00 
          4.3450736625e-05 -6.3405981181e-04 0.0000000000e+00 
          4.1236749180e-05 -5.3065114554e-04 0.0000000000e+00 
          3.9924221598e-05 -4.1087691914e-04 0.0000000000e+00 
          3.1446802703e-03 -1.0021942792e-05 0.0000000000e+00 
          2.8012263362e-03 -1.2616232889e-04 0.0000000000e+00 
          2.4928452953e-03 6.3842811766e-05 0.0000000000e+00 
          2.2162510941e-03 4.1799374850e-04 0.0000000000e+00 
          1.9684318298e-03 3.1351252544e-05 0.0000000000e+00 
          1.7466284078e-03 1.8928614535e-06 0.0000000000e+00 
          1.5483196291e-03 2.7033885922e-05 0.0000000000e+00 
          1.3712022458e-03 -1.4391736333e-04 0.0000000000e+00 
          1.2131799870e-03 -2.1664380389e-05 0.0000000000e+00 
          1.0723436860e-03 -2.1770338369e-04 0.0000000000e+00 
          9.4695546495e-04 -1.3307864457e-04 0.0000000000e+00 
          8.3543828110e-04 2.7615281265e-05 0.0000000000e+00 
          7.3636385429e-04 -1.2451932365e-04 0.0000000000e+00 
          6.4843829228e-04 -1.6254208413e-04 0.0000000000e+00 
          5.7049092996e-04 -3.9846623057e-04 0.0000000000e+00 
          5.0146474273e-04 -2.4928866013e-04 0.0000000000e+00 
          4.4040675565e-04 -8.5176730479e-05 0.0000000000e+00 
          3.8645919972e-04 -4.4323297368e-04 0.0000000000e+00 
          3.3885042304e-04 -4.4245432570e-04 0.0000000000e+00 
          2.9688752139e-04 -3.8650675053e-04 0.0000000000e+00 
          2.5994929787e-04 -6.3867760044e-04 0.0000000000e+00 
          2.2747997019e-04 -5.2531290014e-04 0.0000000000e+00 
          1.9898285097e-04 -3.2606082088e-04 0.0000000000e+00 
          1.7401505409e-04 -4.6044953836e-04 0.0000000000e+00 
          1.5218242987e-04 -5.1577093468e-04 0.0000000000e+00 
          1.3313519280e-04 -4.1628901206e-04 0.0000000000e+00 
          1.1656368972e-04 -3.1419072415e-04 0.0000000000e+00 
          1.0219472851e-04 -4.0820473634e-04 0.0000000000e+00 
          8.9788240668e-05 -5.5009684739e-04 0.0000000000e+00 
          7.9134252075e-05 -6.0073768130e-04 0.0000000000e+00 
          7.0050345847e-05 -5.7480479290e-04 0.0000000000e+00 
          6.2379246658e-05 -6.1456924734e-04 0.0000000000e+00 
          5.5986789216e-05 -4.9103678102e-04 0.0000000000e+00 
          5.0760120089e-05 -2.1959795412e-04 0.0000000000e+00 
          4.6606243881e-05 -3.0161342829e-04 0.0000000000e+00 
          4.3450736625e-05 -6.3405981181e-04 0.0000000000e+00 
          4.1236749180e-05 -5.3065114554e-04 0.0000000000e+00 
          3.9924221598e-05 -4.1087691914e-04 0.0000000000e+00 
        </DataArray>
        <DataArray type="Float64" Name="Reaction" NumberOfComponents="3" format="ascii">
          0.0000000000e+00 0.0000000000e+00 0.0000000000e+00 
          0.0000000000e+00 0.0000000000e+00 0.0000000000e+00 
          0.0000000000e+00 0.0000000000e+00 0.0000000000e+00 
          0.0000000000e+00 0.0000000000e+00 0.0000000000e+00 
          0.0000000000e+00 0.0000000000e+00 0.0000000000e+00 
          0.0000000000e+00 0.0000000000e+00 0.0000000000e+00 
          0.0000000000e+00 0.0000000000e+00 0.0000000000e+00 
          0.0000000000e+00 0.0000000000e+00 0.0000000000e+00 
          0.0000000000e+00 0.0000000000e+00 0.0000000000e+00 
          0.0000000000e+00 0.0000000000e+00 0.0000000000e+00 
          0.0000000000e+00 0.0000000000e+00 0.0000000000e+00 
          0.0000000000e+00 0.0000000000e+00 0.0000000000e+00 
          0.0000000000e+00 0.0000000000e+00 0.0000000000e+00 
          0.0000000000e+00 0.0000000000e+00 0.0000000000e+00 
          0.0000000000e+00 0.0000000000e+00 0.0000000000e+00 
          0.0000000000e+00 0.0000000000e+00 0.0000000000e+00 
          0.0000000000e+00 0.0000000000e+00 0.0000000000e+00 
          0.0000000000e+00 0.0000000000e+00 0.0000000000e+00 
          0.0000000000e+00 0.0000000000e+00 0.0000000000e+00 
          0.0000000000e+00 0.0000000000e+00 0.0000000000e+00 
          0.0000000000e+00 0.0000000000e+00 0.0000000000e+00 
          0.0000000000e+00 0.0000000000e+00 0.0000000000e+00 
          0.0000000000e+00 0.0000000000e+00 0.0000000000e+00 
          0.0000000000e+00 0.0000000000e+00 0.0000000000e+00 
          0.0000000000e+00 0.0000000000e+00 0.0000000000e+00 
          0.0000000000e+00 0.0000000000e+00 0.0000000000e+00 
          0.0000000000e+00 0.0000000000e+00 0.0000000000e+00 
          0.0000000000e+00 0.0000000000e+00 0.0000000000e+00 
          0.0000000000e+00 0.0000000000e+00 0.0000000000e+00 
          0.0000000000e+00 0.0000000000e+00 0.0000000000e+00 
          0.0000000000e+00 0.0000000000e+00 0.0000000000e+00 
          0.0000000000e+00 0.0000000000e+00 0.0000000000e+00 
          0.0000000000e+00 0.0000000000e+00 0.0000000000e+00 
          0.0000000000e+00 0.0000000000e+00 0.0000000000e+00 
          0.0000000000e+00 0.0000000000e+00 0.0000000000e+00 
          0.0000000000e+00 0.0000000000e+00 0.0000000000e+00 
          0.0000000000e+00 0.0000000000e+00 0.0000000000e+00 
          0.0000000000e+00 0.0000000000e+00 0.0000000000e+00 
          0.0000000000e+00 0.0000000000e+00 0.0000000000e+00 
          0.0000000000e+00 0.0000000000e+00 0.0000000000e+00 
          0.0000000000e+00 0.0000000000e+00 0.0000000000e+00 
          0.0000000000e+00 0.0000000000e+00 0.0000000000e+00 
          0.0000000000e+00 0.0000000000e+00 0.0000000000e+00 
          0.0000000000e+00 0.0000000000e+00 0.0000000000e+00 
          0.0000000000e+00 0.0000000000e+00 0.0000000000e+00 
          0.0000000000e+00 0.0000000000e+00 0.0000000000e+00 
          0.0000000000e+00 0.0000000000e+00 0.0000000000e+00 
          0.0000000000e+00 0.0000000000e+00 0.0000000000e+00 
          0.0000000000e+00 0.0000000000e+00 0.0000000000e+00 
          0.0000000000e+00 0.0000000000e+00 0.0000000000e+00 
          0.0000000000e+00 0.0000000000e+00 0.0000000000e+00 
          0.0000000000e+00 0.0000000000e+00 0.0000000000e+00 
          0.0000000000e+00 0.0000000000e+00 0.0000000000e+00 
          0.0000000000e+00 0.0000000000e+00 0.0000000000e+00 
          0.0000000000e+00 0.0000000000e+00 0.0000000000e+00 
          0.0000000000e+00 0.0000000000e+00 0.0000000000e+00 
          0.0000000000e+00 0.0000000000e+00 0.0000000000e+00 
          0.0000000000e+00 0.0000000000e+00 0.0000000000e+00 
          0.0000000000e+00 0.0000000000e+00 0.0000000000e+00 
          0.0000000000e+00 0.0000000000e+00 0.0000000000e+00 
          0.0000000000e+00 0.0000000000e+00 0.0000000000e+00 
          0.0000000000e+00 0.0000000000e+00 0.0000000000e+00 
          0.0000000000e+00 0.0000000000e+00 0.0000000000e+00 
          0.0000000000e+00 0.0000000000e+00 0.0000000000e+00 
          0.0000000000e+00 0.0000000000e+00 0.0000000000e+00 
          0.0000000000e+00 0.0000000000e+00 0.0000000000e+00 
          0.0000000000e+00 0.0000000000e+00 0.0000000000e+00 
          0.0000000000e+00 0.0000000000e+00 0.0000000000e+00 
          0.0000000000e+00 0.0000000000e+00 0.0000000000e+00 
          0.0000000000e+00 0.0000000000e+00 0.0000000000e+00 
          0.0000000000e+00 0.0000000000e+00 0.0000000000e+00 
          0.0000000000e+00 0.0000000000e+00 0.0000000000e+00 
          0.0000000000e+00 0.0000000000e+00 0.0000000000e+00 
          0.0000000000e+00 0.0000000000e+00 0.0000000000e+00 
          0.0000000000e+00 0.0000000000e+00 0.0000000000e+00 
          0.0000000000e+00 0.0000000000e+00 0.0000000000e+00 
          0.0000000000e+00 0.0000000000e+00 0.0000000000e+00 
          0.0000000000e+00 0.0000000000e+00 0.0000000000e+00 
          0.0000000000e+00 0.0000000000e+00 0.0000000000e+00 
          0.0000000000e+00 0.0000000000e+00 0.0000000000e+00 
        </DataArray>
      </PointData>
      <CellData>
        <DataArray type="Int64" Name="ElementTag" format="ascii">
          90
          91
          92
          93
          94
          95
          96
          97
          98
          99
          100
          101
          102
          103
          104
          105
          106
          107
          108
          109
          110
          111
          112
          113
          114
          115
          116
          117
          118
          119
          120
          121
          122
          123
          124
          125
          126
          127
          128
        </DataArray>
      </CellData>
    </Piece>
  </UnstructuredGrid>
</VTKFile>
