<?xml version="1.0"?>
<VTKFile type="UnstructuredGrid" version="1.0" byte_order="LittleEndian" compressor="vtkZLibDataCompressor">
  <UnstructuredGrid>
    <Piece NumberOfPoints="82" NumberOfCells="1">
      <Points>
        <DataArray type="Float64" Name="Points" NumberOfComponents="3" format="ascii">
          0.0000000000e+00 0.0000000000e+00 0.0000000000e+00 
          2.5000000000e-01 0.0000000000e+00 0.0000000000e+00 
          2.5000000000e-01 3.0000000000e+01 0.0000000000e+00 
          0.0000000000e+00 3.0000000000e+01 0.0000000000e+00 
          0.0000000000e+00 -5.0000000000e+00 0.0000000000e+00 
          2.5000000000e-01 -5.0000000000e+00 0.0000000000e+00 
          2.5000000000e-01 7.6923100000e-01 0.0000000000e+00 
          2.5000000000e-01 1.5384620000e+00 0.0000000000e+00 
          2.5000000000e-01 2.3076920000e+00 0.0000000000e+00 
          2.5000000000e-01 3.0769230000e+00 0.0000000000e+00 
          2.5000000000e-01 3.8461540000e+00 0.0000000000e+00 
          2.5000000000e-01 4.6153850000e+00 0.0000000000e+00 
          2.5000000000e-01 5.3846150000e+00 0.0000000000e+00 
          2.5000000000e-01 6.1538460000e+00 0.0000000000e+00 
          2.5000000000e-01 6.9230770000e+00 0.0000000000e+00 
          2.5000000000e-01 7.6923080000e+00 0.0000000000e+00 
          2.5000000000e-01 8.4615380000e+00 0.0000000000e+00 
          2.5000000000e-01 9.2307690000e+00 0.0000000000e+00 
          2.5000000000e-01 1.0000000000e+01 0.0000000000e+00 
          2.5000000000e-01 1.0769231000e+01 0.0000000000e+00 
          2.5000000000e-01 1.1538462000e+01 0.0000000000e+00 
          2.5000000000e-01 1.2307692000e+01 0.0000000000e+00 
          2.5000000000e-01 1.3076923000e+01 0.0000000000e+00 
          2.5000000000e-01 1.3846154000e+01 0.0000000000e+00 
          2.5000000000e-01 1.4615385000e+01 0.0000000000e+00 
          2.5000000000e-01 1.5384615000e+01 0.0000000000e+00 
          2.5000000000e-01 1.6153846000e+01 0.0000000000e+00 
          2.5000000000e-01 1.6923077000e+01 0.0000000000e+00 
          2.5000000000e-01 1.7692308000e+01 0.0000000000e+00 
          2.5000000000e-01 1.8461538000e+01 0.0000000000e+00 
          2.5000000000e-01 1.9230769000e+01 0.0000000000e+00 
          2.5000000000e-01 2.0000000000e+01 0.0000000000e+00 
          2.5000000000e-01 2.0769231000e+01 0.0000000000e+00 
          2.5000000000e-01 2.1538462000e+01 0.0000000000e+00 
          2.5000000000e-01 2.2307692000e+01 0.0000000000e+00 
          2.5000000000e-01 2.3076923000e+01 0.0000000000e+00 
          2.5000000000e-01 2.3846154000e+01 0.0000000000e+00 
          2.5000000000e-01 2.4615385000e+01 0.0000000000e+00 
          2.5000000000e-01 2.5384615000e+01 0.0000000000e+00 
          2.5000000000e-01 2.6153846000e+01 0.0000000000e+00 
          2.5000000000e-01 2.6923077000e+01 0.0000000000e+00 
          2.5000000000e-01 2.7692308000e+01 0.0000000000e+00 
          2.5000000000e-01 2.8461538000e+01 0.0000000000e+00 
          2.5000000000e-01 2.9230769000e+01 0.0000000000e+00 
          0.0000000000e+00 7.6923100000e-01 0.0000000000e+00 
          0.0000000000e+00 1.5384620000e+00 0.0000000000e+00 
          0.0000000000e+00 2.3076920000e+00 0.0000000000e+00 
          0.0000000000e+00 3.0769230000e+00 0.0000000000e+00 
          0.0000000000e+00 3.8461540000e+00 0.0000000000e+00 
          0.0000000000e+00 4.6153850000e+00 0.0000000000e+00 
          0.0000000000e+00 5.3846150000e+00 0.0000000000e+00 
          0.0000000000e+00 6.1538460000e+00 0.0000000000e+00 
          0.0000000000e+00 6.9230770000e+00 0.0000000000e+00 
          0.0000000000e+00 7.6923080000e+00 0.0000000000e+00 
          0.0000000000e+00 8.4615380000e+00 0.0000000000e+00 
          0.0000000000e+00 9.2307690000e+00 0.0000000000e+00 
          0.0000000000e+00 1.0000000000e+01 0.0000000000e+00 
          0.0000000000e+00 1.0769231000e+01 0.0000000000e+00 
          0.0000000000e+00 1.1538462000e+01 0.0000000000e+00 
          0.0000000000e+00 1.2307692000e+01 0.0000000000e+00 
          0.0000000000e+00 1.3076923000e+01 0.0000000000e+00 
          0.0000000000e+00 1.3846154000e+01 0.0000000000e+00 
          0.0000000000e+00 1.4615385000e+01 0.0000000000e+00 
          0.0000000000e+00 1.5384615000e+01 0.0000000000e+00 
          0.0000000000e+00 1.6153846000e+01 0.0000000000e+00 
          0.0000000000e+00 1.6923077000e+01 0.0000000000e+00 
          0.0000000000e+00 1.7692308000e+01 0.0000000000e+00 
          0.0000000000e+00 1.8461538000e+01 0.0000000000e+00 
          0.0000000000e+00 1.9230769000e+01 0.0000000000e+00 
          0.0000000000e+00 2.0000000000e+01 0.0000000000e+00 
          0.0000000000e+00 2.0769231000e+01 0.0000000000e+00 
          0.0000000000e+00 2.1538462000e+01 0.0000000000e+00 
          0.0000000000e+00 2.2307692000e+01 0.0000000000e+00 
          0.0000000000e+00 2.3076923000e+01 0.0000000000e+00 
          0.0000000000e+00 2.3846154000e+01 0.0000000000e+00 
          0.0000000000e+00 2.4615385000e+01 0.0000000000e+00 
          0.0000000000e+00 2.5384615000e+01 0.0000000000e+00 
          0.0000000000e+00 2.6153846000e+01 0.0000000000e+00 
          0.0000000000e+00 2.6923077000e+01 0.0000000000e+00 
          0.0000000000e+00 2.7692308000e+01 0.0000000000e+00 
          0.0000000000e+00 2.8461538000e+01 0.0000000000e+00 
          0.0000000000e+00 2.9230769000e+01 0.0000000000e+00 
        </DataArray>
      </Points>
      <Cells>
        <DataArray type="Int64" Name="connectivity" format="ascii">
          0
          1
          2
          3
          4
          5
          6
          7
          8
          9
          10
          11
          12
          13
          14
          15
          16
          17
          18
          19
          20
          21
          22
          23
          24
          25
          26
          27
          28
          29
          30
          31
          32
          33
          34
          35
          36
          37
          38
          39
          40
          41
          42
          43
          44
          45
          46
          47
          48
          49
          50
          51
          52
          53
          54
          55
          56
          57
          58
          59
          60
          61
          62
          63
          64
          65
          66
          67
          68
          69
          70
          71
          72
          73
          74
          75
          76
          77
          78
          79
          80
          81
        </DataArray>
        <DataArray type="Int64" Name="offsets" format="ascii">
          82
        </DataArray>
        <DataArray type="Int64" Name="types" format="ascii">
          2
        </DataArray>
      </Cells>
      <PointData>
        <DataArray type="Int64" Name="NodeTag" format="ascii">
          1
          2
          3
          4
          5
          6
          7
          8
          9
          10
          11
          12
          13
          14
          15
          16
          17
          18
          19
          20
          21
          22
          23
          24
          25
          26
          27
          28
          29
          30
          31
          32
          33
          34
          35
          36
          37
          38
          39
          40
          41
          42
          43
          44
          45
          46
          47
          48
          49
          50
          51
          52
          53
          54
          55
          56
          57
          58
          59
          60
          61
          62
          63
          64
          65
          66
          67
          68
          69
          70
          71
          72
          73
          74
          75
          76
          77
          78
          79
          80
          81
          82
        </DataArray>
        <DataArray type="Float64" Name="Velocity" NumberOfComponents="3" format="ascii">
          1.6924873352e-05 -7.7842381900e-05 0.0000000000e+00 
          1.6924873352e-05 -7.7842381900e-05 0.0000000000e+00 
          -1.4919604053e-05 -7.7879842423e-05 0.0000000000e+00 
          -1.4919604053e-05 -7.7879842423e-05 0.0000000000e+00 
          0.0000000000e+00 0.0000000000e+00 0.0000000000e+00 
          0.0000000000e+00 0.0000000000e+00 0.0000000000e+00 
          1.5860509842e-05 -7.7815814924e-05 0.0000000000e+00 
          1.4776023332e-05 -7.7894013243e-05 0.0000000000e+00 
          1.3667394185e-05 -7.7788908022e-05 0.0000000000e+00 
          1.2551160556e-05 -7.7895858869e-05 0.0000000000e+00 
          1.1410297284e-05 -7.7806340436e-05 0.0000000000e+00 
          1.0271102831e-05 -7.7860107100e-05 0.0000000000e+00 
          9.1185609184e-06 -7.7861582504e-05 0.0000000000e+00 
          7.9596213448e-06 -7.7798457254e-05 0.0000000000e+00 
          6.8122814733e-06 -7.7903859763e-05 0.0000000000e+00 
          5.6494072141e-06 -7.7794727026e-05 0.0000000000e+00 
          4.5085850022e-06 -7.7871392138e-05 0.0000000000e+00 
          3.3676023799e-06 -7.7841683838e-05 0.0000000000e+00 
          2.2363847972e-06 -7.7839197126e-05 0.0000000000e+00 
          1.1291439950e-06 -7.7840394402e-05 0.0000000000e+00 
          2.6351228874e-08 -7.7866738792e-05 0.0000000000e+00 
          -1.0453457973e-06 -7.7816248039e-05 0.0000000000e+00 
          -2.0987129427e-06 -7.7863759803e-05 0.0000000000e+00 
          -3.1298385281e-06 -7.7843892530e-05 0.0000000000e+00 
          -4.1234383583e-06 -7.7833891466e-05 0.0000000000e+00 
          -5.0969981690e-06 -7.7856915729e-05 0.0000000000e+00 
          -6.0287779437e-06 -7.7840613386e-05 0.0000000000e+00 
          -6.9273640138e-06 -7.7840504991e-05 0.0000000000e+00 
          -7.7921730997e-06 -7.7851222362e-05 0.0000000000e+00 
          -8.6080471878e-06 -7.7850559273e-05 0.0000000000e+00 
          -9.3884204353e-06 -7.7818316971e-05 0.0000000000e+00 
          -1.0123697273e-05 -7.7888826668e-05 0.0000000000e+00 
          -1.0806217233e-05 -7.7799865997e-05 0.0000000000e+00 
          -1.1450161293e-05 -7.7875941942e-05 0.0000000000e+00 
          -1.2036501061e-05 -7.7834995557e-05 0.0000000000e+00 
          -1.2574678971e-05 -7.7839481233e-05 0.0000000000e+00 
          -1.3060121756e-05 -7.7851020436e-05 0.0000000000e+00 
          -1.3491121831e-05 -7.7852366101e-05 0.0000000000e+00 
          -1.3866748596e-05 -7.7822928604e-05 0.0000000000e+00 
          -1.4186065930e-05 -7.7868227329e-05 0.0000000000e+00 
          -1.4449662123e-05 -7.7837245623e-05 0.0000000000e+00 
          -1.4653196205e-05 -7.7830064028e-05 0.0000000000e+00 
          -1.4802180807e-05 -7.7875115507e-05 0.0000000000e+00 
          -1.4888128128e-05 -7.7810145395e-05 0.0000000000e+00 
          1.5860509842e-05 -7.7815814924e-05 0.0000000000e+00 
          1.4776023332e-05 -7.7894013243e-05 0.0000000000e+00 
          1.3667394185e-05 -7.7788908022e-05 0.0000000000e+00 
          1.2551160556e-05 -7.7895858869e-05 0.0000000000e+00 
          1.1410297284e-05 -7.7806340436e-05 0.0000000000e+00 
          1.0271102831e-05 -7.7860107100e-05 0.0000000000e+00 
          9.1185609184e-06 -7.7861582504e-05 0.0000000000e+00 
          7.9596213448e-06 -7.7798457254e-05 0.0000000000e+00 
          6.8122814733e-06 -7.7903859763e-05 0.0000000000e+00 
          5.6494072141e-06 -7.7794727026e-05 0.0000000000e+00 
          4.5085850022e-06 -7.7871392138e-05 0.0000000000e+00 
          3.3676023799e-06 -7.7841683838e-05 0.0000000000e+00 
          2.2363847972e-06 -7.7839197126e-05 0.0000000000e+00 
          1.1291439950e-06 -7.7840394402e-05 0.0000000000e+00 
          2.6351228874e-08 -7.7866738792e-05 0.0000000000e+00 
          -1.0453457973e-06 -7.7816248039e-05 0.0000000000e+00 
          -2.0987129427e-06 -7.7863759803e-05 0.0000000000e+00 
          -3.1298385281e-06 -7.7843892530e-05 0.0000000000e+00 
          -4.1234383583e-06 -7.7833891466e-05 0.0000000000e+00 
          -5.0969981690e-06 -7.7856915729e-05 0.0000000000e+00 
          -6.0287779437e-06 -7.7840613386e-05 0.0000000000e+00 
          -6.9273640138e-06 -7.7840504991e-05 0.0000000000e+00 
          -7.7921730997e-06 -7.7851222362e-05 0.0000000000e+00 
          -8.6080471878e-06 -7.7850559273e-05 0.0000000000e+00 
          -9.3884204353e-06 -7.7818316971e-05 0.0000000000e+00 
          -1.0123697273e-05 -7.7888826668e-05 0.0000000000e+00 
          -1.0806217233e-05 -7.7799865997e-05 0.0000000000e+00 
          -1.1450161293e-05 -7.7875941942e-05 0.0000000000e+00 
          -1.2036501061e-05 -7.7834995557e-05 0.0000000000e+00 
          -1.2574678971e-05 -7.7839481233e-05 0.0000000000e+00 
          -1.3060121756e-05 -7.7851020436e-05 0.0000000000e+00 
          -1.3491121831e-05 -7.7852366101e-05 0.0000000000e+00 
          -1.3866748596e-05 -7.7822928604e-05 0.0000000000e+00 
          -1.4186065930e-05 -7.7868227329e-05 0.0000000000e+00 
          -1.4449662123e-05 -7.7837245623e-05 0.0000000000e+00 
          -1.4653196205e-05 -7.7830064028e-05 0.0000000000e+00 
          -1.4802180807e-05 -7.7875115507e-05 0.0000000000e+00 
          -1.4888128128e-05 -7.7810145395e-05 0.0000000000e+00 
        </DataArray>
        <DataArray type="Float64" Name="Displacement" NumberOfComponents="3" format="ascii">
          6.9692437532e-08 -6.1159035042e-04 0.0000000000e+00 
          6.9692437532e-08 -6.1159035042e-04 0.0000000000e+00 
          6.8998449418e-06 -6.3517062580e-04 0.0000000000e+00 
          6.8998449418e-06 -6.3517062580e-04 0.0000000000e+00 
          0.0000000000e+00 0.0000000000e+00 0.0000000000e+00 
          0.0000000000e+00 0.0000000000e+00 0.0000000000e+00 
          3.5040717359e-07 -6.1278405621e-04 0.0000000000e+00 
          6.3000089291e-07 -6.1394688246e-04 0.0000000000e+00 
          9.0805692887e-07 -6.1507851901e-04 0.0000000000e+00 
          1.1841576316e-06 -6.1617931141e-04 0.0000000000e+00 
          1.4579034954e-06 -6.1724899573e-04 0.0000000000e+00 
          1.7288740143e-06 -6.1828773433e-04 0.0000000000e+00 
          1.9966806263e-06 -6.1929541245e-04 0.0000000000e+00 
          2.2609176431e-06 -6.2027213940e-04 0.0000000000e+00 
          2.5211956654e-06 -6.2121781116e-04 0.0000000000e+00 
          2.7771380976e-06 -6.2213253035e-04 0.0000000000e+00 
          3.0283453879e-06 -6.2301616229e-04 0.0000000000e+00 
          3.2744676124e-06 -6.2386889227e-04 0.0000000000e+00 
          3.5151265670e-06 -6.2469053027e-04 0.0000000000e+00 
          3.7499649888e-06 -6.2548117863e-04 0.0000000000e+00 
          3.9786431865e-06 -6.2624089017e-04 0.0000000000e+00 
          4.2008048566e-06 -6.2696946920e-04 0.0000000000e+00 
          4.4161393838e-06 -6.2766717014e-04 0.0000000000e+00 
          4.6243033783e-06 -6.2833378498e-04 0.0000000000e+00 
          4.8250065541e-06 -6.2896939155e-04 0.0000000000e+00 
          5.0179298168e-06 -6.2957407481e-04 0.0000000000e+00 
          5.2027956456e-06 -6.3014764130e-04 0.0000000000e+00 
          5.3793286823e-06 -6.3069025919e-04 0.0000000000e+00 
          5.5472415434e-06 -6.3120190050e-04 0.0000000000e+00 
          5.7063169369e-06 -6.3168246252e-04 0.0000000000e+00 
          5.8562745353e-06 -6.3213205489e-04 0.0000000000e+00 
          5.9969202251e-06 -6.3255068222e-04 0.0000000000e+00 
          6.1280246527e-06 -6.3293820626e-04 0.0000000000e+00 
          6.2493819343e-06 -6.3329482038e-04 0.0000000000e+00 
          6.3608319409e-06 -6.3362037516e-04 0.0000000000e+00 
          6.4621773367e-06 -6.3391491787e-04 0.0000000000e+00 
          6.5532776431e-06 -6.3417852894e-04 0.0000000000e+00 
          6.6340001145e-06 -6.3441096973e-04 0.0000000000e+00 
          6.7041978500e-06 -6.3461265759e-04 0.0000000000e+00 
          6.7637919184e-06 -6.3478304789e-04 0.0000000000e+00 
          6.8126706417e-06 -6.3492267307e-04 0.0000000000e+00 
          6.8507617016e-06 -6.3503117108e-04 0.0000000000e+00 
          6.8780203438e-06 -6.3510864428e-04 0.0000000000e+00 
          6.8943851713e-06 -6.3515524840e-04 0.0000000000e+00 
          3.5040717359e-07 -6.1278405621e-04 0.0000000000e+00 
          6.3000089291e-07 -6.1394688246e-04 0.0000000000e+00 
          9.0805692887e-07 -6.1507851901e-04 0.0000000000e+00 
          1.1841576316e-06 -6.1617931141e-04 0.0000000000e+00 
          1.4579034954e-06 -6.1724899573e-04 0.0000000000e+00 
          1.7288740143e-06 -6.1828773433e-04 0.0000000000e+00 
          1.9966806263e-06 -6.1929541245e-04 0.0000000000e+00 
          2.2609176431e-06 -6.2027213940e-04 0.0000000000e+00 
          2.5211956654e-06 -6.2121781116e-04 0.0000000000e+00 
          2.7771380976e-06 -6.2213253035e-04 0.0000000000e+00 
          3.0283453879e-06 -6.2301616229e-04 0.0000000000e+00 
          3.2744676124e-06 -6.2386889227e-04 0.0000000000e+00 
          3.5151265670e-06 -6.2469053027e-04 0.0000000000e+00 
          3.7499649888e-06 -6.2548117863e-04 0.0000000000e+00 
          3.9786431865e-06 -6.2624089017e-04 0.0000000000e+00 
          4.2008048566e-06 -6.2696946920e-04 0.0000000000e+00 
          4.4161393838e-06 -6.2766717014e-04 0.0000000000e+00 
          4.6243033783e-06 -6.2833378498e-04 0.0000000000e+00 
          4.8250065541e-06 -6.2896939155e-04 0.0000000000e+00 
          5.0179298168e-06 -6.2957407481e-04 0.0000000000e+00 
          5.2027956456e-06 -6.3014764130e-04 0.0000000000e+00 
          5.3793286823e-06 -6.3069025919e-04 0.0000000000e+00 
          5.5472415434e-06 -6.3120190050e-04 0.0000000000e+00 
          5.7063169369e-06 -6.3168246252e-04 0.0000000000e+00 
          5.8562745353e-06 -6.3213205489e-04 0.0000000000e+00 
          5.9969202251e-06 -6.3255068222e-04 0.0000000000e+00 
          6.1280246527e-06 -6.3293820626e-04 0.0000000000e+00 
          6.2493819343e-06 -6.3329482038e-04 0.0000000000e+00 
          6.3608319409e-06 -6.3362037516e-04 0.0000000000e+00 
          6.4621773367e-06 -6.3391491787e-04 0.0000000000e+00 
          6.5532776431e-06 -6.3417852894e-04 0.0000000000e+00 
          6.6340001145e-06 -6.3441096973e-04 0.0000000000e+00 
          6.7041978500e-06 -6.3461265759e-04 0.0000000000e+00 
          6.7637919184e-06 -6.3478304789e-04 0.0000000000e+00 
          6.8126706417e-06 -6.3492267307e-04 0.0000000000e+00 
          6.8507617016e-06 -6.3503117108e-04 0.0000000000e+00 
          6.8780203438e-06 -6.3510864428e-04 0.0000000000e+00 
          6.8943851713e-06 -6.3515524840e-04 0.0000000000e+00 
        </DataArray>
        <DataArray type="Float64" Name="Acceleration" NumberOfComponents="3" format="ascii">
          -6.3331257666e-05 1.9545439517e-06 0.0000000000e+00 
          -6.3331257666e-05 1.9545439517e-06 0.0000000000e+00 
          -9.8387221215e-04 -4.5329052220e-05 0.0000000000e+00 
          -9.8387221215e-04 -4.5329052220e-05 0.0000000000e+00 
          0.0000000000e+00 0.0000000000e+00 0.0000000000e+00 
          0.0000000000e+00 0.0000000000e+00 0.0000000000e+00 
          -1.0100582224e-04 -2.2849297957e-05 0.0000000000e+00 
          -1.3851582805e-04 3.2781365718e-05 0.0000000000e+00 
          -1.7621207001e-04 -2.8959307187e-05 0.0000000000e+00 
          -2.1217563604e-04 1.8335613399e-05 0.0000000000e+00 
          -2.5006406059e-04 -1.0922788103e-05 0.0000000000e+00 
          -2.8504307424e-04 9.5242933966e-06 0.0000000000e+00 
          -3.2165914946e-04 -9.7027490186e-06 0.0000000000e+00 
          -3.5671323237e-04 8.8054045658e-06 0.0000000000e+00 
          -3.9064522579e-04 -9.6912289439e-06 0.0000000000e+00 
          -4.2661648145e-04 1.4379419624e-05 0.0000000000e+00 
          -4.5820420228e-04 -1.8600208478e-05 0.0000000000e+00 
          -4.9225140605e-04 1.5434112445e-05 0.0000000000e+00 
          -5.2444149782e-04 -3.0086051677e-06 0.0000000000e+00 
          -5.5504835440e-04 -1.2528028431e-05 0.0000000000e+00 
          -5.8712637205e-04 2.2568972848e-05 0.0000000000e+00 
          -6.1516547397e-04 -2.2934495521e-05 0.0000000000e+00 
          -6.4607916663e-04 1.4373332318e-05 0.0000000000e+00 
          -6.7223448353e-04 3.4745536420e-07 0.0000000000e+00 
          -7.0096340646e-04 -1.5097983112e-05 0.0000000000e+00 
          -7.2601376822e-04 2.0043296592e-05 0.0000000000e+00 
          -7.5080102165e-04 -1.0402297523e-05 0.0000000000e+00 
          -7.7669485183e-04 -5.3632919250e-06 0.0000000000e+00 
          -7.9625516970e-04 1.3037610159e-05 0.0000000000e+00 
          -8.2155050792e-04 -6.4963304985e-06 0.0000000000e+00 
          -8.3902135086e-04 -7.4405835691e-06 0.0000000000e+00 
          -8.5968656974e-04 1.7472376244e-05 0.0000000000e+00 
          -8.7823710068e-04 -1.7375702917e-05 0.0000000000e+00 
          -8.9265257806e-04 9.4774864846e-06 0.0000000000e+00 
          -9.1045902578e-04 1.1156342220e-06 0.0000000000e+00 
          -9.2310278940e-04 -1.3462897621e-05 0.0000000000e+00 
          -9.3506342895e-04 2.9544918908e-05 0.0000000000e+00 
          -9.4829187892e-04 -4.5710566111e-05 0.0000000000e+00 
          -9.5542019568e-04 5.2531054705e-05 0.0000000000e+00 
          -9.6547374554e-04 -4.3467780205e-05 0.0000000000e+00 
          -9.7198979057e-04 2.1775043394e-05 0.0000000000e+00 
          -9.7601965350e-04 3.3131390627e-06 0.0000000000e+00 
          -9.8155805681e-04 -2.4711517650e-05 0.0000000000e+00 
          -9.8256716867e-04 3.9714223063e-05 0.0000000000e+00 
          -1.0100582224e-04 -2.2849297957e-05 0.0000000000e+00 
          -1.3851582805e-04 3.2781365718e-05 0.0000000000e+00 
          -1.7621207001e-04 -2.8959307187e-05 0.0000000000e+00 
          -2.1217563604e-04 1.8335613399e-05 0.0000000000e+00 
          -2.5006406059e-04 -1.0922788103e-05 0.0000000000e+00 
          -2.8504307424e-04 9.5242933966e-06 0.0000000000e+00 
          -3.2165914946e-04 -9.7027490186e-06 0.0000000000e+00 
          -3.5671323237e-04 8.8054045658e-06 0.0000000000e+00 
          -3.9064522579e-04 -9.6912289439e-06 0.0000000000e+00 
          -4.2661648145e-04 1.4379419624e-05 0.0000000000e+00 
          -4.5820420228e-04 -1.8600208478e-05 0.0000000000e+00 
          -4.9225140605e-04 1.5434112445e-05 0.0000000000e+00 
          -5.2444149782e-04 -3.0086051677e-06 0.0000000000e+00 
          -5.5504835440e-04 -1.2528028431e-05 0.0000000000e+00 
          -5.8712637205e-04 2.2568972848e-05 0.0000000000e+00 
          -6.1516547397e-04 -2.2934495521e-05 0.0000000000e+00 
          -6.4607916663e-04 1.4373332318e-05 0.0000000000e+00 
          -6.7223448353e-04 3.4745536420e-07 0.0000000000e+00 
          -7.0096340646e-04 -1.5097983112e-05 0.0000000000e+00 
          -7.2601376822e-04 2.0043296592e-05 0.0000000000e+00 
          -7.5080102165e-04 -1.0402297523e-05 0.0000000000e+00 
          -7.7669485183e-04 -5.3632919250e-06 0.0000000000e+00 
          -7.9625516970e-04 1.3037610159e-05 0.0000000000e+00 
          -8.2155050792e-04 -6.4963304985e-06 0.0000000000e+00 
          -8.3902135086e-04 -7.4405835691e-06 0.0000000000e+00 
          -8.5968656974e-04 1.7472376244e-05 0.0000000000e+00 
          -8.7823710068e-04 -1.7375702917e-05 0.0000000000e+00 
          -8.9265257806e-04 9.4774864846e-06 0.0000000000e+00 
          -9.1045902578e-04 1.1156342220e-06 0.0000000000e+00 
          -9.2310278940e-04 -1.3462897621e-05 0.0000000000e+00 
          -9.3506342895e-04 2.9544918908e-05 0.0000000000e+00 
          -9.4829187892e-04 -4.5710566111e-05 0.0000000000e+00 
          -9.5542019568e-04 5.2531054705e-05 0.0000000000e+00 
          -9.6547374554e-04 -4.3467780205e-05 0.0000000000e+00 
          -9.7198979057e-04 2.1775043394e-05 0.0000000000e+00 
          -9.7601965350e-04 3.3131390627e-06 0.0000000000e+00 
          -9.8155805681e-04 -2.4711517650e-05 0.0000000000e+00 
          -9.8256716867e-04 3.9714223063e-05 0.0000000000e+00 
        </DataArray>
        <DataArray type="Float64" Name="Reaction" NumberOfComponents="3" format="ascii">
          0.0000000000e+00 0.0000000000e+00 0.0000000000e+00 
          0.0000000000e+00 0.0000000000e+00 0.0000000000e+00 
          0.0000000000e+00 0.0000000000e+00 0.0000000000e+00 
          0.0000000000e+00 0.0000000000e+00 0.0000000000e+00 
          0.0000000000e+00 0.0000000000e+00 0.0000000000e+00 
          0.0000000000e+00 0.0000000000e+00 0.0000000000e+00 
          0.0000000000e+00 0.0000000000e+00 0.0000000000e+00 
          0.0000000000e+00 0.0000000000e+00 0.0000000000e+00 
          0.0000000000e+00 0.0000000000e+00 0.0000000000e+00 
          0.0000000000e+00 0.0000000000e+00 0.0000000000e+00 
          0.0000000000e+00 0.0000000000e+00 0.0000000000e+00 
          0.0000000000e+00 0.0000000000e+00 0.0000000000e+00 
          0.0000000000e+00 0.0000000000e+00 0.0000000000e+00 
          0.0000000000e+00 0.0000000000e+00 0.0000000000e+00 
          0.0000000000e+00 0.0000000000e+00 0.0000000000e+00 
          0.0000000000e+00 0.0000000000e+00 0.0000000000e+00 
          0.0000000000e+00 0.0000000000e+00 0.0000000000e+00 
          0.0000000000e+00 0.0000000000e+00 0.0000000000e+00 
          0.0000000000e+00 0.0000000000e+00 0.0000000000e+00 
          0.0000000000e+00 0.0000000000e+00 0.0000000000e+00 
          0.0000000000e+00 0.0000000000e+00 0.0000000000e+00 
          0.0000000000e+00 0.0000000000e+00 0.0000000000e+00 
          0.0000000000e+00 0.0000000000e+00 0.0000000000e+00 
          0.0000000000e+00 0.0000000000e+00 0.0000000000e+00 
          0.0000000000e+00 0.0000000000e+00 0.0000000000e+00 
          0.0000000000e+00 0.0000000000e+00 0.0000000000e+00 
          0.0000000000e+00 0.0000000000e+00 0.0000000000e+00 
          0.0000000000e+00 0.0000000000e+00 0.0000000000e+00 
          0.0000000000e+00 0.0000000000e+00 0.0000000000e+00 
          0.0000000000e+00 0.0000000000e+00 0.0000000000e+00 
          0.0000000000e+00 0.0000000000e+00 0.0000000000e+00 
          0.0000000000e+00 0.0000000000e+00 0.0000000000e+00 
          0.0000000000e+00 0.0000000000e+00 0.0000000000e+00 
          0.0000000000e+00 0.0000000000e+00 0.0000000000e+00 
          0.0000000000e+00 0.0000000000e+00 0.0000000000e+00 
          0.0000000000e+00 0.0000000000e+00 0.0000000000e+00 
          0.0000000000e+00 0.0000000000e+00 0.0000000000e+00 
          0.0000000000e+00 0.0000000000e+00 0.0000000000e+00 
          0.0000000000e+00 0.0000000000e+00 0.0000000000e+00 
          0.0000000000e+00 0.0000000000e+00 0.0000000000e+00 
          0.0000000000e+00 0.0000000000e+00 0.0000000000e+00 
          0.0000000000e+00 0.0000000000e+00 0.0000000000e+00 
          0.0000000000e+00 0.0000000000e+00 0.0000000000e+00 
          0.0000000000e+00 0.0000000000e+00 0.0000000000e+00 
          0.0000000000e+00 0.0000000000e+00 0.0000000000e+00 
          0.0000000000e+00 0.0000000000e+00 0.0000000000e+00 
          0.0000000000e+00 0.0000000000e+00 0.0000000000e+00 
          0.0000000000e+00 0.0000000000e+00 0.0000000000e+00 
          0.0000000000e+00 0.0000000000e+00 0.0000000000e+00 
          0.0000000000e+00 0.0000000000e+00 0.0000000000e+00 
          0.0000000000e+00 0.0000000000e+00 0.0000000000e+00 
          0.0000000000e+00 0.0000000000e+00 0.0000000000e+00 
          0.0000000000e+00 0.0000000000e+00 0.0000000000e+00 
          0.0000000000e+00 0.0000000000e+00 0.0000000000e+00 
          0.0000000000e+00 0.0000000000e+00 0.0000000000e+00 
          0.0000000000e+00 0.0000000000e+00 0.0000000000e+00 
          0.0000000000e+00 0.0000000000e+00 0.0000000000e+00 
          0.0000000000e+00 0.0000000000e+00 0.0000000000e+00 
          0.0000000000e+00 0.0000000000e+00 0.0000000000e+00 
          0.0000000000e+00 0.0000000000e+00 0.0000000000e+00 
          0.0000000000e+00 0.0000000000e+00 0.0000000000e+00 
          0.0000000000e+00 0.0000000000e+00 0.0000000000e+00 
          0.0000000000e+00 0.0000000000e+00 0.0000000000e+00 
          0.0000000000e+00 0.0000000000e+00 0.0000000000e+00 
          0.0000000000e+00 0.0000000000e+00 0.0000000000e+00 
          0.0000000000e+00 0.0000000000e+00 0.0000000000e+00 
          0.0000000000e+00 0.0000000000e+00 0.0000000000e+00 
          0.0000000000e+00 0.0000000000e+00 0.0000000000e+00 
          0.0000000000e+00 0.0000000000e+00 0.0000000000e+00 
          0.0000000000e+00 0.0000000000e+00 0.0000000000e+00 
          0.0000000000e+00 0.0000000000e+00 0.0000000000e+00 
          0.0000000000e+00 0.0000000000e+00 0.0000000000e+00 
          0.0000000000e+00 0.0000000000e+00 0.0000000000e+00 
          0.0000000000e+00 0.0000000000e+00 0.0000000000e+00 
          0.0000000000e+00 0.0000000000e+00 0.0000000000e+00 
          0.0000000000e+00 0.0000000000e+00 0.0000000000e+00 
          0.0000000000e+00 0.0000000000e+00 0.0000000000e+00 
          0.0000000000e+00 0.0000000000e+00 0.0000000000e+00 
          0.0000000000e+00 0.0000000000e+00 0.0000000000e+00 
          0.0000000000e+00 0.0000000000e+00 0.0000000000e+00 
          0.0000000000e+00 0.0000000000e+00 0.0000000000e+00 
          0.0000000000e+00 0.0000000000e+00 0.0000000000e+00 
        </DataArray>
      </PointData>
      <CellData>
        <DataArray type="Int64" Name="ElementTag" format="ascii">
          0
        </DataArray>
      </CellData>
    </Piece>
  </UnstructuredGrid>
</VTKFile>
