<?xml version="1.0"?>
<VTKFile type="UnstructuredGrid" version="1.0" byte_order="LittleEndian" compressor="vtkZLibDataCompressor">
  <UnstructuredGrid>
    <Piece NumberOfPoints="82" NumberOfCells="1">
      <Points>
        <DataArray type="Float64" Name="Points" NumberOfComponents="3" format="ascii">
          0.0000000000e+00 0.0000000000e+00 0.0000000000e+00 
          2.5000000000e-01 0.0000000000e+00 0.0000000000e+00 
          2.5000000000e-01 3.0000000000e+01 0.0000000000e+00 
          0.0000000000e+00 3.0000000000e+01 0.0000000000e+00 
          0.0000000000e+00 -5.0000000000e+00 0.0000000000e+00 
          2.5000000000e-01 -5.0000000000e+00 0.0000000000e+00 
          2.5000000000e-01 7.6923100000e-01 0.0000000000e+00 
          2.5000000000e-01 1.5384620000e+00 0.0000000000e+00 
          2.5000000000e-01 2.3076920000e+00 0.0000000000e+00 
          2.5000000000e-01 3.0769230000e+00 0.0000000000e+00 
          2.5000000000e-01 3.8461540000e+00 0.0000000000e+00 
          2.5000000000e-01 4.6153850000e+00 0.0000000000e+00 
          2.5000000000e-01 5.3846150000e+00 0.0000000000e+00 
          2.5000000000e-01 6.1538460000e+00 0.0000000000e+00 
          2.5000000000e-01 6.9230770000e+00 0.0000000000e+00 
          2.5000000000e-01 7.6923080000e+00 0.0000000000e+00 
          2.5000000000e-01 8.4615380000e+00 0.0000000000e+00 
          2.5000000000e-01 9.2307690000e+00 0.0000000000e+00 
          2.5000000000e-01 1.0000000000e+01 0.0000000000e+00 
          2.5000000000e-01 1.0769231000e+01 0.0000000000e+00 
          2.5000000000e-01 1.1538462000e+01 0.0000000000e+00 
          2.5000000000e-01 1.2307692000e+01 0.0000000000e+00 
          2.5000000000e-01 1.3076923000e+01 0.0000000000e+00 
          2.5000000000e-01 1.3846154000e+01 0.0000000000e+00 
          2.5000000000e-01 1.4615385000e+01 0.0000000000e+00 
          2.5000000000e-01 1.5384615000e+01 0.0000000000e+00 
          2.5000000000e-01 1.6153846000e+01 0.0000000000e+00 
          2.5000000000e-01 1.6923077000e+01 0.0000000000e+00 
          2.5000000000e-01 1.7692308000e+01 0.0000000000e+00 
          2.5000000000e-01 1.8461538000e+01 0.0000000000e+00 
          2.5000000000e-01 1.9230769000e+01 0.0000000000e+00 
          2.5000000000e-01 2.0000000000e+01 0.0000000000e+00 
          2.5000000000e-01 2.0769231000e+01 0.0000000000e+00 
          2.5000000000e-01 2.1538462000e+01 0.0000000000e+00 
          2.5000000000e-01 2.2307692000e+01 0.0000000000e+00 
          2.5000000000e-01 2.3076923000e+01 0.0000000000e+00 
          2.5000000000e-01 2.3846154000e+01 0.0000000000e+00 
          2.5000000000e-01 2.4615385000e+01 0.0000000000e+00 
          2.5000000000e-01 2.5384615000e+01 0.0000000000e+00 
          2.5000000000e-01 2.6153846000e+01 0.0000000000e+00 
          2.5000000000e-01 2.6923077000e+01 0.0000000000e+00 
          2.5000000000e-01 2.7692308000e+01 0.0000000000e+00 
          2.5000000000e-01 2.8461538000e+01 0.0000000000e+00 
          2.5000000000e-01 2.9230769000e+01 0.0000000000e+00 
          0.0000000000e+00 7.6923100000e-01 0.0000000000e+00 
          0.0000000000e+00 1.5384620000e+00 0.0000000000e+00 
          0.0000000000e+00 2.3076920000e+00 0.0000000000e+00 
          0.0000000000e+00 3.0769230000e+00 0.0000000000e+00 
          0.0000000000e+00 3.8461540000e+00 0.0000000000e+00 
          0.0000000000e+00 4.6153850000e+00 0.0000000000e+00 
          0.0000000000e+00 5.3846150000e+00 0.0000000000e+00 
          0.0000000000e+00 6.1538460000e+00 0.0000000000e+00 
          0.0000000000e+00 6.9230770000e+00 0.0000000000e+00 
          0.0000000000e+00 7.6923080000e+00 0.0000000000e+00 
          0.0000000000e+00 8.4615380000e+00 0.0000000000e+00 
          0.0000000000e+00 9.2307690000e+00 0.0000000000e+00 
          0.0000000000e+00 1.0000000000e+01 0.0000000000e+00 
          0.0000000000e+00 1.0769231000e+01 0.0000000000e+00 
          0.0000000000e+00 1.1538462000e+01 0.0000000000e+00 
          0.0000000000e+00 1.2307692000e+01 0.0000000000e+00 
          0.0000000000e+00 1.3076923000e+01 0.0000000000e+00 
          0.0000000000e+00 1.3846154000e+01 0.0000000000e+00 
          0.0000000000e+00 1.4615385000e+01 0.0000000000e+00 
          0.0000000000e+00 1.5384615000e+01 0.0000000000e+00 
          0.0000000000e+00 1.6153846000e+01 0.0000000000e+00 
          0.0000000000e+00 1.6923077000e+01 0.0000000000e+00 
          0.0000000000e+00 1.7692308000e+01 0.0000000000e+00 
          0.0000000000e+00 1.8461538000e+01 0.0000000000e+00 
          0.0000000000e+00 1.9230769000e+01 0.0000000000e+00 
          0.0000000000e+00 2.0000000000e+01 0.0000000000e+00 
          0.0000000000e+00 2.0769231000e+01 0.0000000000e+00 
          0.0000000000e+00 2.1538462000e+01 0.0000000000e+00 
          0.0000000000e+00 2.2307692000e+01 0.0000000000e+00 
          0.0000000000e+00 2.3076923000e+01 0.0000000000e+00 
          0.0000000000e+00 2.3846154000e+01 0.0000000000e+00 
          0.0000000000e+00 2.4615385000e+01 0.0000000000e+00 
          0.0000000000e+00 2.5384615000e+01 0.0000000000e+00 
          0.0000000000e+00 2.6153846000e+01 0.0000000000e+00 
          0.0000000000e+00 2.6923077000e+01 0.0000000000e+00 
          0.0000000000e+00 2.7692308000e+01 0.0000000000e+00 
          0.0000000000e+00 2.8461538000e+01 0.0000000000e+00 
          0.0000000000e+00 2.9230769000e+01 0.0000000000e+00 
        </DataArray>
      </Points>
      <Cells>
        <DataArray type="Int64" Name="connectivity" format="ascii">
          0
          1
          2
          3
          4
          5
          6
          7
          8
          9
          10
          11
          12
          13
          14
          15
          16
          17
          18
          19
          20
          21
          22
          23
          24
          25
          26
          27
          28
          29
          30
          31
          32
          33
          34
          35
          36
          37
          38
          39
          40
          41
          42
          43
          44
          45
          46
          47
          48
          49
          50
          51
          52
          53
          54
          55
          56
          57
          58
          59
          60
          61
          62
          63
          64
          65
          66
          67
          68
          69
          70
          71
          72
          73
          74
          75
          76
          77
          78
          79
          80
          81
        </DataArray>
        <DataArray type="Int64" Name="offsets" format="ascii">
          82
        </DataArray>
        <DataArray type="Int64" Name="types" format="ascii">
          2
        </DataArray>
      </Cells>
      <PointData>
        <DataArray type="Int64" Name="NodeTag" format="ascii">
          1
          2
          3
          4
          5
          6
          7
          8
          9
          10
          11
          12
          13
          14
          15
          16
          17
          18
          19
          20
          21
          22
          23
          24
          25
          26
          27
          28
          29
          30
          31
          32
          33
          34
          35
          36
          37
          38
          39
          40
          41
          42
          43
          44
          45
          46
          47
          48
          49
          50
          51
          52
          53
          54
          55
          56
          57
          58
          59
          60
          61
          62
          63
          64
          65
          66
          67
          68
          69
          70
          71
          72
          73
          74
          75
          76
          77
          78
          79
          80
          81
          82
        </DataArray>
        <DataArray type="Float64" Name="Velocity" NumberOfComponents="3" format="ascii">
          3.2528961943e-05 -7.7844170980e-05 0.0000000000e+00 
          3.2528961943e-05 -7.7844170980e-05 0.0000000000e+00 
          -3.4335024819e-04 -7.7822308183e-05 0.0000000000e+00 
          -3.4335024819e-04 -7.7822308183e-05 0.0000000000e+00 
          0.0000000000e+00 0.0000000000e+00 0.0000000000e+00 
          0.0000000000e+00 0.0000000000e+00 0.0000000000e+00 
          1.7581257867e-05 -7.7851541819e-05 0.0000000000e+00 
          2.6310232353e-06 -7.7836547806e-05 0.0000000000e+00 
          -1.2284486400e-05 -7.7845529676e-05 0.0000000000e+00 
          -2.7154928187e-05 -7.7849764132e-05 0.0000000000e+00 
          -4.1943799032e-05 -7.7832766911e-05 0.0000000000e+00 
          -5.6623979858e-05 -7.7847133888e-05 0.0000000000e+00 
          -7.1186079810e-05 -7.7864763126e-05 0.0000000000e+00 
          -8.5584246784e-05 -7.7790744626e-05 0.0000000000e+00 
          -9.9807753385e-05 -7.7905819216e-05 0.0000000000e+00 
          -1.1383182020e-04 -7.7805228320e-05 0.0000000000e+00 
          -1.2762133390e-04 -7.7837947474e-05 0.0000000000e+00 
          -1.4116688685e-04 -7.7879869567e-05 0.0000000000e+00 
          -1.5443958355e-04 -7.7797849058e-05 0.0000000000e+00 
          -1.6740915742e-04 -7.7877330045e-05 0.0000000000e+00 
          -1.8006738723e-04 -7.7817011932e-05 0.0000000000e+00 
          -1.9238663701e-04 -7.7868116747e-05 0.0000000000e+00 
          -2.0433634942e-04 -7.7812885022e-05 0.0000000000e+00 
          -2.1591771512e-04 -7.7870290533e-05 0.0000000000e+00 
          -2.2708814055e-04 -7.7814220349e-05 0.0000000000e+00 
          -2.3784479209e-04 -7.7868795457e-05 0.0000000000e+00 
          -2.4816450845e-04 -7.7817330470e-05 0.0000000000e+00 
          -2.5802318236e-04 -7.7858417354e-05 0.0000000000e+00 
          -2.6741830422e-04 -7.7843197706e-05 0.0000000000e+00 
          -2.7632018063e-04 -7.7810966889e-05 0.0000000000e+00 
          -2.8472065990e-04 -7.7894528185e-05 0.0000000000e+00 
          -2.9260849824e-04 -7.7787321793e-05 0.0000000000e+00 
          -2.9995853322e-04 -7.7872056366e-05 0.0000000000e+00 
          -3.0677629198e-04 -7.7836925132e-05 0.0000000000e+00 
          -3.1303293684e-04 -7.7823053336e-05 0.0000000000e+00 
          -3.1872636302e-04 -7.7871346507e-05 0.0000000000e+00 
          -3.2385254783e-04 -7.7803607769e-05 0.0000000000e+00 
          -3.2838576270e-04 -7.7868640930e-05 0.0000000000e+00 
          -3.3234081843e-04 -7.7837052015e-05 0.0000000000e+00 
          -3.3568994728e-04 -7.7814098554e-05 0.0000000000e+00 
          -3.3844205509e-04 -7.7876438778e-05 0.0000000000e+00 
          -3.4058852352e-04 -7.7815522776e-05 0.0000000000e+00 
          -3.4211978233e-04 -7.7842177238e-05 0.0000000000e+00 
          -3.4304337777e-04 -7.7852322617e-05 0.0000000000e+00 
          1.7581257867e-05 -7.7851541819e-05 0.0000000000e+00 
          2.6310232353e-06 -7.7836547806e-05 0.0000000000e+00 
          -1.2284486400e-05 -7.7845529676e-05 0.0000000000e+00 
          -2.7154928187e-05 -7.7849764132e-05 0.0000000000e+00 
          -4.1943799032e-05 -7.7832766911e-05 0.0000000000e+00 
          -5.6623979858e-05 -7.7847133888e-05 0.0000000000e+00 
          -7.1186079810e-05 -7.7864763126e-05 0.0000000000e+00 
          -8.5584246784e-05 -7.7790744626e-05 0.0000000000e+00 
          -9.9807753385e-05 -7.7905819216e-05 0.0000000000e+00 
          -1.1383182020e-04 -7.7805228320e-05 0.0000000000e+00 
          -1.2762133390e-04 -7.7837947474e-05 0.0000000000e+00 
          -1.4116688685e-04 -7.7879869567e-05 0.0000000000e+00 
          -1.5443958355e-04 -7.7797849058e-05 0.0000000000e+00 
          -1.6740915742e-04 -7.7877330045e-05 0.0000000000e+00 
          -1.8006738723e-04 -7.7817011932e-05 0.0000000000e+00 
          -1.9238663701e-04 -7.7868116747e-05 0.0000000000e+00 
          -2.0433634942e-04 -7.7812885022e-05 0.0000000000e+00 
          -2.1591771512e-04 -7.7870290533e-05 0.0000000000e+00 
          -2.2708814055e-04 -7.7814220349e-05 0.0000000000e+00 
          -2.3784479209e-04 -7.7868795457e-05 0.0000000000e+00 
          -2.4816450845e-04 -7.7817330470e-05 0.0000000000e+00 
          -2.5802318236e-04 -7.7858417354e-05 0.0000000000e+00 
          -2.6741830422e-04 -7.7843197706e-05 0.0000000000e+00 
          -2.7632018063e-04 -7.7810966889e-05 0.0000000000e+00 
          -2.8472065990e-04 -7.7894528185e-05 0.0000000000e+00 
          -2.9260849824e-04 -7.7787321793e-05 0.0000000000e+00 
          -2.9995853322e-04 -7.7872056366e-05 0.0000000000e+00 
          -3.0677629198e-04 -7.7836925132e-05 0.0000000000e+00 
          -3.1303293684e-04 -7.7823053336e-05 0.0000000000e+00 
          -3.1872636302e-04 -7.7871346507e-05 0.0000000000e+00 
          -3.2385254783e-04 -7.7803607769e-05 0.0000000000e+00 
          -3.2838576270e-04 -7.7868640930e-05 0.0000000000e+00 
          -3.3234081843e-04 -7.7837052015e-05 0.0000000000e+00 
          -3.3568994728e-04 -7.7814098554e-05 0.0000000000e+00 
          -3.3844205509e-04 -7.7876438778e-05 0.0000000000e+00 
          -3.4058852352e-04 -7.7815522776e-05 0.0000000000e+00 
          -3.4211978233e-04 -7.7842177238e-05 0.0000000000e+00 
          -3.4304337777e-04 -7.7852322617e-05 0.0000000000e+00 
        </DataArray>
        <DataArray type="Float64" Name="Displacement" NumberOfComponents="3" format="ascii">
          5.3746746049e-06 -5.3685970092e-04 0.0000000000e+00 
          5.3746746049e-06 -5.3685970092e-04 0.0000000000e+00 
          1.6462847250e-05 -5.6043988781e-04 0.0000000000e+00 
          1.6462847250e-05 -5.6043988781e-04 0.0000000000e+00 
          0.0000000000e+00 0.0000000000e+00 0.0000000000e+00 
          0.0000000000e+00 0.0000000000e+00 0.0000000000e+00 
          5.9098824400e-06 -5.3805344101e-04 0.0000000000e+00 
          6.4346936081e-06 -5.3921621344e-04 0.0000000000e+00 
          6.9487842242e-06 -5.4034784063e-04 0.0000000000e+00 
          7.4517311722e-06 -5.4144871311e-04 0.0000000000e+00 
          7.9432368212e-06 -5.4251828632e-04 0.0000000000e+00 
          8.4229737876e-06 -5.4355708423e-04 0.0000000000e+00 
          8.8906032424e-06 -5.4456477608e-04 0.0000000000e+00 
          9.3458879045e-06 -5.4554142461e-04 0.0000000000e+00 
          9.7885086375e-06 -5.4648718987e-04 0.0000000000e+00 
          1.0218248835e-05 -5.4740182134e-04 0.0000000000e+00 
          1.0634849855e-05 -5.4828551496e-04 0.0000000000e+00 
          1.1038110444e-05 -5.4913820967e-04 0.0000000000e+00 
          1.1427821649e-05 -5.4995981888e-04 0.0000000000e+00 
          1.1803789058e-05 -5.5075055736e-04 0.0000000000e+00 
          1.2165876397e-05 -5.5151016544e-04 0.0000000000e+00 
          1.2513886137e-05 -5.5223877218e-04 0.0000000000e+00 
          1.2847722983e-05 -5.5293652506e-04 0.0000000000e+00 
          1.3167233123e-05 -5.5360303292e-04 0.0000000000e+00 
          1.3472317172e-05 -5.5423875378e-04 0.0000000000e+00 
          1.3762893380e-05 -5.5484332359e-04 0.0000000000e+00 
          1.4038844884e-05 -5.5541695847e-04 0.0000000000e+00 
          1.4300128976e-05 -5.5595956054e-04 0.0000000000e+00 
          1.4546666647e-05 -5.5647116318e-04 0.0000000000e+00 
          1.4778404934e-05 -5.5695177004e-04 0.0000000000e+00 
          1.4995313553e-05 -5.5740132032e-04 0.0000000000e+00 
          1.5197333876e-05 -5.5781998387e-04 0.0000000000e+00 
          1.5384457606e-05 -5.5820745866e-04 0.0000000000e+00 
          1.5556652030e-05 -5.5856409244e-04 0.0000000000e+00 
          1.5713893658e-05 -5.5888969328e-04 0.0000000000e+00 
          1.5856188873e-05 -5.5918412479e-04 0.0000000000e+00 
          1.5983506549e-05 -5.5944782256e-04 0.0000000000e+00 
          1.6095849185e-05 -5.5968028017e-04 0.0000000000e+00 
          1.6193224016e-05 -5.5988183210e-04 0.0000000000e+00 
          1.6275607603e-05 -5.6005239840e-04 0.0000000000e+00 
          1.6343017648e-05 -5.6019188190e-04 0.0000000000e+00 
          1.6395446257e-05 -5.6030045296e-04 0.0000000000e+00 
          1.6432889446e-05 -5.6037789742e-04 0.0000000000e+00 
          1.6455364119e-05 -5.6042450834e-04 0.0000000000e+00 
          5.9098824400e-06 -5.3805344101e-04 0.0000000000e+00 
          6.4346936081e-06 -5.3921621344e-04 0.0000000000e+00 
          6.9487842242e-06 -5.4034784063e-04 0.0000000000e+00 
          7.4517311722e-06 -5.4144871311e-04 0.0000000000e+00 
          7.9432368212e-06 -5.4251828632e-04 0.0000000000e+00 
          8.4229737876e-06 -5.4355708423e-04 0.0000000000e+00 
          8.8906032424e-06 -5.4456477608e-04 0.0000000000e+00 
          9.3458879045e-06 -5.4554142461e-04 0.0000000000e+00 
          9.7885086375e-06 -5.4648718987e-04 0.0000000000e+00 
          1.0218248835e-05 -5.4740182134e-04 0.0000000000e+00 
          1.0634849855e-05 -5.4828551496e-04 0.0000000000e+00 
          1.1038110444e-05 -5.4913820967e-04 0.0000000000e+00 
          1.1427821649e-05 -5.4995981888e-04 0.0000000000e+00 
          1.1803789058e-05 -5.5075055736e-04 0.0000000000e+00 
          1.2165876397e-05 -5.5151016544e-04 0.0000000000e+00 
          1.2513886137e-05 -5.5223877218e-04 0.0000000000e+00 
          1.2847722983e-05 -5.5293652506e-04 0.0000000000e+00 
          1.3167233123e-05 -5.5360303292e-04 0.0000000000e+00 
          1.3472317172e-05 -5.5423875378e-04 0.0000000000e+00 
          1.3762893380e-05 -5.5484332359e-04 0.0000000000e+00 
          1.4038844884e-05 -5.5541695847e-04 0.0000000000e+00 
          1.4300128976e-05 -5.5595956054e-04 0.0000000000e+00 
          1.4546666647e-05 -5.5647116318e-04 0.0000000000e+00 
          1.4778404934e-05 -5.5695177004e-04 0.0000000000e+00 
          1.4995313553e-05 -5.5740132032e-04 0.0000000000e+00 
          1.5197333876e-05 -5.5781998387e-04 0.0000000000e+00 
          1.5384457606e-05 -5.5820745866e-04 0.0000000000e+00 
          1.5556652030e-05 -5.5856409244e-04 0.0000000000e+00 
          1.5713893658e-05 -5.5888969328e-04 0.0000000000e+00 
          1.5856188873e-05 -5.5918412479e-04 0.0000000000e+00 
          1.5983506549e-05 -5.5944782256e-04 0.0000000000e+00 
          1.6095849185e-05 -5.5968028017e-04 0.0000000000e+00 
          1.6193224016e-05 -5.5988183210e-04 0.0000000000e+00 
          1.6275607603e-05 -5.6005239840e-04 0.0000000000e+00 
          1.6343017648e-05 -5.6019188190e-04 0.0000000000e+00 
          1.6395446257e-05 -5.6030045296e-04 0.0000000000e+00 
          1.6432889446e-05 -5.6037789742e-04 0.0000000000e+00 
          1.6455364119e-05 -5.6042450834e-04 0.0000000000e+00 
        </DataArray>
        <DataArray type="Float64" Name="Acceleration" NumberOfComponents="3" format="ascii">
          -8.9933556977e-04 -3.9222329085e-07 0.0000000000e+00 
          -8.9933556977e-04 -3.9222329085e-07 0.0000000000e+00 
          -1.3484897160e-03 -4.4583972138e-05 0.0000000000e+00 
          -1.3484897160e-03 -4.4583972138e-05 0.0000000000e+00 
          0.0000000000e+00 0.0000000000e+00 0.0000000000e+00 
          0.0000000000e+00 0.0000000000e+00 0.0000000000e+00 
          -9.3676022962e-04 -6.9685321014e-06 0.0000000000e+00 
          -9.6588331001e-04 2.4768400851e-05 0.0000000000e+00 
          -1.0041273814e-03 -4.5074699885e-05 0.0000000000e+00 
          -1.0308836303e-03 5.2787337579e-05 0.0000000000e+00 
          -1.0603815449e-03 -4.1634460878e-05 0.0000000000e+00 
          -1.0908566371e-03 1.7738427166e-05 0.0000000000e+00 
          -1.1123457039e-03 6.9045207417e-06 0.0000000000e+00 
          -1.1410450144e-03 -2.2175854226e-05 0.0000000000e+00 
          -1.1605616790e-03 2.2966046726e-05 0.0000000000e+00 
          -1.1838178682e-03 -1.2545659700e-05 0.0000000000e+00 
          -1.2020486359e-03 -1.1265610342e-06 0.0000000000e+00 
          -1.2208263617e-03 1.4264168114e-05 0.0000000000e+00 
          -1.2383431452e-03 -2.4435281672e-05 0.0000000000e+00 
          -1.2506217355e-03 2.2355413295e-05 0.0000000000e+00 
          -1.2683794807e-03 -1.0668306790e-06 0.0000000000e+00 
          -1.2770473433e-03 -2.7302516112e-05 0.0000000000e+00 
          -1.2908645081e-03 4.3012001758e-05 0.0000000000e+00 
          -1.2998192790e-03 -3.9526840514e-05 0.0000000000e+00 
          -1.3071519533e-03 2.5941000458e-05 0.0000000000e+00 
          -1.3177496370e-03 -1.2722950616e-05 0.0000000000e+00 
          -1.3215627714e-03 4.7699805453e-06 0.0000000000e+00 
          -1.3286815862e-03 -1.2425514028e-06 0.0000000000e+00 
          -1.3334275429e-03 -2.0128778909e-06 0.0000000000e+00 
          -1.3362103386e-03 9.1702546025e-06 0.0000000000e+00 
          -1.3414648408e-03 -2.1554427838e-05 0.0000000000e+00 
          -1.3422124646e-03 3.2873267565e-05 0.0000000000e+00 
          -1.3451599593e-03 -2.9790863383e-05 0.0000000000e+00 
          -1.3472589044e-03 4.7196624761e-06 0.0000000000e+00 
          -1.3467206778e-03 2.9453546389e-05 0.0000000000e+00 
          -1.3495057597e-03 -4.9124474650e-05 0.0000000000e+00 
          -1.3492807584e-03 4.2137016427e-05 0.0000000000e+00 
          -1.3486181692e-03 -1.8182441884e-05 0.0000000000e+00 
          -1.3507530113e-03 -3.6822153688e-06 0.0000000000e+00 
          -1.3491457029e-03 1.3780267946e-05 0.0000000000e+00 
          -1.3498569857e-03 -1.6921177601e-05 0.0000000000e+00 
          -1.3502124250e-03 2.1658487865e-05 0.0000000000e+00 
          -1.3486981207e-03 -3.1118842432e-05 0.0000000000e+00 
          -1.3507675543e-03 4.0568377443e-05 0.0000000000e+00 
          -9.3676022962e-04 -6.9685321014e-06 0.0000000000e+00 
          -9.6588331001e-04 2.4768400851e-05 0.0000000000e+00 
          -1.0041273814e-03 -4.5074699885e-05 0.0000000000e+00 
          -1.0308836303e-03 5.2787337579e-05 0.0000000000e+00 
          -1.0603815449e-03 -4.1634460878e-05 0.0000000000e+00 
          -1.0908566371e-03 1.7738427166e-05 0.0000000000e+00 
          -1.1123457039e-03 6.9045207417e-06 0.0000000000e+00 
          -1.1410450144e-03 -2.2175854226e-05 0.0000000000e+00 
          -1.1605616790e-03 2.2966046726e-05 0.0000000000e+00 
          -1.1838178682e-03 -1.2545659700e-05 0.0000000000e+00 
          -1.2020486359e-03 -1.1265610342e-06 0.0000000000e+00 
          -1.2208263617e-03 1.4264168114e-05 0.0000000000e+00 
          -1.2383431452e-03 -2.4435281672e-05 0.0000000000e+00 
          -1.2506217355e-03 2.2355413295e-05 0.0000000000e+00 
          -1.2683794807e-03 -1.0668306790e-06 0.0000000000e+00 
          -1.2770473433e-03 -2.7302516112e-05 0.0000000000e+00 
          -1.2908645081e-03 4.3012001758e-05 0.0000000000e+00 
          -1.2998192790e-03 -3.9526840514e-05 0.0000000000e+00 
          -1.3071519533e-03 2.5941000458e-05 0.0000000000e+00 
          -1.3177496370e-03 -1.2722950616e-05 0.0000000000e+00 
          -1.3215627714e-03 4.7699805453e-06 0.0000000000e+00 
          -1.3286815862e-03 -1.2425514028e-06 0.0000000000e+00 
          -1.3334275429e-03 -2.0128778909e-06 0.0000000000e+00 
          -1.3362103386e-03 9.1702546025e-06 0.0000000000e+00 
          -1.3414648408e-03 -2.1554427838e-05 0.0000000000e+00 
          -1.3422124646e-03 3.2873267565e-05 0.0000000000e+00 
          -1.3451599593e-03 -2.9790863383e-05 0.0000000000e+00 
          -1.3472589044e-03 4.7196624761e-06 0.0000000000e+00 
          -1.3467206778e-03 2.9453546389e-05 0.0000000000e+00 
          -1.3495057597e-03 -4.9124474650e-05 0.0000000000e+00 
          -1.3492807584e-03 4.2137016427e-05 0.0000000000e+00 
          -1.3486181692e-03 -1.8182441884e-05 0.0000000000e+00 
          -1.3507530113e-03 -3.6822153688e-06 0.0000000000e+00 
          -1.3491457029e-03 1.3780267946e-05 0.0000000000e+00 
          -1.3498569857e-03 -1.6921177601e-05 0.0000000000e+00 
          -1.3502124250e-03 2.1658487865e-05 0.0000000000e+00 
          -1.3486981207e-03 -3.1118842432e-05 0.0000000000e+00 
          -1.3507675543e-03 4.0568377443e-05 0.0000000000e+00 
        </DataArray>
        <DataArray type="Float64" Name="Reaction" NumberOfComponents="3" format="ascii">
          0.0000000000e+00 0.0000000000e+00 0.0000000000e+00 
          0.0000000000e+00 0.0000000000e+00 0.0000000000e+00 
          0.0000000000e+00 0.0000000000e+00 0.0000000000e+00 
          0.0000000000e+00 0.0000000000e+00 0.0000000000e+00 
          0.0000000000e+00 0.0000000000e+00 0.0000000000e+00 
          0.0000000000e+00 0.0000000000e+00 0.0000000000e+00 
          0.0000000000e+00 0.0000000000e+00 0.0000000000e+00 
          0.0000000000e+00 0.0000000000e+00 0.0000000000e+00 
          0.0000000000e+00 0.0000000000e+00 0.0000000000e+00 
          0.0000000000e+00 0.0000000000e+00 0.0000000000e+00 
          0.0000000000e+00 0.0000000000e+00 0.0000000000e+00 
          0.0000000000e+00 0.0000000000e+00 0.0000000000e+00 
          0.0000000000e+00 0.0000000000e+00 0.0000000000e+00 
          0.0000000000e+00 0.0000000000e+00 0.0000000000e+00 
          0.0000000000e+00 0.0000000000e+00 0.0000000000e+00 
          0.0000000000e+00 0.0000000000e+00 0.0000000000e+00 
          0.0000000000e+00 0.0000000000e+00 0.0000000000e+00 
          0.0000000000e+00 0.0000000000e+00 0.0000000000e+00 
          0.0000000000e+00 0.0000000000e+00 0.0000000000e+00 
          0.0000000000e+00 0.0000000000e+00 0.0000000000e+00 
          0.0000000000e+00 0.0000000000e+00 0.0000000000e+00 
          0.0000000000e+00 0.0000000000e+00 0.0000000000e+00 
          0.0000000000e+00 0.0000000000e+00 0.0000000000e+00 
          0.0000000000e+00 0.0000000000e+00 0.0000000000e+00 
          0.0000000000e+00 0.0000000000e+00 0.0000000000e+00 
          0.0000000000e+00 0.0000000000e+00 0.0000000000e+00 
          0.0000000000e+00 0.0000000000e+00 0.0000000000e+00 
          0.0000000000e+00 0.0000000000e+00 0.0000000000e+00 
          0.0000000000e+00 0.0000000000e+00 0.0000000000e+00 
          0.0000000000e+00 0.0000000000e+00 0.0000000000e+00 
          0.0000000000e+00 0.0000000000e+00 0.0000000000e+00 
          0.0000000000e+00 0.0000000000e+00 0.0000000000e+00 
          0.0000000000e+00 0.0000000000e+00 0.0000000000e+00 
          0.0000000000e+00 0.0000000000e+00 0.0000000000e+00 
          0.0000000000e+00 0.0000000000e+00 0.0000000000e+00 
          0.0000000000e+00 0.0000000000e+00 0.0000000000e+00 
          0.0000000000e+00 0.0000000000e+00 0.0000000000e+00 
          0.0000000000e+00 0.0000000000e+00 0.0000000000e+00 
          0.0000000000e+00 0.0000000000e+00 0.0000000000e+00 
          0.0000000000e+00 0.0000000000e+00 0.0000000000e+00 
          0.0000000000e+00 0.0000000000e+00 0.0000000000e+00 
          0.0000000000e+00 0.0000000000e+00 0.0000000000e+00 
          0.0000000000e+00 0.0000000000e+00 0.0000000000e+00 
          0.0000000000e+00 0.0000000000e+00 0.0000000000e+00 
          0.0000000000e+00 0.0000000000e+00 0.0000000000e+00 
          0.0000000000e+00 0.0000000000e+00 0.0000000000e+00 
          0.0000000000e+00 0.0000000000e+00 0.0000000000e+00 
          0.0000000000e+00 0.0000000000e+00 0.0000000000e+00 
          0.0000000000e+00 0.0000000000e+00 0.0000000000e+00 
          0.0000000000e+00 0.0000000000e+00 0.0000000000e+00 
          0.0000000000e+00 0.0000000000e+00 0.0000000000e+00 
          0.0000000000e+00 0.0000000000e+00 0.0000000000e+00 
          0.0000000000e+00 0.0000000000e+00 0.0000000000e+00 
          0.0000000000e+00 0.0000000000e+00 0.0000000000e+00 
          0.0000000000e+00 0.0000000000e+00 0.0000000000e+00 
          0.0000000000e+00 0.0000000000e+00 0.0000000000e+00 
          0.0000000000e+00 0.0000000000e+00 0.0000000000e+00 
          0.0000000000e+00 0.0000000000e+00 0.0000000000e+00 
          0.0000000000e+00 0.0000000000e+00 0.0000000000e+00 
          0.0000000000e+00 0.0000000000e+00 0.0000000000e+00 
          0.0000000000e+00 0.0000000000e+00 0.0000000000e+00 
          0.0000000000e+00 0.0000000000e+00 0.0000000000e+00 
          0.0000000000e+00 0.0000000000e+00 0.0000000000e+00 
          0.0000000000e+00 0.0000000000e+00 0.0000000000e+00 
          0.0000000000e+00 0.0000000000e+00 0.0000000000e+00 
          0.0000000000e+00 0.0000000000e+00 0.0000000000e+00 
          0.0000000000e+00 0.0000000000e+00 0.0000000000e+00 
          0.0000000000e+00 0.0000000000e+00 0.0000000000e+00 
          0.0000000000e+00 0.0000000000e+00 0.0000000000e+00 
          0.0000000000e+00 0.0000000000e+00 0.0000000000e+00 
          0.0000000000e+00 0.0000000000e+00 0.0000000000e+00 
          0.0000000000e+00 0.0000000000e+00 0.0000000000e+00 
          0.0000000000e+00 0.0000000000e+00 0.0000000000e+00 
          0.0000000000e+00 0.0000000000e+00 0.0000000000e+00 
          0.0000000000e+00 0.0000000000e+00 0.0000000000e+00 
          0.0000000000e+00 0.0000000000e+00 0.0000000000e+00 
          0.0000000000e+00 0.0000000000e+00 0.0000000000e+00 
          0.0000000000e+00 0.0000000000e+00 0.0000000000e+00 
          0.0000000000e+00 0.0000000000e+00 0.0000000000e+00 
          0.0000000000e+00 0.0000000000e+00 0.0000000000e+00 
          0.0000000000e+00 0.0000000000e+00 0.0000000000e+00 
          0.0000000000e+00 0.0000000000e+00 0.0000000000e+00 
        </DataArray>
      </PointData>
      <CellData>
        <DataArray type="Int64" Name="ElementTag" format="ascii">
          0
        </DataArray>
      </CellData>
    </Piece>
  </UnstructuredGrid>
</VTKFile>
