<?xml version="1.0"?>
<VTKFile type="UnstructuredGrid" version="1.0" byte_order="LittleEndian" compressor="vtkZLibDataCompressor">
  <UnstructuredGrid>
    <Piece NumberOfPoints="80" NumberOfCells="39">
      <Points>
        <DataArray type="Float64" Name="Points" NumberOfComponents="3" format="ascii">
          0.0000000000e+00 0.0000000000e+00 0.0000000000e+00 
          2.5000000000e-01 0.0000000000e+00 0.0000000000e+00 
          2.5000000000e-01 3.0000000000e+01 0.0000000000e+00 
          0.0000000000e+00 3.0000000000e+01 0.0000000000e+00 
          2.5000000000e-01 7.6923100000e-01 0.0000000000e+00 
          2.5000000000e-01 1.5384620000e+00 0.0000000000e+00 
          2.5000000000e-01 2.3076920000e+00 0.0000000000e+00 
          2.5000000000e-01 3.0769230000e+00 0.0000000000e+00 
          2.5000000000e-01 3.8461540000e+00 0.0000000000e+00 
          2.5000000000e-01 4.6153850000e+00 0.0000000000e+00 
          2.5000000000e-01 5.3846150000e+00 0.0000000000e+00 
          2.5000000000e-01 6.1538460000e+00 0.0000000000e+00 
          2.5000000000e-01 6.9230770000e+00 0.0000000000e+00 
          2.5000000000e-01 7.6923080000e+00 0.0000000000e+00 
          2.5000000000e-01 8.4615380000e+00 0.0000000000e+00 
          2.5000000000e-01 9.2307690000e+00 0.0000000000e+00 
          2.5000000000e-01 1.0000000000e+01 0.0000000000e+00 
          2.5000000000e-01 1.0769231000e+01 0.0000000000e+00 
          2.5000000000e-01 1.1538462000e+01 0.0000000000e+00 
          2.5000000000e-01 1.2307692000e+01 0.0000000000e+00 
          2.5000000000e-01 1.3076923000e+01 0.0000000000e+00 
          2.5000000000e-01 1.3846154000e+01 0.0000000000e+00 
          2.5000000000e-01 1.4615385000e+01 0.0000000000e+00 
          2.5000000000e-01 1.5384615000e+01 0.0000000000e+00 
          2.5000000000e-01 1.6153846000e+01 0.0000000000e+00 
          2.5000000000e-01 1.6923077000e+01 0.0000000000e+00 
          2.5000000000e-01 1.7692308000e+01 0.0000000000e+00 
          2.5000000000e-01 1.8461538000e+01 0.0000000000e+00 
          2.5000000000e-01 1.9230769000e+01 0.0000000000e+00 
          2.5000000000e-01 2.0000000000e+01 0.0000000000e+00 
          2.5000000000e-01 2.0769231000e+01 0.0000000000e+00 
          2.5000000000e-01 2.1538462000e+01 0.0000000000e+00 
          2.5000000000e-01 2.2307692000e+01 0.0000000000e+00 
          2.5000000000e-01 2.3076923000e+01 0.0000000000e+00 
          2.5000000000e-01 2.3846154000e+01 0.0000000000e+00 
          2.5000000000e-01 2.4615385000e+01 0.0000000000e+00 
          2.5000000000e-01 2.5384615000e+01 0.0000000000e+00 
          2.5000000000e-01 2.6153846000e+01 0.0000000000e+00 
          2.5000000000e-01 2.6923077000e+01 0.0000000000e+00 
          2.5000000000e-01 2.7692308000e+01 0.0000000000e+00 
          2.5000000000e-01 2.8461538000e+01 0.0000000000e+00 
          2.5000000000e-01 2.9230769000e+01 0.0000000000e+00 
          0.0000000000e+00 7.6923100000e-01 0.0000000000e+00 
          0.0000000000e+00 1.5384620000e+00 0.0000000000e+00 
          0.0000000000e+00 2.3076920000e+00 0.0000000000e+00 
          0.0000000000e+00 3.0769230000e+00 0.0000000000e+00 
          0.0000000000e+00 3.8461540000e+00 0.0000000000e+00 
          0.0000000000e+00 4.6153850000e+00 0.0000000000e+00 
          0.0000000000e+00 5.3846150000e+00 0.0000000000e+00 
          0.0000000000e+00 6.1538460000e+00 0.0000000000e+00 
          0.0000000000e+00 6.9230770000e+00 0.0000000000e+00 
          0.0000000000e+00 7.6923080000e+00 0.0000000000e+00 
          0.0000000000e+00 8.4615380000e+00 0.0000000000e+00 
          0.0000000000e+00 9.2307690000e+00 0.0000000000e+00 
          0.0000000000e+00 1.0000000000e+01 0.0000000000e+00 
          0.0000000000e+00 1.0769231000e+01 0.0000000000e+00 
          0.0000000000e+00 1.1538462000e+01 0.0000000000e+00 
          0.0000000000e+00 1.2307692000e+01 0.0000000000e+00 
          0.0000000000e+00 1.3076923000e+01 0.0000000000e+00 
          0.0000000000e+00 1.3846154000e+01 0.0000000000e+00 
          0.0000000000e+00 1.4615385000e+01 0.0000000000e+00 
          0.0000000000e+00 1.5384615000e+01 0.0000000000e+00 
          0.0000000000e+00 1.6153846000e+01 0.0000000000e+00 
          0.0000000000e+00 1.6923077000e+01 0.0000000000e+00 
          0.0000000000e+00 1.7692308000e+01 0.0000000000e+00 
          0.0000000000e+00 1.8461538000e+01 0.0000000000e+00 
          0.0000000000e+00 1.9230769000e+01 0.0000000000e+00 
          0.0000000000e+00 2.0000000000e+01 0.0000000000e+00 
          0.0000000000e+00 2.0769231000e+01 0.0000000000e+00 
          0.0000000000e+00 2.1538462000e+01 0.0000000000e+00 
          0.0000000000e+00 2.2307692000e+01 0.0000000000e+00 
          0.0000000000e+00 2.3076923000e+01 0.0000000000e+00 
          0.0000000000e+00 2.3846154000e+01 0.0000000000e+00 
          0.0000000000e+00 2.4615385000e+01 0.0000000000e+00 
          0.0000000000e+00 2.5384615000e+01 0.0000000000e+00 
          0.0000000000e+00 2.6153846000e+01 0.0000000000e+00 
          0.0000000000e+00 2.6923077000e+01 0.0000000000e+00 
          0.0000000000e+00 2.7692308000e+01 0.0000000000e+00 
          0.0000000000e+00 2.8461538000e+01 0.0000000000e+00 
          0.0000000000e+00 2.9230769000e+01 0.0000000000e+00 
        </DataArray>
      </Points>
      <Cells>
        <DataArray type="Int64" Name="connectivity" format="ascii">
          0 1 4 42 
          42 4 5 43 
          43 5 6 44 
          44 6 7 45 
          45 7 8 46 
          46 8 9 47 
          47 9 10 48 
          48 10 11 49 
          49 11 12 50 
          50 12 13 51 
          51 13 14 52 
          52 14 15 53 
          53 15 16 54 
          54 16 17 55 
          55 17 18 56 
          56 18 19 57 
          57 19 20 58 
          58 20 21 59 
          59 21 22 60 
          60 22 23 61 
          61 23 24 62 
          62 24 25 63 
          63 25 26 64 
          64 26 27 65 
          65 27 28 66 
          66 28 29 67 
          67 29 30 68 
          68 30 31 69 
          69 31 32 70 
          70 32 33 71 
          71 33 34 72 
          72 34 35 73 
          73 35 36 74 
          74 36 37 75 
          75 37 38 76 
          76 38 39 77 
          77 39 40 78 
          78 40 41 79 
          79 41 2 3 
        </DataArray>
        <DataArray type="Int64" Name="offsets" format="ascii">
          4
          8
          12
          16
          20
          24
          28
          32
          36
          40
          44
          48
          52
          56
          60
          64
          68
          72
          76
          80
          84
          88
          92
          96
          100
          104
          108
          112
          116
          120
          124
          128
          132
          136
          140
          144
          148
          152
          156
        </DataArray>
        <DataArray type="Int64" Name="types" format="ascii">
          9
          9
          9
          9
          9
          9
          9
          9
          9
          9
          9
          9
          9
          9
          9
          9
          9
          9
          9
          9
          9
          9
          9
          9
          9
          9
          9
          9
          9
          9
          9
          9
          9
          9
          9
          9
          9
          9
          9
        </DataArray>
      </Cells>
      <PointData>
        <DataArray type="Int64" Name="NodeTag" format="ascii">
          1
          2
          3
          4
          7
          8
          9
          10
          11
          12
          13
          14
          15
          16
          17
          18
          19
          20
          21
          22
          23
          24
          25
          26
          27
          28
          29
          30
          31
          32
          33
          34
          35
          36
          37
          38
          39
          40
          41
          42
          43
          44
          45
          46
          47
          48
          49
          50
          51
          52
          53
          54
          55
          56
          57
          58
          59
          60
          61
          62
          63
          64
          65
          66
          67
          68
          69
          70
          71
          72
          73
          74
          75
          76
          77
          78
          79
          80
          81
          82
        </DataArray>
        <DataArray type="Float64" Name="Velocity" NumberOfComponents="3" format="ascii">
          4.1402430008e-07 -7.8732739924e-05 0.0000000000e+00 
          4.1402430008e-07 -7.8732739924e-05 0.0000000000e+00 
          9.0982778076e-10 -2.8926899100e-05 0.0000000000e+00 
          9.0982778076e-10 -2.8926899100e-05 0.0000000000e+00 
          3.5361187989e-07 -7.7533204468e-05 0.0000000000e+00 
          3.0174335950e-07 -7.6336346809e-05 0.0000000000e+00 
          2.5725193215e-07 -7.5218920801e-05 0.0000000000e+00 
          2.1912385406e-07 -7.3684927308e-05 0.0000000000e+00 
          1.8647949970e-07 -7.2039338039e-05 0.0000000000e+00 
          1.5855616069e-07 -7.0717390921e-05 0.0000000000e+00 
          1.3469333260e-07 -6.8754024443e-05 0.0000000000e+00 
          1.1431945617e-07 -6.7585944384e-05 0.0000000000e+00 
          9.6940588166e-08 -6.6826971815e-05 0.0000000000e+00 
          8.2130213991e-08 -6.5651040830e-05 0.0000000000e+00 
          6.9520459043e-08 -6.4251556831e-05 0.0000000000e+00 
          5.8794282691e-08 -6.3194863747e-05 0.0000000000e+00 
          4.9678817710e-08 -6.2123575463e-05 0.0000000000e+00 
          4.1939401009e-08 -6.0052750644e-05 0.0000000000e+00 
          3.5374439793e-08 -5.8412961700e-05 0.0000000000e+00 
          2.9810935000e-08 -5.6808342532e-05 0.0000000000e+00 
          2.5100552709e-08 -5.5311467740e-05 0.0000000000e+00 
          2.1116275595e-08 -5.4137530965e-05 0.0000000000e+00 
          1.7749427650e-08 -5.2908157730e-05 0.0000000000e+00 
          1.4907133516e-08 -5.1740371360e-05 0.0000000000e+00 
          1.2510095226e-08 -5.0750054510e-05 0.0000000000e+00 
          1.0490701520e-08 -4.9877665056e-05 0.0000000000e+00 
          8.7913602338e-09 -4.8691552425e-05 0.0000000000e+00 
          7.3630797619e-09 -4.6945987337e-05 0.0000000000e+00 
          6.1642345129e-09 -4.5744863796e-05 0.0000000000e+00 
          5.1595201971e-09 -4.4447843743e-05 0.0000000000e+00 
          4.3190397402e-09 -4.2718541958e-05 0.0000000000e+00 
          3.6175284952e-09 -4.1521606502e-05 0.0000000000e+00 
          3.0336912799e-09 -4.0003837263e-05 0.0000000000e+00 
          2.5496335263e-09 -3.8147594493e-05 0.0000000000e+00 
          2.1503849196e-09 -3.6168355535e-05 0.0000000000e+00 
          1.8234901059e-09 -3.4144767626e-05 0.0000000000e+00 
          1.5586682890e-09 -3.3215612363e-05 0.0000000000e+00 
          1.3475280501e-09 -3.2405067918e-05 0.0000000000e+00 
          1.1833352562e-09 -3.1208535864e-05 0.0000000000e+00 
          1.0608225619e-09 -3.0506815004e-05 0.0000000000e+00 
          9.7604114604e-10 -2.9773895741e-05 0.0000000000e+00 
          9.2624784904e-10 -2.9134867246e-05 0.0000000000e+00 
          3.5361187989e-07 -7.7533204468e-05 0.0000000000e+00 
          3.0174335950e-07 -7.6336346809e-05 0.0000000000e+00 
          2.5725193215e-07 -7.5218920801e-05 0.0000000000e+00 
          2.1912385406e-07 -7.3684927308e-05 0.0000000000e+00 
          1.8647949970e-07 -7.2039338039e-05 0.0000000000e+00 
          1.5855616069e-07 -7.0717390921e-05 0.0000000000e+00 
          1.3469333260e-07 -6.8754024443e-05 0.0000000000e+00 
          1.1431945617e-07 -6.7585944384e-05 0.0000000000e+00 
          9.6940588166e-08 -6.6826971815e-05 0.0000000000e+00 
          8.2130213991e-08 -6.5651040830e-05 0.0000000000e+00 
          6.9520459043e-08 -6.4251556831e-05 0.0000000000e+00 
          5.8794282691e-08 -6.3194863747e-05 0.0000000000e+00 
          4.9678817710e-08 -6.2123575463e-05 0.0000000000e+00 
          4.1939401009e-08 -6.0052750644e-05 0.0000000000e+00 
          3.5374439793e-08 -5.8412961700e-05 0.0000000000e+00 
          2.9810935000e-08 -5.6808342532e-05 0.0000000000e+00 
          2.5100552709e-08 -5.5311467740e-05 0.0000000000e+00 
          2.1116275595e-08 -5.4137530965e-05 0.0000000000e+00 
          1.7749427650e-08 -5.2908157730e-05 0.0000000000e+00 
          1.4907133516e-08 -5.1740371360e-05 0.0000000000e+00 
          1.2510095226e-08 -5.0750054510e-05 0.0000000000e+00 
          1.0490701520e-08 -4.9877665056e-05 0.0000000000e+00 
          8.7913602338e-09 -4.8691552425e-05 0.0000000000e+00 
          7.3630797619e-09 -4.6945987337e-05 0.0000000000e+00 
          6.1642345129e-09 -4.5744863796e-05 0.0000000000e+00 
          5.1595201971e-09 -4.4447843743e-05 0.0000000000e+00 
          4.3190397402e-09 -4.2718541958e-05 0.0000000000e+00 
          3.6175284952e-09 -4.1521606502e-05 0.0000000000e+00 
          3.0336912799e-09 -4.0003837263e-05 0.0000000000e+00 
          2.5496335263e-09 -3.8147594493e-05 0.0000000000e+00 
          2.1503849196e-09 -3.6168355535e-05 0.0000000000e+00 
          1.8234901059e-09 -3.4144767626e-05 0.0000000000e+00 
          1.5586682890e-09 -3.3215612363e-05 0.0000000000e+00 
          1.3475280501e-09 -3.2405067918e-05 0.0000000000e+00 
          1.1833352562e-09 -3.1208535864e-05 0.0000000000e+00 
          1.0608225619e-09 -3.0506815004e-05 0.0000000000e+00 
          9.7604114604e-10 -2.9773895741e-05 0.0000000000e+00 
          9.2624784904e-10 -2.9134867246e-05 0.0000000000e+00 
        </DataArray>
        <DataArray type="Float64" Name="Displacement" NumberOfComponents="3" format="ascii">
          8.4725318496e-09 -1.0673106237e-04 0.0000000000e+00 
          8.4725318496e-09 -1.0673106237e-04 0.0000000000e+00 
          1.5404806710e-11 -1.3058191073e-04 0.0000000000e+00 
          1.5404806710e-11 -1.3058191073e-04 0.0000000000e+00 
          7.1976861156e-09 -1.0793838428e-04 0.0000000000e+00 
          6.1093490961e-09 -1.0911529314e-04 0.0000000000e+00 
          5.1810701475e-09 -1.1026213681e-04 0.0000000000e+00 
          4.3900188283e-09 -1.1137791108e-04 0.0000000000e+00 
          3.7165145245e-09 -1.1246122765e-04 0.0000000000e+00 
          3.1436045764e-09 -1.1351354886e-04 0.0000000000e+00 
          2.6567018442e-09 -1.1453456624e-04 0.0000000000e+00 
          2.2432644967e-09 -1.1552292159e-04 0.0000000000e+00 
          1.8925229800e-09 -1.1647973544e-04 0.0000000000e+00 
          1.5952364752e-09 -1.1740462264e-04 0.0000000000e+00 
          1.3434843362e-09 -1.1829767964e-04 0.0000000000e+00 
          1.1304828966e-09 -1.1915948578e-04 0.0000000000e+00 
          9.5042955129e-10 -1.1998992993e-04 0.0000000000e+00 
          7.9836459991e-10 -1.2079040107e-04 0.0000000000e+00 
          6.7005316811e-10 -1.2155967615e-04 0.0000000000e+00 
          5.6188292230e-10 -1.2229611384e-04 0.0000000000e+00 
          4.7077506669e-10 -1.2300118352e-04 0.0000000000e+00 
          3.9410882790e-10 -1.2367545272e-04 0.0000000000e+00 
          3.2965507324e-10 -1.2431890605e-04 0.0000000000e+00 
          2.7551987014e-10 -1.2493109673e-04 0.0000000000e+00 
          2.3009549162e-10 -1.2551096718e-04 0.0000000000e+00 
          1.9201896705e-10 -1.2605815297e-04 0.0000000000e+00 
          1.6013587451e-10 -1.2657333103e-04 0.0000000000e+00 
          1.3346966858e-10 -1.2705632836e-04 0.0000000000e+00 
          1.1119520532e-10 -1.2750752728e-04 0.0000000000e+00 
          9.2616434265e-11 -1.2792809940e-04 0.0000000000e+00 
          7.7147047592e-11 -1.2831677332e-04 0.0000000000e+00 
          6.4294159432e-11 -1.2867522574e-04 0.0000000000e+00 
          5.3644417451e-11 -1.2900388237e-04 0.0000000000e+00 
          4.4852171185e-11 -1.2930135775e-04 0.0000000000e+00 
          3.7629603508e-11 -1.2956721182e-04 0.0000000000e+00 
          3.1738307336e-11 -1.2980287089e-04 0.0000000000e+00 
          2.6982314385e-11 -1.3000890050e-04 0.0000000000e+00 
          2.3202274349e-11 -1.3018307343e-04 0.0000000000e+00 
          2.0270741341e-11 -1.3032610617e-04 0.0000000000e+00 
          1.8088321069e-11 -1.3043755317e-04 0.0000000000e+00 
          1.6580678800e-11 -1.3051724143e-04 0.0000000000e+00 
          1.5696274706e-11 -1.3056560756e-04 0.0000000000e+00 
          7.1976861156e-09 -1.0793838428e-04 0.0000000000e+00 
          6.1093490961e-09 -1.0911529314e-04 0.0000000000e+00 
          5.1810701475e-09 -1.1026213681e-04 0.0000000000e+00 
          4.3900188283e-09 -1.1137791108e-04 0.0000000000e+00 
          3.7165145245e-09 -1.1246122765e-04 0.0000000000e+00 
          3.1436045764e-09 -1.1351354886e-04 0.0000000000e+00 
          2.6567018442e-09 -1.1453456624e-04 0.0000000000e+00 
          2.2432644967e-09 -1.1552292159e-04 0.0000000000e+00 
          1.8925229800e-09 -1.1647973544e-04 0.0000000000e+00 
          1.5952364752e-09 -1.1740462264e-04 0.0000000000e+00 
          1.3434843362e-09 -1.1829767964e-04 0.0000000000e+00 
          1.1304828966e-09 -1.1915948578e-04 0.0000000000e+00 
          9.5042955129e-10 -1.1998992993e-04 0.0000000000e+00 
          7.9836459991e-10 -1.2079040107e-04 0.0000000000e+00 
          6.7005316811e-10 -1.2155967615e-04 0.0000000000e+00 
          5.6188292230e-10 -1.2229611384e-04 0.0000000000e+00 
          4.7077506669e-10 -1.2300118352e-04 0.0000000000e+00 
          3.9410882790e-10 -1.2367545272e-04 0.0000000000e+00 
          3.2965507324e-10 -1.2431890605e-04 0.0000000000e+00 
          2.7551987014e-10 -1.2493109673e-04 0.0000000000e+00 
          2.3009549162e-10 -1.2551096718e-04 0.0000000000e+00 
          1.9201896705e-10 -1.2605815297e-04 0.0000000000e+00 
          1.6013587451e-10 -1.2657333103e-04 0.0000000000e+00 
          1.3346966858e-10 -1.2705632836e-04 0.0000000000e+00 
          1.1119520532e-10 -1.2750752728e-04 0.0000000000e+00 
          9.2616434265e-11 -1.2792809940e-04 0.0000000000e+00 
          7.7147047592e-11 -1.2831677332e-04 0.0000000000e+00 
          6.4294159432e-11 -1.2867522574e-04 0.0000000000e+00 
          5.3644417451e-11 -1.2900388237e-04 0.0000000000e+00 
          4.4852171185e-11 -1.2930135775e-04 0.0000000000e+00 
          3.7629603508e-11 -1.2956721182e-04 0.0000000000e+00 
          3.1738307336e-11 -1.2980287089e-04 0.0000000000e+00 
          2.6982314385e-11 -1.3000890050e-04 0.0000000000e+00 
          2.3202274349e-11 -1.3018307343e-04 0.0000000000e+00 
          2.0270741341e-11 -1.3032610617e-04 0.0000000000e+00 
          1.8088321069e-11 -1.3043755317e-04 0.0000000000e+00 
          1.6580678800e-11 -1.3051724143e-04 0.0000000000e+00 
          1.5696274706e-11 -1.3056560756e-04 0.0000000000e+00 
        </DataArray>
        <DataArray type="Float64" Name="Acceleration" NumberOfComponents="3" format="ascii">
          1.9563818830e-05 7.9376732414e-05 0.0000000000e+00 
          1.9563818830e-05 7.9376732414e-05 0.0000000000e+00 
          5.2523685641e-08 2.8832621437e-04 0.0000000000e+00 
          5.2523685641e-08 2.8832621437e-04 0.0000000000e+00 
          1.6804803504e-05 -1.0691041667e-04 0.0000000000e+00 
          1.4421448912e-05 -1.6986428617e-04 0.0000000000e+00 
          1.2364597186e-05 1.1636203998e-05 0.0000000000e+00 
          1.0591218217e-05 2.6154045971e-04 0.0000000000e+00 
          9.0637501159e-06 -1.9756326237e-06 0.0000000000e+00 
          7.7493680036e-06 5.3370829760e-05 0.0000000000e+00 
          6.6194375767e-06 2.9860757359e-04 0.0000000000e+00 
          5.6490181669e-06 9.6438696564e-05 0.0000000000e+00 
          4.8164021467e-06 1.6584245872e-04 0.0000000000e+00 
          4.1027094512e-06 1.4825924393e-04 0.0000000000e+00 
          3.4915462972e-06 4.4276531904e-05 0.0000000000e+00 
          2.9686883703e-06 6.4088728112e-05 0.0000000000e+00 
          2.5218095643e-06 -1.8620721698e-04 0.0000000000e+00 
          2.1402390229e-06 3.4186421437e-05 0.0000000000e+00 
          1.8147491439e-06 3.2979714248e-04 0.0000000000e+00 
          1.5373687226e-06 6.5348184189e-05 0.0000000000e+00 
          1.3012181925e-06 -3.7095114303e-05 0.0000000000e+00 
          1.1003689403e-06 -3.4322754991e-05 0.0000000000e+00 
          9.2971613581e-07 4.6050269530e-05 0.0000000000e+00 
          7.8486934862e-07 2.3691315840e-04 0.0000000000e+00 
          6.6205615217e-07 3.0244271474e-04 0.0000000000e+00 
          5.5804045414e-07 1.8045396295e-04 0.0000000000e+00 
          4.7004897134e-07 2.1152089731e-04 0.0000000000e+00 
          3.9570806516e-07 1.4285157541e-04 0.0000000000e+00 
          3.3298916883e-07 -6.8393516107e-05 0.0000000000e+00 
          2.8016167232e-07 1.6071666995e-04 0.0000000000e+00 
          2.3575168423e-07 -1.4143057639e-04 0.0000000000e+00 
          1.9850670206e-07 -2.1821917839e-04 0.0000000000e+00 
          1.6736538752e-07 3.1600338919e-05 0.0000000000e+00 
          1.4143114096e-07 1.1082242117e-04 0.0000000000e+00 
          1.1995019343e-07 -1.4620888075e-04 0.0000000000e+00 
          1.0229256828e-07 -2.4816082328e-04 0.0000000000e+00 
          8.7935899996e-08 1.5328646336e-04 0.0000000000e+00 
          7.6452158207e-08 2.4119893229e-05 0.0000000000e+00 
          6.7496539701e-08 1.0441067116e-04 0.0000000000e+00 
          6.0798692455e-08 1.3557165984e-04 0.0000000000e+00 
          5.6155203658e-08 5.6930037553e-05 0.0000000000e+00 
          5.3424712479e-08 1.9040738765e-04 0.0000000000e+00 
          1.6804803504e-05 -1.0691041667e-04 0.0000000000e+00 
          1.4421448912e-05 -1.6986428617e-04 0.0000000000e+00 
          1.2364597186e-05 1.1636203998e-05 0.0000000000e+00 
          1.0591218217e-05 2.6154045971e-04 0.0000000000e+00 
          9.0637501159e-06 -1.9756326237e-06 0.0000000000e+00 
          7.7493680036e-06 5.3370829760e-05 0.0000000000e+00 
          6.6194375767e-06 2.9860757359e-04 0.0000000000e+00 
          5.6490181669e-06 9.6438696564e-05 0.0000000000e+00 
          4.8164021467e-06 1.6584245872e-04 0.0000000000e+00 
          4.1027094512e-06 1.4825924393e-04 0.0000000000e+00 
          3.4915462972e-06 4.4276531904e-05 0.0000000000e+00 
          2.9686883703e-06 6.4088728112e-05 0.0000000000e+00 
          2.5218095643e-06 -1.8620721698e-04 0.0000000000e+00 
          2.1402390229e-06 3.4186421437e-05 0.0000000000e+00 
          1.8147491439e-06 3.2979714248e-04 0.0000000000e+00 
          1.5373687226e-06 6.5348184189e-05 0.0000000000e+00 
          1.3012181925e-06 -3.7095114303e-05 0.0000000000e+00 
          1.1003689403e-06 -3.4322754991e-05 0.0000000000e+00 
          9.2971613581e-07 4.6050269530e-05 0.0000000000e+00 
          7.8486934862e-07 2.3691315840e-04 0.0000000000e+00 
          6.6205615217e-07 3.0244271474e-04 0.0000000000e+00 
          5.5804045414e-07 1.8045396295e-04 0.0000000000e+00 
          4.7004897134e-07 2.1152089731e-04 0.0000000000e+00 
          3.9570806516e-07 1.4285157541e-04 0.0000000000e+00 
          3.3298916883e-07 -6.8393516107e-05 0.0000000000e+00 
          2.8016167232e-07 1.6071666995e-04 0.0000000000e+00 
          2.3575168423e-07 -1.4143057639e-04 0.0000000000e+00 
          1.9850670206e-07 -2.1821917839e-04 0.0000000000e+00 
          1.6736538752e-07 3.1600338919e-05 0.0000000000e+00 
          1.4143114096e-07 1.1082242117e-04 0.0000000000e+00 
          1.1995019343e-07 -1.4620888075e-04 0.0000000000e+00 
          1.0229256828e-07 -2.4816082328e-04 0.0000000000e+00 
          8.7935899996e-08 1.5328646336e-04 0.0000000000e+00 
          7.6452158207e-08 2.4119893229e-05 0.0000000000e+00 
          6.7496539701e-08 1.0441067116e-04 0.0000000000e+00 
          6.0798692455e-08 1.3557165984e-04 0.0000000000e+00 
          5.6155203658e-08 5.6930037553e-05 0.0000000000e+00 
          5.3424712479e-08 1.9040738765e-04 0.0000000000e+00 
        </DataArray>
        <DataArray type="Float64" Name="Reaction" NumberOfComponents="3" format="ascii">
          0.0000000000e+00 0.0000000000e+00 0.0000000000e+00 
          0.0000000000e+00 0.0000000000e+00 0.0000000000e+00 
          0.0000000000e+00 0.0000000000e+00 0.0000000000e+00 
          0.0000000000e+00 0.0000000000e+00 0.0000000000e+00 
          0.0000000000e+00 0.0000000000e+00 0.0000000000e+00 
          0.0000000000e+00 0.0000000000e+00 0.0000000000e+00 
          0.0000000000e+00 0.0000000000e+00 0.0000000000e+00 
          0.0000000000e+00 0.0000000000e+00 0.0000000000e+00 
          0.0000000000e+00 0.0000000000e+00 0.0000000000e+00 
          0.0000000000e+00 0.0000000000e+00 0.0000000000e+00 
          0.0000000000e+00 0.0000000000e+00 0.0000000000e+00 
          0.0000000000e+00 0.0000000000e+00 0.0000000000e+00 
          0.0000000000e+00 0.0000000000e+00 0.0000000000e+00 
          0.0000000000e+00 0.0000000000e+00 0.0000000000e+00 
          0.0000000000e+00 0.0000000000e+00 0.0000000000e+00 
          0.0000000000e+00 0.0000000000e+00 0.0000000000e+00 
          0.0000000000e+00 0.0000000000e+00 0.0000000000e+00 
          0.0000000000e+00 0.0000000000e+00 0.0000000000e+00 
          0.0000000000e+00 0.0000000000e+00 0.0000000000e+00 
          0.0000000000e+00 0.0000000000e+00 0.0000000000e+00 
          0.0000000000e+00 0.0000000000e+00 0.0000000000e+00 
          0.0000000000e+00 0.0000000000e+00 0.0000000000e+00 
          0.0000000000e+00 0.0000000000e+00 0.0000000000e+00 
          0.0000000000e+00 0.0000000000e+00 0.0000000000e+00 
          0.0000000000e+00 0.0000000000e+00 0.0000000000e+00 
          0.0000000000e+00 0.0000000000e+00 0.0000000000e+00 
          0.0000000000e+00 0.0000000000e+00 0.0000000000e+00 
          0.0000000000e+00 0.0000000000e+00 0.0000000000e+00 
          0.0000000000e+00 0.0000000000e+00 0.0000000000e+00 
          0.0000000000e+00 0.0000000000e+00 0.0000000000e+00 
          0.0000000000e+00 0.0000000000e+00 0.0000000000e+00 
          0.0000000000e+00 0.0000000000e+00 0.0000000000e+00 
          0.0000000000e+00 0.0000000000e+00 0.0000000000e+00 
          0.0000000000e+00 0.0000000000e+00 0.0000000000e+00 
          0.0000000000e+00 0.0000000000e+00 0.0000000000e+00 
          0.0000000000e+00 0.0000000000e+00 0.0000000000e+00 
          0.0000000000e+00 0.0000000000e+00 0.0000000000e+00 
          0.0000000000e+00 0.0000000000e+00 0.0000000000e+00 
          0.0000000000e+00 0.0000000000e+00 0.0000000000e+00 
          0.0000000000e+00 0.0000000000e+00 0.0000000000e+00 
          0.0000000000e+00 0.0000000000e+00 0.0000000000e+00 
          0.0000000000e+00 0.0000000000e+00 0.0000000000e+00 
          0.0000000000e+00 0.0000000000e+00 0.0000000000e+00 
          0.0000000000e+00 0.0000000000e+00 0.0000000000e+00 
          0.0000000000e+00 0.0000000000e+00 0.0000000000e+00 
          0.0000000000e+00 0.0000000000e+00 0.0000000000e+00 
          0.0000000000e+00 0.0000000000e+00 0.0000000000e+00 
          0.0000000000e+00 0.0000000000e+00 0.0000000000e+00 
          0.0000000000e+00 0.0000000000e+00 0.0000000000e+00 
          0.0000000000e+00 0.0000000000e+00 0.0000000000e+00 
          0.0000000000e+00 0.0000000000e+00 0.0000000000e+00 
          0.0000000000e+00 0.0000000000e+00 0.0000000000e+00 
          0.0000000000e+00 0.0000000000e+00 0.0000000000e+00 
          0.0000000000e+00 0.0000000000e+00 0.0000000000e+00 
          0.0000000000e+00 0.0000000000e+00 0.0000000000e+00 
          0.0000000000e+00 0.0000000000e+00 0.0000000000e+00 
          0.0000000000e+00 0.0000000000e+00 0.0000000000e+00 
          0.0000000000e+00 0.0000000000e+00 0.0000000000e+00 
          0.0000000000e+00 0.0000000000e+00 0.0000000000e+00 
          0.0000000000e+00 0.0000000000e+00 0.0000000000e+00 
          0.0000000000e+00 0.0000000000e+00 0.0000000000e+00 
          0.0000000000e+00 0.0000000000e+00 0.0000000000e+00 
          0.0000000000e+00 0.0000000000e+00 0.0000000000e+00 
          0.0000000000e+00 0.0000000000e+00 0.0000000000e+00 
          0.0000000000e+00 0.0000000000e+00 0.0000000000e+00 
          0.0000000000e+00 0.0000000000e+00 0.0000000000e+00 
          0.0000000000e+00 0.0000000000e+00 0.0000000000e+00 
          0.0000000000e+00 0.0000000000e+00 0.0000000000e+00 
          0.0000000000e+00 0.0000000000e+00 0.0000000000e+00 
          0.0000000000e+00 0.0000000000e+00 0.0000000000e+00 
          0.0000000000e+00 0.0000000000e+00 0.0000000000e+00 
          0.0000000000e+00 0.0000000000e+00 0.0000000000e+00 
          0.0000000000e+00 0.0000000000e+00 0.0000000000e+00 
          0.0000000000e+00 0.0000000000e+00 0.0000000000e+00 
          0.0000000000e+00 0.0000000000e+00 0.0000000000e+00 
          0.0000000000e+00 0.0000000000e+00 0.0000000000e+00 
          0.0000000000e+00 0.0000000000e+00 0.0000000000e+00 
          0.0000000000e+00 0.0000000000e+00 0.0000000000e+00 
          0.0000000000e+00 0.0000000000e+00 0.0000000000e+00 
          0.0000000000e+00 0.0000000000e+00 0.0000000000e+00 
        </DataArray>
      </PointData>
      <CellData>
        <DataArray type="Int64" Name="ElementTag" format="ascii">
          90
          91
          92
          93
          94
          95
          96
          97
          98
          99
          100
          101
          102
          103
          104
          105
          106
          107
          108
          109
          110
          111
          112
          113
          114
          115
          116
          117
          118
          119
          120
          121
          122
          123
          124
          125
          126
          127
          128
        </DataArray>
      </CellData>
    </Piece>
  </UnstructuredGrid>
</VTKFile>
