<?xml version="1.0"?>
<VTKFile type="UnstructuredGrid" version="1.0" byte_order="LittleEndian" compressor="vtkZLibDataCompressor">
  <UnstructuredGrid>
    <Piece NumberOfPoints="82" NumberOfCells="1">
      <Points>
        <DataArray type="Float64" Name="Points" NumberOfComponents="3" format="ascii">
          0.0000000000e+00 0.0000000000e+00 0.0000000000e+00 
          2.5000000000e-01 0.0000000000e+00 0.0000000000e+00 
          2.5000000000e-01 3.0000000000e+01 0.0000000000e+00 
          0.0000000000e+00 3.0000000000e+01 0.0000000000e+00 
          0.0000000000e+00 -5.0000000000e+00 0.0000000000e+00 
          2.5000000000e-01 -5.0000000000e+00 0.0000000000e+00 
          2.5000000000e-01 7.6923100000e-01 0.0000000000e+00 
          2.5000000000e-01 1.5384620000e+00 0.0000000000e+00 
          2.5000000000e-01 2.3076920000e+00 0.0000000000e+00 
          2.5000000000e-01 3.0769230000e+00 0.0000000000e+00 
          2.5000000000e-01 3.8461540000e+00 0.0000000000e+00 
          2.5000000000e-01 4.6153850000e+00 0.0000000000e+00 
          2.5000000000e-01 5.3846150000e+00 0.0000000000e+00 
          2.5000000000e-01 6.1538460000e+00 0.0000000000e+00 
          2.5000000000e-01 6.9230770000e+00 0.0000000000e+00 
          2.5000000000e-01 7.6923080000e+00 0.0000000000e+00 
          2.5000000000e-01 8.4615380000e+00 0.0000000000e+00 
          2.5000000000e-01 9.2307690000e+00 0.0000000000e+00 
          2.5000000000e-01 1.0000000000e+01 0.0000000000e+00 
          2.5000000000e-01 1.0769231000e+01 0.0000000000e+00 
          2.5000000000e-01 1.1538462000e+01 0.0000000000e+00 
          2.5000000000e-01 1.2307692000e+01 0.0000000000e+00 
          2.5000000000e-01 1.3076923000e+01 0.0000000000e+00 
          2.5000000000e-01 1.3846154000e+01 0.0000000000e+00 
          2.5000000000e-01 1.4615385000e+01 0.0000000000e+00 
          2.5000000000e-01 1.5384615000e+01 0.0000000000e+00 
          2.5000000000e-01 1.6153846000e+01 0.0000000000e+00 
          2.5000000000e-01 1.6923077000e+01 0.0000000000e+00 
          2.5000000000e-01 1.7692308000e+01 0.0000000000e+00 
          2.5000000000e-01 1.8461538000e+01 0.0000000000e+00 
          2.5000000000e-01 1.9230769000e+01 0.0000000000e+00 
          2.5000000000e-01 2.0000000000e+01 0.0000000000e+00 
          2.5000000000e-01 2.0769231000e+01 0.0000000000e+00 
          2.5000000000e-01 2.1538462000e+01 0.0000000000e+00 
          2.5000000000e-01 2.2307692000e+01 0.0000000000e+00 
          2.5000000000e-01 2.3076923000e+01 0.0000000000e+00 
          2.5000000000e-01 2.3846154000e+01 0.0000000000e+00 
          2.5000000000e-01 2.4615385000e+01 0.0000000000e+00 
          2.5000000000e-01 2.5384615000e+01 0.0000000000e+00 
          2.5000000000e-01 2.6153846000e+01 0.0000000000e+00 
          2.5000000000e-01 2.6923077000e+01 0.0000000000e+00 
          2.5000000000e-01 2.7692308000e+01 0.0000000000e+00 
          2.5000000000e-01 2.8461538000e+01 0.0000000000e+00 
          2.5000000000e-01 2.9230769000e+01 0.0000000000e+00 
          0.0000000000e+00 7.6923100000e-01 0.0000000000e+00 
          0.0000000000e+00 1.5384620000e+00 0.0000000000e+00 
          0.0000000000e+00 2.3076920000e+00 0.0000000000e+00 
          0.0000000000e+00 3.0769230000e+00 0.0000000000e+00 
          0.0000000000e+00 3.8461540000e+00 0.0000000000e+00 
          0.0000000000e+00 4.6153850000e+00 0.0000000000e+00 
          0.0000000000e+00 5.3846150000e+00 0.0000000000e+00 
          0.0000000000e+00 6.1538460000e+00 0.0000000000e+00 
          0.0000000000e+00 6.9230770000e+00 0.0000000000e+00 
          0.0000000000e+00 7.6923080000e+00 0.0000000000e+00 
          0.0000000000e+00 8.4615380000e+00 0.0000000000e+00 
          0.0000000000e+00 9.2307690000e+00 0.0000000000e+00 
          0.0000000000e+00 1.0000000000e+01 0.0000000000e+00 
          0.0000000000e+00 1.0769231000e+01 0.0000000000e+00 
          0.0000000000e+00 1.1538462000e+01 0.0000000000e+00 
          0.0000000000e+00 1.2307692000e+01 0.0000000000e+00 
          0.0000000000e+00 1.3076923000e+01 0.0000000000e+00 
          0.0000000000e+00 1.3846154000e+01 0.0000000000e+00 
          0.0000000000e+00 1.4615385000e+01 0.0000000000e+00 
          0.0000000000e+00 1.5384615000e+01 0.0000000000e+00 
          0.0000000000e+00 1.6153846000e+01 0.0000000000e+00 
          0.0000000000e+00 1.6923077000e+01 0.0000000000e+00 
          0.0000000000e+00 1.7692308000e+01 0.0000000000e+00 
          0.0000000000e+00 1.8461538000e+01 0.0000000000e+00 
          0.0000000000e+00 1.9230769000e+01 0.0000000000e+00 
          0.0000000000e+00 2.0000000000e+01 0.0000000000e+00 
          0.0000000000e+00 2.0769231000e+01 0.0000000000e+00 
          0.0000000000e+00 2.1538462000e+01 0.0000000000e+00 
          0.0000000000e+00 2.2307692000e+01 0.0000000000e+00 
          0.0000000000e+00 2.3076923000e+01 0.0000000000e+00 
          0.0000000000e+00 2.3846154000e+01 0.0000000000e+00 
          0.0000000000e+00 2.4615385000e+01 0.0000000000e+00 
          0.0000000000e+00 2.5384615000e+01 0.0000000000e+00 
          0.0000000000e+00 2.6153846000e+01 0.0000000000e+00 
          0.0000000000e+00 2.6923077000e+01 0.0000000000e+00 
          0.0000000000e+00 2.7692308000e+01 0.0000000000e+00 
          0.0000000000e+00 2.8461538000e+01 0.0000000000e+00 
          0.0000000000e+00 2.9230769000e+01 0.0000000000e+00 
        </DataArray>
      </Points>
      <Cells>
        <DataArray type="Int64" Name="connectivity" format="ascii">
          0
          1
          2
          3
          4
          5
          6
          7
          8
          9
          10
          11
          12
          13
          14
          15
          16
          17
          18
          19
          20
          21
          22
          23
          24
          25
          26
          27
          28
          29
          30
          31
          32
          33
          34
          35
          36
          37
          38
          39
          40
          41
          42
          43
          44
          45
          46
          47
          48
          49
          50
          51
          52
          53
          54
          55
          56
          57
          58
          59
          60
          61
          62
          63
          64
          65
          66
          67
          68
          69
          70
          71
          72
          73
          74
          75
          76
          77
          78
          79
          80
          81
        </DataArray>
        <DataArray type="Int64" Name="offsets" format="ascii">
          82
        </DataArray>
        <DataArray type="Int64" Name="types" format="ascii">
          2
        </DataArray>
      </Cells>
      <PointData>
        <DataArray type="Int64" Name="NodeTag" format="ascii">
          1
          2
          3
          4
          5
          6
          7
          8
          9
          10
          11
          12
          13
          14
          15
          16
          17
          18
          19
          20
          21
          22
          23
          24
          25
          26
          27
          28
          29
          30
          31
          32
          33
          34
          35
          36
          37
          38
          39
          40
          41
          42
          43
          44
          45
          46
          47
          48
          49
          50
          51
          52
          53
          54
          55
          56
          57
          58
          59
          60
          61
          62
          63
          64
          65
          66
          67
          68
          69
          70
          71
          72
          73
          74
          75
          76
          77
          78
          79
          80
          81
          82
        </DataArray>
        <DataArray type="Float64" Name="Velocity" NumberOfComponents="3" format="ascii">
          7.5504325674e-04 -7.7852051726e-05 0.0000000000e+00 
          7.5504325674e-04 -7.7852051726e-05 0.0000000000e+00 
          -2.7893572305e-03 -7.7893115720e-05 0.0000000000e+00 
          -2.7893572305e-03 -7.7893115720e-05 0.0000000000e+00 
          0.0000000000e+00 0.0000000000e+00 0.0000000000e+00 
          0.0000000000e+00 0.0000000000e+00 0.0000000000e+00 
          6.2171105174e-04 -7.7826170921e-05 0.0000000000e+00 
          4.8767474650e-04 -7.7899153962e-05 0.0000000000e+00 
          3.5317751950e-04 -7.7800332672e-05 0.0000000000e+00 
          2.1848794642e-04 -7.7941274812e-05 0.0000000000e+00 
          8.3861903845e-05 -7.7783083345e-05 0.0000000000e+00 
          -5.0444472107e-05 -7.7917125703e-05 0.0000000000e+00 
          -1.8418282467e-04 -7.7846578491e-05 0.0000000000e+00 
          -3.1707858206e-04 -7.7843404169e-05 0.0000000000e+00 
          -4.4888617943e-04 -7.7935696708e-05 0.0000000000e+00 
          -5.7935910198e-04 -7.7767504982e-05 0.0000000000e+00 
          -7.0822594210e-04 -7.7947935896e-05 0.0000000000e+00 
          -8.3525860239e-04 -7.7846998205e-05 0.0000000000e+00 
          -9.6019314748e-04 -7.7848362306e-05 0.0000000000e+00 
          -1.0827892196e-03 -7.7931659316e-05 0.0000000000e+00 
          -1.2028097716e-03 -7.7810019821e-05 0.0000000000e+00 
          -1.3200131718e-03 -7.7895989993e-05 0.0000000000e+00 
          -1.4341655785e-03 -7.7908458885e-05 0.0000000000e+00 
          -1.5450437963e-03 -7.7817797795e-05 0.0000000000e+00 
          -1.6524189346e-03 -7.7897138864e-05 0.0000000000e+00 
          -1.7560715365e-03 -7.7895697301e-05 0.0000000000e+00 
          -1.8558049517e-03 -7.7839625146e-05 0.0000000000e+00 
          -1.9514024113e-03 -7.7891421654e-05 0.0000000000e+00 
          -2.0426594204e-03 -7.7880493023e-05 0.0000000000e+00 
          -2.1294098122e-03 -7.7842392682e-05 0.0000000000e+00 
          -2.2114543534e-03 -7.7885959306e-05 0.0000000000e+00 
          -2.2886268415e-03 -7.7880035726e-05 0.0000000000e+00 
          -2.3607729960e-03 -7.7841969333e-05 0.0000000000e+00 
          -2.4277139015e-03 -7.7876215418e-05 0.0000000000e+00 
          -2.4893492356e-03 -7.7884585306e-05 0.0000000000e+00 
          -2.5455088926e-03 -7.7844461529e-05 0.0000000000e+00 
          -2.5960879704e-03 -7.7867112291e-05 0.0000000000e+00 
          -2.6409873588e-03 -7.7899522271e-05 0.0000000000e+00 
          -2.6800839552e-03 -7.7859879444e-05 0.0000000000e+00 
          -2.7133266744e-03 -7.7842935312e-05 0.0000000000e+00 
          -2.7406152862e-03 -7.7886421408e-05 0.0000000000e+00 
          -2.7619026859e-03 -7.7886775021e-05 0.0000000000e+00 
          -2.7771435986e-03 -7.7848963540e-05 0.0000000000e+00 
          -2.7862982310e-03 -7.7864684851e-05 0.0000000000e+00 
          6.2171105174e-04 -7.7826170921e-05 0.0000000000e+00 
          4.8767474650e-04 -7.7899153962e-05 0.0000000000e+00 
          3.5317751950e-04 -7.7800332672e-05 0.0000000000e+00 
          2.1848794642e-04 -7.7941274812e-05 0.0000000000e+00 
          8.3861903845e-05 -7.7783083345e-05 0.0000000000e+00 
          -5.0444472107e-05 -7.7917125703e-05 0.0000000000e+00 
          -1.8418282467e-04 -7.7846578491e-05 0.0000000000e+00 
          -3.1707858206e-04 -7.7843404169e-05 0.0000000000e+00 
          -4.4888617943e-04 -7.7935696708e-05 0.0000000000e+00 
          -5.7935910198e-04 -7.7767504982e-05 0.0000000000e+00 
          -7.0822594210e-04 -7.7947935896e-05 0.0000000000e+00 
          -8.3525860239e-04 -7.7846998205e-05 0.0000000000e+00 
          -9.6019314748e-04 -7.7848362306e-05 0.0000000000e+00 
          -1.0827892196e-03 -7.7931659316e-05 0.0000000000e+00 
          -1.2028097716e-03 -7.7810019821e-05 0.0000000000e+00 
          -1.3200131718e-03 -7.7895989993e-05 0.0000000000e+00 
          -1.4341655785e-03 -7.7908458885e-05 0.0000000000e+00 
          -1.5450437963e-03 -7.7817797795e-05 0.0000000000e+00 
          -1.6524189346e-03 -7.7897138864e-05 0.0000000000e+00 
          -1.7560715365e-03 -7.7895697301e-05 0.0000000000e+00 
          -1.8558049517e-03 -7.7839625146e-05 0.0000000000e+00 
          -1.9514024113e-03 -7.7891421654e-05 0.0000000000e+00 
          -2.0426594204e-03 -7.7880493023e-05 0.0000000000e+00 
          -2.1294098122e-03 -7.7842392682e-05 0.0000000000e+00 
          -2.2114543534e-03 -7.7885959306e-05 0.0000000000e+00 
          -2.2886268415e-03 -7.7880035726e-05 0.0000000000e+00 
          -2.3607729960e-03 -7.7841969333e-05 0.0000000000e+00 
          -2.4277139015e-03 -7.7876215418e-05 0.0000000000e+00 
          -2.4893492356e-03 -7.7884585306e-05 0.0000000000e+00 
          -2.5455088926e-03 -7.7844461529e-05 0.0000000000e+00 
          -2.5960879704e-03 -7.7867112291e-05 0.0000000000e+00 
          -2.6409873588e-03 -7.7899522271e-05 0.0000000000e+00 
          -2.6800839552e-03 -7.7859879444e-05 0.0000000000e+00 
          -2.7133266744e-03 -7.7842935312e-05 0.0000000000e+00 
          -2.7406152862e-03 -7.7886421408e-05 0.0000000000e+00 
          -2.7619026859e-03 -7.7886775021e-05 0.0000000000e+00 
          -2.7771435986e-03 -7.7848963540e-05 0.0000000000e+00 
          -2.7862982310e-03 -7.7864684851e-05 0.0000000000e+00 
        </DataArray>
        <DataArray type="Float64" Name="Displacement" NumberOfComponents="3" format="ascii">
          3.8313490003e-05 -4.1230818715e-04 0.0000000000e+00 
          3.8313490003e-05 -4.1230818715e-04 0.0000000000e+00 
          3.2936466338e-04 -4.3589166278e-04 0.0000000000e+00 
          3.2936466338e-04 -4.3589166278e-04 0.0000000000e+00 
          0.0000000000e+00 0.0000000000e+00 0.0000000000e+00 
          0.0000000000e+00 0.0000000000e+00 0.0000000000e+00 
          5.0807869033e-05 -4.1350204381e-04 0.0000000000e+00 
          6.3197502947e-05 -4.1466492853e-04 0.0000000000e+00 
          7.5466616561e-05 -4.1579678147e-04 0.0000000000e+00 
          8.7599639809e-05 -4.1689760244e-04 0.0000000000e+00 
          9.9581251253e-05 -4.1796752456e-04 0.0000000000e+00 
          1.1139632759e-04 -4.1900621917e-04 0.0000000000e+00 
          1.2303001453e-04 -4.2001427988e-04 0.0000000000e+00 
          1.3446776789e-04 -4.2099087250e-04 0.0000000000e+00 
          1.4569526694e-04 -4.2193688951e-04 0.0000000000e+00 
          1.5669858440e-04 -4.2285159747e-04 0.0000000000e+00 
          1.6746398554e-04 -4.2373537283e-04 0.0000000000e+00 
          1.7797822119e-04 -4.2458831995e-04 0.0000000000e+00 
          1.8822827146e-04 -4.2540991621e-04 0.0000000000e+00 
          1.9820151429e-04 -4.2620082137e-04 0.0000000000e+00 
          2.0788575338e-04 -4.2696058583e-04 0.0000000000e+00 
          2.1726906271e-04 -4.2768922616e-04 0.0000000000e+00 
          2.2634006396e-04 -4.2838710459e-04 0.0000000000e+00 
          2.3508768654e-04 -4.2905379597e-04 0.0000000000e+00 
          2.4350127720e-04 -4.2968948391e-04 0.0000000000e+00 
          2.5157069658e-04 -4.3029429407e-04 0.0000000000e+00 
          2.5928616503e-04 -4.3086792386e-04 0.0000000000e+00 
          2.6663839394e-04 -4.3141059561e-04 0.0000000000e+00 
          2.7361856191e-04 -4.3192237946e-04 0.0000000000e+00 
          2.8021824925e-04 -4.3240299918e-04 0.0000000000e+00 
          2.8642961851e-04 -4.3285260677e-04 0.0000000000e+00 
          2.9224521376e-04 -4.3327132612e-04 0.0000000000e+00 
          2.9765810243e-04 -4.3365895316e-04 0.0000000000e+00 
          3.0266187745e-04 -4.3401552179e-04 0.0000000000e+00 
          3.0725055110e-04 -4.3434116616e-04 0.0000000000e+00 
          3.1141871934e-04 -4.3463578462e-04 0.0000000000e+00 
          3.1516145195e-04 -4.3489934219e-04 0.0000000000e+00 
          3.1847428534e-04 -4.3513192890e-04 0.0000000000e+00 
          3.2135336714e-04 -4.3533351048e-04 0.0000000000e+00 
          3.2379525927e-04 -4.3550404348e-04 0.0000000000e+00 
          3.2579709113e-04 -4.3564357936e-04 0.0000000000e+00 
          3.2735653585e-04 -4.3575211924e-04 0.0000000000e+00 
          3.2847172304e-04 -4.3582963395e-04 0.0000000000e+00 
          3.2914136155e-04 -4.3587614931e-04 0.0000000000e+00 
          5.0807869033e-05 -4.1350204381e-04 0.0000000000e+00 
          6.3197502947e-05 -4.1466492853e-04 0.0000000000e+00 
          7.5466616561e-05 -4.1579678147e-04 0.0000000000e+00 
          8.7599639809e-05 -4.1689760244e-04 0.0000000000e+00 
          9.9581251253e-05 -4.1796752456e-04 0.0000000000e+00 
          1.1139632759e-04 -4.1900621917e-04 0.0000000000e+00 
          1.2303001453e-04 -4.2001427988e-04 0.0000000000e+00 
          1.3446776789e-04 -4.2099087250e-04 0.0000000000e+00 
          1.4569526694e-04 -4.2193688951e-04 0.0000000000e+00 
          1.5669858440e-04 -4.2285159747e-04 0.0000000000e+00 
          1.6746398554e-04 -4.2373537283e-04 0.0000000000e+00 
          1.7797822119e-04 -4.2458831995e-04 0.0000000000e+00 
          1.8822827146e-04 -4.2540991621e-04 0.0000000000e+00 
          1.9820151429e-04 -4.2620082137e-04 0.0000000000e+00 
          2.0788575338e-04 -4.2696058583e-04 0.0000000000e+00 
          2.1726906271e-04 -4.2768922616e-04 0.0000000000e+00 
          2.2634006396e-04 -4.2838710459e-04 0.0000000000e+00 
          2.3508768654e-04 -4.2905379597e-04 0.0000000000e+00 
          2.4350127720e-04 -4.2968948391e-04 0.0000000000e+00 
          2.5157069658e-04 -4.3029429407e-04 0.0000000000e+00 
          2.5928616503e-04 -4.3086792386e-04 0.0000000000e+00 
          2.6663839394e-04 -4.3141059561e-04 0.0000000000e+00 
          2.7361856191e-04 -4.3192237946e-04 0.0000000000e+00 
          2.8021824925e-04 -4.3240299918e-04 0.0000000000e+00 
          2.8642961851e-04 -4.3285260677e-04 0.0000000000e+00 
          2.9224521376e-04 -4.3327132612e-04 0.0000000000e+00 
          2.9765810243e-04 -4.3365895316e-04 0.0000000000e+00 
          3.0266187745e-04 -4.3401552179e-04 0.0000000000e+00 
          3.0725055110e-04 -4.3434116616e-04 0.0000000000e+00 
          3.1141871934e-04 -4.3463578462e-04 0.0000000000e+00 
          3.1516145195e-04 -4.3489934219e-04 0.0000000000e+00 
          3.1847428534e-04 -4.3513192890e-04 0.0000000000e+00 
          3.2135336714e-04 -4.3533351048e-04 0.0000000000e+00 
          3.2379525927e-04 -4.3550404348e-04 0.0000000000e+00 
          3.2579709113e-04 -4.3564357936e-04 0.0000000000e+00 
          3.2735653585e-04 -4.3575211924e-04 0.0000000000e+00 
          3.2847172304e-04 -4.3582963395e-04 0.0000000000e+00 
          3.2914136155e-04 -4.3587614931e-04 0.0000000000e+00 
        </DataArray>
        <DataArray type="Float64" Name="Acceleration" NumberOfComponents="3" format="ascii">
          -7.9997294812e-03 1.7203067871e-06 0.0000000000e+00 
          -7.9997294812e-03 1.7203067871e-06 0.0000000000e+00 
          -4.0239872293e-02 3.7131735520e-06 0.0000000000e+00 
          -4.0239872293e-02 3.7131735520e-06 0.0000000000e+00 
          0.0000000000e+00 0.0000000000e+00 0.0000000000e+00 
          0.0000000000e+00 0.0000000000e+00 0.0000000000e+00 
          -9.4377417463e-03 -6.2000414711e-06 0.0000000000e+00 
          -1.0857686929e-02 4.3222185995e-06 0.0000000000e+00 
          -1.2263455940e-02 4.8899690187e-06 0.0000000000e+00 
          -1.3642502474e-02 -1.9370262227e-05 0.0000000000e+00 
          -1.5005141843e-02 3.9855722658e-05 0.0000000000e+00 
          -1.6342191364e-02 -6.7345807105e-05 0.0000000000e+00 
          -1.7655375734e-02 8.3449380105e-05 0.0000000000e+00 
          -1.8944329448e-02 -7.7620116373e-05 0.0000000000e+00 
          -2.0199204042e-02 5.4550664901e-05 0.0000000000e+00 
          -2.1435482845e-02 -1.3489940368e-05 0.0000000000e+00 
          -2.2631782170e-02 -3.1884238730e-05 0.0000000000e+00 
          -2.3803624581e-02 6.2084956646e-05 0.0000000000e+00 
          -2.4940896902e-02 -5.6808146326e-05 0.0000000000e+00 
          -2.6039808031e-02 2.4213560835e-05 0.0000000000e+00 
          -2.7113284237e-02 2.1060478165e-05 0.0000000000e+00 
          -2.8140691726e-02 -4.3875441968e-05 0.0000000000e+00 
          -2.9137057383e-02 3.2564769354e-05 0.0000000000e+00 
          -3.0096934528e-02 -5.2050068300e-07 0.0000000000e+00 
          -3.1009588416e-02 -2.3304456713e-05 0.0000000000e+00 
          -3.1892642951e-02 3.1505640336e-05 0.0000000000e+00 
          -3.2728600046e-02 -8.7022108460e-06 0.0000000000e+00 
          -3.3523425148e-02 -2.1344513565e-05 0.0000000000e+00 
          -3.4281305182e-02 2.8326778180e-05 0.0000000000e+00 
          -3.4989022074e-02 1.1613341502e-06 0.0000000000e+00 
          -3.5660020071e-02 -2.1283601792e-05 0.0000000000e+00 
          -3.6284658011e-02 1.5494458771e-05 0.0000000000e+00 
          -3.6861948049e-02 9.3830460229e-06 0.0000000000e+00 
          -3.7400940006e-02 -1.4863231718e-05 0.0000000000e+00 
          -3.7888929301e-02 3.6073736489e-06 0.0000000000e+00 
          -3.8332591118e-02 9.8309649462e-06 0.0000000000e+00 
          -3.8734768052e-02 -6.3942652466e-06 0.0000000000e+00 
          -3.9081563754e-02 -2.6085630089e-07 0.0000000000e+00 
          -3.9392014827e-02 7.6629748604e-06 0.0000000000e+00 
          -3.9650299607e-02 -1.6600922487e-06 0.0000000000e+00 
          -3.9859955469e-02 -1.8632759364e-06 0.0000000000e+00 
          -4.0028375051e-02 3.3809127546e-06 0.0000000000e+00 
          -4.0144973769e-02 -1.2394005737e-06 0.0000000000e+00 
          -4.0215815626e-02 -8.0084412130e-07 0.0000000000e+00 
          -9.4377417463e-03 -6.2000414711e-06 0.0000000000e+00 
          -1.0857686929e-02 4.3222185995e-06 0.0000000000e+00 
          -1.2263455940e-02 4.8899690187e-06 0.0000000000e+00 
          -1.3642502474e-02 -1.9370262227e-05 0.0000000000e+00 
          -1.5005141843e-02 3.9855722658e-05 0.0000000000e+00 
          -1.6342191364e-02 -6.7345807105e-05 0.0000000000e+00 
          -1.7655375734e-02 8.3449380105e-05 0.0000000000e+00 
          -1.8944329448e-02 -7.7620116373e-05 0.0000000000e+00 
          -2.0199204042e-02 5.4550664901e-05 0.0000000000e+00 
          -2.1435482845e-02 -1.3489940368e-05 0.0000000000e+00 
          -2.2631782170e-02 -3.1884238730e-05 0.0000000000e+00 
          -2.3803624581e-02 6.2084956646e-05 0.0000000000e+00 
          -2.4940896902e-02 -5.6808146326e-05 0.0000000000e+00 
          -2.6039808031e-02 2.4213560835e-05 0.0000000000e+00 
          -2.7113284237e-02 2.1060478165e-05 0.0000000000e+00 
          -2.8140691726e-02 -4.3875441968e-05 0.0000000000e+00 
          -2.9137057383e-02 3.2564769354e-05 0.0000000000e+00 
          -3.0096934528e-02 -5.2050068300e-07 0.0000000000e+00 
          -3.1009588416e-02 -2.3304456713e-05 0.0000000000e+00 
          -3.1892642951e-02 3.1505640336e-05 0.0000000000e+00 
          -3.2728600046e-02 -8.7022108460e-06 0.0000000000e+00 
          -3.3523425148e-02 -2.1344513565e-05 0.0000000000e+00 
          -3.4281305182e-02 2.8326778180e-05 0.0000000000e+00 
          -3.4989022074e-02 1.1613341502e-06 0.0000000000e+00 
          -3.5660020071e-02 -2.1283601792e-05 0.0000000000e+00 
          -3.6284658011e-02 1.5494458771e-05 0.0000000000e+00 
          -3.6861948049e-02 9.3830460229e-06 0.0000000000e+00 
          -3.7400940006e-02 -1.4863231718e-05 0.0000000000e+00 
          -3.7888929301e-02 3.6073736489e-06 0.0000000000e+00 
          -3.8332591118e-02 9.8309649462e-06 0.0000000000e+00 
          -3.8734768052e-02 -6.3942652466e-06 0.0000000000e+00 
          -3.9081563754e-02 -2.6085630089e-07 0.0000000000e+00 
          -3.9392014827e-02 7.6629748604e-06 0.0000000000e+00 
          -3.9650299607e-02 -1.6600922487e-06 0.0000000000e+00 
          -3.9859955469e-02 -1.8632759364e-06 0.0000000000e+00 
          -4.0028375051e-02 3.3809127546e-06 0.0000000000e+00 
          -4.0144973769e-02 -1.2394005737e-06 0.0000000000e+00 
          -4.0215815626e-02 -8.0084412130e-07 0.0000000000e+00 
        </DataArray>
        <DataArray type="Float64" Name="Reaction" NumberOfComponents="3" format="ascii">
          0.0000000000e+00 0.0000000000e+00 0.0000000000e+00 
          0.0000000000e+00 0.0000000000e+00 0.0000000000e+00 
          0.0000000000e+00 0.0000000000e+00 0.0000000000e+00 
          0.0000000000e+00 0.0000000000e+00 0.0000000000e+00 
          0.0000000000e+00 0.0000000000e+00 0.0000000000e+00 
          0.0000000000e+00 0.0000000000e+00 0.0000000000e+00 
          0.0000000000e+00 0.0000000000e+00 0.0000000000e+00 
          0.0000000000e+00 0.0000000000e+00 0.0000000000e+00 
          0.0000000000e+00 0.0000000000e+00 0.0000000000e+00 
          0.0000000000e+00 0.0000000000e+00 0.0000000000e+00 
          0.0000000000e+00 0.0000000000e+00 0.0000000000e+00 
          0.0000000000e+00 0.0000000000e+00 0.0000000000e+00 
          0.0000000000e+00 0.0000000000e+00 0.0000000000e+00 
          0.0000000000e+00 0.0000000000e+00 0.0000000000e+00 
          0.0000000000e+00 0.0000000000e+00 0.0000000000e+00 
          0.0000000000e+00 0.0000000000e+00 0.0000000000e+00 
          0.0000000000e+00 0.0000000000e+00 0.0000000000e+00 
          0.0000000000e+00 0.0000000000e+00 0.0000000000e+00 
          0.0000000000e+00 0.0000000000e+00 0.0000000000e+00 
          0.0000000000e+00 0.0000000000e+00 0.0000000000e+00 
          0.0000000000e+00 0.0000000000e+00 0.0000000000e+00 
          0.0000000000e+00 0.0000000000e+00 0.0000000000e+00 
          0.0000000000e+00 0.0000000000e+00 0.0000000000e+00 
          0.0000000000e+00 0.0000000000e+00 0.0000000000e+00 
          0.0000000000e+00 0.0000000000e+00 0.0000000000e+00 
          0.0000000000e+00 0.0000000000e+00 0.0000000000e+00 
          0.0000000000e+00 0.0000000000e+00 0.0000000000e+00 
          0.0000000000e+00 0.0000000000e+00 0.0000000000e+00 
          0.0000000000e+00 0.0000000000e+00 0.0000000000e+00 
          0.0000000000e+00 0.0000000000e+00 0.0000000000e+00 
          0.0000000000e+00 0.0000000000e+00 0.0000000000e+00 
          0.0000000000e+00 0.0000000000e+00 0.0000000000e+00 
          0.0000000000e+00 0.0000000000e+00 0.0000000000e+00 
          0.0000000000e+00 0.0000000000e+00 0.0000000000e+00 
          0.0000000000e+00 0.0000000000e+00 0.0000000000e+00 
          0.0000000000e+00 0.0000000000e+00 0.0000000000e+00 
          0.0000000000e+00 0.0000000000e+00 0.0000000000e+00 
          0.0000000000e+00 0.0000000000e+00 0.0000000000e+00 
          0.0000000000e+00 0.0000000000e+00 0.0000000000e+00 
          0.0000000000e+00 0.0000000000e+00 0.0000000000e+00 
          0.0000000000e+00 0.0000000000e+00 0.0000000000e+00 
          0.0000000000e+00 0.0000000000e+00 0.0000000000e+00 
          0.0000000000e+00 0.0000000000e+00 0.0000000000e+00 
          0.0000000000e+00 0.0000000000e+00 0.0000000000e+00 
          0.0000000000e+00 0.0000000000e+00 0.0000000000e+00 
          0.0000000000e+00 0.0000000000e+00 0.0000000000e+00 
          0.0000000000e+00 0.0000000000e+00 0.0000000000e+00 
          0.0000000000e+00 0.0000000000e+00 0.0000000000e+00 
          0.0000000000e+00 0.0000000000e+00 0.0000000000e+00 
          0.0000000000e+00 0.0000000000e+00 0.0000000000e+00 
          0.0000000000e+00 0.0000000000e+00 0.0000000000e+00 
          0.0000000000e+00 0.0000000000e+00 0.0000000000e+00 
          0.0000000000e+00 0.0000000000e+00 0.0000000000e+00 
          0.0000000000e+00 0.0000000000e+00 0.0000000000e+00 
          0.0000000000e+00 0.0000000000e+00 0.0000000000e+00 
          0.0000000000e+00 0.0000000000e+00 0.0000000000e+00 
          0.0000000000e+00 0.0000000000e+00 0.0000000000e+00 
          0.0000000000e+00 0.0000000000e+00 0.0000000000e+00 
          0.0000000000e+00 0.0000000000e+00 0.0000000000e+00 
          0.0000000000e+00 0.0000000000e+00 0.0000000000e+00 
          0.0000000000e+00 0.0000000000e+00 0.0000000000e+00 
          0.0000000000e+00 0.0000000000e+00 0.0000000000e+00 
          0.0000000000e+00 0.0000000000e+00 0.0000000000e+00 
          0.0000000000e+00 0.0000000000e+00 0.0000000000e+00 
          0.0000000000e+00 0.0000000000e+00 0.0000000000e+00 
          0.0000000000e+00 0.0000000000e+00 0.0000000000e+00 
          0.0000000000e+00 0.0000000000e+00 0.0000000000e+00 
          0.0000000000e+00 0.0000000000e+00 0.0000000000e+00 
          0.0000000000e+00 0.0000000000e+00 0.0000000000e+00 
          0.0000000000e+00 0.0000000000e+00 0.0000000000e+00 
          0.0000000000e+00 0.0000000000e+00 0.0000000000e+00 
          0.0000000000e+00 0.0000000000e+00 0.0000000000e+00 
          0.0000000000e+00 0.0000000000e+00 0.0000000000e+00 
          0.0000000000e+00 0.0000000000e+00 0.0000000000e+00 
          0.0000000000e+00 0.0000000000e+00 0.0000000000e+00 
          0.0000000000e+00 0.0000000000e+00 0.0000000000e+00 
          0.0000000000e+00 0.0000000000e+00 0.0000000000e+00 
          0.0000000000e+00 0.0000000000e+00 0.0000000000e+00 
          0.0000000000e+00 0.0000000000e+00 0.0000000000e+00 
          0.0000000000e+00 0.0000000000e+00 0.0000000000e+00 
          0.0000000000e+00 0.0000000000e+00 0.0000000000e+00 
          0.0000000000e+00 0.0000000000e+00 0.0000000000e+00 
        </DataArray>
      </PointData>
      <CellData>
        <DataArray type="Int64" Name="ElementTag" format="ascii">
          0
        </DataArray>
      </CellData>
    </Piece>
  </UnstructuredGrid>
</VTKFile>
