<?xml version="1.0"?>
<VTKFile type="UnstructuredGrid" version="1.0" byte_order="LittleEndian" compressor="vtkZLibDataCompressor">
  <UnstructuredGrid>
    <Piece NumberOfPoints="82" NumberOfCells="1">
      <Points>
        <DataArray type="Float64" Name="Points" NumberOfComponents="3" format="ascii">
          0.0000000000e+00 0.0000000000e+00 0.0000000000e+00 
          2.5000000000e-01 0.0000000000e+00 0.0000000000e+00 
          2.5000000000e-01 3.0000000000e+01 0.0000000000e+00 
          0.0000000000e+00 3.0000000000e+01 0.0000000000e+00 
          0.0000000000e+00 -5.0000000000e+00 0.0000000000e+00 
          2.5000000000e-01 -5.0000000000e+00 0.0000000000e+00 
          2.5000000000e-01 7.6923100000e-01 0.0000000000e+00 
          2.5000000000e-01 1.5384620000e+00 0.0000000000e+00 
          2.5000000000e-01 2.3076920000e+00 0.0000000000e+00 
          2.5000000000e-01 3.0769230000e+00 0.0000000000e+00 
          2.5000000000e-01 3.8461540000e+00 0.0000000000e+00 
          2.5000000000e-01 4.6153850000e+00 0.0000000000e+00 
          2.5000000000e-01 5.3846150000e+00 0.0000000000e+00 
          2.5000000000e-01 6.1538460000e+00 0.0000000000e+00 
          2.5000000000e-01 6.9230770000e+00 0.0000000000e+00 
          2.5000000000e-01 7.6923080000e+00 0.0000000000e+00 
          2.5000000000e-01 8.4615380000e+00 0.0000000000e+00 
          2.5000000000e-01 9.2307690000e+00 0.0000000000e+00 
          2.5000000000e-01 1.0000000000e+01 0.0000000000e+00 
          2.5000000000e-01 1.0769231000e+01 0.0000000000e+00 
          2.5000000000e-01 1.1538462000e+01 0.0000000000e+00 
          2.5000000000e-01 1.2307692000e+01 0.0000000000e+00 
          2.5000000000e-01 1.3076923000e+01 0.0000000000e+00 
          2.5000000000e-01 1.3846154000e+01 0.0000000000e+00 
          2.5000000000e-01 1.4615385000e+01 0.0000000000e+00 
          2.5000000000e-01 1.5384615000e+01 0.0000000000e+00 
          2.5000000000e-01 1.6153846000e+01 0.0000000000e+00 
          2.5000000000e-01 1.6923077000e+01 0.0000000000e+00 
          2.5000000000e-01 1.7692308000e+01 0.0000000000e+00 
          2.5000000000e-01 1.8461538000e+01 0.0000000000e+00 
          2.5000000000e-01 1.9230769000e+01 0.0000000000e+00 
          2.5000000000e-01 2.0000000000e+01 0.0000000000e+00 
          2.5000000000e-01 2.0769231000e+01 0.0000000000e+00 
          2.5000000000e-01 2.1538462000e+01 0.0000000000e+00 
          2.5000000000e-01 2.2307692000e+01 0.0000000000e+00 
          2.5000000000e-01 2.3076923000e+01 0.0000000000e+00 
          2.5000000000e-01 2.3846154000e+01 0.0000000000e+00 
          2.5000000000e-01 2.4615385000e+01 0.0000000000e+00 
          2.5000000000e-01 2.5384615000e+01 0.0000000000e+00 
          2.5000000000e-01 2.6153846000e+01 0.0000000000e+00 
          2.5000000000e-01 2.6923077000e+01 0.0000000000e+00 
          2.5000000000e-01 2.7692308000e+01 0.0000000000e+00 
          2.5000000000e-01 2.8461538000e+01 0.0000000000e+00 
          2.5000000000e-01 2.9230769000e+01 0.0000000000e+00 
          0.0000000000e+00 7.6923100000e-01 0.0000000000e+00 
          0.0000000000e+00 1.5384620000e+00 0.0000000000e+00 
          0.0000000000e+00 2.3076920000e+00 0.0000000000e+00 
          0.0000000000e+00 3.0769230000e+00 0.0000000000e+00 
          0.0000000000e+00 3.8461540000e+00 0.0000000000e+00 
          0.0000000000e+00 4.6153850000e+00 0.0000000000e+00 
          0.0000000000e+00 5.3846150000e+00 0.0000000000e+00 
          0.0000000000e+00 6.1538460000e+00 0.0000000000e+00 
          0.0000000000e+00 6.9230770000e+00 0.0000000000e+00 
          0.0000000000e+00 7.6923080000e+00 0.0000000000e+00 
          0.0000000000e+00 8.4615380000e+00 0.0000000000e+00 
          0.0000000000e+00 9.2307690000e+00 0.0000000000e+00 
          0.0000000000e+00 1.0000000000e+01 0.0000000000e+00 
          0.0000000000e+00 1.0769231000e+01 0.0000000000e+00 
          0.0000000000e+00 1.1538462000e+01 0.0000000000e+00 
          0.0000000000e+00 1.2307692000e+01 0.0000000000e+00 
          0.0000000000e+00 1.3076923000e+01 0.0000000000e+00 
          0.0000000000e+00 1.3846154000e+01 0.0000000000e+00 
          0.0000000000e+00 1.4615385000e+01 0.0000000000e+00 
          0.0000000000e+00 1.5384615000e+01 0.0000000000e+00 
          0.0000000000e+00 1.6153846000e+01 0.0000000000e+00 
          0.0000000000e+00 1.6923077000e+01 0.0000000000e+00 
          0.0000000000e+00 1.7692308000e+01 0.0000000000e+00 
          0.0000000000e+00 1.8461538000e+01 0.0000000000e+00 
          0.0000000000e+00 1.9230769000e+01 0.0000000000e+00 
          0.0000000000e+00 2.0000000000e+01 0.0000000000e+00 
          0.0000000000e+00 2.0769231000e+01 0.0000000000e+00 
          0.0000000000e+00 2.1538462000e+01 0.0000000000e+00 
          0.0000000000e+00 2.2307692000e+01 0.0000000000e+00 
          0.0000000000e+00 2.3076923000e+01 0.0000000000e+00 
          0.0000000000e+00 2.3846154000e+01 0.0000000000e+00 
          0.0000000000e+00 2.4615385000e+01 0.0000000000e+00 
          0.0000000000e+00 2.5384615000e+01 0.0000000000e+00 
          0.0000000000e+00 2.6153846000e+01 0.0000000000e+00 
          0.0000000000e+00 2.6923077000e+01 0.0000000000e+00 
          0.0000000000e+00 2.7692308000e+01 0.0000000000e+00 
          0.0000000000e+00 2.8461538000e+01 0.0000000000e+00 
          0.0000000000e+00 2.9230769000e+01 0.0000000000e+00 
        </DataArray>
      </Points>
      <Cells>
        <DataArray type="Int64" Name="connectivity" format="ascii">
          0
          1
          2
          3
          4
          5
          6
          7
          8
          9
          10
          11
          12
          13
          14
          15
          16
          17
          18
          19
          20
          21
          22
          23
          24
          25
          26
          27
          28
          29
          30
          31
          32
          33
          34
          35
          36
          37
          38
          39
          40
          41
          42
          43
          44
          45
          46
          47
          48
          49
          50
          51
          52
          53
          54
          55
          56
          57
          58
          59
          60
          61
          62
          63
          64
          65
          66
          67
          68
          69
          70
          71
          72
          73
          74
          75
          76
          77
          78
          79
          80
          81
        </DataArray>
        <DataArray type="Int64" Name="offsets" format="ascii">
          82
        </DataArray>
        <DataArray type="Int64" Name="types" format="ascii">
          2
        </DataArray>
      </Cells>
      <PointData>
        <DataArray type="Int64" Name="NodeTag" format="ascii">
          1
          2
          3
          4
          5
          6
          7
          8
          9
          10
          11
          12
          13
          14
          15
          16
          17
          18
          19
          20
          21
          22
          23
          24
          25
          26
          27
          28
          29
          30
          31
          32
          33
          34
          35
          36
          37
          38
          39
          40
          41
          42
          43
          44
          45
          46
          47
          48
          49
          50
          51
          52
          53
          54
          55
          56
          57
          58
          59
          60
          61
          62
          63
          64
          65
          66
          67
          68
          69
          70
          71
          72
          73
          74
          75
          76
          77
          78
          79
          80
          81
          82
        </DataArray>
        <DataArray type="Float64" Name="Velocity" NumberOfComponents="3" format="ascii">
          2.4792268742e-03 -7.7866042989e-05 0.0000000000e+00 
          2.4792268742e-03 -7.7866042989e-05 0.0000000000e+00 
          -1.8924551494e-02 -7.7500437264e-05 0.0000000000e+00 
          -1.8924551494e-02 -7.7500437264e-05 0.0000000000e+00 
          0.0000000000e+00 0.0000000000e+00 0.0000000000e+00 
          0.0000000000e+00 0.0000000000e+00 0.0000000000e+00 
          1.6392222257e-03 -7.7825259911e-05 0.0000000000e+00 
          7.9827348652e-04 -7.7901954520e-05 0.0000000000e+00 
          -4.2165148690e-05 -7.7766425947e-05 0.0000000000e+00 
          -8.8056543553e-04 -7.7867912874e-05 0.0000000000e+00 
          -1.7155011871e-03 -7.7853764818e-05 0.0000000000e+00 
          -2.5454890480e-03 -7.7753191267e-05 0.0000000000e+00 
          -3.3690624721e-03 -7.7818322585e-05 0.0000000000e+00 
          -4.1847886312e-03 -7.7799649761e-05 0.0000000000e+00 
          -4.9912131356e-03 -7.7762132474e-05 0.0000000000e+00 
          -5.7869430166e-03 -7.7805298630e-05 0.0000000000e+00 
          -6.5705649540e-03 -7.7721977560e-05 0.0000000000e+00 
          -7.3406898985e-03 -7.7752506530e-05 0.0000000000e+00 
          -8.0959837406e-03 -7.7739580449e-05 0.0000000000e+00 
          -8.8350927406e-03 -7.7689728441e-05 0.0000000000e+00 
          -9.5567202806e-03 -7.7725937441e-05 0.0000000000e+00 
          -1.0259598931e-02 -7.7723305460e-05 0.0000000000e+00 
          -1.0942471353e-02 -7.7657905170e-05 0.0000000000e+00 
          -1.1604131822e-02 -7.7694314128e-05 0.0000000000e+00 
          -1.2243410830e-02 -7.7690524742e-05 0.0000000000e+00 
          -1.2859172606e-02 -7.7611996184e-05 0.0000000000e+00 
          -1.3450317974e-02 -7.7674738529e-05 0.0000000000e+00 
          -1.4015803246e-02 -7.7614700707e-05 0.0000000000e+00 
          -1.4554605631e-02 -7.7583490266e-05 0.0000000000e+00 
          -1.5065777962e-02 -7.7619366584e-05 0.0000000000e+00 
          -1.5548404325e-02 -7.7626756514e-05 0.0000000000e+00 
          -1.6001611581e-02 -7.7564906053e-05 0.0000000000e+00 
          -1.6424606617e-02 -7.7551078555e-05 0.0000000000e+00 
          -1.6816613122e-02 -7.7656933038e-05 0.0000000000e+00 
          -1.7176936158e-02 -7.7467904307e-05 0.0000000000e+00 
          -1.7504935911e-02 -7.7640629704e-05 0.0000000000e+00 
          -1.7800000460e-02 -7.7553711578e-05 0.0000000000e+00 
          -1.8061626607e-02 -7.7508199964e-05 0.0000000000e+00 
          -1.8289332036e-02 -7.7672449133e-05 0.0000000000e+00 
          -1.8482692826e-02 -7.7490264943e-05 0.0000000000e+00 
          -1.8641387819e-02 -7.7583838756e-05 0.0000000000e+00 
          -1.8765101334e-02 -7.7536278288e-05 0.0000000000e+00 
          -1.8853641927e-02 -7.7570786145e-05 0.0000000000e+00 
          -1.8906828449e-02 -7.7559330597e-05 0.0000000000e+00 
          1.6392222257e-03 -7.7825259911e-05 0.0000000000e+00 
          7.9827348652e-04 -7.7901954520e-05 0.0000000000e+00 
          -4.2165148690e-05 -7.7766425947e-05 0.0000000000e+00 
          -8.8056543553e-04 -7.7867912874e-05 0.0000000000e+00 
          -1.7155011871e-03 -7.7853764818e-05 0.0000000000e+00 
          -2.5454890480e-03 -7.7753191267e-05 0.0000000000e+00 
          -3.3690624721e-03 -7.7818322585e-05 0.0000000000e+00 
          -4.1847886312e-03 -7.7799649761e-05 0.0000000000e+00 
          -4.9912131356e-03 -7.7762132474e-05 0.0000000000e+00 
          -5.7869430166e-03 -7.7805298630e-05 0.0000000000e+00 
          -6.5705649540e-03 -7.7721977560e-05 0.0000000000e+00 
          -7.3406898985e-03 -7.7752506530e-05 0.0000000000e+00 
          -8.0959837406e-03 -7.7739580449e-05 0.0000000000e+00 
          -8.8350927406e-03 -7.7689728441e-05 0.0000000000e+00 
          -9.5567202806e-03 -7.7725937441e-05 0.0000000000e+00 
          -1.0259598931e-02 -7.7723305460e-05 0.0000000000e+00 
          -1.0942471353e-02 -7.7657905170e-05 0.0000000000e+00 
          -1.1604131822e-02 -7.7694314128e-05 0.0000000000e+00 
          -1.2243410830e-02 -7.7690524742e-05 0.0000000000e+00 
          -1.2859172606e-02 -7.7611996184e-05 0.0000000000e+00 
          -1.3450317974e-02 -7.7674738529e-05 0.0000000000e+00 
          -1.4015803246e-02 -7.7614700707e-05 0.0000000000e+00 
          -1.4554605631e-02 -7.7583490266e-05 0.0000000000e+00 
          -1.5065777962e-02 -7.7619366584e-05 0.0000000000e+00 
          -1.5548404325e-02 -7.7626756514e-05 0.0000000000e+00 
          -1.6001611581e-02 -7.7564906053e-05 0.0000000000e+00 
          -1.6424606617e-02 -7.7551078555e-05 0.0000000000e+00 
          -1.6816613122e-02 -7.7656933038e-05 0.0000000000e+00 
          -1.7176936158e-02 -7.7467904307e-05 0.0000000000e+00 
          -1.7504935911e-02 -7.7640629704e-05 0.0000000000e+00 
          -1.7800000460e-02 -7.7553711578e-05 0.0000000000e+00 
          -1.8061626607e-02 -7.7508199964e-05 0.0000000000e+00 
          -1.8289332036e-02 -7.7672449133e-05 0.0000000000e+00 
          -1.8482692826e-02 -7.7490264943e-05 0.0000000000e+00 
          -1.8641387819e-02 -7.7583838756e-05 0.0000000000e+00 
          -1.8765101334e-02 -7.7536278288e-05 0.0000000000e+00 
          -1.8853641927e-02 -7.7570786145e-05 0.0000000000e+00 
          -1.8906828449e-02 -7.7559330597e-05 0.0000000000e+00 
        </DataArray>
        <DataArray type="Float64" Name="Displacement" NumberOfComponents="3" format="ascii">
          2.8869212365e-04 -3.3368796714e-04 0.0000000000e+00 
          2.8869212365e-04 -3.3368796714e-04 0.0000000000e+00 
          1.1802814800e-03 -3.5727747679e-04 0.0000000000e+00 
          1.1802814800e-03 -3.5727747679e-04 0.0000000000e+00 
          0.0000000000e+00 0.0000000000e+00 0.0000000000e+00 
          0.0000000000e+00 0.0000000000e+00 0.0000000000e+00 
          3.2958359493e-04 -3.3488203884e-04 0.0000000000e+00 
          3.6987462468e-04 -3.3604507276e-04 0.0000000000e+00 
          4.0952634726e-04 -3.3717728200e-04 0.0000000000e+00 
          4.4850109924e-04 -3.3827807911e-04 0.0000000000e+00 
          4.8676216975e-04 -3.3934829392e-04 0.0000000000e+00 
          5.2427402711e-04 -3.4038732081e-04 0.0000000000e+00 
          5.6100220342e-04 -3.4139519170e-04 0.0000000000e+00 
          5.9691368140e-04 -3.4237219217e-04 0.0000000000e+00 
          6.3197640885e-04 -3.4331820128e-04 0.0000000000e+00 
          6.6615957409e-04 -3.4423306865e-04 0.0000000000e+00 
          6.9943370157e-04 -3.4511698115e-04 0.0000000000e+00 
          7.3177055577e-04 -3.4596999043e-04 0.0000000000e+00 
          7.6314313858e-04 -3.4679167911e-04 0.0000000000e+00 
          7.9352574934e-04 -3.4758290690e-04 0.0000000000e+00 
          8.2289385281e-04 -3.4834272936e-04 0.0000000000e+00 
          8.5122425459e-04 -3.4907155380e-04 0.0000000000e+00 
          8.7849507269e-04 -3.4976957602e-04 0.0000000000e+00 
          9.0468554740e-04 -3.5043640466e-04 0.0000000000e+00 
          9.2977618711e-04 -3.5107251067e-04 0.0000000000e+00 
          9.5374865847e-04 -3.5167719760e-04 0.0000000000e+00 
          9.7658590767e-04 -3.5225123051e-04 0.0000000000e+00 
          9.9827195507e-04 -3.5279416520e-04 0.0000000000e+00 
          1.0187919877e-03 -3.5330587193e-04 0.0000000000e+00 
          1.0381321664e-03 -3.5378681063e-04 0.0000000000e+00 
          1.0562799209e-03 -3.5423672025e-04 0.0000000000e+00 
          1.0732235470e-03 -3.5465543079e-04 0.0000000000e+00 
          1.0889523909e-03 -3.5504336608e-04 0.0000000000e+00 
          1.1034567718e-03 -3.5540013276e-04 0.0000000000e+00 
          1.1167278552e-03 -3.5572595402e-04 0.0000000000e+00 
          1.1287578696e-03 -3.5602066582e-04 0.0000000000e+00 
          1.1395397348e-03 -3.5628437481e-04 0.0000000000e+00 
          1.1490672762e-03 -3.5651711505e-04 0.0000000000e+00 
          1.1573350933e-03 -3.5671883239e-04 0.0000000000e+00 
          1.1643385857e-03 -3.5688948618e-04 0.0000000000e+00 
          1.1700739163e-03 -3.5702905809e-04 0.0000000000e+00 
          1.1745379258e-03 -3.5713779969e-04 0.0000000000e+00 
          1.1777282236e-03 -3.5721521257e-04 0.0000000000e+00 
          1.1796430925e-03 -3.5726181481e-04 0.0000000000e+00 
          3.2958359493e-04 -3.3488203884e-04 0.0000000000e+00 
          3.6987462468e-04 -3.3604507276e-04 0.0000000000e+00 
          4.0952634726e-04 -3.3717728200e-04 0.0000000000e+00 
          4.4850109924e-04 -3.3827807911e-04 0.0000000000e+00 
          4.8676216975e-04 -3.3934829392e-04 0.0000000000e+00 
          5.2427402711e-04 -3.4038732081e-04 0.0000000000e+00 
          5.6100220342e-04 -3.4139519170e-04 0.0000000000e+00 
          5.9691368140e-04 -3.4237219217e-04 0.0000000000e+00 
          6.3197640885e-04 -3.4331820128e-04 0.0000000000e+00 
          6.6615957409e-04 -3.4423306865e-04 0.0000000000e+00 
          6.9943370157e-04 -3.4511698115e-04 0.0000000000e+00 
          7.3177055577e-04 -3.4596999043e-04 0.0000000000e+00 
          7.6314313858e-04 -3.4679167911e-04 0.0000000000e+00 
          7.9352574934e-04 -3.4758290690e-04 0.0000000000e+00 
          8.2289385281e-04 -3.4834272936e-04 0.0000000000e+00 
          8.5122425459e-04 -3.4907155380e-04 0.0000000000e+00 
          8.7849507269e-04 -3.4976957602e-04 0.0000000000e+00 
          9.0468554740e-04 -3.5043640466e-04 0.0000000000e+00 
          9.2977618711e-04 -3.5107251067e-04 0.0000000000e+00 
          9.5374865847e-04 -3.5167719760e-04 0.0000000000e+00 
          9.7658590767e-04 -3.5225123051e-04 0.0000000000e+00 
          9.9827195507e-04 -3.5279416520e-04 0.0000000000e+00 
          1.0187919877e-03 -3.5330587193e-04 0.0000000000e+00 
          1.0381321664e-03 -3.5378681063e-04 0.0000000000e+00 
          1.0562799209e-03 -3.5423672025e-04 0.0000000000e+00 
          1.0732235470e-03 -3.5465543079e-04 0.0000000000e+00 
          1.0889523909e-03 -3.5504336608e-04 0.0000000000e+00 
          1.1034567718e-03 -3.5540013276e-04 0.0000000000e+00 
          1.1167278552e-03 -3.5572595402e-04 0.0000000000e+00 
          1.1287578696e-03 -3.5602066582e-04 0.0000000000e+00 
          1.1395397348e-03 -3.5628437481e-04 0.0000000000e+00 
          1.1490672762e-03 -3.5651711505e-04 0.0000000000e+00 
          1.1573350933e-03 -3.5671883239e-04 0.0000000000e+00 
          1.1643385857e-03 -3.5688948618e-04 0.0000000000e+00 
          1.1700739163e-03 -3.5702905809e-04 0.0000000000e+00 
          1.1745379258e-03 -3.5713779969e-04 0.0000000000e+00 
          1.1777282236e-03 -3.5721521257e-04 0.0000000000e+00 
          1.1796430925e-03 -3.5726181481e-04 0.0000000000e+00 
        </DataArray>
        <DataArray type="Float64" Name="Acceleration" NumberOfComponents="3" format="ascii">
          -5.0509120812e-02 2.5483744781e-06 0.0000000000e+00 
          -5.0509120812e-02 2.5483744781e-06 0.0000000000e+00 
          -1.1503995169e-01 5.7237959665e-05 0.0000000000e+00 
          -1.1503995169e-01 5.7237959665e-05 0.0000000000e+00 
          0.0000000000e+00 0.0000000000e+00 0.0000000000e+00 
          0.0000000000e+00 0.0000000000e+00 0.0000000000e+00 
          -5.4100967427e-02 5.6648589961e-06 0.0000000000e+00 
          -5.7598231967e-02 -3.2995552796e-05 0.0000000000e+00 
          -6.1001071112e-02 7.3393316250e-05 0.0000000000e+00 
          -6.4304110085e-02 -7.6411481221e-05 0.0000000000e+00 
          -6.7505585312e-02 3.2720671348e-05 0.0000000000e+00 
          -7.0606952894e-02 2.6736673379e-05 0.0000000000e+00 
          -7.3590483504e-02 -2.4252828920e-05 0.0000000000e+00 
          -7.6474097528e-02 -2.6981922331e-06 0.0000000000e+00 
          -7.9250292892e-02 2.4401602327e-05 0.0000000000e+00 
          -8.1902253190e-02 -9.4808960291e-06 0.0000000000e+00 
          -8.4454125728e-02 -1.8369805471e-05 0.0000000000e+00 
          -8.6882756970e-02 5.6631789388e-05 0.0000000000e+00 
          -8.9198435939e-02 -9.8292005543e-05 0.0000000000e+00 
          -9.1409110387e-02 7.1899134471e-05 0.0000000000e+00 
          -9.3495714661e-02 -1.6650609393e-06 0.0000000000e+00 
          -9.5473962239e-02 -3.6608143294e-05 0.0000000000e+00 
          -9.7341072283e-02 3.3741178344e-05 0.0000000000e+00 
          -9.9097305669e-02 -5.1123900976e-05 0.0000000000e+00 
          -1.0074643456e-01 7.4238351977e-05 0.0000000000e+00 
          -1.0228863308e-01 -6.3342730078e-05 0.0000000000e+00 
          -1.0372555517e-01 1.6558076397e-05 0.0000000000e+00 
          -1.0506023224e-01 3.9937586140e-05 0.0000000000e+00 
          -1.0630497209e-01 -4.3054558075e-05 0.0000000000e+00 
          -1.0744211545e-01 4.2166984557e-06 0.0000000000e+00 
          -1.0849434028e-01 3.4731167608e-05 0.0000000000e+00 
          -1.0945428203e-01 -4.1640952684e-05 0.0000000000e+00 
          -1.1032652887e-01 2.9240627951e-05 0.0000000000e+00 
          -1.1112106136e-01 -1.1049236168e-05 0.0000000000e+00 
          -1.1182439265e-01 1.8662298693e-05 0.0000000000e+00 
          -1.1246071390e-01 -6.3521771781e-07 0.0000000000e+00 
          -1.1301705015e-01 -6.7725257681e-06 0.0000000000e+00 
          -1.1350274659e-01 2.9403802342e-06 0.0000000000e+00 
          -1.1391919643e-01 1.0360254988e-05 0.0000000000e+00 
          -1.1426388183e-01 1.3614540401e-05 0.0000000000e+00 
          -1.1454854207e-01 -3.1722554498e-05 0.0000000000e+00 
          -1.1476364269e-01 5.8082447584e-05 0.0000000000e+00 
          -1.1491911637e-01 -3.5244772641e-05 0.0000000000e+00 
          -1.1501348745e-01 -1.1907780758e-05 0.0000000000e+00 
          -5.4100967427e-02 5.6648589961e-06 0.0000000000e+00 
          -5.7598231967e-02 -3.2995552796e-05 0.0000000000e+00 
          -6.1001071112e-02 7.3393316250e-05 0.0000000000e+00 
          -6.4304110085e-02 -7.6411481221e-05 0.0000000000e+00 
          -6.7505585312e-02 3.2720671348e-05 0.0000000000e+00 
          -7.0606952894e-02 2.6736673379e-05 0.0000000000e+00 
          -7.3590483504e-02 -2.4252828920e-05 0.0000000000e+00 
          -7.6474097528e-02 -2.6981922331e-06 0.0000000000e+00 
          -7.9250292892e-02 2.4401602327e-05 0.0000000000e+00 
          -8.1902253190e-02 -9.4808960291e-06 0.0000000000e+00 
          -8.4454125728e-02 -1.8369805471e-05 0.0000000000e+00 
          -8.6882756970e-02 5.6631789388e-05 0.0000000000e+00 
          -8.9198435939e-02 -9.8292005543e-05 0.0000000000e+00 
          -9.1409110387e-02 7.1899134471e-05 0.0000000000e+00 
          -9.3495714661e-02 -1.6650609393e-06 0.0000000000e+00 
          -9.5473962239e-02 -3.6608143294e-05 0.0000000000e+00 
          -9.7341072283e-02 3.3741178344e-05 0.0000000000e+00 
          -9.9097305669e-02 -5.1123900976e-05 0.0000000000e+00 
          -1.0074643456e-01 7.4238351977e-05 0.0000000000e+00 
          -1.0228863308e-01 -6.3342730078e-05 0.0000000000e+00 
          -1.0372555517e-01 1.6558076397e-05 0.0000000000e+00 
          -1.0506023224e-01 3.9937586140e-05 0.0000000000e+00 
          -1.0630497209e-01 -4.3054558075e-05 0.0000000000e+00 
          -1.0744211545e-01 4.2166984557e-06 0.0000000000e+00 
          -1.0849434028e-01 3.4731167608e-05 0.0000000000e+00 
          -1.0945428203e-01 -4.1640952684e-05 0.0000000000e+00 
          -1.1032652887e-01 2.9240627951e-05 0.0000000000e+00 
          -1.1112106136e-01 -1.1049236168e-05 0.0000000000e+00 
          -1.1182439265e-01 1.8662298693e-05 0.0000000000e+00 
          -1.1246071390e-01 -6.3521771781e-07 0.0000000000e+00 
          -1.1301705015e-01 -6.7725257681e-06 0.0000000000e+00 
          -1.1350274659e-01 2.9403802342e-06 0.0000000000e+00 
          -1.1391919643e-01 1.0360254988e-05 0.0000000000e+00 
          -1.1426388183e-01 1.3614540401e-05 0.0000000000e+00 
          -1.1454854207e-01 -3.1722554498e-05 0.0000000000e+00 
          -1.1476364269e-01 5.8082447584e-05 0.0000000000e+00 
          -1.1491911637e-01 -3.5244772641e-05 0.0000000000e+00 
          -1.1501348745e-01 -1.1907780758e-05 0.0000000000e+00 
        </DataArray>
        <DataArray type="Float64" Name="Reaction" NumberOfComponents="3" format="ascii">
          0.0000000000e+00 0.0000000000e+00 0.0000000000e+00 
          0.0000000000e+00 0.0000000000e+00 0.0000000000e+00 
          0.0000000000e+00 0.0000000000e+00 0.0000000000e+00 
          0.0000000000e+00 0.0000000000e+00 0.0000000000e+00 
          0.0000000000e+00 0.0000000000e+00 0.0000000000e+00 
          0.0000000000e+00 0.0000000000e+00 0.0000000000e+00 
          0.0000000000e+00 0.0000000000e+00 0.0000000000e+00 
          0.0000000000e+00 0.0000000000e+00 0.0000000000e+00 
          0.0000000000e+00 0.0000000000e+00 0.0000000000e+00 
          0.0000000000e+00 0.0000000000e+00 0.0000000000e+00 
          0.0000000000e+00 0.0000000000e+00 0.0000000000e+00 
          0.0000000000e+00 0.0000000000e+00 0.0000000000e+00 
          0.0000000000e+00 0.0000000000e+00 0.0000000000e+00 
          0.0000000000e+00 0.0000000000e+00 0.0000000000e+00 
          0.0000000000e+00 0.0000000000e+00 0.0000000000e+00 
          0.0000000000e+00 0.0000000000e+00 0.0000000000e+00 
          0.0000000000e+00 0.0000000000e+00 0.0000000000e+00 
          0.0000000000e+00 0.0000000000e+00 0.0000000000e+00 
          0.0000000000e+00 0.0000000000e+00 0.0000000000e+00 
          0.0000000000e+00 0.0000000000e+00 0.0000000000e+00 
          0.0000000000e+00 0.0000000000e+00 0.0000000000e+00 
          0.0000000000e+00 0.0000000000e+00 0.0000000000e+00 
          0.0000000000e+00 0.0000000000e+00 0.0000000000e+00 
          0.0000000000e+00 0.0000000000e+00 0.0000000000e+00 
          0.0000000000e+00 0.0000000000e+00 0.0000000000e+00 
          0.0000000000e+00 0.0000000000e+00 0.0000000000e+00 
          0.0000000000e+00 0.0000000000e+00 0.0000000000e+00 
          0.0000000000e+00 0.0000000000e+00 0.0000000000e+00 
          0.0000000000e+00 0.0000000000e+00 0.0000000000e+00 
          0.0000000000e+00 0.0000000000e+00 0.0000000000e+00 
          0.0000000000e+00 0.0000000000e+00 0.0000000000e+00 
          0.0000000000e+00 0.0000000000e+00 0.0000000000e+00 
          0.0000000000e+00 0.0000000000e+00 0.0000000000e+00 
          0.0000000000e+00 0.0000000000e+00 0.0000000000e+00 
          0.0000000000e+00 0.0000000000e+00 0.0000000000e+00 
          0.0000000000e+00 0.0000000000e+00 0.0000000000e+00 
          0.0000000000e+00 0.0000000000e+00 0.0000000000e+00 
          0.0000000000e+00 0.0000000000e+00 0.0000000000e+00 
          0.0000000000e+00 0.0000000000e+00 0.0000000000e+00 
          0.0000000000e+00 0.0000000000e+00 0.0000000000e+00 
          0.0000000000e+00 0.0000000000e+00 0.0000000000e+00 
          0.0000000000e+00 0.0000000000e+00 0.0000000000e+00 
          0.0000000000e+00 0.0000000000e+00 0.0000000000e+00 
          0.0000000000e+00 0.0000000000e+00 0.0000000000e+00 
          0.0000000000e+00 0.0000000000e+00 0.0000000000e+00 
          0.0000000000e+00 0.0000000000e+00 0.0000000000e+00 
          0.0000000000e+00 0.0000000000e+00 0.0000000000e+00 
          0.0000000000e+00 0.0000000000e+00 0.0000000000e+00 
          0.0000000000e+00 0.0000000000e+00 0.0000000000e+00 
          0.0000000000e+00 0.0000000000e+00 0.0000000000e+00 
          0.0000000000e+00 0.0000000000e+00 0.0000000000e+00 
          0.0000000000e+00 0.0000000000e+00 0.0000000000e+00 
          0.0000000000e+00 0.0000000000e+00 0.0000000000e+00 
          0.0000000000e+00 0.0000000000e+00 0.0000000000e+00 
          0.0000000000e+00 0.0000000000e+00 0.0000000000e+00 
          0.0000000000e+00 0.0000000000e+00 0.0000000000e+00 
          0.0000000000e+00 0.0000000000e+00 0.0000000000e+00 
          0.0000000000e+00 0.0000000000e+00 0.0000000000e+00 
          0.0000000000e+00 0.0000000000e+00 0.0000000000e+00 
          0.0000000000e+00 0.0000000000e+00 0.0000000000e+00 
          0.0000000000e+00 0.0000000000e+00 0.0000000000e+00 
          0.0000000000e+00 0.0000000000e+00 0.0000000000e+00 
          0.0000000000e+00 0.0000000000e+00 0.0000000000e+00 
          0.0000000000e+00 0.0000000000e+00 0.0000000000e+00 
          0.0000000000e+00 0.0000000000e+00 0.0000000000e+00 
          0.0000000000e+00 0.0000000000e+00 0.0000000000e+00 
          0.0000000000e+00 0.0000000000e+00 0.0000000000e+00 
          0.0000000000e+00 0.0000000000e+00 0.0000000000e+00 
          0.0000000000e+00 0.0000000000e+00 0.0000000000e+00 
          0.0000000000e+00 0.0000000000e+00 0.0000000000e+00 
          0.0000000000e+00 0.0000000000e+00 0.0000000000e+00 
          0.0000000000e+00 0.0000000000e+00 0.0000000000e+00 
          0.0000000000e+00 0.0000000000e+00 0.0000000000e+00 
          0.0000000000e+00 0.0000000000e+00 0.0000000000e+00 
          0.0000000000e+00 0.0000000000e+00 0.0000000000e+00 
          0.0000000000e+00 0.0000000000e+00 0.0000000000e+00 
          0.0000000000e+00 0.0000000000e+00 0.0000000000e+00 
          0.0000000000e+00 0.0000000000e+00 0.0000000000e+00 
          0.0000000000e+00 0.0000000000e+00 0.0000000000e+00 
          0.0000000000e+00 0.0000000000e+00 0.0000000000e+00 
          0.0000000000e+00 0.0000000000e+00 0.0000000000e+00 
          0.0000000000e+00 0.0000000000e+00 0.0000000000e+00 
        </DataArray>
      </PointData>
      <CellData>
        <DataArray type="Int64" Name="ElementTag" format="ascii">
          0
        </DataArray>
      </CellData>
    </Piece>
  </UnstructuredGrid>
</VTKFile>
