<?xml version="1.0"?>
<VTKFile type="UnstructuredGrid" version="1.0" byte_order="LittleEndian" compressor="vtkZLibDataCompressor">
  <UnstructuredGrid>
    <Piece NumberOfPoints="80" NumberOfCells="39">
      <Points>
        <DataArray type="Float64" Name="Points" NumberOfComponents="3" format="ascii">
          0.0000000000e+00 0.0000000000e+00 0.0000000000e+00 
          2.5000000000e-01 0.0000000000e+00 0.0000000000e+00 
          2.5000000000e-01 3.0000000000e+01 0.0000000000e+00 
          0.0000000000e+00 3.0000000000e+01 0.0000000000e+00 
          2.5000000000e-01 7.6923100000e-01 0.0000000000e+00 
          2.5000000000e-01 1.5384620000e+00 0.0000000000e+00 
          2.5000000000e-01 2.3076920000e+00 0.0000000000e+00 
          2.5000000000e-01 3.0769230000e+00 0.0000000000e+00 
          2.5000000000e-01 3.8461540000e+00 0.0000000000e+00 
          2.5000000000e-01 4.6153850000e+00 0.0000000000e+00 
          2.5000000000e-01 5.3846150000e+00 0.0000000000e+00 
          2.5000000000e-01 6.1538460000e+00 0.0000000000e+00 
          2.5000000000e-01 6.9230770000e+00 0.0000000000e+00 
          2.5000000000e-01 7.6923080000e+00 0.0000000000e+00 
          2.5000000000e-01 8.4615380000e+00 0.0000000000e+00 
          2.5000000000e-01 9.2307690000e+00 0.0000000000e+00 
          2.5000000000e-01 1.0000000000e+01 0.0000000000e+00 
          2.5000000000e-01 1.0769231000e+01 0.0000000000e+00 
          2.5000000000e-01 1.1538462000e+01 0.0000000000e+00 
          2.5000000000e-01 1.2307692000e+01 0.0000000000e+00 
          2.5000000000e-01 1.3076923000e+01 0.0000000000e+00 
          2.5000000000e-01 1.3846154000e+01 0.0000000000e+00 
          2.5000000000e-01 1.4615385000e+01 0.0000000000e+00 
          2.5000000000e-01 1.5384615000e+01 0.0000000000e+00 
          2.5000000000e-01 1.6153846000e+01 0.0000000000e+00 
          2.5000000000e-01 1.6923077000e+01 0.0000000000e+00 
          2.5000000000e-01 1.7692308000e+01 0.0000000000e+00 
          2.5000000000e-01 1.8461538000e+01 0.0000000000e+00 
          2.5000000000e-01 1.9230769000e+01 0.0000000000e+00 
          2.5000000000e-01 2.0000000000e+01 0.0000000000e+00 
          2.5000000000e-01 2.0769231000e+01 0.0000000000e+00 
          2.5000000000e-01 2.1538462000e+01 0.0000000000e+00 
          2.5000000000e-01 2.2307692000e+01 0.0000000000e+00 
          2.5000000000e-01 2.3076923000e+01 0.0000000000e+00 
          2.5000000000e-01 2.3846154000e+01 0.0000000000e+00 
          2.5000000000e-01 2.4615385000e+01 0.0000000000e+00 
          2.5000000000e-01 2.5384615000e+01 0.0000000000e+00 
          2.5000000000e-01 2.6153846000e+01 0.0000000000e+00 
          2.5000000000e-01 2.6923077000e+01 0.0000000000e+00 
          2.5000000000e-01 2.7692308000e+01 0.0000000000e+00 
          2.5000000000e-01 2.8461538000e+01 0.0000000000e+00 
          2.5000000000e-01 2.9230769000e+01 0.0000000000e+00 
          0.0000000000e+00 7.6923100000e-01 0.0000000000e+00 
          0.0000000000e+00 1.5384620000e+00 0.0000000000e+00 
          0.0000000000e+00 2.3076920000e+00 0.0000000000e+00 
          0.0000000000e+00 3.0769230000e+00 0.0000000000e+00 
          0.0000000000e+00 3.8461540000e+00 0.0000000000e+00 
          0.0000000000e+00 4.6153850000e+00 0.0000000000e+00 
          0.0000000000e+00 5.3846150000e+00 0.0000000000e+00 
          0.0000000000e+00 6.1538460000e+00 0.0000000000e+00 
          0.0000000000e+00 6.9230770000e+00 0.0000000000e+00 
          0.0000000000e+00 7.6923080000e+00 0.0000000000e+00 
          0.0000000000e+00 8.4615380000e+00 0.0000000000e+00 
          0.0000000000e+00 9.2307690000e+00 0.0000000000e+00 
          0.0000000000e+00 1.0000000000e+01 0.0000000000e+00 
          0.0000000000e+00 1.0769231000e+01 0.0000000000e+00 
          0.0000000000e+00 1.1538462000e+01 0.0000000000e+00 
          0.0000000000e+00 1.2307692000e+01 0.0000000000e+00 
          0.0000000000e+00 1.3076923000e+01 0.0000000000e+00 
          0.0000000000e+00 1.3846154000e+01 0.0000000000e+00 
          0.0000000000e+00 1.4615385000e+01 0.0000000000e+00 
          0.0000000000e+00 1.5384615000e+01 0.0000000000e+00 
          0.0000000000e+00 1.6153846000e+01 0.0000000000e+00 
          0.0000000000e+00 1.6923077000e+01 0.0000000000e+00 
          0.0000000000e+00 1.7692308000e+01 0.0000000000e+00 
          0.0000000000e+00 1.8461538000e+01 0.0000000000e+00 
          0.0000000000e+00 1.9230769000e+01 0.0000000000e+00 
          0.0000000000e+00 2.0000000000e+01 0.0000000000e+00 
          0.0000000000e+00 2.0769231000e+01 0.0000000000e+00 
          0.0000000000e+00 2.1538462000e+01 0.0000000000e+00 
          0.0000000000e+00 2.2307692000e+01 0.0000000000e+00 
          0.0000000000e+00 2.3076923000e+01 0.0000000000e+00 
          0.0000000000e+00 2.3846154000e+01 0.0000000000e+00 
          0.0000000000e+00 2.4615385000e+01 0.0000000000e+00 
          0.0000000000e+00 2.5384615000e+01 0.0000000000e+00 
          0.0000000000e+00 2.6153846000e+01 0.0000000000e+00 
          0.0000000000e+00 2.6923077000e+01 0.0000000000e+00 
          0.0000000000e+00 2.7692308000e+01 0.0000000000e+00 
          0.0000000000e+00 2.8461538000e+01 0.0000000000e+00 
          0.0000000000e+00 2.9230769000e+01 0.0000000000e+00 
        </DataArray>
      </Points>
      <Cells>
        <DataArray type="Int64" Name="connectivity" format="ascii">
          0 1 4 42 
          42 4 5 43 
          43 5 6 44 
          44 6 7 45 
          45 7 8 46 
          46 8 9 47 
          47 9 10 48 
          48 10 11 49 
          49 11 12 50 
          50 12 13 51 
          51 13 14 52 
          52 14 15 53 
          53 15 16 54 
          54 16 17 55 
          55 17 18 56 
          56 18 19 57 
          57 19 20 58 
          58 20 21 59 
          59 21 22 60 
          60 22 23 61 
          61 23 24 62 
          62 24 25 63 
          63 25 26 64 
          64 26 27 65 
          65 27 28 66 
          66 28 29 67 
          67 29 30 68 
          68 30 31 69 
          69 31 32 70 
          70 32 33 71 
          71 33 34 72 
          72 34 35 73 
          73 35 36 74 
          74 36 37 75 
          75 37 38 76 
          76 38 39 77 
          77 39 40 78 
          78 40 41 79 
          79 41 2 3 
        </DataArray>
        <DataArray type="Int64" Name="offsets" format="ascii">
          4
          8
          12
          16
          20
          24
          28
          32
          36
          40
          44
          48
          52
          56
          60
          64
          68
          72
          76
          80
          84
          88
          92
          96
          100
          104
          108
          112
          116
          120
          124
          128
          132
          136
          140
          144
          148
          152
          156
        </DataArray>
        <DataArray type="Int64" Name="types" format="ascii">
          9
          9
          9
          9
          9
          9
          9
          9
          9
          9
          9
          9
          9
          9
          9
          9
          9
          9
          9
          9
          9
          9
          9
          9
          9
          9
          9
          9
          9
          9
          9
          9
          9
          9
          9
          9
          9
          9
          9
        </DataArray>
      </Cells>
      <PointData>
        <DataArray type="Int64" Name="NodeTag" format="ascii">
          1
          2
          3
          4
          7
          8
          9
          10
          11
          12
          13
          14
          15
          16
          17
          18
          19
          20
          21
          22
          23
          24
          25
          26
          27
          28
          29
          30
          31
          32
          33
          34
          35
          36
          37
          38
          39
          40
          41
          42
          43
          44
          45
          46
          47
          48
          49
          50
          51
          52
          53
          54
          55
          56
          57
          58
          59
          60
          61
          62
          63
          64
          65
          66
          67
          68
          69
          70
          71
          72
          73
          74
          75
          76
          77
          78
          79
          80
          81
          82
        </DataArray>
        <DataArray type="Float64" Name="Velocity" NumberOfComponents="3" format="ascii">
          -1.0624688753e-01 -7.9289587700e-05 0.0000000000e+00 
          -1.0624688753e-01 -7.9289587700e-05 0.0000000000e+00 
          2.3608344792e-01 -7.1021764285e-05 0.0000000000e+00 
          2.3608344792e-01 -7.1021764285e-05 0.0000000000e+00 
          -9.5937151757e-02 -7.9027134383e-05 0.0000000000e+00 
          -8.5328432235e-02 -7.8763891009e-05 0.0000000000e+00 
          -7.4445471859e-02 -7.8426736230e-05 0.0000000000e+00 
          -6.3314217716e-02 -7.8217900432e-05 0.0000000000e+00 
          -5.1962009242e-02 -7.7716724629e-05 0.0000000000e+00 
          -4.0417304854e-02 -7.7265190361e-05 0.0000000000e+00 
          -2.8709713726e-02 -7.6725883535e-05 0.0000000000e+00 
          -1.6869878461e-02 -7.6102212123e-05 0.0000000000e+00 
          -4.9295060410e-03 -7.5646824254e-05 0.0000000000e+00 
          7.0788783200e-03 -7.4563931307e-05 0.0000000000e+00 
          1.9121947612e-02 -7.4355349505e-05 0.0000000000e+00 
          3.1165738871e-02 -7.4159181782e-05 0.0000000000e+00 
          4.3175726900e-02 -7.3574242551e-05 0.0000000000e+00 
          5.5116887857e-02 -7.3165681146e-05 0.0000000000e+00 
          6.6953938347e-02 -7.2771892207e-05 0.0000000000e+00 
          7.8651374399e-02 -7.2583578778e-05 0.0000000000e+00 
          9.0173647428e-02 -7.2505052043e-05 0.0000000000e+00 
          1.0148535368e-01 -7.1961348878e-05 0.0000000000e+00 
          1.1255126071e-01 -7.1831759456e-05 0.0000000000e+00 
          1.2333650575e-01 -7.2094456107e-05 0.0000000000e+00 
          1.3380681348e-01 -7.1553213995e-05 0.0000000000e+00 
          1.4392850290e-01 -7.1395238098e-05 0.0000000000e+00 
          1.5366876939e-01 -7.1155675830e-05 0.0000000000e+00 
          1.6299568010e-01 -7.0951124954e-05 0.0000000000e+00 
          1.7187847558e-01 -7.0940473531e-05 0.0000000000e+00 
          1.8028764699e-01 -7.1106234011e-05 0.0000000000e+00 
          1.8819501462e-01 -7.1294451212e-05 0.0000000000e+00 
          1.9557392424e-01 -7.1018255768e-05 0.0000000000e+00 
          2.0239930531e-01 -7.1295862570e-05 0.0000000000e+00 
          2.0864790158e-01 -7.1159669989e-05 0.0000000000e+00 
          2.1429834497e-01 -7.0937810683e-05 0.0000000000e+00 
          2.1933114334e-01 -7.1195320968e-05 0.0000000000e+00 
          2.2372887223e-01 -7.0938246628e-05 0.0000000000e+00 
          2.2747631455e-01 -7.0680564103e-05 0.0000000000e+00 
          2.3056040635e-01 -7.0813288944e-05 0.0000000000e+00 
          2.3297039309e-01 -7.1004099468e-05 0.0000000000e+00 
          2.3469786459e-01 -7.1109712362e-05 0.0000000000e+00 
          2.3573675686e-01 -7.1128343794e-05 0.0000000000e+00 
          -9.5937151757e-02 -7.9027134383e-05 0.0000000000e+00 
          -8.5328432235e-02 -7.8763891009e-05 0.0000000000e+00 
          -7.4445471859e-02 -7.8426736230e-05 0.0000000000e+00 
          -6.3314217716e-02 -7.8217900432e-05 0.0000000000e+00 
          -5.1962009242e-02 -7.7716724629e-05 0.0000000000e+00 
          -4.0417304854e-02 -7.7265190361e-05 0.0000000000e+00 
          -2.8709713726e-02 -7.6725883535e-05 0.0000000000e+00 
          -1.6869878461e-02 -7.6102212123e-05 0.0000000000e+00 
          -4.9295060410e-03 -7.5646824254e-05 0.0000000000e+00 
          7.0788783200e-03 -7.4563931307e-05 0.0000000000e+00 
          1.9121947612e-02 -7.4355349505e-05 0.0000000000e+00 
          3.1165738871e-02 -7.4159181782e-05 0.0000000000e+00 
          4.3175726900e-02 -7.3574242551e-05 0.0000000000e+00 
          5.5116887857e-02 -7.3165681146e-05 0.0000000000e+00 
          6.6953938347e-02 -7.2771892207e-05 0.0000000000e+00 
          7.8651374399e-02 -7.2583578778e-05 0.0000000000e+00 
          9.0173647428e-02 -7.2505052043e-05 0.0000000000e+00 
          1.0148535368e-01 -7.1961348878e-05 0.0000000000e+00 
          1.1255126071e-01 -7.1831759456e-05 0.0000000000e+00 
          1.2333650575e-01 -7.2094456107e-05 0.0000000000e+00 
          1.3380681348e-01 -7.1553213995e-05 0.0000000000e+00 
          1.4392850290e-01 -7.1395238098e-05 0.0000000000e+00 
          1.5366876939e-01 -7.1155675830e-05 0.0000000000e+00 
          1.6299568010e-01 -7.0951124954e-05 0.0000000000e+00 
          1.7187847558e-01 -7.0940473531e-05 0.0000000000e+00 
          1.8028764699e-01 -7.1106234011e-05 0.0000000000e+00 
          1.8819501462e-01 -7.1294451212e-05 0.0000000000e+00 
          1.9557392424e-01 -7.1018255768e-05 0.0000000000e+00 
          2.0239930531e-01 -7.1295862570e-05 0.0000000000e+00 
          2.0864790158e-01 -7.1159669989e-05 0.0000000000e+00 
          2.1429834497e-01 -7.0937810683e-05 0.0000000000e+00 
          2.1933114334e-01 -7.1195320968e-05 0.0000000000e+00 
          2.2372887223e-01 -7.0938246628e-05 0.0000000000e+00 
          2.2747631455e-01 -7.0680564103e-05 0.0000000000e+00 
          2.3056040635e-01 -7.0813288944e-05 0.0000000000e+00 
          2.3297039309e-01 -7.1004099468e-05 0.0000000000e+00 
          2.3469786459e-01 -7.1109712362e-05 0.0000000000e+00 
          2.3573675686e-01 -7.1128343794e-05 0.0000000000e+00 
        </DataArray>
        <DataArray type="Float64" Name="Displacement" NumberOfComponents="3" format="ascii">
          2.8339370235e-02 -1.6015661556e-04 0.0000000000e+00 
          2.8339370235e-02 -1.6015661556e-04 0.0000000000e+00 
          5.4071687896e-02 -1.8435039939e-04 0.0000000000e+00 
          5.4071687896e-02 -1.8435039939e-04 0.0000000000e+00 
          2.9450637042e-02 -1.6137276647e-04 0.0000000000e+00 
          3.0551150209e-02 -1.6255687205e-04 0.0000000000e+00 
          3.1639698800e-02 -1.6371034406e-04 0.0000000000e+00 
          3.2715082186e-02 -1.6483254730e-04 0.0000000000e+00 
          3.3776103187e-02 -1.6592359436e-04 0.0000000000e+00 
          3.4821575371e-02 -1.6698419252e-04 0.0000000000e+00 
          3.5850321704e-02 -1.6801402760e-04 0.0000000000e+00 
          3.6861181567e-02 -1.6901230919e-04 0.0000000000e+00 
          3.7853004444e-02 -1.6997930415e-04 0.0000000000e+00 
          3.8824656928e-02 -1.7091546581e-04 0.0000000000e+00 
          3.9775021610e-02 -1.7182045960e-04 0.0000000000e+00 
          4.0703003841e-02 -1.7269436819e-04 0.0000000000e+00 
          4.1607525838e-02 -1.7353724275e-04 0.0000000000e+00 
          4.2487533382e-02 -1.7434912342e-04 0.0000000000e+00 
          4.3341996214e-02 -1.7513011161e-04 0.0000000000e+00 
          4.4169908353e-02 -1.7588026575e-04 0.0000000000e+00 
          4.4970294256e-02 -1.7659939668e-04 0.0000000000e+00 
          4.5742203764e-02 -1.7728662196e-04 0.0000000000e+00 
          4.6484717971e-02 -1.7794199113e-04 0.0000000000e+00 
          4.7196948956e-02 -1.7856591241e-04 0.0000000000e+00 
          4.7878044596e-02 -1.7915816607e-04 0.0000000000e+00 
          4.8527184554e-02 -1.7971860838e-04 0.0000000000e+00 
          4.9143585438e-02 -1.8024679115e-04 0.0000000000e+00 
          4.9726500418e-02 -1.8074328720e-04 0.0000000000e+00 
          5.0275223500e-02 -1.8120776123e-04 0.0000000000e+00 
          5.0789085963e-02 -1.8164002604e-04 0.0000000000e+00 
          5.1267460900e-02 -1.8204092422e-04 0.0000000000e+00 
          5.1709763480e-02 -1.8240999130e-04 0.0000000000e+00 
          5.2115451218e-02 -1.8274672183e-04 0.0000000000e+00 
          5.2484027105e-02 -1.8305150920e-04 0.0000000000e+00 
          5.2815037284e-02 -1.8332421492e-04 0.0000000000e+00 
          5.3108074048e-02 -1.8356453434e-04 0.0000000000e+00 
          5.3362775696e-02 -1.8377293769e-04 0.0000000000e+00 
          5.3578828294e-02 -1.8394974224e-04 0.0000000000e+00 
          5.3755964406e-02 -1.8409427086e-04 0.0000000000e+00 
          5.3893964943e-02 -1.8420644296e-04 0.0000000000e+00 
          5.3992658978e-02 -1.8428608305e-04 0.0000000000e+00 
          5.4051924522e-02 -1.8433389972e-04 0.0000000000e+00 
          2.9450637042e-02 -1.6137276647e-04 0.0000000000e+00 
          3.0551150209e-02 -1.6255687205e-04 0.0000000000e+00 
          3.1639698800e-02 -1.6371034406e-04 0.0000000000e+00 
          3.2715082186e-02 -1.6483254730e-04 0.0000000000e+00 
          3.3776103187e-02 -1.6592359436e-04 0.0000000000e+00 
          3.4821575371e-02 -1.6698419252e-04 0.0000000000e+00 
          3.5850321704e-02 -1.6801402760e-04 0.0000000000e+00 
          3.6861181567e-02 -1.6901230919e-04 0.0000000000e+00 
          3.7853004444e-02 -1.6997930415e-04 0.0000000000e+00 
          3.8824656928e-02 -1.7091546581e-04 0.0000000000e+00 
          3.9775021610e-02 -1.7182045960e-04 0.0000000000e+00 
          4.0703003841e-02 -1.7269436819e-04 0.0000000000e+00 
          4.1607525838e-02 -1.7353724275e-04 0.0000000000e+00 
          4.2487533382e-02 -1.7434912342e-04 0.0000000000e+00 
          4.3341996214e-02 -1.7513011161e-04 0.0000000000e+00 
          4.4169908353e-02 -1.7588026575e-04 0.0000000000e+00 
          4.4970294256e-02 -1.7659939668e-04 0.0000000000e+00 
          4.5742203764e-02 -1.7728662196e-04 0.0000000000e+00 
          4.6484717971e-02 -1.7794199113e-04 0.0000000000e+00 
          4.7196948956e-02 -1.7856591241e-04 0.0000000000e+00 
          4.7878044596e-02 -1.7915816607e-04 0.0000000000e+00 
          4.8527184554e-02 -1.7971860838e-04 0.0000000000e+00 
          4.9143585438e-02 -1.8024679115e-04 0.0000000000e+00 
          4.9726500418e-02 -1.8074328720e-04 0.0000000000e+00 
          5.0275223500e-02 -1.8120776123e-04 0.0000000000e+00 
          5.0789085963e-02 -1.8164002604e-04 0.0000000000e+00 
          5.1267460900e-02 -1.8204092422e-04 0.0000000000e+00 
          5.1709763480e-02 -1.8240999130e-04 0.0000000000e+00 
          5.2115451218e-02 -1.8274672183e-04 0.0000000000e+00 
          5.2484027105e-02 -1.8305150920e-04 0.0000000000e+00 
          5.2815037284e-02 -1.8332421492e-04 0.0000000000e+00 
          5.3108074048e-02 -1.8356453434e-04 0.0000000000e+00 
          5.3362775696e-02 -1.8377293769e-04 0.0000000000e+00 
          5.3578828294e-02 -1.8394974224e-04 0.0000000000e+00 
          5.3755964406e-02 -1.8409427086e-04 0.0000000000e+00 
          5.3893964943e-02 -1.8420644296e-04 0.0000000000e+00 
          5.3992658978e-02 -1.8428608305e-04 0.0000000000e+00 
          5.4051924522e-02 -1.8433389972e-04 0.0000000000e+00 
        </DataArray>
        <DataArray type="Float64" Name="Acceleration" NumberOfComponents="3" format="ascii">
          -8.5950174038e-01 1.4919994892e-05 0.0000000000e+00 
          -8.5950174038e-01 1.4919994892e-05 0.0000000000e+00 
          -3.5614380283e+00 3.5914567758e-04 0.0000000000e+00 
          -3.5614380283e+00 3.5914567758e-04 0.0000000000e+00 
          -9.6892429889e-01 1.8723181357e-04 0.0000000000e+00 
          -1.0779049899e+00 -6.7442786551e-05 0.0000000000e+00 
          -1.1863393805e+00 4.7567494375e-05 0.0000000000e+00 
          -1.2940791238e+00 2.7000788741e-05 0.0000000000e+00 
          -1.4009791547e+00 -1.0045133307e-04 0.0000000000e+00 
          -1.5069127520e+00 -4.4073825807e-05 0.0000000000e+00 
          -1.6117277408e+00 9.8844221097e-05 0.0000000000e+00 
          -1.7152700683e+00 5.0508711647e-05 0.0000000000e+00 
          -1.8173922843e+00 -3.1180896066e-05 0.0000000000e+00 
          -1.9179628443e+00 2.8900586944e-05 0.0000000000e+00 
          -2.0168157262e+00 1.4426023681e-05 0.0000000000e+00 
          -2.1138133978e+00 4.9927869869e-06 0.0000000000e+00 
          -2.2088006404e+00 -2.2446698844e-06 0.0000000000e+00 
          -2.3016289392e+00 -2.0517254947e-05 0.0000000000e+00 
          -2.3921745568e+00 -3.1220137820e-05 0.0000000000e+00 
          -2.4802667176e+00 3.2215898043e-06 0.0000000000e+00 
          -2.5657794303e+00 1.6205975742e-04 0.0000000000e+00 
          -2.6485747193e+00 1.5313215089e-04 0.0000000000e+00 
          -2.7284963883e+00 7.9426546515e-05 0.0000000000e+00 
          -2.8054414131e+00 1.1931538951e-04 0.0000000000e+00 
          -2.8792700135e+00 1.4506862954e-04 0.0000000000e+00 
          -2.9498552393e+00 2.2583070178e-04 0.0000000000e+00 
          -3.0170796547e+00 1.2249527040e-04 0.0000000000e+00 
          -3.0808279494e+00 1.8314916361e-04 0.0000000000e+00 
          -3.1410105145e+00 2.1676549573e-04 0.0000000000e+00 
          -3.1974963018e+00 6.4926160354e-05 0.0000000000e+00 
          -3.2501904520e+00 1.4862521674e-04 0.0000000000e+00 
          -3.2990243498e+00 2.3963481759e-04 0.0000000000e+00 
          -3.3439006150e+00 1.6890112575e-04 0.0000000000e+00 
          -3.3847445988e+00 1.9377578510e-04 0.0000000000e+00 
          -3.4214796129e+00 2.4867479606e-04 0.0000000000e+00 
          -3.4540420953e+00 1.6389405469e-04 0.0000000000e+00 
          -3.4823877677e+00 1.0681452212e-04 0.0000000000e+00 
          -3.5064523422e+00 2.2878683583e-04 0.0000000000e+00 
          -3.5261924971e+00 2.4330884614e-04 0.0000000000e+00 
          -3.5415842127e+00 2.7491528987e-04 0.0000000000e+00 
          -3.5525988427e+00 1.4726573970e-04 0.0000000000e+00 
          -3.5592234975e+00 5.5982970792e-05 0.0000000000e+00 
          -9.6892429889e-01 1.8723181357e-04 0.0000000000e+00 
          -1.0779049899e+00 -6.7442786551e-05 0.0000000000e+00 
          -1.1863393805e+00 4.7567494375e-05 0.0000000000e+00 
          -1.2940791238e+00 2.7000788741e-05 0.0000000000e+00 
          -1.4009791547e+00 -1.0045133307e-04 0.0000000000e+00 
          -1.5069127520e+00 -4.4073825807e-05 0.0000000000e+00 
          -1.6117277408e+00 9.8844221097e-05 0.0000000000e+00 
          -1.7152700683e+00 5.0508711647e-05 0.0000000000e+00 
          -1.8173922843e+00 -3.1180896066e-05 0.0000000000e+00 
          -1.9179628443e+00 2.8900586944e-05 0.0000000000e+00 
          -2.0168157262e+00 1.4426023681e-05 0.0000000000e+00 
          -2.1138133978e+00 4.9927869869e-06 0.0000000000e+00 
          -2.2088006404e+00 -2.2446698844e-06 0.0000000000e+00 
          -2.3016289392e+00 -2.0517254947e-05 0.0000000000e+00 
          -2.3921745568e+00 -3.1220137820e-05 0.0000000000e+00 
          -2.4802667176e+00 3.2215898043e-06 0.0000000000e+00 
          -2.5657794303e+00 1.6205975742e-04 0.0000000000e+00 
          -2.6485747193e+00 1.5313215089e-04 0.0000000000e+00 
          -2.7284963883e+00 7.9426546515e-05 0.0000000000e+00 
          -2.8054414131e+00 1.1931538951e-04 0.0000000000e+00 
          -2.8792700135e+00 1.4506862954e-04 0.0000000000e+00 
          -2.9498552393e+00 2.2583070178e-04 0.0000000000e+00 
          -3.0170796547e+00 1.2249527040e-04 0.0000000000e+00 
          -3.0808279494e+00 1.8314916361e-04 0.0000000000e+00 
          -3.1410105145e+00 2.1676549573e-04 0.0000000000e+00 
          -3.1974963018e+00 6.4926160354e-05 0.0000000000e+00 
          -3.2501904520e+00 1.4862521674e-04 0.0000000000e+00 
          -3.2990243498e+00 2.3963481759e-04 0.0000000000e+00 
          -3.3439006150e+00 1.6890112575e-04 0.0000000000e+00 
          -3.3847445988e+00 1.9377578510e-04 0.0000000000e+00 
          -3.4214796129e+00 2.4867479606e-04 0.0000000000e+00 
          -3.4540420953e+00 1.6389405469e-04 0.0000000000e+00 
          -3.4823877677e+00 1.0681452212e-04 0.0000000000e+00 
          -3.5064523422e+00 2.2878683583e-04 0.0000000000e+00 
          -3.5261924971e+00 2.4330884614e-04 0.0000000000e+00 
          -3.5415842127e+00 2.7491528987e-04 0.0000000000e+00 
          -3.5525988427e+00 1.4726573970e-04 0.0000000000e+00 
          -3.5592234975e+00 5.5982970792e-05 0.0000000000e+00 
        </DataArray>
        <DataArray type="Float64" Name="Reaction" NumberOfComponents="3" format="ascii">
          0.0000000000e+00 0.0000000000e+00 0.0000000000e+00 
          0.0000000000e+00 0.0000000000e+00 0.0000000000e+00 
          0.0000000000e+00 0.0000000000e+00 0.0000000000e+00 
          0.0000000000e+00 0.0000000000e+00 0.0000000000e+00 
          0.0000000000e+00 0.0000000000e+00 0.0000000000e+00 
          0.0000000000e+00 0.0000000000e+00 0.0000000000e+00 
          0.0000000000e+00 0.0000000000e+00 0.0000000000e+00 
          0.0000000000e+00 0.0000000000e+00 0.0000000000e+00 
          0.0000000000e+00 0.0000000000e+00 0.0000000000e+00 
          0.0000000000e+00 0.0000000000e+00 0.0000000000e+00 
          0.0000000000e+00 0.0000000000e+00 0.0000000000e+00 
          0.0000000000e+00 0.0000000000e+00 0.0000000000e+00 
          0.0000000000e+00 0.0000000000e+00 0.0000000000e+00 
          0.0000000000e+00 0.0000000000e+00 0.0000000000e+00 
          0.0000000000e+00 0.0000000000e+00 0.0000000000e+00 
          0.0000000000e+00 0.0000000000e+00 0.0000000000e+00 
          0.0000000000e+00 0.0000000000e+00 0.0000000000e+00 
          0.0000000000e+00 0.0000000000e+00 0.0000000000e+00 
          0.0000000000e+00 0.0000000000e+00 0.0000000000e+00 
          0.0000000000e+00 0.0000000000e+00 0.0000000000e+00 
          0.0000000000e+00 0.0000000000e+00 0.0000000000e+00 
          0.0000000000e+00 0.0000000000e+00 0.0000000000e+00 
          0.0000000000e+00 0.0000000000e+00 0.0000000000e+00 
          0.0000000000e+00 0.0000000000e+00 0.0000000000e+00 
          0.0000000000e+00 0.0000000000e+00 0.0000000000e+00 
          0.0000000000e+00 0.0000000000e+00 0.0000000000e+00 
          0.0000000000e+00 0.0000000000e+00 0.0000000000e+00 
          0.0000000000e+00 0.0000000000e+00 0.0000000000e+00 
          0.0000000000e+00 0.0000000000e+00 0.0000000000e+00 
          0.0000000000e+00 0.0000000000e+00 0.0000000000e+00 
          0.0000000000e+00 0.0000000000e+00 0.0000000000e+00 
          0.0000000000e+00 0.0000000000e+00 0.0000000000e+00 
          0.0000000000e+00 0.0000000000e+00 0.0000000000e+00 
          0.0000000000e+00 0.0000000000e+00 0.0000000000e+00 
          0.0000000000e+00 0.0000000000e+00 0.0000000000e+00 
          0.0000000000e+00 0.0000000000e+00 0.0000000000e+00 
          0.0000000000e+00 0.0000000000e+00 0.0000000000e+00 
          0.0000000000e+00 0.0000000000e+00 0.0000000000e+00 
          0.0000000000e+00 0.0000000000e+00 0.0000000000e+00 
          0.0000000000e+00 0.0000000000e+00 0.0000000000e+00 
          0.0000000000e+00 0.0000000000e+00 0.0000000000e+00 
          0.0000000000e+00 0.0000000000e+00 0.0000000000e+00 
          0.0000000000e+00 0.0000000000e+00 0.0000000000e+00 
          0.0000000000e+00 0.0000000000e+00 0.0000000000e+00 
          0.0000000000e+00 0.0000000000e+00 0.0000000000e+00 
          0.0000000000e+00 0.0000000000e+00 0.0000000000e+00 
          0.0000000000e+00 0.0000000000e+00 0.0000000000e+00 
          0.0000000000e+00 0.0000000000e+00 0.0000000000e+00 
          0.0000000000e+00 0.0000000000e+00 0.0000000000e+00 
          0.0000000000e+00 0.0000000000e+00 0.0000000000e+00 
          0.0000000000e+00 0.0000000000e+00 0.0000000000e+00 
          0.0000000000e+00 0.0000000000e+00 0.0000000000e+00 
          0.0000000000e+00 0.0000000000e+00 0.0000000000e+00 
          0.0000000000e+00 0.0000000000e+00 0.0000000000e+00 
          0.0000000000e+00 0.0000000000e+00 0.0000000000e+00 
          0.0000000000e+00 0.0000000000e+00 0.0000000000e+00 
          0.0000000000e+00 0.0000000000e+00 0.0000000000e+00 
          0.0000000000e+00 0.0000000000e+00 0.0000000000e+00 
          0.0000000000e+00 0.0000000000e+00 0.0000000000e+00 
          0.0000000000e+00 0.0000000000e+00 0.0000000000e+00 
          0.0000000000e+00 0.0000000000e+00 0.0000000000e+00 
          0.0000000000e+00 0.0000000000e+00 0.0000000000e+00 
          0.0000000000e+00 0.0000000000e+00 0.0000000000e+00 
          0.0000000000e+00 0.0000000000e+00 0.0000000000e+00 
          0.0000000000e+00 0.0000000000e+00 0.0000000000e+00 
          0.0000000000e+00 0.0000000000e+00 0.0000000000e+00 
          0.0000000000e+00 0.0000000000e+00 0.0000000000e+00 
          0.0000000000e+00 0.0000000000e+00 0.0000000000e+00 
          0.0000000000e+00 0.0000000000e+00 0.0000000000e+00 
          0.0000000000e+00 0.0000000000e+00 0.0000000000e+00 
          0.0000000000e+00 0.0000000000e+00 0.0000000000e+00 
          0.0000000000e+00 0.0000000000e+00 0.0000000000e+00 
          0.0000000000e+00 0.0000000000e+00 0.0000000000e+00 
          0.0000000000e+00 0.0000000000e+00 0.0000000000e+00 
          0.0000000000e+00 0.0000000000e+00 0.0000000000e+00 
          0.0000000000e+00 0.0000000000e+00 0.0000000000e+00 
          0.0000000000e+00 0.0000000000e+00 0.0000000000e+00 
          0.0000000000e+00 0.0000000000e+00 0.0000000000e+00 
          0.0000000000e+00 0.0000000000e+00 0.0000000000e+00 
          0.0000000000e+00 0.0000000000e+00 0.0000000000e+00 
        </DataArray>
      </PointData>
      <CellData>
        <DataArray type="Int64" Name="ElementTag" format="ascii">
          90
          91
          92
          93
          94
          95
          96
          97
          98
          99
          100
          101
          102
          103
          104
          105
          106
          107
          108
          109
          110
          111
          112
          113
          114
          115
          116
          117
          118
          119
          120
          121
          122
          123
          124
          125
          126
          127
          128
        </DataArray>
      </CellData>
    </Piece>
  </UnstructuredGrid>
</VTKFile>
