<?xml version="1.0"?>
<VTKFile type="UnstructuredGrid" version="1.0" byte_order="LittleEndian" compressor="vtkZLibDataCompressor">
  <UnstructuredGrid>
    <Piece NumberOfPoints="80" NumberOfCells="39">
      <Points>
        <DataArray type="Float64" Name="Points" NumberOfComponents="3" format="ascii">
          0.0000000000e+00 0.0000000000e+00 0.0000000000e+00 
          2.5000000000e-01 0.0000000000e+00 0.0000000000e+00 
          2.5000000000e-01 3.0000000000e+01 0.0000000000e+00 
          0.0000000000e+00 3.0000000000e+01 0.0000000000e+00 
          2.5000000000e-01 7.6923100000e-01 0.0000000000e+00 
          2.5000000000e-01 1.5384620000e+00 0.0000000000e+00 
          2.5000000000e-01 2.3076920000e+00 0.0000000000e+00 
          2.5000000000e-01 3.0769230000e+00 0.0000000000e+00 
          2.5000000000e-01 3.8461540000e+00 0.0000000000e+00 
          2.5000000000e-01 4.6153850000e+00 0.0000000000e+00 
          2.5000000000e-01 5.3846150000e+00 0.0000000000e+00 
          2.5000000000e-01 6.1538460000e+00 0.0000000000e+00 
          2.5000000000e-01 6.9230770000e+00 0.0000000000e+00 
          2.5000000000e-01 7.6923080000e+00 0.0000000000e+00 
          2.5000000000e-01 8.4615380000e+00 0.0000000000e+00 
          2.5000000000e-01 9.2307690000e+00 0.0000000000e+00 
          2.5000000000e-01 1.0000000000e+01 0.0000000000e+00 
          2.5000000000e-01 1.0769231000e+01 0.0000000000e+00 
          2.5000000000e-01 1.1538462000e+01 0.0000000000e+00 
          2.5000000000e-01 1.2307692000e+01 0.0000000000e+00 
          2.5000000000e-01 1.3076923000e+01 0.0000000000e+00 
          2.5000000000e-01 1.3846154000e+01 0.0000000000e+00 
          2.5000000000e-01 1.4615385000e+01 0.0000000000e+00 
          2.5000000000e-01 1.5384615000e+01 0.0000000000e+00 
          2.5000000000e-01 1.6153846000e+01 0.0000000000e+00 
          2.5000000000e-01 1.6923077000e+01 0.0000000000e+00 
          2.5000000000e-01 1.7692308000e+01 0.0000000000e+00 
          2.5000000000e-01 1.8461538000e+01 0.0000000000e+00 
          2.5000000000e-01 1.9230769000e+01 0.0000000000e+00 
          2.5000000000e-01 2.0000000000e+01 0.0000000000e+00 
          2.5000000000e-01 2.0769231000e+01 0.0000000000e+00 
          2.5000000000e-01 2.1538462000e+01 0.0000000000e+00 
          2.5000000000e-01 2.2307692000e+01 0.0000000000e+00 
          2.5000000000e-01 2.3076923000e+01 0.0000000000e+00 
          2.5000000000e-01 2.3846154000e+01 0.0000000000e+00 
          2.5000000000e-01 2.4615385000e+01 0.0000000000e+00 
          2.5000000000e-01 2.5384615000e+01 0.0000000000e+00 
          2.5000000000e-01 2.6153846000e+01 0.0000000000e+00 
          2.5000000000e-01 2.6923077000e+01 0.0000000000e+00 
          2.5000000000e-01 2.7692308000e+01 0.0000000000e+00 
          2.5000000000e-01 2.8461538000e+01 0.0000000000e+00 
          2.5000000000e-01 2.9230769000e+01 0.0000000000e+00 
          0.0000000000e+00 7.6923100000e-01 0.0000000000e+00 
          0.0000000000e+00 1.5384620000e+00 0.0000000000e+00 
          0.0000000000e+00 2.3076920000e+00 0.0000000000e+00 
          0.0000000000e+00 3.0769230000e+00 0.0000000000e+00 
          0.0000000000e+00 3.8461540000e+00 0.0000000000e+00 
          0.0000000000e+00 4.6153850000e+00 0.0000000000e+00 
          0.0000000000e+00 5.3846150000e+00 0.0000000000e+00 
          0.0000000000e+00 6.1538460000e+00 0.0000000000e+00 
          0.0000000000e+00 6.9230770000e+00 0.0000000000e+00 
          0.0000000000e+00 7.6923080000e+00 0.0000000000e+00 
          0.0000000000e+00 8.4615380000e+00 0.0000000000e+00 
          0.0000000000e+00 9.2307690000e+00 0.0000000000e+00 
          0.0000000000e+00 1.0000000000e+01 0.0000000000e+00 
          0.0000000000e+00 1.0769231000e+01 0.0000000000e+00 
          0.0000000000e+00 1.1538462000e+01 0.0000000000e+00 
          0.0000000000e+00 1.2307692000e+01 0.0000000000e+00 
          0.0000000000e+00 1.3076923000e+01 0.0000000000e+00 
          0.0000000000e+00 1.3846154000e+01 0.0000000000e+00 
          0.0000000000e+00 1.4615385000e+01 0.0000000000e+00 
          0.0000000000e+00 1.5384615000e+01 0.0000000000e+00 
          0.0000000000e+00 1.6153846000e+01 0.0000000000e+00 
          0.0000000000e+00 1.6923077000e+01 0.0000000000e+00 
          0.0000000000e+00 1.7692308000e+01 0.0000000000e+00 
          0.0000000000e+00 1.8461538000e+01 0.0000000000e+00 
          0.0000000000e+00 1.9230769000e+01 0.0000000000e+00 
          0.0000000000e+00 2.0000000000e+01 0.0000000000e+00 
          0.0000000000e+00 2.0769231000e+01 0.0000000000e+00 
          0.0000000000e+00 2.1538462000e+01 0.0000000000e+00 
          0.0000000000e+00 2.2307692000e+01 0.0000000000e+00 
          0.0000000000e+00 2.3076923000e+01 0.0000000000e+00 
          0.0000000000e+00 2.3846154000e+01 0.0000000000e+00 
          0.0000000000e+00 2.4615385000e+01 0.0000000000e+00 
          0.0000000000e+00 2.5384615000e+01 0.0000000000e+00 
          0.0000000000e+00 2.6153846000e+01 0.0000000000e+00 
          0.0000000000e+00 2.6923077000e+01 0.0000000000e+00 
          0.0000000000e+00 2.7692308000e+01 0.0000000000e+00 
          0.0000000000e+00 2.8461538000e+01 0.0000000000e+00 
          0.0000000000e+00 2.9230769000e+01 0.0000000000e+00 
        </DataArray>
      </Points>
      <Cells>
        <DataArray type="Int64" Name="connectivity" format="ascii">
          0 1 4 42 
          42 4 5 43 
          43 5 6 44 
          44 6 7 45 
          45 7 8 46 
          46 8 9 47 
          47 9 10 48 
          48 10 11 49 
          49 11 12 50 
          50 12 13 51 
          51 13 14 52 
          52 14 15 53 
          53 15 16 54 
          54 16 17 55 
          55 17 18 56 
          56 18 19 57 
          57 19 20 58 
          58 20 21 59 
          59 21 22 60 
          60 22 23 61 
          61 23 24 62 
          62 24 25 63 
          63 25 26 64 
          64 26 27 65 
          65 27 28 66 
          66 28 29 67 
          67 29 30 68 
          68 30 31 69 
          69 31 32 70 
          70 32 33 71 
          71 33 34 72 
          72 34 35 73 
          73 35 36 74 
          74 36 37 75 
          75 37 38 76 
          76 38 39 77 
          77 39 40 78 
          78 40 41 79 
          79 41 2 3 
        </DataArray>
        <DataArray type="Int64" Name="offsets" format="ascii">
          4
          8
          12
          16
          20
          24
          28
          32
          36
          40
          44
          48
          52
          56
          60
          64
          68
          72
          76
          80
          84
          88
          92
          96
          100
          104
          108
          112
          116
          120
          124
          128
          132
          136
          140
          144
          148
          152
          156
        </DataArray>
        <DataArray type="Int64" Name="types" format="ascii">
          9
          9
          9
          9
          9
          9
          9
          9
          9
          9
          9
          9
          9
          9
          9
          9
          9
          9
          9
          9
          9
          9
          9
          9
          9
          9
          9
          9
          9
          9
          9
          9
          9
          9
          9
          9
          9
          9
          9
        </DataArray>
      </Cells>
      <PointData>
        <DataArray type="Int64" Name="NodeTag" format="ascii">
          1
          2
          3
          4
          7
          8
          9
          10
          11
          12
          13
          14
          15
          16
          17
          18
          19
          20
          21
          22
          23
          24
          25
          26
          27
          28
          29
          30
          31
          32
          33
          34
          35
          36
          37
          38
          39
          40
          41
          42
          43
          44
          45
          46
          47
          48
          49
          50
          51
          52
          53
          54
          55
          56
          57
          58
          59
          60
          61
          62
          63
          64
          65
          66
          67
          68
          69
          70
          71
          72
          73
          74
          75
          76
          77
          78
          79
          80
          81
          82
        </DataArray>
        <DataArray type="Float64" Name="Velocity" NumberOfComponents="3" format="ascii">
          -1.5510402963e-03 -7.7868924694e-05 0.0000000000e+00 
          -1.5510402963e-03 -7.7868924694e-05 0.0000000000e+00 
          -1.5635621107e-03 -7.7868119908e-05 0.0000000000e+00 
          -1.5635621107e-03 -7.7868119908e-05 0.0000000000e+00 
          -1.5717206370e-03 -7.7867622343e-05 0.0000000000e+00 
          -1.5899486453e-03 -7.7859759974e-05 0.0000000000e+00 
          -1.6058176253e-03 -7.7850722691e-05 0.0000000000e+00 
          -1.6194757899e-03 -7.7869881927e-05 0.0000000000e+00 
          -1.6310434294e-03 -7.7837692917e-05 0.0000000000e+00 
          -1.6406365132e-03 -7.7855246441e-05 0.0000000000e+00 
          -1.6484034432e-03 -7.7842411456e-05 0.0000000000e+00 
          -1.6544489448e-03 -7.7828699009e-05 0.0000000000e+00 
          -1.6589184526e-03 -7.7849358570e-05 0.0000000000e+00 
          -1.6619343124e-03 -7.7877250694e-05 0.0000000000e+00 
          -1.6636061231e-03 -7.7783756433e-05 0.0000000000e+00 
          -1.6640769018e-03 -7.7851542618e-05 0.0000000000e+00 
          -1.6634570748e-03 -7.7869276118e-05 0.0000000000e+00 
          -1.6618621746e-03 -7.7782169472e-05 0.0000000000e+00 
          -1.6594098421e-03 -7.7878222924e-05 0.0000000000e+00 
          -1.6562076017e-03 -7.7823982735e-05 0.0000000000e+00 
          -1.6523609314e-03 -7.7808733481e-05 0.0000000000e+00 
          -1.6479804027e-03 -7.7864294895e-05 0.0000000000e+00 
          -1.6431565836e-03 -7.7850777088e-05 0.0000000000e+00 
          -1.6379754750e-03 -7.7759956344e-05 0.0000000000e+00 
          -1.6325533068e-03 -7.7926346341e-05 0.0000000000e+00 
          -1.6269440235e-03 -7.7788347772e-05 0.0000000000e+00 
          -1.6212385059e-03 -7.7857222039e-05 0.0000000000e+00 
          -1.6155236791e-03 -7.7825841935e-05 0.0000000000e+00 
          -1.6098458813e-03 -7.7824761082e-05 0.0000000000e+00 
          -1.6042959975e-03 -7.7892540448e-05 0.0000000000e+00 
          -1.5989150619e-03 -7.7757660147e-05 0.0000000000e+00 
          -1.5937605192e-03 -7.7902097371e-05 0.0000000000e+00 
          -1.5888950238e-03 -7.7825390779e-05 0.0000000000e+00 
          -1.5843567436e-03 -7.7814562610e-05 0.0000000000e+00 
          -1.5801814717e-03 -7.7847715545e-05 0.0000000000e+00 
          -1.5764146245e-03 -7.7840605906e-05 0.0000000000e+00 
          -1.5730876473e-03 -7.7839429845e-05 0.0000000000e+00 
          -1.5702256805e-03 -7.7825214040e-05 0.0000000000e+00 
          -1.5678499063e-03 -7.7846775938e-05 0.0000000000e+00 
          -1.5659846110e-03 -7.7842610077e-05 0.0000000000e+00 
          -1.5646410992e-03 -7.7823121118e-05 0.0000000000e+00 
          -1.5638270502e-03 -7.7820922378e-05 0.0000000000e+00 
          -1.5717206370e-03 -7.7867622343e-05 0.0000000000e+00 
          -1.5899486453e-03 -7.7859759974e-05 0.0000000000e+00 
          -1.6058176253e-03 -7.7850722691e-05 0.0000000000e+00 
          -1.6194757899e-03 -7.7869881927e-05 0.0000000000e+00 
          -1.6310434294e-03 -7.7837692917e-05 0.0000000000e+00 
          -1.6406365132e-03 -7.7855246441e-05 0.0000000000e+00 
          -1.6484034432e-03 -7.7842411456e-05 0.0000000000e+00 
          -1.6544489448e-03 -7.7828699009e-05 0.0000000000e+00 
          -1.6589184526e-03 -7.7849358570e-05 0.0000000000e+00 
          -1.6619343124e-03 -7.7877250694e-05 0.0000000000e+00 
          -1.6636061231e-03 -7.7783756433e-05 0.0000000000e+00 
          -1.6640769018e-03 -7.7851542618e-05 0.0000000000e+00 
          -1.6634570748e-03 -7.7869276118e-05 0.0000000000e+00 
          -1.6618621746e-03 -7.7782169472e-05 0.0000000000e+00 
          -1.6594098421e-03 -7.7878222924e-05 0.0000000000e+00 
          -1.6562076017e-03 -7.7823982735e-05 0.0000000000e+00 
          -1.6523609314e-03 -7.7808733481e-05 0.0000000000e+00 
          -1.6479804027e-03 -7.7864294895e-05 0.0000000000e+00 
          -1.6431565836e-03 -7.7850777088e-05 0.0000000000e+00 
          -1.6379754750e-03 -7.7759956344e-05 0.0000000000e+00 
          -1.6325533068e-03 -7.7926346341e-05 0.0000000000e+00 
          -1.6269440235e-03 -7.7788347772e-05 0.0000000000e+00 
          -1.6212385059e-03 -7.7857222039e-05 0.0000000000e+00 
          -1.6155236791e-03 -7.7825841935e-05 0.0000000000e+00 
          -1.6098458813e-03 -7.7824761082e-05 0.0000000000e+00 
          -1.6042959975e-03 -7.7892540448e-05 0.0000000000e+00 
          -1.5989150619e-03 -7.7757660147e-05 0.0000000000e+00 
          -1.5937605192e-03 -7.7902097371e-05 0.0000000000e+00 
          -1.5888950238e-03 -7.7825390779e-05 0.0000000000e+00 
          -1.5843567436e-03 -7.7814562610e-05 0.0000000000e+00 
          -1.5801814717e-03 -7.7847715545e-05 0.0000000000e+00 
          -1.5764146245e-03 -7.7840605906e-05 0.0000000000e+00 
          -1.5730876473e-03 -7.7839429845e-05 0.0000000000e+00 
          -1.5702256805e-03 -7.7825214040e-05 0.0000000000e+00 
          -1.5678499063e-03 -7.7846775938e-05 0.0000000000e+00 
          -1.5659846110e-03 -7.7842610077e-05 0.0000000000e+00 
          -1.5646410992e-03 -7.7823121118e-05 0.0000000000e+00 
          -1.5638270502e-03 -7.7820922378e-05 0.0000000000e+00 
        </DataArray>
        <DataArray type="Float64" Name="Displacement" NumberOfComponents="3" format="ascii">
          4.2122862354e-05 -3.8661989704e-04 0.0000000000e+00 
          4.2122862354e-05 -3.8661989704e-04 0.0000000000e+00 
          -6.0084092757e-04 -4.1020603621e-04 0.0000000000e+00 
          -6.0084092757e-04 -4.1020603621e-04 0.0000000000e+00 
          1.6357869924e-05 -3.8781402181e-04 0.0000000000e+00 
          -9.3789447705e-06 -3.8897688468e-04 0.0000000000e+00 
          -3.5044807445e-05 -3.9010896033e-04 0.0000000000e+00 
          -6.0597254002e-05 -3.9121000648e-04 0.0000000000e+00 
          -8.5994003712e-05 -3.9227988557e-04 0.0000000000e+00 
          -1.1119307054e-04 -3.9331893460e-04 0.0000000000e+00 
          -1.3615285789e-04 -3.9432691635e-04 0.0000000000e+00 
          -1.6083232393e-04 -3.9530371792e-04 0.0000000000e+00 
          -1.8519075282e-04 -3.9624980161e-04 0.0000000000e+00 
          -2.0918812092e-04 -3.9716466695e-04 0.0000000000e+00 
          -2.3278484850e-04 -3.9804851401e-04 0.0000000000e+00 
          -2.5594225008e-04 -3.9890146573e-04 0.0000000000e+00 
          -2.7862223377e-04 -3.9972336763e-04 0.0000000000e+00 
          -3.0078745199e-04 -4.0051411411e-04 0.0000000000e+00 
          -3.2240152872e-04 -4.0127406835e-04 0.0000000000e+00 
          -3.4342880339e-04 -4.0200280750e-04 0.0000000000e+00 
          -3.6383477942e-04 -4.0270071272e-04 0.0000000000e+00 
          -3.8358583736e-04 -4.0336744927e-04 0.0000000000e+00 
          -4.0264938001e-04 -4.0400322932e-04 0.0000000000e+00 
          -4.2099402817e-04 -4.0460806924e-04 0.0000000000e+00 
          -4.3858948550e-04 -4.0518171211e-04 0.0000000000e+00 
          -4.5540671851e-04 -4.0572455193e-04 0.0000000000e+00 
          -4.7141793951e-04 -4.0623629924e-04 0.0000000000e+00 
          -4.8659657542e-04 -4.0671697180e-04 0.0000000000e+00 
          -5.0091759620e-04 -4.0716669181e-04 0.0000000000e+00 
          -5.1435721352e-04 -4.0758547016e-04 0.0000000000e+00 
          -5.2689313461e-04 -4.0797302507e-04 0.0000000000e+00 
          -5.3850454618e-04 -4.0832987192e-04 0.0000000000e+00 
          -5.4917213056e-04 -4.0865539453e-04 0.0000000000e+00 
          -5.5887816937e-04 -4.0895006011e-04 0.0000000000e+00 
          -5.6760649002e-04 -4.0921374720e-04 0.0000000000e+00 
          -5.7534255381e-04 -4.0944624544e-04 0.0000000000e+00 
          -5.8207344585e-04 -4.0964800281e-04 0.0000000000e+00 
          -5.8778795934e-04 -4.0981831853e-04 0.0000000000e+00 
          -5.9247653536e-04 -4.0995807933e-04 0.0000000000e+00 
          -5.9613136891e-04 -4.1006658016e-04 0.0000000000e+00 
          -5.9874633151e-04 -4.1014402265e-04 0.0000000000e+00 
          -6.0031705072e-04 -4.1019071551e-04 0.0000000000e+00 
          1.6357869924e-05 -3.8781402181e-04 0.0000000000e+00 
          -9.3789447705e-06 -3.8897688468e-04 0.0000000000e+00 
          -3.5044807445e-05 -3.9010896033e-04 0.0000000000e+00 
          -6.0597254002e-05 -3.9121000648e-04 0.0000000000e+00 
          -8.5994003712e-05 -3.9227988557e-04 0.0000000000e+00 
          -1.1119307054e-04 -3.9331893460e-04 0.0000000000e+00 
          -1.3615285789e-04 -3.9432691635e-04 0.0000000000e+00 
          -1.6083232393e-04 -3.9530371792e-04 0.0000000000e+00 
          -1.8519075282e-04 -3.9624980161e-04 0.0000000000e+00 
          -2.0918812092e-04 -3.9716466695e-04 0.0000000000e+00 
          -2.3278484850e-04 -3.9804851401e-04 0.0000000000e+00 
          -2.5594225008e-04 -3.9890146573e-04 0.0000000000e+00 
          -2.7862223377e-04 -3.9972336763e-04 0.0000000000e+00 
          -3.0078745199e-04 -4.0051411411e-04 0.0000000000e+00 
          -3.2240152872e-04 -4.0127406835e-04 0.0000000000e+00 
          -3.4342880339e-04 -4.0200280750e-04 0.0000000000e+00 
          -3.6383477942e-04 -4.0270071272e-04 0.0000000000e+00 
          -3.8358583736e-04 -4.0336744927e-04 0.0000000000e+00 
          -4.0264938001e-04 -4.0400322932e-04 0.0000000000e+00 
          -4.2099402817e-04 -4.0460806924e-04 0.0000000000e+00 
          -4.3858948550e-04 -4.0518171211e-04 0.0000000000e+00 
          -4.5540671851e-04 -4.0572455193e-04 0.0000000000e+00 
          -4.7141793951e-04 -4.0623629924e-04 0.0000000000e+00 
          -4.8659657542e-04 -4.0671697180e-04 0.0000000000e+00 
          -5.0091759620e-04 -4.0716669181e-04 0.0000000000e+00 
          -5.1435721352e-04 -4.0758547016e-04 0.0000000000e+00 
          -5.2689313461e-04 -4.0797302507e-04 0.0000000000e+00 
          -5.3850454618e-04 -4.0832987192e-04 0.0000000000e+00 
          -5.4917213056e-04 -4.0865539453e-04 0.0000000000e+00 
          -5.5887816937e-04 -4.0895006011e-04 0.0000000000e+00 
          -5.6760649002e-04 -4.0921374720e-04 0.0000000000e+00 
          -5.7534255381e-04 -4.0944624544e-04 0.0000000000e+00 
          -5.8207344585e-04 -4.0964800281e-04 0.0000000000e+00 
          -5.8778795934e-04 -4.0981831853e-04 0.0000000000e+00 
          -5.9247653536e-04 -4.0995807933e-04 0.0000000000e+00 
          -5.9613136891e-04 -4.1006658016e-04 0.0000000000e+00 
          -5.9874633151e-04 -4.1014402265e-04 0.0000000000e+00 
          -6.0031705072e-04 -4.1019071551e-04 0.0000000000e+00 
        </DataArray>
        <DataArray type="Float64" Name="Acceleration" NumberOfComponents="3" format="ascii">
          -1.3230902478e-03 -4.4573332542e-07 0.0000000000e+00 
          -1.3230902478e-03 -4.4573332542e-07 0.0000000000e+00 
          9.4404678898e-02 -6.5761709542e-05 0.0000000000e+00 
          9.4404678898e-02 -6.5761709542e-05 0.0000000000e+00 
          2.5388697024e-03 4.6054798153e-05 0.0000000000e+00 
          6.3899149129e-03 -3.9750327768e-05 0.0000000000e+00 
          1.0222029112e-02 4.4458126728e-06 0.0000000000e+00 
          1.4028593471e-02 2.8961712513e-05 0.0000000000e+00 
          1.7811618170e-02 -3.1766325408e-05 0.0000000000e+00 
          2.1556643582e-02 1.0749106340e-05 0.0000000000e+00 
          2.5260443840e-02 3.1568027043e-05 0.0000000000e+00 
          2.8926081132e-02 -5.1980181166e-05 0.0000000000e+00 
          3.2532290005e-02 3.8204786304e-05 0.0000000000e+00 
          3.6095761663e-02 1.9480321884e-06 0.0000000000e+00 
          3.9586930641e-02 -1.9791789888e-05 0.0000000000e+00 
          4.3016294057e-02 7.8368678920e-06 0.0000000000e+00 
          4.6381385652e-02 2.6864899514e-05 0.0000000000e+00 
          4.9658936113e-02 -3.8580176818e-05 0.0000000000e+00 
          5.2869596622e-02 3.7450286859e-05 0.0000000000e+00 
          5.5982732986e-02 -3.0894625515e-05 0.0000000000e+00 
          5.9009413973e-02 2.9254026375e-05 0.0000000000e+00 
          6.1946484904e-02 -8.9805605934e-06 0.0000000000e+00 
          6.4771706606e-02 -1.2068820539e-05 0.0000000000e+00 
          6.7505765847e-02 3.4511764948e-05 0.0000000000e+00 
          7.0119548286e-02 -3.6634219811e-05 0.0000000000e+00 
          7.2623273967e-02 1.5531673906e-05 0.0000000000e+00 
          7.5015831538e-02 1.2215999437e-05 0.0000000000e+00 
          7.7274645068e-02 -9.5734125166e-06 0.0000000000e+00 
          7.9416192685e-02 -1.1656371867e-05 0.0000000000e+00 
          8.1424814623e-02 3.9121799938e-05 0.0000000000e+00 
          8.3300134015e-02 -5.3748480390e-05 0.0000000000e+00 
          8.5039498739e-02 5.7212722392e-05 0.0000000000e+00 
          8.6638461071e-02 -2.6824458682e-05 0.0000000000e+00 
          8.8094336530e-02 -5.0187551912e-06 0.0000000000e+00 
          8.9404303298e-02 3.2889626272e-05 0.0000000000e+00 
          9.0567229380e-02 -4.7881475251e-05 0.0000000000e+00 
          9.1578563769e-02 7.8496409588e-05 0.0000000000e+00 
          9.2438991256e-02 -8.1347305740e-05 0.0000000000e+00 
          9.3142237429e-02 4.5704053422e-05 0.0000000000e+00 
          9.3694181264e-02 9.3590285355e-06 0.0000000000e+00 
          9.4088759869e-02 -4.6239629359e-05 0.0000000000e+00 
          9.4322562670e-02 6.5922658718e-05 0.0000000000e+00 
          2.5388697024e-03 4.6054798153e-05 0.0000000000e+00 
          6.3899149129e-03 -3.9750327768e-05 0.0000000000e+00 
          1.0222029112e-02 4.4458126728e-06 0.0000000000e+00 
          1.4028593471e-02 2.8961712513e-05 0.0000000000e+00 
          1.7811618170e-02 -3.1766325408e-05 0.0000000000e+00 
          2.1556643582e-02 1.0749106340e-05 0.0000000000e+00 
          2.5260443840e-02 3.1568027043e-05 0.0000000000e+00 
          2.8926081132e-02 -5.1980181166e-05 0.0000000000e+00 
          3.2532290005e-02 3.8204786304e-05 0.0000000000e+00 
          3.6095761663e-02 1.9480321884e-06 0.0000000000e+00 
          3.9586930641e-02 -1.9791789888e-05 0.0000000000e+00 
          4.3016294057e-02 7.8368678920e-06 0.0000000000e+00 
          4.6381385652e-02 2.6864899514e-05 0.0000000000e+00 
          4.9658936113e-02 -3.8580176818e-05 0.0000000000e+00 
          5.2869596622e-02 3.7450286859e-05 0.0000000000e+00 
          5.5982732986e-02 -3.0894625515e-05 0.0000000000e+00 
          5.9009413973e-02 2.9254026375e-05 0.0000000000e+00 
          6.1946484904e-02 -8.9805605934e-06 0.0000000000e+00 
          6.4771706606e-02 -1.2068820539e-05 0.0000000000e+00 
          6.7505765847e-02 3.4511764948e-05 0.0000000000e+00 
          7.0119548286e-02 -3.6634219811e-05 0.0000000000e+00 
          7.2623273967e-02 1.5531673906e-05 0.0000000000e+00 
          7.5015831538e-02 1.2215999437e-05 0.0000000000e+00 
          7.7274645068e-02 -9.5734125166e-06 0.0000000000e+00 
          7.9416192685e-02 -1.1656371867e-05 0.0000000000e+00 
          8.1424814623e-02 3.9121799938e-05 0.0000000000e+00 
          8.3300134015e-02 -5.3748480390e-05 0.0000000000e+00 
          8.5039498739e-02 5.7212722392e-05 0.0000000000e+00 
          8.6638461071e-02 -2.6824458682e-05 0.0000000000e+00 
          8.8094336530e-02 -5.0187551912e-06 0.0000000000e+00 
          8.9404303298e-02 3.2889626272e-05 0.0000000000e+00 
          9.0567229380e-02 -4.7881475251e-05 0.0000000000e+00 
          9.1578563769e-02 7.8496409588e-05 0.0000000000e+00 
          9.2438991256e-02 -8.1347305740e-05 0.0000000000e+00 
          9.3142237429e-02 4.5704053422e-05 0.0000000000e+00 
          9.3694181264e-02 9.3590285355e-06 0.0000000000e+00 
          9.4088759869e-02 -4.6239629359e-05 0.0000000000e+00 
          9.4322562670e-02 6.5922658718e-05 0.0000000000e+00 
        </DataArray>
        <DataArray type="Float64" Name="Reaction" NumberOfComponents="3" format="ascii">
          0.0000000000e+00 0.0000000000e+00 0.0000000000e+00 
          0.0000000000e+00 0.0000000000e+00 0.0000000000e+00 
          0.0000000000e+00 0.0000000000e+00 0.0000000000e+00 
          0.0000000000e+00 0.0000000000e+00 0.0000000000e+00 
          0.0000000000e+00 0.0000000000e+00 0.0000000000e+00 
          0.0000000000e+00 0.0000000000e+00 0.0000000000e+00 
          0.0000000000e+00 0.0000000000e+00 0.0000000000e+00 
          0.0000000000e+00 0.0000000000e+00 0.0000000000e+00 
          0.0000000000e+00 0.0000000000e+00 0.0000000000e+00 
          0.0000000000e+00 0.0000000000e+00 0.0000000000e+00 
          0.0000000000e+00 0.0000000000e+00 0.0000000000e+00 
          0.0000000000e+00 0.0000000000e+00 0.0000000000e+00 
          0.0000000000e+00 0.0000000000e+00 0.0000000000e+00 
          0.0000000000e+00 0.0000000000e+00 0.0000000000e+00 
          0.0000000000e+00 0.0000000000e+00 0.0000000000e+00 
          0.0000000000e+00 0.0000000000e+00 0.0000000000e+00 
          0.0000000000e+00 0.0000000000e+00 0.0000000000e+00 
          0.0000000000e+00 0.0000000000e+00 0.0000000000e+00 
          0.0000000000e+00 0.0000000000e+00 0.0000000000e+00 
          0.0000000000e+00 0.0000000000e+00 0.0000000000e+00 
          0.0000000000e+00 0.0000000000e+00 0.0000000000e+00 
          0.0000000000e+00 0.0000000000e+00 0.0000000000e+00 
          0.0000000000e+00 0.0000000000e+00 0.0000000000e+00 
          0.0000000000e+00 0.0000000000e+00 0.0000000000e+00 
          0.0000000000e+00 0.0000000000e+00 0.0000000000e+00 
          0.0000000000e+00 0.0000000000e+00 0.0000000000e+00 
          0.0000000000e+00 0.0000000000e+00 0.0000000000e+00 
          0.0000000000e+00 0.0000000000e+00 0.0000000000e+00 
          0.0000000000e+00 0.0000000000e+00 0.0000000000e+00 
          0.0000000000e+00 0.0000000000e+00 0.0000000000e+00 
          0.0000000000e+00 0.0000000000e+00 0.0000000000e+00 
          0.0000000000e+00 0.0000000000e+00 0.0000000000e+00 
          0.0000000000e+00 0.0000000000e+00 0.0000000000e+00 
          0.0000000000e+00 0.0000000000e+00 0.0000000000e+00 
          0.0000000000e+00 0.0000000000e+00 0.0000000000e+00 
          0.0000000000e+00 0.0000000000e+00 0.0000000000e+00 
          0.0000000000e+00 0.0000000000e+00 0.0000000000e+00 
          0.0000000000e+00 0.0000000000e+00 0.0000000000e+00 
          0.0000000000e+00 0.0000000000e+00 0.0000000000e+00 
          0.0000000000e+00 0.0000000000e+00 0.0000000000e+00 
          0.0000000000e+00 0.0000000000e+00 0.0000000000e+00 
          0.0000000000e+00 0.0000000000e+00 0.0000000000e+00 
          0.0000000000e+00 0.0000000000e+00 0.0000000000e+00 
          0.0000000000e+00 0.0000000000e+00 0.0000000000e+00 
          0.0000000000e+00 0.0000000000e+00 0.0000000000e+00 
          0.0000000000e+00 0.0000000000e+00 0.0000000000e+00 
          0.0000000000e+00 0.0000000000e+00 0.0000000000e+00 
          0.0000000000e+00 0.0000000000e+00 0.0000000000e+00 
          0.0000000000e+00 0.0000000000e+00 0.0000000000e+00 
          0.0000000000e+00 0.0000000000e+00 0.0000000000e+00 
          0.0000000000e+00 0.0000000000e+00 0.0000000000e+00 
          0.0000000000e+00 0.0000000000e+00 0.0000000000e+00 
          0.0000000000e+00 0.0000000000e+00 0.0000000000e+00 
          0.0000000000e+00 0.0000000000e+00 0.0000000000e+00 
          0.0000000000e+00 0.0000000000e+00 0.0000000000e+00 
          0.0000000000e+00 0.0000000000e+00 0.0000000000e+00 
          0.0000000000e+00 0.0000000000e+00 0.0000000000e+00 
          0.0000000000e+00 0.0000000000e+00 0.0000000000e+00 
          0.0000000000e+00 0.0000000000e+00 0.0000000000e+00 
          0.0000000000e+00 0.0000000000e+00 0.0000000000e+00 
          0.0000000000e+00 0.0000000000e+00 0.0000000000e+00 
          0.0000000000e+00 0.0000000000e+00 0.0000000000e+00 
          0.0000000000e+00 0.0000000000e+00 0.0000000000e+00 
          0.0000000000e+00 0.0000000000e+00 0.0000000000e+00 
          0.0000000000e+00 0.0000000000e+00 0.0000000000e+00 
          0.0000000000e+00 0.0000000000e+00 0.0000000000e+00 
          0.0000000000e+00 0.0000000000e+00 0.0000000000e+00 
          0.0000000000e+00 0.0000000000e+00 0.0000000000e+00 
          0.0000000000e+00 0.0000000000e+00 0.0000000000e+00 
          0.0000000000e+00 0.0000000000e+00 0.0000000000e+00 
          0.0000000000e+00 0.0000000000e+00 0.0000000000e+00 
          0.0000000000e+00 0.0000000000e+00 0.0000000000e+00 
          0.0000000000e+00 0.0000000000e+00 0.0000000000e+00 
          0.0000000000e+00 0.0000000000e+00 0.0000000000e+00 
          0.0000000000e+00 0.0000000000e+00 0.0000000000e+00 
          0.0000000000e+00 0.0000000000e+00 0.0000000000e+00 
          0.0000000000e+00 0.0000000000e+00 0.0000000000e+00 
          0.0000000000e+00 0.0000000000e+00 0.0000000000e+00 
          0.0000000000e+00 0.0000000000e+00 0.0000000000e+00 
          0.0000000000e+00 0.0000000000e+00 0.0000000000e+00 
        </DataArray>
      </PointData>
      <CellData>
        <DataArray type="Int64" Name="ElementTag" format="ascii">
          90
          91
          92
          93
          94
          95
          96
          97
          98
          99
          100
          101
          102
          103
          104
          105
          106
          107
          108
          109
          110
          111
          112
          113
          114
          115
          116
          117
          118
          119
          120
          121
          122
          123
          124
          125
          126
          127
          128
        </DataArray>
      </CellData>
    </Piece>
  </UnstructuredGrid>
</VTKFile>
