<?xml version="1.0"?>
<VTKFile type="UnstructuredGrid" version="1.0" byte_order="LittleEndian" compressor="vtkZLibDataCompressor">
  <UnstructuredGrid>
    <Piece NumberOfPoints="82" NumberOfCells="1">
      <Points>
        <DataArray type="Float64" Name="Points" NumberOfComponents="3" format="ascii">
          0.0000000000e+00 0.0000000000e+00 0.0000000000e+00 
          2.5000000000e-01 0.0000000000e+00 0.0000000000e+00 
          2.5000000000e-01 3.0000000000e+01 0.0000000000e+00 
          0.0000000000e+00 3.0000000000e+01 0.0000000000e+00 
          0.0000000000e+00 -5.0000000000e+00 0.0000000000e+00 
          2.5000000000e-01 -5.0000000000e+00 0.0000000000e+00 
          2.5000000000e-01 7.6923100000e-01 0.0000000000e+00 
          2.5000000000e-01 1.5384620000e+00 0.0000000000e+00 
          2.5000000000e-01 2.3076920000e+00 0.0000000000e+00 
          2.5000000000e-01 3.0769230000e+00 0.0000000000e+00 
          2.5000000000e-01 3.8461540000e+00 0.0000000000e+00 
          2.5000000000e-01 4.6153850000e+00 0.0000000000e+00 
          2.5000000000e-01 5.3846150000e+00 0.0000000000e+00 
          2.5000000000e-01 6.1538460000e+00 0.0000000000e+00 
          2.5000000000e-01 6.9230770000e+00 0.0000000000e+00 
          2.5000000000e-01 7.6923080000e+00 0.0000000000e+00 
          2.5000000000e-01 8.4615380000e+00 0.0000000000e+00 
          2.5000000000e-01 9.2307690000e+00 0.0000000000e+00 
          2.5000000000e-01 1.0000000000e+01 0.0000000000e+00 
          2.5000000000e-01 1.0769231000e+01 0.0000000000e+00 
          2.5000000000e-01 1.1538462000e+01 0.0000000000e+00 
          2.5000000000e-01 1.2307692000e+01 0.0000000000e+00 
          2.5000000000e-01 1.3076923000e+01 0.0000000000e+00 
          2.5000000000e-01 1.3846154000e+01 0.0000000000e+00 
          2.5000000000e-01 1.4615385000e+01 0.0000000000e+00 
          2.5000000000e-01 1.5384615000e+01 0.0000000000e+00 
          2.5000000000e-01 1.6153846000e+01 0.0000000000e+00 
          2.5000000000e-01 1.6923077000e+01 0.0000000000e+00 
          2.5000000000e-01 1.7692308000e+01 0.0000000000e+00 
          2.5000000000e-01 1.8461538000e+01 0.0000000000e+00 
          2.5000000000e-01 1.9230769000e+01 0.0000000000e+00 
          2.5000000000e-01 2.0000000000e+01 0.0000000000e+00 
          2.5000000000e-01 2.0769231000e+01 0.0000000000e+00 
          2.5000000000e-01 2.1538462000e+01 0.0000000000e+00 
          2.5000000000e-01 2.2307692000e+01 0.0000000000e+00 
          2.5000000000e-01 2.3076923000e+01 0.0000000000e+00 
          2.5000000000e-01 2.3846154000e+01 0.0000000000e+00 
          2.5000000000e-01 2.4615385000e+01 0.0000000000e+00 
          2.5000000000e-01 2.5384615000e+01 0.0000000000e+00 
          2.5000000000e-01 2.6153846000e+01 0.0000000000e+00 
          2.5000000000e-01 2.6923077000e+01 0.0000000000e+00 
          2.5000000000e-01 2.7692308000e+01 0.0000000000e+00 
          2.5000000000e-01 2.8461538000e+01 0.0000000000e+00 
          2.5000000000e-01 2.9230769000e+01 0.0000000000e+00 
          0.0000000000e+00 7.6923100000e-01 0.0000000000e+00 
          0.0000000000e+00 1.5384620000e+00 0.0000000000e+00 
          0.0000000000e+00 2.3076920000e+00 0.0000000000e+00 
          0.0000000000e+00 3.0769230000e+00 0.0000000000e+00 
          0.0000000000e+00 3.8461540000e+00 0.0000000000e+00 
          0.0000000000e+00 4.6153850000e+00 0.0000000000e+00 
          0.0000000000e+00 5.3846150000e+00 0.0000000000e+00 
          0.0000000000e+00 6.1538460000e+00 0.0000000000e+00 
          0.0000000000e+00 6.9230770000e+00 0.0000000000e+00 
          0.0000000000e+00 7.6923080000e+00 0.0000000000e+00 
          0.0000000000e+00 8.4615380000e+00 0.0000000000e+00 
          0.0000000000e+00 9.2307690000e+00 0.0000000000e+00 
          0.0000000000e+00 1.0000000000e+01 0.0000000000e+00 
          0.0000000000e+00 1.0769231000e+01 0.0000000000e+00 
          0.0000000000e+00 1.1538462000e+01 0.0000000000e+00 
          0.0000000000e+00 1.2307692000e+01 0.0000000000e+00 
          0.0000000000e+00 1.3076923000e+01 0.0000000000e+00 
          0.0000000000e+00 1.3846154000e+01 0.0000000000e+00 
          0.0000000000e+00 1.4615385000e+01 0.0000000000e+00 
          0.0000000000e+00 1.5384615000e+01 0.0000000000e+00 
          0.0000000000e+00 1.6153846000e+01 0.0000000000e+00 
          0.0000000000e+00 1.6923077000e+01 0.0000000000e+00 
          0.0000000000e+00 1.7692308000e+01 0.0000000000e+00 
          0.0000000000e+00 1.8461538000e+01 0.0000000000e+00 
          0.0000000000e+00 1.9230769000e+01 0.0000000000e+00 
          0.0000000000e+00 2.0000000000e+01 0.0000000000e+00 
          0.0000000000e+00 2.0769231000e+01 0.0000000000e+00 
          0.0000000000e+00 2.1538462000e+01 0.0000000000e+00 
          0.0000000000e+00 2.2307692000e+01 0.0000000000e+00 
          0.0000000000e+00 2.3076923000e+01 0.0000000000e+00 
          0.0000000000e+00 2.3846154000e+01 0.0000000000e+00 
          0.0000000000e+00 2.4615385000e+01 0.0000000000e+00 
          0.0000000000e+00 2.5384615000e+01 0.0000000000e+00 
          0.0000000000e+00 2.6153846000e+01 0.0000000000e+00 
          0.0000000000e+00 2.6923077000e+01 0.0000000000e+00 
          0.0000000000e+00 2.7692308000e+01 0.0000000000e+00 
          0.0000000000e+00 2.8461538000e+01 0.0000000000e+00 
          0.0000000000e+00 2.9230769000e+01 0.0000000000e+00 
        </DataArray>
      </Points>
      <Cells>
        <DataArray type="Int64" Name="connectivity" format="ascii">
          0
          1
          2
          3
          4
          5
          6
          7
          8
          9
          10
          11
          12
          13
          14
          15
          16
          17
          18
          19
          20
          21
          22
          23
          24
          25
          26
          27
          28
          29
          30
          31
          32
          33
          34
          35
          36
          37
          38
          39
          40
          41
          42
          43
          44
          45
          46
          47
          48
          49
          50
          51
          52
          53
          54
          55
          56
          57
          58
          59
          60
          61
          62
          63
          64
          65
          66
          67
          68
          69
          70
          71
          72
          73
          74
          75
          76
          77
          78
          79
          80
          81
        </DataArray>
        <DataArray type="Int64" Name="offsets" format="ascii">
          82
        </DataArray>
        <DataArray type="Int64" Name="types" format="ascii">
          2
        </DataArray>
      </Cells>
      <PointData>
        <DataArray type="Int64" Name="NodeTag" format="ascii">
          1
          2
          3
          4
          5
          6
          7
          8
          9
          10
          11
          12
          13
          14
          15
          16
          17
          18
          19
          20
          21
          22
          23
          24
          25
          26
          27
          28
          29
          30
          31
          32
          33
          34
          35
          36
          37
          38
          39
          40
          41
          42
          43
          44
          45
          46
          47
          48
          49
          50
          51
          52
          53
          54
          55
          56
          57
          58
          59
          60
          61
          62
          63
          64
          65
          66
          67
          68
          69
          70
          71
          72
          73
          74
          75
          76
          77
          78
          79
          80
          81
          82
        </DataArray>
        <DataArray type="Float64" Name="Velocity" NumberOfComponents="3" format="ascii">
          4.0373845042e-19 -1.2110962231e-04 0.0000000000e+00 
          4.0373845042e-19 -1.2110962231e-04 0.0000000000e+00 
          1.5299444281e-18 -2.4569001633e-05 0.0000000000e+00 
          1.5299444281e-18 -2.4569001633e-05 0.0000000000e+00 
          0.0000000000e+00 0.0000000000e+00 0.0000000000e+00 
          0.0000000000e+00 0.0000000000e+00 0.0000000000e+00 
          -3.8699422673e-18 -1.1394032138e-04 0.0000000000e+00 
          1.2072500473e-18 -1.0572523993e-04 0.0000000000e+00 
          1.3941266599e-18 -9.6637039873e-05 0.0000000000e+00 
          -3.3282522191e-18 -8.7422357801e-05 0.0000000000e+00 
          3.7275255127e-18 -7.8339831063e-05 0.0000000000e+00 
          -3.2611631833e-18 -6.8974165582e-05 0.0000000000e+00 
          1.3834476858e-18 -5.8739207441e-05 0.0000000000e+00 
          1.8085725390e-18 -4.8574930883e-05 0.0000000000e+00 
          -2.8087377828e-18 -4.0125747627e-05 0.0000000000e+00 
          -4.2448931696e-19 -3.4978884597e-05 0.0000000000e+00 
          -3.8724157126e-19 -3.1999853590e-05 0.0000000000e+00 
          2.8436538964e-18 -2.9728267491e-05 0.0000000000e+00 
          2.9107906058e-18 -2.7063828486e-05 0.0000000000e+00 
          -5.3525058787e-18 -2.5510232962e-05 0.0000000000e+00 
          3.0319640975e-18 -2.5512294756e-05 0.0000000000e+00 
          -4.8657024747e-18 -2.5967808297e-05 0.0000000000e+00 
          5.1060410637e-18 -2.5554677475e-05 0.0000000000e+00 
          -5.5707504047e-18 -2.4511826700e-05 0.0000000000e+00 
          1.1424069596e-18 -2.4875236486e-05 0.0000000000e+00 
          -3.9637054625e-18 -2.5451752491e-05 0.0000000000e+00 
          7.8623568563e-18 -2.5385699299e-05 0.0000000000e+00 
          -3.0219547566e-18 -2.4656216497e-05 0.0000000000e+00 
          1.8582231886e-18 -2.4757608482e-05 0.0000000000e+00 
          -3.8137074207e-20 -2.5621916179e-05 0.0000000000e+00 
          1.9551483925e-18 -2.5036729605e-05 0.0000000000e+00 
          -7.5220775190e-21 -2.4689752837e-05 0.0000000000e+00 
          -3.2285591364e-18 -2.5163384980e-05 0.0000000000e+00 
          4.1356369648e-18 -2.5284492589e-05 0.0000000000e+00 
          -5.4102473981e-18 -2.5011804505e-05 0.0000000000e+00 
          4.5616275496e-18 -2.4741819969e-05 0.0000000000e+00 
          -2.6321179753e-18 -2.5324744067e-05 0.0000000000e+00 
          -2.9095617102e-18 -2.5251982645e-05 0.0000000000e+00 
          4.3241755661e-18 -2.4577636927e-05 0.0000000000e+00 
          -5.8777903449e-18 -2.5302468501e-05 0.0000000000e+00 
          5.3030779882e-18 -2.5323023941e-05 0.0000000000e+00 
          2.8972858472e-18 -2.4560663876e-05 0.0000000000e+00 
          -2.9981211640e-18 -2.5295131192e-05 0.0000000000e+00 
          -8.2629724214e-19 -2.5312303793e-05 0.0000000000e+00 
          -3.8699422673e-18 -1.1394032138e-04 0.0000000000e+00 
          1.2072500473e-18 -1.0572523993e-04 0.0000000000e+00 
          1.3941266599e-18 -9.6637039873e-05 0.0000000000e+00 
          -3.3282522191e-18 -8.7422357801e-05 0.0000000000e+00 
          3.7275255127e-18 -7.8339831063e-05 0.0000000000e+00 
          -3.2611631833e-18 -6.8974165582e-05 0.0000000000e+00 
          1.3834476858e-18 -5.8739207441e-05 0.0000000000e+00 
          1.8085725390e-18 -4.8574930883e-05 0.0000000000e+00 
          -2.8087377828e-18 -4.0125747627e-05 0.0000000000e+00 
          -4.2448931696e-19 -3.4978884597e-05 0.0000000000e+00 
          -3.8724157126e-19 -3.1999853590e-05 0.0000000000e+00 
          2.8436538964e-18 -2.9728267491e-05 0.0000000000e+00 
          2.9107906058e-18 -2.7063828486e-05 0.0000000000e+00 
          -5.3525058787e-18 -2.5510232962e-05 0.0000000000e+00 
          3.0319640975e-18 -2.5512294756e-05 0.0000000000e+00 
          -4.8657024747e-18 -2.5967808297e-05 0.0000000000e+00 
          5.1060410637e-18 -2.5554677475e-05 0.0000000000e+00 
          -5.5707504047e-18 -2.4511826700e-05 0.0000000000e+00 
          1.1424069596e-18 -2.4875236486e-05 0.0000000000e+00 
          -3.9637054625e-18 -2.5451752491e-05 0.0000000000e+00 
          7.8623568563e-18 -2.5385699299e-05 0.0000000000e+00 
          -3.0219547566e-18 -2.4656216497e-05 0.0000000000e+00 
          1.8582231886e-18 -2.4757608482e-05 0.0000000000e+00 
          -3.8137074207e-20 -2.5621916179e-05 0.0000000000e+00 
          1.9551483925e-18 -2.5036729605e-05 0.0000000000e+00 
          -7.5220775190e-21 -2.4689752837e-05 0.0000000000e+00 
          -3.2285591364e-18 -2.5163384980e-05 0.0000000000e+00 
          4.1356369648e-18 -2.5284492589e-05 0.0000000000e+00 
          -5.4102473981e-18 -2.5011804505e-05 0.0000000000e+00 
          4.5616275496e-18 -2.4741819969e-05 0.0000000000e+00 
          -2.6321179753e-18 -2.5324744067e-05 0.0000000000e+00 
          -2.9095617102e-18 -2.5251982645e-05 0.0000000000e+00 
          4.3241755661e-18 -2.4577636927e-05 0.0000000000e+00 
          -5.8777903449e-18 -2.5302468501e-05 0.0000000000e+00 
          5.3030779882e-18 -2.5323023941e-05 0.0000000000e+00 
          2.8972858472e-18 -2.4560663876e-05 0.0000000000e+00 
          -2.9981211640e-18 -2.5295131192e-05 0.0000000000e+00 
          -8.2629724214e-19 -2.5312303793e-05 0.0000000000e+00 
        </DataArray>
        <DataArray type="Float64" Name="Displacement" NumberOfComponents="3" format="ascii">
          5.2361659205e-21 -1.5841923406e-05 0.0000000000e+00 
          5.2361659205e-21 -1.5841923406e-05 0.0000000000e+00 
          -1.2686373826e-20 -5.5514909481e-05 0.0000000000e+00 
          -1.2686373826e-20 -5.5514909481e-05 0.0000000000e+00 
          0.0000000000e+00 0.0000000000e+00 0.0000000000e+00 
          0.0000000000e+00 0.0000000000e+00 0.0000000000e+00 
          1.0651712836e-20 -1.7706506561e-05 0.0000000000e+00 
          -3.4822063170e-21 -1.9531674579e-05 0.0000000000e+00 
          8.8557607403e-21 -2.1315782748e-05 0.0000000000e+00 
          -6.4306148525e-22 -2.3062678783e-05 0.0000000000e+00 
          6.9631360436e-21 -2.4779359387e-05 0.0000000000e+00 
          7.7260797057e-21 -2.6470183102e-05 0.0000000000e+00 
          -9.6100790823e-22 -2.8134304186e-05 0.0000000000e+00 
          1.1946961204e-20 -2.9766184655e-05 0.0000000000e+00 
          5.3815961812e-21 -3.1361016841e-05 0.0000000000e+00 
          -2.7010290712e-22 -3.2916527559e-05 0.0000000000e+00 
          4.7319360273e-21 -3.4431636862e-05 0.0000000000e+00 
          -5.1551856378e-21 -3.5902649012e-05 0.0000000000e+00 
          1.4804525621e-20 -3.7323676440e-05 0.0000000000e+00 
          1.4634194601e-20 -3.8691802146e-05 0.0000000000e+00 
          1.3638690017e-20 -4.0007498530e-05 0.0000000000e+00 
          1.0056644202e-20 -4.1272843225e-05 0.0000000000e+00 
          2.0843199922e-20 -4.2485168614e-05 0.0000000000e+00 
          -8.2199330619e-21 -4.3642332353e-05 0.0000000000e+00 
          5.3694304136e-21 -4.4744710950e-05 0.0000000000e+00 
          -6.1500056962e-21 -4.5794838628e-05 0.0000000000e+00 
          5.1311434736e-21 -4.6792445170e-05 0.0000000000e+00 
          4.8565007672e-21 -4.7734206612e-05 0.0000000000e+00 
          5.6264927863e-21 -4.8621815925e-05 0.0000000000e+00 
          5.5815377793e-21 -4.9456729747e-05 0.0000000000e+00 
          1.4636541271e-20 -5.0238373203e-05 0.0000000000e+00 
          1.7332786539e-20 -5.0964953198e-05 0.0000000000e+00 
          7.0328775488e-22 -5.1637030265e-05 0.0000000000e+00 
          1.1981158952e-20 -5.2257339920e-05 0.0000000000e+00 
          5.1599322499e-21 -5.2822964997e-05 0.0000000000e+00 
          6.6631654581e-21 -5.3333419363e-05 0.0000000000e+00 
          -5.3043144280e-21 -5.3791713656e-05 0.0000000000e+00 
          1.6513325674e-20 -5.4195908403e-05 0.0000000000e+00 
          -2.9079486706e-21 -5.4545342784e-05 0.0000000000e+00 
          6.5712933491e-21 -5.4841624394e-05 0.0000000000e+00 
          1.4456766267e-20 -5.5084151354e-05 0.0000000000e+00 
          3.9670293835e-21 -5.5272520132e-05 0.0000000000e+00 
          2.6381245025e-20 -5.5407013849e-05 0.0000000000e+00 
          2.8163671544e-20 -5.5487851339e-05 0.0000000000e+00 
          1.0651712836e-20 -1.7706506561e-05 0.0000000000e+00 
          -3.4822063170e-21 -1.9531674579e-05 0.0000000000e+00 
          8.8557607403e-21 -2.1315782748e-05 0.0000000000e+00 
          -6.4306148525e-22 -2.3062678783e-05 0.0000000000e+00 
          6.9631360436e-21 -2.4779359387e-05 0.0000000000e+00 
          7.7260797057e-21 -2.6470183102e-05 0.0000000000e+00 
          -9.6100790823e-22 -2.8134304186e-05 0.0000000000e+00 
          1.1946961204e-20 -2.9766184655e-05 0.0000000000e+00 
          5.3815961812e-21 -3.1361016841e-05 0.0000000000e+00 
          -2.7010290712e-22 -3.2916527559e-05 0.0000000000e+00 
          4.7319360273e-21 -3.4431636862e-05 0.0000000000e+00 
          -5.1551856378e-21 -3.5902649012e-05 0.0000000000e+00 
          1.4804525621e-20 -3.7323676440e-05 0.0000000000e+00 
          1.4634194601e-20 -3.8691802146e-05 0.0000000000e+00 
          1.3638690017e-20 -4.0007498530e-05 0.0000000000e+00 
          1.0056644202e-20 -4.1272843225e-05 0.0000000000e+00 
          2.0843199922e-20 -4.2485168614e-05 0.0000000000e+00 
          -8.2199330619e-21 -4.3642332353e-05 0.0000000000e+00 
          5.3694304136e-21 -4.4744710950e-05 0.0000000000e+00 
          -6.1500056962e-21 -4.5794838628e-05 0.0000000000e+00 
          5.1311434736e-21 -4.6792445170e-05 0.0000000000e+00 
          4.8565007672e-21 -4.7734206612e-05 0.0000000000e+00 
          5.6264927863e-21 -4.8621815925e-05 0.0000000000e+00 
          5.5815377793e-21 -4.9456729747e-05 0.0000000000e+00 
          1.4636541271e-20 -5.0238373203e-05 0.0000000000e+00 
          1.7332786539e-20 -5.0964953198e-05 0.0000000000e+00 
          7.0328775488e-22 -5.1637030265e-05 0.0000000000e+00 
          1.1981158952e-20 -5.2257339920e-05 0.0000000000e+00 
          5.1599322499e-21 -5.2822964997e-05 0.0000000000e+00 
          6.6631654581e-21 -5.3333419363e-05 0.0000000000e+00 
          -5.3043144280e-21 -5.3791713656e-05 0.0000000000e+00 
          1.6513325674e-20 -5.4195908403e-05 0.0000000000e+00 
          -2.9079486706e-21 -5.4545342784e-05 0.0000000000e+00 
          6.5712933491e-21 -5.4841624394e-05 0.0000000000e+00 
          1.4456766267e-20 -5.5084151354e-05 0.0000000000e+00 
          3.9670293835e-21 -5.5272520132e-05 0.0000000000e+00 
          2.6381245025e-20 -5.5407013849e-05 0.0000000000e+00 
          2.8163671544e-20 -5.5487851339e-05 0.0000000000e+00 
        </DataArray>
        <DataArray type="Float64" Name="Acceleration" NumberOfComponents="3" format="ascii">
          -1.7107652219e-16 4.4956755702e-04 0.0000000000e+00 
          -1.7107652219e-16 4.4956755702e-04 0.0000000000e+00 
          5.0863887629e-15 4.1645038197e-03 0.0000000000e+00 
          5.0863887629e-15 4.1645038197e-03 0.0000000000e+00 
          0.0000000000e+00 0.0000000000e+00 0.0000000000e+00 
          0.0000000000e+00 0.0000000000e+00 0.0000000000e+00 
          -1.5363123813e-15 1.5152989758e-03 0.0000000000e+00 
          2.0109393038e-15 1.8112695054e-03 0.0000000000e+00 
          -2.3349681513e-15 1.1187313323e-03 0.0000000000e+00 
          2.1182807862e-15 -1.4252428485e-04 0.0000000000e+00 
          -3.9583994483e-16 -9.2795099978e-04 0.0000000000e+00 
          -1.0376491583e-15 -7.7593145024e-04 0.0000000000e+00 
          1.7680513936e-15 2.2281541852e-04 0.0000000000e+00 
          -1.6707088344e-15 1.0887825152e-03 0.0000000000e+00 
          -2.3871061727e-16 1.4984195521e-03 0.0000000000e+00 
          1.0106976196e-15 1.6926798666e-03 0.0000000000e+00 
          -8.8743688592e-16 2.3593769024e-03 0.0000000000e+00 
          2.7439839534e-15 3.4199797718e-03 0.0000000000e+00 
          -2.3748763483e-15 3.9456349702e-03 0.0000000000e+00 
          1.5780245450e-17 3.8605065569e-03 0.0000000000e+00 
          8.6232872550e-16 3.4858183078e-03 0.0000000000e+00 
          1.5143435612e-16 3.9671267075e-03 0.0000000000e+00 
          -3.8035355160e-15 4.3528826459e-03 0.0000000000e+00 
          4.1411892528e-15 4.2850346762e-03 0.0000000000e+00 
          -1.6610546302e-15 3.8281176543e-03 0.0000000000e+00 
          1.5632931508e-15 3.8773038102e-03 0.0000000000e+00 
          -1.8101099258e-15 4.4760433004e-03 0.0000000000e+00 
          1.5822791449e-15 4.1709632147e-03 0.0000000000e+00 
          -7.2738361894e-16 3.9082817747e-03 0.0000000000e+00 
          9.2553435968e-16 4.0122677437e-03 0.0000000000e+00 
          -3.0088667042e-16 4.3351887384e-03 0.0000000000e+00 
          -2.7875360731e-15 4.2341786347e-03 0.0000000000e+00 
          3.1947270891e-15 3.7412275384e-03 0.0000000000e+00 
          -1.4214672227e-15 4.2667865997e-03 0.0000000000e+00 
          8.0149198474e-16 4.3546545483e-03 0.0000000000e+00 
          -1.2262985370e-15 3.8119868254e-03 0.0000000000e+00 
          3.0050175537e-15 4.1614875185e-03 0.0000000000e+00 
          -3.9724903348e-15 4.2804943378e-03 0.0000000000e+00 
          1.4572507069e-15 3.9909629872e-03 0.0000000000e+00 
          1.5731638212e-15 4.0993357268e-03 0.0000000000e+00 
          -1.6062431046e-15 4.1720540996e-03 0.0000000000e+00 
          2.1129105205e-15 4.1210091981e-03 0.0000000000e+00 
          -1.2459142643e-15 4.0816373591e-03 0.0000000000e+00 
          -3.0560861292e-15 4.1037864973e-03 0.0000000000e+00 
          -1.5363123813e-15 1.5152989758e-03 0.0000000000e+00 
          2.0109393038e-15 1.8112695054e-03 0.0000000000e+00 
          -2.3349681513e-15 1.1187313323e-03 0.0000000000e+00 
          2.1182807862e-15 -1.4252428485e-04 0.0000000000e+00 
          -3.9583994483e-16 -9.2795099978e-04 0.0000000000e+00 
          -1.0376491583e-15 -7.7593145024e-04 0.0000000000e+00 
          1.7680513936e-15 2.2281541852e-04 0.0000000000e+00 
          -1.6707088344e-15 1.0887825152e-03 0.0000000000e+00 
          -2.3871061727e-16 1.4984195521e-03 0.0000000000e+00 
          1.0106976196e-15 1.6926798666e-03 0.0000000000e+00 
          -8.8743688592e-16 2.3593769024e-03 0.0000000000e+00 
          2.7439839534e-15 3.4199797718e-03 0.0000000000e+00 
          -2.3748763483e-15 3.9456349702e-03 0.0000000000e+00 
          1.5780245450e-17 3.8605065569e-03 0.0000000000e+00 
          8.6232872550e-16 3.4858183078e-03 0.0000000000e+00 
          1.5143435612e-16 3.9671267075e-03 0.0000000000e+00 
          -3.8035355160e-15 4.3528826459e-03 0.0000000000e+00 
          4.1411892528e-15 4.2850346762e-03 0.0000000000e+00 
          -1.6610546302e-15 3.8281176543e-03 0.0000000000e+00 
          1.5632931508e-15 3.8773038102e-03 0.0000000000e+00 
          -1.8101099258e-15 4.4760433004e-03 0.0000000000e+00 
          1.5822791449e-15 4.1709632147e-03 0.0000000000e+00 
          -7.2738361894e-16 3.9082817747e-03 0.0000000000e+00 
          9.2553435968e-16 4.0122677437e-03 0.0000000000e+00 
          -3.0088667042e-16 4.3351887384e-03 0.0000000000e+00 
          -2.7875360731e-15 4.2341786347e-03 0.0000000000e+00 
          3.1947270891e-15 3.7412275384e-03 0.0000000000e+00 
          -1.4214672227e-15 4.2667865997e-03 0.0000000000e+00 
          8.0149198474e-16 4.3546545483e-03 0.0000000000e+00 
          -1.2262985370e-15 3.8119868254e-03 0.0000000000e+00 
          3.0050175537e-15 4.1614875185e-03 0.0000000000e+00 
          -3.9724903348e-15 4.2804943378e-03 0.0000000000e+00 
          1.4572507069e-15 3.9909629872e-03 0.0000000000e+00 
          1.5731638212e-15 4.0993357268e-03 0.0000000000e+00 
          -1.6062431046e-15 4.1720540996e-03 0.0000000000e+00 
          2.1129105205e-15 4.1210091981e-03 0.0000000000e+00 
          -1.2459142643e-15 4.0816373591e-03 0.0000000000e+00 
          -3.0560861292e-15 4.1037864973e-03 0.0000000000e+00 
        </DataArray>
        <DataArray type="Float64" Name="Reaction" NumberOfComponents="3" format="ascii">
          0.0000000000e+00 0.0000000000e+00 0.0000000000e+00 
          0.0000000000e+00 0.0000000000e+00 0.0000000000e+00 
          0.0000000000e+00 0.0000000000e+00 0.0000000000e+00 
          0.0000000000e+00 0.0000000000e+00 0.0000000000e+00 
          0.0000000000e+00 0.0000000000e+00 0.0000000000e+00 
          0.0000000000e+00 0.0000000000e+00 0.0000000000e+00 
          0.0000000000e+00 0.0000000000e+00 0.0000000000e+00 
          0.0000000000e+00 0.0000000000e+00 0.0000000000e+00 
          0.0000000000e+00 0.0000000000e+00 0.0000000000e+00 
          0.0000000000e+00 0.0000000000e+00 0.0000000000e+00 
          0.0000000000e+00 0.0000000000e+00 0.0000000000e+00 
          0.0000000000e+00 0.0000000000e+00 0.0000000000e+00 
          0.0000000000e+00 0.0000000000e+00 0.0000000000e+00 
          0.0000000000e+00 0.0000000000e+00 0.0000000000e+00 
          0.0000000000e+00 0.0000000000e+00 0.0000000000e+00 
          0.0000000000e+00 0.0000000000e+00 0.0000000000e+00 
          0.0000000000e+00 0.0000000000e+00 0.0000000000e+00 
          0.0000000000e+00 0.0000000000e+00 0.0000000000e+00 
          0.0000000000e+00 0.0000000000e+00 0.0000000000e+00 
          0.0000000000e+00 0.0000000000e+00 0.0000000000e+00 
          0.0000000000e+00 0.0000000000e+00 0.0000000000e+00 
          0.0000000000e+00 0.0000000000e+00 0.0000000000e+00 
          0.0000000000e+00 0.0000000000e+00 0.0000000000e+00 
          0.0000000000e+00 0.0000000000e+00 0.0000000000e+00 
          0.0000000000e+00 0.0000000000e+00 0.0000000000e+00 
          0.0000000000e+00 0.0000000000e+00 0.0000000000e+00 
          0.0000000000e+00 0.0000000000e+00 0.0000000000e+00 
          0.0000000000e+00 0.0000000000e+00 0.0000000000e+00 
          0.0000000000e+00 0.0000000000e+00 0.0000000000e+00 
          0.0000000000e+00 0.0000000000e+00 0.0000000000e+00 
          0.0000000000e+00 0.0000000000e+00 0.0000000000e+00 
          0.0000000000e+00 0.0000000000e+00 0.0000000000e+00 
          0.0000000000e+00 0.0000000000e+00 0.0000000000e+00 
          0.0000000000e+00 0.0000000000e+00 0.0000000000e+00 
          0.0000000000e+00 0.0000000000e+00 0.0000000000e+00 
          0.0000000000e+00 0.0000000000e+00 0.0000000000e+00 
          0.0000000000e+00 0.0000000000e+00 0.0000000000e+00 
          0.0000000000e+00 0.0000000000e+00 0.0000000000e+00 
          0.0000000000e+00 0.0000000000e+00 0.0000000000e+00 
          0.0000000000e+00 0.0000000000e+00 0.0000000000e+00 
          0.0000000000e+00 0.0000000000e+00 0.0000000000e+00 
          0.0000000000e+00 0.0000000000e+00 0.0000000000e+00 
          0.0000000000e+00 0.0000000000e+00 0.0000000000e+00 
          0.0000000000e+00 0.0000000000e+00 0.0000000000e+00 
          0.0000000000e+00 0.0000000000e+00 0.0000000000e+00 
          0.0000000000e+00 0.0000000000e+00 0.0000000000e+00 
          0.0000000000e+00 0.0000000000e+00 0.0000000000e+00 
          0.0000000000e+00 0.0000000000e+00 0.0000000000e+00 
          0.0000000000e+00 0.0000000000e+00 0.0000000000e+00 
          0.0000000000e+00 0.0000000000e+00 0.0000000000e+00 
          0.0000000000e+00 0.0000000000e+00 0.0000000000e+00 
          0.0000000000e+00 0.0000000000e+00 0.0000000000e+00 
          0.0000000000e+00 0.0000000000e+00 0.0000000000e+00 
          0.0000000000e+00 0.0000000000e+00 0.0000000000e+00 
          0.0000000000e+00 0.0000000000e+00 0.0000000000e+00 
          0.0000000000e+00 0.0000000000e+00 0.0000000000e+00 
          0.0000000000e+00 0.0000000000e+00 0.0000000000e+00 
          0.0000000000e+00 0.0000000000e+00 0.0000000000e+00 
          0.0000000000e+00 0.0000000000e+00 0.0000000000e+00 
          0.0000000000e+00 0.0000000000e+00 0.0000000000e+00 
          0.0000000000e+00 0.0000000000e+00 0.0000000000e+00 
          0.0000000000e+00 0.0000000000e+00 0.0000000000e+00 
          0.0000000000e+00 0.0000000000e+00 0.0000000000e+00 
          0.0000000000e+00 0.0000000000e+00 0.0000000000e+00 
          0.0000000000e+00 0.0000000000e+00 0.0000000000e+00 
          0.0000000000e+00 0.0000000000e+00 0.0000000000e+00 
          0.0000000000e+00 0.0000000000e+00 0.0000000000e+00 
          0.0000000000e+00 0.0000000000e+00 0.0000000000e+00 
          0.0000000000e+00 0.0000000000e+00 0.0000000000e+00 
          0.0000000000e+00 0.0000000000e+00 0.0000000000e+00 
          0.0000000000e+00 0.0000000000e+00 0.0000000000e+00 
          0.0000000000e+00 0.0000000000e+00 0.0000000000e+00 
          0.0000000000e+00 0.0000000000e+00 0.0000000000e+00 
          0.0000000000e+00 0.0000000000e+00 0.0000000000e+00 
          0.0000000000e+00 0.0000000000e+00 0.0000000000e+00 
          0.0000000000e+00 0.0000000000e+00 0.0000000000e+00 
          0.0000000000e+00 0.0000000000e+00 0.0000000000e+00 
          0.0000000000e+00 0.0000000000e+00 0.0000000000e+00 
          0.0000000000e+00 0.0000000000e+00 0.0000000000e+00 
          0.0000000000e+00 0.0000000000e+00 0.0000000000e+00 
          0.0000000000e+00 0.0000000000e+00 0.0000000000e+00 
          0.0000000000e+00 0.0000000000e+00 0.0000000000e+00 
        </DataArray>
      </PointData>
      <CellData>
        <DataArray type="Int64" Name="ElementTag" format="ascii">
          0
        </DataArray>
      </CellData>
    </Piece>
  </UnstructuredGrid>
</VTKFile>
