<?xml version="1.0"?>
<VTKFile type="UnstructuredGrid" version="1.0" byte_order="LittleEndian" compressor="vtkZLibDataCompressor">
  <UnstructuredGrid>
    <Piece NumberOfPoints="80" NumberOfCells="39">
      <Points>
        <DataArray type="Float64" Name="Points" NumberOfComponents="3" format="ascii">
          0.0000000000e+00 0.0000000000e+00 0.0000000000e+00 
          2.5000000000e-01 0.0000000000e+00 0.0000000000e+00 
          2.5000000000e-01 3.0000000000e+01 0.0000000000e+00 
          0.0000000000e+00 3.0000000000e+01 0.0000000000e+00 
          2.5000000000e-01 7.6923100000e-01 0.0000000000e+00 
          2.5000000000e-01 1.5384620000e+00 0.0000000000e+00 
          2.5000000000e-01 2.3076920000e+00 0.0000000000e+00 
          2.5000000000e-01 3.0769230000e+00 0.0000000000e+00 
          2.5000000000e-01 3.8461540000e+00 0.0000000000e+00 
          2.5000000000e-01 4.6153850000e+00 0.0000000000e+00 
          2.5000000000e-01 5.3846150000e+00 0.0000000000e+00 
          2.5000000000e-01 6.1538460000e+00 0.0000000000e+00 
          2.5000000000e-01 6.9230770000e+00 0.0000000000e+00 
          2.5000000000e-01 7.6923080000e+00 0.0000000000e+00 
          2.5000000000e-01 8.4615380000e+00 0.0000000000e+00 
          2.5000000000e-01 9.2307690000e+00 0.0000000000e+00 
          2.5000000000e-01 1.0000000000e+01 0.0000000000e+00 
          2.5000000000e-01 1.0769231000e+01 0.0000000000e+00 
          2.5000000000e-01 1.1538462000e+01 0.0000000000e+00 
          2.5000000000e-01 1.2307692000e+01 0.0000000000e+00 
          2.5000000000e-01 1.3076923000e+01 0.0000000000e+00 
          2.5000000000e-01 1.3846154000e+01 0.0000000000e+00 
          2.5000000000e-01 1.4615385000e+01 0.0000000000e+00 
          2.5000000000e-01 1.5384615000e+01 0.0000000000e+00 
          2.5000000000e-01 1.6153846000e+01 0.0000000000e+00 
          2.5000000000e-01 1.6923077000e+01 0.0000000000e+00 
          2.5000000000e-01 1.7692308000e+01 0.0000000000e+00 
          2.5000000000e-01 1.8461538000e+01 0.0000000000e+00 
          2.5000000000e-01 1.9230769000e+01 0.0000000000e+00 
          2.5000000000e-01 2.0000000000e+01 0.0000000000e+00 
          2.5000000000e-01 2.0769231000e+01 0.0000000000e+00 
          2.5000000000e-01 2.1538462000e+01 0.0000000000e+00 
          2.5000000000e-01 2.2307692000e+01 0.0000000000e+00 
          2.5000000000e-01 2.3076923000e+01 0.0000000000e+00 
          2.5000000000e-01 2.3846154000e+01 0.0000000000e+00 
          2.5000000000e-01 2.4615385000e+01 0.0000000000e+00 
          2.5000000000e-01 2.5384615000e+01 0.0000000000e+00 
          2.5000000000e-01 2.6153846000e+01 0.0000000000e+00 
          2.5000000000e-01 2.6923077000e+01 0.0000000000e+00 
          2.5000000000e-01 2.7692308000e+01 0.0000000000e+00 
          2.5000000000e-01 2.8461538000e+01 0.0000000000e+00 
          2.5000000000e-01 2.9230769000e+01 0.0000000000e+00 
          0.0000000000e+00 7.6923100000e-01 0.0000000000e+00 
          0.0000000000e+00 1.5384620000e+00 0.0000000000e+00 
          0.0000000000e+00 2.3076920000e+00 0.0000000000e+00 
          0.0000000000e+00 3.0769230000e+00 0.0000000000e+00 
          0.0000000000e+00 3.8461540000e+00 0.0000000000e+00 
          0.0000000000e+00 4.6153850000e+00 0.0000000000e+00 
          0.0000000000e+00 5.3846150000e+00 0.0000000000e+00 
          0.0000000000e+00 6.1538460000e+00 0.0000000000e+00 
          0.0000000000e+00 6.9230770000e+00 0.0000000000e+00 
          0.0000000000e+00 7.6923080000e+00 0.0000000000e+00 
          0.0000000000e+00 8.4615380000e+00 0.0000000000e+00 
          0.0000000000e+00 9.2307690000e+00 0.0000000000e+00 
          0.0000000000e+00 1.0000000000e+01 0.0000000000e+00 
          0.0000000000e+00 1.0769231000e+01 0.0000000000e+00 
          0.0000000000e+00 1.1538462000e+01 0.0000000000e+00 
          0.0000000000e+00 1.2307692000e+01 0.0000000000e+00 
          0.0000000000e+00 1.3076923000e+01 0.0000000000e+00 
          0.0000000000e+00 1.3846154000e+01 0.0000000000e+00 
          0.0000000000e+00 1.4615385000e+01 0.0000000000e+00 
          0.0000000000e+00 1.5384615000e+01 0.0000000000e+00 
          0.0000000000e+00 1.6153846000e+01 0.0000000000e+00 
          0.0000000000e+00 1.6923077000e+01 0.0000000000e+00 
          0.0000000000e+00 1.7692308000e+01 0.0000000000e+00 
          0.0000000000e+00 1.8461538000e+01 0.0000000000e+00 
          0.0000000000e+00 1.9230769000e+01 0.0000000000e+00 
          0.0000000000e+00 2.0000000000e+01 0.0000000000e+00 
          0.0000000000e+00 2.0769231000e+01 0.0000000000e+00 
          0.0000000000e+00 2.1538462000e+01 0.0000000000e+00 
          0.0000000000e+00 2.2307692000e+01 0.0000000000e+00 
          0.0000000000e+00 2.3076923000e+01 0.0000000000e+00 
          0.0000000000e+00 2.3846154000e+01 0.0000000000e+00 
          0.0000000000e+00 2.4615385000e+01 0.0000000000e+00 
          0.0000000000e+00 2.5384615000e+01 0.0000000000e+00 
          0.0000000000e+00 2.6153846000e+01 0.0000000000e+00 
          0.0000000000e+00 2.6923077000e+01 0.0000000000e+00 
          0.0000000000e+00 2.7692308000e+01 0.0000000000e+00 
          0.0000000000e+00 2.8461538000e+01 0.0000000000e+00 
          0.0000000000e+00 2.9230769000e+01 0.0000000000e+00 
        </DataArray>
      </Points>
      <Cells>
        <DataArray type="Int64" Name="connectivity" format="ascii">
          0 1 4 42 
          42 4 5 43 
          43 5 6 44 
          44 6 7 45 
          45 7 8 46 
          46 8 9 47 
          47 9 10 48 
          48 10 11 49 
          49 11 12 50 
          50 12 13 51 
          51 13 14 52 
          52 14 15 53 
          53 15 16 54 
          54 16 17 55 
          55 17 18 56 
          56 18 19 57 
          57 19 20 58 
          58 20 21 59 
          59 21 22 60 
          60 22 23 61 
          61 23 24 62 
          62 24 25 63 
          63 25 26 64 
          64 26 27 65 
          65 27 28 66 
          66 28 29 67 
          67 29 30 68 
          68 30 31 69 
          69 31 32 70 
          70 32 33 71 
          71 33 34 72 
          72 34 35 73 
          73 35 36 74 
          74 36 37 75 
          75 37 38 76 
          76 38 39 77 
          77 39 40 78 
          78 40 41 79 
          79 41 2 3 
        </DataArray>
        <DataArray type="Int64" Name="offsets" format="ascii">
          4
          8
          12
          16
          20
          24
          28
          32
          36
          40
          44
          48
          52
          56
          60
          64
          68
          72
          76
          80
          84
          88
          92
          96
          100
          104
          108
          112
          116
          120
          124
          128
          132
          136
          140
          144
          148
          152
          156
        </DataArray>
        <DataArray type="Int64" Name="types" format="ascii">
          9
          9
          9
          9
          9
          9
          9
          9
          9
          9
          9
          9
          9
          9
          9
          9
          9
          9
          9
          9
          9
          9
          9
          9
          9
          9
          9
          9
          9
          9
          9
          9
          9
          9
          9
          9
          9
          9
          9
        </DataArray>
      </Cells>
      <PointData>
        <DataArray type="Int64" Name="NodeTag" format="ascii">
          1
          2
          3
          4
          7
          8
          9
          10
          11
          12
          13
          14
          15
          16
          17
          18
          19
          20
          21
          22
          23
          24
          25
          26
          27
          28
          29
          30
          31
          32
          33
          34
          35
          36
          37
          38
          39
          40
          41
          42
          43
          44
          45
          46
          47
          48
          49
          50
          51
          52
          53
          54
          55
          56
          57
          58
          59
          60
          61
          62
          63
          64
          65
          66
          67
          68
          69
          70
          71
          72
          73
          74
          75
          76
          77
          78
          79
          80
          81
          82
        </DataArray>
        <DataArray type="Float64" Name="Velocity" NumberOfComponents="3" format="ascii">
          1.6940139443e-02 -7.8589720314e-05 0.0000000000e+00 
          1.6940139443e-02 -7.8589720314e-05 0.0000000000e+00 
          -2.3554044657e-01 -7.8497853453e-05 0.0000000000e+00 
          -2.3554044657e-01 -7.8497853453e-05 0.0000000000e+00 
          6.7997726693e-03 -7.8621877225e-05 0.0000000000e+00 
          -3.3311944406e-03 -7.8671917002e-05 0.0000000000e+00 
          -1.3435525644e-02 -7.8714472913e-05 0.0000000000e+00 
          -2.3496008979e-02 -7.8741570907e-05 0.0000000000e+00 
          -3.3495547943e-02 -7.8719163307e-05 0.0000000000e+00 
          -4.3417196684e-02 -7.8602015339e-05 0.0000000000e+00 
          -5.3244138866e-02 -7.8583822573e-05 0.0000000000e+00 
          -6.2959799416e-02 -7.8622986192e-05 0.0000000000e+00 
          -7.2547758997e-02 -7.8473474222e-05 0.0000000000e+00 
          -8.1991920126e-02 -7.8613502102e-05 0.0000000000e+00 
          -9.1276427159e-02 -7.8611614121e-05 0.0000000000e+00 
          -1.0038577359e-01 -7.8292970136e-05 0.0000000000e+00 
          -1.0930475248e-01 -7.8625776640e-05 0.0000000000e+00 
          -1.1801850356e-01 -7.8423520245e-05 0.0000000000e+00 
          -1.2651264409e-01 -7.8187980044e-05 0.0000000000e+00 
          -1.3477311210e-01 -7.8223915317e-05 0.0000000000e+00 
          -1.4278631375e-01 -7.8277927449e-05 0.0000000000e+00 
          -1.5053909171e-01 -7.8354524019e-05 0.0000000000e+00 
          -1.5801878999e-01 -7.8248744360e-05 0.0000000000e+00 
          -1.6521324591e-01 -7.8264327361e-05 0.0000000000e+00 
          -1.7211075855e-01 -7.8405630134e-05 0.0000000000e+00 
          -1.7870017757e-01 -7.8389023391e-05 0.0000000000e+00 
          -1.8497090700e-01 -7.8392196725e-05 0.0000000000e+00 
          -1.9091286812e-01 -7.8368418245e-05 0.0000000000e+00 
          -1.9651660265e-01 -7.8532651280e-05 0.0000000000e+00 
          -2.0177313782e-01 -7.8642836529e-05 0.0000000000e+00 
          -2.0667413602e-01 -7.8261848063e-05 0.0000000000e+00 
          -2.1121184338e-01 -7.8522926707e-05 0.0000000000e+00 
          -2.1537911183e-01 -7.8479823575e-05 0.0000000000e+00 
          -2.1916940691e-01 -7.8287212527e-05 0.0000000000e+00 
          -2.2257673235e-01 -7.8363567649e-05 0.0000000000e+00 
          -2.2559578868e-01 -7.8299256466e-05 0.0000000000e+00 
          -2.2822185256e-01 -7.8319996703e-05 0.0000000000e+00 
          -2.3045087756e-01 -7.8410283877e-05 0.0000000000e+00 
          -2.3227935495e-01 -7.8382567904e-05 0.0000000000e+00 
          -2.3370440949e-01 -7.8341742457e-05 0.0000000000e+00 
          -2.3472389412e-01 -7.8375562339e-05 0.0000000000e+00 
          -2.3533622759e-01 -7.8454770338e-05 0.0000000000e+00 
          6.7997726693e-03 -7.8621877225e-05 0.0000000000e+00 
          -3.3311944406e-03 -7.8671917002e-05 0.0000000000e+00 
          -1.3435525644e-02 -7.8714472913e-05 0.0000000000e+00 
          -2.3496008979e-02 -7.8741570907e-05 0.0000000000e+00 
          -3.3495547943e-02 -7.8719163307e-05 0.0000000000e+00 
          -4.3417196684e-02 -7.8602015339e-05 0.0000000000e+00 
          -5.3244138866e-02 -7.8583822573e-05 0.0000000000e+00 
          -6.2959799416e-02 -7.8622986192e-05 0.0000000000e+00 
          -7.2547758997e-02 -7.8473474222e-05 0.0000000000e+00 
          -8.1991920126e-02 -7.8613502102e-05 0.0000000000e+00 
          -9.1276427159e-02 -7.8611614121e-05 0.0000000000e+00 
          -1.0038577359e-01 -7.8292970136e-05 0.0000000000e+00 
          -1.0930475248e-01 -7.8625776640e-05 0.0000000000e+00 
          -1.1801850356e-01 -7.8423520245e-05 0.0000000000e+00 
          -1.2651264409e-01 -7.8187980044e-05 0.0000000000e+00 
          -1.3477311210e-01 -7.8223915317e-05 0.0000000000e+00 
          -1.4278631375e-01 -7.8277927449e-05 0.0000000000e+00 
          -1.5053909171e-01 -7.8354524019e-05 0.0000000000e+00 
          -1.5801878999e-01 -7.8248744360e-05 0.0000000000e+00 
          -1.6521324591e-01 -7.8264327361e-05 0.0000000000e+00 
          -1.7211075855e-01 -7.8405630134e-05 0.0000000000e+00 
          -1.7870017757e-01 -7.8389023391e-05 0.0000000000e+00 
          -1.8497090700e-01 -7.8392196725e-05 0.0000000000e+00 
          -1.9091286812e-01 -7.8368418245e-05 0.0000000000e+00 
          -1.9651660265e-01 -7.8532651280e-05 0.0000000000e+00 
          -2.0177313782e-01 -7.8642836529e-05 0.0000000000e+00 
          -2.0667413602e-01 -7.8261848063e-05 0.0000000000e+00 
          -2.1121184338e-01 -7.8522926707e-05 0.0000000000e+00 
          -2.1537911183e-01 -7.8479823575e-05 0.0000000000e+00 
          -2.1916940691e-01 -7.8287212527e-05 0.0000000000e+00 
          -2.2257673235e-01 -7.8363567649e-05 0.0000000000e+00 
          -2.2559578868e-01 -7.8299256466e-05 0.0000000000e+00 
          -2.2822185256e-01 -7.8319996703e-05 0.0000000000e+00 
          -2.3045087756e-01 -7.8410283877e-05 0.0000000000e+00 
          -2.3227935495e-01 -7.8382567904e-05 0.0000000000e+00 
          -2.3370440949e-01 -7.8341742457e-05 0.0000000000e+00 
          -2.3472389412e-01 -7.8375562339e-05 0.0000000000e+00 
          -2.3533622759e-01 -7.8454770338e-05 0.0000000000e+00 
        </DataArray>
        <DataArray type="Float64" Name="Displacement" NumberOfComponents="3" format="ascii">
          3.7476242031e-03 -2.1379665247e-04 0.0000000000e+00 
          3.7476242031e-03 -2.1379665247e-04 0.0000000000e+00 
          9.1628219456e-03 -2.3761781186e-04 0.0000000000e+00 
          9.1628219456e-03 -2.3761781186e-04 0.0000000000e+00 
          4.0255567403e-03 -2.1500197838e-04 0.0000000000e+00 
          4.2965890264e-03 -2.1617636552e-04 0.0000000000e+00 
          4.5606063821e-03 -2.1731967458e-04 0.0000000000e+00 
          4.8175063576e-03 -2.1843170017e-04 0.0000000000e+00 
          5.0671967297e-03 -2.1951244762e-04 0.0000000000e+00 
          5.3095965542e-03 -2.2056196952e-04 0.0000000000e+00 
          5.5446352145e-03 -2.2158033978e-04 0.0000000000e+00 
          5.7722535759e-03 -2.2256770432e-04 0.0000000000e+00 
          5.9924017658e-03 -2.2352342103e-04 0.0000000000e+00 
          6.2050401289e-03 -2.2444747036e-04 0.0000000000e+00 
          6.4101382791e-03 -2.2534069607e-04 0.0000000000e+00 
          6.6076755928e-03 -2.2620198944e-04 0.0000000000e+00 
          6.7976394894e-03 -2.2703196985e-04 0.0000000000e+00 
          6.9800258887e-03 -2.2783105537e-04 0.0000000000e+00 
          7.1548381974e-03 -2.2859797881e-04 0.0000000000e+00 
          7.3220869760e-03 -2.2933384626e-04 0.0000000000e+00 
          7.4817900139e-03 -2.3003826596e-04 0.0000000000e+00 
          7.6339703416e-03 -2.3071149211e-04 0.0000000000e+00 
          7.7786568227e-03 -2.3135329142e-04 0.0000000000e+00 
          7.9158827066e-03 -2.3196406554e-04 0.0000000000e+00 
          8.0456859587e-03 -2.3254372404e-04 0.0000000000e+00 
          8.1681075215e-03 -2.3309173362e-04 0.0000000000e+00 
          8.2831910434e-03 -2.3360839991e-04 0.0000000000e+00 
          8.3909823321e-03 -2.3409370108e-04 0.0000000000e+00 
          8.4915288517e-03 -2.3454823176e-04 0.0000000000e+00 
          8.5848783818e-03 -2.3497088585e-04 0.0000000000e+00 
          8.6710790413e-03 -2.3536268715e-04 0.0000000000e+00 
          8.7501782167e-03 -2.3572317182e-04 0.0000000000e+00 
          8.8222219587e-03 -2.3605186644e-04 0.0000000000e+00 
          8.8872547474e-03 -2.3634992105e-04 0.0000000000e+00 
          8.9453185362e-03 -2.3661646572e-04 0.0000000000e+00 
          8.9964524471e-03 -2.3685128892e-04 0.0000000000e+00 
          9.0406920426e-03 -2.3705476495e-04 0.0000000000e+00 
          9.0780693197e-03 -2.3722677039e-04 0.0000000000e+00 
          9.1086118228e-03 -2.3736745495e-04 0.0000000000e+00 
          9.1323426581e-03 -2.3747694529e-04 0.0000000000e+00 
          9.1492800379e-03 -2.3755518347e-04 0.0000000000e+00 
          9.1594371354e-03 -2.3760214795e-04 0.0000000000e+00 
          4.0255567403e-03 -2.1500197838e-04 0.0000000000e+00 
          4.2965890264e-03 -2.1617636552e-04 0.0000000000e+00 
          4.5606063821e-03 -2.1731967458e-04 0.0000000000e+00 
          4.8175063576e-03 -2.1843170017e-04 0.0000000000e+00 
          5.0671967297e-03 -2.1951244762e-04 0.0000000000e+00 
          5.3095965542e-03 -2.2056196952e-04 0.0000000000e+00 
          5.5446352145e-03 -2.2158033978e-04 0.0000000000e+00 
          5.7722535759e-03 -2.2256770432e-04 0.0000000000e+00 
          5.9924017658e-03 -2.2352342103e-04 0.0000000000e+00 
          6.2050401289e-03 -2.2444747036e-04 0.0000000000e+00 
          6.4101382791e-03 -2.2534069607e-04 0.0000000000e+00 
          6.6076755928e-03 -2.2620198944e-04 0.0000000000e+00 
          6.7976394894e-03 -2.2703196985e-04 0.0000000000e+00 
          6.9800258887e-03 -2.2783105537e-04 0.0000000000e+00 
          7.1548381974e-03 -2.2859797881e-04 0.0000000000e+00 
          7.3220869760e-03 -2.2933384626e-04 0.0000000000e+00 
          7.4817900139e-03 -2.3003826596e-04 0.0000000000e+00 
          7.6339703416e-03 -2.3071149211e-04 0.0000000000e+00 
          7.7786568227e-03 -2.3135329142e-04 0.0000000000e+00 
          7.9158827066e-03 -2.3196406554e-04 0.0000000000e+00 
          8.0456859587e-03 -2.3254372404e-04 0.0000000000e+00 
          8.1681075215e-03 -2.3309173362e-04 0.0000000000e+00 
          8.2831910434e-03 -2.3360839991e-04 0.0000000000e+00 
          8.3909823321e-03 -2.3409370108e-04 0.0000000000e+00 
          8.4915288517e-03 -2.3454823176e-04 0.0000000000e+00 
          8.5848783818e-03 -2.3497088585e-04 0.0000000000e+00 
          8.6710790413e-03 -2.3536268715e-04 0.0000000000e+00 
          8.7501782167e-03 -2.3572317182e-04 0.0000000000e+00 
          8.8222219587e-03 -2.3605186644e-04 0.0000000000e+00 
          8.8872547474e-03 -2.3634992105e-04 0.0000000000e+00 
          8.9453185362e-03 -2.3661646572e-04 0.0000000000e+00 
          8.9964524471e-03 -2.3685128892e-04 0.0000000000e+00 
          9.0406920426e-03 -2.3705476495e-04 0.0000000000e+00 
          9.0780693197e-03 -2.3722677039e-04 0.0000000000e+00 
          9.1086118228e-03 -2.3736745495e-04 0.0000000000e+00 
          9.1323426581e-03 -2.3747694529e-04 0.0000000000e+00 
          9.1492800379e-03 -2.3755518347e-04 0.0000000000e+00 
          9.1594371354e-03 -2.3760214795e-04 0.0000000000e+00 
        </DataArray>
        <DataArray type="Float64" Name="Acceleration" NumberOfComponents="3" format="ascii">
          -6.1038045128e-01 -1.9603031546e-06 0.0000000000e+00 
          -6.1038045128e-01 -1.9603031546e-06 0.0000000000e+00 
          -6.0995616403e-01 5.7934935595e-05 0.0000000000e+00 
          -6.0995616403e-01 5.7934935595e-05 0.0000000000e+00 
          -6.2172625958e-01 -1.2175630082e-05 0.0000000000e+00 
          -6.3202855764e-01 1.2663703828e-05 0.0000000000e+00 
          -6.4132136491e-01 5.0213375166e-05 0.0000000000e+00 
          -6.4959949153e-01 4.8978268621e-05 0.0000000000e+00 
          -6.5689274841e-01 3.9504252637e-05 0.0000000000e+00 
          -6.6322831701e-01 2.5949476636e-05 0.0000000000e+00 
          -6.6861156354e-01 1.2975005420e-07 0.0000000000e+00 
          -6.7307719783e-01 1.1560122665e-04 0.0000000000e+00 
          -6.7665023148e-01 1.1912123444e-04 0.0000000000e+00 
          -6.7936448792e-01 -3.3133119606e-05 0.0000000000e+00 
          -6.8127076034e-01 1.6708402041e-04 0.0000000000e+00 
          -6.8237984187e-01 5.5254451123e-05 0.0000000000e+00 
          -6.8274747533e-01 -2.0081664430e-05 0.0000000000e+00 
          -6.8244051465e-01 2.0826723022e-04 0.0000000000e+00 
          -6.8146985357e-01 8.7792915591e-06 0.0000000000e+00 
          -6.7990617295e-01 7.9720509750e-05 0.0000000000e+00 
          -6.7781103974e-01 3.3737934620e-05 0.0000000000e+00 
          -6.7521038707e-01 7.5774108925e-05 0.0000000000e+00 
          -6.7219889186e-01 3.2601394753e-06 0.0000000000e+00 
          -6.6881030448e-01 1.9839532912e-05 0.0000000000e+00 
          -6.6510477263e-01 1.1579385632e-04 0.0000000000e+00 
          -6.6117198236e-01 6.0721819068e-05 0.0000000000e+00 
          -6.5703241112e-01 6.4545101618e-05 0.0000000000e+00 
          -6.5278105625e-01 -4.2385453703e-05 0.0000000000e+00 
          -6.4846297025e-01 1.5682401351e-04 0.0000000000e+00 
          -6.4412734837e-01 -2.7668575830e-05 0.0000000000e+00 
          -6.3985774769e-01 5.5914265724e-05 0.0000000000e+00 
          -6.3570046037e-01 1.4115552882e-04 0.0000000000e+00 
          -6.3170958298e-01 -6.5932930366e-05 0.0000000000e+00 
          -6.2792065438e-01 9.0751206040e-05 0.0000000000e+00 
          -6.2439568744e-01 1.2887039104e-04 0.0000000000e+00 
          -6.2118665274e-01 6.1375023674e-05 0.0000000000e+00 
          -6.1831401799e-01 8.3711541952e-05 0.0000000000e+00 
          -6.1582664024e-01 5.6681403660e-05 0.0000000000e+00 
          -6.1374472080e-01 3.3857550818e-05 0.0000000000e+00 
          -6.1210216837e-01 4.4285038816e-05 0.0000000000e+00 
          -6.1091920911e-01 4.8200647081e-05 0.0000000000e+00 
          -6.1019645974e-01 5.3020722592e-05 0.0000000000e+00 
          -6.2172625958e-01 -1.2175630082e-05 0.0000000000e+00 
          -6.3202855764e-01 1.2663703828e-05 0.0000000000e+00 
          -6.4132136491e-01 5.0213375166e-05 0.0000000000e+00 
          -6.4959949153e-01 4.8978268621e-05 0.0000000000e+00 
          -6.5689274841e-01 3.9504252637e-05 0.0000000000e+00 
          -6.6322831701e-01 2.5949476636e-05 0.0000000000e+00 
          -6.6861156354e-01 1.2975005420e-07 0.0000000000e+00 
          -6.7307719783e-01 1.1560122665e-04 0.0000000000e+00 
          -6.7665023148e-01 1.1912123444e-04 0.0000000000e+00 
          -6.7936448792e-01 -3.3133119606e-05 0.0000000000e+00 
          -6.8127076034e-01 1.6708402041e-04 0.0000000000e+00 
          -6.8237984187e-01 5.5254451123e-05 0.0000000000e+00 
          -6.8274747533e-01 -2.0081664430e-05 0.0000000000e+00 
          -6.8244051465e-01 2.0826723022e-04 0.0000000000e+00 
          -6.8146985357e-01 8.7792915591e-06 0.0000000000e+00 
          -6.7990617295e-01 7.9720509750e-05 0.0000000000e+00 
          -6.7781103974e-01 3.3737934620e-05 0.0000000000e+00 
          -6.7521038707e-01 7.5774108925e-05 0.0000000000e+00 
          -6.7219889186e-01 3.2601394753e-06 0.0000000000e+00 
          -6.6881030448e-01 1.9839532912e-05 0.0000000000e+00 
          -6.6510477263e-01 1.1579385632e-04 0.0000000000e+00 
          -6.6117198236e-01 6.0721819068e-05 0.0000000000e+00 
          -6.5703241112e-01 6.4545101618e-05 0.0000000000e+00 
          -6.5278105625e-01 -4.2385453703e-05 0.0000000000e+00 
          -6.4846297025e-01 1.5682401351e-04 0.0000000000e+00 
          -6.4412734837e-01 -2.7668575830e-05 0.0000000000e+00 
          -6.3985774769e-01 5.5914265724e-05 0.0000000000e+00 
          -6.3570046037e-01 1.4115552882e-04 0.0000000000e+00 
          -6.3170958298e-01 -6.5932930366e-05 0.0000000000e+00 
          -6.2792065438e-01 9.0751206040e-05 0.0000000000e+00 
          -6.2439568744e-01 1.2887039104e-04 0.0000000000e+00 
          -6.2118665274e-01 6.1375023674e-05 0.0000000000e+00 
          -6.1831401799e-01 8.3711541952e-05 0.0000000000e+00 
          -6.1582664024e-01 5.6681403660e-05 0.0000000000e+00 
          -6.1374472080e-01 3.3857550818e-05 0.0000000000e+00 
          -6.1210216837e-01 4.4285038816e-05 0.0000000000e+00 
          -6.1091920911e-01 4.8200647081e-05 0.0000000000e+00 
          -6.1019645974e-01 5.3020722592e-05 0.0000000000e+00 
        </DataArray>
        <DataArray type="Float64" Name="Reaction" NumberOfComponents="3" format="ascii">
          0.0000000000e+00 0.0000000000e+00 0.0000000000e+00 
          0.0000000000e+00 0.0000000000e+00 0.0000000000e+00 
          0.0000000000e+00 0.0000000000e+00 0.0000000000e+00 
          0.0000000000e+00 0.0000000000e+00 0.0000000000e+00 
          0.0000000000e+00 0.0000000000e+00 0.0000000000e+00 
          0.0000000000e+00 0.0000000000e+00 0.0000000000e+00 
          0.0000000000e+00 0.0000000000e+00 0.0000000000e+00 
          0.0000000000e+00 0.0000000000e+00 0.0000000000e+00 
          0.0000000000e+00 0.0000000000e+00 0.0000000000e+00 
          0.0000000000e+00 0.0000000000e+00 0.0000000000e+00 
          0.0000000000e+00 0.0000000000e+00 0.0000000000e+00 
          0.0000000000e+00 0.0000000000e+00 0.0000000000e+00 
          0.0000000000e+00 0.0000000000e+00 0.0000000000e+00 
          0.0000000000e+00 0.0000000000e+00 0.0000000000e+00 
          0.0000000000e+00 0.0000000000e+00 0.0000000000e+00 
          0.0000000000e+00 0.0000000000e+00 0.0000000000e+00 
          0.0000000000e+00 0.0000000000e+00 0.0000000000e+00 
          0.0000000000e+00 0.0000000000e+00 0.0000000000e+00 
          0.0000000000e+00 0.0000000000e+00 0.0000000000e+00 
          0.0000000000e+00 0.0000000000e+00 0.0000000000e+00 
          0.0000000000e+00 0.0000000000e+00 0.0000000000e+00 
          0.0000000000e+00 0.0000000000e+00 0.0000000000e+00 
          0.0000000000e+00 0.0000000000e+00 0.0000000000e+00 
          0.0000000000e+00 0.0000000000e+00 0.0000000000e+00 
          0.0000000000e+00 0.0000000000e+00 0.0000000000e+00 
          0.0000000000e+00 0.0000000000e+00 0.0000000000e+00 
          0.0000000000e+00 0.0000000000e+00 0.0000000000e+00 
          0.0000000000e+00 0.0000000000e+00 0.0000000000e+00 
          0.0000000000e+00 0.0000000000e+00 0.0000000000e+00 
          0.0000000000e+00 0.0000000000e+00 0.0000000000e+00 
          0.0000000000e+00 0.0000000000e+00 0.0000000000e+00 
          0.0000000000e+00 0.0000000000e+00 0.0000000000e+00 
          0.0000000000e+00 0.0000000000e+00 0.0000000000e+00 
          0.0000000000e+00 0.0000000000e+00 0.0000000000e+00 
          0.0000000000e+00 0.0000000000e+00 0.0000000000e+00 
          0.0000000000e+00 0.0000000000e+00 0.0000000000e+00 
          0.0000000000e+00 0.0000000000e+00 0.0000000000e+00 
          0.0000000000e+00 0.0000000000e+00 0.0000000000e+00 
          0.0000000000e+00 0.0000000000e+00 0.0000000000e+00 
          0.0000000000e+00 0.0000000000e+00 0.0000000000e+00 
          0.0000000000e+00 0.0000000000e+00 0.0000000000e+00 
          0.0000000000e+00 0.0000000000e+00 0.0000000000e+00 
          0.0000000000e+00 0.0000000000e+00 0.0000000000e+00 
          0.0000000000e+00 0.0000000000e+00 0.0000000000e+00 
          0.0000000000e+00 0.0000000000e+00 0.0000000000e+00 
          0.0000000000e+00 0.0000000000e+00 0.0000000000e+00 
          0.0000000000e+00 0.0000000000e+00 0.0000000000e+00 
          0.0000000000e+00 0.0000000000e+00 0.0000000000e+00 
          0.0000000000e+00 0.0000000000e+00 0.0000000000e+00 
          0.0000000000e+00 0.0000000000e+00 0.0000000000e+00 
          0.0000000000e+00 0.0000000000e+00 0.0000000000e+00 
          0.0000000000e+00 0.0000000000e+00 0.0000000000e+00 
          0.0000000000e+00 0.0000000000e+00 0.0000000000e+00 
          0.0000000000e+00 0.0000000000e+00 0.0000000000e+00 
          0.0000000000e+00 0.0000000000e+00 0.0000000000e+00 
          0.0000000000e+00 0.0000000000e+00 0.0000000000e+00 
          0.0000000000e+00 0.0000000000e+00 0.0000000000e+00 
          0.0000000000e+00 0.0000000000e+00 0.0000000000e+00 
          0.0000000000e+00 0.0000000000e+00 0.0000000000e+00 
          0.0000000000e+00 0.0000000000e+00 0.0000000000e+00 
          0.0000000000e+00 0.0000000000e+00 0.0000000000e+00 
          0.0000000000e+00 0.0000000000e+00 0.0000000000e+00 
          0.0000000000e+00 0.0000000000e+00 0.0000000000e+00 
          0.0000000000e+00 0.0000000000e+00 0.0000000000e+00 
          0.0000000000e+00 0.0000000000e+00 0.0000000000e+00 
          0.0000000000e+00 0.0000000000e+00 0.0000000000e+00 
          0.0000000000e+00 0.0000000000e+00 0.0000000000e+00 
          0.0000000000e+00 0.0000000000e+00 0.0000000000e+00 
          0.0000000000e+00 0.0000000000e+00 0.0000000000e+00 
          0.0000000000e+00 0.0000000000e+00 0.0000000000e+00 
          0.0000000000e+00 0.0000000000e+00 0.0000000000e+00 
          0.0000000000e+00 0.0000000000e+00 0.0000000000e+00 
          0.0000000000e+00 0.0000000000e+00 0.0000000000e+00 
          0.0000000000e+00 0.0000000000e+00 0.0000000000e+00 
          0.0000000000e+00 0.0000000000e+00 0.0000000000e+00 
          0.0000000000e+00 0.0000000000e+00 0.0000000000e+00 
          0.0000000000e+00 0.0000000000e+00 0.0000000000e+00 
          0.0000000000e+00 0.0000000000e+00 0.0000000000e+00 
          0.0000000000e+00 0.0000000000e+00 0.0000000000e+00 
          0.0000000000e+00 0.0000000000e+00 0.0000000000e+00 
        </DataArray>
      </PointData>
      <CellData>
        <DataArray type="Int64" Name="ElementTag" format="ascii">
          90
          91
          92
          93
          94
          95
          96
          97
          98
          99
          100
          101
          102
          103
          104
          105
          106
          107
          108
          109
          110
          111
          112
          113
          114
          115
          116
          117
          118
          119
          120
          121
          122
          123
          124
          125
          126
          127
          128
        </DataArray>
      </CellData>
    </Piece>
  </UnstructuredGrid>
</VTKFile>
