<?xml version="1.0"?>
<VTKFile type="UnstructuredGrid" version="1.0" byte_order="LittleEndian" compressor="vtkZLibDataCompressor">
  <UnstructuredGrid>
    <Piece NumberOfPoints="80" NumberOfCells="39">
      <Points>
        <DataArray type="Float64" Name="Points" NumberOfComponents="3" format="ascii">
          0.0000000000e+00 0.0000000000e+00 0.0000000000e+00 
          2.5000000000e-01 0.0000000000e+00 0.0000000000e+00 
          2.5000000000e-01 3.0000000000e+01 0.0000000000e+00 
          0.0000000000e+00 3.0000000000e+01 0.0000000000e+00 
          2.5000000000e-01 7.6923100000e-01 0.0000000000e+00 
          2.5000000000e-01 1.5384620000e+00 0.0000000000e+00 
          2.5000000000e-01 2.3076920000e+00 0.0000000000e+00 
          2.5000000000e-01 3.0769230000e+00 0.0000000000e+00 
          2.5000000000e-01 3.8461540000e+00 0.0000000000e+00 
          2.5000000000e-01 4.6153850000e+00 0.0000000000e+00 
          2.5000000000e-01 5.3846150000e+00 0.0000000000e+00 
          2.5000000000e-01 6.1538460000e+00 0.0000000000e+00 
          2.5000000000e-01 6.9230770000e+00 0.0000000000e+00 
          2.5000000000e-01 7.6923080000e+00 0.0000000000e+00 
          2.5000000000e-01 8.4615380000e+00 0.0000000000e+00 
          2.5000000000e-01 9.2307690000e+00 0.0000000000e+00 
          2.5000000000e-01 1.0000000000e+01 0.0000000000e+00 
          2.5000000000e-01 1.0769231000e+01 0.0000000000e+00 
          2.5000000000e-01 1.1538462000e+01 0.0000000000e+00 
          2.5000000000e-01 1.2307692000e+01 0.0000000000e+00 
          2.5000000000e-01 1.3076923000e+01 0.0000000000e+00 
          2.5000000000e-01 1.3846154000e+01 0.0000000000e+00 
          2.5000000000e-01 1.4615385000e+01 0.0000000000e+00 
          2.5000000000e-01 1.5384615000e+01 0.0000000000e+00 
          2.5000000000e-01 1.6153846000e+01 0.0000000000e+00 
          2.5000000000e-01 1.6923077000e+01 0.0000000000e+00 
          2.5000000000e-01 1.7692308000e+01 0.0000000000e+00 
          2.5000000000e-01 1.8461538000e+01 0.0000000000e+00 
          2.5000000000e-01 1.9230769000e+01 0.0000000000e+00 
          2.5000000000e-01 2.0000000000e+01 0.0000000000e+00 
          2.5000000000e-01 2.0769231000e+01 0.0000000000e+00 
          2.5000000000e-01 2.1538462000e+01 0.0000000000e+00 
          2.5000000000e-01 2.2307692000e+01 0.0000000000e+00 
          2.5000000000e-01 2.3076923000e+01 0.0000000000e+00 
          2.5000000000e-01 2.3846154000e+01 0.0000000000e+00 
          2.5000000000e-01 2.4615385000e+01 0.0000000000e+00 
          2.5000000000e-01 2.5384615000e+01 0.0000000000e+00 
          2.5000000000e-01 2.6153846000e+01 0.0000000000e+00 
          2.5000000000e-01 2.6923077000e+01 0.0000000000e+00 
          2.5000000000e-01 2.7692308000e+01 0.0000000000e+00 
          2.5000000000e-01 2.8461538000e+01 0.0000000000e+00 
          2.5000000000e-01 2.9230769000e+01 0.0000000000e+00 
          0.0000000000e+00 7.6923100000e-01 0.0000000000e+00 
          0.0000000000e+00 1.5384620000e+00 0.0000000000e+00 
          0.0000000000e+00 2.3076920000e+00 0.0000000000e+00 
          0.0000000000e+00 3.0769230000e+00 0.0000000000e+00 
          0.0000000000e+00 3.8461540000e+00 0.0000000000e+00 
          0.0000000000e+00 4.6153850000e+00 0.0000000000e+00 
          0.0000000000e+00 5.3846150000e+00 0.0000000000e+00 
          0.0000000000e+00 6.1538460000e+00 0.0000000000e+00 
          0.0000000000e+00 6.9230770000e+00 0.0000000000e+00 
          0.0000000000e+00 7.6923080000e+00 0.0000000000e+00 
          0.0000000000e+00 8.4615380000e+00 0.0000000000e+00 
          0.0000000000e+00 9.2307690000e+00 0.0000000000e+00 
          0.0000000000e+00 1.0000000000e+01 0.0000000000e+00 
          0.0000000000e+00 1.0769231000e+01 0.0000000000e+00 
          0.0000000000e+00 1.1538462000e+01 0.0000000000e+00 
          0.0000000000e+00 1.2307692000e+01 0.0000000000e+00 
          0.0000000000e+00 1.3076923000e+01 0.0000000000e+00 
          0.0000000000e+00 1.3846154000e+01 0.0000000000e+00 
          0.0000000000e+00 1.4615385000e+01 0.0000000000e+00 
          0.0000000000e+00 1.5384615000e+01 0.0000000000e+00 
          0.0000000000e+00 1.6153846000e+01 0.0000000000e+00 
          0.0000000000e+00 1.6923077000e+01 0.0000000000e+00 
          0.0000000000e+00 1.7692308000e+01 0.0000000000e+00 
          0.0000000000e+00 1.8461538000e+01 0.0000000000e+00 
          0.0000000000e+00 1.9230769000e+01 0.0000000000e+00 
          0.0000000000e+00 2.0000000000e+01 0.0000000000e+00 
          0.0000000000e+00 2.0769231000e+01 0.0000000000e+00 
          0.0000000000e+00 2.1538462000e+01 0.0000000000e+00 
          0.0000000000e+00 2.2307692000e+01 0.0000000000e+00 
          0.0000000000e+00 2.3076923000e+01 0.0000000000e+00 
          0.0000000000e+00 2.3846154000e+01 0.0000000000e+00 
          0.0000000000e+00 2.4615385000e+01 0.0000000000e+00 
          0.0000000000e+00 2.5384615000e+01 0.0000000000e+00 
          0.0000000000e+00 2.6153846000e+01 0.0000000000e+00 
          0.0000000000e+00 2.6923077000e+01 0.0000000000e+00 
          0.0000000000e+00 2.7692308000e+01 0.0000000000e+00 
          0.0000000000e+00 2.8461538000e+01 0.0000000000e+00 
          0.0000000000e+00 2.9230769000e+01 0.0000000000e+00 
        </DataArray>
      </Points>
      <Cells>
        <DataArray type="Int64" Name="connectivity" format="ascii">
          0 1 4 42 
          42 4 5 43 
          43 5 6 44 
          44 6 7 45 
          45 7 8 46 
          46 8 9 47 
          47 9 10 48 
          48 10 11 49 
          49 11 12 50 
          50 12 13 51 
          51 13 14 52 
          52 14 15 53 
          53 15 16 54 
          54 16 17 55 
          55 17 18 56 
          56 18 19 57 
          57 19 20 58 
          58 20 21 59 
          59 21 22 60 
          60 22 23 61 
          61 23 24 62 
          62 24 25 63 
          63 25 26 64 
          64 26 27 65 
          65 27 28 66 
          66 28 29 67 
          67 29 30 68 
          68 30 31 69 
          69 31 32 70 
          70 32 33 71 
          71 33 34 72 
          72 34 35 73 
          73 35 36 74 
          74 36 37 75 
          75 37 38 76 
          76 38 39 77 
          77 39 40 78 
          78 40 41 79 
          79 41 2 3 
        </DataArray>
        <DataArray type="Int64" Name="offsets" format="ascii">
          4
          8
          12
          16
          20
          24
          28
          32
          36
          40
          44
          48
          52
          56
          60
          64
          68
          72
          76
          80
          84
          88
          92
          96
          100
          104
          108
          112
          116
          120
          124
          128
          132
          136
          140
          144
          148
          152
          156
        </DataArray>
        <DataArray type="Int64" Name="types" format="ascii">
          9
          9
          9
          9
          9
          9
          9
          9
          9
          9
          9
          9
          9
          9
          9
          9
          9
          9
          9
          9
          9
          9
          9
          9
          9
          9
          9
          9
          9
          9
          9
          9
          9
          9
          9
          9
          9
          9
          9
        </DataArray>
      </Cells>
      <PointData>
        <DataArray type="Int64" Name="NodeTag" format="ascii">
          1
          2
          3
          4
          7
          8
          9
          10
          11
          12
          13
          14
          15
          16
          17
          18
          19
          20
          21
          22
          23
          24
          25
          26
          27
          28
          29
          30
          31
          32
          33
          34
          35
          36
          37
          38
          39
          40
          41
          42
          43
          44
          45
          46
          47
          48
          49
          50
          51
          52
          53
          54
          55
          56
          57
          58
          59
          60
          61
          62
          63
          64
          65
          66
          67
          68
          69
          70
          71
          72
          73
          74
          75
          76
          77
          78
          79
          80
          81
          82
        </DataArray>
        <DataArray type="Float64" Name="Velocity" NumberOfComponents="3" format="ascii">
          -5.3463897807e-06 -7.7843829919e-05 0.0000000000e+00 
          -5.3463897807e-06 -7.7843829919e-05 0.0000000000e+00 
          4.2998816319e-05 -7.7829391470e-05 0.0000000000e+00 
          4.2998816319e-05 -7.7829391470e-05 0.0000000000e+00 
          -3.4439014192e-06 -7.7852459249e-05 0.0000000000e+00 
          -1.5462406107e-06 -7.7838909830e-05 0.0000000000e+00 
          3.5947750920e-07 -7.7836349065e-05 0.0000000000e+00 
          2.2515238884e-06 -7.7870763116e-05 0.0000000000e+00 
          4.1407899903e-06 -7.7809025736e-05 0.0000000000e+00 
          6.0163955499e-06 -7.7869767198e-05 0.0000000000e+00 
          7.8769449837e-06 -7.7848644473e-05 0.0000000000e+00 
          9.7227300058e-06 -7.7806231191e-05 0.0000000000e+00 
          1.1540200745e-05 -7.7904026790e-05 0.0000000000e+00 
          1.3343062677e-05 -7.7787693349e-05 0.0000000000e+00 
          1.5109040760e-05 -7.7883458069e-05 0.0000000000e+00 
          1.6849500267e-05 -7.7823983161e-05 0.0000000000e+00 
          1.8558191994e-05 -7.7854319771e-05 0.0000000000e+00 
          2.0220552454e-05 -7.7843000386e-05 0.0000000000e+00 
          2.1857713826e-05 -7.7838256463e-05 0.0000000000e+00 
          2.3439335173e-05 -7.7856371710e-05 0.0000000000e+00 
          2.4980919127e-05 -7.7833755731e-05 0.0000000000e+00 
          2.6480186187e-05 -7.7851440411e-05 0.0000000000e+00 
          2.7914517286e-05 -7.7842402567e-05 0.0000000000e+00 
          2.9312627019e-05 -7.7843119483e-05 0.0000000000e+00 
          3.0641572435e-05 -7.7851400610e-05 0.0000000000e+00 
          3.1919411791e-05 -7.7834266163e-05 0.0000000000e+00 
          3.3137031706e-05 -7.7855212632e-05 0.0000000000e+00 
          3.4286874357e-05 -7.7839035659e-05 0.0000000000e+00 
          3.5379882309e-05 -7.7843803231e-05 0.0000000000e+00 
          3.6400649215e-05 -7.7854576492e-05 0.0000000000e+00 
          3.7354322023e-05 -7.7823283415e-05 0.0000000000e+00 
          3.8241199725e-05 -7.7882781842e-05 0.0000000000e+00 
          3.9052408153e-05 -7.7791123224e-05 0.0000000000e+00 
          3.9792480577e-05 -7.7901997482e-05 0.0000000000e+00 
          4.0460056142e-05 -7.7806695988e-05 0.0000000000e+00 
          4.1047956031e-05 -7.7849500715e-05 0.0000000000e+00 
          4.1562785934e-05 -7.7868986515e-05 0.0000000000e+00 
          4.2000489662e-05 -7.7811170757e-05 0.0000000000e+00 
          4.2355204350e-05 -7.7871673553e-05 0.0000000000e+00 
          4.2637459706e-05 -7.7833140963e-05 0.0000000000e+00 
          4.2836485514e-05 -7.7842422648e-05 0.0000000000e+00 
          4.2953873732e-05 -7.7857348058e-05 0.0000000000e+00 
          -3.4439014192e-06 -7.7852459249e-05 0.0000000000e+00 
          -1.5462406107e-06 -7.7838909830e-05 0.0000000000e+00 
          3.5947750920e-07 -7.7836349065e-05 0.0000000000e+00 
          2.2515238884e-06 -7.7870763116e-05 0.0000000000e+00 
          4.1407899903e-06 -7.7809025736e-05 0.0000000000e+00 
          6.0163955499e-06 -7.7869767198e-05 0.0000000000e+00 
          7.8769449837e-06 -7.7848644473e-05 0.0000000000e+00 
          9.7227300058e-06 -7.7806231191e-05 0.0000000000e+00 
          1.1540200745e-05 -7.7904026790e-05 0.0000000000e+00 
          1.3343062677e-05 -7.7787693349e-05 0.0000000000e+00 
          1.5109040760e-05 -7.7883458069e-05 0.0000000000e+00 
          1.6849500267e-05 -7.7823983161e-05 0.0000000000e+00 
          1.8558191994e-05 -7.7854319771e-05 0.0000000000e+00 
          2.0220552454e-05 -7.7843000386e-05 0.0000000000e+00 
          2.1857713826e-05 -7.7838256463e-05 0.0000000000e+00 
          2.3439335173e-05 -7.7856371710e-05 0.0000000000e+00 
          2.4980919127e-05 -7.7833755731e-05 0.0000000000e+00 
          2.6480186187e-05 -7.7851440411e-05 0.0000000000e+00 
          2.7914517286e-05 -7.7842402567e-05 0.0000000000e+00 
          2.9312627019e-05 -7.7843119483e-05 0.0000000000e+00 
          3.0641572435e-05 -7.7851400610e-05 0.0000000000e+00 
          3.1919411791e-05 -7.7834266163e-05 0.0000000000e+00 
          3.3137031706e-05 -7.7855212632e-05 0.0000000000e+00 
          3.4286874357e-05 -7.7839035659e-05 0.0000000000e+00 
          3.5379882309e-05 -7.7843803231e-05 0.0000000000e+00 
          3.6400649215e-05 -7.7854576492e-05 0.0000000000e+00 
          3.7354322023e-05 -7.7823283415e-05 0.0000000000e+00 
          3.8241199725e-05 -7.7882781842e-05 0.0000000000e+00 
          3.9052408153e-05 -7.7791123224e-05 0.0000000000e+00 
          3.9792480577e-05 -7.7901997482e-05 0.0000000000e+00 
          4.0460056142e-05 -7.7806695988e-05 0.0000000000e+00 
          4.1047956031e-05 -7.7849500715e-05 0.0000000000e+00 
          4.1562785934e-05 -7.7868986515e-05 0.0000000000e+00 
          4.2000489662e-05 -7.7811170757e-05 0.0000000000e+00 
          4.2355204350e-05 -7.7871673553e-05 0.0000000000e+00 
          4.2637459706e-05 -7.7833140963e-05 0.0000000000e+00 
          4.2836485514e-05 -7.7842422648e-05 0.0000000000e+00 
          4.2953873732e-05 -7.7857348058e-05 0.0000000000e+00 
        </DataArray>
        <DataArray type="Float64" Name="Displacement" NumberOfComponents="3" format="ascii">
          -6.5887346342e-07 -6.3727902230e-04 0.0000000000e+00 
          -6.5887346342e-07 -6.3727902230e-04 0.0000000000e+00 
          -2.5677317959e-06 -6.6085933134e-04 0.0000000000e+00 
          -2.5677317959e-06 -6.6085933134e-04 0.0000000000e+00 
          -7.4702452923e-07 -6.3847275730e-04 0.0000000000e+00 
          -8.3381535978e-07 -6.3963552783e-04 0.0000000000e+00 
          -9.1918705737e-07 -6.4076720517e-04 0.0000000000e+00 
          -1.0030396494e-06 -6.4186797452e-04 0.0000000000e+00 
          -1.0853052954e-06 -6.4293769311e-04 0.0000000000e+00 
          -1.1659206657e-06 -6.4397634152e-04 0.0000000000e+00 
          -1.2447936722e-06 -6.4498415904e-04 0.0000000000e+00 
          -1.3218750933e-06 -6.4596073881e-04 0.0000000000e+00 
          -1.3970943490e-06 -6.4690650749e-04 0.0000000000e+00 
          -1.4703770537e-06 -6.4782119447e-04 0.0000000000e+00 
          -1.5416843754e-06 -6.4870480652e-04 0.0000000000e+00 
          -1.6109366534e-06 -6.4955757832e-04 0.0000000000e+00 
          -1.6780964324e-06 -6.5037915007e-04 0.0000000000e+00 
          -1.7431005038e-06 -6.5116989789e-04 0.0000000000e+00 
          -1.8059060121e-06 -6.5192947258e-04 0.0000000000e+00 
          -1.8664634436e-06 -6.5265819389e-04 0.0000000000e+00 
          -1.9247278258e-06 -6.5335578218e-04 0.0000000000e+00 
          -1.9806628061e-06 -6.5402244484e-04 0.0000000000e+00 
          -2.0342222573e-06 -6.5465806955e-04 0.0000000000e+00 
          -2.0853783399e-06 -6.5526269184e-04 0.0000000000e+00 
          -2.1340888749e-06 -6.5583631520e-04 0.0000000000e+00 
          -2.1803271284e-06 -6.5637889970e-04 0.0000000000e+00 
          -2.2240689970e-06 -6.5689055923e-04 0.0000000000e+00 
          -2.2652716746e-06 -6.5737108411e-04 0.0000000000e+00 
          -2.3039330814e-06 -6.5782075467e-04 0.0000000000e+00 
          -2.3400095341e-06 -6.5823925596e-04 0.0000000000e+00 
          -2.3734912369e-06 -6.5862693052e-04 0.0000000000e+00 
          -2.4043676375e-06 -6.5898340887e-04 0.0000000000e+00 
          -2.4325943772e-06 -6.5930903806e-04 0.0000000000e+00 
          -2.4581941605e-06 -6.5960359891e-04 0.0000000000e+00 
          -2.4811187823e-06 -6.5986708191e-04 0.0000000000e+00 
          -2.5013825470e-06 -6.6009974377e-04 0.0000000000e+00 
          -2.5189594069e-06 -6.6030117630e-04 0.0000000000e+00 
          -2.5338453792e-06 -6.6047176967e-04 0.0000000000e+00 
          -2.5460403565e-06 -6.6061130195e-04 0.0000000000e+00 
          -2.5555232289e-06 -6.6071978406e-04 0.0000000000e+00 
          -2.5623074514e-06 -6.6079733779e-04 0.0000000000e+00 
          -2.5663741232e-06 -6.6084383319e-04 0.0000000000e+00 
          -7.4702452923e-07 -6.3847275730e-04 0.0000000000e+00 
          -8.3381535978e-07 -6.3963552783e-04 0.0000000000e+00 
          -9.1918705737e-07 -6.4076720517e-04 0.0000000000e+00 
          -1.0030396494e-06 -6.4186797452e-04 0.0000000000e+00 
          -1.0853052954e-06 -6.4293769311e-04 0.0000000000e+00 
          -1.1659206657e-06 -6.4397634152e-04 0.0000000000e+00 
          -1.2447936722e-06 -6.4498415904e-04 0.0000000000e+00 
          -1.3218750933e-06 -6.4596073881e-04 0.0000000000e+00 
          -1.3970943490e-06 -6.4690650749e-04 0.0000000000e+00 
          -1.4703770537e-06 -6.4782119447e-04 0.0000000000e+00 
          -1.5416843754e-06 -6.4870480652e-04 0.0000000000e+00 
          -1.6109366534e-06 -6.4955757832e-04 0.0000000000e+00 
          -1.6780964324e-06 -6.5037915007e-04 0.0000000000e+00 
          -1.7431005038e-06 -6.5116989789e-04 0.0000000000e+00 
          -1.8059060121e-06 -6.5192947258e-04 0.0000000000e+00 
          -1.8664634436e-06 -6.5265819389e-04 0.0000000000e+00 
          -1.9247278258e-06 -6.5335578218e-04 0.0000000000e+00 
          -1.9806628061e-06 -6.5402244484e-04 0.0000000000e+00 
          -2.0342222573e-06 -6.5465806955e-04 0.0000000000e+00 
          -2.0853783399e-06 -6.5526269184e-04 0.0000000000e+00 
          -2.1340888749e-06 -6.5583631520e-04 0.0000000000e+00 
          -2.1803271284e-06 -6.5637889970e-04 0.0000000000e+00 
          -2.2240689970e-06 -6.5689055923e-04 0.0000000000e+00 
          -2.2652716746e-06 -6.5737108411e-04 0.0000000000e+00 
          -2.3039330814e-06 -6.5782075467e-04 0.0000000000e+00 
          -2.3400095341e-06 -6.5823925596e-04 0.0000000000e+00 
          -2.3734912369e-06 -6.5862693052e-04 0.0000000000e+00 
          -2.4043676375e-06 -6.5898340887e-04 0.0000000000e+00 
          -2.4325943772e-06 -6.5930903806e-04 0.0000000000e+00 
          -2.4581941605e-06 -6.5960359891e-04 0.0000000000e+00 
          -2.4811187823e-06 -6.5986708191e-04 0.0000000000e+00 
          -2.5013825470e-06 -6.6009974377e-04 0.0000000000e+00 
          -2.5189594069e-06 -6.6030117630e-04 0.0000000000e+00 
          -2.5338453792e-06 -6.6047176967e-04 0.0000000000e+00 
          -2.5460403565e-06 -6.6061130195e-04 0.0000000000e+00 
          -2.5555232289e-06 -6.6071978406e-04 0.0000000000e+00 
          -2.5623074514e-06 -6.6079733779e-04 0.0000000000e+00 
          -2.5663741232e-06 -6.6084383319e-04 0.0000000000e+00 
        </DataArray>
        <DataArray type="Float64" Name="Acceleration" NumberOfComponents="3" format="ascii">
          1.1439142849e-04 -4.6691721606e-07 0.0000000000e+00 
          1.1439142849e-04 -4.6691721606e-07 0.0000000000e+00 
          2.4465798344e-04 -1.8116105003e-06 0.0000000000e+00 
          2.4465798344e-04 -1.8116105003e-06 0.0000000000e+00 
          1.2255988254e-04 -7.5433973893e-06 0.0000000000e+00 
          1.2785676573e-04 1.5388599098e-05 0.0000000000e+00 
          1.3688450067e-04 -1.7453866147e-05 0.0000000000e+00 
          1.4298696978e-04 8.0068507039e-06 0.0000000000e+00 
          1.4869309851e-04 1.1503322577e-05 0.0000000000e+00 
          1.5698128716e-04 -3.1847892537e-05 0.0000000000e+00 
          1.6143472606e-04 4.1940312959e-05 0.0000000000e+00 
          1.6778477035e-04 -3.5184518833e-05 0.0000000000e+00 
          1.7448707584e-04 1.3582324856e-05 0.0000000000e+00 
          1.7797767884e-04 1.2155199313e-05 0.0000000000e+00 
          1.8517196261e-04 -2.9716284587e-05 0.0000000000e+00 
          1.8853829020e-04 3.4905241439e-05 0.0000000000e+00 
          1.9423351922e-04 -3.2868486393e-05 0.0000000000e+00 
          1.9809486862e-04 3.0055712315e-05 0.0000000000e+00 
          2.0254920281e-04 -2.7730821877e-05 0.0000000000e+00 
          2.0661549567e-04 2.3004391520e-05 0.0000000000e+00 
          2.0988371423e-04 -1.4544057780e-05 0.0000000000e+00 
          2.1403985765e-04 5.6955232235e-06 0.0000000000e+00 
          2.1654240581e-04 -8.4151305785e-07 0.0000000000e+00 
          2.2035481471e-04 -1.1914825765e-06 0.0000000000e+00 
          2.2275743521e-04 5.8620746427e-06 0.0000000000e+00 
          2.2492920705e-04 -1.4664857123e-05 0.0000000000e+00 
          2.2878145373e-04 2.3015114304e-05 0.0000000000e+00 
          2.2897849041e-04 -2.7277603526e-05 0.0000000000e+00 
          2.3290947099e-04 2.9361418878e-05 0.0000000000e+00 
          2.3379209100e-04 -3.2367169476e-05 0.0000000000e+00 
          2.3474286991e-04 3.4216796398e-05 0.0000000000e+00 
          2.3873652841e-04 -2.8396916766e-05 0.0000000000e+00 
          2.3669741458e-04 1.1253805670e-05 0.0000000000e+00 
          2.4103734097e-04 1.2887132960e-05 0.0000000000e+00 
          2.3974847745e-04 -3.3374486718e-05 0.0000000000e+00 
          2.4209353519e-04 4.0142006882e-05 0.0000000000e+00 
          2.4245649037e-04 -3.0076607782e-05 0.0000000000e+00 
          2.4246396935e-04 9.8672578079e-06 0.0000000000e+00 
          2.4436600596e-04 7.8992946124e-06 0.0000000000e+00 
          2.4315305562e-04 -1.4062580942e-05 0.0000000000e+00 
          2.4485762887e-04 9.3892885305e-06 0.0000000000e+00 
          2.4408617322e-04 -1.6345898023e-06 0.0000000000e+00 
          1.2255988254e-04 -7.5433973893e-06 0.0000000000e+00 
          1.2785676573e-04 1.5388599098e-05 0.0000000000e+00 
          1.3688450067e-04 -1.7453866147e-05 0.0000000000e+00 
          1.4298696978e-04 8.0068507039e-06 0.0000000000e+00 
          1.4869309851e-04 1.1503322577e-05 0.0000000000e+00 
          1.5698128716e-04 -3.1847892537e-05 0.0000000000e+00 
          1.6143472606e-04 4.1940312959e-05 0.0000000000e+00 
          1.6778477035e-04 -3.5184518833e-05 0.0000000000e+00 
          1.7448707584e-04 1.3582324856e-05 0.0000000000e+00 
          1.7797767884e-04 1.2155199313e-05 0.0000000000e+00 
          1.8517196261e-04 -2.9716284587e-05 0.0000000000e+00 
          1.8853829020e-04 3.4905241439e-05 0.0000000000e+00 
          1.9423351922e-04 -3.2868486393e-05 0.0000000000e+00 
          1.9809486862e-04 3.0055712315e-05 0.0000000000e+00 
          2.0254920281e-04 -2.7730821877e-05 0.0000000000e+00 
          2.0661549567e-04 2.3004391520e-05 0.0000000000e+00 
          2.0988371423e-04 -1.4544057780e-05 0.0000000000e+00 
          2.1403985765e-04 5.6955232235e-06 0.0000000000e+00 
          2.1654240581e-04 -8.4151305785e-07 0.0000000000e+00 
          2.2035481471e-04 -1.1914825765e-06 0.0000000000e+00 
          2.2275743521e-04 5.8620746427e-06 0.0000000000e+00 
          2.2492920705e-04 -1.4664857123e-05 0.0000000000e+00 
          2.2878145373e-04 2.3015114304e-05 0.0000000000e+00 
          2.2897849041e-04 -2.7277603526e-05 0.0000000000e+00 
          2.3290947099e-04 2.9361418878e-05 0.0000000000e+00 
          2.3379209100e-04 -3.2367169476e-05 0.0000000000e+00 
          2.3474286991e-04 3.4216796398e-05 0.0000000000e+00 
          2.3873652841e-04 -2.8396916766e-05 0.0000000000e+00 
          2.3669741458e-04 1.1253805670e-05 0.0000000000e+00 
          2.4103734097e-04 1.2887132960e-05 0.0000000000e+00 
          2.3974847745e-04 -3.3374486718e-05 0.0000000000e+00 
          2.4209353519e-04 4.0142006882e-05 0.0000000000e+00 
          2.4245649037e-04 -3.0076607782e-05 0.0000000000e+00 
          2.4246396935e-04 9.8672578079e-06 0.0000000000e+00 
          2.4436600596e-04 7.8992946124e-06 0.0000000000e+00 
          2.4315305562e-04 -1.4062580942e-05 0.0000000000e+00 
          2.4485762887e-04 9.3892885305e-06 0.0000000000e+00 
          2.4408617322e-04 -1.6345898023e-06 0.0000000000e+00 
        </DataArray>
        <DataArray type="Float64" Name="Reaction" NumberOfComponents="3" format="ascii">
          0.0000000000e+00 0.0000000000e+00 0.0000000000e+00 
          0.0000000000e+00 0.0000000000e+00 0.0000000000e+00 
          0.0000000000e+00 0.0000000000e+00 0.0000000000e+00 
          0.0000000000e+00 0.0000000000e+00 0.0000000000e+00 
          0.0000000000e+00 0.0000000000e+00 0.0000000000e+00 
          0.0000000000e+00 0.0000000000e+00 0.0000000000e+00 
          0.0000000000e+00 0.0000000000e+00 0.0000000000e+00 
          0.0000000000e+00 0.0000000000e+00 0.0000000000e+00 
          0.0000000000e+00 0.0000000000e+00 0.0000000000e+00 
          0.0000000000e+00 0.0000000000e+00 0.0000000000e+00 
          0.0000000000e+00 0.0000000000e+00 0.0000000000e+00 
          0.0000000000e+00 0.0000000000e+00 0.0000000000e+00 
          0.0000000000e+00 0.0000000000e+00 0.0000000000e+00 
          0.0000000000e+00 0.0000000000e+00 0.0000000000e+00 
          0.0000000000e+00 0.0000000000e+00 0.0000000000e+00 
          0.0000000000e+00 0.0000000000e+00 0.0000000000e+00 
          0.0000000000e+00 0.0000000000e+00 0.0000000000e+00 
          0.0000000000e+00 0.0000000000e+00 0.0000000000e+00 
          0.0000000000e+00 0.0000000000e+00 0.0000000000e+00 
          0.0000000000e+00 0.0000000000e+00 0.0000000000e+00 
          0.0000000000e+00 0.0000000000e+00 0.0000000000e+00 
          0.0000000000e+00 0.0000000000e+00 0.0000000000e+00 
          0.0000000000e+00 0.0000000000e+00 0.0000000000e+00 
          0.0000000000e+00 0.0000000000e+00 0.0000000000e+00 
          0.0000000000e+00 0.0000000000e+00 0.0000000000e+00 
          0.0000000000e+00 0.0000000000e+00 0.0000000000e+00 
          0.0000000000e+00 0.0000000000e+00 0.0000000000e+00 
          0.0000000000e+00 0.0000000000e+00 0.0000000000e+00 
          0.0000000000e+00 0.0000000000e+00 0.0000000000e+00 
          0.0000000000e+00 0.0000000000e+00 0.0000000000e+00 
          0.0000000000e+00 0.0000000000e+00 0.0000000000e+00 
          0.0000000000e+00 0.0000000000e+00 0.0000000000e+00 
          0.0000000000e+00 0.0000000000e+00 0.0000000000e+00 
          0.0000000000e+00 0.0000000000e+00 0.0000000000e+00 
          0.0000000000e+00 0.0000000000e+00 0.0000000000e+00 
          0.0000000000e+00 0.0000000000e+00 0.0000000000e+00 
          0.0000000000e+00 0.0000000000e+00 0.0000000000e+00 
          0.0000000000e+00 0.0000000000e+00 0.0000000000e+00 
          0.0000000000e+00 0.0000000000e+00 0.0000000000e+00 
          0.0000000000e+00 0.0000000000e+00 0.0000000000e+00 
          0.0000000000e+00 0.0000000000e+00 0.0000000000e+00 
          0.0000000000e+00 0.0000000000e+00 0.0000000000e+00 
          0.0000000000e+00 0.0000000000e+00 0.0000000000e+00 
          0.0000000000e+00 0.0000000000e+00 0.0000000000e+00 
          0.0000000000e+00 0.0000000000e+00 0.0000000000e+00 
          0.0000000000e+00 0.0000000000e+00 0.0000000000e+00 
          0.0000000000e+00 0.0000000000e+00 0.0000000000e+00 
          0.0000000000e+00 0.0000000000e+00 0.0000000000e+00 
          0.0000000000e+00 0.0000000000e+00 0.0000000000e+00 
          0.0000000000e+00 0.0000000000e+00 0.0000000000e+00 
          0.0000000000e+00 0.0000000000e+00 0.0000000000e+00 
          0.0000000000e+00 0.0000000000e+00 0.0000000000e+00 
          0.0000000000e+00 0.0000000000e+00 0.0000000000e+00 
          0.0000000000e+00 0.0000000000e+00 0.0000000000e+00 
          0.0000000000e+00 0.0000000000e+00 0.0000000000e+00 
          0.0000000000e+00 0.0000000000e+00 0.0000000000e+00 
          0.0000000000e+00 0.0000000000e+00 0.0000000000e+00 
          0.0000000000e+00 0.0000000000e+00 0.0000000000e+00 
          0.0000000000e+00 0.0000000000e+00 0.0000000000e+00 
          0.0000000000e+00 0.0000000000e+00 0.0000000000e+00 
          0.0000000000e+00 0.0000000000e+00 0.0000000000e+00 
          0.0000000000e+00 0.0000000000e+00 0.0000000000e+00 
          0.0000000000e+00 0.0000000000e+00 0.0000000000e+00 
          0.0000000000e+00 0.0000000000e+00 0.0000000000e+00 
          0.0000000000e+00 0.0000000000e+00 0.0000000000e+00 
          0.0000000000e+00 0.0000000000e+00 0.0000000000e+00 
          0.0000000000e+00 0.0000000000e+00 0.0000000000e+00 
          0.0000000000e+00 0.0000000000e+00 0.0000000000e+00 
          0.0000000000e+00 0.0000000000e+00 0.0000000000e+00 
          0.0000000000e+00 0.0000000000e+00 0.0000000000e+00 
          0.0000000000e+00 0.0000000000e+00 0.0000000000e+00 
          0.0000000000e+00 0.0000000000e+00 0.0000000000e+00 
          0.0000000000e+00 0.0000000000e+00 0.0000000000e+00 
          0.0000000000e+00 0.0000000000e+00 0.0000000000e+00 
          0.0000000000e+00 0.0000000000e+00 0.0000000000e+00 
          0.0000000000e+00 0.0000000000e+00 0.0000000000e+00 
          0.0000000000e+00 0.0000000000e+00 0.0000000000e+00 
          0.0000000000e+00 0.0000000000e+00 0.0000000000e+00 
          0.0000000000e+00 0.0000000000e+00 0.0000000000e+00 
          0.0000000000e+00 0.0000000000e+00 0.0000000000e+00 
        </DataArray>
      </PointData>
      <CellData>
        <DataArray type="Int64" Name="ElementTag" format="ascii">
          90
          91
          92
          93
          94
          95
          96
          97
          98
          99
          100
          101
          102
          103
          104
          105
          106
          107
          108
          109
          110
          111
          112
          113
          114
          115
          116
          117
          118
          119
          120
          121
          122
          123
          124
          125
          126
          127
          128
        </DataArray>
      </CellData>
    </Piece>
  </UnstructuredGrid>
</VTKFile>
