<?xml version="1.0"?>
<VTKFile type="UnstructuredGrid" version="1.0" byte_order="LittleEndian" compressor="vtkZLibDataCompressor">
  <UnstructuredGrid>
    <Piece NumberOfPoints="82" NumberOfCells="1">
      <Points>
        <DataArray type="Float64" Name="Points" NumberOfComponents="3" format="ascii">
          0.0000000000e+00 0.0000000000e+00 0.0000000000e+00 
          2.5000000000e-01 0.0000000000e+00 0.0000000000e+00 
          2.5000000000e-01 3.0000000000e+01 0.0000000000e+00 
          0.0000000000e+00 3.0000000000e+01 0.0000000000e+00 
          0.0000000000e+00 -5.0000000000e+00 0.0000000000e+00 
          2.5000000000e-01 -5.0000000000e+00 0.0000000000e+00 
          2.5000000000e-01 7.6923100000e-01 0.0000000000e+00 
          2.5000000000e-01 1.5384620000e+00 0.0000000000e+00 
          2.5000000000e-01 2.3076920000e+00 0.0000000000e+00 
          2.5000000000e-01 3.0769230000e+00 0.0000000000e+00 
          2.5000000000e-01 3.8461540000e+00 0.0000000000e+00 
          2.5000000000e-01 4.6153850000e+00 0.0000000000e+00 
          2.5000000000e-01 5.3846150000e+00 0.0000000000e+00 
          2.5000000000e-01 6.1538460000e+00 0.0000000000e+00 
          2.5000000000e-01 6.9230770000e+00 0.0000000000e+00 
          2.5000000000e-01 7.6923080000e+00 0.0000000000e+00 
          2.5000000000e-01 8.4615380000e+00 0.0000000000e+00 
          2.5000000000e-01 9.2307690000e+00 0.0000000000e+00 
          2.5000000000e-01 1.0000000000e+01 0.0000000000e+00 
          2.5000000000e-01 1.0769231000e+01 0.0000000000e+00 
          2.5000000000e-01 1.1538462000e+01 0.0000000000e+00 
          2.5000000000e-01 1.2307692000e+01 0.0000000000e+00 
          2.5000000000e-01 1.3076923000e+01 0.0000000000e+00 
          2.5000000000e-01 1.3846154000e+01 0.0000000000e+00 
          2.5000000000e-01 1.4615385000e+01 0.0000000000e+00 
          2.5000000000e-01 1.5384615000e+01 0.0000000000e+00 
          2.5000000000e-01 1.6153846000e+01 0.0000000000e+00 
          2.5000000000e-01 1.6923077000e+01 0.0000000000e+00 
          2.5000000000e-01 1.7692308000e+01 0.0000000000e+00 
          2.5000000000e-01 1.8461538000e+01 0.0000000000e+00 
          2.5000000000e-01 1.9230769000e+01 0.0000000000e+00 
          2.5000000000e-01 2.0000000000e+01 0.0000000000e+00 
          2.5000000000e-01 2.0769231000e+01 0.0000000000e+00 
          2.5000000000e-01 2.1538462000e+01 0.0000000000e+00 
          2.5000000000e-01 2.2307692000e+01 0.0000000000e+00 
          2.5000000000e-01 2.3076923000e+01 0.0000000000e+00 
          2.5000000000e-01 2.3846154000e+01 0.0000000000e+00 
          2.5000000000e-01 2.4615385000e+01 0.0000000000e+00 
          2.5000000000e-01 2.5384615000e+01 0.0000000000e+00 
          2.5000000000e-01 2.6153846000e+01 0.0000000000e+00 
          2.5000000000e-01 2.6923077000e+01 0.0000000000e+00 
          2.5000000000e-01 2.7692308000e+01 0.0000000000e+00 
          2.5000000000e-01 2.8461538000e+01 0.0000000000e+00 
          2.5000000000e-01 2.9230769000e+01 0.0000000000e+00 
          0.0000000000e+00 7.6923100000e-01 0.0000000000e+00 
          0.0000000000e+00 1.5384620000e+00 0.0000000000e+00 
          0.0000000000e+00 2.3076920000e+00 0.0000000000e+00 
          0.0000000000e+00 3.0769230000e+00 0.0000000000e+00 
          0.0000000000e+00 3.8461540000e+00 0.0000000000e+00 
          0.0000000000e+00 4.6153850000e+00 0.0000000000e+00 
          0.0000000000e+00 5.3846150000e+00 0.0000000000e+00 
          0.0000000000e+00 6.1538460000e+00 0.0000000000e+00 
          0.0000000000e+00 6.9230770000e+00 0.0000000000e+00 
          0.0000000000e+00 7.6923080000e+00 0.0000000000e+00 
          0.0000000000e+00 8.4615380000e+00 0.0000000000e+00 
          0.0000000000e+00 9.2307690000e+00 0.0000000000e+00 
          0.0000000000e+00 1.0000000000e+01 0.0000000000e+00 
          0.0000000000e+00 1.0769231000e+01 0.0000000000e+00 
          0.0000000000e+00 1.1538462000e+01 0.0000000000e+00 
          0.0000000000e+00 1.2307692000e+01 0.0000000000e+00 
          0.0000000000e+00 1.3076923000e+01 0.0000000000e+00 
          0.0000000000e+00 1.3846154000e+01 0.0000000000e+00 
          0.0000000000e+00 1.4615385000e+01 0.0000000000e+00 
          0.0000000000e+00 1.5384615000e+01 0.0000000000e+00 
          0.0000000000e+00 1.6153846000e+01 0.0000000000e+00 
          0.0000000000e+00 1.6923077000e+01 0.0000000000e+00 
          0.0000000000e+00 1.7692308000e+01 0.0000000000e+00 
          0.0000000000e+00 1.8461538000e+01 0.0000000000e+00 
          0.0000000000e+00 1.9230769000e+01 0.0000000000e+00 
          0.0000000000e+00 2.0000000000e+01 0.0000000000e+00 
          0.0000000000e+00 2.0769231000e+01 0.0000000000e+00 
          0.0000000000e+00 2.1538462000e+01 0.0000000000e+00 
          0.0000000000e+00 2.2307692000e+01 0.0000000000e+00 
          0.0000000000e+00 2.3076923000e+01 0.0000000000e+00 
          0.0000000000e+00 2.3846154000e+01 0.0000000000e+00 
          0.0000000000e+00 2.4615385000e+01 0.0000000000e+00 
          0.0000000000e+00 2.5384615000e+01 0.0000000000e+00 
          0.0000000000e+00 2.6153846000e+01 0.0000000000e+00 
          0.0000000000e+00 2.6923077000e+01 0.0000000000e+00 
          0.0000000000e+00 2.7692308000e+01 0.0000000000e+00 
          0.0000000000e+00 2.8461538000e+01 0.0000000000e+00 
          0.0000000000e+00 2.9230769000e+01 0.0000000000e+00 
        </DataArray>
      </Points>
      <Cells>
        <DataArray type="Int64" Name="connectivity" format="ascii">
          0
          1
          2
          3
          4
          5
          6
          7
          8
          9
          10
          11
          12
          13
          14
          15
          16
          17
          18
          19
          20
          21
          22
          23
          24
          25
          26
          27
          28
          29
          30
          31
          32
          33
          34
          35
          36
          37
          38
          39
          40
          41
          42
          43
          44
          45
          46
          47
          48
          49
          50
          51
          52
          53
          54
          55
          56
          57
          58
          59
          60
          61
          62
          63
          64
          65
          66
          67
          68
          69
          70
          71
          72
          73
          74
          75
          76
          77
          78
          79
          80
          81
        </DataArray>
        <DataArray type="Int64" Name="offsets" format="ascii">
          82
        </DataArray>
        <DataArray type="Int64" Name="types" format="ascii">
          2
        </DataArray>
      </Cells>
      <PointData>
        <DataArray type="Int64" Name="NodeTag" format="ascii">
          1
          2
          3
          4
          5
          6
          7
          8
          9
          10
          11
          12
          13
          14
          15
          16
          17
          18
          19
          20
          21
          22
          23
          24
          25
          26
          27
          28
          29
          30
          31
          32
          33
          34
          35
          36
          37
          38
          39
          40
          41
          42
          43
          44
          45
          46
          47
          48
          49
          50
          51
          52
          53
          54
          55
          56
          57
          58
          59
          60
          61
          62
          63
          64
          65
          66
          67
          68
          69
          70
          71
          72
          73
          74
          75
          76
          77
          78
          79
          80
          81
          82
        </DataArray>
        <DataArray type="Float64" Name="Velocity" NumberOfComponents="3" format="ascii">
          -1.2955378311e-04 -7.7845572225e-05 0.0000000000e+00 
          -1.2955378311e-04 -7.7845572225e-05 0.0000000000e+00 
          1.0908958444e-04 -7.7769806109e-05 0.0000000000e+00 
          1.0908958444e-04 -7.7769806109e-05 0.0000000000e+00 
          0.0000000000e+00 0.0000000000e+00 0.0000000000e+00 
          0.0000000000e+00 0.0000000000e+00 0.0000000000e+00 
          -1.2162188812e-04 -7.7839034748e-05 0.0000000000e+00 
          -1.1351436162e-04 -7.7832190272e-05 0.0000000000e+00 
          -1.0526744623e-04 -7.7881367556e-05 0.0000000000e+00 
          -9.6887363409e-05 -7.7785506525e-05 0.0000000000e+00 
          -8.8409505548e-05 -7.7893644971e-05 0.0000000000e+00 
          -7.9852386125e-05 -7.7814352960e-05 0.0000000000e+00 
          -7.1243474555e-05 -7.7853238009e-05 0.0000000000e+00 
          -6.2598087190e-05 -7.7833917216e-05 0.0000000000e+00 
          -5.3949001092e-05 -7.7845472315e-05 0.0000000000e+00 
          -4.5313418863e-05 -7.7857739218e-05 0.0000000000e+00 
          -3.6713806133e-05 -7.7798673005e-05 0.0000000000e+00 
          -2.8181938920e-05 -7.7895178761e-05 0.0000000000e+00 
          -1.9723563001e-05 -7.7799563477e-05 0.0000000000e+00 
          -1.1378970298e-05 -7.7852212836e-05 0.0000000000e+00 
          -3.1595221753e-06 -7.7853022986e-05 0.0000000000e+00 
          4.9140304320e-06 -7.7831024035e-05 0.0000000000e+00 
          1.2809724080e-05 -7.7827981457e-05 0.0000000000e+00 
          2.0525593460e-05 -7.7857062586e-05 0.0000000000e+00 
          2.8017258009e-05 -7.7839991438e-05 0.0000000000e+00 
          3.5290375028e-05 -7.7812344667e-05 0.0000000000e+00 
          4.2308493342e-05 -7.7892548842e-05 0.0000000000e+00 
          4.9052616830e-05 -7.7764340470e-05 0.0000000000e+00 
          5.5528619234e-05 -7.7915695448e-05 0.0000000000e+00 
          6.1682973376e-05 -7.7786414922e-05 0.0000000000e+00 
          6.7530169434e-05 -7.7850453602e-05 0.0000000000e+00 
          7.3043330025e-05 -7.7859594841e-05 0.0000000000e+00 
          7.8200986906e-05 -7.7803161420e-05 0.0000000000e+00 
          8.3009640294e-05 -7.7872534088e-05 0.0000000000e+00 
          8.7430055911e-05 -7.7814793302e-05 0.0000000000e+00 
          9.1474538950e-05 -7.7847612730e-05 0.0000000000e+00 
          9.5120678187e-05 -7.7850257604e-05 0.0000000000e+00 
          9.8356502527e-05 -7.7810472423e-05 0.0000000000e+00 
          1.0118551270e-04 -7.7874596567e-05 0.0000000000e+00 
          1.0358393859e-04 -7.7809605412e-05 0.0000000000e+00 
          1.0556201672e-04 -7.7846170705e-05 0.0000000000e+00 
          1.0710185340e-04 -7.7862453391e-05 0.0000000000e+00 
          1.0820560293e-04 -7.7789477963e-05 0.0000000000e+00 
          1.0887019216e-04 -7.7903708612e-05 0.0000000000e+00 
          -1.2162188812e-04 -7.7839034748e-05 0.0000000000e+00 
          -1.1351436162e-04 -7.7832190272e-05 0.0000000000e+00 
          -1.0526744623e-04 -7.7881367556e-05 0.0000000000e+00 
          -9.6887363409e-05 -7.7785506525e-05 0.0000000000e+00 
          -8.8409505548e-05 -7.7893644971e-05 0.0000000000e+00 
          -7.9852386125e-05 -7.7814352960e-05 0.0000000000e+00 
          -7.1243474555e-05 -7.7853238009e-05 0.0000000000e+00 
          -6.2598087190e-05 -7.7833917216e-05 0.0000000000e+00 
          -5.3949001092e-05 -7.7845472315e-05 0.0000000000e+00 
          -4.5313418863e-05 -7.7857739218e-05 0.0000000000e+00 
          -3.6713806133e-05 -7.7798673005e-05 0.0000000000e+00 
          -2.8181938920e-05 -7.7895178761e-05 0.0000000000e+00 
          -1.9723563001e-05 -7.7799563477e-05 0.0000000000e+00 
          -1.1378970298e-05 -7.7852212836e-05 0.0000000000e+00 
          -3.1595221753e-06 -7.7853022986e-05 0.0000000000e+00 
          4.9140304320e-06 -7.7831024035e-05 0.0000000000e+00 
          1.2809724080e-05 -7.7827981457e-05 0.0000000000e+00 
          2.0525593460e-05 -7.7857062586e-05 0.0000000000e+00 
          2.8017258009e-05 -7.7839991438e-05 0.0000000000e+00 
          3.5290375028e-05 -7.7812344667e-05 0.0000000000e+00 
          4.2308493342e-05 -7.7892548842e-05 0.0000000000e+00 
          4.9052616830e-05 -7.7764340470e-05 0.0000000000e+00 
          5.5528619234e-05 -7.7915695448e-05 0.0000000000e+00 
          6.1682973376e-05 -7.7786414922e-05 0.0000000000e+00 
          6.7530169434e-05 -7.7850453602e-05 0.0000000000e+00 
          7.3043330025e-05 -7.7859594841e-05 0.0000000000e+00 
          7.8200986906e-05 -7.7803161420e-05 0.0000000000e+00 
          8.3009640294e-05 -7.7872534088e-05 0.0000000000e+00 
          8.7430055911e-05 -7.7814793302e-05 0.0000000000e+00 
          9.1474538950e-05 -7.7847612730e-05 0.0000000000e+00 
          9.5120678187e-05 -7.7850257604e-05 0.0000000000e+00 
          9.8356502527e-05 -7.7810472423e-05 0.0000000000e+00 
          1.0118551270e-04 -7.7874596567e-05 0.0000000000e+00 
          1.0358393859e-04 -7.7809605412e-05 0.0000000000e+00 
          1.0556201672e-04 -7.7846170705e-05 0.0000000000e+00 
          1.0710185340e-04 -7.7862453391e-05 0.0000000000e+00 
          1.0820560293e-04 -7.7789477963e-05 0.0000000000e+00 
          1.0887019216e-04 -7.7903708612e-05 0.0000000000e+00 
        </DataArray>
        <DataArray type="Float64" Name="Displacement" NumberOfComponents="3" format="ascii">
          -4.4827877178e-07 -5.1039260602e-04 0.0000000000e+00 
          -4.4827877178e-07 -5.1039260602e-04 0.0000000000e+00 
          -5.2760767812e-05 -5.3397268289e-04 0.0000000000e+00 
          -5.2760767812e-05 -5.3397268289e-04 0.0000000000e+00 
          0.0000000000e+00 0.0000000000e+00 0.0000000000e+00 
          0.0000000000e+00 0.0000000000e+00 0.0000000000e+00 
          -2.5971206347e-06 -5.1158636610e-04 0.0000000000e+00 
          -4.7375069237e-06 -5.1274903578e-04 0.0000000000e+00 
          -6.8662467666e-06 -5.1388080218e-04 0.0000000000e+00 
          -8.9801638189e-06 -5.1498153165e-04 0.0000000000e+00 
          -1.1076110020e-05 -5.1605115116e-04 0.0000000000e+00 
          -1.3150970792e-05 -5.1708999873e-04 0.0000000000e+00 
          -1.5201654648e-05 -5.1809755089e-04 0.0000000000e+00 
          -1.7225131533e-05 -5.1907432231e-04 0.0000000000e+00 
          -1.9218378837e-05 -5.2002001069e-04 0.0000000000e+00 
          -2.1178448650e-05 -5.2093460604e-04 0.0000000000e+00 
          -2.3102419013e-05 -5.2181839141e-04 0.0000000000e+00 
          -2.4987445144e-05 -5.2267096247e-04 0.0000000000e+00 
          -2.6830707222e-05 -5.2349265437e-04 0.0000000000e+00 
          -2.8629475819e-05 -5.2428332323e-04 0.0000000000e+00 
          -3.0381062183e-05 -5.2504292406e-04 0.0000000000e+00 
          -3.2082853000e-05 -5.2577162822e-04 0.0000000000e+00 
          -3.3732313101e-05 -5.2646919663e-04 0.0000000000e+00 
          -3.5326962363e-05 -5.2713584296e-04 0.0000000000e+00 
          -3.6864434073e-05 -5.2777151065e-04 0.0000000000e+00 
          -3.8342383872e-05 -5.2837603496e-04 0.0000000000e+00 
          -3.9758629724e-05 -5.2894973541e-04 0.0000000000e+00 
          -4.1111014222e-05 -5.2949227777e-04 0.0000000000e+00 
          -4.2397492367e-05 -5.3000388834e-04 0.0000000000e+00 
          -4.3616148889e-05 -5.3048447348e-04 0.0000000000e+00 
          -4.4765099988e-05 -5.3093409355e-04 0.0000000000e+00 
          -4.5842624694e-05 -5.3135261828e-04 0.0000000000e+00 
          -4.6847098205e-05 -5.3174019706e-04 0.0000000000e+00 
          -4.7776945606e-05 -5.3209683646e-04 0.0000000000e+00 
          -4.8630803264e-05 -5.3242228157e-04 0.0000000000e+00 
          -4.9407332727e-05 -5.3271691168e-04 0.0000000000e+00 
          -5.0105341527e-05 -5.3298045509e-04 0.0000000000e+00 
          -5.0723807833e-05 -5.3321295730e-04 0.0000000000e+00 
          -5.1261713943e-05 -5.3341454624e-04 0.0000000000e+00 
          -5.1718290754e-05 -5.3358503830e-04 0.0000000000e+00 
          -5.2092814242e-05 -5.3372455928e-04 0.0000000000e+00 
          -5.2384702160e-05 -5.3383312432e-04 0.0000000000e+00 
          -5.2593523741e-05 -5.3391059581e-04 0.0000000000e+00 
          -5.2718939948e-05 -5.3395707597e-04 0.0000000000e+00 
          -2.5971206347e-06 -5.1158636610e-04 0.0000000000e+00 
          -4.7375069237e-06 -5.1274903578e-04 0.0000000000e+00 
          -6.8662467666e-06 -5.1388080218e-04 0.0000000000e+00 
          -8.9801638189e-06 -5.1498153165e-04 0.0000000000e+00 
          -1.1076110020e-05 -5.1605115116e-04 0.0000000000e+00 
          -1.3150970792e-05 -5.1708999873e-04 0.0000000000e+00 
          -1.5201654648e-05 -5.1809755089e-04 0.0000000000e+00 
          -1.7225131533e-05 -5.1907432231e-04 0.0000000000e+00 
          -1.9218378837e-05 -5.2002001069e-04 0.0000000000e+00 
          -2.1178448650e-05 -5.2093460604e-04 0.0000000000e+00 
          -2.3102419013e-05 -5.2181839141e-04 0.0000000000e+00 
          -2.4987445144e-05 -5.2267096247e-04 0.0000000000e+00 
          -2.6830707222e-05 -5.2349265437e-04 0.0000000000e+00 
          -2.8629475819e-05 -5.2428332323e-04 0.0000000000e+00 
          -3.0381062183e-05 -5.2504292406e-04 0.0000000000e+00 
          -3.2082853000e-05 -5.2577162822e-04 0.0000000000e+00 
          -3.3732313101e-05 -5.2646919663e-04 0.0000000000e+00 
          -3.5326962363e-05 -5.2713584296e-04 0.0000000000e+00 
          -3.6864434073e-05 -5.2777151065e-04 0.0000000000e+00 
          -3.8342383872e-05 -5.2837603496e-04 0.0000000000e+00 
          -3.9758629724e-05 -5.2894973541e-04 0.0000000000e+00 
          -4.1111014222e-05 -5.2949227777e-04 0.0000000000e+00 
          -4.2397492367e-05 -5.3000388834e-04 0.0000000000e+00 
          -4.3616148889e-05 -5.3048447348e-04 0.0000000000e+00 
          -4.4765099988e-05 -5.3093409355e-04 0.0000000000e+00 
          -4.5842624694e-05 -5.3135261828e-04 0.0000000000e+00 
          -4.6847098205e-05 -5.3174019706e-04 0.0000000000e+00 
          -4.7776945606e-05 -5.3209683646e-04 0.0000000000e+00 
          -4.8630803264e-05 -5.3242228157e-04 0.0000000000e+00 
          -4.9407332727e-05 -5.3271691168e-04 0.0000000000e+00 
          -5.0105341527e-05 -5.3298045509e-04 0.0000000000e+00 
          -5.0723807833e-05 -5.3321295730e-04 0.0000000000e+00 
          -5.1261713943e-05 -5.3341454624e-04 0.0000000000e+00 
          -5.1718290754e-05 -5.3358503830e-04 0.0000000000e+00 
          -5.2092814242e-05 -5.3372455928e-04 0.0000000000e+00 
          -5.2384702160e-05 -5.3383312432e-04 0.0000000000e+00 
          -5.2593523741e-05 -5.3391059581e-04 0.0000000000e+00 
          -5.2718939948e-05 -5.3395707597e-04 0.0000000000e+00 
        </DataArray>
        <DataArray type="Float64" Name="Acceleration" NumberOfComponents="3" format="ascii">
          4.7178443488e-04 2.5084398869e-07 0.0000000000e+00 
          4.7178443488e-04 2.5084398869e-07 0.0000000000e+00 
          7.5375463160e-03 3.7394205912e-05 0.0000000000e+00 
          7.5375463160e-03 3.7394205912e-05 0.0000000000e+00 
          0.0000000000e+00 0.0000000000e+00 0.0000000000e+00 
          0.0000000000e+00 0.0000000000e+00 0.0000000000e+00 
          7.6186390626e-04 1.5146714764e-05 0.0000000000e+00 
          1.0491191345e-03 -1.8830977791e-05 0.0000000000e+00 
          1.3358129186e-03 5.7802482105e-06 0.0000000000e+00 
          1.6192091335e-03 1.8673740885e-05 0.0000000000e+00 
          1.8998388568e-03 -4.2238484746e-05 0.0000000000e+00 
          2.1781491392e-03 5.1858971880e-05 0.0000000000e+00 
          2.4516435085e-03 -4.0412636379e-05 0.0000000000e+00 
          2.7237450082e-03 1.3821733137e-05 0.0000000000e+00 
          2.9893574412e-03 1.5621999704e-05 0.0000000000e+00 
          3.2524085207e-03 -3.5589274284e-05 0.0000000000e+00 
          3.5091797797e-03 3.7690079894e-05 0.0000000000e+00 
          3.7630237650e-03 -2.2917382883e-05 0.0000000000e+00 
          4.0089503774e-03 3.0096836345e-06 0.0000000000e+00 
          4.2512124416e-03 1.1116409726e-05 0.0000000000e+00 
          4.4864807345e-03 -1.9929479086e-05 0.0000000000e+00 
          4.7153031803e-03 2.3495798581e-05 0.0000000000e+00 
          4.9385648645e-03 -1.5184745951e-05 0.0000000000e+00 
          5.1518103811e-03 -4.9885941474e-06 0.0000000000e+00 
          5.3628721306e-03 2.4555182358e-05 0.0000000000e+00 
          5.5598240820e-03 -3.2736683560e-05 0.0000000000e+00 
          5.7540341819e-03 2.7347178727e-05 0.0000000000e+00 
          5.9382926179e-03 -1.3435157236e-05 0.0000000000e+00 
          6.1107233411e-03 3.3329018377e-06 0.0000000000e+00 
          6.2807430686e-03 -7.3215297127e-06 0.0000000000e+00 
          6.4356591070e-03 1.6040886680e-05 0.0000000000e+00 
          6.5820569008e-03 -1.0883637080e-05 0.0000000000e+00 
          6.7239599549e-03 -1.2066698480e-05 0.0000000000e+00 
          6.8467302681e-03 3.3798018569e-05 0.0000000000e+00 
          6.9675276326e-03 -3.4399450535e-05 0.0000000000e+00 
          7.0748668471e-03 1.4482708880e-05 0.0000000000e+00 
          7.1669357803e-03 6.2805862799e-06 0.0000000000e+00 
          7.2585744242e-03 -1.6813292116e-05 0.0000000000e+00 
          7.3279982584e-03 1.6366587921e-05 0.0000000000e+00 
          7.3931664250e-03 -6.3542446688e-06 0.0000000000e+00 
          7.4456280943e-03 -9.0796304704e-06 0.0000000000e+00 
          7.4844213346e-03 1.5699963365e-05 0.0000000000e+00 
          7.5150182708e-03 -2.6820278095e-06 0.0000000000e+00 
          7.5314747950e-03 -2.3985437422e-05 0.0000000000e+00 
          7.6186390626e-04 1.5146714764e-05 0.0000000000e+00 
          1.0491191345e-03 -1.8830977791e-05 0.0000000000e+00 
          1.3358129186e-03 5.7802482105e-06 0.0000000000e+00 
          1.6192091335e-03 1.8673740885e-05 0.0000000000e+00 
          1.8998388568e-03 -4.2238484746e-05 0.0000000000e+00 
          2.1781491392e-03 5.1858971880e-05 0.0000000000e+00 
          2.4516435085e-03 -4.0412636379e-05 0.0000000000e+00 
          2.7237450082e-03 1.3821733137e-05 0.0000000000e+00 
          2.9893574412e-03 1.5621999704e-05 0.0000000000e+00 
          3.2524085207e-03 -3.5589274284e-05 0.0000000000e+00 
          3.5091797797e-03 3.7690079894e-05 0.0000000000e+00 
          3.7630237650e-03 -2.2917382883e-05 0.0000000000e+00 
          4.0089503774e-03 3.0096836345e-06 0.0000000000e+00 
          4.2512124416e-03 1.1116409726e-05 0.0000000000e+00 
          4.4864807345e-03 -1.9929479086e-05 0.0000000000e+00 
          4.7153031803e-03 2.3495798581e-05 0.0000000000e+00 
          4.9385648645e-03 -1.5184745951e-05 0.0000000000e+00 
          5.1518103811e-03 -4.9885941474e-06 0.0000000000e+00 
          5.3628721306e-03 2.4555182358e-05 0.0000000000e+00 
          5.5598240820e-03 -3.2736683560e-05 0.0000000000e+00 
          5.7540341819e-03 2.7347178727e-05 0.0000000000e+00 
          5.9382926179e-03 -1.3435157236e-05 0.0000000000e+00 
          6.1107233411e-03 3.3329018377e-06 0.0000000000e+00 
          6.2807430686e-03 -7.3215297127e-06 0.0000000000e+00 
          6.4356591070e-03 1.6040886680e-05 0.0000000000e+00 
          6.5820569008e-03 -1.0883637080e-05 0.0000000000e+00 
          6.7239599549e-03 -1.2066698480e-05 0.0000000000e+00 
          6.8467302681e-03 3.3798018569e-05 0.0000000000e+00 
          6.9675276326e-03 -3.4399450535e-05 0.0000000000e+00 
          7.0748668471e-03 1.4482708880e-05 0.0000000000e+00 
          7.1669357803e-03 6.2805862799e-06 0.0000000000e+00 
          7.2585744242e-03 -1.6813292116e-05 0.0000000000e+00 
          7.3279982584e-03 1.6366587921e-05 0.0000000000e+00 
          7.3931664250e-03 -6.3542446688e-06 0.0000000000e+00 
          7.4456280943e-03 -9.0796304704e-06 0.0000000000e+00 
          7.4844213346e-03 1.5699963365e-05 0.0000000000e+00 
          7.5150182708e-03 -2.6820278095e-06 0.0000000000e+00 
          7.5314747950e-03 -2.3985437422e-05 0.0000000000e+00 
        </DataArray>
        <DataArray type="Float64" Name="Reaction" NumberOfComponents="3" format="ascii">
          0.0000000000e+00 0.0000000000e+00 0.0000000000e+00 
          0.0000000000e+00 0.0000000000e+00 0.0000000000e+00 
          0.0000000000e+00 0.0000000000e+00 0.0000000000e+00 
          0.0000000000e+00 0.0000000000e+00 0.0000000000e+00 
          0.0000000000e+00 0.0000000000e+00 0.0000000000e+00 
          0.0000000000e+00 0.0000000000e+00 0.0000000000e+00 
          0.0000000000e+00 0.0000000000e+00 0.0000000000e+00 
          0.0000000000e+00 0.0000000000e+00 0.0000000000e+00 
          0.0000000000e+00 0.0000000000e+00 0.0000000000e+00 
          0.0000000000e+00 0.0000000000e+00 0.0000000000e+00 
          0.0000000000e+00 0.0000000000e+00 0.0000000000e+00 
          0.0000000000e+00 0.0000000000e+00 0.0000000000e+00 
          0.0000000000e+00 0.0000000000e+00 0.0000000000e+00 
          0.0000000000e+00 0.0000000000e+00 0.0000000000e+00 
          0.0000000000e+00 0.0000000000e+00 0.0000000000e+00 
          0.0000000000e+00 0.0000000000e+00 0.0000000000e+00 
          0.0000000000e+00 0.0000000000e+00 0.0000000000e+00 
          0.0000000000e+00 0.0000000000e+00 0.0000000000e+00 
          0.0000000000e+00 0.0000000000e+00 0.0000000000e+00 
          0.0000000000e+00 0.0000000000e+00 0.0000000000e+00 
          0.0000000000e+00 0.0000000000e+00 0.0000000000e+00 
          0.0000000000e+00 0.0000000000e+00 0.0000000000e+00 
          0.0000000000e+00 0.0000000000e+00 0.0000000000e+00 
          0.0000000000e+00 0.0000000000e+00 0.0000000000e+00 
          0.0000000000e+00 0.0000000000e+00 0.0000000000e+00 
          0.0000000000e+00 0.0000000000e+00 0.0000000000e+00 
          0.0000000000e+00 0.0000000000e+00 0.0000000000e+00 
          0.0000000000e+00 0.0000000000e+00 0.0000000000e+00 
          0.0000000000e+00 0.0000000000e+00 0.0000000000e+00 
          0.0000000000e+00 0.0000000000e+00 0.0000000000e+00 
          0.0000000000e+00 0.0000000000e+00 0.0000000000e+00 
          0.0000000000e+00 0.0000000000e+00 0.0000000000e+00 
          0.0000000000e+00 0.0000000000e+00 0.0000000000e+00 
          0.0000000000e+00 0.0000000000e+00 0.0000000000e+00 
          0.0000000000e+00 0.0000000000e+00 0.0000000000e+00 
          0.0000000000e+00 0.0000000000e+00 0.0000000000e+00 
          0.0000000000e+00 0.0000000000e+00 0.0000000000e+00 
          0.0000000000e+00 0.0000000000e+00 0.0000000000e+00 
          0.0000000000e+00 0.0000000000e+00 0.0000000000e+00 
          0.0000000000e+00 0.0000000000e+00 0.0000000000e+00 
          0.0000000000e+00 0.0000000000e+00 0.0000000000e+00 
          0.0000000000e+00 0.0000000000e+00 0.0000000000e+00 
          0.0000000000e+00 0.0000000000e+00 0.0000000000e+00 
          0.0000000000e+00 0.0000000000e+00 0.0000000000e+00 
          0.0000000000e+00 0.0000000000e+00 0.0000000000e+00 
          0.0000000000e+00 0.0000000000e+00 0.0000000000e+00 
          0.0000000000e+00 0.0000000000e+00 0.0000000000e+00 
          0.0000000000e+00 0.0000000000e+00 0.0000000000e+00 
          0.0000000000e+00 0.0000000000e+00 0.0000000000e+00 
          0.0000000000e+00 0.0000000000e+00 0.0000000000e+00 
          0.0000000000e+00 0.0000000000e+00 0.0000000000e+00 
          0.0000000000e+00 0.0000000000e+00 0.0000000000e+00 
          0.0000000000e+00 0.0000000000e+00 0.0000000000e+00 
          0.0000000000e+00 0.0000000000e+00 0.0000000000e+00 
          0.0000000000e+00 0.0000000000e+00 0.0000000000e+00 
          0.0000000000e+00 0.0000000000e+00 0.0000000000e+00 
          0.0000000000e+00 0.0000000000e+00 0.0000000000e+00 
          0.0000000000e+00 0.0000000000e+00 0.0000000000e+00 
          0.0000000000e+00 0.0000000000e+00 0.0000000000e+00 
          0.0000000000e+00 0.0000000000e+00 0.0000000000e+00 
          0.0000000000e+00 0.0000000000e+00 0.0000000000e+00 
          0.0000000000e+00 0.0000000000e+00 0.0000000000e+00 
          0.0000000000e+00 0.0000000000e+00 0.0000000000e+00 
          0.0000000000e+00 0.0000000000e+00 0.0000000000e+00 
          0.0000000000e+00 0.0000000000e+00 0.0000000000e+00 
          0.0000000000e+00 0.0000000000e+00 0.0000000000e+00 
          0.0000000000e+00 0.0000000000e+00 0.0000000000e+00 
          0.0000000000e+00 0.0000000000e+00 0.0000000000e+00 
          0.0000000000e+00 0.0000000000e+00 0.0000000000e+00 
          0.0000000000e+00 0.0000000000e+00 0.0000000000e+00 
          0.0000000000e+00 0.0000000000e+00 0.0000000000e+00 
          0.0000000000e+00 0.0000000000e+00 0.0000000000e+00 
          0.0000000000e+00 0.0000000000e+00 0.0000000000e+00 
          0.0000000000e+00 0.0000000000e+00 0.0000000000e+00 
          0.0000000000e+00 0.0000000000e+00 0.0000000000e+00 
          0.0000000000e+00 0.0000000000e+00 0.0000000000e+00 
          0.0000000000e+00 0.0000000000e+00 0.0000000000e+00 
          0.0000000000e+00 0.0000000000e+00 0.0000000000e+00 
          0.0000000000e+00 0.0000000000e+00 0.0000000000e+00 
          0.0000000000e+00 0.0000000000e+00 0.0000000000e+00 
          0.0000000000e+00 0.0000000000e+00 0.0000000000e+00 
          0.0000000000e+00 0.0000000000e+00 0.0000000000e+00 
        </DataArray>
      </PointData>
      <CellData>
        <DataArray type="Int64" Name="ElementTag" format="ascii">
          0
        </DataArray>
      </CellData>
    </Piece>
  </UnstructuredGrid>
</VTKFile>
