<?xml version="1.0"?>
<VTKFile type="UnstructuredGrid" version="1.0" byte_order="LittleEndian" compressor="vtkZLibDataCompressor">
  <UnstructuredGrid>
    <Piece NumberOfPoints="80" NumberOfCells="39">
      <Points>
        <DataArray type="Float64" Name="Points" NumberOfComponents="3" format="ascii">
          0.0000000000e+00 0.0000000000e+00 0.0000000000e+00 
          2.5000000000e-01 0.0000000000e+00 0.0000000000e+00 
          2.5000000000e-01 3.0000000000e+01 0.0000000000e+00 
          0.0000000000e+00 3.0000000000e+01 0.0000000000e+00 
          2.5000000000e-01 7.6923100000e-01 0.0000000000e+00 
          2.5000000000e-01 1.5384620000e+00 0.0000000000e+00 
          2.5000000000e-01 2.3076920000e+00 0.0000000000e+00 
          2.5000000000e-01 3.0769230000e+00 0.0000000000e+00 
          2.5000000000e-01 3.8461540000e+00 0.0000000000e+00 
          2.5000000000e-01 4.6153850000e+00 0.0000000000e+00 
          2.5000000000e-01 5.3846150000e+00 0.0000000000e+00 
          2.5000000000e-01 6.1538460000e+00 0.0000000000e+00 
          2.5000000000e-01 6.9230770000e+00 0.0000000000e+00 
          2.5000000000e-01 7.6923080000e+00 0.0000000000e+00 
          2.5000000000e-01 8.4615380000e+00 0.0000000000e+00 
          2.5000000000e-01 9.2307690000e+00 0.0000000000e+00 
          2.5000000000e-01 1.0000000000e+01 0.0000000000e+00 
          2.5000000000e-01 1.0769231000e+01 0.0000000000e+00 
          2.5000000000e-01 1.1538462000e+01 0.0000000000e+00 
          2.5000000000e-01 1.2307692000e+01 0.0000000000e+00 
          2.5000000000e-01 1.3076923000e+01 0.0000000000e+00 
          2.5000000000e-01 1.3846154000e+01 0.0000000000e+00 
          2.5000000000e-01 1.4615385000e+01 0.0000000000e+00 
          2.5000000000e-01 1.5384615000e+01 0.0000000000e+00 
          2.5000000000e-01 1.6153846000e+01 0.0000000000e+00 
          2.5000000000e-01 1.6923077000e+01 0.0000000000e+00 
          2.5000000000e-01 1.7692308000e+01 0.0000000000e+00 
          2.5000000000e-01 1.8461538000e+01 0.0000000000e+00 
          2.5000000000e-01 1.9230769000e+01 0.0000000000e+00 
          2.5000000000e-01 2.0000000000e+01 0.0000000000e+00 
          2.5000000000e-01 2.0769231000e+01 0.0000000000e+00 
          2.5000000000e-01 2.1538462000e+01 0.0000000000e+00 
          2.5000000000e-01 2.2307692000e+01 0.0000000000e+00 
          2.5000000000e-01 2.3076923000e+01 0.0000000000e+00 
          2.5000000000e-01 2.3846154000e+01 0.0000000000e+00 
          2.5000000000e-01 2.4615385000e+01 0.0000000000e+00 
          2.5000000000e-01 2.5384615000e+01 0.0000000000e+00 
          2.5000000000e-01 2.6153846000e+01 0.0000000000e+00 
          2.5000000000e-01 2.6923077000e+01 0.0000000000e+00 
          2.5000000000e-01 2.7692308000e+01 0.0000000000e+00 
          2.5000000000e-01 2.8461538000e+01 0.0000000000e+00 
          2.5000000000e-01 2.9230769000e+01 0.0000000000e+00 
          0.0000000000e+00 7.6923100000e-01 0.0000000000e+00 
          0.0000000000e+00 1.5384620000e+00 0.0000000000e+00 
          0.0000000000e+00 2.3076920000e+00 0.0000000000e+00 
          0.0000000000e+00 3.0769230000e+00 0.0000000000e+00 
          0.0000000000e+00 3.8461540000e+00 0.0000000000e+00 
          0.0000000000e+00 4.6153850000e+00 0.0000000000e+00 
          0.0000000000e+00 5.3846150000e+00 0.0000000000e+00 
          0.0000000000e+00 6.1538460000e+00 0.0000000000e+00 
          0.0000000000e+00 6.9230770000e+00 0.0000000000e+00 
          0.0000000000e+00 7.6923080000e+00 0.0000000000e+00 
          0.0000000000e+00 8.4615380000e+00 0.0000000000e+00 
          0.0000000000e+00 9.2307690000e+00 0.0000000000e+00 
          0.0000000000e+00 1.0000000000e+01 0.0000000000e+00 
          0.0000000000e+00 1.0769231000e+01 0.0000000000e+00 
          0.0000000000e+00 1.1538462000e+01 0.0000000000e+00 
          0.0000000000e+00 1.2307692000e+01 0.0000000000e+00 
          0.0000000000e+00 1.3076923000e+01 0.0000000000e+00 
          0.0000000000e+00 1.3846154000e+01 0.0000000000e+00 
          0.0000000000e+00 1.4615385000e+01 0.0000000000e+00 
          0.0000000000e+00 1.5384615000e+01 0.0000000000e+00 
          0.0000000000e+00 1.6153846000e+01 0.0000000000e+00 
          0.0000000000e+00 1.6923077000e+01 0.0000000000e+00 
          0.0000000000e+00 1.7692308000e+01 0.0000000000e+00 
          0.0000000000e+00 1.8461538000e+01 0.0000000000e+00 
          0.0000000000e+00 1.9230769000e+01 0.0000000000e+00 
          0.0000000000e+00 2.0000000000e+01 0.0000000000e+00 
          0.0000000000e+00 2.0769231000e+01 0.0000000000e+00 
          0.0000000000e+00 2.1538462000e+01 0.0000000000e+00 
          0.0000000000e+00 2.2307692000e+01 0.0000000000e+00 
          0.0000000000e+00 2.3076923000e+01 0.0000000000e+00 
          0.0000000000e+00 2.3846154000e+01 0.0000000000e+00 
          0.0000000000e+00 2.4615385000e+01 0.0000000000e+00 
          0.0000000000e+00 2.5384615000e+01 0.0000000000e+00 
          0.0000000000e+00 2.6153846000e+01 0.0000000000e+00 
          0.0000000000e+00 2.6923077000e+01 0.0000000000e+00 
          0.0000000000e+00 2.7692308000e+01 0.0000000000e+00 
          0.0000000000e+00 2.8461538000e+01 0.0000000000e+00 
          0.0000000000e+00 2.9230769000e+01 0.0000000000e+00 
        </DataArray>
      </Points>
      <Cells>
        <DataArray type="Int64" Name="connectivity" format="ascii">
          0 1 4 42 
          42 4 5 43 
          43 5 6 44 
          44 6 7 45 
          45 7 8 46 
          46 8 9 47 
          47 9 10 48 
          48 10 11 49 
          49 11 12 50 
          50 12 13 51 
          51 13 14 52 
          52 14 15 53 
          53 15 16 54 
          54 16 17 55 
          55 17 18 56 
          56 18 19 57 
          57 19 20 58 
          58 20 21 59 
          59 21 22 60 
          60 22 23 61 
          61 23 24 62 
          62 24 25 63 
          63 25 26 64 
          64 26 27 65 
          65 27 28 66 
          66 28 29 67 
          67 29 30 68 
          68 30 31 69 
          69 31 32 70 
          70 32 33 71 
          71 33 34 72 
          72 34 35 73 
          73 35 36 74 
          74 36 37 75 
          75 37 38 76 
          76 38 39 77 
          77 39 40 78 
          78 40 41 79 
          79 41 2 3 
        </DataArray>
        <DataArray type="Int64" Name="offsets" format="ascii">
          4
          8
          12
          16
          20
          24
          28
          32
          36
          40
          44
          48
          52
          56
          60
          64
          68
          72
          76
          80
          84
          88
          92
          96
          100
          104
          108
          112
          116
          120
          124
          128
          132
          136
          140
          144
          148
          152
          156
        </DataArray>
        <DataArray type="Int64" Name="types" format="ascii">
          9
          9
          9
          9
          9
          9
          9
          9
          9
          9
          9
          9
          9
          9
          9
          9
          9
          9
          9
          9
          9
          9
          9
          9
          9
          9
          9
          9
          9
          9
          9
          9
          9
          9
          9
          9
          9
          9
          9
        </DataArray>
      </Cells>
      <PointData>
        <DataArray type="Int64" Name="NodeTag" format="ascii">
          1
          2
          3
          4
          7
          8
          9
          10
          11
          12
          13
          14
          15
          16
          17
          18
          19
          20
          21
          22
          23
          24
          25
          26
          27
          28
          29
          30
          31
          32
          33
          34
          35
          36
          37
          38
          39
          40
          41
          42
          43
          44
          45
          46
          47
          48
          49
          50
          51
          52
          53
          54
          55
          56
          57
          58
          59
          60
          61
          62
          63
          64
          65
          66
          67
          68
          69
          70
          71
          72
          73
          74
          75
          76
          77
          78
          79
          80
          81
          82
        </DataArray>
        <DataArray type="Float64" Name="Velocity" NumberOfComponents="3" format="ascii">
          1.6474698762e-06 -7.6269986862e-05 0.0000000000e+00 
          1.6474698762e-06 -7.6269986862e-05 0.0000000000e+00 
          4.9606524545e-09 -4.2754026923e-05 0.0000000000e+00 
          4.9606524545e-09 -4.2754026923e-05 0.0000000000e+00 
          1.4185743631e-06 -7.4741098175e-05 0.0000000000e+00 
          1.2203801098e-06 -7.4064787323e-05 0.0000000000e+00 
          1.0489303926e-06 -7.2335598950e-05 0.0000000000e+00 
          9.0075535257e-07 -7.0596473764e-05 0.0000000000e+00 
          7.7281576718e-07 -6.9338409057e-05 0.0000000000e+00 
          6.6245184129e-07 -6.8224356832e-05 0.0000000000e+00 
          5.6733844017e-07 -6.7024224769e-05 0.0000000000e+00 
          4.8544476936e-07 -6.5396291793e-05 0.0000000000e+00 
          4.1499959791e-07 -6.3897618042e-05 0.0000000000e+00 
          3.5445917552e-07 -6.2648269007e-05 0.0000000000e+00 
          3.0247964078e-07 -6.1558156331e-05 0.0000000000e+00 
          2.5789212427e-07 -6.0365602798e-05 0.0000000000e+00 
          2.1968133258e-07 -5.8781437795e-05 0.0000000000e+00 
          1.8696607771e-07 -5.7407097887e-05 0.0000000000e+00 
          1.5898242335e-07 -5.6250416518e-05 0.0000000000e+00 
          1.3506878510e-07 -5.5063951924e-05 0.0000000000e+00 
          1.1465270501e-07 -5.3573112795e-05 0.0000000000e+00 
          9.7239535930e-08 -5.1823923301e-05 0.0000000000e+00 
          8.2402221499e-08 -5.0575309013e-05 0.0000000000e+00 
          6.9772503398e-08 -4.9062971472e-05 0.0000000000e+00 
          5.9033126167e-08 -4.8197316805e-05 0.0000000000e+00 
          4.9911176905e-08 -4.7746697686e-05 0.0000000000e+00 
          4.2172120951e-08 -4.6707376571e-05 0.0000000000e+00 
          3.5614692008e-08 -4.5591036111e-05 0.0000000000e+00 
          3.0066393957e-08 -4.4266258026e-05 0.0000000000e+00 
          2.5379671377e-08 -4.3289488835e-05 0.0000000000e+00 
          2.1428510871e-08 -4.2296837338e-05 0.0000000000e+00 
          1.8105543663e-08 -4.1588093611e-05 0.0000000000e+00 
          1.5319541201e-08 -4.1080644299e-05 0.0000000000e+00 
          1.2993244819e-08 -4.0692255782e-05 0.0000000000e+00 
          1.1061540042e-08 -4.0432494500e-05 0.0000000000e+00 
          9.4698680272e-09 -4.0390895511e-05 0.0000000000e+00 
          8.1728994082e-09 -4.0808339855e-05 0.0000000000e+00 
          7.1334102491e-09 -4.1295640311e-05 0.0000000000e+00 
          6.3213677773e-09 -4.1997216878e-05 0.0000000000e+00 
          5.7131705731e-09 -4.2446683289e-05 0.0000000000e+00 
          5.2910564270e-09 -4.3315817650e-05 0.0000000000e+00 
          5.0426501648e-09 -4.3366261886e-05 0.0000000000e+00 
          1.4185743631e-06 -7.4741098175e-05 0.0000000000e+00 
          1.2203801098e-06 -7.4064787323e-05 0.0000000000e+00 
          1.0489303926e-06 -7.2335598950e-05 0.0000000000e+00 
          9.0075535257e-07 -7.0596473764e-05 0.0000000000e+00 
          7.7281576718e-07 -6.9338409057e-05 0.0000000000e+00 
          6.6245184129e-07 -6.8224356832e-05 0.0000000000e+00 
          5.6733844017e-07 -6.7024224769e-05 0.0000000000e+00 
          4.8544476936e-07 -6.5396291793e-05 0.0000000000e+00 
          4.1499959791e-07 -6.3897618042e-05 0.0000000000e+00 
          3.5445917552e-07 -6.2648269007e-05 0.0000000000e+00 
          3.0247964078e-07 -6.1558156331e-05 0.0000000000e+00 
          2.5789212427e-07 -6.0365602798e-05 0.0000000000e+00 
          2.1968133258e-07 -5.8781437795e-05 0.0000000000e+00 
          1.8696607771e-07 -5.7407097887e-05 0.0000000000e+00 
          1.5898242335e-07 -5.6250416518e-05 0.0000000000e+00 
          1.3506878510e-07 -5.5063951924e-05 0.0000000000e+00 
          1.1465270501e-07 -5.3573112795e-05 0.0000000000e+00 
          9.7239535930e-08 -5.1823923301e-05 0.0000000000e+00 
          8.2402221499e-08 -5.0575309013e-05 0.0000000000e+00 
          6.9772503398e-08 -4.9062971472e-05 0.0000000000e+00 
          5.9033126167e-08 -4.8197316805e-05 0.0000000000e+00 
          4.9911176905e-08 -4.7746697686e-05 0.0000000000e+00 
          4.2172120951e-08 -4.6707376571e-05 0.0000000000e+00 
          3.5614692008e-08 -4.5591036111e-05 0.0000000000e+00 
          3.0066393957e-08 -4.4266258026e-05 0.0000000000e+00 
          2.5379671377e-08 -4.3289488835e-05 0.0000000000e+00 
          2.1428510871e-08 -4.2296837338e-05 0.0000000000e+00 
          1.8105543663e-08 -4.1588093611e-05 0.0000000000e+00 
          1.5319541201e-08 -4.1080644299e-05 0.0000000000e+00 
          1.2993244819e-08 -4.0692255782e-05 0.0000000000e+00 
          1.1061540042e-08 -4.0432494500e-05 0.0000000000e+00 
          9.4698680272e-09 -4.0390895511e-05 0.0000000000e+00 
          8.1728994082e-09 -4.0808339855e-05 0.0000000000e+00 
          7.1334102491e-09 -4.1295640311e-05 0.0000000000e+00 
          6.3213677773e-09 -4.1997216878e-05 0.0000000000e+00 
          5.7131705731e-09 -4.2446683289e-05 0.0000000000e+00 
          5.2910564270e-09 -4.3315817650e-05 0.0000000000e+00 
          5.0426501648e-09 -4.3366261886e-05 0.0000000000e+00 
        </DataArray>
        <DataArray type="Float64" Name="Displacement" NumberOfComponents="3" format="ascii">
          3.5430060720e-08 -1.0905738579e-04 0.0000000000e+00 
          3.5430060720e-08 -1.0905738579e-04 0.0000000000e+00 
          8.7490997679e-11 -1.3159332565e-04 0.0000000000e+00 
          8.7490997679e-11 -1.3159332565e-04 0.0000000000e+00 
          3.0336564531e-08 -1.1022639589e-04 0.0000000000e+00 
          2.5952726205e-08 -1.1136439259e-04 0.0000000000e+00 
          2.2183077984e-08 -1.1247028131e-04 0.0000000000e+00 
          1.8944482883e-08 -1.1354347210e-04 0.0000000000e+00 
          1.6164638689e-08 -1.1458507795e-04 0.0000000000e+00 
          1.3780711622e-08 -1.1559524818e-04 0.0000000000e+00 
          1.1738156544e-08 -1.1657518318e-04 0.0000000000e+00 
          9.9896608326e-09 -1.1752436369e-04 0.0000000000e+00 
          8.4942391438e-09 -1.1844226486e-04 0.0000000000e+00 
          7.2164133541e-09 -1.1932827159e-04 0.0000000000e+00 
          6.1255062233e-09 -1.2018203009e-04 0.0000000000e+00 
          5.1950126363e-09 -1.2100362551e-04 0.0000000000e+00 
          4.4020619586e-09 -1.2179341997e-04 0.0000000000e+00 
          3.7269343805e-09 -1.2255213761e-04 0.0000000000e+00 
          3.1526446515e-09 -1.2327968561e-04 0.0000000000e+00 
          2.6645778856e-09 -1.2397654244e-04 0.0000000000e+00 
          2.2501690448e-09 -1.2464165105e-04 0.0000000000e+00 
          1.8986295136e-09 -1.2527620927e-04 0.0000000000e+00 
          1.6007032657e-09 -1.2587993436e-04 0.0000000000e+00 
          1.3484581599e-09 -1.2645045033e-04 0.0000000000e+00 
          1.1351026428e-09 -1.2698977256e-04 0.0000000000e+00 
          9.5482980723e-10 -1.2749909883e-04 0.0000000000e+00 
          8.0267930933e-10 -1.2797612915e-04 0.0000000000e+00 
          6.7441960711e-10 -1.2842181153e-04 0.0000000000e+00 
          5.6644517924e-10 -1.2883706312e-04 0.0000000000e+00 
          4.7568941394e-10 -1.2922216942e-04 0.0000000000e+00 
          3.9954808848e-10 -1.2957752262e-04 0.0000000000e+00 
          3.3581439894e-10 -1.2990275235e-04 0.0000000000e+00 
          2.8262318218e-10 -1.3019863945e-04 0.0000000000e+00 
          2.3840293643e-10 -1.3046604517e-04 0.0000000000e+00 
          2.0183560247e-10 -1.3070530332e-04 0.0000000000e+00 
          1.7182185473e-10 -1.3091593622e-04 0.0000000000e+00 
          1.4745222174e-10 -1.3109693589e-04 0.0000000000e+00 
          1.2798277758e-10 -1.3124899718e-04 0.0000000000e+00 
          1.1281538466e-10 -1.3137284260e-04 0.0000000000e+00 
          1.0148140947e-10 -1.3146917612e-04 0.0000000000e+00 
          9.3629032461e-11 -1.3153853542e-04 0.0000000000e+00 
          8.9013603968e-11 -1.3157976024e-04 0.0000000000e+00 
          3.0336564531e-08 -1.1022639589e-04 0.0000000000e+00 
          2.5952726205e-08 -1.1136439259e-04 0.0000000000e+00 
          2.2183077984e-08 -1.1247028131e-04 0.0000000000e+00 
          1.8944482883e-08 -1.1354347210e-04 0.0000000000e+00 
          1.6164638689e-08 -1.1458507795e-04 0.0000000000e+00 
          1.3780711622e-08 -1.1559524818e-04 0.0000000000e+00 
          1.1738156544e-08 -1.1657518318e-04 0.0000000000e+00 
          9.9896608326e-09 -1.1752436369e-04 0.0000000000e+00 
          8.4942391438e-09 -1.1844226486e-04 0.0000000000e+00 
          7.2164133541e-09 -1.1932827159e-04 0.0000000000e+00 
          6.1255062233e-09 -1.2018203009e-04 0.0000000000e+00 
          5.1950126363e-09 -1.2100362551e-04 0.0000000000e+00 
          4.4020619586e-09 -1.2179341997e-04 0.0000000000e+00 
          3.7269343805e-09 -1.2255213761e-04 0.0000000000e+00 
          3.1526446515e-09 -1.2327968561e-04 0.0000000000e+00 
          2.6645778856e-09 -1.2397654244e-04 0.0000000000e+00 
          2.2501690448e-09 -1.2464165105e-04 0.0000000000e+00 
          1.8986295136e-09 -1.2527620927e-04 0.0000000000e+00 
          1.6007032657e-09 -1.2587993436e-04 0.0000000000e+00 
          1.3484581599e-09 -1.2645045033e-04 0.0000000000e+00 
          1.1351026428e-09 -1.2698977256e-04 0.0000000000e+00 
          9.5482980723e-10 -1.2749909883e-04 0.0000000000e+00 
          8.0267930933e-10 -1.2797612915e-04 0.0000000000e+00 
          6.7441960711e-10 -1.2842181153e-04 0.0000000000e+00 
          5.6644517924e-10 -1.2883706312e-04 0.0000000000e+00 
          4.7568941394e-10 -1.2922216942e-04 0.0000000000e+00 
          3.9954808848e-10 -1.2957752262e-04 0.0000000000e+00 
          3.3581439894e-10 -1.2990275235e-04 0.0000000000e+00 
          2.8262318218e-10 -1.3019863945e-04 0.0000000000e+00 
          2.3840293643e-10 -1.3046604517e-04 0.0000000000e+00 
          2.0183560247e-10 -1.3070530332e-04 0.0000000000e+00 
          1.7182185473e-10 -1.3091593622e-04 0.0000000000e+00 
          1.4745222174e-10 -1.3109693589e-04 0.0000000000e+00 
          1.2798277758e-10 -1.3124899718e-04 0.0000000000e+00 
          1.1281538466e-10 -1.3137284260e-04 0.0000000000e+00 
          1.0148140947e-10 -1.3146917612e-04 0.0000000000e+00 
          9.3629032461e-11 -1.3153853542e-04 0.0000000000e+00 
          8.9013603968e-11 -1.3157976024e-04 0.0000000000e+00 
        </DataArray>
        <DataArray type="Float64" Name="Acceleration" NumberOfComponents="3" format="ascii">
          7.3811290261e-05 9.9223800159e-05 0.0000000000e+00 
          7.3811290261e-05 9.9223800159e-05 0.0000000000e+00 
          2.7437966265e-07 -6.9838329064e-04 0.0000000000e+00 
          2.7437966265e-07 -6.9838329064e-04 0.0000000000e+00 
          6.3941574925e-05 1.2731645354e-06 0.0000000000e+00 
          5.5339335799e-05 1.9826441290e-04 0.0000000000e+00 
          4.7849407545e-05 3.0509633471e-04 0.0000000000e+00 
          4.1334362615e-05 1.0426415201e-04 0.0000000000e+00 
          3.5672915023e-05 7.7359649102e-05 0.0000000000e+00 
          3.0758071119e-05 -1.3918260592e-04 0.0000000000e+00 
          2.6495586172e-05 -4.5150453830e-05 0.0000000000e+00 
          2.2802469182e-05 4.9195993854e-05 0.0000000000e+00 
          1.9605820211e-05 1.6003977972e-04 0.0000000000e+00 
          1.6841623476e-05 2.2359844376e-04 0.0000000000e+00 
          1.4453714260e-05 2.0865259519e-04 0.0000000000e+00 
          1.2392887761e-05 1.4319306245e-04 0.0000000000e+00 
          1.0616093947e-05 1.2702690966e-05 0.0000000000e+00 
          9.0856893461e-06 2.9429116531e-05 0.0000000000e+00 
          7.7688071290e-06 -5.6955391012e-05 0.0000000000e+00 
          6.6367859991e-06 1.3385594964e-04 0.0000000000e+00 
          5.6646489509e-06 -8.2162076251e-05 0.0000000000e+00 
          4.8306627076e-06 -3.1211984275e-05 0.0000000000e+00 
          4.1159342383e-06 3.9681925910e-04 0.0000000000e+00 
          3.5040605720e-06 3.3909610869e-05 0.0000000000e+00 
          2.9808149358e-06 -1.8207524677e-04 0.0000000000e+00 
          2.5338781613e-06 2.3239359989e-04 0.0000000000e+00 
          2.1525942462e-06 6.1457231643e-05 0.0000000000e+00 
          1.8277594915e-06 -1.0360676164e-04 0.0000000000e+00 
          1.5514355007e-06 -1.5516583064e-04 0.0000000000e+00 
          1.3167898919e-06 -2.2583730155e-04 0.0000000000e+00 
          1.1179524995e-06 -1.5909535065e-04 0.0000000000e+00 
          9.4989200368e-07 -2.9987371503e-04 0.0000000000e+00 
          8.0830896137e-07 -4.5493480798e-04 0.0000000000e+00 
          6.8954246266e-07 -5.1515970782e-04 0.0000000000e+00 
          5.9049106566e-07 -4.2908232505e-04 0.0000000000e+00 
          5.0854335855e-07 -2.4747827181e-04 0.0000000000e+00 
          4.4151983382e-07 -3.7260713817e-04 0.0000000000e+00 
          3.8762331099e-07 -5.0285392779e-04 0.0000000000e+00 
          3.4539850611e-07 -6.2971092539e-04 0.0000000000e+00 
          3.1369815799e-07 -7.2661621754e-04 0.0000000000e+00 
          2.9165656089e-07 -5.1750088077e-04 0.0000000000e+00 
          2.7866939216e-07 -6.0312965472e-04 0.0000000000e+00 
          6.3941574925e-05 1.2731645354e-06 0.0000000000e+00 
          5.5339335799e-05 1.9826441290e-04 0.0000000000e+00 
          4.7849407545e-05 3.0509633471e-04 0.0000000000e+00 
          4.1334362615e-05 1.0426415201e-04 0.0000000000e+00 
          3.5672915023e-05 7.7359649102e-05 0.0000000000e+00 
          3.0758071119e-05 -1.3918260592e-04 0.0000000000e+00 
          2.6495586172e-05 -4.5150453830e-05 0.0000000000e+00 
          2.2802469182e-05 4.9195993854e-05 0.0000000000e+00 
          1.9605820211e-05 1.6003977972e-04 0.0000000000e+00 
          1.6841623476e-05 2.2359844376e-04 0.0000000000e+00 
          1.4453714260e-05 2.0865259519e-04 0.0000000000e+00 
          1.2392887761e-05 1.4319306245e-04 0.0000000000e+00 
          1.0616093947e-05 1.2702690966e-05 0.0000000000e+00 
          9.0856893461e-06 2.9429116531e-05 0.0000000000e+00 
          7.7688071290e-06 -5.6955391012e-05 0.0000000000e+00 
          6.6367859991e-06 1.3385594964e-04 0.0000000000e+00 
          5.6646489509e-06 -8.2162076251e-05 0.0000000000e+00 
          4.8306627076e-06 -3.1211984275e-05 0.0000000000e+00 
          4.1159342383e-06 3.9681925910e-04 0.0000000000e+00 
          3.5040605720e-06 3.3909610869e-05 0.0000000000e+00 
          2.9808149358e-06 -1.8207524677e-04 0.0000000000e+00 
          2.5338781613e-06 2.3239359989e-04 0.0000000000e+00 
          2.1525942462e-06 6.1457231643e-05 0.0000000000e+00 
          1.8277594915e-06 -1.0360676164e-04 0.0000000000e+00 
          1.5514355007e-06 -1.5516583064e-04 0.0000000000e+00 
          1.3167898919e-06 -2.2583730155e-04 0.0000000000e+00 
          1.1179524995e-06 -1.5909535065e-04 0.0000000000e+00 
          9.4989200368e-07 -2.9987371503e-04 0.0000000000e+00 
          8.0830896137e-07 -4.5493480798e-04 0.0000000000e+00 
          6.8954246266e-07 -5.1515970782e-04 0.0000000000e+00 
          5.9049106566e-07 -4.2908232505e-04 0.0000000000e+00 
          5.0854335855e-07 -2.4747827181e-04 0.0000000000e+00 
          4.4151983382e-07 -3.7260713817e-04 0.0000000000e+00 
          3.8762331099e-07 -5.0285392779e-04 0.0000000000e+00 
          3.4539850611e-07 -6.2971092539e-04 0.0000000000e+00 
          3.1369815799e-07 -7.2661621754e-04 0.0000000000e+00 
          2.9165656089e-07 -5.1750088077e-04 0.0000000000e+00 
          2.7866939216e-07 -6.0312965472e-04 0.0000000000e+00 
        </DataArray>
        <DataArray type="Float64" Name="Reaction" NumberOfComponents="3" format="ascii">
          0.0000000000e+00 0.0000000000e+00 0.0000000000e+00 
          0.0000000000e+00 0.0000000000e+00 0.0000000000e+00 
          0.0000000000e+00 0.0000000000e+00 0.0000000000e+00 
          0.0000000000e+00 0.0000000000e+00 0.0000000000e+00 
          0.0000000000e+00 0.0000000000e+00 0.0000000000e+00 
          0.0000000000e+00 0.0000000000e+00 0.0000000000e+00 
          0.0000000000e+00 0.0000000000e+00 0.0000000000e+00 
          0.0000000000e+00 0.0000000000e+00 0.0000000000e+00 
          0.0000000000e+00 0.0000000000e+00 0.0000000000e+00 
          0.0000000000e+00 0.0000000000e+00 0.0000000000e+00 
          0.0000000000e+00 0.0000000000e+00 0.0000000000e+00 
          0.0000000000e+00 0.0000000000e+00 0.0000000000e+00 
          0.0000000000e+00 0.0000000000e+00 0.0000000000e+00 
          0.0000000000e+00 0.0000000000e+00 0.0000000000e+00 
          0.0000000000e+00 0.0000000000e+00 0.0000000000e+00 
          0.0000000000e+00 0.0000000000e+00 0.0000000000e+00 
          0.0000000000e+00 0.0000000000e+00 0.0000000000e+00 
          0.0000000000e+00 0.0000000000e+00 0.0000000000e+00 
          0.0000000000e+00 0.0000000000e+00 0.0000000000e+00 
          0.0000000000e+00 0.0000000000e+00 0.0000000000e+00 
          0.0000000000e+00 0.0000000000e+00 0.0000000000e+00 
          0.0000000000e+00 0.0000000000e+00 0.0000000000e+00 
          0.0000000000e+00 0.0000000000e+00 0.0000000000e+00 
          0.0000000000e+00 0.0000000000e+00 0.0000000000e+00 
          0.0000000000e+00 0.0000000000e+00 0.0000000000e+00 
          0.0000000000e+00 0.0000000000e+00 0.0000000000e+00 
          0.0000000000e+00 0.0000000000e+00 0.0000000000e+00 
          0.0000000000e+00 0.0000000000e+00 0.0000000000e+00 
          0.0000000000e+00 0.0000000000e+00 0.0000000000e+00 
          0.0000000000e+00 0.0000000000e+00 0.0000000000e+00 
          0.0000000000e+00 0.0000000000e+00 0.0000000000e+00 
          0.0000000000e+00 0.0000000000e+00 0.0000000000e+00 
          0.0000000000e+00 0.0000000000e+00 0.0000000000e+00 
          0.0000000000e+00 0.0000000000e+00 0.0000000000e+00 
          0.0000000000e+00 0.0000000000e+00 0.0000000000e+00 
          0.0000000000e+00 0.0000000000e+00 0.0000000000e+00 
          0.0000000000e+00 0.0000000000e+00 0.0000000000e+00 
          0.0000000000e+00 0.0000000000e+00 0.0000000000e+00 
          0.0000000000e+00 0.0000000000e+00 0.0000000000e+00 
          0.0000000000e+00 0.0000000000e+00 0.0000000000e+00 
          0.0000000000e+00 0.0000000000e+00 0.0000000000e+00 
          0.0000000000e+00 0.0000000000e+00 0.0000000000e+00 
          0.0000000000e+00 0.0000000000e+00 0.0000000000e+00 
          0.0000000000e+00 0.0000000000e+00 0.0000000000e+00 
          0.0000000000e+00 0.0000000000e+00 0.0000000000e+00 
          0.0000000000e+00 0.0000000000e+00 0.0000000000e+00 
          0.0000000000e+00 0.0000000000e+00 0.0000000000e+00 
          0.0000000000e+00 0.0000000000e+00 0.0000000000e+00 
          0.0000000000e+00 0.0000000000e+00 0.0000000000e+00 
          0.0000000000e+00 0.0000000000e+00 0.0000000000e+00 
          0.0000000000e+00 0.0000000000e+00 0.0000000000e+00 
          0.0000000000e+00 0.0000000000e+00 0.0000000000e+00 
          0.0000000000e+00 0.0000000000e+00 0.0000000000e+00 
          0.0000000000e+00 0.0000000000e+00 0.0000000000e+00 
          0.0000000000e+00 0.0000000000e+00 0.0000000000e+00 
          0.0000000000e+00 0.0000000000e+00 0.0000000000e+00 
          0.0000000000e+00 0.0000000000e+00 0.0000000000e+00 
          0.0000000000e+00 0.0000000000e+00 0.0000000000e+00 
          0.0000000000e+00 0.0000000000e+00 0.0000000000e+00 
          0.0000000000e+00 0.0000000000e+00 0.0000000000e+00 
          0.0000000000e+00 0.0000000000e+00 0.0000000000e+00 
          0.0000000000e+00 0.0000000000e+00 0.0000000000e+00 
          0.0000000000e+00 0.0000000000e+00 0.0000000000e+00 
          0.0000000000e+00 0.0000000000e+00 0.0000000000e+00 
          0.0000000000e+00 0.0000000000e+00 0.0000000000e+00 
          0.0000000000e+00 0.0000000000e+00 0.0000000000e+00 
          0.0000000000e+00 0.0000000000e+00 0.0000000000e+00 
          0.0000000000e+00 0.0000000000e+00 0.0000000000e+00 
          0.0000000000e+00 0.0000000000e+00 0.0000000000e+00 
          0.0000000000e+00 0.0000000000e+00 0.0000000000e+00 
          0.0000000000e+00 0.0000000000e+00 0.0000000000e+00 
          0.0000000000e+00 0.0000000000e+00 0.0000000000e+00 
          0.0000000000e+00 0.0000000000e+00 0.0000000000e+00 
          0.0000000000e+00 0.0000000000e+00 0.0000000000e+00 
          0.0000000000e+00 0.0000000000e+00 0.0000000000e+00 
          0.0000000000e+00 0.0000000000e+00 0.0000000000e+00 
          0.0000000000e+00 0.0000000000e+00 0.0000000000e+00 
          0.0000000000e+00 0.0000000000e+00 0.0000000000e+00 
          0.0000000000e+00 0.0000000000e+00 0.0000000000e+00 
          0.0000000000e+00 0.0000000000e+00 0.0000000000e+00 
        </DataArray>
      </PointData>
      <CellData>
        <DataArray type="Int64" Name="ElementTag" format="ascii">
          90
          91
          92
          93
          94
          95
          96
          97
          98
          99
          100
          101
          102
          103
          104
          105
          106
          107
          108
          109
          110
          111
          112
          113
          114
          115
          116
          117
          118
          119
          120
          121
          122
          123
          124
          125
          126
          127
          128
        </DataArray>
      </CellData>
    </Piece>
  </UnstructuredGrid>
</VTKFile>
