<?xml version="1.0"?>
<VTKFile type="UnstructuredGrid" version="1.0" byte_order="LittleEndian" compressor="vtkZLibDataCompressor">
  <UnstructuredGrid>
    <Piece NumberOfPoints="80" NumberOfCells="39">
      <Points>
        <DataArray type="Float64" Name="Points" NumberOfComponents="3" format="ascii">
          0.0000000000e+00 0.0000000000e+00 0.0000000000e+00 
          2.5000000000e-01 0.0000000000e+00 0.0000000000e+00 
          2.5000000000e-01 3.0000000000e+01 0.0000000000e+00 
          0.0000000000e+00 3.0000000000e+01 0.0000000000e+00 
          2.5000000000e-01 7.6923100000e-01 0.0000000000e+00 
          2.5000000000e-01 1.5384620000e+00 0.0000000000e+00 
          2.5000000000e-01 2.3076920000e+00 0.0000000000e+00 
          2.5000000000e-01 3.0769230000e+00 0.0000000000e+00 
          2.5000000000e-01 3.8461540000e+00 0.0000000000e+00 
          2.5000000000e-01 4.6153850000e+00 0.0000000000e+00 
          2.5000000000e-01 5.3846150000e+00 0.0000000000e+00 
          2.5000000000e-01 6.1538460000e+00 0.0000000000e+00 
          2.5000000000e-01 6.9230770000e+00 0.0000000000e+00 
          2.5000000000e-01 7.6923080000e+00 0.0000000000e+00 
          2.5000000000e-01 8.4615380000e+00 0.0000000000e+00 
          2.5000000000e-01 9.2307690000e+00 0.0000000000e+00 
          2.5000000000e-01 1.0000000000e+01 0.0000000000e+00 
          2.5000000000e-01 1.0769231000e+01 0.0000000000e+00 
          2.5000000000e-01 1.1538462000e+01 0.0000000000e+00 
          2.5000000000e-01 1.2307692000e+01 0.0000000000e+00 
          2.5000000000e-01 1.3076923000e+01 0.0000000000e+00 
          2.5000000000e-01 1.3846154000e+01 0.0000000000e+00 
          2.5000000000e-01 1.4615385000e+01 0.0000000000e+00 
          2.5000000000e-01 1.5384615000e+01 0.0000000000e+00 
          2.5000000000e-01 1.6153846000e+01 0.0000000000e+00 
          2.5000000000e-01 1.6923077000e+01 0.0000000000e+00 
          2.5000000000e-01 1.7692308000e+01 0.0000000000e+00 
          2.5000000000e-01 1.8461538000e+01 0.0000000000e+00 
          2.5000000000e-01 1.9230769000e+01 0.0000000000e+00 
          2.5000000000e-01 2.0000000000e+01 0.0000000000e+00 
          2.5000000000e-01 2.0769231000e+01 0.0000000000e+00 
          2.5000000000e-01 2.1538462000e+01 0.0000000000e+00 
          2.5000000000e-01 2.2307692000e+01 0.0000000000e+00 
          2.5000000000e-01 2.3076923000e+01 0.0000000000e+00 
          2.5000000000e-01 2.3846154000e+01 0.0000000000e+00 
          2.5000000000e-01 2.4615385000e+01 0.0000000000e+00 
          2.5000000000e-01 2.5384615000e+01 0.0000000000e+00 
          2.5000000000e-01 2.6153846000e+01 0.0000000000e+00 
          2.5000000000e-01 2.6923077000e+01 0.0000000000e+00 
          2.5000000000e-01 2.7692308000e+01 0.0000000000e+00 
          2.5000000000e-01 2.8461538000e+01 0.0000000000e+00 
          2.5000000000e-01 2.9230769000e+01 0.0000000000e+00 
          0.0000000000e+00 7.6923100000e-01 0.0000000000e+00 
          0.0000000000e+00 1.5384620000e+00 0.0000000000e+00 
          0.0000000000e+00 2.3076920000e+00 0.0000000000e+00 
          0.0000000000e+00 3.0769230000e+00 0.0000000000e+00 
          0.0000000000e+00 3.8461540000e+00 0.0000000000e+00 
          0.0000000000e+00 4.6153850000e+00 0.0000000000e+00 
          0.0000000000e+00 5.3846150000e+00 0.0000000000e+00 
          0.0000000000e+00 6.1538460000e+00 0.0000000000e+00 
          0.0000000000e+00 6.9230770000e+00 0.0000000000e+00 
          0.0000000000e+00 7.6923080000e+00 0.0000000000e+00 
          0.0000000000e+00 8.4615380000e+00 0.0000000000e+00 
          0.0000000000e+00 9.2307690000e+00 0.0000000000e+00 
          0.0000000000e+00 1.0000000000e+01 0.0000000000e+00 
          0.0000000000e+00 1.0769231000e+01 0.0000000000e+00 
          0.0000000000e+00 1.1538462000e+01 0.0000000000e+00 
          0.0000000000e+00 1.2307692000e+01 0.0000000000e+00 
          0.0000000000e+00 1.3076923000e+01 0.0000000000e+00 
          0.0000000000e+00 1.3846154000e+01 0.0000000000e+00 
          0.0000000000e+00 1.4615385000e+01 0.0000000000e+00 
          0.0000000000e+00 1.5384615000e+01 0.0000000000e+00 
          0.0000000000e+00 1.6153846000e+01 0.0000000000e+00 
          0.0000000000e+00 1.6923077000e+01 0.0000000000e+00 
          0.0000000000e+00 1.7692308000e+01 0.0000000000e+00 
          0.0000000000e+00 1.8461538000e+01 0.0000000000e+00 
          0.0000000000e+00 1.9230769000e+01 0.0000000000e+00 
          0.0000000000e+00 2.0000000000e+01 0.0000000000e+00 
          0.0000000000e+00 2.0769231000e+01 0.0000000000e+00 
          0.0000000000e+00 2.1538462000e+01 0.0000000000e+00 
          0.0000000000e+00 2.2307692000e+01 0.0000000000e+00 
          0.0000000000e+00 2.3076923000e+01 0.0000000000e+00 
          0.0000000000e+00 2.3846154000e+01 0.0000000000e+00 
          0.0000000000e+00 2.4615385000e+01 0.0000000000e+00 
          0.0000000000e+00 2.5384615000e+01 0.0000000000e+00 
          0.0000000000e+00 2.6153846000e+01 0.0000000000e+00 
          0.0000000000e+00 2.6923077000e+01 0.0000000000e+00 
          0.0000000000e+00 2.7692308000e+01 0.0000000000e+00 
          0.0000000000e+00 2.8461538000e+01 0.0000000000e+00 
          0.0000000000e+00 2.9230769000e+01 0.0000000000e+00 
        </DataArray>
      </Points>
      <Cells>
        <DataArray type="Int64" Name="connectivity" format="ascii">
          0 1 4 42 
          42 4 5 43 
          43 5 6 44 
          44 6 7 45 
          45 7 8 46 
          46 8 9 47 
          47 9 10 48 
          48 10 11 49 
          49 11 12 50 
          50 12 13 51 
          51 13 14 52 
          52 14 15 53 
          53 15 16 54 
          54 16 17 55 
          55 17 18 56 
          56 18 19 57 
          57 19 20 58 
          58 20 21 59 
          59 21 22 60 
          60 22 23 61 
          61 23 24 62 
          62 24 25 63 
          63 25 26 64 
          64 26 27 65 
          65 27 28 66 
          66 28 29 67 
          67 29 30 68 
          68 30 31 69 
          69 31 32 70 
          70 32 33 71 
          71 33 34 72 
          72 34 35 73 
          73 35 36 74 
          74 36 37 75 
          75 37 38 76 
          76 38 39 77 
          77 39 40 78 
          78 40 41 79 
          79 41 2 3 
        </DataArray>
        <DataArray type="Int64" Name="offsets" format="ascii">
          4
          8
          12
          16
          20
          24
          28
          32
          36
          40
          44
          48
          52
          56
          60
          64
          68
          72
          76
          80
          84
          88
          92
          96
          100
          104
          108
          112
          116
          120
          124
          128
          132
          136
          140
          144
          148
          152
          156
        </DataArray>
        <DataArray type="Int64" Name="types" format="ascii">
          9
          9
          9
          9
          9
          9
          9
          9
          9
          9
          9
          9
          9
          9
          9
          9
          9
          9
          9
          9
          9
          9
          9
          9
          9
          9
          9
          9
          9
          9
          9
          9
          9
          9
          9
          9
          9
          9
          9
        </DataArray>
      </Cells>
      <PointData>
        <DataArray type="Int64" Name="NodeTag" format="ascii">
          1
          2
          3
          4
          7
          8
          9
          10
          11
          12
          13
          14
          15
          16
          17
          18
          19
          20
          21
          22
          23
          24
          25
          26
          27
          28
          29
          30
          31
          32
          33
          34
          35
          36
          37
          38
          39
          40
          41
          42
          43
          44
          45
          46
          47
          48
          49
          50
          51
          52
          53
          54
          55
          56
          57
          58
          59
          60
          61
          62
          63
          64
          65
          66
          67
          68
          69
          70
          71
          72
          73
          74
          75
          76
          77
          78
          79
          80
          81
          82
        </DataArray>
        <DataArray type="Float64" Name="Velocity" NumberOfComponents="3" format="ascii">
          1.4765487791e-04 -7.7848871374e-05 0.0000000000e+00 
          1.4765487791e-04 -7.7848871374e-05 0.0000000000e+00 
          -5.5261408575e-04 -7.7763980305e-05 0.0000000000e+00 
          -5.5261408575e-04 -7.7763980305e-05 0.0000000000e+00 
          1.2128691576e-04 -7.7825536754e-05 0.0000000000e+00 
          9.4795010453e-05 -7.7869516891e-05 0.0000000000e+00 
          6.8196391370e-05 -7.7824338969e-05 0.0000000000e+00 
          4.1575445255e-05 -7.7856898321e-05 0.0000000000e+00 
          1.4966751306e-05 -7.7849326073e-05 0.0000000000e+00 
          -1.1586790758e-05 -7.7845528018e-05 0.0000000000e+00 
          -3.8008685533e-05 -7.7836814899e-05 0.0000000000e+00 
          -6.4277250087e-05 -7.7856504289e-05 0.0000000000e+00 
          -9.0322969880e-05 -7.7860201158e-05 0.0000000000e+00 
          -1.1610194238e-04 -7.7810078928e-05 0.0000000000e+00 
          -1.4156717665e-04 -7.7899803873e-05 0.0000000000e+00 
          -1.6666474096e-04 -7.7795689791e-05 0.0000000000e+00 
          -1.9134517685e-04 -7.7881453375e-05 0.0000000000e+00 
          -2.1556855802e-04 -7.7858468995e-05 0.0000000000e+00 
          -2.3927693266e-04 -7.7800871862e-05 0.0000000000e+00 
          -2.6242902758e-04 -7.7908403295e-05 0.0000000000e+00 
          -2.8497795718e-04 -7.7813985277e-05 0.0000000000e+00 
          -3.0687876863e-04 -7.7854747853e-05 0.0000000000e+00 
          -3.2808932076e-04 -7.7855032532e-05 0.0000000000e+00 
          -3.4856029283e-04 -7.7858374826e-05 0.0000000000e+00 
          -3.6825994171e-04 -7.7841623550e-05 0.0000000000e+00 
          -3.8713722820e-04 -7.7844267772e-05 0.0000000000e+00 
          -4.0516512898e-04 -7.7887979678e-05 0.0000000000e+00 
          -4.2229399639e-04 -7.7794425261e-05 0.0000000000e+00 
          -4.3849957116e-04 -7.7918913793e-05 0.0000000000e+00 
          -4.5373814735e-04 -7.7795444779e-05 0.0000000000e+00 
          -4.6798258445e-04 -7.7892716834e-05 0.0000000000e+00 
          -4.8121163268e-04 -7.7843034053e-05 0.0000000000e+00 
          -4.9337160814e-04 -7.7842250712e-05 0.0000000000e+00 
          -5.0446915432e-04 -7.7876464079e-05 0.0000000000e+00 
          -5.1445503762e-04 -7.7841024028e-05 0.0000000000e+00 
          -5.2331737338e-04 -7.7856588246e-05 0.0000000000e+00 
          -5.3104712279e-04 -7.7867631696e-05 0.0000000000e+00 
          -5.3760022121e-04 -7.7835717550e-05 0.0000000000e+00 
          -5.4299614562e-04 -7.7875645484e-05 0.0000000000e+00 
          -5.4719760936e-04 -7.7854975855e-05 0.0000000000e+00 
          -5.5020504550e-04 -7.7821462459e-05 0.0000000000e+00 
          -5.5201808357e-04 -7.7933134397e-05 0.0000000000e+00 
          1.2128691576e-04 -7.7825536754e-05 0.0000000000e+00 
          9.4795010453e-05 -7.7869516891e-05 0.0000000000e+00 
          6.8196391370e-05 -7.7824338969e-05 0.0000000000e+00 
          4.1575445255e-05 -7.7856898321e-05 0.0000000000e+00 
          1.4966751306e-05 -7.7849326073e-05 0.0000000000e+00 
          -1.1586790758e-05 -7.7845528018e-05 0.0000000000e+00 
          -3.8008685533e-05 -7.7836814899e-05 0.0000000000e+00 
          -6.4277250087e-05 -7.7856504289e-05 0.0000000000e+00 
          -9.0322969880e-05 -7.7860201158e-05 0.0000000000e+00 
          -1.1610194238e-04 -7.7810078928e-05 0.0000000000e+00 
          -1.4156717665e-04 -7.7899803873e-05 0.0000000000e+00 
          -1.6666474096e-04 -7.7795689791e-05 0.0000000000e+00 
          -1.9134517685e-04 -7.7881453375e-05 0.0000000000e+00 
          -2.1556855802e-04 -7.7858468995e-05 0.0000000000e+00 
          -2.3927693266e-04 -7.7800871862e-05 0.0000000000e+00 
          -2.6242902758e-04 -7.7908403295e-05 0.0000000000e+00 
          -2.8497795718e-04 -7.7813985277e-05 0.0000000000e+00 
          -3.0687876863e-04 -7.7854747853e-05 0.0000000000e+00 
          -3.2808932076e-04 -7.7855032532e-05 0.0000000000e+00 
          -3.4856029283e-04 -7.7858374826e-05 0.0000000000e+00 
          -3.6825994171e-04 -7.7841623550e-05 0.0000000000e+00 
          -3.8713722820e-04 -7.7844267772e-05 0.0000000000e+00 
          -4.0516512898e-04 -7.7887979678e-05 0.0000000000e+00 
          -4.2229399639e-04 -7.7794425261e-05 0.0000000000e+00 
          -4.3849957116e-04 -7.7918913793e-05 0.0000000000e+00 
          -4.5373814735e-04 -7.7795444779e-05 0.0000000000e+00 
          -4.6798258445e-04 -7.7892716834e-05 0.0000000000e+00 
          -4.8121163268e-04 -7.7843034053e-05 0.0000000000e+00 
          -4.9337160814e-04 -7.7842250712e-05 0.0000000000e+00 
          -5.0446915432e-04 -7.7876464079e-05 0.0000000000e+00 
          -5.1445503762e-04 -7.7841024028e-05 0.0000000000e+00 
          -5.2331737338e-04 -7.7856588246e-05 0.0000000000e+00 
          -5.3104712279e-04 -7.7867631696e-05 0.0000000000e+00 
          -5.3760022121e-04 -7.7835717550e-05 0.0000000000e+00 
          -5.4299614562e-04 -7.7875645484e-05 0.0000000000e+00 
          -5.4719760936e-04 -7.7854975855e-05 0.0000000000e+00 
          -5.5020504550e-04 -7.7821462459e-05 0.0000000000e+00 
          -5.5201808357e-04 -7.7933134397e-05 0.0000000000e+00 
        </DataArray>
        <DataArray type="Float64" Name="Displacement" NumberOfComponents="3" format="ascii">
          7.6109794083e-06 -4.9326667092e-04 0.0000000000e+00 
          7.6109794083e-06 -4.9326667092e-04 0.0000000000e+00 
          6.4486112248e-05 -5.1684697029e-04 0.0000000000e+00 
          6.4486112248e-05 -5.1684697029e-04 0.0000000000e+00 
          1.0054258830e-05 -4.9446048009e-04 0.0000000000e+00 
          1.2476894074e-05 -4.9562305870e-04 0.0000000000e+00 
          1.4875754366e-05 -4.9675494635e-04 0.0000000000e+00 
          1.7247868832e-05 -4.9785556006e-04 0.0000000000e+00 
          1.9590209518e-05 -4.9892533058e-04 0.0000000000e+00 
          2.1899840961e-05 -4.9996404641e-04 0.0000000000e+00 
          2.4173885917e-05 -5.0097173134e-04 0.0000000000e+00 
          2.6409482267e-05 -5.0194842542e-04 0.0000000000e+00 
          2.8603875415e-05 -5.0289412006e-04 0.0000000000e+00 
          3.0754319529e-05 -5.0380887272e-04 0.0000000000e+00 
          3.2858166706e-05 -5.0469241173e-04 0.0000000000e+00 
          3.4912821041e-05 -5.0554523679e-04 0.0000000000e+00 
          3.6915752121e-05 -5.0636679650e-04 0.0000000000e+00 
          3.8864513045e-05 -5.0715750172e-04 0.0000000000e+00 
          4.0756711047e-05 -5.0791717808e-04 0.0000000000e+00 
          4.2590037728e-05 -5.0864576232e-04 0.0000000000e+00 
          4.4362274389e-05 -5.0934348441e-04 0.0000000000e+00 
          4.6071274331e-05 -5.1001007207e-04 0.0000000000e+00 
          4.7714946002e-05 -5.1064570440e-04 0.0000000000e+00 
          4.9291330371e-05 -5.1125036324e-04 0.0000000000e+00 
          5.0798533214e-05 -5.1182394674e-04 0.0000000000e+00 
          5.2234717154e-05 -5.1236658554e-04 0.0000000000e+00 
          5.3598198421e-05 -5.1287818460e-04 0.0000000000e+00 
          5.4887318180e-05 -5.1335874423e-04 0.0000000000e+00 
          5.6100555387e-05 -5.1380845042e-04 0.0000000000e+00 
          5.7236473345e-05 -5.1422688729e-04 0.0000000000e+00 
          5.8293694740e-05 -5.1461457255e-04 0.0000000000e+00 
          5.9271001035e-05 -5.1497115304e-04 0.0000000000e+00 
          6.0167218697e-05 -5.1529661623e-04 0.0000000000e+00 
          6.0981285913e-05 -5.1559128888e-04 0.0000000000e+00 
          6.1712261628e-05 -5.1585478741e-04 0.0000000000e+00 
          6.2359260944e-05 -5.1608734245e-04 0.0000000000e+00 
          6.2921543476e-05 -5.1628888989e-04 0.0000000000e+00 
          6.3398439860e-05 -5.1645941730e-04 0.0000000000e+00 
          6.3789388284e-05 -5.1659897749e-04 0.0000000000e+00 
          6.4093941657e-05 -5.1670743334e-04 0.0000000000e+00 
          6.4311727500e-05 -5.1678501251e-04 0.0000000000e+00 
          6.4442508252e-05 -5.1683151758e-04 0.0000000000e+00 
          1.0054258830e-05 -4.9446048009e-04 0.0000000000e+00 
          1.2476894074e-05 -4.9562305870e-04 0.0000000000e+00 
          1.4875754366e-05 -4.9675494635e-04 0.0000000000e+00 
          1.7247868832e-05 -4.9785556006e-04 0.0000000000e+00 
          1.9590209518e-05 -4.9892533058e-04 0.0000000000e+00 
          2.1899840961e-05 -4.9996404641e-04 0.0000000000e+00 
          2.4173885917e-05 -5.0097173134e-04 0.0000000000e+00 
          2.6409482267e-05 -5.0194842542e-04 0.0000000000e+00 
          2.8603875415e-05 -5.0289412006e-04 0.0000000000e+00 
          3.0754319529e-05 -5.0380887272e-04 0.0000000000e+00 
          3.2858166706e-05 -5.0469241173e-04 0.0000000000e+00 
          3.4912821041e-05 -5.0554523679e-04 0.0000000000e+00 
          3.6915752121e-05 -5.0636679650e-04 0.0000000000e+00 
          3.8864513045e-05 -5.0715750172e-04 0.0000000000e+00 
          4.0756711047e-05 -5.0791717808e-04 0.0000000000e+00 
          4.2590037728e-05 -5.0864576232e-04 0.0000000000e+00 
          4.4362274389e-05 -5.0934348441e-04 0.0000000000e+00 
          4.6071274331e-05 -5.1001007207e-04 0.0000000000e+00 
          4.7714946002e-05 -5.1064570440e-04 0.0000000000e+00 
          4.9291330371e-05 -5.1125036324e-04 0.0000000000e+00 
          5.0798533214e-05 -5.1182394674e-04 0.0000000000e+00 
          5.2234717154e-05 -5.1236658554e-04 0.0000000000e+00 
          5.3598198421e-05 -5.1287818460e-04 0.0000000000e+00 
          5.4887318180e-05 -5.1335874423e-04 0.0000000000e+00 
          5.6100555387e-05 -5.1380845042e-04 0.0000000000e+00 
          5.7236473345e-05 -5.1422688729e-04 0.0000000000e+00 
          5.8293694740e-05 -5.1461457255e-04 0.0000000000e+00 
          5.9271001035e-05 -5.1497115304e-04 0.0000000000e+00 
          6.0167218697e-05 -5.1529661623e-04 0.0000000000e+00 
          6.0981285913e-05 -5.1559128888e-04 0.0000000000e+00 
          6.1712261628e-05 -5.1585478741e-04 0.0000000000e+00 
          6.2359260944e-05 -5.1608734245e-04 0.0000000000e+00 
          6.2921543476e-05 -5.1628888989e-04 0.0000000000e+00 
          6.3398439860e-05 -5.1645941730e-04 0.0000000000e+00 
          6.3789388284e-05 -5.1659897749e-04 0.0000000000e+00 
          6.4093941657e-05 -5.1670743334e-04 0.0000000000e+00 
          6.4311727500e-05 -5.1678501251e-04 0.0000000000e+00 
          6.4442508252e-05 -5.1683151758e-04 0.0000000000e+00 
        </DataArray>
        <DataArray type="Float64" Name="Acceleration" NumberOfComponents="3" format="ascii">
          -1.5821594230e-03 1.0282386618e-06 0.0000000000e+00 
          -1.5821594230e-03 1.0282386618e-06 0.0000000000e+00 
          -7.8576123819e-03 -1.8184410331e-05 0.0000000000e+00 
          -7.8576123819e-03 -1.8184410331e-05 0.0000000000e+00 
          -1.8600811421e-03 4.0406935925e-05 0.0000000000e+00 
          -2.1418905001e-03 -5.7095260381e-05 0.0000000000e+00 
          -2.4101343977e-03 4.8491953669e-05 0.0000000000e+00 
          -2.6826762547e-03 -2.9400560241e-05 0.0000000000e+00 
          -2.9471674900e-03 8.7149185309e-06 0.0000000000e+00 
          -3.2061484415e-03 4.1936440245e-06 0.0000000000e+00 
          -3.4645639870e-03 -2.5516517642e-06 0.0000000000e+00 
          -3.7124898153e-03 -1.2432121738e-06 0.0000000000e+00 
          -3.9598947321e-03 -1.1595871967e-05 0.0000000000e+00 
          -4.1982323836e-03 3.7154933888e-05 0.0000000000e+00 
          -4.4326214888e-03 -5.2478871651e-05 0.0000000000e+00 
          -4.6603675013e-03 4.6674203711e-05 0.0000000000e+00 
          -4.8808380015e-03 -2.7363459201e-05 0.0000000000e+00 
          -5.0964309369e-03 4.0606306224e-06 0.0000000000e+00 
          -5.3042109719e-03 1.5289247395e-05 0.0000000000e+00 
          -5.5045497917e-03 -2.5806960492e-05 0.0000000000e+00 
          -5.6977532990e-03 2.3082060348e-05 0.0000000000e+00 
          -5.8862061976e-03 -9.1914222760e-06 0.0000000000e+00 
          -6.0625380786e-03 -6.0576145138e-06 0.0000000000e+00 
          -6.2335808221e-03 1.2578478737e-05 0.0000000000e+00 
          -6.3989434572e-03 -1.1104746151e-05 0.0000000000e+00 
          -6.5506543890e-03 6.0176867240e-06 0.0000000000e+00 
          -6.6999720201e-03 5.8564735642e-06 0.0000000000e+00 
          -6.8373232979e-03 -2.7438196472e-05 0.0000000000e+00 
          -6.9666170296e-03 4.7392203488e-05 0.0000000000e+00 
          -7.0907157350e-03 -4.5904861871e-05 0.0000000000e+00 
          -7.2005082432e-03 1.7739039144e-05 0.0000000000e+00 
          -7.3061458273e-03 1.9924470029e-05 0.0000000000e+00 
          -7.4020272101e-03 -3.8808647251e-05 0.0000000000e+00 
          -7.4867083094e-03 3.0234753720e-05 0.0000000000e+00 
          -7.5664393783e-03 -1.1324581073e-05 0.0000000000e+00 
          -7.6330887041e-03 1.8317934458e-07 0.0000000000e+00 
          -7.6935313412e-03 2.5190066928e-06 0.0000000000e+00 
          -7.7440809877e-03 -7.0504442459e-06 0.0000000000e+00 
          -7.7843646677e-03 1.7662392625e-05 0.0000000000e+00 
          -7.8179053462e-03 -2.3379643191e-05 0.0000000000e+00 
          -7.8393612252e-03 1.2233847641e-05 0.0000000000e+00 
          -7.8547977822e-03 8.2918851822e-06 0.0000000000e+00 
          -1.8600811421e-03 4.0406935925e-05 0.0000000000e+00 
          -2.1418905001e-03 -5.7095260381e-05 0.0000000000e+00 
          -2.4101343977e-03 4.8491953669e-05 0.0000000000e+00 
          -2.6826762547e-03 -2.9400560241e-05 0.0000000000e+00 
          -2.9471674900e-03 8.7149185309e-06 0.0000000000e+00 
          -3.2061484415e-03 4.1936440245e-06 0.0000000000e+00 
          -3.4645639870e-03 -2.5516517642e-06 0.0000000000e+00 
          -3.7124898153e-03 -1.2432121738e-06 0.0000000000e+00 
          -3.9598947321e-03 -1.1595871967e-05 0.0000000000e+00 
          -4.1982323836e-03 3.7154933888e-05 0.0000000000e+00 
          -4.4326214888e-03 -5.2478871651e-05 0.0000000000e+00 
          -4.6603675013e-03 4.6674203711e-05 0.0000000000e+00 
          -4.8808380015e-03 -2.7363459201e-05 0.0000000000e+00 
          -5.0964309369e-03 4.0606306224e-06 0.0000000000e+00 
          -5.3042109719e-03 1.5289247395e-05 0.0000000000e+00 
          -5.5045497917e-03 -2.5806960492e-05 0.0000000000e+00 
          -5.6977532990e-03 2.3082060348e-05 0.0000000000e+00 
          -5.8862061976e-03 -9.1914222760e-06 0.0000000000e+00 
          -6.0625380786e-03 -6.0576145138e-06 0.0000000000e+00 
          -6.2335808221e-03 1.2578478737e-05 0.0000000000e+00 
          -6.3989434572e-03 -1.1104746151e-05 0.0000000000e+00 
          -6.5506543890e-03 6.0176867240e-06 0.0000000000e+00 
          -6.6999720201e-03 5.8564735642e-06 0.0000000000e+00 
          -6.8373232979e-03 -2.7438196472e-05 0.0000000000e+00 
          -6.9666170296e-03 4.7392203488e-05 0.0000000000e+00 
          -7.0907157350e-03 -4.5904861871e-05 0.0000000000e+00 
          -7.2005082432e-03 1.7739039144e-05 0.0000000000e+00 
          -7.3061458273e-03 1.9924470029e-05 0.0000000000e+00 
          -7.4020272101e-03 -3.8808647251e-05 0.0000000000e+00 
          -7.4867083094e-03 3.0234753720e-05 0.0000000000e+00 
          -7.5664393783e-03 -1.1324581073e-05 0.0000000000e+00 
          -7.6330887041e-03 1.8317934458e-07 0.0000000000e+00 
          -7.6935313412e-03 2.5190066928e-06 0.0000000000e+00 
          -7.7440809877e-03 -7.0504442459e-06 0.0000000000e+00 
          -7.7843646677e-03 1.7662392625e-05 0.0000000000e+00 
          -7.8179053462e-03 -2.3379643191e-05 0.0000000000e+00 
          -7.8393612252e-03 1.2233847641e-05 0.0000000000e+00 
          -7.8547977822e-03 8.2918851822e-06 0.0000000000e+00 
        </DataArray>
        <DataArray type="Float64" Name="Reaction" NumberOfComponents="3" format="ascii">
          0.0000000000e+00 0.0000000000e+00 0.0000000000e+00 
          0.0000000000e+00 0.0000000000e+00 0.0000000000e+00 
          0.0000000000e+00 0.0000000000e+00 0.0000000000e+00 
          0.0000000000e+00 0.0000000000e+00 0.0000000000e+00 
          0.0000000000e+00 0.0000000000e+00 0.0000000000e+00 
          0.0000000000e+00 0.0000000000e+00 0.0000000000e+00 
          0.0000000000e+00 0.0000000000e+00 0.0000000000e+00 
          0.0000000000e+00 0.0000000000e+00 0.0000000000e+00 
          0.0000000000e+00 0.0000000000e+00 0.0000000000e+00 
          0.0000000000e+00 0.0000000000e+00 0.0000000000e+00 
          0.0000000000e+00 0.0000000000e+00 0.0000000000e+00 
          0.0000000000e+00 0.0000000000e+00 0.0000000000e+00 
          0.0000000000e+00 0.0000000000e+00 0.0000000000e+00 
          0.0000000000e+00 0.0000000000e+00 0.0000000000e+00 
          0.0000000000e+00 0.0000000000e+00 0.0000000000e+00 
          0.0000000000e+00 0.0000000000e+00 0.0000000000e+00 
          0.0000000000e+00 0.0000000000e+00 0.0000000000e+00 
          0.0000000000e+00 0.0000000000e+00 0.0000000000e+00 
          0.0000000000e+00 0.0000000000e+00 0.0000000000e+00 
          0.0000000000e+00 0.0000000000e+00 0.0000000000e+00 
          0.0000000000e+00 0.0000000000e+00 0.0000000000e+00 
          0.0000000000e+00 0.0000000000e+00 0.0000000000e+00 
          0.0000000000e+00 0.0000000000e+00 0.0000000000e+00 
          0.0000000000e+00 0.0000000000e+00 0.0000000000e+00 
          0.0000000000e+00 0.0000000000e+00 0.0000000000e+00 
          0.0000000000e+00 0.0000000000e+00 0.0000000000e+00 
          0.0000000000e+00 0.0000000000e+00 0.0000000000e+00 
          0.0000000000e+00 0.0000000000e+00 0.0000000000e+00 
          0.0000000000e+00 0.0000000000e+00 0.0000000000e+00 
          0.0000000000e+00 0.0000000000e+00 0.0000000000e+00 
          0.0000000000e+00 0.0000000000e+00 0.0000000000e+00 
          0.0000000000e+00 0.0000000000e+00 0.0000000000e+00 
          0.0000000000e+00 0.0000000000e+00 0.0000000000e+00 
          0.0000000000e+00 0.0000000000e+00 0.0000000000e+00 
          0.0000000000e+00 0.0000000000e+00 0.0000000000e+00 
          0.0000000000e+00 0.0000000000e+00 0.0000000000e+00 
          0.0000000000e+00 0.0000000000e+00 0.0000000000e+00 
          0.0000000000e+00 0.0000000000e+00 0.0000000000e+00 
          0.0000000000e+00 0.0000000000e+00 0.0000000000e+00 
          0.0000000000e+00 0.0000000000e+00 0.0000000000e+00 
          0.0000000000e+00 0.0000000000e+00 0.0000000000e+00 
          0.0000000000e+00 0.0000000000e+00 0.0000000000e+00 
          0.0000000000e+00 0.0000000000e+00 0.0000000000e+00 
          0.0000000000e+00 0.0000000000e+00 0.0000000000e+00 
          0.0000000000e+00 0.0000000000e+00 0.0000000000e+00 
          0.0000000000e+00 0.0000000000e+00 0.0000000000e+00 
          0.0000000000e+00 0.0000000000e+00 0.0000000000e+00 
          0.0000000000e+00 0.0000000000e+00 0.0000000000e+00 
          0.0000000000e+00 0.0000000000e+00 0.0000000000e+00 
          0.0000000000e+00 0.0000000000e+00 0.0000000000e+00 
          0.0000000000e+00 0.0000000000e+00 0.0000000000e+00 
          0.0000000000e+00 0.0000000000e+00 0.0000000000e+00 
          0.0000000000e+00 0.0000000000e+00 0.0000000000e+00 
          0.0000000000e+00 0.0000000000e+00 0.0000000000e+00 
          0.0000000000e+00 0.0000000000e+00 0.0000000000e+00 
          0.0000000000e+00 0.0000000000e+00 0.0000000000e+00 
          0.0000000000e+00 0.0000000000e+00 0.0000000000e+00 
          0.0000000000e+00 0.0000000000e+00 0.0000000000e+00 
          0.0000000000e+00 0.0000000000e+00 0.0000000000e+00 
          0.0000000000e+00 0.0000000000e+00 0.0000000000e+00 
          0.0000000000e+00 0.0000000000e+00 0.0000000000e+00 
          0.0000000000e+00 0.0000000000e+00 0.0000000000e+00 
          0.0000000000e+00 0.0000000000e+00 0.0000000000e+00 
          0.0000000000e+00 0.0000000000e+00 0.0000000000e+00 
          0.0000000000e+00 0.0000000000e+00 0.0000000000e+00 
          0.0000000000e+00 0.0000000000e+00 0.0000000000e+00 
          0.0000000000e+00 0.0000000000e+00 0.0000000000e+00 
          0.0000000000e+00 0.0000000000e+00 0.0000000000e+00 
          0.0000000000e+00 0.0000000000e+00 0.0000000000e+00 
          0.0000000000e+00 0.0000000000e+00 0.0000000000e+00 
          0.0000000000e+00 0.0000000000e+00 0.0000000000e+00 
          0.0000000000e+00 0.0000000000e+00 0.0000000000e+00 
          0.0000000000e+00 0.0000000000e+00 0.0000000000e+00 
          0.0000000000e+00 0.0000000000e+00 0.0000000000e+00 
          0.0000000000e+00 0.0000000000e+00 0.0000000000e+00 
          0.0000000000e+00 0.0000000000e+00 0.0000000000e+00 
          0.0000000000e+00 0.0000000000e+00 0.0000000000e+00 
          0.0000000000e+00 0.0000000000e+00 0.0000000000e+00 
          0.0000000000e+00 0.0000000000e+00 0.0000000000e+00 
          0.0000000000e+00 0.0000000000e+00 0.0000000000e+00 
        </DataArray>
      </PointData>
      <CellData>
        <DataArray type="Int64" Name="ElementTag" format="ascii">
          90
          91
          92
          93
          94
          95
          96
          97
          98
          99
          100
          101
          102
          103
          104
          105
          106
          107
          108
          109
          110
          111
          112
          113
          114
          115
          116
          117
          118
          119
          120
          121
          122
          123
          124
          125
          126
          127
          128
        </DataArray>
      </CellData>
    </Piece>
  </UnstructuredGrid>
</VTKFile>
