<?xml version="1.0"?>
<VTKFile type="UnstructuredGrid" version="1.0" byte_order="LittleEndian" compressor="vtkZLibDataCompressor">
  <UnstructuredGrid>
    <Piece NumberOfPoints="80" NumberOfCells="39">
      <Points>
        <DataArray type="Float64" Name="Points" NumberOfComponents="3" format="ascii">
          0.0000000000e+00 0.0000000000e+00 0.0000000000e+00 
          2.5000000000e-01 0.0000000000e+00 0.0000000000e+00 
          2.5000000000e-01 3.0000000000e+01 0.0000000000e+00 
          0.0000000000e+00 3.0000000000e+01 0.0000000000e+00 
          2.5000000000e-01 7.6923100000e-01 0.0000000000e+00 
          2.5000000000e-01 1.5384620000e+00 0.0000000000e+00 
          2.5000000000e-01 2.3076920000e+00 0.0000000000e+00 
          2.5000000000e-01 3.0769230000e+00 0.0000000000e+00 
          2.5000000000e-01 3.8461540000e+00 0.0000000000e+00 
          2.5000000000e-01 4.6153850000e+00 0.0000000000e+00 
          2.5000000000e-01 5.3846150000e+00 0.0000000000e+00 
          2.5000000000e-01 6.1538460000e+00 0.0000000000e+00 
          2.5000000000e-01 6.9230770000e+00 0.0000000000e+00 
          2.5000000000e-01 7.6923080000e+00 0.0000000000e+00 
          2.5000000000e-01 8.4615380000e+00 0.0000000000e+00 
          2.5000000000e-01 9.2307690000e+00 0.0000000000e+00 
          2.5000000000e-01 1.0000000000e+01 0.0000000000e+00 
          2.5000000000e-01 1.0769231000e+01 0.0000000000e+00 
          2.5000000000e-01 1.1538462000e+01 0.0000000000e+00 
          2.5000000000e-01 1.2307692000e+01 0.0000000000e+00 
          2.5000000000e-01 1.3076923000e+01 0.0000000000e+00 
          2.5000000000e-01 1.3846154000e+01 0.0000000000e+00 
          2.5000000000e-01 1.4615385000e+01 0.0000000000e+00 
          2.5000000000e-01 1.5384615000e+01 0.0000000000e+00 
          2.5000000000e-01 1.6153846000e+01 0.0000000000e+00 
          2.5000000000e-01 1.6923077000e+01 0.0000000000e+00 
          2.5000000000e-01 1.7692308000e+01 0.0000000000e+00 
          2.5000000000e-01 1.8461538000e+01 0.0000000000e+00 
          2.5000000000e-01 1.9230769000e+01 0.0000000000e+00 
          2.5000000000e-01 2.0000000000e+01 0.0000000000e+00 
          2.5000000000e-01 2.0769231000e+01 0.0000000000e+00 
          2.5000000000e-01 2.1538462000e+01 0.0000000000e+00 
          2.5000000000e-01 2.2307692000e+01 0.0000000000e+00 
          2.5000000000e-01 2.3076923000e+01 0.0000000000e+00 
          2.5000000000e-01 2.3846154000e+01 0.0000000000e+00 
          2.5000000000e-01 2.4615385000e+01 0.0000000000e+00 
          2.5000000000e-01 2.5384615000e+01 0.0000000000e+00 
          2.5000000000e-01 2.6153846000e+01 0.0000000000e+00 
          2.5000000000e-01 2.6923077000e+01 0.0000000000e+00 
          2.5000000000e-01 2.7692308000e+01 0.0000000000e+00 
          2.5000000000e-01 2.8461538000e+01 0.0000000000e+00 
          2.5000000000e-01 2.9230769000e+01 0.0000000000e+00 
          0.0000000000e+00 7.6923100000e-01 0.0000000000e+00 
          0.0000000000e+00 1.5384620000e+00 0.0000000000e+00 
          0.0000000000e+00 2.3076920000e+00 0.0000000000e+00 
          0.0000000000e+00 3.0769230000e+00 0.0000000000e+00 
          0.0000000000e+00 3.8461540000e+00 0.0000000000e+00 
          0.0000000000e+00 4.6153850000e+00 0.0000000000e+00 
          0.0000000000e+00 5.3846150000e+00 0.0000000000e+00 
          0.0000000000e+00 6.1538460000e+00 0.0000000000e+00 
          0.0000000000e+00 6.9230770000e+00 0.0000000000e+00 
          0.0000000000e+00 7.6923080000e+00 0.0000000000e+00 
          0.0000000000e+00 8.4615380000e+00 0.0000000000e+00 
          0.0000000000e+00 9.2307690000e+00 0.0000000000e+00 
          0.0000000000e+00 1.0000000000e+01 0.0000000000e+00 
          0.0000000000e+00 1.0769231000e+01 0.0000000000e+00 
          0.0000000000e+00 1.1538462000e+01 0.0000000000e+00 
          0.0000000000e+00 1.2307692000e+01 0.0000000000e+00 
          0.0000000000e+00 1.3076923000e+01 0.0000000000e+00 
          0.0000000000e+00 1.3846154000e+01 0.0000000000e+00 
          0.0000000000e+00 1.4615385000e+01 0.0000000000e+00 
          0.0000000000e+00 1.5384615000e+01 0.0000000000e+00 
          0.0000000000e+00 1.6153846000e+01 0.0000000000e+00 
          0.0000000000e+00 1.6923077000e+01 0.0000000000e+00 
          0.0000000000e+00 1.7692308000e+01 0.0000000000e+00 
          0.0000000000e+00 1.8461538000e+01 0.0000000000e+00 
          0.0000000000e+00 1.9230769000e+01 0.0000000000e+00 
          0.0000000000e+00 2.0000000000e+01 0.0000000000e+00 
          0.0000000000e+00 2.0769231000e+01 0.0000000000e+00 
          0.0000000000e+00 2.1538462000e+01 0.0000000000e+00 
          0.0000000000e+00 2.2307692000e+01 0.0000000000e+00 
          0.0000000000e+00 2.3076923000e+01 0.0000000000e+00 
          0.0000000000e+00 2.3846154000e+01 0.0000000000e+00 
          0.0000000000e+00 2.4615385000e+01 0.0000000000e+00 
          0.0000000000e+00 2.5384615000e+01 0.0000000000e+00 
          0.0000000000e+00 2.6153846000e+01 0.0000000000e+00 
          0.0000000000e+00 2.6923077000e+01 0.0000000000e+00 
          0.0000000000e+00 2.7692308000e+01 0.0000000000e+00 
          0.0000000000e+00 2.8461538000e+01 0.0000000000e+00 
          0.0000000000e+00 2.9230769000e+01 0.0000000000e+00 
        </DataArray>
      </Points>
      <Cells>
        <DataArray type="Int64" Name="connectivity" format="ascii">
          0 1 4 42 
          42 4 5 43 
          43 5 6 44 
          44 6 7 45 
          45 7 8 46 
          46 8 9 47 
          47 9 10 48 
          48 10 11 49 
          49 11 12 50 
          50 12 13 51 
          51 13 14 52 
          52 14 15 53 
          53 15 16 54 
          54 16 17 55 
          55 17 18 56 
          56 18 19 57 
          57 19 20 58 
          58 20 21 59 
          59 21 22 60 
          60 22 23 61 
          61 23 24 62 
          62 24 25 63 
          63 25 26 64 
          64 26 27 65 
          65 27 28 66 
          66 28 29 67 
          67 29 30 68 
          68 30 31 69 
          69 31 32 70 
          70 32 33 71 
          71 33 34 72 
          72 34 35 73 
          73 35 36 74 
          74 36 37 75 
          75 37 38 76 
          76 38 39 77 
          77 39 40 78 
          78 40 41 79 
          79 41 2 3 
        </DataArray>
        <DataArray type="Int64" Name="offsets" format="ascii">
          4
          8
          12
          16
          20
          24
          28
          32
          36
          40
          44
          48
          52
          56
          60
          64
          68
          72
          76
          80
          84
          88
          92
          96
          100
          104
          108
          112
          116
          120
          124
          128
          132
          136
          140
          144
          148
          152
          156
        </DataArray>
        <DataArray type="Int64" Name="types" format="ascii">
          9
          9
          9
          9
          9
          9
          9
          9
          9
          9
          9
          9
          9
          9
          9
          9
          9
          9
          9
          9
          9
          9
          9
          9
          9
          9
          9
          9
          9
          9
          9
          9
          9
          9
          9
          9
          9
          9
          9
        </DataArray>
      </Cells>
      <PointData>
        <DataArray type="Int64" Name="NodeTag" format="ascii">
          1
          2
          3
          4
          7
          8
          9
          10
          11
          12
          13
          14
          15
          16
          17
          18
          19
          20
          21
          22
          23
          24
          25
          26
          27
          28
          29
          30
          31
          32
          33
          34
          35
          36
          37
          38
          39
          40
          41
          42
          43
          44
          45
          46
          47
          48
          49
          50
          51
          52
          53
          54
          55
          56
          57
          58
          59
          60
          61
          62
          63
          64
          65
          66
          67
          68
          69
          70
          71
          72
          73
          74
          75
          76
          77
          78
          79
          80
          81
          82
        </DataArray>
        <DataArray type="Float64" Name="Velocity" NumberOfComponents="3" format="ascii">
          1.2562693031e-01 -7.4973862577e-05 0.0000000000e+00 
          1.2562693031e-01 -7.4973862577e-05 0.0000000000e+00 
          3.5446785662e-02 -7.0295649632e-05 0.0000000000e+00 
          3.5446785662e-02 -7.0295649632e-05 0.0000000000e+00 
          1.2212943876e-01 -7.4734998874e-05 0.0000000000e+00 
          1.1859473158e-01 -7.3501591064e-05 0.0000000000e+00 
          1.1503494939e-01 -7.2941522318e-05 0.0000000000e+00 
          1.1146171864e-01 -7.2437870114e-05 0.0000000000e+00 
          1.0788630549e-01 -7.1802468690e-05 0.0000000000e+00 
          1.0431955822e-01 -7.1367650272e-05 0.0000000000e+00 
          1.0077179087e-01 -7.0834247715e-05 0.0000000000e+00 
          9.7252837920e-02 -7.0355901000e-05 0.0000000000e+00 
          9.3772071977e-02 -6.9845947888e-05 0.0000000000e+00 
          9.0338365202e-02 -6.9395388867e-05 0.0000000000e+00 
          8.6960098173e-02 -6.9203915833e-05 0.0000000000e+00 
          8.3645151225e-02 -6.9154728495e-05 0.0000000000e+00 
          8.0400931706e-02 -6.9003643314e-05 0.0000000000e+00 
          7.7234355660e-02 -6.8772431031e-05 0.0000000000e+00 
          7.4151866863e-02 -6.8701167721e-05 0.0000000000e+00 
          7.1159455084e-02 -6.8877877598e-05 0.0000000000e+00 
          6.8262657535e-02 -6.9175742775e-05 0.0000000000e+00 
          6.5466585431e-02 -6.9476958227e-05 0.0000000000e+00 
          6.2775925476e-02 -6.9690107821e-05 0.0000000000e+00 
          6.0194976802e-02 -6.9841537558e-05 0.0000000000e+00 
          5.7727646323e-02 -6.9820386178e-05 0.0000000000e+00 
          5.5377487835e-02 -6.9578052083e-05 0.0000000000e+00 
          5.3147716212e-02 -7.0090889613e-05 0.0000000000e+00 
          5.1041225572e-02 -7.0192654316e-05 0.0000000000e+00 
          4.9060598400e-02 -6.9987903031e-05 0.0000000000e+00 
          4.7208149835e-02 -7.0163644795e-05 0.0000000000e+00 
          4.5485933320e-02 -7.0245666378e-05 0.0000000000e+00 
          4.3895758926e-02 -6.9835706176e-05 0.0000000000e+00 
          4.2439215879e-02 -6.9648165076e-05 0.0000000000e+00 
          4.1117684840e-02 -6.9814090863e-05 0.0000000000e+00 
          3.9932366626e-02 -6.9297835553e-05 0.0000000000e+00 
          3.8884289150e-02 -6.9159069522e-05 0.0000000000e+00 
          3.7974323424e-02 -6.9330131079e-05 0.0000000000e+00 
          3.7203192673e-02 -6.9522923014e-05 0.0000000000e+00 
          3.6571492255e-02 -6.9616513651e-05 0.0000000000e+00 
          3.6079695007e-02 -6.9661492922e-05 0.0000000000e+00 
          3.5728161066e-02 -6.9855579851e-05 0.0000000000e+00 
          3.5517141674e-02 -7.0151549047e-05 0.0000000000e+00 
          1.2212943876e-01 -7.4734998874e-05 0.0000000000e+00 
          1.1859473158e-01 -7.3501591064e-05 0.0000000000e+00 
          1.1503494939e-01 -7.2941522318e-05 0.0000000000e+00 
          1.1146171864e-01 -7.2437870114e-05 0.0000000000e+00 
          1.0788630549e-01 -7.1802468690e-05 0.0000000000e+00 
          1.0431955822e-01 -7.1367650272e-05 0.0000000000e+00 
          1.0077179087e-01 -7.0834247715e-05 0.0000000000e+00 
          9.7252837920e-02 -7.0355901000e-05 0.0000000000e+00 
          9.3772071977e-02 -6.9845947888e-05 0.0000000000e+00 
          9.0338365202e-02 -6.9395388867e-05 0.0000000000e+00 
          8.6960098173e-02 -6.9203915833e-05 0.0000000000e+00 
          8.3645151225e-02 -6.9154728495e-05 0.0000000000e+00 
          8.0400931706e-02 -6.9003643314e-05 0.0000000000e+00 
          7.7234355660e-02 -6.8772431031e-05 0.0000000000e+00 
          7.4151866863e-02 -6.8701167721e-05 0.0000000000e+00 
          7.1159455084e-02 -6.8877877598e-05 0.0000000000e+00 
          6.8262657535e-02 -6.9175742775e-05 0.0000000000e+00 
          6.5466585431e-02 -6.9476958227e-05 0.0000000000e+00 
          6.2775925476e-02 -6.9690107821e-05 0.0000000000e+00 
          6.0194976802e-02 -6.9841537558e-05 0.0000000000e+00 
          5.7727646323e-02 -6.9820386178e-05 0.0000000000e+00 
          5.5377487835e-02 -6.9578052083e-05 0.0000000000e+00 
          5.3147716212e-02 -7.0090889613e-05 0.0000000000e+00 
          5.1041225572e-02 -7.0192654316e-05 0.0000000000e+00 
          4.9060598400e-02 -6.9987903031e-05 0.0000000000e+00 
          4.7208149835e-02 -7.0163644795e-05 0.0000000000e+00 
          4.5485933320e-02 -7.0245666378e-05 0.0000000000e+00 
          4.3895758926e-02 -6.9835706176e-05 0.0000000000e+00 
          4.2439215879e-02 -6.9648165076e-05 0.0000000000e+00 
          4.1117684840e-02 -6.9814090863e-05 0.0000000000e+00 
          3.9932366626e-02 -6.9297835553e-05 0.0000000000e+00 
          3.8884289150e-02 -6.9159069522e-05 0.0000000000e+00 
          3.7974323424e-02 -6.9330131079e-05 0.0000000000e+00 
          3.7203192673e-02 -6.9522923014e-05 0.0000000000e+00 
          3.6571492255e-02 -6.9616513651e-05 0.0000000000e+00 
          3.6079695007e-02 -6.9661492922e-05 0.0000000000e+00 
          3.5728161066e-02 -6.9855579851e-05 0.0000000000e+00 
          3.5517141674e-02 -7.0151549047e-05 0.0000000000e+00 
        </DataArray>
        <DataArray type="Float64" Name="Displacement" NumberOfComponents="3" format="ascii">
          8.8808622723e-03 -1.4073785533e-04 0.0000000000e+00 
          8.8808622723e-03 -1.4073785533e-04 0.0000000000e+00 
          1.4538490965e-03 -1.6325233731e-04 0.0000000000e+00 
          1.4538490965e-03 -1.6325233731e-04 0.0000000000e+00 
          8.4719851480e-03 -1.4188696178e-04 0.0000000000e+00 
          8.0752588368e-03 -1.4300515956e-04 0.0000000000e+00 
          7.6908317055e-03 -1.4409269348e-04 0.0000000000e+00 
          7.3188149625e-03 -1.4514891440e-04 0.0000000000e+00 
          6.9592875780e-03 -1.4617494413e-04 0.0000000000e+00 
          6.6122957006e-03 -1.4716936913e-04 0.0000000000e+00 
          6.2778556255e-03 -1.4813221215e-04 0.0000000000e+00 
          5.9559541001e-03 -1.4906445173e-04 0.0000000000e+00 
          5.6465528278e-03 -1.4996634987e-04 0.0000000000e+00 
          5.3495887279e-03 -1.5083777870e-04 0.0000000000e+00 
          5.0649767903e-03 -1.5167881476e-04 0.0000000000e+00 
          4.7926106647e-03 -1.5249002427e-04 0.0000000000e+00 
          4.5323669193e-03 -1.5327182707e-04 0.0000000000e+00 
          4.2841056136e-03 -1.5402394936e-04 0.0000000000e+00 
          4.0476727292e-03 -1.5474590315e-04 0.0000000000e+00 
          3.8229024698e-03 -1.5543782177e-04 0.0000000000e+00 
          3.6096180783e-03 -1.5610046912e-04 0.0000000000e+00 
          3.4076355338e-03 -1.5673439972e-04 0.0000000000e+00 
          3.2167643036e-03 -1.5733934165e-04 0.0000000000e+00 
          3.0368097141e-03 -1.5791494845e-04 0.0000000000e+00 
          2.8675738135e-03 -1.5846185997e-04 0.0000000000e+00 
          2.7088585287e-03 -1.5897992199e-04 0.0000000000e+00 
          2.5604663770e-03 -1.5946877179e-04 0.0000000000e+00 
          2.4222024704e-03 -1.5992819820e-04 0.0000000000e+00 
          2.2938753524e-03 -1.6035672856e-04 0.0000000000e+00 
          2.1752995145e-03 -1.6075656092e-04 0.0000000000e+00 
          2.0662960125e-03 -1.6112686297e-04 0.0000000000e+00 
          1.9666939348e-03 -1.6146641560e-04 0.0000000000e+00 
          1.8763317128e-03 -1.6177684761e-04 0.0000000000e+00 
          1.7950577646e-03 -1.6205681999e-04 0.0000000000e+00 
          1.7227322043e-03 -1.6230693936e-04 0.0000000000e+00 
          1.6592272737e-03 -1.6252776874e-04 0.0000000000e+00 
          1.6044283577e-03 -1.6271953381e-04 0.0000000000e+00 
          1.5582344458e-03 -1.6288253548e-04 0.0000000000e+00 
          1.5205591914e-03 -1.6301597221e-04 0.0000000000e+00 
          1.4913311504e-03 -1.6311937318e-04 0.0000000000e+00 
          1.4704943185e-03 -1.6319309938e-04 0.0000000000e+00 
          1.4580083761e-03 -1.6323747817e-04 0.0000000000e+00 
          8.4719851480e-03 -1.4188696178e-04 0.0000000000e+00 
          8.0752588368e-03 -1.4300515956e-04 0.0000000000e+00 
          7.6908317055e-03 -1.4409269348e-04 0.0000000000e+00 
          7.3188149625e-03 -1.4514891440e-04 0.0000000000e+00 
          6.9592875780e-03 -1.4617494413e-04 0.0000000000e+00 
          6.6122957006e-03 -1.4716936913e-04 0.0000000000e+00 
          6.2778556255e-03 -1.4813221215e-04 0.0000000000e+00 
          5.9559541001e-03 -1.4906445173e-04 0.0000000000e+00 
          5.6465528278e-03 -1.4996634987e-04 0.0000000000e+00 
          5.3495887279e-03 -1.5083777870e-04 0.0000000000e+00 
          5.0649767903e-03 -1.5167881476e-04 0.0000000000e+00 
          4.7926106647e-03 -1.5249002427e-04 0.0000000000e+00 
          4.5323669193e-03 -1.5327182707e-04 0.0000000000e+00 
          4.2841056136e-03 -1.5402394936e-04 0.0000000000e+00 
          4.0476727292e-03 -1.5474590315e-04 0.0000000000e+00 
          3.8229024698e-03 -1.5543782177e-04 0.0000000000e+00 
          3.6096180783e-03 -1.5610046912e-04 0.0000000000e+00 
          3.4076355338e-03 -1.5673439972e-04 0.0000000000e+00 
          3.2167643036e-03 -1.5733934165e-04 0.0000000000e+00 
          3.0368097141e-03 -1.5791494845e-04 0.0000000000e+00 
          2.8675738135e-03 -1.5846185997e-04 0.0000000000e+00 
          2.7088585287e-03 -1.5897992199e-04 0.0000000000e+00 
          2.5604663770e-03 -1.5946877179e-04 0.0000000000e+00 
          2.4222024704e-03 -1.5992819820e-04 0.0000000000e+00 
          2.2938753524e-03 -1.6035672856e-04 0.0000000000e+00 
          2.1752995145e-03 -1.6075656092e-04 0.0000000000e+00 
          2.0662960125e-03 -1.6112686297e-04 0.0000000000e+00 
          1.9666939348e-03 -1.6146641560e-04 0.0000000000e+00 
          1.8763317128e-03 -1.6177684761e-04 0.0000000000e+00 
          1.7950577646e-03 -1.6205681999e-04 0.0000000000e+00 
          1.7227322043e-03 -1.6230693936e-04 0.0000000000e+00 
          1.6592272737e-03 -1.6252776874e-04 0.0000000000e+00 
          1.6044283577e-03 -1.6271953381e-04 0.0000000000e+00 
          1.5582344458e-03 -1.6288253548e-04 0.0000000000e+00 
          1.5205591914e-03 -1.6301597221e-04 0.0000000000e+00 
          1.4913311504e-03 -1.6311937318e-04 0.0000000000e+00 
          1.4704943185e-03 -1.6319309938e-04 0.0000000000e+00 
          1.4580083761e-03 -1.6323747817e-04 0.0000000000e+00 
        </DataArray>
        <DataArray type="Float64" Name="Acceleration" NumberOfComponents="3" format="ascii">
          1.0780660055e+00 1.6140752748e-05 0.0000000000e+00 
          1.0780660055e+00 1.6140752748e-05 0.0000000000e+00 
          7.4951862045e-01 -2.3211189883e-04 0.0000000000e+00 
          7.4951862045e-01 -2.3211189883e-04 0.0000000000e+00 
          1.0948122444e+00 -1.7600044569e-05 0.0000000000e+00 
          1.1081360984e+00 -6.1967708921e-05 0.0000000000e+00 
          1.1182462426e+00 5.5522593904e-05 0.0000000000e+00 
          1.1253158757e+00 -1.4689517036e-04 0.0000000000e+00 
          1.1294739346e+00 1.0783457596e-04 0.0000000000e+00 
          1.1309037394e+00 1.0351139053e-04 0.0000000000e+00 
          1.1297880017e+00 -7.2376495811e-05 0.0000000000e+00 
          1.1262974851e+00 -1.1981425513e-04 0.0000000000e+00 
          1.1206137925e+00 -9.6776295003e-05 0.0000000000e+00 
          1.1129216069e+00 -1.1076033222e-04 0.0000000000e+00 
          1.1034059080e+00 -2.1240263952e-04 0.0000000000e+00 
          1.0922503837e+00 -2.8825822489e-04 0.0000000000e+00 
          1.0796414844e+00 -2.3891842206e-04 0.0000000000e+00 
          1.0657641119e+00 -1.5098258532e-04 0.0000000000e+00 
          1.0507999067e+00 -1.7516684818e-04 0.0000000000e+00 
          1.0349263846e+00 -3.1249946122e-04 0.0000000000e+00 
          1.0183187262e+00 -4.1259192366e-04 0.0000000000e+00 
          1.0011513640e+00 -3.6359357669e-04 0.0000000000e+00 
          9.8359045231e-01 -3.0128913389e-04 0.0000000000e+00 
          9.6579673291e-01 -4.1632266466e-04 0.0000000000e+00 
          9.4792827121e-01 -3.8866969865e-04 0.0000000000e+00 
          9.3013466725e-01 -3.2330807808e-04 0.0000000000e+00 
          9.1255929370e-01 -2.8535747233e-04 0.0000000000e+00 
          8.9534104967e-01 -1.9763931869e-05 0.0000000000e+00 
          8.7860959256e-01 -4.1596918219e-04 0.0000000000e+00 
          8.6248636376e-01 -2.6598848143e-04 0.0000000000e+00 
          8.4708690347e-01 -4.6295330978e-05 0.0000000000e+00 
          8.3251920323e-01 -3.3988332048e-04 0.0000000000e+00 
          8.1888252810e-01 -9.8443476169e-05 0.0000000000e+00 
          8.0626742405e-01 -2.0783376503e-04 0.0000000000e+00 
          7.9475615599e-01 -3.0929250039e-04 0.0000000000e+00 
          7.8442320381e-01 -3.5000060726e-04 0.0000000000e+00 
          7.7533477468e-01 -4.0414059175e-04 0.0000000000e+00 
          7.6754786968e-01 -2.5974346981e-04 0.0000000000e+00 
          7.6111061013e-01 -1.7490172550e-04 0.0000000000e+00 
          7.5606256197e-01 -2.3996939580e-04 0.0000000000e+00 
          7.5243456972e-01 -2.9892282224e-04 0.0000000000e+00 
          7.5024875295e-01 -2.6790784424e-04 0.0000000000e+00 
          1.0948122444e+00 -1.7600044569e-05 0.0000000000e+00 
          1.1081360984e+00 -6.1967708921e-05 0.0000000000e+00 
          1.1182462426e+00 5.5522593904e-05 0.0000000000e+00 
          1.1253158757e+00 -1.4689517036e-04 0.0000000000e+00 
          1.1294739346e+00 1.0783457596e-04 0.0000000000e+00 
          1.1309037394e+00 1.0351139053e-04 0.0000000000e+00 
          1.1297880017e+00 -7.2376495811e-05 0.0000000000e+00 
          1.1262974851e+00 -1.1981425513e-04 0.0000000000e+00 
          1.1206137925e+00 -9.6776295003e-05 0.0000000000e+00 
          1.1129216069e+00 -1.1076033222e-04 0.0000000000e+00 
          1.1034059080e+00 -2.1240263952e-04 0.0000000000e+00 
          1.0922503837e+00 -2.8825822489e-04 0.0000000000e+00 
          1.0796414844e+00 -2.3891842206e-04 0.0000000000e+00 
          1.0657641119e+00 -1.5098258532e-04 0.0000000000e+00 
          1.0507999067e+00 -1.7516684818e-04 0.0000000000e+00 
          1.0349263846e+00 -3.1249946122e-04 0.0000000000e+00 
          1.0183187262e+00 -4.1259192366e-04 0.0000000000e+00 
          1.0011513640e+00 -3.6359357669e-04 0.0000000000e+00 
          9.8359045231e-01 -3.0128913389e-04 0.0000000000e+00 
          9.6579673291e-01 -4.1632266466e-04 0.0000000000e+00 
          9.4792827121e-01 -3.8866969865e-04 0.0000000000e+00 
          9.3013466725e-01 -3.2330807808e-04 0.0000000000e+00 
          9.1255929370e-01 -2.8535747233e-04 0.0000000000e+00 
          8.9534104967e-01 -1.9763931869e-05 0.0000000000e+00 
          8.7860959256e-01 -4.1596918219e-04 0.0000000000e+00 
          8.6248636376e-01 -2.6598848143e-04 0.0000000000e+00 
          8.4708690347e-01 -4.6295330978e-05 0.0000000000e+00 
          8.3251920323e-01 -3.3988332048e-04 0.0000000000e+00 
          8.1888252810e-01 -9.8443476169e-05 0.0000000000e+00 
          8.0626742405e-01 -2.0783376503e-04 0.0000000000e+00 
          7.9475615599e-01 -3.0929250039e-04 0.0000000000e+00 
          7.8442320381e-01 -3.5000060726e-04 0.0000000000e+00 
          7.7533477468e-01 -4.0414059175e-04 0.0000000000e+00 
          7.6754786968e-01 -2.5974346981e-04 0.0000000000e+00 
          7.6111061013e-01 -1.7490172550e-04 0.0000000000e+00 
          7.5606256197e-01 -2.3996939580e-04 0.0000000000e+00 
          7.5243456972e-01 -2.9892282224e-04 0.0000000000e+00 
          7.5024875295e-01 -2.6790784424e-04 0.0000000000e+00 
        </DataArray>
        <DataArray type="Float64" Name="Reaction" NumberOfComponents="3" format="ascii">
          0.0000000000e+00 0.0000000000e+00 0.0000000000e+00 
          0.0000000000e+00 0.0000000000e+00 0.0000000000e+00 
          0.0000000000e+00 0.0000000000e+00 0.0000000000e+00 
          0.0000000000e+00 0.0000000000e+00 0.0000000000e+00 
          0.0000000000e+00 0.0000000000e+00 0.0000000000e+00 
          0.0000000000e+00 0.0000000000e+00 0.0000000000e+00 
          0.0000000000e+00 0.0000000000e+00 0.0000000000e+00 
          0.0000000000e+00 0.0000000000e+00 0.0000000000e+00 
          0.0000000000e+00 0.0000000000e+00 0.0000000000e+00 
          0.0000000000e+00 0.0000000000e+00 0.0000000000e+00 
          0.0000000000e+00 0.0000000000e+00 0.0000000000e+00 
          0.0000000000e+00 0.0000000000e+00 0.0000000000e+00 
          0.0000000000e+00 0.0000000000e+00 0.0000000000e+00 
          0.0000000000e+00 0.0000000000e+00 0.0000000000e+00 
          0.0000000000e+00 0.0000000000e+00 0.0000000000e+00 
          0.0000000000e+00 0.0000000000e+00 0.0000000000e+00 
          0.0000000000e+00 0.0000000000e+00 0.0000000000e+00 
          0.0000000000e+00 0.0000000000e+00 0.0000000000e+00 
          0.0000000000e+00 0.0000000000e+00 0.0000000000e+00 
          0.0000000000e+00 0.0000000000e+00 0.0000000000e+00 
          0.0000000000e+00 0.0000000000e+00 0.0000000000e+00 
          0.0000000000e+00 0.0000000000e+00 0.0000000000e+00 
          0.0000000000e+00 0.0000000000e+00 0.0000000000e+00 
          0.0000000000e+00 0.0000000000e+00 0.0000000000e+00 
          0.0000000000e+00 0.0000000000e+00 0.0000000000e+00 
          0.0000000000e+00 0.0000000000e+00 0.0000000000e+00 
          0.0000000000e+00 0.0000000000e+00 0.0000000000e+00 
          0.0000000000e+00 0.0000000000e+00 0.0000000000e+00 
          0.0000000000e+00 0.0000000000e+00 0.0000000000e+00 
          0.0000000000e+00 0.0000000000e+00 0.0000000000e+00 
          0.0000000000e+00 0.0000000000e+00 0.0000000000e+00 
          0.0000000000e+00 0.0000000000e+00 0.0000000000e+00 
          0.0000000000e+00 0.0000000000e+00 0.0000000000e+00 
          0.0000000000e+00 0.0000000000e+00 0.0000000000e+00 
          0.0000000000e+00 0.0000000000e+00 0.0000000000e+00 
          0.0000000000e+00 0.0000000000e+00 0.0000000000e+00 
          0.0000000000e+00 0.0000000000e+00 0.0000000000e+00 
          0.0000000000e+00 0.0000000000e+00 0.0000000000e+00 
          0.0000000000e+00 0.0000000000e+00 0.0000000000e+00 
          0.0000000000e+00 0.0000000000e+00 0.0000000000e+00 
          0.0000000000e+00 0.0000000000e+00 0.0000000000e+00 
          0.0000000000e+00 0.0000000000e+00 0.0000000000e+00 
          0.0000000000e+00 0.0000000000e+00 0.0000000000e+00 
          0.0000000000e+00 0.0000000000e+00 0.0000000000e+00 
          0.0000000000e+00 0.0000000000e+00 0.0000000000e+00 
          0.0000000000e+00 0.0000000000e+00 0.0000000000e+00 
          0.0000000000e+00 0.0000000000e+00 0.0000000000e+00 
          0.0000000000e+00 0.0000000000e+00 0.0000000000e+00 
          0.0000000000e+00 0.0000000000e+00 0.0000000000e+00 
          0.0000000000e+00 0.0000000000e+00 0.0000000000e+00 
          0.0000000000e+00 0.0000000000e+00 0.0000000000e+00 
          0.0000000000e+00 0.0000000000e+00 0.0000000000e+00 
          0.0000000000e+00 0.0000000000e+00 0.0000000000e+00 
          0.0000000000e+00 0.0000000000e+00 0.0000000000e+00 
          0.0000000000e+00 0.0000000000e+00 0.0000000000e+00 
          0.0000000000e+00 0.0000000000e+00 0.0000000000e+00 
          0.0000000000e+00 0.0000000000e+00 0.0000000000e+00 
          0.0000000000e+00 0.0000000000e+00 0.0000000000e+00 
          0.0000000000e+00 0.0000000000e+00 0.0000000000e+00 
          0.0000000000e+00 0.0000000000e+00 0.0000000000e+00 
          0.0000000000e+00 0.0000000000e+00 0.0000000000e+00 
          0.0000000000e+00 0.0000000000e+00 0.0000000000e+00 
          0.0000000000e+00 0.0000000000e+00 0.0000000000e+00 
          0.0000000000e+00 0.0000000000e+00 0.0000000000e+00 
          0.0000000000e+00 0.0000000000e+00 0.0000000000e+00 
          0.0000000000e+00 0.0000000000e+00 0.0000000000e+00 
          0.0000000000e+00 0.0000000000e+00 0.0000000000e+00 
          0.0000000000e+00 0.0000000000e+00 0.0000000000e+00 
          0.0000000000e+00 0.0000000000e+00 0.0000000000e+00 
          0.0000000000e+00 0.0000000000e+00 0.0000000000e+00 
          0.0000000000e+00 0.0000000000e+00 0.0000000000e+00 
          0.0000000000e+00 0.0000000000e+00 0.0000000000e+00 
          0.0000000000e+00 0.0000000000e+00 0.0000000000e+00 
          0.0000000000e+00 0.0000000000e+00 0.0000000000e+00 
          0.0000000000e+00 0.0000000000e+00 0.0000000000e+00 
          0.0000000000e+00 0.0000000000e+00 0.0000000000e+00 
          0.0000000000e+00 0.0000000000e+00 0.0000000000e+00 
          0.0000000000e+00 0.0000000000e+00 0.0000000000e+00 
          0.0000000000e+00 0.0000000000e+00 0.0000000000e+00 
          0.0000000000e+00 0.0000000000e+00 0.0000000000e+00 
        </DataArray>
      </PointData>
      <CellData>
        <DataArray type="Int64" Name="ElementTag" format="ascii">
          90
          91
          92
          93
          94
          95
          96
          97
          98
          99
          100
          101
          102
          103
          104
          105
          106
          107
          108
          109
          110
          111
          112
          113
          114
          115
          116
          117
          118
          119
          120
          121
          122
          123
          124
          125
          126
          127
          128
        </DataArray>
      </CellData>
    </Piece>
  </UnstructuredGrid>
</VTKFile>
