<?xml version="1.0"?>
<VTKFile type="UnstructuredGrid" version="1.0" byte_order="LittleEndian" compressor="vtkZLibDataCompressor">
  <UnstructuredGrid>
    <Piece NumberOfPoints="80" NumberOfCells="39">
      <Points>
        <DataArray type="Float64" Name="Points" NumberOfComponents="3" format="ascii">
          0.0000000000e+00 0.0000000000e+00 0.0000000000e+00 
          2.5000000000e-01 0.0000000000e+00 0.0000000000e+00 
          2.5000000000e-01 3.0000000000e+01 0.0000000000e+00 
          0.0000000000e+00 3.0000000000e+01 0.0000000000e+00 
          2.5000000000e-01 7.6923100000e-01 0.0000000000e+00 
          2.5000000000e-01 1.5384620000e+00 0.0000000000e+00 
          2.5000000000e-01 2.3076920000e+00 0.0000000000e+00 
          2.5000000000e-01 3.0769230000e+00 0.0000000000e+00 
          2.5000000000e-01 3.8461540000e+00 0.0000000000e+00 
          2.5000000000e-01 4.6153850000e+00 0.0000000000e+00 
          2.5000000000e-01 5.3846150000e+00 0.0000000000e+00 
          2.5000000000e-01 6.1538460000e+00 0.0000000000e+00 
          2.5000000000e-01 6.9230770000e+00 0.0000000000e+00 
          2.5000000000e-01 7.6923080000e+00 0.0000000000e+00 
          2.5000000000e-01 8.4615380000e+00 0.0000000000e+00 
          2.5000000000e-01 9.2307690000e+00 0.0000000000e+00 
          2.5000000000e-01 1.0000000000e+01 0.0000000000e+00 
          2.5000000000e-01 1.0769231000e+01 0.0000000000e+00 
          2.5000000000e-01 1.1538462000e+01 0.0000000000e+00 
          2.5000000000e-01 1.2307692000e+01 0.0000000000e+00 
          2.5000000000e-01 1.3076923000e+01 0.0000000000e+00 
          2.5000000000e-01 1.3846154000e+01 0.0000000000e+00 
          2.5000000000e-01 1.4615385000e+01 0.0000000000e+00 
          2.5000000000e-01 1.5384615000e+01 0.0000000000e+00 
          2.5000000000e-01 1.6153846000e+01 0.0000000000e+00 
          2.5000000000e-01 1.6923077000e+01 0.0000000000e+00 
          2.5000000000e-01 1.7692308000e+01 0.0000000000e+00 
          2.5000000000e-01 1.8461538000e+01 0.0000000000e+00 
          2.5000000000e-01 1.9230769000e+01 0.0000000000e+00 
          2.5000000000e-01 2.0000000000e+01 0.0000000000e+00 
          2.5000000000e-01 2.0769231000e+01 0.0000000000e+00 
          2.5000000000e-01 2.1538462000e+01 0.0000000000e+00 
          2.5000000000e-01 2.2307692000e+01 0.0000000000e+00 
          2.5000000000e-01 2.3076923000e+01 0.0000000000e+00 
          2.5000000000e-01 2.3846154000e+01 0.0000000000e+00 
          2.5000000000e-01 2.4615385000e+01 0.0000000000e+00 
          2.5000000000e-01 2.5384615000e+01 0.0000000000e+00 
          2.5000000000e-01 2.6153846000e+01 0.0000000000e+00 
          2.5000000000e-01 2.6923077000e+01 0.0000000000e+00 
          2.5000000000e-01 2.7692308000e+01 0.0000000000e+00 
          2.5000000000e-01 2.8461538000e+01 0.0000000000e+00 
          2.5000000000e-01 2.9230769000e+01 0.0000000000e+00 
          0.0000000000e+00 7.6923100000e-01 0.0000000000e+00 
          0.0000000000e+00 1.5384620000e+00 0.0000000000e+00 
          0.0000000000e+00 2.3076920000e+00 0.0000000000e+00 
          0.0000000000e+00 3.0769230000e+00 0.0000000000e+00 
          0.0000000000e+00 3.8461540000e+00 0.0000000000e+00 
          0.0000000000e+00 4.6153850000e+00 0.0000000000e+00 
          0.0000000000e+00 5.3846150000e+00 0.0000000000e+00 
          0.0000000000e+00 6.1538460000e+00 0.0000000000e+00 
          0.0000000000e+00 6.9230770000e+00 0.0000000000e+00 
          0.0000000000e+00 7.6923080000e+00 0.0000000000e+00 
          0.0000000000e+00 8.4615380000e+00 0.0000000000e+00 
          0.0000000000e+00 9.2307690000e+00 0.0000000000e+00 
          0.0000000000e+00 1.0000000000e+01 0.0000000000e+00 
          0.0000000000e+00 1.0769231000e+01 0.0000000000e+00 
          0.0000000000e+00 1.1538462000e+01 0.0000000000e+00 
          0.0000000000e+00 1.2307692000e+01 0.0000000000e+00 
          0.0000000000e+00 1.3076923000e+01 0.0000000000e+00 
          0.0000000000e+00 1.3846154000e+01 0.0000000000e+00 
          0.0000000000e+00 1.4615385000e+01 0.0000000000e+00 
          0.0000000000e+00 1.5384615000e+01 0.0000000000e+00 
          0.0000000000e+00 1.6153846000e+01 0.0000000000e+00 
          0.0000000000e+00 1.6923077000e+01 0.0000000000e+00 
          0.0000000000e+00 1.7692308000e+01 0.0000000000e+00 
          0.0000000000e+00 1.8461538000e+01 0.0000000000e+00 
          0.0000000000e+00 1.9230769000e+01 0.0000000000e+00 
          0.0000000000e+00 2.0000000000e+01 0.0000000000e+00 
          0.0000000000e+00 2.0769231000e+01 0.0000000000e+00 
          0.0000000000e+00 2.1538462000e+01 0.0000000000e+00 
          0.0000000000e+00 2.2307692000e+01 0.0000000000e+00 
          0.0000000000e+00 2.3076923000e+01 0.0000000000e+00 
          0.0000000000e+00 2.3846154000e+01 0.0000000000e+00 
          0.0000000000e+00 2.4615385000e+01 0.0000000000e+00 
          0.0000000000e+00 2.5384615000e+01 0.0000000000e+00 
          0.0000000000e+00 2.6153846000e+01 0.0000000000e+00 
          0.0000000000e+00 2.6923077000e+01 0.0000000000e+00 
          0.0000000000e+00 2.7692308000e+01 0.0000000000e+00 
          0.0000000000e+00 2.8461538000e+01 0.0000000000e+00 
          0.0000000000e+00 2.9230769000e+01 0.0000000000e+00 
        </DataArray>
      </Points>
      <Cells>
        <DataArray type="Int64" Name="connectivity" format="ascii">
          0 1 4 42 
          42 4 5 43 
          43 5 6 44 
          44 6 7 45 
          45 7 8 46 
          46 8 9 47 
          47 9 10 48 
          48 10 11 49 
          49 11 12 50 
          50 12 13 51 
          51 13 14 52 
          52 14 15 53 
          53 15 16 54 
          54 16 17 55 
          55 17 18 56 
          56 18 19 57 
          57 19 20 58 
          58 20 21 59 
          59 21 22 60 
          60 22 23 61 
          61 23 24 62 
          62 24 25 63 
          63 25 26 64 
          64 26 27 65 
          65 27 28 66 
          66 28 29 67 
          67 29 30 68 
          68 30 31 69 
          69 31 32 70 
          70 32 33 71 
          71 33 34 72 
          72 34 35 73 
          73 35 36 74 
          74 36 37 75 
          75 37 38 76 
          76 38 39 77 
          77 39 40 78 
          78 40 41 79 
          79 41 2 3 
        </DataArray>
        <DataArray type="Int64" Name="offsets" format="ascii">
          4
          8
          12
          16
          20
          24
          28
          32
          36
          40
          44
          48
          52
          56
          60
          64
          68
          72
          76
          80
          84
          88
          92
          96
          100
          104
          108
          112
          116
          120
          124
          128
          132
          136
          140
          144
          148
          152
          156
        </DataArray>
        <DataArray type="Int64" Name="types" format="ascii">
          9
          9
          9
          9
          9
          9
          9
          9
          9
          9
          9
          9
          9
          9
          9
          9
          9
          9
          9
          9
          9
          9
          9
          9
          9
          9
          9
          9
          9
          9
          9
          9
          9
          9
          9
          9
          9
          9
          9
        </DataArray>
      </Cells>
      <PointData>
        <DataArray type="Int64" Name="NodeTag" format="ascii">
          1
          2
          3
          4
          7
          8
          9
          10
          11
          12
          13
          14
          15
          16
          17
          18
          19
          20
          21
          22
          23
          24
          25
          26
          27
          28
          29
          30
          31
          32
          33
          34
          35
          36
          37
          38
          39
          40
          41
          42
          43
          44
          45
          46
          47
          48
          49
          50
          51
          52
          53
          54
          55
          56
          57
          58
          59
          60
          61
          62
          63
          64
          65
          66
          67
          68
          69
          70
          71
          72
          73
          74
          75
          76
          77
          78
          79
          80
          81
          82
        </DataArray>
        <DataArray type="Float64" Name="Velocity" NumberOfComponents="3" format="ascii">
          -3.1968145075e-03 -7.7556070067e-05 0.0000000000e+00 
          -3.1968145075e-03 -7.7556070067e-05 0.0000000000e+00 
          -1.0255501345e-01 -7.7876392935e-05 0.0000000000e+00 
          -1.0255501345e-01 -7.7876392935e-05 0.0000000000e+00 
          -7.3532755094e-03 -7.7578107141e-05 0.0000000000e+00 
          -1.1489274716e-02 -7.7534107830e-05 0.0000000000e+00 
          -1.5598468538e-02 -7.7691828577e-05 0.0000000000e+00 
          -1.9674540811e-02 -7.7559138226e-05 0.0000000000e+00 
          -2.3711272687e-02 -7.7611803022e-05 0.0000000000e+00 
          -2.7702496118e-02 -7.7743010957e-05 0.0000000000e+00 
          -3.1642167771e-02 -7.7706953226e-05 0.0000000000e+00 
          -3.5524386620e-02 -7.7731313725e-05 0.0000000000e+00 
          -3.9343317004e-02 -7.7845341525e-05 0.0000000000e+00 
          -4.3093295962e-02 -7.7861885097e-05 0.0000000000e+00 
          -4.6768767762e-02 -7.7707215313e-05 0.0000000000e+00 
          -5.0364365789e-02 -7.7816390167e-05 0.0000000000e+00 
          -5.3874856009e-02 -7.7904256376e-05 0.0000000000e+00 
          -5.7295154208e-02 -7.7780046554e-05 0.0000000000e+00 
          -6.0620406348e-02 -7.7823822919e-05 0.0000000000e+00 
          -6.3845882497e-02 -7.7902685817e-05 0.0000000000e+00 
          -6.6967065900e-02 -7.7900827816e-05 0.0000000000e+00 
          -6.9979626755e-02 -7.7899671507e-05 0.0000000000e+00 
          -7.2879383513e-02 -7.7873225400e-05 0.0000000000e+00 
          -7.5662404118e-02 -7.7758739209e-05 0.0000000000e+00 
          -7.8324953134e-02 -7.7788451506e-05 0.0000000000e+00 
          -8.0863449283e-02 -7.7932048406e-05 0.0000000000e+00 
          -8.3274535850e-02 -7.7699451575e-05 0.0000000000e+00 
          -8.5555066249e-02 -7.7722261624e-05 0.0000000000e+00 
          -8.7702091498e-02 -7.7871938393e-05 0.0000000000e+00 
          -8.9712837599e-02 -7.7766801637e-05 0.0000000000e+00 
          -9.1584772652e-02 -7.7795526422e-05 0.0000000000e+00 
          -9.3315501570e-02 -7.7845784195e-05 0.0000000000e+00 
          -9.4902888759e-02 -7.7786995394e-05 0.0000000000e+00 
          -9.6344972377e-02 -7.7870142003e-05 0.0000000000e+00 
          -9.7639967693e-02 -7.7908788784e-05 0.0000000000e+00 
          -9.8786316184e-02 -7.7797692091e-05 0.0000000000e+00 
          -9.9782593443e-02 -7.7840804379e-05 0.0000000000e+00 
          -1.0062761850e-01 -7.7942105955e-05 0.0000000000e+00 
          -1.0132039344e-01 -7.7756944850e-05 0.0000000000e+00 
          -1.0186005794e-01 -7.7827565590e-05 0.0000000000e+00 
          -1.0224598634e-01 -7.7886049477e-05 0.0000000000e+00 
          -1.0247773789e-01 -7.7687793374e-05 0.0000000000e+00 
          -7.3532755094e-03 -7.7578107141e-05 0.0000000000e+00 
          -1.1489274716e-02 -7.7534107830e-05 0.0000000000e+00 
          -1.5598468538e-02 -7.7691828577e-05 0.0000000000e+00 
          -1.9674540811e-02 -7.7559138226e-05 0.0000000000e+00 
          -2.3711272687e-02 -7.7611803022e-05 0.0000000000e+00 
          -2.7702496118e-02 -7.7743010957e-05 0.0000000000e+00 
          -3.1642167771e-02 -7.7706953226e-05 0.0000000000e+00 
          -3.5524386620e-02 -7.7731313725e-05 0.0000000000e+00 
          -3.9343317004e-02 -7.7845341525e-05 0.0000000000e+00 
          -4.3093295962e-02 -7.7861885097e-05 0.0000000000e+00 
          -4.6768767762e-02 -7.7707215313e-05 0.0000000000e+00 
          -5.0364365789e-02 -7.7816390167e-05 0.0000000000e+00 
          -5.3874856009e-02 -7.7904256376e-05 0.0000000000e+00 
          -5.7295154208e-02 -7.7780046554e-05 0.0000000000e+00 
          -6.0620406348e-02 -7.7823822919e-05 0.0000000000e+00 
          -6.3845882497e-02 -7.7902685817e-05 0.0000000000e+00 
          -6.6967065900e-02 -7.7900827816e-05 0.0000000000e+00 
          -6.9979626755e-02 -7.7899671507e-05 0.0000000000e+00 
          -7.2879383513e-02 -7.7873225400e-05 0.0000000000e+00 
          -7.5662404118e-02 -7.7758739209e-05 0.0000000000e+00 
          -7.8324953134e-02 -7.7788451506e-05 0.0000000000e+00 
          -8.0863449283e-02 -7.7932048406e-05 0.0000000000e+00 
          -8.3274535850e-02 -7.7699451575e-05 0.0000000000e+00 
          -8.5555066249e-02 -7.7722261624e-05 0.0000000000e+00 
          -8.7702091498e-02 -7.7871938393e-05 0.0000000000e+00 
          -8.9712837599e-02 -7.7766801637e-05 0.0000000000e+00 
          -9.1584772652e-02 -7.7795526422e-05 0.0000000000e+00 
          -9.3315501570e-02 -7.7845784195e-05 0.0000000000e+00 
          -9.4902888759e-02 -7.7786995394e-05 0.0000000000e+00 
          -9.6344972377e-02 -7.7870142003e-05 0.0000000000e+00 
          -9.7639967693e-02 -7.7908788784e-05 0.0000000000e+00 
          -9.8786316184e-02 -7.7797692091e-05 0.0000000000e+00 
          -9.9782593443e-02 -7.7840804379e-05 0.0000000000e+00 
          -1.0062761850e-01 -7.7942105955e-05 0.0000000000e+00 
          -1.0132039344e-01 -7.7756944850e-05 0.0000000000e+00 
          -1.0186005794e-01 -7.7827565590e-05 0.0000000000e+00 
          -1.0224598634e-01 -7.7886049477e-05 0.0000000000e+00 
          -1.0247773789e-01 -7.7687793374e-05 0.0000000000e+00 
        </DataArray>
        <DataArray type="Float64" Name="Displacement" NumberOfComponents="3" format="ascii">
          1.7460365754e-03 -2.5739883383e-04 0.0000000000e+00 
          1.7460365754e-03 -2.5739883383e-04 0.0000000000e+00 
          -1.8751821320e-04 -2.8088436601e-04 0.0000000000e+00 
          -1.8751821320e-04 -2.8088436601e-04 0.0000000000e+00 
          1.6915567987e-03 -2.5858810263e-04 0.0000000000e+00 
          1.6345294770e-03 -2.5974614428e-04 0.0000000000e+00 
          1.5751933147e-03 -2.6087333020e-04 0.0000000000e+00 
          1.5137899537e-03 -2.6196980257e-04 0.0000000000e+00 
          1.4505634725e-03 -2.6303490657e-04 0.0000000000e+00 
          1.3857596672e-03 -2.6406942689e-04 0.0000000000e+00 
          1.3196255986e-03 -2.6507306993e-04 0.0000000000e+00 
          1.2524084413e-03 -2.6604558953e-04 0.0000000000e+00 
          1.1843554605e-03 -2.6698773502e-04 0.0000000000e+00 
          1.1157129717e-03 -2.6789844231e-04 0.0000000000e+00 
          1.0467258993e-03 -2.6877873637e-04 0.0000000000e+00 
          9.7763691656e-04 -2.6962806148e-04 0.0000000000e+00 
          9.0868625525e-04 -2.7044643477e-04 0.0000000000e+00 
          8.4011062955e-04 -2.7123414072e-04 0.0000000000e+00 
          7.7214305851e-04 -2.7199076598e-04 0.0000000000e+00 
          7.0501207000e-04 -2.7271641943e-04 0.0000000000e+00 
          6.3894096883e-04 -2.7341137189e-04 0.0000000000e+00 
          5.7414789448e-04 -2.7407532319e-04 0.0000000000e+00 
          5.1084467785e-04 -2.7470853796e-04 0.0000000000e+00 
          4.4923684997e-04 -2.7531089373e-04 0.0000000000e+00 
          3.8952257988e-04 -2.7588175444e-04 0.0000000000e+00 
          3.3189287709e-04 -2.7642228022e-04 0.0000000000e+00 
          2.7653082095e-04 -2.7693170942e-04 0.0000000000e+00 
          2.2361104744e-04 -2.7741040829e-04 0.0000000000e+00 
          1.7329955040e-04 -2.7785812217e-04 0.0000000000e+00 
          1.2575342424e-04 -2.7827478350e-04 0.0000000000e+00 
          8.1120216564e-05 -2.7866096266e-04 0.0000000000e+00 
          3.9537882506e-05 -2.7901580484e-04 0.0000000000e+00 
          1.1343314215e-06 -2.7934015201e-04 0.0000000000e+00 
          -3.3972785344e-05 -2.7963361885e-04 0.0000000000e+00 
          -6.5676170885e-05 -2.7989605254e-04 0.0000000000e+00 
          -9.3879391014e-05 -2.8012763307e-04 0.0000000000e+00 
          -1.1849682348e-04 -2.8032826416e-04 0.0000000000e+00 
          -1.3945399035e-04 -2.8049824067e-04 0.0000000000e+00 
          -1.5668751762e-04 -2.8063713857e-04 0.0000000000e+00 
          -1.7014547416e-04 -2.8074520250e-04 0.0000000000e+00 
          -1.7978729585e-04 -2.8082265940e-04 0.0000000000e+00 
          -1.8558401308e-04 -2.8086906607e-04 0.0000000000e+00 
          1.6915567987e-03 -2.5858810263e-04 0.0000000000e+00 
          1.6345294770e-03 -2.5974614428e-04 0.0000000000e+00 
          1.5751933147e-03 -2.6087333020e-04 0.0000000000e+00 
          1.5137899537e-03 -2.6196980257e-04 0.0000000000e+00 
          1.4505634725e-03 -2.6303490657e-04 0.0000000000e+00 
          1.3857596672e-03 -2.6406942689e-04 0.0000000000e+00 
          1.3196255986e-03 -2.6507306993e-04 0.0000000000e+00 
          1.2524084413e-03 -2.6604558953e-04 0.0000000000e+00 
          1.1843554605e-03 -2.6698773502e-04 0.0000000000e+00 
          1.1157129717e-03 -2.6789844231e-04 0.0000000000e+00 
          1.0467258993e-03 -2.6877873637e-04 0.0000000000e+00 
          9.7763691656e-04 -2.6962806148e-04 0.0000000000e+00 
          9.0868625525e-04 -2.7044643477e-04 0.0000000000e+00 
          8.4011062955e-04 -2.7123414072e-04 0.0000000000e+00 
          7.7214305851e-04 -2.7199076598e-04 0.0000000000e+00 
          7.0501207000e-04 -2.7271641943e-04 0.0000000000e+00 
          6.3894096883e-04 -2.7341137189e-04 0.0000000000e+00 
          5.7414789448e-04 -2.7407532319e-04 0.0000000000e+00 
          5.1084467785e-04 -2.7470853796e-04 0.0000000000e+00 
          4.4923684997e-04 -2.7531089373e-04 0.0000000000e+00 
          3.8952257988e-04 -2.7588175444e-04 0.0000000000e+00 
          3.3189287709e-04 -2.7642228022e-04 0.0000000000e+00 
          2.7653082095e-04 -2.7693170942e-04 0.0000000000e+00 
          2.2361104744e-04 -2.7741040829e-04 0.0000000000e+00 
          1.7329955040e-04 -2.7785812217e-04 0.0000000000e+00 
          1.2575342424e-04 -2.7827478350e-04 0.0000000000e+00 
          8.1120216564e-05 -2.7866096266e-04 0.0000000000e+00 
          3.9537882506e-05 -2.7901580484e-04 0.0000000000e+00 
          1.1343314215e-06 -2.7934015201e-04 0.0000000000e+00 
          -3.3972785344e-05 -2.7963361885e-04 0.0000000000e+00 
          -6.5676170885e-05 -2.7989605254e-04 0.0000000000e+00 
          -9.3879391014e-05 -2.8012763307e-04 0.0000000000e+00 
          -1.1849682348e-04 -2.8032826416e-04 0.0000000000e+00 
          -1.3945399035e-04 -2.8049824067e-04 0.0000000000e+00 
          -1.5668751762e-04 -2.8063713857e-04 0.0000000000e+00 
          -1.7014547416e-04 -2.8074520250e-04 0.0000000000e+00 
          -1.7978729585e-04 -2.8082265940e-04 0.0000000000e+00 
          -1.8558401308e-04 -2.8086906607e-04 0.0000000000e+00 
        </DataArray>
        <DataArray type="Float64" Name="Acceleration" NumberOfComponents="3" format="ascii">
          -2.5071039825e-01 -1.8716394060e-06 0.0000000000e+00 
          -2.5071039825e-01 -1.8716394060e-06 0.0000000000e+00 
          3.4855050084e-01 -7.3246938002e-05 0.0000000000e+00 
          3.4855050084e-01 -7.3246938002e-05 0.0000000000e+00 
          -2.2953882609e-01 3.9791211012e-05 0.0000000000e+00 
          -2.0803819083e-01 -2.7399903837e-05 0.0000000000e+00 
          -1.8625185902e-01 -5.2494582783e-05 0.0000000000e+00 
          -1.6426672448e-01 6.5239156928e-05 0.0000000000e+00 
          -1.4212002294e-01 -7.6162727795e-05 0.0000000000e+00 
          -1.1986716369e-01 -2.3488416594e-05 0.0000000000e+00 
          -9.7580762976e-02 2.1339723425e-05 0.0000000000e+00 
          -7.5309334608e-02 -1.1392922246e-04 0.0000000000e+00 
          -5.3115839510e-02 7.7825196241e-05 0.0000000000e+00 
          -3.1055766421e-02 -1.0708519012e-04 0.0000000000e+00 
          -9.1742455773e-03 -6.5258286651e-06 0.0000000000e+00 
          1.2463033455e-02 -9.8245476368e-06 0.0000000000e+00 
          3.3791449351e-02 -6.1089333813e-05 0.0000000000e+00 
          5.4786925387e-02 1.3398055823e-05 0.0000000000e+00 
          7.5369924053e-02 -6.3873470338e-06 0.0000000000e+00 
          9.5505868256e-02 -5.4849285816e-05 0.0000000000e+00 
          1.1515273905e-01 -9.3635711101e-07 0.0000000000e+00 
          1.3423912352e-01 -4.8617507548e-05 0.0000000000e+00 
          1.5275075765e-01 -2.6689553979e-05 0.0000000000e+00 
          1.7062062379e-01 8.8215492426e-05 0.0000000000e+00 
          1.8782362956e-01 -1.2099182151e-04 0.0000000000e+00 
          2.0431944207e-01 1.6264807521e-05 0.0000000000e+00 
          2.2004843249e-01 -4.9848571600e-05 0.0000000000e+00 
          2.3501721244e-01 -3.7299460791e-06 0.0000000000e+00 
          2.4916537661e-01 8.3276844391e-06 0.0000000000e+00 
          2.6245970842e-01 -9.4456785128e-05 0.0000000000e+00 
          2.7488973794e-01 5.9581717396e-05 0.0000000000e+00 
          2.8641031138e-01 -9.2214274036e-05 0.0000000000e+00 
          2.9701993339e-01 -2.2625934714e-05 0.0000000000e+00 
          3.0668290524e-01 4.8295510073e-06 0.0000000000e+00 
          3.1537181583e-01 -2.7602795918e-05 0.0000000000e+00 
          3.2308387610e-01 -1.0295476440e-05 0.0000000000e+00 
          3.2980025643e-01 -6.3338231153e-05 0.0000000000e+00 
          3.3550728241e-01 1.3024678932e-05 0.0000000000e+00 
          3.4018637767e-01 -3.1062747066e-05 0.0000000000e+00 
          3.4384038164e-01 -7.1968540890e-05 0.0000000000e+00 
          3.4645285872e-01 7.9287623782e-06 0.0000000000e+00 
          3.4802042009e-01 1.8093193113e-05 0.0000000000e+00 
          -2.2953882609e-01 3.9791211012e-05 0.0000000000e+00 
          -2.0803819083e-01 -2.7399903837e-05 0.0000000000e+00 
          -1.8625185902e-01 -5.2494582783e-05 0.0000000000e+00 
          -1.6426672448e-01 6.5239156928e-05 0.0000000000e+00 
          -1.4212002294e-01 -7.6162727795e-05 0.0000000000e+00 
          -1.1986716369e-01 -2.3488416594e-05 0.0000000000e+00 
          -9.7580762976e-02 2.1339723425e-05 0.0000000000e+00 
          -7.5309334608e-02 -1.1392922246e-04 0.0000000000e+00 
          -5.3115839510e-02 7.7825196241e-05 0.0000000000e+00 
          -3.1055766421e-02 -1.0708519012e-04 0.0000000000e+00 
          -9.1742455773e-03 -6.5258286651e-06 0.0000000000e+00 
          1.2463033455e-02 -9.8245476368e-06 0.0000000000e+00 
          3.3791449351e-02 -6.1089333813e-05 0.0000000000e+00 
          5.4786925387e-02 1.3398055823e-05 0.0000000000e+00 
          7.5369924053e-02 -6.3873470338e-06 0.0000000000e+00 
          9.5505868256e-02 -5.4849285816e-05 0.0000000000e+00 
          1.1515273905e-01 -9.3635711101e-07 0.0000000000e+00 
          1.3423912352e-01 -4.8617507548e-05 0.0000000000e+00 
          1.5275075765e-01 -2.6689553979e-05 0.0000000000e+00 
          1.7062062379e-01 8.8215492426e-05 0.0000000000e+00 
          1.8782362956e-01 -1.2099182151e-04 0.0000000000e+00 
          2.0431944207e-01 1.6264807521e-05 0.0000000000e+00 
          2.2004843249e-01 -4.9848571600e-05 0.0000000000e+00 
          2.3501721244e-01 -3.7299460791e-06 0.0000000000e+00 
          2.4916537661e-01 8.3276844391e-06 0.0000000000e+00 
          2.6245970842e-01 -9.4456785128e-05 0.0000000000e+00 
          2.7488973794e-01 5.9581717396e-05 0.0000000000e+00 
          2.8641031138e-01 -9.2214274036e-05 0.0000000000e+00 
          2.9701993339e-01 -2.2625934714e-05 0.0000000000e+00 
          3.0668290524e-01 4.8295510073e-06 0.0000000000e+00 
          3.1537181583e-01 -2.7602795918e-05 0.0000000000e+00 
          3.2308387610e-01 -1.0295476440e-05 0.0000000000e+00 
          3.2980025643e-01 -6.3338231153e-05 0.0000000000e+00 
          3.3550728241e-01 1.3024678932e-05 0.0000000000e+00 
          3.4018637767e-01 -3.1062747066e-05 0.0000000000e+00 
          3.4384038164e-01 -7.1968540890e-05 0.0000000000e+00 
          3.4645285872e-01 7.9287623782e-06 0.0000000000e+00 
          3.4802042009e-01 1.8093193113e-05 0.0000000000e+00 
        </DataArray>
        <DataArray type="Float64" Name="Reaction" NumberOfComponents="3" format="ascii">
          0.0000000000e+00 0.0000000000e+00 0.0000000000e+00 
          0.0000000000e+00 0.0000000000e+00 0.0000000000e+00 
          0.0000000000e+00 0.0000000000e+00 0.0000000000e+00 
          0.0000000000e+00 0.0000000000e+00 0.0000000000e+00 
          0.0000000000e+00 0.0000000000e+00 0.0000000000e+00 
          0.0000000000e+00 0.0000000000e+00 0.0000000000e+00 
          0.0000000000e+00 0.0000000000e+00 0.0000000000e+00 
          0.0000000000e+00 0.0000000000e+00 0.0000000000e+00 
          0.0000000000e+00 0.0000000000e+00 0.0000000000e+00 
          0.0000000000e+00 0.0000000000e+00 0.0000000000e+00 
          0.0000000000e+00 0.0000000000e+00 0.0000000000e+00 
          0.0000000000e+00 0.0000000000e+00 0.0000000000e+00 
          0.0000000000e+00 0.0000000000e+00 0.0000000000e+00 
          0.0000000000e+00 0.0000000000e+00 0.0000000000e+00 
          0.0000000000e+00 0.0000000000e+00 0.0000000000e+00 
          0.0000000000e+00 0.0000000000e+00 0.0000000000e+00 
          0.0000000000e+00 0.0000000000e+00 0.0000000000e+00 
          0.0000000000e+00 0.0000000000e+00 0.0000000000e+00 
          0.0000000000e+00 0.0000000000e+00 0.0000000000e+00 
          0.0000000000e+00 0.0000000000e+00 0.0000000000e+00 
          0.0000000000e+00 0.0000000000e+00 0.0000000000e+00 
          0.0000000000e+00 0.0000000000e+00 0.0000000000e+00 
          0.0000000000e+00 0.0000000000e+00 0.0000000000e+00 
          0.0000000000e+00 0.0000000000e+00 0.0000000000e+00 
          0.0000000000e+00 0.0000000000e+00 0.0000000000e+00 
          0.0000000000e+00 0.0000000000e+00 0.0000000000e+00 
          0.0000000000e+00 0.0000000000e+00 0.0000000000e+00 
          0.0000000000e+00 0.0000000000e+00 0.0000000000e+00 
          0.0000000000e+00 0.0000000000e+00 0.0000000000e+00 
          0.0000000000e+00 0.0000000000e+00 0.0000000000e+00 
          0.0000000000e+00 0.0000000000e+00 0.0000000000e+00 
          0.0000000000e+00 0.0000000000e+00 0.0000000000e+00 
          0.0000000000e+00 0.0000000000e+00 0.0000000000e+00 
          0.0000000000e+00 0.0000000000e+00 0.0000000000e+00 
          0.0000000000e+00 0.0000000000e+00 0.0000000000e+00 
          0.0000000000e+00 0.0000000000e+00 0.0000000000e+00 
          0.0000000000e+00 0.0000000000e+00 0.0000000000e+00 
          0.0000000000e+00 0.0000000000e+00 0.0000000000e+00 
          0.0000000000e+00 0.0000000000e+00 0.0000000000e+00 
          0.0000000000e+00 0.0000000000e+00 0.0000000000e+00 
          0.0000000000e+00 0.0000000000e+00 0.0000000000e+00 
          0.0000000000e+00 0.0000000000e+00 0.0000000000e+00 
          0.0000000000e+00 0.0000000000e+00 0.0000000000e+00 
          0.0000000000e+00 0.0000000000e+00 0.0000000000e+00 
          0.0000000000e+00 0.0000000000e+00 0.0000000000e+00 
          0.0000000000e+00 0.0000000000e+00 0.0000000000e+00 
          0.0000000000e+00 0.0000000000e+00 0.0000000000e+00 
          0.0000000000e+00 0.0000000000e+00 0.0000000000e+00 
          0.0000000000e+00 0.0000000000e+00 0.0000000000e+00 
          0.0000000000e+00 0.0000000000e+00 0.0000000000e+00 
          0.0000000000e+00 0.0000000000e+00 0.0000000000e+00 
          0.0000000000e+00 0.0000000000e+00 0.0000000000e+00 
          0.0000000000e+00 0.0000000000e+00 0.0000000000e+00 
          0.0000000000e+00 0.0000000000e+00 0.0000000000e+00 
          0.0000000000e+00 0.0000000000e+00 0.0000000000e+00 
          0.0000000000e+00 0.0000000000e+00 0.0000000000e+00 
          0.0000000000e+00 0.0000000000e+00 0.0000000000e+00 
          0.0000000000e+00 0.0000000000e+00 0.0000000000e+00 
          0.0000000000e+00 0.0000000000e+00 0.0000000000e+00 
          0.0000000000e+00 0.0000000000e+00 0.0000000000e+00 
          0.0000000000e+00 0.0000000000e+00 0.0000000000e+00 
          0.0000000000e+00 0.0000000000e+00 0.0000000000e+00 
          0.0000000000e+00 0.0000000000e+00 0.0000000000e+00 
          0.0000000000e+00 0.0000000000e+00 0.0000000000e+00 
          0.0000000000e+00 0.0000000000e+00 0.0000000000e+00 
          0.0000000000e+00 0.0000000000e+00 0.0000000000e+00 
          0.0000000000e+00 0.0000000000e+00 0.0000000000e+00 
          0.0000000000e+00 0.0000000000e+00 0.0000000000e+00 
          0.0000000000e+00 0.0000000000e+00 0.0000000000e+00 
          0.0000000000e+00 0.0000000000e+00 0.0000000000e+00 
          0.0000000000e+00 0.0000000000e+00 0.0000000000e+00 
          0.0000000000e+00 0.0000000000e+00 0.0000000000e+00 
          0.0000000000e+00 0.0000000000e+00 0.0000000000e+00 
          0.0000000000e+00 0.0000000000e+00 0.0000000000e+00 
          0.0000000000e+00 0.0000000000e+00 0.0000000000e+00 
          0.0000000000e+00 0.0000000000e+00 0.0000000000e+00 
          0.0000000000e+00 0.0000000000e+00 0.0000000000e+00 
          0.0000000000e+00 0.0000000000e+00 0.0000000000e+00 
          0.0000000000e+00 0.0000000000e+00 0.0000000000e+00 
          0.0000000000e+00 0.0000000000e+00 0.0000000000e+00 
        </DataArray>
      </PointData>
      <CellData>
        <DataArray type="Int64" Name="ElementTag" format="ascii">
          90
          91
          92
          93
          94
          95
          96
          97
          98
          99
          100
          101
          102
          103
          104
          105
          106
          107
          108
          109
          110
          111
          112
          113
          114
          115
          116
          117
          118
          119
          120
          121
          122
          123
          124
          125
          126
          127
          128
        </DataArray>
      </CellData>
    </Piece>
  </UnstructuredGrid>
</VTKFile>
