<?xml version="1.0"?>
<VTKFile type="UnstructuredGrid" version="1.0" byte_order="LittleEndian" compressor="vtkZLibDataCompressor">
  <UnstructuredGrid>
    <Piece NumberOfPoints="80" NumberOfCells="39">
      <Points>
        <DataArray type="Float64" Name="Points" NumberOfComponents="3" format="ascii">
          0.0000000000e+00 0.0000000000e+00 0.0000000000e+00 
          2.5000000000e-01 0.0000000000e+00 0.0000000000e+00 
          2.5000000000e-01 3.0000000000e+01 0.0000000000e+00 
          0.0000000000e+00 3.0000000000e+01 0.0000000000e+00 
          2.5000000000e-01 7.6923100000e-01 0.0000000000e+00 
          2.5000000000e-01 1.5384620000e+00 0.0000000000e+00 
          2.5000000000e-01 2.3076920000e+00 0.0000000000e+00 
          2.5000000000e-01 3.0769230000e+00 0.0000000000e+00 
          2.5000000000e-01 3.8461540000e+00 0.0000000000e+00 
          2.5000000000e-01 4.6153850000e+00 0.0000000000e+00 
          2.5000000000e-01 5.3846150000e+00 0.0000000000e+00 
          2.5000000000e-01 6.1538460000e+00 0.0000000000e+00 
          2.5000000000e-01 6.9230770000e+00 0.0000000000e+00 
          2.5000000000e-01 7.6923080000e+00 0.0000000000e+00 
          2.5000000000e-01 8.4615380000e+00 0.0000000000e+00 
          2.5000000000e-01 9.2307690000e+00 0.0000000000e+00 
          2.5000000000e-01 1.0000000000e+01 0.0000000000e+00 
          2.5000000000e-01 1.0769231000e+01 0.0000000000e+00 
          2.5000000000e-01 1.1538462000e+01 0.0000000000e+00 
          2.5000000000e-01 1.2307692000e+01 0.0000000000e+00 
          2.5000000000e-01 1.3076923000e+01 0.0000000000e+00 
          2.5000000000e-01 1.3846154000e+01 0.0000000000e+00 
          2.5000000000e-01 1.4615385000e+01 0.0000000000e+00 
          2.5000000000e-01 1.5384615000e+01 0.0000000000e+00 
          2.5000000000e-01 1.6153846000e+01 0.0000000000e+00 
          2.5000000000e-01 1.6923077000e+01 0.0000000000e+00 
          2.5000000000e-01 1.7692308000e+01 0.0000000000e+00 
          2.5000000000e-01 1.8461538000e+01 0.0000000000e+00 
          2.5000000000e-01 1.9230769000e+01 0.0000000000e+00 
          2.5000000000e-01 2.0000000000e+01 0.0000000000e+00 
          2.5000000000e-01 2.0769231000e+01 0.0000000000e+00 
          2.5000000000e-01 2.1538462000e+01 0.0000000000e+00 
          2.5000000000e-01 2.2307692000e+01 0.0000000000e+00 
          2.5000000000e-01 2.3076923000e+01 0.0000000000e+00 
          2.5000000000e-01 2.3846154000e+01 0.0000000000e+00 
          2.5000000000e-01 2.4615385000e+01 0.0000000000e+00 
          2.5000000000e-01 2.5384615000e+01 0.0000000000e+00 
          2.5000000000e-01 2.6153846000e+01 0.0000000000e+00 
          2.5000000000e-01 2.6923077000e+01 0.0000000000e+00 
          2.5000000000e-01 2.7692308000e+01 0.0000000000e+00 
          2.5000000000e-01 2.8461538000e+01 0.0000000000e+00 
          2.5000000000e-01 2.9230769000e+01 0.0000000000e+00 
          0.0000000000e+00 7.6923100000e-01 0.0000000000e+00 
          0.0000000000e+00 1.5384620000e+00 0.0000000000e+00 
          0.0000000000e+00 2.3076920000e+00 0.0000000000e+00 
          0.0000000000e+00 3.0769230000e+00 0.0000000000e+00 
          0.0000000000e+00 3.8461540000e+00 0.0000000000e+00 
          0.0000000000e+00 4.6153850000e+00 0.0000000000e+00 
          0.0000000000e+00 5.3846150000e+00 0.0000000000e+00 
          0.0000000000e+00 6.1538460000e+00 0.0000000000e+00 
          0.0000000000e+00 6.9230770000e+00 0.0000000000e+00 
          0.0000000000e+00 7.6923080000e+00 0.0000000000e+00 
          0.0000000000e+00 8.4615380000e+00 0.0000000000e+00 
          0.0000000000e+00 9.2307690000e+00 0.0000000000e+00 
          0.0000000000e+00 1.0000000000e+01 0.0000000000e+00 
          0.0000000000e+00 1.0769231000e+01 0.0000000000e+00 
          0.0000000000e+00 1.1538462000e+01 0.0000000000e+00 
          0.0000000000e+00 1.2307692000e+01 0.0000000000e+00 
          0.0000000000e+00 1.3076923000e+01 0.0000000000e+00 
          0.0000000000e+00 1.3846154000e+01 0.0000000000e+00 
          0.0000000000e+00 1.4615385000e+01 0.0000000000e+00 
          0.0000000000e+00 1.5384615000e+01 0.0000000000e+00 
          0.0000000000e+00 1.6153846000e+01 0.0000000000e+00 
          0.0000000000e+00 1.6923077000e+01 0.0000000000e+00 
          0.0000000000e+00 1.7692308000e+01 0.0000000000e+00 
          0.0000000000e+00 1.8461538000e+01 0.0000000000e+00 
          0.0000000000e+00 1.9230769000e+01 0.0000000000e+00 
          0.0000000000e+00 2.0000000000e+01 0.0000000000e+00 
          0.0000000000e+00 2.0769231000e+01 0.0000000000e+00 
          0.0000000000e+00 2.1538462000e+01 0.0000000000e+00 
          0.0000000000e+00 2.2307692000e+01 0.0000000000e+00 
          0.0000000000e+00 2.3076923000e+01 0.0000000000e+00 
          0.0000000000e+00 2.3846154000e+01 0.0000000000e+00 
          0.0000000000e+00 2.4615385000e+01 0.0000000000e+00 
          0.0000000000e+00 2.5384615000e+01 0.0000000000e+00 
          0.0000000000e+00 2.6153846000e+01 0.0000000000e+00 
          0.0000000000e+00 2.6923077000e+01 0.0000000000e+00 
          0.0000000000e+00 2.7692308000e+01 0.0000000000e+00 
          0.0000000000e+00 2.8461538000e+01 0.0000000000e+00 
          0.0000000000e+00 2.9230769000e+01 0.0000000000e+00 
        </DataArray>
      </Points>
      <Cells>
        <DataArray type="Int64" Name="connectivity" format="ascii">
          0 1 4 42 
          42 4 5 43 
          43 5 6 44 
          44 6 7 45 
          45 7 8 46 
          46 8 9 47 
          47 9 10 48 
          48 10 11 49 
          49 11 12 50 
          50 12 13 51 
          51 13 14 52 
          52 14 15 53 
          53 15 16 54 
          54 16 17 55 
          55 17 18 56 
          56 18 19 57 
          57 19 20 58 
          58 20 21 59 
          59 21 22 60 
          60 22 23 61 
          61 23 24 62 
          62 24 25 63 
          63 25 26 64 
          64 26 27 65 
          65 27 28 66 
          66 28 29 67 
          67 29 30 68 
          68 30 31 69 
          69 31 32 70 
          70 32 33 71 
          71 33 34 72 
          72 34 35 73 
          73 35 36 74 
          74 36 37 75 
          75 37 38 76 
          76 38 39 77 
          77 39 40 78 
          78 40 41 79 
          79 41 2 3 
        </DataArray>
        <DataArray type="Int64" Name="offsets" format="ascii">
          4
          8
          12
          16
          20
          24
          28
          32
          36
          40
          44
          48
          52
          56
          60
          64
          68
          72
          76
          80
          84
          88
          92
          96
          100
          104
          108
          112
          116
          120
          124
          128
          132
          136
          140
          144
          148
          152
          156
        </DataArray>
        <DataArray type="Int64" Name="types" format="ascii">
          9
          9
          9
          9
          9
          9
          9
          9
          9
          9
          9
          9
          9
          9
          9
          9
          9
          9
          9
          9
          9
          9
          9
          9
          9
          9
          9
          9
          9
          9
          9
          9
          9
          9
          9
          9
          9
          9
          9
        </DataArray>
      </Cells>
      <PointData>
        <DataArray type="Int64" Name="NodeTag" format="ascii">
          1
          2
          3
          4
          7
          8
          9
          10
          11
          12
          13
          14
          15
          16
          17
          18
          19
          20
          21
          22
          23
          24
          25
          26
          27
          28
          29
          30
          31
          32
          33
          34
          35
          36
          37
          38
          39
          40
          41
          42
          43
          44
          45
          46
          47
          48
          49
          50
          51
          52
          53
          54
          55
          56
          57
          58
          59
          60
          61
          62
          63
          64
          65
          66
          67
          68
          69
          70
          71
          72
          73
          74
          75
          76
          77
          78
          79
          80
          81
          82
        </DataArray>
        <DataArray type="Float64" Name="Velocity" NumberOfComponents="3" format="ascii">
          7.4453231779e-04 -7.7500424838e-05 0.0000000000e+00 
          7.4453231779e-04 -7.7500424838e-05 0.0000000000e+00 
          1.2274755499e-05 -1.1401513498e-04 0.0000000000e+00 
          1.2274755499e-05 -1.1401513498e-04 0.0000000000e+00 
          6.6998504674e-04 -7.8449219370e-05 0.0000000000e+00 
          6.0234086404e-04 -7.9025646320e-05 0.0000000000e+00 
          5.4102324595e-04 -7.9948470674e-05 0.0000000000e+00 
          4.8549698355e-04 -8.1383978012e-05 0.0000000000e+00 
          4.3526634813e-04 -8.2564012267e-05 0.0000000000e+00 
          3.8987248383e-04 -8.3619837916e-05 0.0000000000e+00 
          3.4889138799e-04 -8.4753988161e-05 0.0000000000e+00 
          3.1193159254e-04 -8.5928818152e-05 0.0000000000e+00 
          2.7863248715e-04 -8.6627901256e-05 0.0000000000e+00 
          2.4866212768e-04 -8.7522422702e-05 0.0000000000e+00 
          2.2171540581e-04 -8.8158446355e-05 0.0000000000e+00 
          1.9751215444e-04 -8.8882636705e-05 0.0000000000e+00 
          1.7579566548e-04 -8.9981242880e-05 0.0000000000e+00 
          1.5633090748e-04 -9.0988357200e-05 0.0000000000e+00 
          1.3890300930e-04 -9.2401098648e-05 0.0000000000e+00 
          1.2331582224e-04 -9.3559162605e-05 0.0000000000e+00 
          1.0939047065e-04 -9.4466103226e-05 0.0000000000e+00 
          9.6964174208e-05 -9.5778654874e-05 0.0000000000e+00 
          8.5888951292e-05 -9.7142157548e-05 0.0000000000e+00 
          7.6030514953e-05 -9.7489833935e-05 0.0000000000e+00 
          6.7267151850e-05 -9.8074176924e-05 0.0000000000e+00 
          5.9488806408e-05 -9.9192777805e-05 0.0000000000e+00 
          5.2596114070e-05 -1.0038014064e-04 0.0000000000e+00 
          4.6499569354e-05 -1.0118226370e-04 0.0000000000e+00 
          4.1118702162e-05 -1.0185349832e-04 0.0000000000e+00 
          3.6381398683e-05 -1.0295739949e-04 0.0000000000e+00 
          3.2223207526e-05 -1.0347327953e-04 0.0000000000e+00 
          2.8586742849e-05 -1.0437937127e-04 0.0000000000e+00 
          2.5421134848e-05 -1.0569348888e-04 0.0000000000e+00 
          2.2681514069e-05 -1.0670073396e-04 0.0000000000e+00 
          2.0328589479e-05 -1.0830036030e-04 0.0000000000e+00 
          1.8328234561e-05 -1.0954370482e-04 0.0000000000e+00 
          1.6651142420e-05 -1.1024558476e-04 0.0000000000e+00 
          1.5272511260e-05 -1.1111159705e-04 0.0000000000e+00 
          1.4171795612e-05 -1.1216152002e-04 0.0000000000e+00 
          1.3332478324e-05 -1.1279464032e-04 0.0000000000e+00 
          1.2741895802e-05 -1.1313456970e-04 0.0000000000e+00 
          1.2391097994e-05 -1.1383252632e-04 0.0000000000e+00 
          6.6998504674e-04 -7.8449219370e-05 0.0000000000e+00 
          6.0234086404e-04 -7.9025646320e-05 0.0000000000e+00 
          5.4102324595e-04 -7.9948470674e-05 0.0000000000e+00 
          4.8549698355e-04 -8.1383978012e-05 0.0000000000e+00 
          4.3526634813e-04 -8.2564012267e-05 0.0000000000e+00 
          3.8987248383e-04 -8.3619837916e-05 0.0000000000e+00 
          3.4889138799e-04 -8.4753988161e-05 0.0000000000e+00 
          3.1193159254e-04 -8.5928818152e-05 0.0000000000e+00 
          2.7863248715e-04 -8.6627901256e-05 0.0000000000e+00 
          2.4866212768e-04 -8.7522422702e-05 0.0000000000e+00 
          2.2171540581e-04 -8.8158446355e-05 0.0000000000e+00 
          1.9751215444e-04 -8.8882636705e-05 0.0000000000e+00 
          1.7579566548e-04 -8.9981242880e-05 0.0000000000e+00 
          1.5633090748e-04 -9.0988357200e-05 0.0000000000e+00 
          1.3890300930e-04 -9.2401098648e-05 0.0000000000e+00 
          1.2331582224e-04 -9.3559162605e-05 0.0000000000e+00 
          1.0939047065e-04 -9.4466103226e-05 0.0000000000e+00 
          9.6964174208e-05 -9.5778654874e-05 0.0000000000e+00 
          8.5888951292e-05 -9.7142157548e-05 0.0000000000e+00 
          7.6030514953e-05 -9.7489833935e-05 0.0000000000e+00 
          6.7267151850e-05 -9.8074176924e-05 0.0000000000e+00 
          5.9488806408e-05 -9.9192777805e-05 0.0000000000e+00 
          5.2596114070e-05 -1.0038014064e-04 0.0000000000e+00 
          4.6499569354e-05 -1.0118226370e-04 0.0000000000e+00 
          4.1118702162e-05 -1.0185349832e-04 0.0000000000e+00 
          3.6381398683e-05 -1.0295739949e-04 0.0000000000e+00 
          3.2223207526e-05 -1.0347327953e-04 0.0000000000e+00 
          2.8586742849e-05 -1.0437937127e-04 0.0000000000e+00 
          2.5421134848e-05 -1.0569348888e-04 0.0000000000e+00 
          2.2681514069e-05 -1.0670073396e-04 0.0000000000e+00 
          2.0328589479e-05 -1.0830036030e-04 0.0000000000e+00 
          1.8328234561e-05 -1.0954370482e-04 0.0000000000e+00 
          1.6651142420e-05 -1.1024558476e-04 0.0000000000e+00 
          1.5272511260e-05 -1.1111159705e-04 0.0000000000e+00 
          1.4171795612e-05 -1.1216152002e-04 0.0000000000e+00 
          1.3332478324e-05 -1.1279464032e-04 0.0000000000e+00 
          1.2741895802e-05 -1.1313456970e-04 0.0000000000e+00 
          1.2391097994e-05 -1.1383252632e-04 0.0000000000e+00 
        </DataArray>
        <DataArray type="Float64" Name="Displacement" NumberOfComponents="3" format="ascii">
          2.1981552863e-05 -1.2090817721e-04 0.0000000000e+00 
          2.1981552863e-05 -1.2090817721e-04 0.0000000000e+00 
          2.7837347286e-07 -1.4451465755e-04 0.0000000000e+00 
          2.7837347286e-07 -1.4451465755e-04 0.0000000000e+00 
          1.9628451391e-05 -1.2209674226e-04 0.0000000000e+00 
          1.7511970251e-05 -1.2325519282e-04 0.0000000000e+00 
          1.5610095938e-05 -1.2438344137e-04 0.0000000000e+00 
          1.3902659124e-05 -1.2547973255e-04 0.0000000000e+00 
          1.2371214806e-05 -1.2654523705e-04 0.0000000000e+00 
          1.0998905476e-05 -1.2758013790e-04 0.0000000000e+00 
          9.7703458505e-06 -1.2858419649e-04 0.0000000000e+00 
          8.6715044537e-06 -1.2955879282e-04 0.0000000000e+00 
          7.6896077775e-06 -1.3050251827e-04 0.0000000000e+00 
          6.8130349717e-06 -1.3141539654e-04 0.0000000000e+00 
          6.0312282948e-06 -1.3229801078e-04 0.0000000000e+00 
          5.3346031570e-06 -1.3314955777e-04 0.0000000000e+00 
          4.7144738923e-06 -1.3396997275e-04 0.0000000000e+00 
          4.1629749336e-06 -1.3476060301e-04 0.0000000000e+00 
          3.6729925965e-06 -1.3552131283e-04 0.0000000000e+00 
          3.2381014002e-06 -1.3625065987e-04 0.0000000000e+00 
          2.8525024533e-06 -1.3694912492e-04 0.0000000000e+00 
          2.5109719156e-06 -1.3761581452e-04 0.0000000000e+00 
          2.2088080624e-06 -1.3825183286e-04 0.0000000000e+00 
          1.9417855981e-06 -1.3885750688e-04 0.0000000000e+00 
          1.7061115164e-06 -1.3943218409e-04 0.0000000000e+00 
          1.4983879418e-06 -1.3997675363e-04 0.0000000000e+00 
          1.3155748082e-06 -1.4049079134e-04 0.0000000000e+00 
          1.1549576363e-06 -1.4097445381e-04 0.0000000000e+00 
          1.0141168901e-06 -1.4142880267e-04 0.0000000000e+00 
          8.9090213412e-07 -1.4185282570e-04 0.0000000000e+00 
          7.8340665366e-07 -1.4224588239e-04 0.0000000000e+00 
          6.8994554367e-07 -1.4260778427e-04 0.0000000000e+00 
          6.0903592213e-07 -1.4293855520e-04 0.0000000000e+00 
          5.3937875861e-07 -1.4323820807e-04 0.0000000000e+00 
          4.7984370751e-07 -1.4350636450e-04 0.0000000000e+00 
          4.2945473664e-07 -1.4374339914e-04 0.0000000000e+00 
          3.8737809973e-07 -1.4394840195e-04 0.0000000000e+00 
          3.5291159857e-07 -1.4412202908e-04 0.0000000000e+00 
          3.2547595056e-07 -1.4426442107e-04 0.0000000000e+00 
          3.0460710348e-07 -1.4437474442e-04 0.0000000000e+00 
          2.8995029067e-07 -1.4445347360e-04 0.0000000000e+00 
          2.8125533310e-07 -1.4449980177e-04 0.0000000000e+00 
          1.9628451391e-05 -1.2209674226e-04 0.0000000000e+00 
          1.7511970251e-05 -1.2325519282e-04 0.0000000000e+00 
          1.5610095938e-05 -1.2438344137e-04 0.0000000000e+00 
          1.3902659124e-05 -1.2547973255e-04 0.0000000000e+00 
          1.2371214806e-05 -1.2654523705e-04 0.0000000000e+00 
          1.0998905476e-05 -1.2758013790e-04 0.0000000000e+00 
          9.7703458505e-06 -1.2858419649e-04 0.0000000000e+00 
          8.6715044537e-06 -1.2955879282e-04 0.0000000000e+00 
          7.6896077775e-06 -1.3050251827e-04 0.0000000000e+00 
          6.8130349717e-06 -1.3141539654e-04 0.0000000000e+00 
          6.0312282948e-06 -1.3229801078e-04 0.0000000000e+00 
          5.3346031570e-06 -1.3314955777e-04 0.0000000000e+00 
          4.7144738923e-06 -1.3396997275e-04 0.0000000000e+00 
          4.1629749336e-06 -1.3476060301e-04 0.0000000000e+00 
          3.6729925965e-06 -1.3552131283e-04 0.0000000000e+00 
          3.2381014002e-06 -1.3625065987e-04 0.0000000000e+00 
          2.8525024533e-06 -1.3694912492e-04 0.0000000000e+00 
          2.5109719156e-06 -1.3761581452e-04 0.0000000000e+00 
          2.2088080624e-06 -1.3825183286e-04 0.0000000000e+00 
          1.9417855981e-06 -1.3885750688e-04 0.0000000000e+00 
          1.7061115164e-06 -1.3943218409e-04 0.0000000000e+00 
          1.4983879418e-06 -1.3997675363e-04 0.0000000000e+00 
          1.3155748082e-06 -1.4049079134e-04 0.0000000000e+00 
          1.1549576363e-06 -1.4097445381e-04 0.0000000000e+00 
          1.0141168901e-06 -1.4142880267e-04 0.0000000000e+00 
          8.9090213412e-07 -1.4185282570e-04 0.0000000000e+00 
          7.8340665366e-07 -1.4224588239e-04 0.0000000000e+00 
          6.8994554367e-07 -1.4260778427e-04 0.0000000000e+00 
          6.0903592213e-07 -1.4293855520e-04 0.0000000000e+00 
          5.3937875861e-07 -1.4323820807e-04 0.0000000000e+00 
          4.7984370751e-07 -1.4350636450e-04 0.0000000000e+00 
          4.2945473664e-07 -1.4374339914e-04 0.0000000000e+00 
          3.8737809973e-07 -1.4394840195e-04 0.0000000000e+00 
          3.5291159857e-07 -1.4412202908e-04 0.0000000000e+00 
          3.2547595056e-07 -1.4426442107e-04 0.0000000000e+00 
          3.0460710348e-07 -1.4437474442e-04 0.0000000000e+00 
          2.8995029067e-07 -1.4445347360e-04 0.0000000000e+00 
          2.8125533310e-07 -1.4449980177e-04 0.0000000000e+00 
        </DataArray>
        <DataArray type="Float64" Name="Acceleration" NumberOfComponents="3" format="ascii">
          2.3483206593e-02 -5.9773138795e-05 0.0000000000e+00 
          2.3483206593e-02 -5.9773138795e-05 0.0000000000e+00 
          5.1932259753e-04 -2.3332305410e-04 0.0000000000e+00 
          5.1932259753e-04 -2.3332305410e-04 0.0000000000e+00 
          2.1319959195e-02 -1.6071415914e-04 0.0000000000e+00 
          1.9336288640e-02 -1.4520340545e-04 0.0000000000e+00 
          1.7519436952e-02 1.7164894692e-04 0.0000000000e+00 
          1.5857271362e-02 -3.9585014665e-05 0.0000000000e+00 
          1.4338376742e-02 -7.2564309995e-05 0.0000000000e+00 
          1.2951996696e-02 -2.9798657865e-05 0.0000000000e+00 
          1.1688020116e-02 -2.7801082232e-04 0.0000000000e+00 
          1.0536950272e-02 -2.4410077015e-05 0.0000000000e+00 
          9.4898887247e-03 -2.8680237722e-05 0.0000000000e+00 
          8.5385293364e-03 -1.3397083107e-04 0.0000000000e+00 
          7.6751214526e-03 1.1187726457e-05 0.0000000000e+00 
          6.8924292402e-03 2.2648488023e-05 0.0000000000e+00 
          6.1837261035e-03 -2.2014222208e-04 0.0000000000e+00 
          5.5427690874e-03 -1.9568283603e-04 0.0000000000e+00 
          4.9637728677e-03 6.4065623208e-05 0.0000000000e+00 
          4.4413828476e-03 -2.2233691381e-05 0.0000000000e+00 
          3.9706506980e-03 1.3859854359e-04 0.0000000000e+00 
          3.5470160065e-03 -6.0383021608e-05 0.0000000000e+00 
          3.1662793255e-03 -1.1943734360e-04 0.0000000000e+00 
          2.8245842979e-03 -1.5697829495e-06 0.0000000000e+00 
          2.5183958790e-03 -1.6194355239e-04 0.0000000000e+00 
          2.2444799328e-03 -8.5510128023e-05 0.0000000000e+00 
          1.9998824704e-03 -1.1383376112e-04 0.0000000000e+00 
          1.7819149805e-03 -3.0491939977e-04 0.0000000000e+00 
          1.5881365262e-03 -1.2263091471e-04 0.0000000000e+00 
          1.4163377687e-03 -7.2077409460e-06 0.0000000000e+00 
          1.2645244942e-03 2.6757136579e-05 0.0000000000e+00 
          1.1309051552e-03 2.2380523090e-05 0.0000000000e+00 
          1.0138788253e-03 2.0213859577e-05 0.0000000000e+00 
          9.1202231829e-04 8.8318951620e-05 0.0000000000e+00 
          8.2407989150e-04 2.0805318673e-05 0.0000000000e+00 
          7.4895326296e-04 1.8475326098e-04 0.0000000000e+00 
          6.8569363398e-04 6.6608872457e-05 0.0000000000e+00 
          6.3349375420e-04 4.1231614893e-05 0.0000000000e+00 
          5.9168173140e-04 1.9142986900e-04 0.0000000000e+00 
          5.5971520296e-04 1.0591651423e-04 0.0000000000e+00 
          5.3717699714e-04 2.5134730708e-04 0.0000000000e+00 
          5.2377154906e-04 8.3984199978e-05 0.0000000000e+00 
          2.1319959195e-02 -1.6071415914e-04 0.0000000000e+00 
          1.9336288640e-02 -1.4520340545e-04 0.0000000000e+00 
          1.7519436952e-02 1.7164894692e-04 0.0000000000e+00 
          1.5857271362e-02 -3.9585014665e-05 0.0000000000e+00 
          1.4338376742e-02 -7.2564309995e-05 0.0000000000e+00 
          1.2951996696e-02 -2.9798657865e-05 0.0000000000e+00 
          1.1688020116e-02 -2.7801082232e-04 0.0000000000e+00 
          1.0536950272e-02 -2.4410077015e-05 0.0000000000e+00 
          9.4898887247e-03 -2.8680237722e-05 0.0000000000e+00 
          8.5385293364e-03 -1.3397083107e-04 0.0000000000e+00 
          7.6751214526e-03 1.1187726457e-05 0.0000000000e+00 
          6.8924292402e-03 2.2648488023e-05 0.0000000000e+00 
          6.1837261035e-03 -2.2014222208e-04 0.0000000000e+00 
          5.5427690874e-03 -1.9568283603e-04 0.0000000000e+00 
          4.9637728677e-03 6.4065623208e-05 0.0000000000e+00 
          4.4413828476e-03 -2.2233691381e-05 0.0000000000e+00 
          3.9706506980e-03 1.3859854359e-04 0.0000000000e+00 
          3.5470160065e-03 -6.0383021608e-05 0.0000000000e+00 
          3.1662793255e-03 -1.1943734360e-04 0.0000000000e+00 
          2.8245842979e-03 -1.5697829495e-06 0.0000000000e+00 
          2.5183958790e-03 -1.6194355239e-04 0.0000000000e+00 
          2.2444799328e-03 -8.5510128023e-05 0.0000000000e+00 
          1.9998824704e-03 -1.1383376112e-04 0.0000000000e+00 
          1.7819149805e-03 -3.0491939977e-04 0.0000000000e+00 
          1.5881365262e-03 -1.2263091471e-04 0.0000000000e+00 
          1.4163377687e-03 -7.2077409460e-06 0.0000000000e+00 
          1.2645244942e-03 2.6757136579e-05 0.0000000000e+00 
          1.1309051552e-03 2.2380523090e-05 0.0000000000e+00 
          1.0138788253e-03 2.0213859577e-05 0.0000000000e+00 
          9.1202231829e-04 8.8318951620e-05 0.0000000000e+00 
          8.2407989150e-04 2.0805318673e-05 0.0000000000e+00 
          7.4895326296e-04 1.8475326098e-04 0.0000000000e+00 
          6.8569363398e-04 6.6608872457e-05 0.0000000000e+00 
          6.3349375420e-04 4.1231614893e-05 0.0000000000e+00 
          5.9168173140e-04 1.9142986900e-04 0.0000000000e+00 
          5.5971520296e-04 1.0591651423e-04 0.0000000000e+00 
          5.3717699714e-04 2.5134730708e-04 0.0000000000e+00 
          5.2377154906e-04 8.3984199978e-05 0.0000000000e+00 
        </DataArray>
        <DataArray type="Float64" Name="Reaction" NumberOfComponents="3" format="ascii">
          0.0000000000e+00 0.0000000000e+00 0.0000000000e+00 
          0.0000000000e+00 0.0000000000e+00 0.0000000000e+00 
          0.0000000000e+00 0.0000000000e+00 0.0000000000e+00 
          0.0000000000e+00 0.0000000000e+00 0.0000000000e+00 
          0.0000000000e+00 0.0000000000e+00 0.0000000000e+00 
          0.0000000000e+00 0.0000000000e+00 0.0000000000e+00 
          0.0000000000e+00 0.0000000000e+00 0.0000000000e+00 
          0.0000000000e+00 0.0000000000e+00 0.0000000000e+00 
          0.0000000000e+00 0.0000000000e+00 0.0000000000e+00 
          0.0000000000e+00 0.0000000000e+00 0.0000000000e+00 
          0.0000000000e+00 0.0000000000e+00 0.0000000000e+00 
          0.0000000000e+00 0.0000000000e+00 0.0000000000e+00 
          0.0000000000e+00 0.0000000000e+00 0.0000000000e+00 
          0.0000000000e+00 0.0000000000e+00 0.0000000000e+00 
          0.0000000000e+00 0.0000000000e+00 0.0000000000e+00 
          0.0000000000e+00 0.0000000000e+00 0.0000000000e+00 
          0.0000000000e+00 0.0000000000e+00 0.0000000000e+00 
          0.0000000000e+00 0.0000000000e+00 0.0000000000e+00 
          0.0000000000e+00 0.0000000000e+00 0.0000000000e+00 
          0.0000000000e+00 0.0000000000e+00 0.0000000000e+00 
          0.0000000000e+00 0.0000000000e+00 0.0000000000e+00 
          0.0000000000e+00 0.0000000000e+00 0.0000000000e+00 
          0.0000000000e+00 0.0000000000e+00 0.0000000000e+00 
          0.0000000000e+00 0.0000000000e+00 0.0000000000e+00 
          0.0000000000e+00 0.0000000000e+00 0.0000000000e+00 
          0.0000000000e+00 0.0000000000e+00 0.0000000000e+00 
          0.0000000000e+00 0.0000000000e+00 0.0000000000e+00 
          0.0000000000e+00 0.0000000000e+00 0.0000000000e+00 
          0.0000000000e+00 0.0000000000e+00 0.0000000000e+00 
          0.0000000000e+00 0.0000000000e+00 0.0000000000e+00 
          0.0000000000e+00 0.0000000000e+00 0.0000000000e+00 
          0.0000000000e+00 0.0000000000e+00 0.0000000000e+00 
          0.0000000000e+00 0.0000000000e+00 0.0000000000e+00 
          0.0000000000e+00 0.0000000000e+00 0.0000000000e+00 
          0.0000000000e+00 0.0000000000e+00 0.0000000000e+00 
          0.0000000000e+00 0.0000000000e+00 0.0000000000e+00 
          0.0000000000e+00 0.0000000000e+00 0.0000000000e+00 
          0.0000000000e+00 0.0000000000e+00 0.0000000000e+00 
          0.0000000000e+00 0.0000000000e+00 0.0000000000e+00 
          0.0000000000e+00 0.0000000000e+00 0.0000000000e+00 
          0.0000000000e+00 0.0000000000e+00 0.0000000000e+00 
          0.0000000000e+00 0.0000000000e+00 0.0000000000e+00 
          0.0000000000e+00 0.0000000000e+00 0.0000000000e+00 
          0.0000000000e+00 0.0000000000e+00 0.0000000000e+00 
          0.0000000000e+00 0.0000000000e+00 0.0000000000e+00 
          0.0000000000e+00 0.0000000000e+00 0.0000000000e+00 
          0.0000000000e+00 0.0000000000e+00 0.0000000000e+00 
          0.0000000000e+00 0.0000000000e+00 0.0000000000e+00 
          0.0000000000e+00 0.0000000000e+00 0.0000000000e+00 
          0.0000000000e+00 0.0000000000e+00 0.0000000000e+00 
          0.0000000000e+00 0.0000000000e+00 0.0000000000e+00 
          0.0000000000e+00 0.0000000000e+00 0.0000000000e+00 
          0.0000000000e+00 0.0000000000e+00 0.0000000000e+00 
          0.0000000000e+00 0.0000000000e+00 0.0000000000e+00 
          0.0000000000e+00 0.0000000000e+00 0.0000000000e+00 
          0.0000000000e+00 0.0000000000e+00 0.0000000000e+00 
          0.0000000000e+00 0.0000000000e+00 0.0000000000e+00 
          0.0000000000e+00 0.0000000000e+00 0.0000000000e+00 
          0.0000000000e+00 0.0000000000e+00 0.0000000000e+00 
          0.0000000000e+00 0.0000000000e+00 0.0000000000e+00 
          0.0000000000e+00 0.0000000000e+00 0.0000000000e+00 
          0.0000000000e+00 0.0000000000e+00 0.0000000000e+00 
          0.0000000000e+00 0.0000000000e+00 0.0000000000e+00 
          0.0000000000e+00 0.0000000000e+00 0.0000000000e+00 
          0.0000000000e+00 0.0000000000e+00 0.0000000000e+00 
          0.0000000000e+00 0.0000000000e+00 0.0000000000e+00 
          0.0000000000e+00 0.0000000000e+00 0.0000000000e+00 
          0.0000000000e+00 0.0000000000e+00 0.0000000000e+00 
          0.0000000000e+00 0.0000000000e+00 0.0000000000e+00 
          0.0000000000e+00 0.0000000000e+00 0.0000000000e+00 
          0.0000000000e+00 0.0000000000e+00 0.0000000000e+00 
          0.0000000000e+00 0.0000000000e+00 0.0000000000e+00 
          0.0000000000e+00 0.0000000000e+00 0.0000000000e+00 
          0.0000000000e+00 0.0000000000e+00 0.0000000000e+00 
          0.0000000000e+00 0.0000000000e+00 0.0000000000e+00 
          0.0000000000e+00 0.0000000000e+00 0.0000000000e+00 
          0.0000000000e+00 0.0000000000e+00 0.0000000000e+00 
          0.0000000000e+00 0.0000000000e+00 0.0000000000e+00 
          0.0000000000e+00 0.0000000000e+00 0.0000000000e+00 
          0.0000000000e+00 0.0000000000e+00 0.0000000000e+00 
        </DataArray>
      </PointData>
      <CellData>
        <DataArray type="Int64" Name="ElementTag" format="ascii">
          90
          91
          92
          93
          94
          95
          96
          97
          98
          99
          100
          101
          102
          103
          104
          105
          106
          107
          108
          109
          110
          111
          112
          113
          114
          115
          116
          117
          118
          119
          120
          121
          122
          123
          124
          125
          126
          127
          128
        </DataArray>
      </CellData>
    </Piece>
  </UnstructuredGrid>
</VTKFile>
