<?xml version="1.0"?>
<VTKFile type="UnstructuredGrid" version="1.0" byte_order="LittleEndian" compressor="vtkZLibDataCompressor">
  <UnstructuredGrid>
    <Piece NumberOfPoints="82" NumberOfCells="1">
      <Points>
        <DataArray type="Float64" Name="Points" NumberOfComponents="3" format="ascii">
          0.0000000000e+00 0.0000000000e+00 0.0000000000e+00 
          2.5000000000e-01 0.0000000000e+00 0.0000000000e+00 
          2.5000000000e-01 3.0000000000e+01 0.0000000000e+00 
          0.0000000000e+00 3.0000000000e+01 0.0000000000e+00 
          0.0000000000e+00 -5.0000000000e+00 0.0000000000e+00 
          2.5000000000e-01 -5.0000000000e+00 0.0000000000e+00 
          2.5000000000e-01 7.6923100000e-01 0.0000000000e+00 
          2.5000000000e-01 1.5384620000e+00 0.0000000000e+00 
          2.5000000000e-01 2.3076920000e+00 0.0000000000e+00 
          2.5000000000e-01 3.0769230000e+00 0.0000000000e+00 
          2.5000000000e-01 3.8461540000e+00 0.0000000000e+00 
          2.5000000000e-01 4.6153850000e+00 0.0000000000e+00 
          2.5000000000e-01 5.3846150000e+00 0.0000000000e+00 
          2.5000000000e-01 6.1538460000e+00 0.0000000000e+00 
          2.5000000000e-01 6.9230770000e+00 0.0000000000e+00 
          2.5000000000e-01 7.6923080000e+00 0.0000000000e+00 
          2.5000000000e-01 8.4615380000e+00 0.0000000000e+00 
          2.5000000000e-01 9.2307690000e+00 0.0000000000e+00 
          2.5000000000e-01 1.0000000000e+01 0.0000000000e+00 
          2.5000000000e-01 1.0769231000e+01 0.0000000000e+00 
          2.5000000000e-01 1.1538462000e+01 0.0000000000e+00 
          2.5000000000e-01 1.2307692000e+01 0.0000000000e+00 
          2.5000000000e-01 1.3076923000e+01 0.0000000000e+00 
          2.5000000000e-01 1.3846154000e+01 0.0000000000e+00 
          2.5000000000e-01 1.4615385000e+01 0.0000000000e+00 
          2.5000000000e-01 1.5384615000e+01 0.0000000000e+00 
          2.5000000000e-01 1.6153846000e+01 0.0000000000e+00 
          2.5000000000e-01 1.6923077000e+01 0.0000000000e+00 
          2.5000000000e-01 1.7692308000e+01 0.0000000000e+00 
          2.5000000000e-01 1.8461538000e+01 0.0000000000e+00 
          2.5000000000e-01 1.9230769000e+01 0.0000000000e+00 
          2.5000000000e-01 2.0000000000e+01 0.0000000000e+00 
          2.5000000000e-01 2.0769231000e+01 0.0000000000e+00 
          2.5000000000e-01 2.1538462000e+01 0.0000000000e+00 
          2.5000000000e-01 2.2307692000e+01 0.0000000000e+00 
          2.5000000000e-01 2.3076923000e+01 0.0000000000e+00 
          2.5000000000e-01 2.3846154000e+01 0.0000000000e+00 
          2.5000000000e-01 2.4615385000e+01 0.0000000000e+00 
          2.5000000000e-01 2.5384615000e+01 0.0000000000e+00 
          2.5000000000e-01 2.6153846000e+01 0.0000000000e+00 
          2.5000000000e-01 2.6923077000e+01 0.0000000000e+00 
          2.5000000000e-01 2.7692308000e+01 0.0000000000e+00 
          2.5000000000e-01 2.8461538000e+01 0.0000000000e+00 
          2.5000000000e-01 2.9230769000e+01 0.0000000000e+00 
          0.0000000000e+00 7.6923100000e-01 0.0000000000e+00 
          0.0000000000e+00 1.5384620000e+00 0.0000000000e+00 
          0.0000000000e+00 2.3076920000e+00 0.0000000000e+00 
          0.0000000000e+00 3.0769230000e+00 0.0000000000e+00 
          0.0000000000e+00 3.8461540000e+00 0.0000000000e+00 
          0.0000000000e+00 4.6153850000e+00 0.0000000000e+00 
          0.0000000000e+00 5.3846150000e+00 0.0000000000e+00 
          0.0000000000e+00 6.1538460000e+00 0.0000000000e+00 
          0.0000000000e+00 6.9230770000e+00 0.0000000000e+00 
          0.0000000000e+00 7.6923080000e+00 0.0000000000e+00 
          0.0000000000e+00 8.4615380000e+00 0.0000000000e+00 
          0.0000000000e+00 9.2307690000e+00 0.0000000000e+00 
          0.0000000000e+00 1.0000000000e+01 0.0000000000e+00 
          0.0000000000e+00 1.0769231000e+01 0.0000000000e+00 
          0.0000000000e+00 1.1538462000e+01 0.0000000000e+00 
          0.0000000000e+00 1.2307692000e+01 0.0000000000e+00 
          0.0000000000e+00 1.3076923000e+01 0.0000000000e+00 
          0.0000000000e+00 1.3846154000e+01 0.0000000000e+00 
          0.0000000000e+00 1.4615385000e+01 0.0000000000e+00 
          0.0000000000e+00 1.5384615000e+01 0.0000000000e+00 
          0.0000000000e+00 1.6153846000e+01 0.0000000000e+00 
          0.0000000000e+00 1.6923077000e+01 0.0000000000e+00 
          0.0000000000e+00 1.7692308000e+01 0.0000000000e+00 
          0.0000000000e+00 1.8461538000e+01 0.0000000000e+00 
          0.0000000000e+00 1.9230769000e+01 0.0000000000e+00 
          0.0000000000e+00 2.0000000000e+01 0.0000000000e+00 
          0.0000000000e+00 2.0769231000e+01 0.0000000000e+00 
          0.0000000000e+00 2.1538462000e+01 0.0000000000e+00 
          0.0000000000e+00 2.2307692000e+01 0.0000000000e+00 
          0.0000000000e+00 2.3076923000e+01 0.0000000000e+00 
          0.0000000000e+00 2.3846154000e+01 0.0000000000e+00 
          0.0000000000e+00 2.4615385000e+01 0.0000000000e+00 
          0.0000000000e+00 2.5384615000e+01 0.0000000000e+00 
          0.0000000000e+00 2.6153846000e+01 0.0000000000e+00 
          0.0000000000e+00 2.6923077000e+01 0.0000000000e+00 
          0.0000000000e+00 2.7692308000e+01 0.0000000000e+00 
          0.0000000000e+00 2.8461538000e+01 0.0000000000e+00 
          0.0000000000e+00 2.9230769000e+01 0.0000000000e+00 
        </DataArray>
      </Points>
      <Cells>
        <DataArray type="Int64" Name="connectivity" format="ascii">
          0
          1
          2
          3
          4
          5
          6
          7
          8
          9
          10
          11
          12
          13
          14
          15
          16
          17
          18
          19
          20
          21
          22
          23
          24
          25
          26
          27
          28
          29
          30
          31
          32
          33
          34
          35
          36
          37
          38
          39
          40
          41
          42
          43
          44
          45
          46
          47
          48
          49
          50
          51
          52
          53
          54
          55
          56
          57
          58
          59
          60
          61
          62
          63
          64
          65
          66
          67
          68
          69
          70
          71
          72
          73
          74
          75
          76
          77
          78
          79
          80
          81
        </DataArray>
        <DataArray type="Int64" Name="offsets" format="ascii">
          82
        </DataArray>
        <DataArray type="Int64" Name="types" format="ascii">
          2
        </DataArray>
      </Cells>
      <PointData>
        <DataArray type="Int64" Name="NodeTag" format="ascii">
          1
          2
          3
          4
          5
          6
          7
          8
          9
          10
          11
          12
          13
          14
          15
          16
          17
          18
          19
          20
          21
          22
          23
          24
          25
          26
          27
          28
          29
          30
          31
          32
          33
          34
          35
          36
          37
          38
          39
          40
          41
          42
          43
          44
          45
          46
          47
          48
          49
          50
          51
          52
          53
          54
          55
          56
          57
          58
          59
          60
          61
          62
          63
          64
          65
          66
          67
          68
          69
          70
          71
          72
          73
          74
          75
          76
          77
          78
          79
          80
          81
          82
        </DataArray>
        <DataArray type="Float64" Name="Velocity" NumberOfComponents="3" format="ascii">
          -3.4936935111e-05 -7.7843714896e-05 0.0000000000e+00 
          -3.4936935111e-05 -7.7843714896e-05 0.0000000000e+00 
          -2.8655259446e-04 -7.7914331115e-05 0.0000000000e+00 
          -2.8655259446e-04 -7.7914331115e-05 0.0000000000e+00 
          0.0000000000e+00 0.0000000000e+00 0.0000000000e+00 
          0.0000000000e+00 0.0000000000e+00 0.0000000000e+00 
          -4.5806405902e-05 -7.7818660331e-05 0.0000000000e+00 
          -5.6585695169e-05 -7.7882446347e-05 0.0000000000e+00 
          -6.7250400461e-05 -7.7808223463e-05 0.0000000000e+00 
          -7.7789411684e-05 -7.7856651337e-05 0.0000000000e+00 
          -8.8201282752e-05 -7.7869792576e-05 0.0000000000e+00 
          -9.8452327855e-05 -7.7777543711e-05 0.0000000000e+00 
          -1.0854544885e-04 -7.7926289715e-05 0.0000000000e+00 
          -1.1847003987e-04 -7.7781729484e-05 0.0000000000e+00 
          -1.2818981262e-04 -7.7867972457e-05 0.0000000000e+00 
          -1.3773149318e-04 -7.7843100768e-05 0.0000000000e+00 
          -1.4704623378e-04 -7.7846028929e-05 0.0000000000e+00 
          -1.5614328260e-04 -7.7835269466e-05 0.0000000000e+00 
          -1.6501371983e-04 -7.7841153427e-05 0.0000000000e+00 
          -1.7362522475e-04 -7.7878549435e-05 0.0000000000e+00 
          -1.8200160191e-04 -7.7777681637e-05 0.0000000000e+00 
          -1.9009685800e-04 -7.7923248420e-05 0.0000000000e+00 
          -1.9792672793e-04 -7.7778465124e-05 0.0000000000e+00 
          -2.0547623754e-04 -7.7879414838e-05 0.0000000000e+00 
          -2.1272549587e-04 -7.7840378631e-05 0.0000000000e+00 
          -2.1968260209e-04 -7.7825831480e-05 0.0000000000e+00 
          -2.2632921742e-04 -7.7871286392e-05 0.0000000000e+00 
          -2.3265617180e-04 -7.7823257849e-05 0.0000000000e+00 
          -2.3866845149e-04 -7.7849629250e-05 0.0000000000e+00 
          -2.4434287469e-04 -7.7853468493e-05 0.0000000000e+00 
          -2.4968498501e-04 -7.7832532471e-05 0.0000000000e+00 
          -2.5468751746e-04 -7.7847515451e-05 0.0000000000e+00 
          -2.5933485946e-04 -7.7848241715e-05 0.0000000000e+00 
          -2.6363683752e-04 -7.7838867910e-05 0.0000000000e+00 
          -2.6757769238e-04 -7.7852107634e-05 0.0000000000e+00 
          -2.7115510394e-04 -7.7831792786e-05 0.0000000000e+00 
          -2.7436935014e-04 -7.7854625904e-05 0.0000000000e+00 
          -2.7721206089e-04 -7.7845130308e-05 0.0000000000e+00 
          -2.7968349841e-04 -7.7829868146e-05 0.0000000000e+00 
          -2.8177716937e-04 -7.7866601233e-05 0.0000000000e+00 
          -2.8349476595e-04 -7.7824624258e-05 0.0000000000e+00 
          -2.8483326182e-04 -7.7842315056e-05 0.0000000000e+00 
          -2.8578827607e-04 -7.7879319318e-05 0.0000000000e+00 
          -2.8636502779e-04 -7.7782716266e-05 0.0000000000e+00 
          -4.5806405902e-05 -7.7818660331e-05 0.0000000000e+00 
          -5.6585695169e-05 -7.7882446347e-05 0.0000000000e+00 
          -6.7250400461e-05 -7.7808223463e-05 0.0000000000e+00 
          -7.7789411684e-05 -7.7856651337e-05 0.0000000000e+00 
          -8.8201282752e-05 -7.7869792576e-05 0.0000000000e+00 
          -9.8452327855e-05 -7.7777543711e-05 0.0000000000e+00 
          -1.0854544885e-04 -7.7926289715e-05 0.0000000000e+00 
          -1.1847003987e-04 -7.7781729484e-05 0.0000000000e+00 
          -1.2818981262e-04 -7.7867972457e-05 0.0000000000e+00 
          -1.3773149318e-04 -7.7843100768e-05 0.0000000000e+00 
          -1.4704623378e-04 -7.7846028929e-05 0.0000000000e+00 
          -1.5614328260e-04 -7.7835269466e-05 0.0000000000e+00 
          -1.6501371983e-04 -7.7841153427e-05 0.0000000000e+00 
          -1.7362522475e-04 -7.7878549435e-05 0.0000000000e+00 
          -1.8200160191e-04 -7.7777681637e-05 0.0000000000e+00 
          -1.9009685800e-04 -7.7923248420e-05 0.0000000000e+00 
          -1.9792672793e-04 -7.7778465124e-05 0.0000000000e+00 
          -2.0547623754e-04 -7.7879414838e-05 0.0000000000e+00 
          -2.1272549587e-04 -7.7840378631e-05 0.0000000000e+00 
          -2.1968260209e-04 -7.7825831480e-05 0.0000000000e+00 
          -2.2632921742e-04 -7.7871286392e-05 0.0000000000e+00 
          -2.3265617180e-04 -7.7823257849e-05 0.0000000000e+00 
          -2.3866845149e-04 -7.7849629250e-05 0.0000000000e+00 
          -2.4434287469e-04 -7.7853468493e-05 0.0000000000e+00 
          -2.4968498501e-04 -7.7832532471e-05 0.0000000000e+00 
          -2.5468751746e-04 -7.7847515451e-05 0.0000000000e+00 
          -2.5933485946e-04 -7.7848241715e-05 0.0000000000e+00 
          -2.6363683752e-04 -7.7838867910e-05 0.0000000000e+00 
          -2.6757769238e-04 -7.7852107634e-05 0.0000000000e+00 
          -2.7115510394e-04 -7.7831792786e-05 0.0000000000e+00 
          -2.7436935014e-04 -7.7854625904e-05 0.0000000000e+00 
          -2.7721206089e-04 -7.7845130308e-05 0.0000000000e+00 
          -2.7968349841e-04 -7.7829868146e-05 0.0000000000e+00 
          -2.8177716937e-04 -7.7866601233e-05 0.0000000000e+00 
          -2.8349476595e-04 -7.7824624258e-05 0.0000000000e+00 
          -2.8483326182e-04 -7.7842315056e-05 0.0000000000e+00 
          -2.8578827607e-04 -7.7879319318e-05 0.0000000000e+00 
          -2.8636502779e-04 -7.7782716266e-05 0.0000000000e+00 
        </DataArray>
        <DataArray type="Float64" Name="Displacement" NumberOfComponents="3" format="ascii">
          5.1454395781e-06 -5.4308723011e-04 0.0000000000e+00 
          5.1454395781e-06 -5.4308723011e-04 0.0000000000e+00 
          -1.0802780229e-05 -5.6666727131e-04 0.0000000000e+00 
          -1.0802780229e-05 -5.6666727131e-04 0.0000000000e+00 
          0.0000000000e+00 0.0000000000e+00 0.0000000000e+00 
          0.0000000000e+00 0.0000000000e+00 0.0000000000e+00 
          4.5616067977e-06 -5.4428095753e-04 0.0000000000e+00 
          3.9718461465e-06 -5.4544368933e-04 0.0000000000e+00 
          3.3775372161e-06 -5.4657540450e-04 0.0000000000e+00 
          2.7800331588e-06 -5.4767613205e-04 0.0000000000e+00 
          2.1807413243e-06 -5.4874581775e-04 0.0000000000e+00 
          1.5810035654e-06 -5.4978453838e-04 0.0000000000e+00 
          9.8220491114e-07 -5.5079223277e-04 0.0000000000e+00 
          3.8570371070e-07 -5.5176891402e-04 0.0000000000e+00 
          -2.0717908425e-07 -5.5271459963e-04 0.0000000000e+00 
          -7.9507617917e-07 -5.5362927938e-04 0.0000000000e+00 
          -1.3767078945e-06 -5.5451296382e-04 0.0000000000e+00 
          -1.9507665034e-06 -5.5536560366e-04 0.0000000000e+00 
          -2.5159776017e-06 -5.5618727429e-04 0.0000000000e+00 
          -3.0711242579e-06 -5.5697795702e-04 0.0000000000e+00 
          -3.6149543637e-06 -5.5773754332e-04 0.0000000000e+00 
          -4.1463163651e-06 -5.5846625489e-04 0.0000000000e+00 
          -4.6640392302e-06 -5.5916382974e-04 0.0000000000e+00 
          -5.1670113629e-06 -5.5983049335e-04 0.0000000000e+00 
          -5.6541638767e-06 -5.6046612444e-04 0.0000000000e+00 
          -6.1244300019e-06 -5.6107070079e-04 0.0000000000e+00 
          -6.5768395311e-06 -5.6164435879e-04 0.0000000000e+00 
          -7.0104123108e-06 -5.6218693991e-04 0.0000000000e+00 
          -7.4242428752e-06 -5.6269853831e-04 0.0000000000e+00 
          -7.8174679108e-06 -5.6317917107e-04 0.0000000000e+00 
          -8.1892464374e-06 -5.6362866790e-04 0.0000000000e+00 
          -8.5388294921e-06 -5.6404737916e-04 0.0000000000e+00 
          -8.8654689793e-06 -5.6443485362e-04 0.0000000000e+00 
          -9.1685021408e-06 -5.6479142483e-04 0.0000000000e+00 
          -9.4473043127e-06 -5.6511709956e-04 0.0000000000e+00 
          -9.7012900781e-06 -5.6541149006e-04 0.0000000000e+00 
          -9.9299581816e-06 -5.6567517562e-04 0.0000000000e+00 
          -1.0132824436e-05 -5.6590766050e-04 0.0000000000e+00 
          -1.0309487929e-05 -5.6610921146e-04 0.0000000000e+00 
          -1.0459577002e-05 -5.6627973725e-04 0.0000000000e+00 
          -1.0582798690e-05 -5.6641927943e-04 0.0000000000e+00 
          -1.0678897869e-05 -5.6652780025e-04 0.0000000000e+00 
          -1.0747673761e-05 -5.6660527209e-04 0.0000000000e+00 
          -1.0789002376e-05 -5.6665186197e-04 0.0000000000e+00 
          4.5616067977e-06 -5.4428095753e-04 0.0000000000e+00 
          3.9718461465e-06 -5.4544368933e-04 0.0000000000e+00 
          3.3775372161e-06 -5.4657540450e-04 0.0000000000e+00 
          2.7800331588e-06 -5.4767613205e-04 0.0000000000e+00 
          2.1807413243e-06 -5.4874581775e-04 0.0000000000e+00 
          1.5810035654e-06 -5.4978453838e-04 0.0000000000e+00 
          9.8220491114e-07 -5.5079223277e-04 0.0000000000e+00 
          3.8570371070e-07 -5.5176891402e-04 0.0000000000e+00 
          -2.0717908425e-07 -5.5271459963e-04 0.0000000000e+00 
          -7.9507617917e-07 -5.5362927938e-04 0.0000000000e+00 
          -1.3767078945e-06 -5.5451296382e-04 0.0000000000e+00 
          -1.9507665034e-06 -5.5536560366e-04 0.0000000000e+00 
          -2.5159776017e-06 -5.5618727429e-04 0.0000000000e+00 
          -3.0711242579e-06 -5.5697795702e-04 0.0000000000e+00 
          -3.6149543637e-06 -5.5773754332e-04 0.0000000000e+00 
          -4.1463163651e-06 -5.5846625489e-04 0.0000000000e+00 
          -4.6640392302e-06 -5.5916382974e-04 0.0000000000e+00 
          -5.1670113629e-06 -5.5983049335e-04 0.0000000000e+00 
          -5.6541638767e-06 -5.6046612444e-04 0.0000000000e+00 
          -6.1244300019e-06 -5.6107070079e-04 0.0000000000e+00 
          -6.5768395311e-06 -5.6164435879e-04 0.0000000000e+00 
          -7.0104123108e-06 -5.6218693991e-04 0.0000000000e+00 
          -7.4242428752e-06 -5.6269853831e-04 0.0000000000e+00 
          -7.8174679108e-06 -5.6317917107e-04 0.0000000000e+00 
          -8.1892464374e-06 -5.6362866790e-04 0.0000000000e+00 
          -8.5388294921e-06 -5.6404737916e-04 0.0000000000e+00 
          -8.8654689793e-06 -5.6443485362e-04 0.0000000000e+00 
          -9.1685021408e-06 -5.6479142483e-04 0.0000000000e+00 
          -9.4473043127e-06 -5.6511709956e-04 0.0000000000e+00 
          -9.7012900781e-06 -5.6541149006e-04 0.0000000000e+00 
          -9.9299581816e-06 -5.6567517562e-04 0.0000000000e+00 
          -1.0132824436e-05 -5.6590766050e-04 0.0000000000e+00 
          -1.0309487929e-05 -5.6610921146e-04 0.0000000000e+00 
          -1.0459577002e-05 -5.6627973725e-04 0.0000000000e+00 
          -1.0582798690e-05 -5.6641927943e-04 0.0000000000e+00 
          -1.0678897869e-05 -5.6652780025e-04 0.0000000000e+00 
          -1.0747673761e-05 -5.6660527209e-04 0.0000000000e+00 
          -1.0789002376e-05 -5.6665186197e-04 0.0000000000e+00 
        </DataArray>
        <DataArray type="Float64" Name="Acceleration" NumberOfComponents="3" format="ascii">
          -6.5699112739e-04 1.6207357154e-06 0.0000000000e+00 
          -6.5699112739e-04 1.6207357154e-06 0.0000000000e+00 
          2.4828236067e-03 -3.3816368656e-05 0.0000000000e+00 
          2.4828236067e-03 -3.3816368656e-05 0.0000000000e+00 
          0.0000000000e+00 0.0000000000e+00 0.0000000000e+00 
          0.0000000000e+00 0.0000000000e+00 0.0000000000e+00 
          -5.3411286342e-04 -1.9299281777e-06 0.0000000000e+00 
          -4.0987881960e-04 1.5927265987e-06 0.0000000000e+00 
          -2.8781781288e-04 -3.1049567470e-06 0.0000000000e+00 
          -1.6108226002e-04 6.4016124826e-06 0.0000000000e+00 
          -4.0178674199e-05 -7.4390085480e-06 0.0000000000e+00 
          8.4545107211e-05 3.3550590524e-06 0.0000000000e+00 
          2.0707539687e-04 1.4666406914e-06 0.0000000000e+00 
          3.2602548097e-04 -1.9283279710e-06 0.0000000000e+00 
          4.4922141784e-04 -8.5352782508e-08 0.0000000000e+00 
          5.6445531043e-04 -2.1907248094e-06 0.0000000000e+00 
          6.8242042612e-04 7.1040882740e-06 0.0000000000e+00 
          7.9717817121e-04 -6.6887162499e-06 0.0000000000e+00 
          9.0682610352e-04 -3.3228279984e-06 0.0000000000e+00 
          1.0196435426e-03 1.6236302006e-05 0.0000000000e+00 
          1.1233393252e-03 -2.3885822561e-05 0.0000000000e+00 
          1.2289761523e-03 2.3672719918e-05 0.0000000000e+00 
          1.3290701133e-03 -1.7138534800e-05 0.0000000000e+00 
          1.4253789151e-03 4.7187111603e-06 0.0000000000e+00 
          1.5214428583e-03 8.5843407402e-06 0.0000000000e+00 
          1.6089706891e-03 -1.5710462238e-05 0.0000000000e+00 
          1.6972283402e-03 1.2712374479e-05 0.0000000000e+00 
          1.7788125741e-03 -4.2565202544e-06 0.0000000000e+00 
          1.8565539912e-03 -7.4418303520e-06 0.0000000000e+00 
          1.9324201301e-03 2.3468322672e-05 0.0000000000e+00 
          1.9998558559e-03 -3.9781591366e-05 0.0000000000e+00 
          2.0672607380e-03 4.1529028509e-05 0.0000000000e+00 
          2.1269765561e-03 -1.8574873428e-05 0.0000000000e+00 
          2.1832287870e-03 -1.9870576407e-05 0.0000000000e+00 
          2.2360413372e-03 5.0157034121e-05 0.0000000000e+00 
          2.2811713435e-03 -5.4313414067e-05 0.0000000000e+00 
          2.3247975508e-03 3.5022211010e-05 0.0000000000e+00 
          2.3609013753e-03 -1.3091800689e-05 0.0000000000e+00 
          2.3944300183e-03 3.4414724350e-06 0.0000000000e+00 
          2.4208044525e-03 -4.0929361854e-06 0.0000000000e+00 
          2.4437915356e-03 2.7063771269e-06 0.0000000000e+00 
          2.4618757418e-03 7.6691613672e-06 0.0000000000e+00 
          2.4730635160e-03 -2.2391144752e-05 0.0000000000e+00 
          2.4823780090e-03 3.1392304402e-05 0.0000000000e+00 
          -5.3411286342e-04 -1.9299281777e-06 0.0000000000e+00 
          -4.0987881960e-04 1.5927265987e-06 0.0000000000e+00 
          -2.8781781288e-04 -3.1049567470e-06 0.0000000000e+00 
          -1.6108226002e-04 6.4016124826e-06 0.0000000000e+00 
          -4.0178674199e-05 -7.4390085480e-06 0.0000000000e+00 
          8.4545107211e-05 3.3550590524e-06 0.0000000000e+00 
          2.0707539687e-04 1.4666406914e-06 0.0000000000e+00 
          3.2602548097e-04 -1.9283279710e-06 0.0000000000e+00 
          4.4922141784e-04 -8.5352782508e-08 0.0000000000e+00 
          5.6445531043e-04 -2.1907248094e-06 0.0000000000e+00 
          6.8242042612e-04 7.1040882740e-06 0.0000000000e+00 
          7.9717817121e-04 -6.6887162499e-06 0.0000000000e+00 
          9.0682610352e-04 -3.3228279984e-06 0.0000000000e+00 
          1.0196435426e-03 1.6236302006e-05 0.0000000000e+00 
          1.1233393252e-03 -2.3885822561e-05 0.0000000000e+00 
          1.2289761523e-03 2.3672719918e-05 0.0000000000e+00 
          1.3290701133e-03 -1.7138534800e-05 0.0000000000e+00 
          1.4253789151e-03 4.7187111603e-06 0.0000000000e+00 
          1.5214428583e-03 8.5843407402e-06 0.0000000000e+00 
          1.6089706891e-03 -1.5710462238e-05 0.0000000000e+00 
          1.6972283402e-03 1.2712374479e-05 0.0000000000e+00 
          1.7788125741e-03 -4.2565202544e-06 0.0000000000e+00 
          1.8565539912e-03 -7.4418303520e-06 0.0000000000e+00 
          1.9324201301e-03 2.3468322672e-05 0.0000000000e+00 
          1.9998558559e-03 -3.9781591366e-05 0.0000000000e+00 
          2.0672607380e-03 4.1529028509e-05 0.0000000000e+00 
          2.1269765561e-03 -1.8574873428e-05 0.0000000000e+00 
          2.1832287870e-03 -1.9870576407e-05 0.0000000000e+00 
          2.2360413372e-03 5.0157034121e-05 0.0000000000e+00 
          2.2811713435e-03 -5.4313414067e-05 0.0000000000e+00 
          2.3247975508e-03 3.5022211010e-05 0.0000000000e+00 
          2.3609013753e-03 -1.3091800689e-05 0.0000000000e+00 
          2.3944300183e-03 3.4414724350e-06 0.0000000000e+00 
          2.4208044525e-03 -4.0929361854e-06 0.0000000000e+00 
          2.4437915356e-03 2.7063771269e-06 0.0000000000e+00 
          2.4618757418e-03 7.6691613672e-06 0.0000000000e+00 
          2.4730635160e-03 -2.2391144752e-05 0.0000000000e+00 
          2.4823780090e-03 3.1392304402e-05 0.0000000000e+00 
        </DataArray>
        <DataArray type="Float64" Name="Reaction" NumberOfComponents="3" format="ascii">
          0.0000000000e+00 0.0000000000e+00 0.0000000000e+00 
          0.0000000000e+00 0.0000000000e+00 0.0000000000e+00 
          0.0000000000e+00 0.0000000000e+00 0.0000000000e+00 
          0.0000000000e+00 0.0000000000e+00 0.0000000000e+00 
          0.0000000000e+00 0.0000000000e+00 0.0000000000e+00 
          0.0000000000e+00 0.0000000000e+00 0.0000000000e+00 
          0.0000000000e+00 0.0000000000e+00 0.0000000000e+00 
          0.0000000000e+00 0.0000000000e+00 0.0000000000e+00 
          0.0000000000e+00 0.0000000000e+00 0.0000000000e+00 
          0.0000000000e+00 0.0000000000e+00 0.0000000000e+00 
          0.0000000000e+00 0.0000000000e+00 0.0000000000e+00 
          0.0000000000e+00 0.0000000000e+00 0.0000000000e+00 
          0.0000000000e+00 0.0000000000e+00 0.0000000000e+00 
          0.0000000000e+00 0.0000000000e+00 0.0000000000e+00 
          0.0000000000e+00 0.0000000000e+00 0.0000000000e+00 
          0.0000000000e+00 0.0000000000e+00 0.0000000000e+00 
          0.0000000000e+00 0.0000000000e+00 0.0000000000e+00 
          0.0000000000e+00 0.0000000000e+00 0.0000000000e+00 
          0.0000000000e+00 0.0000000000e+00 0.0000000000e+00 
          0.0000000000e+00 0.0000000000e+00 0.0000000000e+00 
          0.0000000000e+00 0.0000000000e+00 0.0000000000e+00 
          0.0000000000e+00 0.0000000000e+00 0.0000000000e+00 
          0.0000000000e+00 0.0000000000e+00 0.0000000000e+00 
          0.0000000000e+00 0.0000000000e+00 0.0000000000e+00 
          0.0000000000e+00 0.0000000000e+00 0.0000000000e+00 
          0.0000000000e+00 0.0000000000e+00 0.0000000000e+00 
          0.0000000000e+00 0.0000000000e+00 0.0000000000e+00 
          0.0000000000e+00 0.0000000000e+00 0.0000000000e+00 
          0.0000000000e+00 0.0000000000e+00 0.0000000000e+00 
          0.0000000000e+00 0.0000000000e+00 0.0000000000e+00 
          0.0000000000e+00 0.0000000000e+00 0.0000000000e+00 
          0.0000000000e+00 0.0000000000e+00 0.0000000000e+00 
          0.0000000000e+00 0.0000000000e+00 0.0000000000e+00 
          0.0000000000e+00 0.0000000000e+00 0.0000000000e+00 
          0.0000000000e+00 0.0000000000e+00 0.0000000000e+00 
          0.0000000000e+00 0.0000000000e+00 0.0000000000e+00 
          0.0000000000e+00 0.0000000000e+00 0.0000000000e+00 
          0.0000000000e+00 0.0000000000e+00 0.0000000000e+00 
          0.0000000000e+00 0.0000000000e+00 0.0000000000e+00 
          0.0000000000e+00 0.0000000000e+00 0.0000000000e+00 
          0.0000000000e+00 0.0000000000e+00 0.0000000000e+00 
          0.0000000000e+00 0.0000000000e+00 0.0000000000e+00 
          0.0000000000e+00 0.0000000000e+00 0.0000000000e+00 
          0.0000000000e+00 0.0000000000e+00 0.0000000000e+00 
          0.0000000000e+00 0.0000000000e+00 0.0000000000e+00 
          0.0000000000e+00 0.0000000000e+00 0.0000000000e+00 
          0.0000000000e+00 0.0000000000e+00 0.0000000000e+00 
          0.0000000000e+00 0.0000000000e+00 0.0000000000e+00 
          0.0000000000e+00 0.0000000000e+00 0.0000000000e+00 
          0.0000000000e+00 0.0000000000e+00 0.0000000000e+00 
          0.0000000000e+00 0.0000000000e+00 0.0000000000e+00 
          0.0000000000e+00 0.0000000000e+00 0.0000000000e+00 
          0.0000000000e+00 0.0000000000e+00 0.0000000000e+00 
          0.0000000000e+00 0.0000000000e+00 0.0000000000e+00 
          0.0000000000e+00 0.0000000000e+00 0.0000000000e+00 
          0.0000000000e+00 0.0000000000e+00 0.0000000000e+00 
          0.0000000000e+00 0.0000000000e+00 0.0000000000e+00 
          0.0000000000e+00 0.0000000000e+00 0.0000000000e+00 
          0.0000000000e+00 0.0000000000e+00 0.0000000000e+00 
          0.0000000000e+00 0.0000000000e+00 0.0000000000e+00 
          0.0000000000e+00 0.0000000000e+00 0.0000000000e+00 
          0.0000000000e+00 0.0000000000e+00 0.0000000000e+00 
          0.0000000000e+00 0.0000000000e+00 0.0000000000e+00 
          0.0000000000e+00 0.0000000000e+00 0.0000000000e+00 
          0.0000000000e+00 0.0000000000e+00 0.0000000000e+00 
          0.0000000000e+00 0.0000000000e+00 0.0000000000e+00 
          0.0000000000e+00 0.0000000000e+00 0.0000000000e+00 
          0.0000000000e+00 0.0000000000e+00 0.0000000000e+00 
          0.0000000000e+00 0.0000000000e+00 0.0000000000e+00 
          0.0000000000e+00 0.0000000000e+00 0.0000000000e+00 
          0.0000000000e+00 0.0000000000e+00 0.0000000000e+00 
          0.0000000000e+00 0.0000000000e+00 0.0000000000e+00 
          0.0000000000e+00 0.0000000000e+00 0.0000000000e+00 
          0.0000000000e+00 0.0000000000e+00 0.0000000000e+00 
          0.0000000000e+00 0.0000000000e+00 0.0000000000e+00 
          0.0000000000e+00 0.0000000000e+00 0.0000000000e+00 
          0.0000000000e+00 0.0000000000e+00 0.0000000000e+00 
          0.0000000000e+00 0.0000000000e+00 0.0000000000e+00 
          0.0000000000e+00 0.0000000000e+00 0.0000000000e+00 
          0.0000000000e+00 0.0000000000e+00 0.0000000000e+00 
          0.0000000000e+00 0.0000000000e+00 0.0000000000e+00 
          0.0000000000e+00 0.0000000000e+00 0.0000000000e+00 
        </DataArray>
      </PointData>
      <CellData>
        <DataArray type="Int64" Name="ElementTag" format="ascii">
          0
        </DataArray>
      </CellData>
    </Piece>
  </UnstructuredGrid>
</VTKFile>
