<?xml version="1.0"?>
<VTKFile type="UnstructuredGrid" version="1.0" byte_order="LittleEndian" compressor="vtkZLibDataCompressor">
  <UnstructuredGrid>
    <Piece NumberOfPoints="82" NumberOfCells="1">
      <Points>
        <DataArray type="Float64" Name="Points" NumberOfComponents="3" format="ascii">
          0.0000000000e+00 0.0000000000e+00 0.0000000000e+00 
          2.5000000000e-01 0.0000000000e+00 0.0000000000e+00 
          2.5000000000e-01 3.0000000000e+01 0.0000000000e+00 
          0.0000000000e+00 3.0000000000e+01 0.0000000000e+00 
          0.0000000000e+00 -5.0000000000e+00 0.0000000000e+00 
          2.5000000000e-01 -5.0000000000e+00 0.0000000000e+00 
          2.5000000000e-01 7.6923100000e-01 0.0000000000e+00 
          2.5000000000e-01 1.5384620000e+00 0.0000000000e+00 
          2.5000000000e-01 2.3076920000e+00 0.0000000000e+00 
          2.5000000000e-01 3.0769230000e+00 0.0000000000e+00 
          2.5000000000e-01 3.8461540000e+00 0.0000000000e+00 
          2.5000000000e-01 4.6153850000e+00 0.0000000000e+00 
          2.5000000000e-01 5.3846150000e+00 0.0000000000e+00 
          2.5000000000e-01 6.1538460000e+00 0.0000000000e+00 
          2.5000000000e-01 6.9230770000e+00 0.0000000000e+00 
          2.5000000000e-01 7.6923080000e+00 0.0000000000e+00 
          2.5000000000e-01 8.4615380000e+00 0.0000000000e+00 
          2.5000000000e-01 9.2307690000e+00 0.0000000000e+00 
          2.5000000000e-01 1.0000000000e+01 0.0000000000e+00 
          2.5000000000e-01 1.0769231000e+01 0.0000000000e+00 
          2.5000000000e-01 1.1538462000e+01 0.0000000000e+00 
          2.5000000000e-01 1.2307692000e+01 0.0000000000e+00 
          2.5000000000e-01 1.3076923000e+01 0.0000000000e+00 
          2.5000000000e-01 1.3846154000e+01 0.0000000000e+00 
          2.5000000000e-01 1.4615385000e+01 0.0000000000e+00 
          2.5000000000e-01 1.5384615000e+01 0.0000000000e+00 
          2.5000000000e-01 1.6153846000e+01 0.0000000000e+00 
          2.5000000000e-01 1.6923077000e+01 0.0000000000e+00 
          2.5000000000e-01 1.7692308000e+01 0.0000000000e+00 
          2.5000000000e-01 1.8461538000e+01 0.0000000000e+00 
          2.5000000000e-01 1.9230769000e+01 0.0000000000e+00 
          2.5000000000e-01 2.0000000000e+01 0.0000000000e+00 
          2.5000000000e-01 2.0769231000e+01 0.0000000000e+00 
          2.5000000000e-01 2.1538462000e+01 0.0000000000e+00 
          2.5000000000e-01 2.2307692000e+01 0.0000000000e+00 
          2.5000000000e-01 2.3076923000e+01 0.0000000000e+00 
          2.5000000000e-01 2.3846154000e+01 0.0000000000e+00 
          2.5000000000e-01 2.4615385000e+01 0.0000000000e+00 
          2.5000000000e-01 2.5384615000e+01 0.0000000000e+00 
          2.5000000000e-01 2.6153846000e+01 0.0000000000e+00 
          2.5000000000e-01 2.6923077000e+01 0.0000000000e+00 
          2.5000000000e-01 2.7692308000e+01 0.0000000000e+00 
          2.5000000000e-01 2.8461538000e+01 0.0000000000e+00 
          2.5000000000e-01 2.9230769000e+01 0.0000000000e+00 
          0.0000000000e+00 7.6923100000e-01 0.0000000000e+00 
          0.0000000000e+00 1.5384620000e+00 0.0000000000e+00 
          0.0000000000e+00 2.3076920000e+00 0.0000000000e+00 
          0.0000000000e+00 3.0769230000e+00 0.0000000000e+00 
          0.0000000000e+00 3.8461540000e+00 0.0000000000e+00 
          0.0000000000e+00 4.6153850000e+00 0.0000000000e+00 
          0.0000000000e+00 5.3846150000e+00 0.0000000000e+00 
          0.0000000000e+00 6.1538460000e+00 0.0000000000e+00 
          0.0000000000e+00 6.9230770000e+00 0.0000000000e+00 
          0.0000000000e+00 7.6923080000e+00 0.0000000000e+00 
          0.0000000000e+00 8.4615380000e+00 0.0000000000e+00 
          0.0000000000e+00 9.2307690000e+00 0.0000000000e+00 
          0.0000000000e+00 1.0000000000e+01 0.0000000000e+00 
          0.0000000000e+00 1.0769231000e+01 0.0000000000e+00 
          0.0000000000e+00 1.1538462000e+01 0.0000000000e+00 
          0.0000000000e+00 1.2307692000e+01 0.0000000000e+00 
          0.0000000000e+00 1.3076923000e+01 0.0000000000e+00 
          0.0000000000e+00 1.3846154000e+01 0.0000000000e+00 
          0.0000000000e+00 1.4615385000e+01 0.0000000000e+00 
          0.0000000000e+00 1.5384615000e+01 0.0000000000e+00 
          0.0000000000e+00 1.6153846000e+01 0.0000000000e+00 
          0.0000000000e+00 1.6923077000e+01 0.0000000000e+00 
          0.0000000000e+00 1.7692308000e+01 0.0000000000e+00 
          0.0000000000e+00 1.8461538000e+01 0.0000000000e+00 
          0.0000000000e+00 1.9230769000e+01 0.0000000000e+00 
          0.0000000000e+00 2.0000000000e+01 0.0000000000e+00 
          0.0000000000e+00 2.0769231000e+01 0.0000000000e+00 
          0.0000000000e+00 2.1538462000e+01 0.0000000000e+00 
          0.0000000000e+00 2.2307692000e+01 0.0000000000e+00 
          0.0000000000e+00 2.3076923000e+01 0.0000000000e+00 
          0.0000000000e+00 2.3846154000e+01 0.0000000000e+00 
          0.0000000000e+00 2.4615385000e+01 0.0000000000e+00 
          0.0000000000e+00 2.5384615000e+01 0.0000000000e+00 
          0.0000000000e+00 2.6153846000e+01 0.0000000000e+00 
          0.0000000000e+00 2.6923077000e+01 0.0000000000e+00 
          0.0000000000e+00 2.7692308000e+01 0.0000000000e+00 
          0.0000000000e+00 2.8461538000e+01 0.0000000000e+00 
          0.0000000000e+00 2.9230769000e+01 0.0000000000e+00 
        </DataArray>
      </Points>
      <Cells>
        <DataArray type="Int64" Name="connectivity" format="ascii">
          0
          1
          2
          3
          4
          5
          6
          7
          8
          9
          10
          11
          12
          13
          14
          15
          16
          17
          18
          19
          20
          21
          22
          23
          24
          25
          26
          27
          28
          29
          30
          31
          32
          33
          34
          35
          36
          37
          38
          39
          40
          41
          42
          43
          44
          45
          46
          47
          48
          49
          50
          51
          52
          53
          54
          55
          56
          57
          58
          59
          60
          61
          62
          63
          64
          65
          66
          67
          68
          69
          70
          71
          72
          73
          74
          75
          76
          77
          78
          79
          80
          81
        </DataArray>
        <DataArray type="Int64" Name="offsets" format="ascii">
          82
        </DataArray>
        <DataArray type="Int64" Name="types" format="ascii">
          2
        </DataArray>
      </Cells>
      <PointData>
        <DataArray type="Int64" Name="NodeTag" format="ascii">
          1
          2
          3
          4
          5
          6
          7
          8
          9
          10
          11
          12
          13
          14
          15
          16
          17
          18
          19
          20
          21
          22
          23
          24
          25
          26
          27
          28
          29
          30
          31
          32
          33
          34
          35
          36
          37
          38
          39
          40
          41
          42
          43
          44
          45
          46
          47
          48
          49
          50
          51
          52
          53
          54
          55
          56
          57
          58
          59
          60
          61
          62
          63
          64
          65
          66
          67
          68
          69
          70
          71
          72
          73
          74
          75
          76
          77
          78
          79
          80
          81
          82
        </DataArray>
        <DataArray type="Float64" Name="Velocity" NumberOfComponents="3" format="ascii">
          1.1861333182e-02 -7.7689927882e-05 0.0000000000e+00 
          1.1861333182e-02 -7.7689927882e-05 0.0000000000e+00 
          5.2252529946e-03 -7.7764842720e-05 0.0000000000e+00 
          5.2252529946e-03 -7.7764842720e-05 0.0000000000e+00 
          0.0000000000e+00 0.0000000000e+00 0.0000000000e+00 
          0.0000000000e+00 0.0000000000e+00 0.0000000000e+00 
          1.1747875433e-02 -7.7724155204e-05 0.0000000000e+00 
          1.1616556817e-02 -7.7703437500e-05 0.0000000000e+00 
          1.1468692249e-02 -7.7749167884e-05 0.0000000000e+00 
          1.1305609885e-02 -7.7713766267e-05 0.0000000000e+00 
          1.1128609168e-02 -7.7802584920e-05 0.0000000000e+00 
          1.0939018095e-02 -7.7759641936e-05 0.0000000000e+00 
          1.0738183192e-02 -7.7809804533e-05 0.0000000000e+00 
          1.0527431929e-02 -7.7800516066e-05 0.0000000000e+00 
          1.0308087654e-02 -7.7838680396e-05 0.0000000000e+00 
          1.0081485086e-02 -7.7957532251e-05 0.0000000000e+00 
          9.8488939256e-03 -7.7662989004e-05 0.0000000000e+00 
          9.6116340150e-03 -7.7928355281e-05 0.0000000000e+00 
          9.3709693285e-03 -7.7993104346e-05 0.0000000000e+00 
          9.1281095122e-03 -7.7726660896e-05 0.0000000000e+00 
          8.8843131063e-03 -7.8012873856e-05 0.0000000000e+00 
          8.6407327166e-03 -7.7875384124e-05 0.0000000000e+00 
          8.3985510110e-03 -7.7778332874e-05 0.0000000000e+00 
          8.1588841789e-03 -7.7953446169e-05 0.0000000000e+00 
          7.9227950212e-03 -7.7858905823e-05 0.0000000000e+00 
          7.6913501052e-03 -7.7905199211e-05 0.0000000000e+00 
          7.4655379158e-03 -7.7800045787e-05 0.0000000000e+00 
          7.2463294508e-03 -7.7899798649e-05 0.0000000000e+00 
          7.0346292786e-03 -7.7867882956e-05 0.0000000000e+00 
          6.8313103316e-03 -7.7837450229e-05 0.0000000000e+00 
          6.6371906596e-03 -7.7777636410e-05 0.0000000000e+00 
          6.4530498248e-03 -7.7821086048e-05 0.0000000000e+00 
          6.2796193615e-03 -7.7891037662e-05 0.0000000000e+00 
          6.1175514664e-03 -7.7882338337e-05 0.0000000000e+00 
          5.9674759951e-03 -7.7878395633e-05 0.0000000000e+00 
          5.8299645296e-03 -7.7843061298e-05 0.0000000000e+00 
          5.7055399666e-03 -7.7947091262e-05 0.0000000000e+00 
          5.5946581480e-03 -7.7839312645e-05 0.0000000000e+00 
          5.4977156398e-03 -7.7901240550e-05 0.0000000000e+00 
          5.4150923095e-03 -7.7845547662e-05 0.0000000000e+00 
          5.3470828217e-03 -7.7912018492e-05 0.0000000000e+00 
          5.2939310921e-03 -7.7814742677e-05 0.0000000000e+00 
          5.2558218967e-03 -7.7831950974e-05 0.0000000000e+00 
          5.2328954327e-03 -7.7936066703e-05 0.0000000000e+00 
          1.1747875433e-02 -7.7724155204e-05 0.0000000000e+00 
          1.1616556817e-02 -7.7703437500e-05 0.0000000000e+00 
          1.1468692249e-02 -7.7749167884e-05 0.0000000000e+00 
          1.1305609885e-02 -7.7713766267e-05 0.0000000000e+00 
          1.1128609168e-02 -7.7802584920e-05 0.0000000000e+00 
          1.0939018095e-02 -7.7759641936e-05 0.0000000000e+00 
          1.0738183192e-02 -7.7809804533e-05 0.0000000000e+00 
          1.0527431929e-02 -7.7800516066e-05 0.0000000000e+00 
          1.0308087654e-02 -7.7838680396e-05 0.0000000000e+00 
          1.0081485086e-02 -7.7957532251e-05 0.0000000000e+00 
          9.8488939256e-03 -7.7662989004e-05 0.0000000000e+00 
          9.6116340150e-03 -7.7928355281e-05 0.0000000000e+00 
          9.3709693285e-03 -7.7993104346e-05 0.0000000000e+00 
          9.1281095122e-03 -7.7726660896e-05 0.0000000000e+00 
          8.8843131063e-03 -7.8012873856e-05 0.0000000000e+00 
          8.6407327166e-03 -7.7875384124e-05 0.0000000000e+00 
          8.3985510110e-03 -7.7778332874e-05 0.0000000000e+00 
          8.1588841789e-03 -7.7953446169e-05 0.0000000000e+00 
          7.9227950212e-03 -7.7858905823e-05 0.0000000000e+00 
          7.6913501052e-03 -7.7905199211e-05 0.0000000000e+00 
          7.4655379158e-03 -7.7800045787e-05 0.0000000000e+00 
          7.2463294508e-03 -7.7899798649e-05 0.0000000000e+00 
          7.0346292786e-03 -7.7867882956e-05 0.0000000000e+00 
          6.8313103316e-03 -7.7837450229e-05 0.0000000000e+00 
          6.6371906596e-03 -7.7777636410e-05 0.0000000000e+00 
          6.4530498248e-03 -7.7821086048e-05 0.0000000000e+00 
          6.2796193615e-03 -7.7891037662e-05 0.0000000000e+00 
          6.1175514664e-03 -7.7882338337e-05 0.0000000000e+00 
          5.9674759951e-03 -7.7878395633e-05 0.0000000000e+00 
          5.8299645296e-03 -7.7843061298e-05 0.0000000000e+00 
          5.7055399666e-03 -7.7947091262e-05 0.0000000000e+00 
          5.5946581480e-03 -7.7839312645e-05 0.0000000000e+00 
          5.4977156398e-03 -7.7901240550e-05 0.0000000000e+00 
          5.4150923095e-03 -7.7845547662e-05 0.0000000000e+00 
          5.3470828217e-03 -7.7912018492e-05 0.0000000000e+00 
          5.2939310921e-03 -7.7814742677e-05 0.0000000000e+00 
          5.2558218967e-03 -7.7831950974e-05 0.0000000000e+00 
          5.2328954327e-03 -7.7936066703e-05 0.0000000000e+00 
        </DataArray>
        <DataArray type="Float64" Name="Displacement" NumberOfComponents="3" format="ascii">
          -2.1069788950e-04 -2.8620052415e-04 0.0000000000e+00 
          -2.1069788950e-04 -2.8620052415e-04 0.0000000000e+00 
          4.6684372015e-03 -3.0972960404e-04 0.0000000000e+00 
          4.6684372015e-03 -3.0972960404e-04 0.0000000000e+00 
          0.0000000000e+00 0.0000000000e+00 0.0000000000e+00 
          0.0000000000e+00 0.0000000000e+00 0.0000000000e+00 
          -1.3755088122e-05 -2.8739187360e-04 0.0000000000e+00 
          1.8280123841e-04 -2.8855215656e-04 0.0000000000e+00 
          3.7865503993e-04 -2.8968145636e-04 0.0000000000e+00 
          5.7349268539e-04 -2.9077981525e-04 0.0000000000e+00 
          7.6700193949e-04 -2.9184722723e-04 0.0000000000e+00 
          9.5887328039e-04 -2.9288346558e-04 0.0000000000e+00 
          1.1487998766e-03 -2.9388903240e-04 0.0000000000e+00 
          1.3364789741e-03 -2.9486353043e-04 0.0000000000e+00 
          1.5216107884e-03 -2.9580733092e-04 0.0000000000e+00 
          1.7038999496e-03 -2.9671999929e-04 0.0000000000e+00 
          1.8830553862e-03 -2.9760176346e-04 0.0000000000e+00 
          2.0587916987e-03 -2.9845265441e-04 0.0000000000e+00 
          2.2308281369e-03 -2.9927258489e-04 0.0000000000e+00 
          2.3988899375e-03 -3.0006158179e-04 0.0000000000e+00 
          2.5627085201e-03 -3.0081959610e-04 0.0000000000e+00 
          2.7220216380e-03 -3.0154680862e-04 0.0000000000e+00 
          2.8765746771e-03 -3.0224280541e-04 0.0000000000e+00 
          3.0261196841e-03 -3.0290806462e-04 0.0000000000e+00 
          3.1704166588e-03 -3.0354224060e-04 0.0000000000e+00 
          3.3092336857e-03 -3.0414560328e-04 0.0000000000e+00 
          3.4423476933e-03 -3.0471796815e-04 0.0000000000e+00 
          3.5695440593e-03 -3.0525929781e-04 0.0000000000e+00 
          3.6906176293e-03 -3.0576982906e-04 0.0000000000e+00 
          3.8053725524e-03 -3.0624931560e-04 0.0000000000e+00 
          3.9136235468e-03 -3.0669791678e-04 0.0000000000e+00 
          4.0151950065e-03 -3.0711554982e-04 0.0000000000e+00 
          4.1099220399e-03 -3.0750222311e-04 0.0000000000e+00 
          4.1976508657e-03 -3.0785796092e-04 0.0000000000e+00 
          4.2782385597e-03 -3.0818271445e-04 0.0000000000e+00 
          4.3515540957e-03 -3.0847666855e-04 0.0000000000e+00 
          4.4174777606e-03 -3.0873961785e-04 0.0000000000e+00 
          4.4759018702e-03 -3.0897172243e-04 0.0000000000e+00 
          4.5267309815e-03 -3.0917284304e-04 0.0000000000e+00 
          4.5698819805e-03 -3.0934296472e-04 0.0000000000e+00 
          4.6052841881e-03 -3.0948232347e-04 0.0000000000e+00 
          4.6328796152e-03 -3.0959038681e-04 0.0000000000e+00 
          4.6526230001e-03 -3.0966804902e-04 0.0000000000e+00 
          4.6644820318e-03 -3.0971448073e-04 0.0000000000e+00 
          -1.3755088122e-05 -2.8739187360e-04 0.0000000000e+00 
          1.8280123841e-04 -2.8855215656e-04 0.0000000000e+00 
          3.7865503993e-04 -2.8968145636e-04 0.0000000000e+00 
          5.7349268539e-04 -2.9077981525e-04 0.0000000000e+00 
          7.6700193949e-04 -2.9184722723e-04 0.0000000000e+00 
          9.5887328039e-04 -2.9288346558e-04 0.0000000000e+00 
          1.1487998766e-03 -2.9388903240e-04 0.0000000000e+00 
          1.3364789741e-03 -2.9486353043e-04 0.0000000000e+00 
          1.5216107884e-03 -2.9580733092e-04 0.0000000000e+00 
          1.7038999496e-03 -2.9671999929e-04 0.0000000000e+00 
          1.8830553862e-03 -2.9760176346e-04 0.0000000000e+00 
          2.0587916987e-03 -2.9845265441e-04 0.0000000000e+00 
          2.2308281369e-03 -2.9927258489e-04 0.0000000000e+00 
          2.3988899375e-03 -3.0006158179e-04 0.0000000000e+00 
          2.5627085201e-03 -3.0081959610e-04 0.0000000000e+00 
          2.7220216380e-03 -3.0154680862e-04 0.0000000000e+00 
          2.8765746771e-03 -3.0224280541e-04 0.0000000000e+00 
          3.0261196841e-03 -3.0290806462e-04 0.0000000000e+00 
          3.1704166588e-03 -3.0354224060e-04 0.0000000000e+00 
          3.3092336857e-03 -3.0414560328e-04 0.0000000000e+00 
          3.4423476933e-03 -3.0471796815e-04 0.0000000000e+00 
          3.5695440593e-03 -3.0525929781e-04 0.0000000000e+00 
          3.6906176293e-03 -3.0576982906e-04 0.0000000000e+00 
          3.8053725524e-03 -3.0624931560e-04 0.0000000000e+00 
          3.9136235468e-03 -3.0669791678e-04 0.0000000000e+00 
          4.0151950065e-03 -3.0711554982e-04 0.0000000000e+00 
          4.1099220399e-03 -3.0750222311e-04 0.0000000000e+00 
          4.1976508657e-03 -3.0785796092e-04 0.0000000000e+00 
          4.2782385597e-03 -3.0818271445e-04 0.0000000000e+00 
          4.3515540957e-03 -3.0847666855e-04 0.0000000000e+00 
          4.4174777606e-03 -3.0873961785e-04 0.0000000000e+00 
          4.4759018702e-03 -3.0897172243e-04 0.0000000000e+00 
          4.5267309815e-03 -3.0917284304e-04 0.0000000000e+00 
          4.5698819805e-03 -3.0934296472e-04 0.0000000000e+00 
          4.6052841881e-03 -3.0948232347e-04 0.0000000000e+00 
          4.6328796152e-03 -3.0959038681e-04 0.0000000000e+00 
          4.6526230001e-03 -3.0966804902e-04 0.0000000000e+00 
          4.6644820318e-03 -3.0971448073e-04 0.0000000000e+00 
        </DataArray>
        <DataArray type="Float64" Name="Acceleration" NumberOfComponents="3" format="ascii">
          -6.2565007941e-03 -2.3342664508e-06 0.0000000000e+00 
          -6.2565007941e-03 -2.3342664508e-06 0.0000000000e+00 
          -7.1273721152e-01 -1.3690354025e-04 0.0000000000e+00 
          -7.1273721152e-01 -1.3690354025e-04 0.0000000000e+00 
          0.0000000000e+00 0.0000000000e+00 0.0000000000e+00 
          0.0000000000e+00 0.0000000000e+00 0.0000000000e+00 
          -3.4822146202e-02 1.0840185068e-05 0.0000000000e+00 
          -6.3275991464e-02 -4.4382503686e-06 0.0000000000e+00 
          -9.1580668287e-02 -1.1522246314e-05 0.0000000000e+00 
          -1.1969068526e-01 -1.0708080653e-05 0.0000000000e+00 
          -1.4757921307e-01 3.0145509938e-05 0.0000000000e+00 
          -1.7520320911e-01 -6.0564765005e-05 0.0000000000e+00 
          -2.0252644427e-01 1.1492722237e-05 0.0000000000e+00 
          -2.2951525040e-01 -5.5644561536e-05 0.0000000000e+00 
          -2.5612865113e-01 2.2664314020e-05 0.0000000000e+00 
          -2.8233398217e-01 -1.8606275381e-05 0.0000000000e+00 
          -3.0809101517e-01 -2.3778876873e-05 0.0000000000e+00 
          -3.3336598298e-01 -8.2664232371e-06 0.0000000000e+00 
          -3.5812269652e-01 -1.3109561604e-05 0.0000000000e+00 
          -3.8232232075e-01 -4.2813521806e-06 0.0000000000e+00 
          -4.0593286174e-01 -3.7025211365e-05 0.0000000000e+00 
          -4.2891145228e-01 3.7907284441e-05 0.0000000000e+00 
          -4.5123358034e-01 -4.8430554371e-05 0.0000000000e+00 
          -4.7285807201e-01 1.3855748631e-05 0.0000000000e+00 
          -4.9373818160e-01 -3.4925152799e-05 0.0000000000e+00 
          -5.1386989030e-01 -1.3898912137e-06 0.0000000000e+00 
          -5.3319119856e-01 5.2033549514e-06 0.0000000000e+00 
          -5.5167600376e-01 -3.7470490649e-05 0.0000000000e+00 
          -5.6930950254e-01 6.8071987195e-06 0.0000000000e+00 
          -5.8603064264e-01 -2.1684316453e-05 0.0000000000e+00 
          -6.0183926513e-01 -6.8840972902e-06 0.0000000000e+00 
          -6.1669631669e-01 -8.3952159229e-06 0.0000000000e+00 
          -6.3055234125e-01 -1.2769299968e-05 0.0000000000e+00 
          -6.4342104169e-01 -4.0454912872e-06 0.0000000000e+00 
          -6.5524567465e-01 -3.7206425409e-05 0.0000000000e+00 
          -6.6602217945e-01 -2.7755935755e-07 0.0000000000e+00 
          -6.7572474163e-01 -2.9123720970e-05 0.0000000000e+00 
          -6.8431883960e-01 -4.0736060394e-06 0.0000000000e+00 
          -6.9181947769e-01 -1.2841486432e-06 0.0000000000e+00 
          -6.9818141048e-01 -4.3863219355e-05 0.0000000000e+00 
          -7.0340634177e-01 5.2091564701e-05 0.0000000000e+00 
          -7.0748265546e-01 -1.0907416910e-04 0.0000000000e+00 
          -7.1039857756e-01 4.0416831363e-05 0.0000000000e+00 
          -7.1215356155e-01 5.4432262935e-05 0.0000000000e+00 
          -3.4822146202e-02 1.0840185068e-05 0.0000000000e+00 
          -6.3275991464e-02 -4.4382503686e-06 0.0000000000e+00 
          -9.1580668287e-02 -1.1522246314e-05 0.0000000000e+00 
          -1.1969068526e-01 -1.0708080653e-05 0.0000000000e+00 
          -1.4757921307e-01 3.0145509938e-05 0.0000000000e+00 
          -1.7520320911e-01 -6.0564765005e-05 0.0000000000e+00 
          -2.0252644427e-01 1.1492722237e-05 0.0000000000e+00 
          -2.2951525040e-01 -5.5644561536e-05 0.0000000000e+00 
          -2.5612865113e-01 2.2664314020e-05 0.0000000000e+00 
          -2.8233398217e-01 -1.8606275381e-05 0.0000000000e+00 
          -3.0809101517e-01 -2.3778876873e-05 0.0000000000e+00 
          -3.3336598298e-01 -8.2664232371e-06 0.0000000000e+00 
          -3.5812269652e-01 -1.3109561604e-05 0.0000000000e+00 
          -3.8232232075e-01 -4.2813521806e-06 0.0000000000e+00 
          -4.0593286174e-01 -3.7025211365e-05 0.0000000000e+00 
          -4.2891145228e-01 3.7907284441e-05 0.0000000000e+00 
          -4.5123358034e-01 -4.8430554371e-05 0.0000000000e+00 
          -4.7285807201e-01 1.3855748631e-05 0.0000000000e+00 
          -4.9373818160e-01 -3.4925152799e-05 0.0000000000e+00 
          -5.1386989030e-01 -1.3898912137e-06 0.0000000000e+00 
          -5.3319119856e-01 5.2033549514e-06 0.0000000000e+00 
          -5.5167600376e-01 -3.7470490649e-05 0.0000000000e+00 
          -5.6930950254e-01 6.8071987195e-06 0.0000000000e+00 
          -5.8603064264e-01 -2.1684316453e-05 0.0000000000e+00 
          -6.0183926513e-01 -6.8840972902e-06 0.0000000000e+00 
          -6.1669631669e-01 -8.3952159229e-06 0.0000000000e+00 
          -6.3055234125e-01 -1.2769299968e-05 0.0000000000e+00 
          -6.4342104169e-01 -4.0454912872e-06 0.0000000000e+00 
          -6.5524567465e-01 -3.7206425409e-05 0.0000000000e+00 
          -6.6602217945e-01 -2.7755935755e-07 0.0000000000e+00 
          -6.7572474163e-01 -2.9123720970e-05 0.0000000000e+00 
          -6.8431883960e-01 -4.0736060394e-06 0.0000000000e+00 
          -6.9181947769e-01 -1.2841486432e-06 0.0000000000e+00 
          -6.9818141048e-01 -4.3863219355e-05 0.0000000000e+00 
          -7.0340634177e-01 5.2091564701e-05 0.0000000000e+00 
          -7.0748265546e-01 -1.0907416910e-04 0.0000000000e+00 
          -7.1039857756e-01 4.0416831363e-05 0.0000000000e+00 
          -7.1215356155e-01 5.4432262935e-05 0.0000000000e+00 
        </DataArray>
        <DataArray type="Float64" Name="Reaction" NumberOfComponents="3" format="ascii">
          0.0000000000e+00 0.0000000000e+00 0.0000000000e+00 
          0.0000000000e+00 0.0000000000e+00 0.0000000000e+00 
          0.0000000000e+00 0.0000000000e+00 0.0000000000e+00 
          0.0000000000e+00 0.0000000000e+00 0.0000000000e+00 
          0.0000000000e+00 0.0000000000e+00 0.0000000000e+00 
          0.0000000000e+00 0.0000000000e+00 0.0000000000e+00 
          0.0000000000e+00 0.0000000000e+00 0.0000000000e+00 
          0.0000000000e+00 0.0000000000e+00 0.0000000000e+00 
          0.0000000000e+00 0.0000000000e+00 0.0000000000e+00 
          0.0000000000e+00 0.0000000000e+00 0.0000000000e+00 
          0.0000000000e+00 0.0000000000e+00 0.0000000000e+00 
          0.0000000000e+00 0.0000000000e+00 0.0000000000e+00 
          0.0000000000e+00 0.0000000000e+00 0.0000000000e+00 
          0.0000000000e+00 0.0000000000e+00 0.0000000000e+00 
          0.0000000000e+00 0.0000000000e+00 0.0000000000e+00 
          0.0000000000e+00 0.0000000000e+00 0.0000000000e+00 
          0.0000000000e+00 0.0000000000e+00 0.0000000000e+00 
          0.0000000000e+00 0.0000000000e+00 0.0000000000e+00 
          0.0000000000e+00 0.0000000000e+00 0.0000000000e+00 
          0.0000000000e+00 0.0000000000e+00 0.0000000000e+00 
          0.0000000000e+00 0.0000000000e+00 0.0000000000e+00 
          0.0000000000e+00 0.0000000000e+00 0.0000000000e+00 
          0.0000000000e+00 0.0000000000e+00 0.0000000000e+00 
          0.0000000000e+00 0.0000000000e+00 0.0000000000e+00 
          0.0000000000e+00 0.0000000000e+00 0.0000000000e+00 
          0.0000000000e+00 0.0000000000e+00 0.0000000000e+00 
          0.0000000000e+00 0.0000000000e+00 0.0000000000e+00 
          0.0000000000e+00 0.0000000000e+00 0.0000000000e+00 
          0.0000000000e+00 0.0000000000e+00 0.0000000000e+00 
          0.0000000000e+00 0.0000000000e+00 0.0000000000e+00 
          0.0000000000e+00 0.0000000000e+00 0.0000000000e+00 
          0.0000000000e+00 0.0000000000e+00 0.0000000000e+00 
          0.0000000000e+00 0.0000000000e+00 0.0000000000e+00 
          0.0000000000e+00 0.0000000000e+00 0.0000000000e+00 
          0.0000000000e+00 0.0000000000e+00 0.0000000000e+00 
          0.0000000000e+00 0.0000000000e+00 0.0000000000e+00 
          0.0000000000e+00 0.0000000000e+00 0.0000000000e+00 
          0.0000000000e+00 0.0000000000e+00 0.0000000000e+00 
          0.0000000000e+00 0.0000000000e+00 0.0000000000e+00 
          0.0000000000e+00 0.0000000000e+00 0.0000000000e+00 
          0.0000000000e+00 0.0000000000e+00 0.0000000000e+00 
          0.0000000000e+00 0.0000000000e+00 0.0000000000e+00 
          0.0000000000e+00 0.0000000000e+00 0.0000000000e+00 
          0.0000000000e+00 0.0000000000e+00 0.0000000000e+00 
          0.0000000000e+00 0.0000000000e+00 0.0000000000e+00 
          0.0000000000e+00 0.0000000000e+00 0.0000000000e+00 
          0.0000000000e+00 0.0000000000e+00 0.0000000000e+00 
          0.0000000000e+00 0.0000000000e+00 0.0000000000e+00 
          0.0000000000e+00 0.0000000000e+00 0.0000000000e+00 
          0.0000000000e+00 0.0000000000e+00 0.0000000000e+00 
          0.0000000000e+00 0.0000000000e+00 0.0000000000e+00 
          0.0000000000e+00 0.0000000000e+00 0.0000000000e+00 
          0.0000000000e+00 0.0000000000e+00 0.0000000000e+00 
          0.0000000000e+00 0.0000000000e+00 0.0000000000e+00 
          0.0000000000e+00 0.0000000000e+00 0.0000000000e+00 
          0.0000000000e+00 0.0000000000e+00 0.0000000000e+00 
          0.0000000000e+00 0.0000000000e+00 0.0000000000e+00 
          0.0000000000e+00 0.0000000000e+00 0.0000000000e+00 
          0.0000000000e+00 0.0000000000e+00 0.0000000000e+00 
          0.0000000000e+00 0.0000000000e+00 0.0000000000e+00 
          0.0000000000e+00 0.0000000000e+00 0.0000000000e+00 
          0.0000000000e+00 0.0000000000e+00 0.0000000000e+00 
          0.0000000000e+00 0.0000000000e+00 0.0000000000e+00 
          0.0000000000e+00 0.0000000000e+00 0.0000000000e+00 
          0.0000000000e+00 0.0000000000e+00 0.0000000000e+00 
          0.0000000000e+00 0.0000000000e+00 0.0000000000e+00 
          0.0000000000e+00 0.0000000000e+00 0.0000000000e+00 
          0.0000000000e+00 0.0000000000e+00 0.0000000000e+00 
          0.0000000000e+00 0.0000000000e+00 0.0000000000e+00 
          0.0000000000e+00 0.0000000000e+00 0.0000000000e+00 
          0.0000000000e+00 0.0000000000e+00 0.0000000000e+00 
          0.0000000000e+00 0.0000000000e+00 0.0000000000e+00 
          0.0000000000e+00 0.0000000000e+00 0.0000000000e+00 
          0.0000000000e+00 0.0000000000e+00 0.0000000000e+00 
          0.0000000000e+00 0.0000000000e+00 0.0000000000e+00 
          0.0000000000e+00 0.0000000000e+00 0.0000000000e+00 
          0.0000000000e+00 0.0000000000e+00 0.0000000000e+00 
          0.0000000000e+00 0.0000000000e+00 0.0000000000e+00 
          0.0000000000e+00 0.0000000000e+00 0.0000000000e+00 
          0.0000000000e+00 0.0000000000e+00 0.0000000000e+00 
          0.0000000000e+00 0.0000000000e+00 0.0000000000e+00 
          0.0000000000e+00 0.0000000000e+00 0.0000000000e+00 
        </DataArray>
      </PointData>
      <CellData>
        <DataArray type="Int64" Name="ElementTag" format="ascii">
          0
        </DataArray>
      </CellData>
    </Piece>
  </UnstructuredGrid>
</VTKFile>
