<?xml version="1.0"?>
<VTKFile type="UnstructuredGrid" version="1.0" byte_order="LittleEndian" compressor="vtkZLibDataCompressor">
  <UnstructuredGrid>
    <Piece NumberOfPoints="80" NumberOfCells="39">
      <Points>
        <DataArray type="Float64" Name="Points" NumberOfComponents="3" format="ascii">
          0.0000000000e+00 0.0000000000e+00 0.0000000000e+00 
          2.5000000000e-01 0.0000000000e+00 0.0000000000e+00 
          2.5000000000e-01 3.0000000000e+01 0.0000000000e+00 
          0.0000000000e+00 3.0000000000e+01 0.0000000000e+00 
          2.5000000000e-01 7.6923100000e-01 0.0000000000e+00 
          2.5000000000e-01 1.5384620000e+00 0.0000000000e+00 
          2.5000000000e-01 2.3076920000e+00 0.0000000000e+00 
          2.5000000000e-01 3.0769230000e+00 0.0000000000e+00 
          2.5000000000e-01 3.8461540000e+00 0.0000000000e+00 
          2.5000000000e-01 4.6153850000e+00 0.0000000000e+00 
          2.5000000000e-01 5.3846150000e+00 0.0000000000e+00 
          2.5000000000e-01 6.1538460000e+00 0.0000000000e+00 
          2.5000000000e-01 6.9230770000e+00 0.0000000000e+00 
          2.5000000000e-01 7.6923080000e+00 0.0000000000e+00 
          2.5000000000e-01 8.4615380000e+00 0.0000000000e+00 
          2.5000000000e-01 9.2307690000e+00 0.0000000000e+00 
          2.5000000000e-01 1.0000000000e+01 0.0000000000e+00 
          2.5000000000e-01 1.0769231000e+01 0.0000000000e+00 
          2.5000000000e-01 1.1538462000e+01 0.0000000000e+00 
          2.5000000000e-01 1.2307692000e+01 0.0000000000e+00 
          2.5000000000e-01 1.3076923000e+01 0.0000000000e+00 
          2.5000000000e-01 1.3846154000e+01 0.0000000000e+00 
          2.5000000000e-01 1.4615385000e+01 0.0000000000e+00 
          2.5000000000e-01 1.5384615000e+01 0.0000000000e+00 
          2.5000000000e-01 1.6153846000e+01 0.0000000000e+00 
          2.5000000000e-01 1.6923077000e+01 0.0000000000e+00 
          2.5000000000e-01 1.7692308000e+01 0.0000000000e+00 
          2.5000000000e-01 1.8461538000e+01 0.0000000000e+00 
          2.5000000000e-01 1.9230769000e+01 0.0000000000e+00 
          2.5000000000e-01 2.0000000000e+01 0.0000000000e+00 
          2.5000000000e-01 2.0769231000e+01 0.0000000000e+00 
          2.5000000000e-01 2.1538462000e+01 0.0000000000e+00 
          2.5000000000e-01 2.2307692000e+01 0.0000000000e+00 
          2.5000000000e-01 2.3076923000e+01 0.0000000000e+00 
          2.5000000000e-01 2.3846154000e+01 0.0000000000e+00 
          2.5000000000e-01 2.4615385000e+01 0.0000000000e+00 
          2.5000000000e-01 2.5384615000e+01 0.0000000000e+00 
          2.5000000000e-01 2.6153846000e+01 0.0000000000e+00 
          2.5000000000e-01 2.6923077000e+01 0.0000000000e+00 
          2.5000000000e-01 2.7692308000e+01 0.0000000000e+00 
          2.5000000000e-01 2.8461538000e+01 0.0000000000e+00 
          2.5000000000e-01 2.9230769000e+01 0.0000000000e+00 
          0.0000000000e+00 7.6923100000e-01 0.0000000000e+00 
          0.0000000000e+00 1.5384620000e+00 0.0000000000e+00 
          0.0000000000e+00 2.3076920000e+00 0.0000000000e+00 
          0.0000000000e+00 3.0769230000e+00 0.0000000000e+00 
          0.0000000000e+00 3.8461540000e+00 0.0000000000e+00 
          0.0000000000e+00 4.6153850000e+00 0.0000000000e+00 
          0.0000000000e+00 5.3846150000e+00 0.0000000000e+00 
          0.0000000000e+00 6.1538460000e+00 0.0000000000e+00 
          0.0000000000e+00 6.9230770000e+00 0.0000000000e+00 
          0.0000000000e+00 7.6923080000e+00 0.0000000000e+00 
          0.0000000000e+00 8.4615380000e+00 0.0000000000e+00 
          0.0000000000e+00 9.2307690000e+00 0.0000000000e+00 
          0.0000000000e+00 1.0000000000e+01 0.0000000000e+00 
          0.0000000000e+00 1.0769231000e+01 0.0000000000e+00 
          0.0000000000e+00 1.1538462000e+01 0.0000000000e+00 
          0.0000000000e+00 1.2307692000e+01 0.0000000000e+00 
          0.0000000000e+00 1.3076923000e+01 0.0000000000e+00 
          0.0000000000e+00 1.3846154000e+01 0.0000000000e+00 
          0.0000000000e+00 1.4615385000e+01 0.0000000000e+00 
          0.0000000000e+00 1.5384615000e+01 0.0000000000e+00 
          0.0000000000e+00 1.6153846000e+01 0.0000000000e+00 
          0.0000000000e+00 1.6923077000e+01 0.0000000000e+00 
          0.0000000000e+00 1.7692308000e+01 0.0000000000e+00 
          0.0000000000e+00 1.8461538000e+01 0.0000000000e+00 
          0.0000000000e+00 1.9230769000e+01 0.0000000000e+00 
          0.0000000000e+00 2.0000000000e+01 0.0000000000e+00 
          0.0000000000e+00 2.0769231000e+01 0.0000000000e+00 
          0.0000000000e+00 2.1538462000e+01 0.0000000000e+00 
          0.0000000000e+00 2.2307692000e+01 0.0000000000e+00 
          0.0000000000e+00 2.3076923000e+01 0.0000000000e+00 
          0.0000000000e+00 2.3846154000e+01 0.0000000000e+00 
          0.0000000000e+00 2.4615385000e+01 0.0000000000e+00 
          0.0000000000e+00 2.5384615000e+01 0.0000000000e+00 
          0.0000000000e+00 2.6153846000e+01 0.0000000000e+00 
          0.0000000000e+00 2.6923077000e+01 0.0000000000e+00 
          0.0000000000e+00 2.7692308000e+01 0.0000000000e+00 
          0.0000000000e+00 2.8461538000e+01 0.0000000000e+00 
          0.0000000000e+00 2.9230769000e+01 0.0000000000e+00 
        </DataArray>
      </Points>
      <Cells>
        <DataArray type="Int64" Name="connectivity" format="ascii">
          0 1 4 42 
          42 4 5 43 
          43 5 6 44 
          44 6 7 45 
          45 7 8 46 
          46 8 9 47 
          47 9 10 48 
          48 10 11 49 
          49 11 12 50 
          50 12 13 51 
          51 13 14 52 
          52 14 15 53 
          53 15 16 54 
          54 16 17 55 
          55 17 18 56 
          56 18 19 57 
          57 19 20 58 
          58 20 21 59 
          59 21 22 60 
          60 22 23 61 
          61 23 24 62 
          62 24 25 63 
          63 25 26 64 
          64 26 27 65 
          65 27 28 66 
          66 28 29 67 
          67 29 30 68 
          68 30 31 69 
          69 31 32 70 
          70 32 33 71 
          71 33 34 72 
          72 34 35 73 
          73 35 36 74 
          74 36 37 75 
          75 37 38 76 
          76 38 39 77 
          77 39 40 78 
          78 40 41 79 
          79 41 2 3 
        </DataArray>
        <DataArray type="Int64" Name="offsets" format="ascii">
          4
          8
          12
          16
          20
          24
          28
          32
          36
          40
          44
          48
          52
          56
          60
          64
          68
          72
          76
          80
          84
          88
          92
          96
          100
          104
          108
          112
          116
          120
          124
          128
          132
          136
          140
          144
          148
          152
          156
        </DataArray>
        <DataArray type="Int64" Name="types" format="ascii">
          9
          9
          9
          9
          9
          9
          9
          9
          9
          9
          9
          9
          9
          9
          9
          9
          9
          9
          9
          9
          9
          9
          9
          9
          9
          9
          9
          9
          9
          9
          9
          9
          9
          9
          9
          9
          9
          9
          9
        </DataArray>
      </Cells>
      <PointData>
        <DataArray type="Int64" Name="NodeTag" format="ascii">
          1
          2
          3
          4
          7
          8
          9
          10
          11
          12
          13
          14
          15
          16
          17
          18
          19
          20
          21
          22
          23
          24
          25
          26
          27
          28
          29
          30
          31
          32
          33
          34
          35
          36
          37
          38
          39
          40
          41
          42
          43
          44
          45
          46
          47
          48
          49
          50
          51
          52
          53
          54
          55
          56
          57
          58
          59
          60
          61
          62
          63
          64
          65
          66
          67
          68
          69
          70
          71
          72
          73
          74
          75
          76
          77
          78
          79
          80
          81
          82
        </DataArray>
        <DataArray type="Float64" Name="Velocity" NumberOfComponents="3" format="ascii">
          9.2983675956e-07 -7.7844280010e-05 0.0000000000e+00 
          9.2983675956e-07 -7.7844280010e-05 0.0000000000e+00 
          -7.0604485816e-05 -7.7848228906e-05 0.0000000000e+00 
          -7.0604485816e-05 -7.7848228906e-05 0.0000000000e+00 
          -2.0137322022e-06 -7.7875529573e-05 0.0000000000e+00 
          -4.9409296255e-06 -7.7803001597e-05 0.0000000000e+00 
          -7.8648226582e-06 -7.7870368807e-05 0.0000000000e+00 
          -1.0759387268e-05 -7.7849311791e-05 0.0000000000e+00 
          -1.3637809689e-05 -7.7812917271e-05 0.0000000000e+00 
          -1.6486963733e-05 -7.7886006051e-05 0.0000000000e+00 
          -1.9298261574e-05 -7.7809003884e-05 0.0000000000e+00 
          -2.2081447420e-05 -7.7863231164e-05 0.0000000000e+00 
          -2.4815348043e-05 -7.7844954547e-05 0.0000000000e+00 
          -2.7506027377e-05 -7.7828550699e-05 0.0000000000e+00 
          -3.0149356358e-05 -7.7870093053e-05 0.0000000000e+00 
          -3.2733348980e-05 -7.7807692008e-05 0.0000000000e+00 
          -3.5263149609e-05 -7.7892750584e-05 0.0000000000e+00 
          -3.7729471954e-05 -7.7791375129e-05 0.0000000000e+00 
          -4.0128636659e-05 -7.7885932686e-05 0.0000000000e+00 
          -4.2460373314e-05 -7.7821964179e-05 0.0000000000e+00 
          -4.4717853495e-05 -7.7853334621e-05 0.0000000000e+00 
          -4.6897822256e-05 -7.7835410224e-05 0.0000000000e+00 
          -4.9000567843e-05 -7.7854452931e-05 0.0000000000e+00 
          -5.1017889334e-05 -7.7840824371e-05 0.0000000000e+00 
          -5.2951064888e-05 -7.7832206828e-05 0.0000000000e+00 
          -5.4795153999e-05 -7.7868697827e-05 0.0000000000e+00 
          -5.6546885148e-05 -7.7813616035e-05 0.0000000000e+00 
          -5.8207590819e-05 -7.7875902631e-05 0.0000000000e+00 
          -5.9768663686e-05 -7.7806932543e-05 0.0000000000e+00 
          -6.1234382217e-05 -7.7890819212e-05 0.0000000000e+00 
          -6.2597788513e-05 -7.7791101301e-05 0.0000000000e+00 
          -6.3860834693e-05 -7.7886638536e-05 0.0000000000e+00 
          -6.5016385628e-05 -7.7828254427e-05 0.0000000000e+00 
          -6.6072875039e-05 -7.7827382829e-05 0.0000000000e+00 
          -6.7013279744e-05 -7.7881016080e-05 0.0000000000e+00 
          -6.7854734963e-05 -7.7804860271e-05 0.0000000000e+00 
          -6.8581204797e-05 -7.7870232674e-05 0.0000000000e+00 
          -6.9195585512e-05 -7.7834659000e-05 0.0000000000e+00 
          -6.9708887324e-05 -7.7837929888e-05 0.0000000000e+00 
          -7.0095822423e-05 -7.7858052559e-05 0.0000000000e+00 
          -7.0382107983e-05 -7.7831942665e-05 0.0000000000e+00 
          -7.0552597858e-05 -7.7845245840e-05 0.0000000000e+00 
          -2.0137322022e-06 -7.7875529573e-05 0.0000000000e+00 
          -4.9409296255e-06 -7.7803001597e-05 0.0000000000e+00 
          -7.8648226582e-06 -7.7870368807e-05 0.0000000000e+00 
          -1.0759387268e-05 -7.7849311791e-05 0.0000000000e+00 
          -1.3637809689e-05 -7.7812917271e-05 0.0000000000e+00 
          -1.6486963733e-05 -7.7886006051e-05 0.0000000000e+00 
          -1.9298261574e-05 -7.7809003884e-05 0.0000000000e+00 
          -2.2081447420e-05 -7.7863231164e-05 0.0000000000e+00 
          -2.4815348043e-05 -7.7844954547e-05 0.0000000000e+00 
          -2.7506027377e-05 -7.7828550699e-05 0.0000000000e+00 
          -3.0149356358e-05 -7.7870093053e-05 0.0000000000e+00 
          -3.2733348980e-05 -7.7807692008e-05 0.0000000000e+00 
          -3.5263149609e-05 -7.7892750584e-05 0.0000000000e+00 
          -3.7729471954e-05 -7.7791375129e-05 0.0000000000e+00 
          -4.0128636659e-05 -7.7885932686e-05 0.0000000000e+00 
          -4.2460373314e-05 -7.7821964179e-05 0.0000000000e+00 
          -4.4717853495e-05 -7.7853334621e-05 0.0000000000e+00 
          -4.6897822256e-05 -7.7835410224e-05 0.0000000000e+00 
          -4.9000567843e-05 -7.7854452931e-05 0.0000000000e+00 
          -5.1017889334e-05 -7.7840824371e-05 0.0000000000e+00 
          -5.2951064888e-05 -7.7832206828e-05 0.0000000000e+00 
          -5.4795153999e-05 -7.7868697827e-05 0.0000000000e+00 
          -5.6546885148e-05 -7.7813616035e-05 0.0000000000e+00 
          -5.8207590819e-05 -7.7875902631e-05 0.0000000000e+00 
          -5.9768663686e-05 -7.7806932543e-05 0.0000000000e+00 
          -6.1234382217e-05 -7.7890819212e-05 0.0000000000e+00 
          -6.2597788513e-05 -7.7791101301e-05 0.0000000000e+00 
          -6.3860834693e-05 -7.7886638536e-05 0.0000000000e+00 
          -6.5016385628e-05 -7.7828254427e-05 0.0000000000e+00 
          -6.6072875039e-05 -7.7827382829e-05 0.0000000000e+00 
          -6.7013279744e-05 -7.7881016080e-05 0.0000000000e+00 
          -6.7854734963e-05 -7.7804860271e-05 0.0000000000e+00 
          -6.8581204797e-05 -7.7870232674e-05 0.0000000000e+00 
          -6.9195585512e-05 -7.7834659000e-05 0.0000000000e+00 
          -6.9708887324e-05 -7.7837929888e-05 0.0000000000e+00 
          -7.0095822423e-05 -7.7858052559e-05 0.0000000000e+00 
          -7.0382107983e-05 -7.7831942665e-05 0.0000000000e+00 
          -7.0552597858e-05 -7.7845245840e-05 0.0000000000e+00 
        </DataArray>
        <DataArray type="Float64" Name="Displacement" NumberOfComponents="3" format="ascii">
          1.1687366814e-06 -6.2015324680e-04 0.0000000000e+00 
          1.1687366814e-06 -6.2015324680e-04 0.0000000000e+00 
          1.1044788632e-06 -6.4373362381e-04 0.0000000000e+00 
          1.1044788632e-06 -6.4373362381e-04 0.0000000000e+00 
          1.1831940100e-06 -6.2134699302e-04 0.0000000000e+00 
          1.1957430184e-06 -6.2250973530e-04 0.0000000000e+00 
          1.2065020924e-06 -6.2364146384e-04 0.0000000000e+00 
          1.2155024510e-06 -6.2474217075e-04 0.0000000000e+00 
          1.2228689076e-06 -6.2581193842e-04 0.0000000000e+00 
          1.2286619496e-06 -6.2685058958e-04 0.0000000000e+00 
          1.2329711755e-06 -6.2785832325e-04 0.0000000000e+00 
          1.2359019910e-06 -6.2883506298e-04 0.0000000000e+00 
          1.2375152268e-06 -6.2978065312e-04 0.0000000000e+00 
          1.2379375030e-06 -6.3069546660e-04 0.0000000000e+00 
          1.2372259503e-06 -6.3157904144e-04 0.0000000000e+00 
          1.2354961019e-06 -6.3243177738e-04 0.0000000000e+00 
          1.2328387910e-06 -6.3325342701e-04 0.0000000000e+00 
          1.2293263333e-06 -6.3404407484e-04 0.0000000000e+00 
          1.2250869903e-06 -6.3480376282e-04 0.0000000000e+00 
          1.2201688893e-06 -6.3553237139e-04 0.0000000000e+00 
          1.2147046084e-06 -6.3623005632e-04 0.0000000000e+00 
          1.2087534704e-06 -6.3689665333e-04 0.0000000000e+00 
          1.2024127682e-06 -6.3753230845e-04 0.0000000000e+00 
          1.1957828965e-06 -6.3813693178e-04 0.0000000000e+00 
          1.1889152655e-06 -6.3871052681e-04 0.0000000000e+00 
          1.1819262385e-06 -6.3925317489e-04 0.0000000000e+00 
          1.1748760884e-06 -6.3976473143e-04 0.0000000000e+00 
          1.1678356333e-06 -6.4024538289e-04 0.0000000000e+00 
          1.1608983392e-06 -6.4069493501e-04 0.0000000000e+00 
          1.1541116000e-06 -6.4111352604e-04 0.0000000000e+00 
          1.1475538916e-06 -6.4150114505e-04 0.0000000000e+00 
          1.1412869590e-06 -6.4185764333e-04 0.0000000000e+00 
          1.1353578270e-06 -6.4218330128e-04 0.0000000000e+00 
          1.1298327437e-06 -6.4247776838e-04 0.0000000000e+00 
          1.1247559208e-06 -6.4274141184e-04 0.0000000000e+00 
          1.1201643958e-06 -6.4297388673e-04 0.0000000000e+00 
          1.1161092463e-06 -6.4317545599e-04 0.0000000000e+00 
          1.1126182742e-06 -6.4334603068e-04 0.0000000000e+00 
          1.1097186505e-06 -6.4348546486e-04 0.0000000000e+00 
          1.1074427374e-06 -6.4359408518e-04 0.0000000000e+00 
          1.1057998175e-06 -6.4367155586e-04 0.0000000000e+00 
          1.1048108294e-06 -6.4371803304e-04 0.0000000000e+00 
          1.1831940100e-06 -6.2134699302e-04 0.0000000000e+00 
          1.1957430184e-06 -6.2250973530e-04 0.0000000000e+00 
          1.2065020924e-06 -6.2364146384e-04 0.0000000000e+00 
          1.2155024510e-06 -6.2474217075e-04 0.0000000000e+00 
          1.2228689076e-06 -6.2581193842e-04 0.0000000000e+00 
          1.2286619496e-06 -6.2685058958e-04 0.0000000000e+00 
          1.2329711755e-06 -6.2785832325e-04 0.0000000000e+00 
          1.2359019910e-06 -6.2883506298e-04 0.0000000000e+00 
          1.2375152268e-06 -6.2978065312e-04 0.0000000000e+00 
          1.2379375030e-06 -6.3069546660e-04 0.0000000000e+00 
          1.2372259503e-06 -6.3157904144e-04 0.0000000000e+00 
          1.2354961019e-06 -6.3243177738e-04 0.0000000000e+00 
          1.2328387910e-06 -6.3325342701e-04 0.0000000000e+00 
          1.2293263333e-06 -6.3404407484e-04 0.0000000000e+00 
          1.2250869903e-06 -6.3480376282e-04 0.0000000000e+00 
          1.2201688893e-06 -6.3553237139e-04 0.0000000000e+00 
          1.2147046084e-06 -6.3623005632e-04 0.0000000000e+00 
          1.2087534704e-06 -6.3689665333e-04 0.0000000000e+00 
          1.2024127682e-06 -6.3753230845e-04 0.0000000000e+00 
          1.1957828965e-06 -6.3813693178e-04 0.0000000000e+00 
          1.1889152655e-06 -6.3871052681e-04 0.0000000000e+00 
          1.1819262385e-06 -6.3925317489e-04 0.0000000000e+00 
          1.1748760884e-06 -6.3976473143e-04 0.0000000000e+00 
          1.1678356333e-06 -6.4024538289e-04 0.0000000000e+00 
          1.1608983392e-06 -6.4069493501e-04 0.0000000000e+00 
          1.1541116000e-06 -6.4111352604e-04 0.0000000000e+00 
          1.1475538916e-06 -6.4150114505e-04 0.0000000000e+00 
          1.1412869590e-06 -6.4185764333e-04 0.0000000000e+00 
          1.1353578270e-06 -6.4218330128e-04 0.0000000000e+00 
          1.1298327437e-06 -6.4247776838e-04 0.0000000000e+00 
          1.1247559208e-06 -6.4274141184e-04 0.0000000000e+00 
          1.1201643958e-06 -6.4297388673e-04 0.0000000000e+00 
          1.1161092463e-06 -6.4317545599e-04 0.0000000000e+00 
          1.1126182742e-06 -6.4334603068e-04 0.0000000000e+00 
          1.1097186505e-06 -6.4348546486e-04 0.0000000000e+00 
          1.1074427374e-06 -6.4359408518e-04 0.0000000000e+00 
          1.1057998175e-06 -6.4367155586e-04 0.0000000000e+00 
          1.1048108294e-06 -6.4371803304e-04 0.0000000000e+00 
        </DataArray>
        <DataArray type="Float64" Name="Acceleration" NumberOfComponents="3" format="ascii">
          -1.7735404013e-04 -1.9912715546e-06 0.0000000000e+00 
          -1.7735404013e-04 -1.9912715546e-06 0.0000000000e+00 
          5.9821620342e-05 3.1572400155e-05 0.0000000000e+00 
          5.9821620342e-05 3.1572400155e-05 0.0000000000e+00 
          -1.7194342850e-04 -4.3037940722e-07 0.0000000000e+00 
          -1.6127546393e-04 1.0717067347e-06 0.0000000000e+00 
          -1.5846509237e-04 3.0251946355e-06 0.0000000000e+00 
          -1.4721779784e-04 -1.2092012316e-05 0.0000000000e+00 
          -1.4176776057e-04 1.9853050676e-05 0.0000000000e+00 
          -1.3369434429e-04 -1.6242111170e-05 0.0000000000e+00 
          -1.2419808437e-04 -1.9933356165e-06 0.0000000000e+00 
          -1.1871654101e-04 2.5813194701e-05 0.0000000000e+00 
          -1.0730780107e-04 -4.1387908184e-05 0.0000000000e+00 
          -1.0216038023e-04 4.1657248583e-05 0.0000000000e+00 
          -9.1750420998e-05 -2.9960485377e-05 0.0000000000e+00 
          -8.3566208392e-05 1.4409872168e-05 0.0000000000e+00 
          -7.7050415617e-05 -8.1637557692e-07 0.0000000000e+00 
          -6.5493799524e-05 -8.3768873786e-06 0.0000000000e+00 
          -6.1158054082e-05 1.2999630249e-05 0.0000000000e+00 
          -4.9211341410e-05 -1.4726853584e-05 0.0000000000e+00 
          -4.3866794180e-05 1.4702657097e-05 0.0000000000e+00 
          -3.5100495518e-05 -1.1616575308e-05 0.0000000000e+00 
          -2.6055539351e-05 4.4511714873e-06 0.0000000000e+00 
          -2.1421818863e-05 4.1030072598e-06 0.0000000000e+00 
          -1.0938013761e-05 -1.0704180831e-05 0.0000000000e+00 
          -5.5073214646e-06 1.5356059402e-05 0.0000000000e+00 
          8.7272275989e-07 -1.8355633590e-05 0.0000000000e+00 
          9.2958402709e-06 1.6875644181e-05 0.0000000000e+00 
          1.3565289904e-05 -8.1558573727e-06 0.0000000000e+00 
          2.0636119364e-05 -6.1823294326e-06 0.0000000000e+00 
          2.6199482761e-05 2.0613940490e-05 0.0000000000e+00 
          3.0435828387e-05 -2.9988071567e-05 0.0000000000e+00 
          3.6406304867e-05 3.3331754715e-05 0.0000000000e+00 
          4.0389145662e-05 -3.2924476618e-05 0.0000000000e+00 
          4.3726289203e-05 2.9234280715e-05 0.0000000000e+00 
          4.8328063966e-05 -1.8190633035e-05 0.0000000000e+00 
          5.0833993208e-05 -2.0682894875e-06 0.0000000000e+00 
          5.3281667352e-05 2.4177263157e-05 0.0000000000e+00 
          5.6197549565e-05 -3.4685497506e-05 0.0000000000e+00 
          5.7033790380e-05 2.5810309336e-05 0.0000000000e+00 
          5.8920764345e-05 -2.2924146050e-06 0.0000000000e+00 
          5.9198978927e-05 -2.1610997720e-05 0.0000000000e+00 
          -1.7194342850e-04 -4.3037940722e-07 0.0000000000e+00 
          -1.6127546393e-04 1.0717067347e-06 0.0000000000e+00 
          -1.5846509237e-04 3.0251946355e-06 0.0000000000e+00 
          -1.4721779784e-04 -1.2092012316e-05 0.0000000000e+00 
          -1.4176776057e-04 1.9853050676e-05 0.0000000000e+00 
          -1.3369434429e-04 -1.6242111170e-05 0.0000000000e+00 
          -1.2419808437e-04 -1.9933356165e-06 0.0000000000e+00 
          -1.1871654101e-04 2.5813194701e-05 0.0000000000e+00 
          -1.0730780107e-04 -4.1387908184e-05 0.0000000000e+00 
          -1.0216038023e-04 4.1657248583e-05 0.0000000000e+00 
          -9.1750420998e-05 -2.9960485377e-05 0.0000000000e+00 
          -8.3566208392e-05 1.4409872168e-05 0.0000000000e+00 
          -7.7050415617e-05 -8.1637557692e-07 0.0000000000e+00 
          -6.5493799524e-05 -8.3768873786e-06 0.0000000000e+00 
          -6.1158054082e-05 1.2999630249e-05 0.0000000000e+00 
          -4.9211341410e-05 -1.4726853584e-05 0.0000000000e+00 
          -4.3866794180e-05 1.4702657097e-05 0.0000000000e+00 
          -3.5100495518e-05 -1.1616575308e-05 0.0000000000e+00 
          -2.6055539351e-05 4.4511714873e-06 0.0000000000e+00 
          -2.1421818863e-05 4.1030072598e-06 0.0000000000e+00 
          -1.0938013761e-05 -1.0704180831e-05 0.0000000000e+00 
          -5.5073214646e-06 1.5356059402e-05 0.0000000000e+00 
          8.7272275989e-07 -1.8355633590e-05 0.0000000000e+00 
          9.2958402709e-06 1.6875644181e-05 0.0000000000e+00 
          1.3565289904e-05 -8.1558573727e-06 0.0000000000e+00 
          2.0636119364e-05 -6.1823294326e-06 0.0000000000e+00 
          2.6199482761e-05 2.0613940490e-05 0.0000000000e+00 
          3.0435828387e-05 -2.9988071567e-05 0.0000000000e+00 
          3.6406304867e-05 3.3331754715e-05 0.0000000000e+00 
          4.0389145662e-05 -3.2924476618e-05 0.0000000000e+00 
          4.3726289203e-05 2.9234280715e-05 0.0000000000e+00 
          4.8328063966e-05 -1.8190633035e-05 0.0000000000e+00 
          5.0833993208e-05 -2.0682894875e-06 0.0000000000e+00 
          5.3281667352e-05 2.4177263157e-05 0.0000000000e+00 
          5.6197549565e-05 -3.4685497506e-05 0.0000000000e+00 
          5.7033790380e-05 2.5810309336e-05 0.0000000000e+00 
          5.8920764345e-05 -2.2924146050e-06 0.0000000000e+00 
          5.9198978927e-05 -2.1610997720e-05 0.0000000000e+00 
        </DataArray>
        <DataArray type="Float64" Name="Reaction" NumberOfComponents="3" format="ascii">
          0.0000000000e+00 0.0000000000e+00 0.0000000000e+00 
          0.0000000000e+00 0.0000000000e+00 0.0000000000e+00 
          0.0000000000e+00 0.0000000000e+00 0.0000000000e+00 
          0.0000000000e+00 0.0000000000e+00 0.0000000000e+00 
          0.0000000000e+00 0.0000000000e+00 0.0000000000e+00 
          0.0000000000e+00 0.0000000000e+00 0.0000000000e+00 
          0.0000000000e+00 0.0000000000e+00 0.0000000000e+00 
          0.0000000000e+00 0.0000000000e+00 0.0000000000e+00 
          0.0000000000e+00 0.0000000000e+00 0.0000000000e+00 
          0.0000000000e+00 0.0000000000e+00 0.0000000000e+00 
          0.0000000000e+00 0.0000000000e+00 0.0000000000e+00 
          0.0000000000e+00 0.0000000000e+00 0.0000000000e+00 
          0.0000000000e+00 0.0000000000e+00 0.0000000000e+00 
          0.0000000000e+00 0.0000000000e+00 0.0000000000e+00 
          0.0000000000e+00 0.0000000000e+00 0.0000000000e+00 
          0.0000000000e+00 0.0000000000e+00 0.0000000000e+00 
          0.0000000000e+00 0.0000000000e+00 0.0000000000e+00 
          0.0000000000e+00 0.0000000000e+00 0.0000000000e+00 
          0.0000000000e+00 0.0000000000e+00 0.0000000000e+00 
          0.0000000000e+00 0.0000000000e+00 0.0000000000e+00 
          0.0000000000e+00 0.0000000000e+00 0.0000000000e+00 
          0.0000000000e+00 0.0000000000e+00 0.0000000000e+00 
          0.0000000000e+00 0.0000000000e+00 0.0000000000e+00 
          0.0000000000e+00 0.0000000000e+00 0.0000000000e+00 
          0.0000000000e+00 0.0000000000e+00 0.0000000000e+00 
          0.0000000000e+00 0.0000000000e+00 0.0000000000e+00 
          0.0000000000e+00 0.0000000000e+00 0.0000000000e+00 
          0.0000000000e+00 0.0000000000e+00 0.0000000000e+00 
          0.0000000000e+00 0.0000000000e+00 0.0000000000e+00 
          0.0000000000e+00 0.0000000000e+00 0.0000000000e+00 
          0.0000000000e+00 0.0000000000e+00 0.0000000000e+00 
          0.0000000000e+00 0.0000000000e+00 0.0000000000e+00 
          0.0000000000e+00 0.0000000000e+00 0.0000000000e+00 
          0.0000000000e+00 0.0000000000e+00 0.0000000000e+00 
          0.0000000000e+00 0.0000000000e+00 0.0000000000e+00 
          0.0000000000e+00 0.0000000000e+00 0.0000000000e+00 
          0.0000000000e+00 0.0000000000e+00 0.0000000000e+00 
          0.0000000000e+00 0.0000000000e+00 0.0000000000e+00 
          0.0000000000e+00 0.0000000000e+00 0.0000000000e+00 
          0.0000000000e+00 0.0000000000e+00 0.0000000000e+00 
          0.0000000000e+00 0.0000000000e+00 0.0000000000e+00 
          0.0000000000e+00 0.0000000000e+00 0.0000000000e+00 
          0.0000000000e+00 0.0000000000e+00 0.0000000000e+00 
          0.0000000000e+00 0.0000000000e+00 0.0000000000e+00 
          0.0000000000e+00 0.0000000000e+00 0.0000000000e+00 
          0.0000000000e+00 0.0000000000e+00 0.0000000000e+00 
          0.0000000000e+00 0.0000000000e+00 0.0000000000e+00 
          0.0000000000e+00 0.0000000000e+00 0.0000000000e+00 
          0.0000000000e+00 0.0000000000e+00 0.0000000000e+00 
          0.0000000000e+00 0.0000000000e+00 0.0000000000e+00 
          0.0000000000e+00 0.0000000000e+00 0.0000000000e+00 
          0.0000000000e+00 0.0000000000e+00 0.0000000000e+00 
          0.0000000000e+00 0.0000000000e+00 0.0000000000e+00 
          0.0000000000e+00 0.0000000000e+00 0.0000000000e+00 
          0.0000000000e+00 0.0000000000e+00 0.0000000000e+00 
          0.0000000000e+00 0.0000000000e+00 0.0000000000e+00 
          0.0000000000e+00 0.0000000000e+00 0.0000000000e+00 
          0.0000000000e+00 0.0000000000e+00 0.0000000000e+00 
          0.0000000000e+00 0.0000000000e+00 0.0000000000e+00 
          0.0000000000e+00 0.0000000000e+00 0.0000000000e+00 
          0.0000000000e+00 0.0000000000e+00 0.0000000000e+00 
          0.0000000000e+00 0.0000000000e+00 0.0000000000e+00 
          0.0000000000e+00 0.0000000000e+00 0.0000000000e+00 
          0.0000000000e+00 0.0000000000e+00 0.0000000000e+00 
          0.0000000000e+00 0.0000000000e+00 0.0000000000e+00 
          0.0000000000e+00 0.0000000000e+00 0.0000000000e+00 
          0.0000000000e+00 0.0000000000e+00 0.0000000000e+00 
          0.0000000000e+00 0.0000000000e+00 0.0000000000e+00 
          0.0000000000e+00 0.0000000000e+00 0.0000000000e+00 
          0.0000000000e+00 0.0000000000e+00 0.0000000000e+00 
          0.0000000000e+00 0.0000000000e+00 0.0000000000e+00 
          0.0000000000e+00 0.0000000000e+00 0.0000000000e+00 
          0.0000000000e+00 0.0000000000e+00 0.0000000000e+00 
          0.0000000000e+00 0.0000000000e+00 0.0000000000e+00 
          0.0000000000e+00 0.0000000000e+00 0.0000000000e+00 
          0.0000000000e+00 0.0000000000e+00 0.0000000000e+00 
          0.0000000000e+00 0.0000000000e+00 0.0000000000e+00 
          0.0000000000e+00 0.0000000000e+00 0.0000000000e+00 
          0.0000000000e+00 0.0000000000e+00 0.0000000000e+00 
          0.0000000000e+00 0.0000000000e+00 0.0000000000e+00 
        </DataArray>
      </PointData>
      <CellData>
        <DataArray type="Int64" Name="ElementTag" format="ascii">
          90
          91
          92
          93
          94
          95
          96
          97
          98
          99
          100
          101
          102
          103
          104
          105
          106
          107
          108
          109
          110
          111
          112
          113
          114
          115
          116
          117
          118
          119
          120
          121
          122
          123
          124
          125
          126
          127
          128
        </DataArray>
      </CellData>
    </Piece>
  </UnstructuredGrid>
</VTKFile>
