<?xml version="1.0"?>
<VTKFile type="UnstructuredGrid" version="1.0" byte_order="LittleEndian" compressor="vtkZLibDataCompressor">
  <UnstructuredGrid>
    <Piece NumberOfPoints="80" NumberOfCells="39">
      <Points>
        <DataArray type="Float64" Name="Points" NumberOfComponents="3" format="ascii">
          0.0000000000e+00 0.0000000000e+00 0.0000000000e+00 
          2.5000000000e-01 0.0000000000e+00 0.0000000000e+00 
          2.5000000000e-01 3.0000000000e+01 0.0000000000e+00 
          0.0000000000e+00 3.0000000000e+01 0.0000000000e+00 
          2.5000000000e-01 7.6923100000e-01 0.0000000000e+00 
          2.5000000000e-01 1.5384620000e+00 0.0000000000e+00 
          2.5000000000e-01 2.3076920000e+00 0.0000000000e+00 
          2.5000000000e-01 3.0769230000e+00 0.0000000000e+00 
          2.5000000000e-01 3.8461540000e+00 0.0000000000e+00 
          2.5000000000e-01 4.6153850000e+00 0.0000000000e+00 
          2.5000000000e-01 5.3846150000e+00 0.0000000000e+00 
          2.5000000000e-01 6.1538460000e+00 0.0000000000e+00 
          2.5000000000e-01 6.9230770000e+00 0.0000000000e+00 
          2.5000000000e-01 7.6923080000e+00 0.0000000000e+00 
          2.5000000000e-01 8.4615380000e+00 0.0000000000e+00 
          2.5000000000e-01 9.2307690000e+00 0.0000000000e+00 
          2.5000000000e-01 1.0000000000e+01 0.0000000000e+00 
          2.5000000000e-01 1.0769231000e+01 0.0000000000e+00 
          2.5000000000e-01 1.1538462000e+01 0.0000000000e+00 
          2.5000000000e-01 1.2307692000e+01 0.0000000000e+00 
          2.5000000000e-01 1.3076923000e+01 0.0000000000e+00 
          2.5000000000e-01 1.3846154000e+01 0.0000000000e+00 
          2.5000000000e-01 1.4615385000e+01 0.0000000000e+00 
          2.5000000000e-01 1.5384615000e+01 0.0000000000e+00 
          2.5000000000e-01 1.6153846000e+01 0.0000000000e+00 
          2.5000000000e-01 1.6923077000e+01 0.0000000000e+00 
          2.5000000000e-01 1.7692308000e+01 0.0000000000e+00 
          2.5000000000e-01 1.8461538000e+01 0.0000000000e+00 
          2.5000000000e-01 1.9230769000e+01 0.0000000000e+00 
          2.5000000000e-01 2.0000000000e+01 0.0000000000e+00 
          2.5000000000e-01 2.0769231000e+01 0.0000000000e+00 
          2.5000000000e-01 2.1538462000e+01 0.0000000000e+00 
          2.5000000000e-01 2.2307692000e+01 0.0000000000e+00 
          2.5000000000e-01 2.3076923000e+01 0.0000000000e+00 
          2.5000000000e-01 2.3846154000e+01 0.0000000000e+00 
          2.5000000000e-01 2.4615385000e+01 0.0000000000e+00 
          2.5000000000e-01 2.5384615000e+01 0.0000000000e+00 
          2.5000000000e-01 2.6153846000e+01 0.0000000000e+00 
          2.5000000000e-01 2.6923077000e+01 0.0000000000e+00 
          2.5000000000e-01 2.7692308000e+01 0.0000000000e+00 
          2.5000000000e-01 2.8461538000e+01 0.0000000000e+00 
          2.5000000000e-01 2.9230769000e+01 0.0000000000e+00 
          0.0000000000e+00 7.6923100000e-01 0.0000000000e+00 
          0.0000000000e+00 1.5384620000e+00 0.0000000000e+00 
          0.0000000000e+00 2.3076920000e+00 0.0000000000e+00 
          0.0000000000e+00 3.0769230000e+00 0.0000000000e+00 
          0.0000000000e+00 3.8461540000e+00 0.0000000000e+00 
          0.0000000000e+00 4.6153850000e+00 0.0000000000e+00 
          0.0000000000e+00 5.3846150000e+00 0.0000000000e+00 
          0.0000000000e+00 6.1538460000e+00 0.0000000000e+00 
          0.0000000000e+00 6.9230770000e+00 0.0000000000e+00 
          0.0000000000e+00 7.6923080000e+00 0.0000000000e+00 
          0.0000000000e+00 8.4615380000e+00 0.0000000000e+00 
          0.0000000000e+00 9.2307690000e+00 0.0000000000e+00 
          0.0000000000e+00 1.0000000000e+01 0.0000000000e+00 
          0.0000000000e+00 1.0769231000e+01 0.0000000000e+00 
          0.0000000000e+00 1.1538462000e+01 0.0000000000e+00 
          0.0000000000e+00 1.2307692000e+01 0.0000000000e+00 
          0.0000000000e+00 1.3076923000e+01 0.0000000000e+00 
          0.0000000000e+00 1.3846154000e+01 0.0000000000e+00 
          0.0000000000e+00 1.4615385000e+01 0.0000000000e+00 
          0.0000000000e+00 1.5384615000e+01 0.0000000000e+00 
          0.0000000000e+00 1.6153846000e+01 0.0000000000e+00 
          0.0000000000e+00 1.6923077000e+01 0.0000000000e+00 
          0.0000000000e+00 1.7692308000e+01 0.0000000000e+00 
          0.0000000000e+00 1.8461538000e+01 0.0000000000e+00 
          0.0000000000e+00 1.9230769000e+01 0.0000000000e+00 
          0.0000000000e+00 2.0000000000e+01 0.0000000000e+00 
          0.0000000000e+00 2.0769231000e+01 0.0000000000e+00 
          0.0000000000e+00 2.1538462000e+01 0.0000000000e+00 
          0.0000000000e+00 2.2307692000e+01 0.0000000000e+00 
          0.0000000000e+00 2.3076923000e+01 0.0000000000e+00 
          0.0000000000e+00 2.3846154000e+01 0.0000000000e+00 
          0.0000000000e+00 2.4615385000e+01 0.0000000000e+00 
          0.0000000000e+00 2.5384615000e+01 0.0000000000e+00 
          0.0000000000e+00 2.6153846000e+01 0.0000000000e+00 
          0.0000000000e+00 2.6923077000e+01 0.0000000000e+00 
          0.0000000000e+00 2.7692308000e+01 0.0000000000e+00 
          0.0000000000e+00 2.8461538000e+01 0.0000000000e+00 
          0.0000000000e+00 2.9230769000e+01 0.0000000000e+00 
        </DataArray>
      </Points>
      <Cells>
        <DataArray type="Int64" Name="connectivity" format="ascii">
          0 1 4 42 
          42 4 5 43 
          43 5 6 44 
          44 6 7 45 
          45 7 8 46 
          46 8 9 47 
          47 9 10 48 
          48 10 11 49 
          49 11 12 50 
          50 12 13 51 
          51 13 14 52 
          52 14 15 53 
          53 15 16 54 
          54 16 17 55 
          55 17 18 56 
          56 18 19 57 
          57 19 20 58 
          58 20 21 59 
          59 21 22 60 
          60 22 23 61 
          61 23 24 62 
          62 24 25 63 
          63 25 26 64 
          64 26 27 65 
          65 27 28 66 
          66 28 29 67 
          67 29 30 68 
          68 30 31 69 
          69 31 32 70 
          70 32 33 71 
          71 33 34 72 
          72 34 35 73 
          73 35 36 74 
          74 36 37 75 
          75 37 38 76 
          76 38 39 77 
          77 39 40 78 
          78 40 41 79 
          79 41 2 3 
        </DataArray>
        <DataArray type="Int64" Name="offsets" format="ascii">
          4
          8
          12
          16
          20
          24
          28
          32
          36
          40
          44
          48
          52
          56
          60
          64
          68
          72
          76
          80
          84
          88
          92
          96
          100
          104
          108
          112
          116
          120
          124
          128
          132
          136
          140
          144
          148
          152
          156
        </DataArray>
        <DataArray type="Int64" Name="types" format="ascii">
          9
          9
          9
          9
          9
          9
          9
          9
          9
          9
          9
          9
          9
          9
          9
          9
          9
          9
          9
          9
          9
          9
          9
          9
          9
          9
          9
          9
          9
          9
          9
          9
          9
          9
          9
          9
          9
          9
          9
        </DataArray>
      </Cells>
      <PointData>
        <DataArray type="Int64" Name="NodeTag" format="ascii">
          1
          2
          3
          4
          7
          8
          9
          10
          11
          12
          13
          14
          15
          16
          17
          18
          19
          20
          21
          22
          23
          24
          25
          26
          27
          28
          29
          30
          31
          32
          33
          34
          35
          36
          37
          38
          39
          40
          41
          42
          43
          44
          45
          46
          47
          48
          49
          50
          51
          52
          53
          54
          55
          56
          57
          58
          59
          60
          61
          62
          63
          64
          65
          66
          67
          68
          69
          70
          71
          72
          73
          74
          75
          76
          77
          78
          79
          80
          81
          82
        </DataArray>
        <DataArray type="Float64" Name="Velocity" NumberOfComponents="3" format="ascii">
          5.4348047448e-06 -7.7843187841e-05 0.0000000000e+00 
          5.4348047448e-06 -7.7843187841e-05 0.0000000000e+00 
          3.3817532166e-05 -7.7803807112e-05 0.0000000000e+00 
          3.3817532166e-05 -7.7803807112e-05 0.0000000000e+00 
          6.6792701528e-06 -7.7877496687e-05 0.0000000000e+00 
          7.9072054583e-06 -7.7790479731e-05 0.0000000000e+00 
          9.1267589646e-06 -7.7906460113e-05 0.0000000000e+00 
          1.0323015773e-05 -7.7786081597e-05 0.0000000000e+00 
          1.1507591606e-05 -7.7885946281e-05 0.0000000000e+00 
          1.2670998380e-05 -7.7833758034e-05 0.0000000000e+00 
          1.3813695901e-05 -7.7820163846e-05 0.0000000000e+00 
          1.4938145460e-05 -7.7890488205e-05 0.0000000000e+00 
          1.6035242884e-05 -7.7799148976e-05 0.0000000000e+00 
          1.7114190867e-05 -7.7873132026e-05 0.0000000000e+00 
          1.8164609690e-05 -7.7832011761e-05 0.0000000000e+00 
          1.9187845584e-05 -7.7851562745e-05 0.0000000000e+00 
          2.0190402559e-05 -7.7832193557e-05 0.0000000000e+00 
          2.1155229459e-05 -7.7863227284e-05 0.0000000000e+00 
          2.2099896882e-05 -7.7824283068e-05 0.0000000000e+00 
          2.3008071575e-05 -7.7859715392e-05 0.0000000000e+00 
          2.3887586748e-05 -7.7836064214e-05 0.0000000000e+00 
          2.4735032406e-05 -7.7846569845e-05 0.0000000000e+00 
          2.5547939295e-05 -7.7845867747e-05 0.0000000000e+00 
          2.6328825162e-05 -7.7840718318e-05 0.0000000000e+00 
          2.7072206519e-05 -7.7849919209e-05 0.0000000000e+00 
          2.7783871172e-05 -7.7837817764e-05 0.0000000000e+00 
          2.8454315748e-05 -7.7849657874e-05 0.0000000000e+00 
          2.9092066866e-05 -7.7838756083e-05 0.0000000000e+00 
          2.9690161529e-05 -7.7858206547e-05 0.0000000000e+00 
          3.0247937865e-05 -7.7815431789e-05 0.0000000000e+00 
          3.0772118001e-05 -7.7884691514e-05 0.0000000000e+00 
          3.1249844819e-05 -7.7807178645e-05 0.0000000000e+00 
          3.1692304670e-05 -7.7863602824e-05 0.0000000000e+00 
          3.2095027084e-05 -7.7846849430e-05 0.0000000000e+00 
          3.2449277981e-05 -7.7831205842e-05 0.0000000000e+00 
          3.2773741865e-05 -7.7851995253e-05 0.0000000000e+00 
          3.3045068269e-05 -7.7850136848e-05 0.0000000000e+00 
          3.3282184211e-05 -7.7830283676e-05 0.0000000000e+00 
          3.3474276246e-05 -7.7854093666e-05 0.0000000000e+00 
          3.3621749286e-05 -7.7849275715e-05 0.0000000000e+00 
          3.3732281823e-05 -7.7822170465e-05 0.0000000000e+00 
          3.3792888361e-05 -7.7879834888e-05 0.0000000000e+00 
          6.6792701528e-06 -7.7877496687e-05 0.0000000000e+00 
          7.9072054583e-06 -7.7790479731e-05 0.0000000000e+00 
          9.1267589646e-06 -7.7906460113e-05 0.0000000000e+00 
          1.0323015773e-05 -7.7786081597e-05 0.0000000000e+00 
          1.1507591606e-05 -7.7885946281e-05 0.0000000000e+00 
          1.2670998380e-05 -7.7833758034e-05 0.0000000000e+00 
          1.3813695901e-05 -7.7820163846e-05 0.0000000000e+00 
          1.4938145460e-05 -7.7890488205e-05 0.0000000000e+00 
          1.6035242884e-05 -7.7799148976e-05 0.0000000000e+00 
          1.7114190867e-05 -7.7873132026e-05 0.0000000000e+00 
          1.8164609690e-05 -7.7832011761e-05 0.0000000000e+00 
          1.9187845584e-05 -7.7851562745e-05 0.0000000000e+00 
          2.0190402559e-05 -7.7832193557e-05 0.0000000000e+00 
          2.1155229459e-05 -7.7863227284e-05 0.0000000000e+00 
          2.2099896882e-05 -7.7824283068e-05 0.0000000000e+00 
          2.3008071575e-05 -7.7859715392e-05 0.0000000000e+00 
          2.3887586748e-05 -7.7836064214e-05 0.0000000000e+00 
          2.4735032406e-05 -7.7846569845e-05 0.0000000000e+00 
          2.5547939295e-05 -7.7845867747e-05 0.0000000000e+00 
          2.6328825162e-05 -7.7840718318e-05 0.0000000000e+00 
          2.7072206519e-05 -7.7849919209e-05 0.0000000000e+00 
          2.7783871172e-05 -7.7837817764e-05 0.0000000000e+00 
          2.8454315748e-05 -7.7849657874e-05 0.0000000000e+00 
          2.9092066866e-05 -7.7838756083e-05 0.0000000000e+00 
          2.9690161529e-05 -7.7858206547e-05 0.0000000000e+00 
          3.0247937865e-05 -7.7815431789e-05 0.0000000000e+00 
          3.0772118001e-05 -7.7884691514e-05 0.0000000000e+00 
          3.1249844819e-05 -7.7807178645e-05 0.0000000000e+00 
          3.1692304670e-05 -7.7863602824e-05 0.0000000000e+00 
          3.2095027084e-05 -7.7846849430e-05 0.0000000000e+00 
          3.2449277981e-05 -7.7831205842e-05 0.0000000000e+00 
          3.2773741865e-05 -7.7851995253e-05 0.0000000000e+00 
          3.3045068269e-05 -7.7850136848e-05 0.0000000000e+00 
          3.3282184211e-05 -7.7830283676e-05 0.0000000000e+00 
          3.3474276246e-05 -7.7854093666e-05 0.0000000000e+00 
          3.3621749286e-05 -7.7849275715e-05 0.0000000000e+00 
          3.3732281823e-05 -7.7822170465e-05 0.0000000000e+00 
          3.3792888361e-05 -7.7879834888e-05 0.0000000000e+00 
        </DataArray>
        <DataArray type="Float64" Name="Displacement" NumberOfComponents="3" format="ascii">
          -6.2044465872e-07 -6.4506347227e-04 0.0000000000e+00 
          -6.2044465872e-07 -6.4506347227e-04 0.0000000000e+00 
          1.7948777497e-06 -6.6864372560e-04 0.0000000000e+00 
          1.7948777497e-06 -6.6864372560e-04 0.0000000000e+00 
          -5.2977264730e-07 -6.4625720168e-04 0.0000000000e+00 
          -4.3846811734e-07 -6.4741999461e-04 0.0000000000e+00 
          -3.4671428759e-07 -6.4855164711e-04 0.0000000000e+00 
          -2.5471699566e-07 -6.4965244579e-04 0.0000000000e+00 
          -1.6267850329e-07 -6.5072211949e-04 0.0000000000e+00 
          -7.0776383452e-08 -6.5176084906e-04 0.0000000000e+00 
          2.0776951271e-08 -6.5276854761e-04 0.0000000000e+00 
          1.1179097780e-07 -6.5374527321e-04 0.0000000000e+00 
          2.0209155853e-07 -6.5469090508e-04 0.0000000000e+00 
          2.9145837265e-07 -6.5560567911e-04 0.0000000000e+00 
          3.7973598411e-07 -6.5648928547e-04 0.0000000000e+00 
          4.6672894349e-07 -6.5734198883e-04 0.0000000000e+00 
          5.5224124815e-07 -6.5816367403e-04 0.0000000000e+00 
          6.3613535427e-07 -6.5895430098e-04 0.0000000000e+00 
          7.1819739079e-07 -6.5971398314e-04 0.0000000000e+00 
          7.9828707586e-07 -6.6044262141e-04 0.0000000000e+00 
          8.7623942581e-07 -6.6114026650e-04 0.0000000000e+00 
          9.5187511236e-07 -6.6180690102e-04 0.0000000000e+00 
          1.0250767384e-06 -6.6244253651e-04 0.0000000000e+00 
          1.0956653937e-06 -6.6304715381e-04 0.0000000000e+00 
          1.1635145712e-06 -6.6362077016e-04 0.0000000000e+00 
          1.2285005118e-06 -6.6416339689e-04 0.0000000000e+00 
          1.2904579774e-06 -6.6467497841e-04 0.0000000000e+00 
          1.3493156293e-06 -6.6515559033e-04 0.0000000000e+00 
          1.4049096535e-06 -6.6560518926e-04 0.0000000000e+00 
          1.4571600669e-06 -6.6602375487e-04 0.0000000000e+00 
          1.5059616066e-06 -6.6641134858e-04 0.0000000000e+00 
          1.5511995563e-06 -6.6676793055e-04 0.0000000000e+00 
          1.5928181569e-06 -6.6709346895e-04 0.0000000000e+00 
          1.6307061719e-06 -6.6738804334e-04 0.0000000000e+00 
          1.6648088934e-06 -6.6765164167e-04 0.0000000000e+00 
          1.6950549923e-06 -6.6788407074e-04 0.0000000000e+00 
          1.7213864707e-06 -6.6808577248e-04 0.0000000000e+00 
          1.7437516470e-06 -6.6825616094e-04 0.0000000000e+00 
          1.7621097534e-06 -6.6839578212e-04 0.0000000000e+00 
          1.7764262107e-06 -6.6850427911e-04 0.0000000000e+00 
          1.7866686882e-06 -6.6858175161e-04 0.0000000000e+00 
          1.7928243439e-06 -6.6862836620e-04 0.0000000000e+00 
          -5.2977264730e-07 -6.4625720168e-04 0.0000000000e+00 
          -4.3846811734e-07 -6.4741999461e-04 0.0000000000e+00 
          -3.4671428759e-07 -6.4855164711e-04 0.0000000000e+00 
          -2.5471699566e-07 -6.4965244579e-04 0.0000000000e+00 
          -1.6267850329e-07 -6.5072211949e-04 0.0000000000e+00 
          -7.0776383452e-08 -6.5176084906e-04 0.0000000000e+00 
          2.0776951271e-08 -6.5276854761e-04 0.0000000000e+00 
          1.1179097780e-07 -6.5374527321e-04 0.0000000000e+00 
          2.0209155853e-07 -6.5469090508e-04 0.0000000000e+00 
          2.9145837265e-07 -6.5560567911e-04 0.0000000000e+00 
          3.7973598411e-07 -6.5648928547e-04 0.0000000000e+00 
          4.6672894349e-07 -6.5734198883e-04 0.0000000000e+00 
          5.5224124815e-07 -6.5816367403e-04 0.0000000000e+00 
          6.3613535427e-07 -6.5895430098e-04 0.0000000000e+00 
          7.1819739079e-07 -6.5971398314e-04 0.0000000000e+00 
          7.9828707586e-07 -6.6044262141e-04 0.0000000000e+00 
          8.7623942581e-07 -6.6114026650e-04 0.0000000000e+00 
          9.5187511236e-07 -6.6180690102e-04 0.0000000000e+00 
          1.0250767384e-06 -6.6244253651e-04 0.0000000000e+00 
          1.0956653937e-06 -6.6304715381e-04 0.0000000000e+00 
          1.1635145712e-06 -6.6362077016e-04 0.0000000000e+00 
          1.2285005118e-06 -6.6416339689e-04 0.0000000000e+00 
          1.2904579774e-06 -6.6467497841e-04 0.0000000000e+00 
          1.3493156293e-06 -6.6515559033e-04 0.0000000000e+00 
          1.4049096535e-06 -6.6560518926e-04 0.0000000000e+00 
          1.4571600669e-06 -6.6602375487e-04 0.0000000000e+00 
          1.5059616066e-06 -6.6641134858e-04 0.0000000000e+00 
          1.5511995563e-06 -6.6676793055e-04 0.0000000000e+00 
          1.5928181569e-06 -6.6709346895e-04 0.0000000000e+00 
          1.6307061719e-06 -6.6738804334e-04 0.0000000000e+00 
          1.6648088934e-06 -6.6765164167e-04 0.0000000000e+00 
          1.6950549923e-06 -6.6788407074e-04 0.0000000000e+00 
          1.7213864707e-06 -6.6808577248e-04 0.0000000000e+00 
          1.7437516470e-06 -6.6825616094e-04 0.0000000000e+00 
          1.7621097534e-06 -6.6839578212e-04 0.0000000000e+00 
          1.7764262107e-06 -6.6850427911e-04 0.0000000000e+00 
          1.7866686882e-06 -6.6858175161e-04 0.0000000000e+00 
          1.7928243439e-06 -6.6862836620e-04 0.0000000000e+00 
        </DataArray>
        <DataArray type="Float64" Name="Acceleration" NumberOfComponents="3" format="ascii">
          7.5303042457e-05 -2.0440969400e-06 0.0000000000e+00 
          7.5303042457e-05 -2.0440969400e-06 0.0000000000e+00 
          -3.7003182691e-04 -5.1815645711e-05 0.0000000000e+00 
          -3.7003182691e-04 -5.1815645711e-05 0.0000000000e+00 
          5.6991168281e-05 -1.2589638419e-05 0.0000000000e+00 
          4.0493572383e-05 2.3903001555e-05 0.0000000000e+00 
          2.1925689951e-05 -2.7216460564e-05 0.0000000000e+00 
          3.7122419284e-06 2.1380959667e-05 0.0000000000e+00 
          -1.2287435307e-05 -1.1210530700e-05 0.0000000000e+00 
          -3.1415523912e-05 4.2169322792e-06 0.0000000000e+00 
          -4.8603489267e-05 -5.7775460971e-06 0.0000000000e+00 
          -6.4282875033e-05 1.5746584933e-05 0.0000000000e+00 
          -8.4134215086e-05 -2.6757511253e-05 0.0000000000e+00 
          -9.8129034833e-05 2.8868502946e-05 0.0000000000e+00 
          -1.1576010501e-04 -1.8410479186e-05 0.0000000000e+00 
          -1.3340991413e-04 2.1316380601e-06 0.0000000000e+00 
          -1.4580288384e-04 9.3535171806e-06 0.0000000000e+00 
          -1.6507308947e-04 -1.1092050656e-05 0.0000000000e+00 
          -1.7770349449e-04 6.6015539446e-06 0.0000000000e+00 
          -1.9258762240e-04 -2.1960909746e-06 0.0000000000e+00 
          -2.0873594627e-04 7.6223870138e-07 0.0000000000e+00 
          -2.1931365864e-04 -1.3176901613e-06 0.0000000000e+00 
          -2.3542571347e-04 2.0002226790e-06 0.0000000000e+00 
          -2.4684078597e-04 -8.2684544062e-07 0.0000000000e+00 
          -2.5798329643e-04 -3.0137809095e-06 0.0000000000e+00 
          -2.7287157381e-04 7.0075310878e-06 0.0000000000e+00 
          -2.7929263171e-04 -6.7315025152e-06 0.0000000000e+00 
          -2.9406638703e-04 1.3170113209e-06 0.0000000000e+00 
          -3.0126593278e-04 4.8616459454e-06 0.0000000000e+00 
          -3.1075032551e-04 -6.2068611749e-06 0.0000000000e+00 
          -3.2108650094e-04 9.7525846449e-07 0.0000000000e+00 
          -3.2610583896e-04 6.6372019240e-06 0.0000000000e+00 
          -3.3613822978e-04 -7.5475960427e-06 0.0000000000e+00 
          -3.4106240853e-04 -5.4581876334e-06 0.0000000000e+00 
          -3.4748932489e-04 2.9360866772e-05 0.0000000000e+00 
          -3.5271217389e-04 -5.0321854487e-05 0.0000000000e+00 
          -3.5737496806e-04 5.5364911685e-05 0.0000000000e+00 
          -3.6104491322e-04 -4.3081658129e-05 0.0000000000e+00 
          -3.6416056537e-04 2.1239142677e-05 0.0000000000e+00 
          -3.6707266746e-04 3.2566994106e-06 0.0000000000e+00 
          -3.6823214852e-04 -2.6726087794e-05 0.0000000000e+00 
          -3.6962082473e-04 4.4844727745e-05 0.0000000000e+00 
          5.6991168281e-05 -1.2589638419e-05 0.0000000000e+00 
          4.0493572383e-05 2.3903001555e-05 0.0000000000e+00 
          2.1925689951e-05 -2.7216460564e-05 0.0000000000e+00 
          3.7122419284e-06 2.1380959667e-05 0.0000000000e+00 
          -1.2287435307e-05 -1.1210530700e-05 0.0000000000e+00 
          -3.1415523912e-05 4.2169322792e-06 0.0000000000e+00 
          -4.8603489267e-05 -5.7775460971e-06 0.0000000000e+00 
          -6.4282875033e-05 1.5746584933e-05 0.0000000000e+00 
          -8.4134215086e-05 -2.6757511253e-05 0.0000000000e+00 
          -9.8129034833e-05 2.8868502946e-05 0.0000000000e+00 
          -1.1576010501e-04 -1.8410479186e-05 0.0000000000e+00 
          -1.3340991413e-04 2.1316380601e-06 0.0000000000e+00 
          -1.4580288384e-04 9.3535171806e-06 0.0000000000e+00 
          -1.6507308947e-04 -1.1092050656e-05 0.0000000000e+00 
          -1.7770349449e-04 6.6015539446e-06 0.0000000000e+00 
          -1.9258762240e-04 -2.1960909746e-06 0.0000000000e+00 
          -2.0873594627e-04 7.6223870138e-07 0.0000000000e+00 
          -2.1931365864e-04 -1.3176901613e-06 0.0000000000e+00 
          -2.3542571347e-04 2.0002226790e-06 0.0000000000e+00 
          -2.4684078597e-04 -8.2684544062e-07 0.0000000000e+00 
          -2.5798329643e-04 -3.0137809095e-06 0.0000000000e+00 
          -2.7287157381e-04 7.0075310878e-06 0.0000000000e+00 
          -2.7929263171e-04 -6.7315025152e-06 0.0000000000e+00 
          -2.9406638703e-04 1.3170113209e-06 0.0000000000e+00 
          -3.0126593278e-04 4.8616459454e-06 0.0000000000e+00 
          -3.1075032551e-04 -6.2068611749e-06 0.0000000000e+00 
          -3.2108650094e-04 9.7525846449e-07 0.0000000000e+00 
          -3.2610583896e-04 6.6372019240e-06 0.0000000000e+00 
          -3.3613822978e-04 -7.5475960427e-06 0.0000000000e+00 
          -3.4106240853e-04 -5.4581876334e-06 0.0000000000e+00 
          -3.4748932489e-04 2.9360866772e-05 0.0000000000e+00 
          -3.5271217389e-04 -5.0321854487e-05 0.0000000000e+00 
          -3.5737496806e-04 5.5364911685e-05 0.0000000000e+00 
          -3.6104491322e-04 -4.3081658129e-05 0.0000000000e+00 
          -3.6416056537e-04 2.1239142677e-05 0.0000000000e+00 
          -3.6707266746e-04 3.2566994106e-06 0.0000000000e+00 
          -3.6823214852e-04 -2.6726087794e-05 0.0000000000e+00 
          -3.6962082473e-04 4.4844727745e-05 0.0000000000e+00 
        </DataArray>
        <DataArray type="Float64" Name="Reaction" NumberOfComponents="3" format="ascii">
          0.0000000000e+00 0.0000000000e+00 0.0000000000e+00 
          0.0000000000e+00 0.0000000000e+00 0.0000000000e+00 
          0.0000000000e+00 0.0000000000e+00 0.0000000000e+00 
          0.0000000000e+00 0.0000000000e+00 0.0000000000e+00 
          0.0000000000e+00 0.0000000000e+00 0.0000000000e+00 
          0.0000000000e+00 0.0000000000e+00 0.0000000000e+00 
          0.0000000000e+00 0.0000000000e+00 0.0000000000e+00 
          0.0000000000e+00 0.0000000000e+00 0.0000000000e+00 
          0.0000000000e+00 0.0000000000e+00 0.0000000000e+00 
          0.0000000000e+00 0.0000000000e+00 0.0000000000e+00 
          0.0000000000e+00 0.0000000000e+00 0.0000000000e+00 
          0.0000000000e+00 0.0000000000e+00 0.0000000000e+00 
          0.0000000000e+00 0.0000000000e+00 0.0000000000e+00 
          0.0000000000e+00 0.0000000000e+00 0.0000000000e+00 
          0.0000000000e+00 0.0000000000e+00 0.0000000000e+00 
          0.0000000000e+00 0.0000000000e+00 0.0000000000e+00 
          0.0000000000e+00 0.0000000000e+00 0.0000000000e+00 
          0.0000000000e+00 0.0000000000e+00 0.0000000000e+00 
          0.0000000000e+00 0.0000000000e+00 0.0000000000e+00 
          0.0000000000e+00 0.0000000000e+00 0.0000000000e+00 
          0.0000000000e+00 0.0000000000e+00 0.0000000000e+00 
          0.0000000000e+00 0.0000000000e+00 0.0000000000e+00 
          0.0000000000e+00 0.0000000000e+00 0.0000000000e+00 
          0.0000000000e+00 0.0000000000e+00 0.0000000000e+00 
          0.0000000000e+00 0.0000000000e+00 0.0000000000e+00 
          0.0000000000e+00 0.0000000000e+00 0.0000000000e+00 
          0.0000000000e+00 0.0000000000e+00 0.0000000000e+00 
          0.0000000000e+00 0.0000000000e+00 0.0000000000e+00 
          0.0000000000e+00 0.0000000000e+00 0.0000000000e+00 
          0.0000000000e+00 0.0000000000e+00 0.0000000000e+00 
          0.0000000000e+00 0.0000000000e+00 0.0000000000e+00 
          0.0000000000e+00 0.0000000000e+00 0.0000000000e+00 
          0.0000000000e+00 0.0000000000e+00 0.0000000000e+00 
          0.0000000000e+00 0.0000000000e+00 0.0000000000e+00 
          0.0000000000e+00 0.0000000000e+00 0.0000000000e+00 
          0.0000000000e+00 0.0000000000e+00 0.0000000000e+00 
          0.0000000000e+00 0.0000000000e+00 0.0000000000e+00 
          0.0000000000e+00 0.0000000000e+00 0.0000000000e+00 
          0.0000000000e+00 0.0000000000e+00 0.0000000000e+00 
          0.0000000000e+00 0.0000000000e+00 0.0000000000e+00 
          0.0000000000e+00 0.0000000000e+00 0.0000000000e+00 
          0.0000000000e+00 0.0000000000e+00 0.0000000000e+00 
          0.0000000000e+00 0.0000000000e+00 0.0000000000e+00 
          0.0000000000e+00 0.0000000000e+00 0.0000000000e+00 
          0.0000000000e+00 0.0000000000e+00 0.0000000000e+00 
          0.0000000000e+00 0.0000000000e+00 0.0000000000e+00 
          0.0000000000e+00 0.0000000000e+00 0.0000000000e+00 
          0.0000000000e+00 0.0000000000e+00 0.0000000000e+00 
          0.0000000000e+00 0.0000000000e+00 0.0000000000e+00 
          0.0000000000e+00 0.0000000000e+00 0.0000000000e+00 
          0.0000000000e+00 0.0000000000e+00 0.0000000000e+00 
          0.0000000000e+00 0.0000000000e+00 0.0000000000e+00 
          0.0000000000e+00 0.0000000000e+00 0.0000000000e+00 
          0.0000000000e+00 0.0000000000e+00 0.0000000000e+00 
          0.0000000000e+00 0.0000000000e+00 0.0000000000e+00 
          0.0000000000e+00 0.0000000000e+00 0.0000000000e+00 
          0.0000000000e+00 0.0000000000e+00 0.0000000000e+00 
          0.0000000000e+00 0.0000000000e+00 0.0000000000e+00 
          0.0000000000e+00 0.0000000000e+00 0.0000000000e+00 
          0.0000000000e+00 0.0000000000e+00 0.0000000000e+00 
          0.0000000000e+00 0.0000000000e+00 0.0000000000e+00 
          0.0000000000e+00 0.0000000000e+00 0.0000000000e+00 
          0.0000000000e+00 0.0000000000e+00 0.0000000000e+00 
          0.0000000000e+00 0.0000000000e+00 0.0000000000e+00 
          0.0000000000e+00 0.0000000000e+00 0.0000000000e+00 
          0.0000000000e+00 0.0000000000e+00 0.0000000000e+00 
          0.0000000000e+00 0.0000000000e+00 0.0000000000e+00 
          0.0000000000e+00 0.0000000000e+00 0.0000000000e+00 
          0.0000000000e+00 0.0000000000e+00 0.0000000000e+00 
          0.0000000000e+00 0.0000000000e+00 0.0000000000e+00 
          0.0000000000e+00 0.0000000000e+00 0.0000000000e+00 
          0.0000000000e+00 0.0000000000e+00 0.0000000000e+00 
          0.0000000000e+00 0.0000000000e+00 0.0000000000e+00 
          0.0000000000e+00 0.0000000000e+00 0.0000000000e+00 
          0.0000000000e+00 0.0000000000e+00 0.0000000000e+00 
          0.0000000000e+00 0.0000000000e+00 0.0000000000e+00 
          0.0000000000e+00 0.0000000000e+00 0.0000000000e+00 
          0.0000000000e+00 0.0000000000e+00 0.0000000000e+00 
          0.0000000000e+00 0.0000000000e+00 0.0000000000e+00 
          0.0000000000e+00 0.0000000000e+00 0.0000000000e+00 
        </DataArray>
      </PointData>
      <CellData>
        <DataArray type="Int64" Name="ElementTag" format="ascii">
          90
          91
          92
          93
          94
          95
          96
          97
          98
          99
          100
          101
          102
          103
          104
          105
          106
          107
          108
          109
          110
          111
          112
          113
          114
          115
          116
          117
          118
          119
          120
          121
          122
          123
          124
          125
          126
          127
          128
        </DataArray>
      </CellData>
    </Piece>
  </UnstructuredGrid>
</VTKFile>
