<?xml version="1.0"?>
<VTKFile type="UnstructuredGrid" version="1.0" byte_order="LittleEndian" compressor="vtkZLibDataCompressor">
  <UnstructuredGrid>
    <Piece NumberOfPoints="82" NumberOfCells="1">
      <Points>
        <DataArray type="Float64" Name="Points" NumberOfComponents="3" format="ascii">
          0.0000000000e+00 0.0000000000e+00 0.0000000000e+00 
          2.5000000000e-01 0.0000000000e+00 0.0000000000e+00 
          2.5000000000e-01 3.0000000000e+01 0.0000000000e+00 
          0.0000000000e+00 3.0000000000e+01 0.0000000000e+00 
          0.0000000000e+00 -5.0000000000e+00 0.0000000000e+00 
          2.5000000000e-01 -5.0000000000e+00 0.0000000000e+00 
          2.5000000000e-01 7.6923100000e-01 0.0000000000e+00 
          2.5000000000e-01 1.5384620000e+00 0.0000000000e+00 
          2.5000000000e-01 2.3076920000e+00 0.0000000000e+00 
          2.5000000000e-01 3.0769230000e+00 0.0000000000e+00 
          2.5000000000e-01 3.8461540000e+00 0.0000000000e+00 
          2.5000000000e-01 4.6153850000e+00 0.0000000000e+00 
          2.5000000000e-01 5.3846150000e+00 0.0000000000e+00 
          2.5000000000e-01 6.1538460000e+00 0.0000000000e+00 
          2.5000000000e-01 6.9230770000e+00 0.0000000000e+00 
          2.5000000000e-01 7.6923080000e+00 0.0000000000e+00 
          2.5000000000e-01 8.4615380000e+00 0.0000000000e+00 
          2.5000000000e-01 9.2307690000e+00 0.0000000000e+00 
          2.5000000000e-01 1.0000000000e+01 0.0000000000e+00 
          2.5000000000e-01 1.0769231000e+01 0.0000000000e+00 
          2.5000000000e-01 1.1538462000e+01 0.0000000000e+00 
          2.5000000000e-01 1.2307692000e+01 0.0000000000e+00 
          2.5000000000e-01 1.3076923000e+01 0.0000000000e+00 
          2.5000000000e-01 1.3846154000e+01 0.0000000000e+00 
          2.5000000000e-01 1.4615385000e+01 0.0000000000e+00 
          2.5000000000e-01 1.5384615000e+01 0.0000000000e+00 
          2.5000000000e-01 1.6153846000e+01 0.0000000000e+00 
          2.5000000000e-01 1.6923077000e+01 0.0000000000e+00 
          2.5000000000e-01 1.7692308000e+01 0.0000000000e+00 
          2.5000000000e-01 1.8461538000e+01 0.0000000000e+00 
          2.5000000000e-01 1.9230769000e+01 0.0000000000e+00 
          2.5000000000e-01 2.0000000000e+01 0.0000000000e+00 
          2.5000000000e-01 2.0769231000e+01 0.0000000000e+00 
          2.5000000000e-01 2.1538462000e+01 0.0000000000e+00 
          2.5000000000e-01 2.2307692000e+01 0.0000000000e+00 
          2.5000000000e-01 2.3076923000e+01 0.0000000000e+00 
          2.5000000000e-01 2.3846154000e+01 0.0000000000e+00 
          2.5000000000e-01 2.4615385000e+01 0.0000000000e+00 
          2.5000000000e-01 2.5384615000e+01 0.0000000000e+00 
          2.5000000000e-01 2.6153846000e+01 0.0000000000e+00 
          2.5000000000e-01 2.6923077000e+01 0.0000000000e+00 
          2.5000000000e-01 2.7692308000e+01 0.0000000000e+00 
          2.5000000000e-01 2.8461538000e+01 0.0000000000e+00 
          2.5000000000e-01 2.9230769000e+01 0.0000000000e+00 
          0.0000000000e+00 7.6923100000e-01 0.0000000000e+00 
          0.0000000000e+00 1.5384620000e+00 0.0000000000e+00 
          0.0000000000e+00 2.3076920000e+00 0.0000000000e+00 
          0.0000000000e+00 3.0769230000e+00 0.0000000000e+00 
          0.0000000000e+00 3.8461540000e+00 0.0000000000e+00 
          0.0000000000e+00 4.6153850000e+00 0.0000000000e+00 
          0.0000000000e+00 5.3846150000e+00 0.0000000000e+00 
          0.0000000000e+00 6.1538460000e+00 0.0000000000e+00 
          0.0000000000e+00 6.9230770000e+00 0.0000000000e+00 
          0.0000000000e+00 7.6923080000e+00 0.0000000000e+00 
          0.0000000000e+00 8.4615380000e+00 0.0000000000e+00 
          0.0000000000e+00 9.2307690000e+00 0.0000000000e+00 
          0.0000000000e+00 1.0000000000e+01 0.0000000000e+00 
          0.0000000000e+00 1.0769231000e+01 0.0000000000e+00 
          0.0000000000e+00 1.1538462000e+01 0.0000000000e+00 
          0.0000000000e+00 1.2307692000e+01 0.0000000000e+00 
          0.0000000000e+00 1.3076923000e+01 0.0000000000e+00 
          0.0000000000e+00 1.3846154000e+01 0.0000000000e+00 
          0.0000000000e+00 1.4615385000e+01 0.0000000000e+00 
          0.0000000000e+00 1.5384615000e+01 0.0000000000e+00 
          0.0000000000e+00 1.6153846000e+01 0.0000000000e+00 
          0.0000000000e+00 1.6923077000e+01 0.0000000000e+00 
          0.0000000000e+00 1.7692308000e+01 0.0000000000e+00 
          0.0000000000e+00 1.8461538000e+01 0.0000000000e+00 
          0.0000000000e+00 1.9230769000e+01 0.0000000000e+00 
          0.0000000000e+00 2.0000000000e+01 0.0000000000e+00 
          0.0000000000e+00 2.0769231000e+01 0.0000000000e+00 
          0.0000000000e+00 2.1538462000e+01 0.0000000000e+00 
          0.0000000000e+00 2.2307692000e+01 0.0000000000e+00 
          0.0000000000e+00 2.3076923000e+01 0.0000000000e+00 
          0.0000000000e+00 2.3846154000e+01 0.0000000000e+00 
          0.0000000000e+00 2.4615385000e+01 0.0000000000e+00 
          0.0000000000e+00 2.5384615000e+01 0.0000000000e+00 
          0.0000000000e+00 2.6153846000e+01 0.0000000000e+00 
          0.0000000000e+00 2.6923077000e+01 0.0000000000e+00 
          0.0000000000e+00 2.7692308000e+01 0.0000000000e+00 
          0.0000000000e+00 2.8461538000e+01 0.0000000000e+00 
          0.0000000000e+00 2.9230769000e+01 0.0000000000e+00 
        </DataArray>
      </Points>
      <Cells>
        <DataArray type="Int64" Name="connectivity" format="ascii">
          0
          1
          2
          3
          4
          5
          6
          7
          8
          9
          10
          11
          12
          13
          14
          15
          16
          17
          18
          19
          20
          21
          22
          23
          24
          25
          26
          27
          28
          29
          30
          31
          32
          33
          34
          35
          36
          37
          38
          39
          40
          41
          42
          43
          44
          45
          46
          47
          48
          49
          50
          51
          52
          53
          54
          55
          56
          57
          58
          59
          60
          61
          62
          63
          64
          65
          66
          67
          68
          69
          70
          71
          72
          73
          74
          75
          76
          77
          78
          79
          80
          81
        </DataArray>
        <DataArray type="Int64" Name="offsets" format="ascii">
          82
        </DataArray>
        <DataArray type="Int64" Name="types" format="ascii">
          2
        </DataArray>
      </Cells>
      <PointData>
        <DataArray type="Int64" Name="NodeTag" format="ascii">
          1
          2
          3
          4
          5
          6
          7
          8
          9
          10
          11
          12
          13
          14
          15
          16
          17
          18
          19
          20
          21
          22
          23
          24
          25
          26
          27
          28
          29
          30
          31
          32
          33
          34
          35
          36
          37
          38
          39
          40
          41
          42
          43
          44
          45
          46
          47
          48
          49
          50
          51
          52
          53
          54
          55
          56
          57
          58
          59
          60
          61
          62
          63
          64
          65
          66
          67
          68
          69
          70
          71
          72
          73
          74
          75
          76
          77
          78
          79
          80
          81
          82
        </DataArray>
        <DataArray type="Float64" Name="Velocity" NumberOfComponents="3" format="ascii">
          -2.4441793951e-04 -7.7845879013e-05 0.0000000000e+00 
          -2.4441793951e-04 -7.7845879013e-05 0.0000000000e+00 
          7.0217488864e-04 -7.7824965828e-05 0.0000000000e+00 
          7.0217488864e-04 -7.7824965828e-05 0.0000000000e+00 
          0.0000000000e+00 0.0000000000e+00 0.0000000000e+00 
          0.0000000000e+00 0.0000000000e+00 0.0000000000e+00 
          -2.0943680199e-04 -7.7888040206e-05 0.0000000000e+00 
          -1.7418896788e-04 -7.7792017501e-05 0.0000000000e+00 
          -1.3877210791e-04 -7.7889474662e-05 0.0000000000e+00 
          -1.0322712252e-04 -7.7820582806e-05 0.0000000000e+00 
          -6.7640561990e-05 -7.7851208099e-05 0.0000000000e+00 
          -3.2092558080e-05 -7.7877826385e-05 0.0000000000e+00 
          3.3704665806e-06 -7.7776599562e-05 0.0000000000e+00 
          3.8647058981e-05 -7.7913688059e-05 0.0000000000e+00 
          7.3694734149e-05 -7.7815383215e-05 0.0000000000e+00 
          1.0842256810e-04 -7.7833284545e-05 0.0000000000e+00 
          1.4276712596e-04 -7.7878418272e-05 0.0000000000e+00 
          1.7666231557e-04 -7.7799568543e-05 0.0000000000e+00 
          2.1003097430e-04 -7.7894324174e-05 0.0000000000e+00 
          2.4281671474e-04 -7.7809016241e-05 0.0000000000e+00 
          2.7493370635e-04 -7.7839684246e-05 0.0000000000e+00 
          3.0633665170e-04 -7.7891821495e-05 0.0000000000e+00 
          3.3694428587e-04 -7.7766519301e-05 0.0000000000e+00 
          3.6669582388e-04 -7.7908517737e-05 0.0000000000e+00 
          3.9554139703e-04 -7.7814422786e-05 0.0000000000e+00 
          4.2339497567e-04 -7.7849707559e-05 0.0000000000e+00 
          4.5022485439e-04 -7.7833311950e-05 0.0000000000e+00 
          4.7595016632e-04 -7.7865564175e-05 0.0000000000e+00 
          5.0053076136e-04 -7.7819715827e-05 0.0000000000e+00 
          5.2391244421e-04 -7.7851403474e-05 0.0000000000e+00 
          5.4602452609e-04 -7.7859397772e-05 0.0000000000e+00 
          5.6685327003e-04 -7.7814832256e-05 0.0000000000e+00 
          5.8631859737e-04 -7.7875001299e-05 0.0000000000e+00 
          6.0439840693e-04 -7.7816310712e-05 0.0000000000e+00 
          6.2104712282e-04 -7.7867577372e-05 0.0000000000e+00 
          6.3621883344e-04 -7.7831248757e-05 0.0000000000e+00 
          6.4989722771e-04 -7.7838850577e-05 0.0000000000e+00 
          6.6203520059e-04 -7.7865645476e-05 0.0000000000e+00 
          6.7260883653e-04 -7.7821199000e-05 0.0000000000e+00 
          6.8160225215e-04 -7.7851382450e-05 0.0000000000e+00 
          6.8898692099e-04 -7.7860521272e-05 0.0000000000e+00 
          6.9474549518e-04 -7.7817350683e-05 0.0000000000e+00 
          6.9887271165e-04 -7.7857256070e-05 0.0000000000e+00 
          7.0135047806e-04 -7.7849939541e-05 0.0000000000e+00 
          -2.0943680199e-04 -7.7888040206e-05 0.0000000000e+00 
          -1.7418896788e-04 -7.7792017501e-05 0.0000000000e+00 
          -1.3877210791e-04 -7.7889474662e-05 0.0000000000e+00 
          -1.0322712252e-04 -7.7820582806e-05 0.0000000000e+00 
          -6.7640561990e-05 -7.7851208099e-05 0.0000000000e+00 
          -3.2092558080e-05 -7.7877826385e-05 0.0000000000e+00 
          3.3704665806e-06 -7.7776599562e-05 0.0000000000e+00 
          3.8647058981e-05 -7.7913688059e-05 0.0000000000e+00 
          7.3694734149e-05 -7.7815383215e-05 0.0000000000e+00 
          1.0842256810e-04 -7.7833284545e-05 0.0000000000e+00 
          1.4276712596e-04 -7.7878418272e-05 0.0000000000e+00 
          1.7666231557e-04 -7.7799568543e-05 0.0000000000e+00 
          2.1003097430e-04 -7.7894324174e-05 0.0000000000e+00 
          2.4281671474e-04 -7.7809016241e-05 0.0000000000e+00 
          2.7493370635e-04 -7.7839684246e-05 0.0000000000e+00 
          3.0633665170e-04 -7.7891821495e-05 0.0000000000e+00 
          3.3694428587e-04 -7.7766519301e-05 0.0000000000e+00 
          3.6669582388e-04 -7.7908517737e-05 0.0000000000e+00 
          3.9554139703e-04 -7.7814422786e-05 0.0000000000e+00 
          4.2339497567e-04 -7.7849707559e-05 0.0000000000e+00 
          4.5022485439e-04 -7.7833311950e-05 0.0000000000e+00 
          4.7595016632e-04 -7.7865564175e-05 0.0000000000e+00 
          5.0053076136e-04 -7.7819715827e-05 0.0000000000e+00 
          5.2391244421e-04 -7.7851403474e-05 0.0000000000e+00 
          5.4602452609e-04 -7.7859397772e-05 0.0000000000e+00 
          5.6685327003e-04 -7.7814832256e-05 0.0000000000e+00 
          5.8631859737e-04 -7.7875001299e-05 0.0000000000e+00 
          6.0439840693e-04 -7.7816310712e-05 0.0000000000e+00 
          6.2104712282e-04 -7.7867577372e-05 0.0000000000e+00 
          6.3621883344e-04 -7.7831248757e-05 0.0000000000e+00 
          6.4989722771e-04 -7.7838850577e-05 0.0000000000e+00 
          6.6203520059e-04 -7.7865645476e-05 0.0000000000e+00 
          6.7260883653e-04 -7.7821199000e-05 0.0000000000e+00 
          6.8160225215e-04 -7.7851382450e-05 0.0000000000e+00 
          6.8898692099e-04 -7.7860521272e-05 0.0000000000e+00 
          6.9474549518e-04 -7.7817350683e-05 0.0000000000e+00 
          6.9887271165e-04 -7.7857256070e-05 0.0000000000e+00 
          7.0135047806e-04 -7.7849939541e-05 0.0000000000e+00 
        </DataArray>
        <DataArray type="Float64" Name="Displacement" NumberOfComponents="3" format="ascii">
          -9.0659565722e-06 -4.7224875375e-04 0.0000000000e+00 
          -9.0659565722e-06 -4.7224875375e-04 0.0000000000e+00 
          -1.0460941898e-04 -4.9583004395e-04 0.0000000000e+00 
          -1.0460941898e-04 -4.9583004395e-04 0.0000000000e+00 
          0.0000000000e+00 0.0000000000e+00 0.0000000000e+00 
          0.0000000000e+00 0.0000000000e+00 0.0000000000e+00 
          -1.3113295754e-05 -4.7344252629e-04 0.0000000000e+00 
          -1.7131948464e-05 -4.7460537526e-04 0.0000000000e+00 
          -2.1116547948e-05 -4.7573705201e-04 0.0000000000e+00 
          -2.5061802027e-05 -4.7683788842e-04 0.0000000000e+00 
          -2.8962467538e-05 -4.7790764918e-04 0.0000000000e+00 
          -3.2813375158e-05 -4.7894637910e-04 0.0000000000e+00 
          -3.6609431082e-05 -4.7995416379e-04 0.0000000000e+00 
          -4.0345637217e-05 -4.8093083045e-04 0.0000000000e+00 
          -4.4017058648e-05 -4.8187665349e-04 0.0000000000e+00 
          -4.7618889219e-05 -4.8279132967e-04 0.0000000000e+00 
          -5.1146360256e-05 -4.8367504100e-04 0.0000000000e+00 
          -5.4594887654e-05 -4.8452775023e-04 0.0000000000e+00 
          -5.7959935293e-05 -4.8534948907e-04 0.0000000000e+00 
          -6.1237094032e-05 -4.8614013118e-04 0.0000000000e+00 
          -6.4422108908e-05 -4.8689982960e-04 0.0000000000e+00 
          -6.7510774381e-05 -4.8762854946e-04 0.0000000000e+00 
          -7.0499114122e-05 -4.8832614263e-04 0.0000000000e+00 
          -7.3383208374e-05 -4.8899286983e-04 0.0000000000e+00 
          -7.6159280911e-05 -4.8962849063e-04 0.0000000000e+00 
          -7.8823764901e-05 -4.9023314773e-04 0.0000000000e+00 
          -8.1373151667e-05 -4.9080681100e-04 0.0000000000e+00 
          -8.3804144330e-05 -4.9134935878e-04 0.0000000000e+00 
          -8.6113600716e-05 -4.9186111617e-04 0.0000000000e+00 
          -8.8298473660e-05 -4.9234162637e-04 0.0000000000e+00 
          -9.0355975041e-05 -4.9279124952e-04 0.0000000000e+00 
          -9.2283414254e-05 -4.9320995824e-04 0.0000000000e+00 
          -9.4078275349e-05 -4.9359738370e-04 0.0000000000e+00 
          -9.5738257505e-05 -4.9395410935e-04 0.0000000000e+00 
          -9.7261184516e-05 -4.9427962518e-04 0.0000000000e+00 
          -9.8645096131e-05 -4.9457422915e-04 0.0000000000e+00 
          -9.9888193786e-05 -4.9483772905e-04 0.0000000000e+00 
          -1.0098885633e-04 -4.9507041123e-04 0.0000000000e+00 
          -1.0194567100e-04 -4.9527181570e-04 0.0000000000e+00 
          -1.0275739604e-04 -4.9544243693e-04 0.0000000000e+00 
          -1.0342296081e-04 -4.9558201532e-04 0.0000000000e+00 
          -1.0394153000e-04 -4.9569040763e-04 0.0000000000e+00 
          -1.0431241496e-04 -4.9576808156e-04 0.0000000000e+00 
          -1.0453513060e-04 -4.9581447847e-04 0.0000000000e+00 
          -1.3113295754e-05 -4.7344252629e-04 0.0000000000e+00 
          -1.7131948464e-05 -4.7460537526e-04 0.0000000000e+00 
          -2.1116547948e-05 -4.7573705201e-04 0.0000000000e+00 
          -2.5061802027e-05 -4.7683788842e-04 0.0000000000e+00 
          -2.8962467538e-05 -4.7790764918e-04 0.0000000000e+00 
          -3.2813375158e-05 -4.7894637910e-04 0.0000000000e+00 
          -3.6609431082e-05 -4.7995416379e-04 0.0000000000e+00 
          -4.0345637217e-05 -4.8093083045e-04 0.0000000000e+00 
          -4.4017058648e-05 -4.8187665349e-04 0.0000000000e+00 
          -4.7618889219e-05 -4.8279132967e-04 0.0000000000e+00 
          -5.1146360256e-05 -4.8367504100e-04 0.0000000000e+00 
          -5.4594887654e-05 -4.8452775023e-04 0.0000000000e+00 
          -5.7959935293e-05 -4.8534948907e-04 0.0000000000e+00 
          -6.1237094032e-05 -4.8614013118e-04 0.0000000000e+00 
          -6.4422108908e-05 -4.8689982960e-04 0.0000000000e+00 
          -6.7510774381e-05 -4.8762854946e-04 0.0000000000e+00 
          -7.0499114122e-05 -4.8832614263e-04 0.0000000000e+00 
          -7.3383208374e-05 -4.8899286983e-04 0.0000000000e+00 
          -7.6159280911e-05 -4.8962849063e-04 0.0000000000e+00 
          -7.8823764901e-05 -4.9023314773e-04 0.0000000000e+00 
          -8.1373151667e-05 -4.9080681100e-04 0.0000000000e+00 
          -8.3804144330e-05 -4.9134935878e-04 0.0000000000e+00 
          -8.6113600716e-05 -4.9186111617e-04 0.0000000000e+00 
          -8.8298473660e-05 -4.9234162637e-04 0.0000000000e+00 
          -9.0355975041e-05 -4.9279124952e-04 0.0000000000e+00 
          -9.2283414254e-05 -4.9320995824e-04 0.0000000000e+00 
          -9.4078275349e-05 -4.9359738370e-04 0.0000000000e+00 
          -9.5738257505e-05 -4.9395410935e-04 0.0000000000e+00 
          -9.7261184516e-05 -4.9427962518e-04 0.0000000000e+00 
          -9.8645096131e-05 -4.9457422915e-04 0.0000000000e+00 
          -9.9888193786e-05 -4.9483772905e-04 0.0000000000e+00 
          -1.0098885633e-04 -4.9507041123e-04 0.0000000000e+00 
          -1.0194567100e-04 -4.9527181570e-04 0.0000000000e+00 
          -1.0275739604e-04 -4.9544243693e-04 0.0000000000e+00 
          -1.0342296081e-04 -4.9558201532e-04 0.0000000000e+00 
          -1.0394153000e-04 -4.9569040763e-04 0.0000000000e+00 
          -1.0431241496e-04 -4.9576808156e-04 0.0000000000e+00 
          -1.0453513060e-04 -4.9581447847e-04 0.0000000000e+00 
        </DataArray>
        <DataArray type="Float64" Name="Acceleration" NumberOfComponents="3" format="ascii">
          2.0965894974e-03 -2.5224150556e-06 0.0000000000e+00 
          2.0965894974e-03 -2.5224150556e-06 0.0000000000e+00 
          1.3387059309e-02 2.2455629011e-05 0.0000000000e+00 
          1.3387059309e-02 2.2455629011e-05 0.0000000000e+00 
          0.0000000000e+00 0.0000000000e+00 0.0000000000e+00 
          0.0000000000e+00 0.0000000000e+00 0.0000000000e+00 
          2.5847078657e-03 -1.4916489999e-05 0.0000000000e+00 
          3.0677980602e-03 2.9633624775e-05 0.0000000000e+00 
          3.5455678192e-03 -2.9645769864e-05 0.0000000000e+00 
          4.0175179684e-03 1.2489280943e-05 0.0000000000e+00 
          4.4832842586e-03 4.4175899824e-06 0.0000000000e+00 
          4.9418047191e-03 -1.1245948032e-05 0.0000000000e+00 
          5.3930323611e-03 2.0367921158e-05 0.0000000000e+00 
          5.8372297670e-03 -2.9321463468e-05 0.0000000000e+00 
          6.2702738851e-03 2.5321717309e-05 0.0000000000e+00 
          6.6995319721e-03 -7.6799207764e-06 0.0000000000e+00 
          7.1133956253e-03 -5.5088383938e-07 0.0000000000e+00 
          7.5216911597e-03 -6.4804548340e-06 0.0000000000e+00 
          7.9189635327e-03 1.6291800764e-05 0.0000000000e+00 
          8.3023439509e-03 -1.1291477493e-05 0.0000000000e+00 
          8.6809153314e-03 -5.1701495702e-06 0.0000000000e+00 
          9.0399142620e-03 2.1859966068e-05 0.0000000000e+00 
          9.3927243876e-03 -2.5293136033e-05 0.0000000000e+00 
          9.7329698364e-03 1.8031516111e-05 0.0000000000e+00 
          1.0054043008e-02 -7.8219776965e-06 0.0000000000e+00 
          1.0370805934e-02 -2.1076783473e-06 0.0000000000e+00 
          1.0667542465e-02 1.9669941201e-05 0.0000000000e+00 
          1.0950658601e-02 -3.8916553806e-05 0.0000000000e+00 
          1.1224965558e-02 4.3296549116e-05 0.0000000000e+00 
          1.1476692736e-02 -2.1381232252e-05 0.0000000000e+00 
          1.1718858166e-02 -1.6563144114e-05 0.0000000000e+00 
          1.1945550235e-02 4.9904845920e-05 0.0000000000e+00 
          1.2152858815e-02 -5.5238309281e-05 0.0000000000e+00 
          1.2348768867e-02 3.6596292537e-05 0.0000000000e+00 
          1.2525748221e-02 -1.6946510974e-05 0.0000000000e+00 
          1.2687615864e-02 1.7613637888e-05 0.0000000000e+00 
          1.2833684397e-02 -3.3992056053e-05 0.0000000000e+00 
          1.2960874480e-02 4.8860597360e-05 0.0000000000e+00 
          1.3072982355e-02 -4.0152238658e-05 0.0000000000e+00 
          1.3169329681e-02 6.5781861955e-06 0.0000000000e+00 
          1.3244591859e-02 3.2390942553e-05 0.0000000000e+00 
          1.3306605308e-02 -5.1906867906e-05 0.0000000000e+00 
          1.3350400999e-02 4.8800330882e-05 0.0000000000e+00 
          1.3373589166e-02 -3.1517699841e-05 0.0000000000e+00 
          2.5847078657e-03 -1.4916489999e-05 0.0000000000e+00 
          3.0677980602e-03 2.9633624775e-05 0.0000000000e+00 
          3.5455678192e-03 -2.9645769864e-05 0.0000000000e+00 
          4.0175179684e-03 1.2489280943e-05 0.0000000000e+00 
          4.4832842586e-03 4.4175899824e-06 0.0000000000e+00 
          4.9418047191e-03 -1.1245948032e-05 0.0000000000e+00 
          5.3930323611e-03 2.0367921158e-05 0.0000000000e+00 
          5.8372297670e-03 -2.9321463468e-05 0.0000000000e+00 
          6.2702738851e-03 2.5321717309e-05 0.0000000000e+00 
          6.6995319721e-03 -7.6799207764e-06 0.0000000000e+00 
          7.1133956253e-03 -5.5088383938e-07 0.0000000000e+00 
          7.5216911597e-03 -6.4804548340e-06 0.0000000000e+00 
          7.9189635327e-03 1.6291800764e-05 0.0000000000e+00 
          8.3023439509e-03 -1.1291477493e-05 0.0000000000e+00 
          8.6809153314e-03 -5.1701495702e-06 0.0000000000e+00 
          9.0399142620e-03 2.1859966068e-05 0.0000000000e+00 
          9.3927243876e-03 -2.5293136033e-05 0.0000000000e+00 
          9.7329698364e-03 1.8031516111e-05 0.0000000000e+00 
          1.0054043008e-02 -7.8219776965e-06 0.0000000000e+00 
          1.0370805934e-02 -2.1076783473e-06 0.0000000000e+00 
          1.0667542465e-02 1.9669941201e-05 0.0000000000e+00 
          1.0950658601e-02 -3.8916553806e-05 0.0000000000e+00 
          1.1224965558e-02 4.3296549116e-05 0.0000000000e+00 
          1.1476692736e-02 -2.1381232252e-05 0.0000000000e+00 
          1.1718858166e-02 -1.6563144114e-05 0.0000000000e+00 
          1.1945550235e-02 4.9904845920e-05 0.0000000000e+00 
          1.2152858815e-02 -5.5238309281e-05 0.0000000000e+00 
          1.2348768867e-02 3.6596292537e-05 0.0000000000e+00 
          1.2525748221e-02 -1.6946510974e-05 0.0000000000e+00 
          1.2687615864e-02 1.7613637888e-05 0.0000000000e+00 
          1.2833684397e-02 -3.3992056053e-05 0.0000000000e+00 
          1.2960874480e-02 4.8860597360e-05 0.0000000000e+00 
          1.3072982355e-02 -4.0152238658e-05 0.0000000000e+00 
          1.3169329681e-02 6.5781861955e-06 0.0000000000e+00 
          1.3244591859e-02 3.2390942553e-05 0.0000000000e+00 
          1.3306605308e-02 -5.1906867906e-05 0.0000000000e+00 
          1.3350400999e-02 4.8800330882e-05 0.0000000000e+00 
          1.3373589166e-02 -3.1517699841e-05 0.0000000000e+00 
        </DataArray>
        <DataArray type="Float64" Name="Reaction" NumberOfComponents="3" format="ascii">
          0.0000000000e+00 0.0000000000e+00 0.0000000000e+00 
          0.0000000000e+00 0.0000000000e+00 0.0000000000e+00 
          0.0000000000e+00 0.0000000000e+00 0.0000000000e+00 
          0.0000000000e+00 0.0000000000e+00 0.0000000000e+00 
          0.0000000000e+00 0.0000000000e+00 0.0000000000e+00 
          0.0000000000e+00 0.0000000000e+00 0.0000000000e+00 
          0.0000000000e+00 0.0000000000e+00 0.0000000000e+00 
          0.0000000000e+00 0.0000000000e+00 0.0000000000e+00 
          0.0000000000e+00 0.0000000000e+00 0.0000000000e+00 
          0.0000000000e+00 0.0000000000e+00 0.0000000000e+00 
          0.0000000000e+00 0.0000000000e+00 0.0000000000e+00 
          0.0000000000e+00 0.0000000000e+00 0.0000000000e+00 
          0.0000000000e+00 0.0000000000e+00 0.0000000000e+00 
          0.0000000000e+00 0.0000000000e+00 0.0000000000e+00 
          0.0000000000e+00 0.0000000000e+00 0.0000000000e+00 
          0.0000000000e+00 0.0000000000e+00 0.0000000000e+00 
          0.0000000000e+00 0.0000000000e+00 0.0000000000e+00 
          0.0000000000e+00 0.0000000000e+00 0.0000000000e+00 
          0.0000000000e+00 0.0000000000e+00 0.0000000000e+00 
          0.0000000000e+00 0.0000000000e+00 0.0000000000e+00 
          0.0000000000e+00 0.0000000000e+00 0.0000000000e+00 
          0.0000000000e+00 0.0000000000e+00 0.0000000000e+00 
          0.0000000000e+00 0.0000000000e+00 0.0000000000e+00 
          0.0000000000e+00 0.0000000000e+00 0.0000000000e+00 
          0.0000000000e+00 0.0000000000e+00 0.0000000000e+00 
          0.0000000000e+00 0.0000000000e+00 0.0000000000e+00 
          0.0000000000e+00 0.0000000000e+00 0.0000000000e+00 
          0.0000000000e+00 0.0000000000e+00 0.0000000000e+00 
          0.0000000000e+00 0.0000000000e+00 0.0000000000e+00 
          0.0000000000e+00 0.0000000000e+00 0.0000000000e+00 
          0.0000000000e+00 0.0000000000e+00 0.0000000000e+00 
          0.0000000000e+00 0.0000000000e+00 0.0000000000e+00 
          0.0000000000e+00 0.0000000000e+00 0.0000000000e+00 
          0.0000000000e+00 0.0000000000e+00 0.0000000000e+00 
          0.0000000000e+00 0.0000000000e+00 0.0000000000e+00 
          0.0000000000e+00 0.0000000000e+00 0.0000000000e+00 
          0.0000000000e+00 0.0000000000e+00 0.0000000000e+00 
          0.0000000000e+00 0.0000000000e+00 0.0000000000e+00 
          0.0000000000e+00 0.0000000000e+00 0.0000000000e+00 
          0.0000000000e+00 0.0000000000e+00 0.0000000000e+00 
          0.0000000000e+00 0.0000000000e+00 0.0000000000e+00 
          0.0000000000e+00 0.0000000000e+00 0.0000000000e+00 
          0.0000000000e+00 0.0000000000e+00 0.0000000000e+00 
          0.0000000000e+00 0.0000000000e+00 0.0000000000e+00 
          0.0000000000e+00 0.0000000000e+00 0.0000000000e+00 
          0.0000000000e+00 0.0000000000e+00 0.0000000000e+00 
          0.0000000000e+00 0.0000000000e+00 0.0000000000e+00 
          0.0000000000e+00 0.0000000000e+00 0.0000000000e+00 
          0.0000000000e+00 0.0000000000e+00 0.0000000000e+00 
          0.0000000000e+00 0.0000000000e+00 0.0000000000e+00 
          0.0000000000e+00 0.0000000000e+00 0.0000000000e+00 
          0.0000000000e+00 0.0000000000e+00 0.0000000000e+00 
          0.0000000000e+00 0.0000000000e+00 0.0000000000e+00 
          0.0000000000e+00 0.0000000000e+00 0.0000000000e+00 
          0.0000000000e+00 0.0000000000e+00 0.0000000000e+00 
          0.0000000000e+00 0.0000000000e+00 0.0000000000e+00 
          0.0000000000e+00 0.0000000000e+00 0.0000000000e+00 
          0.0000000000e+00 0.0000000000e+00 0.0000000000e+00 
          0.0000000000e+00 0.0000000000e+00 0.0000000000e+00 
          0.0000000000e+00 0.0000000000e+00 0.0000000000e+00 
          0.0000000000e+00 0.0000000000e+00 0.0000000000e+00 
          0.0000000000e+00 0.0000000000e+00 0.0000000000e+00 
          0.0000000000e+00 0.0000000000e+00 0.0000000000e+00 
          0.0000000000e+00 0.0000000000e+00 0.0000000000e+00 
          0.0000000000e+00 0.0000000000e+00 0.0000000000e+00 
          0.0000000000e+00 0.0000000000e+00 0.0000000000e+00 
          0.0000000000e+00 0.0000000000e+00 0.0000000000e+00 
          0.0000000000e+00 0.0000000000e+00 0.0000000000e+00 
          0.0000000000e+00 0.0000000000e+00 0.0000000000e+00 
          0.0000000000e+00 0.0000000000e+00 0.0000000000e+00 
          0.0000000000e+00 0.0000000000e+00 0.0000000000e+00 
          0.0000000000e+00 0.0000000000e+00 0.0000000000e+00 
          0.0000000000e+00 0.0000000000e+00 0.0000000000e+00 
          0.0000000000e+00 0.0000000000e+00 0.0000000000e+00 
          0.0000000000e+00 0.0000000000e+00 0.0000000000e+00 
          0.0000000000e+00 0.0000000000e+00 0.0000000000e+00 
          0.0000000000e+00 0.0000000000e+00 0.0000000000e+00 
          0.0000000000e+00 0.0000000000e+00 0.0000000000e+00 
          0.0000000000e+00 0.0000000000e+00 0.0000000000e+00 
          0.0000000000e+00 0.0000000000e+00 0.0000000000e+00 
          0.0000000000e+00 0.0000000000e+00 0.0000000000e+00 
          0.0000000000e+00 0.0000000000e+00 0.0000000000e+00 
        </DataArray>
      </PointData>
      <CellData>
        <DataArray type="Int64" Name="ElementTag" format="ascii">
          0
        </DataArray>
      </CellData>
    </Piece>
  </UnstructuredGrid>
</VTKFile>
