<?xml version="1.0"?>
<VTKFile type="UnstructuredGrid" version="1.0" byte_order="LittleEndian" compressor="vtkZLibDataCompressor">
  <UnstructuredGrid>
    <Piece NumberOfPoints="80" NumberOfCells="39">
      <Points>
        <DataArray type="Float64" Name="Points" NumberOfComponents="3" format="ascii">
          0.0000000000e+00 0.0000000000e+00 0.0000000000e+00 
          2.5000000000e-01 0.0000000000e+00 0.0000000000e+00 
          2.5000000000e-01 3.0000000000e+01 0.0000000000e+00 
          0.0000000000e+00 3.0000000000e+01 0.0000000000e+00 
          2.5000000000e-01 7.6923100000e-01 0.0000000000e+00 
          2.5000000000e-01 1.5384620000e+00 0.0000000000e+00 
          2.5000000000e-01 2.3076920000e+00 0.0000000000e+00 
          2.5000000000e-01 3.0769230000e+00 0.0000000000e+00 
          2.5000000000e-01 3.8461540000e+00 0.0000000000e+00 
          2.5000000000e-01 4.6153850000e+00 0.0000000000e+00 
          2.5000000000e-01 5.3846150000e+00 0.0000000000e+00 
          2.5000000000e-01 6.1538460000e+00 0.0000000000e+00 
          2.5000000000e-01 6.9230770000e+00 0.0000000000e+00 
          2.5000000000e-01 7.6923080000e+00 0.0000000000e+00 
          2.5000000000e-01 8.4615380000e+00 0.0000000000e+00 
          2.5000000000e-01 9.2307690000e+00 0.0000000000e+00 
          2.5000000000e-01 1.0000000000e+01 0.0000000000e+00 
          2.5000000000e-01 1.0769231000e+01 0.0000000000e+00 
          2.5000000000e-01 1.1538462000e+01 0.0000000000e+00 
          2.5000000000e-01 1.2307692000e+01 0.0000000000e+00 
          2.5000000000e-01 1.3076923000e+01 0.0000000000e+00 
          2.5000000000e-01 1.3846154000e+01 0.0000000000e+00 
          2.5000000000e-01 1.4615385000e+01 0.0000000000e+00 
          2.5000000000e-01 1.5384615000e+01 0.0000000000e+00 
          2.5000000000e-01 1.6153846000e+01 0.0000000000e+00 
          2.5000000000e-01 1.6923077000e+01 0.0000000000e+00 
          2.5000000000e-01 1.7692308000e+01 0.0000000000e+00 
          2.5000000000e-01 1.8461538000e+01 0.0000000000e+00 
          2.5000000000e-01 1.9230769000e+01 0.0000000000e+00 
          2.5000000000e-01 2.0000000000e+01 0.0000000000e+00 
          2.5000000000e-01 2.0769231000e+01 0.0000000000e+00 
          2.5000000000e-01 2.1538462000e+01 0.0000000000e+00 
          2.5000000000e-01 2.2307692000e+01 0.0000000000e+00 
          2.5000000000e-01 2.3076923000e+01 0.0000000000e+00 
          2.5000000000e-01 2.3846154000e+01 0.0000000000e+00 
          2.5000000000e-01 2.4615385000e+01 0.0000000000e+00 
          2.5000000000e-01 2.5384615000e+01 0.0000000000e+00 
          2.5000000000e-01 2.6153846000e+01 0.0000000000e+00 
          2.5000000000e-01 2.6923077000e+01 0.0000000000e+00 
          2.5000000000e-01 2.7692308000e+01 0.0000000000e+00 
          2.5000000000e-01 2.8461538000e+01 0.0000000000e+00 
          2.5000000000e-01 2.9230769000e+01 0.0000000000e+00 
          0.0000000000e+00 7.6923100000e-01 0.0000000000e+00 
          0.0000000000e+00 1.5384620000e+00 0.0000000000e+00 
          0.0000000000e+00 2.3076920000e+00 0.0000000000e+00 
          0.0000000000e+00 3.0769230000e+00 0.0000000000e+00 
          0.0000000000e+00 3.8461540000e+00 0.0000000000e+00 
          0.0000000000e+00 4.6153850000e+00 0.0000000000e+00 
          0.0000000000e+00 5.3846150000e+00 0.0000000000e+00 
          0.0000000000e+00 6.1538460000e+00 0.0000000000e+00 
          0.0000000000e+00 6.9230770000e+00 0.0000000000e+00 
          0.0000000000e+00 7.6923080000e+00 0.0000000000e+00 
          0.0000000000e+00 8.4615380000e+00 0.0000000000e+00 
          0.0000000000e+00 9.2307690000e+00 0.0000000000e+00 
          0.0000000000e+00 1.0000000000e+01 0.0000000000e+00 
          0.0000000000e+00 1.0769231000e+01 0.0000000000e+00 
          0.0000000000e+00 1.1538462000e+01 0.0000000000e+00 
          0.0000000000e+00 1.2307692000e+01 0.0000000000e+00 
          0.0000000000e+00 1.3076923000e+01 0.0000000000e+00 
          0.0000000000e+00 1.3846154000e+01 0.0000000000e+00 
          0.0000000000e+00 1.4615385000e+01 0.0000000000e+00 
          0.0000000000e+00 1.5384615000e+01 0.0000000000e+00 
          0.0000000000e+00 1.6153846000e+01 0.0000000000e+00 
          0.0000000000e+00 1.6923077000e+01 0.0000000000e+00 
          0.0000000000e+00 1.7692308000e+01 0.0000000000e+00 
          0.0000000000e+00 1.8461538000e+01 0.0000000000e+00 
          0.0000000000e+00 1.9230769000e+01 0.0000000000e+00 
          0.0000000000e+00 2.0000000000e+01 0.0000000000e+00 
          0.0000000000e+00 2.0769231000e+01 0.0000000000e+00 
          0.0000000000e+00 2.1538462000e+01 0.0000000000e+00 
          0.0000000000e+00 2.2307692000e+01 0.0000000000e+00 
          0.0000000000e+00 2.3076923000e+01 0.0000000000e+00 
          0.0000000000e+00 2.3846154000e+01 0.0000000000e+00 
          0.0000000000e+00 2.4615385000e+01 0.0000000000e+00 
          0.0000000000e+00 2.5384615000e+01 0.0000000000e+00 
          0.0000000000e+00 2.6153846000e+01 0.0000000000e+00 
          0.0000000000e+00 2.6923077000e+01 0.0000000000e+00 
          0.0000000000e+00 2.7692308000e+01 0.0000000000e+00 
          0.0000000000e+00 2.8461538000e+01 0.0000000000e+00 
          0.0000000000e+00 2.9230769000e+01 0.0000000000e+00 
        </DataArray>
      </Points>
      <Cells>
        <DataArray type="Int64" Name="connectivity" format="ascii">
          0 1 4 42 
          42 4 5 43 
          43 5 6 44 
          44 6 7 45 
          45 7 8 46 
          46 8 9 47 
          47 9 10 48 
          48 10 11 49 
          49 11 12 50 
          50 12 13 51 
          51 13 14 52 
          52 14 15 53 
          53 15 16 54 
          54 16 17 55 
          55 17 18 56 
          56 18 19 57 
          57 19 20 58 
          58 20 21 59 
          59 21 22 60 
          60 22 23 61 
          61 23 24 62 
          62 24 25 63 
          63 25 26 64 
          64 26 27 65 
          65 27 28 66 
          66 28 29 67 
          67 29 30 68 
          68 30 31 69 
          69 31 32 70 
          70 32 33 71 
          71 33 34 72 
          72 34 35 73 
          73 35 36 74 
          74 36 37 75 
          75 37 38 76 
          76 38 39 77 
          77 39 40 78 
          78 40 41 79 
          79 41 2 3 
        </DataArray>
        <DataArray type="Int64" Name="offsets" format="ascii">
          4
          8
          12
          16
          20
          24
          28
          32
          36
          40
          44
          48
          52
          56
          60
          64
          68
          72
          76
          80
          84
          88
          92
          96
          100
          104
          108
          112
          116
          120
          124
          128
          132
          136
          140
          144
          148
          152
          156
        </DataArray>
        <DataArray type="Int64" Name="types" format="ascii">
          9
          9
          9
          9
          9
          9
          9
          9
          9
          9
          9
          9
          9
          9
          9
          9
          9
          9
          9
          9
          9
          9
          9
          9
          9
          9
          9
          9
          9
          9
          9
          9
          9
          9
          9
          9
          9
          9
          9
        </DataArray>
      </Cells>
      <PointData>
        <DataArray type="Int64" Name="NodeTag" format="ascii">
          1
          2
          3
          4
          7
          8
          9
          10
          11
          12
          13
          14
          15
          16
          17
          18
          19
          20
          21
          22
          23
          24
          25
          26
          27
          28
          29
          30
          31
          32
          33
          34
          35
          36
          37
          38
          39
          40
          41
          42
          43
          44
          45
          46
          47
          48
          49
          50
          51
          52
          53
          54
          55
          56
          57
          58
          59
          60
          61
          62
          63
          64
          65
          66
          67
          68
          69
          70
          71
          72
          73
          74
          75
          76
          77
          78
          79
          80
          81
          82
        </DataArray>
        <DataArray type="Float64" Name="Velocity" NumberOfComponents="3" format="ascii">
          -2.4278104436e-05 -7.7848001429e-05 0.0000000000e+00 
          -2.4278104436e-05 -7.7848001429e-05 0.0000000000e+00 
          -7.2655945725e-05 -7.7836032628e-05 0.0000000000e+00 
          -7.2655945725e-05 -7.7836032628e-05 0.0000000000e+00 
          -2.6576339423e-05 -7.7851758286e-05 0.0000000000e+00 
          -2.8821406332e-05 -7.7828960759e-05 0.0000000000e+00 
          -3.1029771862e-05 -7.7863666290e-05 0.0000000000e+00 
          -3.3180764985e-05 -7.7827475354e-05 0.0000000000e+00 
          -3.5286399781e-05 -7.7857901529e-05 0.0000000000e+00 
          -3.7343329177e-05 -7.7837241112e-05 0.0000000000e+00 
          -3.9347129786e-05 -7.7842363666e-05 0.0000000000e+00 
          -4.1299570188e-05 -7.7856733266e-05 0.0000000000e+00 
          -4.3203180356e-05 -7.7833841268e-05 0.0000000000e+00 
          -4.5048802042e-05 -7.7834402456e-05 0.0000000000e+00 
          -4.6843981139e-05 -7.7884507317e-05 0.0000000000e+00 
          -4.8587437953e-05 -7.7785107129e-05 0.0000000000e+00 
          -5.0267721030e-05 -7.7904684990e-05 0.0000000000e+00 
          -5.1902793230e-05 -7.7796473911e-05 0.0000000000e+00 
          -5.3474182121e-05 -7.7869674260e-05 0.0000000000e+00 
          -5.4989306438e-05 -7.7853463477e-05 0.0000000000e+00 
          -5.6454465660e-05 -7.7797627917e-05 0.0000000000e+00 
          -5.7848431889e-05 -7.7913914841e-05 0.0000000000e+00 
          -5.9194842248e-05 -7.7778769614e-05 0.0000000000e+00 
          -6.0477627741e-05 -7.7883297315e-05 0.0000000000e+00 
          -6.1696081692e-05 -7.7836528060e-05 0.0000000000e+00 
          -6.2862076875e-05 -7.7835578588e-05 0.0000000000e+00 
          -6.3956878763e-05 -7.7851474456e-05 0.0000000000e+00 
          -6.4996801556e-05 -7.7845650200e-05 0.0000000000e+00 
          -6.5970025616e-05 -7.7842127639e-05 0.0000000000e+00 
          -6.6877829143e-05 -7.7834948951e-05 0.0000000000e+00 
          -6.7728180110e-05 -7.7874455907e-05 0.0000000000e+00 
          -6.8503086801e-05 -7.7794079079e-05 0.0000000000e+00 
          -6.9222381102e-05 -7.7901854405e-05 0.0000000000e+00 
          -6.9869214026e-05 -7.7803269492e-05 0.0000000000e+00 
          -7.0450796944e-05 -7.7849933961e-05 0.0000000000e+00 
          -7.0967289611e-05 -7.7876829086e-05 0.0000000000e+00 
          -7.1411265507e-05 -7.7791075059e-05 0.0000000000e+00 
          -7.1793850507e-05 -7.7894992656e-05 0.0000000000e+00 
          -7.2101368916e-05 -7.7811230892e-05 0.0000000000e+00 
          -7.2344872249e-05 -7.7860178824e-05 0.0000000000e+00 
          -7.2517016394e-05 -7.7836716156e-05 0.0000000000e+00 
          -7.2620801133e-05 -7.7851808362e-05 0.0000000000e+00 
          -2.6576339423e-05 -7.7851758286e-05 0.0000000000e+00 
          -2.8821406332e-05 -7.7828960759e-05 0.0000000000e+00 
          -3.1029771862e-05 -7.7863666290e-05 0.0000000000e+00 
          -3.3180764985e-05 -7.7827475354e-05 0.0000000000e+00 
          -3.5286399781e-05 -7.7857901529e-05 0.0000000000e+00 
          -3.7343329177e-05 -7.7837241112e-05 0.0000000000e+00 
          -3.9347129786e-05 -7.7842363666e-05 0.0000000000e+00 
          -4.1299570188e-05 -7.7856733266e-05 0.0000000000e+00 
          -4.3203180356e-05 -7.7833841268e-05 0.0000000000e+00 
          -4.5048802042e-05 -7.7834402456e-05 0.0000000000e+00 
          -4.6843981139e-05 -7.7884507317e-05 0.0000000000e+00 
          -4.8587437953e-05 -7.7785107129e-05 0.0000000000e+00 
          -5.0267721030e-05 -7.7904684990e-05 0.0000000000e+00 
          -5.1902793230e-05 -7.7796473911e-05 0.0000000000e+00 
          -5.3474182121e-05 -7.7869674260e-05 0.0000000000e+00 
          -5.4989306438e-05 -7.7853463477e-05 0.0000000000e+00 
          -5.6454465660e-05 -7.7797627917e-05 0.0000000000e+00 
          -5.7848431889e-05 -7.7913914841e-05 0.0000000000e+00 
          -5.9194842248e-05 -7.7778769614e-05 0.0000000000e+00 
          -6.0477627741e-05 -7.7883297315e-05 0.0000000000e+00 
          -6.1696081692e-05 -7.7836528060e-05 0.0000000000e+00 
          -6.2862076875e-05 -7.7835578588e-05 0.0000000000e+00 
          -6.3956878763e-05 -7.7851474456e-05 0.0000000000e+00 
          -6.4996801556e-05 -7.7845650200e-05 0.0000000000e+00 
          -6.5970025616e-05 -7.7842127639e-05 0.0000000000e+00 
          -6.6877829143e-05 -7.7834948951e-05 0.0000000000e+00 
          -6.7728180110e-05 -7.7874455907e-05 0.0000000000e+00 
          -6.8503086801e-05 -7.7794079079e-05 0.0000000000e+00 
          -6.9222381102e-05 -7.7901854405e-05 0.0000000000e+00 
          -6.9869214026e-05 -7.7803269492e-05 0.0000000000e+00 
          -7.0450796944e-05 -7.7849933961e-05 0.0000000000e+00 
          -7.0967289611e-05 -7.7876829086e-05 0.0000000000e+00 
          -7.1411265507e-05 -7.7791075059e-05 0.0000000000e+00 
          -7.1793850507e-05 -7.7894992656e-05 0.0000000000e+00 
          -7.2101368916e-05 -7.7811230892e-05 0.0000000000e+00 
          -7.2344872249e-05 -7.7860178824e-05 0.0000000000e+00 
          -7.2517016394e-05 -7.7836716156e-05 0.0000000000e+00 
          -7.2620801133e-05 -7.7851808362e-05 0.0000000000e+00 
        </DataArray>
        <DataArray type="Float64" Name="Displacement" NumberOfComponents="3" format="ascii">
          1.4606293751e-06 -5.8668012287e-04 0.0000000000e+00 
          1.4606293751e-06 -5.8668012287e-04 0.0000000000e+00 
          -8.8703749103e-06 -6.1026048330e-04 0.0000000000e+00 
          -8.8703749103e-06 -6.1026048330e-04 0.0000000000e+00 
          1.0566748236e-06 -5.8787392309e-04 0.0000000000e+00 
          6.5192188249e-07 -5.8903653326e-04 0.0000000000e+00 
          2.4713005670e-07 -5.9016842270e-04 0.0000000000e+00 
          -1.5697512502e-07 -5.9126902746e-04 0.0000000000e+00 
          -5.5961675472e-07 -5.9233880844e-04 0.0000000000e+00 
          -9.6007484904e-07 -5.9337751447e-04 0.0000000000e+00 
          -1.3576120144e-06 -5.9438522844e-04 0.0000000000e+00 
          -1.7514843228e-06 -5.9536190495e-04 0.0000000000e+00 
          -2.1409955447e-06 -5.9630763502e-04 0.0000000000e+00 
          -2.5254189706e-06 -5.9722230901e-04 0.0000000000e+00 
          -2.9040522595e-06 -5.9810597947e-04 0.0000000000e+00 
          -3.2762280808e-06 -5.9895867962e-04 0.0000000000e+00 
          -3.6412532227e-06 -5.9978034174e-04 0.0000000000e+00 
          -3.9984717781e-06 -6.0057099175e-04 0.0000000000e+00 
          -4.3472550059e-06 -6.0133066726e-04 0.0000000000e+00 
          -4.6869469620e-06 -6.0205932047e-04 0.0000000000e+00 
          -5.0169667527e-06 -6.0275694311e-04 0.0000000000e+00 
          -5.3367055399e-06 -6.0342359869e-04 0.0000000000e+00 
          -5.6455914657e-06 -6.0405923729e-04 0.0000000000e+00 
          -5.9430882121e-06 -6.0466383952e-04 0.0000000000e+00 
          -6.2286388313e-06 -6.0523747151e-04 0.0000000000e+00 
          -6.5017679110e-06 -6.0578009172e-04 0.0000000000e+00 
          -6.7619585587e-06 -6.0629168431e-04 0.0000000000e+00 
          -7.0087737931e-06 -6.0677228456e-04 0.0000000000e+00 
          -7.2417599005e-06 -6.0722188310e-04 0.0000000000e+00 
          -7.4605137092e-06 -6.0764047986e-04 0.0000000000e+00 
          -7.6646485923e-06 -6.0802801873e-04 0.0000000000e+00 
          -7.8537957239e-06 -6.0838466866e-04 0.0000000000e+00 
          -8.0276358474e-06 -6.0871013969e-04 0.0000000000e+00 
          -8.1858440462e-06 -6.0900478294e-04 0.0000000000e+00 
          -8.3281658783e-06 -6.0926830815e-04 0.0000000000e+00 
          -8.4543301782e-06 -6.0950082826e-04 0.0000000000e+00 
          -8.5641184404e-06 -6.0970242895e-04 0.0000000000e+00 
          -8.6573621782e-06 -6.0987289698e-04 0.0000000000e+00 
          -8.7338522634e-06 -6.1001250122e-04 0.0000000000e+00 
          -8.7935038120e-06 -6.1012094696e-04 0.0000000000e+00 
          -8.8361807892e-06 -6.1019851311e-04 0.0000000000e+00 
          -8.8618044094e-06 -6.1024502522e-04 0.0000000000e+00 
          1.0566748236e-06 -5.8787392309e-04 0.0000000000e+00 
          6.5192188249e-07 -5.8903653326e-04 0.0000000000e+00 
          2.4713005670e-07 -5.9016842270e-04 0.0000000000e+00 
          -1.5697512502e-07 -5.9126902746e-04 0.0000000000e+00 
          -5.5961675472e-07 -5.9233880844e-04 0.0000000000e+00 
          -9.6007484904e-07 -5.9337751447e-04 0.0000000000e+00 
          -1.3576120144e-06 -5.9438522844e-04 0.0000000000e+00 
          -1.7514843228e-06 -5.9536190495e-04 0.0000000000e+00 
          -2.1409955447e-06 -5.9630763502e-04 0.0000000000e+00 
          -2.5254189706e-06 -5.9722230901e-04 0.0000000000e+00 
          -2.9040522595e-06 -5.9810597947e-04 0.0000000000e+00 
          -3.2762280808e-06 -5.9895867962e-04 0.0000000000e+00 
          -3.6412532227e-06 -5.9978034174e-04 0.0000000000e+00 
          -3.9984717781e-06 -6.0057099175e-04 0.0000000000e+00 
          -4.3472550059e-06 -6.0133066726e-04 0.0000000000e+00 
          -4.6869469620e-06 -6.0205932047e-04 0.0000000000e+00 
          -5.0169667527e-06 -6.0275694311e-04 0.0000000000e+00 
          -5.3367055399e-06 -6.0342359869e-04 0.0000000000e+00 
          -5.6455914657e-06 -6.0405923729e-04 0.0000000000e+00 
          -5.9430882121e-06 -6.0466383952e-04 0.0000000000e+00 
          -6.2286388313e-06 -6.0523747151e-04 0.0000000000e+00 
          -6.5017679110e-06 -6.0578009172e-04 0.0000000000e+00 
          -6.7619585587e-06 -6.0629168431e-04 0.0000000000e+00 
          -7.0087737931e-06 -6.0677228456e-04 0.0000000000e+00 
          -7.2417599005e-06 -6.0722188310e-04 0.0000000000e+00 
          -7.4605137092e-06 -6.0764047986e-04 0.0000000000e+00 
          -7.6646485923e-06 -6.0802801873e-04 0.0000000000e+00 
          -7.8537957239e-06 -6.0838466866e-04 0.0000000000e+00 
          -8.0276358474e-06 -6.0871013969e-04 0.0000000000e+00 
          -8.1858440462e-06 -6.0900478294e-04 0.0000000000e+00 
          -8.3281658783e-06 -6.0926830815e-04 0.0000000000e+00 
          -8.4543301782e-06 -6.0950082826e-04 0.0000000000e+00 
          -8.5641184404e-06 -6.0970242895e-04 0.0000000000e+00 
          -8.6573621782e-06 -6.0987289698e-04 0.0000000000e+00 
          -8.7338522634e-06 -6.1001250122e-04 0.0000000000e+00 
          -8.7935038120e-06 -6.1012094696e-04 0.0000000000e+00 
          -8.8361807892e-06 -6.1019851311e-04 0.0000000000e+00 
          -8.8618044094e-06 -6.1024502522e-04 0.0000000000e+00 
        </DataArray>
        <DataArray type="Float64" Name="Acceleration" NumberOfComponents="3" format="ascii">
          -1.3975198575e-04 -6.1635920151e-07 0.0000000000e+00 
          -1.3975198575e-04 -6.1635920151e-07 0.0000000000e+00 
          1.5444381096e-03 -1.6252253349e-05 0.0000000000e+00 
          1.5444381096e-03 -1.6252253349e-05 0.0000000000e+00 
          -7.1936467064e-05 3.3105627179e-05 0.0000000000e+00 
          -3.5510088415e-06 -5.1729650991e-05 0.0000000000e+00 
          6.1915442721e-05 5.0427513073e-05 0.0000000000e+00 
          1.3186892633e-04 -3.2896272415e-05 0.0000000000e+00 
          1.9674085051e-04 1.2361997673e-05 0.0000000000e+00 
          2.6313507841e-04 -2.8025458582e-06 0.0000000000e+00 
          3.3025762168e-04 5.8469144333e-06 0.0000000000e+00 
          3.9294250747e-04 -1.0793739482e-05 0.0000000000e+00 
          4.5842046549e-04 8.9634530812e-06 0.0000000000e+00 
          5.2165876859e-04 -7.0915750766e-07 0.0000000000e+00 
          5.8187531675e-04 -6.2812905679e-06 0.0000000000e+00 
          6.4429033360e-04 5.7112394556e-06 0.0000000000e+00 
          7.0338885749e-04 1.0415527537e-06 0.0000000000e+00 
          7.6003967577e-04 -5.7391356386e-06 0.0000000000e+00 
          8.1910227683e-04 2.7100199353e-06 0.0000000000e+00 
          8.7152156002e-04 4.5419459598e-06 0.0000000000e+00 
          9.2633871902e-04 -7.0782844208e-06 0.0000000000e+00 
          9.7786424188e-04 1.9175196959e-06 0.0000000000e+00 
          1.0261533796e-03 5.2760110165e-06 0.0000000000e+00 
          1.0764052030e-03 -6.3615331248e-06 0.0000000000e+00 
          1.1192052328e-03 9.8040599400e-07 0.0000000000e+00 
          1.1657782762e-03 3.8377268196e-06 0.0000000000e+00 
          1.2051230227e-03 -2.6339150166e-06 0.0000000000e+00 
          1.2460613749e-03 -7.1656026146e-07 0.0000000000e+00 
          1.2823582225e-03 -8.1981366168e-07 0.0000000000e+00 
          1.3171940604e-03 9.2884367400e-06 0.0000000000e+00 
          1.3504260141e-03 -2.1154531668e-05 0.0000000000e+00 
          1.3791721971e-03 3.1023546191e-05 0.0000000000e+00 
          1.4084885577e-03 -3.2096914011e-05 0.0000000000e+00 
          1.4313930111e-03 2.0128875097e-05 0.0000000000e+00 
          1.4558255584e-03 -2.2251351833e-07 0.0000000000e+00 
          1.4755014435e-03 -1.5707424349e-05 0.0000000000e+00 
          1.4907081449e-03 2.2816600864e-05 0.0000000000e+00 
          1.5095371837e-03 -2.5687309035e-05 0.0000000000e+00 
          1.5171854072e-03 2.7419481622e-05 0.0000000000e+00 
          1.5294383989e-03 -2.2855462661e-05 0.0000000000e+00 
          1.5365471330e-03 8.6182179411e-06 0.0000000000e+00 
          1.5365197335e-03 8.5959230992e-06 0.0000000000e+00 
          -7.1936467064e-05 3.3105627179e-05 0.0000000000e+00 
          -3.5510088415e-06 -5.1729650991e-05 0.0000000000e+00 
          6.1915442721e-05 5.0427513073e-05 0.0000000000e+00 
          1.3186892633e-04 -3.2896272415e-05 0.0000000000e+00 
          1.9674085051e-04 1.2361997673e-05 0.0000000000e+00 
          2.6313507841e-04 -2.8025458582e-06 0.0000000000e+00 
          3.3025762168e-04 5.8469144333e-06 0.0000000000e+00 
          3.9294250747e-04 -1.0793739482e-05 0.0000000000e+00 
          4.5842046549e-04 8.9634530812e-06 0.0000000000e+00 
          5.2165876859e-04 -7.0915750766e-07 0.0000000000e+00 
          5.8187531675e-04 -6.2812905679e-06 0.0000000000e+00 
          6.4429033360e-04 5.7112394556e-06 0.0000000000e+00 
          7.0338885749e-04 1.0415527537e-06 0.0000000000e+00 
          7.6003967577e-04 -5.7391356386e-06 0.0000000000e+00 
          8.1910227683e-04 2.7100199353e-06 0.0000000000e+00 
          8.7152156002e-04 4.5419459598e-06 0.0000000000e+00 
          9.2633871902e-04 -7.0782844208e-06 0.0000000000e+00 
          9.7786424188e-04 1.9175196959e-06 0.0000000000e+00 
          1.0261533796e-03 5.2760110165e-06 0.0000000000e+00 
          1.0764052030e-03 -6.3615331248e-06 0.0000000000e+00 
          1.1192052328e-03 9.8040599400e-07 0.0000000000e+00 
          1.1657782762e-03 3.8377268196e-06 0.0000000000e+00 
          1.2051230227e-03 -2.6339150166e-06 0.0000000000e+00 
          1.2460613749e-03 -7.1656026146e-07 0.0000000000e+00 
          1.2823582225e-03 -8.1981366168e-07 0.0000000000e+00 
          1.3171940604e-03 9.2884367400e-06 0.0000000000e+00 
          1.3504260141e-03 -2.1154531668e-05 0.0000000000e+00 
          1.3791721971e-03 3.1023546191e-05 0.0000000000e+00 
          1.4084885577e-03 -3.2096914011e-05 0.0000000000e+00 
          1.4313930111e-03 2.0128875097e-05 0.0000000000e+00 
          1.4558255584e-03 -2.2251351833e-07 0.0000000000e+00 
          1.4755014435e-03 -1.5707424349e-05 0.0000000000e+00 
          1.4907081449e-03 2.2816600864e-05 0.0000000000e+00 
          1.5095371837e-03 -2.5687309035e-05 0.0000000000e+00 
          1.5171854072e-03 2.7419481622e-05 0.0000000000e+00 
          1.5294383989e-03 -2.2855462661e-05 0.0000000000e+00 
          1.5365471330e-03 8.6182179411e-06 0.0000000000e+00 
          1.5365197335e-03 8.5959230992e-06 0.0000000000e+00 
        </DataArray>
        <DataArray type="Float64" Name="Reaction" NumberOfComponents="3" format="ascii">
          0.0000000000e+00 0.0000000000e+00 0.0000000000e+00 
          0.0000000000e+00 0.0000000000e+00 0.0000000000e+00 
          0.0000000000e+00 0.0000000000e+00 0.0000000000e+00 
          0.0000000000e+00 0.0000000000e+00 0.0000000000e+00 
          0.0000000000e+00 0.0000000000e+00 0.0000000000e+00 
          0.0000000000e+00 0.0000000000e+00 0.0000000000e+00 
          0.0000000000e+00 0.0000000000e+00 0.0000000000e+00 
          0.0000000000e+00 0.0000000000e+00 0.0000000000e+00 
          0.0000000000e+00 0.0000000000e+00 0.0000000000e+00 
          0.0000000000e+00 0.0000000000e+00 0.0000000000e+00 
          0.0000000000e+00 0.0000000000e+00 0.0000000000e+00 
          0.0000000000e+00 0.0000000000e+00 0.0000000000e+00 
          0.0000000000e+00 0.0000000000e+00 0.0000000000e+00 
          0.0000000000e+00 0.0000000000e+00 0.0000000000e+00 
          0.0000000000e+00 0.0000000000e+00 0.0000000000e+00 
          0.0000000000e+00 0.0000000000e+00 0.0000000000e+00 
          0.0000000000e+00 0.0000000000e+00 0.0000000000e+00 
          0.0000000000e+00 0.0000000000e+00 0.0000000000e+00 
          0.0000000000e+00 0.0000000000e+00 0.0000000000e+00 
          0.0000000000e+00 0.0000000000e+00 0.0000000000e+00 
          0.0000000000e+00 0.0000000000e+00 0.0000000000e+00 
          0.0000000000e+00 0.0000000000e+00 0.0000000000e+00 
          0.0000000000e+00 0.0000000000e+00 0.0000000000e+00 
          0.0000000000e+00 0.0000000000e+00 0.0000000000e+00 
          0.0000000000e+00 0.0000000000e+00 0.0000000000e+00 
          0.0000000000e+00 0.0000000000e+00 0.0000000000e+00 
          0.0000000000e+00 0.0000000000e+00 0.0000000000e+00 
          0.0000000000e+00 0.0000000000e+00 0.0000000000e+00 
          0.0000000000e+00 0.0000000000e+00 0.0000000000e+00 
          0.0000000000e+00 0.0000000000e+00 0.0000000000e+00 
          0.0000000000e+00 0.0000000000e+00 0.0000000000e+00 
          0.0000000000e+00 0.0000000000e+00 0.0000000000e+00 
          0.0000000000e+00 0.0000000000e+00 0.0000000000e+00 
          0.0000000000e+00 0.0000000000e+00 0.0000000000e+00 
          0.0000000000e+00 0.0000000000e+00 0.0000000000e+00 
          0.0000000000e+00 0.0000000000e+00 0.0000000000e+00 
          0.0000000000e+00 0.0000000000e+00 0.0000000000e+00 
          0.0000000000e+00 0.0000000000e+00 0.0000000000e+00 
          0.0000000000e+00 0.0000000000e+00 0.0000000000e+00 
          0.0000000000e+00 0.0000000000e+00 0.0000000000e+00 
          0.0000000000e+00 0.0000000000e+00 0.0000000000e+00 
          0.0000000000e+00 0.0000000000e+00 0.0000000000e+00 
          0.0000000000e+00 0.0000000000e+00 0.0000000000e+00 
          0.0000000000e+00 0.0000000000e+00 0.0000000000e+00 
          0.0000000000e+00 0.0000000000e+00 0.0000000000e+00 
          0.0000000000e+00 0.0000000000e+00 0.0000000000e+00 
          0.0000000000e+00 0.0000000000e+00 0.0000000000e+00 
          0.0000000000e+00 0.0000000000e+00 0.0000000000e+00 
          0.0000000000e+00 0.0000000000e+00 0.0000000000e+00 
          0.0000000000e+00 0.0000000000e+00 0.0000000000e+00 
          0.0000000000e+00 0.0000000000e+00 0.0000000000e+00 
          0.0000000000e+00 0.0000000000e+00 0.0000000000e+00 
          0.0000000000e+00 0.0000000000e+00 0.0000000000e+00 
          0.0000000000e+00 0.0000000000e+00 0.0000000000e+00 
          0.0000000000e+00 0.0000000000e+00 0.0000000000e+00 
          0.0000000000e+00 0.0000000000e+00 0.0000000000e+00 
          0.0000000000e+00 0.0000000000e+00 0.0000000000e+00 
          0.0000000000e+00 0.0000000000e+00 0.0000000000e+00 
          0.0000000000e+00 0.0000000000e+00 0.0000000000e+00 
          0.0000000000e+00 0.0000000000e+00 0.0000000000e+00 
          0.0000000000e+00 0.0000000000e+00 0.0000000000e+00 
          0.0000000000e+00 0.0000000000e+00 0.0000000000e+00 
          0.0000000000e+00 0.0000000000e+00 0.0000000000e+00 
          0.0000000000e+00 0.0000000000e+00 0.0000000000e+00 
          0.0000000000e+00 0.0000000000e+00 0.0000000000e+00 
          0.0000000000e+00 0.0000000000e+00 0.0000000000e+00 
          0.0000000000e+00 0.0000000000e+00 0.0000000000e+00 
          0.0000000000e+00 0.0000000000e+00 0.0000000000e+00 
          0.0000000000e+00 0.0000000000e+00 0.0000000000e+00 
          0.0000000000e+00 0.0000000000e+00 0.0000000000e+00 
          0.0000000000e+00 0.0000000000e+00 0.0000000000e+00 
          0.0000000000e+00 0.0000000000e+00 0.0000000000e+00 
          0.0000000000e+00 0.0000000000e+00 0.0000000000e+00 
          0.0000000000e+00 0.0000000000e+00 0.0000000000e+00 
          0.0000000000e+00 0.0000000000e+00 0.0000000000e+00 
          0.0000000000e+00 0.0000000000e+00 0.0000000000e+00 
          0.0000000000e+00 0.0000000000e+00 0.0000000000e+00 
          0.0000000000e+00 0.0000000000e+00 0.0000000000e+00 
          0.0000000000e+00 0.0000000000e+00 0.0000000000e+00 
          0.0000000000e+00 0.0000000000e+00 0.0000000000e+00 
        </DataArray>
      </PointData>
      <CellData>
        <DataArray type="Int64" Name="ElementTag" format="ascii">
          90
          91
          92
          93
          94
          95
          96
          97
          98
          99
          100
          101
          102
          103
          104
          105
          106
          107
          108
          109
          110
          111
          112
          113
          114
          115
          116
          117
          118
          119
          120
          121
          122
          123
          124
          125
          126
          127
          128
        </DataArray>
      </CellData>
    </Piece>
  </UnstructuredGrid>
</VTKFile>
