<?xml version="1.0"?>
<VTKFile type="UnstructuredGrid" version="1.0" byte_order="LittleEndian" compressor="vtkZLibDataCompressor">
  <UnstructuredGrid>
    <Piece NumberOfPoints="80" NumberOfCells="39">
      <Points>
        <DataArray type="Float64" Name="Points" NumberOfComponents="3" format="ascii">
          0.0000000000e+00 0.0000000000e+00 0.0000000000e+00 
          2.5000000000e-01 0.0000000000e+00 0.0000000000e+00 
          2.5000000000e-01 3.0000000000e+01 0.0000000000e+00 
          0.0000000000e+00 3.0000000000e+01 0.0000000000e+00 
          2.5000000000e-01 7.6923100000e-01 0.0000000000e+00 
          2.5000000000e-01 1.5384620000e+00 0.0000000000e+00 
          2.5000000000e-01 2.3076920000e+00 0.0000000000e+00 
          2.5000000000e-01 3.0769230000e+00 0.0000000000e+00 
          2.5000000000e-01 3.8461540000e+00 0.0000000000e+00 
          2.5000000000e-01 4.6153850000e+00 0.0000000000e+00 
          2.5000000000e-01 5.3846150000e+00 0.0000000000e+00 
          2.5000000000e-01 6.1538460000e+00 0.0000000000e+00 
          2.5000000000e-01 6.9230770000e+00 0.0000000000e+00 
          2.5000000000e-01 7.6923080000e+00 0.0000000000e+00 
          2.5000000000e-01 8.4615380000e+00 0.0000000000e+00 
          2.5000000000e-01 9.2307690000e+00 0.0000000000e+00 
          2.5000000000e-01 1.0000000000e+01 0.0000000000e+00 
          2.5000000000e-01 1.0769231000e+01 0.0000000000e+00 
          2.5000000000e-01 1.1538462000e+01 0.0000000000e+00 
          2.5000000000e-01 1.2307692000e+01 0.0000000000e+00 
          2.5000000000e-01 1.3076923000e+01 0.0000000000e+00 
          2.5000000000e-01 1.3846154000e+01 0.0000000000e+00 
          2.5000000000e-01 1.4615385000e+01 0.0000000000e+00 
          2.5000000000e-01 1.5384615000e+01 0.0000000000e+00 
          2.5000000000e-01 1.6153846000e+01 0.0000000000e+00 
          2.5000000000e-01 1.6923077000e+01 0.0000000000e+00 
          2.5000000000e-01 1.7692308000e+01 0.0000000000e+00 
          2.5000000000e-01 1.8461538000e+01 0.0000000000e+00 
          2.5000000000e-01 1.9230769000e+01 0.0000000000e+00 
          2.5000000000e-01 2.0000000000e+01 0.0000000000e+00 
          2.5000000000e-01 2.0769231000e+01 0.0000000000e+00 
          2.5000000000e-01 2.1538462000e+01 0.0000000000e+00 
          2.5000000000e-01 2.2307692000e+01 0.0000000000e+00 
          2.5000000000e-01 2.3076923000e+01 0.0000000000e+00 
          2.5000000000e-01 2.3846154000e+01 0.0000000000e+00 
          2.5000000000e-01 2.4615385000e+01 0.0000000000e+00 
          2.5000000000e-01 2.5384615000e+01 0.0000000000e+00 
          2.5000000000e-01 2.6153846000e+01 0.0000000000e+00 
          2.5000000000e-01 2.6923077000e+01 0.0000000000e+00 
          2.5000000000e-01 2.7692308000e+01 0.0000000000e+00 
          2.5000000000e-01 2.8461538000e+01 0.0000000000e+00 
          2.5000000000e-01 2.9230769000e+01 0.0000000000e+00 
          0.0000000000e+00 7.6923100000e-01 0.0000000000e+00 
          0.0000000000e+00 1.5384620000e+00 0.0000000000e+00 
          0.0000000000e+00 2.3076920000e+00 0.0000000000e+00 
          0.0000000000e+00 3.0769230000e+00 0.0000000000e+00 
          0.0000000000e+00 3.8461540000e+00 0.0000000000e+00 
          0.0000000000e+00 4.6153850000e+00 0.0000000000e+00 
          0.0000000000e+00 5.3846150000e+00 0.0000000000e+00 
          0.0000000000e+00 6.1538460000e+00 0.0000000000e+00 
          0.0000000000e+00 6.9230770000e+00 0.0000000000e+00 
          0.0000000000e+00 7.6923080000e+00 0.0000000000e+00 
          0.0000000000e+00 8.4615380000e+00 0.0000000000e+00 
          0.0000000000e+00 9.2307690000e+00 0.0000000000e+00 
          0.0000000000e+00 1.0000000000e+01 0.0000000000e+00 
          0.0000000000e+00 1.0769231000e+01 0.0000000000e+00 
          0.0000000000e+00 1.1538462000e+01 0.0000000000e+00 
          0.0000000000e+00 1.2307692000e+01 0.0000000000e+00 
          0.0000000000e+00 1.3076923000e+01 0.0000000000e+00 
          0.0000000000e+00 1.3846154000e+01 0.0000000000e+00 
          0.0000000000e+00 1.4615385000e+01 0.0000000000e+00 
          0.0000000000e+00 1.5384615000e+01 0.0000000000e+00 
          0.0000000000e+00 1.6153846000e+01 0.0000000000e+00 
          0.0000000000e+00 1.6923077000e+01 0.0000000000e+00 
          0.0000000000e+00 1.7692308000e+01 0.0000000000e+00 
          0.0000000000e+00 1.8461538000e+01 0.0000000000e+00 
          0.0000000000e+00 1.9230769000e+01 0.0000000000e+00 
          0.0000000000e+00 2.0000000000e+01 0.0000000000e+00 
          0.0000000000e+00 2.0769231000e+01 0.0000000000e+00 
          0.0000000000e+00 2.1538462000e+01 0.0000000000e+00 
          0.0000000000e+00 2.2307692000e+01 0.0000000000e+00 
          0.0000000000e+00 2.3076923000e+01 0.0000000000e+00 
          0.0000000000e+00 2.3846154000e+01 0.0000000000e+00 
          0.0000000000e+00 2.4615385000e+01 0.0000000000e+00 
          0.0000000000e+00 2.5384615000e+01 0.0000000000e+00 
          0.0000000000e+00 2.6153846000e+01 0.0000000000e+00 
          0.0000000000e+00 2.6923077000e+01 0.0000000000e+00 
          0.0000000000e+00 2.7692308000e+01 0.0000000000e+00 
          0.0000000000e+00 2.8461538000e+01 0.0000000000e+00 
          0.0000000000e+00 2.9230769000e+01 0.0000000000e+00 
        </DataArray>
      </Points>
      <Cells>
        <DataArray type="Int64" Name="connectivity" format="ascii">
          0 1 4 42 
          42 4 5 43 
          43 5 6 44 
          44 6 7 45 
          45 7 8 46 
          46 8 9 47 
          47 9 10 48 
          48 10 11 49 
          49 11 12 50 
          50 12 13 51 
          51 13 14 52 
          52 14 15 53 
          53 15 16 54 
          54 16 17 55 
          55 17 18 56 
          56 18 19 57 
          57 19 20 58 
          58 20 21 59 
          59 21 22 60 
          60 22 23 61 
          61 23 24 62 
          62 24 25 63 
          63 25 26 64 
          64 26 27 65 
          65 27 28 66 
          66 28 29 67 
          67 29 30 68 
          68 30 31 69 
          69 31 32 70 
          70 32 33 71 
          71 33 34 72 
          72 34 35 73 
          73 35 36 74 
          74 36 37 75 
          75 37 38 76 
          76 38 39 77 
          77 39 40 78 
          78 40 41 79 
          79 41 2 3 
        </DataArray>
        <DataArray type="Int64" Name="offsets" format="ascii">
          4
          8
          12
          16
          20
          24
          28
          32
          36
          40
          44
          48
          52
          56
          60
          64
          68
          72
          76
          80
          84
          88
          92
          96
          100
          104
          108
          112
          116
          120
          124
          128
          132
          136
          140
          144
          148
          152
          156
        </DataArray>
        <DataArray type="Int64" Name="types" format="ascii">
          9
          9
          9
          9
          9
          9
          9
          9
          9
          9
          9
          9
          9
          9
          9
          9
          9
          9
          9
          9
          9
          9
          9
          9
          9
          9
          9
          9
          9
          9
          9
          9
          9
          9
          9
          9
          9
          9
          9
        </DataArray>
      </Cells>
      <PointData>
        <DataArray type="Int64" Name="NodeTag" format="ascii">
          1
          2
          3
          4
          7
          8
          9
          10
          11
          12
          13
          14
          15
          16
          17
          18
          19
          20
          21
          22
          23
          24
          25
          26
          27
          28
          29
          30
          31
          32
          33
          34
          35
          36
          37
          38
          39
          40
          41
          42
          43
          44
          45
          46
          47
          48
          49
          50
          51
          52
          53
          54
          55
          56
          57
          58
          59
          60
          61
          62
          63
          64
          65
          66
          67
          68
          69
          70
          71
          72
          73
          74
          75
          76
          77
          78
          79
          80
          81
          82
        </DataArray>
        <DataArray type="Float64" Name="Velocity" NumberOfComponents="3" format="ascii">
          2.4326966907e-13 -6.8850424732e-05 0.0000000000e+00 
          2.4326966907e-13 -6.8850424732e-05 0.0000000000e+00 
          1.1698574819e-18 -9.0160537163e-05 0.0000000000e+00 
          1.1698574819e-18 -9.0160537163e-05 0.0000000000e+00 
          1.9434297541e-13 -7.1182716296e-05 0.0000000000e+00 
          1.5506953107e-13 -7.3832572650e-05 0.0000000000e+00 
          1.2366414266e-13 -7.6671419112e-05 0.0000000000e+00 
          9.8515531428e-14 -7.8851413030e-05 0.0000000000e+00 
          7.8417195233e-14 -8.0256816502e-05 0.0000000000e+00 
          6.2366020334e-14 -8.1310453643e-05 0.0000000000e+00 
          4.9556661409e-14 -8.2912138504e-05 0.0000000000e+00 
          3.9329217952e-14 -8.3745898079e-05 0.0000000000e+00 
          3.1206836829e-14 -8.4923881281e-05 0.0000000000e+00 
          2.4730632182e-14 -8.6766063080e-05 0.0000000000e+00 
          1.9593318717e-14 -8.7605731136e-05 0.0000000000e+00 
          1.5479163240e-14 -8.8177010031e-05 0.0000000000e+00 
          1.2269837870e-14 -8.8815729205e-05 0.0000000000e+00 
          9.6352654901e-15 -8.9882894464e-05 0.0000000000e+00 
          7.6436260752e-15 -9.0636142302e-05 0.0000000000e+00 
          6.0254238699e-15 -9.0748978607e-05 0.0000000000e+00 
          4.7234801111e-15 -9.0284311194e-05 0.0000000000e+00 
          3.7269268149e-15 -8.9727099144e-05 0.0000000000e+00 
          2.9347019229e-15 -8.9678447956e-05 0.0000000000e+00 
          2.3043151625e-15 -8.9686728604e-05 0.0000000000e+00 
          1.8125753240e-15 -9.0201217795e-05 0.0000000000e+00 
          1.4096360510e-15 -9.0444304915e-05 0.0000000000e+00 
          1.1049604547e-15 -9.0443774011e-05 0.0000000000e+00 
          8.9263065152e-16 -9.0858902078e-05 0.0000000000e+00 
          6.6635094411e-16 -9.1008978861e-05 0.0000000000e+00 
          5.4265672492e-16 -9.0436846273e-05 0.0000000000e+00 
          4.0226628772e-16 -9.0230048456e-05 0.0000000000e+00 
          3.4305288730e-16 -9.0159868408e-05 0.0000000000e+00 
          2.4078831228e-16 -9.0293158870e-05 0.0000000000e+00 
          1.7465809341e-16 -9.0486544616e-05 0.0000000000e+00 
          1.6870358802e-16 -9.0381447994e-05 0.0000000000e+00 
          1.2234056929e-16 -9.0305980697e-05 0.0000000000e+00 
          1.0970257661e-16 -9.0520350435e-05 0.0000000000e+00 
          7.1184711946e-17 -9.0650480629e-05 0.0000000000e+00 
          7.4775487657e-17 -9.0568231086e-05 0.0000000000e+00 
          5.4361208549e-17 -9.0513369164e-05 0.0000000000e+00 
          4.8948532231e-17 -9.0413053275e-05 0.0000000000e+00 
          4.4775875098e-17 -9.0369578994e-05 0.0000000000e+00 
          1.9434297541e-13 -7.1182716296e-05 0.0000000000e+00 
          1.5506953107e-13 -7.3832572650e-05 0.0000000000e+00 
          1.2366414266e-13 -7.6671419112e-05 0.0000000000e+00 
          9.8515531428e-14 -7.8851413030e-05 0.0000000000e+00 
          7.8417195233e-14 -8.0256816502e-05 0.0000000000e+00 
          6.2366020334e-14 -8.1310453643e-05 0.0000000000e+00 
          4.9556661409e-14 -8.2912138504e-05 0.0000000000e+00 
          3.9329217952e-14 -8.3745898079e-05 0.0000000000e+00 
          3.1206836829e-14 -8.4923881281e-05 0.0000000000e+00 
          2.4730632182e-14 -8.6766063080e-05 0.0000000000e+00 
          1.9593318717e-14 -8.7605731136e-05 0.0000000000e+00 
          1.5479163240e-14 -8.8177010031e-05 0.0000000000e+00 
          1.2269837870e-14 -8.8815729205e-05 0.0000000000e+00 
          9.6352654901e-15 -8.9882894464e-05 0.0000000000e+00 
          7.6436260752e-15 -9.0636142302e-05 0.0000000000e+00 
          6.0254238699e-15 -9.0748978607e-05 0.0000000000e+00 
          4.7234801111e-15 -9.0284311194e-05 0.0000000000e+00 
          3.7269268149e-15 -8.9727099144e-05 0.0000000000e+00 
          2.9347019229e-15 -8.9678447956e-05 0.0000000000e+00 
          2.3043151625e-15 -8.9686728604e-05 0.0000000000e+00 
          1.8125753240e-15 -9.0201217795e-05 0.0000000000e+00 
          1.4096360510e-15 -9.0444304915e-05 0.0000000000e+00 
          1.1049604547e-15 -9.0443774011e-05 0.0000000000e+00 
          8.9263065152e-16 -9.0858902078e-05 0.0000000000e+00 
          6.6635094411e-16 -9.1008978861e-05 0.0000000000e+00 
          5.4265672492e-16 -9.0436846273e-05 0.0000000000e+00 
          4.0226628772e-16 -9.0230048456e-05 0.0000000000e+00 
          3.4305288730e-16 -9.0159868408e-05 0.0000000000e+00 
          2.4078831228e-16 -9.0293158870e-05 0.0000000000e+00 
          1.7465809341e-16 -9.0486544616e-05 0.0000000000e+00 
          1.6870358802e-16 -9.0381447994e-05 0.0000000000e+00 
          1.2234056929e-16 -9.0305980697e-05 0.0000000000e+00 
          1.0970257661e-16 -9.0520350435e-05 0.0000000000e+00 
          7.1184711946e-17 -9.0650480629e-05 0.0000000000e+00 
          7.4775487657e-17 -9.0568231086e-05 0.0000000000e+00 
          5.4361208549e-17 -9.0513369164e-05 0.0000000000e+00 
          4.8948532231e-17 -9.0413053275e-05 0.0000000000e+00 
          4.4775875098e-17 -9.0369578994e-05 0.0000000000e+00 
        </DataArray>
        <DataArray type="Float64" Name="Displacement" NumberOfComponents="3" format="ascii">
          3.5467309576e-15 -8.6787341167e-05 0.0000000000e+00 
          3.5467309576e-15 -8.6787341167e-05 0.0000000000e+00 
          4.8443585675e-19 -1.0690273084e-04 0.0000000000e+00 
          4.8443585675e-19 -1.0690273084e-04 0.0000000000e+00 
          2.8223674664e-15 -8.7841791390e-05 0.0000000000e+00 
          2.2439578292e-15 -8.8865319637e-05 0.0000000000e+00 
          1.7826031407e-15 -8.9857209318e-05 0.0000000000e+00 
          1.4148397479e-15 -9.0817721202e-05 0.0000000000e+00 
          1.1219398294e-15 -9.1746125340e-05 0.0000000000e+00 
          8.8897225235e-16 -9.2643152452e-05 0.0000000000e+00 
          7.0377021009e-16 -9.3509292882e-05 0.0000000000e+00 
          5.5665226810e-16 -9.4343235544e-05 0.0000000000e+00 
          4.3994856254e-16 -9.5147289206e-05 0.0000000000e+00 
          3.4733464389e-16 -9.5923834399e-05 0.0000000000e+00 
          2.7402334512e-16 -9.6671945271e-05 0.0000000000e+00 
          2.1600921830e-16 -9.7392845881e-05 0.0000000000e+00 
          1.7020838687e-16 -9.8087553264e-05 0.0000000000e+00 
          1.3390538876e-16 -9.8756030040e-05 0.0000000000e+00 
          1.0526900982e-16 -9.9398205552e-05 0.0000000000e+00 
          8.2698434616e-17 -1.0001313819e-04 0.0000000000e+00 
          6.4894485768e-17 -1.0060057337e-04 0.0000000000e+00 
          5.0845927683e-17 -1.0116121316e-04 0.0000000000e+00 
          3.9960140362e-17 -1.0169539265e-04 0.0000000000e+00 
          3.1237962474e-17 -1.0220309172e-04 0.0000000000e+00 
          2.4396048033e-17 -1.0268402148e-04 0.0000000000e+00 
          1.9058536103e-17 -1.0313936115e-04 0.0000000000e+00 
          1.4929854455e-17 -1.0356967436e-04 0.0000000000e+00 
          1.1625074460e-17 -1.0397276684e-04 0.0000000000e+00 
          9.0082298700e-18 -1.0435129867e-04 0.0000000000e+00 
          7.0753847004e-18 -1.0470549267e-04 0.0000000000e+00 
          5.5203616680e-18 -1.0503212147e-04 0.0000000000e+00 
          4.2680607858e-18 -1.0533112017e-04 0.0000000000e+00 
          3.3194995678e-18 -1.0560297281e-04 0.0000000000e+00 
          2.5740839152e-18 -1.0584917382e-04 0.0000000000e+00 
          2.0320947284e-18 -1.0607013492e-04 0.0000000000e+00 
          1.5419484316e-18 -1.0626596730e-04 0.0000000000e+00 
          1.1926845427e-18 -1.0643631291e-04 0.0000000000e+00 
          9.9835649344e-19 -1.0658054827e-04 0.0000000000e+00 
          8.8687334394e-19 -1.0669852633e-04 0.0000000000e+00 
          6.9819416333e-19 -1.0678954783e-04 0.0000000000e+00 
          6.4290538521e-19 -1.0685426764e-04 0.0000000000e+00 
          4.8426384869e-19 -1.0689144443e-04 0.0000000000e+00 
          2.8223674664e-15 -8.7841791390e-05 0.0000000000e+00 
          2.2439578292e-15 -8.8865319637e-05 0.0000000000e+00 
          1.7826031407e-15 -8.9857209318e-05 0.0000000000e+00 
          1.4148397479e-15 -9.0817721202e-05 0.0000000000e+00 
          1.1219398294e-15 -9.1746125340e-05 0.0000000000e+00 
          8.8897225235e-16 -9.2643152452e-05 0.0000000000e+00 
          7.0377021009e-16 -9.3509292882e-05 0.0000000000e+00 
          5.5665226810e-16 -9.4343235544e-05 0.0000000000e+00 
          4.3994856254e-16 -9.5147289206e-05 0.0000000000e+00 
          3.4733464389e-16 -9.5923834399e-05 0.0000000000e+00 
          2.7402334512e-16 -9.6671945271e-05 0.0000000000e+00 
          2.1600921830e-16 -9.7392845881e-05 0.0000000000e+00 
          1.7020838687e-16 -9.8087553264e-05 0.0000000000e+00 
          1.3390538876e-16 -9.8756030040e-05 0.0000000000e+00 
          1.0526900982e-16 -9.9398205552e-05 0.0000000000e+00 
          8.2698434616e-17 -1.0001313819e-04 0.0000000000e+00 
          6.4894485768e-17 -1.0060057337e-04 0.0000000000e+00 
          5.0845927683e-17 -1.0116121316e-04 0.0000000000e+00 
          3.9960140362e-17 -1.0169539265e-04 0.0000000000e+00 
          3.1237962474e-17 -1.0220309172e-04 0.0000000000e+00 
          2.4396048033e-17 -1.0268402148e-04 0.0000000000e+00 
          1.9058536103e-17 -1.0313936115e-04 0.0000000000e+00 
          1.4929854455e-17 -1.0356967436e-04 0.0000000000e+00 
          1.1625074460e-17 -1.0397276684e-04 0.0000000000e+00 
          9.0082298700e-18 -1.0435129867e-04 0.0000000000e+00 
          7.0753847004e-18 -1.0470549267e-04 0.0000000000e+00 
          5.5203616680e-18 -1.0503212147e-04 0.0000000000e+00 
          4.2680607858e-18 -1.0533112017e-04 0.0000000000e+00 
          3.3194995678e-18 -1.0560297281e-04 0.0000000000e+00 
          2.5740839152e-18 -1.0584917382e-04 0.0000000000e+00 
          2.0320947284e-18 -1.0607013492e-04 0.0000000000e+00 
          1.5419484316e-18 -1.0626596730e-04 0.0000000000e+00 
          1.1926845427e-18 -1.0643631291e-04 0.0000000000e+00 
          9.9835649344e-19 -1.0658054827e-04 0.0000000000e+00 
          8.8687334394e-19 -1.0669852633e-04 0.0000000000e+00 
          6.9819416333e-19 -1.0678954783e-04 0.0000000000e+00 
          6.4290538521e-19 -1.0685426764e-04 0.0000000000e+00 
          4.8426384869e-19 -1.0689144443e-04 0.0000000000e+00 
        </DataArray>
        <DataArray type="Float64" Name="Acceleration" NumberOfComponents="3" format="ascii">
          1.6408380955e-11 -1.5184802055e-04 0.0000000000e+00 
          1.6408380955e-11 -1.5184802055e-04 0.0000000000e+00 
          4.1573941640e-16 -1.5197531972e-03 0.0000000000e+00 
          4.1573941640e-16 -1.5197531972e-03 0.0000000000e+00 
          1.3153982605e-11 -1.5202082543e-05 0.0000000000e+00 
          1.0545064828e-11 1.1370134359e-04 0.0000000000e+00 
          8.4313712541e-12 6.7174817717e-05 0.0000000000e+00 
          6.7491306276e-12 1.9847805943e-04 0.0000000000e+00 
          5.3967313736e-12 6.6799750226e-05 0.0000000000e+00 
          4.3051257180e-12 -2.1761682334e-05 0.0000000000e+00 
          3.4292731443e-12 2.1490738886e-04 0.0000000000e+00 
          2.7423213346e-12 -2.0134873363e-04 0.0000000000e+00 
          2.1700164292e-12 -6.3032953953e-04 0.0000000000e+00 
          1.7425145209e-12 -4.6365917732e-04 0.0000000000e+00 
          1.3761102593e-12 -6.8388946798e-04 0.0000000000e+00 
          1.0972838895e-12 -8.6734131990e-04 0.0000000000e+00 
          8.5790890503e-13 -8.6060556808e-04 0.0000000000e+00 
          6.9009990791e-13 -8.4787259140e-04 0.0000000000e+00 
          5.4981128243e-13 -6.7833246554e-04 0.0000000000e+00 
          4.2676943238e-13 -6.3216574202e-04 0.0000000000e+00 
          3.3773751007e-13 -7.5882839600e-04 0.0000000000e+00 
          2.8623859738e-13 -8.1921504407e-04 0.0000000000e+00 
          1.9563774176e-13 -8.1570379853e-04 0.0000000000e+00 
          1.6706370284e-13 -7.6340788741e-04 0.0000000000e+00 
          1.3853723640e-13 -9.7602738909e-04 0.0000000000e+00 
          1.0580498461e-13 -1.0775983044e-03 0.0000000000e+00 
          7.7699030211e-14 -6.8227215588e-04 0.0000000000e+00 
          5.7139369639e-14 -1.1614421452e-03 0.0000000000e+00 
          6.5267012586e-14 -1.2016900411e-03 0.0000000000e+00 
          3.3366614637e-14 -6.2010688741e-04 0.0000000000e+00 
          2.8411358664e-14 -6.0840991072e-04 0.0000000000e+00 
          2.5452343180e-14 -6.9569865939e-04 0.0000000000e+00 
          1.9751776181e-14 -9.6487432554e-04 0.0000000000e+00 
          1.4911240467e-14 -1.0391303451e-03 0.0000000000e+00 
          8.3163844167e-15 -1.0591710878e-03 0.0000000000e+00 
          1.3698063368e-14 -9.9468426609e-04 0.0000000000e+00 
          1.1821779618e-14 -8.8225190555e-04 0.0000000000e+00 
          5.8520896799e-15 -8.5579473087e-04 0.0000000000e+00 
          -4.8850233806e-15 -7.2978693331e-04 0.0000000000e+00 
          1.3968917422e-14 -8.4780609339e-04 0.0000000000e+00 
          -1.2493227855e-14 -6.2408561334e-04 0.0000000000e+00 
          1.5032016547e-14 -9.2191590182e-04 0.0000000000e+00 
          1.3153982605e-11 -1.5202082543e-05 0.0000000000e+00 
          1.0545064828e-11 1.1370134359e-04 0.0000000000e+00 
          8.4313712541e-12 6.7174817717e-05 0.0000000000e+00 
          6.7491306276e-12 1.9847805943e-04 0.0000000000e+00 
          5.3967313736e-12 6.6799750226e-05 0.0000000000e+00 
          4.3051257180e-12 -2.1761682334e-05 0.0000000000e+00 
          3.4292731443e-12 2.1490738886e-04 0.0000000000e+00 
          2.7423213346e-12 -2.0134873363e-04 0.0000000000e+00 
          2.1700164292e-12 -6.3032953953e-04 0.0000000000e+00 
          1.7425145209e-12 -4.6365917732e-04 0.0000000000e+00 
          1.3761102593e-12 -6.8388946798e-04 0.0000000000e+00 
          1.0972838895e-12 -8.6734131990e-04 0.0000000000e+00 
          8.5790890503e-13 -8.6060556808e-04 0.0000000000e+00 
          6.9009990791e-13 -8.4787259140e-04 0.0000000000e+00 
          5.4981128243e-13 -6.7833246554e-04 0.0000000000e+00 
          4.2676943238e-13 -6.3216574202e-04 0.0000000000e+00 
          3.3773751007e-13 -7.5882839600e-04 0.0000000000e+00 
          2.8623859738e-13 -8.1921504407e-04 0.0000000000e+00 
          1.9563774176e-13 -8.1570379853e-04 0.0000000000e+00 
          1.6706370284e-13 -7.6340788741e-04 0.0000000000e+00 
          1.3853723640e-13 -9.7602738909e-04 0.0000000000e+00 
          1.0580498461e-13 -1.0775983044e-03 0.0000000000e+00 
          7.7699030211e-14 -6.8227215588e-04 0.0000000000e+00 
          5.7139369639e-14 -1.1614421452e-03 0.0000000000e+00 
          6.5267012586e-14 -1.2016900411e-03 0.0000000000e+00 
          3.3366614637e-14 -6.2010688741e-04 0.0000000000e+00 
          2.8411358664e-14 -6.0840991072e-04 0.0000000000e+00 
          2.5452343180e-14 -6.9569865939e-04 0.0000000000e+00 
          1.9751776181e-14 -9.6487432554e-04 0.0000000000e+00 
          1.4911240467e-14 -1.0391303451e-03 0.0000000000e+00 
          8.3163844167e-15 -1.0591710878e-03 0.0000000000e+00 
          1.3698063368e-14 -9.9468426609e-04 0.0000000000e+00 
          1.1821779618e-14 -8.8225190555e-04 0.0000000000e+00 
          5.8520896799e-15 -8.5579473087e-04 0.0000000000e+00 
          -4.8850233806e-15 -7.2978693331e-04 0.0000000000e+00 
          1.3968917422e-14 -8.4780609339e-04 0.0000000000e+00 
          -1.2493227855e-14 -6.2408561334e-04 0.0000000000e+00 
          1.5032016547e-14 -9.2191590182e-04 0.0000000000e+00 
        </DataArray>
        <DataArray type="Float64" Name="Reaction" NumberOfComponents="3" format="ascii">
          0.0000000000e+00 0.0000000000e+00 0.0000000000e+00 
          0.0000000000e+00 0.0000000000e+00 0.0000000000e+00 
          0.0000000000e+00 0.0000000000e+00 0.0000000000e+00 
          0.0000000000e+00 0.0000000000e+00 0.0000000000e+00 
          0.0000000000e+00 0.0000000000e+00 0.0000000000e+00 
          0.0000000000e+00 0.0000000000e+00 0.0000000000e+00 
          0.0000000000e+00 0.0000000000e+00 0.0000000000e+00 
          0.0000000000e+00 0.0000000000e+00 0.0000000000e+00 
          0.0000000000e+00 0.0000000000e+00 0.0000000000e+00 
          0.0000000000e+00 0.0000000000e+00 0.0000000000e+00 
          0.0000000000e+00 0.0000000000e+00 0.0000000000e+00 
          0.0000000000e+00 0.0000000000e+00 0.0000000000e+00 
          0.0000000000e+00 0.0000000000e+00 0.0000000000e+00 
          0.0000000000e+00 0.0000000000e+00 0.0000000000e+00 
          0.0000000000e+00 0.0000000000e+00 0.0000000000e+00 
          0.0000000000e+00 0.0000000000e+00 0.0000000000e+00 
          0.0000000000e+00 0.0000000000e+00 0.0000000000e+00 
          0.0000000000e+00 0.0000000000e+00 0.0000000000e+00 
          0.0000000000e+00 0.0000000000e+00 0.0000000000e+00 
          0.0000000000e+00 0.0000000000e+00 0.0000000000e+00 
          0.0000000000e+00 0.0000000000e+00 0.0000000000e+00 
          0.0000000000e+00 0.0000000000e+00 0.0000000000e+00 
          0.0000000000e+00 0.0000000000e+00 0.0000000000e+00 
          0.0000000000e+00 0.0000000000e+00 0.0000000000e+00 
          0.0000000000e+00 0.0000000000e+00 0.0000000000e+00 
          0.0000000000e+00 0.0000000000e+00 0.0000000000e+00 
          0.0000000000e+00 0.0000000000e+00 0.0000000000e+00 
          0.0000000000e+00 0.0000000000e+00 0.0000000000e+00 
          0.0000000000e+00 0.0000000000e+00 0.0000000000e+00 
          0.0000000000e+00 0.0000000000e+00 0.0000000000e+00 
          0.0000000000e+00 0.0000000000e+00 0.0000000000e+00 
          0.0000000000e+00 0.0000000000e+00 0.0000000000e+00 
          0.0000000000e+00 0.0000000000e+00 0.0000000000e+00 
          0.0000000000e+00 0.0000000000e+00 0.0000000000e+00 
          0.0000000000e+00 0.0000000000e+00 0.0000000000e+00 
          0.0000000000e+00 0.0000000000e+00 0.0000000000e+00 
          0.0000000000e+00 0.0000000000e+00 0.0000000000e+00 
          0.0000000000e+00 0.0000000000e+00 0.0000000000e+00 
          0.0000000000e+00 0.0000000000e+00 0.0000000000e+00 
          0.0000000000e+00 0.0000000000e+00 0.0000000000e+00 
          0.0000000000e+00 0.0000000000e+00 0.0000000000e+00 
          0.0000000000e+00 0.0000000000e+00 0.0000000000e+00 
          0.0000000000e+00 0.0000000000e+00 0.0000000000e+00 
          0.0000000000e+00 0.0000000000e+00 0.0000000000e+00 
          0.0000000000e+00 0.0000000000e+00 0.0000000000e+00 
          0.0000000000e+00 0.0000000000e+00 0.0000000000e+00 
          0.0000000000e+00 0.0000000000e+00 0.0000000000e+00 
          0.0000000000e+00 0.0000000000e+00 0.0000000000e+00 
          0.0000000000e+00 0.0000000000e+00 0.0000000000e+00 
          0.0000000000e+00 0.0000000000e+00 0.0000000000e+00 
          0.0000000000e+00 0.0000000000e+00 0.0000000000e+00 
          0.0000000000e+00 0.0000000000e+00 0.0000000000e+00 
          0.0000000000e+00 0.0000000000e+00 0.0000000000e+00 
          0.0000000000e+00 0.0000000000e+00 0.0000000000e+00 
          0.0000000000e+00 0.0000000000e+00 0.0000000000e+00 
          0.0000000000e+00 0.0000000000e+00 0.0000000000e+00 
          0.0000000000e+00 0.0000000000e+00 0.0000000000e+00 
          0.0000000000e+00 0.0000000000e+00 0.0000000000e+00 
          0.0000000000e+00 0.0000000000e+00 0.0000000000e+00 
          0.0000000000e+00 0.0000000000e+00 0.0000000000e+00 
          0.0000000000e+00 0.0000000000e+00 0.0000000000e+00 
          0.0000000000e+00 0.0000000000e+00 0.0000000000e+00 
          0.0000000000e+00 0.0000000000e+00 0.0000000000e+00 
          0.0000000000e+00 0.0000000000e+00 0.0000000000e+00 
          0.0000000000e+00 0.0000000000e+00 0.0000000000e+00 
          0.0000000000e+00 0.0000000000e+00 0.0000000000e+00 
          0.0000000000e+00 0.0000000000e+00 0.0000000000e+00 
          0.0000000000e+00 0.0000000000e+00 0.0000000000e+00 
          0.0000000000e+00 0.0000000000e+00 0.0000000000e+00 
          0.0000000000e+00 0.0000000000e+00 0.0000000000e+00 
          0.0000000000e+00 0.0000000000e+00 0.0000000000e+00 
          0.0000000000e+00 0.0000000000e+00 0.0000000000e+00 
          0.0000000000e+00 0.0000000000e+00 0.0000000000e+00 
          0.0000000000e+00 0.0000000000e+00 0.0000000000e+00 
          0.0000000000e+00 0.0000000000e+00 0.0000000000e+00 
          0.0000000000e+00 0.0000000000e+00 0.0000000000e+00 
          0.0000000000e+00 0.0000000000e+00 0.0000000000e+00 
          0.0000000000e+00 0.0000000000e+00 0.0000000000e+00 
          0.0000000000e+00 0.0000000000e+00 0.0000000000e+00 
          0.0000000000e+00 0.0000000000e+00 0.0000000000e+00 
        </DataArray>
      </PointData>
      <CellData>
        <DataArray type="Int64" Name="ElementTag" format="ascii">
          90
          91
          92
          93
          94
          95
          96
          97
          98
          99
          100
          101
          102
          103
          104
          105
          106
          107
          108
          109
          110
          111
          112
          113
          114
          115
          116
          117
          118
          119
          120
          121
          122
          123
          124
          125
          126
          127
          128
        </DataArray>
      </CellData>
    </Piece>
  </UnstructuredGrid>
</VTKFile>
