<?xml version="1.0"?>
<VTKFile type="UnstructuredGrid" version="1.0" byte_order="LittleEndian" compressor="vtkZLibDataCompressor">
  <UnstructuredGrid>
    <Piece NumberOfPoints="82" NumberOfCells="1">
      <Points>
        <DataArray type="Float64" Name="Points" NumberOfComponents="3" format="ascii">
          0.0000000000e+00 0.0000000000e+00 0.0000000000e+00 
          2.5000000000e-01 0.0000000000e+00 0.0000000000e+00 
          2.5000000000e-01 3.0000000000e+01 0.0000000000e+00 
          0.0000000000e+00 3.0000000000e+01 0.0000000000e+00 
          0.0000000000e+00 -5.0000000000e+00 0.0000000000e+00 
          2.5000000000e-01 -5.0000000000e+00 0.0000000000e+00 
          2.5000000000e-01 7.6923100000e-01 0.0000000000e+00 
          2.5000000000e-01 1.5384620000e+00 0.0000000000e+00 
          2.5000000000e-01 2.3076920000e+00 0.0000000000e+00 
          2.5000000000e-01 3.0769230000e+00 0.0000000000e+00 
          2.5000000000e-01 3.8461540000e+00 0.0000000000e+00 
          2.5000000000e-01 4.6153850000e+00 0.0000000000e+00 
          2.5000000000e-01 5.3846150000e+00 0.0000000000e+00 
          2.5000000000e-01 6.1538460000e+00 0.0000000000e+00 
          2.5000000000e-01 6.9230770000e+00 0.0000000000e+00 
          2.5000000000e-01 7.6923080000e+00 0.0000000000e+00 
          2.5000000000e-01 8.4615380000e+00 0.0000000000e+00 
          2.5000000000e-01 9.2307690000e+00 0.0000000000e+00 
          2.5000000000e-01 1.0000000000e+01 0.0000000000e+00 
          2.5000000000e-01 1.0769231000e+01 0.0000000000e+00 
          2.5000000000e-01 1.1538462000e+01 0.0000000000e+00 
          2.5000000000e-01 1.2307692000e+01 0.0000000000e+00 
          2.5000000000e-01 1.3076923000e+01 0.0000000000e+00 
          2.5000000000e-01 1.3846154000e+01 0.0000000000e+00 
          2.5000000000e-01 1.4615385000e+01 0.0000000000e+00 
          2.5000000000e-01 1.5384615000e+01 0.0000000000e+00 
          2.5000000000e-01 1.6153846000e+01 0.0000000000e+00 
          2.5000000000e-01 1.6923077000e+01 0.0000000000e+00 
          2.5000000000e-01 1.7692308000e+01 0.0000000000e+00 
          2.5000000000e-01 1.8461538000e+01 0.0000000000e+00 
          2.5000000000e-01 1.9230769000e+01 0.0000000000e+00 
          2.5000000000e-01 2.0000000000e+01 0.0000000000e+00 
          2.5000000000e-01 2.0769231000e+01 0.0000000000e+00 
          2.5000000000e-01 2.1538462000e+01 0.0000000000e+00 
          2.5000000000e-01 2.2307692000e+01 0.0000000000e+00 
          2.5000000000e-01 2.3076923000e+01 0.0000000000e+00 
          2.5000000000e-01 2.3846154000e+01 0.0000000000e+00 
          2.5000000000e-01 2.4615385000e+01 0.0000000000e+00 
          2.5000000000e-01 2.5384615000e+01 0.0000000000e+00 
          2.5000000000e-01 2.6153846000e+01 0.0000000000e+00 
          2.5000000000e-01 2.6923077000e+01 0.0000000000e+00 
          2.5000000000e-01 2.7692308000e+01 0.0000000000e+00 
          2.5000000000e-01 2.8461538000e+01 0.0000000000e+00 
          2.5000000000e-01 2.9230769000e+01 0.0000000000e+00 
          0.0000000000e+00 7.6923100000e-01 0.0000000000e+00 
          0.0000000000e+00 1.5384620000e+00 0.0000000000e+00 
          0.0000000000e+00 2.3076920000e+00 0.0000000000e+00 
          0.0000000000e+00 3.0769230000e+00 0.0000000000e+00 
          0.0000000000e+00 3.8461540000e+00 0.0000000000e+00 
          0.0000000000e+00 4.6153850000e+00 0.0000000000e+00 
          0.0000000000e+00 5.3846150000e+00 0.0000000000e+00 
          0.0000000000e+00 6.1538460000e+00 0.0000000000e+00 
          0.0000000000e+00 6.9230770000e+00 0.0000000000e+00 
          0.0000000000e+00 7.6923080000e+00 0.0000000000e+00 
          0.0000000000e+00 8.4615380000e+00 0.0000000000e+00 
          0.0000000000e+00 9.2307690000e+00 0.0000000000e+00 
          0.0000000000e+00 1.0000000000e+01 0.0000000000e+00 
          0.0000000000e+00 1.0769231000e+01 0.0000000000e+00 
          0.0000000000e+00 1.1538462000e+01 0.0000000000e+00 
          0.0000000000e+00 1.2307692000e+01 0.0000000000e+00 
          0.0000000000e+00 1.3076923000e+01 0.0000000000e+00 
          0.0000000000e+00 1.3846154000e+01 0.0000000000e+00 
          0.0000000000e+00 1.4615385000e+01 0.0000000000e+00 
          0.0000000000e+00 1.5384615000e+01 0.0000000000e+00 
          0.0000000000e+00 1.6153846000e+01 0.0000000000e+00 
          0.0000000000e+00 1.6923077000e+01 0.0000000000e+00 
          0.0000000000e+00 1.7692308000e+01 0.0000000000e+00 
          0.0000000000e+00 1.8461538000e+01 0.0000000000e+00 
          0.0000000000e+00 1.9230769000e+01 0.0000000000e+00 
          0.0000000000e+00 2.0000000000e+01 0.0000000000e+00 
          0.0000000000e+00 2.0769231000e+01 0.0000000000e+00 
          0.0000000000e+00 2.1538462000e+01 0.0000000000e+00 
          0.0000000000e+00 2.2307692000e+01 0.0000000000e+00 
          0.0000000000e+00 2.3076923000e+01 0.0000000000e+00 
          0.0000000000e+00 2.3846154000e+01 0.0000000000e+00 
          0.0000000000e+00 2.4615385000e+01 0.0000000000e+00 
          0.0000000000e+00 2.5384615000e+01 0.0000000000e+00 
          0.0000000000e+00 2.6153846000e+01 0.0000000000e+00 
          0.0000000000e+00 2.6923077000e+01 0.0000000000e+00 
          0.0000000000e+00 2.7692308000e+01 0.0000000000e+00 
          0.0000000000e+00 2.8461538000e+01 0.0000000000e+00 
          0.0000000000e+00 2.9230769000e+01 0.0000000000e+00 
        </DataArray>
      </Points>
      <Cells>
        <DataArray type="Int64" Name="connectivity" format="ascii">
          0
          1
          2
          3
          4
          5
          6
          7
          8
          9
          10
          11
          12
          13
          14
          15
          16
          17
          18
          19
          20
          21
          22
          23
          24
          25
          26
          27
          28
          29
          30
          31
          32
          33
          34
          35
          36
          37
          38
          39
          40
          41
          42
          43
          44
          45
          46
          47
          48
          49
          50
          51
          52
          53
          54
          55
          56
          57
          58
          59
          60
          61
          62
          63
          64
          65
          66
          67
          68
          69
          70
          71
          72
          73
          74
          75
          76
          77
          78
          79
          80
          81
        </DataArray>
        <DataArray type="Int64" Name="offsets" format="ascii">
          82
        </DataArray>
        <DataArray type="Int64" Name="types" format="ascii">
          2
        </DataArray>
      </Cells>
      <PointData>
        <DataArray type="Int64" Name="NodeTag" format="ascii">
          1
          2
          3
          4
          5
          6
          7
          8
          9
          10
          11
          12
          13
          14
          15
          16
          17
          18
          19
          20
          21
          22
          23
          24
          25
          26
          27
          28
          29
          30
          31
          32
          33
          34
          35
          36
          37
          38
          39
          40
          41
          42
          43
          44
          45
          46
          47
          48
          49
          50
          51
          52
          53
          54
          55
          56
          57
          58
          59
          60
          61
          62
          63
          64
          65
          66
          67
          68
          69
          70
          71
          72
          73
          74
          75
          76
          77
          78
          79
          80
          81
          82
        </DataArray>
        <DataArray type="Float64" Name="Velocity" NumberOfComponents="3" format="ascii">
          -1.1228403272e-02 -7.7689579228e-05 0.0000000000e+00 
          -1.1228403272e-02 -7.7689579228e-05 0.0000000000e+00 
          1.5690584519e-01 -8.0752754180e-05 0.0000000000e+00 
          1.5690584519e-01 -8.0752754180e-05 0.0000000000e+00 
          0.0000000000e+00 0.0000000000e+00 0.0000000000e+00 
          0.0000000000e+00 0.0000000000e+00 0.0000000000e+00 
          -4.4749438537e-03 -7.7892434863e-05 0.0000000000e+00 
          2.2721938876e-03 -7.7904076595e-05 0.0000000000e+00 
          9.0014877821e-03 -7.8085877293e-05 0.0000000000e+00 
          1.5701527933e-02 -7.8097005244e-05 0.0000000000e+00 
          2.2360913057e-02 -7.8205686879e-05 0.0000000000e+00 
          2.8968368124e-02 -7.8212615897e-05 0.0000000000e+00 
          3.5512673226e-02 -7.8430033755e-05 0.0000000000e+00 
          4.1982790219e-02 -7.8311341524e-05 0.0000000000e+00 
          4.8367854719e-02 -7.8419585752e-05 0.0000000000e+00 
          5.4657108506e-02 -7.8681956736e-05 0.0000000000e+00 
          6.0839982514e-02 -7.8483992705e-05 0.0000000000e+00 
          6.6906166559e-02 -7.8611893444e-05 0.0000000000e+00 
          7.2845550645e-02 -7.8813170483e-05 0.0000000000e+00 
          7.8648247591e-02 -7.8821482221e-05 0.0000000000e+00 
          8.4304637985e-02 -7.9035724624e-05 0.0000000000e+00 
          8.9805392628e-02 -7.8970024833e-05 0.0000000000e+00 
          9.5141469994e-02 -7.9153737899e-05 0.0000000000e+00 
          1.0030413430e-01 -7.9299514645e-05 0.0000000000e+00 
          1.0528491222e-01 -7.9288175910e-05 0.0000000000e+00 
          1.1007569383e-01 -7.9537613287e-05 0.0000000000e+00 
          1.1466874869e-01 -7.9557006856e-05 0.0000000000e+00 
          1.1905663642e-01 -7.9655785240e-05 0.0000000000e+00 
          1.2323229258e-01 -7.9742371574e-05 0.0000000000e+00 
          1.2718901377e-01 -7.9712494931e-05 0.0000000000e+00 
          1.3092047257e-01 -8.0035457133e-05 0.0000000000e+00 
          1.3442074353e-01 -8.0052360903e-05 0.0000000000e+00 
          1.3768427833e-01 -8.0093825288e-05 0.0000000000e+00 
          1.4070587393e-01 -8.0382231165e-05 0.0000000000e+00 
          1.4348079429e-01 -8.0306793740e-05 0.0000000000e+00 
          1.4600468233e-01 -8.0434014188e-05 0.0000000000e+00 
          1.4827356978e-01 -8.0234805429e-05 0.0000000000e+00 
          1.5028391781e-01 -8.0370121348e-05 0.0000000000e+00 
          1.5203257258e-01 -8.0555942892e-05 0.0000000000e+00 
          1.5351681209e-01 -8.0441696908e-05 0.0000000000e+00 
          1.5473434424e-01 -8.0481183205e-05 0.0000000000e+00 
          1.5568328972e-01 -8.0597059121e-05 0.0000000000e+00 
          1.5636215520e-01 -8.0502048572e-05 0.0000000000e+00 
          1.5676987592e-01 -8.0508755212e-05 0.0000000000e+00 
          -4.4749438537e-03 -7.7892434863e-05 0.0000000000e+00 
          2.2721938876e-03 -7.7904076595e-05 0.0000000000e+00 
          9.0014877821e-03 -7.8085877293e-05 0.0000000000e+00 
          1.5701527933e-02 -7.8097005244e-05 0.0000000000e+00 
          2.2360913057e-02 -7.8205686879e-05 0.0000000000e+00 
          2.8968368124e-02 -7.8212615897e-05 0.0000000000e+00 
          3.5512673226e-02 -7.8430033755e-05 0.0000000000e+00 
          4.1982790219e-02 -7.8311341524e-05 0.0000000000e+00 
          4.8367854719e-02 -7.8419585752e-05 0.0000000000e+00 
          5.4657108506e-02 -7.8681956736e-05 0.0000000000e+00 
          6.0839982514e-02 -7.8483992705e-05 0.0000000000e+00 
          6.6906166559e-02 -7.8611893444e-05 0.0000000000e+00 
          7.2845550645e-02 -7.8813170483e-05 0.0000000000e+00 
          7.8648247591e-02 -7.8821482221e-05 0.0000000000e+00 
          8.4304637985e-02 -7.9035724624e-05 0.0000000000e+00 
          8.9805392628e-02 -7.8970024833e-05 0.0000000000e+00 
          9.5141469994e-02 -7.9153737899e-05 0.0000000000e+00 
          1.0030413430e-01 -7.9299514645e-05 0.0000000000e+00 
          1.0528491222e-01 -7.9288175910e-05 0.0000000000e+00 
          1.1007569383e-01 -7.9537613287e-05 0.0000000000e+00 
          1.1466874869e-01 -7.9557006856e-05 0.0000000000e+00 
          1.1905663642e-01 -7.9655785240e-05 0.0000000000e+00 
          1.2323229258e-01 -7.9742371574e-05 0.0000000000e+00 
          1.2718901377e-01 -7.9712494931e-05 0.0000000000e+00 
          1.3092047257e-01 -8.0035457133e-05 0.0000000000e+00 
          1.3442074353e-01 -8.0052360903e-05 0.0000000000e+00 
          1.3768427833e-01 -8.0093825288e-05 0.0000000000e+00 
          1.4070587393e-01 -8.0382231165e-05 0.0000000000e+00 
          1.4348079429e-01 -8.0306793740e-05 0.0000000000e+00 
          1.4600468233e-01 -8.0434014188e-05 0.0000000000e+00 
          1.4827356978e-01 -8.0234805429e-05 0.0000000000e+00 
          1.5028391781e-01 -8.0370121348e-05 0.0000000000e+00 
          1.5203257258e-01 -8.0555942892e-05 0.0000000000e+00 
          1.5351681209e-01 -8.0441696908e-05 0.0000000000e+00 
          1.5473434424e-01 -8.0481183205e-05 0.0000000000e+00 
          1.5568328972e-01 -8.0597059121e-05 0.0000000000e+00 
          1.5636215520e-01 -8.0502048572e-05 0.0000000000e+00 
          1.5676987592e-01 -8.0508755212e-05 0.0000000000e+00 
        </DataArray>
        <DataArray type="Float64" Name="Displacement" NumberOfComponents="3" format="ascii">
          -2.4970755875e-03 -2.3402353560e-04 0.0000000000e+00 
          -2.4970755875e-03 -2.3402353560e-04 0.0000000000e+00 
          -6.0814177871e-03 -2.5754416527e-04 0.0000000000e+00 
          -6.0814177871e-03 -2.5754416527e-04 0.0000000000e+00 
          0.0000000000e+00 0.0000000000e+00 0.0000000000e+00 
          0.0000000000e+00 0.0000000000e+00 0.0000000000e+00 
          -2.6812863768e-03 -2.3521490646e-04 0.0000000000e+00 
          -2.8609030578e-03 -2.3637581430e-04 0.0000000000e+00 
          -3.0358507011e-03 -2.3750553538e-04 0.0000000000e+00 
          -3.2060624616e-03 -2.3860416295e-04 0.0000000000e+00 
          -3.3714784130e-03 -2.3967220032e-04 0.0000000000e+00 
          -3.5320459561e-03 -2.4070860501e-04 0.0000000000e+00 
          -3.6877195203e-03 -2.4171419395e-04 0.0000000000e+00 
          -3.8384612091e-03 -2.4268896961e-04 0.0000000000e+00 
          -3.9842390759e-03 -2.4363270674e-04 0.0000000000e+00 
          -4.1250281599e-03 -2.4454531841e-04 0.0000000000e+00 
          -4.2608094778e-03 -2.4542701796e-04 0.0000000000e+00 
          -4.3915706235e-03 -2.4627800885e-04 0.0000000000e+00 
          -4.5173045283e-03 -2.4709811094e-04 0.0000000000e+00 
          -4.6380096233e-03 -2.4788721969e-04 0.0000000000e+00 
          -4.7536895847e-03 -2.4864515439e-04 0.0000000000e+00 
          -4.8643526084e-03 -2.4937250882e-04 0.0000000000e+00 
          -4.9700116571e-03 -2.5006853237e-04 0.0000000000e+00 
          -5.0706832952e-03 -2.5073357011e-04 0.0000000000e+00 
          -5.1663877862e-03 -2.5136777911e-04 0.0000000000e+00 
          -5.2571483496e-03 -2.5197064066e-04 0.0000000000e+00 
          -5.3429912826e-03 -2.5254281900e-04 0.0000000000e+00 
          -5.4239448479e-03 -2.5308372775e-04 0.0000000000e+00 
          -5.5000391332e-03 -2.5359350608e-04 0.0000000000e+00 
          -5.5713054853e-03 -2.5407243856e-04 0.0000000000e+00 
          -5.6377763717e-03 -2.5452023771e-04 0.0000000000e+00 
          -5.6994844816e-03 -2.5493730024e-04 0.0000000000e+00 
          -5.7564625943e-03 -2.5532319736e-04 0.0000000000e+00 
          -5.8087428572e-03 -2.5567795139e-04 0.0000000000e+00 
          -5.8563567124e-03 -2.5600217869e-04 0.0000000000e+00 
          -5.8993344356e-03 -2.5629549298e-04 0.0000000000e+00 
          -5.9377044722e-03 -2.5655757200e-04 0.0000000000e+00 
          -5.9714934247e-03 -2.5678881665e-04 0.0000000000e+00 
          -6.0007253356e-03 -2.5698953662e-04 0.0000000000e+00 
          -6.0254218722e-03 -2.5715897295e-04 0.0000000000e+00 
          -6.0456018185e-03 -2.5729769030e-04 0.0000000000e+00 
          -6.0612807354e-03 -2.5740563761e-04 0.0000000000e+00 
          -6.0724709993e-03 -2.5748249200e-04 0.0000000000e+00 
          -6.0791815673e-03 -2.5752884842e-04 0.0000000000e+00 
          -2.6812863768e-03 -2.3521490646e-04 0.0000000000e+00 
          -2.8609030578e-03 -2.3637581430e-04 0.0000000000e+00 
          -3.0358507011e-03 -2.3750553538e-04 0.0000000000e+00 
          -3.2060624616e-03 -2.3860416295e-04 0.0000000000e+00 
          -3.3714784130e-03 -2.3967220032e-04 0.0000000000e+00 
          -3.5320459561e-03 -2.4070860501e-04 0.0000000000e+00 
          -3.6877195203e-03 -2.4171419395e-04 0.0000000000e+00 
          -3.8384612091e-03 -2.4268896961e-04 0.0000000000e+00 
          -3.9842390759e-03 -2.4363270674e-04 0.0000000000e+00 
          -4.1250281599e-03 -2.4454531841e-04 0.0000000000e+00 
          -4.2608094778e-03 -2.4542701796e-04 0.0000000000e+00 
          -4.3915706235e-03 -2.4627800885e-04 0.0000000000e+00 
          -4.5173045283e-03 -2.4709811094e-04 0.0000000000e+00 
          -4.6380096233e-03 -2.4788721969e-04 0.0000000000e+00 
          -4.7536895847e-03 -2.4864515439e-04 0.0000000000e+00 
          -4.8643526084e-03 -2.4937250882e-04 0.0000000000e+00 
          -4.9700116571e-03 -2.5006853237e-04 0.0000000000e+00 
          -5.0706832952e-03 -2.5073357011e-04 0.0000000000e+00 
          -5.1663877862e-03 -2.5136777911e-04 0.0000000000e+00 
          -5.2571483496e-03 -2.5197064066e-04 0.0000000000e+00 
          -5.3429912826e-03 -2.5254281900e-04 0.0000000000e+00 
          -5.4239448479e-03 -2.5308372775e-04 0.0000000000e+00 
          -5.5000391332e-03 -2.5359350608e-04 0.0000000000e+00 
          -5.5713054853e-03 -2.5407243856e-04 0.0000000000e+00 
          -5.6377763717e-03 -2.5452023771e-04 0.0000000000e+00 
          -5.6994844816e-03 -2.5493730024e-04 0.0000000000e+00 
          -5.7564625943e-03 -2.5532319736e-04 0.0000000000e+00 
          -5.8087428572e-03 -2.5567795139e-04 0.0000000000e+00 
          -5.8563567124e-03 -2.5600217869e-04 0.0000000000e+00 
          -5.8993344356e-03 -2.5629549298e-04 0.0000000000e+00 
          -5.9377044722e-03 -2.5655757200e-04 0.0000000000e+00 
          -5.9714934247e-03 -2.5678881665e-04 0.0000000000e+00 
          -6.0007253356e-03 -2.5698953662e-04 0.0000000000e+00 
          -6.0254218722e-03 -2.5715897295e-04 0.0000000000e+00 
          -6.0456018185e-03 -2.5729769030e-04 0.0000000000e+00 
          -6.0612807354e-03 -2.5740563761e-04 0.0000000000e+00 
          -6.0724709993e-03 -2.5748249200e-04 0.0000000000e+00 
          -6.0791815673e-03 -2.5752884842e-04 0.0000000000e+00 
        </DataArray>
        <DataArray type="Float64" Name="Acceleration" NumberOfComponents="3" format="ascii">
          4.0651458031e-01 -1.2002701509e-05 0.0000000000e+00 
          4.0651458031e-01 -1.2002701509e-05 0.0000000000e+00 
          4.0297564188e-01 -6.7151998389e-05 0.0000000000e+00 
          4.0297564188e-01 -6.7151998389e-05 0.0000000000e+00 
          0.0000000000e+00 0.0000000000e+00 0.0000000000e+00 
          0.0000000000e+00 0.0000000000e+00 0.0000000000e+00 
          4.1393822340e-01 -9.7909424131e-05 0.0000000000e+00 
          4.2066929996e-01 3.2254835007e-05 0.0000000000e+00 
          4.2673316428e-01 1.5974686738e-05 0.0000000000e+00 
          4.3211187499e-01 -7.4988701143e-05 0.0000000000e+00 
          4.3685115635e-01 1.1286980117e-04 0.0000000000e+00 
          4.4093922116e-01 -3.4577429468e-05 0.0000000000e+00 
          4.4439023476e-01 -3.4548744134e-05 0.0000000000e+00 
          4.4725015695e-01 5.8006163980e-06 0.0000000000e+00 
          4.4949919041e-01 2.1465346510e-05 0.0000000000e+00 
          4.5119400395e-01 -1.7180592835e-05 0.0000000000e+00 
          4.5234362637e-01 -5.3432744828e-05 0.0000000000e+00 
          4.5296433134e-01 -2.1178718472e-05 0.0000000000e+00 
          4.5310569852e-01 -2.3434343062e-06 0.0000000000e+00 
          4.5277445496e-01 3.0221157757e-05 0.0000000000e+00 
          4.5202332923e-01 -7.6943747144e-05 0.0000000000e+00 
          4.5088128931e-01 5.8656278973e-05 0.0000000000e+00 
          4.4937553954e-01 -3.6963856732e-06 0.0000000000e+00 
          4.4754976657e-01 -3.2005557518e-05 0.0000000000e+00 
          4.4544729662e-01 6.1332683444e-05 0.0000000000e+00 
          4.4309912488e-01 -5.8084455349e-05 0.0000000000e+00 
          4.4054169273e-01 4.7438945513e-05 0.0000000000e+00 
          4.3783071465e-01 2.2361484256e-05 0.0000000000e+00 
          4.3499826344e-01 -2.9029265998e-05 0.0000000000e+00 
          4.3208954712e-01 2.3000657510e-05 0.0000000000e+00 
          4.2913557524e-01 -4.8604592620e-05 0.0000000000e+00 
          4.2618208404e-01 2.8664704676e-05 0.0000000000e+00 
          4.2328554724e-01 2.4644455824e-05 0.0000000000e+00 
          4.2044724562e-01 -8.6499133535e-05 0.0000000000e+00 
          4.1773050068e-01 -1.6738192214e-05 0.0000000000e+00 
          4.1516165542e-01 4.1253886058e-05 0.0000000000e+00 
          4.1276473137e-01 -3.0988462578e-05 0.0000000000e+00 
          4.1059528669e-01 -8.6840502526e-05 0.0000000000e+00 
          4.0864986999e-01 5.0022379820e-05 0.0000000000e+00 
          4.0695370642e-01 -5.1782750829e-05 0.0000000000e+00 
          4.0555162915e-01 -4.2583355659e-05 0.0000000000e+00 
          4.0443546398e-01 1.5589634240e-05 0.0000000000e+00 
          4.0363102092e-01 -9.1588121544e-05 0.0000000000e+00 
          4.0314760362e-01 5.9891894494e-06 0.0000000000e+00 
          4.1393822340e-01 -9.7909424131e-05 0.0000000000e+00 
          4.2066929996e-01 3.2254835007e-05 0.0000000000e+00 
          4.2673316428e-01 1.5974686738e-05 0.0000000000e+00 
          4.3211187499e-01 -7.4988701143e-05 0.0000000000e+00 
          4.3685115635e-01 1.1286980117e-04 0.0000000000e+00 
          4.4093922116e-01 -3.4577429468e-05 0.0000000000e+00 
          4.4439023476e-01 -3.4548744134e-05 0.0000000000e+00 
          4.4725015695e-01 5.8006163980e-06 0.0000000000e+00 
          4.4949919041e-01 2.1465346510e-05 0.0000000000e+00 
          4.5119400395e-01 -1.7180592835e-05 0.0000000000e+00 
          4.5234362637e-01 -5.3432744828e-05 0.0000000000e+00 
          4.5296433134e-01 -2.1178718472e-05 0.0000000000e+00 
          4.5310569852e-01 -2.3434343062e-06 0.0000000000e+00 
          4.5277445496e-01 3.0221157757e-05 0.0000000000e+00 
          4.5202332923e-01 -7.6943747144e-05 0.0000000000e+00 
          4.5088128931e-01 5.8656278973e-05 0.0000000000e+00 
          4.4937553954e-01 -3.6963856732e-06 0.0000000000e+00 
          4.4754976657e-01 -3.2005557518e-05 0.0000000000e+00 
          4.4544729662e-01 6.1332683444e-05 0.0000000000e+00 
          4.4309912488e-01 -5.8084455349e-05 0.0000000000e+00 
          4.4054169273e-01 4.7438945513e-05 0.0000000000e+00 
          4.3783071465e-01 2.2361484256e-05 0.0000000000e+00 
          4.3499826344e-01 -2.9029265998e-05 0.0000000000e+00 
          4.3208954712e-01 2.3000657510e-05 0.0000000000e+00 
          4.2913557524e-01 -4.8604592620e-05 0.0000000000e+00 
          4.2618208404e-01 2.8664704676e-05 0.0000000000e+00 
          4.2328554724e-01 2.4644455824e-05 0.0000000000e+00 
          4.2044724562e-01 -8.6499133535e-05 0.0000000000e+00 
          4.1773050068e-01 -1.6738192214e-05 0.0000000000e+00 
          4.1516165542e-01 4.1253886058e-05 0.0000000000e+00 
          4.1276473137e-01 -3.0988462578e-05 0.0000000000e+00 
          4.1059528669e-01 -8.6840502526e-05 0.0000000000e+00 
          4.0864986999e-01 5.0022379820e-05 0.0000000000e+00 
          4.0695370642e-01 -5.1782750829e-05 0.0000000000e+00 
          4.0555162915e-01 -4.2583355659e-05 0.0000000000e+00 
          4.0443546398e-01 1.5589634240e-05 0.0000000000e+00 
          4.0363102092e-01 -9.1588121544e-05 0.0000000000e+00 
          4.0314760362e-01 5.9891894494e-06 0.0000000000e+00 
        </DataArray>
        <DataArray type="Float64" Name="Reaction" NumberOfComponents="3" format="ascii">
          0.0000000000e+00 0.0000000000e+00 0.0000000000e+00 
          0.0000000000e+00 0.0000000000e+00 0.0000000000e+00 
          0.0000000000e+00 0.0000000000e+00 0.0000000000e+00 
          0.0000000000e+00 0.0000000000e+00 0.0000000000e+00 
          0.0000000000e+00 0.0000000000e+00 0.0000000000e+00 
          0.0000000000e+00 0.0000000000e+00 0.0000000000e+00 
          0.0000000000e+00 0.0000000000e+00 0.0000000000e+00 
          0.0000000000e+00 0.0000000000e+00 0.0000000000e+00 
          0.0000000000e+00 0.0000000000e+00 0.0000000000e+00 
          0.0000000000e+00 0.0000000000e+00 0.0000000000e+00 
          0.0000000000e+00 0.0000000000e+00 0.0000000000e+00 
          0.0000000000e+00 0.0000000000e+00 0.0000000000e+00 
          0.0000000000e+00 0.0000000000e+00 0.0000000000e+00 
          0.0000000000e+00 0.0000000000e+00 0.0000000000e+00 
          0.0000000000e+00 0.0000000000e+00 0.0000000000e+00 
          0.0000000000e+00 0.0000000000e+00 0.0000000000e+00 
          0.0000000000e+00 0.0000000000e+00 0.0000000000e+00 
          0.0000000000e+00 0.0000000000e+00 0.0000000000e+00 
          0.0000000000e+00 0.0000000000e+00 0.0000000000e+00 
          0.0000000000e+00 0.0000000000e+00 0.0000000000e+00 
          0.0000000000e+00 0.0000000000e+00 0.0000000000e+00 
          0.0000000000e+00 0.0000000000e+00 0.0000000000e+00 
          0.0000000000e+00 0.0000000000e+00 0.0000000000e+00 
          0.0000000000e+00 0.0000000000e+00 0.0000000000e+00 
          0.0000000000e+00 0.0000000000e+00 0.0000000000e+00 
          0.0000000000e+00 0.0000000000e+00 0.0000000000e+00 
          0.0000000000e+00 0.0000000000e+00 0.0000000000e+00 
          0.0000000000e+00 0.0000000000e+00 0.0000000000e+00 
          0.0000000000e+00 0.0000000000e+00 0.0000000000e+00 
          0.0000000000e+00 0.0000000000e+00 0.0000000000e+00 
          0.0000000000e+00 0.0000000000e+00 0.0000000000e+00 
          0.0000000000e+00 0.0000000000e+00 0.0000000000e+00 
          0.0000000000e+00 0.0000000000e+00 0.0000000000e+00 
          0.0000000000e+00 0.0000000000e+00 0.0000000000e+00 
          0.0000000000e+00 0.0000000000e+00 0.0000000000e+00 
          0.0000000000e+00 0.0000000000e+00 0.0000000000e+00 
          0.0000000000e+00 0.0000000000e+00 0.0000000000e+00 
          0.0000000000e+00 0.0000000000e+00 0.0000000000e+00 
          0.0000000000e+00 0.0000000000e+00 0.0000000000e+00 
          0.0000000000e+00 0.0000000000e+00 0.0000000000e+00 
          0.0000000000e+00 0.0000000000e+00 0.0000000000e+00 
          0.0000000000e+00 0.0000000000e+00 0.0000000000e+00 
          0.0000000000e+00 0.0000000000e+00 0.0000000000e+00 
          0.0000000000e+00 0.0000000000e+00 0.0000000000e+00 
          0.0000000000e+00 0.0000000000e+00 0.0000000000e+00 
          0.0000000000e+00 0.0000000000e+00 0.0000000000e+00 
          0.0000000000e+00 0.0000000000e+00 0.0000000000e+00 
          0.0000000000e+00 0.0000000000e+00 0.0000000000e+00 
          0.0000000000e+00 0.0000000000e+00 0.0000000000e+00 
          0.0000000000e+00 0.0000000000e+00 0.0000000000e+00 
          0.0000000000e+00 0.0000000000e+00 0.0000000000e+00 
          0.0000000000e+00 0.0000000000e+00 0.0000000000e+00 
          0.0000000000e+00 0.0000000000e+00 0.0000000000e+00 
          0.0000000000e+00 0.0000000000e+00 0.0000000000e+00 
          0.0000000000e+00 0.0000000000e+00 0.0000000000e+00 
          0.0000000000e+00 0.0000000000e+00 0.0000000000e+00 
          0.0000000000e+00 0.0000000000e+00 0.0000000000e+00 
          0.0000000000e+00 0.0000000000e+00 0.0000000000e+00 
          0.0000000000e+00 0.0000000000e+00 0.0000000000e+00 
          0.0000000000e+00 0.0000000000e+00 0.0000000000e+00 
          0.0000000000e+00 0.0000000000e+00 0.0000000000e+00 
          0.0000000000e+00 0.0000000000e+00 0.0000000000e+00 
          0.0000000000e+00 0.0000000000e+00 0.0000000000e+00 
          0.0000000000e+00 0.0000000000e+00 0.0000000000e+00 
          0.0000000000e+00 0.0000000000e+00 0.0000000000e+00 
          0.0000000000e+00 0.0000000000e+00 0.0000000000e+00 
          0.0000000000e+00 0.0000000000e+00 0.0000000000e+00 
          0.0000000000e+00 0.0000000000e+00 0.0000000000e+00 
          0.0000000000e+00 0.0000000000e+00 0.0000000000e+00 
          0.0000000000e+00 0.0000000000e+00 0.0000000000e+00 
          0.0000000000e+00 0.0000000000e+00 0.0000000000e+00 
          0.0000000000e+00 0.0000000000e+00 0.0000000000e+00 
          0.0000000000e+00 0.0000000000e+00 0.0000000000e+00 
          0.0000000000e+00 0.0000000000e+00 0.0000000000e+00 
          0.0000000000e+00 0.0000000000e+00 0.0000000000e+00 
          0.0000000000e+00 0.0000000000e+00 0.0000000000e+00 
          0.0000000000e+00 0.0000000000e+00 0.0000000000e+00 
          0.0000000000e+00 0.0000000000e+00 0.0000000000e+00 
          0.0000000000e+00 0.0000000000e+00 0.0000000000e+00 
          0.0000000000e+00 0.0000000000e+00 0.0000000000e+00 
          0.0000000000e+00 0.0000000000e+00 0.0000000000e+00 
          0.0000000000e+00 0.0000000000e+00 0.0000000000e+00 
        </DataArray>
      </PointData>
      <CellData>
        <DataArray type="Int64" Name="ElementTag" format="ascii">
          0
        </DataArray>
      </CellData>
    </Piece>
  </UnstructuredGrid>
</VTKFile>
