<?xml version="1.0"?>
<VTKFile type="UnstructuredGrid" version="1.0" byte_order="LittleEndian" compressor="vtkZLibDataCompressor">
  <UnstructuredGrid>
    <Piece NumberOfPoints="80" NumberOfCells="39">
      <Points>
        <DataArray type="Float64" Name="Points" NumberOfComponents="3" format="ascii">
          0.0000000000e+00 0.0000000000e+00 0.0000000000e+00 
          2.5000000000e-01 0.0000000000e+00 0.0000000000e+00 
          2.5000000000e-01 3.0000000000e+01 0.0000000000e+00 
          0.0000000000e+00 3.0000000000e+01 0.0000000000e+00 
          2.5000000000e-01 7.6923100000e-01 0.0000000000e+00 
          2.5000000000e-01 1.5384620000e+00 0.0000000000e+00 
          2.5000000000e-01 2.3076920000e+00 0.0000000000e+00 
          2.5000000000e-01 3.0769230000e+00 0.0000000000e+00 
          2.5000000000e-01 3.8461540000e+00 0.0000000000e+00 
          2.5000000000e-01 4.6153850000e+00 0.0000000000e+00 
          2.5000000000e-01 5.3846150000e+00 0.0000000000e+00 
          2.5000000000e-01 6.1538460000e+00 0.0000000000e+00 
          2.5000000000e-01 6.9230770000e+00 0.0000000000e+00 
          2.5000000000e-01 7.6923080000e+00 0.0000000000e+00 
          2.5000000000e-01 8.4615380000e+00 0.0000000000e+00 
          2.5000000000e-01 9.2307690000e+00 0.0000000000e+00 
          2.5000000000e-01 1.0000000000e+01 0.0000000000e+00 
          2.5000000000e-01 1.0769231000e+01 0.0000000000e+00 
          2.5000000000e-01 1.1538462000e+01 0.0000000000e+00 
          2.5000000000e-01 1.2307692000e+01 0.0000000000e+00 
          2.5000000000e-01 1.3076923000e+01 0.0000000000e+00 
          2.5000000000e-01 1.3846154000e+01 0.0000000000e+00 
          2.5000000000e-01 1.4615385000e+01 0.0000000000e+00 
          2.5000000000e-01 1.5384615000e+01 0.0000000000e+00 
          2.5000000000e-01 1.6153846000e+01 0.0000000000e+00 
          2.5000000000e-01 1.6923077000e+01 0.0000000000e+00 
          2.5000000000e-01 1.7692308000e+01 0.0000000000e+00 
          2.5000000000e-01 1.8461538000e+01 0.0000000000e+00 
          2.5000000000e-01 1.9230769000e+01 0.0000000000e+00 
          2.5000000000e-01 2.0000000000e+01 0.0000000000e+00 
          2.5000000000e-01 2.0769231000e+01 0.0000000000e+00 
          2.5000000000e-01 2.1538462000e+01 0.0000000000e+00 
          2.5000000000e-01 2.2307692000e+01 0.0000000000e+00 
          2.5000000000e-01 2.3076923000e+01 0.0000000000e+00 
          2.5000000000e-01 2.3846154000e+01 0.0000000000e+00 
          2.5000000000e-01 2.4615385000e+01 0.0000000000e+00 
          2.5000000000e-01 2.5384615000e+01 0.0000000000e+00 
          2.5000000000e-01 2.6153846000e+01 0.0000000000e+00 
          2.5000000000e-01 2.6923077000e+01 0.0000000000e+00 
          2.5000000000e-01 2.7692308000e+01 0.0000000000e+00 
          2.5000000000e-01 2.8461538000e+01 0.0000000000e+00 
          2.5000000000e-01 2.9230769000e+01 0.0000000000e+00 
          0.0000000000e+00 7.6923100000e-01 0.0000000000e+00 
          0.0000000000e+00 1.5384620000e+00 0.0000000000e+00 
          0.0000000000e+00 2.3076920000e+00 0.0000000000e+00 
          0.0000000000e+00 3.0769230000e+00 0.0000000000e+00 
          0.0000000000e+00 3.8461540000e+00 0.0000000000e+00 
          0.0000000000e+00 4.6153850000e+00 0.0000000000e+00 
          0.0000000000e+00 5.3846150000e+00 0.0000000000e+00 
          0.0000000000e+00 6.1538460000e+00 0.0000000000e+00 
          0.0000000000e+00 6.9230770000e+00 0.0000000000e+00 
          0.0000000000e+00 7.6923080000e+00 0.0000000000e+00 
          0.0000000000e+00 8.4615380000e+00 0.0000000000e+00 
          0.0000000000e+00 9.2307690000e+00 0.0000000000e+00 
          0.0000000000e+00 1.0000000000e+01 0.0000000000e+00 
          0.0000000000e+00 1.0769231000e+01 0.0000000000e+00 
          0.0000000000e+00 1.1538462000e+01 0.0000000000e+00 
          0.0000000000e+00 1.2307692000e+01 0.0000000000e+00 
          0.0000000000e+00 1.3076923000e+01 0.0000000000e+00 
          0.0000000000e+00 1.3846154000e+01 0.0000000000e+00 
          0.0000000000e+00 1.4615385000e+01 0.0000000000e+00 
          0.0000000000e+00 1.5384615000e+01 0.0000000000e+00 
          0.0000000000e+00 1.6153846000e+01 0.0000000000e+00 
          0.0000000000e+00 1.6923077000e+01 0.0000000000e+00 
          0.0000000000e+00 1.7692308000e+01 0.0000000000e+00 
          0.0000000000e+00 1.8461538000e+01 0.0000000000e+00 
          0.0000000000e+00 1.9230769000e+01 0.0000000000e+00 
          0.0000000000e+00 2.0000000000e+01 0.0000000000e+00 
          0.0000000000e+00 2.0769231000e+01 0.0000000000e+00 
          0.0000000000e+00 2.1538462000e+01 0.0000000000e+00 
          0.0000000000e+00 2.2307692000e+01 0.0000000000e+00 
          0.0000000000e+00 2.3076923000e+01 0.0000000000e+00 
          0.0000000000e+00 2.3846154000e+01 0.0000000000e+00 
          0.0000000000e+00 2.4615385000e+01 0.0000000000e+00 
          0.0000000000e+00 2.5384615000e+01 0.0000000000e+00 
          0.0000000000e+00 2.6153846000e+01 0.0000000000e+00 
          0.0000000000e+00 2.6923077000e+01 0.0000000000e+00 
          0.0000000000e+00 2.7692308000e+01 0.0000000000e+00 
          0.0000000000e+00 2.8461538000e+01 0.0000000000e+00 
          0.0000000000e+00 2.9230769000e+01 0.0000000000e+00 
        </DataArray>
      </Points>
      <Cells>
        <DataArray type="Int64" Name="connectivity" format="ascii">
          0 1 4 42 
          42 4 5 43 
          43 5 6 44 
          44 6 7 45 
          45 7 8 46 
          46 8 9 47 
          47 9 10 48 
          48 10 11 49 
          49 11 12 50 
          50 12 13 51 
          51 13 14 52 
          52 14 15 53 
          53 15 16 54 
          54 16 17 55 
          55 17 18 56 
          56 18 19 57 
          57 19 20 58 
          58 20 21 59 
          59 21 22 60 
          60 22 23 61 
          61 23 24 62 
          62 24 25 63 
          63 25 26 64 
          64 26 27 65 
          65 27 28 66 
          66 28 29 67 
          67 29 30 68 
          68 30 31 69 
          69 31 32 70 
          70 32 33 71 
          71 33 34 72 
          72 34 35 73 
          73 35 36 74 
          74 36 37 75 
          75 37 38 76 
          76 38 39 77 
          77 39 40 78 
          78 40 41 79 
          79 41 2 3 
        </DataArray>
        <DataArray type="Int64" Name="offsets" format="ascii">
          4
          8
          12
          16
          20
          24
          28
          32
          36
          40
          44
          48
          52
          56
          60
          64
          68
          72
          76
          80
          84
          88
          92
          96
          100
          104
          108
          112
          116
          120
          124
          128
          132
          136
          140
          144
          148
          152
          156
        </DataArray>
        <DataArray type="Int64" Name="types" format="ascii">
          9
          9
          9
          9
          9
          9
          9
          9
          9
          9
          9
          9
          9
          9
          9
          9
          9
          9
          9
          9
          9
          9
          9
          9
          9
          9
          9
          9
          9
          9
          9
          9
          9
          9
          9
          9
          9
          9
          9
        </DataArray>
      </Cells>
      <PointData>
        <DataArray type="Int64" Name="NodeTag" format="ascii">
          1
          2
          3
          4
          7
          8
          9
          10
          11
          12
          13
          14
          15
          16
          17
          18
          19
          20
          21
          22
          23
          24
          25
          26
          27
          28
          29
          30
          31
          32
          33
          34
          35
          36
          37
          38
          39
          40
          41
          42
          43
          44
          45
          46
          47
          48
          49
          50
          51
          52
          53
          54
          55
          56
          57
          58
          59
          60
          61
          62
          63
          64
          65
          66
          67
          68
          69
          70
          71
          72
          73
          74
          75
          76
          77
          78
          79
          80
          81
          82
        </DataArray>
        <DataArray type="Float64" Name="Velocity" NumberOfComponents="3" format="ascii">
          -6.4632629195e-06 -7.7844120257e-05 0.0000000000e+00 
          -6.4632629195e-06 -7.7844120257e-05 0.0000000000e+00 
          4.0194708960e-05 -7.7839678560e-05 0.0000000000e+00 
          4.0194708960e-05 -7.7839678560e-05 0.0000000000e+00 
          -4.6499169599e-06 -7.7839835733e-05 0.0000000000e+00 
          -2.8413111265e-06 -7.7854729220e-05 0.0000000000e+00 
          -1.0195636430e-06 -7.7829777494e-05 0.0000000000e+00 
          7.8880061368e-07 -7.7856875300e-05 0.0000000000e+00 
          2.5962291232e-06 -7.7846717148e-05 0.0000000000e+00 
          4.3960182012e-06 -7.7819450686e-05 0.0000000000e+00 
          6.1777450074e-06 -7.7889385287e-05 0.0000000000e+00 
          7.9505957686e-06 -7.7797462389e-05 0.0000000000e+00 
          9.6994402091e-06 -7.7871209358e-05 0.0000000000e+00 
          1.1430322417e-05 -7.7852918184e-05 0.0000000000e+00 
          1.3133760562e-05 -7.7805242584e-05 0.0000000000e+00 
          1.4809285534e-05 -7.7896542067e-05 0.0000000000e+00 
          1.6457907491e-05 -7.7797746858e-05 0.0000000000e+00 
          1.8063926003e-05 -7.7882815543e-05 0.0000000000e+00 
          1.9644007444e-05 -7.7811580482e-05 0.0000000000e+00 
          2.1175318120e-05 -7.7872221099e-05 0.0000000000e+00 
          2.2666851067e-05 -7.7826976645e-05 0.0000000000e+00 
          2.4118153188e-05 -7.7852747693e-05 0.0000000000e+00 
          2.5509965568e-05 -7.7842642614e-05 0.0000000000e+00 
          2.6865725686e-05 -7.7842459726e-05 0.0000000000e+00 
          2.8155515165e-05 -7.7853808313e-05 0.0000000000e+00 
          2.9396842215e-05 -7.7826811586e-05 0.0000000000e+00 
          3.0581458395e-05 -7.7871362818e-05 0.0000000000e+00 
          3.1698616422e-05 -7.7812034565e-05 0.0000000000e+00 
          3.2763521346e-05 -7.7883554965e-05 0.0000000000e+00 
          3.3756603523e-05 -7.7799159214e-05 0.0000000000e+00 
          3.4685962249e-05 -7.7893891289e-05 0.0000000000e+00 
          3.5552073161e-05 -7.7806937227e-05 0.0000000000e+00 
          3.6340273595e-05 -7.7854137147e-05 0.0000000000e+00 
          3.7065354770e-05 -7.7870470640e-05 0.0000000000e+00 
          3.7714355458e-05 -7.7799047994e-05 0.0000000000e+00 
          3.8290527138e-05 -7.7887404571e-05 0.0000000000e+00 
          3.8792375221e-05 -7.7822125806e-05 0.0000000000e+00 
          3.9218850974e-05 -7.7847194855e-05 0.0000000000e+00 
          3.9568206117e-05 -7.7855714755e-05 0.0000000000e+00 
          3.9841099232e-05 -7.7831234143e-05 0.0000000000e+00 
          4.0037432037e-05 -7.7853326009e-05 0.0000000000e+00 
          4.0152236953e-05 -7.7845926444e-05 0.0000000000e+00 
          -4.6499169599e-06 -7.7839835733e-05 0.0000000000e+00 
          -2.8413111265e-06 -7.7854729220e-05 0.0000000000e+00 
          -1.0195636430e-06 -7.7829777494e-05 0.0000000000e+00 
          7.8880061368e-07 -7.7856875300e-05 0.0000000000e+00 
          2.5962291232e-06 -7.7846717148e-05 0.0000000000e+00 
          4.3960182012e-06 -7.7819450686e-05 0.0000000000e+00 
          6.1777450074e-06 -7.7889385287e-05 0.0000000000e+00 
          7.9505957686e-06 -7.7797462389e-05 0.0000000000e+00 
          9.6994402091e-06 -7.7871209358e-05 0.0000000000e+00 
          1.1430322417e-05 -7.7852918184e-05 0.0000000000e+00 
          1.3133760562e-05 -7.7805242584e-05 0.0000000000e+00 
          1.4809285534e-05 -7.7896542067e-05 0.0000000000e+00 
          1.6457907491e-05 -7.7797746858e-05 0.0000000000e+00 
          1.8063926003e-05 -7.7882815543e-05 0.0000000000e+00 
          1.9644007444e-05 -7.7811580482e-05 0.0000000000e+00 
          2.1175318120e-05 -7.7872221099e-05 0.0000000000e+00 
          2.2666851067e-05 -7.7826976645e-05 0.0000000000e+00 
          2.4118153188e-05 -7.7852747693e-05 0.0000000000e+00 
          2.5509965568e-05 -7.7842642614e-05 0.0000000000e+00 
          2.6865725686e-05 -7.7842459726e-05 0.0000000000e+00 
          2.8155515165e-05 -7.7853808313e-05 0.0000000000e+00 
          2.9396842215e-05 -7.7826811586e-05 0.0000000000e+00 
          3.0581458395e-05 -7.7871362818e-05 0.0000000000e+00 
          3.1698616422e-05 -7.7812034565e-05 0.0000000000e+00 
          3.2763521346e-05 -7.7883554965e-05 0.0000000000e+00 
          3.3756603523e-05 -7.7799159214e-05 0.0000000000e+00 
          3.4685962249e-05 -7.7893891289e-05 0.0000000000e+00 
          3.5552073161e-05 -7.7806937227e-05 0.0000000000e+00 
          3.6340273595e-05 -7.7854137147e-05 0.0000000000e+00 
          3.7065354770e-05 -7.7870470640e-05 0.0000000000e+00 
          3.7714355458e-05 -7.7799047994e-05 0.0000000000e+00 
          3.8290527138e-05 -7.7887404571e-05 0.0000000000e+00 
          3.8792375221e-05 -7.7822125806e-05 0.0000000000e+00 
          3.9218850974e-05 -7.7847194855e-05 0.0000000000e+00 
          3.9568206117e-05 -7.7855714755e-05 0.0000000000e+00 
          3.9841099232e-05 -7.7831234143e-05 0.0000000000e+00 
          4.0037432037e-05 -7.7853326009e-05 0.0000000000e+00 
          4.0152236953e-05 -7.7845926444e-05 0.0000000000e+00 
        </DataArray>
        <DataArray type="Float64" Name="Displacement" NumberOfComponents="3" format="ascii">
          -5.9978113194e-07 -6.3650057892e-04 0.0000000000e+00 
          -5.9978113194e-07 -6.3650057892e-04 0.0000000000e+00 
          -2.9842628165e-06 -6.6008089563e-04 0.0000000000e+00 
          -2.9842628165e-06 -6.6008089563e-04 0.0000000000e+00 
          -7.0650977001e-07 -6.3769431626e-04 0.0000000000e+00 
          -8.1191759678e-07 -6.3885706812e-04 0.0000000000e+00 
          -9.1588478119e-07 -6.3998878808e-04 0.0000000000e+00 
          -1.0183072450e-06 -6.4108949425e-04 0.0000000000e+00 
          -1.1190686664e-06 -6.4215926880e-04 0.0000000000e+00 
          -1.2180738811e-06 -6.4319790878e-04 0.0000000000e+00 
          -1.3152054111e-06 -6.4420565641e-04 0.0000000000e+00 
          -1.4103733994e-06 -6.4518237950e-04 0.0000000000e+00 
          -1.5034845051e-06 -6.4612797509e-04 0.0000000000e+00 
          -1.5944204484e-06 -6.4704280391e-04 0.0000000000e+00 
          -1.6831264932e-06 -6.4792634529e-04 0.0000000000e+00 
          -1.7694784026e-06 -6.4877910987e-04 0.0000000000e+00 
          -1.8534129245e-06 -6.4960074821e-04 0.0000000000e+00 
          -1.9348481658e-06 -6.5039139820e-04 0.0000000000e+00 
          -2.0136841253e-06 -6.5115107672e-04 0.0000000000e+00 
          -2.0898773666e-06 -6.5187970130e-04 0.0000000000e+00 
          -2.1633311112e-06 -6.5257737191e-04 0.0000000000e+00 
          -2.2339809523e-06 -6.5324397378e-04 0.0000000000e+00 
          -2.3017788407e-06 -6.5387962929e-04 0.0000000000e+00 
          -2.3666346781e-06 -6.5448425200e-04 0.0000000000e+00 
          -2.4285165671e-06 -6.5505784451e-04 0.0000000000e+00 
          -2.4873512551e-06 -6.5560048710e-04 0.0000000000e+00 
          -2.5430956885e-06 -6.5611206540e-04 0.0000000000e+00 
          -2.5956982634e-06 -6.5659268628e-04 0.0000000000e+00 
          -2.6451134873e-06 -6.5704225547e-04 0.0000000000e+00 
          -2.6913007691e-06 -6.5746084982e-04 0.0000000000e+00 
          -2.7342191069e-06 -6.5784845942e-04 0.0000000000e+00 
          -2.7738353298e-06 -6.5820494531e-04 0.0000000000e+00 
          -2.8101088250e-06 -6.5853064385e-04 0.0000000000e+00 
          -2.8430281727e-06 -6.5882506699e-04 0.0000000000e+00 
          -2.8725370042e-06 -6.5908871475e-04 0.0000000000e+00 
          -2.8986450032e-06 -6.5932123870e-04 0.0000000000e+00 
          -2.9213049278e-06 -6.5952274012e-04 0.0000000000e+00 
          -2.9405084061e-06 -6.5969334175e-04 0.0000000000e+00 
          -2.9562512581e-06 -6.5983281625e-04 0.0000000000e+00 
          -2.9684937374e-06 -6.5994136108e-04 0.0000000000e+00 
          -2.9772562576e-06 -6.6001887872e-04 0.0000000000e+00 
          -2.9825143426e-06 -6.6006537444e-04 0.0000000000e+00 
          -7.0650977001e-07 -6.3769431626e-04 0.0000000000e+00 
          -8.1191759678e-07 -6.3885706812e-04 0.0000000000e+00 
          -9.1588478119e-07 -6.3998878808e-04 0.0000000000e+00 
          -1.0183072450e-06 -6.4108949425e-04 0.0000000000e+00 
          -1.1190686664e-06 -6.4215926880e-04 0.0000000000e+00 
          -1.2180738811e-06 -6.4319790878e-04 0.0000000000e+00 
          -1.3152054111e-06 -6.4420565641e-04 0.0000000000e+00 
          -1.4103733994e-06 -6.4518237950e-04 0.0000000000e+00 
          -1.5034845051e-06 -6.4612797509e-04 0.0000000000e+00 
          -1.5944204484e-06 -6.4704280391e-04 0.0000000000e+00 
          -1.6831264932e-06 -6.4792634529e-04 0.0000000000e+00 
          -1.7694784026e-06 -6.4877910987e-04 0.0000000000e+00 
          -1.8534129245e-06 -6.4960074821e-04 0.0000000000e+00 
          -1.9348481658e-06 -6.5039139820e-04 0.0000000000e+00 
          -2.0136841253e-06 -6.5115107672e-04 0.0000000000e+00 
          -2.0898773666e-06 -6.5187970130e-04 0.0000000000e+00 
          -2.1633311112e-06 -6.5257737191e-04 0.0000000000e+00 
          -2.2339809523e-06 -6.5324397378e-04 0.0000000000e+00 
          -2.3017788407e-06 -6.5387962929e-04 0.0000000000e+00 
          -2.3666346781e-06 -6.5448425200e-04 0.0000000000e+00 
          -2.4285165671e-06 -6.5505784451e-04 0.0000000000e+00 
          -2.4873512551e-06 -6.5560048710e-04 0.0000000000e+00 
          -2.5430956885e-06 -6.5611206540e-04 0.0000000000e+00 
          -2.5956982634e-06 -6.5659268628e-04 0.0000000000e+00 
          -2.6451134873e-06 -6.5704225547e-04 0.0000000000e+00 
          -2.6913007691e-06 -6.5746084982e-04 0.0000000000e+00 
          -2.7342191069e-06 -6.5784845942e-04 0.0000000000e+00 
          -2.7738353298e-06 -6.5820494531e-04 0.0000000000e+00 
          -2.8101088250e-06 -6.5853064385e-04 0.0000000000e+00 
          -2.8430281727e-06 -6.5882506699e-04 0.0000000000e+00 
          -2.8725370042e-06 -6.5908871475e-04 0.0000000000e+00 
          -2.8986450032e-06 -6.5932123870e-04 0.0000000000e+00 
          -2.9213049278e-06 -6.5952274012e-04 0.0000000000e+00 
          -2.9405084061e-06 -6.5969334175e-04 0.0000000000e+00 
          -2.9562512581e-06 -6.5983281625e-04 0.0000000000e+00 
          -2.9684937374e-06 -6.5994136108e-04 0.0000000000e+00 
          -2.9772562576e-06 -6.6001887872e-04 0.0000000000e+00 
          -2.9825143426e-06 -6.6006537444e-04 0.0000000000e+00 
        </DataArray>
        <DataArray type="Float64" Name="Acceleration" NumberOfComponents="3" format="ascii">
          1.0898481038e-04 3.1528321093e-07 0.0000000000e+00 
          1.0898481038e-04 3.1528321093e-07 0.0000000000e+00 
          3.1508191192e-04 6.4949638908e-06 0.0000000000e+00 
          3.1508191192e-04 6.4949638908e-06 0.0000000000e+00 
          1.1900770662e-04 -3.7580208566e-06 0.0000000000e+00 
          1.2979262823e-04 4.3456396062e-06 0.0000000000e+00 
          1.3919464483e-04 1.6107261882e-06 0.0000000000e+00 
          1.4966319687e-04 -1.3463745132e-05 0.0000000000e+00 
          1.5823769737e-04 2.3108341846e-05 0.0000000000e+00 
          1.6881142183e-04 -2.0774259239e-05 0.0000000000e+00 
          1.7693048452e-04 3.5206762580e-06 0.0000000000e+00 
          1.8532917413e-04 2.1835060901e-05 0.0000000000e+00 
          1.9598643873e-04 -4.3172418982e-05 0.0000000000e+00 
          2.0090799107e-04 5.0452340330e-05 0.0000000000e+00 
          2.1212277494e-04 -4.1152501414e-05 0.0000000000e+00 
          2.1781139197e-04 2.1606585714e-05 0.0000000000e+00 
          2.2519011402e-04 -3.2403715639e-06 0.0000000000e+00 
          2.3420042404e-04 -6.2835370541e-06 0.0000000000e+00 
          2.3810536298e-04 8.4120110905e-06 0.0000000000e+00 
          2.4684314547e-04 -9.2633819613e-06 0.0000000000e+00 
          2.5263723922e-04 1.1244398831e-05 0.0000000000e+00 
          2.5696657689e-04 -1.0806043797e-05 0.0000000000e+00 
          2.6507717686e-04 4.6296748487e-06 0.0000000000e+00 
          2.6796639788e-04 4.4449198456e-06 0.0000000000e+00 
          2.7455882380e-04 -1.0166251600e-05 0.0000000000e+00 
          2.7843803943e-04 1.0443987379e-05 0.0000000000e+00 
          2.8308168288e-04 -8.9230664281e-06 0.0000000000e+00 
          2.8719297017e-04 8.2867059168e-06 0.0000000000e+00 
          2.9084395264e-04 -5.6744646003e-06 0.0000000000e+00 
          2.9453831682e-04 -3.8908811527e-06 0.0000000000e+00 
          2.9752706750e-04 2.1151802687e-05 0.0000000000e+00 
          3.0118230930e-04 -3.9534643792e-05 0.0000000000e+00 
          3.0221977426e-04 4.8565461994e-05 0.0000000000e+00 
          3.0729423297e-04 -4.1620359781e-05 0.0000000000e+00 
          3.0642172186e-04 2.1171859191e-05 0.0000000000e+00 
          3.1067587387e-04 2.8715227137e-06 0.0000000000e+00 
          3.1143547942e-04 -1.9148403048e-05 0.0000000000e+00 
          3.1180927387e-04 2.1768418574e-05 0.0000000000e+00 
          3.1539048874e-04 -1.3817069638e-05 0.0000000000e+00 
          3.1355036796e-04 3.7452689264e-06 0.0000000000e+00 
          3.1575776258e-04 2.8279675618e-06 0.0000000000e+00 
          3.1622288542e-04 -5.7310328680e-06 0.0000000000e+00 
          1.1900770662e-04 -3.7580208566e-06 0.0000000000e+00 
          1.2979262823e-04 4.3456396062e-06 0.0000000000e+00 
          1.3919464483e-04 1.6107261882e-06 0.0000000000e+00 
          1.4966319687e-04 -1.3463745132e-05 0.0000000000e+00 
          1.5823769737e-04 2.3108341846e-05 0.0000000000e+00 
          1.6881142183e-04 -2.0774259239e-05 0.0000000000e+00 
          1.7693048452e-04 3.5206762580e-06 0.0000000000e+00 
          1.8532917413e-04 2.1835060901e-05 0.0000000000e+00 
          1.9598643873e-04 -4.3172418982e-05 0.0000000000e+00 
          2.0090799107e-04 5.0452340330e-05 0.0000000000e+00 
          2.1212277494e-04 -4.1152501414e-05 0.0000000000e+00 
          2.1781139197e-04 2.1606585714e-05 0.0000000000e+00 
          2.2519011402e-04 -3.2403715639e-06 0.0000000000e+00 
          2.3420042404e-04 -6.2835370541e-06 0.0000000000e+00 
          2.3810536298e-04 8.4120110905e-06 0.0000000000e+00 
          2.4684314547e-04 -9.2633819613e-06 0.0000000000e+00 
          2.5263723922e-04 1.1244398831e-05 0.0000000000e+00 
          2.5696657689e-04 -1.0806043797e-05 0.0000000000e+00 
          2.6507717686e-04 4.6296748487e-06 0.0000000000e+00 
          2.6796639788e-04 4.4449198456e-06 0.0000000000e+00 
          2.7455882380e-04 -1.0166251600e-05 0.0000000000e+00 
          2.7843803943e-04 1.0443987379e-05 0.0000000000e+00 
          2.8308168288e-04 -8.9230664281e-06 0.0000000000e+00 
          2.8719297017e-04 8.2867059168e-06 0.0000000000e+00 
          2.9084395264e-04 -5.6744646003e-06 0.0000000000e+00 
          2.9453831682e-04 -3.8908811527e-06 0.0000000000e+00 
          2.9752706750e-04 2.1151802687e-05 0.0000000000e+00 
          3.0118230930e-04 -3.9534643792e-05 0.0000000000e+00 
          3.0221977426e-04 4.8565461994e-05 0.0000000000e+00 
          3.0729423297e-04 -4.1620359781e-05 0.0000000000e+00 
          3.0642172186e-04 2.1171859191e-05 0.0000000000e+00 
          3.1067587387e-04 2.8715227137e-06 0.0000000000e+00 
          3.1143547942e-04 -1.9148403048e-05 0.0000000000e+00 
          3.1180927387e-04 2.1768418574e-05 0.0000000000e+00 
          3.1539048874e-04 -1.3817069638e-05 0.0000000000e+00 
          3.1355036796e-04 3.7452689264e-06 0.0000000000e+00 
          3.1575776258e-04 2.8279675618e-06 0.0000000000e+00 
          3.1622288542e-04 -5.7310328680e-06 0.0000000000e+00 
        </DataArray>
        <DataArray type="Float64" Name="Reaction" NumberOfComponents="3" format="ascii">
          0.0000000000e+00 0.0000000000e+00 0.0000000000e+00 
          0.0000000000e+00 0.0000000000e+00 0.0000000000e+00 
          0.0000000000e+00 0.0000000000e+00 0.0000000000e+00 
          0.0000000000e+00 0.0000000000e+00 0.0000000000e+00 
          0.0000000000e+00 0.0000000000e+00 0.0000000000e+00 
          0.0000000000e+00 0.0000000000e+00 0.0000000000e+00 
          0.0000000000e+00 0.0000000000e+00 0.0000000000e+00 
          0.0000000000e+00 0.0000000000e+00 0.0000000000e+00 
          0.0000000000e+00 0.0000000000e+00 0.0000000000e+00 
          0.0000000000e+00 0.0000000000e+00 0.0000000000e+00 
          0.0000000000e+00 0.0000000000e+00 0.0000000000e+00 
          0.0000000000e+00 0.0000000000e+00 0.0000000000e+00 
          0.0000000000e+00 0.0000000000e+00 0.0000000000e+00 
          0.0000000000e+00 0.0000000000e+00 0.0000000000e+00 
          0.0000000000e+00 0.0000000000e+00 0.0000000000e+00 
          0.0000000000e+00 0.0000000000e+00 0.0000000000e+00 
          0.0000000000e+00 0.0000000000e+00 0.0000000000e+00 
          0.0000000000e+00 0.0000000000e+00 0.0000000000e+00 
          0.0000000000e+00 0.0000000000e+00 0.0000000000e+00 
          0.0000000000e+00 0.0000000000e+00 0.0000000000e+00 
          0.0000000000e+00 0.0000000000e+00 0.0000000000e+00 
          0.0000000000e+00 0.0000000000e+00 0.0000000000e+00 
          0.0000000000e+00 0.0000000000e+00 0.0000000000e+00 
          0.0000000000e+00 0.0000000000e+00 0.0000000000e+00 
          0.0000000000e+00 0.0000000000e+00 0.0000000000e+00 
          0.0000000000e+00 0.0000000000e+00 0.0000000000e+00 
          0.0000000000e+00 0.0000000000e+00 0.0000000000e+00 
          0.0000000000e+00 0.0000000000e+00 0.0000000000e+00 
          0.0000000000e+00 0.0000000000e+00 0.0000000000e+00 
          0.0000000000e+00 0.0000000000e+00 0.0000000000e+00 
          0.0000000000e+00 0.0000000000e+00 0.0000000000e+00 
          0.0000000000e+00 0.0000000000e+00 0.0000000000e+00 
          0.0000000000e+00 0.0000000000e+00 0.0000000000e+00 
          0.0000000000e+00 0.0000000000e+00 0.0000000000e+00 
          0.0000000000e+00 0.0000000000e+00 0.0000000000e+00 
          0.0000000000e+00 0.0000000000e+00 0.0000000000e+00 
          0.0000000000e+00 0.0000000000e+00 0.0000000000e+00 
          0.0000000000e+00 0.0000000000e+00 0.0000000000e+00 
          0.0000000000e+00 0.0000000000e+00 0.0000000000e+00 
          0.0000000000e+00 0.0000000000e+00 0.0000000000e+00 
          0.0000000000e+00 0.0000000000e+00 0.0000000000e+00 
          0.0000000000e+00 0.0000000000e+00 0.0000000000e+00 
          0.0000000000e+00 0.0000000000e+00 0.0000000000e+00 
          0.0000000000e+00 0.0000000000e+00 0.0000000000e+00 
          0.0000000000e+00 0.0000000000e+00 0.0000000000e+00 
          0.0000000000e+00 0.0000000000e+00 0.0000000000e+00 
          0.0000000000e+00 0.0000000000e+00 0.0000000000e+00 
          0.0000000000e+00 0.0000000000e+00 0.0000000000e+00 
          0.0000000000e+00 0.0000000000e+00 0.0000000000e+00 
          0.0000000000e+00 0.0000000000e+00 0.0000000000e+00 
          0.0000000000e+00 0.0000000000e+00 0.0000000000e+00 
          0.0000000000e+00 0.0000000000e+00 0.0000000000e+00 
          0.0000000000e+00 0.0000000000e+00 0.0000000000e+00 
          0.0000000000e+00 0.0000000000e+00 0.0000000000e+00 
          0.0000000000e+00 0.0000000000e+00 0.0000000000e+00 
          0.0000000000e+00 0.0000000000e+00 0.0000000000e+00 
          0.0000000000e+00 0.0000000000e+00 0.0000000000e+00 
          0.0000000000e+00 0.0000000000e+00 0.0000000000e+00 
          0.0000000000e+00 0.0000000000e+00 0.0000000000e+00 
          0.0000000000e+00 0.0000000000e+00 0.0000000000e+00 
          0.0000000000e+00 0.0000000000e+00 0.0000000000e+00 
          0.0000000000e+00 0.0000000000e+00 0.0000000000e+00 
          0.0000000000e+00 0.0000000000e+00 0.0000000000e+00 
          0.0000000000e+00 0.0000000000e+00 0.0000000000e+00 
          0.0000000000e+00 0.0000000000e+00 0.0000000000e+00 
          0.0000000000e+00 0.0000000000e+00 0.0000000000e+00 
          0.0000000000e+00 0.0000000000e+00 0.0000000000e+00 
          0.0000000000e+00 0.0000000000e+00 0.0000000000e+00 
          0.0000000000e+00 0.0000000000e+00 0.0000000000e+00 
          0.0000000000e+00 0.0000000000e+00 0.0000000000e+00 
          0.0000000000e+00 0.0000000000e+00 0.0000000000e+00 
          0.0000000000e+00 0.0000000000e+00 0.0000000000e+00 
          0.0000000000e+00 0.0000000000e+00 0.0000000000e+00 
          0.0000000000e+00 0.0000000000e+00 0.0000000000e+00 
          0.0000000000e+00 0.0000000000e+00 0.0000000000e+00 
          0.0000000000e+00 0.0000000000e+00 0.0000000000e+00 
          0.0000000000e+00 0.0000000000e+00 0.0000000000e+00 
          0.0000000000e+00 0.0000000000e+00 0.0000000000e+00 
          0.0000000000e+00 0.0000000000e+00 0.0000000000e+00 
          0.0000000000e+00 0.0000000000e+00 0.0000000000e+00 
        </DataArray>
      </PointData>
      <CellData>
        <DataArray type="Int64" Name="ElementTag" format="ascii">
          90
          91
          92
          93
          94
          95
          96
          97
          98
          99
          100
          101
          102
          103
          104
          105
          106
          107
          108
          109
          110
          111
          112
          113
          114
          115
          116
          117
          118
          119
          120
          121
          122
          123
          124
          125
          126
          127
          128
        </DataArray>
      </CellData>
    </Piece>
  </UnstructuredGrid>
</VTKFile>
