<?xml version="1.0"?>
<VTKFile type="UnstructuredGrid" version="1.0" byte_order="LittleEndian" compressor="vtkZLibDataCompressor">
  <UnstructuredGrid>
    <Piece NumberOfPoints="82" NumberOfCells="1">
      <Points>
        <DataArray type="Float64" Name="Points" NumberOfComponents="3" format="ascii">
          0.0000000000e+00 0.0000000000e+00 0.0000000000e+00 
          2.5000000000e-01 0.0000000000e+00 0.0000000000e+00 
          2.5000000000e-01 3.0000000000e+01 0.0000000000e+00 
          0.0000000000e+00 3.0000000000e+01 0.0000000000e+00 
          0.0000000000e+00 -5.0000000000e+00 0.0000000000e+00 
          2.5000000000e-01 -5.0000000000e+00 0.0000000000e+00 
          2.5000000000e-01 7.6923100000e-01 0.0000000000e+00 
          2.5000000000e-01 1.5384620000e+00 0.0000000000e+00 
          2.5000000000e-01 2.3076920000e+00 0.0000000000e+00 
          2.5000000000e-01 3.0769230000e+00 0.0000000000e+00 
          2.5000000000e-01 3.8461540000e+00 0.0000000000e+00 
          2.5000000000e-01 4.6153850000e+00 0.0000000000e+00 
          2.5000000000e-01 5.3846150000e+00 0.0000000000e+00 
          2.5000000000e-01 6.1538460000e+00 0.0000000000e+00 
          2.5000000000e-01 6.9230770000e+00 0.0000000000e+00 
          2.5000000000e-01 7.6923080000e+00 0.0000000000e+00 
          2.5000000000e-01 8.4615380000e+00 0.0000000000e+00 
          2.5000000000e-01 9.2307690000e+00 0.0000000000e+00 
          2.5000000000e-01 1.0000000000e+01 0.0000000000e+00 
          2.5000000000e-01 1.0769231000e+01 0.0000000000e+00 
          2.5000000000e-01 1.1538462000e+01 0.0000000000e+00 
          2.5000000000e-01 1.2307692000e+01 0.0000000000e+00 
          2.5000000000e-01 1.3076923000e+01 0.0000000000e+00 
          2.5000000000e-01 1.3846154000e+01 0.0000000000e+00 
          2.5000000000e-01 1.4615385000e+01 0.0000000000e+00 
          2.5000000000e-01 1.5384615000e+01 0.0000000000e+00 
          2.5000000000e-01 1.6153846000e+01 0.0000000000e+00 
          2.5000000000e-01 1.6923077000e+01 0.0000000000e+00 
          2.5000000000e-01 1.7692308000e+01 0.0000000000e+00 
          2.5000000000e-01 1.8461538000e+01 0.0000000000e+00 
          2.5000000000e-01 1.9230769000e+01 0.0000000000e+00 
          2.5000000000e-01 2.0000000000e+01 0.0000000000e+00 
          2.5000000000e-01 2.0769231000e+01 0.0000000000e+00 
          2.5000000000e-01 2.1538462000e+01 0.0000000000e+00 
          2.5000000000e-01 2.2307692000e+01 0.0000000000e+00 
          2.5000000000e-01 2.3076923000e+01 0.0000000000e+00 
          2.5000000000e-01 2.3846154000e+01 0.0000000000e+00 
          2.5000000000e-01 2.4615385000e+01 0.0000000000e+00 
          2.5000000000e-01 2.5384615000e+01 0.0000000000e+00 
          2.5000000000e-01 2.6153846000e+01 0.0000000000e+00 
          2.5000000000e-01 2.6923077000e+01 0.0000000000e+00 
          2.5000000000e-01 2.7692308000e+01 0.0000000000e+00 
          2.5000000000e-01 2.8461538000e+01 0.0000000000e+00 
          2.5000000000e-01 2.9230769000e+01 0.0000000000e+00 
          0.0000000000e+00 7.6923100000e-01 0.0000000000e+00 
          0.0000000000e+00 1.5384620000e+00 0.0000000000e+00 
          0.0000000000e+00 2.3076920000e+00 0.0000000000e+00 
          0.0000000000e+00 3.0769230000e+00 0.0000000000e+00 
          0.0000000000e+00 3.8461540000e+00 0.0000000000e+00 
          0.0000000000e+00 4.6153850000e+00 0.0000000000e+00 
          0.0000000000e+00 5.3846150000e+00 0.0000000000e+00 
          0.0000000000e+00 6.1538460000e+00 0.0000000000e+00 
          0.0000000000e+00 6.9230770000e+00 0.0000000000e+00 
          0.0000000000e+00 7.6923080000e+00 0.0000000000e+00 
          0.0000000000e+00 8.4615380000e+00 0.0000000000e+00 
          0.0000000000e+00 9.2307690000e+00 0.0000000000e+00 
          0.0000000000e+00 1.0000000000e+01 0.0000000000e+00 
          0.0000000000e+00 1.0769231000e+01 0.0000000000e+00 
          0.0000000000e+00 1.1538462000e+01 0.0000000000e+00 
          0.0000000000e+00 1.2307692000e+01 0.0000000000e+00 
          0.0000000000e+00 1.3076923000e+01 0.0000000000e+00 
          0.0000000000e+00 1.3846154000e+01 0.0000000000e+00 
          0.0000000000e+00 1.4615385000e+01 0.0000000000e+00 
          0.0000000000e+00 1.5384615000e+01 0.0000000000e+00 
          0.0000000000e+00 1.6153846000e+01 0.0000000000e+00 
          0.0000000000e+00 1.6923077000e+01 0.0000000000e+00 
          0.0000000000e+00 1.7692308000e+01 0.0000000000e+00 
          0.0000000000e+00 1.8461538000e+01 0.0000000000e+00 
          0.0000000000e+00 1.9230769000e+01 0.0000000000e+00 
          0.0000000000e+00 2.0000000000e+01 0.0000000000e+00 
          0.0000000000e+00 2.0769231000e+01 0.0000000000e+00 
          0.0000000000e+00 2.1538462000e+01 0.0000000000e+00 
          0.0000000000e+00 2.2307692000e+01 0.0000000000e+00 
          0.0000000000e+00 2.3076923000e+01 0.0000000000e+00 
          0.0000000000e+00 2.3846154000e+01 0.0000000000e+00 
          0.0000000000e+00 2.4615385000e+01 0.0000000000e+00 
          0.0000000000e+00 2.5384615000e+01 0.0000000000e+00 
          0.0000000000e+00 2.6153846000e+01 0.0000000000e+00 
          0.0000000000e+00 2.6923077000e+01 0.0000000000e+00 
          0.0000000000e+00 2.7692308000e+01 0.0000000000e+00 
          0.0000000000e+00 2.8461538000e+01 0.0000000000e+00 
          0.0000000000e+00 2.9230769000e+01 0.0000000000e+00 
        </DataArray>
      </Points>
      <Cells>
        <DataArray type="Int64" Name="connectivity" format="ascii">
          0
          1
          2
          3
          4
          5
          6
          7
          8
          9
          10
          11
          12
          13
          14
          15
          16
          17
          18
          19
          20
          21
          22
          23
          24
          25
          26
          27
          28
          29
          30
          31
          32
          33
          34
          35
          36
          37
          38
          39
          40
          41
          42
          43
          44
          45
          46
          47
          48
          49
          50
          51
          52
          53
          54
          55
          56
          57
          58
          59
          60
          61
          62
          63
          64
          65
          66
          67
          68
          69
          70
          71
          72
          73
          74
          75
          76
          77
          78
          79
          80
          81
        </DataArray>
        <DataArray type="Int64" Name="offsets" format="ascii">
          82
        </DataArray>
        <DataArray type="Int64" Name="types" format="ascii">
          2
        </DataArray>
      </Cells>
      <PointData>
        <DataArray type="Int64" Name="NodeTag" format="ascii">
          1
          2
          3
          4
          5
          6
          7
          8
          9
          10
          11
          12
          13
          14
          15
          16
          17
          18
          19
          20
          21
          22
          23
          24
          25
          26
          27
          28
          29
          30
          31
          32
          33
          34
          35
          36
          37
          38
          39
          40
          41
          42
          43
          44
          45
          46
          47
          48
          49
          50
          51
          52
          53
          54
          55
          56
          57
          58
          59
          60
          61
          62
          63
          64
          65
          66
          67
          68
          69
          70
          71
          72
          73
          74
          75
          76
          77
          78
          79
          80
          81
          82
        </DataArray>
        <DataArray type="Float64" Name="Velocity" NumberOfComponents="3" format="ascii">
          -6.5585517948e-04 -7.7838899958e-05 0.0000000000e+00 
          -6.5585517948e-04 -7.7838899958e-05 0.0000000000e+00 
          -1.5158604492e-03 -7.7814281716e-05 0.0000000000e+00 
          -1.5158604492e-03 -7.7814281716e-05 0.0000000000e+00 
          0.0000000000e+00 0.0000000000e+00 0.0000000000e+00 
          0.0000000000e+00 0.0000000000e+00 0.0000000000e+00 
          -6.9947506343e-04 -7.7806111833e-05 0.0000000000e+00 
          -7.4190265069e-04 -7.7866983628e-05 0.0000000000e+00 
          -7.8317270349e-04 -7.7832538130e-05 0.0000000000e+00 
          -8.2325661759e-04 -7.7838495764e-05 0.0000000000e+00 
          -8.6217506202e-04 -7.7808009878e-05 0.0000000000e+00 
          -8.9993802184e-04 -7.7839287366e-05 0.0000000000e+00 
          -9.3652506893e-04 -7.7885427482e-05 0.0000000000e+00 
          -9.7197393951e-04 -7.7714744276e-05 0.0000000000e+00 
          -1.0062785477e-03 -7.7946430607e-05 0.0000000000e+00 
          -1.0394314388e-03 -7.7745313346e-05 0.0000000000e+00 
          -1.0714632547e-03 -7.7829484283e-05 0.0000000000e+00 
          -1.1023648366e-03 -7.7876599001e-05 0.0000000000e+00 
          -1.1321442207e-03 -7.7752920939e-05 0.0000000000e+00 
          -1.1608127367e-03 -7.7856772973e-05 0.0000000000e+00 
          -1.1883671907e-03 -7.7822548673e-05 0.0000000000e+00 
          -1.2148118231e-03 -7.7797493860e-05 0.0000000000e+00 
          -1.2401623162e-03 -7.7829061037e-05 0.0000000000e+00 
          -1.2643983645e-03 -7.7816486443e-05 0.0000000000e+00 
          -1.2875463169e-03 -7.7819834720e-05 0.0000000000e+00 
          -1.3095874937e-03 -7.7818279095e-05 0.0000000000e+00 
          -1.3305256285e-03 -7.7810515577e-05 0.0000000000e+00 
          -1.3503737068e-03 -7.7816968099e-05 0.0000000000e+00 
          -1.3691057836e-03 -7.7819996116e-05 0.0000000000e+00 
          -1.3867434684e-03 -7.7813992116e-05 0.0000000000e+00 
          -1.4032635096e-03 -7.7810053591e-05 0.0000000000e+00 
          -1.4186730648e-03 -7.7813770297e-05 0.0000000000e+00 
          -1.4329722029e-03 -7.7819027997e-05 0.0000000000e+00 
          -1.4461434332e-03 -7.7817219575e-05 0.0000000000e+00 
          -1.4581887439e-03 -7.7811243641e-05 0.0000000000e+00 
          -1.4691119080e-03 -7.7811050742e-05 0.0000000000e+00 
          -1.4788929935e-03 -7.7817679932e-05 0.0000000000e+00 
          -1.4875371170e-03 -7.7822140869e-05 0.0000000000e+00 
          -1.4950400634e-03 -7.7819579694e-05 0.0000000000e+00 
          -1.5013924974e-03 -7.7816006641e-05 0.0000000000e+00 
          -1.5065975865e-03 -7.7818256694e-05 0.0000000000e+00 
          -1.5106483927e-03 -7.7823421301e-05 0.0000000000e+00 
          -1.5135422700e-03 -7.7823539114e-05 0.0000000000e+00 
          -1.5152806603e-03 -7.7817868745e-05 0.0000000000e+00 
          -6.9947506343e-04 -7.7806111833e-05 0.0000000000e+00 
          -7.4190265069e-04 -7.7866983628e-05 0.0000000000e+00 
          -7.8317270349e-04 -7.7832538130e-05 0.0000000000e+00 
          -8.2325661759e-04 -7.7838495764e-05 0.0000000000e+00 
          -8.6217506202e-04 -7.7808009878e-05 0.0000000000e+00 
          -8.9993802184e-04 -7.7839287366e-05 0.0000000000e+00 
          -9.3652506893e-04 -7.7885427482e-05 0.0000000000e+00 
          -9.7197393951e-04 -7.7714744276e-05 0.0000000000e+00 
          -1.0062785477e-03 -7.7946430607e-05 0.0000000000e+00 
          -1.0394314388e-03 -7.7745313346e-05 0.0000000000e+00 
          -1.0714632547e-03 -7.7829484283e-05 0.0000000000e+00 
          -1.1023648366e-03 -7.7876599001e-05 0.0000000000e+00 
          -1.1321442207e-03 -7.7752920939e-05 0.0000000000e+00 
          -1.1608127367e-03 -7.7856772973e-05 0.0000000000e+00 
          -1.1883671907e-03 -7.7822548673e-05 0.0000000000e+00 
          -1.2148118231e-03 -7.7797493860e-05 0.0000000000e+00 
          -1.2401623162e-03 -7.7829061037e-05 0.0000000000e+00 
          -1.2643983645e-03 -7.7816486443e-05 0.0000000000e+00 
          -1.2875463169e-03 -7.7819834720e-05 0.0000000000e+00 
          -1.3095874937e-03 -7.7818279095e-05 0.0000000000e+00 
          -1.3305256285e-03 -7.7810515577e-05 0.0000000000e+00 
          -1.3503737068e-03 -7.7816968099e-05 0.0000000000e+00 
          -1.3691057836e-03 -7.7819996116e-05 0.0000000000e+00 
          -1.3867434684e-03 -7.7813992116e-05 0.0000000000e+00 
          -1.4032635096e-03 -7.7810053591e-05 0.0000000000e+00 
          -1.4186730648e-03 -7.7813770297e-05 0.0000000000e+00 
          -1.4329722029e-03 -7.7819027997e-05 0.0000000000e+00 
          -1.4461434332e-03 -7.7817219575e-05 0.0000000000e+00 
          -1.4581887439e-03 -7.7811243641e-05 0.0000000000e+00 
          -1.4691119080e-03 -7.7811050742e-05 0.0000000000e+00 
          -1.4788929935e-03 -7.7817679932e-05 0.0000000000e+00 
          -1.4875371170e-03 -7.7822140869e-05 0.0000000000e+00 
          -1.4950400634e-03 -7.7819579694e-05 0.0000000000e+00 
          -1.5013924974e-03 -7.7816006641e-05 0.0000000000e+00 
          -1.5065975865e-03 -7.7818256694e-05 0.0000000000e+00 
          -1.5106483927e-03 -7.7823421301e-05 0.0000000000e+00 
          -1.5135422700e-03 -7.7823539114e-05 0.0000000000e+00 
          -1.5152806603e-03 -7.7817868745e-05 0.0000000000e+00 
        </DataArray>
        <DataArray type="Float64" Name="Displacement" NumberOfComponents="3" format="ascii">
          3.2009488100e-05 -4.2554239845e-04 0.0000000000e+00 
          3.2009488100e-05 -4.2554239845e-04 0.0000000000e+00 
          -2.4461005193e-04 -4.4912058323e-04 0.0000000000e+00 
          -2.4461005193e-04 -4.4912058323e-04 0.0000000000e+00 
          0.0000000000e+00 0.0000000000e+00 0.0000000000e+00 
          0.0000000000e+00 0.0000000000e+00 0.0000000000e+00 
          2.1103129880e-05 -4.2673604946e-04 0.0000000000e+00 
          1.0186768333e-05 -4.2789874439e-04 0.0000000000e+00 
          -7.2004666598e-07 -4.2903031537e-04 0.0000000000e+00 
          -1.1597906361e-05 -4.3013109462e-04 0.0000000000e+00 
          -2.2427438704e-05 -4.3120060500e-04 0.0000000000e+00 
          -3.3189406570e-05 -4.3223939967e-04 0.0000000000e+00 
          -4.3864746531e-05 -4.3324681712e-04 0.0000000000e+00 
          -5.4434585821e-05 -4.3422365631e-04 0.0000000000e+00 
          -6.4880270141e-05 -4.3516919082e-04 0.0000000000e+00 
          -7.5183388079e-05 -4.3608366597e-04 0.0000000000e+00 
          -8.5325794166e-05 -4.3696752904e-04 0.0000000000e+00 
          -9.5289732239e-05 -4.3781992026e-04 0.0000000000e+00 
          -1.0505766517e-04 -4.3864157108e-04 0.0000000000e+00 
          -1.1461252166e-04 -4.3943220383e-04 0.0000000000e+00 
          -1.2393758611e-04 -4.4019171182e-04 0.0000000000e+00 
          -1.3301652434e-04 -4.4092034513e-04 0.0000000000e+00 
          -1.4183356836e-04 -4.4161788829e-04 0.0000000000e+00 
          -1.5037327006e-04 -4.4228443279e-04 0.0000000000e+00 
          -1.5862081462e-04 -4.4292002319e-04 0.0000000000e+00 
          -1.6656182121e-04 -4.4352457920e-04 0.0000000000e+00 
          -1.7418247575e-04 -4.4409812031e-04 0.0000000000e+00 
          -1.8146956865e-04 -4.4464065951e-04 0.0000000000e+00 
          -1.8841041585e-04 -4.4515220295e-04 0.0000000000e+00 
          -1.9499299244e-04 -4.4563275084e-04 0.0000000000e+00 
          -2.0120587122e-04 -4.4608229153e-04 0.0000000000e+00 
          -2.0703830843e-04 -4.4650082538e-04 0.0000000000e+00 
          -2.1248017003e-04 -4.4688836016e-04 0.0000000000e+00 
          -2.1752203894e-04 -4.4724489319e-04 0.0000000000e+00 
          -2.2215521350e-04 -4.4757041952e-04 0.0000000000e+00 
          -2.2637163231e-04 -4.4786494478e-04 0.0000000000e+00 
          -2.3016404506e-04 -4.4812847507e-04 0.0000000000e+00 
          -2.3352586162e-04 -4.4836100638e-04 0.0000000000e+00 
          -2.3645126743e-04 -4.4856252884e-04 0.0000000000e+00 
          -2.3893525164e-04 -4.4873304226e-04 0.0000000000e+00 
          -2.4097345415e-04 -4.4887255456e-04 0.0000000000e+00 
          -2.4256240307e-04 -4.4898106907e-04 0.0000000000e+00 
          -2.4369932260e-04 -4.4905857992e-04 0.0000000000e+00 
          -2.4438225550e-04 -4.4910508334e-04 0.0000000000e+00 
          2.1103129880e-05 -4.2673604946e-04 0.0000000000e+00 
          1.0186768333e-05 -4.2789874439e-04 0.0000000000e+00 
          -7.2004666598e-07 -4.2903031537e-04 0.0000000000e+00 
          -1.1597906361e-05 -4.3013109462e-04 0.0000000000e+00 
          -2.2427438704e-05 -4.3120060500e-04 0.0000000000e+00 
          -3.3189406570e-05 -4.3223939967e-04 0.0000000000e+00 
          -4.3864746531e-05 -4.3324681712e-04 0.0000000000e+00 
          -5.4434585821e-05 -4.3422365631e-04 0.0000000000e+00 
          -6.4880270141e-05 -4.3516919082e-04 0.0000000000e+00 
          -7.5183388079e-05 -4.3608366597e-04 0.0000000000e+00 
          -8.5325794166e-05 -4.3696752904e-04 0.0000000000e+00 
          -9.5289732239e-05 -4.3781992026e-04 0.0000000000e+00 
          -1.0505766517e-04 -4.3864157108e-04 0.0000000000e+00 
          -1.1461252166e-04 -4.3943220383e-04 0.0000000000e+00 
          -1.2393758611e-04 -4.4019171182e-04 0.0000000000e+00 
          -1.3301652434e-04 -4.4092034513e-04 0.0000000000e+00 
          -1.4183356836e-04 -4.4161788829e-04 0.0000000000e+00 
          -1.5037327006e-04 -4.4228443279e-04 0.0000000000e+00 
          -1.5862081462e-04 -4.4292002319e-04 0.0000000000e+00 
          -1.6656182121e-04 -4.4352457920e-04 0.0000000000e+00 
          -1.7418247575e-04 -4.4409812031e-04 0.0000000000e+00 
          -1.8146956865e-04 -4.4464065951e-04 0.0000000000e+00 
          -1.8841041585e-04 -4.4515220295e-04 0.0000000000e+00 
          -1.9499299244e-04 -4.4563275084e-04 0.0000000000e+00 
          -2.0120587122e-04 -4.4608229153e-04 0.0000000000e+00 
          -2.0703830843e-04 -4.4650082538e-04 0.0000000000e+00 
          -2.1248017003e-04 -4.4688836016e-04 0.0000000000e+00 
          -2.1752203894e-04 -4.4724489319e-04 0.0000000000e+00 
          -2.2215521350e-04 -4.4757041952e-04 0.0000000000e+00 
          -2.2637163231e-04 -4.4786494478e-04 0.0000000000e+00 
          -2.3016404506e-04 -4.4812847507e-04 0.0000000000e+00 
          -2.3352586162e-04 -4.4836100638e-04 0.0000000000e+00 
          -2.3645126743e-04 -4.4856252884e-04 0.0000000000e+00 
          -2.3893525164e-04 -4.4873304226e-04 0.0000000000e+00 
          -2.4097345415e-04 -4.4887255456e-04 0.0000000000e+00 
          -2.4256240307e-04 -4.4898106907e-04 0.0000000000e+00 
          -2.4369932260e-04 -4.4905857992e-04 0.0000000000e+00 
          -2.4438225550e-04 -4.4910508334e-04 0.0000000000e+00 
        </DataArray>
        <DataArray type="Float64" Name="Acceleration" NumberOfComponents="3" format="ascii">
          -2.6620647225e-03 2.2040779219e-06 0.0000000000e+00 
          -2.6620647225e-03 2.2040779219e-06 0.0000000000e+00 
          4.1049815022e-02 -1.1803295424e-06 0.0000000000e+00 
          4.1049815022e-02 -1.1803295424e-06 0.0000000000e+00 
          0.0000000000e+00 0.0000000000e+00 0.0000000000e+00 
          0.0000000000e+00 0.0000000000e+00 0.0000000000e+00 
          -9.0131953866e-04 -9.0555024462e-06 0.0000000000e+00 
          8.5888587006e-04 2.0930287602e-05 0.0000000000e+00 
          2.6102092640e-03 -3.8402258570e-05 0.0000000000e+00 
          4.3543899737e-03 4.7308365952e-05 0.0000000000e+00 
          6.0876927268e-03 -5.2372024985e-05 0.0000000000e+00 
          7.8040999340e-03 6.6603229249e-05 0.0000000000e+00 
          9.5070754245e-03 -7.6902301421e-05 0.0000000000e+00 
          1.1186608051e-02 5.3762176924e-05 0.0000000000e+00 
          1.2845512489e-02 9.5554921398e-06 0.0000000000e+00 
          1.4479276580e-02 -7.1249428587e-05 0.0000000000e+00 
          1.6081518930e-02 8.4097577976e-05 0.0000000000e+00 
          1.7660450812e-02 -4.7924700519e-05 0.0000000000e+00 
          1.9198607721e-02 2.1166608377e-06 0.0000000000e+00 
          2.0704715903e-02 2.1338845761e-05 0.0000000000e+00 
          2.2175410493e-02 -2.3891367208e-05 0.0000000000e+00 
          2.3598264231e-02 1.5277740749e-05 0.0000000000e+00 
          2.4989090142e-02 -1.3835277370e-06 0.0000000000e+00 
          2.6323935655e-02 -9.4140490862e-06 0.0000000000e+00 
          2.7618764624e-02 4.9185035537e-06 0.0000000000e+00 
          2.8865300484e-02 1.6875849675e-06 0.0000000000e+00 
          3.0054563168e-02 -7.9756449750e-07 0.0000000000e+00 
          3.1197420658e-02 -1.9063529497e-06 0.0000000000e+00 
          3.2280140345e-02 -2.0515666581e-06 0.0000000000e+00 
          3.3311294891e-02 2.7113707113e-07 0.0000000000e+00 
          3.4278536650e-02 9.0310671608e-08 0.0000000000e+00 
          3.5191633727e-02 -1.3101390636e-06 0.0000000000e+00 
          3.6040131850e-02 -8.2511667798e-07 0.0000000000e+00 
          3.6823648611e-02 -8.9805746728e-09 0.0000000000e+00 
          3.7551083213e-02 -8.6790424242e-07 0.0000000000e+00 
          3.8203784030e-02 -2.0477844353e-06 0.0000000000e+00 
          3.8797566678e-02 -1.3278307247e-06 0.0000000000e+00 
          3.9321153813e-02 4.1031023651e-07 0.0000000000e+00 
          3.9773325856e-02 5.3824553203e-07 0.0000000000e+00 
          4.0165811553e-02 -9.4021782399e-07 0.0000000000e+00 
          4.0478635488e-02 -1.5394607535e-06 0.0000000000e+00 
          4.0728634340e-02 -4.9948633912e-07 0.0000000000e+00 
          4.0905251196e-02 2.2187071641e-07 0.0000000000e+00 
          4.1008695870e-02 -5.0787359696e-07 0.0000000000e+00 
          -9.0131953866e-04 -9.0555024462e-06 0.0000000000e+00 
          8.5888587006e-04 2.0930287602e-05 0.0000000000e+00 
          2.6102092640e-03 -3.8402258570e-05 0.0000000000e+00 
          4.3543899737e-03 4.7308365952e-05 0.0000000000e+00 
          6.0876927268e-03 -5.2372024985e-05 0.0000000000e+00 
          7.8040999340e-03 6.6603229249e-05 0.0000000000e+00 
          9.5070754245e-03 -7.6902301421e-05 0.0000000000e+00 
          1.1186608051e-02 5.3762176924e-05 0.0000000000e+00 
          1.2845512489e-02 9.5554921398e-06 0.0000000000e+00 
          1.4479276580e-02 -7.1249428587e-05 0.0000000000e+00 
          1.6081518930e-02 8.4097577976e-05 0.0000000000e+00 
          1.7660450812e-02 -4.7924700519e-05 0.0000000000e+00 
          1.9198607721e-02 2.1166608377e-06 0.0000000000e+00 
          2.0704715903e-02 2.1338845761e-05 0.0000000000e+00 
          2.2175410493e-02 -2.3891367208e-05 0.0000000000e+00 
          2.3598264231e-02 1.5277740749e-05 0.0000000000e+00 
          2.4989090142e-02 -1.3835277370e-06 0.0000000000e+00 
          2.6323935655e-02 -9.4140490862e-06 0.0000000000e+00 
          2.7618764624e-02 4.9185035537e-06 0.0000000000e+00 
          2.8865300484e-02 1.6875849675e-06 0.0000000000e+00 
          3.0054563168e-02 -7.9756449750e-07 0.0000000000e+00 
          3.1197420658e-02 -1.9063529497e-06 0.0000000000e+00 
          3.2280140345e-02 -2.0515666581e-06 0.0000000000e+00 
          3.3311294891e-02 2.7113707113e-07 0.0000000000e+00 
          3.4278536650e-02 9.0310671608e-08 0.0000000000e+00 
          3.5191633727e-02 -1.3101390636e-06 0.0000000000e+00 
          3.6040131850e-02 -8.2511667798e-07 0.0000000000e+00 
          3.6823648611e-02 -8.9805746728e-09 0.0000000000e+00 
          3.7551083213e-02 -8.6790424242e-07 0.0000000000e+00 
          3.8203784030e-02 -2.0477844353e-06 0.0000000000e+00 
          3.8797566678e-02 -1.3278307247e-06 0.0000000000e+00 
          3.9321153813e-02 4.1031023651e-07 0.0000000000e+00 
          3.9773325856e-02 5.3824553203e-07 0.0000000000e+00 
          4.0165811553e-02 -9.4021782399e-07 0.0000000000e+00 
          4.0478635488e-02 -1.5394607535e-06 0.0000000000e+00 
          4.0728634340e-02 -4.9948633912e-07 0.0000000000e+00 
          4.0905251196e-02 2.2187071641e-07 0.0000000000e+00 
          4.1008695870e-02 -5.0787359696e-07 0.0000000000e+00 
        </DataArray>
        <DataArray type="Float64" Name="Reaction" NumberOfComponents="3" format="ascii">
          0.0000000000e+00 0.0000000000e+00 0.0000000000e+00 
          0.0000000000e+00 0.0000000000e+00 0.0000000000e+00 
          0.0000000000e+00 0.0000000000e+00 0.0000000000e+00 
          0.0000000000e+00 0.0000000000e+00 0.0000000000e+00 
          0.0000000000e+00 0.0000000000e+00 0.0000000000e+00 
          0.0000000000e+00 0.0000000000e+00 0.0000000000e+00 
          0.0000000000e+00 0.0000000000e+00 0.0000000000e+00 
          0.0000000000e+00 0.0000000000e+00 0.0000000000e+00 
          0.0000000000e+00 0.0000000000e+00 0.0000000000e+00 
          0.0000000000e+00 0.0000000000e+00 0.0000000000e+00 
          0.0000000000e+00 0.0000000000e+00 0.0000000000e+00 
          0.0000000000e+00 0.0000000000e+00 0.0000000000e+00 
          0.0000000000e+00 0.0000000000e+00 0.0000000000e+00 
          0.0000000000e+00 0.0000000000e+00 0.0000000000e+00 
          0.0000000000e+00 0.0000000000e+00 0.0000000000e+00 
          0.0000000000e+00 0.0000000000e+00 0.0000000000e+00 
          0.0000000000e+00 0.0000000000e+00 0.0000000000e+00 
          0.0000000000e+00 0.0000000000e+00 0.0000000000e+00 
          0.0000000000e+00 0.0000000000e+00 0.0000000000e+00 
          0.0000000000e+00 0.0000000000e+00 0.0000000000e+00 
          0.0000000000e+00 0.0000000000e+00 0.0000000000e+00 
          0.0000000000e+00 0.0000000000e+00 0.0000000000e+00 
          0.0000000000e+00 0.0000000000e+00 0.0000000000e+00 
          0.0000000000e+00 0.0000000000e+00 0.0000000000e+00 
          0.0000000000e+00 0.0000000000e+00 0.0000000000e+00 
          0.0000000000e+00 0.0000000000e+00 0.0000000000e+00 
          0.0000000000e+00 0.0000000000e+00 0.0000000000e+00 
          0.0000000000e+00 0.0000000000e+00 0.0000000000e+00 
          0.0000000000e+00 0.0000000000e+00 0.0000000000e+00 
          0.0000000000e+00 0.0000000000e+00 0.0000000000e+00 
          0.0000000000e+00 0.0000000000e+00 0.0000000000e+00 
          0.0000000000e+00 0.0000000000e+00 0.0000000000e+00 
          0.0000000000e+00 0.0000000000e+00 0.0000000000e+00 
          0.0000000000e+00 0.0000000000e+00 0.0000000000e+00 
          0.0000000000e+00 0.0000000000e+00 0.0000000000e+00 
          0.0000000000e+00 0.0000000000e+00 0.0000000000e+00 
          0.0000000000e+00 0.0000000000e+00 0.0000000000e+00 
          0.0000000000e+00 0.0000000000e+00 0.0000000000e+00 
          0.0000000000e+00 0.0000000000e+00 0.0000000000e+00 
          0.0000000000e+00 0.0000000000e+00 0.0000000000e+00 
          0.0000000000e+00 0.0000000000e+00 0.0000000000e+00 
          0.0000000000e+00 0.0000000000e+00 0.0000000000e+00 
          0.0000000000e+00 0.0000000000e+00 0.0000000000e+00 
          0.0000000000e+00 0.0000000000e+00 0.0000000000e+00 
          0.0000000000e+00 0.0000000000e+00 0.0000000000e+00 
          0.0000000000e+00 0.0000000000e+00 0.0000000000e+00 
          0.0000000000e+00 0.0000000000e+00 0.0000000000e+00 
          0.0000000000e+00 0.0000000000e+00 0.0000000000e+00 
          0.0000000000e+00 0.0000000000e+00 0.0000000000e+00 
          0.0000000000e+00 0.0000000000e+00 0.0000000000e+00 
          0.0000000000e+00 0.0000000000e+00 0.0000000000e+00 
          0.0000000000e+00 0.0000000000e+00 0.0000000000e+00 
          0.0000000000e+00 0.0000000000e+00 0.0000000000e+00 
          0.0000000000e+00 0.0000000000e+00 0.0000000000e+00 
          0.0000000000e+00 0.0000000000e+00 0.0000000000e+00 
          0.0000000000e+00 0.0000000000e+00 0.0000000000e+00 
          0.0000000000e+00 0.0000000000e+00 0.0000000000e+00 
          0.0000000000e+00 0.0000000000e+00 0.0000000000e+00 
          0.0000000000e+00 0.0000000000e+00 0.0000000000e+00 
          0.0000000000e+00 0.0000000000e+00 0.0000000000e+00 
          0.0000000000e+00 0.0000000000e+00 0.0000000000e+00 
          0.0000000000e+00 0.0000000000e+00 0.0000000000e+00 
          0.0000000000e+00 0.0000000000e+00 0.0000000000e+00 
          0.0000000000e+00 0.0000000000e+00 0.0000000000e+00 
          0.0000000000e+00 0.0000000000e+00 0.0000000000e+00 
          0.0000000000e+00 0.0000000000e+00 0.0000000000e+00 
          0.0000000000e+00 0.0000000000e+00 0.0000000000e+00 
          0.0000000000e+00 0.0000000000e+00 0.0000000000e+00 
          0.0000000000e+00 0.0000000000e+00 0.0000000000e+00 
          0.0000000000e+00 0.0000000000e+00 0.0000000000e+00 
          0.0000000000e+00 0.0000000000e+00 0.0000000000e+00 
          0.0000000000e+00 0.0000000000e+00 0.0000000000e+00 
          0.0000000000e+00 0.0000000000e+00 0.0000000000e+00 
          0.0000000000e+00 0.0000000000e+00 0.0000000000e+00 
          0.0000000000e+00 0.0000000000e+00 0.0000000000e+00 
          0.0000000000e+00 0.0000000000e+00 0.0000000000e+00 
          0.0000000000e+00 0.0000000000e+00 0.0000000000e+00 
          0.0000000000e+00 0.0000000000e+00 0.0000000000e+00 
          0.0000000000e+00 0.0000000000e+00 0.0000000000e+00 
          0.0000000000e+00 0.0000000000e+00 0.0000000000e+00 
          0.0000000000e+00 0.0000000000e+00 0.0000000000e+00 
          0.0000000000e+00 0.0000000000e+00 0.0000000000e+00 
        </DataArray>
      </PointData>
      <CellData>
        <DataArray type="Int64" Name="ElementTag" format="ascii">
          0
        </DataArray>
      </CellData>
    </Piece>
  </UnstructuredGrid>
</VTKFile>
