<?xml version="1.0"?>
<VTKFile type="UnstructuredGrid" version="1.0" byte_order="LittleEndian" compressor="vtkZLibDataCompressor">
  <UnstructuredGrid>
    <Piece NumberOfPoints="82" NumberOfCells="1">
      <Points>
        <DataArray type="Float64" Name="Points" NumberOfComponents="3" format="ascii">
          0.0000000000e+00 0.0000000000e+00 0.0000000000e+00 
          2.5000000000e-01 0.0000000000e+00 0.0000000000e+00 
          2.5000000000e-01 3.0000000000e+01 0.0000000000e+00 
          0.0000000000e+00 3.0000000000e+01 0.0000000000e+00 
          0.0000000000e+00 -5.0000000000e+00 0.0000000000e+00 
          2.5000000000e-01 -5.0000000000e+00 0.0000000000e+00 
          2.5000000000e-01 7.6923100000e-01 0.0000000000e+00 
          2.5000000000e-01 1.5384620000e+00 0.0000000000e+00 
          2.5000000000e-01 2.3076920000e+00 0.0000000000e+00 
          2.5000000000e-01 3.0769230000e+00 0.0000000000e+00 
          2.5000000000e-01 3.8461540000e+00 0.0000000000e+00 
          2.5000000000e-01 4.6153850000e+00 0.0000000000e+00 
          2.5000000000e-01 5.3846150000e+00 0.0000000000e+00 
          2.5000000000e-01 6.1538460000e+00 0.0000000000e+00 
          2.5000000000e-01 6.9230770000e+00 0.0000000000e+00 
          2.5000000000e-01 7.6923080000e+00 0.0000000000e+00 
          2.5000000000e-01 8.4615380000e+00 0.0000000000e+00 
          2.5000000000e-01 9.2307690000e+00 0.0000000000e+00 
          2.5000000000e-01 1.0000000000e+01 0.0000000000e+00 
          2.5000000000e-01 1.0769231000e+01 0.0000000000e+00 
          2.5000000000e-01 1.1538462000e+01 0.0000000000e+00 
          2.5000000000e-01 1.2307692000e+01 0.0000000000e+00 
          2.5000000000e-01 1.3076923000e+01 0.0000000000e+00 
          2.5000000000e-01 1.3846154000e+01 0.0000000000e+00 
          2.5000000000e-01 1.4615385000e+01 0.0000000000e+00 
          2.5000000000e-01 1.5384615000e+01 0.0000000000e+00 
          2.5000000000e-01 1.6153846000e+01 0.0000000000e+00 
          2.5000000000e-01 1.6923077000e+01 0.0000000000e+00 
          2.5000000000e-01 1.7692308000e+01 0.0000000000e+00 
          2.5000000000e-01 1.8461538000e+01 0.0000000000e+00 
          2.5000000000e-01 1.9230769000e+01 0.0000000000e+00 
          2.5000000000e-01 2.0000000000e+01 0.0000000000e+00 
          2.5000000000e-01 2.0769231000e+01 0.0000000000e+00 
          2.5000000000e-01 2.1538462000e+01 0.0000000000e+00 
          2.5000000000e-01 2.2307692000e+01 0.0000000000e+00 
          2.5000000000e-01 2.3076923000e+01 0.0000000000e+00 
          2.5000000000e-01 2.3846154000e+01 0.0000000000e+00 
          2.5000000000e-01 2.4615385000e+01 0.0000000000e+00 
          2.5000000000e-01 2.5384615000e+01 0.0000000000e+00 
          2.5000000000e-01 2.6153846000e+01 0.0000000000e+00 
          2.5000000000e-01 2.6923077000e+01 0.0000000000e+00 
          2.5000000000e-01 2.7692308000e+01 0.0000000000e+00 
          2.5000000000e-01 2.8461538000e+01 0.0000000000e+00 
          2.5000000000e-01 2.9230769000e+01 0.0000000000e+00 
          0.0000000000e+00 7.6923100000e-01 0.0000000000e+00 
          0.0000000000e+00 1.5384620000e+00 0.0000000000e+00 
          0.0000000000e+00 2.3076920000e+00 0.0000000000e+00 
          0.0000000000e+00 3.0769230000e+00 0.0000000000e+00 
          0.0000000000e+00 3.8461540000e+00 0.0000000000e+00 
          0.0000000000e+00 4.6153850000e+00 0.0000000000e+00 
          0.0000000000e+00 5.3846150000e+00 0.0000000000e+00 
          0.0000000000e+00 6.1538460000e+00 0.0000000000e+00 
          0.0000000000e+00 6.9230770000e+00 0.0000000000e+00 
          0.0000000000e+00 7.6923080000e+00 0.0000000000e+00 
          0.0000000000e+00 8.4615380000e+00 0.0000000000e+00 
          0.0000000000e+00 9.2307690000e+00 0.0000000000e+00 
          0.0000000000e+00 1.0000000000e+01 0.0000000000e+00 
          0.0000000000e+00 1.0769231000e+01 0.0000000000e+00 
          0.0000000000e+00 1.1538462000e+01 0.0000000000e+00 
          0.0000000000e+00 1.2307692000e+01 0.0000000000e+00 
          0.0000000000e+00 1.3076923000e+01 0.0000000000e+00 
          0.0000000000e+00 1.3846154000e+01 0.0000000000e+00 
          0.0000000000e+00 1.4615385000e+01 0.0000000000e+00 
          0.0000000000e+00 1.5384615000e+01 0.0000000000e+00 
          0.0000000000e+00 1.6153846000e+01 0.0000000000e+00 
          0.0000000000e+00 1.6923077000e+01 0.0000000000e+00 
          0.0000000000e+00 1.7692308000e+01 0.0000000000e+00 
          0.0000000000e+00 1.8461538000e+01 0.0000000000e+00 
          0.0000000000e+00 1.9230769000e+01 0.0000000000e+00 
          0.0000000000e+00 2.0000000000e+01 0.0000000000e+00 
          0.0000000000e+00 2.0769231000e+01 0.0000000000e+00 
          0.0000000000e+00 2.1538462000e+01 0.0000000000e+00 
          0.0000000000e+00 2.2307692000e+01 0.0000000000e+00 
          0.0000000000e+00 2.3076923000e+01 0.0000000000e+00 
          0.0000000000e+00 2.3846154000e+01 0.0000000000e+00 
          0.0000000000e+00 2.4615385000e+01 0.0000000000e+00 
          0.0000000000e+00 2.5384615000e+01 0.0000000000e+00 
          0.0000000000e+00 2.6153846000e+01 0.0000000000e+00 
          0.0000000000e+00 2.6923077000e+01 0.0000000000e+00 
          0.0000000000e+00 2.7692308000e+01 0.0000000000e+00 
          0.0000000000e+00 2.8461538000e+01 0.0000000000e+00 
          0.0000000000e+00 2.9230769000e+01 0.0000000000e+00 
        </DataArray>
      </Points>
      <Cells>
        <DataArray type="Int64" Name="connectivity" format="ascii">
          0
          1
          2
          3
          4
          5
          6
          7
          8
          9
          10
          11
          12
          13
          14
          15
          16
          17
          18
          19
          20
          21
          22
          23
          24
          25
          26
          27
          28
          29
          30
          31
          32
          33
          34
          35
          36
          37
          38
          39
          40
          41
          42
          43
          44
          45
          46
          47
          48
          49
          50
          51
          52
          53
          54
          55
          56
          57
          58
          59
          60
          61
          62
          63
          64
          65
          66
          67
          68
          69
          70
          71
          72
          73
          74
          75
          76
          77
          78
          79
          80
          81
        </DataArray>
        <DataArray type="Int64" Name="offsets" format="ascii">
          82
        </DataArray>
        <DataArray type="Int64" Name="types" format="ascii">
          2
        </DataArray>
      </Cells>
      <PointData>
        <DataArray type="Int64" Name="NodeTag" format="ascii">
          1
          2
          3
          4
          5
          6
          7
          8
          9
          10
          11
          12
          13
          14
          15
          16
          17
          18
          19
          20
          21
          22
          23
          24
          25
          26
          27
          28
          29
          30
          31
          32
          33
          34
          35
          36
          37
          38
          39
          40
          41
          42
          43
          44
          45
          46
          47
          48
          49
          50
          51
          52
          53
          54
          55
          56
          57
          58
          59
          60
          61
          62
          63
          64
          65
          66
          67
          68
          69
          70
          71
          72
          73
          74
          75
          76
          77
          78
          79
          80
          81
          82
        </DataArray>
        <DataArray type="Float64" Name="Velocity" NumberOfComponents="3" format="ascii">
          -1.0127505458e-02 -7.8056046234e-05 0.0000000000e+00 
          -1.0127505458e-02 -7.8056046234e-05 0.0000000000e+00 
          5.9455929921e-02 -7.7765396334e-05 0.0000000000e+00 
          5.9455929921e-02 -7.7765396334e-05 0.0000000000e+00 
          0.0000000000e+00 0.0000000000e+00 0.0000000000e+00 
          0.0000000000e+00 0.0000000000e+00 0.0000000000e+00 
          -7.4331628499e-03 -7.7995964850e-05 0.0000000000e+00 
          -4.7323763458e-03 -7.8005068517e-05 0.0000000000e+00 
          -2.0299779146e-03 -7.7941081371e-05 0.0000000000e+00 
          6.6912688119e-04 -7.7992404421e-05 0.0000000000e+00 
          3.3601210213e-03 -7.7879087263e-05 0.0000000000e+00 
          6.0381607847e-03 -7.7898527363e-05 0.0000000000e+00 
          8.6983738156e-03 -7.7757674384e-05 0.0000000000e+00 
          1.1336004613e-02 -7.7849814409e-05 0.0000000000e+00 
          1.3946304089e-02 -7.7715749568e-05 0.0000000000e+00 
          1.6524524899e-02 -7.7741096212e-05 0.0000000000e+00 
          1.9066009747e-02 -7.7877312417e-05 0.0000000000e+00 
          2.1566141889e-02 -7.7615771799e-05 0.0000000000e+00 
          2.4020368298e-02 -7.7813599506e-05 0.0000000000e+00 
          2.6424243944e-02 -7.7801913022e-05 0.0000000000e+00 
          2.8773324334e-02 -7.7654469360e-05 0.0000000000e+00 
          3.1063319024e-02 -7.7851870881e-05 0.0000000000e+00 
          3.3290029241e-02 -7.7647160833e-05 0.0000000000e+00 
          3.5449325625e-02 -7.7727068867e-05 0.0000000000e+00 
          3.7537237262e-02 -7.7821980831e-05 0.0000000000e+00 
          3.9549851769e-02 -7.7724333140e-05 0.0000000000e+00 
          4.1483428053e-02 -7.7756349694e-05 0.0000000000e+00 
          4.3334360810e-02 -7.7804735368e-05 0.0000000000e+00 
          4.5099175949e-02 -7.7848533370e-05 0.0000000000e+00 
          4.6774547627e-02 -7.7692616677e-05 0.0000000000e+00 
          4.8357317654e-02 -7.7791709945e-05 0.0000000000e+00 
          4.9844483140e-02 -7.7809192559e-05 0.0000000000e+00 
          5.1233234606e-02 -7.7697759587e-05 0.0000000000e+00 
          5.2520914551e-02 -7.7741935569e-05 0.0000000000e+00 
          5.3705069167e-02 -7.7776935597e-05 0.0000000000e+00 
          5.4783437409e-02 -7.7797603108e-05 0.0000000000e+00 
          5.5753935631e-02 -7.7649435922e-05 0.0000000000e+00 
          5.6614726164e-02 -7.7770279295e-05 0.0000000000e+00 
          5.7364143827e-02 -7.7700665278e-05 0.0000000000e+00 
          5.8000711370e-02 -7.7654895640e-05 0.0000000000e+00 
          5.8523239336e-02 -7.7901048481e-05 0.0000000000e+00 
          5.8930715758e-02 -7.7695936724e-05 0.0000000000e+00 
          5.9222321201e-02 -7.7724499993e-05 0.0000000000e+00 
          5.9397506192e-02 -7.7829663106e-05 0.0000000000e+00 
          -7.4331628499e-03 -7.7995964850e-05 0.0000000000e+00 
          -4.7323763458e-03 -7.8005068517e-05 0.0000000000e+00 
          -2.0299779146e-03 -7.7941081371e-05 0.0000000000e+00 
          6.6912688119e-04 -7.7992404421e-05 0.0000000000e+00 
          3.3601210213e-03 -7.7879087263e-05 0.0000000000e+00 
          6.0381607847e-03 -7.7898527363e-05 0.0000000000e+00 
          8.6983738156e-03 -7.7757674384e-05 0.0000000000e+00 
          1.1336004613e-02 -7.7849814409e-05 0.0000000000e+00 
          1.3946304089e-02 -7.7715749568e-05 0.0000000000e+00 
          1.6524524899e-02 -7.7741096212e-05 0.0000000000e+00 
          1.9066009747e-02 -7.7877312417e-05 0.0000000000e+00 
          2.1566141889e-02 -7.7615771799e-05 0.0000000000e+00 
          2.4020368298e-02 -7.7813599506e-05 0.0000000000e+00 
          2.6424243944e-02 -7.7801913022e-05 0.0000000000e+00 
          2.8773324334e-02 -7.7654469360e-05 0.0000000000e+00 
          3.1063319024e-02 -7.7851870881e-05 0.0000000000e+00 
          3.3290029241e-02 -7.7647160833e-05 0.0000000000e+00 
          3.5449325625e-02 -7.7727068867e-05 0.0000000000e+00 
          3.7537237262e-02 -7.7821980831e-05 0.0000000000e+00 
          3.9549851769e-02 -7.7724333140e-05 0.0000000000e+00 
          4.1483428053e-02 -7.7756349694e-05 0.0000000000e+00 
          4.3334360810e-02 -7.7804735368e-05 0.0000000000e+00 
          4.5099175949e-02 -7.7848533370e-05 0.0000000000e+00 
          4.6774547627e-02 -7.7692616677e-05 0.0000000000e+00 
          4.8357317654e-02 -7.7791709945e-05 0.0000000000e+00 
          4.9844483140e-02 -7.7809192559e-05 0.0000000000e+00 
          5.1233234606e-02 -7.7697759587e-05 0.0000000000e+00 
          5.2520914551e-02 -7.7741935569e-05 0.0000000000e+00 
          5.3705069167e-02 -7.7776935597e-05 0.0000000000e+00 
          5.4783437409e-02 -7.7797603108e-05 0.0000000000e+00 
          5.5753935631e-02 -7.7649435922e-05 0.0000000000e+00 
          5.6614726164e-02 -7.7770279295e-05 0.0000000000e+00 
          5.7364143827e-02 -7.7700665278e-05 0.0000000000e+00 
          5.8000711370e-02 -7.7654895640e-05 0.0000000000e+00 
          5.8523239336e-02 -7.7901048481e-05 0.0000000000e+00 
          5.8930715758e-02 -7.7695936724e-05 0.0000000000e+00 
          5.9222321201e-02 -7.7724499993e-05 0.0000000000e+00 
          5.9397506192e-02 -7.7829663106e-05 0.0000000000e+00 
        </DataArray>
        <DataArray type="Float64" Name="Displacement" NumberOfComponents="3" format="ascii">
          -8.8132573256e-04 -2.7218921381e-04 0.0000000000e+00 
          -8.8132573256e-04 -2.7218921381e-04 0.0000000000e+00 
          -4.6394412926e-03 -2.9583759909e-04 0.0000000000e+00 
          -4.6394412926e-03 -2.9583759909e-04 0.0000000000e+00 
          0.0000000000e+00 0.0000000000e+00 0.0000000000e+00 
          0.0000000000e+00 0.0000000000e+00 0.0000000000e+00 
          -1.0486116611e-03 -2.7338623397e-04 0.0000000000e+00 
          -1.2139144011e-03 -2.7455213764e-04 0.0000000000e+00 
          -1.3770507947e-03 -2.7568706902e-04 0.0000000000e+00 
          -1.5378420966e-03 -2.7679106636e-04 0.0000000000e+00 
          -1.6961126669e-03 -2.7786355714e-04 0.0000000000e+00 
          -1.8516910446e-03 -2.7890521352e-04 0.0000000000e+00 
          -2.0044099222e-03 -2.7991612371e-04 0.0000000000e+00 
          -2.1541068440e-03 -2.8089546886e-04 0.0000000000e+00 
          -2.3006232996e-03 -2.8184388291e-04 0.0000000000e+00 
          -2.4438056269e-03 -2.8276110824e-04 0.0000000000e+00 
          -2.5835047198e-03 -2.8364736788e-04 0.0000000000e+00 
          -2.7195770064e-03 -2.8450247973e-04 0.0000000000e+00 
          -2.8518833414e-03 -2.8532640479e-04 0.0000000000e+00 
          -2.9802898702e-03 -2.8611939089e-04 0.0000000000e+00 
          -3.1046678815e-03 -2.8688128729e-04 0.0000000000e+00 
          -3.2248937761e-03 -2.8761187934e-04 0.0000000000e+00 
          -3.3408498005e-03 -2.8831158942e-04 0.0000000000e+00 
          -3.4524229482e-03 -2.8898027029e-04 0.0000000000e+00 
          -3.5595057657e-03 -2.8961769054e-04 0.0000000000e+00 
          -3.6619960315e-03 -2.9022431022e-04 0.0000000000e+00 
          -3.7597973034e-03 -2.9079952719e-04 0.0000000000e+00 
          -3.8528181399e-03 -2.9134399684e-04 0.0000000000e+00 
          -3.9409724550e-03 -2.9185718647e-04 0.0000000000e+00 
          -4.0241794703e-03 -2.9233917720e-04 0.0000000000e+00 
          -4.1023639589e-03 -2.9279024249e-04 0.0000000000e+00 
          -4.1754556185e-03 -2.9321016626e-04 0.0000000000e+00 
          -4.2433894032e-03 -2.9359873436e-04 0.0000000000e+00 
          -4.3061054122e-03 -2.9395631828e-04 0.0000000000e+00 
          -4.3635487785e-03 -2.9428292946e-04 0.0000000000e+00 
          -4.4156697701e-03 -2.9457827303e-04 0.0000000000e+00 
          -4.4624235264e-03 -2.9484265334e-04 0.0000000000e+00 
          -4.5037700194e-03 -2.9507577717e-04 0.0000000000e+00 
          -4.5396740693e-03 -2.9527802011e-04 0.0000000000e+00 
          -4.5701055123e-03 -2.9544902688e-04 0.0000000000e+00 
          -4.5950386488e-03 -2.9558913397e-04 0.0000000000e+00 
          -4.6144527029e-03 -2.9569787836e-04 0.0000000000e+00 
          -4.6283313955e-03 -2.9577568927e-04 0.0000000000e+00 
          -4.6366632174e-03 -2.9582234710e-04 0.0000000000e+00 
          -1.0486116611e-03 -2.7338623397e-04 0.0000000000e+00 
          -1.2139144011e-03 -2.7455213764e-04 0.0000000000e+00 
          -1.3770507947e-03 -2.7568706902e-04 0.0000000000e+00 
          -1.5378420966e-03 -2.7679106636e-04 0.0000000000e+00 
          -1.6961126669e-03 -2.7786355714e-04 0.0000000000e+00 
          -1.8516910446e-03 -2.7890521352e-04 0.0000000000e+00 
          -2.0044099222e-03 -2.7991612371e-04 0.0000000000e+00 
          -2.1541068440e-03 -2.8089546886e-04 0.0000000000e+00 
          -2.3006232996e-03 -2.8184388291e-04 0.0000000000e+00 
          -2.4438056269e-03 -2.8276110824e-04 0.0000000000e+00 
          -2.5835047198e-03 -2.8364736788e-04 0.0000000000e+00 
          -2.7195770064e-03 -2.8450247973e-04 0.0000000000e+00 
          -2.8518833414e-03 -2.8532640479e-04 0.0000000000e+00 
          -2.9802898702e-03 -2.8611939089e-04 0.0000000000e+00 
          -3.1046678815e-03 -2.8688128729e-04 0.0000000000e+00 
          -3.2248937761e-03 -2.8761187934e-04 0.0000000000e+00 
          -3.3408498005e-03 -2.8831158942e-04 0.0000000000e+00 
          -3.4524229482e-03 -2.8898027029e-04 0.0000000000e+00 
          -3.5595057657e-03 -2.8961769054e-04 0.0000000000e+00 
          -3.6619960315e-03 -2.9022431022e-04 0.0000000000e+00 
          -3.7597973034e-03 -2.9079952719e-04 0.0000000000e+00 
          -3.8528181399e-03 -2.9134399684e-04 0.0000000000e+00 
          -3.9409724550e-03 -2.9185718647e-04 0.0000000000e+00 
          -4.0241794703e-03 -2.9233917720e-04 0.0000000000e+00 
          -4.1023639589e-03 -2.9279024249e-04 0.0000000000e+00 
          -4.1754556185e-03 -2.9321016626e-04 0.0000000000e+00 
          -4.2433894032e-03 -2.9359873436e-04 0.0000000000e+00 
          -4.3061054122e-03 -2.9395631828e-04 0.0000000000e+00 
          -4.3635487785e-03 -2.9428292946e-04 0.0000000000e+00 
          -4.4156697701e-03 -2.9457827303e-04 0.0000000000e+00 
          -4.4624235264e-03 -2.9484265334e-04 0.0000000000e+00 
          -4.5037700194e-03 -2.9507577717e-04 0.0000000000e+00 
          -4.5396740693e-03 -2.9527802011e-04 0.0000000000e+00 
          -4.5701055123e-03 -2.9544902688e-04 0.0000000000e+00 
          -4.5950386488e-03 -2.9558913397e-04 0.0000000000e+00 
          -4.6144527029e-03 -2.9569787836e-04 0.0000000000e+00 
          -4.6283313955e-03 -2.9577568927e-04 0.0000000000e+00 
          -4.6366632174e-03 -2.9582234710e-04 0.0000000000e+00 
        </DataArray>
        <DataArray type="Float64" Name="Acceleration" NumberOfComponents="3" format="ascii">
          1.6190367169e-01 3.6564469373e-06 0.0000000000e+00 
          1.6190367169e-01 3.6564469373e-06 0.0000000000e+00 
          5.0062012417e-01 -9.0528851833e-05 0.0000000000e+00 
          5.0062012417e-01 -9.0528851833e-05 0.0000000000e+00 
          0.0000000000e+00 0.0000000000e+00 0.0000000000e+00 
          0.0000000000e+00 0.0000000000e+00 0.0000000000e+00 
          1.7868920908e-01 1.9849484791e-05 0.0000000000e+00 
          1.9517309899e-01 -6.3979527297e-06 0.0000000000e+00 
          2.1131664295e-01 -1.2757150626e-05 0.0000000000e+00 
          2.2712289609e-01 9.0141798299e-05 0.0000000000e+00 
          2.4257186787e-01 -3.0985475855e-05 0.0000000000e+00 
          2.5762888761e-01 -4.7110945916e-05 0.0000000000e+00 
          2.7230224870e-01 1.0092007408e-04 0.0000000000e+00 
          2.8656628662e-01 -1.3556742741e-05 0.0000000000e+00 
          3.0041154489e-01 3.2865150493e-05 0.0000000000e+00 
          3.1383013962e-01 -7.5284251077e-06 0.0000000000e+00 
          3.2679898766e-01 2.5701994038e-05 0.0000000000e+00 
          3.3931967646e-01 3.2516946395e-05 0.0000000000e+00 
          3.5138023419e-01 -1.2140344664e-05 0.0000000000e+00 
          3.6297738044e-01 1.5022127593e-05 0.0000000000e+00 
          3.7410008228e-01 5.3535165276e-05 0.0000000000e+00 
          3.8473806943e-01 -2.2236350647e-05 0.0000000000e+00 
          3.9490584453e-01 4.1219924663e-06 0.0000000000e+00 
          4.0458761544e-01 4.5823253540e-05 0.0000000000e+00 
          4.1378624632e-01 -3.7219816299e-05 0.0000000000e+00 
          4.2249988956e-01 7.1575290258e-05 0.0000000000e+00 
          4.3072666549e-01 -4.6677272467e-05 0.0000000000e+00 
          4.3848319789e-01 4.9318377692e-05 0.0000000000e+00 
          4.4575201321e-01 3.4593288025e-05 0.0000000000e+00 
          4.5254962723e-01 -1.4462218233e-05 0.0000000000e+00 
          4.5887394464e-01 2.4360845373e-05 0.0000000000e+00 
          4.6473470864e-01 6.2950095931e-05 0.0000000000e+00 
          4.7013190129e-01 -3.9928290065e-06 0.0000000000e+00 
          4.7506910467e-01 -6.1263805671e-06 0.0000000000e+00 
          4.7956349828e-01 4.7162911455e-05 0.0000000000e+00 
          4.8359850926e-01 -7.7622275156e-06 0.0000000000e+00 
          4.8720510468e-01 4.5075460576e-05 0.0000000000e+00 
          4.9037097510e-01 -2.2649685872e-05 0.0000000000e+00 
          4.9309722113e-01 4.1467614643e-05 0.0000000000e+00 
          4.9540827294e-01 -1.9218589943e-05 0.0000000000e+00 
          4.9728022593e-01 6.4216993977e-05 0.0000000000e+00 
          4.9874569899e-01 -1.3144510332e-05 0.0000000000e+00 
          4.9978595667e-01 2.6466817639e-05 0.0000000000e+00 
          5.0040354320e-01 7.1992800030e-05 0.0000000000e+00 
          1.7868920908e-01 1.9849484791e-05 0.0000000000e+00 
          1.9517309899e-01 -6.3979527297e-06 0.0000000000e+00 
          2.1131664295e-01 -1.2757150626e-05 0.0000000000e+00 
          2.2712289609e-01 9.0141798299e-05 0.0000000000e+00 
          2.4257186787e-01 -3.0985475855e-05 0.0000000000e+00 
          2.5762888761e-01 -4.7110945916e-05 0.0000000000e+00 
          2.7230224870e-01 1.0092007408e-04 0.0000000000e+00 
          2.8656628662e-01 -1.3556742741e-05 0.0000000000e+00 
          3.0041154489e-01 3.2865150493e-05 0.0000000000e+00 
          3.1383013962e-01 -7.5284251077e-06 0.0000000000e+00 
          3.2679898766e-01 2.5701994038e-05 0.0000000000e+00 
          3.3931967646e-01 3.2516946395e-05 0.0000000000e+00 
          3.5138023419e-01 -1.2140344664e-05 0.0000000000e+00 
          3.6297738044e-01 1.5022127593e-05 0.0000000000e+00 
          3.7410008228e-01 5.3535165276e-05 0.0000000000e+00 
          3.8473806943e-01 -2.2236350647e-05 0.0000000000e+00 
          3.9490584453e-01 4.1219924663e-06 0.0000000000e+00 
          4.0458761544e-01 4.5823253540e-05 0.0000000000e+00 
          4.1378624632e-01 -3.7219816299e-05 0.0000000000e+00 
          4.2249988956e-01 7.1575290258e-05 0.0000000000e+00 
          4.3072666549e-01 -4.6677272467e-05 0.0000000000e+00 
          4.3848319789e-01 4.9318377692e-05 0.0000000000e+00 
          4.4575201321e-01 3.4593288025e-05 0.0000000000e+00 
          4.5254962723e-01 -1.4462218233e-05 0.0000000000e+00 
          4.5887394464e-01 2.4360845373e-05 0.0000000000e+00 
          4.6473470864e-01 6.2950095931e-05 0.0000000000e+00 
          4.7013190129e-01 -3.9928290065e-06 0.0000000000e+00 
          4.7506910467e-01 -6.1263805671e-06 0.0000000000e+00 
          4.7956349828e-01 4.7162911455e-05 0.0000000000e+00 
          4.8359850926e-01 -7.7622275156e-06 0.0000000000e+00 
          4.8720510468e-01 4.5075460576e-05 0.0000000000e+00 
          4.9037097510e-01 -2.2649685872e-05 0.0000000000e+00 
          4.9309722113e-01 4.1467614643e-05 0.0000000000e+00 
          4.9540827294e-01 -1.9218589943e-05 0.0000000000e+00 
          4.9728022593e-01 6.4216993977e-05 0.0000000000e+00 
          4.9874569899e-01 -1.3144510332e-05 0.0000000000e+00 
          4.9978595667e-01 2.6466817639e-05 0.0000000000e+00 
          5.0040354320e-01 7.1992800030e-05 0.0000000000e+00 
        </DataArray>
        <DataArray type="Float64" Name="Reaction" NumberOfComponents="3" format="ascii">
          0.0000000000e+00 0.0000000000e+00 0.0000000000e+00 
          0.0000000000e+00 0.0000000000e+00 0.0000000000e+00 
          0.0000000000e+00 0.0000000000e+00 0.0000000000e+00 
          0.0000000000e+00 0.0000000000e+00 0.0000000000e+00 
          0.0000000000e+00 0.0000000000e+00 0.0000000000e+00 
          0.0000000000e+00 0.0000000000e+00 0.0000000000e+00 
          0.0000000000e+00 0.0000000000e+00 0.0000000000e+00 
          0.0000000000e+00 0.0000000000e+00 0.0000000000e+00 
          0.0000000000e+00 0.0000000000e+00 0.0000000000e+00 
          0.0000000000e+00 0.0000000000e+00 0.0000000000e+00 
          0.0000000000e+00 0.0000000000e+00 0.0000000000e+00 
          0.0000000000e+00 0.0000000000e+00 0.0000000000e+00 
          0.0000000000e+00 0.0000000000e+00 0.0000000000e+00 
          0.0000000000e+00 0.0000000000e+00 0.0000000000e+00 
          0.0000000000e+00 0.0000000000e+00 0.0000000000e+00 
          0.0000000000e+00 0.0000000000e+00 0.0000000000e+00 
          0.0000000000e+00 0.0000000000e+00 0.0000000000e+00 
          0.0000000000e+00 0.0000000000e+00 0.0000000000e+00 
          0.0000000000e+00 0.0000000000e+00 0.0000000000e+00 
          0.0000000000e+00 0.0000000000e+00 0.0000000000e+00 
          0.0000000000e+00 0.0000000000e+00 0.0000000000e+00 
          0.0000000000e+00 0.0000000000e+00 0.0000000000e+00 
          0.0000000000e+00 0.0000000000e+00 0.0000000000e+00 
          0.0000000000e+00 0.0000000000e+00 0.0000000000e+00 
          0.0000000000e+00 0.0000000000e+00 0.0000000000e+00 
          0.0000000000e+00 0.0000000000e+00 0.0000000000e+00 
          0.0000000000e+00 0.0000000000e+00 0.0000000000e+00 
          0.0000000000e+00 0.0000000000e+00 0.0000000000e+00 
          0.0000000000e+00 0.0000000000e+00 0.0000000000e+00 
          0.0000000000e+00 0.0000000000e+00 0.0000000000e+00 
          0.0000000000e+00 0.0000000000e+00 0.0000000000e+00 
          0.0000000000e+00 0.0000000000e+00 0.0000000000e+00 
          0.0000000000e+00 0.0000000000e+00 0.0000000000e+00 
          0.0000000000e+00 0.0000000000e+00 0.0000000000e+00 
          0.0000000000e+00 0.0000000000e+00 0.0000000000e+00 
          0.0000000000e+00 0.0000000000e+00 0.0000000000e+00 
          0.0000000000e+00 0.0000000000e+00 0.0000000000e+00 
          0.0000000000e+00 0.0000000000e+00 0.0000000000e+00 
          0.0000000000e+00 0.0000000000e+00 0.0000000000e+00 
          0.0000000000e+00 0.0000000000e+00 0.0000000000e+00 
          0.0000000000e+00 0.0000000000e+00 0.0000000000e+00 
          0.0000000000e+00 0.0000000000e+00 0.0000000000e+00 
          0.0000000000e+00 0.0000000000e+00 0.0000000000e+00 
          0.0000000000e+00 0.0000000000e+00 0.0000000000e+00 
          0.0000000000e+00 0.0000000000e+00 0.0000000000e+00 
          0.0000000000e+00 0.0000000000e+00 0.0000000000e+00 
          0.0000000000e+00 0.0000000000e+00 0.0000000000e+00 
          0.0000000000e+00 0.0000000000e+00 0.0000000000e+00 
          0.0000000000e+00 0.0000000000e+00 0.0000000000e+00 
          0.0000000000e+00 0.0000000000e+00 0.0000000000e+00 
          0.0000000000e+00 0.0000000000e+00 0.0000000000e+00 
          0.0000000000e+00 0.0000000000e+00 0.0000000000e+00 
          0.0000000000e+00 0.0000000000e+00 0.0000000000e+00 
          0.0000000000e+00 0.0000000000e+00 0.0000000000e+00 
          0.0000000000e+00 0.0000000000e+00 0.0000000000e+00 
          0.0000000000e+00 0.0000000000e+00 0.0000000000e+00 
          0.0000000000e+00 0.0000000000e+00 0.0000000000e+00 
          0.0000000000e+00 0.0000000000e+00 0.0000000000e+00 
          0.0000000000e+00 0.0000000000e+00 0.0000000000e+00 
          0.0000000000e+00 0.0000000000e+00 0.0000000000e+00 
          0.0000000000e+00 0.0000000000e+00 0.0000000000e+00 
          0.0000000000e+00 0.0000000000e+00 0.0000000000e+00 
          0.0000000000e+00 0.0000000000e+00 0.0000000000e+00 
          0.0000000000e+00 0.0000000000e+00 0.0000000000e+00 
          0.0000000000e+00 0.0000000000e+00 0.0000000000e+00 
          0.0000000000e+00 0.0000000000e+00 0.0000000000e+00 
          0.0000000000e+00 0.0000000000e+00 0.0000000000e+00 
          0.0000000000e+00 0.0000000000e+00 0.0000000000e+00 
          0.0000000000e+00 0.0000000000e+00 0.0000000000e+00 
          0.0000000000e+00 0.0000000000e+00 0.0000000000e+00 
          0.0000000000e+00 0.0000000000e+00 0.0000000000e+00 
          0.0000000000e+00 0.0000000000e+00 0.0000000000e+00 
          0.0000000000e+00 0.0000000000e+00 0.0000000000e+00 
          0.0000000000e+00 0.0000000000e+00 0.0000000000e+00 
          0.0000000000e+00 0.0000000000e+00 0.0000000000e+00 
          0.0000000000e+00 0.0000000000e+00 0.0000000000e+00 
          0.0000000000e+00 0.0000000000e+00 0.0000000000e+00 
          0.0000000000e+00 0.0000000000e+00 0.0000000000e+00 
          0.0000000000e+00 0.0000000000e+00 0.0000000000e+00 
          0.0000000000e+00 0.0000000000e+00 0.0000000000e+00 
          0.0000000000e+00 0.0000000000e+00 0.0000000000e+00 
          0.0000000000e+00 0.0000000000e+00 0.0000000000e+00 
        </DataArray>
      </PointData>
      <CellData>
        <DataArray type="Int64" Name="ElementTag" format="ascii">
          0
        </DataArray>
      </CellData>
    </Piece>
  </UnstructuredGrid>
</VTKFile>
