<?xml version="1.0"?>
<VTKFile type="UnstructuredGrid" version="1.0" byte_order="LittleEndian" compressor="vtkZLibDataCompressor">
  <UnstructuredGrid>
    <Piece NumberOfPoints="80" NumberOfCells="39">
      <Points>
        <DataArray type="Float64" Name="Points" NumberOfComponents="3" format="ascii">
          0.0000000000e+00 0.0000000000e+00 0.0000000000e+00 
          2.5000000000e-01 0.0000000000e+00 0.0000000000e+00 
          2.5000000000e-01 3.0000000000e+01 0.0000000000e+00 
          0.0000000000e+00 3.0000000000e+01 0.0000000000e+00 
          2.5000000000e-01 7.6923100000e-01 0.0000000000e+00 
          2.5000000000e-01 1.5384620000e+00 0.0000000000e+00 
          2.5000000000e-01 2.3076920000e+00 0.0000000000e+00 
          2.5000000000e-01 3.0769230000e+00 0.0000000000e+00 
          2.5000000000e-01 3.8461540000e+00 0.0000000000e+00 
          2.5000000000e-01 4.6153850000e+00 0.0000000000e+00 
          2.5000000000e-01 5.3846150000e+00 0.0000000000e+00 
          2.5000000000e-01 6.1538460000e+00 0.0000000000e+00 
          2.5000000000e-01 6.9230770000e+00 0.0000000000e+00 
          2.5000000000e-01 7.6923080000e+00 0.0000000000e+00 
          2.5000000000e-01 8.4615380000e+00 0.0000000000e+00 
          2.5000000000e-01 9.2307690000e+00 0.0000000000e+00 
          2.5000000000e-01 1.0000000000e+01 0.0000000000e+00 
          2.5000000000e-01 1.0769231000e+01 0.0000000000e+00 
          2.5000000000e-01 1.1538462000e+01 0.0000000000e+00 
          2.5000000000e-01 1.2307692000e+01 0.0000000000e+00 
          2.5000000000e-01 1.3076923000e+01 0.0000000000e+00 
          2.5000000000e-01 1.3846154000e+01 0.0000000000e+00 
          2.5000000000e-01 1.4615385000e+01 0.0000000000e+00 
          2.5000000000e-01 1.5384615000e+01 0.0000000000e+00 
          2.5000000000e-01 1.6153846000e+01 0.0000000000e+00 
          2.5000000000e-01 1.6923077000e+01 0.0000000000e+00 
          2.5000000000e-01 1.7692308000e+01 0.0000000000e+00 
          2.5000000000e-01 1.8461538000e+01 0.0000000000e+00 
          2.5000000000e-01 1.9230769000e+01 0.0000000000e+00 
          2.5000000000e-01 2.0000000000e+01 0.0000000000e+00 
          2.5000000000e-01 2.0769231000e+01 0.0000000000e+00 
          2.5000000000e-01 2.1538462000e+01 0.0000000000e+00 
          2.5000000000e-01 2.2307692000e+01 0.0000000000e+00 
          2.5000000000e-01 2.3076923000e+01 0.0000000000e+00 
          2.5000000000e-01 2.3846154000e+01 0.0000000000e+00 
          2.5000000000e-01 2.4615385000e+01 0.0000000000e+00 
          2.5000000000e-01 2.5384615000e+01 0.0000000000e+00 
          2.5000000000e-01 2.6153846000e+01 0.0000000000e+00 
          2.5000000000e-01 2.6923077000e+01 0.0000000000e+00 
          2.5000000000e-01 2.7692308000e+01 0.0000000000e+00 
          2.5000000000e-01 2.8461538000e+01 0.0000000000e+00 
          2.5000000000e-01 2.9230769000e+01 0.0000000000e+00 
          0.0000000000e+00 7.6923100000e-01 0.0000000000e+00 
          0.0000000000e+00 1.5384620000e+00 0.0000000000e+00 
          0.0000000000e+00 2.3076920000e+00 0.0000000000e+00 
          0.0000000000e+00 3.0769230000e+00 0.0000000000e+00 
          0.0000000000e+00 3.8461540000e+00 0.0000000000e+00 
          0.0000000000e+00 4.6153850000e+00 0.0000000000e+00 
          0.0000000000e+00 5.3846150000e+00 0.0000000000e+00 
          0.0000000000e+00 6.1538460000e+00 0.0000000000e+00 
          0.0000000000e+00 6.9230770000e+00 0.0000000000e+00 
          0.0000000000e+00 7.6923080000e+00 0.0000000000e+00 
          0.0000000000e+00 8.4615380000e+00 0.0000000000e+00 
          0.0000000000e+00 9.2307690000e+00 0.0000000000e+00 
          0.0000000000e+00 1.0000000000e+01 0.0000000000e+00 
          0.0000000000e+00 1.0769231000e+01 0.0000000000e+00 
          0.0000000000e+00 1.1538462000e+01 0.0000000000e+00 
          0.0000000000e+00 1.2307692000e+01 0.0000000000e+00 
          0.0000000000e+00 1.3076923000e+01 0.0000000000e+00 
          0.0000000000e+00 1.3846154000e+01 0.0000000000e+00 
          0.0000000000e+00 1.4615385000e+01 0.0000000000e+00 
          0.0000000000e+00 1.5384615000e+01 0.0000000000e+00 
          0.0000000000e+00 1.6153846000e+01 0.0000000000e+00 
          0.0000000000e+00 1.6923077000e+01 0.0000000000e+00 
          0.0000000000e+00 1.7692308000e+01 0.0000000000e+00 
          0.0000000000e+00 1.8461538000e+01 0.0000000000e+00 
          0.0000000000e+00 1.9230769000e+01 0.0000000000e+00 
          0.0000000000e+00 2.0000000000e+01 0.0000000000e+00 
          0.0000000000e+00 2.0769231000e+01 0.0000000000e+00 
          0.0000000000e+00 2.1538462000e+01 0.0000000000e+00 
          0.0000000000e+00 2.2307692000e+01 0.0000000000e+00 
          0.0000000000e+00 2.3076923000e+01 0.0000000000e+00 
          0.0000000000e+00 2.3846154000e+01 0.0000000000e+00 
          0.0000000000e+00 2.4615385000e+01 0.0000000000e+00 
          0.0000000000e+00 2.5384615000e+01 0.0000000000e+00 
          0.0000000000e+00 2.6153846000e+01 0.0000000000e+00 
          0.0000000000e+00 2.6923077000e+01 0.0000000000e+00 
          0.0000000000e+00 2.7692308000e+01 0.0000000000e+00 
          0.0000000000e+00 2.8461538000e+01 0.0000000000e+00 
          0.0000000000e+00 2.9230769000e+01 0.0000000000e+00 
        </DataArray>
      </Points>
      <Cells>
        <DataArray type="Int64" Name="connectivity" format="ascii">
          0 1 4 42 
          42 4 5 43 
          43 5 6 44 
          44 6 7 45 
          45 7 8 46 
          46 8 9 47 
          47 9 10 48 
          48 10 11 49 
          49 11 12 50 
          50 12 13 51 
          51 13 14 52 
          52 14 15 53 
          53 15 16 54 
          54 16 17 55 
          55 17 18 56 
          56 18 19 57 
          57 19 20 58 
          58 20 21 59 
          59 21 22 60 
          60 22 23 61 
          61 23 24 62 
          62 24 25 63 
          63 25 26 64 
          64 26 27 65 
          65 27 28 66 
          66 28 29 67 
          67 29 30 68 
          68 30 31 69 
          69 31 32 70 
          70 32 33 71 
          71 33 34 72 
          72 34 35 73 
          73 35 36 74 
          74 36 37 75 
          75 37 38 76 
          76 38 39 77 
          77 39 40 78 
          78 40 41 79 
          79 41 2 3 
        </DataArray>
        <DataArray type="Int64" Name="offsets" format="ascii">
          4
          8
          12
          16
          20
          24
          28
          32
          36
          40
          44
          48
          52
          56
          60
          64
          68
          72
          76
          80
          84
          88
          92
          96
          100
          104
          108
          112
          116
          120
          124
          128
          132
          136
          140
          144
          148
          152
          156
        </DataArray>
        <DataArray type="Int64" Name="types" format="ascii">
          9
          9
          9
          9
          9
          9
          9
          9
          9
          9
          9
          9
          9
          9
          9
          9
          9
          9
          9
          9
          9
          9
          9
          9
          9
          9
          9
          9
          9
          9
          9
          9
          9
          9
          9
          9
          9
          9
          9
        </DataArray>
      </Cells>
      <PointData>
        <DataArray type="Int64" Name="NodeTag" format="ascii">
          1
          2
          3
          4
          7
          8
          9
          10
          11
          12
          13
          14
          15
          16
          17
          18
          19
          20
          21
          22
          23
          24
          25
          26
          27
          28
          29
          30
          31
          32
          33
          34
          35
          36
          37
          38
          39
          40
          41
          42
          43
          44
          45
          46
          47
          48
          49
          50
          51
          52
          53
          54
          55
          56
          57
          58
          59
          60
          61
          62
          63
          64
          65
          66
          67
          68
          69
          70
          71
          72
          73
          74
          75
          76
          77
          78
          79
          80
          81
          82
        </DataArray>
        <DataArray type="Float64" Name="Velocity" NumberOfComponents="3" format="ascii">
          2.3325965590e-02 -7.7919784036e-05 0.0000000000e+00 
          2.3325965590e-02 -7.7919784036e-05 0.0000000000e+00 
          -4.7291869887e-02 -7.5597629758e-05 0.0000000000e+00 
          -4.7291869887e-02 -7.5597629758e-05 0.0000000000e+00 
          2.0786877322e-02 -7.7786731919e-05 0.0000000000e+00 
          1.8220667532e-02 -7.7809994486e-05 0.0000000000e+00 
          1.5632919305e-02 -7.7704421700e-05 0.0000000000e+00 
          1.3029292927e-02 -7.7575492768e-05 0.0000000000e+00 
          1.0415480830e-02 -7.7660790189e-05 0.0000000000e+00 
          7.7971686862e-03 -7.7514528896e-05 0.0000000000e+00 
          5.1800622888e-03 -7.7448726985e-05 0.0000000000e+00 
          2.5698277644e-03 -7.7394116899e-05 0.0000000000e+00 
          -2.7870876432e-05 -7.7416796466e-05 0.0000000000e+00 
          -2.6073792858e-03 -7.7306401700e-05 0.0000000000e+00 
          -5.1630541165e-03 -7.7162817953e-05 0.0000000000e+00 
          -7.6893393574e-03 -7.7176181098e-05 0.0000000000e+00 
          -1.0180717769e-02 -7.7052062785e-05 0.0000000000e+00 
          -1.2631704704e-02 -7.7170797940e-05 0.0000000000e+00 
          -1.5036892375e-02 -7.6945595242e-05 0.0000000000e+00 
          -1.7390943589e-02 -7.6915627531e-05 0.0000000000e+00 
          -1.9688648099e-02 -7.6966199912e-05 0.0000000000e+00 
          -2.1924882969e-02 -7.6714839152e-05 0.0000000000e+00 
          -2.4094590750e-02 -7.6828736167e-05 0.0000000000e+00 
          -2.6192894492e-02 -7.6639687439e-05 0.0000000000e+00 
          -2.8215028563e-02 -7.6553892621e-05 0.0000000000e+00 
          -3.0156394072e-02 -7.6588885733e-05 0.0000000000e+00 
          -3.2012538214e-02 -7.6466783737e-05 0.0000000000e+00 
          -3.3779145902e-02 -7.6362959179e-05 0.0000000000e+00 
          -3.5452183091e-02 -7.6320645652e-05 0.0000000000e+00 
          -3.7027709251e-02 -7.6171908818e-05 0.0000000000e+00 
          -3.8502063909e-02 -7.6038380131e-05 0.0000000000e+00 
          -3.9871785812e-02 -7.6171898022e-05 0.0000000000e+00 
          -4.1133590563e-02 -7.5843178088e-05 0.0000000000e+00 
          -4.2284549824e-02 -7.5905502213e-05 0.0000000000e+00 
          -4.3321902810e-02 -7.5957010923e-05 0.0000000000e+00 
          -4.4243150367e-02 -7.5893030804e-05 0.0000000000e+00 
          -4.5046119343e-02 -7.5867445558e-05 0.0000000000e+00 
          -4.5728851418e-02 -7.5735089781e-05 0.0000000000e+00 
          -4.6289722378e-02 -7.5855496354e-05 0.0000000000e+00 
          -4.6727376106e-02 -7.5622443249e-05 0.0000000000e+00 
          -4.7040723148e-02 -7.5743760506e-05 0.0000000000e+00 
          -4.7229040664e-02 -7.5760302299e-05 0.0000000000e+00 
          2.0786877322e-02 -7.7786731919e-05 0.0000000000e+00 
          1.8220667532e-02 -7.7809994486e-05 0.0000000000e+00 
          1.5632919305e-02 -7.7704421700e-05 0.0000000000e+00 
          1.3029292927e-02 -7.7575492768e-05 0.0000000000e+00 
          1.0415480830e-02 -7.7660790189e-05 0.0000000000e+00 
          7.7971686862e-03 -7.7514528896e-05 0.0000000000e+00 
          5.1800622888e-03 -7.7448726985e-05 0.0000000000e+00 
          2.5698277644e-03 -7.7394116899e-05 0.0000000000e+00 
          -2.7870876432e-05 -7.7416796466e-05 0.0000000000e+00 
          -2.6073792858e-03 -7.7306401700e-05 0.0000000000e+00 
          -5.1630541165e-03 -7.7162817953e-05 0.0000000000e+00 
          -7.6893393574e-03 -7.7176181098e-05 0.0000000000e+00 
          -1.0180717769e-02 -7.7052062785e-05 0.0000000000e+00 
          -1.2631704704e-02 -7.7170797940e-05 0.0000000000e+00 
          -1.5036892375e-02 -7.6945595242e-05 0.0000000000e+00 
          -1.7390943589e-02 -7.6915627531e-05 0.0000000000e+00 
          -1.9688648099e-02 -7.6966199912e-05 0.0000000000e+00 
          -2.1924882969e-02 -7.6714839152e-05 0.0000000000e+00 
          -2.4094590750e-02 -7.6828736167e-05 0.0000000000e+00 
          -2.6192894492e-02 -7.6639687439e-05 0.0000000000e+00 
          -2.8215028563e-02 -7.6553892621e-05 0.0000000000e+00 
          -3.0156394072e-02 -7.6588885733e-05 0.0000000000e+00 
          -3.2012538214e-02 -7.6466783737e-05 0.0000000000e+00 
          -3.3779145902e-02 -7.6362959179e-05 0.0000000000e+00 
          -3.5452183091e-02 -7.6320645652e-05 0.0000000000e+00 
          -3.7027709251e-02 -7.6171908818e-05 0.0000000000e+00 
          -3.8502063909e-02 -7.6038380131e-05 0.0000000000e+00 
          -3.9871785812e-02 -7.6171898022e-05 0.0000000000e+00 
          -4.1133590563e-02 -7.5843178088e-05 0.0000000000e+00 
          -4.2284549824e-02 -7.5905502213e-05 0.0000000000e+00 
          -4.3321902810e-02 -7.5957010923e-05 0.0000000000e+00 
          -4.4243150367e-02 -7.5893030804e-05 0.0000000000e+00 
          -4.5046119343e-02 -7.5867445558e-05 0.0000000000e+00 
          -4.5728851418e-02 -7.5735089781e-05 0.0000000000e+00 
          -4.6289722378e-02 -7.5855496354e-05 0.0000000000e+00 
          -4.6727376106e-02 -7.5622443249e-05 0.0000000000e+00 
          -4.7040723148e-02 -7.5743760506e-05 0.0000000000e+00 
          -4.7229040664e-02 -7.5760302299e-05 0.0000000000e+00 
        </DataArray>
        <DataArray type="Float64" Name="Displacement" NumberOfComponents="3" format="ascii">
          5.3802274993e-04 -2.4885125541e-04 0.0000000000e+00 
          5.3802274993e-04 -2.4885125541e-04 0.0000000000e+00 
          9.7826294061e-03 -2.7246203773e-04 0.0000000000e+00 
          9.7826294061e-03 -2.7246203773e-04 0.0000000000e+00 
          9.2454692098e-04 -2.5004614578e-04 0.0000000000e+00 
          1.3088427026e-03 -2.5120991462e-04 0.0000000000e+00 
          1.6903714843e-03 -2.5234285081e-04 0.0000000000e+00 
          2.0686011095e-03 -2.5344430613e-04 0.0000000000e+00 
          2.4430034396e-03 -2.5451534162e-04 0.0000000000e+00 
          2.8130570900e-03 -2.5555519021e-04 0.0000000000e+00 
          3.1782468186e-03 -2.5656386227e-04 0.0000000000e+00 
          3.5380662430e-03 -2.5754197547e-04 0.0000000000e+00 
          3.8920154650e-03 -2.5848882543e-04 0.0000000000e+00 
          4.2396034763e-03 -2.5940449732e-04 0.0000000000e+00 
          4.5803481118e-03 -2.6028945120e-04 0.0000000000e+00 
          4.9137780018e-03 -2.6114277843e-04 0.0000000000e+00 
          5.2394308172e-03 -2.6196520833e-04 0.0000000000e+00 
          5.5568554548e-03 -2.6275684967e-04 0.0000000000e+00 
          5.8656120885e-03 -2.6351735521e-04 0.0000000000e+00 
          6.1652726544e-03 -2.6424651064e-04 0.0000000000e+00 
          6.4554225894e-03 -2.6494471564e-04 0.0000000000e+00 
          6.7356592194e-03 -2.6561215083e-04 0.0000000000e+00 
          7.0055938383e-03 -2.6624853237e-04 0.0000000000e+00 
          7.2648514441e-03 -2.6685391021e-04 0.0000000000e+00 
          7.5130727507e-03 -2.6742817608e-04 0.0000000000e+00 
          7.7499124278e-03 -2.6797183498e-04 0.0000000000e+00 
          7.9750411118e-03 -2.6848397014e-04 0.0000000000e+00 
          8.1881453270e-03 -2.6896510785e-04 0.0000000000e+00 
          8.3889288577e-03 -2.6941578816e-04 0.0000000000e+00 
          8.5771115552e-03 -2.6983515248e-04 0.0000000000e+00 
          8.7524309566e-03 -2.7022348887e-04 0.0000000000e+00 
          8.9146423905e-03 -2.7058076686e-04 0.0000000000e+00 
          9.0635191577e-03 -2.7090701665e-04 0.0000000000e+00 
          9.1988535000e-03 -2.7120247108e-04 0.0000000000e+00 
          9.3204559457e-03 -2.7146668385e-04 0.0000000000e+00 
          9.4281563580e-03 -2.7169988543e-04 0.0000000000e+00 
          9.5218038036e-03 -2.7190216904e-04 0.0000000000e+00 
          9.6012673548e-03 -2.7207311268e-04 0.0000000000e+00 
          9.6664355006e-03 -2.7221315160e-04 0.0000000000e+00 
          9.7172168354e-03 -2.7232212775e-04 0.0000000000e+00 
          9.7535401485e-03 -2.7239969258e-04 0.0000000000e+00 
          9.7753545647e-03 -2.7244641275e-04 0.0000000000e+00 
          9.2454692098e-04 -2.5004614578e-04 0.0000000000e+00 
          1.3088427026e-03 -2.5120991462e-04 0.0000000000e+00 
          1.6903714843e-03 -2.5234285081e-04 0.0000000000e+00 
          2.0686011095e-03 -2.5344430613e-04 0.0000000000e+00 
          2.4430034396e-03 -2.5451534162e-04 0.0000000000e+00 
          2.8130570900e-03 -2.5555519021e-04 0.0000000000e+00 
          3.1782468186e-03 -2.5656386227e-04 0.0000000000e+00 
          3.5380662430e-03 -2.5754197547e-04 0.0000000000e+00 
          3.8920154650e-03 -2.5848882543e-04 0.0000000000e+00 
          4.2396034763e-03 -2.5940449732e-04 0.0000000000e+00 
          4.5803481118e-03 -2.6028945120e-04 0.0000000000e+00 
          4.9137780018e-03 -2.6114277843e-04 0.0000000000e+00 
          5.2394308172e-03 -2.6196520833e-04 0.0000000000e+00 
          5.5568554548e-03 -2.6275684967e-04 0.0000000000e+00 
          5.8656120885e-03 -2.6351735521e-04 0.0000000000e+00 
          6.1652726544e-03 -2.6424651064e-04 0.0000000000e+00 
          6.4554225894e-03 -2.6494471564e-04 0.0000000000e+00 
          6.7356592194e-03 -2.6561215083e-04 0.0000000000e+00 
          7.0055938383e-03 -2.6624853237e-04 0.0000000000e+00 
          7.2648514441e-03 -2.6685391021e-04 0.0000000000e+00 
          7.5130727507e-03 -2.6742817608e-04 0.0000000000e+00 
          7.7499124278e-03 -2.6797183498e-04 0.0000000000e+00 
          7.9750411118e-03 -2.6848397014e-04 0.0000000000e+00 
          8.1881453270e-03 -2.6896510785e-04 0.0000000000e+00 
          8.3889288577e-03 -2.6941578816e-04 0.0000000000e+00 
          8.5771115552e-03 -2.6983515248e-04 0.0000000000e+00 
          8.7524309566e-03 -2.7022348887e-04 0.0000000000e+00 
          8.9146423905e-03 -2.7058076686e-04 0.0000000000e+00 
          9.0635191577e-03 -2.7090701665e-04 0.0000000000e+00 
          9.1988535000e-03 -2.7120247108e-04 0.0000000000e+00 
          9.3204559457e-03 -2.7146668385e-04 0.0000000000e+00 
          9.4281563580e-03 -2.7169988543e-04 0.0000000000e+00 
          9.5218038036e-03 -2.7190216904e-04 0.0000000000e+00 
          9.6012673548e-03 -2.7207311268e-04 0.0000000000e+00 
          9.6664355006e-03 -2.7221315160e-04 0.0000000000e+00 
          9.7172168354e-03 -2.7232212775e-04 0.0000000000e+00 
          9.7535401485e-03 -2.7239969258e-04 0.0000000000e+00 
          9.7753545647e-03 -2.7244641275e-04 0.0000000000e+00 
        </DataArray>
        <DataArray type="Float64" Name="Acceleration" NumberOfComponents="3" format="ascii">
          -1.5190862970e-01 8.3670581799e-06 0.0000000000e+00 
          -1.5190862970e-01 8.3670581799e-06 0.0000000000e+00 
          -1.3109551558e+00 4.3901643664e-05 0.0000000000e+00 
          -1.3109551558e+00 4.3901643664e-05 0.0000000000e+00 
          -2.0078229241e-01 2.0758882546e-05 0.0000000000e+00 
          -2.4926761957e-01 -3.1560974635e-05 0.0000000000e+00 
          -2.9730541198e-01 8.5782511727e-05 0.0000000000e+00 
          -3.4484683752e-01 -1.0569202562e-04 0.0000000000e+00 
          -3.9182463363e-01 3.2537665275e-05 0.0000000000e+00 
          -4.3820646104e-01 3.0439188163e-05 0.0000000000e+00 
          -4.8391811115e-01 -8.0399914505e-05 0.0000000000e+00 
          -5.2891682764e-01 4.6295976392e-05 0.0000000000e+00 
          -5.7315764739e-01 3.0947210587e-05 0.0000000000e+00 
          -6.1656216223e-01 -5.2159983031e-05 0.0000000000e+00 
          -6.5911335744e-01 1.1199151842e-04 0.0000000000e+00 
          -7.0072977009e-01 -1.9642713568e-05 0.0000000000e+00 
          -7.4137508012e-01 -3.9244201998e-05 0.0000000000e+00 
          -7.8100426551e-01 2.3330993852e-05 0.0000000000e+00 
          -8.1953910550e-01 6.1780188792e-05 0.0000000000e+00 
          -8.5696228358e-01 -9.8985078874e-06 0.0000000000e+00 
          -8.9320835245e-01 -4.2623948615e-05 0.0000000000e+00 
          -9.2823155371e-01 8.5256456329e-06 0.0000000000e+00 
          -9.6199021483e-01 -6.1329377765e-07 0.0000000000e+00 
          -9.9442337124e-01 1.9181447950e-05 0.0000000000e+00 
          -1.0255072973e+00 -7.1968264196e-05 0.0000000000e+00 
          -1.0551835963e+00 9.3238009297e-05 0.0000000000e+00 
          -1.0834041411e+00 -1.7094307481e-06 0.0000000000e+00 
          -1.1101436820e+00 -9.8804423177e-05 0.0000000000e+00 
          -1.1353599484e+00 5.5798951479e-05 0.0000000000e+00 
          -1.1590083913e+00 3.8934439687e-06 0.0000000000e+00 
          -1.1810537582e+00 9.3810733519e-06 0.0000000000e+00 
          -1.2014631384e+00 3.8673171753e-06 0.0000000000e+00 
          -1.2202174662e+00 -3.7940703213e-05 0.0000000000e+00 
          -1.2372709999e+00 4.2408929512e-05 0.0000000000e+00 
          -1.2526006577e+00 8.7224209333e-07 0.0000000000e+00 
          -1.2661899119e+00 -1.5966075685e-05 0.0000000000e+00 
          -1.2780086995e+00 6.0172025387e-05 0.0000000000e+00 
          -1.2880442484e+00 -1.8312972720e-05 0.0000000000e+00 
          -1.2962800937e+00 1.0171499484e-05 0.0000000000e+00 
          -1.3026928923e+00 7.2965188888e-05 0.0000000000e+00 
          -1.3072853648e+00 -2.9114800190e-05 0.0000000000e+00 
          -1.3100444062e+00 1.6012684523e-05 0.0000000000e+00 
          -2.0078229241e-01 2.0758882546e-05 0.0000000000e+00 
          -2.4926761957e-01 -3.1560974635e-05 0.0000000000e+00 
          -2.9730541198e-01 8.5782511727e-05 0.0000000000e+00 
          -3.4484683752e-01 -1.0569202562e-04 0.0000000000e+00 
          -3.9182463363e-01 3.2537665275e-05 0.0000000000e+00 
          -4.3820646104e-01 3.0439188163e-05 0.0000000000e+00 
          -4.8391811115e-01 -8.0399914505e-05 0.0000000000e+00 
          -5.2891682764e-01 4.6295976392e-05 0.0000000000e+00 
          -5.7315764739e-01 3.0947210587e-05 0.0000000000e+00 
          -6.1656216223e-01 -5.2159983031e-05 0.0000000000e+00 
          -6.5911335744e-01 1.1199151842e-04 0.0000000000e+00 
          -7.0072977009e-01 -1.9642713568e-05 0.0000000000e+00 
          -7.4137508012e-01 -3.9244201998e-05 0.0000000000e+00 
          -7.8100426551e-01 2.3330993852e-05 0.0000000000e+00 
          -8.1953910550e-01 6.1780188792e-05 0.0000000000e+00 
          -8.5696228358e-01 -9.8985078874e-06 0.0000000000e+00 
          -8.9320835245e-01 -4.2623948615e-05 0.0000000000e+00 
          -9.2823155371e-01 8.5256456329e-06 0.0000000000e+00 
          -9.6199021483e-01 -6.1329377765e-07 0.0000000000e+00 
          -9.9442337124e-01 1.9181447950e-05 0.0000000000e+00 
          -1.0255072973e+00 -7.1968264196e-05 0.0000000000e+00 
          -1.0551835963e+00 9.3238009297e-05 0.0000000000e+00 
          -1.0834041411e+00 -1.7094307481e-06 0.0000000000e+00 
          -1.1101436820e+00 -9.8804423177e-05 0.0000000000e+00 
          -1.1353599484e+00 5.5798951479e-05 0.0000000000e+00 
          -1.1590083913e+00 3.8934439687e-06 0.0000000000e+00 
          -1.1810537582e+00 9.3810733519e-06 0.0000000000e+00 
          -1.2014631384e+00 3.8673171753e-06 0.0000000000e+00 
          -1.2202174662e+00 -3.7940703213e-05 0.0000000000e+00 
          -1.2372709999e+00 4.2408929512e-05 0.0000000000e+00 
          -1.2526006577e+00 8.7224209333e-07 0.0000000000e+00 
          -1.2661899119e+00 -1.5966075685e-05 0.0000000000e+00 
          -1.2780086995e+00 6.0172025387e-05 0.0000000000e+00 
          -1.2880442484e+00 -1.8312972720e-05 0.0000000000e+00 
          -1.2962800937e+00 1.0171499484e-05 0.0000000000e+00 
          -1.3026928923e+00 7.2965188888e-05 0.0000000000e+00 
          -1.3072853648e+00 -2.9114800190e-05 0.0000000000e+00 
          -1.3100444062e+00 1.6012684523e-05 0.0000000000e+00 
        </DataArray>
        <DataArray type="Float64" Name="Reaction" NumberOfComponents="3" format="ascii">
          0.0000000000e+00 0.0000000000e+00 0.0000000000e+00 
          0.0000000000e+00 0.0000000000e+00 0.0000000000e+00 
          0.0000000000e+00 0.0000000000e+00 0.0000000000e+00 
          0.0000000000e+00 0.0000000000e+00 0.0000000000e+00 
          0.0000000000e+00 0.0000000000e+00 0.0000000000e+00 
          0.0000000000e+00 0.0000000000e+00 0.0000000000e+00 
          0.0000000000e+00 0.0000000000e+00 0.0000000000e+00 
          0.0000000000e+00 0.0000000000e+00 0.0000000000e+00 
          0.0000000000e+00 0.0000000000e+00 0.0000000000e+00 
          0.0000000000e+00 0.0000000000e+00 0.0000000000e+00 
          0.0000000000e+00 0.0000000000e+00 0.0000000000e+00 
          0.0000000000e+00 0.0000000000e+00 0.0000000000e+00 
          0.0000000000e+00 0.0000000000e+00 0.0000000000e+00 
          0.0000000000e+00 0.0000000000e+00 0.0000000000e+00 
          0.0000000000e+00 0.0000000000e+00 0.0000000000e+00 
          0.0000000000e+00 0.0000000000e+00 0.0000000000e+00 
          0.0000000000e+00 0.0000000000e+00 0.0000000000e+00 
          0.0000000000e+00 0.0000000000e+00 0.0000000000e+00 
          0.0000000000e+00 0.0000000000e+00 0.0000000000e+00 
          0.0000000000e+00 0.0000000000e+00 0.0000000000e+00 
          0.0000000000e+00 0.0000000000e+00 0.0000000000e+00 
          0.0000000000e+00 0.0000000000e+00 0.0000000000e+00 
          0.0000000000e+00 0.0000000000e+00 0.0000000000e+00 
          0.0000000000e+00 0.0000000000e+00 0.0000000000e+00 
          0.0000000000e+00 0.0000000000e+00 0.0000000000e+00 
          0.0000000000e+00 0.0000000000e+00 0.0000000000e+00 
          0.0000000000e+00 0.0000000000e+00 0.0000000000e+00 
          0.0000000000e+00 0.0000000000e+00 0.0000000000e+00 
          0.0000000000e+00 0.0000000000e+00 0.0000000000e+00 
          0.0000000000e+00 0.0000000000e+00 0.0000000000e+00 
          0.0000000000e+00 0.0000000000e+00 0.0000000000e+00 
          0.0000000000e+00 0.0000000000e+00 0.0000000000e+00 
          0.0000000000e+00 0.0000000000e+00 0.0000000000e+00 
          0.0000000000e+00 0.0000000000e+00 0.0000000000e+00 
          0.0000000000e+00 0.0000000000e+00 0.0000000000e+00 
          0.0000000000e+00 0.0000000000e+00 0.0000000000e+00 
          0.0000000000e+00 0.0000000000e+00 0.0000000000e+00 
          0.0000000000e+00 0.0000000000e+00 0.0000000000e+00 
          0.0000000000e+00 0.0000000000e+00 0.0000000000e+00 
          0.0000000000e+00 0.0000000000e+00 0.0000000000e+00 
          0.0000000000e+00 0.0000000000e+00 0.0000000000e+00 
          0.0000000000e+00 0.0000000000e+00 0.0000000000e+00 
          0.0000000000e+00 0.0000000000e+00 0.0000000000e+00 
          0.0000000000e+00 0.0000000000e+00 0.0000000000e+00 
          0.0000000000e+00 0.0000000000e+00 0.0000000000e+00 
          0.0000000000e+00 0.0000000000e+00 0.0000000000e+00 
          0.0000000000e+00 0.0000000000e+00 0.0000000000e+00 
          0.0000000000e+00 0.0000000000e+00 0.0000000000e+00 
          0.0000000000e+00 0.0000000000e+00 0.0000000000e+00 
          0.0000000000e+00 0.0000000000e+00 0.0000000000e+00 
          0.0000000000e+00 0.0000000000e+00 0.0000000000e+00 
          0.0000000000e+00 0.0000000000e+00 0.0000000000e+00 
          0.0000000000e+00 0.0000000000e+00 0.0000000000e+00 
          0.0000000000e+00 0.0000000000e+00 0.0000000000e+00 
          0.0000000000e+00 0.0000000000e+00 0.0000000000e+00 
          0.0000000000e+00 0.0000000000e+00 0.0000000000e+00 
          0.0000000000e+00 0.0000000000e+00 0.0000000000e+00 
          0.0000000000e+00 0.0000000000e+00 0.0000000000e+00 
          0.0000000000e+00 0.0000000000e+00 0.0000000000e+00 
          0.0000000000e+00 0.0000000000e+00 0.0000000000e+00 
          0.0000000000e+00 0.0000000000e+00 0.0000000000e+00 
          0.0000000000e+00 0.0000000000e+00 0.0000000000e+00 
          0.0000000000e+00 0.0000000000e+00 0.0000000000e+00 
          0.0000000000e+00 0.0000000000e+00 0.0000000000e+00 
          0.0000000000e+00 0.0000000000e+00 0.0000000000e+00 
          0.0000000000e+00 0.0000000000e+00 0.0000000000e+00 
          0.0000000000e+00 0.0000000000e+00 0.0000000000e+00 
          0.0000000000e+00 0.0000000000e+00 0.0000000000e+00 
          0.0000000000e+00 0.0000000000e+00 0.0000000000e+00 
          0.0000000000e+00 0.0000000000e+00 0.0000000000e+00 
          0.0000000000e+00 0.0000000000e+00 0.0000000000e+00 
          0.0000000000e+00 0.0000000000e+00 0.0000000000e+00 
          0.0000000000e+00 0.0000000000e+00 0.0000000000e+00 
          0.0000000000e+00 0.0000000000e+00 0.0000000000e+00 
          0.0000000000e+00 0.0000000000e+00 0.0000000000e+00 
          0.0000000000e+00 0.0000000000e+00 0.0000000000e+00 
          0.0000000000e+00 0.0000000000e+00 0.0000000000e+00 
          0.0000000000e+00 0.0000000000e+00 0.0000000000e+00 
          0.0000000000e+00 0.0000000000e+00 0.0000000000e+00 
          0.0000000000e+00 0.0000000000e+00 0.0000000000e+00 
        </DataArray>
      </PointData>
      <CellData>
        <DataArray type="Int64" Name="ElementTag" format="ascii">
          90
          91
          92
          93
          94
          95
          96
          97
          98
          99
          100
          101
          102
          103
          104
          105
          106
          107
          108
          109
          110
          111
          112
          113
          114
          115
          116
          117
          118
          119
          120
          121
          122
          123
          124
          125
          126
          127
          128
        </DataArray>
      </CellData>
    </Piece>
  </UnstructuredGrid>
</VTKFile>
