<?xml version="1.0"?>
<VTKFile type="UnstructuredGrid" version="1.0" byte_order="LittleEndian" compressor="vtkZLibDataCompressor">
  <UnstructuredGrid>
    <Piece NumberOfPoints="82" NumberOfCells="1">
      <Points>
        <DataArray type="Float64" Name="Points" NumberOfComponents="3" format="ascii">
          0.0000000000e+00 0.0000000000e+00 0.0000000000e+00 
          2.5000000000e-01 0.0000000000e+00 0.0000000000e+00 
          2.5000000000e-01 3.0000000000e+01 0.0000000000e+00 
          0.0000000000e+00 3.0000000000e+01 0.0000000000e+00 
          0.0000000000e+00 -5.0000000000e+00 0.0000000000e+00 
          2.5000000000e-01 -5.0000000000e+00 0.0000000000e+00 
          2.5000000000e-01 7.6923100000e-01 0.0000000000e+00 
          2.5000000000e-01 1.5384620000e+00 0.0000000000e+00 
          2.5000000000e-01 2.3076920000e+00 0.0000000000e+00 
          2.5000000000e-01 3.0769230000e+00 0.0000000000e+00 
          2.5000000000e-01 3.8461540000e+00 0.0000000000e+00 
          2.5000000000e-01 4.6153850000e+00 0.0000000000e+00 
          2.5000000000e-01 5.3846150000e+00 0.0000000000e+00 
          2.5000000000e-01 6.1538460000e+00 0.0000000000e+00 
          2.5000000000e-01 6.9230770000e+00 0.0000000000e+00 
          2.5000000000e-01 7.6923080000e+00 0.0000000000e+00 
          2.5000000000e-01 8.4615380000e+00 0.0000000000e+00 
          2.5000000000e-01 9.2307690000e+00 0.0000000000e+00 
          2.5000000000e-01 1.0000000000e+01 0.0000000000e+00 
          2.5000000000e-01 1.0769231000e+01 0.0000000000e+00 
          2.5000000000e-01 1.1538462000e+01 0.0000000000e+00 
          2.5000000000e-01 1.2307692000e+01 0.0000000000e+00 
          2.5000000000e-01 1.3076923000e+01 0.0000000000e+00 
          2.5000000000e-01 1.3846154000e+01 0.0000000000e+00 
          2.5000000000e-01 1.4615385000e+01 0.0000000000e+00 
          2.5000000000e-01 1.5384615000e+01 0.0000000000e+00 
          2.5000000000e-01 1.6153846000e+01 0.0000000000e+00 
          2.5000000000e-01 1.6923077000e+01 0.0000000000e+00 
          2.5000000000e-01 1.7692308000e+01 0.0000000000e+00 
          2.5000000000e-01 1.8461538000e+01 0.0000000000e+00 
          2.5000000000e-01 1.9230769000e+01 0.0000000000e+00 
          2.5000000000e-01 2.0000000000e+01 0.0000000000e+00 
          2.5000000000e-01 2.0769231000e+01 0.0000000000e+00 
          2.5000000000e-01 2.1538462000e+01 0.0000000000e+00 
          2.5000000000e-01 2.2307692000e+01 0.0000000000e+00 
          2.5000000000e-01 2.3076923000e+01 0.0000000000e+00 
          2.5000000000e-01 2.3846154000e+01 0.0000000000e+00 
          2.5000000000e-01 2.4615385000e+01 0.0000000000e+00 
          2.5000000000e-01 2.5384615000e+01 0.0000000000e+00 
          2.5000000000e-01 2.6153846000e+01 0.0000000000e+00 
          2.5000000000e-01 2.6923077000e+01 0.0000000000e+00 
          2.5000000000e-01 2.7692308000e+01 0.0000000000e+00 
          2.5000000000e-01 2.8461538000e+01 0.0000000000e+00 
          2.5000000000e-01 2.9230769000e+01 0.0000000000e+00 
          0.0000000000e+00 7.6923100000e-01 0.0000000000e+00 
          0.0000000000e+00 1.5384620000e+00 0.0000000000e+00 
          0.0000000000e+00 2.3076920000e+00 0.0000000000e+00 
          0.0000000000e+00 3.0769230000e+00 0.0000000000e+00 
          0.0000000000e+00 3.8461540000e+00 0.0000000000e+00 
          0.0000000000e+00 4.6153850000e+00 0.0000000000e+00 
          0.0000000000e+00 5.3846150000e+00 0.0000000000e+00 
          0.0000000000e+00 6.1538460000e+00 0.0000000000e+00 
          0.0000000000e+00 6.9230770000e+00 0.0000000000e+00 
          0.0000000000e+00 7.6923080000e+00 0.0000000000e+00 
          0.0000000000e+00 8.4615380000e+00 0.0000000000e+00 
          0.0000000000e+00 9.2307690000e+00 0.0000000000e+00 
          0.0000000000e+00 1.0000000000e+01 0.0000000000e+00 
          0.0000000000e+00 1.0769231000e+01 0.0000000000e+00 
          0.0000000000e+00 1.1538462000e+01 0.0000000000e+00 
          0.0000000000e+00 1.2307692000e+01 0.0000000000e+00 
          0.0000000000e+00 1.3076923000e+01 0.0000000000e+00 
          0.0000000000e+00 1.3846154000e+01 0.0000000000e+00 
          0.0000000000e+00 1.4615385000e+01 0.0000000000e+00 
          0.0000000000e+00 1.5384615000e+01 0.0000000000e+00 
          0.0000000000e+00 1.6153846000e+01 0.0000000000e+00 
          0.0000000000e+00 1.6923077000e+01 0.0000000000e+00 
          0.0000000000e+00 1.7692308000e+01 0.0000000000e+00 
          0.0000000000e+00 1.8461538000e+01 0.0000000000e+00 
          0.0000000000e+00 1.9230769000e+01 0.0000000000e+00 
          0.0000000000e+00 2.0000000000e+01 0.0000000000e+00 
          0.0000000000e+00 2.0769231000e+01 0.0000000000e+00 
          0.0000000000e+00 2.1538462000e+01 0.0000000000e+00 
          0.0000000000e+00 2.2307692000e+01 0.0000000000e+00 
          0.0000000000e+00 2.3076923000e+01 0.0000000000e+00 
          0.0000000000e+00 2.3846154000e+01 0.0000000000e+00 
          0.0000000000e+00 2.4615385000e+01 0.0000000000e+00 
          0.0000000000e+00 2.5384615000e+01 0.0000000000e+00 
          0.0000000000e+00 2.6153846000e+01 0.0000000000e+00 
          0.0000000000e+00 2.6923077000e+01 0.0000000000e+00 
          0.0000000000e+00 2.7692308000e+01 0.0000000000e+00 
          0.0000000000e+00 2.8461538000e+01 0.0000000000e+00 
          0.0000000000e+00 2.9230769000e+01 0.0000000000e+00 
        </DataArray>
      </Points>
      <Cells>
        <DataArray type="Int64" Name="connectivity" format="ascii">
          0
          1
          2
          3
          4
          5
          6
          7
          8
          9
          10
          11
          12
          13
          14
          15
          16
          17
          18
          19
          20
          21
          22
          23
          24
          25
          26
          27
          28
          29
          30
          31
          32
          33
          34
          35
          36
          37
          38
          39
          40
          41
          42
          43
          44
          45
          46
          47
          48
          49
          50
          51
          52
          53
          54
          55
          56
          57
          58
          59
          60
          61
          62
          63
          64
          65
          66
          67
          68
          69
          70
          71
          72
          73
          74
          75
          76
          77
          78
          79
          80
          81
        </DataArray>
        <DataArray type="Int64" Name="offsets" format="ascii">
          82
        </DataArray>
        <DataArray type="Int64" Name="types" format="ascii">
          2
        </DataArray>
      </Cells>
      <PointData>
        <DataArray type="Int64" Name="NodeTag" format="ascii">
          1
          2
          3
          4
          5
          6
          7
          8
          9
          10
          11
          12
          13
          14
          15
          16
          17
          18
          19
          20
          21
          22
          23
          24
          25
          26
          27
          28
          29
          30
          31
          32
          33
          34
          35
          36
          37
          38
          39
          40
          41
          42
          43
          44
          45
          46
          47
          48
          49
          50
          51
          52
          53
          54
          55
          56
          57
          58
          59
          60
          61
          62
          63
          64
          65
          66
          67
          68
          69
          70
          71
          72
          73
          74
          75
          76
          77
          78
          79
          80
          81
          82
        </DataArray>
        <DataArray type="Float64" Name="Velocity" NumberOfComponents="3" format="ascii">
          1.7832764289e-03 -7.7858631761e-05 0.0000000000e+00 
          1.7832764289e-03 -7.7858631761e-05 0.0000000000e+00 
          9.0942509666e-03 -7.7767100323e-05 0.0000000000e+00 
          9.0942509666e-03 -7.7767100323e-05 0.0000000000e+00 
          0.0000000000e+00 0.0000000000e+00 0.0000000000e+00 
          0.0000000000e+00 0.0000000000e+00 0.0000000000e+00 
          2.1077169272e-03 -7.7840688277e-05 0.0000000000e+00 
          2.4281518218e-03 -7.7847822037e-05 0.0000000000e+00 
          2.7442461625e-03 -7.7817175136e-05 0.0000000000e+00 
          3.0556896821e-03 -7.7879579243e-05 0.0000000000e+00 
          3.3621840638e-03 -7.7804571496e-05 0.0000000000e+00 
          3.6634138707e-03 -7.7794102736e-05 0.0000000000e+00 
          3.9590995897e-03 -7.7872534439e-05 0.0000000000e+00 
          4.2489378234e-03 -7.7798499797e-05 0.0000000000e+00 
          4.5326597355e-03 -7.7794191766e-05 0.0000000000e+00 
          4.8100064658e-03 -7.7818914557e-05 0.0000000000e+00 
          5.0806703376e-03 -7.7792329570e-05 0.0000000000e+00 
          5.3444401037e-03 -7.7768302853e-05 0.0000000000e+00 
          5.6010274888e-03 -7.7804148441e-05 0.0000000000e+00 
          5.8501905755e-03 -7.7764990864e-05 0.0000000000e+00 
          6.0917129767e-03 -7.7783201733e-05 0.0000000000e+00 
          6.3253203492e-03 -7.7775234073e-05 0.0000000000e+00 
          6.5508195456e-03 -7.7703956246e-05 0.0000000000e+00 
          6.7679820816e-03 -7.7830725246e-05 0.0000000000e+00 
          6.9765760245e-03 -7.7693183074e-05 0.0000000000e+00 
          7.1764134090e-03 -7.7770442860e-05 0.0000000000e+00 
          7.3672910236e-03 -7.7735258041e-05 0.0000000000e+00 
          7.5490110830e-03 -7.7710277965e-05 0.0000000000e+00 
          7.7213953950e-03 -7.7731059118e-05 0.0000000000e+00 
          7.8842662236e-03 -7.7682028683e-05 0.0000000000e+00 
          8.0374488862e-03 -7.7752067001e-05 0.0000000000e+00 
          8.1807967074e-03 -7.7675430345e-05 0.0000000000e+00 
          8.3141516202e-03 -7.7671549986e-05 0.0000000000e+00 
          8.4373706132e-03 -7.7759432771e-05 0.0000000000e+00 
          8.5503342358e-03 -7.7628787460e-05 0.0000000000e+00 
          8.6529060647e-03 -7.7718879931e-05 0.0000000000e+00 
          8.7449884993e-03 -7.7709903433e-05 0.0000000000e+00 
          8.8264794051e-03 -7.7663579259e-05 0.0000000000e+00 
          8.8972799931e-03 -7.7707704115e-05 0.0000000000e+00 
          8.9573285518e-03 -7.7700926336e-05 0.0000000000e+00 
          9.0065401832e-03 -7.7626622345e-05 0.0000000000e+00 
          9.0448826874e-03 -7.7706635643e-05 0.0000000000e+00 
          9.0723002533e-03 -7.7713658848e-05 0.0000000000e+00 
          9.0887526995e-03 -7.7606615320e-05 0.0000000000e+00 
          2.1077169272e-03 -7.7840688277e-05 0.0000000000e+00 
          2.4281518218e-03 -7.7847822037e-05 0.0000000000e+00 
          2.7442461625e-03 -7.7817175136e-05 0.0000000000e+00 
          3.0556896821e-03 -7.7879579243e-05 0.0000000000e+00 
          3.3621840638e-03 -7.7804571496e-05 0.0000000000e+00 
          3.6634138707e-03 -7.7794102736e-05 0.0000000000e+00 
          3.9590995897e-03 -7.7872534439e-05 0.0000000000e+00 
          4.2489378234e-03 -7.7798499797e-05 0.0000000000e+00 
          4.5326597355e-03 -7.7794191766e-05 0.0000000000e+00 
          4.8100064658e-03 -7.7818914557e-05 0.0000000000e+00 
          5.0806703376e-03 -7.7792329570e-05 0.0000000000e+00 
          5.3444401037e-03 -7.7768302853e-05 0.0000000000e+00 
          5.6010274888e-03 -7.7804148441e-05 0.0000000000e+00 
          5.8501905755e-03 -7.7764990864e-05 0.0000000000e+00 
          6.0917129767e-03 -7.7783201733e-05 0.0000000000e+00 
          6.3253203492e-03 -7.7775234073e-05 0.0000000000e+00 
          6.5508195456e-03 -7.7703956246e-05 0.0000000000e+00 
          6.7679820816e-03 -7.7830725246e-05 0.0000000000e+00 
          6.9765760245e-03 -7.7693183074e-05 0.0000000000e+00 
          7.1764134090e-03 -7.7770442860e-05 0.0000000000e+00 
          7.3672910236e-03 -7.7735258041e-05 0.0000000000e+00 
          7.5490110830e-03 -7.7710277965e-05 0.0000000000e+00 
          7.7213953950e-03 -7.7731059118e-05 0.0000000000e+00 
          7.8842662236e-03 -7.7682028683e-05 0.0000000000e+00 
          8.0374488862e-03 -7.7752067001e-05 0.0000000000e+00 
          8.1807967074e-03 -7.7675430345e-05 0.0000000000e+00 
          8.3141516202e-03 -7.7671549986e-05 0.0000000000e+00 
          8.4373706132e-03 -7.7759432771e-05 0.0000000000e+00 
          8.5503342358e-03 -7.7628787460e-05 0.0000000000e+00 
          8.6529060647e-03 -7.7718879931e-05 0.0000000000e+00 
          8.7449884993e-03 -7.7709903433e-05 0.0000000000e+00 
          8.8264794051e-03 -7.7663579259e-05 0.0000000000e+00 
          8.8972799931e-03 -7.7707704115e-05 0.0000000000e+00 
          8.9573285518e-03 -7.7700926336e-05 0.0000000000e+00 
          9.0065401832e-03 -7.7626622345e-05 0.0000000000e+00 
          9.0448826874e-03 -7.7706635643e-05 0.0000000000e+00 
          9.0723002533e-03 -7.7713658848e-05 0.0000000000e+00 
          9.0887526995e-03 -7.7606615320e-05 0.0000000000e+00 
        </DataArray>
        <DataArray type="Float64" Name="Displacement" NumberOfComponents="3" format="ascii">
          -1.7005291487e-04 -3.6248936714e-04 0.0000000000e+00 
          -1.7005291487e-04 -3.6248936714e-04 0.0000000000e+00 
          6.1058536886e-04 -3.8607414790e-04 0.0000000000e+00 
          6.1058536886e-04 -3.8607414790e-04 0.0000000000e+00 
          0.0000000000e+00 0.0000000000e+00 0.0000000000e+00 
          0.0000000000e+00 0.0000000000e+00 0.0000000000e+00 
          -1.4032956063e-04 -3.6368332824e-04 0.0000000000e+00 
          -1.1044940877e-04 -3.6484616518e-04 0.0000000000e+00 
          -8.0473820556e-05 -3.6597817499e-04 0.0000000000e+00 
          -5.0464106126e-05 -3.6707886473e-04 0.0000000000e+00 
          -2.0481441134e-05 -3.6814887112e-04 0.0000000000e+00 
          9.4132906966e-06 -3.6918775366e-04 0.0000000000e+00 
          3.9159535597e-05 -3.7019538610e-04 0.0000000000e+00 
          6.8697409725e-05 -3.7117247695e-04 0.0000000000e+00 
          9.7967493948e-05 -3.7211815772e-04 0.0000000000e+00 
          1.2691126342e-04 -3.7303298491e-04 0.0000000000e+00 
          1.5547093029e-04 -3.7391679506e-04 0.0000000000e+00 
          1.8358982215e-04 -3.7476957574e-04 0.0000000000e+00 
          2.1121225277e-04 -3.7559143074e-04 0.0000000000e+00 
          2.3828371215e-04 -3.7638207757e-04 0.0000000000e+00 
          2.6475103604e-04 -3.7714199983e-04 0.0000000000e+00 
          2.9056235753e-04 -3.7787073158e-04 0.0000000000e+00 
          3.1566735123e-04 -3.7856843209e-04 0.0000000000e+00 
          3.4001722655e-04 -3.7923540116e-04 0.0000000000e+00 
          3.6356478389e-04 -3.7987094612e-04 0.0000000000e+00 
          3.8626452803e-04 -3.8047580934e-04 0.0000000000e+00 
          4.0807289070e-04 -3.8104964791e-04 0.0000000000e+00 
          4.2894795280e-04 -3.8159230064e-04 0.0000000000e+00 
          4.4884984912e-04 -3.8210399978e-04 0.0000000000e+00 
          4.6774064866e-04 -3.8258482769e-04 0.0000000000e+00 
          4.8558450505e-04 -3.8303451987e-04 0.0000000000e+00 
          5.0234757477e-04 -3.8345320956e-04 0.0000000000e+00 
          5.1799819938e-04 -3.8384096035e-04 0.0000000000e+00 
          5.3250691045e-04 -3.8419750350e-04 0.0000000000e+00 
          5.4584639997e-04 -3.8452340152e-04 0.0000000000e+00 
          5.5799170972e-04 -3.8481786031e-04 0.0000000000e+00 
          5.6892006670e-04 -3.8508160873e-04 0.0000000000e+00 
          5.7861110688e-04 -3.8531426163e-04 0.0000000000e+00 
          5.8704673050e-04 -3.8551578931e-04 0.0000000000e+00 
          5.9421123700e-04 -3.8568640077e-04 0.0000000000e+00 
          6.0009135877e-04 -3.8582605609e-04 0.0000000000e+00 
          6.0467609781e-04 -3.8593461188e-04 0.0000000000e+00 
          6.0795700505e-04 -3.8601207283e-04 0.0000000000e+00 
          6.0992799845e-04 -3.8605873145e-04 0.0000000000e+00 
          -1.4032956063e-04 -3.6368332824e-04 0.0000000000e+00 
          -1.1044940877e-04 -3.6484616518e-04 0.0000000000e+00 
          -8.0473820556e-05 -3.6597817499e-04 0.0000000000e+00 
          -5.0464106126e-05 -3.6707886473e-04 0.0000000000e+00 
          -2.0481441134e-05 -3.6814887112e-04 0.0000000000e+00 
          9.4132906966e-06 -3.6918775366e-04 0.0000000000e+00 
          3.9159535597e-05 -3.7019538610e-04 0.0000000000e+00 
          6.8697409725e-05 -3.7117247695e-04 0.0000000000e+00 
          9.7967493948e-05 -3.7211815772e-04 0.0000000000e+00 
          1.2691126342e-04 -3.7303298491e-04 0.0000000000e+00 
          1.5547093029e-04 -3.7391679506e-04 0.0000000000e+00 
          1.8358982215e-04 -3.7476957574e-04 0.0000000000e+00 
          2.1121225277e-04 -3.7559143074e-04 0.0000000000e+00 
          2.3828371215e-04 -3.7638207757e-04 0.0000000000e+00 
          2.6475103604e-04 -3.7714199983e-04 0.0000000000e+00 
          2.9056235753e-04 -3.7787073158e-04 0.0000000000e+00 
          3.1566735123e-04 -3.7856843209e-04 0.0000000000e+00 
          3.4001722655e-04 -3.7923540116e-04 0.0000000000e+00 
          3.6356478389e-04 -3.7987094612e-04 0.0000000000e+00 
          3.8626452803e-04 -3.8047580934e-04 0.0000000000e+00 
          4.0807289070e-04 -3.8104964791e-04 0.0000000000e+00 
          4.2894795280e-04 -3.8159230064e-04 0.0000000000e+00 
          4.4884984912e-04 -3.8210399978e-04 0.0000000000e+00 
          4.6774064866e-04 -3.8258482769e-04 0.0000000000e+00 
          4.8558450505e-04 -3.8303451987e-04 0.0000000000e+00 
          5.0234757477e-04 -3.8345320956e-04 0.0000000000e+00 
          5.1799819938e-04 -3.8384096035e-04 0.0000000000e+00 
          5.3250691045e-04 -3.8419750350e-04 0.0000000000e+00 
          5.4584639997e-04 -3.8452340152e-04 0.0000000000e+00 
          5.5799170972e-04 -3.8481786031e-04 0.0000000000e+00 
          5.6892006670e-04 -3.8508160873e-04 0.0000000000e+00 
          5.7861110688e-04 -3.8531426163e-04 0.0000000000e+00 
          5.8704673050e-04 -3.8551578931e-04 0.0000000000e+00 
          5.9421123700e-04 -3.8568640077e-04 0.0000000000e+00 
          6.0009135877e-04 -3.8582605609e-04 0.0000000000e+00 
          6.0467609781e-04 -3.8593461188e-04 0.0000000000e+00 
          6.0795700505e-04 -3.8601207283e-04 0.0000000000e+00 
          6.0992799845e-04 -3.8605873145e-04 0.0000000000e+00 
        </DataArray>
        <DataArray type="Float64" Name="Acceleration" NumberOfComponents="3" format="ascii">
          1.9647601798e-02 9.1437625749e-07 0.0000000000e+00 
          1.9647601798e-02 9.1437625749e-07 0.0000000000e+00 
          -1.1846074289e-01 -3.1253595300e-05 0.0000000000e+00 
          -1.1846074289e-01 -3.1253595300e-05 0.0000000000e+00 
          0.0000000000e+00 0.0000000000e+00 0.0000000000e+00 
          0.0000000000e+00 0.0000000000e+00 0.0000000000e+00 
          1.4127774371e-02 2.1234030104e-05 0.0000000000e+00 
          8.6025212896e-03 -3.2557416684e-05 0.0000000000e+00 
          3.0713302404e-03 5.6804921475e-05 0.0000000000e+00 
          -2.4372078784e-03 -5.8201383160e-05 0.0000000000e+00 
          -7.9229513934e-03 2.1175183318e-05 0.0000000000e+00 
          -1.3375490135e-02 4.3692602527e-05 0.0000000000e+00 
          -1.8778114536e-02 -8.3506918942e-05 0.0000000000e+00 
          -2.4128399262e-02 7.2755748197e-05 0.0000000000e+00 
          -2.9401603584e-02 -2.7529237673e-05 0.0000000000e+00 
          -3.4605080030e-02 1.7265444148e-06 0.0000000000e+00 
          -3.9718069653e-02 4.3790835850e-06 0.0000000000e+00 
          -4.4732139070e-02 -1.4533197799e-05 0.0000000000e+00 
          -4.9643596066e-02 3.6370262490e-05 0.0000000000e+00 
          -5.4433801116e-02 -5.0776839224e-05 0.0000000000e+00 
          -5.9104126602e-02 3.3023343568e-05 0.0000000000e+00 
          -6.3644593482e-02 4.6603449520e-06 0.0000000000e+00 
          -6.8037656991e-02 -4.9535731350e-05 0.0000000000e+00 
          -7.2290435228e-02 7.5283087177e-05 0.0000000000e+00 
          -7.6387034209e-02 -5.8631209751e-05 0.0000000000e+00 
          -8.0317940720e-02 3.4448716584e-06 0.0000000000e+00 
          -8.4092226059e-02 3.2347931410e-05 0.0000000000e+00 
          -8.7684157463e-02 -9.5064319854e-06 0.0000000000e+00 
          -9.1099663994e-02 -2.4454542380e-05 0.0000000000e+00 
          -9.4333918986e-02 2.3431429259e-05 0.0000000000e+00 
          -9.7381012518e-02 -6.9115467982e-07 0.0000000000e+00 
          -1.0023350214e-01 -1.2152575033e-05 0.0000000000e+00 
          -1.0288866574e-01 3.6275271310e-05 0.0000000000e+00 
          -1.0534767597e-01 -6.5163884553e-05 0.0000000000e+00 
          -1.0759958779e-01 7.8088493681e-05 0.0000000000e+00 
          -1.0964984752e-01 -5.3333121258e-05 0.0000000000e+00 
          -1.1148468835e-01 1.6070792046e-05 0.0000000000e+00 
          -1.1311459576e-01 2.1379507058e-05 0.0000000000e+00 
          -1.1453122588e-01 -1.6189035407e-05 0.0000000000e+00 
          -1.1572560010e-01 -9.0463443252e-06 0.0000000000e+00 
          -1.1671654232e-01 1.6794811167e-05 0.0000000000e+00 
          -1.1747751255e-01 1.5934381147e-05 0.0000000000e+00 
          -1.1802628409e-01 -3.6742400884e-05 0.0000000000e+00 
          -1.1836002675e-01 4.2498657027e-05 0.0000000000e+00 
          1.4127774371e-02 2.1234030104e-05 0.0000000000e+00 
          8.6025212896e-03 -3.2557416684e-05 0.0000000000e+00 
          3.0713302404e-03 5.6804921475e-05 0.0000000000e+00 
          -2.4372078784e-03 -5.8201383160e-05 0.0000000000e+00 
          -7.9229513934e-03 2.1175183318e-05 0.0000000000e+00 
          -1.3375490135e-02 4.3692602527e-05 0.0000000000e+00 
          -1.8778114536e-02 -8.3506918942e-05 0.0000000000e+00 
          -2.4128399262e-02 7.2755748197e-05 0.0000000000e+00 
          -2.9401603584e-02 -2.7529237673e-05 0.0000000000e+00 
          -3.4605080030e-02 1.7265444148e-06 0.0000000000e+00 
          -3.9718069653e-02 4.3790835850e-06 0.0000000000e+00 
          -4.4732139070e-02 -1.4533197799e-05 0.0000000000e+00 
          -4.9643596066e-02 3.6370262490e-05 0.0000000000e+00 
          -5.4433801116e-02 -5.0776839224e-05 0.0000000000e+00 
          -5.9104126602e-02 3.3023343568e-05 0.0000000000e+00 
          -6.3644593482e-02 4.6603449520e-06 0.0000000000e+00 
          -6.8037656991e-02 -4.9535731350e-05 0.0000000000e+00 
          -7.2290435228e-02 7.5283087177e-05 0.0000000000e+00 
          -7.6387034209e-02 -5.8631209751e-05 0.0000000000e+00 
          -8.0317940720e-02 3.4448716584e-06 0.0000000000e+00 
          -8.4092226059e-02 3.2347931410e-05 0.0000000000e+00 
          -8.7684157463e-02 -9.5064319854e-06 0.0000000000e+00 
          -9.1099663994e-02 -2.4454542380e-05 0.0000000000e+00 
          -9.4333918986e-02 2.3431429259e-05 0.0000000000e+00 
          -9.7381012518e-02 -6.9115467982e-07 0.0000000000e+00 
          -1.0023350214e-01 -1.2152575033e-05 0.0000000000e+00 
          -1.0288866574e-01 3.6275271310e-05 0.0000000000e+00 
          -1.0534767597e-01 -6.5163884553e-05 0.0000000000e+00 
          -1.0759958779e-01 7.8088493681e-05 0.0000000000e+00 
          -1.0964984752e-01 -5.3333121258e-05 0.0000000000e+00 
          -1.1148468835e-01 1.6070792046e-05 0.0000000000e+00 
          -1.1311459576e-01 2.1379507058e-05 0.0000000000e+00 
          -1.1453122588e-01 -1.6189035407e-05 0.0000000000e+00 
          -1.1572560010e-01 -9.0463443252e-06 0.0000000000e+00 
          -1.1671654232e-01 1.6794811167e-05 0.0000000000e+00 
          -1.1747751255e-01 1.5934381147e-05 0.0000000000e+00 
          -1.1802628409e-01 -3.6742400884e-05 0.0000000000e+00 
          -1.1836002675e-01 4.2498657027e-05 0.0000000000e+00 
        </DataArray>
        <DataArray type="Float64" Name="Reaction" NumberOfComponents="3" format="ascii">
          0.0000000000e+00 0.0000000000e+00 0.0000000000e+00 
          0.0000000000e+00 0.0000000000e+00 0.0000000000e+00 
          0.0000000000e+00 0.0000000000e+00 0.0000000000e+00 
          0.0000000000e+00 0.0000000000e+00 0.0000000000e+00 
          0.0000000000e+00 0.0000000000e+00 0.0000000000e+00 
          0.0000000000e+00 0.0000000000e+00 0.0000000000e+00 
          0.0000000000e+00 0.0000000000e+00 0.0000000000e+00 
          0.0000000000e+00 0.0000000000e+00 0.0000000000e+00 
          0.0000000000e+00 0.0000000000e+00 0.0000000000e+00 
          0.0000000000e+00 0.0000000000e+00 0.0000000000e+00 
          0.0000000000e+00 0.0000000000e+00 0.0000000000e+00 
          0.0000000000e+00 0.0000000000e+00 0.0000000000e+00 
          0.0000000000e+00 0.0000000000e+00 0.0000000000e+00 
          0.0000000000e+00 0.0000000000e+00 0.0000000000e+00 
          0.0000000000e+00 0.0000000000e+00 0.0000000000e+00 
          0.0000000000e+00 0.0000000000e+00 0.0000000000e+00 
          0.0000000000e+00 0.0000000000e+00 0.0000000000e+00 
          0.0000000000e+00 0.0000000000e+00 0.0000000000e+00 
          0.0000000000e+00 0.0000000000e+00 0.0000000000e+00 
          0.0000000000e+00 0.0000000000e+00 0.0000000000e+00 
          0.0000000000e+00 0.0000000000e+00 0.0000000000e+00 
          0.0000000000e+00 0.0000000000e+00 0.0000000000e+00 
          0.0000000000e+00 0.0000000000e+00 0.0000000000e+00 
          0.0000000000e+00 0.0000000000e+00 0.0000000000e+00 
          0.0000000000e+00 0.0000000000e+00 0.0000000000e+00 
          0.0000000000e+00 0.0000000000e+00 0.0000000000e+00 
          0.0000000000e+00 0.0000000000e+00 0.0000000000e+00 
          0.0000000000e+00 0.0000000000e+00 0.0000000000e+00 
          0.0000000000e+00 0.0000000000e+00 0.0000000000e+00 
          0.0000000000e+00 0.0000000000e+00 0.0000000000e+00 
          0.0000000000e+00 0.0000000000e+00 0.0000000000e+00 
          0.0000000000e+00 0.0000000000e+00 0.0000000000e+00 
          0.0000000000e+00 0.0000000000e+00 0.0000000000e+00 
          0.0000000000e+00 0.0000000000e+00 0.0000000000e+00 
          0.0000000000e+00 0.0000000000e+00 0.0000000000e+00 
          0.0000000000e+00 0.0000000000e+00 0.0000000000e+00 
          0.0000000000e+00 0.0000000000e+00 0.0000000000e+00 
          0.0000000000e+00 0.0000000000e+00 0.0000000000e+00 
          0.0000000000e+00 0.0000000000e+00 0.0000000000e+00 
          0.0000000000e+00 0.0000000000e+00 0.0000000000e+00 
          0.0000000000e+00 0.0000000000e+00 0.0000000000e+00 
          0.0000000000e+00 0.0000000000e+00 0.0000000000e+00 
          0.0000000000e+00 0.0000000000e+00 0.0000000000e+00 
          0.0000000000e+00 0.0000000000e+00 0.0000000000e+00 
          0.0000000000e+00 0.0000000000e+00 0.0000000000e+00 
          0.0000000000e+00 0.0000000000e+00 0.0000000000e+00 
          0.0000000000e+00 0.0000000000e+00 0.0000000000e+00 
          0.0000000000e+00 0.0000000000e+00 0.0000000000e+00 
          0.0000000000e+00 0.0000000000e+00 0.0000000000e+00 
          0.0000000000e+00 0.0000000000e+00 0.0000000000e+00 
          0.0000000000e+00 0.0000000000e+00 0.0000000000e+00 
          0.0000000000e+00 0.0000000000e+00 0.0000000000e+00 
          0.0000000000e+00 0.0000000000e+00 0.0000000000e+00 
          0.0000000000e+00 0.0000000000e+00 0.0000000000e+00 
          0.0000000000e+00 0.0000000000e+00 0.0000000000e+00 
          0.0000000000e+00 0.0000000000e+00 0.0000000000e+00 
          0.0000000000e+00 0.0000000000e+00 0.0000000000e+00 
          0.0000000000e+00 0.0000000000e+00 0.0000000000e+00 
          0.0000000000e+00 0.0000000000e+00 0.0000000000e+00 
          0.0000000000e+00 0.0000000000e+00 0.0000000000e+00 
          0.0000000000e+00 0.0000000000e+00 0.0000000000e+00 
          0.0000000000e+00 0.0000000000e+00 0.0000000000e+00 
          0.0000000000e+00 0.0000000000e+00 0.0000000000e+00 
          0.0000000000e+00 0.0000000000e+00 0.0000000000e+00 
          0.0000000000e+00 0.0000000000e+00 0.0000000000e+00 
          0.0000000000e+00 0.0000000000e+00 0.0000000000e+00 
          0.0000000000e+00 0.0000000000e+00 0.0000000000e+00 
          0.0000000000e+00 0.0000000000e+00 0.0000000000e+00 
          0.0000000000e+00 0.0000000000e+00 0.0000000000e+00 
          0.0000000000e+00 0.0000000000e+00 0.0000000000e+00 
          0.0000000000e+00 0.0000000000e+00 0.0000000000e+00 
          0.0000000000e+00 0.0000000000e+00 0.0000000000e+00 
          0.0000000000e+00 0.0000000000e+00 0.0000000000e+00 
          0.0000000000e+00 0.0000000000e+00 0.0000000000e+00 
          0.0000000000e+00 0.0000000000e+00 0.0000000000e+00 
          0.0000000000e+00 0.0000000000e+00 0.0000000000e+00 
          0.0000000000e+00 0.0000000000e+00 0.0000000000e+00 
          0.0000000000e+00 0.0000000000e+00 0.0000000000e+00 
          0.0000000000e+00 0.0000000000e+00 0.0000000000e+00 
          0.0000000000e+00 0.0000000000e+00 0.0000000000e+00 
          0.0000000000e+00 0.0000000000e+00 0.0000000000e+00 
          0.0000000000e+00 0.0000000000e+00 0.0000000000e+00 
        </DataArray>
      </PointData>
      <CellData>
        <DataArray type="Int64" Name="ElementTag" format="ascii">
          0
        </DataArray>
      </CellData>
    </Piece>
  </UnstructuredGrid>
</VTKFile>
